%TF.GenerationSoftware,KiCad,Pcbnew,(6.99.0-1615-g403992a6f4-dirty)*%
%TF.CreationDate,2022-06-06T14:57:22-05:00*%
%TF.ProjectId,DeauthBottom,44656175-7468-4426-9f74-746f6d2e6b69,rev?*%
%TF.SameCoordinates,Original*%
%TF.FileFunction,Copper,L2,Bot*%
%TF.FilePolarity,Positive*%
%FSLAX46Y46*%
G04 Gerber Fmt 4.6, Leading zero omitted, Abs format (unit mm)*
G04 Created by KiCad (PCBNEW (6.99.0-1615-g403992a6f4-dirty)) date 2022-06-06 14:57:22*
%MOMM*%
%LPD*%
G01*
G04 APERTURE LIST*
%TA.AperFunction,ComponentPad*%
%ADD10C,6.200000*%
%TD*%
%TA.AperFunction,ComponentPad*%
%ADD11R,1.700000X1.700000*%
%TD*%
%TA.AperFunction,ComponentPad*%
%ADD12O,1.700000X1.700000*%
%TD*%
%TA.AperFunction,ComponentPad*%
%ADD13O,2.100000X1.000000*%
%TD*%
%TA.AperFunction,ComponentPad*%
%ADD14O,1.800000X1.000000*%
%TD*%
%TA.AperFunction,SMDPad,CuDef*%
%ADD15C,5.000000*%
%TD*%
%TA.AperFunction,ViaPad*%
%ADD16C,0.600000*%
%TD*%
%TA.AperFunction,Conductor*%
%ADD17C,0.250000*%
%TD*%
G04 APERTURE END LIST*
D10*
%TO.P,REF\u002A\u002A,1*%
%TO.N,N/C*%
X133600000Y-33400000D03*
%TD*%
%TO.P,J7,1,Pin_1*%
%TO.N,unconnected-(J7-Pin_1)*%
X166500000Y-93000000D03*
%TD*%
%TO.P,J5,1,Pin_1*%
%TO.N,unconnected-(J5-Pin_1)*%
X100600000Y-93000000D03*
%TD*%
%TO.P,J6,1,Pin_1*%
%TO.N,unconnected-(J6-Pin_1)*%
X166600000Y-155100000D03*
%TD*%
D11*
%TO.P,J3,1,Pin_1*%
%TO.N,1*%
X97499999Y-148424999D03*
D12*
%TO.P,J3,2,Pin_2*%
%TO.N,2*%
X97499999Y-145884999D03*
%TO.P,J3,3,Pin_3*%
%TO.N,3*%
X97499999Y-143344999D03*
%TO.P,J3,4,Pin_4*%
%TO.N,10*%
X97499999Y-140804999D03*
%TO.P,J3,5,Pin_5*%
%TO.N,9*%
X97499999Y-138264999D03*
%TO.P,J3,6,Pin_6*%
%TO.N,5*%
X97499999Y-135724999D03*
%TO.P,J3,7,Pin_7*%
%TO.N,7*%
X97499999Y-133184999D03*
%TO.P,J3,8,Pin_8*%
%TO.N,8*%
X97499999Y-130644999D03*
%TO.P,J3,9,Pin_9*%
%TO.N,6*%
X97499999Y-128104999D03*
%TO.P,J3,10,Pin_10*%
%TO.N,VSS*%
X97499999Y-125564999D03*
%TD*%
D13*
%TO.P,P1,S1,SHIELD*%
%TO.N,VSS*%
X166012499Y-138819999D03*
D14*
X170162499Y-138819999D03*
D13*
X166012499Y-130179999D03*
D14*
X170162499Y-130179999D03*
%TD*%
D11*
%TO.P,J2,1,Pin_1*%
%TO.N,VSS*%
X129749999Y-96949999D03*
D12*
%TO.P,J2,2,Pin_2*%
%TO.N,VCC*%
X132289999Y-96949999D03*
%TO.P,J2,3,Pin_3*%
%TO.N,/SCL*%
X134829999Y-96949999D03*
%TO.P,J2,4,Pin_4*%
%TO.N,/SDA*%
X137369999Y-96949999D03*
%TD*%
D10*
%TO.P,J8,1,Pin_1*%
%TO.N,unconnected-(J8-Pin_1)*%
X100500000Y-155000000D03*
%TD*%
D11*
%TO.P,J1,1,Pin_1*%
%TO.N,VCC*%
X135039999Y-159249999D03*
D12*
%TO.P,J1,2,Pin_2*%
%TO.N,VSS*%
X132499999Y-159249999D03*
%TO.P,J1,3,Pin_3*%
%TO.N,Up*%
X129959999Y-159249999D03*
%TO.P,J1,4,Pin_4*%
%TO.N,TX*%
X127419999Y-159249999D03*
%TO.P,J1,5,Pin_5*%
%TO.N,RX*%
X124879999Y-159249999D03*
%TO.P,J1,6,Pin_6*%
%TO.N,Reset*%
X122339999Y-159249999D03*
%TD*%
D15*
%TO.P,J10,1,Pin_1*%
%TO.N,Net-(J10-Pin_1)*%
X102000000Y-93125000D03*
%TD*%
%TO.P,J13,1,Pin_1*%
%TO.N,Net-(J13-Pin_1)*%
X166700000Y-154000000D03*
%TD*%
D16*
%TO.N,VBUS*%
X169500000Y-132500000D03*
X167000000Y-129000000D03*
%TO.N,VDDA*%
X154500000Y-117750000D03*
X111000000Y-92250000D03*
%TO.N,VSS*%
X161500000Y-150000000D03*
X167500000Y-147500000D03*
X156000000Y-65000000D03*
X108500000Y-73000000D03*
X169500000Y-102500000D03*
X170500000Y-151000000D03*
X162000000Y-146000000D03*
X170000000Y-127500000D03*
X160500000Y-121000000D03*
X111500000Y-95000000D03*
X154500000Y-123000000D03*
X166000000Y-121500000D03*
X144000000Y-61000000D03*
X152000000Y-117500000D03*
X132500000Y-149500000D03*
X166000000Y-128000000D03*
X166000000Y-104000000D03*
X164000000Y-114500000D03*
%TO.N,Buzzer*%
X148000000Y-130250000D03*
X148000000Y-119500000D03*
%TO.N,VCC*%
X160250000Y-78000000D03*
X171000000Y-112500000D03*
X145750000Y-149250000D03*
%TO.N,Reset*%
X146500000Y-147500000D03*
%TO.N,/SK6812*%
X135500000Y-140000000D03*
X134000000Y-137500000D03*
X136000000Y-146875500D03*
X133500000Y-104500000D03*
%TO.N,Net-(D4-DOUT)*%
X156500000Y-79000000D03*
X154500000Y-76500000D03*
%TO.N,Up*%
X145250000Y-134500000D03*
X163000000Y-105750000D03*
%TO.N,1*%
X158632078Y-140617922D03*
X138250000Y-141250000D03*
%TO.N,2*%
X138250000Y-140000000D03*
X158250000Y-139750000D03*
%TO.N,3*%
X138000000Y-139000000D03*
X157750000Y-138500000D03*
%TO.N,Net-(J10-Pin_1)*%
X114000000Y-94000000D03*
%TO.N,/SCL*%
X144250000Y-130250000D03*
%TO.N,/SDA*%
X146000000Y-130250000D03*
%TO.N,Net-(J13-Pin_1)*%
X162000000Y-144000000D03*
%TO.N,Down*%
X165750000Y-106000000D03*
X158000000Y-134750000D03*
%TO.N,Center*%
X157000000Y-134750000D03*
X164500000Y-105750000D03*
%TD*%
D17*
%TO.N,VBUS*%
X169500000Y-132500000D02*
X169500000Y-131500000D01*
X169500000Y-131500000D02*
X167000000Y-129000000D01*
%TO.N,VDDA*%
X154500000Y-117750000D02*
X154500000Y-107250000D01*
X139500000Y-92250000D02*
X111000000Y-92250000D01*
X154500000Y-107250000D02*
X139500000Y-92250000D01*
%TO.N,Buzzer*%
X148000000Y-119500000D02*
X148000000Y-130250000D01*
%TO.N,VCC*%
X171000000Y-112500000D02*
X171000000Y-88750000D01*
X145750000Y-149250000D02*
X139250000Y-149250000D01*
X139250000Y-149250000D02*
X135040000Y-153460000D01*
X135040000Y-153460000D02*
X135040000Y-159250000D01*
X171000000Y-88750000D02*
X160250000Y-78000000D01*
%TO.N,Reset*%
X122340000Y-152410000D02*
X122340000Y-159250000D01*
X146500000Y-147500000D02*
X127250000Y-147500000D01*
X127250000Y-147500000D02*
X122340000Y-152410000D01*
%TO.N,/SK6812*%
X136000000Y-146875500D02*
X136000000Y-140500000D01*
X136000000Y-140500000D02*
X135500000Y-140000000D01*
X133500000Y-137000000D02*
X134000000Y-137500000D01*
X133500000Y-104500000D02*
X133500000Y-137000000D01*
%TO.N,Net-(D4-DOUT)*%
X154500000Y-77000000D02*
X156500000Y-79000000D01*
X154500000Y-76500000D02*
X154500000Y-77000000D01*
%TO.N,Up*%
X163000000Y-105750000D02*
X156250000Y-112500000D01*
X156250000Y-131000000D02*
X152750000Y-134500000D01*
X120500000Y-160250000D02*
X120500000Y-153614283D01*
X152750000Y-134500000D02*
X145250000Y-134500000D01*
X120500000Y-153614283D02*
X139614283Y-134500000D01*
X139614283Y-134500000D02*
X145250000Y-134500000D01*
X127960000Y-161250000D02*
X121500000Y-161250000D01*
X121500000Y-161250000D02*
X120500000Y-160250000D01*
X156250000Y-112500000D02*
X156250000Y-131000000D01*
X129960000Y-159250000D02*
X127960000Y-161250000D01*
%TO.N,1*%
X138250000Y-141250000D02*
X158000000Y-141250000D01*
X158000000Y-141250000D02*
X158632078Y-140617922D01*
%TO.N,2*%
X138250000Y-140000000D02*
X158000000Y-140000000D01*
X158000000Y-140000000D02*
X158250000Y-139750000D01*
%TO.N,3*%
X157250000Y-139000000D02*
X157750000Y-138500000D01*
X138000000Y-139000000D02*
X157250000Y-139000000D01*
%TO.N,Net-(J10-Pin_1)*%
X114000000Y-94000000D02*
X104024511Y-94000000D01*
X104024511Y-94000000D02*
X104024511Y-93125000D01*
%TO.N,/SCL*%
X144250000Y-130250000D02*
X134830000Y-120830000D01*
X134830000Y-120830000D02*
X134830000Y-96950000D01*
%TO.N,/SDA*%
X137370000Y-121620000D02*
X137370000Y-96950000D01*
X146000000Y-130250000D02*
X137370000Y-121620000D01*
%TO.N,Net-(J13-Pin_1)*%
X166700000Y-148700000D02*
X166700000Y-151675489D01*
X162000000Y-144000000D02*
X166700000Y-148700000D01*
%TO.N,Down*%
X165750000Y-106000000D02*
X158000000Y-113750000D01*
X158000000Y-113750000D02*
X158000000Y-134750000D01*
%TO.N,Center*%
X164500000Y-106250000D02*
X164500000Y-105750000D01*
X157000000Y-134750000D02*
X157000000Y-113750000D01*
X157000000Y-113750000D02*
X164500000Y-106250000D01*
%TD*%
%TA.AperFunction,Conductor*%
%TO.N,VSS*%
G36*
X175882149Y-42983556D02*
G01*
X175946852Y-43012780D01*
X175985483Y-43072346D01*
X175990318Y-43118599D01*
X172007864Y-91903665D01*
X172000000Y-92000000D01*
X172000000Y-112168323D01*
X171979998Y-112236444D01*
X171926342Y-112282937D01*
X171856068Y-112293041D01*
X171791488Y-112263547D01*
X171755071Y-112209938D01*
X171740509Y-112168323D01*
X171733043Y-112146985D01*
X171652813Y-112019300D01*
X171633500Y-111952264D01*
X171633500Y-88828767D01*
X171634027Y-88817584D01*
X171635702Y-88810091D01*
X171633562Y-88742000D01*
X171633500Y-88738043D01*
X171633500Y-88710144D01*
X171632996Y-88706153D01*
X171632063Y-88694311D01*
X171630923Y-88658036D01*
X171630674Y-88650111D01*
X171628462Y-88642497D01*
X171628461Y-88642492D01*
X171625023Y-88630659D01*
X171621012Y-88611295D01*
X171619467Y-88599064D01*
X171618474Y-88591203D01*
X171615557Y-88583836D01*
X171615556Y-88583831D01*
X171602198Y-88550092D01*
X171598354Y-88538865D01*
X171588230Y-88504022D01*
X171586018Y-88496407D01*
X171575707Y-88478972D01*
X171567012Y-88461224D01*
X171559552Y-88442383D01*
X171533564Y-88406613D01*
X171527048Y-88396693D01*
X171508580Y-88365465D01*
X171508578Y-88365462D01*
X171504542Y-88358638D01*
X171490221Y-88344317D01*
X171477380Y-88329283D01*
X171470131Y-88319306D01*
X171465472Y-88312893D01*
X171431395Y-88284702D01*
X171422616Y-88276712D01*
X161084344Y-77938439D01*
X161050318Y-77876127D01*
X161048231Y-77863452D01*
X161044009Y-77825980D01*
X161044009Y-77825978D01*
X161043217Y-77818953D01*
X160983043Y-77646985D01*
X160886111Y-77492719D01*
X160757281Y-77363889D01*
X160732300Y-77348192D01*
X160609007Y-77270722D01*
X160603015Y-77266957D01*
X160431047Y-77206783D01*
X160424020Y-77205991D01*
X160424019Y-77205991D01*
X160257029Y-77187176D01*
X160250000Y-77186384D01*
X160242971Y-77187176D01*
X160075981Y-77205991D01*
X160075980Y-77205991D01*
X160068953Y-77206783D01*
X159896985Y-77266957D01*
X159890993Y-77270722D01*
X159767701Y-77348192D01*
X159742719Y-77363889D01*
X159613889Y-77492719D01*
X159516957Y-77646985D01*
X159456783Y-77818953D01*
X159436384Y-78000000D01*
X159456783Y-78181047D01*
X159516957Y-78353015D01*
X159613889Y-78507281D01*
X159742719Y-78636111D01*
X159896985Y-78733043D01*
X160068953Y-78793217D01*
X160075978Y-78794008D01*
X160075980Y-78794009D01*
X160113453Y-78798231D01*
X160178906Y-78825735D01*
X160188440Y-78834344D01*
X170329595Y-88975500D01*
X170363621Y-89037812D01*
X170366500Y-89064595D01*
X170366500Y-99789196D01*
X170346498Y-99857317D01*
X170292842Y-99903810D01*
X170222568Y-99913914D01*
X170157988Y-99884420D01*
X170124805Y-99839102D01*
X170077286Y-99728939D01*
X170077284Y-99728936D01*
X170074377Y-99722196D01*
X169969610Y-99581470D01*
X169835214Y-99468698D01*
X169678433Y-99389960D01*
X169600937Y-99371593D01*
X169514857Y-99351191D01*
X169514855Y-99351191D01*
X169507721Y-99349500D01*
X169376291Y-99349500D01*
X169361824Y-99351191D01*
X169253032Y-99363907D01*
X169253030Y-99363907D01*
X169245745Y-99364759D01*
X169080883Y-99424763D01*
X168934304Y-99521170D01*
X168929270Y-99526505D01*
X168929266Y-99526509D01*
X168820677Y-99641608D01*
X168813908Y-99648782D01*
X168726188Y-99800719D01*
X168675870Y-99968790D01*
X168665669Y-100143935D01*
X168696135Y-100316711D01*
X168731752Y-100399281D01*
X168738723Y-100415441D01*
X168765623Y-100477804D01*
X168870390Y-100618530D01*
X169004786Y-100731302D01*
X169161567Y-100810040D01*
X169239063Y-100828407D01*
X169325143Y-100848809D01*
X169325145Y-100848809D01*
X169332279Y-100850500D01*
X169463709Y-100850500D01*
X169492620Y-100847121D01*
X169586968Y-100836093D01*
X169586970Y-100836093D01*
X169594255Y-100835241D01*
X169759117Y-100775237D01*
X169905696Y-100678830D01*
X169910730Y-100673495D01*
X169910734Y-100673491D01*
X170021053Y-100556559D01*
X170026092Y-100551218D01*
X170113812Y-100399281D01*
X170119793Y-100379304D01*
X170158492Y-100319782D01*
X170223228Y-100290630D01*
X170293448Y-100301106D01*
X170346857Y-100347882D01*
X170366500Y-100415441D01*
X170366500Y-103589196D01*
X170346498Y-103657317D01*
X170292842Y-103703810D01*
X170222568Y-103713914D01*
X170157988Y-103684420D01*
X170124805Y-103639102D01*
X170077286Y-103528939D01*
X170077284Y-103528936D01*
X170074377Y-103522196D01*
X169969610Y-103381470D01*
X169835214Y-103268698D01*
X169678433Y-103189960D01*
X169600937Y-103171593D01*
X169514857Y-103151191D01*
X169514855Y-103151191D01*
X169507721Y-103149500D01*
X169376291Y-103149500D01*
X169361824Y-103151191D01*
X169253032Y-103163907D01*
X169253030Y-103163907D01*
X169245745Y-103164759D01*
X169080883Y-103224763D01*
X168934304Y-103321170D01*
X168929270Y-103326505D01*
X168929266Y-103326509D01*
X168820677Y-103441608D01*
X168813908Y-103448782D01*
X168726188Y-103600719D01*
X168675870Y-103768790D01*
X168675444Y-103776110D01*
X168675443Y-103776114D01*
X168670471Y-103861491D01*
X168665669Y-103943935D01*
X168696135Y-104116711D01*
X168731752Y-104199281D01*
X168738723Y-104215441D01*
X168765623Y-104277804D01*
X168870390Y-104418530D01*
X169004786Y-104531302D01*
X169161567Y-104610040D01*
X169239063Y-104628407D01*
X169325143Y-104648809D01*
X169325145Y-104648809D01*
X169332279Y-104650500D01*
X169463709Y-104650500D01*
X169492620Y-104647121D01*
X169586968Y-104636093D01*
X169586970Y-104636093D01*
X169594255Y-104635241D01*
X169759117Y-104575237D01*
X169905696Y-104478830D01*
X169910730Y-104473495D01*
X169910734Y-104473491D01*
X170021053Y-104356559D01*
X170026092Y-104351218D01*
X170113812Y-104199281D01*
X170119793Y-104179304D01*
X170158492Y-104119782D01*
X170223228Y-104090630D01*
X170293448Y-104101106D01*
X170346857Y-104147882D01*
X170366500Y-104215441D01*
X170366500Y-111952264D01*
X170347187Y-112019300D01*
X170266957Y-112146985D01*
X170206783Y-112318953D01*
X170186384Y-112500000D01*
X170206783Y-112681047D01*
X170266957Y-112853015D01*
X170363889Y-113007281D01*
X170492719Y-113136111D01*
X170646985Y-113233043D01*
X170818953Y-113293217D01*
X170825980Y-113294009D01*
X170825981Y-113294009D01*
X170992971Y-113312824D01*
X171000000Y-113313616D01*
X171007029Y-113312824D01*
X171174019Y-113294009D01*
X171174020Y-113294009D01*
X171181047Y-113293217D01*
X171353015Y-113233043D01*
X171507281Y-113136111D01*
X171636111Y-113007281D01*
X171733043Y-112853015D01*
X171755071Y-112790062D01*
X171796449Y-112732370D01*
X171862449Y-112706208D01*
X171932117Y-112719881D01*
X171983333Y-112769048D01*
X172000000Y-112831677D01*
X172000000Y-157730964D01*
X171998775Y-157748494D01*
X171974649Y-157920223D01*
X171973815Y-157926156D01*
X171971474Y-157938387D01*
X171963040Y-157973079D01*
X171950868Y-158023142D01*
X171917530Y-158082470D01*
X169036905Y-160963095D01*
X168974593Y-160997121D01*
X168947810Y-161000000D01*
X163626000Y-161000000D01*
X163557879Y-160979998D01*
X163511386Y-160926342D01*
X163500000Y-160874000D01*
X163500000Y-157361594D01*
X163520002Y-157293473D01*
X163573658Y-157246980D01*
X163643932Y-157236876D01*
X163708512Y-157266370D01*
X163723920Y-157282300D01*
X163914682Y-157517871D01*
X164182129Y-157785318D01*
X164476066Y-158023344D01*
X164478841Y-158025146D01*
X164641596Y-158130840D01*
X164793274Y-158229341D01*
X164796208Y-158230836D01*
X164796215Y-158230840D01*
X165008762Y-158339138D01*
X165130277Y-158401053D01*
X165225100Y-158437452D01*
X165479235Y-158535005D01*
X165483382Y-158536597D01*
X165848721Y-158634489D01*
X166047158Y-158665918D01*
X166219043Y-158693143D01*
X166219051Y-158693144D01*
X166222291Y-158693657D01*
X166600000Y-158713452D01*
X166977709Y-158693657D01*
X166980949Y-158693144D01*
X166980957Y-158693143D01*
X167152842Y-158665918D01*
X167351279Y-158634489D01*
X167716618Y-158536597D01*
X167720766Y-158535005D01*
X167974900Y-158437452D01*
X168069723Y-158401053D01*
X168191238Y-158339138D01*
X168403785Y-158230840D01*
X168403792Y-158230836D01*
X168406726Y-158229341D01*
X168558405Y-158130840D01*
X168721159Y-158025146D01*
X168723934Y-158023344D01*
X169017871Y-157785318D01*
X169285318Y-157517871D01*
X169523344Y-157223934D01*
X169624374Y-157068361D01*
X169727543Y-156909495D01*
X169727545Y-156909492D01*
X169729341Y-156906726D01*
X169781793Y-156803785D01*
X169899555Y-156572663D01*
X169901053Y-156569723D01*
X170036597Y-156216618D01*
X170134489Y-155851279D01*
X170193657Y-155477709D01*
X170213452Y-155100000D01*
X170193657Y-154722291D01*
X170177819Y-154622291D01*
X170135005Y-154351982D01*
X170134489Y-154348721D01*
X170036597Y-153983382D01*
X169901053Y-153630277D01*
X169886705Y-153602118D01*
X169730840Y-153296215D01*
X169730836Y-153296208D01*
X169729341Y-153293274D01*
X169722658Y-153282982D01*
X169611047Y-153111117D01*
X169552750Y-153021348D01*
X169537717Y-152988862D01*
X169532908Y-152972798D01*
X169532907Y-152972795D01*
X169531857Y-152969288D01*
X169393050Y-152647499D01*
X169356796Y-152584704D01*
X169219657Y-152347173D01*
X169219656Y-152347172D01*
X169217825Y-152344000D01*
X169018795Y-152076656D01*
X169010737Y-152065832D01*
X169010735Y-152065830D01*
X169008551Y-152062896D01*
X168768057Y-151807988D01*
X168765249Y-151805632D01*
X168765245Y-151805628D01*
X168502412Y-151585084D01*
X168502411Y-151585083D01*
X168499597Y-151582722D01*
X168321386Y-151465511D01*
X168209855Y-151392156D01*
X168209851Y-151392154D01*
X168206800Y-151390147D01*
X168203533Y-151388506D01*
X167896896Y-151234507D01*
X167896892Y-151234505D01*
X167893626Y-151232865D01*
X167564310Y-151113004D01*
X167560740Y-151112158D01*
X167560737Y-151112157D01*
X167430443Y-151081277D01*
X167368771Y-151046104D01*
X167335905Y-150983173D01*
X167333500Y-150958673D01*
X167333500Y-148778768D01*
X167334027Y-148767585D01*
X167335702Y-148760092D01*
X167335419Y-148751069D01*
X167333562Y-148692002D01*
X167333500Y-148688044D01*
X167333500Y-148660144D01*
X167332996Y-148656153D01*
X167332063Y-148644311D01*
X167331662Y-148631526D01*
X167330674Y-148600111D01*
X167328462Y-148592497D01*
X167328461Y-148592492D01*
X167325023Y-148580659D01*
X167321012Y-148561295D01*
X167319467Y-148549064D01*
X167318474Y-148541203D01*
X167315557Y-148533836D01*
X167315556Y-148533831D01*
X167302198Y-148500092D01*
X167298354Y-148488865D01*
X167296232Y-148481561D01*
X167286018Y-148446407D01*
X167275707Y-148428972D01*
X167267012Y-148411224D01*
X167259552Y-148392383D01*
X167233564Y-148356613D01*
X167227048Y-148346693D01*
X167208580Y-148315465D01*
X167208578Y-148315462D01*
X167204542Y-148308638D01*
X167190221Y-148294317D01*
X167177380Y-148279283D01*
X167170131Y-148269306D01*
X167165472Y-148262893D01*
X167131395Y-148234702D01*
X167122616Y-148226712D01*
X162834344Y-143938439D01*
X162800318Y-143876127D01*
X162798231Y-143863452D01*
X162794009Y-143825980D01*
X162794009Y-143825978D01*
X162793217Y-143818953D01*
X162733043Y-143646985D01*
X162636111Y-143492719D01*
X162507281Y-143363889D01*
X162477220Y-143345000D01*
X162359007Y-143270722D01*
X162353015Y-143266957D01*
X162181047Y-143206783D01*
X162174020Y-143205991D01*
X162174019Y-143205991D01*
X162007029Y-143187176D01*
X162000000Y-143186384D01*
X161992971Y-143187176D01*
X161825981Y-143205991D01*
X161825980Y-143205991D01*
X161818953Y-143206783D01*
X161646985Y-143266957D01*
X161640993Y-143270722D01*
X161522781Y-143345000D01*
X161492719Y-143363889D01*
X161363889Y-143492719D01*
X161266957Y-143646985D01*
X161206783Y-143818953D01*
X161186384Y-144000000D01*
X161206783Y-144181047D01*
X161266957Y-144353015D01*
X161363889Y-144507281D01*
X161492719Y-144636111D01*
X161646985Y-144733043D01*
X161818953Y-144793217D01*
X161825978Y-144794008D01*
X161825980Y-144794009D01*
X161863453Y-144798231D01*
X161928906Y-144825735D01*
X161938440Y-144834344D01*
X166029595Y-148925500D01*
X166063621Y-148987812D01*
X166066500Y-149014595D01*
X166066500Y-150958673D01*
X166046498Y-151026794D01*
X165992842Y-151073287D01*
X165969557Y-151081277D01*
X165839263Y-151112157D01*
X165839260Y-151112158D01*
X165835690Y-151113004D01*
X165506374Y-151232865D01*
X165503108Y-151234505D01*
X165503104Y-151234507D01*
X165196467Y-151388506D01*
X165193200Y-151390147D01*
X165190149Y-151392154D01*
X165190145Y-151392156D01*
X165078614Y-151465511D01*
X164900403Y-151582722D01*
X164897589Y-151585083D01*
X164897588Y-151585084D01*
X164634755Y-151805628D01*
X164634751Y-151805632D01*
X164631943Y-151807988D01*
X164391449Y-152062896D01*
X164389265Y-152065830D01*
X164389263Y-152065832D01*
X164381205Y-152076656D01*
X164182175Y-152344000D01*
X164180344Y-152347172D01*
X164180343Y-152347173D01*
X164093978Y-152496762D01*
X164073954Y-152522857D01*
X163914682Y-152682129D01*
X163788131Y-152838406D01*
X163723920Y-152917700D01*
X163665506Y-152958052D01*
X163594549Y-152960418D01*
X163533577Y-152924045D01*
X163501949Y-152860482D01*
X163500000Y-152838406D01*
X163500000Y-150750000D01*
X138950095Y-150750000D01*
X138881974Y-150729998D01*
X138835481Y-150676342D01*
X138825377Y-150606068D01*
X138854871Y-150541488D01*
X138861000Y-150534905D01*
X139475500Y-149920405D01*
X139537812Y-149886379D01*
X139564595Y-149883500D01*
X145202264Y-149883500D01*
X145269300Y-149902813D01*
X145396985Y-149983043D01*
X145568953Y-150043217D01*
X145575980Y-150044009D01*
X145575981Y-150044009D01*
X145742971Y-150062824D01*
X145750000Y-150063616D01*
X145757029Y-150062824D01*
X145924019Y-150044009D01*
X145924020Y-150044009D01*
X145931047Y-150043217D01*
X146103015Y-149983043D01*
X146257281Y-149886111D01*
X146386111Y-149757281D01*
X146483043Y-149603015D01*
X146543217Y-149431047D01*
X146563616Y-149250000D01*
X146543217Y-149068953D01*
X146483043Y-148896985D01*
X146436664Y-148823173D01*
X146389878Y-148748714D01*
X146386111Y-148742719D01*
X146257281Y-148613889D01*
X146235354Y-148600111D01*
X146109007Y-148520722D01*
X146103015Y-148516957D01*
X145931047Y-148456783D01*
X145924020Y-148455991D01*
X145924019Y-148455991D01*
X145757029Y-148437176D01*
X145750000Y-148436384D01*
X145742971Y-148437176D01*
X145575981Y-148455991D01*
X145575980Y-148455991D01*
X145568953Y-148456783D01*
X145396985Y-148516957D01*
X145390993Y-148520722D01*
X145269300Y-148597187D01*
X145202264Y-148616500D01*
X139328767Y-148616500D01*
X139317584Y-148615973D01*
X139310091Y-148614298D01*
X139302165Y-148614547D01*
X139302164Y-148614547D01*
X139242014Y-148616438D01*
X139238055Y-148616500D01*
X139210144Y-148616500D01*
X139206210Y-148616997D01*
X139206209Y-148616997D01*
X139206144Y-148617005D01*
X139194307Y-148617938D01*
X139163788Y-148618897D01*
X139158029Y-148619078D01*
X139150110Y-148619327D01*
X139132454Y-148624456D01*
X139130658Y-148624978D01*
X139111306Y-148628986D01*
X139104235Y-148629880D01*
X139091203Y-148631526D01*
X139083834Y-148634443D01*
X139083832Y-148634444D01*
X139050097Y-148647800D01*
X139038869Y-148651645D01*
X138996407Y-148663982D01*
X138989584Y-148668017D01*
X138989582Y-148668018D01*
X138978972Y-148674293D01*
X138961224Y-148682988D01*
X138942383Y-148690448D01*
X138935967Y-148695110D01*
X138935966Y-148695110D01*
X138906613Y-148716436D01*
X138896693Y-148722952D01*
X138865465Y-148741420D01*
X138865462Y-148741422D01*
X138858638Y-148745458D01*
X138844317Y-148759779D01*
X138829284Y-148772619D01*
X138812893Y-148784528D01*
X138807842Y-148790634D01*
X138784702Y-148818605D01*
X138776712Y-148827384D01*
X134647747Y-152956348D01*
X134639461Y-152963888D01*
X134632982Y-152968000D01*
X134627557Y-152973777D01*
X134586357Y-153017651D01*
X134583602Y-153020493D01*
X134563865Y-153040230D01*
X134561385Y-153043427D01*
X134553682Y-153052447D01*
X134523414Y-153084679D01*
X134519595Y-153091625D01*
X134519593Y-153091628D01*
X134513652Y-153102434D01*
X134502801Y-153118953D01*
X134490386Y-153134959D01*
X134487241Y-153142228D01*
X134487238Y-153142232D01*
X134472826Y-153175537D01*
X134467609Y-153186187D01*
X134446305Y-153224940D01*
X134444334Y-153232615D01*
X134444334Y-153232616D01*
X134441267Y-153244562D01*
X134434863Y-153263266D01*
X134426819Y-153281855D01*
X134425580Y-153289678D01*
X134425577Y-153289688D01*
X134419901Y-153325524D01*
X134417495Y-153337144D01*
X134408474Y-153372282D01*
X134406500Y-153379970D01*
X134406500Y-153400224D01*
X134404949Y-153419934D01*
X134401780Y-153439943D01*
X134402526Y-153447835D01*
X134405941Y-153483961D01*
X134406500Y-153495819D01*
X134406500Y-157765500D01*
X134386498Y-157833621D01*
X134332842Y-157880114D01*
X134280500Y-157891500D01*
X134141362Y-157891500D01*
X134138015Y-157891860D01*
X134138012Y-157891860D01*
X134117705Y-157894043D01*
X134080799Y-157898011D01*
X133943796Y-157949111D01*
X133936584Y-157954510D01*
X133936582Y-157954511D01*
X133875863Y-157999965D01*
X133826739Y-158036739D01*
X133821341Y-158043950D01*
X133753360Y-158134762D01*
X133739111Y-158153796D01*
X133735963Y-158162237D01*
X133694805Y-158272584D01*
X133652258Y-158329419D01*
X133585737Y-158354230D01*
X133516363Y-158339138D01*
X133484047Y-158313888D01*
X133426425Y-158251294D01*
X133418789Y-158244263D01*
X133249411Y-158112431D01*
X133240718Y-158106752D01*
X133051957Y-158004599D01*
X133042440Y-158000425D01*
X132839443Y-157930736D01*
X132829373Y-157928185D01*
X132771867Y-157918589D01*
X132758352Y-157920223D01*
X132754000Y-157934449D01*
X132754000Y-160566277D01*
X132757836Y-160579340D01*
X132772584Y-160581291D01*
X132829373Y-160571815D01*
X132839443Y-160569264D01*
X133042440Y-160499575D01*
X133051957Y-160495401D01*
X133240718Y-160393248D01*
X133249411Y-160387569D01*
X133418789Y-160255737D01*
X133426425Y-160248706D01*
X133484047Y-160186112D01*
X133544900Y-160149541D01*
X133615865Y-160151674D01*
X133674410Y-160191836D01*
X133694805Y-160227416D01*
X133739111Y-160346204D01*
X133744510Y-160353416D01*
X133744511Y-160353418D01*
X133772786Y-160391189D01*
X133826739Y-160463261D01*
X133833950Y-160468659D01*
X133927630Y-160538787D01*
X133943796Y-160550889D01*
X134080799Y-160601989D01*
X134117705Y-160605957D01*
X134138012Y-160608140D01*
X134138015Y-160608140D01*
X134141362Y-160608500D01*
X135938638Y-160608500D01*
X135941985Y-160608140D01*
X135941988Y-160608140D01*
X135962295Y-160605957D01*
X135999201Y-160601989D01*
X136136204Y-160550889D01*
X136152371Y-160538787D01*
X136246050Y-160468659D01*
X136253261Y-160463261D01*
X136307214Y-160391189D01*
X136335489Y-160353418D01*
X136335490Y-160353416D01*
X136340889Y-160346204D01*
X136391989Y-160209201D01*
X136398500Y-160148638D01*
X136398500Y-158351362D01*
X136391989Y-158290799D01*
X136340889Y-158153796D01*
X136326641Y-158134762D01*
X136258659Y-158043950D01*
X136253261Y-158036739D01*
X136204137Y-157999965D01*
X136143418Y-157954511D01*
X136143416Y-157954510D01*
X136136204Y-157949111D01*
X135999201Y-157898011D01*
X135962295Y-157894043D01*
X135941988Y-157891860D01*
X135941985Y-157891860D01*
X135938638Y-157891500D01*
X135799500Y-157891500D01*
X135731379Y-157871498D01*
X135684886Y-157817842D01*
X135673500Y-157765500D01*
X135673500Y-153774594D01*
X135693502Y-153706473D01*
X135710405Y-153685499D01*
X138034905Y-151361000D01*
X138097217Y-151326974D01*
X138168033Y-151332039D01*
X138224868Y-151374586D01*
X138249679Y-151441106D01*
X138250000Y-151450095D01*
X138250000Y-160874000D01*
X138229998Y-160942121D01*
X138176342Y-160988614D01*
X138124000Y-161000000D01*
X129410095Y-161000000D01*
X129341974Y-160979998D01*
X129295481Y-160926342D01*
X129285377Y-160856068D01*
X129314871Y-160791488D01*
X129321000Y-160784905D01*
X129502559Y-160603346D01*
X129564871Y-160569320D01*
X129621995Y-160570287D01*
X129625365Y-160571444D01*
X129756863Y-160593387D01*
X129842294Y-160607643D01*
X129842296Y-160607643D01*
X129847431Y-160608500D01*
X130072569Y-160608500D01*
X130077704Y-160607643D01*
X130077706Y-160607643D01*
X130289496Y-160572302D01*
X130289501Y-160572301D01*
X130294635Y-160571444D01*
X130507574Y-160498342D01*
X130555201Y-160472568D01*
X130700995Y-160393668D01*
X130705576Y-160391189D01*
X130883240Y-160252906D01*
X130958426Y-160171233D01*
X131032194Y-160091101D01*
X131032197Y-160091097D01*
X131035722Y-160087268D01*
X131124816Y-159950899D01*
X131178820Y-159904811D01*
X131249168Y-159895236D01*
X131313525Y-159925214D01*
X131335782Y-159950899D01*
X131421823Y-160082593D01*
X131428210Y-160090799D01*
X131573568Y-160248700D01*
X131581211Y-160255737D01*
X131750589Y-160387569D01*
X131759282Y-160393248D01*
X131948043Y-160495401D01*
X131957560Y-160499575D01*
X132160557Y-160569264D01*
X132170627Y-160571815D01*
X132228133Y-160581411D01*
X132241648Y-160579777D01*
X132246000Y-160565551D01*
X132246000Y-157933723D01*
X132242164Y-157920660D01*
X132227416Y-157918709D01*
X132170627Y-157928185D01*
X132160557Y-157930736D01*
X131957560Y-158000425D01*
X131948043Y-158004599D01*
X131759282Y-158106752D01*
X131750589Y-158112431D01*
X131581211Y-158244263D01*
X131573568Y-158251300D01*
X131428210Y-158409201D01*
X131421823Y-158417407D01*
X131335782Y-158549101D01*
X131281778Y-158595189D01*
X131211430Y-158604764D01*
X131147073Y-158574786D01*
X131124816Y-158549101D01*
X131124517Y-158548643D01*
X131035722Y-158412732D01*
X131032197Y-158408903D01*
X131032194Y-158408899D01*
X130886772Y-158250931D01*
X130883240Y-158247094D01*
X130747144Y-158141165D01*
X130709689Y-158112012D01*
X130709687Y-158112010D01*
X130705576Y-158108811D01*
X130585723Y-158043950D01*
X130512159Y-158004139D01*
X130512156Y-158004138D01*
X130507574Y-158001658D01*
X130294635Y-157928556D01*
X130289501Y-157927699D01*
X130289496Y-157927698D01*
X130077706Y-157892357D01*
X130077704Y-157892357D01*
X130072569Y-157891500D01*
X129847431Y-157891500D01*
X129842296Y-157892357D01*
X129842294Y-157892357D01*
X129630504Y-157927698D01*
X129630499Y-157927699D01*
X129625365Y-157928556D01*
X129412426Y-158001658D01*
X129407844Y-158004138D01*
X129407841Y-158004139D01*
X129334277Y-158043950D01*
X129214424Y-158108811D01*
X129210313Y-158112010D01*
X129210311Y-158112012D01*
X129172856Y-158141165D01*
X129036760Y-158247094D01*
X129033228Y-158250931D01*
X128887806Y-158408899D01*
X128887803Y-158408903D01*
X128884278Y-158412732D01*
X128881427Y-158417096D01*
X128795483Y-158548643D01*
X128741479Y-158594732D01*
X128671132Y-158604307D01*
X128606774Y-158574330D01*
X128584517Y-158548643D01*
X128498573Y-158417096D01*
X128495722Y-158412732D01*
X128492197Y-158408903D01*
X128492194Y-158408899D01*
X128346772Y-158250931D01*
X128343240Y-158247094D01*
X128207144Y-158141165D01*
X128169689Y-158112012D01*
X128169687Y-158112010D01*
X128165576Y-158108811D01*
X128045723Y-158043950D01*
X127972159Y-158004139D01*
X127972156Y-158004138D01*
X127967574Y-158001658D01*
X127754635Y-157928556D01*
X127749501Y-157927699D01*
X127749496Y-157927698D01*
X127537706Y-157892357D01*
X127537704Y-157892357D01*
X127532569Y-157891500D01*
X127307431Y-157891500D01*
X127302296Y-157892357D01*
X127302294Y-157892357D01*
X127090504Y-157927698D01*
X127090499Y-157927699D01*
X127085365Y-157928556D01*
X126872426Y-158001658D01*
X126867844Y-158004138D01*
X126867841Y-158004139D01*
X126794277Y-158043950D01*
X126674424Y-158108811D01*
X126670313Y-158112010D01*
X126670311Y-158112012D01*
X126632856Y-158141165D01*
X126496760Y-158247094D01*
X126493228Y-158250931D01*
X126347806Y-158408899D01*
X126347803Y-158408903D01*
X126344278Y-158412732D01*
X126341427Y-158417096D01*
X126255483Y-158548643D01*
X126201479Y-158594732D01*
X126131132Y-158604307D01*
X126066774Y-158574330D01*
X126044517Y-158548643D01*
X125958573Y-158417096D01*
X125955722Y-158412732D01*
X125952197Y-158408903D01*
X125952194Y-158408899D01*
X125806772Y-158250931D01*
X125803240Y-158247094D01*
X125667144Y-158141165D01*
X125629689Y-158112012D01*
X125629687Y-158112010D01*
X125625576Y-158108811D01*
X125505723Y-158043950D01*
X125432159Y-158004139D01*
X125432156Y-158004138D01*
X125427574Y-158001658D01*
X125214635Y-157928556D01*
X125209501Y-157927699D01*
X125209496Y-157927698D01*
X124997706Y-157892357D01*
X124997704Y-157892357D01*
X124992569Y-157891500D01*
X124767431Y-157891500D01*
X124762296Y-157892357D01*
X124762294Y-157892357D01*
X124550504Y-157927698D01*
X124550499Y-157927699D01*
X124545365Y-157928556D01*
X124332426Y-158001658D01*
X124327844Y-158004138D01*
X124327841Y-158004139D01*
X124254277Y-158043950D01*
X124134424Y-158108811D01*
X124130313Y-158112010D01*
X124130311Y-158112012D01*
X124092856Y-158141165D01*
X123956760Y-158247094D01*
X123953228Y-158250931D01*
X123807806Y-158408899D01*
X123807803Y-158408903D01*
X123804278Y-158412732D01*
X123801427Y-158417096D01*
X123715483Y-158548643D01*
X123661479Y-158594732D01*
X123591132Y-158604307D01*
X123526774Y-158574330D01*
X123504517Y-158548643D01*
X123418573Y-158417096D01*
X123415722Y-158412732D01*
X123412197Y-158408903D01*
X123412194Y-158408899D01*
X123266772Y-158250931D01*
X123263240Y-158247094D01*
X123127144Y-158141165D01*
X123089689Y-158112012D01*
X123089687Y-158112010D01*
X123085576Y-158108811D01*
X123039531Y-158083893D01*
X122989140Y-158033880D01*
X122973500Y-157973079D01*
X122973500Y-152724594D01*
X122993502Y-152656473D01*
X123010405Y-152635499D01*
X127475499Y-148170405D01*
X127537811Y-148136379D01*
X127564594Y-148133500D01*
X145952264Y-148133500D01*
X146019300Y-148152813D01*
X146146985Y-148233043D01*
X146318953Y-148293217D01*
X146325980Y-148294009D01*
X146325981Y-148294009D01*
X146492971Y-148312824D01*
X146500000Y-148313616D01*
X146507029Y-148312824D01*
X146674019Y-148294009D01*
X146674020Y-148294009D01*
X146681047Y-148293217D01*
X146853015Y-148233043D01*
X147007281Y-148136111D01*
X147136111Y-148007281D01*
X147233043Y-147853015D01*
X147293217Y-147681047D01*
X147313616Y-147500000D01*
X147293217Y-147318953D01*
X147233043Y-147146985D01*
X147136111Y-146992719D01*
X147007281Y-146863889D01*
X146979604Y-146846498D01*
X146859007Y-146770722D01*
X146853015Y-146766957D01*
X146681047Y-146706783D01*
X146674020Y-146705991D01*
X146674019Y-146705991D01*
X146533186Y-146690123D01*
X146500000Y-146686384D01*
X146466814Y-146690123D01*
X146325981Y-146705991D01*
X146325980Y-146705991D01*
X146318953Y-146706783D01*
X146146985Y-146766957D01*
X146140993Y-146770722D01*
X146019300Y-146847187D01*
X145952264Y-146866500D01*
X136925203Y-146866500D01*
X136857082Y-146846498D01*
X136810589Y-146792842D01*
X136799995Y-146754608D01*
X136794009Y-146701480D01*
X136794009Y-146701478D01*
X136793217Y-146694453D01*
X136733043Y-146522485D01*
X136652813Y-146394800D01*
X136633500Y-146327764D01*
X136633500Y-140578768D01*
X136634027Y-140567585D01*
X136635702Y-140560092D01*
X136633562Y-140492001D01*
X136633500Y-140488044D01*
X136633500Y-140460144D01*
X136632996Y-140456153D01*
X136632063Y-140444311D01*
X136632051Y-140443903D01*
X136630674Y-140400111D01*
X136628462Y-140392497D01*
X136628461Y-140392492D01*
X136625023Y-140380659D01*
X136621012Y-140361295D01*
X136619467Y-140349064D01*
X136618474Y-140341203D01*
X136615557Y-140333836D01*
X136615556Y-140333831D01*
X136602198Y-140300092D01*
X136598354Y-140288865D01*
X136588230Y-140254022D01*
X136586018Y-140246407D01*
X136575707Y-140228972D01*
X136567012Y-140211224D01*
X136559552Y-140192383D01*
X136533564Y-140156613D01*
X136527048Y-140146693D01*
X136508580Y-140115465D01*
X136508578Y-140115462D01*
X136504542Y-140108638D01*
X136490221Y-140094317D01*
X136477380Y-140079283D01*
X136470132Y-140069307D01*
X136465472Y-140062893D01*
X136431401Y-140034707D01*
X136422622Y-140026718D01*
X136334344Y-139938440D01*
X136300318Y-139876128D01*
X136298231Y-139863453D01*
X136294009Y-139825980D01*
X136294008Y-139825978D01*
X136293217Y-139818953D01*
X136233043Y-139646985D01*
X136136111Y-139492719D01*
X136007281Y-139363889D01*
X135919373Y-139308652D01*
X135872336Y-139255476D01*
X135861516Y-139185309D01*
X135890348Y-139120431D01*
X135897315Y-139112872D01*
X136010187Y-139000000D01*
X137186384Y-139000000D01*
X137187176Y-139007029D01*
X137199102Y-139112872D01*
X137206783Y-139181047D01*
X137266957Y-139353015D01*
X137270722Y-139359007D01*
X137300369Y-139406189D01*
X137363889Y-139507281D01*
X137457511Y-139600903D01*
X137491537Y-139663215D01*
X137487345Y-139731612D01*
X137456783Y-139818953D01*
X137436384Y-140000000D01*
X137437176Y-140007029D01*
X137453493Y-140151843D01*
X137456783Y-140181047D01*
X137516957Y-140353015D01*
X137520722Y-140359007D01*
X137604289Y-140492002D01*
X137613889Y-140507281D01*
X137642513Y-140535905D01*
X137676539Y-140598217D01*
X137671474Y-140669032D01*
X137642513Y-140714095D01*
X137613889Y-140742719D01*
X137516957Y-140896985D01*
X137456783Y-141068953D01*
X137436384Y-141250000D01*
X137437176Y-141257029D01*
X137454277Y-141408802D01*
X137456783Y-141431047D01*
X137516957Y-141603015D01*
X137520722Y-141609007D01*
X137566207Y-141681395D01*
X137613889Y-141757281D01*
X137742719Y-141886111D01*
X137896985Y-141983043D01*
X138068953Y-142043217D01*
X138075980Y-142044009D01*
X138075981Y-142044009D01*
X138242971Y-142062824D01*
X138250000Y-142063616D01*
X138257029Y-142062824D01*
X138424019Y-142044009D01*
X138424020Y-142044009D01*
X138431047Y-142043217D01*
X138603015Y-141983043D01*
X138730700Y-141902813D01*
X138797736Y-141883500D01*
X157921233Y-141883500D01*
X157932416Y-141884027D01*
X157939909Y-141885702D01*
X157947835Y-141885453D01*
X157947836Y-141885453D01*
X158007986Y-141883562D01*
X158011945Y-141883500D01*
X158039856Y-141883500D01*
X158043791Y-141883003D01*
X158043856Y-141882995D01*
X158055693Y-141882062D01*
X158087951Y-141881048D01*
X158091970Y-141880922D01*
X158099889Y-141880673D01*
X158119343Y-141875021D01*
X158138700Y-141871013D01*
X158150930Y-141869468D01*
X158150931Y-141869468D01*
X158158797Y-141868474D01*
X158166168Y-141865555D01*
X158166170Y-141865555D01*
X158199912Y-141852196D01*
X158211142Y-141848351D01*
X158245983Y-141838229D01*
X158245984Y-141838229D01*
X158253593Y-141836018D01*
X158260412Y-141831985D01*
X158260417Y-141831983D01*
X158271028Y-141825707D01*
X158288776Y-141817012D01*
X158307617Y-141809552D01*
X158343387Y-141783564D01*
X158353307Y-141777048D01*
X158384535Y-141758580D01*
X158384538Y-141758578D01*
X158391362Y-141754542D01*
X158405683Y-141740221D01*
X158420717Y-141727380D01*
X158430694Y-141720131D01*
X158437107Y-141715472D01*
X158465298Y-141681395D01*
X158473288Y-141672616D01*
X158693638Y-141452266D01*
X158755950Y-141418240D01*
X158768625Y-141416153D01*
X158806098Y-141411931D01*
X158806100Y-141411930D01*
X158813125Y-141411139D01*
X158985093Y-141350965D01*
X159139359Y-141254033D01*
X159268189Y-141125203D01*
X159325228Y-141034427D01*
X159361356Y-140976929D01*
X159365121Y-140970937D01*
X159425295Y-140798969D01*
X159427396Y-140780327D01*
X159444209Y-140631103D01*
X159445694Y-140617922D01*
X159425295Y-140436875D01*
X159365121Y-140264907D01*
X159361356Y-140258915D01*
X159271956Y-140116636D01*
X159268189Y-140110641D01*
X159139359Y-139981811D01*
X159111266Y-139964159D01*
X159064230Y-139910981D01*
X159053096Y-139843365D01*
X159054828Y-139828000D01*
X159063616Y-139750000D01*
X159050784Y-139636111D01*
X159044009Y-139575981D01*
X159044009Y-139575980D01*
X159043217Y-139568953D01*
X158983043Y-139396985D01*
X158951217Y-139346335D01*
X158889878Y-139248714D01*
X158886111Y-139242719D01*
X158757281Y-139113889D01*
X158712148Y-139085530D01*
X164489691Y-139085530D01*
X164524927Y-139201687D01*
X164529641Y-139213069D01*
X164617404Y-139377261D01*
X164624255Y-139387514D01*
X164742361Y-139531427D01*
X164751073Y-139540139D01*
X164894986Y-139658245D01*
X164905239Y-139665096D01*
X165069431Y-139752859D01*
X165080813Y-139757573D01*
X165258968Y-139811616D01*
X165271062Y-139814022D01*
X165409902Y-139827697D01*
X165416074Y-139828000D01*
X165740385Y-139828000D01*
X165755624Y-139823525D01*
X165756829Y-139822135D01*
X165758500Y-139814452D01*
X165758500Y-139809885D01*
X166266500Y-139809885D01*
X166270975Y-139825124D01*
X166272365Y-139826329D01*
X166280048Y-139828000D01*
X166608926Y-139828000D01*
X166615098Y-139827697D01*
X166753938Y-139814022D01*
X166766032Y-139811616D01*
X166944187Y-139757573D01*
X166955569Y-139752859D01*
X167119761Y-139665096D01*
X167130014Y-139658245D01*
X167273927Y-139540139D01*
X167282639Y-139531427D01*
X167400745Y-139387514D01*
X167407596Y-139377261D01*
X167495359Y-139213069D01*
X167500073Y-139201687D01*
X167533548Y-139091337D01*
X167533600Y-139085530D01*
X168789691Y-139085530D01*
X168824927Y-139201687D01*
X168829641Y-139213069D01*
X168917404Y-139377261D01*
X168924255Y-139387514D01*
X169042361Y-139531427D01*
X169051073Y-139540139D01*
X169194986Y-139658245D01*
X169205239Y-139665096D01*
X169369431Y-139752859D01*
X169380813Y-139757573D01*
X169558968Y-139811616D01*
X169571062Y-139814022D01*
X169709902Y-139827697D01*
X169716074Y-139828000D01*
X169890385Y-139828000D01*
X169905624Y-139823525D01*
X169906829Y-139822135D01*
X169908500Y-139814452D01*
X169908500Y-139809885D01*
X170416500Y-139809885D01*
X170420975Y-139825124D01*
X170422365Y-139826329D01*
X170430048Y-139828000D01*
X170608926Y-139828000D01*
X170615098Y-139827697D01*
X170753938Y-139814022D01*
X170766032Y-139811616D01*
X170944187Y-139757573D01*
X170955569Y-139752859D01*
X171119761Y-139665096D01*
X171130014Y-139658245D01*
X171273927Y-139540139D01*
X171282639Y-139531427D01*
X171400745Y-139387514D01*
X171407596Y-139377261D01*
X171495359Y-139213069D01*
X171500073Y-139201687D01*
X171533548Y-139091337D01*
X171533674Y-139077234D01*
X171526755Y-139074000D01*
X170434615Y-139074000D01*
X170419376Y-139078475D01*
X170418171Y-139079865D01*
X170416500Y-139087548D01*
X170416500Y-139809885D01*
X169908500Y-139809885D01*
X169908500Y-139092115D01*
X169904025Y-139076876D01*
X169902635Y-139075671D01*
X169894952Y-139074000D01*
X168804308Y-139074000D01*
X168790777Y-139077973D01*
X168789691Y-139085530D01*
X167533600Y-139085530D01*
X167533674Y-139077234D01*
X167526755Y-139074000D01*
X166284615Y-139074000D01*
X166269376Y-139078475D01*
X166268171Y-139079865D01*
X166266500Y-139087548D01*
X166266500Y-139809885D01*
X165758500Y-139809885D01*
X165758500Y-139092115D01*
X165754025Y-139076876D01*
X165752635Y-139075671D01*
X165744952Y-139074000D01*
X164504308Y-139074000D01*
X164490777Y-139077973D01*
X164489691Y-139085530D01*
X158712148Y-139085530D01*
X158603015Y-139016957D01*
X158563951Y-139003288D01*
X158506259Y-138961910D01*
X158480097Y-138895910D01*
X158486637Y-138842744D01*
X158540880Y-138687725D01*
X158543217Y-138681047D01*
X158556544Y-138562766D01*
X164491326Y-138562766D01*
X164498245Y-138566000D01*
X167520692Y-138566000D01*
X167531706Y-138562766D01*
X168791326Y-138562766D01*
X168798245Y-138566000D01*
X169890385Y-138566000D01*
X169905624Y-138561525D01*
X169906829Y-138560135D01*
X169908500Y-138552452D01*
X169908500Y-138547885D01*
X170416500Y-138547885D01*
X170420975Y-138563124D01*
X170422365Y-138564329D01*
X170430048Y-138566000D01*
X171520692Y-138566000D01*
X171534223Y-138562027D01*
X171535309Y-138554470D01*
X171500073Y-138438313D01*
X171495359Y-138426931D01*
X171407596Y-138262739D01*
X171400745Y-138252486D01*
X171282639Y-138108573D01*
X171273927Y-138099861D01*
X171130014Y-137981755D01*
X171119761Y-137974904D01*
X170955569Y-137887141D01*
X170944187Y-137882427D01*
X170766032Y-137828384D01*
X170753938Y-137825978D01*
X170615098Y-137812303D01*
X170608926Y-137812000D01*
X170434615Y-137812000D01*
X170419376Y-137816475D01*
X170418171Y-137817865D01*
X170416500Y-137825548D01*
X170416500Y-138547885D01*
X169908500Y-138547885D01*
X169908500Y-137830115D01*
X169904025Y-137814876D01*
X169902635Y-137813671D01*
X169894952Y-137812000D01*
X169716074Y-137812000D01*
X169709902Y-137812303D01*
X169571062Y-137825978D01*
X169558968Y-137828384D01*
X169380813Y-137882427D01*
X169369431Y-137887141D01*
X169205239Y-137974904D01*
X169194986Y-137981755D01*
X169051073Y-138099861D01*
X169042361Y-138108573D01*
X168924255Y-138252486D01*
X168917404Y-138262739D01*
X168829641Y-138426931D01*
X168824927Y-138438313D01*
X168791452Y-138548663D01*
X168791326Y-138562766D01*
X167531706Y-138562766D01*
X167534223Y-138562027D01*
X167535309Y-138554470D01*
X167500073Y-138438313D01*
X167495359Y-138426931D01*
X167407596Y-138262739D01*
X167400745Y-138252486D01*
X167282639Y-138108573D01*
X167273927Y-138099861D01*
X167130014Y-137981755D01*
X167119761Y-137974904D01*
X167016238Y-137919570D01*
X166965590Y-137869818D01*
X166949880Y-137800581D01*
X166975672Y-137731744D01*
X166995433Y-137705991D01*
X167015198Y-137680233D01*
X167073187Y-137540236D01*
X167092966Y-137390000D01*
X167073187Y-137239764D01*
X167015198Y-137099767D01*
X166922951Y-136979549D01*
X166802733Y-136887302D01*
X166662736Y-136829313D01*
X166550220Y-136814500D01*
X166474780Y-136814500D01*
X166362264Y-136829313D01*
X166222267Y-136887302D01*
X166102049Y-136979549D01*
X166009802Y-137099767D01*
X165951813Y-137239764D01*
X165932034Y-137390000D01*
X165951813Y-137540236D01*
X165954973Y-137547865D01*
X165992218Y-137637782D01*
X165999807Y-137708372D01*
X165968028Y-137771859D01*
X165906970Y-137808086D01*
X165875809Y-137812000D01*
X165416074Y-137812000D01*
X165409902Y-137812303D01*
X165271062Y-137825978D01*
X165258968Y-137828384D01*
X165080813Y-137882427D01*
X165069431Y-137887141D01*
X164905239Y-137974904D01*
X164894986Y-137981755D01*
X164751073Y-138099861D01*
X164742361Y-138108573D01*
X164624255Y-138252486D01*
X164617404Y-138262739D01*
X164529641Y-138426931D01*
X164524927Y-138438313D01*
X164491452Y-138548663D01*
X164491326Y-138562766D01*
X158556544Y-138562766D01*
X158563616Y-138500000D01*
X158548574Y-138366500D01*
X158544009Y-138325981D01*
X158544009Y-138325980D01*
X158543217Y-138318953D01*
X158483043Y-138146985D01*
X158386111Y-137992719D01*
X158257281Y-137863889D01*
X158199283Y-137827446D01*
X158109007Y-137770722D01*
X158103015Y-137766957D01*
X157931047Y-137706783D01*
X157924020Y-137705991D01*
X157924019Y-137705991D01*
X157757029Y-137687176D01*
X157750000Y-137686384D01*
X157742971Y-137687176D01*
X157575981Y-137705991D01*
X157575980Y-137705991D01*
X157568953Y-137706783D01*
X157396985Y-137766957D01*
X157390993Y-137770722D01*
X157300718Y-137827446D01*
X157242719Y-137863889D01*
X157113889Y-137992719D01*
X157016957Y-138146985D01*
X157014620Y-138153665D01*
X156969673Y-138282115D01*
X156928295Y-138339807D01*
X156862295Y-138365969D01*
X156850744Y-138366500D01*
X138547736Y-138366500D01*
X138480700Y-138347187D01*
X138359007Y-138270722D01*
X138353015Y-138266957D01*
X138181047Y-138206783D01*
X138174020Y-138205991D01*
X138174019Y-138205991D01*
X138007029Y-138187176D01*
X138000000Y-138186384D01*
X137992971Y-138187176D01*
X137825981Y-138205991D01*
X137825980Y-138205991D01*
X137818953Y-138206783D01*
X137646985Y-138266957D01*
X137640993Y-138270722D01*
X137605193Y-138293217D01*
X137492719Y-138363889D01*
X137363889Y-138492719D01*
X137266957Y-138646985D01*
X137206783Y-138818953D01*
X137186384Y-139000000D01*
X136010187Y-139000000D01*
X139839782Y-135170405D01*
X139902094Y-135136379D01*
X139928877Y-135133500D01*
X144702264Y-135133500D01*
X144769300Y-135152813D01*
X144896985Y-135233043D01*
X145068953Y-135293217D01*
X145075980Y-135294009D01*
X145075981Y-135294009D01*
X145242971Y-135312824D01*
X145250000Y-135313616D01*
X145257029Y-135312824D01*
X145424019Y-135294009D01*
X145424020Y-135294009D01*
X145431047Y-135293217D01*
X145603015Y-135233043D01*
X145730700Y-135152813D01*
X145797736Y-135133500D01*
X152671233Y-135133500D01*
X152682416Y-135134027D01*
X152689909Y-135135702D01*
X152697835Y-135135453D01*
X152697836Y-135135453D01*
X152757986Y-135133562D01*
X152761945Y-135133500D01*
X152789856Y-135133500D01*
X152793791Y-135133003D01*
X152793856Y-135132995D01*
X152805693Y-135132062D01*
X152837951Y-135131048D01*
X152841970Y-135130922D01*
X152849889Y-135130673D01*
X152869343Y-135125021D01*
X152888700Y-135121013D01*
X152900930Y-135119468D01*
X152900931Y-135119468D01*
X152908797Y-135118474D01*
X152916168Y-135115555D01*
X152916170Y-135115555D01*
X152949912Y-135102196D01*
X152961142Y-135098351D01*
X152995983Y-135088229D01*
X152995984Y-135088229D01*
X153003593Y-135086018D01*
X153010412Y-135081985D01*
X153010417Y-135081983D01*
X153021028Y-135075707D01*
X153038776Y-135067012D01*
X153057617Y-135059552D01*
X153093387Y-135033564D01*
X153103307Y-135027048D01*
X153134535Y-135008580D01*
X153134538Y-135008578D01*
X153141362Y-135004542D01*
X153155683Y-134990221D01*
X153170717Y-134977380D01*
X153180694Y-134970131D01*
X153187107Y-134965472D01*
X153215298Y-134931395D01*
X153223288Y-134922616D01*
X156151405Y-131994499D01*
X156213717Y-131960473D01*
X156284532Y-131965538D01*
X156341368Y-132008085D01*
X156366179Y-132074605D01*
X156366500Y-132083594D01*
X156366500Y-134202264D01*
X156347187Y-134269300D01*
X156313453Y-134322988D01*
X156266957Y-134396985D01*
X156206783Y-134568953D01*
X156186384Y-134750000D01*
X156187176Y-134757029D01*
X156201903Y-134887732D01*
X156206783Y-134931047D01*
X156266957Y-135103015D01*
X156270722Y-135109007D01*
X156346294Y-135229278D01*
X156363889Y-135257281D01*
X156492719Y-135386111D01*
X156646985Y-135483043D01*
X156818953Y-135543217D01*
X156825980Y-135544009D01*
X156825981Y-135544009D01*
X156992971Y-135562824D01*
X157000000Y-135563616D01*
X157007029Y-135562824D01*
X157174019Y-135544009D01*
X157174020Y-135544009D01*
X157181047Y-135543217D01*
X157353015Y-135483043D01*
X157359007Y-135479278D01*
X157432964Y-135432808D01*
X157501285Y-135413502D01*
X157567036Y-135432808D01*
X157640993Y-135479278D01*
X157646985Y-135483043D01*
X157818953Y-135543217D01*
X157825980Y-135544009D01*
X157825981Y-135544009D01*
X157992971Y-135562824D01*
X158000000Y-135563616D01*
X158007029Y-135562824D01*
X158174019Y-135544009D01*
X158174020Y-135544009D01*
X158181047Y-135543217D01*
X158353015Y-135483043D01*
X158507281Y-135386111D01*
X158636111Y-135257281D01*
X158653707Y-135229278D01*
X158729278Y-135109007D01*
X158733043Y-135103015D01*
X158793217Y-134931047D01*
X158798098Y-134887732D01*
X158812824Y-134757029D01*
X158813616Y-134750000D01*
X158793217Y-134568953D01*
X158733043Y-134396985D01*
X158686548Y-134322988D01*
X158652813Y-134269300D01*
X158633500Y-134202264D01*
X158633500Y-130445530D01*
X164489691Y-130445530D01*
X164524927Y-130561687D01*
X164529641Y-130573069D01*
X164617404Y-130737261D01*
X164624255Y-130747514D01*
X164742361Y-130891427D01*
X164751073Y-130900139D01*
X164894986Y-131018245D01*
X164905239Y-131025096D01*
X165069431Y-131112859D01*
X165080813Y-131117573D01*
X165258968Y-131171616D01*
X165271062Y-131174022D01*
X165409902Y-131187697D01*
X165416074Y-131188000D01*
X165875809Y-131188000D01*
X165943930Y-131208002D01*
X165990423Y-131261658D01*
X166000527Y-131331932D01*
X165992218Y-131362218D01*
X165958214Y-131444311D01*
X165951813Y-131459764D01*
X165932034Y-131610000D01*
X165951813Y-131760236D01*
X166009802Y-131900233D01*
X166102049Y-132020451D01*
X166222267Y-132112698D01*
X166362264Y-132170687D01*
X166370452Y-132171765D01*
X166448909Y-132182094D01*
X166474780Y-132185500D01*
X166550220Y-132185500D01*
X166576092Y-132182094D01*
X166654548Y-132171765D01*
X166662736Y-132170687D01*
X166802733Y-132112698D01*
X166922951Y-132020451D01*
X167015198Y-131900233D01*
X167073187Y-131760236D01*
X167092966Y-131610000D01*
X167073187Y-131459764D01*
X167015198Y-131319767D01*
X166975672Y-131268256D01*
X166950071Y-131202036D01*
X166964336Y-131132487D01*
X167016238Y-131080430D01*
X167119761Y-131025096D01*
X167130014Y-131018245D01*
X167273927Y-130900139D01*
X167282639Y-130891427D01*
X167400745Y-130747514D01*
X167407596Y-130737261D01*
X167478600Y-130604421D01*
X167528352Y-130553773D01*
X167597588Y-130538063D01*
X167664327Y-130562279D01*
X167678817Y-130574722D01*
X168829595Y-131725500D01*
X168863621Y-131787812D01*
X168866500Y-131814595D01*
X168866500Y-131952264D01*
X168847187Y-132019300D01*
X168766957Y-132146985D01*
X168706783Y-132318953D01*
X168686384Y-132500000D01*
X168706783Y-132681047D01*
X168766957Y-132853015D01*
X168863889Y-133007281D01*
X168992719Y-133136111D01*
X169146985Y-133233043D01*
X169318953Y-133293217D01*
X169325980Y-133294009D01*
X169325981Y-133294009D01*
X169492971Y-133312824D01*
X169500000Y-133313616D01*
X169507029Y-133312824D01*
X169674019Y-133294009D01*
X169674020Y-133294009D01*
X169681047Y-133293217D01*
X169853015Y-133233043D01*
X170007281Y-133136111D01*
X170136111Y-133007281D01*
X170233043Y-132853015D01*
X170293217Y-132681047D01*
X170313616Y-132500000D01*
X170293217Y-132318953D01*
X170233043Y-132146985D01*
X170152813Y-132019300D01*
X170133500Y-131952264D01*
X170133500Y-131578767D01*
X170134027Y-131567584D01*
X170135702Y-131560091D01*
X170133562Y-131492000D01*
X170133500Y-131488043D01*
X170133500Y-131460144D01*
X170132996Y-131456153D01*
X170132063Y-131444311D01*
X170130923Y-131408036D01*
X170130674Y-131400111D01*
X170128462Y-131392497D01*
X170128461Y-131392492D01*
X170125023Y-131380659D01*
X170121012Y-131361295D01*
X170119467Y-131349064D01*
X170118474Y-131341203D01*
X170115557Y-131333836D01*
X170115556Y-131333831D01*
X170102198Y-131300092D01*
X170098354Y-131288865D01*
X170088230Y-131254022D01*
X170086018Y-131246407D01*
X170075707Y-131228972D01*
X170067012Y-131211224D01*
X170059552Y-131192383D01*
X170043207Y-131169885D01*
X170416500Y-131169885D01*
X170420975Y-131185124D01*
X170422365Y-131186329D01*
X170430048Y-131188000D01*
X170608926Y-131188000D01*
X170615098Y-131187697D01*
X170753938Y-131174022D01*
X170766032Y-131171616D01*
X170944187Y-131117573D01*
X170955569Y-131112859D01*
X171119761Y-131025096D01*
X171130014Y-131018245D01*
X171273927Y-130900139D01*
X171282639Y-130891427D01*
X171400745Y-130747514D01*
X171407596Y-130737261D01*
X171495359Y-130573069D01*
X171500073Y-130561687D01*
X171533548Y-130451337D01*
X171533674Y-130437234D01*
X171526755Y-130434000D01*
X170434615Y-130434000D01*
X170419376Y-130438475D01*
X170418171Y-130439865D01*
X170416500Y-130447548D01*
X170416500Y-131169885D01*
X170043207Y-131169885D01*
X170033564Y-131156613D01*
X170027048Y-131146693D01*
X170008580Y-131115465D01*
X170008578Y-131115462D01*
X170004542Y-131108638D01*
X169990221Y-131094317D01*
X169977380Y-131079283D01*
X169970131Y-131069306D01*
X169965472Y-131062893D01*
X169954186Y-131053556D01*
X169914447Y-130994723D01*
X169908500Y-130956470D01*
X169908500Y-129907885D01*
X170416500Y-129907885D01*
X170420975Y-129923124D01*
X170422365Y-129924329D01*
X170430048Y-129926000D01*
X171520692Y-129926000D01*
X171534223Y-129922027D01*
X171535309Y-129914470D01*
X171500073Y-129798313D01*
X171495359Y-129786931D01*
X171407596Y-129622739D01*
X171400745Y-129612486D01*
X171282639Y-129468573D01*
X171273927Y-129459861D01*
X171130014Y-129341755D01*
X171119761Y-129334904D01*
X170955569Y-129247141D01*
X170944187Y-129242427D01*
X170766032Y-129188384D01*
X170753938Y-129185978D01*
X170615098Y-129172303D01*
X170608926Y-129172000D01*
X170434615Y-129172000D01*
X170419376Y-129176475D01*
X170418171Y-129177865D01*
X170416500Y-129185548D01*
X170416500Y-129907885D01*
X169908500Y-129907885D01*
X169908500Y-129190115D01*
X169904025Y-129174876D01*
X169902635Y-129173671D01*
X169894952Y-129172000D01*
X169716074Y-129172000D01*
X169709902Y-129172303D01*
X169571062Y-129185978D01*
X169558968Y-129188384D01*
X169380813Y-129242427D01*
X169369431Y-129247141D01*
X169205239Y-129334904D01*
X169194986Y-129341755D01*
X169051073Y-129459861D01*
X169042361Y-129468573D01*
X168924255Y-129612486D01*
X168917404Y-129622739D01*
X168858591Y-129732770D01*
X168808839Y-129783418D01*
X168739602Y-129799128D01*
X168672863Y-129774912D01*
X168658374Y-129762469D01*
X167834344Y-128938439D01*
X167800318Y-128876127D01*
X167798231Y-128863452D01*
X167794009Y-128825980D01*
X167794009Y-128825978D01*
X167793217Y-128818953D01*
X167733043Y-128646985D01*
X167670605Y-128547616D01*
X167639878Y-128498714D01*
X167636111Y-128492719D01*
X167507281Y-128363889D01*
X167353015Y-128266957D01*
X167181047Y-128206783D01*
X167174020Y-128205991D01*
X167174019Y-128205991D01*
X167007029Y-128187176D01*
X167000000Y-128186384D01*
X166992971Y-128187176D01*
X166825981Y-128205991D01*
X166825980Y-128205991D01*
X166818953Y-128206783D01*
X166646985Y-128266957D01*
X166492719Y-128363889D01*
X166363889Y-128492719D01*
X166360122Y-128498714D01*
X166329395Y-128547616D01*
X166266957Y-128646985D01*
X166206783Y-128818953D01*
X166205991Y-128825980D01*
X166205991Y-128825981D01*
X166193320Y-128938439D01*
X166186384Y-129000000D01*
X166206783Y-129181047D01*
X166248361Y-129299871D01*
X166259429Y-129331501D01*
X166266500Y-129373116D01*
X166266500Y-130308000D01*
X166246498Y-130376121D01*
X166192842Y-130422614D01*
X166140500Y-130434000D01*
X164504308Y-130434000D01*
X164490777Y-130437973D01*
X164489691Y-130445530D01*
X158633500Y-130445530D01*
X158633500Y-129922766D01*
X164491326Y-129922766D01*
X164498245Y-129926000D01*
X165740385Y-129926000D01*
X165755624Y-129921525D01*
X165756829Y-129920135D01*
X165758500Y-129912452D01*
X165758500Y-129190115D01*
X165754025Y-129174876D01*
X165752635Y-129173671D01*
X165744952Y-129172000D01*
X165416074Y-129172000D01*
X165409902Y-129172303D01*
X165271062Y-129185978D01*
X165258968Y-129188384D01*
X165080813Y-129242427D01*
X165069431Y-129247141D01*
X164905239Y-129334904D01*
X164894986Y-129341755D01*
X164751073Y-129459861D01*
X164742361Y-129468573D01*
X164624255Y-129612486D01*
X164617404Y-129622739D01*
X164529641Y-129786931D01*
X164524927Y-129798313D01*
X164491452Y-129908663D01*
X164491326Y-129922766D01*
X158633500Y-129922766D01*
X158633500Y-123185056D01*
X170099500Y-123185056D01*
X170140210Y-123350225D01*
X170219266Y-123500852D01*
X170332071Y-123628183D01*
X170472070Y-123724818D01*
X170479200Y-123727522D01*
X170623999Y-123782437D01*
X170624004Y-123782438D01*
X170631128Y-123785140D01*
X170638697Y-123786059D01*
X170753845Y-123800041D01*
X170753851Y-123800041D01*
X170757628Y-123800500D01*
X170842372Y-123800500D01*
X170846149Y-123800041D01*
X170846155Y-123800041D01*
X170961303Y-123786059D01*
X170968872Y-123785140D01*
X170975996Y-123782438D01*
X170976001Y-123782437D01*
X171120800Y-123727522D01*
X171127930Y-123724818D01*
X171267929Y-123628183D01*
X171380734Y-123500852D01*
X171459790Y-123350225D01*
X171500500Y-123185056D01*
X171500500Y-123014944D01*
X171459790Y-122849775D01*
X171380734Y-122699148D01*
X171267929Y-122571817D01*
X171127930Y-122475182D01*
X171116616Y-122470891D01*
X170976001Y-122417563D01*
X170975996Y-122417562D01*
X170968872Y-122414860D01*
X170946620Y-122412158D01*
X170846155Y-122399959D01*
X170846149Y-122399959D01*
X170842372Y-122399500D01*
X170757628Y-122399500D01*
X170753851Y-122399959D01*
X170753845Y-122399959D01*
X170653380Y-122412158D01*
X170631128Y-122414860D01*
X170624004Y-122417562D01*
X170623999Y-122417563D01*
X170483384Y-122470891D01*
X170472070Y-122475182D01*
X170332071Y-122571817D01*
X170219266Y-122699148D01*
X170140210Y-122849775D01*
X170099500Y-123014944D01*
X170099500Y-123185056D01*
X158633500Y-123185056D01*
X158633500Y-120185056D01*
X170099500Y-120185056D01*
X170140210Y-120350225D01*
X170219266Y-120500852D01*
X170224317Y-120506553D01*
X170224318Y-120506555D01*
X170255886Y-120542188D01*
X170332071Y-120628183D01*
X170472070Y-120724818D01*
X170479200Y-120727522D01*
X170623999Y-120782437D01*
X170624004Y-120782438D01*
X170631128Y-120785140D01*
X170638697Y-120786059D01*
X170753845Y-120800041D01*
X170753851Y-120800041D01*
X170757628Y-120800500D01*
X170842372Y-120800500D01*
X170846149Y-120800041D01*
X170846155Y-120800041D01*
X170961303Y-120786059D01*
X170968872Y-120785140D01*
X170975996Y-120782438D01*
X170976001Y-120782437D01*
X171120800Y-120727522D01*
X171127930Y-120724818D01*
X171267929Y-120628183D01*
X171344114Y-120542188D01*
X171375682Y-120506555D01*
X171375683Y-120506553D01*
X171380734Y-120500852D01*
X171459790Y-120350225D01*
X171500500Y-120185056D01*
X171500500Y-120014944D01*
X171459790Y-119849775D01*
X171380734Y-119699148D01*
X171370615Y-119687725D01*
X171272984Y-119577523D01*
X171267929Y-119571817D01*
X171127930Y-119475182D01*
X171116616Y-119470891D01*
X170976001Y-119417563D01*
X170975996Y-119417562D01*
X170968872Y-119414860D01*
X170946620Y-119412158D01*
X170846155Y-119399959D01*
X170846149Y-119399959D01*
X170842372Y-119399500D01*
X170757628Y-119399500D01*
X170753851Y-119399959D01*
X170753845Y-119399959D01*
X170653380Y-119412158D01*
X170631128Y-119414860D01*
X170624004Y-119417562D01*
X170623999Y-119417563D01*
X170483384Y-119470891D01*
X170472070Y-119475182D01*
X170332071Y-119571817D01*
X170327016Y-119577523D01*
X170229386Y-119687725D01*
X170219266Y-119699148D01*
X170140210Y-119849775D01*
X170099500Y-120014944D01*
X170099500Y-120185056D01*
X158633500Y-120185056D01*
X158633500Y-114064594D01*
X158653502Y-113996473D01*
X158670405Y-113975499D01*
X165811561Y-106834344D01*
X165873873Y-106800318D01*
X165886548Y-106798231D01*
X165924020Y-106794009D01*
X165924022Y-106794009D01*
X165931047Y-106793217D01*
X166103015Y-106733043D01*
X166257281Y-106636111D01*
X166386111Y-106507281D01*
X166483043Y-106353015D01*
X166543217Y-106181047D01*
X166563616Y-106000000D01*
X166543217Y-105818953D01*
X166483043Y-105646985D01*
X166461973Y-105613453D01*
X166389878Y-105498714D01*
X166386111Y-105492719D01*
X166257281Y-105363889D01*
X166172441Y-105310580D01*
X166109007Y-105270722D01*
X166103015Y-105266957D01*
X165931047Y-105206783D01*
X165924020Y-105205991D01*
X165924019Y-105205991D01*
X165757029Y-105187176D01*
X165750000Y-105186384D01*
X165742971Y-105187176D01*
X165575981Y-105205991D01*
X165575980Y-105205991D01*
X165568953Y-105206783D01*
X165396985Y-105266957D01*
X165329771Y-105309191D01*
X165327560Y-105310580D01*
X165259239Y-105329886D01*
X165191326Y-105309191D01*
X165153838Y-105270930D01*
X165139880Y-105248717D01*
X165139878Y-105248714D01*
X165136111Y-105242719D01*
X165007281Y-105113889D01*
X164853015Y-105016957D01*
X164681047Y-104956783D01*
X164674020Y-104955991D01*
X164674019Y-104955991D01*
X164507029Y-104937176D01*
X164500000Y-104936384D01*
X164492971Y-104937176D01*
X164325981Y-104955991D01*
X164325980Y-104955991D01*
X164318953Y-104956783D01*
X164146985Y-105016957D01*
X163992719Y-105113889D01*
X163863889Y-105242719D01*
X163860122Y-105248714D01*
X163856687Y-105254181D01*
X163803509Y-105301219D01*
X163733342Y-105312039D01*
X163668463Y-105283206D01*
X163643313Y-105254181D01*
X163639878Y-105248714D01*
X163636111Y-105242719D01*
X163507281Y-105113889D01*
X163353015Y-105016957D01*
X163181047Y-104956783D01*
X163174020Y-104955991D01*
X163174019Y-104955991D01*
X163007029Y-104937176D01*
X163000000Y-104936384D01*
X162992971Y-104937176D01*
X162825981Y-104955991D01*
X162825980Y-104955991D01*
X162818953Y-104956783D01*
X162646985Y-105016957D01*
X162492719Y-105113889D01*
X162363889Y-105242719D01*
X162360122Y-105248714D01*
X162346163Y-105270930D01*
X162266957Y-105396985D01*
X162206783Y-105568953D01*
X162205992Y-105575978D01*
X162205991Y-105575980D01*
X162201769Y-105613453D01*
X162174265Y-105678906D01*
X162165656Y-105688440D01*
X155857747Y-111996348D01*
X155849461Y-112003888D01*
X155842982Y-112008000D01*
X155837557Y-112013777D01*
X155796357Y-112057651D01*
X155793602Y-112060493D01*
X155773865Y-112080230D01*
X155771385Y-112083427D01*
X155763682Y-112092447D01*
X155733414Y-112124679D01*
X155729595Y-112131625D01*
X155729593Y-112131628D01*
X155723652Y-112142434D01*
X155712801Y-112158953D01*
X155700386Y-112174959D01*
X155697241Y-112182228D01*
X155697238Y-112182232D01*
X155682826Y-112215537D01*
X155677609Y-112226187D01*
X155656305Y-112264940D01*
X155654334Y-112272615D01*
X155654334Y-112272616D01*
X155651267Y-112284562D01*
X155644863Y-112303266D01*
X155640965Y-112312275D01*
X155636819Y-112321855D01*
X155635580Y-112329678D01*
X155635577Y-112329688D01*
X155629901Y-112365524D01*
X155627495Y-112377144D01*
X155616500Y-112419970D01*
X155616500Y-112440224D01*
X155614949Y-112459934D01*
X155611780Y-112479943D01*
X155612526Y-112487835D01*
X155615941Y-112523961D01*
X155616500Y-112535819D01*
X155616500Y-130685405D01*
X155596498Y-130753526D01*
X155579595Y-130774500D01*
X152524500Y-133829595D01*
X152462188Y-133863621D01*
X152435405Y-133866500D01*
X145797736Y-133866500D01*
X145730700Y-133847187D01*
X145609007Y-133770722D01*
X145603015Y-133766957D01*
X145431047Y-133706783D01*
X145424020Y-133705991D01*
X145424019Y-133705991D01*
X145257029Y-133687176D01*
X145250000Y-133686384D01*
X145242971Y-133687176D01*
X145075981Y-133705991D01*
X145075980Y-133705991D01*
X145068953Y-133706783D01*
X144896985Y-133766957D01*
X144890993Y-133770722D01*
X144769300Y-133847187D01*
X144702264Y-133866500D01*
X139693050Y-133866500D01*
X139681867Y-133865973D01*
X139674374Y-133864298D01*
X139666448Y-133864547D01*
X139666447Y-133864547D01*
X139606297Y-133866438D01*
X139602338Y-133866500D01*
X139574427Y-133866500D01*
X139570493Y-133866997D01*
X139570492Y-133866997D01*
X139570427Y-133867005D01*
X139558590Y-133867938D01*
X139526773Y-133868938D01*
X139522312Y-133869078D01*
X139514393Y-133869327D01*
X139496737Y-133874456D01*
X139494941Y-133874978D01*
X139475589Y-133878986D01*
X139468518Y-133879880D01*
X139455486Y-133881526D01*
X139448117Y-133884443D01*
X139448115Y-133884444D01*
X139414380Y-133897800D01*
X139403152Y-133901645D01*
X139360690Y-133913982D01*
X139353868Y-133918016D01*
X139353862Y-133918019D01*
X139343251Y-133924294D01*
X139325501Y-133932990D01*
X139314039Y-133937528D01*
X139314034Y-133937531D01*
X139306666Y-133940448D01*
X139300251Y-133945109D01*
X139270908Y-133966427D01*
X139260990Y-133972943D01*
X139242302Y-133983995D01*
X139222920Y-133995458D01*
X139208596Y-134009782D01*
X139193564Y-134022621D01*
X139177176Y-134034528D01*
X139148995Y-134068593D01*
X139141005Y-134077373D01*
X120107747Y-153110631D01*
X120099461Y-153118171D01*
X120092982Y-153122283D01*
X120087557Y-153128060D01*
X120046357Y-153171934D01*
X120043602Y-153174776D01*
X120023865Y-153194513D01*
X120021385Y-153197710D01*
X120013682Y-153206730D01*
X119983414Y-153238962D01*
X119979595Y-153245908D01*
X119979593Y-153245911D01*
X119973652Y-153256717D01*
X119962801Y-153273236D01*
X119950386Y-153289242D01*
X119947241Y-153296511D01*
X119947238Y-153296515D01*
X119932826Y-153329820D01*
X119927609Y-153340470D01*
X119906305Y-153379223D01*
X119904334Y-153386898D01*
X119904334Y-153386899D01*
X119901267Y-153398845D01*
X119894863Y-153417549D01*
X119893831Y-153419935D01*
X119886819Y-153436138D01*
X119885580Y-153443961D01*
X119885577Y-153443971D01*
X119879901Y-153479807D01*
X119877495Y-153491427D01*
X119870472Y-153518782D01*
X119866500Y-153534253D01*
X119866500Y-153554507D01*
X119864949Y-153574217D01*
X119861780Y-153594226D01*
X119865480Y-153633362D01*
X119865941Y-153638244D01*
X119866500Y-153650102D01*
X119866500Y-160171233D01*
X119865973Y-160182416D01*
X119864298Y-160189909D01*
X119864547Y-160197835D01*
X119864547Y-160197836D01*
X119866438Y-160257986D01*
X119866500Y-160261945D01*
X119866500Y-160289856D01*
X119866997Y-160293790D01*
X119866997Y-160293791D01*
X119867005Y-160293856D01*
X119867938Y-160305693D01*
X119869327Y-160349889D01*
X119874978Y-160369339D01*
X119878987Y-160388700D01*
X119881526Y-160408797D01*
X119884445Y-160416168D01*
X119884445Y-160416170D01*
X119897804Y-160449912D01*
X119901649Y-160461142D01*
X119911602Y-160495401D01*
X119913982Y-160503593D01*
X119918015Y-160510412D01*
X119918017Y-160510417D01*
X119924293Y-160521028D01*
X119932988Y-160538776D01*
X119940448Y-160557617D01*
X119945110Y-160564033D01*
X119945110Y-160564034D01*
X119966436Y-160593387D01*
X119972952Y-160603307D01*
X119995458Y-160641362D01*
X120009779Y-160655683D01*
X120022619Y-160670716D01*
X120034528Y-160687107D01*
X120040634Y-160692158D01*
X120068605Y-160715298D01*
X120077384Y-160723288D01*
X120139001Y-160784905D01*
X120173027Y-160847217D01*
X120167962Y-160918032D01*
X120125415Y-160974868D01*
X120058895Y-160999679D01*
X120049906Y-161000000D01*
X98052190Y-161000000D01*
X97984069Y-160979998D01*
X97963095Y-160963095D01*
X95361303Y-158361303D01*
X95327900Y-158301706D01*
X95241897Y-157944556D01*
X95239635Y-157932689D01*
X95179763Y-157509028D01*
X95178647Y-157496989D01*
X95162189Y-157126510D01*
X95158719Y-157048395D01*
X95158595Y-157042848D01*
X95157962Y-155000000D01*
X96886548Y-155000000D01*
X96906343Y-155377709D01*
X96906856Y-155380949D01*
X96906857Y-155380957D01*
X96922696Y-155480957D01*
X96965511Y-155751279D01*
X97063403Y-156116618D01*
X97198947Y-156469723D01*
X97370659Y-156806726D01*
X97372455Y-156809492D01*
X97372457Y-156809495D01*
X97507382Y-157017262D01*
X97576656Y-157123934D01*
X97814682Y-157417871D01*
X98082129Y-157685318D01*
X98376066Y-157923344D01*
X98399675Y-157938676D01*
X98666590Y-158112012D01*
X98693274Y-158129341D01*
X98696208Y-158130836D01*
X98696215Y-158130840D01*
X98995668Y-158283419D01*
X99030277Y-158301053D01*
X99168808Y-158354230D01*
X99290787Y-158401053D01*
X99383382Y-158436597D01*
X99748721Y-158534489D01*
X99947158Y-158565918D01*
X100119043Y-158593143D01*
X100119051Y-158593144D01*
X100122291Y-158593657D01*
X100500000Y-158613452D01*
X100877709Y-158593657D01*
X100880949Y-158593144D01*
X100880957Y-158593143D01*
X101052842Y-158565918D01*
X101251279Y-158534489D01*
X101616618Y-158436597D01*
X101709214Y-158401053D01*
X101831192Y-158354230D01*
X101969723Y-158301053D01*
X102004332Y-158283419D01*
X102303785Y-158130840D01*
X102303792Y-158130836D01*
X102306726Y-158129341D01*
X102333411Y-158112012D01*
X102600325Y-157938676D01*
X102623934Y-157923344D01*
X102917871Y-157685318D01*
X103185318Y-157417871D01*
X103423344Y-157123934D01*
X103492618Y-157017261D01*
X103627543Y-156809495D01*
X103627545Y-156809492D01*
X103629341Y-156806726D01*
X103801053Y-156469723D01*
X103936597Y-156116618D01*
X104034489Y-155751279D01*
X104077304Y-155480957D01*
X104093143Y-155380957D01*
X104093144Y-155380949D01*
X104093657Y-155377709D01*
X104113452Y-155000000D01*
X104093657Y-154622291D01*
X104034489Y-154248721D01*
X103936597Y-153883382D01*
X103801053Y-153530277D01*
X103757078Y-153443971D01*
X103630840Y-153196215D01*
X103630836Y-153196208D01*
X103629341Y-153193274D01*
X103617823Y-153175537D01*
X103425146Y-152878841D01*
X103423344Y-152876066D01*
X103185318Y-152582129D01*
X102917871Y-152314682D01*
X102623934Y-152076656D01*
X102306726Y-151870659D01*
X102303792Y-151869164D01*
X102303785Y-151869160D01*
X101972663Y-151700445D01*
X101969723Y-151698947D01*
X101616618Y-151563403D01*
X101251279Y-151465511D01*
X101052842Y-151434082D01*
X100880957Y-151406857D01*
X100880949Y-151406856D01*
X100877709Y-151406343D01*
X100500000Y-151386548D01*
X100122291Y-151406343D01*
X100119051Y-151406856D01*
X100119043Y-151406857D01*
X99947158Y-151434082D01*
X99748721Y-151465511D01*
X99383382Y-151563403D01*
X99030277Y-151698947D01*
X99027337Y-151700445D01*
X98696215Y-151869160D01*
X98696208Y-151869164D01*
X98693274Y-151870659D01*
X98376066Y-152076656D01*
X98082129Y-152314682D01*
X97814682Y-152582129D01*
X97576656Y-152876066D01*
X97574854Y-152878841D01*
X97382178Y-153175537D01*
X97370659Y-153193274D01*
X97369164Y-153196208D01*
X97369160Y-153196215D01*
X97242922Y-153443971D01*
X97198947Y-153530277D01*
X97063403Y-153883382D01*
X96965511Y-154248721D01*
X96906343Y-154622291D01*
X96886548Y-155000000D01*
X95157962Y-155000000D01*
X95157877Y-154725581D01*
X95155136Y-145885000D01*
X96136844Y-145885000D01*
X96155436Y-146109368D01*
X96210704Y-146327616D01*
X96212800Y-146332394D01*
X96296181Y-146522485D01*
X96301140Y-146533791D01*
X96424278Y-146722268D01*
X96427803Y-146726097D01*
X96427806Y-146726101D01*
X96567475Y-146877820D01*
X96598896Y-146941485D01*
X96590909Y-147012031D01*
X96546051Y-147067060D01*
X96518809Y-147081213D01*
X96403796Y-147124111D01*
X96396584Y-147129510D01*
X96396582Y-147129511D01*
X96317099Y-147189012D01*
X96286739Y-147211739D01*
X96199111Y-147328796D01*
X96148011Y-147465799D01*
X96141500Y-147526362D01*
X96141500Y-149323638D01*
X96148011Y-149384201D01*
X96199111Y-149521204D01*
X96204510Y-149528416D01*
X96204511Y-149528418D01*
X96260354Y-149603015D01*
X96286739Y-149638261D01*
X96403796Y-149725889D01*
X96540799Y-149776989D01*
X96577705Y-149780957D01*
X96598012Y-149783140D01*
X96598015Y-149783140D01*
X96601362Y-149783500D01*
X98398638Y-149783500D01*
X98401985Y-149783140D01*
X98401988Y-149783140D01*
X98422295Y-149780957D01*
X98459201Y-149776989D01*
X98596204Y-149725889D01*
X98713261Y-149638261D01*
X98739646Y-149603015D01*
X98795489Y-149528418D01*
X98795490Y-149528416D01*
X98800889Y-149521204D01*
X98851989Y-149384201D01*
X98858500Y-149323638D01*
X98858500Y-147526362D01*
X98851989Y-147465799D01*
X98800889Y-147328796D01*
X98713261Y-147211739D01*
X98682901Y-147189012D01*
X98603418Y-147129511D01*
X98603416Y-147129510D01*
X98596204Y-147124111D01*
X98481192Y-147081213D01*
X98424358Y-147038667D01*
X98399547Y-146972147D01*
X98414639Y-146902773D01*
X98432525Y-146877820D01*
X98572194Y-146726101D01*
X98572197Y-146726097D01*
X98575722Y-146722268D01*
X98698860Y-146533791D01*
X98703820Y-146522485D01*
X98787200Y-146332394D01*
X98789296Y-146327616D01*
X98844564Y-146109368D01*
X98863156Y-145885000D01*
X98844564Y-145660632D01*
X98789296Y-145442384D01*
X98698860Y-145236209D01*
X98575722Y-145047732D01*
X98572197Y-145043903D01*
X98572194Y-145043899D01*
X98426772Y-144885931D01*
X98423240Y-144882094D01*
X98419121Y-144878888D01*
X98249689Y-144747012D01*
X98249687Y-144747010D01*
X98245576Y-144743811D01*
X98212320Y-144725814D01*
X98161929Y-144675801D01*
X98146577Y-144606484D01*
X98171137Y-144539871D01*
X98212320Y-144504186D01*
X98240995Y-144488668D01*
X98245576Y-144486189D01*
X98423240Y-144347906D01*
X98470640Y-144296417D01*
X98572194Y-144186101D01*
X98572197Y-144186097D01*
X98575722Y-144182268D01*
X98606552Y-144135079D01*
X98696008Y-143998157D01*
X98696010Y-143998153D01*
X98698860Y-143993791D01*
X98723140Y-143938439D01*
X98787200Y-143792394D01*
X98789296Y-143787616D01*
X98844564Y-143569368D01*
X98850916Y-143492719D01*
X98862726Y-143350189D01*
X98863156Y-143345000D01*
X98856689Y-143266957D01*
X98844995Y-143125828D01*
X98844994Y-143125823D01*
X98844564Y-143120632D01*
X98789296Y-142902384D01*
X98698860Y-142696209D01*
X98575722Y-142507732D01*
X98572197Y-142503903D01*
X98572194Y-142503899D01*
X98426772Y-142345931D01*
X98423240Y-142342094D01*
X98245576Y-142203811D01*
X98212320Y-142185814D01*
X98161929Y-142135801D01*
X98146577Y-142066484D01*
X98171137Y-141999871D01*
X98212320Y-141964186D01*
X98240995Y-141948668D01*
X98245576Y-141946189D01*
X98322764Y-141886111D01*
X98419121Y-141811112D01*
X98423240Y-141807906D01*
X98470640Y-141756417D01*
X98572194Y-141646101D01*
X98572197Y-141646097D01*
X98575722Y-141642268D01*
X98698860Y-141453791D01*
X98708837Y-141431047D01*
X98787200Y-141252394D01*
X98789296Y-141247616D01*
X98821814Y-141119208D01*
X98843283Y-141034427D01*
X98843283Y-141034426D01*
X98844564Y-141029368D01*
X98848910Y-140976929D01*
X98862726Y-140810189D01*
X98863156Y-140805000D01*
X98861976Y-140790763D01*
X98844995Y-140585828D01*
X98844994Y-140585823D01*
X98844564Y-140580632D01*
X98821620Y-140490029D01*
X98790578Y-140367446D01*
X98790578Y-140367445D01*
X98789296Y-140362384D01*
X98743911Y-140258915D01*
X98700954Y-140160982D01*
X98700952Y-140160978D01*
X98698860Y-140156209D01*
X98667781Y-140108638D01*
X98578573Y-139972096D01*
X98575722Y-139967732D01*
X98572197Y-139963903D01*
X98572194Y-139963899D01*
X98434616Y-139814452D01*
X98423240Y-139802094D01*
X98359984Y-139752859D01*
X98249689Y-139667012D01*
X98249687Y-139667010D01*
X98245576Y-139663811D01*
X98212320Y-139645814D01*
X98161929Y-139595801D01*
X98146577Y-139526484D01*
X98171137Y-139459871D01*
X98212320Y-139424186D01*
X98240995Y-139408668D01*
X98245576Y-139406189D01*
X98257402Y-139396985D01*
X98419121Y-139271112D01*
X98423240Y-139267906D01*
X98473722Y-139213069D01*
X98572194Y-139106101D01*
X98572197Y-139106097D01*
X98575722Y-139102268D01*
X98628999Y-139020722D01*
X98696008Y-138918157D01*
X98696010Y-138918153D01*
X98698860Y-138913791D01*
X98706704Y-138895910D01*
X98787200Y-138712394D01*
X98789296Y-138707616D01*
X98825887Y-138563124D01*
X98843283Y-138494427D01*
X98843283Y-138494426D01*
X98844564Y-138489368D01*
X98854746Y-138366500D01*
X98862726Y-138270189D01*
X98863156Y-138265000D01*
X98856642Y-138186384D01*
X98844995Y-138045828D01*
X98844994Y-138045823D01*
X98844564Y-138040632D01*
X98791254Y-137830115D01*
X98790578Y-137827446D01*
X98790578Y-137827445D01*
X98789296Y-137822384D01*
X98729818Y-137686786D01*
X98700954Y-137620982D01*
X98700952Y-137620978D01*
X98698860Y-137616209D01*
X98649225Y-137540236D01*
X98578573Y-137432096D01*
X98575722Y-137427732D01*
X98572197Y-137423903D01*
X98572194Y-137423899D01*
X98447813Y-137288787D01*
X98423240Y-137262094D01*
X98350440Y-137205431D01*
X98249689Y-137127012D01*
X98249687Y-137127010D01*
X98245576Y-137123811D01*
X98212320Y-137105814D01*
X98161929Y-137055801D01*
X98146577Y-136986484D01*
X98171137Y-136919871D01*
X98212320Y-136884186D01*
X98212402Y-136884142D01*
X98245576Y-136866189D01*
X98311986Y-136814500D01*
X98419121Y-136731112D01*
X98423240Y-136727906D01*
X98470640Y-136676417D01*
X98572194Y-136566101D01*
X98572197Y-136566097D01*
X98575722Y-136562268D01*
X98698860Y-136373791D01*
X98789296Y-136167616D01*
X98844564Y-135949368D01*
X98863156Y-135725000D01*
X98849783Y-135563616D01*
X98844995Y-135505828D01*
X98844994Y-135505823D01*
X98844564Y-135500632D01*
X98840110Y-135483043D01*
X98790578Y-135287446D01*
X98790578Y-135287445D01*
X98789296Y-135282384D01*
X98740178Y-135170405D01*
X98700954Y-135080982D01*
X98700952Y-135080978D01*
X98698860Y-135076209D01*
X98692848Y-135067006D01*
X98578573Y-134892096D01*
X98575722Y-134887732D01*
X98572197Y-134883903D01*
X98572194Y-134883899D01*
X98455400Y-134757029D01*
X98423240Y-134722094D01*
X98245576Y-134583811D01*
X98212320Y-134565814D01*
X98161929Y-134515801D01*
X98146577Y-134446484D01*
X98171137Y-134379871D01*
X98212320Y-134344186D01*
X98240995Y-134328668D01*
X98245576Y-134326189D01*
X98423240Y-134187906D01*
X98528866Y-134073167D01*
X98572194Y-134026101D01*
X98572197Y-134026097D01*
X98575722Y-134022268D01*
X98612205Y-133966427D01*
X98696008Y-133838157D01*
X98696010Y-133838153D01*
X98698860Y-133833791D01*
X98726525Y-133770722D01*
X98787200Y-133632394D01*
X98789296Y-133627616D01*
X98844564Y-133409368D01*
X98852499Y-133313616D01*
X98862726Y-133190189D01*
X98863156Y-133185000D01*
X98858690Y-133131103D01*
X98844995Y-132965828D01*
X98844994Y-132965823D01*
X98844564Y-132960632D01*
X98789296Y-132742384D01*
X98698860Y-132536209D01*
X98670612Y-132492971D01*
X98578573Y-132352096D01*
X98575722Y-132347732D01*
X98572197Y-132343903D01*
X98572194Y-132343899D01*
X98426772Y-132185931D01*
X98423240Y-132182094D01*
X98386715Y-132153665D01*
X98249689Y-132047012D01*
X98249687Y-132047010D01*
X98245576Y-132043811D01*
X98212320Y-132025814D01*
X98161929Y-131975801D01*
X98146577Y-131906484D01*
X98171137Y-131839871D01*
X98212320Y-131804186D01*
X98240995Y-131788668D01*
X98245576Y-131786189D01*
X98254294Y-131779404D01*
X98419121Y-131651112D01*
X98423240Y-131647906D01*
X98511378Y-131552164D01*
X98572194Y-131486101D01*
X98572197Y-131486097D01*
X98575722Y-131482268D01*
X98634376Y-131392492D01*
X98696008Y-131298157D01*
X98696010Y-131298153D01*
X98698860Y-131293791D01*
X98719645Y-131246407D01*
X98787200Y-131092394D01*
X98789296Y-131087616D01*
X98844564Y-130869368D01*
X98863156Y-130645000D01*
X98861976Y-130630763D01*
X98844995Y-130425828D01*
X98844994Y-130425823D01*
X98844564Y-130420632D01*
X98824839Y-130342738D01*
X98790578Y-130207446D01*
X98790578Y-130207445D01*
X98789296Y-130202384D01*
X98698860Y-129996209D01*
X98650878Y-129922766D01*
X98578573Y-129812096D01*
X98575722Y-129807732D01*
X98572197Y-129803903D01*
X98572194Y-129803899D01*
X98426772Y-129645931D01*
X98423240Y-129642094D01*
X98262466Y-129516957D01*
X98249689Y-129507012D01*
X98249687Y-129507010D01*
X98245576Y-129503811D01*
X98212320Y-129485814D01*
X98161929Y-129435801D01*
X98146577Y-129366484D01*
X98171137Y-129299871D01*
X98212320Y-129264186D01*
X98240995Y-129248668D01*
X98245576Y-129246189D01*
X98250410Y-129242427D01*
X98419121Y-129111112D01*
X98423240Y-129107906D01*
X98516105Y-129007029D01*
X98572194Y-128946101D01*
X98572197Y-128946097D01*
X98575722Y-128942268D01*
X98698860Y-128753791D01*
X98789296Y-128547616D01*
X98844564Y-128329368D01*
X98849930Y-128264620D01*
X98862726Y-128110189D01*
X98863156Y-128105000D01*
X98844564Y-127880632D01*
X98789296Y-127662384D01*
X98698860Y-127456209D01*
X98575722Y-127267732D01*
X98572197Y-127263903D01*
X98572194Y-127263899D01*
X98426772Y-127105931D01*
X98423240Y-127102094D01*
X98245576Y-126963811D01*
X98211792Y-126945528D01*
X98161403Y-126895515D01*
X98146051Y-126826198D01*
X98170612Y-126759585D01*
X98211794Y-126723901D01*
X98240719Y-126708248D01*
X98249411Y-126702569D01*
X98418789Y-126570737D01*
X98426432Y-126563700D01*
X98571790Y-126405799D01*
X98578177Y-126397593D01*
X98695569Y-126217913D01*
X98700512Y-126208778D01*
X98786730Y-126012223D01*
X98790100Y-126002408D01*
X98832097Y-125836561D01*
X98831567Y-125822470D01*
X98823145Y-125819000D01*
X96181571Y-125819000D01*
X96168040Y-125822973D01*
X96166744Y-125831986D01*
X96209900Y-126002408D01*
X96213270Y-126012223D01*
X96299488Y-126208778D01*
X96304431Y-126217913D01*
X96421823Y-126397593D01*
X96428210Y-126405799D01*
X96573568Y-126563700D01*
X96581211Y-126570737D01*
X96750589Y-126702569D01*
X96759281Y-126708248D01*
X96788206Y-126723901D01*
X96838597Y-126773914D01*
X96853949Y-126843231D01*
X96829388Y-126909844D01*
X96788208Y-126945528D01*
X96754424Y-126963811D01*
X96576760Y-127102094D01*
X96573228Y-127105931D01*
X96427806Y-127263899D01*
X96427803Y-127263903D01*
X96424278Y-127267732D01*
X96301140Y-127456209D01*
X96210704Y-127662384D01*
X96155436Y-127880632D01*
X96136844Y-128105000D01*
X96137274Y-128110189D01*
X96150071Y-128264620D01*
X96155436Y-128329368D01*
X96210704Y-128547616D01*
X96301140Y-128753791D01*
X96424278Y-128942268D01*
X96427803Y-128946097D01*
X96427806Y-128946101D01*
X96483895Y-129007029D01*
X96576760Y-129107906D01*
X96580879Y-129111112D01*
X96749591Y-129242427D01*
X96754424Y-129246189D01*
X96759005Y-129248668D01*
X96787680Y-129264186D01*
X96838071Y-129314199D01*
X96853423Y-129383516D01*
X96828863Y-129450129D01*
X96787681Y-129485813D01*
X96754424Y-129503811D01*
X96750313Y-129507010D01*
X96750311Y-129507012D01*
X96737534Y-129516957D01*
X96576760Y-129642094D01*
X96573228Y-129645931D01*
X96427806Y-129803899D01*
X96427803Y-129803903D01*
X96424278Y-129807732D01*
X96421427Y-129812096D01*
X96349123Y-129922766D01*
X96301140Y-129996209D01*
X96210704Y-130202384D01*
X96209422Y-130207445D01*
X96209422Y-130207446D01*
X96175161Y-130342738D01*
X96155436Y-130420632D01*
X96155006Y-130425823D01*
X96155005Y-130425828D01*
X96138024Y-130630763D01*
X96136844Y-130645000D01*
X96155436Y-130869368D01*
X96210704Y-131087616D01*
X96212800Y-131092394D01*
X96280356Y-131246407D01*
X96301140Y-131293791D01*
X96303990Y-131298153D01*
X96303992Y-131298157D01*
X96365624Y-131392492D01*
X96424278Y-131482268D01*
X96427803Y-131486097D01*
X96427806Y-131486101D01*
X96488622Y-131552164D01*
X96576760Y-131647906D01*
X96580879Y-131651112D01*
X96745707Y-131779404D01*
X96754424Y-131786189D01*
X96759005Y-131788668D01*
X96787680Y-131804186D01*
X96838071Y-131854199D01*
X96853423Y-131923516D01*
X96828863Y-131990129D01*
X96787681Y-132025813D01*
X96754424Y-132043811D01*
X96750313Y-132047010D01*
X96750311Y-132047012D01*
X96613285Y-132153665D01*
X96576760Y-132182094D01*
X96573228Y-132185931D01*
X96427806Y-132343899D01*
X96427803Y-132343903D01*
X96424278Y-132347732D01*
X96421427Y-132352096D01*
X96329389Y-132492971D01*
X96301140Y-132536209D01*
X96210704Y-132742384D01*
X96155436Y-132960632D01*
X96155006Y-132965823D01*
X96155005Y-132965828D01*
X96141310Y-133131103D01*
X96136844Y-133185000D01*
X96137274Y-133190189D01*
X96147502Y-133313616D01*
X96155436Y-133409368D01*
X96210704Y-133627616D01*
X96212800Y-133632394D01*
X96273476Y-133770722D01*
X96301140Y-133833791D01*
X96303990Y-133838153D01*
X96303992Y-133838157D01*
X96387795Y-133966427D01*
X96424278Y-134022268D01*
X96427803Y-134026097D01*
X96427806Y-134026101D01*
X96471134Y-134073167D01*
X96576760Y-134187906D01*
X96754424Y-134326189D01*
X96759005Y-134328668D01*
X96787680Y-134344186D01*
X96838071Y-134394199D01*
X96853423Y-134463516D01*
X96828863Y-134530129D01*
X96787681Y-134565813D01*
X96754424Y-134583811D01*
X96576760Y-134722094D01*
X96544600Y-134757029D01*
X96427806Y-134883899D01*
X96427803Y-134883903D01*
X96424278Y-134887732D01*
X96421427Y-134892096D01*
X96307153Y-135067006D01*
X96301140Y-135076209D01*
X96299048Y-135080978D01*
X96299046Y-135080982D01*
X96259822Y-135170405D01*
X96210704Y-135282384D01*
X96209422Y-135287445D01*
X96209422Y-135287446D01*
X96159890Y-135483043D01*
X96155436Y-135500632D01*
X96155006Y-135505823D01*
X96155005Y-135505828D01*
X96150217Y-135563616D01*
X96136844Y-135725000D01*
X96155436Y-135949368D01*
X96210704Y-136167616D01*
X96301140Y-136373791D01*
X96424278Y-136562268D01*
X96427803Y-136566097D01*
X96427806Y-136566101D01*
X96529360Y-136676417D01*
X96576760Y-136727906D01*
X96580879Y-136731112D01*
X96688015Y-136814500D01*
X96754424Y-136866189D01*
X96787599Y-136884142D01*
X96787680Y-136884186D01*
X96838071Y-136934199D01*
X96853423Y-137003516D01*
X96828863Y-137070129D01*
X96787681Y-137105813D01*
X96754424Y-137123811D01*
X96750313Y-137127010D01*
X96750311Y-137127012D01*
X96649560Y-137205431D01*
X96576760Y-137262094D01*
X96552187Y-137288787D01*
X96427806Y-137423899D01*
X96427803Y-137423903D01*
X96424278Y-137427732D01*
X96421427Y-137432096D01*
X96350776Y-137540236D01*
X96301140Y-137616209D01*
X96299048Y-137620978D01*
X96299046Y-137620982D01*
X96270182Y-137686786D01*
X96210704Y-137822384D01*
X96209422Y-137827445D01*
X96209422Y-137827446D01*
X96208746Y-137830115D01*
X96155436Y-138040632D01*
X96155006Y-138045823D01*
X96155005Y-138045828D01*
X96143358Y-138186384D01*
X96136844Y-138265000D01*
X96137274Y-138270189D01*
X96145255Y-138366500D01*
X96155436Y-138489368D01*
X96156717Y-138494426D01*
X96156717Y-138494427D01*
X96174114Y-138563124D01*
X96210704Y-138707616D01*
X96212800Y-138712394D01*
X96293297Y-138895910D01*
X96301140Y-138913791D01*
X96303990Y-138918153D01*
X96303992Y-138918157D01*
X96371001Y-139020722D01*
X96424278Y-139102268D01*
X96427803Y-139106097D01*
X96427806Y-139106101D01*
X96526278Y-139213069D01*
X96576760Y-139267906D01*
X96580879Y-139271112D01*
X96742599Y-139396985D01*
X96754424Y-139406189D01*
X96759005Y-139408668D01*
X96787680Y-139424186D01*
X96838071Y-139474199D01*
X96853423Y-139543516D01*
X96828863Y-139610129D01*
X96787681Y-139645813D01*
X96754424Y-139663811D01*
X96750313Y-139667010D01*
X96750311Y-139667012D01*
X96640016Y-139752859D01*
X96576760Y-139802094D01*
X96565384Y-139814452D01*
X96427806Y-139963899D01*
X96427803Y-139963903D01*
X96424278Y-139967732D01*
X96421427Y-139972096D01*
X96332220Y-140108638D01*
X96301140Y-140156209D01*
X96299048Y-140160978D01*
X96299046Y-140160982D01*
X96256089Y-140258915D01*
X96210704Y-140362384D01*
X96209422Y-140367445D01*
X96209422Y-140367446D01*
X96178380Y-140490029D01*
X96155436Y-140580632D01*
X96155006Y-140585823D01*
X96155005Y-140585828D01*
X96138024Y-140790763D01*
X96136844Y-140805000D01*
X96137274Y-140810189D01*
X96151091Y-140976929D01*
X96155436Y-141029368D01*
X96156717Y-141034426D01*
X96156717Y-141034427D01*
X96178187Y-141119208D01*
X96210704Y-141247616D01*
X96212800Y-141252394D01*
X96291164Y-141431047D01*
X96301140Y-141453791D01*
X96424278Y-141642268D01*
X96427803Y-141646097D01*
X96427806Y-141646101D01*
X96529360Y-141756417D01*
X96576760Y-141807906D01*
X96580879Y-141811112D01*
X96677237Y-141886111D01*
X96754424Y-141946189D01*
X96759005Y-141948668D01*
X96787680Y-141964186D01*
X96838071Y-142014199D01*
X96853423Y-142083516D01*
X96828863Y-142150129D01*
X96787681Y-142185813D01*
X96754424Y-142203811D01*
X96576760Y-142342094D01*
X96573228Y-142345931D01*
X96427806Y-142503899D01*
X96427803Y-142503903D01*
X96424278Y-142507732D01*
X96301140Y-142696209D01*
X96210704Y-142902384D01*
X96155436Y-143120632D01*
X96155006Y-143125823D01*
X96155005Y-143125828D01*
X96143311Y-143266957D01*
X96136844Y-143345000D01*
X96137274Y-143350189D01*
X96149085Y-143492719D01*
X96155436Y-143569368D01*
X96210704Y-143787616D01*
X96212800Y-143792394D01*
X96276861Y-143938439D01*
X96301140Y-143993791D01*
X96303990Y-143998153D01*
X96303992Y-143998157D01*
X96393448Y-144135079D01*
X96424278Y-144182268D01*
X96427803Y-144186097D01*
X96427806Y-144186101D01*
X96529360Y-144296417D01*
X96576760Y-144347906D01*
X96754424Y-144486189D01*
X96759005Y-144488668D01*
X96787680Y-144504186D01*
X96838071Y-144554199D01*
X96853423Y-144623516D01*
X96828863Y-144690129D01*
X96787681Y-144725813D01*
X96754424Y-144743811D01*
X96750313Y-144747010D01*
X96750311Y-144747012D01*
X96580879Y-144878888D01*
X96576760Y-144882094D01*
X96573228Y-144885931D01*
X96427806Y-145043899D01*
X96427803Y-145043903D01*
X96424278Y-145047732D01*
X96301140Y-145236209D01*
X96210704Y-145442384D01*
X96155436Y-145660632D01*
X96136844Y-145885000D01*
X95155136Y-145885000D01*
X95148751Y-125293439D01*
X96167903Y-125293439D01*
X96168433Y-125307530D01*
X96176855Y-125311000D01*
X97227885Y-125311000D01*
X97243124Y-125306525D01*
X97244329Y-125305135D01*
X97246000Y-125297452D01*
X97246000Y-125292885D01*
X97754000Y-125292885D01*
X97758475Y-125308124D01*
X97759865Y-125309329D01*
X97767548Y-125311000D01*
X98818429Y-125311000D01*
X98831960Y-125307027D01*
X98833256Y-125298014D01*
X98790100Y-125127592D01*
X98786730Y-125117777D01*
X98700512Y-124921222D01*
X98695569Y-124912087D01*
X98578177Y-124732407D01*
X98571790Y-124724201D01*
X98426432Y-124566300D01*
X98418789Y-124559263D01*
X98249411Y-124427431D01*
X98240718Y-124421752D01*
X98051957Y-124319599D01*
X98042440Y-124315425D01*
X97839443Y-124245736D01*
X97829373Y-124243185D01*
X97771867Y-124233589D01*
X97758352Y-124235223D01*
X97754000Y-124249449D01*
X97754000Y-125292885D01*
X97246000Y-125292885D01*
X97246000Y-124248723D01*
X97242164Y-124235660D01*
X97227416Y-124233709D01*
X97170627Y-124243185D01*
X97160557Y-124245736D01*
X96957560Y-124315425D01*
X96948043Y-124319599D01*
X96759282Y-124421752D01*
X96750589Y-124427431D01*
X96581211Y-124559263D01*
X96573568Y-124566300D01*
X96428210Y-124724201D01*
X96421823Y-124732407D01*
X96304431Y-124912087D01*
X96299488Y-124921222D01*
X96213270Y-125117777D01*
X96209900Y-125127592D01*
X96167903Y-125293439D01*
X95148751Y-125293439D01*
X95144780Y-112487835D01*
X95140239Y-97845223D01*
X128392000Y-97845223D01*
X128392360Y-97851938D01*
X128397662Y-97901257D01*
X128401259Y-97916478D01*
X128446405Y-98037520D01*
X128454954Y-98053176D01*
X128531698Y-98155693D01*
X128544307Y-98168302D01*
X128646824Y-98245046D01*
X128662480Y-98253595D01*
X128783522Y-98298741D01*
X128798743Y-98302338D01*
X128848062Y-98307640D01*
X128854777Y-98308000D01*
X129477885Y-98308000D01*
X129493124Y-98303525D01*
X129494329Y-98302135D01*
X129496000Y-98294452D01*
X129496000Y-98289885D01*
X130004000Y-98289885D01*
X130008475Y-98305124D01*
X130009865Y-98306329D01*
X130017548Y-98308000D01*
X130645223Y-98308000D01*
X130651938Y-98307640D01*
X130701257Y-98302338D01*
X130716478Y-98298741D01*
X130837520Y-98253595D01*
X130853176Y-98245046D01*
X130955693Y-98168302D01*
X130968302Y-98155693D01*
X131045046Y-98053176D01*
X131053595Y-98037520D01*
X131094618Y-97927531D01*
X131137165Y-97870695D01*
X131203685Y-97845884D01*
X131273059Y-97860975D01*
X131305375Y-97886225D01*
X131366760Y-97952906D01*
X131544424Y-98091189D01*
X131549005Y-98093668D01*
X131686917Y-98168302D01*
X131742426Y-98198342D01*
X131955365Y-98271444D01*
X131960499Y-98272301D01*
X131960504Y-98272302D01*
X132172294Y-98307643D01*
X132172296Y-98307643D01*
X132177431Y-98308500D01*
X132402569Y-98308500D01*
X132407704Y-98307643D01*
X132407706Y-98307643D01*
X132619496Y-98272302D01*
X132619501Y-98272301D01*
X132624635Y-98271444D01*
X132837574Y-98198342D01*
X132893084Y-98168302D01*
X133030995Y-98093668D01*
X133035576Y-98091189D01*
X133213240Y-97952906D01*
X133297869Y-97860975D01*
X133362194Y-97791101D01*
X133362197Y-97791097D01*
X133365722Y-97787268D01*
X133454517Y-97651357D01*
X133508521Y-97605268D01*
X133578868Y-97595693D01*
X133643226Y-97625670D01*
X133665483Y-97651357D01*
X133754278Y-97787268D01*
X133757803Y-97791097D01*
X133757806Y-97791101D01*
X133822131Y-97860975D01*
X133906760Y-97952906D01*
X134084424Y-98091189D01*
X134089005Y-98093668D01*
X134130469Y-98116107D01*
X134180860Y-98166120D01*
X134196500Y-98226921D01*
X134196500Y-103754804D01*
X134176498Y-103822925D01*
X134122842Y-103869418D01*
X134052568Y-103879522D01*
X134003465Y-103861492D01*
X133853015Y-103766957D01*
X133681047Y-103706783D01*
X133674020Y-103705991D01*
X133674019Y-103705991D01*
X133507029Y-103687176D01*
X133500000Y-103686384D01*
X133492971Y-103687176D01*
X133325981Y-103705991D01*
X133325980Y-103705991D01*
X133318953Y-103706783D01*
X133146985Y-103766957D01*
X132992719Y-103863889D01*
X132863889Y-103992719D01*
X132766957Y-104146985D01*
X132706783Y-104318953D01*
X132686384Y-104500000D01*
X132706783Y-104681047D01*
X132766957Y-104853015D01*
X132770722Y-104859007D01*
X132847187Y-104980700D01*
X132866500Y-105047736D01*
X132866500Y-136921233D01*
X132865973Y-136932416D01*
X132864298Y-136939909D01*
X132864547Y-136947835D01*
X132864547Y-136947836D01*
X132866438Y-137007986D01*
X132866500Y-137011945D01*
X132866500Y-137039856D01*
X132866997Y-137043790D01*
X132866997Y-137043791D01*
X132867005Y-137043856D01*
X132867938Y-137055693D01*
X132869327Y-137099889D01*
X132874978Y-137119339D01*
X132878987Y-137138700D01*
X132881526Y-137158797D01*
X132884445Y-137166168D01*
X132884445Y-137166170D01*
X132897804Y-137199912D01*
X132901649Y-137211142D01*
X132913982Y-137253593D01*
X132918015Y-137260412D01*
X132918017Y-137260417D01*
X132924293Y-137271028D01*
X132932988Y-137288776D01*
X132940448Y-137307617D01*
X132945110Y-137314033D01*
X132945110Y-137314034D01*
X132966436Y-137343387D01*
X132972952Y-137353307D01*
X132995458Y-137391362D01*
X133009779Y-137405683D01*
X133022619Y-137420716D01*
X133034528Y-137437107D01*
X133040636Y-137442160D01*
X133068598Y-137465292D01*
X133077378Y-137473282D01*
X133165656Y-137561560D01*
X133199682Y-137623872D01*
X133201769Y-137636547D01*
X133205832Y-137672603D01*
X133206783Y-137681047D01*
X133266957Y-137853015D01*
X133270722Y-137859007D01*
X133328329Y-137950687D01*
X133363889Y-138007281D01*
X133492719Y-138136111D01*
X133498714Y-138139878D01*
X133608912Y-138209120D01*
X133646985Y-138233043D01*
X133818953Y-138293217D01*
X133825980Y-138294009D01*
X133825981Y-138294009D01*
X133992971Y-138312824D01*
X134000000Y-138313616D01*
X134007029Y-138312824D01*
X134174019Y-138294009D01*
X134174020Y-138294009D01*
X134181047Y-138293217D01*
X134353015Y-138233043D01*
X134391088Y-138209120D01*
X134501286Y-138139878D01*
X134507281Y-138136111D01*
X134636111Y-138007281D01*
X134671672Y-137950687D01*
X134729278Y-137859007D01*
X134733043Y-137853015D01*
X134793217Y-137681047D01*
X134794169Y-137672603D01*
X134812824Y-137507029D01*
X134813616Y-137500000D01*
X134802008Y-137396973D01*
X134794009Y-137325981D01*
X134794009Y-137325980D01*
X134793217Y-137318953D01*
X134733043Y-137146985D01*
X134708168Y-137107397D01*
X134639878Y-136998714D01*
X134636111Y-136992719D01*
X134507281Y-136863889D01*
X134353015Y-136766957D01*
X134217885Y-136719673D01*
X134160193Y-136678295D01*
X134134031Y-136612295D01*
X134133500Y-136600744D01*
X134133500Y-121336912D01*
X134153502Y-121268791D01*
X134207158Y-121222298D01*
X134277432Y-121212194D01*
X134342012Y-121241688D01*
X134354288Y-121255064D01*
X134354444Y-121254917D01*
X134359868Y-121260693D01*
X134364528Y-121267107D01*
X134370634Y-121272158D01*
X134398605Y-121295298D01*
X134407384Y-121303288D01*
X143415656Y-130311561D01*
X143449682Y-130373873D01*
X143451769Y-130386548D01*
X143455610Y-130420632D01*
X143456783Y-130431047D01*
X143516957Y-130603015D01*
X143520722Y-130609007D01*
X143601310Y-130737261D01*
X143613889Y-130757281D01*
X143742719Y-130886111D01*
X143896985Y-130983043D01*
X144068953Y-131043217D01*
X144075980Y-131044009D01*
X144075981Y-131044009D01*
X144242971Y-131062824D01*
X144250000Y-131063616D01*
X144257029Y-131062824D01*
X144424019Y-131044009D01*
X144424020Y-131044009D01*
X144431047Y-131043217D01*
X144603015Y-130983043D01*
X144757281Y-130886111D01*
X144886111Y-130757281D01*
X144898691Y-130737261D01*
X144979278Y-130609007D01*
X144983043Y-130603015D01*
X145006071Y-130537205D01*
X145047449Y-130479513D01*
X145113450Y-130453351D01*
X145183117Y-130467024D01*
X145234333Y-130516191D01*
X145243929Y-130537205D01*
X145266957Y-130603015D01*
X145270722Y-130609007D01*
X145351310Y-130737261D01*
X145363889Y-130757281D01*
X145492719Y-130886111D01*
X145646985Y-130983043D01*
X145818953Y-131043217D01*
X145825980Y-131044009D01*
X145825981Y-131044009D01*
X145992971Y-131062824D01*
X146000000Y-131063616D01*
X146007029Y-131062824D01*
X146174019Y-131044009D01*
X146174020Y-131044009D01*
X146181047Y-131043217D01*
X146353015Y-130983043D01*
X146507281Y-130886111D01*
X146636111Y-130757281D01*
X146648691Y-130737261D01*
X146729278Y-130609007D01*
X146733043Y-130603015D01*
X146793217Y-130431047D01*
X146794391Y-130420632D01*
X146812824Y-130257029D01*
X146813616Y-130250000D01*
X147186384Y-130250000D01*
X147187176Y-130257029D01*
X147205610Y-130420632D01*
X147206783Y-130431047D01*
X147266957Y-130603015D01*
X147270722Y-130609007D01*
X147351310Y-130737261D01*
X147363889Y-130757281D01*
X147492719Y-130886111D01*
X147646985Y-130983043D01*
X147818953Y-131043217D01*
X147825980Y-131044009D01*
X147825981Y-131044009D01*
X147992971Y-131062824D01*
X148000000Y-131063616D01*
X148007029Y-131062824D01*
X148174019Y-131044009D01*
X148174020Y-131044009D01*
X148181047Y-131043217D01*
X148353015Y-130983043D01*
X148507281Y-130886111D01*
X148636111Y-130757281D01*
X148648691Y-130737261D01*
X148729278Y-130609007D01*
X148733043Y-130603015D01*
X148793217Y-130431047D01*
X148794391Y-130420632D01*
X148812824Y-130257029D01*
X148813616Y-130250000D01*
X148793217Y-130068953D01*
X148733043Y-129896985D01*
X148652813Y-129769300D01*
X148633500Y-129702264D01*
X148633500Y-120047736D01*
X148652813Y-119980700D01*
X148729278Y-119859007D01*
X148733043Y-119853015D01*
X148793217Y-119681047D01*
X148813616Y-119500000D01*
X148793217Y-119318953D01*
X148733043Y-119146985D01*
X148636111Y-118992719D01*
X148507281Y-118863889D01*
X148353015Y-118766957D01*
X148181047Y-118706783D01*
X148174020Y-118705991D01*
X148174019Y-118705991D01*
X148007029Y-118687176D01*
X148000000Y-118686384D01*
X147992971Y-118687176D01*
X147825981Y-118705991D01*
X147825980Y-118705991D01*
X147818953Y-118706783D01*
X147646985Y-118766957D01*
X147492719Y-118863889D01*
X147363889Y-118992719D01*
X147266957Y-119146985D01*
X147206783Y-119318953D01*
X147186384Y-119500000D01*
X147206783Y-119681047D01*
X147266957Y-119853015D01*
X147270722Y-119859007D01*
X147347187Y-119980700D01*
X147366500Y-120047736D01*
X147366500Y-129702264D01*
X147347187Y-129769300D01*
X147266957Y-129896985D01*
X147206783Y-130068953D01*
X147186384Y-130250000D01*
X146813616Y-130250000D01*
X146793217Y-130068953D01*
X146733043Y-129896985D01*
X146679704Y-129812096D01*
X146639878Y-129748714D01*
X146636111Y-129742719D01*
X146507281Y-129613889D01*
X146353015Y-129516957D01*
X146181047Y-129456783D01*
X146174022Y-129455992D01*
X146174020Y-129455991D01*
X146136547Y-129451769D01*
X146071094Y-129424265D01*
X146061560Y-129415656D01*
X138040405Y-121394500D01*
X138006379Y-121332188D01*
X138003500Y-121305405D01*
X138003500Y-98226921D01*
X138023502Y-98158800D01*
X138069531Y-98116107D01*
X138110995Y-98093668D01*
X138115576Y-98091189D01*
X138293240Y-97952906D01*
X138377869Y-97860975D01*
X138442194Y-97791101D01*
X138442197Y-97791097D01*
X138445722Y-97787268D01*
X138551299Y-97625670D01*
X138566008Y-97603157D01*
X138566010Y-97603153D01*
X138568860Y-97598791D01*
X138659296Y-97392616D01*
X138714564Y-97174368D01*
X138733156Y-96950000D01*
X138714564Y-96725632D01*
X138666160Y-96534489D01*
X138660578Y-96512446D01*
X138660578Y-96512445D01*
X138659296Y-96507384D01*
X138568860Y-96301209D01*
X138564629Y-96294732D01*
X138476552Y-96159921D01*
X138445722Y-96112732D01*
X138442197Y-96108903D01*
X138442194Y-96108899D01*
X138326775Y-95983522D01*
X138293240Y-95947094D01*
X138224241Y-95893389D01*
X138119689Y-95812012D01*
X138119687Y-95812010D01*
X138115576Y-95808811D01*
X137996383Y-95744307D01*
X137922159Y-95704139D01*
X137922156Y-95704138D01*
X137917574Y-95701658D01*
X137704635Y-95628556D01*
X137699501Y-95627699D01*
X137699496Y-95627698D01*
X137487706Y-95592357D01*
X137487704Y-95592357D01*
X137482569Y-95591500D01*
X137257431Y-95591500D01*
X137252296Y-95592357D01*
X137252294Y-95592357D01*
X137040504Y-95627698D01*
X137040499Y-95627699D01*
X137035365Y-95628556D01*
X136822426Y-95701658D01*
X136817844Y-95704138D01*
X136817841Y-95704139D01*
X136743617Y-95744307D01*
X136624424Y-95808811D01*
X136620313Y-95812010D01*
X136620311Y-95812012D01*
X136515759Y-95893389D01*
X136446760Y-95947094D01*
X136413225Y-95983522D01*
X136297806Y-96108899D01*
X136297803Y-96108903D01*
X136294278Y-96112732D01*
X136222506Y-96222588D01*
X136205483Y-96248643D01*
X136151479Y-96294732D01*
X136081132Y-96304307D01*
X136016774Y-96274330D01*
X135994517Y-96248643D01*
X135977494Y-96222588D01*
X135905722Y-96112732D01*
X135902197Y-96108903D01*
X135902194Y-96108899D01*
X135786775Y-95983522D01*
X135753240Y-95947094D01*
X135684241Y-95893389D01*
X135579689Y-95812012D01*
X135579687Y-95812010D01*
X135575576Y-95808811D01*
X135456383Y-95744307D01*
X135382159Y-95704139D01*
X135382156Y-95704138D01*
X135377574Y-95701658D01*
X135164635Y-95628556D01*
X135159501Y-95627699D01*
X135159496Y-95627698D01*
X134947706Y-95592357D01*
X134947704Y-95592357D01*
X134942569Y-95591500D01*
X134717431Y-95591500D01*
X134712296Y-95592357D01*
X134712294Y-95592357D01*
X134500504Y-95627698D01*
X134500499Y-95627699D01*
X134495365Y-95628556D01*
X134282426Y-95701658D01*
X134277844Y-95704138D01*
X134277841Y-95704139D01*
X134203617Y-95744307D01*
X134084424Y-95808811D01*
X134080313Y-95812010D01*
X134080311Y-95812012D01*
X133975759Y-95893389D01*
X133906760Y-95947094D01*
X133873225Y-95983522D01*
X133757806Y-96108899D01*
X133757803Y-96108903D01*
X133754278Y-96112732D01*
X133682506Y-96222588D01*
X133665483Y-96248643D01*
X133611479Y-96294732D01*
X133541132Y-96304307D01*
X133476774Y-96274330D01*
X133454517Y-96248643D01*
X133437494Y-96222588D01*
X133365722Y-96112732D01*
X133362197Y-96108903D01*
X133362194Y-96108899D01*
X133246775Y-95983522D01*
X133213240Y-95947094D01*
X133144241Y-95893389D01*
X133039689Y-95812012D01*
X133039687Y-95812010D01*
X133035576Y-95808811D01*
X132916383Y-95744307D01*
X132842159Y-95704139D01*
X132842156Y-95704138D01*
X132837574Y-95701658D01*
X132624635Y-95628556D01*
X132619501Y-95627699D01*
X132619496Y-95627698D01*
X132407706Y-95592357D01*
X132407704Y-95592357D01*
X132402569Y-95591500D01*
X132177431Y-95591500D01*
X132172296Y-95592357D01*
X132172294Y-95592357D01*
X131960504Y-95627698D01*
X131960499Y-95627699D01*
X131955365Y-95628556D01*
X131742426Y-95701658D01*
X131737844Y-95704138D01*
X131737841Y-95704139D01*
X131663617Y-95744307D01*
X131544424Y-95808811D01*
X131540313Y-95812010D01*
X131540311Y-95812012D01*
X131435759Y-95893389D01*
X131366760Y-95947094D01*
X131333225Y-95983522D01*
X131305375Y-96013775D01*
X131244521Y-96050346D01*
X131173557Y-96048211D01*
X131115012Y-96008049D01*
X131094618Y-95972469D01*
X131053595Y-95862480D01*
X131045046Y-95846824D01*
X130968302Y-95744307D01*
X130955693Y-95731698D01*
X130853176Y-95654954D01*
X130837520Y-95646405D01*
X130716478Y-95601259D01*
X130701257Y-95597662D01*
X130651938Y-95592360D01*
X130645223Y-95592000D01*
X130022115Y-95592000D01*
X130006876Y-95596475D01*
X130005671Y-95597865D01*
X130004000Y-95605548D01*
X130004000Y-98289885D01*
X129496000Y-98289885D01*
X129496000Y-97222115D01*
X129491525Y-97206876D01*
X129490135Y-97205671D01*
X129482452Y-97204000D01*
X128410115Y-97204000D01*
X128394876Y-97208475D01*
X128393671Y-97209865D01*
X128392000Y-97217548D01*
X128392000Y-97845223D01*
X95140239Y-97845223D01*
X95139877Y-96677885D01*
X128392000Y-96677885D01*
X128396475Y-96693124D01*
X128397865Y-96694329D01*
X128405548Y-96696000D01*
X129477885Y-96696000D01*
X129493124Y-96691525D01*
X129494329Y-96690135D01*
X129496000Y-96682452D01*
X129496000Y-95610115D01*
X129491525Y-95594876D01*
X129490135Y-95593671D01*
X129482452Y-95592000D01*
X128854777Y-95592000D01*
X128848062Y-95592360D01*
X128798743Y-95597662D01*
X128783522Y-95601259D01*
X128662480Y-95646405D01*
X128646824Y-95654954D01*
X128544307Y-95731698D01*
X128531698Y-95744307D01*
X128454954Y-95846824D01*
X128446405Y-95862480D01*
X128401259Y-95983522D01*
X128397662Y-95998743D01*
X128392360Y-96048062D01*
X128392000Y-96054777D01*
X128392000Y-96677885D01*
X95139877Y-96677885D01*
X95138737Y-93000000D01*
X96986548Y-93000000D01*
X97006343Y-93377709D01*
X97065511Y-93751279D01*
X97163403Y-94116618D01*
X97298947Y-94469723D01*
X97300445Y-94472663D01*
X97463776Y-94793217D01*
X97470659Y-94806726D01*
X97676656Y-95123934D01*
X97914682Y-95417871D01*
X98182129Y-95685318D01*
X98476066Y-95923344D01*
X98478841Y-95925146D01*
X98790501Y-96127540D01*
X98793274Y-96129341D01*
X98796208Y-96130836D01*
X98796215Y-96130840D01*
X99027417Y-96248643D01*
X99130277Y-96301053D01*
X99483382Y-96436597D01*
X99848721Y-96534489D01*
X100047158Y-96565918D01*
X100219043Y-96593143D01*
X100219051Y-96593144D01*
X100222291Y-96593657D01*
X100600000Y-96613452D01*
X100977709Y-96593657D01*
X100980949Y-96593144D01*
X100980957Y-96593143D01*
X101152842Y-96565918D01*
X101351279Y-96534489D01*
X101716618Y-96436597D01*
X102069723Y-96301053D01*
X102172583Y-96248643D01*
X102403785Y-96130840D01*
X102403792Y-96130836D01*
X102406726Y-96129341D01*
X102409495Y-96127543D01*
X102409500Y-96127540D01*
X102425006Y-96117470D01*
X102479004Y-96097994D01*
X102523306Y-96092816D01*
X102856804Y-96013775D01*
X102860741Y-96012842D01*
X102860743Y-96012841D01*
X102864310Y-96011996D01*
X102875155Y-96008049D01*
X103190181Y-95893389D01*
X103190183Y-95893388D01*
X103193626Y-95892135D01*
X103196892Y-95890495D01*
X103196896Y-95890493D01*
X103503533Y-95736494D01*
X103503536Y-95736492D01*
X103506800Y-95734853D01*
X103578945Y-95687403D01*
X103796529Y-95544296D01*
X103796531Y-95544295D01*
X103799597Y-95542278D01*
X103947859Y-95417871D01*
X104065245Y-95319372D01*
X104065249Y-95319368D01*
X104068057Y-95317012D01*
X104247787Y-95126510D01*
X104306039Y-95064767D01*
X104306042Y-95064763D01*
X104308551Y-95062104D01*
X104517825Y-94781000D01*
X104566611Y-94696500D01*
X104617993Y-94647507D01*
X104675730Y-94633500D01*
X113452264Y-94633500D01*
X113519300Y-94652813D01*
X113646985Y-94733043D01*
X113818953Y-94793217D01*
X113825980Y-94794009D01*
X113825981Y-94794009D01*
X113992971Y-94812824D01*
X114000000Y-94813616D01*
X114007029Y-94812824D01*
X114174019Y-94794009D01*
X114174020Y-94794009D01*
X114181047Y-94793217D01*
X114353015Y-94733043D01*
X114480700Y-94652813D01*
X114501286Y-94639878D01*
X114507281Y-94636111D01*
X114636111Y-94507281D01*
X114733043Y-94353015D01*
X114793217Y-94181047D01*
X114813616Y-94000000D01*
X114793217Y-93818953D01*
X114733043Y-93646985D01*
X114636111Y-93492719D01*
X114507281Y-93363889D01*
X114479604Y-93346498D01*
X114359007Y-93270722D01*
X114353015Y-93266957D01*
X114181047Y-93206783D01*
X114174020Y-93205991D01*
X114174019Y-93205991D01*
X114007029Y-93187176D01*
X114000000Y-93186384D01*
X113992971Y-93187176D01*
X113825981Y-93205991D01*
X113825980Y-93205991D01*
X113818953Y-93206783D01*
X113646985Y-93266957D01*
X113640993Y-93270722D01*
X113519300Y-93347187D01*
X113452264Y-93366500D01*
X105133085Y-93366500D01*
X105064964Y-93346498D01*
X105018471Y-93292842D01*
X105007298Y-93233175D01*
X105013599Y-93125000D01*
X104993222Y-92775143D01*
X104932367Y-92430016D01*
X104881729Y-92260871D01*
X104878474Y-92250000D01*
X110186384Y-92250000D01*
X110206783Y-92431047D01*
X110266957Y-92603015D01*
X110363889Y-92757281D01*
X110492719Y-92886111D01*
X110498714Y-92889878D01*
X110547297Y-92920405D01*
X110646985Y-92983043D01*
X110818953Y-93043217D01*
X110825980Y-93044009D01*
X110825981Y-93044009D01*
X110992971Y-93062824D01*
X111000000Y-93063616D01*
X111007029Y-93062824D01*
X111174019Y-93044009D01*
X111174020Y-93044009D01*
X111181047Y-93043217D01*
X111353015Y-92983043D01*
X111480700Y-92902813D01*
X111547736Y-92883500D01*
X139185406Y-92883500D01*
X139253527Y-92903502D01*
X139274501Y-92920405D01*
X153829595Y-107475499D01*
X153863621Y-107537811D01*
X153866500Y-107564594D01*
X153866500Y-117202264D01*
X153847187Y-117269300D01*
X153766957Y-117396985D01*
X153706783Y-117568953D01*
X153686384Y-117750000D01*
X153706783Y-117931047D01*
X153766957Y-118103015D01*
X153863889Y-118257281D01*
X153992719Y-118386111D01*
X154146985Y-118483043D01*
X154318953Y-118543217D01*
X154325980Y-118544009D01*
X154325981Y-118544009D01*
X154492971Y-118562824D01*
X154500000Y-118563616D01*
X154507029Y-118562824D01*
X154674019Y-118544009D01*
X154674020Y-118544009D01*
X154681047Y-118543217D01*
X154853015Y-118483043D01*
X155007281Y-118386111D01*
X155136111Y-118257281D01*
X155233043Y-118103015D01*
X155293217Y-117931047D01*
X155313616Y-117750000D01*
X155293217Y-117568953D01*
X155233043Y-117396985D01*
X155152813Y-117269300D01*
X155133500Y-117202264D01*
X155133500Y-107328763D01*
X155134027Y-107317579D01*
X155135701Y-107310091D01*
X155133562Y-107242032D01*
X155133500Y-107238075D01*
X155133500Y-107210144D01*
X155132994Y-107206138D01*
X155132061Y-107194292D01*
X155130922Y-107158037D01*
X155130673Y-107150110D01*
X155125022Y-107130658D01*
X155121014Y-107111306D01*
X155119468Y-107099068D01*
X155119467Y-107099066D01*
X155118474Y-107091203D01*
X155102194Y-107050086D01*
X155098359Y-107038885D01*
X155086018Y-106996406D01*
X155081985Y-106989587D01*
X155081983Y-106989582D01*
X155075707Y-106978971D01*
X155067010Y-106961221D01*
X155059552Y-106942383D01*
X155033571Y-106906623D01*
X155027053Y-106896701D01*
X155008578Y-106865460D01*
X155008574Y-106865455D01*
X155004542Y-106858637D01*
X154990218Y-106844313D01*
X154977376Y-106829278D01*
X154965472Y-106812893D01*
X154931406Y-106784711D01*
X154922627Y-106776722D01*
X141145905Y-93000000D01*
X162886548Y-93000000D01*
X162906343Y-93377709D01*
X162965511Y-93751279D01*
X163063403Y-94116618D01*
X163198947Y-94469723D01*
X163200445Y-94472663D01*
X163363776Y-94793217D01*
X163370659Y-94806726D01*
X163576656Y-95123934D01*
X163814682Y-95417871D01*
X164082129Y-95685318D01*
X164376066Y-95923344D01*
X164378841Y-95925146D01*
X164690501Y-96127540D01*
X164693274Y-96129341D01*
X164696208Y-96130836D01*
X164696215Y-96130840D01*
X164927417Y-96248643D01*
X165030277Y-96301053D01*
X165383382Y-96436597D01*
X165748721Y-96534489D01*
X165947158Y-96565918D01*
X166119043Y-96593143D01*
X166119051Y-96593144D01*
X166122291Y-96593657D01*
X166500000Y-96613452D01*
X166877709Y-96593657D01*
X166880949Y-96593144D01*
X166880957Y-96593143D01*
X167052842Y-96565918D01*
X167251279Y-96534489D01*
X167616618Y-96436597D01*
X167969723Y-96301053D01*
X168072583Y-96248643D01*
X168303785Y-96130840D01*
X168303792Y-96130836D01*
X168306726Y-96129341D01*
X168309500Y-96127540D01*
X168621159Y-95925146D01*
X168623934Y-95923344D01*
X168917871Y-95685318D01*
X169185318Y-95417871D01*
X169423344Y-95123934D01*
X169629341Y-94806726D01*
X169636225Y-94793217D01*
X169799555Y-94472663D01*
X169801053Y-94469723D01*
X169936597Y-94116618D01*
X170034489Y-93751279D01*
X170093657Y-93377709D01*
X170113452Y-93000000D01*
X170093657Y-92622291D01*
X170034489Y-92248721D01*
X169936597Y-91883382D01*
X169924360Y-91851502D01*
X169850895Y-91660121D01*
X169801053Y-91530277D01*
X169793075Y-91514620D01*
X169630840Y-91196215D01*
X169630836Y-91196208D01*
X169629341Y-91193274D01*
X169625849Y-91187896D01*
X169462042Y-90935656D01*
X169423344Y-90876066D01*
X169185318Y-90582129D01*
X168917871Y-90314682D01*
X168623934Y-90076656D01*
X168306726Y-89870659D01*
X168303792Y-89869164D01*
X168303785Y-89869160D01*
X167972663Y-89700445D01*
X167969723Y-89698947D01*
X167616618Y-89563403D01*
X167251279Y-89465511D01*
X167052842Y-89434082D01*
X166880957Y-89406857D01*
X166880949Y-89406856D01*
X166877709Y-89406343D01*
X166500000Y-89386548D01*
X166122291Y-89406343D01*
X166119051Y-89406856D01*
X166119043Y-89406857D01*
X165947158Y-89434082D01*
X165748721Y-89465511D01*
X165383382Y-89563403D01*
X165030277Y-89698947D01*
X165027337Y-89700445D01*
X164696215Y-89869160D01*
X164696208Y-89869164D01*
X164693274Y-89870659D01*
X164376066Y-90076656D01*
X164082129Y-90314682D01*
X163814682Y-90582129D01*
X163576656Y-90876066D01*
X163537958Y-90935656D01*
X163374152Y-91187896D01*
X163370659Y-91193274D01*
X163369164Y-91196208D01*
X163369160Y-91196215D01*
X163206925Y-91514620D01*
X163198947Y-91530277D01*
X163149105Y-91660121D01*
X163075641Y-91851502D01*
X163063403Y-91883382D01*
X162965511Y-92248721D01*
X162906343Y-92622291D01*
X162886548Y-93000000D01*
X141145905Y-93000000D01*
X140003652Y-91857747D01*
X139996112Y-91849461D01*
X139992000Y-91842982D01*
X139942348Y-91796356D01*
X139939507Y-91793602D01*
X139919770Y-91773865D01*
X139916573Y-91771385D01*
X139907551Y-91763680D01*
X139881100Y-91738841D01*
X139875321Y-91733414D01*
X139868375Y-91729595D01*
X139868372Y-91729593D01*
X139857566Y-91723652D01*
X139841047Y-91712801D01*
X139840583Y-91712441D01*
X139825041Y-91700386D01*
X139817772Y-91697241D01*
X139817768Y-91697238D01*
X139784463Y-91682826D01*
X139773813Y-91677609D01*
X139735060Y-91656305D01*
X139715437Y-91651267D01*
X139696734Y-91644863D01*
X139685420Y-91639967D01*
X139685419Y-91639967D01*
X139678145Y-91636819D01*
X139670322Y-91635580D01*
X139670312Y-91635577D01*
X139634476Y-91629901D01*
X139622856Y-91627495D01*
X139587711Y-91618472D01*
X139587710Y-91618472D01*
X139580030Y-91616500D01*
X139559776Y-91616500D01*
X139540065Y-91614949D01*
X139527886Y-91613020D01*
X139520057Y-91611780D01*
X139512165Y-91612526D01*
X139476039Y-91615941D01*
X139464181Y-91616500D01*
X111547736Y-91616500D01*
X111480700Y-91597187D01*
X111359007Y-91520722D01*
X111353015Y-91516957D01*
X111181047Y-91456783D01*
X111174020Y-91455991D01*
X111174019Y-91455991D01*
X111007029Y-91437176D01*
X111000000Y-91436384D01*
X110992971Y-91437176D01*
X110825981Y-91455991D01*
X110825980Y-91455991D01*
X110818953Y-91456783D01*
X110646985Y-91516957D01*
X110492719Y-91613889D01*
X110363889Y-91742719D01*
X110360122Y-91748714D01*
X110330186Y-91796357D01*
X110266957Y-91896985D01*
X110206783Y-92068953D01*
X110205991Y-92075980D01*
X110205991Y-92075981D01*
X110192077Y-92199474D01*
X110186384Y-92250000D01*
X104878474Y-92250000D01*
X104832908Y-92097798D01*
X104832907Y-92097795D01*
X104831857Y-92094288D01*
X104693050Y-91772499D01*
X104690306Y-91767745D01*
X104519657Y-91472173D01*
X104519656Y-91472172D01*
X104517825Y-91469000D01*
X104308551Y-91187896D01*
X104068057Y-90932988D01*
X104065249Y-90930632D01*
X104065245Y-90930628D01*
X103802412Y-90710084D01*
X103802411Y-90710083D01*
X103799597Y-90707722D01*
X103506800Y-90515147D01*
X103193626Y-90357865D01*
X103074982Y-90314682D01*
X102991058Y-90284136D01*
X102954858Y-90263655D01*
X102726510Y-90078742D01*
X102723934Y-90076656D01*
X102406726Y-89870659D01*
X102403792Y-89869164D01*
X102403785Y-89869160D01*
X102072663Y-89700445D01*
X102069723Y-89698947D01*
X101716618Y-89563403D01*
X101351279Y-89465511D01*
X101152842Y-89434082D01*
X100980957Y-89406857D01*
X100980949Y-89406856D01*
X100977709Y-89406343D01*
X100600000Y-89386548D01*
X100222291Y-89406343D01*
X100219051Y-89406856D01*
X100219043Y-89406857D01*
X100047158Y-89434082D01*
X99848721Y-89465511D01*
X99483382Y-89563403D01*
X99130277Y-89698947D01*
X99127337Y-89700445D01*
X98796215Y-89869160D01*
X98796208Y-89869164D01*
X98793274Y-89870659D01*
X98476066Y-90076656D01*
X98182129Y-90314682D01*
X97914682Y-90582129D01*
X97676656Y-90876066D01*
X97637958Y-90935656D01*
X97474152Y-91187896D01*
X97470659Y-91193274D01*
X97469164Y-91196208D01*
X97469160Y-91196215D01*
X97306925Y-91514620D01*
X97298947Y-91530277D01*
X97249105Y-91660121D01*
X97175641Y-91851502D01*
X97163403Y-91883382D01*
X97065511Y-92248721D01*
X97006343Y-92622291D01*
X96986548Y-93000000D01*
X95138737Y-93000000D01*
X95138505Y-92250319D01*
X95138635Y-92244565D01*
X95139422Y-92227230D01*
X95139626Y-92222738D01*
X95139088Y-92217228D01*
X95138491Y-92205024D01*
X95138491Y-92203968D01*
X95138489Y-92199474D01*
X95135369Y-92177819D01*
X95134679Y-92172114D01*
X95132624Y-92151089D01*
X94402233Y-84677172D01*
X94402058Y-84675215D01*
X94003593Y-79794009D01*
X93734694Y-76500000D01*
X153686384Y-76500000D01*
X153706783Y-76681047D01*
X153766957Y-76853015D01*
X153847739Y-76981578D01*
X153866500Y-77039770D01*
X153866500Y-77039856D01*
X153866995Y-77043778D01*
X153866996Y-77043788D01*
X153867005Y-77043856D01*
X153867938Y-77055693D01*
X153869327Y-77099889D01*
X153874978Y-77119339D01*
X153878987Y-77138700D01*
X153881526Y-77158797D01*
X153884445Y-77166168D01*
X153884445Y-77166170D01*
X153897804Y-77199912D01*
X153901649Y-77211142D01*
X153913982Y-77253593D01*
X153918015Y-77260412D01*
X153918017Y-77260417D01*
X153924293Y-77271028D01*
X153932988Y-77288776D01*
X153940448Y-77307617D01*
X153945110Y-77314033D01*
X153945110Y-77314034D01*
X153966436Y-77343387D01*
X153972952Y-77353307D01*
X153995458Y-77391362D01*
X154009779Y-77405683D01*
X154022619Y-77420716D01*
X154034528Y-77437107D01*
X154040634Y-77442158D01*
X154068605Y-77465298D01*
X154077384Y-77473288D01*
X155665656Y-79061561D01*
X155699682Y-79123873D01*
X155701769Y-79136548D01*
X155706783Y-79181047D01*
X155766957Y-79353015D01*
X155863889Y-79507281D01*
X155992719Y-79636111D01*
X156146985Y-79733043D01*
X156318953Y-79793217D01*
X156325980Y-79794009D01*
X156325981Y-79794009D01*
X156492971Y-79812824D01*
X156500000Y-79813616D01*
X156507029Y-79812824D01*
X156674019Y-79794009D01*
X156674020Y-79794009D01*
X156681047Y-79793217D01*
X156853015Y-79733043D01*
X157007281Y-79636111D01*
X157136111Y-79507281D01*
X157233043Y-79353015D01*
X157293217Y-79181047D01*
X157313616Y-79000000D01*
X157293217Y-78818953D01*
X157233043Y-78646985D01*
X157136111Y-78492719D01*
X157007281Y-78363889D01*
X156853015Y-78266957D01*
X156681047Y-78206783D01*
X156674022Y-78205992D01*
X156674020Y-78205991D01*
X156636547Y-78201769D01*
X156571094Y-78174265D01*
X156561560Y-78165656D01*
X155293140Y-76897236D01*
X155259114Y-76834924D01*
X155263306Y-76766528D01*
X155293217Y-76681047D01*
X155313616Y-76500000D01*
X155293217Y-76318953D01*
X155233043Y-76146985D01*
X155136111Y-75992719D01*
X155007281Y-75863889D01*
X154853015Y-75766957D01*
X154681047Y-75706783D01*
X154674020Y-75705991D01*
X154674019Y-75705991D01*
X154507029Y-75687176D01*
X154500000Y-75686384D01*
X154492971Y-75687176D01*
X154325981Y-75705991D01*
X154325980Y-75705991D01*
X154318953Y-75706783D01*
X154146985Y-75766957D01*
X153992719Y-75863889D01*
X153863889Y-75992719D01*
X153766957Y-76146985D01*
X153706783Y-76318953D01*
X153686384Y-76500000D01*
X93734694Y-76500000D01*
X91009650Y-43118213D01*
X91024043Y-43048690D01*
X91073738Y-42997986D01*
X91117413Y-42983227D01*
X132982389Y-37002516D01*
X133017621Y-37002459D01*
X175882149Y-42983556D01*
G37*
%TD.AperFunction*%
%TA.AperFunction,Conductor*%
G36*
X134745999Y-140368354D02*
G01*
X134802835Y-140410901D01*
X134808642Y-140419355D01*
X134863889Y-140507281D01*
X134992719Y-140636111D01*
X134998714Y-140639878D01*
X135140993Y-140729278D01*
X135146985Y-140733043D01*
X135252099Y-140769824D01*
X135282115Y-140780327D01*
X135339807Y-140821705D01*
X135365969Y-140887705D01*
X135366500Y-140899256D01*
X135366500Y-146327764D01*
X135347187Y-146394800D01*
X135266957Y-146522485D01*
X135206783Y-146694453D01*
X135205991Y-146701478D01*
X135205991Y-146701480D01*
X135200005Y-146754608D01*
X135172501Y-146820061D01*
X135113977Y-146860254D01*
X135074797Y-146866500D01*
X128447877Y-146866500D01*
X128379756Y-146846498D01*
X128333263Y-146792842D01*
X128323159Y-146722568D01*
X128352653Y-146657988D01*
X128358782Y-146651405D01*
X134612872Y-140397315D01*
X134675184Y-140363289D01*
X134745999Y-140368354D01*
G37*
%TD.AperFunction*%
%TD*%
%TA.AperFunction,NonConductor*%
G36*
X136183226Y-97625670D02*
G01*
X136205483Y-97651357D01*
X136294278Y-97787268D01*
X136297803Y-97791097D01*
X136297806Y-97791101D01*
X136362131Y-97860975D01*
X136446760Y-97952906D01*
X136624424Y-98091189D01*
X136629005Y-98093668D01*
X136670469Y-98116107D01*
X136720860Y-98166120D01*
X136736500Y-98226921D01*
X136736500Y-121536405D01*
X136716498Y-121604526D01*
X136662842Y-121651019D01*
X136592568Y-121661123D01*
X136527988Y-121631629D01*
X136521405Y-121625500D01*
X135500405Y-120604500D01*
X135466379Y-120542188D01*
X135463500Y-120515405D01*
X135463500Y-98226921D01*
X135483502Y-98158800D01*
X135529531Y-98116107D01*
X135570995Y-98093668D01*
X135575576Y-98091189D01*
X135753240Y-97952906D01*
X135837869Y-97860975D01*
X135902194Y-97791101D01*
X135902197Y-97791097D01*
X135905722Y-97787268D01*
X135994517Y-97651357D01*
X136048521Y-97605268D01*
X136118868Y-97595693D01*
X136183226Y-97625670D01*
G37*
%TD.AperFunction*%
M02*
