%TF.GenerationSoftware,KiCad,Pcbnew,(5.99.0-9526-g5c17ff0595)*%
%TF.CreationDate,2021-06-06T14:51:48-05:00*%
%TF.ProjectId,BernieMittensNoChair,4265726e-6965-44d6-9974-74656e734e6f,rev?*%
%TF.SameCoordinates,Original*%
%TF.FileFunction,Profile,NP*%
%FSLAX46Y46*%
G04 Gerber Fmt 4.6, Leading zero omitted, Abs format (unit mm)*
G04 Created by KiCad (PCBNEW (5.99.0-9526-g5c17ff0595)) date 2021-06-06 14:51:48*
%MOMM*%
%LPD*%
G01*
G04 APERTURE LIST*
%TA.AperFunction,Profile*%
%ADD10C,0.100000*%
%TD*%
G04 APERTURE END LIST*
D10*
X145739602Y-125872500D02*
X145732802Y-126016400D01*
X141012300Y-96203500D02*
X141079000Y-96223500D01*
X151878392Y-116571200D02*
X151950392Y-116965300D01*
X150125400Y-125861000D02*
X150114900Y-125802400D01*
X156696900Y-123148900D02*
X156765600Y-123118800D01*
X157339400Y-75638000D02*
X157318300Y-75626200D01*
X165461500Y-85348200D02*
X165408900Y-85125400D01*
X156619700Y-123193500D02*
X156696900Y-123148900D01*
X156331503Y-123354800D02*
X156331503Y-123354800D01*
X145834802Y-128077500D02*
X145814502Y-128172200D01*
X152834900Y-68633900D02*
X152638800Y-68627600D01*
X140620500Y-98072600D02*
X140605200Y-98129500D01*
X154428200Y-113880500D02*
X154445300Y-113854500D01*
X158299600Y-122511600D02*
X158357700Y-122475300D01*
X149905592Y-118057700D02*
X149917592Y-117697700D01*
X140606800Y-98362200D02*
X140622800Y-98424100D01*
X139728900Y-85456400D02*
X139679700Y-85630700D01*
X150477602Y-128066300D02*
X150469602Y-128010400D01*
X152053692Y-119585100D02*
X152076992Y-119704700D01*
X159118000Y-77942100D02*
X159036000Y-77796400D01*
X152030592Y-117556900D02*
X152040592Y-117718100D01*
X161895100Y-79245600D02*
X161599800Y-79188700D01*
X144104800Y-118962100D02*
X144073500Y-119060700D01*
X140253100Y-83291300D02*
X140220800Y-83431900D01*
X150658602Y-128608000D02*
X150659402Y-128582900D01*
X152036592Y-119463100D02*
X152053692Y-119585100D01*
X146143700Y-78572700D02*
X146131700Y-78717600D01*
X144397200Y-79817100D02*
X144129200Y-79849700D01*
X146848402Y-130851500D02*
X146946902Y-130858800D01*
X150279892Y-115385200D02*
X150338792Y-115049500D01*
X141527500Y-99933900D02*
X141605700Y-100019200D01*
X142085000Y-106543700D02*
X142273000Y-106637700D01*
X141253100Y-80945400D02*
X141200000Y-81000000D01*
X145452802Y-130347900D02*
X145454602Y-130404000D01*
X140427500Y-103219200D02*
X140406000Y-103259300D01*
X139451600Y-104374600D02*
X139562400Y-104442200D01*
X159509300Y-78554200D02*
X159429400Y-78417800D01*
X148108302Y-130794200D02*
X148613402Y-130741300D01*
X141485900Y-96358700D02*
X141475100Y-96404300D01*
X146303602Y-122828700D02*
X146283502Y-122857700D01*
X147670500Y-74380300D02*
X147639600Y-74432100D01*
X158714900Y-77186000D02*
X158690300Y-77067900D01*
X162152993Y-100185254D02*
X162250993Y-100093054D01*
X141299900Y-100879500D02*
X141216700Y-101029400D01*
X163646600Y-80492500D02*
X163616700Y-80428800D01*
X163235893Y-97134454D02*
X163125593Y-96883054D01*
X161794193Y-102295054D02*
X161799493Y-102194054D01*
X154171000Y-68897200D02*
X153914100Y-68793000D01*
X141554100Y-100483400D02*
X141469100Y-100605300D01*
X151044302Y-130082500D02*
X151050102Y-130047400D01*
X145846402Y-127972200D02*
X145834802Y-128077500D01*
X150656102Y-128552100D02*
X150638502Y-128477200D01*
X151540100Y-68687800D02*
X151187100Y-68722200D01*
X140190900Y-83691400D02*
X140188100Y-83829500D01*
X146443800Y-77555700D02*
X146351000Y-77806400D01*
X166333900Y-89566200D02*
X166185200Y-88890600D01*
X157376000Y-74618700D02*
X157364500Y-74578100D01*
X147373500Y-72505200D02*
X147363700Y-72686200D01*
X145575102Y-129875100D02*
X145571102Y-129899400D01*
X163847093Y-98492154D02*
X163833593Y-98431554D01*
X140437500Y-95764000D02*
X140541300Y-95867300D01*
X145888802Y-130728200D02*
X145982302Y-130743000D01*
X150546292Y-113959500D02*
X150559092Y-113931200D01*
X140163300Y-84193800D02*
X140140700Y-84308300D01*
X156275200Y-119017000D02*
X156269700Y-118976700D01*
X165734800Y-86644800D02*
X165560500Y-85798700D01*
X148196000Y-76590500D02*
X148170700Y-76657000D01*
X163819993Y-98696454D02*
X163836093Y-98667954D01*
X163544800Y-80205200D02*
X163528000Y-80124500D01*
X155824500Y-118157400D02*
X155694400Y-117925000D01*
X156306500Y-119384500D02*
X156288200Y-119312800D01*
X149686400Y-123994300D02*
X149676600Y-123948400D01*
X156927700Y-120242900D02*
X156872100Y-120191700D01*
X158557200Y-76363500D02*
X158507600Y-76181200D01*
X156809200Y-71086400D02*
X156650300Y-70849800D01*
X139960000Y-103564900D02*
X139773000Y-103642100D01*
X140350600Y-103332000D02*
X140315200Y-103365800D01*
X150941102Y-129454800D02*
X150885202Y-129284900D01*
X141485600Y-96331900D02*
X141485900Y-96358700D01*
X139655200Y-103690900D02*
X139556900Y-103735300D01*
X152040592Y-117718100D02*
X152047392Y-117887800D01*
X157331900Y-73320800D02*
X157339400Y-73168400D01*
X156331400Y-123354600D02*
X156341700Y-123358400D01*
X158392100Y-122447200D02*
X158413100Y-122416100D01*
X142721600Y-80160200D02*
X142519000Y-80231400D01*
X138356100Y-92851100D02*
X138477200Y-93084500D01*
X137875500Y-91297600D02*
X137878500Y-91439700D01*
X147516500Y-75030500D02*
X147558600Y-75161100D01*
X152260300Y-68632900D02*
X152076800Y-68642500D01*
X157320100Y-73476400D02*
X157331900Y-73320800D01*
X149846492Y-120117300D02*
X149874992Y-119941800D01*
X158357700Y-122475300D02*
X158392100Y-122447200D01*
X155694400Y-117925000D02*
X155548500Y-117654600D01*
X150084092Y-116283400D02*
X150111392Y-116177100D01*
X143622100Y-79931400D02*
X143382900Y-79980300D01*
X139325800Y-103895000D02*
X139300400Y-103935900D01*
X157350000Y-74546500D02*
X157331900Y-74525000D01*
X139370400Y-87208500D02*
X139331500Y-87335600D01*
X145741802Y-128365000D02*
X145686702Y-128480100D01*
X166073200Y-93438300D02*
X166204300Y-93128900D01*
X152323302Y-122690800D02*
X152359402Y-122775300D01*
X140857700Y-97654000D02*
X140742300Y-97835700D01*
X152297802Y-122628700D02*
X152323302Y-122690800D01*
X145488202Y-130118500D02*
X145466902Y-130218500D01*
X141355000Y-96251900D02*
X141414200Y-96270700D01*
X146634800Y-77100900D02*
X146594700Y-77179900D01*
X145550802Y-129720400D02*
X145570602Y-129806900D01*
X144550800Y-115828600D02*
X144539300Y-115970500D01*
X163027393Y-96599754D02*
X163013293Y-96526354D01*
X150599192Y-113892100D02*
X150631792Y-113888100D01*
X163342493Y-97336554D02*
X163235893Y-97134454D01*
X163812493Y-98364854D02*
X163783893Y-98291354D01*
X150708992Y-113903400D02*
X150812292Y-113945000D01*
X163684393Y-98858654D02*
X163766393Y-98767954D01*
X152037392Y-118616800D02*
X152027092Y-118836600D01*
X157363500Y-75213600D02*
X157381800Y-75065000D01*
X154686200Y-69131500D02*
X154428200Y-69009100D01*
X147558600Y-75161100D02*
X147618500Y-75309300D01*
X156123100Y-118630500D02*
X156038600Y-118509600D01*
X161756593Y-102565054D02*
X161772893Y-102480554D01*
X161749393Y-100964654D02*
X161773193Y-100827554D01*
X150224202Y-127138300D02*
X150181802Y-126989900D01*
X151696392Y-115656900D02*
X151790892Y-116122700D01*
X151445792Y-114534900D02*
X151515692Y-114825400D01*
X149548700Y-122626500D02*
X149594600Y-122325000D01*
X147355900Y-72870100D02*
X147355600Y-72967200D01*
X146284300Y-77996400D02*
X146231900Y-78158800D01*
X163515200Y-80042800D02*
X163506700Y-79961300D01*
X149919192Y-119567100D02*
X149926192Y-119420700D01*
X157500300Y-120451400D02*
X157449900Y-120432600D01*
X166028100Y-88120300D02*
X165734800Y-86644800D01*
X146123602Y-123838700D02*
X146080502Y-123948500D01*
X140556200Y-82433000D02*
X140449200Y-82711500D01*
X144250200Y-118161200D02*
X144188600Y-118545800D01*
X157294600Y-75598200D02*
X157290300Y-75581100D01*
X163138193Y-96236054D02*
X163195793Y-96203454D01*
X150278102Y-127310700D02*
X150224202Y-127138300D01*
X145338402Y-121316800D02*
X145446502Y-121376700D01*
X161685693Y-102788354D02*
X161712993Y-102718954D01*
X161915593Y-100477354D02*
X161984993Y-100375854D01*
X163435993Y-99097354D02*
X163574093Y-98968454D01*
X150810902Y-130326200D02*
X150862802Y-130301400D01*
X144963700Y-79767700D02*
X144675400Y-79789700D01*
X146080502Y-123948500D02*
X146042102Y-124059800D01*
X149751000Y-69157500D02*
X149574000Y-69255900D01*
X149518900Y-123636000D02*
X149502400Y-123589900D01*
X161785393Y-102390554D02*
X161794193Y-102295054D01*
X140300000Y-83130900D02*
X140253100Y-83291300D01*
X156272400Y-119203300D02*
X156271400Y-119160700D01*
X150531702Y-128225700D02*
X150499402Y-128141500D01*
X141150600Y-81061500D02*
X141102700Y-81133200D01*
X157317500Y-120403000D02*
X157229000Y-120383700D01*
X147363700Y-72686200D02*
X147355900Y-72870100D01*
X157564049Y-120489005D02*
X157500300Y-120451400D01*
X158690300Y-77067900D02*
X158669800Y-76929300D01*
X151999492Y-117267100D02*
X152016792Y-117406000D01*
X139899600Y-104637800D02*
X139990300Y-104703500D01*
X166399800Y-89846000D02*
X166333900Y-89566200D01*
X149594600Y-122325000D02*
X149647500Y-122016100D01*
X146042102Y-124059800D02*
X146008602Y-124173600D01*
X163741593Y-95987854D02*
X163927293Y-95898854D01*
X159429400Y-78417800D02*
X159347900Y-78289000D01*
X139556900Y-103735300D02*
X139476400Y-103776900D01*
X158435200Y-122333900D02*
X158437700Y-122284700D01*
X152020792Y-119189100D02*
X152025792Y-119333000D01*
X158435200Y-122231300D02*
X158428700Y-122174400D01*
X151383092Y-114349100D02*
X151399392Y-114377700D01*
X158124300Y-122603100D02*
X158299600Y-122511600D01*
X150631792Y-113888100D02*
X150666392Y-113892100D01*
X140162800Y-104851400D02*
X140245500Y-104934600D01*
X143935400Y-119691600D02*
X143886500Y-119930000D01*
X157403300Y-75658100D02*
X157339400Y-75638000D01*
X155609603Y-123634300D02*
X155932003Y-123504200D01*
X152049892Y-118245700D02*
X152037392Y-118616800D01*
X155994000Y-70001800D02*
X155861400Y-69889500D01*
X166538700Y-90342100D02*
X166504400Y-90242800D01*
X146131700Y-78717600D02*
X146125900Y-78881500D01*
X163946900Y-81203400D02*
X163827000Y-80904100D01*
X146313602Y-122677300D02*
X146318602Y-122742700D01*
X166457500Y-90074600D02*
X166399800Y-89846000D01*
X145955402Y-124408200D02*
X145935602Y-124530100D01*
X150820802Y-129113100D02*
X150749602Y-128944400D01*
X146257402Y-123369100D02*
X146258702Y-123417000D01*
X158965100Y-77657500D02*
X158902900Y-77532700D01*
X165210100Y-84398400D02*
X165121800Y-84117900D01*
X143297800Y-107106800D02*
X145345610Y-107876476D01*
X158740500Y-77271200D02*
X158714900Y-77186000D01*
X162250993Y-100093054D02*
X162356993Y-100000554D01*
X152180702Y-121799700D02*
X152190202Y-121969400D01*
X163430500Y-79480800D02*
X163388100Y-79468700D01*
X150998202Y-130188800D02*
X151017702Y-130156000D01*
X149926192Y-119420700D02*
X149929192Y-119264000D01*
X139338100Y-104284800D02*
X139369100Y-104313900D01*
X141054600Y-81217900D02*
X141004400Y-81318700D01*
X140721300Y-96028500D02*
X140800500Y-96088900D01*
X150680102Y-130374800D02*
X150810902Y-130326200D01*
X166624200Y-90607800D02*
X166598900Y-90510000D01*
X163747293Y-98210954D02*
X163703193Y-98122654D01*
X156333600Y-119470300D02*
X156306500Y-119384500D01*
X150519692Y-114047800D02*
X150546292Y-113959500D01*
X163637793Y-97979754D02*
X163554593Y-97783754D01*
X157384800Y-74667100D02*
X157376000Y-74618700D01*
X156543000Y-123247900D02*
X156619700Y-123193500D01*
X149929192Y-119264000D02*
X149928392Y-119097500D01*
X140380600Y-103296600D02*
X140350600Y-103332000D01*
X152194502Y-122112800D02*
X152197502Y-122178400D01*
X166646000Y-90714900D02*
X166624200Y-90607800D01*
X145982302Y-130743000D02*
X146201402Y-130766800D01*
X139284900Y-103979500D02*
X139268100Y-104063000D01*
X147681600Y-74288800D02*
X147687100Y-74310600D01*
X163091493Y-96271654D02*
X163138193Y-96236054D01*
X138156800Y-92431200D02*
X138249300Y-92633800D01*
X150450292Y-114394200D02*
X150488692Y-114188400D01*
X147506300Y-74672600D02*
X147494500Y-74716900D01*
X141004400Y-81318700D02*
X140890600Y-81580900D01*
X146318602Y-122742700D02*
X146315102Y-122791800D01*
X147682100Y-74288800D02*
X147682100Y-74288800D01*
X147368900Y-73179800D02*
X147384700Y-73298600D01*
X145500202Y-130542900D02*
X145530002Y-130580000D01*
X152386802Y-122854800D02*
X152406602Y-122934800D01*
X163014293Y-96404954D02*
X163029593Y-96354854D01*
X141355000Y-99690000D02*
X141440300Y-99819100D01*
X141443500Y-106156700D02*
X141590200Y-106257200D01*
X139635600Y-85820200D02*
X139592700Y-86040300D01*
X144129200Y-79849700D02*
X143870700Y-79887800D01*
X139571900Y-94797100D02*
X139723800Y-94975600D01*
X141055200Y-101348800D02*
X140978300Y-101516000D01*
X147971400Y-70894500D02*
X147851500Y-71126700D01*
X145900502Y-124877500D02*
X145886702Y-124972300D01*
X157342700Y-73018800D02*
X157338900Y-72727100D01*
X155386300Y-117345200D02*
X155012300Y-116607500D01*
X146169902Y-123008200D02*
X146161602Y-123059800D01*
X140752900Y-98701600D02*
X140857700Y-98865000D01*
X150115602Y-126626400D02*
X150110602Y-126511100D01*
X154515900Y-114925400D02*
X154464500Y-114665200D01*
X163502700Y-79881600D02*
X163496700Y-79743700D01*
X156497500Y-119786400D02*
X156371400Y-119572800D01*
X151399392Y-114377700D02*
X151418892Y-114437100D01*
X152150602Y-121466000D02*
X152166902Y-121624700D01*
X141384100Y-100737600D02*
X141299900Y-100879500D01*
X148005800Y-76873000D02*
X147964900Y-76890100D01*
X157297800Y-72167800D02*
X157265500Y-71896600D01*
X147851500Y-71126700D02*
X147744500Y-71361600D01*
X148037100Y-70779700D02*
X147971400Y-70894500D01*
X164931300Y-83586700D02*
X164822800Y-83325200D01*
X148068700Y-76830400D02*
X148039900Y-76853200D01*
X161799493Y-102194054D02*
X161799293Y-101974454D01*
X137920600Y-91737800D02*
X137960000Y-91896700D01*
X165975600Y-93658900D02*
X166073200Y-93438300D01*
X163029593Y-96354854D02*
X163055393Y-96310754D01*
X140596200Y-98186400D02*
X140593400Y-98243800D01*
X163722500Y-80655700D02*
X163646600Y-80492500D01*
X157113200Y-120346600D02*
X157050500Y-120319600D01*
X161736493Y-102644454D02*
X161756593Y-102565054D01*
X163827000Y-80904100D02*
X163722500Y-80655700D01*
X141282100Y-99561400D02*
X141355000Y-99690000D01*
X158669800Y-76929300D02*
X158643700Y-76762100D01*
X137883800Y-91158000D02*
X137875500Y-91297600D01*
X146188202Y-122960800D02*
X146169902Y-123008200D01*
X146247902Y-123328300D02*
X146257402Y-123369100D01*
X146231900Y-78158800D02*
X146192100Y-78302700D01*
X162856193Y-99594954D02*
X163270293Y-99244754D01*
X150141300Y-68976600D02*
X149939700Y-69064200D01*
X154464500Y-114665200D02*
X154426400Y-114450600D01*
X140515500Y-102869700D02*
X140484700Y-103022900D01*
X140273900Y-103398600D02*
X140226500Y-103431000D01*
X139033200Y-94054100D02*
X139163800Y-94253400D01*
X139269900Y-104166700D02*
X139278900Y-104197600D01*
X141475600Y-96314300D02*
X141485600Y-96331900D01*
X145494902Y-128976700D02*
X145465302Y-129122800D01*
X145886702Y-124972300D02*
X145849602Y-125168300D01*
X151896100Y-68655500D02*
X151540100Y-68687800D01*
X146283502Y-122857700D02*
X146255402Y-122882800D01*
X154548300Y-110647700D02*
X154550800Y-110028800D01*
X146161602Y-123059800D02*
X146163402Y-123115000D01*
X142474600Y-106732300D02*
X142691200Y-106828500D01*
X157331900Y-74525000D02*
X157185800Y-74308100D01*
X161619493Y-102912754D02*
X161654293Y-102852754D01*
X147359600Y-73069900D02*
X147368900Y-73179800D01*
X151278092Y-114242100D02*
X151356492Y-114316500D01*
X163554593Y-97783754D02*
X163428993Y-97510254D01*
X157303600Y-75613200D02*
X157294600Y-75598200D01*
X140890600Y-81580900D02*
X140746000Y-81944400D01*
X150571892Y-113911700D02*
X150585192Y-113899100D01*
X157117300Y-71607200D02*
X156965100Y-71338000D01*
X149874992Y-119941800D02*
X149893592Y-119827800D01*
X159347900Y-78289000D02*
X159274700Y-78184200D01*
X139439300Y-86933000D02*
X139406500Y-87074100D01*
X150609402Y-128393200D02*
X150571102Y-128309400D01*
X158428700Y-122174400D02*
X158406200Y-122054100D01*
X163589400Y-80358600D02*
X163565600Y-80283900D01*
X141039900Y-105826500D02*
X141169800Y-105942300D01*
X145778402Y-126699700D02*
X145813502Y-126902300D01*
X161809293Y-100701454D02*
X161856893Y-100585354D01*
X145807002Y-125378600D02*
X145767402Y-125611000D01*
X151187100Y-68722200D02*
X150831200Y-68750800D01*
X150930892Y-114006200D02*
X151054992Y-114080400D01*
X147485900Y-74864100D02*
X147491900Y-74916000D01*
X140109200Y-84428100D02*
X140067000Y-84559000D01*
X145805502Y-130710900D02*
X145888802Y-130728200D01*
X148117100Y-76218300D02*
X148163200Y-76301500D01*
X146089202Y-121821900D02*
X146108302Y-121865000D01*
X142691200Y-106828500D02*
X142924300Y-106927500D01*
X141424000Y-96544700D02*
X141340500Y-96735200D01*
X140460600Y-103129200D02*
X140445300Y-103176000D01*
X146125900Y-78881500D02*
X146124400Y-79073600D01*
X141111900Y-97198000D02*
X140983800Y-97435600D01*
X154401600Y-114276100D02*
X154389600Y-114137000D01*
X147859600Y-76917900D02*
X147714700Y-76940200D01*
X146315102Y-122791800D02*
X146303602Y-122828700D01*
X140913100Y-105703700D02*
X141039900Y-105826500D01*
X149821502Y-130569800D02*
X150020502Y-130532000D01*
X145580802Y-121456200D02*
X145750802Y-121561500D01*
X150508602Y-130423700D02*
X150680102Y-130374800D01*
X146594700Y-77179900D02*
X146528000Y-77339100D01*
X158406200Y-122054100D02*
X158375100Y-121931500D01*
X147536400Y-73895000D02*
X147602300Y-74082500D01*
X145541502Y-128821200D02*
X145494902Y-128976700D01*
X139294900Y-94440700D02*
X139430000Y-94620400D01*
X153682900Y-68741000D02*
X153460100Y-68700000D01*
X164340200Y-82215200D02*
X164197300Y-81858700D01*
X163485200Y-79624100D02*
X163469400Y-79535700D01*
X161183493Y-104475454D02*
X161225593Y-104204954D01*
X157668123Y-120581148D02*
X157564049Y-120489005D01*
X148836000Y-69812600D02*
X148711600Y-69934100D01*
X145478902Y-129510600D02*
X145495902Y-129568800D01*
X156173900Y-118726500D02*
X156123100Y-118630500D01*
X158902900Y-77532700D02*
X158844000Y-77425900D01*
X147687100Y-74310600D02*
X147686500Y-74333100D01*
X166185200Y-88890600D02*
X166028100Y-88120300D01*
X152076800Y-68642500D02*
X151896100Y-68655500D01*
X158249000Y-121483800D02*
X157668123Y-120581148D01*
X154566100Y-109526400D02*
X154629790Y-107717724D01*
X138025500Y-90593700D02*
X137974300Y-90738800D01*
X156239900Y-118873600D02*
X156212300Y-118806700D01*
X149676600Y-123948400D02*
X149673100Y-123900800D01*
X157392300Y-74918800D02*
X157393600Y-74783400D01*
X140703000Y-97897400D02*
X140669400Y-97957000D01*
X163506700Y-79961300D02*
X163502700Y-79881600D01*
X161738093Y-101115054D02*
X161749393Y-100964654D01*
X139278900Y-104197600D02*
X139293200Y-104227200D01*
X156407400Y-123337100D02*
X156471300Y-123299500D01*
X148212300Y-76533400D02*
X148196000Y-76590500D01*
X163195793Y-96203454D02*
X163264493Y-96172554D01*
X156371400Y-119572800D02*
X156333600Y-119470300D01*
X157366800Y-122931500D02*
X157631500Y-122824200D01*
X146192100Y-78302700D02*
X146163300Y-78437600D01*
X145453002Y-129325400D02*
X145457302Y-129389000D01*
X155597900Y-69684300D02*
X155466600Y-69590600D01*
X161856893Y-100585354D02*
X161915593Y-100477354D01*
X140622800Y-98424100D02*
X140645600Y-98488500D01*
X145466102Y-129450700D02*
X145478902Y-129510600D01*
X150906702Y-130275300D02*
X150943502Y-130248200D01*
X150559092Y-113931200D02*
X150571892Y-113911700D01*
X140535800Y-105283300D02*
X140662200Y-105432900D01*
X148170700Y-76657000D02*
X148133600Y-76739900D01*
X145477902Y-130501300D02*
X145500202Y-130542900D01*
X161054193Y-105740654D02*
X161087793Y-105455854D01*
X141414200Y-96270700D02*
X141439000Y-96283500D01*
X157256000Y-73963700D02*
X157282500Y-73797500D01*
X150454302Y-127922600D02*
X150412902Y-127761500D01*
X140874500Y-96137300D02*
X140944400Y-96175100D01*
X163460600Y-79507100D02*
X163451600Y-79491000D01*
X146201402Y-130766800D02*
X146588202Y-130806100D01*
X151950392Y-116965300D02*
X151999492Y-117267100D01*
X154428200Y-69009100D02*
X154171000Y-68897200D01*
X150077800Y-125715900D02*
X150050700Y-125683300D01*
X156341700Y-123358400D02*
X156358500Y-123356400D01*
X138760900Y-93599900D02*
X138899800Y-93837800D01*
X163451600Y-79491000D02*
X163430500Y-79480800D01*
X166701400Y-91237500D02*
X166692400Y-91092600D01*
X150885202Y-129284900D02*
X150820802Y-129113100D01*
X163054000Y-79412100D02*
X162824400Y-79384700D01*
X141439000Y-96283500D02*
X141459800Y-96298300D01*
X154504900Y-113680500D02*
X154519200Y-113515000D01*
X166664800Y-90831400D02*
X166646000Y-90714900D01*
X156288200Y-119312800D02*
X156277400Y-119253200D01*
X157389700Y-120416600D02*
X157317500Y-120403000D01*
X147242202Y-130856100D02*
X147640302Y-130833600D01*
X145571102Y-129899400D02*
X145562602Y-129915700D01*
X140596700Y-98302300D02*
X140606800Y-98362200D01*
X141201400Y-99414300D02*
X141282100Y-99561400D01*
X148114300Y-76774300D02*
X148093000Y-76804400D01*
X163766393Y-98767954D02*
X163819993Y-98696454D01*
X139200200Y-87664200D02*
X139125500Y-87824600D01*
X147521600Y-74630900D02*
X147506300Y-74672600D01*
X141146400Y-96236300D02*
X141215900Y-96243100D01*
X149494300Y-123112300D02*
X149513900Y-122896800D01*
X150812292Y-113945000D02*
X150930892Y-114006200D01*
X139476400Y-103776900D02*
X139412200Y-103816500D01*
X159721900Y-78967100D02*
X159577800Y-78681600D01*
X141469100Y-100605300D02*
X141384100Y-100737600D01*
X145750802Y-121561500D02*
X145900502Y-121660500D01*
X139265100Y-104134400D02*
X139269900Y-104166700D01*
X140013100Y-84705700D02*
X139946500Y-84873900D01*
X154693900Y-115672700D02*
X154630200Y-115428000D01*
X157824500Y-75717000D02*
X157501800Y-75676100D01*
X139406500Y-87074100D02*
X139370400Y-87208500D01*
X138477200Y-93084500D02*
X138613300Y-93335900D01*
X147714700Y-76940200D02*
X147521200Y-76960000D01*
X166598900Y-90510000D02*
X166570500Y-90421600D01*
X141094300Y-99233800D02*
X141201400Y-99414300D01*
X146247402Y-122344900D02*
X146300002Y-122592000D01*
X149917592Y-117697700D02*
X149939892Y-117340500D01*
X147697500Y-75477000D02*
X147796200Y-75666000D01*
X149664800Y-123849900D02*
X149642500Y-123795200D01*
X158341500Y-121813200D02*
X158310400Y-121706700D01*
X155012300Y-116607500D02*
X154953900Y-116477300D01*
X145466902Y-130218500D02*
X145457102Y-130286000D01*
X141744900Y-106354700D02*
X141909600Y-106449700D01*
X150987002Y-129616800D02*
X150941102Y-129454800D01*
X146234202Y-123542400D02*
X146207602Y-123624600D01*
X156607300Y-119992400D02*
X156497500Y-119786400D01*
X149484300Y-123363800D02*
X149494300Y-123112300D01*
X149915392Y-118735800D02*
X149904592Y-118407700D01*
X152447300Y-68627600D02*
X152260300Y-68632900D01*
X150831200Y-68750800D02*
X150586300Y-68819500D01*
X140364700Y-82940800D02*
X140300000Y-83130900D01*
X152105712Y-119852552D02*
X152150602Y-121466000D01*
X158604400Y-76565300D02*
X158557200Y-76363500D01*
X140787500Y-105572800D02*
X140913100Y-105703700D01*
X147602300Y-74082500D02*
X147682100Y-74288800D01*
X154476600Y-113813800D02*
X154486900Y-113783300D01*
X151515692Y-114825400D02*
X151601892Y-115212200D01*
X156159900Y-70204200D02*
X155994000Y-70001800D01*
X140669400Y-97957000D02*
X140642100Y-98015200D01*
X140245500Y-104934600D02*
X140326500Y-105024800D01*
X155075000Y-69341200D02*
X154945100Y-69267300D01*
X140649400Y-102376600D02*
X140598200Y-102545300D01*
X139246300Y-87564200D02*
X139200200Y-87664200D01*
X141134900Y-101186400D02*
X141055200Y-101348800D01*
X139312700Y-104256000D02*
X139338100Y-104284800D01*
X150862802Y-130301400D02*
X150906702Y-130275300D01*
X146258702Y-123417000D02*
X146251202Y-123473900D01*
X149568800Y-123700700D02*
X149540700Y-123672100D01*
X165121800Y-84117900D02*
X165018800Y-83808800D01*
X156650300Y-70849800D02*
X156488600Y-70625600D01*
X142140800Y-80390900D02*
X141964300Y-80479100D01*
X159577800Y-78681600D02*
X159509300Y-78554200D01*
X150112402Y-126388200D02*
X150120202Y-126251100D01*
X161772893Y-102480554D02*
X161785393Y-102390554D01*
X161301500Y-79132800D02*
X160964500Y-79080700D01*
X150005400Y-125616600D02*
X149962000Y-125514800D01*
X146588202Y-130806100D02*
X146721002Y-130824400D01*
X150356600Y-68894800D02*
X150141300Y-68976600D01*
X150659402Y-128582900D02*
X150656102Y-128552100D01*
X140220800Y-83431900D02*
X140201000Y-83562000D01*
X148107200Y-70665800D02*
X148037100Y-70779700D01*
X138077800Y-92241900D02*
X138156800Y-92431200D01*
X145840402Y-127508700D02*
X145847702Y-127696400D01*
X150499402Y-128141500D02*
X150477602Y-128066300D01*
X164822800Y-83325200D02*
X164706700Y-83056700D01*
X139300400Y-103935900D02*
X139284900Y-103979500D01*
X154558800Y-109635200D02*
X154566100Y-109526400D01*
X151054992Y-114080400D02*
X151174292Y-114161100D01*
X141079000Y-96223500D02*
X141146400Y-96236300D01*
X146013302Y-121742200D02*
X146050902Y-121772800D01*
X150679702Y-128749900D02*
X150661602Y-128666700D01*
X139362600Y-103855600D02*
X139325800Y-103895000D01*
X154445300Y-113854500D02*
X154465300Y-113831600D01*
X140109700Y-103495900D02*
X139960000Y-103564900D01*
X150020502Y-130532000D02*
X150290802Y-130475100D01*
X146788002Y-130838500D02*
X146787702Y-130838500D01*
X147355600Y-72967200D02*
X147359600Y-73069900D01*
X140710500Y-98626900D02*
X140752900Y-98701600D01*
X166731200Y-91834400D02*
X166701400Y-91237500D01*
X163388100Y-79468700D02*
X163248800Y-79441100D01*
X145462902Y-130455200D02*
X145477902Y-130501300D01*
X153460100Y-68700000D02*
X153245000Y-68669200D01*
X139163800Y-94253400D02*
X139294900Y-94440700D01*
X139494700Y-86634700D02*
X139468900Y-86786300D01*
X147555000Y-71836700D02*
X147376000Y-72314100D01*
X147376000Y-72314100D02*
X147373500Y-72505200D01*
X139773000Y-103642100D02*
X139655200Y-103690900D01*
X166692400Y-91092600D02*
X166680100Y-90957300D01*
X148039900Y-76853200D02*
X148005800Y-76873000D01*
X139804600Y-104577100D02*
X139899600Y-104637800D01*
X147682100Y-74288800D02*
X147681600Y-74288800D01*
X163496700Y-79743700D02*
X163485200Y-79624100D01*
X140833900Y-101858900D02*
X140767400Y-102032200D01*
X147680700Y-74356200D02*
X147670500Y-74380300D01*
X162064193Y-100279054D02*
X162152993Y-100185254D01*
X142924300Y-106927500D02*
X143148200Y-107026600D01*
X150338792Y-115049500D02*
X150450292Y-114394200D01*
X157125100Y-123022000D02*
X157366800Y-122931500D01*
X147482800Y-73724600D02*
X147536400Y-73895000D01*
X156038600Y-118509600D02*
X155939100Y-118352000D01*
X145668402Y-130668500D02*
X145732302Y-130691100D01*
X150658102Y-128633600D02*
X150658602Y-128608000D01*
X157229000Y-120383700D02*
X157173400Y-120367700D01*
X165018800Y-83808800D02*
X164931300Y-83586700D01*
X149602602Y-130606900D02*
X149821502Y-130569800D01*
X163008793Y-96461654D02*
X163014293Y-96404954D01*
X137960000Y-91896700D02*
X138012400Y-92064200D01*
X145446502Y-121376700D02*
X145580802Y-121456200D01*
X152233102Y-122405600D02*
X152273902Y-122558700D01*
X139679700Y-85630700D02*
X139635600Y-85820200D01*
X152025792Y-119333000D02*
X152036592Y-119463100D01*
X139990300Y-104703500D02*
X140078100Y-104774400D01*
X153245000Y-68669200D02*
X153036700Y-68647500D01*
X145849602Y-125168300D02*
X145807002Y-125378600D01*
X161225593Y-104204954D02*
X161275793Y-103912154D01*
X150217192Y-115709600D02*
X150279892Y-115385200D01*
X140054200Y-95350200D02*
X140322700Y-95644200D01*
X140067000Y-84559000D02*
X140013100Y-84705700D01*
X146946902Y-130858800D02*
X147079502Y-130860100D01*
X140315200Y-103365800D02*
X140273900Y-103398600D01*
X150749602Y-128944400D02*
X150710002Y-128845900D01*
X145732302Y-130691100D02*
X145805502Y-130710900D01*
X151051902Y-130004300D02*
X151043902Y-129897000D01*
X163616700Y-80428800D02*
X163589400Y-80358600D01*
X149890500Y-125253100D02*
X149867200Y-125116700D01*
X154945100Y-69267300D02*
X154686200Y-69131500D01*
X145539102Y-129957100D02*
X145513202Y-130028000D01*
X157282500Y-73797500D02*
X157303800Y-73635300D01*
X145850202Y-127848100D02*
X145846402Y-127972200D01*
X163055393Y-96310754D02*
X163091493Y-96271654D01*
X146163300Y-78437600D02*
X146143700Y-78572700D01*
X160630100Y-79038000D02*
X160339600Y-79010500D01*
X151050102Y-130047400D02*
X151051902Y-130004300D01*
X149513900Y-122896800D02*
X149548700Y-122626500D01*
X146255402Y-122882800D02*
X146216802Y-122918700D01*
X149867200Y-125116700D02*
X149855400Y-124992400D01*
X155939100Y-118352000D02*
X155824500Y-118157400D01*
X150181802Y-126989900D02*
X150150402Y-126859200D01*
X152197502Y-122178400D02*
X152205302Y-122250600D01*
X154629790Y-107717724D02*
X156736960Y-107152652D01*
X145751602Y-125737900D02*
X145739602Y-125872500D01*
X152406602Y-122934800D02*
X152418802Y-123020000D01*
X149962000Y-125514800D02*
X149922900Y-125389700D01*
X141311800Y-80895000D02*
X141253100Y-80945400D01*
X159036000Y-77796400D02*
X158965100Y-77657500D01*
X161984993Y-100375854D02*
X162064193Y-100279054D01*
X163428993Y-97510254D02*
X163342493Y-97336554D01*
X150050700Y-125683300D02*
X150027900Y-125655000D01*
X145465302Y-129122800D02*
X145457002Y-129192300D01*
X149704699Y-124051342D02*
X149686400Y-123994300D01*
X158507600Y-76181200D02*
X158388000Y-75783400D01*
X140541300Y-95867300D02*
X140635300Y-95955100D01*
X156274900Y-119088000D02*
X156275200Y-119017000D01*
X158643700Y-76762100D02*
X158604400Y-76565300D01*
X143870700Y-79887800D02*
X143622100Y-79931400D01*
X163833593Y-98431554D02*
X163812493Y-98364854D01*
X149908392Y-119702700D02*
X149919192Y-119567100D01*
X147796200Y-75666000D02*
X147915300Y-75878100D01*
X164706700Y-83056700D02*
X164597400Y-82814100D01*
X141169800Y-105942300D02*
X141303900Y-106052100D01*
X154426400Y-114450600D02*
X154401600Y-114276100D01*
X143153300Y-80034700D02*
X142932900Y-80094800D01*
X161755893Y-101462054D02*
X161740093Y-101280254D01*
X145686702Y-128480100D02*
X145605502Y-128656000D01*
X157892700Y-122711200D02*
X158124300Y-122603100D01*
X139027400Y-88050000D02*
X138767500Y-88683200D01*
X150110602Y-126511100D02*
X150112402Y-126388200D01*
X148613402Y-130741300D02*
X149122602Y-130677900D01*
X154891500Y-116313200D02*
X154826000Y-116120600D01*
X156933100Y-123084400D02*
X157125100Y-123022000D01*
X146152902Y-121991900D02*
X146201002Y-122157800D01*
X161154393Y-104693554D02*
X161183493Y-104475454D01*
X140484700Y-103022900D02*
X140460600Y-103129200D01*
X150131502Y-126020200D02*
X150130702Y-125932700D01*
X161712993Y-102718954D02*
X161736493Y-102644454D01*
X150586300Y-68819500D02*
X150356600Y-68894800D01*
X150661602Y-128666700D02*
X150658102Y-128633600D01*
X161414693Y-103303254D02*
X161451293Y-103201454D01*
X148967100Y-69694000D02*
X148836000Y-69812600D01*
X158777100Y-77323900D02*
X158763800Y-77311100D01*
X147686500Y-74333100D02*
X147680700Y-74356200D01*
X141452100Y-80794200D02*
X141377400Y-80845600D01*
X156269700Y-118976700D02*
X156258700Y-118929500D01*
X157223900Y-74133700D02*
X157256000Y-73963700D01*
X141459800Y-96298300D02*
X141475600Y-96314300D01*
X149609400Y-123743300D02*
X149568800Y-123700700D01*
X154538500Y-112966300D02*
X154544000Y-112567200D01*
X145739102Y-126334500D02*
X145754102Y-126511000D01*
X145530002Y-130580000D02*
X145567602Y-130613100D01*
X154414200Y-113910100D02*
X154428200Y-113880500D01*
X146787702Y-130838500D02*
X146848402Y-130851500D01*
X165351200Y-84896500D02*
X165285800Y-84656100D01*
X163570393Y-96062554D02*
X163741593Y-95987854D01*
X160339600Y-79010500D02*
X159721900Y-78967100D01*
X155932003Y-123504200D02*
X156331503Y-123354800D01*
X156331503Y-123354800D02*
X156331400Y-123354600D01*
X149939700Y-69064200D02*
X149751000Y-69157500D01*
X146702500Y-77068100D02*
X146657800Y-77084900D01*
X151601892Y-115212200D02*
X151696392Y-115656900D01*
X141776400Y-100178400D02*
X141554100Y-100483400D01*
X139787000Y-85282500D02*
X139728900Y-85456400D01*
X161142393Y-104828954D02*
X161154393Y-104693554D01*
X144539300Y-115970500D02*
X144502200Y-116319400D01*
X142519000Y-80231400D02*
X142325500Y-80308400D01*
X139331500Y-87335600D02*
X139290200Y-87454400D01*
X141102700Y-81133200D02*
X141054600Y-81217900D01*
X146351000Y-77806400D02*
X146284300Y-77996400D01*
X139705000Y-104520700D02*
X139804600Y-104577100D01*
X140674700Y-98556000D02*
X140710500Y-98626900D01*
X155335700Y-69502400D02*
X155205100Y-69419400D01*
X148593100Y-70058100D02*
X148479300Y-70184200D01*
X137974300Y-90738800D02*
X137933500Y-90880000D01*
X157323100Y-72444100D02*
X157297800Y-72167800D01*
X148194600Y-76369700D02*
X148212600Y-76427800D01*
X154826000Y-116120600D02*
X154759600Y-115905300D01*
X145900502Y-121660500D02*
X146013302Y-121742200D01*
X140185800Y-83959900D02*
X140177800Y-84079400D01*
X163844893Y-98644554D02*
X163852693Y-98598254D01*
X149408000Y-69359200D02*
X149252100Y-69466900D01*
X157290300Y-75581100D02*
X157293600Y-75539300D01*
X162592893Y-99808254D02*
X162856193Y-99594954D01*
X141796300Y-80573100D02*
X141636600Y-80672900D01*
X158844000Y-77425900D02*
X158795400Y-77348200D01*
X145847702Y-127696400D02*
X145850202Y-127848100D01*
X137893600Y-91585900D02*
X137920600Y-91737800D01*
X147646700Y-71598500D02*
X147555000Y-71836700D01*
X158763800Y-77311100D02*
X158752500Y-77297500D01*
X161799293Y-101974454D02*
X161784693Y-101730754D01*
X148093000Y-76804400D02*
X148068700Y-76830400D01*
X145935602Y-124530100D02*
X145920302Y-124655200D01*
X161580893Y-102968154D02*
X161619493Y-102912754D01*
X163248800Y-79441100D02*
X163054000Y-79412100D01*
X161102093Y-105298754D02*
X161125893Y-105057554D01*
X142325500Y-80308400D02*
X142140800Y-80390900D01*
X164067700Y-81520600D02*
X163946900Y-81203400D01*
X139412200Y-103816500D02*
X139362600Y-103855600D01*
X158413100Y-122416100D02*
X158427400Y-122378000D01*
X145813502Y-126902300D02*
X145840402Y-127508700D01*
X156988100Y-120285200D02*
X156927700Y-120242900D01*
X142273000Y-106637700D02*
X142474600Y-106732300D01*
X151043902Y-129897000D02*
X151021602Y-129766200D01*
X147494500Y-74716900D02*
X147486700Y-74764600D01*
X150638502Y-128477200D02*
X150609402Y-128393200D01*
X144188600Y-118545800D02*
X144138200Y-118825300D01*
X162356993Y-100000554D02*
X162592893Y-99808254D01*
X150469602Y-128010400D02*
X150454302Y-127922600D01*
X146207602Y-123624600D02*
X146123602Y-123838700D01*
X155861400Y-69889500D02*
X155729500Y-69783800D01*
X140593400Y-98243800D02*
X140596700Y-98302300D01*
X157338900Y-72727100D02*
X157323100Y-72444100D01*
X149922900Y-125389700D02*
X149890500Y-125253100D01*
X154548000Y-111480500D02*
X154548300Y-110647700D01*
X140645600Y-98488500D02*
X140674700Y-98556000D01*
X144138200Y-118825300D02*
X144119100Y-118914000D01*
X161451293Y-103201454D02*
X161490393Y-103113754D01*
X157318300Y-75626200D02*
X157303600Y-75613200D01*
X139369100Y-104313900D02*
X139451600Y-104374600D01*
X166504400Y-90242800D02*
X166457500Y-90074600D01*
X152016792Y-117406000D02*
X152030592Y-117556900D01*
X166680100Y-90957300D02*
X166664800Y-90831400D01*
X144502200Y-116319400D02*
X144449300Y-116750400D01*
X147384700Y-73298600D02*
X147408300Y-73427900D01*
X150352302Y-127549900D02*
X150278102Y-127310700D01*
X139723800Y-94975600D02*
X140054200Y-95350200D01*
X164479300Y-82547900D02*
X164340200Y-82215200D01*
X141215900Y-96243100D02*
X141288800Y-96245100D01*
X161087793Y-105455854D02*
X161102093Y-105298754D01*
X149855400Y-124992400D02*
X149704699Y-124051342D01*
X139592700Y-86040300D02*
X139547100Y-86306800D01*
X141233700Y-96958800D02*
X141111900Y-97198000D01*
X146528000Y-77339100D02*
X146443800Y-77555700D01*
X145517002Y-129625400D02*
X145550802Y-129720400D01*
X155729500Y-69783800D02*
X155597900Y-69684300D01*
X150973902Y-130219400D02*
X150998202Y-130188800D01*
X147640302Y-130833600D02*
X148108302Y-130794200D01*
X154630200Y-115428000D02*
X154570300Y-115177300D01*
X151356492Y-114316500D02*
X151383092Y-114349100D01*
X152424302Y-123116000D02*
X152423602Y-123227800D01*
X152405002Y-123519800D02*
X152379142Y-124267927D01*
X154519200Y-113515000D02*
X154530200Y-113279600D01*
X152021292Y-119025600D02*
X152020792Y-119189100D01*
X149540700Y-123672100D02*
X149518900Y-123636000D01*
X146175502Y-123172600D02*
X146197802Y-123232000D01*
X157293600Y-75539300D02*
X157307300Y-75484900D01*
X140188100Y-83829500D02*
X140185800Y-83959900D01*
X140326500Y-105024800D02*
X140406700Y-105122600D01*
X143148200Y-107026600D02*
X143232200Y-107068900D01*
X154544000Y-112567200D02*
X154548000Y-111480500D01*
X144386100Y-117225900D02*
X144317900Y-117708700D01*
X140642100Y-98015200D02*
X140620500Y-98072600D01*
X149971292Y-116997600D02*
X150011092Y-116681500D01*
X147558900Y-74556000D02*
X147521600Y-74630900D01*
X149647500Y-122016100D02*
X149702600Y-121723600D01*
X149893592Y-119827800D02*
X149908392Y-119702700D01*
X148055700Y-76115000D02*
X148117100Y-76218300D01*
X146657800Y-77084900D02*
X146634800Y-77100900D01*
X164197300Y-81858700D02*
X164067700Y-81520600D01*
X145754102Y-126511000D02*
X145778402Y-126699700D01*
X138249300Y-92633800D02*
X138356100Y-92851100D01*
X147079502Y-130860100D02*
X147242202Y-130856100D01*
X140449200Y-82711500D02*
X140364700Y-82940800D01*
X150585192Y-113899100D02*
X150599192Y-113892100D01*
X157449900Y-120432600D02*
X157389700Y-120416600D01*
X143698241Y-120628231D02*
X145338402Y-121316800D01*
X161490393Y-103113754D02*
X161533493Y-103036754D01*
X152423602Y-123227800D02*
X152416802Y-123360700D01*
X156794000Y-123110500D02*
X156816800Y-123107500D01*
X157631500Y-122824200D02*
X157892700Y-122711200D01*
X148163200Y-76301500D02*
X148194600Y-76369700D01*
X140635300Y-95955100D02*
X140721300Y-96028500D01*
X145814502Y-128172200D02*
X145783902Y-128265200D01*
X163853393Y-98547554D02*
X163847093Y-98492154D01*
X146108302Y-121865000D02*
X146152902Y-121991900D01*
X163469400Y-79535700D02*
X163460600Y-79507100D01*
X154465300Y-113831600D02*
X154476600Y-113813800D01*
X156707900Y-120080400D02*
X156650200Y-120034500D01*
X139858200Y-85093500D02*
X139787000Y-85282500D01*
X139264600Y-104100100D02*
X139265100Y-104134400D01*
X145783902Y-128265200D02*
X145741802Y-128365000D01*
X150571102Y-128309400D02*
X150531702Y-128225700D01*
X157364500Y-74578100D02*
X157350000Y-74546500D01*
X140140700Y-84308300D02*
X140109200Y-84428100D01*
X156816800Y-123107500D02*
X156863900Y-123101500D01*
X146124400Y-79073600D02*
X146124400Y-79710800D01*
X151418892Y-114437100D02*
X151445792Y-114534900D01*
X156325100Y-70411200D02*
X156159900Y-70204200D01*
X139430000Y-94620400D02*
X139571900Y-94797100D01*
X161379793Y-103422354D02*
X161414693Y-103303254D01*
X139290200Y-87454400D02*
X139246300Y-87564200D01*
X149928392Y-119097500D02*
X149915392Y-118735800D01*
X156965100Y-71338000D02*
X156809200Y-71086400D01*
X145732802Y-126016400D02*
X145732302Y-126170000D01*
X150128602Y-126740200D02*
X150115602Y-126626400D01*
X143886500Y-119930000D02*
X143698241Y-120628231D01*
X163836093Y-98667954D02*
X163844893Y-98644554D01*
X145732302Y-126170000D02*
X145739102Y-126334500D01*
X141288800Y-96245100D02*
X141355000Y-96251900D01*
X156736960Y-107152652D02*
X161054193Y-105740654D01*
X140944400Y-96175100D02*
X141012300Y-96203500D01*
X158310400Y-121706700D02*
X158287600Y-121619400D01*
X141964300Y-80479100D02*
X141796300Y-80573100D01*
X141377400Y-80845600D02*
X141311800Y-80895000D01*
X150057992Y-116404000D02*
X150084092Y-116283400D01*
X146124400Y-79710800D02*
X145262000Y-79750900D01*
X157381800Y-75065000D02*
X157392300Y-74918800D01*
X141440300Y-99819100D02*
X141527500Y-99933900D01*
X161784693Y-101730754D02*
X161755893Y-101462054D01*
X145562602Y-129915700D02*
X145539102Y-129957100D01*
X148711600Y-69934100D02*
X148593100Y-70058100D01*
X145909502Y-124784000D02*
X145900502Y-124877500D01*
X146230402Y-123292400D02*
X146247902Y-123328300D01*
X140605200Y-98129500D02*
X140596200Y-98186400D01*
X145457302Y-129389000D02*
X145466102Y-129450700D01*
X141216700Y-101029400D02*
X141134900Y-101186400D01*
X147521200Y-76960000D02*
X147270300Y-76980600D01*
X150114900Y-125802400D02*
X150099100Y-125754700D01*
X159274700Y-78184200D02*
X159201000Y-78077200D01*
X157303800Y-73635300D02*
X157320100Y-73476400D01*
X147270300Y-76980600D02*
X147040900Y-77004200D01*
X143983300Y-119449500D02*
X143935400Y-119691600D01*
X153914100Y-68793000D02*
X153682900Y-68741000D01*
X147491900Y-74916000D02*
X147516500Y-75030500D01*
X163083793Y-96777254D02*
X163050893Y-96682954D01*
X152190202Y-121969400D02*
X152194502Y-122112800D01*
X161275793Y-103912154D02*
X161311393Y-103723654D01*
X147916800Y-76904900D02*
X147859600Y-76917900D01*
X164105293Y-95805354D02*
X165975600Y-93658900D01*
X156277400Y-119253200D02*
X156272400Y-119203300D01*
X144317900Y-117708700D02*
X144250200Y-118161200D01*
X145570602Y-129806900D02*
X145575102Y-129875100D01*
X162224500Y-79301800D02*
X161895100Y-79245600D01*
X141303900Y-106052100D02*
X141443500Y-106156700D01*
X165408900Y-85125400D02*
X165351200Y-84896500D01*
X158287600Y-121619400D02*
X158269300Y-121547700D01*
X140857700Y-98865000D02*
X140975300Y-99043300D01*
X164597400Y-82814100D02*
X164479300Y-82547900D01*
X150027900Y-125655000D02*
X150005400Y-125616600D01*
X152166902Y-121624700D02*
X152180702Y-121799700D01*
X148479300Y-70184200D02*
X148262700Y-70441300D01*
X145513202Y-130028000D02*
X145488202Y-130118500D01*
X138613300Y-93335900D02*
X138760900Y-93599900D01*
X140201000Y-83562000D02*
X140190900Y-83691400D01*
X140445300Y-103176000D02*
X140427500Y-103219200D01*
X146197802Y-123232000D02*
X146230402Y-123292400D01*
X140406700Y-105122600D02*
X140535800Y-105283300D01*
X146050902Y-121772800D02*
X146073402Y-121795100D01*
X151021602Y-129766200D02*
X150987002Y-129616800D01*
X158375100Y-121931500D02*
X158341500Y-121813200D01*
X152273902Y-122558700D02*
X152297802Y-122628700D01*
X140975300Y-99043300D02*
X141094300Y-99233800D01*
X155205100Y-69419400D02*
X155075000Y-69341200D01*
X150158492Y-115985800D02*
X150217192Y-115709600D01*
X149939892Y-117340500D02*
X149971292Y-116997600D01*
X144031100Y-119231100D02*
X143983300Y-119449500D01*
X161345693Y-103561254D02*
X161379793Y-103422354D01*
X138899800Y-93837800D02*
X139033200Y-94054100D01*
X146844900Y-77034500D02*
X146765600Y-77051300D01*
X154550800Y-110028800D02*
X154558800Y-109635200D01*
X148262700Y-70441300D02*
X148182200Y-70553000D01*
X147486700Y-74764600D02*
X147483900Y-74815400D01*
X154530200Y-113279600D02*
X154538500Y-112966300D01*
X140177800Y-84079400D02*
X140163300Y-84193800D01*
X161654293Y-102852754D02*
X161685693Y-102788354D01*
X146163402Y-123115000D02*
X146175502Y-123172600D01*
X145345610Y-107876476D02*
X144573470Y-115623659D01*
X157339400Y-73168400D02*
X157342700Y-73018800D01*
X152638800Y-68627600D02*
X152447300Y-68627600D01*
X148133600Y-76739900D02*
X148114300Y-76774300D01*
X144675400Y-79789700D02*
X144397200Y-79817100D01*
X163050893Y-96682954D02*
X163027393Y-96599754D01*
X150290802Y-130475100D02*
X150508602Y-130423700D01*
X145457102Y-130286000D02*
X145452802Y-130347900D01*
X142932900Y-80094800D02*
X142721600Y-80160200D01*
X140662200Y-105432900D02*
X140787500Y-105572800D01*
X140406000Y-103259300D02*
X140380600Y-103296600D01*
X154570300Y-115177300D02*
X154515900Y-114925400D01*
X140742300Y-97835700D02*
X140703000Y-97897400D01*
X157050500Y-120319600D02*
X156988100Y-120285200D01*
X150099100Y-125754700D02*
X150077800Y-125715900D01*
X139946500Y-84873900D02*
X139858200Y-85093500D01*
X138767500Y-88683200D02*
X138430100Y-89539300D01*
X163574093Y-98968454D02*
X163684393Y-98858654D01*
X158388000Y-75783400D02*
X157824500Y-75717000D01*
X150943502Y-130248200D02*
X150973902Y-130219400D01*
X148212600Y-76427800D02*
X148218100Y-76481000D01*
X157185800Y-74308100D02*
X157223900Y-74133700D01*
X140983800Y-97435600D02*
X140857700Y-97654000D01*
X140705800Y-102205100D02*
X140649400Y-102376600D01*
X148182200Y-70553000D02*
X148107200Y-70665800D01*
X140800500Y-96088900D02*
X140874500Y-96137300D01*
X145457002Y-129192300D02*
X145452702Y-129259900D01*
X154389600Y-114137000D02*
X154390100Y-114027900D01*
X149702600Y-121723600D02*
X149734800Y-121469167D01*
X161311393Y-103723654D02*
X161345693Y-103561254D01*
X162547600Y-79350100D02*
X162224500Y-79301800D01*
X150488692Y-114188400D02*
X150519692Y-114047800D01*
X156650200Y-120034500D02*
X156607300Y-119992400D01*
X161773193Y-100827554D02*
X161809293Y-100701454D01*
X160964500Y-79080700D02*
X160630100Y-79038000D01*
X147618500Y-75309300D02*
X147697500Y-75477000D01*
X145567602Y-130613100D02*
X145613802Y-130642400D01*
X156358500Y-123356400D02*
X156407400Y-123337100D01*
X150150402Y-126859200D02*
X150128602Y-126740200D01*
X149485600Y-123456500D02*
X149484300Y-123363800D01*
X139268100Y-104063000D02*
X139264600Y-104100100D01*
X140598200Y-102545300D02*
X140553600Y-102710000D01*
X152379142Y-124267927D02*
X152476952Y-124493598D01*
X166354700Y-92763200D02*
X166731200Y-91834400D01*
X163270293Y-99244754D02*
X163435993Y-99097354D01*
X156471300Y-123299500D02*
X156543000Y-123247900D01*
X163344193Y-96142754D02*
X163435493Y-96112654D01*
X158437700Y-122284700D02*
X158435200Y-122231300D01*
X144073500Y-119060700D02*
X144031100Y-119231100D01*
X163528000Y-80124500D02*
X163515200Y-80042800D01*
X147915300Y-75878100D02*
X148055700Y-76115000D01*
X155548500Y-117654600D02*
X155386300Y-117345200D01*
X146721002Y-130824400D02*
X146788002Y-130838500D01*
X145452702Y-129259900D02*
X145453002Y-129325400D01*
X140553600Y-102710000D02*
X140515500Y-102869700D01*
X143232200Y-107068900D02*
X143297800Y-107106800D01*
X146073402Y-121795100D02*
X146089202Y-121821900D01*
X146216802Y-122918700D02*
X146188202Y-122960800D01*
X154394900Y-113983300D02*
X154402900Y-113944200D01*
X153036700Y-68647500D02*
X152834900Y-68633900D01*
X161533493Y-103036754D02*
X161580893Y-102968154D01*
X140767400Y-102032200D02*
X140705800Y-102205100D01*
X154953900Y-116477300D02*
X154891500Y-116313200D01*
X139293200Y-104227200D02*
X139312700Y-104256000D01*
X141340500Y-96735200D02*
X141233700Y-96958800D01*
X145920302Y-124655200D02*
X145909502Y-124784000D01*
X163013293Y-96526354D02*
X163008793Y-96461654D01*
X152418802Y-123020000D02*
X152424302Y-123116000D01*
X157338400Y-75356300D02*
X157363500Y-75213600D01*
X158427400Y-122378000D02*
X158435200Y-122333900D01*
X147744500Y-71361600D02*
X147646700Y-71598500D01*
X139468900Y-86786300D02*
X139439300Y-86933000D01*
X150111392Y-116177100D02*
X150158492Y-115985800D01*
X141590200Y-106257200D02*
X141744900Y-106354700D01*
X152359402Y-122775300D02*
X152386802Y-122854800D01*
X148218100Y-76481000D02*
X148212300Y-76533400D01*
X149502400Y-123589900D02*
X149491600Y-123531000D01*
X139547100Y-86306800D02*
X139494700Y-86634700D01*
X152205302Y-122250600D02*
X152233102Y-122405600D01*
X149252100Y-69466900D02*
X149105500Y-69578600D01*
X145495902Y-129568800D02*
X145517002Y-129625400D01*
X157501800Y-75676100D02*
X157403300Y-75658100D01*
X152076992Y-119704700D02*
X152105712Y-119852552D01*
X138012400Y-92064200D02*
X138077800Y-92241900D01*
X158752500Y-77297500D02*
X158740500Y-77271200D01*
X146008602Y-124173600D02*
X145979702Y-124289400D01*
X140978300Y-101516000D02*
X140904100Y-101686500D01*
X154759600Y-115905300D02*
X154693900Y-115672700D01*
X157393600Y-74783400D02*
X157384800Y-74667100D01*
X151032802Y-130120900D02*
X151044302Y-130082500D01*
X145979702Y-124289400D02*
X145955402Y-124408200D01*
X145454602Y-130404000D02*
X145462902Y-130455200D01*
X145767402Y-125611000D02*
X145751602Y-125737900D01*
X146251202Y-123473900D02*
X146234202Y-123542400D01*
X138430100Y-89539300D02*
X138025500Y-90593700D01*
X163927293Y-95898854D02*
X164105293Y-95805354D01*
X162824400Y-79384700D02*
X162547600Y-79350100D01*
X137933500Y-90880000D02*
X137903400Y-91019400D01*
X150130702Y-125932700D02*
X150125400Y-125861000D01*
X163565600Y-80283900D02*
X163544800Y-80205200D01*
X147483900Y-74815400D02*
X147485900Y-74864100D01*
X140322700Y-95644200D02*
X140437500Y-95764000D01*
X140078100Y-104774400D02*
X140162800Y-104851400D01*
X157173400Y-120367700D02*
X157113200Y-120346600D01*
X152047392Y-117887800D02*
X152049892Y-118245700D01*
X158269300Y-121547700D02*
X158249000Y-121483800D01*
X150011092Y-116681500D02*
X150057992Y-116404000D01*
X146300002Y-122592000D02*
X146313602Y-122677300D01*
X161136393Y-104944254D02*
X161142393Y-104828954D01*
X141909600Y-106449700D02*
X142085000Y-106543700D01*
X149673100Y-123900800D02*
X149664800Y-123849900D01*
X139562400Y-104442200D02*
X139705000Y-104520700D01*
X149835132Y-120248700D02*
X149846492Y-120117300D01*
X147440400Y-73569400D02*
X147482800Y-73724600D01*
X147600300Y-74490100D02*
X147558900Y-74556000D01*
X154402900Y-113944200D02*
X154414200Y-113910100D01*
X149642500Y-123795200D02*
X149609400Y-123743300D01*
X150412902Y-127761500D02*
X150352302Y-127549900D01*
X140226500Y-103431000D02*
X140109700Y-103495900D01*
X163264493Y-96172554D02*
X163344193Y-96142754D01*
X145262000Y-79750900D02*
X144963700Y-79767700D01*
X149491600Y-123531000D02*
X149485600Y-123456500D01*
X156863900Y-123101500D02*
X156933100Y-123084400D01*
X143382900Y-79980300D02*
X143153300Y-80034700D01*
X156488600Y-70625600D02*
X156325100Y-70411200D01*
X161740093Y-101280254D02*
X161738093Y-101115054D01*
X149574000Y-69255900D02*
X149408000Y-69359200D01*
X140746000Y-81944400D02*
X140556200Y-82433000D01*
X151790892Y-116122700D02*
X151878392Y-116571200D01*
X146765600Y-77051300D02*
X146702500Y-77068100D01*
X147040900Y-77004200D02*
X146844900Y-77034500D01*
X163125593Y-96883054D02*
X163083793Y-96777254D01*
X156258700Y-118929500D02*
X156239900Y-118873600D01*
X147964900Y-76890100D02*
X147916800Y-76904900D01*
X150666392Y-113892100D02*
X150708992Y-113903400D01*
X156271400Y-119160700D02*
X156274900Y-119088000D01*
X149122602Y-130677900D02*
X149602602Y-130606900D01*
X163852693Y-98598254D02*
X163853393Y-98547554D01*
X150120202Y-126251100D02*
X150131502Y-126020200D01*
X151017702Y-130156000D02*
X151032802Y-130120900D01*
X155466600Y-69590600D02*
X155335700Y-69502400D01*
X163703193Y-98122654D02*
X163637793Y-97979754D01*
X163435493Y-96112654D02*
X163570393Y-96062554D01*
X151174292Y-114161100D02*
X151278092Y-114242100D01*
X152476952Y-124493598D02*
X155609603Y-123634300D01*
X149105500Y-69578600D02*
X148967100Y-69694000D01*
X140904100Y-101686500D02*
X140833900Y-101858900D01*
X145605502Y-128656000D02*
X145541502Y-128821200D01*
X161125893Y-105057554D02*
X161136393Y-104944254D01*
X166570500Y-90421600D02*
X166538700Y-90342100D01*
X144573470Y-115623659D02*
X144550800Y-115828600D01*
X141475100Y-96404300D02*
X141424000Y-96544700D01*
X156872100Y-120191700D02*
X156707900Y-120080400D01*
X144449300Y-116750400D02*
X144386100Y-117225900D01*
X141200000Y-81000000D02*
X141150600Y-81061500D01*
X157307300Y-75484900D02*
X157338400Y-75356300D01*
X137878500Y-91439700D02*
X137893600Y-91585900D01*
X165560500Y-85798700D02*
X165461500Y-85348200D01*
X141605700Y-100019200D02*
X141776400Y-100178400D01*
X149734800Y-121469167D02*
X149835132Y-120248700D01*
X152027092Y-118836600D02*
X152021292Y-119025600D01*
X166204300Y-93128900D02*
X166354700Y-92763200D01*
X161599800Y-79188700D02*
X161301500Y-79132800D01*
X154486900Y-113783300D02*
X154504900Y-113680500D01*
X141636600Y-80672900D02*
X141452100Y-80794200D01*
X159201000Y-78077200D02*
X159118000Y-77942100D01*
X156765600Y-123118800D02*
X156794000Y-123110500D01*
X150710002Y-128845900D02*
X150679702Y-128749900D01*
X147408300Y-73427900D02*
X147440400Y-73569400D01*
X149904592Y-118407700D02*
X149905592Y-118057700D01*
X156212300Y-118806700D02*
X156173900Y-118726500D01*
X163783893Y-98291354D02*
X163747293Y-98210954D01*
X145613802Y-130642400D02*
X145668402Y-130668500D01*
X154390100Y-114027900D02*
X154394900Y-113983300D01*
X137903400Y-91019400D02*
X137883800Y-91158000D01*
X165285800Y-84656100D02*
X165210100Y-84398400D01*
X147639600Y-74432100D02*
X147600300Y-74490100D01*
X158795400Y-77348200D02*
X158777100Y-77323900D01*
X144119100Y-118914000D02*
X144104800Y-118962100D01*
X146201002Y-122157800D02*
X146247402Y-122344900D01*
X139125500Y-87824600D02*
X139027400Y-88050000D01*
X157265500Y-71896600D02*
X157117300Y-71607200D01*
X152416802Y-123360700D02*
X152405002Y-123519800D01*
M02*
