%TF.GenerationSoftware,KiCad,Pcbnew,(5.99.0-9526-g5c17ff0595)*%
%TF.CreationDate,2021-09-22T22:50:55-05:00*%
%TF.ProjectId,SecDSM_Learn,53656344-534d-45f4-9c65-61726e2e6b69,rev?*%
%TF.SameCoordinates,Original*%
%TF.FileFunction,Legend,Top*%
%TF.FilePolarity,Positive*%
%FSLAX46Y46*%
G04 Gerber Fmt 4.6, Leading zero omitted, Abs format (unit mm)*
G04 Created by KiCad (PCBNEW (5.99.0-9526-g5c17ff0595)) date 2021-09-22 22:50:55*
%MOMM*%
%LPD*%
G01*
G04 APERTURE LIST*
%ADD10C,0.150000*%
%ADD11C,0.120000*%
%ADD12C,0.010000*%
G04 APERTURE END LIST*
D10*
X142044047Y-87246428D02*
X142805952Y-87246428D01*
X142425000Y-87627380D02*
X142425000Y-86865476D01*
X138119047Y-87421428D02*
X138880952Y-87421428D01*
X138500000Y-87802380D02*
X138500000Y-87040476D01*
X122944047Y-87146428D02*
X123705952Y-87146428D01*
X123325000Y-87527380D02*
X123325000Y-86765476D01*
X157919047Y-87171428D02*
X158680952Y-87171428D01*
X158300000Y-87552380D02*
X158300000Y-86790476D01*
%TO.C,R4*%
X151920833Y-86402380D02*
X151587500Y-85926190D01*
X151349404Y-86402380D02*
X151349404Y-85402380D01*
X151730357Y-85402380D01*
X151825595Y-85450000D01*
X151873214Y-85497619D01*
X151920833Y-85592857D01*
X151920833Y-85735714D01*
X151873214Y-85830952D01*
X151825595Y-85878571D01*
X151730357Y-85926190D01*
X151349404Y-85926190D01*
X152777976Y-85735714D02*
X152777976Y-86402380D01*
X152539880Y-85354761D02*
X152301785Y-86069047D01*
X152920833Y-86069047D01*
%TO.C,R3*%
X131077380Y-85616666D02*
X130601190Y-85950000D01*
X131077380Y-86188095D02*
X130077380Y-86188095D01*
X130077380Y-85807142D01*
X130125000Y-85711904D01*
X130172619Y-85664285D01*
X130267857Y-85616666D01*
X130410714Y-85616666D01*
X130505952Y-85664285D01*
X130553571Y-85711904D01*
X130601190Y-85807142D01*
X130601190Y-86188095D01*
X130077380Y-85283333D02*
X130077380Y-84664285D01*
X130458333Y-84997619D01*
X130458333Y-84854761D01*
X130505952Y-84759523D01*
X130553571Y-84711904D01*
X130648809Y-84664285D01*
X130886904Y-84664285D01*
X130982142Y-84711904D01*
X131029761Y-84759523D01*
X131077380Y-84854761D01*
X131077380Y-85140476D01*
X131029761Y-85235714D01*
X130982142Y-85283333D01*
%TO.C,R2*%
X148702380Y-85179166D02*
X148226190Y-85512500D01*
X148702380Y-85750595D02*
X147702380Y-85750595D01*
X147702380Y-85369642D01*
X147750000Y-85274404D01*
X147797619Y-85226785D01*
X147892857Y-85179166D01*
X148035714Y-85179166D01*
X148130952Y-85226785D01*
X148178571Y-85274404D01*
X148226190Y-85369642D01*
X148226190Y-85750595D01*
X147797619Y-84798214D02*
X147750000Y-84750595D01*
X147702380Y-84655357D01*
X147702380Y-84417261D01*
X147750000Y-84322023D01*
X147797619Y-84274404D01*
X147892857Y-84226785D01*
X147988095Y-84226785D01*
X148130952Y-84274404D01*
X148702380Y-84845833D01*
X148702380Y-84226785D01*
%TO.C,R1*%
X129233333Y-90502380D02*
X128900000Y-90026190D01*
X128661904Y-90502380D02*
X128661904Y-89502380D01*
X129042857Y-89502380D01*
X129138095Y-89550000D01*
X129185714Y-89597619D01*
X129233333Y-89692857D01*
X129233333Y-89835714D01*
X129185714Y-89930952D01*
X129138095Y-89978571D01*
X129042857Y-90026190D01*
X128661904Y-90026190D01*
X130185714Y-90502380D02*
X129614285Y-90502380D01*
X129900000Y-90502380D02*
X129900000Y-89502380D01*
X129804761Y-89645238D01*
X129709523Y-89740476D01*
X129614285Y-89788095D01*
%TO.C,Q2*%
X147504761Y-79347619D02*
X147409523Y-79300000D01*
X147314285Y-79204761D01*
X147171428Y-79061904D01*
X147076190Y-79014285D01*
X146980952Y-79014285D01*
X147028571Y-79252380D02*
X146933333Y-79204761D01*
X146838095Y-79109523D01*
X146790476Y-78919047D01*
X146790476Y-78585714D01*
X146838095Y-78395238D01*
X146933333Y-78300000D01*
X147028571Y-78252380D01*
X147219047Y-78252380D01*
X147314285Y-78300000D01*
X147409523Y-78395238D01*
X147457142Y-78585714D01*
X147457142Y-78919047D01*
X147409523Y-79109523D01*
X147314285Y-79204761D01*
X147219047Y-79252380D01*
X147028571Y-79252380D01*
X147838095Y-78347619D02*
X147885714Y-78300000D01*
X147980952Y-78252380D01*
X148219047Y-78252380D01*
X148314285Y-78300000D01*
X148361904Y-78347619D01*
X148409523Y-78442857D01*
X148409523Y-78538095D01*
X148361904Y-78680952D01*
X147790476Y-79252380D01*
X148409523Y-79252380D01*
%TO.C,Q1*%
X135604761Y-80747619D02*
X135509523Y-80700000D01*
X135414285Y-80604761D01*
X135271428Y-80461904D01*
X135176190Y-80414285D01*
X135080952Y-80414285D01*
X135128571Y-80652380D02*
X135033333Y-80604761D01*
X134938095Y-80509523D01*
X134890476Y-80319047D01*
X134890476Y-79985714D01*
X134938095Y-79795238D01*
X135033333Y-79700000D01*
X135128571Y-79652380D01*
X135319047Y-79652380D01*
X135414285Y-79700000D01*
X135509523Y-79795238D01*
X135557142Y-79985714D01*
X135557142Y-80319047D01*
X135509523Y-80509523D01*
X135414285Y-80604761D01*
X135319047Y-80652380D01*
X135128571Y-80652380D01*
X136509523Y-80652380D02*
X135938095Y-80652380D01*
X136223809Y-80652380D02*
X136223809Y-79652380D01*
X136128571Y-79795238D01*
X136033333Y-79890476D01*
X135938095Y-79938095D01*
%TO.C,D2*%
X155511904Y-88252380D02*
X155511904Y-87252380D01*
X155750000Y-87252380D01*
X155892857Y-87300000D01*
X155988095Y-87395238D01*
X156035714Y-87490476D01*
X156083333Y-87680952D01*
X156083333Y-87823809D01*
X156035714Y-88014285D01*
X155988095Y-88109523D01*
X155892857Y-88204761D01*
X155750000Y-88252380D01*
X155511904Y-88252380D01*
X156464285Y-87347619D02*
X156511904Y-87300000D01*
X156607142Y-87252380D01*
X156845238Y-87252380D01*
X156940476Y-87300000D01*
X156988095Y-87347619D01*
X157035714Y-87442857D01*
X157035714Y-87538095D01*
X156988095Y-87680952D01*
X156416666Y-88252380D01*
X157035714Y-88252380D01*
%TO.C,D1*%
X124561904Y-88102380D02*
X124561904Y-87102380D01*
X124800000Y-87102380D01*
X124942857Y-87150000D01*
X125038095Y-87245238D01*
X125085714Y-87340476D01*
X125133333Y-87530952D01*
X125133333Y-87673809D01*
X125085714Y-87864285D01*
X125038095Y-87959523D01*
X124942857Y-88054761D01*
X124800000Y-88102380D01*
X124561904Y-88102380D01*
X126085714Y-88102380D02*
X125514285Y-88102380D01*
X125800000Y-88102380D02*
X125800000Y-87102380D01*
X125704761Y-87245238D01*
X125609523Y-87340476D01*
X125514285Y-87388095D01*
%TO.C,C2*%
X145233333Y-85707142D02*
X145185714Y-85754761D01*
X145042857Y-85802380D01*
X144947619Y-85802380D01*
X144804761Y-85754761D01*
X144709523Y-85659523D01*
X144661904Y-85564285D01*
X144614285Y-85373809D01*
X144614285Y-85230952D01*
X144661904Y-85040476D01*
X144709523Y-84945238D01*
X144804761Y-84850000D01*
X144947619Y-84802380D01*
X145042857Y-84802380D01*
X145185714Y-84850000D01*
X145233333Y-84897619D01*
X145614285Y-84897619D02*
X145661904Y-84850000D01*
X145757142Y-84802380D01*
X145995238Y-84802380D01*
X146090476Y-84850000D01*
X146138095Y-84897619D01*
X146185714Y-84992857D01*
X146185714Y-85088095D01*
X146138095Y-85230952D01*
X145566666Y-85802380D01*
X146185714Y-85802380D01*
%TO.C,C1*%
X135433333Y-89707142D02*
X135385714Y-89754761D01*
X135242857Y-89802380D01*
X135147619Y-89802380D01*
X135004761Y-89754761D01*
X134909523Y-89659523D01*
X134861904Y-89564285D01*
X134814285Y-89373809D01*
X134814285Y-89230952D01*
X134861904Y-89040476D01*
X134909523Y-88945238D01*
X135004761Y-88850000D01*
X135147619Y-88802380D01*
X135242857Y-88802380D01*
X135385714Y-88850000D01*
X135433333Y-88897619D01*
X136385714Y-89802380D02*
X135814285Y-89802380D01*
X136100000Y-89802380D02*
X136100000Y-88802380D01*
X136004761Y-88945238D01*
X135909523Y-89040476D01*
X135814285Y-89088095D01*
D11*
%TO.C,R4*%
X151860436Y-88335000D02*
X152314564Y-88335000D01*
X151860436Y-86865000D02*
X152314564Y-86865000D01*
%TO.C,R3*%
X132935000Y-83739564D02*
X132935000Y-83285436D01*
X131465000Y-83739564D02*
X131465000Y-83285436D01*
%TO.C,R2*%
X150635000Y-85239564D02*
X150635000Y-84785436D01*
X149165000Y-85239564D02*
X149165000Y-84785436D01*
%TO.C,R1*%
X129627064Y-87665000D02*
X129172936Y-87665000D01*
X129627064Y-89135000D02*
X129172936Y-89135000D01*
%TO.C,Q2*%
X148360000Y-82880000D02*
X146900000Y-82880000D01*
X148360000Y-79720000D02*
X146200000Y-79720000D01*
X148360000Y-79720000D02*
X148360000Y-80650000D01*
X148360000Y-82880000D02*
X148360000Y-81950000D01*
%TO.C,Q1*%
X136460000Y-84280000D02*
X135000000Y-84280000D01*
X136460000Y-81120000D02*
X134300000Y-81120000D01*
X136460000Y-81120000D02*
X136460000Y-82050000D01*
X136460000Y-84280000D02*
X136460000Y-83350000D01*
%TO.C,D2*%
X154415000Y-86960000D02*
X157100000Y-86960000D01*
X154415000Y-85040000D02*
X154415000Y-86960000D01*
X157100000Y-85040000D02*
X154415000Y-85040000D01*
%TO.C,D1*%
X126985000Y-85040000D02*
X124300000Y-85040000D01*
X126985000Y-86960000D02*
X126985000Y-85040000D01*
X124300000Y-86960000D02*
X126985000Y-86960000D01*
%TO.C,C2*%
X144688748Y-88110000D02*
X146111252Y-88110000D01*
X144688748Y-86290000D02*
X146111252Y-86290000D01*
%TO.C,C1*%
X136311252Y-86590000D02*
X134888748Y-86590000D01*
X136311252Y-88410000D02*
X134888748Y-88410000D01*
D12*
%TO.C,G\u002A\u002A\u002A*%
X141727291Y-88758031D02*
X143489416Y-88764369D01*
X143489416Y-88764369D02*
X143679916Y-88822823D01*
X143679916Y-88822823D02*
X143953259Y-88925860D01*
X143953259Y-88925860D02*
X144195814Y-89057556D01*
X144195814Y-89057556D02*
X144407125Y-89217445D01*
X144407125Y-89217445D02*
X144586735Y-89405060D01*
X144586735Y-89405060D02*
X144734185Y-89619935D01*
X144734185Y-89619935D02*
X144849018Y-89861603D01*
X144849018Y-89861603D02*
X144921088Y-90089509D01*
X144921088Y-90089509D02*
X144971083Y-90287883D01*
X144971083Y-90287883D02*
X144971083Y-93748633D01*
X144971083Y-93748633D02*
X144971060Y-94199151D01*
X144971060Y-94199151D02*
X144970976Y-94609327D01*
X144970976Y-94609327D02*
X144970813Y-94981154D01*
X144970813Y-94981154D02*
X144970549Y-95316623D01*
X144970549Y-95316623D02*
X144970166Y-95617726D01*
X144970166Y-95617726D02*
X144969642Y-95886456D01*
X144969642Y-95886456D02*
X144968958Y-96124804D01*
X144968958Y-96124804D02*
X144968093Y-96334762D01*
X144968093Y-96334762D02*
X144967028Y-96518322D01*
X144967028Y-96518322D02*
X144965742Y-96677476D01*
X144965742Y-96677476D02*
X144964216Y-96814215D01*
X144964216Y-96814215D02*
X144962430Y-96930533D01*
X144962430Y-96930533D02*
X144960362Y-97028420D01*
X144960362Y-97028420D02*
X144957994Y-97109868D01*
X144957994Y-97109868D02*
X144955305Y-97176870D01*
X144955305Y-97176870D02*
X144952276Y-97231417D01*
X144952276Y-97231417D02*
X144948885Y-97275502D01*
X144948885Y-97275502D02*
X144945113Y-97311115D01*
X144945113Y-97311115D02*
X144940941Y-97340250D01*
X144940941Y-97340250D02*
X144936347Y-97364898D01*
X144936347Y-97364898D02*
X144934579Y-97373088D01*
X144934579Y-97373088D02*
X144855761Y-97642626D01*
X144855761Y-97642626D02*
X144745618Y-97884008D01*
X144745618Y-97884008D02*
X144603710Y-98098031D01*
X144603710Y-98098031D02*
X144433013Y-98282351D01*
X144433013Y-98282351D02*
X144291306Y-98401941D01*
X144291306Y-98401941D02*
X144146350Y-98499840D01*
X144146350Y-98499840D02*
X143988268Y-98581160D01*
X143988268Y-98581160D02*
X143807185Y-98651016D01*
X143807185Y-98651016D02*
X143603715Y-98711722D01*
X143603715Y-98711722D02*
X143404750Y-98765026D01*
X143404750Y-98765026D02*
X141684958Y-98765079D01*
X141684958Y-98765079D02*
X139965166Y-98765133D01*
X139965166Y-98765133D02*
X139965166Y-97473966D01*
X139965166Y-97473966D02*
X141489166Y-97473966D01*
X141489166Y-97473966D02*
X142123074Y-97473966D01*
X142123074Y-97473966D02*
X142304245Y-97473857D01*
X142304245Y-97473857D02*
X142448789Y-97473277D01*
X142448789Y-97473277D02*
X142562412Y-97471847D01*
X142562412Y-97471847D02*
X142650820Y-97469190D01*
X142650820Y-97469190D02*
X142719720Y-97464927D01*
X142719720Y-97464927D02*
X142774818Y-97458679D01*
X142774818Y-97458679D02*
X142821819Y-97450067D01*
X142821819Y-97450067D02*
X142866431Y-97438714D01*
X142866431Y-97438714D02*
X142914358Y-97424241D01*
X142914358Y-97424241D02*
X142925457Y-97420745D01*
X142925457Y-97420745D02*
X143090390Y-97350327D01*
X143090390Y-97350327D02*
X143224356Y-97252021D01*
X143224356Y-97252021D02*
X143330244Y-97123348D01*
X143330244Y-97123348D02*
X143382010Y-97029466D01*
X143382010Y-97029466D02*
X143447083Y-96891883D01*
X143447083Y-96891883D02*
X143458223Y-90691933D01*
X143458223Y-90691933D02*
X143413521Y-90557605D01*
X143413521Y-90557605D02*
X143340052Y-90395310D01*
X143340052Y-90395310D02*
X143237461Y-90263651D01*
X143237461Y-90263651D02*
X143104850Y-90161710D01*
X143104850Y-90161710D02*
X142960250Y-90095024D01*
X142960250Y-90095024D02*
X142925041Y-90084379D01*
X142925041Y-90084379D02*
X142882714Y-90075728D01*
X142882714Y-90075728D02*
X142828342Y-90068786D01*
X142828342Y-90068786D02*
X142757001Y-90063266D01*
X142757001Y-90063266D02*
X142663765Y-90058885D01*
X142663765Y-90058885D02*
X142543709Y-90055355D01*
X142543709Y-90055355D02*
X142391907Y-90052392D01*
X142391907Y-90052392D02*
X142203433Y-90049710D01*
X142203433Y-90049710D02*
X142171791Y-90049315D01*
X142171791Y-90049315D02*
X141489166Y-90040920D01*
X141489166Y-90040920D02*
X141489166Y-97473966D01*
X141489166Y-97473966D02*
X139965166Y-97473966D01*
X139965166Y-97473966D02*
X139965166Y-88751694D01*
X139965166Y-88751694D02*
X141727291Y-88758031D01*
X141727291Y-88758031D02*
X141727291Y-88758031D01*
G36*
X141727291Y-88758031D02*
G01*
X143489416Y-88764369D01*
X143679916Y-88822823D01*
X143953259Y-88925860D01*
X144195814Y-89057556D01*
X144407125Y-89217445D01*
X144586735Y-89405060D01*
X144734185Y-89619935D01*
X144849018Y-89861603D01*
X144921088Y-90089509D01*
X144971083Y-90287883D01*
X144971083Y-93748633D01*
X144971060Y-94199151D01*
X144970976Y-94609327D01*
X144970813Y-94981154D01*
X144970549Y-95316623D01*
X144970166Y-95617726D01*
X144969642Y-95886456D01*
X144968958Y-96124804D01*
X144968093Y-96334762D01*
X144967028Y-96518322D01*
X144965742Y-96677476D01*
X144964216Y-96814215D01*
X144962430Y-96930533D01*
X144960362Y-97028420D01*
X144957994Y-97109868D01*
X144955305Y-97176870D01*
X144952276Y-97231417D01*
X144948885Y-97275502D01*
X144945113Y-97311115D01*
X144940941Y-97340250D01*
X144936347Y-97364898D01*
X144934579Y-97373088D01*
X144855761Y-97642626D01*
X144745618Y-97884008D01*
X144603710Y-98098031D01*
X144433013Y-98282351D01*
X144291306Y-98401941D01*
X144146350Y-98499840D01*
X143988268Y-98581160D01*
X143807185Y-98651016D01*
X143603715Y-98711722D01*
X143404750Y-98765026D01*
X141684958Y-98765079D01*
X139965166Y-98765133D01*
X139965166Y-90040920D01*
X141489166Y-90040920D01*
X141489166Y-97473966D01*
X142123074Y-97473966D01*
X142304245Y-97473857D01*
X142448789Y-97473277D01*
X142562412Y-97471847D01*
X142650820Y-97469190D01*
X142719720Y-97464927D01*
X142774818Y-97458679D01*
X142821819Y-97450067D01*
X142866431Y-97438714D01*
X142914358Y-97424241D01*
X142925457Y-97420745D01*
X143090390Y-97350327D01*
X143224356Y-97252021D01*
X143330244Y-97123348D01*
X143382010Y-97029466D01*
X143447083Y-96891883D01*
X143458223Y-90691933D01*
X143413521Y-90557605D01*
X143340052Y-90395310D01*
X143237461Y-90263651D01*
X143104850Y-90161710D01*
X142960250Y-90095024D01*
X142925041Y-90084379D01*
X142882714Y-90075728D01*
X142828342Y-90068786D01*
X142757001Y-90063266D01*
X142663765Y-90058885D01*
X142543709Y-90055355D01*
X142391907Y-90052392D01*
X142203433Y-90049710D01*
X142171791Y-90049315D01*
X141489166Y-90040920D01*
X139965166Y-90040920D01*
X139965166Y-88751694D01*
X141727291Y-88758031D01*
G37*
X141727291Y-88758031D02*
X143489416Y-88764369D01*
X143679916Y-88822823D01*
X143953259Y-88925860D01*
X144195814Y-89057556D01*
X144407125Y-89217445D01*
X144586735Y-89405060D01*
X144734185Y-89619935D01*
X144849018Y-89861603D01*
X144921088Y-90089509D01*
X144971083Y-90287883D01*
X144971083Y-93748633D01*
X144971060Y-94199151D01*
X144970976Y-94609327D01*
X144970813Y-94981154D01*
X144970549Y-95316623D01*
X144970166Y-95617726D01*
X144969642Y-95886456D01*
X144968958Y-96124804D01*
X144968093Y-96334762D01*
X144967028Y-96518322D01*
X144965742Y-96677476D01*
X144964216Y-96814215D01*
X144962430Y-96930533D01*
X144960362Y-97028420D01*
X144957994Y-97109868D01*
X144955305Y-97176870D01*
X144952276Y-97231417D01*
X144948885Y-97275502D01*
X144945113Y-97311115D01*
X144940941Y-97340250D01*
X144936347Y-97364898D01*
X144934579Y-97373088D01*
X144855761Y-97642626D01*
X144745618Y-97884008D01*
X144603710Y-98098031D01*
X144433013Y-98282351D01*
X144291306Y-98401941D01*
X144146350Y-98499840D01*
X143988268Y-98581160D01*
X143807185Y-98651016D01*
X143603715Y-98711722D01*
X143404750Y-98765026D01*
X141684958Y-98765079D01*
X139965166Y-98765133D01*
X139965166Y-90040920D01*
X141489166Y-90040920D01*
X141489166Y-97473966D01*
X142123074Y-97473966D01*
X142304245Y-97473857D01*
X142448789Y-97473277D01*
X142562412Y-97471847D01*
X142650820Y-97469190D01*
X142719720Y-97464927D01*
X142774818Y-97458679D01*
X142821819Y-97450067D01*
X142866431Y-97438714D01*
X142914358Y-97424241D01*
X142925457Y-97420745D01*
X143090390Y-97350327D01*
X143224356Y-97252021D01*
X143330244Y-97123348D01*
X143382010Y-97029466D01*
X143447083Y-96891883D01*
X143458223Y-90691933D01*
X143413521Y-90557605D01*
X143340052Y-90395310D01*
X143237461Y-90263651D01*
X143104850Y-90161710D01*
X142960250Y-90095024D01*
X142925041Y-90084379D01*
X142882714Y-90075728D01*
X142828342Y-90068786D01*
X142757001Y-90063266D01*
X142663765Y-90058885D01*
X142543709Y-90055355D01*
X142391907Y-90052392D01*
X142203433Y-90049710D01*
X142171791Y-90049315D01*
X141489166Y-90040920D01*
X139965166Y-90040920D01*
X139965166Y-88751694D01*
X141727291Y-88758031D01*
X148905153Y-88753298D02*
X148973195Y-88753300D01*
X148973195Y-88753300D02*
X149293576Y-88753327D01*
X149293576Y-88753327D02*
X149574459Y-88753452D01*
X149574459Y-88753452D02*
X149818680Y-88753733D01*
X149818680Y-88753733D02*
X150029075Y-88754234D01*
X150029075Y-88754234D02*
X150208478Y-88755014D01*
X150208478Y-88755014D02*
X150359727Y-88756134D01*
X150359727Y-88756134D02*
X150485655Y-88757656D01*
X150485655Y-88757656D02*
X150589099Y-88759641D01*
X150589099Y-88759641D02*
X150672895Y-88762150D01*
X150672895Y-88762150D02*
X150739877Y-88765243D01*
X150739877Y-88765243D02*
X150792883Y-88768982D01*
X150792883Y-88768982D02*
X150834746Y-88773428D01*
X150834746Y-88773428D02*
X150868303Y-88778642D01*
X150868303Y-88778642D02*
X150896389Y-88784685D01*
X150896389Y-88784685D02*
X150921841Y-88791617D01*
X150921841Y-88791617D02*
X150934751Y-88795525D01*
X150934751Y-88795525D02*
X151083095Y-88861047D01*
X151083095Y-88861047D02*
X151203388Y-88957924D01*
X151203388Y-88957924D02*
X151297229Y-89087568D01*
X151297229Y-89087568D02*
X151322931Y-89138359D01*
X151322931Y-89138359D02*
X151384583Y-89271883D01*
X151384583Y-89271883D02*
X151396967Y-91907133D01*
X151396967Y-91907133D02*
X149892333Y-91907133D01*
X149892333Y-91907133D02*
X149892333Y-90023300D01*
X149892333Y-90023300D02*
X148072000Y-90023300D01*
X148072000Y-90023300D02*
X148075364Y-91833050D01*
X148075364Y-91833050D02*
X148460209Y-92192883D01*
X148460209Y-92192883D02*
X148705390Y-92422332D01*
X148705390Y-92422332D02*
X148949943Y-92651582D01*
X148949943Y-92651582D02*
X149191804Y-92878677D01*
X149191804Y-92878677D02*
X149428910Y-93101662D01*
X149428910Y-93101662D02*
X149659198Y-93318583D01*
X149659198Y-93318583D02*
X149880605Y-93527483D01*
X149880605Y-93527483D02*
X150091068Y-93726407D01*
X150091068Y-93726407D02*
X150288523Y-93913401D01*
X150288523Y-93913401D02*
X150470907Y-94086508D01*
X150470907Y-94086508D02*
X150636158Y-94243774D01*
X150636158Y-94243774D02*
X150782211Y-94383243D01*
X150782211Y-94383243D02*
X150907004Y-94502960D01*
X150907004Y-94502960D02*
X151008474Y-94600970D01*
X151008474Y-94600970D02*
X151084557Y-94675317D01*
X151084557Y-94675317D02*
X151133190Y-94724045D01*
X151133190Y-94724045D02*
X151149581Y-94741613D01*
X151149581Y-94741613D02*
X151207416Y-94819384D01*
X151207416Y-94819384D02*
X151262151Y-94908489D01*
X151262151Y-94908489D02*
X151284284Y-94951718D01*
X151284284Y-94951718D02*
X151305602Y-94998237D01*
X151305602Y-94998237D02*
X151323982Y-95041087D01*
X151323982Y-95041087D02*
X151339642Y-95083660D01*
X151339642Y-95083660D02*
X151352800Y-95129347D01*
X151352800Y-95129347D02*
X151363674Y-95181540D01*
X151363674Y-95181540D02*
X151372482Y-95243631D01*
X151372482Y-95243631D02*
X151379442Y-95319011D01*
X151379442Y-95319011D02*
X151384772Y-95411072D01*
X151384772Y-95411072D02*
X151388690Y-95523206D01*
X151388690Y-95523206D02*
X151391415Y-95658804D01*
X151391415Y-95658804D02*
X151393164Y-95821258D01*
X151393164Y-95821258D02*
X151394156Y-96013960D01*
X151394156Y-96013960D02*
X151394609Y-96240301D01*
X151394609Y-96240301D02*
X151394740Y-96503672D01*
X151394740Y-96503672D02*
X151394755Y-96669633D01*
X151394755Y-96669633D02*
X151394416Y-96970304D01*
X151394416Y-96970304D02*
X151393378Y-97243045D01*
X151393378Y-97243045D02*
X151391668Y-97485882D01*
X151391668Y-97485882D02*
X151389315Y-97696836D01*
X151389315Y-97696836D02*
X151386349Y-97873934D01*
X151386349Y-97873934D02*
X151382798Y-98015198D01*
X151382798Y-98015198D02*
X151378691Y-98118652D01*
X151378691Y-98118652D02*
X151374056Y-98182321D01*
X151374056Y-98182321D02*
X151372628Y-98192995D01*
X151372628Y-98192995D02*
X151337381Y-98329575D01*
X151337381Y-98329575D02*
X151280608Y-98454960D01*
X151280608Y-98454960D02*
X151208606Y-98556564D01*
X151208606Y-98556564D02*
X151173891Y-98590350D01*
X151173891Y-98590350D02*
X151117696Y-98630356D01*
X151117696Y-98630356D02*
X151042707Y-98674448D01*
X151042707Y-98674448D02*
X150993000Y-98699724D01*
X150993000Y-98699724D02*
X150876583Y-98754550D01*
X150876583Y-98754550D02*
X149003333Y-98758758D01*
X149003333Y-98758758D02*
X148671161Y-98759418D01*
X148671161Y-98759418D02*
X148378723Y-98759791D01*
X148378723Y-98759791D02*
X148123420Y-98759840D01*
X148123420Y-98759840D02*
X147902656Y-98759532D01*
X147902656Y-98759532D02*
X147713831Y-98758832D01*
X147713831Y-98758832D02*
X147554346Y-98757705D01*
X147554346Y-98757705D02*
X147421604Y-98756115D01*
X147421604Y-98756115D02*
X147313006Y-98754029D01*
X147313006Y-98754029D02*
X147225954Y-98751411D01*
X147225954Y-98751411D02*
X147157850Y-98748227D01*
X147157850Y-98748227D02*
X147106095Y-98744442D01*
X147106095Y-98744442D02*
X147068090Y-98740020D01*
X147068090Y-98740020D02*
X147041238Y-98734928D01*
X147041238Y-98734928D02*
X147031936Y-98732357D01*
X147031936Y-98732357D02*
X146880484Y-98664399D01*
X146880484Y-98664399D02*
X146755550Y-98563470D01*
X146755550Y-98563470D02*
X146657754Y-98430073D01*
X146657754Y-98430073D02*
X146655047Y-98425215D01*
X146655047Y-98425215D02*
X146579750Y-98288883D01*
X146579750Y-98288883D02*
X146573744Y-96876008D01*
X146573744Y-96876008D02*
X146567739Y-95463133D01*
X146567739Y-95463133D02*
X148072000Y-95463133D01*
X148072000Y-95463133D02*
X148072000Y-97495133D01*
X148072000Y-97495133D02*
X149892333Y-97495133D01*
X149892333Y-97495133D02*
X149892333Y-95554883D01*
X149892333Y-95554883D02*
X148606821Y-94339550D01*
X148606821Y-94339550D02*
X148325853Y-94073801D01*
X148325853Y-94073801D02*
X148074084Y-93835364D01*
X148074084Y-93835364D02*
X147849844Y-93622579D01*
X147849844Y-93622579D02*
X147651464Y-93433784D01*
X147651464Y-93433784D02*
X147477275Y-93267320D01*
X147477275Y-93267320D02*
X147325608Y-93121528D01*
X147325608Y-93121528D02*
X147194795Y-92994746D01*
X147194795Y-92994746D02*
X147083167Y-92885315D01*
X147083167Y-92885315D02*
X146989054Y-92791576D01*
X146989054Y-92791576D02*
X146910788Y-92711867D01*
X146910788Y-92711867D02*
X146846699Y-92644528D01*
X146846699Y-92644528D02*
X146795119Y-92587901D01*
X146795119Y-92587901D02*
X146754379Y-92540324D01*
X146754379Y-92540324D02*
X146722810Y-92500138D01*
X146722810Y-92500138D02*
X146698742Y-92465682D01*
X146698742Y-92465682D02*
X146680508Y-92435297D01*
X146680508Y-92435297D02*
X146668323Y-92411375D01*
X146668323Y-92411375D02*
X146632770Y-92326232D01*
X146632770Y-92326232D02*
X146602454Y-92237054D01*
X146602454Y-92237054D02*
X146589722Y-92188673D01*
X146589722Y-92188673D02*
X146584834Y-92142985D01*
X146584834Y-92142985D02*
X146580749Y-92055738D01*
X146580749Y-92055738D02*
X146577476Y-91927700D01*
X146577476Y-91927700D02*
X146575022Y-91759638D01*
X146575022Y-91759638D02*
X146573395Y-91552320D01*
X146573395Y-91552320D02*
X146572604Y-91306512D01*
X146572604Y-91306512D02*
X146572656Y-91022982D01*
X146572656Y-91022982D02*
X146573560Y-90702497D01*
X146573560Y-90702497D02*
X146573742Y-90657847D01*
X146573742Y-90657847D02*
X146579750Y-89229550D01*
X146579750Y-89229550D02*
X146655047Y-89093217D01*
X146655047Y-89093217D02*
X146728621Y-88982051D01*
X146728621Y-88982051D02*
X146812406Y-88900984D01*
X146812406Y-88900984D02*
X146831643Y-88887077D01*
X146831643Y-88887077D02*
X146864349Y-88864366D01*
X146864349Y-88864366D02*
X146894292Y-88844380D01*
X146894292Y-88844380D02*
X146924254Y-88826944D01*
X146924254Y-88826944D02*
X146957021Y-88811886D01*
X146957021Y-88811886D02*
X146995378Y-88799031D01*
X146995378Y-88799031D02*
X147042107Y-88788205D01*
X147042107Y-88788205D02*
X147099995Y-88779235D01*
X147099995Y-88779235D02*
X147171825Y-88771945D01*
X147171825Y-88771945D02*
X147260382Y-88766163D01*
X147260382Y-88766163D02*
X147368451Y-88761714D01*
X147368451Y-88761714D02*
X147498816Y-88758425D01*
X147498816Y-88758425D02*
X147654262Y-88756122D01*
X147654262Y-88756122D02*
X147837572Y-88754629D01*
X147837572Y-88754629D02*
X148051532Y-88753775D01*
X148051532Y-88753775D02*
X148298926Y-88753384D01*
X148298926Y-88753384D02*
X148582538Y-88753283D01*
X148582538Y-88753283D02*
X148905153Y-88753298D01*
X148905153Y-88753298D02*
X148905153Y-88753298D01*
G36*
X148905153Y-88753298D02*
G01*
X148973195Y-88753300D01*
X149293576Y-88753327D01*
X149574459Y-88753452D01*
X149818680Y-88753733D01*
X150029075Y-88754234D01*
X150208478Y-88755014D01*
X150359727Y-88756134D01*
X150485655Y-88757656D01*
X150589099Y-88759641D01*
X150672895Y-88762150D01*
X150739877Y-88765243D01*
X150792883Y-88768982D01*
X150834746Y-88773428D01*
X150868303Y-88778642D01*
X150896389Y-88784685D01*
X150921841Y-88791617D01*
X150934751Y-88795525D01*
X151083095Y-88861047D01*
X151203388Y-88957924D01*
X151297229Y-89087568D01*
X151322931Y-89138359D01*
X151384583Y-89271883D01*
X151396967Y-91907133D01*
X149892333Y-91907133D01*
X149892333Y-90023300D01*
X148072000Y-90023300D01*
X148075364Y-91833050D01*
X148460209Y-92192883D01*
X148705390Y-92422332D01*
X148949943Y-92651582D01*
X149191804Y-92878677D01*
X149428910Y-93101662D01*
X149659198Y-93318583D01*
X149880605Y-93527483D01*
X150091068Y-93726407D01*
X150288523Y-93913401D01*
X150470907Y-94086508D01*
X150636158Y-94243774D01*
X150782211Y-94383243D01*
X150907004Y-94502960D01*
X151008474Y-94600970D01*
X151084557Y-94675317D01*
X151133190Y-94724045D01*
X151149581Y-94741613D01*
X151207416Y-94819384D01*
X151262151Y-94908489D01*
X151284284Y-94951718D01*
X151305602Y-94998237D01*
X151323982Y-95041087D01*
X151339642Y-95083660D01*
X151352800Y-95129347D01*
X151363674Y-95181540D01*
X151372482Y-95243631D01*
X151379442Y-95319011D01*
X151384772Y-95411072D01*
X151388690Y-95523206D01*
X151391415Y-95658804D01*
X151393164Y-95821258D01*
X151394156Y-96013960D01*
X151394609Y-96240301D01*
X151394740Y-96503672D01*
X151394755Y-96669633D01*
X151394416Y-96970304D01*
X151393378Y-97243045D01*
X151391668Y-97485882D01*
X151389315Y-97696836D01*
X151386349Y-97873934D01*
X151382798Y-98015198D01*
X151378691Y-98118652D01*
X151374056Y-98182321D01*
X151372628Y-98192995D01*
X151337381Y-98329575D01*
X151280608Y-98454960D01*
X151208606Y-98556564D01*
X151173891Y-98590350D01*
X151117696Y-98630356D01*
X151042707Y-98674448D01*
X150993000Y-98699724D01*
X150876583Y-98754550D01*
X149003333Y-98758758D01*
X148671161Y-98759418D01*
X148378723Y-98759791D01*
X148123420Y-98759840D01*
X147902656Y-98759532D01*
X147713831Y-98758832D01*
X147554346Y-98757705D01*
X147421604Y-98756115D01*
X147313006Y-98754029D01*
X147225954Y-98751411D01*
X147157850Y-98748227D01*
X147106095Y-98744442D01*
X147068090Y-98740020D01*
X147041238Y-98734928D01*
X147031936Y-98732357D01*
X146880484Y-98664399D01*
X146755550Y-98563470D01*
X146657754Y-98430073D01*
X146655047Y-98425215D01*
X146579750Y-98288883D01*
X146573744Y-96876008D01*
X146567739Y-95463133D01*
X148072000Y-95463133D01*
X148072000Y-97495133D01*
X149892333Y-97495133D01*
X149892333Y-95554883D01*
X148606821Y-94339550D01*
X148325853Y-94073801D01*
X148074084Y-93835364D01*
X147849844Y-93622579D01*
X147651464Y-93433784D01*
X147477275Y-93267320D01*
X147325608Y-93121528D01*
X147194795Y-92994746D01*
X147083167Y-92885315D01*
X146989054Y-92791576D01*
X146910788Y-92711867D01*
X146846699Y-92644528D01*
X146795119Y-92587901D01*
X146754379Y-92540324D01*
X146722810Y-92500138D01*
X146698742Y-92465682D01*
X146680508Y-92435297D01*
X146668323Y-92411375D01*
X146632770Y-92326232D01*
X146602454Y-92237054D01*
X146589722Y-92188673D01*
X146584834Y-92142985D01*
X146580749Y-92055738D01*
X146577476Y-91927700D01*
X146575022Y-91759638D01*
X146573395Y-91552320D01*
X146572604Y-91306512D01*
X146572656Y-91022982D01*
X146573560Y-90702497D01*
X146573742Y-90657847D01*
X146579750Y-89229550D01*
X146655047Y-89093217D01*
X146728621Y-88982051D01*
X146812406Y-88900984D01*
X146831643Y-88887077D01*
X146864349Y-88864366D01*
X146894292Y-88844380D01*
X146924254Y-88826944D01*
X146957021Y-88811886D01*
X146995378Y-88799031D01*
X147042107Y-88788205D01*
X147099995Y-88779235D01*
X147171825Y-88771945D01*
X147260382Y-88766163D01*
X147368451Y-88761714D01*
X147498816Y-88758425D01*
X147654262Y-88756122D01*
X147837572Y-88754629D01*
X148051532Y-88753775D01*
X148298926Y-88753384D01*
X148582538Y-88753283D01*
X148905153Y-88753298D01*
G37*
X148905153Y-88753298D02*
X148973195Y-88753300D01*
X149293576Y-88753327D01*
X149574459Y-88753452D01*
X149818680Y-88753733D01*
X150029075Y-88754234D01*
X150208478Y-88755014D01*
X150359727Y-88756134D01*
X150485655Y-88757656D01*
X150589099Y-88759641D01*
X150672895Y-88762150D01*
X150739877Y-88765243D01*
X150792883Y-88768982D01*
X150834746Y-88773428D01*
X150868303Y-88778642D01*
X150896389Y-88784685D01*
X150921841Y-88791617D01*
X150934751Y-88795525D01*
X151083095Y-88861047D01*
X151203388Y-88957924D01*
X151297229Y-89087568D01*
X151322931Y-89138359D01*
X151384583Y-89271883D01*
X151396967Y-91907133D01*
X149892333Y-91907133D01*
X149892333Y-90023300D01*
X148072000Y-90023300D01*
X148075364Y-91833050D01*
X148460209Y-92192883D01*
X148705390Y-92422332D01*
X148949943Y-92651582D01*
X149191804Y-92878677D01*
X149428910Y-93101662D01*
X149659198Y-93318583D01*
X149880605Y-93527483D01*
X150091068Y-93726407D01*
X150288523Y-93913401D01*
X150470907Y-94086508D01*
X150636158Y-94243774D01*
X150782211Y-94383243D01*
X150907004Y-94502960D01*
X151008474Y-94600970D01*
X151084557Y-94675317D01*
X151133190Y-94724045D01*
X151149581Y-94741613D01*
X151207416Y-94819384D01*
X151262151Y-94908489D01*
X151284284Y-94951718D01*
X151305602Y-94998237D01*
X151323982Y-95041087D01*
X151339642Y-95083660D01*
X151352800Y-95129347D01*
X151363674Y-95181540D01*
X151372482Y-95243631D01*
X151379442Y-95319011D01*
X151384772Y-95411072D01*
X151388690Y-95523206D01*
X151391415Y-95658804D01*
X151393164Y-95821258D01*
X151394156Y-96013960D01*
X151394609Y-96240301D01*
X151394740Y-96503672D01*
X151394755Y-96669633D01*
X151394416Y-96970304D01*
X151393378Y-97243045D01*
X151391668Y-97485882D01*
X151389315Y-97696836D01*
X151386349Y-97873934D01*
X151382798Y-98015198D01*
X151378691Y-98118652D01*
X151374056Y-98182321D01*
X151372628Y-98192995D01*
X151337381Y-98329575D01*
X151280608Y-98454960D01*
X151208606Y-98556564D01*
X151173891Y-98590350D01*
X151117696Y-98630356D01*
X151042707Y-98674448D01*
X150993000Y-98699724D01*
X150876583Y-98754550D01*
X149003333Y-98758758D01*
X148671161Y-98759418D01*
X148378723Y-98759791D01*
X148123420Y-98759840D01*
X147902656Y-98759532D01*
X147713831Y-98758832D01*
X147554346Y-98757705D01*
X147421604Y-98756115D01*
X147313006Y-98754029D01*
X147225954Y-98751411D01*
X147157850Y-98748227D01*
X147106095Y-98744442D01*
X147068090Y-98740020D01*
X147041238Y-98734928D01*
X147031936Y-98732357D01*
X146880484Y-98664399D01*
X146755550Y-98563470D01*
X146657754Y-98430073D01*
X146655047Y-98425215D01*
X146579750Y-98288883D01*
X146573744Y-96876008D01*
X146567739Y-95463133D01*
X148072000Y-95463133D01*
X148072000Y-97495133D01*
X149892333Y-97495133D01*
X149892333Y-95554883D01*
X148606821Y-94339550D01*
X148325853Y-94073801D01*
X148074084Y-93835364D01*
X147849844Y-93622579D01*
X147651464Y-93433784D01*
X147477275Y-93267320D01*
X147325608Y-93121528D01*
X147194795Y-92994746D01*
X147083167Y-92885315D01*
X146989054Y-92791576D01*
X146910788Y-92711867D01*
X146846699Y-92644528D01*
X146795119Y-92587901D01*
X146754379Y-92540324D01*
X146722810Y-92500138D01*
X146698742Y-92465682D01*
X146680508Y-92435297D01*
X146668323Y-92411375D01*
X146632770Y-92326232D01*
X146602454Y-92237054D01*
X146589722Y-92188673D01*
X146584834Y-92142985D01*
X146580749Y-92055738D01*
X146577476Y-91927700D01*
X146575022Y-91759638D01*
X146573395Y-91552320D01*
X146572604Y-91306512D01*
X146572656Y-91022982D01*
X146573560Y-90702497D01*
X146573742Y-90657847D01*
X146579750Y-89229550D01*
X146655047Y-89093217D01*
X146728621Y-88982051D01*
X146812406Y-88900984D01*
X146831643Y-88887077D01*
X146864349Y-88864366D01*
X146894292Y-88844380D01*
X146924254Y-88826944D01*
X146957021Y-88811886D01*
X146995378Y-88799031D01*
X147042107Y-88788205D01*
X147099995Y-88779235D01*
X147171825Y-88771945D01*
X147260382Y-88766163D01*
X147368451Y-88761714D01*
X147498816Y-88758425D01*
X147654262Y-88756122D01*
X147837572Y-88754629D01*
X148051532Y-88753775D01*
X148298926Y-88753384D01*
X148582538Y-88753283D01*
X148905153Y-88753298D01*
X154504763Y-88896175D02*
X154532607Y-88991216D01*
X154532607Y-88991216D02*
X154569839Y-89119595D01*
X154569839Y-89119595D02*
X154615588Y-89278237D01*
X154615588Y-89278237D02*
X154668980Y-89464065D01*
X154668980Y-89464065D02*
X154729143Y-89674006D01*
X154729143Y-89674006D02*
X154795203Y-89904981D01*
X154795203Y-89904981D02*
X154866288Y-90153917D01*
X154866288Y-90153917D02*
X154941525Y-90417737D01*
X154941525Y-90417737D02*
X155020040Y-90693366D01*
X155020040Y-90693366D02*
X155100962Y-90977727D01*
X155100962Y-90977727D02*
X155183417Y-91267747D01*
X155183417Y-91267747D02*
X155266533Y-91560348D01*
X155266533Y-91560348D02*
X155349436Y-91852455D01*
X155349436Y-91852455D02*
X155431253Y-92140993D01*
X155431253Y-92140993D02*
X155511113Y-92422885D01*
X155511113Y-92422885D02*
X155588141Y-92695057D01*
X155588141Y-92695057D02*
X155661466Y-92954433D01*
X155661466Y-92954433D02*
X155730213Y-93197936D01*
X155730213Y-93197936D02*
X155793511Y-93422492D01*
X155793511Y-93422492D02*
X155850486Y-93625025D01*
X155850486Y-93625025D02*
X155900266Y-93802458D01*
X155900266Y-93802458D02*
X155941977Y-93951717D01*
X155941977Y-93951717D02*
X155974748Y-94069726D01*
X155974748Y-94069726D02*
X155997704Y-94153409D01*
X155997704Y-94153409D02*
X156009973Y-94199690D01*
X156009973Y-94199690D02*
X156010435Y-94201554D01*
X156010435Y-94201554D02*
X156034764Y-94298845D01*
X156034764Y-94298845D02*
X156055948Y-94380027D01*
X156055948Y-94380027D02*
X156071780Y-94436886D01*
X156071780Y-94436886D02*
X156080054Y-94461204D01*
X156080054Y-94461204D02*
X156080229Y-94461418D01*
X156080229Y-94461418D02*
X156087650Y-94447837D01*
X156087650Y-94447837D02*
X156097026Y-94404217D01*
X156097026Y-94404217D02*
X156100950Y-94378913D01*
X156100950Y-94378913D02*
X156105767Y-94350689D01*
X156105767Y-94350689D02*
X156113999Y-94311584D01*
X156113999Y-94311584D02*
X156126162Y-94259746D01*
X156126162Y-94259746D02*
X156142774Y-94193321D01*
X156142774Y-94193321D02*
X156164351Y-94110457D01*
X156164351Y-94110457D02*
X156191411Y-94009300D01*
X156191411Y-94009300D02*
X156224470Y-93887997D01*
X156224470Y-93887997D02*
X156264045Y-93744695D01*
X156264045Y-93744695D02*
X156310653Y-93577541D01*
X156310653Y-93577541D02*
X156364810Y-93384682D01*
X156364810Y-93384682D02*
X156427035Y-93164265D01*
X156427035Y-93164265D02*
X156474880Y-92995452D01*
X156474880Y-92995452D02*
X157704504Y-92995452D01*
X157704504Y-92995452D02*
X157708396Y-93022906D01*
X157708396Y-93022906D02*
X157715621Y-93023234D01*
X157715621Y-93023234D02*
X157720674Y-92994904D01*
X157720674Y-92994904D02*
X157717292Y-92982664D01*
X157717292Y-92982664D02*
X157707893Y-92974647D01*
X157707893Y-92974647D02*
X157704504Y-92995452D01*
X157704504Y-92995452D02*
X156474880Y-92995452D01*
X156474880Y-92995452D02*
X156497843Y-92914435D01*
X156497843Y-92914435D02*
X156577751Y-92633341D01*
X156577751Y-92633341D02*
X156667277Y-92319130D01*
X156667277Y-92319130D02*
X156766937Y-91969947D01*
X156766937Y-91969947D02*
X156877248Y-91583940D01*
X156877248Y-91583940D02*
X156998727Y-91159256D01*
X156998727Y-91159256D02*
X157008826Y-91123966D01*
X157008826Y-91123966D02*
X157095505Y-90821061D01*
X157095505Y-90821061D02*
X157179020Y-90529195D01*
X157179020Y-90529195D02*
X157258622Y-90250986D01*
X157258622Y-90250986D02*
X157333561Y-89989055D01*
X157333561Y-89989055D02*
X157403087Y-89746023D01*
X157403087Y-89746023D02*
X157466452Y-89524508D01*
X157466452Y-89524508D02*
X157522906Y-89327131D01*
X157522906Y-89327131D02*
X157571700Y-89156513D01*
X157571700Y-89156513D02*
X157612084Y-89015272D01*
X157612084Y-89015272D02*
X157643308Y-88906029D01*
X157643308Y-88906029D02*
X157664624Y-88831405D01*
X157664624Y-88831405D02*
X157675281Y-88794018D01*
X157675281Y-88794018D02*
X157676320Y-88790341D01*
X157676320Y-88790341D02*
X157681596Y-88780337D01*
X157681596Y-88780337D02*
X157694095Y-88772307D01*
X157694095Y-88772307D02*
X157718042Y-88766036D01*
X157718042Y-88766036D02*
X157757658Y-88761309D01*
X157757658Y-88761309D02*
X157817166Y-88757911D01*
X157817166Y-88757911D02*
X157900789Y-88755628D01*
X157900789Y-88755628D02*
X158012751Y-88754243D01*
X158012751Y-88754243D02*
X158157273Y-88753542D01*
X158157273Y-88753542D02*
X158338578Y-88753310D01*
X158338578Y-88753310D02*
X158403802Y-88753300D01*
X158403802Y-88753300D02*
X159121000Y-88753300D01*
X159121000Y-88753300D02*
X159121000Y-98765133D01*
X159121000Y-98765133D02*
X157660500Y-98765133D01*
X157660500Y-98765133D02*
X157660689Y-96262175D01*
X157660689Y-96262175D02*
X157660898Y-95916339D01*
X157660898Y-95916339D02*
X157661457Y-95580694D01*
X157661457Y-95580694D02*
X157662345Y-95258124D01*
X157662345Y-95258124D02*
X157663541Y-94951514D01*
X157663541Y-94951514D02*
X157665022Y-94663747D01*
X157665022Y-94663747D02*
X157666767Y-94397708D01*
X157666767Y-94397708D02*
X157668755Y-94156282D01*
X157668755Y-94156282D02*
X157670964Y-93942353D01*
X157670964Y-93942353D02*
X157673373Y-93758805D01*
X157673373Y-93758805D02*
X157675959Y-93608522D01*
X157675959Y-93608522D02*
X157678702Y-93494390D01*
X157678702Y-93494390D02*
X157681579Y-93419292D01*
X157681579Y-93419292D02*
X157682002Y-93411877D01*
X157682002Y-93411877D02*
X157688669Y-93295475D01*
X157688669Y-93295475D02*
X157693650Y-93194833D01*
X157693650Y-93194833D02*
X157696653Y-93117106D01*
X157696653Y-93117106D02*
X157697389Y-93069447D01*
X157697389Y-93069447D02*
X157696394Y-93057805D01*
X157696394Y-93057805D02*
X157690108Y-93076940D01*
X157690108Y-93076940D02*
X157673818Y-93135821D01*
X157673818Y-93135821D02*
X157647861Y-93233139D01*
X157647861Y-93233139D02*
X157612570Y-93367590D01*
X157612570Y-93367590D02*
X157568282Y-93537865D01*
X157568282Y-93537865D02*
X157515331Y-93742660D01*
X157515331Y-93742660D02*
X157454053Y-93980666D01*
X157454053Y-93980666D02*
X157384783Y-94250579D01*
X157384783Y-94250579D02*
X157307855Y-94551090D01*
X157307855Y-94551090D02*
X157223606Y-94880894D01*
X157223606Y-94880894D02*
X157132371Y-95238684D01*
X157132371Y-95238684D02*
X157034484Y-95623153D01*
X157034484Y-95623153D02*
X156930281Y-96032996D01*
X156930281Y-96032996D02*
X156820096Y-96466904D01*
X156820096Y-96466904D02*
X156704266Y-96923573D01*
X156704266Y-96923573D02*
X156673402Y-97045341D01*
X156673402Y-97045341D02*
X156468217Y-97854966D01*
X156468217Y-97854966D02*
X155693631Y-97854966D01*
X155693631Y-97854966D02*
X155672451Y-97775591D01*
X155672451Y-97775591D02*
X155663630Y-97741720D01*
X155663630Y-97741720D02*
X155645181Y-97670225D01*
X155645181Y-97670225D02*
X155617970Y-97564492D01*
X155617970Y-97564492D02*
X155582867Y-97427908D01*
X155582867Y-97427908D02*
X155540738Y-97263859D01*
X155540738Y-97263859D02*
X155492453Y-97075734D01*
X155492453Y-97075734D02*
X155438878Y-96866918D01*
X155438878Y-96866918D02*
X155380882Y-96640798D01*
X155380882Y-96640798D02*
X155319333Y-96400761D01*
X155319333Y-96400761D02*
X155255099Y-96150194D01*
X155255099Y-96150194D02*
X155189047Y-95892483D01*
X155189047Y-95892483D02*
X155122046Y-95631016D01*
X155122046Y-95631016D02*
X155054963Y-95369179D01*
X155054963Y-95369179D02*
X154988667Y-95110359D01*
X154988667Y-95110359D02*
X154924025Y-94857942D01*
X154924025Y-94857942D02*
X154861906Y-94615316D01*
X154861906Y-94615316D02*
X154803176Y-94385868D01*
X154803176Y-94385868D02*
X154748705Y-94172984D01*
X154748705Y-94172984D02*
X154699360Y-93980050D01*
X154699360Y-93980050D02*
X154656010Y-93810455D01*
X154656010Y-93810455D02*
X154619521Y-93667583D01*
X154619521Y-93667583D02*
X154590762Y-93554824D01*
X154590762Y-93554824D02*
X154586890Y-93539623D01*
X154586890Y-93539623D02*
X154550934Y-93400470D01*
X154550934Y-93400470D02*
X154518122Y-93277363D01*
X154518122Y-93277363D02*
X154489911Y-93175461D01*
X154489911Y-93175461D02*
X154467760Y-93099924D01*
X154467760Y-93099924D02*
X154453128Y-93055912D01*
X154453128Y-93055912D02*
X154447686Y-93047156D01*
X154447686Y-93047156D02*
X154446616Y-93077642D01*
X154446616Y-93077642D02*
X154450450Y-93138977D01*
X154450450Y-93138977D02*
X154458395Y-93220062D01*
X154458395Y-93220062D02*
X154462623Y-93256166D01*
X154462623Y-93256166D02*
X154466612Y-93311392D01*
X154466612Y-93311392D02*
X154470220Y-93408866D01*
X154470220Y-93408866D02*
X154473446Y-93548505D01*
X154473446Y-93548505D02*
X154476290Y-93730227D01*
X154476290Y-93730227D02*
X154478751Y-93953948D01*
X154478751Y-93953948D02*
X154480828Y-94219585D01*
X154480828Y-94219585D02*
X154482521Y-94527056D01*
X154482521Y-94527056D02*
X154483829Y-94876276D01*
X154483829Y-94876276D02*
X154484752Y-95267164D01*
X154484752Y-95267164D02*
X154485288Y-95699635D01*
X154485288Y-95699635D02*
X154485440Y-96103425D01*
X154485440Y-96103425D02*
X154485500Y-98765133D01*
X154485500Y-98765133D02*
X153025000Y-98765133D01*
X153025000Y-98765133D02*
X153025000Y-92965466D01*
X153025000Y-92965466D02*
X154422000Y-92965466D01*
X154422000Y-92965466D02*
X154429744Y-92982889D01*
X154429744Y-92982889D02*
X154436111Y-92979577D01*
X154436111Y-92979577D02*
X154438644Y-92954457D01*
X154438644Y-92954457D02*
X154436111Y-92951355D01*
X154436111Y-92951355D02*
X154423527Y-92954261D01*
X154423527Y-92954261D02*
X154422000Y-92965466D01*
X154422000Y-92965466D02*
X153025000Y-92965466D01*
X153025000Y-92965466D02*
X153025000Y-88753300D01*
X153025000Y-88753300D02*
X154462540Y-88753300D01*
X154462540Y-88753300D02*
X154504763Y-88896175D01*
X154504763Y-88896175D02*
X154504763Y-88896175D01*
G36*
X156577751Y-92633341D02*
G01*
X156667277Y-92319130D01*
X156766937Y-91969947D01*
X156877248Y-91583940D01*
X156998727Y-91159256D01*
X157008826Y-91123966D01*
X157095505Y-90821061D01*
X157179020Y-90529195D01*
X157258622Y-90250986D01*
X157333561Y-89989055D01*
X157403087Y-89746023D01*
X157466452Y-89524508D01*
X157522906Y-89327131D01*
X157571700Y-89156513D01*
X157612084Y-89015272D01*
X157643308Y-88906029D01*
X157664624Y-88831405D01*
X157675281Y-88794018D01*
X157676320Y-88790341D01*
X157681596Y-88780337D01*
X157694095Y-88772307D01*
X157718042Y-88766036D01*
X157757658Y-88761309D01*
X157817166Y-88757911D01*
X157900789Y-88755628D01*
X158012751Y-88754243D01*
X158157273Y-88753542D01*
X158338578Y-88753310D01*
X158403802Y-88753300D01*
X159121000Y-88753300D01*
X159121000Y-98765133D01*
X157660500Y-98765133D01*
X157660689Y-96262175D01*
X157660898Y-95916339D01*
X157661457Y-95580694D01*
X157662345Y-95258124D01*
X157663541Y-94951514D01*
X157665022Y-94663747D01*
X157666767Y-94397708D01*
X157668755Y-94156282D01*
X157670964Y-93942353D01*
X157673373Y-93758805D01*
X157675959Y-93608522D01*
X157678702Y-93494390D01*
X157681579Y-93419292D01*
X157682002Y-93411877D01*
X157688669Y-93295475D01*
X157693650Y-93194833D01*
X157696653Y-93117106D01*
X157697389Y-93069447D01*
X157696394Y-93057805D01*
X157690108Y-93076940D01*
X157673818Y-93135821D01*
X157647861Y-93233139D01*
X157612570Y-93367590D01*
X157568282Y-93537865D01*
X157515331Y-93742660D01*
X157454053Y-93980666D01*
X157384783Y-94250579D01*
X157307855Y-94551090D01*
X157223606Y-94880894D01*
X157132371Y-95238684D01*
X157034484Y-95623153D01*
X156930281Y-96032996D01*
X156820096Y-96466904D01*
X156704266Y-96923573D01*
X156673402Y-97045341D01*
X156468217Y-97854966D01*
X155693631Y-97854966D01*
X155672451Y-97775591D01*
X155663630Y-97741720D01*
X155645181Y-97670225D01*
X155617970Y-97564492D01*
X155582867Y-97427908D01*
X155540738Y-97263859D01*
X155492453Y-97075734D01*
X155438878Y-96866918D01*
X155380882Y-96640798D01*
X155319333Y-96400761D01*
X155255099Y-96150194D01*
X155189047Y-95892483D01*
X155122046Y-95631016D01*
X155054963Y-95369179D01*
X154988667Y-95110359D01*
X154924025Y-94857942D01*
X154861906Y-94615316D01*
X154803176Y-94385868D01*
X154748705Y-94172984D01*
X154699360Y-93980050D01*
X154656010Y-93810455D01*
X154619521Y-93667583D01*
X154590762Y-93554824D01*
X154586890Y-93539623D01*
X154550934Y-93400470D01*
X154518122Y-93277363D01*
X154489911Y-93175461D01*
X154467760Y-93099924D01*
X154453128Y-93055912D01*
X154447686Y-93047156D01*
X154446616Y-93077642D01*
X154450450Y-93138977D01*
X154458395Y-93220062D01*
X154462623Y-93256166D01*
X154466612Y-93311392D01*
X154470220Y-93408866D01*
X154473446Y-93548505D01*
X154476290Y-93730227D01*
X154478751Y-93953948D01*
X154480828Y-94219585D01*
X154482521Y-94527056D01*
X154483829Y-94876276D01*
X154484752Y-95267164D01*
X154485288Y-95699635D01*
X154485440Y-96103425D01*
X154485500Y-98765133D01*
X153025000Y-98765133D01*
X153025000Y-92965466D01*
X154422000Y-92965466D01*
X154429744Y-92982889D01*
X154436111Y-92979577D01*
X154438644Y-92954457D01*
X154436111Y-92951355D01*
X154423527Y-92954261D01*
X154422000Y-92965466D01*
X153025000Y-92965466D01*
X153025000Y-88753300D01*
X154462540Y-88753300D01*
X154504763Y-88896175D01*
X154532607Y-88991216D01*
X154569839Y-89119595D01*
X154615588Y-89278237D01*
X154668980Y-89464065D01*
X154729143Y-89674006D01*
X154795203Y-89904981D01*
X154866288Y-90153917D01*
X154941525Y-90417737D01*
X155020040Y-90693366D01*
X155100962Y-90977727D01*
X155183417Y-91267747D01*
X155266533Y-91560348D01*
X155349436Y-91852455D01*
X155431253Y-92140993D01*
X155511113Y-92422885D01*
X155588141Y-92695057D01*
X155661466Y-92954433D01*
X155730213Y-93197936D01*
X155793511Y-93422492D01*
X155850486Y-93625025D01*
X155900266Y-93802458D01*
X155941977Y-93951717D01*
X155974748Y-94069726D01*
X155997704Y-94153409D01*
X156009973Y-94199690D01*
X156010435Y-94201554D01*
X156034764Y-94298845D01*
X156055948Y-94380027D01*
X156071780Y-94436886D01*
X156080054Y-94461204D01*
X156080229Y-94461418D01*
X156087650Y-94447837D01*
X156097026Y-94404217D01*
X156100950Y-94378913D01*
X156105767Y-94350689D01*
X156113999Y-94311584D01*
X156126162Y-94259746D01*
X156142774Y-94193321D01*
X156164351Y-94110457D01*
X156191411Y-94009300D01*
X156224470Y-93887997D01*
X156264045Y-93744695D01*
X156310653Y-93577541D01*
X156364810Y-93384682D01*
X156427035Y-93164265D01*
X156474880Y-92995452D01*
X157704504Y-92995452D01*
X157708396Y-93022906D01*
X157715621Y-93023234D01*
X157720674Y-92994904D01*
X157717292Y-92982664D01*
X157707893Y-92974647D01*
X157704504Y-92995452D01*
X156474880Y-92995452D01*
X156497843Y-92914435D01*
X156577751Y-92633341D01*
G37*
X156577751Y-92633341D02*
X156667277Y-92319130D01*
X156766937Y-91969947D01*
X156877248Y-91583940D01*
X156998727Y-91159256D01*
X157008826Y-91123966D01*
X157095505Y-90821061D01*
X157179020Y-90529195D01*
X157258622Y-90250986D01*
X157333561Y-89989055D01*
X157403087Y-89746023D01*
X157466452Y-89524508D01*
X157522906Y-89327131D01*
X157571700Y-89156513D01*
X157612084Y-89015272D01*
X157643308Y-88906029D01*
X157664624Y-88831405D01*
X157675281Y-88794018D01*
X157676320Y-88790341D01*
X157681596Y-88780337D01*
X157694095Y-88772307D01*
X157718042Y-88766036D01*
X157757658Y-88761309D01*
X157817166Y-88757911D01*
X157900789Y-88755628D01*
X158012751Y-88754243D01*
X158157273Y-88753542D01*
X158338578Y-88753310D01*
X158403802Y-88753300D01*
X159121000Y-88753300D01*
X159121000Y-98765133D01*
X157660500Y-98765133D01*
X157660689Y-96262175D01*
X157660898Y-95916339D01*
X157661457Y-95580694D01*
X157662345Y-95258124D01*
X157663541Y-94951514D01*
X157665022Y-94663747D01*
X157666767Y-94397708D01*
X157668755Y-94156282D01*
X157670964Y-93942353D01*
X157673373Y-93758805D01*
X157675959Y-93608522D01*
X157678702Y-93494390D01*
X157681579Y-93419292D01*
X157682002Y-93411877D01*
X157688669Y-93295475D01*
X157693650Y-93194833D01*
X157696653Y-93117106D01*
X157697389Y-93069447D01*
X157696394Y-93057805D01*
X157690108Y-93076940D01*
X157673818Y-93135821D01*
X157647861Y-93233139D01*
X157612570Y-93367590D01*
X157568282Y-93537865D01*
X157515331Y-93742660D01*
X157454053Y-93980666D01*
X157384783Y-94250579D01*
X157307855Y-94551090D01*
X157223606Y-94880894D01*
X157132371Y-95238684D01*
X157034484Y-95623153D01*
X156930281Y-96032996D01*
X156820096Y-96466904D01*
X156704266Y-96923573D01*
X156673402Y-97045341D01*
X156468217Y-97854966D01*
X155693631Y-97854966D01*
X155672451Y-97775591D01*
X155663630Y-97741720D01*
X155645181Y-97670225D01*
X155617970Y-97564492D01*
X155582867Y-97427908D01*
X155540738Y-97263859D01*
X155492453Y-97075734D01*
X155438878Y-96866918D01*
X155380882Y-96640798D01*
X155319333Y-96400761D01*
X155255099Y-96150194D01*
X155189047Y-95892483D01*
X155122046Y-95631016D01*
X155054963Y-95369179D01*
X154988667Y-95110359D01*
X154924025Y-94857942D01*
X154861906Y-94615316D01*
X154803176Y-94385868D01*
X154748705Y-94172984D01*
X154699360Y-93980050D01*
X154656010Y-93810455D01*
X154619521Y-93667583D01*
X154590762Y-93554824D01*
X154586890Y-93539623D01*
X154550934Y-93400470D01*
X154518122Y-93277363D01*
X154489911Y-93175461D01*
X154467760Y-93099924D01*
X154453128Y-93055912D01*
X154447686Y-93047156D01*
X154446616Y-93077642D01*
X154450450Y-93138977D01*
X154458395Y-93220062D01*
X154462623Y-93256166D01*
X154466612Y-93311392D01*
X154470220Y-93408866D01*
X154473446Y-93548505D01*
X154476290Y-93730227D01*
X154478751Y-93953948D01*
X154480828Y-94219585D01*
X154482521Y-94527056D01*
X154483829Y-94876276D01*
X154484752Y-95267164D01*
X154485288Y-95699635D01*
X154485440Y-96103425D01*
X154485500Y-98765133D01*
X153025000Y-98765133D01*
X153025000Y-92965466D01*
X154422000Y-92965466D01*
X154429744Y-92982889D01*
X154436111Y-92979577D01*
X154438644Y-92954457D01*
X154436111Y-92951355D01*
X154423527Y-92954261D01*
X154422000Y-92965466D01*
X153025000Y-92965466D01*
X153025000Y-88753300D01*
X154462540Y-88753300D01*
X154504763Y-88896175D01*
X154532607Y-88991216D01*
X154569839Y-89119595D01*
X154615588Y-89278237D01*
X154668980Y-89464065D01*
X154729143Y-89674006D01*
X154795203Y-89904981D01*
X154866288Y-90153917D01*
X154941525Y-90417737D01*
X155020040Y-90693366D01*
X155100962Y-90977727D01*
X155183417Y-91267747D01*
X155266533Y-91560348D01*
X155349436Y-91852455D01*
X155431253Y-92140993D01*
X155511113Y-92422885D01*
X155588141Y-92695057D01*
X155661466Y-92954433D01*
X155730213Y-93197936D01*
X155793511Y-93422492D01*
X155850486Y-93625025D01*
X155900266Y-93802458D01*
X155941977Y-93951717D01*
X155974748Y-94069726D01*
X155997704Y-94153409D01*
X156009973Y-94199690D01*
X156010435Y-94201554D01*
X156034764Y-94298845D01*
X156055948Y-94380027D01*
X156071780Y-94436886D01*
X156080054Y-94461204D01*
X156080229Y-94461418D01*
X156087650Y-94447837D01*
X156097026Y-94404217D01*
X156100950Y-94378913D01*
X156105767Y-94350689D01*
X156113999Y-94311584D01*
X156126162Y-94259746D01*
X156142774Y-94193321D01*
X156164351Y-94110457D01*
X156191411Y-94009300D01*
X156224470Y-93887997D01*
X156264045Y-93744695D01*
X156310653Y-93577541D01*
X156364810Y-93384682D01*
X156427035Y-93164265D01*
X156474880Y-92995452D01*
X157704504Y-92995452D01*
X157708396Y-93022906D01*
X157715621Y-93023234D01*
X157720674Y-92994904D01*
X157717292Y-92982664D01*
X157707893Y-92974647D01*
X157704504Y-92995452D01*
X156474880Y-92995452D01*
X156497843Y-92914435D01*
X156577751Y-92633341D01*
%TD*%
M02*
