%TF.GenerationSoftware,KiCad,Pcbnew,(5.99.0-9526-g5c17ff0595)*%
%TF.CreationDate,2021-09-22T22:50:55-05:00*%
%TF.ProjectId,SecDSM_Learn,53656344-534d-45f4-9c65-61726e2e6b69,rev?*%
%TF.SameCoordinates,Original*%
%TF.FileFunction,Profile,NP*%
%FSLAX46Y46*%
G04 Gerber Fmt 4.6, Leading zero omitted, Abs format (unit mm)*
G04 Created by KiCad (PCBNEW (5.99.0-9526-g5c17ff0595)) date 2021-09-22 22:50:55*
%MOMM*%
%LPD*%
G01*
G04 APERTURE LIST*
%TA.AperFunction,Profile*%
%ADD10C,0.150000*%
%TD*%
%TA.AperFunction,Profile*%
%ADD11C,0.100000*%
%TD*%
G04 APERTURE END LIST*
D10*
X126682230Y-85408300D02*
X129461280Y-85416500D01*
D11*
X129461280Y-85416500D02*
X129461280Y-84913500D01*
X129461280Y-84913500D02*
X129461280Y-84410400D01*
X129461280Y-84410400D02*
X129929170Y-84418900D01*
X129929170Y-84418900D02*
X130397070Y-84427400D01*
X130397070Y-84427400D02*
X130388670Y-83285300D01*
X130388670Y-83285300D02*
X130380270Y-82143200D01*
X130380270Y-82143200D02*
X131775100Y-82140100D01*
X131775100Y-82140100D02*
X133170000Y-82137000D01*
X133170000Y-82137000D02*
X133173100Y-80675000D01*
X133173100Y-80675000D02*
X133176200Y-79213000D01*
X133176200Y-79213000D02*
X134057800Y-79213000D01*
X134057800Y-79213000D02*
X134939500Y-79213000D01*
X134939500Y-79213000D02*
X134951400Y-79154800D01*
X134951400Y-79154800D02*
X135015900Y-78793100D01*
X135015900Y-78793100D02*
X135068400Y-78489700D01*
X135068400Y-78489700D02*
X136261600Y-78489700D01*
X136261600Y-78489700D02*
X137454800Y-78489700D01*
X137454800Y-78489700D02*
X137454800Y-78980100D01*
X137454800Y-78980100D02*
X137454800Y-79470500D01*
X137454800Y-79470500D02*
X137869800Y-79470500D01*
X137869800Y-79470500D02*
X138360200Y-79478400D01*
X138360200Y-79478400D02*
X138435500Y-79486300D01*
X138435500Y-79486300D02*
X138438600Y-80989500D01*
X138438600Y-80989500D02*
X138441700Y-82492600D01*
X138441700Y-82492600D02*
X138965800Y-82495800D01*
X138965800Y-82495800D02*
X139489900Y-82499000D01*
X139489900Y-82499000D02*
X139490600Y-79645400D01*
X139490600Y-79645400D02*
X139491200Y-76791790D01*
X139491200Y-76791790D02*
X139724000Y-76595630D01*
X139724000Y-76595630D02*
X139982200Y-76372650D01*
X139982200Y-76372650D02*
X140007700Y-76345820D01*
X140007700Y-76345820D02*
X139962000Y-76026110D01*
X139962000Y-76026110D02*
X139928400Y-75766260D01*
X139928400Y-75766260D02*
X139931500Y-75688120D01*
X139931500Y-75688120D02*
X140714900Y-75045950D01*
X140714900Y-75045950D02*
X141499500Y-74402390D01*
X141499500Y-74402390D02*
X141528100Y-74382720D01*
X141528100Y-74382720D02*
X141715100Y-74512300D01*
X141715100Y-74512300D02*
X142381700Y-75025370D01*
X142381700Y-75025370D02*
X143091300Y-75571520D01*
X143091300Y-75571520D02*
X143180100Y-75643930D01*
X143180100Y-75643930D02*
X143137300Y-75976500D01*
X143137300Y-75976500D02*
X143094500Y-76322530D01*
X143094500Y-76322530D02*
X143339500Y-76540450D01*
X143339500Y-76540450D02*
X143584700Y-76737230D01*
X143584700Y-76737230D02*
X143586500Y-77561400D01*
X143586500Y-77561400D02*
X143595700Y-81646700D01*
X143595700Y-81646700D02*
X143603100Y-84907800D01*
X143603100Y-84907800D02*
X144072100Y-84911000D01*
X144072100Y-84911000D02*
X144541300Y-84911000D01*
X144541300Y-84911000D02*
X144602100Y-77849180D01*
X144602100Y-77849180D02*
X144602300Y-77545750D01*
X144602300Y-77545750D02*
X145080400Y-77545750D01*
X145080400Y-77545750D02*
X145558500Y-77545750D01*
X145558500Y-77545750D02*
X145558500Y-77012440D01*
X145558500Y-77012440D02*
X145558500Y-76479140D01*
X145558500Y-76479140D02*
X146766100Y-76479140D01*
X146766100Y-76479140D02*
X147973700Y-76479140D01*
X147973700Y-76479140D02*
X147973700Y-77030830D01*
X147973700Y-77030830D02*
X147973700Y-77582530D01*
X147973700Y-77582530D02*
X149248800Y-77582530D01*
X149248800Y-77582530D02*
X150523800Y-77582530D01*
X150523800Y-77582530D02*
X150523500Y-78069860D01*
X150523500Y-78069860D02*
X150505400Y-80941700D01*
X150505400Y-80941700D02*
X150487300Y-83474500D01*
X150487300Y-83474500D02*
X150487100Y-83622800D01*
X150487100Y-83622800D02*
X150778200Y-83630800D01*
X150778200Y-83630800D02*
X151401500Y-83646900D01*
X151401500Y-83646900D02*
X151733600Y-83655000D01*
X151733600Y-83655000D02*
X151741600Y-84537700D01*
X151741600Y-84537700D02*
X151756900Y-85427700D01*
X151756900Y-85427700D02*
X153358800Y-85434900D01*
X153358800Y-85434900D02*
X154954400Y-85437900D01*
X154954400Y-85437900D02*
X155000400Y-85277700D01*
X155000400Y-85277700D02*
X155068100Y-85124000D01*
X155068100Y-85124000D02*
X155159900Y-84980900D01*
X155159900Y-84980900D02*
X155278400Y-84852500D01*
X155278400Y-84852500D02*
X155426200Y-84742700D01*
X155426200Y-84742700D02*
X155605800Y-84655500D01*
X155605800Y-84655500D02*
X155819700Y-84595200D01*
X155819700Y-84595200D02*
X156070500Y-84565600D01*
X156070500Y-84565600D02*
X156297300Y-84565400D01*
X156297300Y-84565400D02*
X156529400Y-84607300D01*
X156529400Y-84607300D02*
X156757500Y-84694700D01*
X156757500Y-84694700D02*
X156972200Y-84831000D01*
X156972200Y-84831000D02*
X157164100Y-85019800D01*
X157164100Y-85019800D02*
X157248600Y-85134900D01*
X157248600Y-85134900D02*
X157323900Y-85264500D01*
X157323900Y-85264500D02*
X157388800Y-85408900D01*
X157388800Y-85408900D02*
X157442200Y-85568500D01*
X157442200Y-85568500D02*
X157482800Y-85744000D01*
X157482800Y-85744000D02*
X157509600Y-85935500D01*
X157509600Y-85935500D02*
X159039400Y-85931800D01*
X159039400Y-85931800D02*
X159345900Y-85956100D01*
X159345900Y-85956100D02*
X159624300Y-86033900D01*
X159624300Y-86033900D02*
X159872200Y-86161900D01*
X159872200Y-86161900D02*
X160087200Y-86336700D01*
X160087200Y-86336700D02*
X160262800Y-86550800D01*
X160262800Y-86550800D02*
X160391800Y-86796900D01*
X160391800Y-86796900D02*
X160470800Y-87071500D01*
X160470800Y-87071500D02*
X160496600Y-87371200D01*
X160496600Y-87371200D02*
X160500000Y-101800000D01*
X160500000Y-101800000D02*
X120688714Y-101786900D01*
X120688714Y-101786900D02*
X120676530Y-87241000D01*
X120676530Y-87241000D02*
X120704762Y-86943500D01*
X120704762Y-86943500D02*
X120785062Y-86670100D01*
X120785062Y-86670100D02*
X120914510Y-86424400D01*
X120914510Y-86424400D02*
X121090189Y-86210300D01*
X121090189Y-86210300D02*
X121304359Y-86035500D01*
X121304359Y-86035500D02*
X121546287Y-85907100D01*
X121546287Y-85907100D02*
X121808570Y-85828300D01*
X121808570Y-85828300D02*
X122083790Y-85802100D01*
X122083790Y-85802100D02*
X124085360Y-85813000D01*
X124085360Y-85813000D02*
X124091570Y-85647700D01*
X124091570Y-85647700D02*
X124119130Y-85484100D01*
X124119130Y-85484100D02*
X124161180Y-85336800D01*
X124161180Y-85336800D02*
X124216260Y-85205000D01*
X124216260Y-85205000D02*
X124282890Y-85087900D01*
X124282890Y-85087900D02*
X124359610Y-84984900D01*
X124359610Y-84984900D02*
X124537490Y-84817500D01*
X124537490Y-84817500D02*
X124738180Y-84696700D01*
X124738180Y-84696700D02*
X124949970Y-84616300D01*
X124949970Y-84616300D02*
X125161150Y-84570000D01*
X125161150Y-84570000D02*
X125360000Y-84551600D01*
X125360000Y-84551600D02*
X125555160Y-84557000D01*
X125555160Y-84557000D02*
X125740090Y-84582600D01*
X125740090Y-84582600D02*
X125915640Y-84632800D01*
X125915640Y-84632800D02*
X126082660Y-84712100D01*
X126082660Y-84712100D02*
X126241980Y-84824900D01*
X126241980Y-84824900D02*
X126394460Y-84975500D01*
X126394460Y-84975500D02*
X126540920Y-85168600D01*
X126540920Y-85168600D02*
X126682230Y-85408300D01*
X128026900Y-85416400D02*
X128026900Y-85416500D01*
X128026900Y-85416500D02*
X128026870Y-85416500D01*
M02*
