G04 #@! TF.GenerationSoftware,KiCad,Pcbnew,5.0.1*
G04 #@! TF.CreationDate,2019-03-26T00:33:58-05:00*
G04 #@! TF.ProjectId,lid,6C69642E6B696361645F706362000000,rev?*
G04 #@! TF.SameCoordinates,Original*
G04 #@! TF.FileFunction,Legend,Bot*
G04 #@! TF.FilePolarity,Positive*
%FSLAX46Y46*%
G04 Gerber Fmt 4.6, Leading zero omitted, Abs format (unit mm)*
G04 Created by KiCad (PCBNEW 5.0.1) date Tue 26 Mar 2019 12:33:58 AM CDT*
%MOMM*%
%LPD*%
G01*
G04 APERTURE LIST*
%ADD10C,0.250000*%
G04 APERTURE END LIST*
D10*
X113269047Y-117302380D02*
X113269047Y-118016666D01*
X113316666Y-118159523D01*
X113411904Y-118254761D01*
X113554761Y-118302380D01*
X113650000Y-118302380D01*
X112316666Y-118302380D02*
X112792857Y-118302380D01*
X112792857Y-117302380D01*
X111411904Y-118207142D02*
X111459523Y-118254761D01*
X111602380Y-118302380D01*
X111697619Y-118302380D01*
X111840476Y-118254761D01*
X111935714Y-118159523D01*
X111983333Y-118064285D01*
X112030952Y-117873809D01*
X112030952Y-117730952D01*
X111983333Y-117540476D01*
X111935714Y-117445238D01*
X111840476Y-117350000D01*
X111697619Y-117302380D01*
X111602380Y-117302380D01*
X111459523Y-117350000D01*
X111411904Y-117397619D01*
X110697619Y-117302380D02*
X110697619Y-118016666D01*
X110745238Y-118159523D01*
X110840476Y-118254761D01*
X110983333Y-118302380D01*
X111078571Y-118302380D01*
X109745238Y-118302380D02*
X110221428Y-118302380D01*
X110221428Y-117302380D01*
X108840476Y-118207142D02*
X108888095Y-118254761D01*
X109030952Y-118302380D01*
X109126190Y-118302380D01*
X109269047Y-118254761D01*
X109364285Y-118159523D01*
X109411904Y-118064285D01*
X109459523Y-117873809D01*
X109459523Y-117730952D01*
X109411904Y-117540476D01*
X109364285Y-117445238D01*
X109269047Y-117350000D01*
X109126190Y-117302380D01*
X109030952Y-117302380D01*
X108888095Y-117350000D01*
X108840476Y-117397619D01*
X108126190Y-117302380D02*
X108126190Y-118016666D01*
X108173809Y-118159523D01*
X108269047Y-118254761D01*
X108411904Y-118302380D01*
X108507142Y-118302380D01*
X107173809Y-118302380D02*
X107650000Y-118302380D01*
X107650000Y-117302380D01*
X106269047Y-118207142D02*
X106316666Y-118254761D01*
X106459523Y-118302380D01*
X106554761Y-118302380D01*
X106697619Y-118254761D01*
X106792857Y-118159523D01*
X106840476Y-118064285D01*
X106888095Y-117873809D01*
X106888095Y-117730952D01*
X106840476Y-117540476D01*
X106792857Y-117445238D01*
X106697619Y-117350000D01*
X106554761Y-117302380D01*
X106459523Y-117302380D01*
X106316666Y-117350000D01*
X106269047Y-117397619D01*
X105554761Y-117302380D02*
X105554761Y-118016666D01*
X105602380Y-118159523D01*
X105697619Y-118254761D01*
X105840476Y-118302380D01*
X105935714Y-118302380D01*
X104602380Y-118302380D02*
X105078571Y-118302380D01*
X105078571Y-117302380D01*
X103697619Y-118207142D02*
X103745238Y-118254761D01*
X103888095Y-118302380D01*
X103983333Y-118302380D01*
X104126190Y-118254761D01*
X104221428Y-118159523D01*
X104269047Y-118064285D01*
X104316666Y-117873809D01*
X104316666Y-117730952D01*
X104269047Y-117540476D01*
X104221428Y-117445238D01*
X104126190Y-117350000D01*
X103983333Y-117302380D01*
X103888095Y-117302380D01*
X103745238Y-117350000D01*
X103697619Y-117397619D01*
M02*
