G04 #@! TF.GenerationSoftware,KiCad,Pcbnew,5.1.5*
G04 #@! TF.CreationDate,2020-02-22T18:04:54-06:00*
G04 #@! TF.ProjectId,BSidesIA2020,42536964-6573-4494-9132-3032302e6b69,rev?*
G04 #@! TF.SameCoordinates,Original*
G04 #@! TF.FileFunction,Soldermask,Top*
G04 #@! TF.FilePolarity,Negative*
%FSLAX46Y46*%
G04 Gerber Fmt 4.6, Leading zero omitted, Abs format (unit mm)*
G04 Created by KiCad (PCBNEW 5.1.5) date 2020-02-22 18:04:54*
%MOMM*%
%LPD*%
G04 APERTURE LIST*
%ADD10C,6.500000*%
%ADD11C,0.100000*%
%ADD12R,2.000000X2.000000*%
%ADD13O,2.000000X2.000000*%
%ADD14O,1.300000X2.400000*%
%ADD15O,1.300000X2.100000*%
%ADD16C,0.950000*%
%ADD17C,1.200000*%
%ADD18R,1.800000X1.800000*%
G04 APERTURE END LIST*
D10*
X111700000Y-53050000D03*
D11*
G36*
X151358579Y-32126345D02*
G01*
X150156497Y-33328427D01*
X148671573Y-31843503D01*
X149873655Y-30641421D01*
X151358579Y-32126345D01*
G37*
G36*
X149520101Y-30287867D02*
G01*
X148318019Y-31489949D01*
X146833095Y-30005025D01*
X148035177Y-28802943D01*
X149520101Y-30287867D01*
G37*
G36*
X152843503Y-30641421D02*
G01*
X151641421Y-31843503D01*
X150156497Y-30358579D01*
X151358579Y-29156497D01*
X152843503Y-30641421D01*
G37*
G36*
X151005025Y-28802943D02*
G01*
X149802943Y-30005025D01*
X148318019Y-28520101D01*
X149520101Y-27318019D01*
X151005025Y-28802943D01*
G37*
G36*
X117035043Y-68876414D02*
G01*
X117063558Y-68880644D01*
X117091521Y-68887649D01*
X117118663Y-68897360D01*
X117144723Y-68909686D01*
X117169449Y-68924506D01*
X117192603Y-68941678D01*
X117213963Y-68961037D01*
X117233322Y-68982397D01*
X117250494Y-69005551D01*
X117265314Y-69030277D01*
X117277640Y-69056337D01*
X117287351Y-69083479D01*
X117294356Y-69111442D01*
X117298586Y-69139957D01*
X117300000Y-69168750D01*
X117300000Y-69831250D01*
X117298586Y-69860043D01*
X117294356Y-69888558D01*
X117287351Y-69916521D01*
X117277640Y-69943663D01*
X117265314Y-69969723D01*
X117250494Y-69994449D01*
X117233322Y-70017603D01*
X117213963Y-70038963D01*
X117192603Y-70058322D01*
X117169449Y-70075494D01*
X117144723Y-70090314D01*
X117118663Y-70102640D01*
X117091521Y-70112351D01*
X117063558Y-70119356D01*
X117035043Y-70123586D01*
X117006250Y-70125000D01*
X116418750Y-70125000D01*
X116389957Y-70123586D01*
X116361442Y-70119356D01*
X116333479Y-70112351D01*
X116306337Y-70102640D01*
X116280277Y-70090314D01*
X116255551Y-70075494D01*
X116232397Y-70058322D01*
X116211037Y-70038963D01*
X116191678Y-70017603D01*
X116174506Y-69994449D01*
X116159686Y-69969723D01*
X116147360Y-69943663D01*
X116137649Y-69916521D01*
X116130644Y-69888558D01*
X116126414Y-69860043D01*
X116125000Y-69831250D01*
X116125000Y-69168750D01*
X116126414Y-69139957D01*
X116130644Y-69111442D01*
X116137649Y-69083479D01*
X116147360Y-69056337D01*
X116159686Y-69030277D01*
X116174506Y-69005551D01*
X116191678Y-68982397D01*
X116211037Y-68961037D01*
X116232397Y-68941678D01*
X116255551Y-68924506D01*
X116280277Y-68909686D01*
X116306337Y-68897360D01*
X116333479Y-68887649D01*
X116361442Y-68880644D01*
X116389957Y-68876414D01*
X116418750Y-68875000D01*
X117006250Y-68875000D01*
X117035043Y-68876414D01*
G37*
G36*
X118610043Y-68876414D02*
G01*
X118638558Y-68880644D01*
X118666521Y-68887649D01*
X118693663Y-68897360D01*
X118719723Y-68909686D01*
X118744449Y-68924506D01*
X118767603Y-68941678D01*
X118788963Y-68961037D01*
X118808322Y-68982397D01*
X118825494Y-69005551D01*
X118840314Y-69030277D01*
X118852640Y-69056337D01*
X118862351Y-69083479D01*
X118869356Y-69111442D01*
X118873586Y-69139957D01*
X118875000Y-69168750D01*
X118875000Y-69831250D01*
X118873586Y-69860043D01*
X118869356Y-69888558D01*
X118862351Y-69916521D01*
X118852640Y-69943663D01*
X118840314Y-69969723D01*
X118825494Y-69994449D01*
X118808322Y-70017603D01*
X118788963Y-70038963D01*
X118767603Y-70058322D01*
X118744449Y-70075494D01*
X118719723Y-70090314D01*
X118693663Y-70102640D01*
X118666521Y-70112351D01*
X118638558Y-70119356D01*
X118610043Y-70123586D01*
X118581250Y-70125000D01*
X117993750Y-70125000D01*
X117964957Y-70123586D01*
X117936442Y-70119356D01*
X117908479Y-70112351D01*
X117881337Y-70102640D01*
X117855277Y-70090314D01*
X117830551Y-70075494D01*
X117807397Y-70058322D01*
X117786037Y-70038963D01*
X117766678Y-70017603D01*
X117749506Y-69994449D01*
X117734686Y-69969723D01*
X117722360Y-69943663D01*
X117712649Y-69916521D01*
X117705644Y-69888558D01*
X117701414Y-69860043D01*
X117700000Y-69831250D01*
X117700000Y-69168750D01*
X117701414Y-69139957D01*
X117705644Y-69111442D01*
X117712649Y-69083479D01*
X117722360Y-69056337D01*
X117734686Y-69030277D01*
X117749506Y-69005551D01*
X117766678Y-68982397D01*
X117786037Y-68961037D01*
X117807397Y-68941678D01*
X117830551Y-68924506D01*
X117855277Y-68909686D01*
X117881337Y-68897360D01*
X117908479Y-68887649D01*
X117936442Y-68880644D01*
X117964957Y-68876414D01*
X117993750Y-68875000D01*
X118581250Y-68875000D01*
X118610043Y-68876414D01*
G37*
D12*
X114800000Y-150600000D03*
D13*
X112260000Y-150600000D03*
X114800000Y-153140000D03*
X112260000Y-153140000D03*
D12*
X156500000Y-158000000D03*
X110000000Y-133000000D03*
D13*
X110000000Y-130460000D03*
X110000000Y-127920000D03*
D12*
X154650212Y-66200000D03*
D13*
X152110212Y-66200000D03*
X149570212Y-66200000D03*
X147030212Y-66200000D03*
X144490212Y-66200000D03*
X141950212Y-66200000D03*
X139410212Y-66200000D03*
X136870212Y-66200000D03*
D14*
X150095212Y-153900000D03*
X141455212Y-153900000D03*
D15*
X150095212Y-158050000D03*
X141455212Y-158050000D03*
D16*
X142885212Y-154400000D03*
X148665212Y-154400000D03*
D17*
X109000000Y-75000000D03*
X109000000Y-72000000D03*
D18*
X176500001Y-115500000D03*
X168700001Y-115500000D03*
X121000000Y-115500000D03*
X113200000Y-115500000D03*
M02*
