<?xml version="1.0" encoding="UTF-8" standalone="no"?>
<svg
   xmlns:dc="http://purl.org/dc/elements/1.1/"
   xmlns:cc="http://creativecommons.org/ns#"
   xmlns:rdf="http://www.w3.org/1999/02/22-rdf-syntax-ns#"
   xmlns:svg="http://www.w3.org/2000/svg"
   xmlns="http://www.w3.org/2000/svg"
   xmlns:sodipodi="http://sodipodi.sourceforge.net/DTD/sodipodi-0.dtd"
   xmlns:inkscape="http://www.inkscape.org/namespaces/inkscape"
   version="1.1"
   width="4.493260cm"
   height="4.470400cm"
   viewBox="0 0 44932600 44704000"
   id="svg1008"
   sodipodi:docname="Middle.svg"
   inkscape:version="0.92.5 (2060ec1f9f, 2020-04-08)">
  <metadata
     id="metadata1014">
    <rdf:RDF>
      <cc:Work
         rdf:about="">
        <dc:format>image/svg+xml</dc:format>
        <dc:type
           rdf:resource="http://purl.org/dc/dcmitype/StillImage" />
        <dc:title>SVG Picture created as InfinityMirrorSquare-brd.svg date 2020/07/02 20:27:40 </dc:title>
      </cc:Work>
    </rdf:RDF>
  </metadata>
  <defs
     id="defs1012" />
  <sodipodi:namedview
     pagecolor="#ffffff"
     bordercolor="#666666"
     borderopacity="1"
     objecttolerance="10"
     gridtolerance="10"
     guidetolerance="10"
     inkscape:pageopacity="0"
     inkscape:pageshadow="2"
     inkscape:window-width="1920"
     inkscape:window-height="1022"
     id="namedview1010"
     showgrid="false"
     inkscape:zoom="4"
     inkscape:cx="62.92056"
     inkscape:cy="100.88867"
     inkscape:window-x="0"
     inkscape:window-y="0"
     inkscape:window-maximized="1"
     inkscape:current-layer="svg1008" />
  <title
     id="title2">SVG Picture created as InfinityMirrorSquare-brd.svg date 2020/07/02 20:27:40 </title>
  <desc
     id="desc4">Picture generated by PCBNEW </desc>
  <g
     style="fill:#000000; fill-opacity:1.000000;stroke:#000000; stroke-opacity:1.000000; stroke-linecap:round; stroke-linejoin:round;"
     transform="translate(0 0) scale(1 1)"
     id="g6" />
  <g
     style="fill:#FFFFFF; fill-opacity:1.0;  stroke:#FFFFFF; stroke-width:1.000000; stroke-opacity:1;  stroke-linecap:round; stroke-linejoin:round;"
     id="g486">
    <circle
       cx="6154500.000000"
       cy="8422500.000000"
       r="200000.000000"
       id="circle484" />
  </g>
  <g
     style="fill:#FFFFFF; fill-opacity:1.0;  stroke:#FFFFFF; stroke-width:0.000000; stroke-opacity:1;  stroke-linecap:round; stroke-linejoin:round;"
     id="g488" />
  <g
     style="fill:#FFFFFF; fill-opacity:1.0;  stroke:#FFFFFF; stroke-width:1.000000; stroke-opacity:1;  stroke-linecap:round; stroke-linejoin:round;"
     id="g492">
    <circle
       cx="31154500.000000"
       cy="41422500.000000"
       r="200000.000000"
       id="circle490" />
  </g>
  <g
     style="fill:#FFFFFF; fill-opacity:1.0;  stroke:#FFFFFF; stroke-width:0.000000; stroke-opacity:1;  stroke-linecap:round; stroke-linejoin:round;"
     id="g494" />
  <g
     style="fill:#FFFFFF; fill-opacity:1.0;  stroke:#FFFFFF; stroke-width:1.000000; stroke-opacity:1;  stroke-linecap:round; stroke-linejoin:round;"
     id="g498">
    <circle
       cx="5154500.000000"
       cy="17922500.000000"
       r="200000.000000"
       id="circle496" />
  </g>
  <g
     style="fill:#FFFFFF; fill-opacity:1.0;  stroke:#FFFFFF; stroke-width:0.000000; stroke-opacity:1;  stroke-linecap:round; stroke-linejoin:round;"
     id="g500" />
  <g
     style="fill:#FFFFFF; fill-opacity:1.0;  stroke:#FFFFFF; stroke-width:1.000000; stroke-opacity:1;  stroke-linecap:round; stroke-linejoin:round;"
     id="g504">
    <circle
       cx="9654500.000000"
       cy="18922500.000000"
       r="200000.000000"
       id="circle502" />
  </g>
  <g
     style="fill:#FFFFFF; fill-opacity:1.0;  stroke:#FFFFFF; stroke-width:0.000000; stroke-opacity:1;  stroke-linecap:round; stroke-linejoin:round;"
     id="g506" />
  <g
     style="fill:#FFFFFF; fill-opacity:1.0;  stroke:#FFFFFF; stroke-width:1.000000; stroke-opacity:1;  stroke-linecap:round; stroke-linejoin:round;"
     id="g510">
    <circle
       cx="4154500.000000"
       cy="13922500.000000"
       r="200000.000000"
       id="circle508" />
  </g>
  <g
     style="fill:#FFFFFF; fill-opacity:1.0;  stroke:#FFFFFF; stroke-width:0.000000; stroke-opacity:1;  stroke-linecap:round; stroke-linejoin:round;"
     id="g512" />
  <g
     style="fill:#FFFFFF; fill-opacity:1.0;  stroke:#FFFFFF; stroke-width:1.000000; stroke-opacity:1;  stroke-linecap:round; stroke-linejoin:round;"
     id="g516">
    <circle
       cx="9654500.000000"
       cy="23422500.000000"
       r="200000.000000"
       id="circle514" />
  </g>
  <g
     style="fill:#FFFFFF; fill-opacity:1.0;  stroke:#FFFFFF; stroke-width:0.000000; stroke-opacity:1;  stroke-linecap:round; stroke-linejoin:round;"
     id="g518" />
  <g
     style="fill:#FFFFFF; fill-opacity:1.0;  stroke:#FFFFFF; stroke-width:1.000000; stroke-opacity:1;  stroke-linecap:round; stroke-linejoin:round;"
     id="g522">
    <circle
       cx="5654500.000000"
       cy="22922500.000000"
       r="200000.000000"
       id="circle520" />
  </g>
  <g
     style="fill:#FFFFFF; fill-opacity:1.0;  stroke:#FFFFFF; stroke-width:0.000000; stroke-opacity:1;  stroke-linecap:round; stroke-linejoin:round;"
     id="g524" />
  <g
     style="fill:#FFFFFF; fill-opacity:1.0;  stroke:#FFFFFF; stroke-width:1.000000; stroke-opacity:1;  stroke-linecap:round; stroke-linejoin:round;"
     id="g528">
    <circle
       cx="20654500.000000"
       cy="26422500.000000"
       r="200000.000000"
       id="circle526" />
  </g>
  <g
     style="fill:#FFFFFF; fill-opacity:1.0;  stroke:#FFFFFF; stroke-width:0.000000; stroke-opacity:1;  stroke-linecap:round; stroke-linejoin:round;"
     id="g530" />
  <g
     style="fill:#FFFFFF; fill-opacity:1.0;  stroke:#FFFFFF; stroke-width:1.000000; stroke-opacity:1;  stroke-linecap:round; stroke-linejoin:round;"
     id="g534">
    <circle
       cx="25379500.000000"
       cy="4935153.000000"
       r="200000.000000"
       id="circle532" />
  </g>
  <g
     style="fill:#FFFFFF; fill-opacity:1.0;  stroke:#FFFFFF; stroke-width:0.000000; stroke-opacity:1;  stroke-linecap:round; stroke-linejoin:round;"
     id="g536" />
  <g
     style="fill:#FFFFFF; fill-opacity:1.0;  stroke:#FFFFFF; stroke-width:1.000000; stroke-opacity:1;  stroke-linecap:round; stroke-linejoin:round;"
     id="g540">
    <circle
       cx="33654500.000000"
       cy="3922500.000000"
       r="200000.000000"
       id="circle538" />
  </g>
  <g
     style="fill:#FFFFFF; fill-opacity:1.0;  stroke:#FFFFFF; stroke-width:0.000000; stroke-opacity:1;  stroke-linecap:round; stroke-linejoin:round;"
     id="g542" />
  <g
     style="fill:#FFFFFF; fill-opacity:1.0;  stroke:#FFFFFF; stroke-width:1.000000; stroke-opacity:1;  stroke-linecap:round; stroke-linejoin:round;"
     id="g546">
    <circle
       cx="28654500.000000"
       cy="3922500.000000"
       r="200000.000000"
       id="circle544" />
  </g>
  <g
     style="fill:#FFFFFF; fill-opacity:1.0;  stroke:#FFFFFF; stroke-width:0.000000; stroke-opacity:1;  stroke-linecap:round; stroke-linejoin:round;"
     id="g548" />
  <g
     style="fill:#FFFFFF; fill-opacity:1.0;  stroke:#FFFFFF; stroke-width:1.000000; stroke-opacity:1;  stroke-linecap:round; stroke-linejoin:round;"
     id="g552">
    <circle
       cx="13654500.000000"
       cy="4422500.000000"
       r="200000.000000"
       id="circle550" />
  </g>
  <g
     style="fill:#FFFFFF; fill-opacity:1.0;  stroke:#FFFFFF; stroke-width:0.000000; stroke-opacity:1;  stroke-linecap:round; stroke-linejoin:round;"
     id="g554" />
  <g
     style="fill:#FFFFFF; fill-opacity:1.0;  stroke:#FFFFFF; stroke-width:1.000000; stroke-opacity:1;  stroke-linecap:round; stroke-linejoin:round;"
     id="g558">
    <circle
       cx="40154500.000000"
       cy="11922500.000000"
       r="200000.000000"
       id="circle556" />
  </g>
  <g
     style="fill:#FFFFFF; fill-opacity:1.0;  stroke:#FFFFFF; stroke-width:0.000000; stroke-opacity:1;  stroke-linecap:round; stroke-linejoin:round;"
     id="g560" />
  <g
     style="fill:#FFFFFF; fill-opacity:1.0;  stroke:#FFFFFF; stroke-width:1.000000; stroke-opacity:1;  stroke-linecap:round; stroke-linejoin:round;"
     id="g564">
    <circle
       cx="40154500.000000"
       cy="27922500.000000"
       r="200000.000000"
       id="circle562" />
  </g>
  <g
     style="fill:#FFFFFF; fill-opacity:1.0;  stroke:#FFFFFF; stroke-width:0.000000; stroke-opacity:1;  stroke-linecap:round; stroke-linejoin:round;"
     id="g566" />
  <g
     style="fill:#FFFFFF; fill-opacity:1.0;  stroke:#FFFFFF; stroke-width:1.000000; stroke-opacity:1;  stroke-linecap:round; stroke-linejoin:round;"
     id="g570">
    <circle
       cx="41154500.000000"
       cy="15922500.000000"
       r="200000.000000"
       id="circle568" />
  </g>
  <g
     style="fill:#FFFFFF; fill-opacity:1.0;  stroke:#FFFFFF; stroke-width:0.000000; stroke-opacity:1;  stroke-linecap:round; stroke-linejoin:round;"
     id="g572" />
  <g
     style="fill:#FFFFFF; fill-opacity:1.0;  stroke:#FFFFFF; stroke-width:1.000000; stroke-opacity:1;  stroke-linecap:round; stroke-linejoin:round;"
     id="g576">
    <circle
       cx="41154500.000000"
       cy="31922500.000000"
       r="200000.000000"
       id="circle574" />
  </g>
  <g
     style="fill:#FFFFFF; fill-opacity:1.0;  stroke:#FFFFFF; stroke-width:0.000000; stroke-opacity:1;  stroke-linecap:round; stroke-linejoin:round;"
     id="g578" />
  <g
     style="fill:#FFFFFF; fill-opacity:1.0;  stroke:#FFFFFF; stroke-width:1.000000; stroke-opacity:1;  stroke-linecap:round; stroke-linejoin:round;"
     id="g582">
    <circle
       cx="27154500.000000"
       cy="40422500.000000"
       r="200000.000000"
       id="circle580" />
  </g>
  <g
     style="fill:#FFFFFF; fill-opacity:1.0;  stroke:#FFFFFF; stroke-width:0.000000; stroke-opacity:1;  stroke-linecap:round; stroke-linejoin:round;"
     id="g584" />
  <g
     style="fill:#FFFFFF; fill-opacity:1.0;  stroke:#FFFFFF; stroke-width:1.000000; stroke-opacity:1;  stroke-linecap:round; stroke-linejoin:round;"
     id="g588">
    <circle
       cx="29654500.000000"
       cy="40922500.000000"
       r="200000.000000"
       id="circle586" />
  </g>
  <g
     style="fill:#FFFFFF; fill-opacity:1.0;  stroke:#FFFFFF; stroke-width:0.000000; stroke-opacity:1;  stroke-linecap:round; stroke-linejoin:round;"
     id="g590" />
  <g
     style="fill:#FFFFFF; fill-opacity:1.0;  stroke:#FFFFFF; stroke-width:1.000000; stroke-opacity:1;  stroke-linecap:round; stroke-linejoin:round;"
     id="g594">
    <circle
       cx="22654500.000000"
       cy="42422500.000000"
       r="200000.000000"
       id="circle592" />
  </g>
  <g
     style="fill:#FFFFFF; fill-opacity:1.0;  stroke:#FFFFFF; stroke-width:0.000000; stroke-opacity:1;  stroke-linecap:round; stroke-linejoin:round;"
     id="g596" />
  <g
     style="fill:#FFFFFF; fill-opacity:1.0;  stroke:#FFFFFF; stroke-width:1.000000; stroke-opacity:1;  stroke-linecap:round; stroke-linejoin:round;"
     id="g600">
    <circle
       cx="13654500.000000"
       cy="40922500.000000"
       r="200000.000000"
       id="circle598" />
  </g>
  <g
     style="fill:#FFFFFF; fill-opacity:1.0;  stroke:#FFFFFF; stroke-width:0.000000; stroke-opacity:1;  stroke-linecap:round; stroke-linejoin:round;"
     id="g602" />
  <g
     style="fill:#FFFFFF; fill-opacity:1.0;  stroke:#FFFFFF; stroke-width:1.000000; stroke-opacity:1;  stroke-linecap:round; stroke-linejoin:round;"
     id="g606">
    <circle
       cx="9404500.000000"
       cy="30672500.000000"
       r="200000.000000"
       id="circle604" />
  </g>
  <g
     style="fill:#FFFFFF; fill-opacity:1.0;  stroke:#FFFFFF; stroke-width:0.000000; stroke-opacity:1;  stroke-linecap:round; stroke-linejoin:round;"
     id="g608" />
  <g
     style="fill:#FFFFFF; fill-opacity:1.0;  stroke:#FFFFFF; stroke-width:1.000000; stroke-opacity:1;  stroke-linecap:round; stroke-linejoin:round;"
     id="g612">
    <circle
       cx="7404500.000000"
       cy="29172500.000000"
       r="200000.000000"
       id="circle610" />
  </g>
  <g
     style="fill:#FFFFFF; fill-opacity:1.0;  stroke:#FFFFFF; stroke-width:0.000000; stroke-opacity:1;  stroke-linecap:round; stroke-linejoin:round;"
     id="g614" />
  <g
     style="fill:#FFFFFF; fill-opacity:1.0;  stroke:#FFFFFF; stroke-width:1.000000; stroke-opacity:1;  stroke-linecap:round; stroke-linejoin:round;"
     id="g618">
    <circle
       cx="4154500.000000"
       cy="31922500.000000"
       r="200000.000000"
       id="circle616" />
  </g>
  <g
     style="fill:#FFFFFF; fill-opacity:1.0;  stroke:#FFFFFF; stroke-width:0.000000; stroke-opacity:1;  stroke-linecap:round; stroke-linejoin:round;"
     id="g620" />
  <g
     style="fill:#FFFFFF; fill-opacity:1.0;  stroke:#FFFFFF; stroke-width:1.000000; stroke-opacity:1;  stroke-linecap:round; stroke-linejoin:round;"
     id="g624">
    <circle
       cx="4404500.000000"
       cy="28172500.000000"
       r="200000.000000"
       id="circle622" />
  </g>
  <g
     style="fill:#FFFFFF; fill-opacity:1.0;  stroke:#FFFFFF; stroke-width:0.000000; stroke-opacity:1;  stroke-linecap:round; stroke-linejoin:round;"
     id="g626" />
  <g
     style="fill:#FFFFFF; fill-opacity:1.0;  stroke:#FFFFFF; stroke-width:1.000000; stroke-opacity:1;  stroke-linecap:round; stroke-linejoin:round;"
     id="g630">
    <circle
       cx="9904500.000000"
       cy="3297500.000000"
       r="449999.500000"
       id="circle628" />
  </g>
  <g
     style="fill:#FFFFFF; fill-opacity:1.0;  stroke:#FFFFFF; stroke-width:0.000000; stroke-opacity:1;  stroke-linecap:round; stroke-linejoin:round;"
     id="g632" />
  <g
     style="fill:#FFFFFF; fill-opacity:1.0;  stroke:#FFFFFF; stroke-width:1.000000; stroke-opacity:1;  stroke-linecap:round; stroke-linejoin:round;"
     id="g636">
    <circle
       cx="6904500.000000"
       cy="3297500.000000"
       r="449999.500000"
       id="circle634" />
  </g>
  <g
     style="fill:#FFFFFF; fill-opacity:1.0;  stroke:#FFFFFF; stroke-width:0.000000; stroke-opacity:1;  stroke-linecap:round; stroke-linejoin:round;"
     id="g638" />
  <g
     style="fill:#FFFFFF; fill-opacity:1.0;  stroke:#FFFFFF; stroke-width:1.000000; stroke-opacity:1;  stroke-linecap:round; stroke-linejoin:round;"
     id="g642">
    <circle
       cx="7504500.000000"
       cy="41922500.000000"
       r="449999.500000"
       id="circle640" />
  </g>
  <g
     style="fill:#FFFFFF; fill-opacity:1.0;  stroke:#FFFFFF; stroke-width:0.000000; stroke-opacity:1;  stroke-linecap:round; stroke-linejoin:round;"
     id="g644" />
  <g
     style="fill:#FFFFFF; fill-opacity:1.0;  stroke:#FFFFFF; stroke-width:1.000000; stroke-opacity:1;  stroke-linecap:round; stroke-linejoin:round;"
     id="g648">
    <circle
       cx="9804500.000000"
       cy="41922500.000000"
       r="449999.500000"
       id="circle646" />
  </g>
  <g
     style="fill:#FFFFFF; fill-opacity:1.0;  stroke:#FFFFFF; stroke-width:0.000000; stroke-opacity:1;  stroke-linecap:round; stroke-linejoin:round;"
     id="g650" />
  <g
     style="fill:#FFFFFF; fill-opacity:1.0;  stroke:#FFFFFF; stroke-width:1.000000; stroke-opacity:1;  stroke-linecap:round; stroke-linejoin:round;"
     id="g654">
    <circle
       cx="4059500.000000"
       cy="24462500.000000"
       r="349999.500000"
       id="circle652" />
  </g>
  <g
     style="fill:#FFFFFF; fill-opacity:1.0;  stroke:#FFFFFF; stroke-width:0.000000; stroke-opacity:1;  stroke-linecap:round; stroke-linejoin:round;"
     id="g656" />
  <g
     style="fill:#FFFFFF; fill-opacity:1.0;  stroke:#FFFFFF; stroke-width:1.000000; stroke-opacity:1;  stroke-linecap:round; stroke-linejoin:round;"
     id="g660">
    <circle
       cx="4059500.000000"
       cy="23192500.000000"
       r="349999.500000"
       id="circle658" />
  </g>
  <g
     style="fill:#FFFFFF; fill-opacity:1.0;  stroke:#FFFFFF; stroke-width:0.000000; stroke-opacity:1;  stroke-linecap:round; stroke-linejoin:round;"
     id="g662" />
  <g
     style="fill:#FFFFFF; fill-opacity:1.0;  stroke:#FFFFFF; stroke-width:1.000000; stroke-opacity:1;  stroke-linecap:round; stroke-linejoin:round;"
     id="g666">
    <circle
       cx="4059500.000000"
       cy="21922500.000000"
       r="349999.500000"
       id="circle664" />
  </g>
  <g
     style="fill:#FFFFFF; fill-opacity:1.0;  stroke:#FFFFFF; stroke-width:0.000000; stroke-opacity:1;  stroke-linecap:round; stroke-linejoin:round;"
     id="g668" />
  <g
     style="fill:#FFFFFF; fill-opacity:1.0;  stroke:#FFFFFF; stroke-width:1.000000; stroke-opacity:1;  stroke-linecap:round; stroke-linejoin:round;"
     id="g672">
    <circle
       cx="4059500.000000"
       cy="20652500.000000"
       r="349999.500000"
       id="circle670" />
  </g>
  <g
     style="fill:#FFFFFF; fill-opacity:1.0;  stroke:#FFFFFF; stroke-width:0.000000; stroke-opacity:1;  stroke-linecap:round; stroke-linejoin:round;"
     id="g674" />
  <g
     style="fill:#FFFFFF; fill-opacity:1.0;  stroke:#FFFFFF; stroke-width:1.000000; stroke-opacity:1;  stroke-linecap:round; stroke-linejoin:round;"
     id="g678">
    <circle
       cx="4059500.000000"
       cy="19382500.000000"
       r="349999.500000"
       id="circle676" />
  </g>
  <g
     style="fill:#FFFFFF; fill-opacity:1.0;  stroke:#FFFFFF; stroke-width:0.000000; stroke-opacity:1;  stroke-linecap:round; stroke-linejoin:round;"
     id="g680" />
  <g
     style="fill:#000000; fill-opacity:1.0;  stroke:#000000; stroke-width:1.000000; stroke-opacity:1;  stroke-linecap:round; stroke-linejoin:round;"
     id="g924" />
  <g
     style="fill:#C2C200; fill-opacity:1.0;  stroke:#C2C200; stroke-width:1.000000; stroke-opacity:1;  stroke-linecap:round; stroke-linejoin:round;"
     id="g926" />
  <g
     style="fill:none;fill-opacity:0;stroke:#ff0000;stroke-width:50000;stroke-opacity:1;stroke-linecap:round;stroke-linejoin:round"
     id="g1006">
    <path
       d="M1654500.000000 40922500.000000 A2500000.000000 2500000.000000 0.0 0 0 4154500.000000 43422500.000000"
       id="path928"
       style="fill:none;stroke:#ff0000;stroke-opacity:1" />
    <path
       d="M41154500.000000 43422500.000000 A2500000.000000 2500000.000000 0.0 0 0 43654500.000000 40922500.000000"
       id="path930"
       style="fill:none;stroke:#ff0000;stroke-opacity:1" />
    <path
       d="M43654500.000000 3922500.000000 A2500000.000000 2500000.000000 0.0 0 0 41154500.000000 1422500.000000"
       id="path932"
       style="fill:none;stroke:#ff0000;stroke-opacity:1" />
    <path
       d="M4154500.000000 1422500.000000 A2500000.000000 2500000.000000 0.0 0 0 1654500.000000 3922500.000000"
       id="path934"
       style="fill:none;stroke:#ff0000;stroke-opacity:1" />
    <path
       d="m 4154500,43422500 6348892,628 c 65331,628 104734,2807 146262,-13032 41529,-15840 79187,-39045 110783,-68266 31596,-29221 56499,-63875 73261,-101946 16762,-38071 25048,-78799 22355,-147544 l -2021,-1209191 c 0,-166742 197462,-300978 442741,-300978 h 6020191 c 245279,0 442886,134236 442742,300978 l -1054,1220686 c -1726,56230 6560,96957 23322,135029 16762,38070 41665,72724 73261,101945 31596,29222 69253,52427 110783,68266 41528,15839 86099,23996 184838,20677 l 8908631,-1299 c 60164,-12966 101634,-35591 143162,-51430 41529,-15840 79187,-39045 110783,-68266 31596,-29221 56499,-63875 73261,-101946 16762,-38071 25048,-78799 22355,-147544 l -2021,-1209191 c 0,-166742 197462,-300978 442741,-300978 h 6020191 c 245279,0 442886,134236 442742,300978 l -1054,1220686 c -1726,56230 6560,96957 23322,135029 16762,38070 41665,72724 73261,101945 31596,29222 69253,52427 110783,68266 41528,15839 124101,45920 214056,51560 l 6421431,-5062"
       id="path936"
       style="fill:none;stroke:#ff0000;stroke-opacity:1"
       inkscape:connector-curvature="0"
       sodipodi:nodetypes="ccscscsssscscsccscscsssscscscc" />
    <path
       d="m 1654500,40922500 -1246.2,-6318750 c 1328.3,-76370 43101.5,-178238 61776.9,-218677 18675.3,-40440 63575.4,-74186 98029.3,-104953 34454,-30767 89930,-40401 134818.4,-56723 44888.5,-16323 92909.6,-24391 159207.5,-22710 l 1439277.4,1026 c 196601.4,140 354876.3,-192284 354876.3,-431129 v -5862286 c 0,-238845 -158274.9,-431128 -354876.3,-431128 l -1425723.6,1968 c -81054.8,2622 -129075.9,-5446 -173964.4,-21769 -44888.4,-16322 -88671.4,-34725 -123125.4,-65492 -38838.9,-21998 -61814.4,-48436 -99490.9,-93261 -28660.2,-34098 -57525.5,-83841 -66615.6,-222282 l -3449.2,-9423049 c -505.9,-83628 9396,-127030 28623.8,-167469 19227.8,-40440 47397.7,-77110 82870.8,-107877 35473.2,-30767 77541.6,-55017 123758,-71339 46216.3,-16323 95658,-24391 163917.1,-22710 l 1481854.2,1026 c 202417.3,140 365374.3,-192284 365374.3,-431129 v -5862286 c 0,-238845 -162957,-431128 -365374.3,-431128 l -1467899.5,1968 c -83452.5,2622 -132894.2,-5446 -179110.5,-21769 -46216.4,-16322 -88284.8,-40572 -123758,-71339 -35473.2,-30767 -63643,-67437 -82870.8,-107877 -19227.9,-40439 -29129.8,-83841 -28521.3,-186037 l 1642,-6252819"
       id="path938"
       style="fill:none;stroke:#ff0000;stroke-opacity:1"
       inkscape:connector-curvature="0"
       sodipodi:nodetypes="ccscscsssscscsccscscsssscscscc" />
    <path
       d="m 43654500,40922500 -19090,-6454466 c -3588,-77994 -27247,-109129 -43086,-150657 -15840,-41529 -39045,-79187 -68266,-110783 -29221,-31596 -63875,-56499 -101946,-73261 -38071,-16762 -78799,-25048 -147544,-22355 l -1209191,2021 c -166742,0 -300978,-197462 -300978,-442741 v -6020191 c 0,-245279 134236,-442886 300978,-442742 l 1220686,1054 c 56230,1726 96957,-6560 135029,-23322 38070,-16762 72724,-41665 101945,-73261 29222,-31596 52427,-69253 68266,-110783 15839,-41528 55002,-106770 62609,-233155 l -398,-9203123 c -13039,-148210 -44966,-172111 -60805,-213639 -15840,-41529 -62816,-67818 -92037,-99414 -29221,-31596 -63875,-56499 -101946,-73261 -38071,-16762 -78799,-25048 -147544,-22355 l -1209191,2021 c -166742,0 -300978,-197462 -300978,-442741 v -6020191 c 0,-245279 134236,-442886 300978,-442742 l 1220686,1054 c 56230,1726 96957,-6560 135029,-23322 38070,-16762 72724,-41665 101945,-73261 29222,-31596 88893,-101429 109607,-140755 25141,-47729.5 39499,-48891.8 54242,-216164.2 l -9000,-5877464.8"
       id="path940"
       style="fill:none;stroke:#ff0000;stroke-opacity:1"
       inkscape:connector-curvature="0"
       sodipodi:nodetypes="ccscscsssscscsccscscsssscscscc" />
    <path
       d="m 41154500,1422500 -6426255,7516.8 c -103578,6055.2 -148149,14211.2 -189677,30050.2 -41529,15840 -79187,39045 -110783,68266 -31596,29221 -56499,63875 -73261,101946 -16762,38071 -25048,78799 -22355,147544 l 2021,1209191 c 0,166742 -197462,300978 -442741,300978 h -6020191 c -245279,0 -442886,-134236 -442742,-300978 l 1054,-1220686 c 1726,-56230 -6560,-96957 -23322,-135029 -16762,-38070 -41665,-72724 -73261,-101945 -31596,-29222 -69253,-52427 -110783,-68266 -41528,-15839 -87561,-34227.4 -158543,-37809 l -8935882,-5448.5 c -56075,701.9 -105031,3011.4 -146559,18850.4 -41529,15840 -79187,39045 -110783,68266 -31596,29221 -56499,63875 -73261,101946 -16762,38071 -25048,78799 -22355,147544 l 2021,1209191 c 0,166742 -197462,300978 -442741,300978 h -6020191 c -245279,0 -442886,-134236 -442742,-300978 l 1054,-1220686 c 1726,-56230 -6560,-96957 -23322,-135029 -16762,-38070 -41665,-72724 -73261,-101945 -31596,-29222 -69253,-52427 -110783,-68266 -41528,-15839 -86099,-23996 -237581,-23349.6 l -6272775,8147.7"
       id="path942"
       style="fill:none;stroke:#ff0000;stroke-opacity:1"
       inkscape:connector-curvature="0"
       sodipodi:nodetypes="ccscscsssscscsccscscsssscscscc" />
    <g
       id="g944"
       style="fill:none;stroke:#ff0000;stroke-opacity:1" />
    <g
       id="g946"
       style="fill:none;stroke:#ff0000;stroke-opacity:1" />
    <g
       id="g948"
       style="fill:none;stroke:#ff0000;stroke-opacity:1" />
    <g
       id="g950"
       style="fill:none;stroke:#ff0000;stroke-opacity:1" />
    <g
       id="g952"
       style="fill:none;stroke:#ff0000;stroke-opacity:1" />
    <g
       id="g954"
       style="fill:none;stroke:#ff0000;stroke-opacity:1" />
    <g
       id="g956"
       style="fill:none;stroke:#ff0000;stroke-opacity:1" />
    <g
       id="g958"
       style="fill:none;stroke:#ff0000;stroke-opacity:1" />
    <g
       id="g960"
       style="fill:none;stroke:#ff0000;stroke-opacity:1" />
    <g
       id="g962"
       style="fill:none;stroke:#ff0000;stroke-opacity:1" />
    <g
       id="g964"
       style="fill:none;stroke:#ff0000;stroke-opacity:1" />
    <g
       id="g966"
       style="fill:none;stroke:#ff0000;stroke-opacity:1" />
    <g
       id="g968"
       style="fill:none;stroke:#ff0000;stroke-opacity:1" />
    <g
       id="g970"
       style="fill:none;stroke:#ff0000;stroke-opacity:1" />
    <g
       id="g972"
       style="fill:none;stroke:#ff0000;stroke-opacity:1" />
    <g
       id="g974"
       style="fill:none;stroke:#ff0000;stroke-opacity:1" />
    <g
       id="g976"
       style="fill:none;stroke:#ff0000;stroke-opacity:1" />
    <g
       id="g978"
       style="fill:none;stroke:#ff0000;stroke-opacity:1" />
    <g
       id="g980"
       style="fill:none;stroke:#ff0000;stroke-opacity:1" />
    <g
       id="g982"
       style="fill:none;stroke:#ff0000;stroke-opacity:1" />
    <g
       id="g984"
       style="fill:none;stroke:#ff0000;stroke-opacity:1" />
    <g
       id="g986"
       style="fill:none;stroke:#ff0000;stroke-opacity:1" />
    <g
       id="g988"
       style="fill:none;stroke:#ff0000;stroke-opacity:1" />
    <g
       id="g990"
       style="fill:none;stroke:#ff0000;stroke-opacity:1" />
    <g
       id="g992"
       style="fill:none;stroke:#ff0000;stroke-opacity:1" />
    <g
       id="g994"
       style="fill:none;stroke:#ff0000;stroke-opacity:1" />
    <g
       id="g996"
       style="fill:none;stroke:#ff0000;stroke-opacity:1" />
    <g
       id="g998"
       style="fill:none;stroke:#ff0000;stroke-opacity:1" />
    <g
       id="g1000"
       style="fill:none;stroke:#ff0000;stroke-opacity:1" />
    <g
       id="g1002"
       style="fill:none;stroke:#ff0000;stroke-opacity:1" />
    <g
       id="g1004"
       style="fill:none;stroke:#ff0000;stroke-opacity:1" />
  </g>
  <rect
     style="fill:none;fill-opacity:0;stroke:#ff0000;stroke-width:52916.671875;stroke-miterlimit:4;stroke-dasharray:none;stroke-opacity:1"
     id="rect1843"
     width="35998000"
     height="36246000"
     x="4655500"
     y="4049500"
     ry="1886336.4" />
</svg>
