<?xml version="1.0" encoding="UTF-8" standalone="no"?>
<!-- Created with Inkscape (http://www.inkscape.org/) -->

<svg
   version="1.1"
   id="svg2"
   xml:space="preserve"
   width="325.27264"
   height="229.95732"
   viewBox="0 0 325.27264 229.95732"
   sodipodi:docname="UE logo.svg"
   inkscape:version="1.1 (c4e8f9ed74, 2021-05-24)"
   inkscape:export-filename="/home/william/Documents/Projects/RMABadge/Documents/UE logo.png"
   inkscape:export-xdpi="96"
   inkscape:export-ydpi="96"
   xmlns:inkscape="http://www.inkscape.org/namespaces/inkscape"
   xmlns:sodipodi="http://sodipodi.sourceforge.net/DTD/sodipodi-0.dtd"
   xmlns="http://www.w3.org/2000/svg"
   xmlns:svg="http://www.w3.org/2000/svg"><defs
     id="defs6"><linearGradient
       x1="0"
       y1="0"
       x2="1"
       y2="0"
       gradientUnits="userSpaceOnUse"
       gradientTransform="matrix(8.1558628,0,0,-8.1558628,255.82024,206.87639)"
       spreadMethod="pad"
       id="linearGradient46"><stop
         style="stop-opacity:1;stop-color:#22cbfa"
         offset="0"
         id="stop28" /><stop
         style="stop-opacity:1;stop-color:#a13dcb"
         offset="0.99987002"
         id="stop30" /><stop
         style="stop-opacity:1;stop-color:#a13dcb"
         offset="1"
         id="stop32" /><stop
         style="stop-opacity:1;stop-color:#a13dcb"
         offset="1"
         id="stop34" /><stop
         style="stop-opacity:1;stop-color:#a13dcb"
         offset="1"
         id="stop36" /><stop
         style="stop-opacity:1;stop-color:#a13dcb"
         offset="1"
         id="stop38" /><stop
         style="stop-opacity:1;stop-color:#a13dcb"
         offset="1"
         id="stop40" /><stop
         style="stop-opacity:1;stop-color:#a13dcb"
         offset="1"
         id="stop42" /><stop
         style="stop-opacity:1;stop-color:#a13dcb"
         offset="1"
         id="stop44" /></linearGradient><linearGradient
       x1="0"
       y1="0"
       x2="1"
       y2="0"
       gradientUnits="userSpaceOnUse"
       gradientTransform="matrix(8.6605482,0,0,-8.6605482,266.97317,206.88098)"
       spreadMethod="pad"
       id="linearGradient80"><stop
         style="stop-opacity:1;stop-color:#22cbfa"
         offset="0"
         id="stop62" /><stop
         style="stop-opacity:1;stop-color:#a13dcb"
         offset="0.99987002"
         id="stop64" /><stop
         style="stop-opacity:1;stop-color:#a13dcb"
         offset="1"
         id="stop66" /><stop
         style="stop-opacity:1;stop-color:#a13dcb"
         offset="1"
         id="stop68" /><stop
         style="stop-opacity:1;stop-color:#a13dcb"
         offset="1"
         id="stop70" /><stop
         style="stop-opacity:1;stop-color:#a13dcb"
         offset="1"
         id="stop72" /><stop
         style="stop-opacity:1;stop-color:#a13dcb"
         offset="1"
         id="stop74" /><stop
         style="stop-opacity:1;stop-color:#a13dcb"
         offset="1"
         id="stop76" /><stop
         style="stop-opacity:1;stop-color:#a13dcb"
         offset="1"
         id="stop78" /></linearGradient><linearGradient
       x1="0"
       y1="0"
       x2="1"
       y2="0"
       gradientUnits="userSpaceOnUse"
       gradientTransform="matrix(8.1558628,0,0,-8.1558628,278.37186,206.87639)"
       spreadMethod="pad"
       id="linearGradient114"><stop
         style="stop-opacity:1;stop-color:#22cbfa"
         offset="0"
         id="stop96" /><stop
         style="stop-opacity:1;stop-color:#a13dcb"
         offset="0.99987002"
         id="stop98" /><stop
         style="stop-opacity:1;stop-color:#a13dcb"
         offset="1"
         id="stop100" /><stop
         style="stop-opacity:1;stop-color:#a13dcb"
         offset="1"
         id="stop102" /><stop
         style="stop-opacity:1;stop-color:#a13dcb"
         offset="1"
         id="stop104" /><stop
         style="stop-opacity:1;stop-color:#a13dcb"
         offset="1"
         id="stop106" /><stop
         style="stop-opacity:1;stop-color:#a13dcb"
         offset="1"
         id="stop108" /><stop
         style="stop-opacity:1;stop-color:#a13dcb"
         offset="1"
         id="stop110" /><stop
         style="stop-opacity:1;stop-color:#a13dcb"
         offset="1"
         id="stop112" /></linearGradient><linearGradient
       x1="0"
       y1="0"
       x2="1"
       y2="0"
       gradientUnits="userSpaceOnUse"
       gradientTransform="matrix(8.0902328,0,0,-8.0902328,297.76358,206.92015)"
       spreadMethod="pad"
       id="linearGradient148"><stop
         style="stop-opacity:1;stop-color:#22cbfa"
         offset="0"
         id="stop130" /><stop
         style="stop-opacity:1;stop-color:#a13dcb"
         offset="0.99987002"
         id="stop132" /><stop
         style="stop-opacity:1;stop-color:#a13dcb"
         offset="1"
         id="stop134" /><stop
         style="stop-opacity:1;stop-color:#a13dcb"
         offset="1"
         id="stop136" /><stop
         style="stop-opacity:1;stop-color:#a13dcb"
         offset="1"
         id="stop138" /><stop
         style="stop-opacity:1;stop-color:#a13dcb"
         offset="1"
         id="stop140" /><stop
         style="stop-opacity:1;stop-color:#a13dcb"
         offset="1"
         id="stop142" /><stop
         style="stop-opacity:1;stop-color:#a13dcb"
         offset="1"
         id="stop144" /><stop
         style="stop-opacity:1;stop-color:#a13dcb"
         offset="1"
         id="stop146" /></linearGradient><linearGradient
       x1="0"
       y1="0"
       x2="1"
       y2="0"
       gradientUnits="userSpaceOnUse"
       gradientTransform="matrix(11.322358,0,0,-11.322358,308.52072,206.92625)"
       spreadMethod="pad"
       id="linearGradient182"><stop
         style="stop-opacity:1;stop-color:#22cbfa"
         offset="0"
         id="stop164" /><stop
         style="stop-opacity:1;stop-color:#a13dcb"
         offset="0.99987002"
         id="stop166" /><stop
         style="stop-opacity:1;stop-color:#a13dcb"
         offset="1"
         id="stop168" /><stop
         style="stop-opacity:1;stop-color:#a13dcb"
         offset="1"
         id="stop170" /><stop
         style="stop-opacity:1;stop-color:#a13dcb"
         offset="1"
         id="stop172" /><stop
         style="stop-opacity:1;stop-color:#a13dcb"
         offset="1"
         id="stop174" /><stop
         style="stop-opacity:1;stop-color:#a13dcb"
         offset="1"
         id="stop176" /><stop
         style="stop-opacity:1;stop-color:#a13dcb"
         offset="1"
         id="stop178" /><stop
         style="stop-opacity:1;stop-color:#a13dcb"
         offset="1"
         id="stop180" /></linearGradient><linearGradient
       x1="0"
       y1="0"
       x2="1"
       y2="0"
       gradientUnits="userSpaceOnUse"
       gradientTransform="matrix(9.0904465,0,0,-9.0904465,322.84625,206.92778)"
       spreadMethod="pad"
       id="linearGradient216"><stop
         style="stop-opacity:1;stop-color:#22cbfa"
         offset="0"
         id="stop198" /><stop
         style="stop-opacity:1;stop-color:#a13dcb"
         offset="0.99987002"
         id="stop200" /><stop
         style="stop-opacity:1;stop-color:#a13dcb"
         offset="1"
         id="stop202" /><stop
         style="stop-opacity:1;stop-color:#a13dcb"
         offset="1"
         id="stop204" /><stop
         style="stop-opacity:1;stop-color:#a13dcb"
         offset="1"
         id="stop206" /><stop
         style="stop-opacity:1;stop-color:#a13dcb"
         offset="1"
         id="stop208" /><stop
         style="stop-opacity:1;stop-color:#a13dcb"
         offset="1"
         id="stop210" /><stop
         style="stop-opacity:1;stop-color:#a13dcb"
         offset="1"
         id="stop212" /><stop
         style="stop-opacity:1;stop-color:#a13dcb"
         offset="1"
         id="stop214" /></linearGradient><linearGradient
       x1="0"
       y1="0"
       x2="1"
       y2="0"
       gradientUnits="userSpaceOnUse"
       gradientTransform="matrix(9.0126076,0,0,-9.0126076,335.10526,206.90794)"
       spreadMethod="pad"
       id="linearGradient250"><stop
         style="stop-opacity:1;stop-color:#22cbfa"
         offset="0"
         id="stop232" /><stop
         style="stop-opacity:1;stop-color:#a13dcb"
         offset="0.99987002"
         id="stop234" /><stop
         style="stop-opacity:1;stop-color:#a13dcb"
         offset="1"
         id="stop236" /><stop
         style="stop-opacity:1;stop-color:#a13dcb"
         offset="1"
         id="stop238" /><stop
         style="stop-opacity:1;stop-color:#a13dcb"
         offset="1"
         id="stop240" /><stop
         style="stop-opacity:1;stop-color:#a13dcb"
         offset="1"
         id="stop242" /><stop
         style="stop-opacity:1;stop-color:#a13dcb"
         offset="1"
         id="stop244" /><stop
         style="stop-opacity:1;stop-color:#a13dcb"
         offset="1"
         id="stop246" /><stop
         style="stop-opacity:1;stop-color:#a13dcb"
         offset="1"
         id="stop248" /></linearGradient><linearGradient
       x1="0"
       y1="0"
       x2="1"
       y2="0"
       gradientUnits="userSpaceOnUse"
       gradientTransform="matrix(8.0902328,0,0,-8.0902328,355.36948,206.92015)"
       spreadMethod="pad"
       id="linearGradient284"><stop
         style="stop-opacity:1;stop-color:#22cbfa"
         offset="0"
         id="stop266" /><stop
         style="stop-opacity:1;stop-color:#a13dcb"
         offset="0.99987002"
         id="stop268" /><stop
         style="stop-opacity:1;stop-color:#a13dcb"
         offset="1"
         id="stop270" /><stop
         style="stop-opacity:1;stop-color:#a13dcb"
         offset="1"
         id="stop272" /><stop
         style="stop-opacity:1;stop-color:#a13dcb"
         offset="1"
         id="stop274" /><stop
         style="stop-opacity:1;stop-color:#a13dcb"
         offset="1"
         id="stop276" /><stop
         style="stop-opacity:1;stop-color:#a13dcb"
         offset="1"
         id="stop278" /><stop
         style="stop-opacity:1;stop-color:#a13dcb"
         offset="1"
         id="stop280" /><stop
         style="stop-opacity:1;stop-color:#a13dcb"
         offset="1"
         id="stop282" /></linearGradient><linearGradient
       x1="0"
       y1="0"
       x2="1"
       y2="0"
       gradientUnits="userSpaceOnUse"
       gradientTransform="matrix(10.20157,0,0,-10.20157,366.29248,206.91302)"
       spreadMethod="pad"
       id="linearGradient318"><stop
         style="stop-opacity:1;stop-color:#22cbfa"
         offset="0"
         id="stop300" /><stop
         style="stop-opacity:1;stop-color:#a13dcb"
         offset="0.99987002"
         id="stop302" /><stop
         style="stop-opacity:1;stop-color:#a13dcb"
         offset="1"
         id="stop304" /><stop
         style="stop-opacity:1;stop-color:#a13dcb"
         offset="1"
         id="stop306" /><stop
         style="stop-opacity:1;stop-color:#a13dcb"
         offset="1"
         id="stop308" /><stop
         style="stop-opacity:1;stop-color:#a13dcb"
         offset="1"
         id="stop310" /><stop
         style="stop-opacity:1;stop-color:#a13dcb"
         offset="1"
         id="stop312" /><stop
         style="stop-opacity:1;stop-color:#a13dcb"
         offset="1"
         id="stop314" /><stop
         style="stop-opacity:1;stop-color:#a13dcb"
         offset="1"
         id="stop316" /></linearGradient><linearGradient
       x1="0"
       y1="0"
       x2="1"
       y2="0"
       gradientUnits="userSpaceOnUse"
       gradientTransform="matrix(9.091464,0,0,-9.091464,377.96741,206.90742)"
       spreadMethod="pad"
       id="linearGradient352"><stop
         style="stop-opacity:1;stop-color:#22cbfa"
         offset="0"
         id="stop334" /><stop
         style="stop-opacity:1;stop-color:#a13dcb"
         offset="0.99987002"
         id="stop336" /><stop
         style="stop-opacity:1;stop-color:#a13dcb"
         offset="1"
         id="stop338" /><stop
         style="stop-opacity:1;stop-color:#a13dcb"
         offset="1"
         id="stop340" /><stop
         style="stop-opacity:1;stop-color:#a13dcb"
         offset="1"
         id="stop342" /><stop
         style="stop-opacity:1;stop-color:#a13dcb"
         offset="1"
         id="stop344" /><stop
         style="stop-opacity:1;stop-color:#a13dcb"
         offset="1"
         id="stop346" /><stop
         style="stop-opacity:1;stop-color:#a13dcb"
         offset="1"
         id="stop348" /><stop
         style="stop-opacity:1;stop-color:#a13dcb"
         offset="1"
         id="stop350" /></linearGradient><linearGradient
       x1="0"
       y1="0"
       x2="1"
       y2="0"
       gradientUnits="userSpaceOnUse"
       gradientTransform="matrix(9.0120983,0,0,-9.0120983,398.29422,206.90794)"
       spreadMethod="pad"
       id="linearGradient386"><stop
         style="stop-opacity:1;stop-color:#22cbfa"
         offset="0"
         id="stop368" /><stop
         style="stop-opacity:1;stop-color:#a13dcb"
         offset="0.99987002"
         id="stop370" /><stop
         style="stop-opacity:1;stop-color:#a13dcb"
         offset="1"
         id="stop372" /><stop
         style="stop-opacity:1;stop-color:#a13dcb"
         offset="1"
         id="stop374" /><stop
         style="stop-opacity:1;stop-color:#a13dcb"
         offset="1"
         id="stop376" /><stop
         style="stop-opacity:1;stop-color:#a13dcb"
         offset="1"
         id="stop378" /><stop
         style="stop-opacity:1;stop-color:#a13dcb"
         offset="1"
         id="stop380" /><stop
         style="stop-opacity:1;stop-color:#a13dcb"
         offset="1"
         id="stop382" /><stop
         style="stop-opacity:1;stop-color:#a13dcb"
         offset="1"
         id="stop384" /></linearGradient><linearGradient
       x1="0"
       y1="0"
       x2="1"
       y2="0"
       gradientUnits="userSpaceOnUse"
       gradientTransform="matrix(10.20157,0,0,-10.20157,409.46344,206.91302)"
       spreadMethod="pad"
       id="linearGradient420"><stop
         style="stop-opacity:1;stop-color:#22cbfa"
         offset="0"
         id="stop402" /><stop
         style="stop-opacity:1;stop-color:#a13dcb"
         offset="0.99987002"
         id="stop404" /><stop
         style="stop-opacity:1;stop-color:#a13dcb"
         offset="1"
         id="stop406" /><stop
         style="stop-opacity:1;stop-color:#a13dcb"
         offset="1"
         id="stop408" /><stop
         style="stop-opacity:1;stop-color:#a13dcb"
         offset="1"
         id="stop410" /><stop
         style="stop-opacity:1;stop-color:#a13dcb"
         offset="1"
         id="stop412" /><stop
         style="stop-opacity:1;stop-color:#a13dcb"
         offset="1"
         id="stop414" /><stop
         style="stop-opacity:1;stop-color:#a13dcb"
         offset="1"
         id="stop416" /><stop
         style="stop-opacity:1;stop-color:#a13dcb"
         offset="1"
         id="stop418" /></linearGradient><linearGradient
       x1="0"
       y1="0"
       x2="1"
       y2="0"
       gradientUnits="userSpaceOnUse"
       gradientTransform="matrix(9.0873947,0,0,-9.0873947,422.65649,206.90997)"
       spreadMethod="pad"
       id="linearGradient454"><stop
         style="stop-opacity:1;stop-color:#22cbfa"
         offset="0"
         id="stop436" /><stop
         style="stop-opacity:1;stop-color:#a13dcb"
         offset="0.99987002"
         id="stop438" /><stop
         style="stop-opacity:1;stop-color:#a13dcb"
         offset="1"
         id="stop440" /><stop
         style="stop-opacity:1;stop-color:#a13dcb"
         offset="1"
         id="stop442" /><stop
         style="stop-opacity:1;stop-color:#a13dcb"
         offset="1"
         id="stop444" /><stop
         style="stop-opacity:1;stop-color:#a13dcb"
         offset="1"
         id="stop446" /><stop
         style="stop-opacity:1;stop-color:#a13dcb"
         offset="1"
         id="stop448" /><stop
         style="stop-opacity:1;stop-color:#a13dcb"
         offset="1"
         id="stop450" /><stop
         style="stop-opacity:1;stop-color:#a13dcb"
         offset="1"
         id="stop452" /></linearGradient><linearGradient
       x1="0"
       y1="0"
       x2="1"
       y2="0"
       gradientUnits="userSpaceOnUse"
       gradientTransform="matrix(8.0902328,0,0,-8.0902328,434.74554,206.92015)"
       spreadMethod="pad"
       id="linearGradient488"><stop
         style="stop-opacity:1;stop-color:#22cbfa"
         offset="0"
         id="stop470" /><stop
         style="stop-opacity:1;stop-color:#a13dcb"
         offset="0.99987002"
         id="stop472" /><stop
         style="stop-opacity:1;stop-color:#a13dcb"
         offset="1"
         id="stop474" /><stop
         style="stop-opacity:1;stop-color:#a13dcb"
         offset="1"
         id="stop476" /><stop
         style="stop-opacity:1;stop-color:#a13dcb"
         offset="1"
         id="stop478" /><stop
         style="stop-opacity:1;stop-color:#a13dcb"
         offset="1"
         id="stop480" /><stop
         style="stop-opacity:1;stop-color:#a13dcb"
         offset="1"
         id="stop482" /><stop
         style="stop-opacity:1;stop-color:#a13dcb"
         offset="1"
         id="stop484" /><stop
         style="stop-opacity:1;stop-color:#a13dcb"
         offset="1"
         id="stop486" /></linearGradient><linearGradient
       x1="0"
       y1="0"
       x2="1"
       y2="0"
       gradientUnits="userSpaceOnUse"
       gradientTransform="matrix(9.1779528,0,0,-9.1779528,445.83743,206.90794)"
       spreadMethod="pad"
       id="linearGradient522"><stop
         style="stop-opacity:1;stop-color:#22cbfa"
         offset="0"
         id="stop504" /><stop
         style="stop-opacity:1;stop-color:#a13dcb"
         offset="0.99987002"
         id="stop506" /><stop
         style="stop-opacity:1;stop-color:#a13dcb"
         offset="1"
         id="stop508" /><stop
         style="stop-opacity:1;stop-color:#a13dcb"
         offset="1"
         id="stop510" /><stop
         style="stop-opacity:1;stop-color:#a13dcb"
         offset="1"
         id="stop512" /><stop
         style="stop-opacity:1;stop-color:#a13dcb"
         offset="1"
         id="stop514" /><stop
         style="stop-opacity:1;stop-color:#a13dcb"
         offset="1"
         id="stop516" /><stop
         style="stop-opacity:1;stop-color:#a13dcb"
         offset="1"
         id="stop518" /><stop
         style="stop-opacity:1;stop-color:#a13dcb"
         offset="1"
         id="stop520" /></linearGradient><linearGradient
       x1="0"
       y1="0"
       x2="1"
       y2="0"
       gradientUnits="userSpaceOnUse"
       gradientTransform="matrix(81.638733,0,0,-81.638733,325.05783,312.90988)"
       spreadMethod="pad"
       id="linearGradient544"><stop
         style="stop-opacity:1;stop-color:#51cebc"
         offset="0"
         id="stop538" /><stop
         style="stop-opacity:1;stop-color:#51cebc"
         offset="0.00068952"
         id="stop540" /><stop
         style="stop-opacity:1;stop-color:#0085ee"
         offset="1"
         id="stop542" /></linearGradient><linearGradient
       x1="0"
       y1="0"
       x2="1"
       y2="0"
       gradientUnits="userSpaceOnUse"
       gradientTransform="matrix(81.813255,0,0,-81.813255,308.45346,312.9053)"
       spreadMethod="pad"
       id="linearGradient566"><stop
         style="stop-opacity:1;stop-color:#51cebc"
         offset="0"
         id="stop560" /><stop
         style="stop-opacity:1;stop-color:#51cebc"
         offset="0.00068952"
         id="stop562" /><stop
         style="stop-opacity:1;stop-color:#0085ee"
         offset="1"
         id="stop564" /></linearGradient><linearGradient
       x1="0"
       y1="0"
       x2="1"
       y2="0"
       gradientUnits="userSpaceOnUse"
       gradientTransform="matrix(24.267801,0,0,-24.267801,284.18802,312.90411)"
       spreadMethod="pad"
       id="linearGradient588"><stop
         style="stop-opacity:1;stop-color:#51cebc"
         offset="0"
         id="stop582" /><stop
         style="stop-opacity:1;stop-color:#51cebc"
         offset="0.00068952"
         id="stop584" /><stop
         style="stop-opacity:1;stop-color:#0085ee"
         offset="1"
         id="stop586" /></linearGradient><linearGradient
       x1="0"
       y1="0"
       x2="1"
       y2="0"
       gradientUnits="userSpaceOnUse"
       gradientTransform="matrix(40.876884,0,0,-40.876884,283.62299,312.48026)"
       spreadMethod="pad"
       id="linearGradient610"><stop
         style="stop-opacity:1;stop-color:#51cebc"
         offset="0"
         id="stop604" /><stop
         style="stop-opacity:1;stop-color:#51cebc"
         offset="0.00068952"
         id="stop606" /><stop
         style="stop-opacity:1;stop-color:#0085ee"
         offset="1"
         id="stop608" /></linearGradient></defs><sodipodi:namedview
     id="namedview4"
     pagecolor="#ffffff"
     bordercolor="#666666"
     borderopacity="1.0"
     inkscape:pageshadow="2"
     inkscape:pageopacity="0.0"
     inkscape:pagecheckerboard="0"
     showgrid="false"
     inkscape:zoom="2.38"
     inkscape:cx="118.06723"
     inkscape:cy="135.08403"
     inkscape:window-width="1920"
     inkscape:window-height="1021"
     inkscape:window-x="1920"
     inkscape:window-y="0"
     inkscape:window-maximized="1"
     inkscape:current-layer="g8"
     fit-margin-top="0"
     fit-margin-left="0"
     fit-margin-right="0"
     fit-margin-bottom="0" /><g
     id="g8"
     inkscape:groupmode="layer"
     inkscape:label="ai d"
     transform="matrix(1.3333333,0,0,-1.3333333,-313.45545,499.03999)"><text
       transform="matrix(0.57425332,0,0,-1,233.8052,218.3994)"
       style="font-variant:normal;font-weight:bold;font-stretch:normal;font-size:35.0018px;font-family:'Nirmala UI';-inkscape-font-specification:NirmalaUI-Bold;writing-mode:lr-tb;fill:#ffffff;fill-opacity:1;fill-rule:nonzero;stroke:none"
       id="text14"><tspan
         x="0 26.566366 55.477852 77.24897 89.604607 111.37572 130.52171 150.40274 177.45912 188.37968 208.26071 227.40669 247.28772 270.38892 292.16003 315.92975 343.72119 372.63266 384.98831 408.08948"
         y="0"
         sodipodi:role="line"
         id="tspan12">UNTITLED ELECTRONICS</tspan></text><g
       id="g16"
       style="fill:#000002;fill-opacity:1"><g
         id="g18"
         style="fill:#000002;fill-opacity:1"><g
           id="g24"
           style="fill:#000002;fill-opacity:1"><g
             id="g26"
             style="fill:#000002;fill-opacity:1"><path
               d="m 263.976,211.941 v -10.129 h -1.47 v 4.33 h -6.686 v 5.799 h 1.47 v -4.33 h 5.216 v 4.33 z"
               style="fill:#000002;stroke:none;fill-opacity:1"
               id="path48" /></g></g></g></g><g
       id="g50"
       style="fill:#000000;fill-opacity:1"><g
         id="g52"
         style="fill:#000000;fill-opacity:1"><g
           id="g58"
           style="fill:#000000;fill-opacity:1"><g
             id="g60"
             style="fill:#000000;fill-opacity:1"><path
               d="m 272.512,211.94 h -2.418 c -0.071,0.006 -0.142,0.01 -0.215,0.01 v 0 c -0.072,0 -0.144,-0.004 -0.215,-0.01 v 0 c -0.014,-0.001 -0.029,-0.002 -0.045,-0.003 v 0 c -0.425,-0.037 -0.823,-0.166 -1.176,-0.368 v 0 c -0.414,-0.235 -0.765,-0.569 -1.02,-0.972 v 0 c -0.026,-0.041 -0.051,-0.083 -0.075,-0.126 v 0 c 0,-0.001 -0.001,-0.002 -0.002,-0.004 v 0 c -0.238,-0.42 -0.373,-0.906 -0.373,-1.424 v 0 -4.324 c 0,-0.522 0.139,-1.013 0.38,-1.436 v 0 c 0.023,-0.041 0.046,-0.08 0.07,-0.119 v 0 c 0.239,-0.376 0.562,-0.694 0.942,-0.927 v 0 c 0.026,-0.015 0.052,-0.03 0.078,-0.045 v 0 c 0.424,-0.241 0.914,-0.38 1.436,-0.38 v 0 h 2.848 c 0.066,0 0.13,0.002 0.194,0.007 v 0 c 0.063,0.003 0.125,0.01 0.188,0.019 v 0 h 0.004 c 0.051,0.007 0.103,0.014 0.153,0.024 v 0 c 0.012,0.003 0.023,0.004 0.035,0.007 v 0 c 0.031,0.006 0.06,0.013 0.09,0.02 v 0 c 0.032,0.007 0.061,0.015 0.092,0.023 v 0 c 0.067,0.017 0.132,0.037 0.196,0.06 v 0 c 0.024,0.008 0.047,0.016 0.07,0.026 v 0 c 0.093,0.034 0.185,0.074 0.273,0.119 v 0 c 0.022,0.009 0.041,0.019 0.061,0.031 v 0 c 0.027,0.014 0.054,0.029 0.081,0.044 v 0 c 0.025,0.015 0.052,0.03 0.077,0.045 v 0 c 0.025,0.016 0.05,0.032 0.075,0.049 v 0 c 0.025,0.016 0.051,0.032 0.074,0.049 v 0 c 0.024,0.017 0.048,0.034 0.071,0.051 v 0 c 0.021,0.015 0.043,0.032 0.063,0.048 v 0 c 0.016,0.012 0.031,0.025 0.045,0.036 v 0 c 0.078,0.063 0.152,0.132 0.223,0.203 v 0 c 0.021,0.021 0.042,0.043 0.063,0.065 v 0 c 0.122,0.131 0.232,0.274 0.328,0.426 v 0 c 0.286,0.45 0.451,0.983 0.451,1.555 v 0 4.324 c 0,0.518 -0.136,1.004 -0.374,1.424 v 0 c 0,0.002 0,0.003 -10e-4,0.004 v 0 c -0.024,0.043 -0.049,0.085 -0.076,0.126 v 0 c -0.255,0.403 -0.605,0.737 -1.019,0.972 v 0 c -0.353,0.202 -0.751,0.331 -1.177,0.368 v 0 c -0.014,10e-4 -0.03,0.002 -0.045,0.003 v 0 c -0.071,0.006 -0.142,0.01 -0.215,0.01 v 0 c -0.073,0 -0.144,-0.004 -0.215,-0.01 m 0.035,-1.473 c 0.01,0.002 0.021,0.003 0.031,0.004 v 0 h 0.298 c 0.011,-0.001 0.022,-0.002 0.032,-0.004 v 0 c 0.707,-0.088 1.256,-0.694 1.256,-1.424 v 0 -4.324 c 0,-0.793 -0.645,-1.436 -1.437,-1.436 v 0 h -2.848 c -0.792,0 -1.436,0.643 -1.436,1.436 v 0 4.324 c 0,0.73 0.548,1.336 1.256,1.424 v 0 c 0.01,0.002 0.021,0.003 0.032,0.004 v 0 h 0.299 c 0.01,-0.001 0.02,-0.002 0.031,-0.004 v 0 z"
               style="fill:#000000;stroke:none;fill-opacity:1"
               id="path82" /></g></g></g></g><g
       id="g84"
       style="fill:#000000;fill-opacity:1"><g
         id="g86"
         style="fill:#000000;fill-opacity:1"><g
           id="g92"
           style="fill:#000000;fill-opacity:1"><g
             id="g94"
             style="fill:#000000;fill-opacity:1"><path
               d="m 285.058,211.94 v -4.329 h -5.217 v 4.329 h -1.469 v -5.799 h 6.686 v -4.329 h 1.47 v 10.128 z"
               style="fill:#000000;stroke:none;fill-opacity:1"
               id="path116" /></g></g></g></g><g
       id="g118"
       style="fill:#000000;fill-opacity:1"><g
         id="g120"
         style="fill:#000000;fill-opacity:1"><g
           id="g126"
           style="fill:#000000;fill-opacity:1"><g
             id="g128"
             style="fill:#000000;fill-opacity:1"><path
               d="m 297.763,209.949 1.471,-1.47 v 10e-4 l 5.15,-5.152 1.47,-1.469 v 10.149 h -1.47 v -6.6 l -6.621,6.62 z m 0,-8.137 h 1.471 v 5.627 l -1.471,1.471 z"
               style="fill:#000000;stroke:none;fill-opacity:1"
               id="path150" /></g></g></g></g><g
       id="g152"
       style="fill:#000000;fill-opacity:1"><g
         id="g154"
         style="fill:#000000;fill-opacity:1"><g
           id="g160"
           style="fill:#000000;fill-opacity:1"><g
             id="g162"
             style="fill:#000000;fill-opacity:1"><path
               d="m 314.181,212.039 -0.97,-1.753 0.971,-1.753 3.719,-6.721 h 1.942 l -4.69,8.474 -0.971,1.754 z m -5.66,-10.227 h 1.941 l 3.233,5.841 -0.966,1.762 z"
               style="fill:#000000;stroke:none;fill-opacity:1"
               id="path184" /></g></g></g></g><g
       id="g186"
       style="fill:#000000;fill-opacity:1"><g
         id="g188"
         style="fill:#000000;fill-opacity:1"><g
           id="g194"
           style="fill:#000000;fill-opacity:1"><g
             id="g196"
             style="fill:#000000;fill-opacity:1"><path
               d="m 322.846,209.965 1.47,-1.471 v 0.001 l 3.11,-3.111 0.56,0.559 0.481,0.481 1.999,2 v -6.612 h 1.471 v 10.161 l -4.511,-4.509 -4.58,4.58 z m 0,-8.153 h 1.47 v 5.643 l -1.47,1.471 z"
               style="fill:#000000;stroke:none;fill-opacity:1"
               id="path218" /></g></g></g></g><g
       id="g220"
       style="fill:#000000;fill-opacity:1"><g
         id="g222"
         style="fill:#000000;fill-opacity:1"><g
           id="g228"
           style="fill:#000000;fill-opacity:1"><g
             id="g230"
             style="fill:#000000;fill-opacity:1"><path
               d="m 335.105,210.533 h 9.013 v 1.471 h -9.013 z m 0,-0.734 v -7.987 h 9.013 v 1.471 h -7.543 v 3.259 h 6.555 v 1.47 h -6.555 v 1.787 z"
               style="fill:#000000;stroke:none;fill-opacity:1"
               id="path252" /></g></g></g></g><g
       id="g254"
       style="fill:#000000;fill-opacity:1"><g
         id="g256"
         style="fill:#000000;fill-opacity:1"><g
           id="g262"
           style="fill:#000000;fill-opacity:1"><g
             id="g264"
             style="fill:#000000;fill-opacity:1"><path
               d="m 355.37,209.949 1.469,-1.47 v 10e-4 l 5.151,-5.152 1.47,-1.469 v 10.149 h -1.47 v -6.6 l -6.62,6.62 z m 0,-8.137 h 1.469 v 5.627 l -1.469,1.471 z"
               style="fill:#000000;stroke:none;fill-opacity:1"
               id="path286" /></g></g></g></g><g
       id="g288"
       style="fill:#000000;fill-opacity:1"><g
         id="g290"
         style="fill:#000000;fill-opacity:1"><g
           id="g296"
           style="fill:#000000;fill-opacity:1"><g
             id="g298"
             style="fill:#000000;fill-opacity:1"><path
               d="m 366.293,206.913 c 0,-2.816 2.283,-5.101 5.1,-5.101 v 0 c 2.817,0 5.101,2.285 5.101,5.101 v 0 c 10e-4,2.818 -2.283,5.101 -5.101,5.101 v 0 c -2.817,0 -5.1,-2.283 -5.1,-5.101 m 1.469,0 c 0,2.002 1.629,3.63 3.631,3.63 v 0 c 2.003,0 3.632,-1.628 3.632,-3.63 v 0 c 0,-2.003 -1.629,-3.63 -3.632,-3.63 v 0 c -2.002,0 -3.631,1.627 -3.631,3.63"
               style="fill:#000000;stroke:none;fill-opacity:1"
               id="path320" /></g></g></g></g><g
       id="g322"
       style="fill:#000000;fill-opacity:1"><g
         id="g324"
         style="fill:#000000;fill-opacity:1"><g
           id="g330"
           style="fill:#000000;fill-opacity:1"><g
             id="g332"
             style="fill:#000000;fill-opacity:1"><path
               d="m 377.968,210.533 h 9.091 v 1.47 h -9.091 z m 3.732,-8.721 h 1.47 v 7.984 h -1.47 z"
               style="fill:#000000;stroke:none;fill-opacity:1"
               id="path354" /></g></g></g></g><g
       id="g356"
       style="fill:#000000;fill-opacity:1"><g
         id="g358"
         style="fill:#000000;fill-opacity:1"><g
           id="g364"
           style="fill:#000000;fill-opacity:1"><g
             id="g366"
             style="fill:#000000;fill-opacity:1"><path
               d="m 398.294,210.533 h 9.013 v 1.471 h -9.013 z m 0,-0.734 v -7.987 h 1.471 v 4.731 h 6.554 v 1.469 h -6.554 v 1.787 z"
               style="fill:#000000;stroke:none;fill-opacity:1"
               id="path388" /></g></g></g></g><g
       id="g390"
       style="fill:#000000;fill-opacity:1"><g
         id="g392"
         style="fill:#000000;fill-opacity:1"><g
           id="g398"
           style="fill:#000000;fill-opacity:1"><g
             id="g400"
             style="fill:#000000;fill-opacity:1"><path
               d="m 409.463,206.913 c 0,-2.816 2.285,-5.101 5.101,-5.101 v 0 c 2.817,0 5.101,2.285 5.101,5.101 v 0 c 10e-4,2.818 -2.284,5.101 -5.101,5.101 v 0 c -2.816,0 -5.101,-2.283 -5.101,-5.101 m 1.471,0 c 0,2.002 1.628,3.63 3.63,3.63 v 0 c 2.003,0 3.631,-1.628 3.631,-3.63 v 0 c 0,-2.003 -1.628,-3.63 -3.631,-3.63 v 0 c -2.002,0 -3.63,1.627 -3.63,3.63"
               style="fill:#000000;stroke:none;fill-opacity:1"
               id="path422" /></g></g></g></g><g
       id="g424"
       style="fill:#000000;fill-opacity:1"><g
         id="g426"
         style="fill:#000000;fill-opacity:1"><g
           id="g432"
           style="fill:#000000;fill-opacity:1"><g
             id="g434"
             style="fill:#000000;fill-opacity:1"><path
               d="m 430.274,212.008 v -5.628 c 0,-1.659 -1.306,-3.048 -2.965,-3.096 v 0 c -0.035,-0.001 -0.071,-0.001 -0.106,-0.001 v 0 c -0.038,0 -0.076,0 -0.113,0.002 v 0 c -1.657,0.049 -2.963,1.436 -2.963,3.096 v 0 5.627 h -1.471 v -6.478 c 0,-0.769 0.28,-1.516 0.802,-2.081 v 0 c 0.204,-0.22 0.429,-0.422 0.669,-0.605 v 0 c 0.855,-0.647 1.92,-1.032 3.076,-1.032 v 0 c 1.154,0 2.217,0.383 3.071,1.029 v 0 c 0.238,0.18 0.462,0.381 0.665,0.599 v 0 c 0.526,0.565 0.804,1.314 0.804,2.084 v 0 6.484 z"
               style="fill:#000000;stroke:none;fill-opacity:1"
               id="path456" /></g></g></g></g><g
       id="g458"
       style="fill:#000000;fill-opacity:1"><g
         id="g460"
         style="fill:#000000;fill-opacity:1"><g
           id="g466"
           style="fill:#000000;fill-opacity:1"><g
             id="g468"
             style="fill:#000000;fill-opacity:1"><path
               d="m 434.746,209.949 1.47,-1.47 v 10e-4 l 5.149,-5.152 1.471,-1.469 v 10.149 h -1.471 v -6.6 l -6.619,6.62 z m 0,-8.137 h 1.47 v 5.627 l -1.47,1.471 z"
               style="fill:#000000;stroke:none;fill-opacity:1"
               id="path490" /></g></g></g></g><g
       id="g492"
       style="fill:#000000;fill-opacity:1"><g
         id="g494"
         style="fill:#000000;fill-opacity:1"><g
           id="g500"
           style="fill:#000000;fill-opacity:1"><g
             id="g502"
             style="fill:#000000;fill-opacity:1"><path
               d="m 445.837,212.004 v -1.476 h 4.224 c 0.763,-0.032 1.465,-0.301 2.037,-0.734 v 0 c 0.696,-0.528 1.198,-1.299 1.376,-2.186 v 0 c 0.047,-0.232 0.071,-0.473 0.071,-0.721 v 0 c 0,-0.256 -0.026,-0.506 -0.077,-0.748 v 0 c -0.312,-1.483 -1.527,-2.637 -3.041,-2.856 v 0 h -3.119 v 6.511 h -1.471 v -7.982 h 4.689 c 2.284,0.278 4.102,2.06 4.435,4.327 v 0 c 0.036,0.244 0.055,0.494 0.055,0.748 v 0 c 0,0.246 -0.018,0.486 -0.052,0.721 v 0 c -0.346,2.466 -2.449,4.365 -5.004,4.393 v 0 0.003 z"
               style="fill:#000000;stroke:none;fill-opacity:1"
               id="path524" /></g></g></g></g><g
       id="g526"><g
         id="g528"><g
           id="g534"><g
             id="g536"><path
               d="m 325.065,337.412 4.066,-4.066 8.07,-8.063 4.061,4.061 -8.065,8.068 12.131,12.134 18.603,-18.608 h -0.002 l 2.546,-2.542 0.117,-0.117 0.11,-0.111 0.186,-0.184 0.046,-0.048 0.239,-0.237 v -0.002 l 0.243,-0.241 0.031,-0.032 0.217,-0.218 0.046,-0.046 0.212,-0.21 0.041,-0.046 0.218,-0.216 0.025,-0.027 1.625,-1.622 12.132,-12.133 -12.132,-12.135 -1.599,-1.598 -0.026,-0.024 -0.213,-0.215 -0.03,-0.028 -0.207,-0.209 -0.043,-0.046 -0.186,-0.184 -0.079,-0.08 -0.145,-0.142 -0.13,-0.134 -0.087,-0.085 -2.473,-2.47 h 0.003 l -19.288,-19.289 -12.135,12.136 8.069,8.072 -0.004,0.003 -4.064,4.064 -12.137,-12.134 20.267,-20.267 26.932,26.936 1.638,1.638 12.128,12.129 h 0.001 l 4.239,-4.239 4.067,-4.063 4.065,4.063 8.303,8.305 c -4.12,4.126 -8.245,8.247 -12.368,12.371 v 0 l -4.065,-4.067 -1.272,-1.27 h 0.002 l -0.057,-0.06 -2.914,-2.913 -18.033,18.038 -22.662,22.669 z m 65.025,-24.506 h 0.002 l 4.241,4.24 4.238,-4.24 -4.24,-4.241 z"
               style="fill:url(#linearGradient544);stroke:none"
               id="path546" /></g></g></g></g><g
       id="g548"><g
         id="g550"><g
           id="g556"><g
             id="g558"><path
               d="m 338.947,367.903 -5.799,-5.801 -0.192,-0.19 h 0.002 l -12.136,-12.134 -12.249,-12.251 -0.12,-0.117 14.071,-14.066 0.016,-0.016 0.469,-0.471 0.473,-0.471 9.478,-9.476 -10.436,-10.439 -1.7,-1.7 -0.096,-0.096 -12.079,-12.079 -0.196,-0.193 12.371,-12.368 12.134,-12.134 6.377,-6.377 c 1.932,-1.934 3.864,-3.869 5.799,-5.8 v 0 l 0.075,-0.076 0.117,-0.118 31.656,31.659 5.157,5.155 -0.002,0.004 0.057,0.057 8.07,8.07 -4.066,4.067 -40.874,-40.877 c -0.641,0.641 -1.282,1.284 -1.925,1.925 v 0 l -26.815,26.815 20.44,20.441 4.238,-4.238 4.066,-4.066 12.309,12.308 0.057,0.06 -0.117,0.115 -8.184,8.189 v 0.002 l -4.065,4.065 h -0.002 l -4.059,-4.06 -4.243,-4.246 -6.847,6.847 -3.59,3.588 -10.001,10.002 26.427,26.427 c 0.772,0.772 1.544,1.544 2.315,2.318 v 0 c 9.417,-9.393 18.84,-18.779 28.211,-28.217 v 0 l 12.662,-12.662 4.066,4.066 -10.056,10.053 -0.181,0.184 -0.082,0.08 -0.255,0.255 -0.095,0.094 -0.155,0.157 -0.244,0.243 -0.058,0.057 -0.181,0.179 -0.23,0.233 -0.073,0.071 -0.149,0.152 -0.826,0.821 -0.066,0.067 c -9.412,9.417 -28.938,28.943 -32.29,32.29 v 0 c -2.127,-2.125 -4.254,-4.252 -6.379,-6.377 m 6.387,-50.748 4.238,-4.243 -4.244,-4.243 v 0.002 l -4.238,4.239 h 0.003 -0.003 z"
               style="fill:url(#linearGradient566);stroke:none"
               id="path568" /></g></g></g></g><g
       id="g570"><g
         id="g572"><g
           id="g578"><g
             id="g580"><path
               d="m 284.188,312.906 12.134,-12.135 12.134,12.135 -12.134,12.131 z"
               style="fill:url(#linearGradient588);stroke:none"
               id="path590" /></g></g></g></g><g
       id="g592"><g
         id="g594"><g
           id="g600"><g
             id="g602"><path
               d="m 283.623,312.483 20.438,-20.441 20.342,20.344 v -0.002 l 0.096,0.099 c -6.811,6.811 -13.615,13.636 -20.438,20.436 v 0 z"
               style="fill:url(#linearGradient610);stroke:none"
               id="path612" /></g></g></g></g></g></svg>
