M48
; DRILL file {KiCad 5.1.2} date Mon 19 Aug 2019 06:05:55 PM CDT
; FORMAT={-:-/ absolute / inch / decimal}
; #@! TF.CreationDate,2019-08-19T18:05:55-05:00
; #@! TF.GenerationSoftware,Kicad,Pcbnew,5.1.2
; #@! TF.FileFunction,Plated,1,2,PTH
FMAT,2
INCH
T1C0.0394
%
G90
G05
T1
X5.1685Y-2.3386
X5.2685Y-2.2386
X5.2685Y-2.3386
X7.2157Y-2.2386
X7.2157Y-2.3386
X7.3157Y-2.2386
X7.3157Y-2.3386
X7.4157Y-2.2386
X7.4157Y-2.3386
X6.1421Y-2.2386
X6.1421Y-2.3386
X6.2421Y-2.2386
X6.2421Y-2.3386
X6.3421Y-2.2386
X6.3421Y-2.3386
X3.9949Y-2.2386
X3.9949Y-2.3386
X4.0949Y-2.2386
X4.0949Y-2.3386
X4.1949Y-2.2386
X4.1949Y-2.3386
X5.0685Y-2.2386
X5.0685Y-2.3386
X5.1685Y-2.2386
T0
M30
