M48
; DRILL file {KiCad 5.1.2} date Sun 16 Jun 2019 11:28:05 PM CDT
; FORMAT={-:-/ absolute / inch / decimal}
; #@! TF.CreationDate,2019-06-16T23:28:05-05:00
; #@! TF.GenerationSoftware,Kicad,Pcbnew,5.1.2
; #@! TF.FileFunction,Plated,1,2,PTH
FMAT,2
INCH
T1C0.0157
T2C0.0236
T3C0.0394
%
G90
G05
T1
X5.3543Y-1.6024
X5.4331Y-1.4409
X5.6693Y-1.4961
X5.6909Y-2.4134
X5.7717Y-2.6378
X5.7953Y-1.5059
X5.8031Y-1.3465
X5.8227Y-2.1605
X5.8298Y-2.0865
X5.8681Y-2.752
X5.8839Y-2.0906
X5.8937Y-2.2992
X5.9229Y-2.0518
X5.9803Y-2.0906
X6.0039Y-2.4488
X6.0276Y-2.2402
X6.0433Y-2.0118
X6.0514Y-2.4794
X6.0591Y-2.3228
X6.1118Y-2.9984
X6.1299Y-2.7992
X6.1417Y-2.4803
X6.1417Y-2.5866
X6.1732Y-3.0236
X6.189Y-2.4961
X6.1929Y-2.1969
X6.2244Y-2.1594
X6.3976Y-3.0512
X6.4969Y-3.556
X6.4985Y-3.281
X6.5059Y-3.4173
X6.5059Y-4.252
X6.5059Y-4.3898
X6.5079Y-3.6949
X6.5079Y-4.1161
X6.5118Y-3.8386
X6.5197Y-3.9724
X6.5728Y-3.061
X6.6476Y-3.5571
X6.6496Y-3.4173
X6.6496Y-3.6949
X6.6496Y-3.8386
X6.6516Y-3.9724
X6.6516Y-4.1161
X6.6535Y-4.252
X6.6535Y-4.3898
X6.6541Y-3.281
X6.811Y-4.252
X6.811Y-4.3898
X6.8115Y-3.281
X6.813Y-3.4173
X6.813Y-3.8386
X6.813Y-3.9724
X6.813Y-4.1161
X6.815Y-3.5571
X6.815Y-3.6949
X6.8228Y-3.1988
X6.9665Y-4.252
X6.9665Y-4.3898
X6.9685Y-3.4173
X6.9685Y-3.9724
X6.969Y-3.281
X6.9705Y-3.5571
X6.9705Y-3.6949
X6.9705Y-3.8386
X6.9705Y-4.1161
X7.124Y-3.8386
X7.124Y-3.9724
X7.126Y-3.4173
X7.126Y-3.6949
X7.126Y-4.1161
X7.126Y-4.252
X7.126Y-4.3898
X7.128Y-3.5571
X7.1344Y-3.281
X7.2835Y-4.1161
X7.2835Y-4.252
X7.2835Y-4.3898
X7.284Y-3.281
X7.2854Y-3.4173
X7.2854Y-3.5571
X7.2854Y-3.6949
X7.2854Y-3.9724
X7.2874Y-3.8386
X7.3681Y-1.2953
X7.4291Y-1.3622
X7.4449Y-3.4173
X7.4454Y-3.281
X7.4469Y-3.5571
X7.4469Y-3.6949
X7.4469Y-3.8386
X7.4469Y-3.9724
X7.4488Y-4.1161
X7.4508Y-4.252
X7.4508Y-4.3898
X7.6024Y-3.4173
X7.6029Y-3.281
X7.6043Y-3.5571
X7.6043Y-3.6949
X7.6063Y-3.8386
X7.6083Y-3.9724
X7.6083Y-4.1161
X7.6083Y-4.252
X7.6083Y-4.3898
X7.6333Y-1.3725
X7.7568Y-3.556
X7.7584Y-3.281
X7.7657Y-3.4173
X7.7657Y-4.252
X7.7657Y-4.3898
X7.7677Y-3.6949
X7.7677Y-4.1161
X7.7717Y-3.8386
X7.7795Y-3.9724
X7.9075Y-3.5571
X7.9094Y-3.4173
X7.9094Y-3.6949
X7.9094Y-3.8386
X7.9114Y-3.9724
X7.9114Y-4.1161
X7.9134Y-4.252
X7.9134Y-4.3898
X7.9139Y-3.281
X8.0709Y-4.252
X8.0709Y-4.3898
X8.0714Y-3.281
X8.0728Y-3.4173
X8.0728Y-3.8386
X8.0728Y-3.9724
X8.0728Y-4.1161
X8.0748Y-3.5571
X8.0748Y-3.6949
X8.2264Y-4.252
X8.2264Y-4.3898
X8.2283Y-3.4173
X8.2283Y-3.9724
X8.2289Y-3.281
X8.2303Y-3.5571
X8.2303Y-3.6949
X8.2303Y-3.8386
X8.2303Y-4.1161
X8.3839Y-3.8386
X8.3839Y-3.9724
X8.3858Y-3.4173
X8.3858Y-3.6949
X8.3858Y-4.1161
X8.3858Y-4.252
X8.3858Y-4.3898
X8.3878Y-3.5571
X8.3942Y-3.281
X8.5433Y-4.1161
X8.5433Y-4.252
X8.5433Y-4.3898
X8.5438Y-3.281
X8.5453Y-3.4173
X8.5453Y-3.5571
X8.5453Y-3.6949
X8.5453Y-3.9724
X8.5472Y-3.8386
X8.7047Y-3.4173
X8.7052Y-3.281
X8.7067Y-3.5571
X8.7067Y-3.6949
X8.7067Y-3.8386
X8.7067Y-3.9724
X8.7087Y-4.1161
X8.7106Y-4.252
X8.7106Y-4.3898
X8.8622Y-3.4173
X8.8627Y-3.281
X8.8642Y-3.5571
X8.8642Y-3.6949
X8.8661Y-3.8386
X8.8681Y-3.9724
X8.8681Y-4.1161
X8.8681Y-4.252
X8.8681Y-4.3898
T3
X5.4449Y-1.6575
X5.5449Y-1.6575
X5.6449Y-1.6575
X5.7449Y-1.6575
X5.8449Y-1.6575
X5.9449Y-1.6575
X6.0449Y-1.6575
X6.1449Y-1.6575
X6.2449Y-1.6575
X6.3449Y-1.6575
X6.4449Y-1.6575
X6.5449Y-1.6575
X6.6449Y-1.6575
X6.7449Y-1.6575
X6.8449Y-1.6575
X6.9449Y-1.6575
X7.0449Y-1.6575
X5.5409Y-1.8465
X5.6409Y-1.8465
X5.7409Y-1.8465
X5.8409Y-1.8465
X5.9409Y-1.8465
X5.5748Y-2.2409
X5.5748Y-2.3409
X5.5748Y-2.4409
X7.3976Y-2.2854
X7.3976Y-2.3854
X5.3583Y-2.0205
X5.3583Y-2.1205
X5.3583Y-2.2205
X5.3583Y-2.3205
X6.5945Y-2.2961
X6.5945Y-2.3961
X6.5945Y-2.4961
X6.0465Y-1.8465
X6.1465Y-1.8465
X6.2465Y-1.8465
X6.3465Y-1.8465
X6.4465Y-1.8465
T2
G00X5.5583Y-1.2421
M15
G01X5.5583Y-1.2106
M16
G05
G00X5.5583Y-1.4114
M15
G01X5.5583Y-1.3681
M16
G05
G00X5.8984Y-1.2421
M15
G01X5.8984Y-1.2106
M16
G05
G00X5.8984Y-1.4114
M15
G01X5.8984Y-1.3681
M16
G05
T0
M30
