G04 #@! TF.GenerationSoftware,KiCad,Pcbnew,5.1.2*
G04 #@! TF.CreationDate,2019-08-18T11:58:05-05:00*
G04 #@! TF.ProjectId,WordClockMiddle,576f7264-436c-46f6-936b-4d6964646c65,rev?*
G04 #@! TF.SameCoordinates,Original*
G04 #@! TF.FileFunction,Copper,L2,Bot*
G04 #@! TF.FilePolarity,Positive*
%FSLAX46Y46*%
G04 Gerber Fmt 4.6, Leading zero omitted, Abs format (unit mm)*
G04 Created by KiCad (PCBNEW 5.1.2) date 2019-08-18 11:58:05*
%MOMM*%
%LPD*%
G04 APERTURE LIST*
%ADD10C,0.010000*%
%ADD11C,0.600000*%
G04 APERTURE END LIST*
D10*
G36*
X116412038Y-130509916D02*
G01*
X116400500Y-131282500D01*
X110632583Y-131293234D01*
X104864666Y-131303969D01*
X104864666Y-129737333D01*
X116423576Y-129737333D01*
X116412038Y-130509916D01*
X116412038Y-130509916D01*
G37*
X116412038Y-130509916D02*
X116400500Y-131282500D01*
X110632583Y-131293234D01*
X104864666Y-131303969D01*
X104864666Y-129737333D01*
X116423576Y-129737333D01*
X116412038Y-130509916D01*
G36*
X192696704Y-130509916D02*
G01*
X192685166Y-131282500D01*
X186917250Y-131293234D01*
X181149333Y-131303969D01*
X181149333Y-129737333D01*
X192708243Y-129737333D01*
X192696704Y-130509916D01*
X192696704Y-130509916D01*
G37*
X192696704Y-130509916D02*
X192685166Y-131282500D01*
X186917250Y-131293234D01*
X181149333Y-131303969D01*
X181149333Y-129737333D01*
X192708243Y-129737333D01*
X192696704Y-130509916D01*
G36*
X116421666Y-59802666D02*
G01*
X104864666Y-59802666D01*
X104864666Y-58278666D01*
X116421666Y-58278666D01*
X116421666Y-59802666D01*
X116421666Y-59802666D01*
G37*
X116421666Y-59802666D02*
X104864666Y-59802666D01*
X104864666Y-58278666D01*
X116421666Y-58278666D01*
X116421666Y-59802666D01*
G36*
X192706333Y-59802666D02*
G01*
X181149333Y-59802666D01*
X181149333Y-58278666D01*
X192706333Y-58278666D01*
X192706333Y-59802666D01*
X192706333Y-59802666D01*
G37*
X192706333Y-59802666D02*
X181149333Y-59802666D01*
X181149333Y-58278666D01*
X192706333Y-58278666D01*
X192706333Y-59802666D01*
D11*
X189860000Y-59060000D03*
X184070000Y-59060000D03*
X186000000Y-59060000D03*
X182140000Y-59060000D03*
X191790000Y-59060000D03*
X187930000Y-59060000D03*
X184010000Y-130520000D03*
X187870000Y-130520000D03*
X191730000Y-130520000D03*
X182080000Y-130520000D03*
X185940000Y-130520000D03*
X189800000Y-130520000D03*
X107840000Y-130510000D03*
X113630000Y-130510000D03*
X109770000Y-130510000D03*
X111700000Y-130510000D03*
X115560000Y-130510000D03*
X105910000Y-130510000D03*
X115460000Y-59010000D03*
X113530000Y-59010000D03*
X107740000Y-59010000D03*
X109670000Y-59010000D03*
X105810000Y-59010000D03*
X111600000Y-59010000D03*
M02*
