%TF.GenerationSoftware,KiCad,Pcbnew,(5.99.0-9526-g5c17ff0595)*%
%TF.CreationDate,2021-04-11T17:42:09-05:00*%
%TF.ProjectId,DualingDev-ESP32,4475616c-696e-4674-9465-762d45535033,rev?*%
%TF.SameCoordinates,Original*%
%TF.FileFunction,Copper,L2,Bot*%
%TF.FilePolarity,Positive*%
%FSLAX46Y46*%
G04 Gerber Fmt 4.6, Leading zero omitted, Abs format (unit mm)*
G04 Created by KiCad (PCBNEW (5.99.0-9526-g5c17ff0595)) date 2021-04-11 17:42:09*
%MOMM*%
%LPD*%
G01*
G04 APERTURE LIST*
%TA.AperFunction,ComponentPad*%
%ADD10R,1.700000X1.700000*%
%TD*%
%TA.AperFunction,ComponentPad*%
%ADD11O,1.700000X1.700000*%
%TD*%
%TA.AperFunction,ComponentPad*%
%ADD12R,0.850000X0.850000*%
%TD*%
%TA.AperFunction,ComponentPad*%
%ADD13O,0.850000X0.850000*%
%TD*%
%TA.AperFunction,ComponentPad*%
%ADD14O,1.000000X1.800000*%
%TD*%
%TA.AperFunction,ComponentPad*%
%ADD15O,1.000000X2.100000*%
%TD*%
%TA.AperFunction,ViaPad*%
%ADD16C,0.800000*%
%TD*%
%TA.AperFunction,Conductor*%
%ADD17C,0.200000*%
%TD*%
%TA.AperFunction,Conductor*%
%ADD18C,0.250000*%
%TD*%
G04 APERTURE END LIST*
D10*
%TO.P,J1,1,Pin_1*%
%TO.N,VCC*%
X148400000Y-56250000D03*
D11*
%TO.P,J1,2,Pin_2*%
%TO.N,GND*%
X148400000Y-58790000D03*
%TO.P,J1,3,Pin_3*%
%TO.N,Boot*%
X148400000Y-61330000D03*
%TO.P,J1,4,Pin_4*%
%TO.N,TX*%
X148400000Y-63870000D03*
%TO.P,J1,5,Pin_5*%
%TO.N,RX*%
X148400000Y-66410000D03*
%TO.P,J1,6,Pin_6*%
%TO.N,RTS*%
X148400000Y-68950000D03*
%TD*%
D12*
%TO.P,J3,1,Pin_1*%
%TO.N,Net-(C3-Pad1)*%
X122200000Y-98800000D03*
D13*
%TO.P,J3,2,Pin_2*%
%TO.N,VBUS*%
X123200000Y-98800000D03*
%TD*%
D10*
%TO.P,J2,1,Pin_1*%
%TO.N,1*%
X113600000Y-58925000D03*
D11*
%TO.P,J2,2,Pin_2*%
%TO.N,2*%
X113600000Y-61465000D03*
%TO.P,J2,3,Pin_3*%
%TO.N,3*%
X113600000Y-64005000D03*
%TO.P,J2,4,Pin_4*%
%TO.N,4*%
X113600000Y-66545000D03*
%TO.P,J2,5,Pin_5*%
%TO.N,5*%
X113600000Y-69085000D03*
%TO.P,J2,6,Pin_6*%
%TO.N,6*%
X113600000Y-71625000D03*
%TO.P,J2,7,Pin_7*%
%TO.N,7*%
X113600000Y-74165000D03*
%TO.P,J2,8,Pin_8*%
%TO.N,8*%
X113600000Y-76705000D03*
%TD*%
D10*
%TO.P,J4,1,Pin_1*%
%TO.N,A*%
X148400000Y-71490000D03*
D11*
%TO.P,J4,2,Pin_2*%
%TO.N,B*%
X148400000Y-74030000D03*
%TO.P,J4,3,Pin_3*%
%TO.N,C*%
X148400000Y-76570000D03*
%TO.P,J4,4,Pin_4*%
%TO.N,D*%
X148400000Y-79110000D03*
%TO.P,J4,5,Pin_5*%
%TO.N,E*%
X148400000Y-81650000D03*
%TO.P,J4,6,Pin_6*%
%TO.N,F*%
X148400000Y-84190000D03*
%TD*%
D14*
%TO.P,P1,S1,SHIELD*%
%TO.N,GND*%
X135320000Y-100462500D03*
D15*
X126680000Y-96312500D03*
D14*
X126680000Y-100462500D03*
D15*
X135320000Y-96312500D03*
%TD*%
D16*
%TO.N,GND*%
X122000000Y-73600000D03*
X125400000Y-74000000D03*
X142000000Y-56800000D03*
X145800000Y-60000000D03*
X121200000Y-54000000D03*
%TO.N,/D-*%
X131450000Y-97100000D03*
X130050000Y-97400000D03*
%TO.N,VCC*%
X143800000Y-93600000D03*
X121000000Y-55600000D03*
X118900000Y-89400000D03*
%TO.N,RTS*%
X137400000Y-57800000D03*
X144000000Y-59600000D03*
X135200000Y-89400000D03*
%TO.N,RX*%
X133200000Y-82600000D03*
%TO.N,TX*%
X131800000Y-82600000D03*
%TO.N,Boot*%
X141200000Y-71000000D03*
%TO.N,Net-(P1-PadA5)*%
X138400000Y-96400000D03*
X128800000Y-97600000D03*
%TD*%
D17*
%TO.N,/D-*%
X130350000Y-97100000D02*
X131450000Y-97100000D01*
X130050000Y-97400000D02*
X130350000Y-97100000D01*
D18*
%TO.N,VCC*%
X118900000Y-89400000D02*
X118900000Y-57700000D01*
X118900000Y-89400000D02*
X123100000Y-93600000D01*
X123100000Y-93600000D02*
X143800000Y-93600000D01*
X118900000Y-57700000D02*
X121000000Y-55600000D01*
%TO.N,RTS*%
X148400000Y-76200000D02*
X148400000Y-68950000D01*
X135200000Y-89400000D02*
X148400000Y-76200000D01*
X144000000Y-59600000D02*
X139200000Y-59600000D01*
X139200000Y-59600000D02*
X137400000Y-57800000D01*
%TO.N,RX*%
X133200000Y-82600000D02*
X133200000Y-82410983D01*
X148400000Y-67210983D02*
X148400000Y-66410000D01*
X133200000Y-82410983D02*
X148400000Y-67210983D01*
%TO.N,TX*%
X131800000Y-82600000D02*
X147224989Y-67175011D01*
X147224989Y-67175011D02*
X147224989Y-64375011D01*
X147730000Y-63870000D02*
X148400000Y-63870000D01*
X147224989Y-64375011D02*
X147730000Y-63870000D01*
%TO.N,Boot*%
X141200000Y-68530000D02*
X148400000Y-61330000D01*
X141200000Y-71000000D02*
X141200000Y-68530000D01*
%TO.N,Net-(P1-PadA5)*%
X129800000Y-98600000D02*
X128800000Y-97600000D01*
X136200000Y-98600000D02*
X134800000Y-98600000D01*
X134800000Y-98600000D02*
X129800000Y-98600000D01*
X138400000Y-96400000D02*
X136200000Y-98600000D01*
%TD*%
%TA.AperFunction,Conductor*%
%TO.N,GND*%
G36*
X148838797Y-53409994D02*
G01*
X148842418Y-53410646D01*
X148849674Y-53411952D01*
X148913797Y-53413471D01*
X148930831Y-53413874D01*
X148952425Y-53416260D01*
X149029200Y-53431531D01*
X149052833Y-53438699D01*
X149118119Y-53465742D01*
X149139900Y-53477385D01*
X149179432Y-53503799D01*
X149198644Y-53516636D01*
X149217737Y-53532306D01*
X149267695Y-53582264D01*
X149283364Y-53601355D01*
X149308049Y-53638299D01*
X149322617Y-53660102D01*
X149334259Y-53681884D01*
X149361298Y-53747160D01*
X149368468Y-53770797D01*
X149372170Y-53789408D01*
X149383740Y-53847579D01*
X149386126Y-53869175D01*
X149387970Y-53947049D01*
X149388709Y-53951461D01*
X149388710Y-53951473D01*
X149390269Y-53960783D01*
X149392000Y-53981594D01*
X149392000Y-54761644D01*
X149371998Y-54829765D01*
X149318342Y-54876258D01*
X149257014Y-54887323D01*
X149254448Y-54887140D01*
X149250000Y-54886500D01*
X147550000Y-54886500D01*
X147476921Y-54891727D01*
X147425192Y-54906916D01*
X147345330Y-54930365D01*
X147345328Y-54930366D01*
X147336684Y-54932904D01*
X147329105Y-54937775D01*
X147221309Y-55007051D01*
X147221306Y-55007053D01*
X147213729Y-55011923D01*
X147207828Y-55018733D01*
X147123918Y-55115569D01*
X147123916Y-55115572D01*
X147118016Y-55122381D01*
X147114272Y-55130579D01*
X147069578Y-55228446D01*
X147057300Y-55255330D01*
X147056018Y-55264245D01*
X147056018Y-55264246D01*
X147037139Y-55395552D01*
X147037138Y-55395559D01*
X147036500Y-55400000D01*
X147036500Y-57100000D01*
X147041727Y-57173079D01*
X147043631Y-57179562D01*
X147073132Y-57280034D01*
X147082904Y-57313316D01*
X147101629Y-57342453D01*
X147157051Y-57428691D01*
X147157053Y-57428694D01*
X147161923Y-57436271D01*
X147168733Y-57442172D01*
X147265569Y-57526082D01*
X147265572Y-57526084D01*
X147272381Y-57531984D01*
X147405330Y-57592700D01*
X147412035Y-57593664D01*
X147470813Y-57631437D01*
X147500306Y-57696017D01*
X147490203Y-57766291D01*
X147458171Y-57809115D01*
X147426879Y-57836269D01*
X147419464Y-57843895D01*
X147280100Y-58013860D01*
X147274075Y-58022627D01*
X147165342Y-58213644D01*
X147160877Y-58223308D01*
X147085882Y-58429916D01*
X147083111Y-58440184D01*
X147069008Y-58518174D01*
X147070427Y-58531414D01*
X147085062Y-58536000D01*
X148528000Y-58536000D01*
X148596121Y-58556002D01*
X148642614Y-58609658D01*
X148654000Y-58662000D01*
X148654000Y-58918000D01*
X148633998Y-58986121D01*
X148580342Y-59032614D01*
X148528000Y-59044000D01*
X147083403Y-59044000D01*
X147070222Y-59047870D01*
X147068255Y-59062423D01*
X147076638Y-59114471D01*
X147079212Y-59124793D01*
X147150230Y-59332810D01*
X147154497Y-59342533D01*
X147259556Y-59535625D01*
X147265402Y-59544491D01*
X147401486Y-59717113D01*
X147408750Y-59724875D01*
X147571967Y-59872094D01*
X147580444Y-59878528D01*
X147698717Y-59953442D01*
X147745562Y-60006790D01*
X147756129Y-60076996D01*
X147727062Y-60141770D01*
X147696662Y-60167605D01*
X147619567Y-60214388D01*
X147596631Y-60228306D01*
X147592601Y-60231803D01*
X147533287Y-60283273D01*
X147422492Y-60379415D01*
X147419109Y-60383541D01*
X147419105Y-60383545D01*
X147351411Y-60466105D01*
X147276304Y-60557705D01*
X147162245Y-60758077D01*
X147083578Y-60974802D01*
X147082629Y-60980051D01*
X147082628Y-60980054D01*
X147043501Y-61196429D01*
X147042551Y-61201683D01*
X147040338Y-61432233D01*
X147077002Y-61659861D01*
X147078725Y-61664907D01*
X147079532Y-61668144D01*
X147076606Y-61739081D01*
X147046371Y-61787725D01*
X140807487Y-68026609D01*
X140799399Y-68033969D01*
X140793005Y-68038027D01*
X140787580Y-68043804D01*
X140747131Y-68086878D01*
X140744376Y-68089720D01*
X140724062Y-68110034D01*
X140721417Y-68113445D01*
X140713713Y-68122465D01*
X140683443Y-68154699D01*
X140679626Y-68161643D01*
X140679624Y-68161645D01*
X140673682Y-68172453D01*
X140662828Y-68188977D01*
X140650417Y-68204977D01*
X140647270Y-68212248D01*
X140647270Y-68212249D01*
X140632859Y-68245551D01*
X140627638Y-68256207D01*
X140606338Y-68294952D01*
X140604366Y-68302635D01*
X140604365Y-68302636D01*
X140601301Y-68314568D01*
X140594897Y-68333272D01*
X140590001Y-68344585D01*
X140589999Y-68344592D01*
X140586852Y-68351864D01*
X140585613Y-68359688D01*
X140585612Y-68359691D01*
X140579935Y-68395535D01*
X140577528Y-68407156D01*
X140568013Y-68444218D01*
X140566535Y-68449975D01*
X140566500Y-68450531D01*
X140566500Y-68470452D01*
X140564949Y-68490162D01*
X140561816Y-68509944D01*
X140562562Y-68517836D01*
X140565941Y-68553582D01*
X140566500Y-68565440D01*
X140566500Y-70297481D01*
X140546498Y-70365602D01*
X140534136Y-70381791D01*
X140460963Y-70463058D01*
X140365476Y-70628446D01*
X140306462Y-70810073D01*
X140286500Y-71000000D01*
X140306462Y-71189927D01*
X140308502Y-71196205D01*
X140308502Y-71196206D01*
X140340957Y-71296093D01*
X140365476Y-71371554D01*
X140368779Y-71377276D01*
X140368780Y-71377277D01*
X140382232Y-71400576D01*
X140460963Y-71536942D01*
X140465381Y-71541849D01*
X140465382Y-71541850D01*
X140566477Y-71654127D01*
X140588749Y-71678863D01*
X140594091Y-71682744D01*
X140594093Y-71682746D01*
X140737908Y-71787233D01*
X140743250Y-71791114D01*
X140749278Y-71793798D01*
X140749280Y-71793799D01*
X140911682Y-71866105D01*
X140917713Y-71868790D01*
X141011113Y-71888643D01*
X141098056Y-71907124D01*
X141098061Y-71907124D01*
X141104513Y-71908496D01*
X141291410Y-71908496D01*
X141359531Y-71928498D01*
X141406024Y-71982154D01*
X141416128Y-72052428D01*
X141386634Y-72117008D01*
X141380505Y-72123591D01*
X131849497Y-81654599D01*
X131787185Y-81688625D01*
X131760402Y-81691504D01*
X131704513Y-81691504D01*
X131698061Y-81692876D01*
X131698056Y-81692876D01*
X131611113Y-81711357D01*
X131517713Y-81731210D01*
X131511683Y-81733895D01*
X131511682Y-81733895D01*
X131349280Y-81806201D01*
X131349278Y-81806202D01*
X131343250Y-81808886D01*
X131337909Y-81812766D01*
X131337908Y-81812767D01*
X131194093Y-81917254D01*
X131194091Y-81917256D01*
X131188749Y-81921137D01*
X131060963Y-82063058D01*
X131057662Y-82068776D01*
X130980315Y-82202745D01*
X130965476Y-82228446D01*
X130906462Y-82410073D01*
X130886500Y-82600000D01*
X130906462Y-82789927D01*
X130965476Y-82971554D01*
X130968779Y-82977276D01*
X130968780Y-82977277D01*
X130997311Y-83026693D01*
X131060963Y-83136942D01*
X131065381Y-83141849D01*
X131065382Y-83141850D01*
X131164545Y-83251982D01*
X131188749Y-83278863D01*
X131194091Y-83282744D01*
X131194093Y-83282746D01*
X131194099Y-83282750D01*
X131343250Y-83391114D01*
X131349278Y-83393798D01*
X131349280Y-83393799D01*
X131511682Y-83466105D01*
X131517713Y-83468790D01*
X131611113Y-83488643D01*
X131698056Y-83507124D01*
X131698061Y-83507124D01*
X131704513Y-83508496D01*
X131895487Y-83508496D01*
X131901939Y-83507124D01*
X131901944Y-83507124D01*
X131988887Y-83488643D01*
X132082287Y-83468790D01*
X132088318Y-83466105D01*
X132250720Y-83393799D01*
X132250722Y-83393798D01*
X132256750Y-83391114D01*
X132411251Y-83278863D01*
X132415678Y-83273946D01*
X132415686Y-83273939D01*
X132479693Y-83243220D01*
X132550147Y-83251982D01*
X132584314Y-83273939D01*
X132584322Y-83273946D01*
X132588749Y-83278863D01*
X132743250Y-83391114D01*
X132749278Y-83393798D01*
X132749280Y-83393799D01*
X132911682Y-83466105D01*
X132917713Y-83468790D01*
X133011113Y-83488643D01*
X133098056Y-83507124D01*
X133098061Y-83507124D01*
X133104513Y-83508496D01*
X133295487Y-83508496D01*
X133301939Y-83507124D01*
X133301944Y-83507124D01*
X133388887Y-83488643D01*
X133482287Y-83468790D01*
X133488318Y-83466105D01*
X133650720Y-83393799D01*
X133650722Y-83393798D01*
X133656750Y-83391114D01*
X133805901Y-83282750D01*
X133805907Y-83282746D01*
X133805909Y-83282744D01*
X133811251Y-83278863D01*
X133835455Y-83251982D01*
X133934618Y-83141850D01*
X133934619Y-83141849D01*
X133939037Y-83136942D01*
X134002689Y-83026693D01*
X134031220Y-82977277D01*
X134031221Y-82977276D01*
X134034524Y-82971554D01*
X134093538Y-82789927D01*
X134113500Y-82600000D01*
X134111571Y-82581644D01*
X134100132Y-82472805D01*
X134112904Y-82402967D01*
X134136347Y-82370540D01*
X146982020Y-69524867D01*
X147044332Y-69490841D01*
X147115147Y-69495906D01*
X147171983Y-69538453D01*
X147181791Y-69553740D01*
X147261685Y-69700580D01*
X147404424Y-69881644D01*
X147464034Y-69935411D01*
X147501219Y-69995888D01*
X147499805Y-70066871D01*
X147460240Y-70125821D01*
X147415138Y-70149868D01*
X147345330Y-70170365D01*
X147345328Y-70170366D01*
X147336684Y-70172904D01*
X147329105Y-70177775D01*
X147221309Y-70247051D01*
X147221306Y-70247053D01*
X147213729Y-70251923D01*
X147207828Y-70258733D01*
X147123918Y-70355569D01*
X147123916Y-70355572D01*
X147118016Y-70362381D01*
X147114272Y-70370579D01*
X147070617Y-70466171D01*
X147057300Y-70495330D01*
X147056018Y-70504245D01*
X147056018Y-70504246D01*
X147037139Y-70635552D01*
X147037138Y-70635559D01*
X147036500Y-70640000D01*
X147036500Y-72340000D01*
X147041727Y-72413079D01*
X147082904Y-72553316D01*
X147087775Y-72560895D01*
X147157051Y-72668691D01*
X147157053Y-72668694D01*
X147161923Y-72676271D01*
X147168733Y-72682172D01*
X147265569Y-72766082D01*
X147265572Y-72766084D01*
X147272381Y-72771984D01*
X147405330Y-72832700D01*
X147411639Y-72833607D01*
X147470244Y-72871269D01*
X147499738Y-72935849D01*
X147489636Y-73006123D01*
X147457601Y-73048949D01*
X147426920Y-73075573D01*
X147422492Y-73079415D01*
X147419109Y-73083541D01*
X147419105Y-73083545D01*
X147366538Y-73147656D01*
X147276304Y-73257705D01*
X147162245Y-73458077D01*
X147083578Y-73674802D01*
X147082629Y-73680051D01*
X147082628Y-73680054D01*
X147043501Y-73896429D01*
X147042551Y-73901683D01*
X147040338Y-74132233D01*
X147077002Y-74359861D01*
X147151494Y-74578056D01*
X147261685Y-74780580D01*
X147404424Y-74961644D01*
X147408389Y-74965220D01*
X147571659Y-75112489D01*
X147571665Y-75112494D01*
X147575629Y-75116069D01*
X147580142Y-75118928D01*
X147580144Y-75118929D01*
X147698242Y-75193731D01*
X147745087Y-75247079D01*
X147755654Y-75317285D01*
X147726587Y-75382058D01*
X147696187Y-75407894D01*
X147596631Y-75468306D01*
X147592601Y-75471803D01*
X147426920Y-75615573D01*
X147422492Y-75619415D01*
X147419109Y-75623541D01*
X147419105Y-75623545D01*
X147366538Y-75687656D01*
X147276304Y-75797705D01*
X147162245Y-75998077D01*
X147083578Y-76214802D01*
X147082629Y-76220051D01*
X147082628Y-76220054D01*
X147043501Y-76436429D01*
X147042551Y-76441683D01*
X147042500Y-76447023D01*
X147040914Y-76612196D01*
X147020259Y-76680121D01*
X147004015Y-76700081D01*
X135249497Y-88454599D01*
X135187185Y-88488625D01*
X135160402Y-88491504D01*
X135104513Y-88491504D01*
X135098061Y-88492876D01*
X135098056Y-88492876D01*
X135011113Y-88511357D01*
X134917713Y-88531210D01*
X134911683Y-88533895D01*
X134911682Y-88533895D01*
X134749280Y-88606201D01*
X134749278Y-88606202D01*
X134743250Y-88608886D01*
X134737909Y-88612766D01*
X134737908Y-88612767D01*
X134594093Y-88717254D01*
X134594091Y-88717256D01*
X134588749Y-88721137D01*
X134584328Y-88726047D01*
X134584327Y-88726048D01*
X134548713Y-88765602D01*
X134460963Y-88863058D01*
X134365476Y-89028446D01*
X134306462Y-89210073D01*
X134286500Y-89400000D01*
X134306462Y-89589927D01*
X134365476Y-89771554D01*
X134460963Y-89936942D01*
X134588749Y-90078863D01*
X134594091Y-90082744D01*
X134594093Y-90082746D01*
X134737908Y-90187233D01*
X134743250Y-90191114D01*
X134749278Y-90193798D01*
X134749280Y-90193799D01*
X134911682Y-90266105D01*
X134917713Y-90268790D01*
X135011113Y-90288643D01*
X135098056Y-90307124D01*
X135098061Y-90307124D01*
X135104513Y-90308496D01*
X135295487Y-90308496D01*
X135301939Y-90307124D01*
X135301944Y-90307124D01*
X135388887Y-90288643D01*
X135482287Y-90268790D01*
X135488318Y-90266105D01*
X135650720Y-90193799D01*
X135650722Y-90193798D01*
X135656750Y-90191114D01*
X135662092Y-90187233D01*
X135805907Y-90082746D01*
X135805909Y-90082744D01*
X135811251Y-90078863D01*
X135939037Y-89936942D01*
X136034524Y-89771554D01*
X136093538Y-89589927D01*
X136110903Y-89424710D01*
X136137916Y-89359054D01*
X136147118Y-89348786D01*
X146877671Y-78618233D01*
X146939983Y-78584207D01*
X147010798Y-78589272D01*
X147067634Y-78631819D01*
X147092445Y-78698339D01*
X147086027Y-78744427D01*
X147086789Y-78744633D01*
X147085398Y-78749787D01*
X147083578Y-78754802D01*
X147042551Y-78981683D01*
X147040338Y-79212233D01*
X147077002Y-79439861D01*
X147151494Y-79658056D01*
X147261685Y-79860580D01*
X147404424Y-80041644D01*
X147408389Y-80045220D01*
X147571659Y-80192489D01*
X147571665Y-80192494D01*
X147575629Y-80196069D01*
X147580142Y-80198928D01*
X147580144Y-80198929D01*
X147698242Y-80273731D01*
X147745087Y-80327079D01*
X147755654Y-80397285D01*
X147726587Y-80462058D01*
X147696186Y-80487894D01*
X147601196Y-80545535D01*
X147601189Y-80545540D01*
X147596631Y-80548306D01*
X147422492Y-80699415D01*
X147419109Y-80703541D01*
X147419105Y-80703545D01*
X147321315Y-80822809D01*
X147276304Y-80877705D01*
X147162245Y-81078077D01*
X147083578Y-81294802D01*
X147042551Y-81521683D01*
X147042500Y-81527023D01*
X147040949Y-81688625D01*
X147040338Y-81752233D01*
X147077002Y-81979861D01*
X147151494Y-82198056D01*
X147261685Y-82400580D01*
X147404424Y-82581644D01*
X147424775Y-82600000D01*
X147571659Y-82732489D01*
X147571665Y-82732494D01*
X147575629Y-82736069D01*
X147580142Y-82738928D01*
X147580144Y-82738929D01*
X147698242Y-82813731D01*
X147745087Y-82867079D01*
X147755654Y-82937285D01*
X147726587Y-83002058D01*
X147696186Y-83027894D01*
X147601196Y-83085535D01*
X147601189Y-83085540D01*
X147596631Y-83088306D01*
X147592601Y-83091803D01*
X147534927Y-83141850D01*
X147422492Y-83239415D01*
X147419109Y-83243541D01*
X147419105Y-83243545D01*
X147321315Y-83362809D01*
X147276304Y-83417705D01*
X147273665Y-83422341D01*
X147273663Y-83422344D01*
X147225403Y-83507124D01*
X147162245Y-83618077D01*
X147083578Y-83834802D01*
X147042551Y-84061683D01*
X147040338Y-84292233D01*
X147077002Y-84519861D01*
X147151494Y-84738056D01*
X147261685Y-84940580D01*
X147404424Y-85121644D01*
X147408389Y-85125220D01*
X147571659Y-85272489D01*
X147571665Y-85272494D01*
X147575629Y-85276069D01*
X147770406Y-85399439D01*
X147983184Y-85488228D01*
X147988387Y-85489425D01*
X147988392Y-85489426D01*
X148202678Y-85538701D01*
X148202683Y-85538702D01*
X148207881Y-85539897D01*
X148213209Y-85540200D01*
X148213212Y-85540200D01*
X148369293Y-85549063D01*
X148438071Y-85552968D01*
X148443378Y-85552368D01*
X148443380Y-85552368D01*
X148564272Y-85538701D01*
X148667173Y-85527068D01*
X148672288Y-85525587D01*
X148672292Y-85525586D01*
X148801298Y-85488228D01*
X148888635Y-85462937D01*
X149096125Y-85362409D01*
X149100463Y-85359309D01*
X149100468Y-85359306D01*
X149192742Y-85293365D01*
X149259795Y-85270032D01*
X149328818Y-85286655D01*
X149377897Y-85337956D01*
X149392000Y-85395879D01*
X149392000Y-101916472D01*
X149390006Y-101938797D01*
X149388048Y-101949674D01*
X149387933Y-101954542D01*
X149386126Y-102030832D01*
X149383741Y-102052424D01*
X149383693Y-102052666D01*
X149368469Y-102129200D01*
X149361299Y-102152836D01*
X149334259Y-102218116D01*
X149322617Y-102239897D01*
X149305932Y-102264869D01*
X149283365Y-102298643D01*
X149267694Y-102317737D01*
X149217737Y-102367694D01*
X149198644Y-102383364D01*
X149146470Y-102418226D01*
X149139901Y-102422615D01*
X149118120Y-102434258D01*
X149058531Y-102458941D01*
X149052836Y-102461300D01*
X149029198Y-102468470D01*
X149014727Y-102471348D01*
X148952425Y-102483740D01*
X148930828Y-102486126D01*
X148857424Y-102487864D01*
X148857422Y-102487864D01*
X148852952Y-102487970D01*
X148839312Y-102490254D01*
X148818482Y-102491984D01*
X141517283Y-102490534D01*
X138758227Y-102489986D01*
X113190705Y-102484909D01*
X113168408Y-102482916D01*
X113162221Y-102481802D01*
X113162209Y-102481801D01*
X113157433Y-102480941D01*
X113142191Y-102480580D01*
X113076277Y-102479019D01*
X113054680Y-102476633D01*
X112977907Y-102461362D01*
X112954271Y-102454192D01*
X112888991Y-102427152D01*
X112867208Y-102415509D01*
X112808461Y-102376256D01*
X112789370Y-102360587D01*
X112739413Y-102310630D01*
X112723743Y-102291537D01*
X112705924Y-102264869D01*
X112684491Y-102232792D01*
X112672848Y-102211011D01*
X112649142Y-102153779D01*
X112645806Y-102145727D01*
X112638637Y-102122090D01*
X112623367Y-102045318D01*
X112620981Y-102023721D01*
X112619243Y-101950317D01*
X112619243Y-101950315D01*
X112619137Y-101945845D01*
X112618398Y-101941433D01*
X112618397Y-101941421D01*
X112616838Y-101932111D01*
X112615107Y-101911300D01*
X112615107Y-100730048D01*
X125672000Y-100730048D01*
X125672000Y-100910412D01*
X125672301Y-100916560D01*
X125685691Y-101053126D01*
X125688074Y-101065161D01*
X125741654Y-101242624D01*
X125746329Y-101253966D01*
X125833357Y-101417644D01*
X125840144Y-101427860D01*
X125957310Y-101571519D01*
X125965954Y-101580223D01*
X126108788Y-101698386D01*
X126118959Y-101705246D01*
X126282031Y-101793418D01*
X126293330Y-101798168D01*
X126408693Y-101833880D01*
X126422795Y-101834086D01*
X126426000Y-101827330D01*
X126426000Y-100734615D01*
X126424659Y-100730048D01*
X126934000Y-100730048D01*
X126934000Y-101820552D01*
X126937973Y-101834083D01*
X126945768Y-101835203D01*
X127053557Y-101803479D01*
X127064941Y-101798880D01*
X127229222Y-101712996D01*
X127239483Y-101706282D01*
X127383959Y-101590120D01*
X127392719Y-101581542D01*
X127511881Y-101439530D01*
X127518807Y-101429416D01*
X127608118Y-101266958D01*
X127612946Y-101255694D01*
X127669002Y-101078984D01*
X127671550Y-101066997D01*
X127687607Y-100923839D01*
X127688000Y-100916815D01*
X127688000Y-100734615D01*
X127686659Y-100730048D01*
X134312000Y-100730048D01*
X134312000Y-100910412D01*
X134312301Y-100916560D01*
X134325691Y-101053126D01*
X134328074Y-101065161D01*
X134381654Y-101242624D01*
X134386329Y-101253966D01*
X134473357Y-101417644D01*
X134480144Y-101427860D01*
X134597310Y-101571519D01*
X134605954Y-101580223D01*
X134748788Y-101698386D01*
X134758959Y-101705246D01*
X134922031Y-101793418D01*
X134933330Y-101798168D01*
X135048693Y-101833880D01*
X135062795Y-101834086D01*
X135066000Y-101827330D01*
X135066000Y-100734615D01*
X135064659Y-100730048D01*
X135574000Y-100730048D01*
X135574000Y-101820552D01*
X135577973Y-101834083D01*
X135585768Y-101835203D01*
X135693557Y-101803479D01*
X135704941Y-101798880D01*
X135869222Y-101712996D01*
X135879483Y-101706282D01*
X136023959Y-101590120D01*
X136032719Y-101581542D01*
X136151881Y-101439530D01*
X136158807Y-101429416D01*
X136248118Y-101266958D01*
X136252946Y-101255694D01*
X136309002Y-101078984D01*
X136311550Y-101066997D01*
X136327607Y-100923839D01*
X136328000Y-100916815D01*
X136328000Y-100734615D01*
X136323525Y-100719376D01*
X136322135Y-100718171D01*
X136314452Y-100716500D01*
X135592115Y-100716500D01*
X135576876Y-100720975D01*
X135575671Y-100722365D01*
X135574000Y-100730048D01*
X135064659Y-100730048D01*
X135061525Y-100719376D01*
X135060135Y-100718171D01*
X135052452Y-100716500D01*
X134330115Y-100716500D01*
X134314876Y-100720975D01*
X134313671Y-100722365D01*
X134312000Y-100730048D01*
X127686659Y-100730048D01*
X127683525Y-100719376D01*
X127682135Y-100718171D01*
X127674452Y-100716500D01*
X126952115Y-100716500D01*
X126936876Y-100720975D01*
X126935671Y-100722365D01*
X126934000Y-100730048D01*
X126424659Y-100730048D01*
X126421525Y-100719376D01*
X126420135Y-100718171D01*
X126412452Y-100716500D01*
X125690115Y-100716500D01*
X125674876Y-100720975D01*
X125673671Y-100722365D01*
X125672000Y-100730048D01*
X112615107Y-100730048D01*
X112615107Y-100008185D01*
X125672000Y-100008185D01*
X125672000Y-100190385D01*
X125676475Y-100205624D01*
X125677865Y-100206829D01*
X125685548Y-100208500D01*
X126407885Y-100208500D01*
X126423124Y-100204025D01*
X126424329Y-100202635D01*
X126426000Y-100194952D01*
X126426000Y-99104448D01*
X126424010Y-99097670D01*
X126934000Y-99097670D01*
X126934000Y-100190385D01*
X126938475Y-100205624D01*
X126939865Y-100206829D01*
X126947548Y-100208500D01*
X127669885Y-100208500D01*
X127685124Y-100204025D01*
X127686329Y-100202635D01*
X127688000Y-100194952D01*
X127688000Y-100014588D01*
X127687699Y-100008440D01*
X127674309Y-99871874D01*
X127671926Y-99859839D01*
X127618346Y-99682376D01*
X127613671Y-99671034D01*
X127526643Y-99507356D01*
X127519856Y-99497140D01*
X127402690Y-99353481D01*
X127394046Y-99344777D01*
X127251212Y-99226614D01*
X127241041Y-99219754D01*
X127077969Y-99131582D01*
X127066670Y-99126832D01*
X126951307Y-99091120D01*
X126937205Y-99090914D01*
X126934000Y-99097670D01*
X126424010Y-99097670D01*
X126422027Y-99090917D01*
X126414232Y-99089797D01*
X126306443Y-99121521D01*
X126295059Y-99126120D01*
X126130778Y-99212004D01*
X126120517Y-99218718D01*
X125976041Y-99334880D01*
X125967281Y-99343458D01*
X125848119Y-99485470D01*
X125841193Y-99495584D01*
X125751882Y-99658042D01*
X125747054Y-99669306D01*
X125690998Y-99846016D01*
X125688450Y-99858003D01*
X125672393Y-100001161D01*
X125672000Y-100008185D01*
X112615107Y-100008185D01*
X112615107Y-98375000D01*
X121261500Y-98375000D01*
X121261500Y-99225000D01*
X121266727Y-99298079D01*
X121307904Y-99438316D01*
X121312775Y-99445895D01*
X121382051Y-99553691D01*
X121382053Y-99553694D01*
X121386923Y-99561271D01*
X121393733Y-99567172D01*
X121490569Y-99651082D01*
X121490572Y-99651084D01*
X121497381Y-99656984D01*
X121505579Y-99660728D01*
X121575297Y-99692567D01*
X121630330Y-99717700D01*
X121639245Y-99718982D01*
X121639246Y-99718982D01*
X121770552Y-99737861D01*
X121770559Y-99737862D01*
X121775000Y-99738500D01*
X122625000Y-99738500D01*
X122698079Y-99733273D01*
X122838316Y-99692096D01*
X122839351Y-99695620D01*
X122892417Y-99688049D01*
X122907997Y-99691680D01*
X122909988Y-99692567D01*
X123005944Y-99712963D01*
X123095443Y-99731987D01*
X123095447Y-99731987D01*
X123101900Y-99733359D01*
X123298100Y-99733359D01*
X123304553Y-99731987D01*
X123304557Y-99731987D01*
X123394056Y-99712963D01*
X123490012Y-99692567D01*
X123500160Y-99688049D01*
X123663220Y-99615450D01*
X123663222Y-99615449D01*
X123669250Y-99612765D01*
X123827979Y-99497441D01*
X123959262Y-99351636D01*
X124057362Y-99181722D01*
X124117992Y-98995125D01*
X124138500Y-98800000D01*
X124117992Y-98604875D01*
X124057362Y-98418278D01*
X123959262Y-98248364D01*
X123858938Y-98136942D01*
X123832401Y-98107470D01*
X123832400Y-98107469D01*
X123827979Y-98102559D01*
X123669250Y-97987235D01*
X123663222Y-97984551D01*
X123663220Y-97984550D01*
X123496043Y-97910118D01*
X123496042Y-97910118D01*
X123490012Y-97907433D01*
X123389380Y-97886043D01*
X123304557Y-97868013D01*
X123304553Y-97868013D01*
X123298100Y-97866641D01*
X123101900Y-97866641D01*
X123095447Y-97868013D01*
X123095443Y-97868013D01*
X122932761Y-97902592D01*
X122909988Y-97907433D01*
X122906650Y-97908919D01*
X122836776Y-97910917D01*
X122816461Y-97903669D01*
X122777867Y-97886043D01*
X122777864Y-97886042D01*
X122769670Y-97882300D01*
X122749947Y-97879464D01*
X122629448Y-97862139D01*
X122629441Y-97862138D01*
X122625000Y-97861500D01*
X121775000Y-97861500D01*
X121701921Y-97866727D01*
X121623835Y-97889655D01*
X121570330Y-97905365D01*
X121570328Y-97905366D01*
X121561684Y-97907904D01*
X121532499Y-97926660D01*
X121446309Y-97982051D01*
X121446306Y-97982053D01*
X121438729Y-97986923D01*
X121432828Y-97993733D01*
X121348918Y-98090569D01*
X121348916Y-98090572D01*
X121343016Y-98097381D01*
X121282300Y-98230330D01*
X121281018Y-98239245D01*
X121281018Y-98239246D01*
X121262139Y-98370552D01*
X121262138Y-98370559D01*
X121261500Y-98375000D01*
X112615107Y-98375000D01*
X112615107Y-96580048D01*
X125672000Y-96580048D01*
X125672000Y-96910412D01*
X125672301Y-96916560D01*
X125685691Y-97053126D01*
X125688074Y-97065161D01*
X125741654Y-97242624D01*
X125746329Y-97253966D01*
X125833357Y-97417644D01*
X125840144Y-97427860D01*
X125957310Y-97571519D01*
X125965954Y-97580223D01*
X126108788Y-97698386D01*
X126118959Y-97705246D01*
X126282031Y-97793418D01*
X126293330Y-97798168D01*
X126408693Y-97833880D01*
X126422795Y-97834086D01*
X126426000Y-97827330D01*
X126426000Y-96584615D01*
X126421525Y-96569376D01*
X126420135Y-96568171D01*
X126412452Y-96566500D01*
X125690115Y-96566500D01*
X125674876Y-96570975D01*
X125673671Y-96572365D01*
X125672000Y-96580048D01*
X112615107Y-96580048D01*
X112615107Y-95708185D01*
X125672000Y-95708185D01*
X125672000Y-96040385D01*
X125676475Y-96055624D01*
X125677865Y-96056829D01*
X125685548Y-96058500D01*
X126407885Y-96058500D01*
X126423124Y-96054025D01*
X126424329Y-96052635D01*
X126426000Y-96044952D01*
X126426000Y-94804448D01*
X126424010Y-94797670D01*
X126934000Y-94797670D01*
X126934000Y-97820552D01*
X126937973Y-97834083D01*
X126945768Y-97835203D01*
X127053557Y-97803479D01*
X127064941Y-97798880D01*
X127229222Y-97712996D01*
X127239483Y-97706282D01*
X127383959Y-97590120D01*
X127392724Y-97581537D01*
X127450435Y-97512760D01*
X127509544Y-97473433D01*
X127580532Y-97472307D01*
X127625379Y-97496180D01*
X127625461Y-97496060D01*
X127626538Y-97496797D01*
X127628955Y-97498084D01*
X127636275Y-97504358D01*
X127642290Y-97507583D01*
X127642294Y-97507586D01*
X127700854Y-97538985D01*
X127795892Y-97589944D01*
X127802456Y-97591801D01*
X127802460Y-97591803D01*
X127806101Y-97592833D01*
X127808062Y-97594066D01*
X127808789Y-97594360D01*
X127808736Y-97594490D01*
X127866202Y-97630627D01*
X127897105Y-97700902D01*
X127898376Y-97712996D01*
X127906462Y-97789927D01*
X127908502Y-97796205D01*
X127908502Y-97796206D01*
X127909371Y-97798880D01*
X127965476Y-97971554D01*
X128060963Y-98136942D01*
X128065381Y-98141849D01*
X128065382Y-98141850D01*
X128166436Y-98254082D01*
X128188749Y-98278863D01*
X128194091Y-98282744D01*
X128194093Y-98282746D01*
X128321071Y-98375000D01*
X128343250Y-98391114D01*
X128349278Y-98393798D01*
X128349280Y-98393799D01*
X128511682Y-98466105D01*
X128517713Y-98468790D01*
X128611113Y-98488643D01*
X128698056Y-98507124D01*
X128698061Y-98507124D01*
X128704513Y-98508496D01*
X128760402Y-98508496D01*
X128828523Y-98528498D01*
X128849497Y-98545401D01*
X129296609Y-98992513D01*
X129303969Y-99000601D01*
X129308027Y-99006995D01*
X129313804Y-99012420D01*
X129356878Y-99052869D01*
X129359720Y-99055624D01*
X129380034Y-99075938D01*
X129383445Y-99078583D01*
X129392465Y-99086287D01*
X129424699Y-99116557D01*
X129431643Y-99120374D01*
X129431645Y-99120376D01*
X129442453Y-99126318D01*
X129458977Y-99137172D01*
X129468711Y-99144723D01*
X129468713Y-99144724D01*
X129474977Y-99149583D01*
X129515561Y-99167146D01*
X129526190Y-99172353D01*
X129564952Y-99193662D01*
X129584578Y-99198701D01*
X129603271Y-99205102D01*
X129621865Y-99213148D01*
X129655278Y-99218440D01*
X129665531Y-99220064D01*
X129677154Y-99222471D01*
X129719975Y-99233465D01*
X129720531Y-99233500D01*
X129740447Y-99233500D01*
X129760157Y-99235051D01*
X129779945Y-99238185D01*
X129787837Y-99237439D01*
X129823593Y-99234059D01*
X129835451Y-99233500D01*
X134429339Y-99233500D01*
X134497460Y-99253502D01*
X134543953Y-99307158D01*
X134554057Y-99377432D01*
X134525860Y-99440492D01*
X134488119Y-99485469D01*
X134481193Y-99495584D01*
X134391882Y-99658042D01*
X134387054Y-99669306D01*
X134330998Y-99846016D01*
X134328450Y-99858003D01*
X134312393Y-100001161D01*
X134312000Y-100008185D01*
X134312000Y-100190385D01*
X134316475Y-100205624D01*
X134317865Y-100206829D01*
X134325548Y-100208500D01*
X136309885Y-100208500D01*
X136325124Y-100204025D01*
X136326329Y-100202635D01*
X136328000Y-100194952D01*
X136328000Y-100014588D01*
X136327699Y-100008440D01*
X136314309Y-99871874D01*
X136311926Y-99859839D01*
X136258346Y-99682376D01*
X136253671Y-99671034D01*
X136166643Y-99507356D01*
X136159856Y-99497140D01*
X136112564Y-99439155D01*
X136085010Y-99373723D01*
X136097205Y-99303782D01*
X136145278Y-99251537D01*
X136206322Y-99233579D01*
X136206485Y-99233574D01*
X136206938Y-99233560D01*
X136210823Y-99233500D01*
X136239578Y-99233500D01*
X136243845Y-99232961D01*
X136255687Y-99232028D01*
X136287335Y-99231033D01*
X136291960Y-99230888D01*
X136299883Y-99230639D01*
X136319334Y-99224988D01*
X136338695Y-99220978D01*
X136341420Y-99220634D01*
X136350930Y-99219433D01*
X136350933Y-99219432D01*
X136358788Y-99218440D01*
X136366153Y-99215524D01*
X136366157Y-99215523D01*
X136399901Y-99202163D01*
X136411130Y-99198318D01*
X136453578Y-99185986D01*
X136460788Y-99181722D01*
X136471011Y-99175677D01*
X136488762Y-99166981D01*
X136500226Y-99162442D01*
X136500229Y-99162440D01*
X136507600Y-99159522D01*
X136543368Y-99133535D01*
X136553291Y-99127016D01*
X136564519Y-99120376D01*
X136591341Y-99104514D01*
X136591759Y-99104145D01*
X136605842Y-99090062D01*
X136620867Y-99077228D01*
X136637083Y-99065446D01*
X136665030Y-99031664D01*
X136673019Y-99022885D01*
X138350503Y-97345401D01*
X138412815Y-97311375D01*
X138439598Y-97308496D01*
X138495487Y-97308496D01*
X138501939Y-97307124D01*
X138501944Y-97307124D01*
X138613727Y-97283363D01*
X138682287Y-97268790D01*
X138711701Y-97255694D01*
X138850720Y-97193799D01*
X138850722Y-97193798D01*
X138856750Y-97191114D01*
X138862092Y-97187233D01*
X139005907Y-97082746D01*
X139005909Y-97082744D01*
X139011251Y-97078863D01*
X139139037Y-96936942D01*
X139234524Y-96771554D01*
X139262697Y-96684846D01*
X139291498Y-96596206D01*
X139291498Y-96596205D01*
X139293538Y-96589927D01*
X139313500Y-96400000D01*
X139303572Y-96305544D01*
X139294228Y-96216637D01*
X139294228Y-96216636D01*
X139293538Y-96210073D01*
X139287951Y-96192876D01*
X139236566Y-96034731D01*
X139234524Y-96028446D01*
X139230863Y-96022104D01*
X139142338Y-95868776D01*
X139139037Y-95863058D01*
X139011251Y-95721137D01*
X139005909Y-95717256D01*
X139005907Y-95717254D01*
X138862092Y-95612767D01*
X138862091Y-95612766D01*
X138856750Y-95608886D01*
X138850722Y-95606202D01*
X138850720Y-95606201D01*
X138688318Y-95533895D01*
X138688317Y-95533895D01*
X138682287Y-95531210D01*
X138588887Y-95511357D01*
X138501944Y-95492876D01*
X138501939Y-95492876D01*
X138495487Y-95491504D01*
X138304513Y-95491504D01*
X138298061Y-95492876D01*
X138298056Y-95492876D01*
X138211113Y-95511357D01*
X138117713Y-95531210D01*
X138111683Y-95533895D01*
X138111682Y-95533895D01*
X137949280Y-95606201D01*
X137949278Y-95606202D01*
X137943250Y-95608886D01*
X137937909Y-95612766D01*
X137937908Y-95612767D01*
X137794093Y-95717254D01*
X137794091Y-95717256D01*
X137788749Y-95721137D01*
X137660963Y-95863058D01*
X137657662Y-95868776D01*
X137569138Y-96022104D01*
X137565476Y-96028446D01*
X137563434Y-96034731D01*
X137512050Y-96192876D01*
X137506462Y-96210073D01*
X137505772Y-96216636D01*
X137505772Y-96216637D01*
X137489097Y-96375290D01*
X137462084Y-96440946D01*
X137452882Y-96451214D01*
X136399137Y-97504959D01*
X136336825Y-97538985D01*
X136266010Y-97533920D01*
X136209174Y-97491373D01*
X136184363Y-97424853D01*
X136199627Y-97355163D01*
X136248118Y-97266958D01*
X136252946Y-97255694D01*
X136309002Y-97078984D01*
X136311550Y-97066997D01*
X136327607Y-96923839D01*
X136328000Y-96916815D01*
X136328000Y-96584615D01*
X136323525Y-96569376D01*
X136322135Y-96568171D01*
X136314452Y-96566500D01*
X135192000Y-96566500D01*
X135123879Y-96546498D01*
X135077386Y-96492842D01*
X135066000Y-96440500D01*
X135066000Y-94804448D01*
X135064010Y-94797670D01*
X135574000Y-94797670D01*
X135574000Y-96040385D01*
X135578475Y-96055624D01*
X135579865Y-96056829D01*
X135587548Y-96058500D01*
X136309885Y-96058500D01*
X136325124Y-96054025D01*
X136326329Y-96052635D01*
X136328000Y-96044952D01*
X136328000Y-95714588D01*
X136327699Y-95708440D01*
X136314309Y-95571874D01*
X136311926Y-95559839D01*
X136258346Y-95382376D01*
X136253671Y-95371034D01*
X136166643Y-95207356D01*
X136159856Y-95197140D01*
X136042690Y-95053481D01*
X136034046Y-95044777D01*
X135891212Y-94926614D01*
X135881041Y-94919754D01*
X135717969Y-94831582D01*
X135706670Y-94826832D01*
X135591307Y-94791120D01*
X135577205Y-94790914D01*
X135574000Y-94797670D01*
X135064010Y-94797670D01*
X135062027Y-94790917D01*
X135054232Y-94789797D01*
X134946443Y-94821521D01*
X134935059Y-94826120D01*
X134770778Y-94912004D01*
X134760517Y-94918718D01*
X134616041Y-95034880D01*
X134607281Y-95043458D01*
X134488119Y-95185470D01*
X134481193Y-95195584D01*
X134391882Y-95358042D01*
X134387054Y-95369306D01*
X134330998Y-95546016D01*
X134328450Y-95558003D01*
X134312393Y-95701161D01*
X134312000Y-95708185D01*
X134312000Y-95897386D01*
X134291998Y-95965507D01*
X134238342Y-96012000D01*
X134168068Y-96022104D01*
X134139211Y-96014376D01*
X134115489Y-96004888D01*
X134108762Y-96003774D01*
X134108757Y-96003773D01*
X133943544Y-95976422D01*
X133943540Y-95976422D01*
X133936806Y-95975307D01*
X133929989Y-95975664D01*
X133929985Y-95975664D01*
X133781905Y-95983425D01*
X133755940Y-95984786D01*
X133749367Y-95986597D01*
X133749364Y-95986597D01*
X133620457Y-96022104D01*
X133581328Y-96032882D01*
X133421117Y-96117352D01*
X133282782Y-96234254D01*
X133278639Y-96239673D01*
X133278637Y-96239675D01*
X133222754Y-96312767D01*
X133172777Y-96378134D01*
X133169894Y-96384317D01*
X133169892Y-96384320D01*
X133101397Y-96531210D01*
X133096235Y-96542280D01*
X133094749Y-96548928D01*
X133094748Y-96548931D01*
X133084181Y-96596206D01*
X133056726Y-96719033D01*
X133056093Y-96900147D01*
X133057536Y-96906819D01*
X133057536Y-96906823D01*
X133061215Y-96923839D01*
X133094367Y-97077172D01*
X133169762Y-97241848D01*
X133278760Y-97386493D01*
X133283939Y-97390932D01*
X133283940Y-97390933D01*
X133406734Y-97496180D01*
X133416275Y-97504358D01*
X133422290Y-97507583D01*
X133422294Y-97507586D01*
X133569877Y-97586719D01*
X133575892Y-97589944D01*
X133663028Y-97614601D01*
X133743596Y-97637400D01*
X133743601Y-97637401D01*
X133750164Y-97639258D01*
X133756973Y-97639663D01*
X133756976Y-97639663D01*
X133893982Y-97647802D01*
X133930961Y-97649999D01*
X134010507Y-97637400D01*
X134103112Y-97622733D01*
X134103116Y-97622732D01*
X134109846Y-97621666D01*
X134116192Y-97619179D01*
X134116196Y-97619178D01*
X134272119Y-97558073D01*
X134272123Y-97558071D01*
X134278474Y-97555582D01*
X134381027Y-97486928D01*
X134448761Y-97465654D01*
X134517245Y-97484377D01*
X134548763Y-97511996D01*
X134597304Y-97571513D01*
X134605954Y-97580223D01*
X134748788Y-97698386D01*
X134758959Y-97705246D01*
X134804119Y-97729664D01*
X134854527Y-97779659D01*
X134869905Y-97848970D01*
X134845369Y-97915592D01*
X134788709Y-97958373D01*
X134744190Y-97966500D01*
X132175302Y-97966500D01*
X132107181Y-97946498D01*
X132060688Y-97892842D01*
X132050584Y-97822568D01*
X132081666Y-97756190D01*
X132184618Y-97641850D01*
X132184619Y-97641849D01*
X132189037Y-97636942D01*
X132270306Y-97496180D01*
X132281220Y-97477277D01*
X132281221Y-97477276D01*
X132284524Y-97471554D01*
X132322342Y-97355163D01*
X132341498Y-97296206D01*
X132341498Y-97296205D01*
X132343538Y-97289927D01*
X132363500Y-97100000D01*
X132343538Y-96910073D01*
X132284524Y-96728446D01*
X132279090Y-96719033D01*
X132228674Y-96631712D01*
X132189037Y-96563058D01*
X132174127Y-96546498D01*
X132065673Y-96426048D01*
X132065672Y-96426047D01*
X132061251Y-96421137D01*
X132055909Y-96417256D01*
X132055907Y-96417254D01*
X131912092Y-96312767D01*
X131912091Y-96312766D01*
X131906750Y-96308886D01*
X131900722Y-96306202D01*
X131900720Y-96306201D01*
X131738318Y-96233895D01*
X131738317Y-96233895D01*
X131732287Y-96231210D01*
X131632846Y-96210073D01*
X131551944Y-96192876D01*
X131551939Y-96192876D01*
X131545487Y-96191504D01*
X131354513Y-96191504D01*
X131348061Y-96192876D01*
X131348056Y-96192876D01*
X131267154Y-96210073D01*
X131167713Y-96231210D01*
X131161683Y-96233895D01*
X131161682Y-96233895D01*
X130999280Y-96306201D01*
X130999278Y-96306202D01*
X130993250Y-96308886D01*
X130987909Y-96312766D01*
X130987908Y-96312767D01*
X130844093Y-96417254D01*
X130844091Y-96417256D01*
X130838749Y-96421137D01*
X130812930Y-96449812D01*
X130752487Y-96487050D01*
X130719296Y-96491500D01*
X130396238Y-96491500D01*
X130379792Y-96490422D01*
X130358189Y-96487578D01*
X130358188Y-96487578D01*
X130350000Y-96486500D01*
X130341811Y-96487578D01*
X130290950Y-96494274D01*
X130230636Y-96502214D01*
X130187993Y-96500539D01*
X130151944Y-96492876D01*
X130151940Y-96492876D01*
X130145487Y-96491504D01*
X129954513Y-96491504D01*
X129948061Y-96492876D01*
X129948056Y-96492876D01*
X129861113Y-96511357D01*
X129767713Y-96531210D01*
X129761683Y-96533895D01*
X129761682Y-96533895D01*
X129599280Y-96606201D01*
X129599278Y-96606202D01*
X129593250Y-96608886D01*
X129587909Y-96612766D01*
X129587908Y-96612767D01*
X129444093Y-96717254D01*
X129444091Y-96717256D01*
X129438749Y-96721137D01*
X129434328Y-96726047D01*
X129434327Y-96726048D01*
X129429679Y-96731210D01*
X129393354Y-96771554D01*
X129391523Y-96773587D01*
X129331077Y-96810827D01*
X129260094Y-96809475D01*
X129246638Y-96804384D01*
X129088318Y-96733895D01*
X129088317Y-96733895D01*
X129082287Y-96731210D01*
X129075832Y-96729838D01*
X129075829Y-96729837D01*
X129034897Y-96721137D01*
X129022837Y-96718573D01*
X128960364Y-96684846D01*
X128931114Y-96631712D01*
X128928940Y-96632444D01*
X128873349Y-96467259D01*
X128873347Y-96467254D01*
X128871171Y-96460789D01*
X128850297Y-96426048D01*
X128781404Y-96311393D01*
X128777890Y-96305544D01*
X128693816Y-96216637D01*
X128658136Y-96178906D01*
X128658134Y-96178904D01*
X128653449Y-96173950D01*
X128503652Y-96072148D01*
X128335489Y-96004888D01*
X128328762Y-96003774D01*
X128328757Y-96003773D01*
X128163544Y-95976422D01*
X128163540Y-95976422D01*
X128156806Y-95975307D01*
X128149989Y-95975664D01*
X128149985Y-95975664D01*
X128001905Y-95983425D01*
X127975940Y-95984786D01*
X127969367Y-95986597D01*
X127969364Y-95986597D01*
X127847460Y-96020175D01*
X127776473Y-96018981D01*
X127717401Y-95979598D01*
X127688999Y-95914530D01*
X127688000Y-95898699D01*
X127688000Y-95714588D01*
X127687699Y-95708440D01*
X127674309Y-95571874D01*
X127671926Y-95559839D01*
X127618346Y-95382376D01*
X127613671Y-95371034D01*
X127526643Y-95207356D01*
X127519856Y-95197140D01*
X127402690Y-95053481D01*
X127394046Y-95044777D01*
X127251212Y-94926614D01*
X127241041Y-94919754D01*
X127077969Y-94831582D01*
X127066670Y-94826832D01*
X126951307Y-94791120D01*
X126937205Y-94790914D01*
X126934000Y-94797670D01*
X126424010Y-94797670D01*
X126422027Y-94790917D01*
X126414232Y-94789797D01*
X126306443Y-94821521D01*
X126295059Y-94826120D01*
X126130778Y-94912004D01*
X126120517Y-94918718D01*
X125976041Y-95034880D01*
X125967281Y-95043458D01*
X125848119Y-95185470D01*
X125841193Y-95195584D01*
X125751882Y-95358042D01*
X125747054Y-95369306D01*
X125690998Y-95546016D01*
X125688450Y-95558003D01*
X125672393Y-95701161D01*
X125672000Y-95708185D01*
X112615107Y-95708185D01*
X112615107Y-89400000D01*
X117986500Y-89400000D01*
X118006462Y-89589927D01*
X118065476Y-89771554D01*
X118160963Y-89936942D01*
X118288749Y-90078863D01*
X118294091Y-90082744D01*
X118294093Y-90082746D01*
X118437908Y-90187233D01*
X118443250Y-90191114D01*
X118449278Y-90193798D01*
X118449280Y-90193799D01*
X118611682Y-90266105D01*
X118617713Y-90268790D01*
X118711113Y-90288643D01*
X118798056Y-90307124D01*
X118798061Y-90307124D01*
X118804513Y-90308496D01*
X118860402Y-90308496D01*
X118928523Y-90328498D01*
X118949497Y-90345401D01*
X122596609Y-93992513D01*
X122603969Y-94000601D01*
X122608027Y-94006995D01*
X122613804Y-94012420D01*
X122656878Y-94052869D01*
X122659720Y-94055624D01*
X122680034Y-94075938D01*
X122683445Y-94078583D01*
X122692465Y-94086287D01*
X122724699Y-94116557D01*
X122731643Y-94120374D01*
X122731645Y-94120376D01*
X122742453Y-94126318D01*
X122758977Y-94137172D01*
X122774977Y-94149583D01*
X122782248Y-94152730D01*
X122782249Y-94152730D01*
X122815551Y-94167141D01*
X122826207Y-94172362D01*
X122864952Y-94193662D01*
X122872635Y-94195634D01*
X122872636Y-94195635D01*
X122884568Y-94198699D01*
X122903272Y-94205103D01*
X122914585Y-94209999D01*
X122914592Y-94210001D01*
X122921864Y-94213148D01*
X122929688Y-94214387D01*
X122929691Y-94214388D01*
X122965535Y-94220065D01*
X122977156Y-94222472D01*
X123014218Y-94231987D01*
X123019975Y-94233465D01*
X123020531Y-94233500D01*
X123040452Y-94233500D01*
X123060162Y-94235051D01*
X123072114Y-94236944D01*
X123072115Y-94236944D01*
X123079944Y-94238184D01*
X123087836Y-94237438D01*
X123123582Y-94234059D01*
X123135440Y-94233500D01*
X143091806Y-94233500D01*
X143159927Y-94253502D01*
X143179151Y-94269842D01*
X143179425Y-94269538D01*
X143184327Y-94273952D01*
X143188749Y-94278863D01*
X143194091Y-94282744D01*
X143194093Y-94282746D01*
X143337908Y-94387233D01*
X143343250Y-94391114D01*
X143349278Y-94393798D01*
X143349280Y-94393799D01*
X143511682Y-94466105D01*
X143517713Y-94468790D01*
X143611113Y-94488643D01*
X143698056Y-94507124D01*
X143698061Y-94507124D01*
X143704513Y-94508496D01*
X143895487Y-94508496D01*
X143901939Y-94507124D01*
X143901944Y-94507124D01*
X143988887Y-94488643D01*
X144082287Y-94468790D01*
X144088318Y-94466105D01*
X144250720Y-94393799D01*
X144250722Y-94393798D01*
X144256750Y-94391114D01*
X144262092Y-94387233D01*
X144405907Y-94282746D01*
X144405909Y-94282744D01*
X144411251Y-94278863D01*
X144434086Y-94253502D01*
X144534618Y-94141850D01*
X144534619Y-94141849D01*
X144539037Y-94136942D01*
X144634524Y-93971554D01*
X144693538Y-93789927D01*
X144713500Y-93600000D01*
X144693538Y-93410073D01*
X144634524Y-93228446D01*
X144539037Y-93063058D01*
X144411251Y-92921137D01*
X144405909Y-92917256D01*
X144405907Y-92917254D01*
X144262092Y-92812767D01*
X144262091Y-92812766D01*
X144256750Y-92808886D01*
X144250722Y-92806202D01*
X144250720Y-92806201D01*
X144088318Y-92733895D01*
X144088317Y-92733895D01*
X144082287Y-92731210D01*
X143988887Y-92711357D01*
X143901944Y-92692876D01*
X143901939Y-92692876D01*
X143895487Y-92691504D01*
X143704513Y-92691504D01*
X143698061Y-92692876D01*
X143698056Y-92692876D01*
X143611113Y-92711357D01*
X143517713Y-92731210D01*
X143511683Y-92733895D01*
X143511682Y-92733895D01*
X143349280Y-92806201D01*
X143349278Y-92806202D01*
X143343250Y-92808886D01*
X143337909Y-92812766D01*
X143337908Y-92812767D01*
X143194093Y-92917254D01*
X143194091Y-92917256D01*
X143188749Y-92921137D01*
X143184328Y-92926047D01*
X143179425Y-92930462D01*
X143178299Y-92929211D01*
X143125000Y-92962049D01*
X143091806Y-92966500D01*
X123414594Y-92966500D01*
X123346473Y-92946498D01*
X123325499Y-92929595D01*
X119847118Y-89451214D01*
X119813092Y-89388902D01*
X119810903Y-89375290D01*
X119794228Y-89216637D01*
X119794228Y-89216636D01*
X119793538Y-89210073D01*
X119734524Y-89028446D01*
X119639037Y-88863058D01*
X119565864Y-88781791D01*
X119535146Y-88717784D01*
X119533500Y-88697481D01*
X119533500Y-58014594D01*
X119553502Y-57946473D01*
X119570405Y-57925499D01*
X119695904Y-57800000D01*
X136486500Y-57800000D01*
X136487190Y-57806565D01*
X136491114Y-57843895D01*
X136506462Y-57989927D01*
X136565476Y-58171554D01*
X136660963Y-58336942D01*
X136788749Y-58478863D01*
X136794091Y-58482744D01*
X136794093Y-58482746D01*
X136894922Y-58556002D01*
X136943250Y-58591114D01*
X136949278Y-58593798D01*
X136949280Y-58593799D01*
X136984900Y-58609658D01*
X137117713Y-58668790D01*
X137211113Y-58688643D01*
X137298056Y-58707124D01*
X137298061Y-58707124D01*
X137304513Y-58708496D01*
X137360402Y-58708496D01*
X137428523Y-58728498D01*
X137449497Y-58745401D01*
X138696618Y-59992523D01*
X138703969Y-60000601D01*
X138708027Y-60006995D01*
X138713806Y-60012422D01*
X138713807Y-60012423D01*
X138756862Y-60052854D01*
X138759704Y-60055609D01*
X138780033Y-60075938D01*
X138783453Y-60078590D01*
X138792476Y-60086297D01*
X138824699Y-60116557D01*
X138831643Y-60120374D01*
X138831648Y-60120378D01*
X138842450Y-60126316D01*
X138858977Y-60137172D01*
X138874977Y-60149583D01*
X138906160Y-60163077D01*
X138915551Y-60167141D01*
X138926207Y-60172362D01*
X138964952Y-60193662D01*
X138972635Y-60195634D01*
X138972636Y-60195635D01*
X138984568Y-60198699D01*
X139003272Y-60205103D01*
X139014585Y-60209999D01*
X139014592Y-60210001D01*
X139021864Y-60213148D01*
X139029688Y-60214387D01*
X139029691Y-60214388D01*
X139065535Y-60220065D01*
X139077156Y-60222472D01*
X139114218Y-60231987D01*
X139119975Y-60233465D01*
X139120531Y-60233500D01*
X139140452Y-60233500D01*
X139160162Y-60235051D01*
X139172114Y-60236944D01*
X139172115Y-60236944D01*
X139179944Y-60238184D01*
X139187836Y-60237438D01*
X139223582Y-60234059D01*
X139235440Y-60233500D01*
X143291806Y-60233500D01*
X143359927Y-60253502D01*
X143379151Y-60269842D01*
X143379425Y-60269538D01*
X143384327Y-60273952D01*
X143388749Y-60278863D01*
X143394091Y-60282744D01*
X143394093Y-60282746D01*
X143532832Y-60383545D01*
X143543250Y-60391114D01*
X143549278Y-60393798D01*
X143549280Y-60393799D01*
X143566779Y-60401590D01*
X143717713Y-60468790D01*
X143811113Y-60488643D01*
X143898056Y-60507124D01*
X143898061Y-60507124D01*
X143904513Y-60508496D01*
X144095487Y-60508496D01*
X144101939Y-60507124D01*
X144101944Y-60507124D01*
X144188887Y-60488643D01*
X144282287Y-60468790D01*
X144433221Y-60401590D01*
X144450720Y-60393799D01*
X144450722Y-60393798D01*
X144456750Y-60391114D01*
X144467168Y-60383545D01*
X144605907Y-60282746D01*
X144605909Y-60282744D01*
X144611251Y-60278863D01*
X144647616Y-60238476D01*
X144734618Y-60141850D01*
X144734619Y-60141849D01*
X144739037Y-60136942D01*
X144814062Y-60006995D01*
X144831220Y-59977277D01*
X144831221Y-59977276D01*
X144834524Y-59971554D01*
X144893538Y-59789927D01*
X144895580Y-59770504D01*
X144912810Y-59606565D01*
X144913500Y-59600000D01*
X144893538Y-59410073D01*
X144834524Y-59228446D01*
X144739037Y-59063058D01*
X144611251Y-58921137D01*
X144605909Y-58917256D01*
X144605907Y-58917254D01*
X144462092Y-58812767D01*
X144462091Y-58812766D01*
X144456750Y-58808886D01*
X144450722Y-58806202D01*
X144450720Y-58806201D01*
X144288318Y-58733895D01*
X144288317Y-58733895D01*
X144282287Y-58731210D01*
X144188887Y-58711357D01*
X144101944Y-58692876D01*
X144101939Y-58692876D01*
X144095487Y-58691504D01*
X143904513Y-58691504D01*
X143898061Y-58692876D01*
X143898056Y-58692876D01*
X143811113Y-58711357D01*
X143717713Y-58731210D01*
X143711683Y-58733895D01*
X143711682Y-58733895D01*
X143549280Y-58806201D01*
X143549278Y-58806202D01*
X143543250Y-58808886D01*
X143537909Y-58812766D01*
X143537908Y-58812767D01*
X143394093Y-58917254D01*
X143394091Y-58917256D01*
X143388749Y-58921137D01*
X143384328Y-58926047D01*
X143379425Y-58930462D01*
X143378299Y-58929211D01*
X143325000Y-58962049D01*
X143291806Y-58966500D01*
X139514594Y-58966500D01*
X139446473Y-58946498D01*
X139425499Y-58929595D01*
X138347118Y-57851214D01*
X138313092Y-57788902D01*
X138310903Y-57775290D01*
X138294228Y-57616637D01*
X138294228Y-57616636D01*
X138293538Y-57610073D01*
X138284098Y-57581018D01*
X138236566Y-57434731D01*
X138234524Y-57428446D01*
X138139037Y-57263058D01*
X138086400Y-57204598D01*
X138015673Y-57126048D01*
X138015672Y-57126047D01*
X138011251Y-57121137D01*
X138005909Y-57117256D01*
X138005907Y-57117254D01*
X137862092Y-57012767D01*
X137862091Y-57012766D01*
X137856750Y-57008886D01*
X137850722Y-57006202D01*
X137850720Y-57006201D01*
X137688318Y-56933895D01*
X137688317Y-56933895D01*
X137682287Y-56931210D01*
X137588887Y-56911357D01*
X137501944Y-56892876D01*
X137501939Y-56892876D01*
X137495487Y-56891504D01*
X137304513Y-56891504D01*
X137298061Y-56892876D01*
X137298056Y-56892876D01*
X137211113Y-56911357D01*
X137117713Y-56931210D01*
X137111683Y-56933895D01*
X137111682Y-56933895D01*
X136949280Y-57006201D01*
X136949278Y-57006202D01*
X136943250Y-57008886D01*
X136937909Y-57012766D01*
X136937908Y-57012767D01*
X136794093Y-57117254D01*
X136794091Y-57117256D01*
X136788749Y-57121137D01*
X136784328Y-57126047D01*
X136784327Y-57126048D01*
X136713601Y-57204598D01*
X136660963Y-57263058D01*
X136565476Y-57428446D01*
X136563434Y-57434731D01*
X136515903Y-57581018D01*
X136506462Y-57610073D01*
X136505772Y-57616636D01*
X136505772Y-57616637D01*
X136502379Y-57648918D01*
X136486500Y-57800000D01*
X119695904Y-57800000D01*
X120950504Y-56545401D01*
X121012816Y-56511375D01*
X121039599Y-56508496D01*
X121095487Y-56508496D01*
X121101939Y-56507124D01*
X121101944Y-56507124D01*
X121188887Y-56488643D01*
X121282287Y-56468790D01*
X121288318Y-56466105D01*
X121450720Y-56393799D01*
X121450722Y-56393798D01*
X121456750Y-56391114D01*
X121462092Y-56387233D01*
X121605907Y-56282746D01*
X121605909Y-56282744D01*
X121611251Y-56278863D01*
X121739037Y-56136942D01*
X121834524Y-55971554D01*
X121893538Y-55789927D01*
X121913500Y-55600000D01*
X121893538Y-55410073D01*
X121834524Y-55228446D01*
X121739037Y-55063058D01*
X121611251Y-54921137D01*
X121605909Y-54917256D01*
X121605907Y-54917254D01*
X121462092Y-54812767D01*
X121462091Y-54812766D01*
X121456750Y-54808886D01*
X121450722Y-54806202D01*
X121450720Y-54806201D01*
X121288318Y-54733895D01*
X121288317Y-54733895D01*
X121282287Y-54731210D01*
X121188887Y-54711357D01*
X121101944Y-54692876D01*
X121101939Y-54692876D01*
X121095487Y-54691504D01*
X120904513Y-54691504D01*
X120898061Y-54692876D01*
X120898056Y-54692876D01*
X120811113Y-54711357D01*
X120717713Y-54731210D01*
X120711683Y-54733895D01*
X120711682Y-54733895D01*
X120549280Y-54806201D01*
X120549278Y-54806202D01*
X120543250Y-54808886D01*
X120537909Y-54812766D01*
X120537908Y-54812767D01*
X120394093Y-54917254D01*
X120394091Y-54917256D01*
X120388749Y-54921137D01*
X120260963Y-55063058D01*
X120165476Y-55228446D01*
X120106462Y-55410073D01*
X120105772Y-55416636D01*
X120105772Y-55416637D01*
X120089097Y-55575290D01*
X120062084Y-55640946D01*
X120052882Y-55651214D01*
X118507487Y-57196609D01*
X118499399Y-57203969D01*
X118493005Y-57208027D01*
X118487580Y-57213804D01*
X118447131Y-57256878D01*
X118444376Y-57259720D01*
X118424062Y-57280034D01*
X118421417Y-57283445D01*
X118413713Y-57292465D01*
X118383443Y-57324699D01*
X118379626Y-57331643D01*
X118379624Y-57331645D01*
X118373682Y-57342453D01*
X118362828Y-57358977D01*
X118350417Y-57374977D01*
X118347270Y-57382248D01*
X118347270Y-57382249D01*
X118332859Y-57415551D01*
X118327638Y-57426207D01*
X118306338Y-57464952D01*
X118304366Y-57472635D01*
X118304365Y-57472636D01*
X118301301Y-57484568D01*
X118294897Y-57503272D01*
X118290001Y-57514585D01*
X118289999Y-57514592D01*
X118286852Y-57521864D01*
X118285613Y-57529688D01*
X118285612Y-57529691D01*
X118279935Y-57565535D01*
X118277528Y-57577156D01*
X118270689Y-57603794D01*
X118266535Y-57619975D01*
X118266500Y-57620531D01*
X118266500Y-57640452D01*
X118264949Y-57660162D01*
X118261816Y-57679944D01*
X118262562Y-57687836D01*
X118265941Y-57723582D01*
X118266500Y-57735440D01*
X118266500Y-88697481D01*
X118246498Y-88765602D01*
X118234136Y-88781791D01*
X118160963Y-88863058D01*
X118065476Y-89028446D01*
X118006462Y-89210073D01*
X117986500Y-89400000D01*
X112615107Y-89400000D01*
X112615107Y-77918351D01*
X112635109Y-77850230D01*
X112688765Y-77803737D01*
X112759039Y-77793633D01*
X112808528Y-77811907D01*
X112970406Y-77914439D01*
X113183184Y-78003228D01*
X113188387Y-78004425D01*
X113188392Y-78004426D01*
X113402678Y-78053701D01*
X113402683Y-78053702D01*
X113407881Y-78054897D01*
X113413209Y-78055200D01*
X113413212Y-78055200D01*
X113569293Y-78064063D01*
X113638071Y-78067968D01*
X113643378Y-78067368D01*
X113643380Y-78067368D01*
X113764272Y-78053701D01*
X113867173Y-78042068D01*
X113872288Y-78040587D01*
X113872292Y-78040586D01*
X114001298Y-78003228D01*
X114088635Y-77977937D01*
X114296125Y-77877409D01*
X114300463Y-77874309D01*
X114300468Y-77874306D01*
X114479370Y-77746459D01*
X114483711Y-77743357D01*
X114579946Y-77646280D01*
X114642277Y-77583403D01*
X114642278Y-77583402D01*
X114646030Y-77579617D01*
X114778439Y-77390868D01*
X114877153Y-77182508D01*
X114939349Y-76960494D01*
X114963249Y-76731176D01*
X114963500Y-76705000D01*
X114944007Y-76475265D01*
X114886084Y-76252098D01*
X114869284Y-76214802D01*
X114793578Y-76046743D01*
X114793577Y-76046741D01*
X114791388Y-76041882D01*
X114662627Y-75850626D01*
X114503482Y-75683799D01*
X114318504Y-75546171D01*
X114313743Y-75543751D01*
X114310425Y-75541693D01*
X114263071Y-75488796D01*
X114251832Y-75418695D01*
X114280277Y-75353645D01*
X114303564Y-75332093D01*
X114334158Y-75310230D01*
X114483711Y-75203357D01*
X114579946Y-75106280D01*
X114642277Y-75043403D01*
X114642278Y-75043402D01*
X114646030Y-75039617D01*
X114778439Y-74850868D01*
X114877153Y-74642508D01*
X114939349Y-74420494D01*
X114963249Y-74191176D01*
X114963500Y-74165000D01*
X114944007Y-73935265D01*
X114886084Y-73712098D01*
X114869284Y-73674802D01*
X114793578Y-73506743D01*
X114793577Y-73506741D01*
X114791388Y-73501882D01*
X114662627Y-73310626D01*
X114503482Y-73143799D01*
X114318504Y-73006171D01*
X114313743Y-73003751D01*
X114310425Y-73001693D01*
X114263071Y-72948796D01*
X114251832Y-72878695D01*
X114280277Y-72813645D01*
X114303564Y-72792093D01*
X114326464Y-72775728D01*
X114483711Y-72663357D01*
X114646030Y-72499617D01*
X114778439Y-72310868D01*
X114877153Y-72102508D01*
X114939349Y-71880494D01*
X114963249Y-71651176D01*
X114963500Y-71625000D01*
X114956445Y-71541850D01*
X114944458Y-71400576D01*
X114944457Y-71400572D01*
X114944007Y-71395265D01*
X114886084Y-71172098D01*
X114855754Y-71104767D01*
X114793578Y-70966743D01*
X114793577Y-70966741D01*
X114791388Y-70961882D01*
X114662627Y-70770626D01*
X114503482Y-70603799D01*
X114318504Y-70466171D01*
X114313743Y-70463751D01*
X114310425Y-70461693D01*
X114263071Y-70408796D01*
X114251832Y-70338695D01*
X114280277Y-70273645D01*
X114303564Y-70252093D01*
X114417930Y-70170365D01*
X114483711Y-70123357D01*
X114610074Y-69995888D01*
X114642277Y-69963403D01*
X114642278Y-69963402D01*
X114646030Y-69959617D01*
X114778439Y-69770868D01*
X114877153Y-69562508D01*
X114939349Y-69340494D01*
X114963249Y-69111176D01*
X114963500Y-69085000D01*
X114944007Y-68855265D01*
X114941238Y-68844594D01*
X114887426Y-68637269D01*
X114886084Y-68632098D01*
X114834613Y-68517836D01*
X114793578Y-68426743D01*
X114793577Y-68426741D01*
X114791388Y-68421882D01*
X114662627Y-68230626D01*
X114632185Y-68198714D01*
X114584686Y-68148923D01*
X114503482Y-68063799D01*
X114318504Y-67926171D01*
X114313743Y-67923751D01*
X114310425Y-67921693D01*
X114263071Y-67868796D01*
X114251832Y-67798695D01*
X114280277Y-67733645D01*
X114303564Y-67712093D01*
X114334158Y-67690230D01*
X114483711Y-67583357D01*
X114579946Y-67486280D01*
X114642277Y-67423403D01*
X114642278Y-67423402D01*
X114646030Y-67419617D01*
X114778439Y-67230868D01*
X114877153Y-67022508D01*
X114939349Y-66800494D01*
X114963249Y-66571176D01*
X114963500Y-66545000D01*
X114944007Y-66315265D01*
X114886084Y-66092098D01*
X114791388Y-65881882D01*
X114662627Y-65690626D01*
X114503482Y-65523799D01*
X114318504Y-65386171D01*
X114313743Y-65383751D01*
X114310425Y-65381693D01*
X114263071Y-65328796D01*
X114251832Y-65258695D01*
X114280277Y-65193645D01*
X114303564Y-65172093D01*
X114334158Y-65150230D01*
X114483711Y-65043357D01*
X114579946Y-64946280D01*
X114642277Y-64883403D01*
X114642278Y-64883402D01*
X114646030Y-64879617D01*
X114778439Y-64690868D01*
X114877153Y-64482508D01*
X114939349Y-64260494D01*
X114963249Y-64031176D01*
X114963500Y-64005000D01*
X114959949Y-63963149D01*
X114944458Y-63780576D01*
X114944457Y-63780572D01*
X114944007Y-63775265D01*
X114886084Y-63552098D01*
X114791388Y-63341882D01*
X114662627Y-63150626D01*
X114503482Y-62983799D01*
X114318504Y-62846171D01*
X114313743Y-62843751D01*
X114310425Y-62841693D01*
X114263071Y-62788796D01*
X114251832Y-62718695D01*
X114280277Y-62653645D01*
X114303564Y-62632093D01*
X114334158Y-62610230D01*
X114483711Y-62503357D01*
X114579946Y-62406280D01*
X114642277Y-62343403D01*
X114642278Y-62343402D01*
X114646030Y-62339617D01*
X114778439Y-62150868D01*
X114877153Y-61942508D01*
X114939349Y-61720494D01*
X114963249Y-61491176D01*
X114963500Y-61465000D01*
X114944007Y-61235265D01*
X114886084Y-61012098D01*
X114869284Y-60974802D01*
X114793578Y-60806743D01*
X114793577Y-60806741D01*
X114791388Y-60801882D01*
X114662627Y-60610626D01*
X114530868Y-60472507D01*
X114498321Y-60409410D01*
X114505052Y-60338733D01*
X114548926Y-60282916D01*
X114586538Y-60264640D01*
X114619545Y-60254948D01*
X114654670Y-60244635D01*
X114654672Y-60244634D01*
X114663316Y-60242096D01*
X114730843Y-60198699D01*
X114778691Y-60167949D01*
X114778694Y-60167947D01*
X114786271Y-60163077D01*
X114802174Y-60144724D01*
X114876082Y-60059431D01*
X114876084Y-60059428D01*
X114881984Y-60052619D01*
X114902820Y-60006995D01*
X114938958Y-59927864D01*
X114938958Y-59927863D01*
X114942700Y-59919670D01*
X114949925Y-59869421D01*
X114962861Y-59779448D01*
X114962862Y-59779441D01*
X114963500Y-59775000D01*
X114963500Y-58075000D01*
X114958273Y-58001921D01*
X114917096Y-57861684D01*
X114873235Y-57793435D01*
X114842949Y-57746309D01*
X114842947Y-57746306D01*
X114838077Y-57738729D01*
X114761200Y-57672114D01*
X114734431Y-57648918D01*
X114734428Y-57648916D01*
X114727619Y-57643016D01*
X114678384Y-57620531D01*
X114602864Y-57586042D01*
X114602863Y-57586042D01*
X114594670Y-57582300D01*
X114585755Y-57581018D01*
X114585754Y-57581018D01*
X114454448Y-57562139D01*
X114454441Y-57562138D01*
X114450000Y-57561500D01*
X112750000Y-57561500D01*
X112747735Y-57561662D01*
X112745610Y-57561738D01*
X112676818Y-57544183D01*
X112628437Y-57492223D01*
X112615107Y-57435818D01*
X112615107Y-53983528D01*
X112617101Y-53961203D01*
X112618195Y-53955124D01*
X112619059Y-53950326D01*
X112620981Y-53869169D01*
X112623367Y-53847571D01*
X112633295Y-53797663D01*
X112638638Y-53770800D01*
X112645807Y-53747165D01*
X112672849Y-53681881D01*
X112684493Y-53660098D01*
X112698856Y-53638603D01*
X112723744Y-53601355D01*
X112739413Y-53582263D01*
X112789371Y-53532305D01*
X112808462Y-53516636D01*
X112867211Y-53477382D01*
X112888991Y-53465741D01*
X112954267Y-53438702D01*
X112977904Y-53431532D01*
X113001099Y-53426918D01*
X113054686Y-53416260D01*
X113076282Y-53413874D01*
X113149684Y-53412136D01*
X113149686Y-53412136D01*
X113154156Y-53412030D01*
X113158568Y-53411291D01*
X113158580Y-53411290D01*
X113167890Y-53409731D01*
X113188701Y-53408000D01*
X148816472Y-53408000D01*
X148838797Y-53409994D01*
G37*
%TD.AperFunction*%
%TD*%
M02*
