G04 #@! TF.GenerationSoftware,KiCad,Pcbnew,5.1.2*
G04 #@! TF.CreationDate,2019-06-28T17:21:03-05:00*
G04 #@! TF.ProjectId,BatteryTotem,42617474-6572-4795-946f-74656d2e6b69,rev?*
G04 #@! TF.SameCoordinates,Original*
G04 #@! TF.FileFunction,Legend,Bot*
G04 #@! TF.FilePolarity,Positive*
%FSLAX46Y46*%
G04 Gerber Fmt 4.6, Leading zero omitted, Abs format (unit mm)*
G04 Created by KiCad (PCBNEW 5.1.2) date 2019-06-28 17:21:03*
%MOMM*%
%LPD*%
G04 APERTURE LIST*
%ADD10C,0.050000*%
%ADD11C,0.150000*%
%ADD12C,0.120000*%
G04 APERTURE END LIST*
D10*
X104760202Y-50769846D02*
X104335938Y-51194110D01*
X105285482Y-51295126D02*
X105002639Y-51577968D01*
X105043045Y-51537562D02*
X105043045Y-51577968D01*
X105063248Y-51638577D01*
X105123857Y-51699187D01*
X105184466Y-51719390D01*
X105245075Y-51699187D01*
X105467309Y-51476953D01*
X105245075Y-51699187D02*
X105224872Y-51759796D01*
X105245075Y-51820405D01*
X105305685Y-51881014D01*
X105366294Y-51901217D01*
X105426903Y-51881014D01*
X105649136Y-51658780D01*
X105992588Y-52042638D02*
X105972385Y-51982029D01*
X105891573Y-51901217D01*
X105830964Y-51881014D01*
X105770355Y-51901217D01*
X105608730Y-52062842D01*
X105588527Y-52123451D01*
X105608730Y-52184060D01*
X105689543Y-52264872D01*
X105750152Y-52285075D01*
X105810761Y-52264872D01*
X105851167Y-52224466D01*
X105689543Y-51982029D01*
X106396649Y-52406293D02*
X106174416Y-52628527D01*
X106113807Y-52648730D01*
X106053197Y-52628527D01*
X105972385Y-52547715D01*
X105952182Y-52487106D01*
X106376446Y-52426496D02*
X106356243Y-52365887D01*
X106255228Y-52264872D01*
X106194619Y-52244669D01*
X106134010Y-52264872D01*
X106093604Y-52305278D01*
X106073401Y-52365887D01*
X106093604Y-52426496D01*
X106194619Y-52527512D01*
X106214822Y-52588121D01*
X106315837Y-52891167D02*
X106598680Y-52608324D01*
X106356243Y-52850760D02*
X106356243Y-52891167D01*
X106376446Y-52951776D01*
X106437055Y-53012385D01*
X106497665Y-53032588D01*
X106558274Y-53012385D01*
X106780507Y-52790151D01*
X106982538Y-53032588D02*
X107002741Y-53012385D01*
X107022944Y-52951776D01*
X107022944Y-52911370D01*
X107507817Y-53517461D02*
X107224974Y-53800304D01*
X107083553Y-53941725D02*
X107083553Y-53901319D01*
X107123959Y-53901319D01*
X107123959Y-53941725D01*
X107083553Y-53941725D01*
X107123959Y-53901319D01*
X107366396Y-53941725D02*
X107528020Y-54103350D01*
X107285584Y-54143756D02*
X107649239Y-53780101D01*
X107709848Y-53759898D01*
X107770457Y-53780101D01*
X107810863Y-53820507D01*
X107911878Y-53961928D02*
X107972487Y-53982131D01*
X108053300Y-54062944D01*
X108073503Y-54123553D01*
X108053300Y-54184162D01*
X108033096Y-54204365D01*
X107972487Y-54224568D01*
X107911878Y-54204365D01*
X107851269Y-54143756D01*
X107790660Y-54123553D01*
X107730051Y-54143756D01*
X107709848Y-54163959D01*
X107689645Y-54224568D01*
X107709848Y-54285177D01*
X107770457Y-54345786D01*
X107831066Y-54365989D01*
X108517970Y-55093299D02*
X108800812Y-54810456D01*
X108336142Y-54911472D02*
X108558376Y-54689238D01*
X108618985Y-54669035D01*
X108679594Y-54689238D01*
X108740203Y-54749847D01*
X108760406Y-54810456D01*
X108760406Y-54850863D01*
X108901828Y-55477157D02*
X109245280Y-55133705D01*
X109265483Y-55073096D01*
X109265483Y-55032690D01*
X109245280Y-54972081D01*
X109184670Y-54911472D01*
X109124061Y-54891269D01*
X109164467Y-55214517D02*
X109144264Y-55153908D01*
X109063452Y-55073096D01*
X109002843Y-55052893D01*
X108962437Y-55052893D01*
X108901828Y-55073096D01*
X108780609Y-55194314D01*
X108760406Y-55254924D01*
X108760406Y-55295330D01*
X108780609Y-55355939D01*
X108861422Y-55436751D01*
X108922031Y-55456954D01*
X109447310Y-55456954D02*
X109386701Y-55436751D01*
X109326092Y-55456954D01*
X108962437Y-55820609D01*
X109285686Y-55861015D02*
X109669544Y-55679188D01*
X109487716Y-56063046D02*
X109669544Y-55679188D01*
X109730153Y-55537766D01*
X109730153Y-55497360D01*
X109709950Y-55436751D01*
X104896572Y-50007182D02*
X104977385Y-50047588D01*
X105017791Y-50047588D01*
X105078400Y-50027385D01*
X105139009Y-49966775D01*
X105159212Y-49906166D01*
X105159212Y-49865760D01*
X105139009Y-49805151D01*
X104977385Y-49643527D01*
X104553121Y-50067791D01*
X104694542Y-50209212D01*
X104755151Y-50229415D01*
X104795557Y-50229415D01*
X104856166Y-50209212D01*
X104896572Y-50168806D01*
X104916775Y-50108197D01*
X104916775Y-50067791D01*
X104896572Y-50007182D01*
X104755151Y-49865760D01*
X105300633Y-50532461D02*
X105583476Y-50249618D01*
X105118806Y-50350633D02*
X105341039Y-50128400D01*
X105401649Y-50108197D01*
X105462258Y-50128400D01*
X105522867Y-50189009D01*
X105543070Y-50249618D01*
X105543070Y-50290024D01*
X105442055Y-50673882D02*
X105603679Y-50835507D01*
X105361243Y-50875913D02*
X105724897Y-50512258D01*
X105785507Y-50492055D01*
X105846116Y-50512258D01*
X105886522Y-50552664D01*
X106027943Y-51259771D02*
X106411801Y-51077943D01*
X106229974Y-51461801D02*
X106411801Y-51077943D01*
X106472410Y-50936522D01*
X106472410Y-50896116D01*
X106452207Y-50835507D01*
X106735050Y-51401192D02*
X106674441Y-51380989D01*
X106634035Y-51380989D01*
X106573426Y-51401192D01*
X106452207Y-51522410D01*
X106432004Y-51583019D01*
X106432004Y-51623426D01*
X106452207Y-51684035D01*
X106512816Y-51744644D01*
X106573426Y-51764847D01*
X106613832Y-51764847D01*
X106674441Y-51744644D01*
X106795659Y-51623426D01*
X106815862Y-51562816D01*
X106815862Y-51522410D01*
X106795659Y-51461801D01*
X106735050Y-51401192D01*
X106957284Y-52189111D02*
X107240126Y-51906268D01*
X106775456Y-52007284D02*
X106997690Y-51785050D01*
X107058299Y-51764847D01*
X107118908Y-51785050D01*
X107179517Y-51845659D01*
X107199720Y-51906268D01*
X107199720Y-51946674D01*
X107442157Y-52108299D02*
X107159314Y-52391142D01*
X107240126Y-52310329D02*
X107219923Y-52370938D01*
X107219923Y-52411345D01*
X107240126Y-52471954D01*
X107280532Y-52512360D01*
X107745203Y-52977030D02*
X108028045Y-52694187D01*
X107785609Y-52936624D02*
X107785609Y-52977030D01*
X107805812Y-53037639D01*
X107866421Y-53098248D01*
X107927030Y-53118451D01*
X107987639Y-53098248D01*
X108209873Y-52876015D01*
X108472512Y-53138654D02*
X108411903Y-53118451D01*
X108371497Y-53118451D01*
X108310888Y-53138654D01*
X108189670Y-53259873D01*
X108169467Y-53320482D01*
X108169467Y-53360888D01*
X108189670Y-53421497D01*
X108250279Y-53482106D01*
X108310888Y-53502309D01*
X108351294Y-53502309D01*
X108411903Y-53482106D01*
X108533122Y-53360888D01*
X108553325Y-53300279D01*
X108553325Y-53259873D01*
X108533122Y-53199264D01*
X108472512Y-53138654D01*
X108452309Y-53684137D02*
X108613934Y-53845761D01*
X108371497Y-53886167D02*
X108735152Y-53522512D01*
X108795761Y-53502309D01*
X108856370Y-53522512D01*
X108896776Y-53562918D01*
X109361447Y-54027589D02*
X108937183Y-54451853D01*
X109543274Y-54209416D02*
X109321041Y-54431650D01*
X109260431Y-54451853D01*
X109199822Y-54431650D01*
X109139213Y-54371041D01*
X109119010Y-54310431D01*
X109119010Y-54270025D01*
X109886726Y-54593274D02*
X109866523Y-54532665D01*
X109785711Y-54451853D01*
X109725102Y-54431650D01*
X109664492Y-54451853D01*
X109502868Y-54613477D01*
X109482665Y-54674086D01*
X109502868Y-54734695D01*
X109583680Y-54815508D01*
X109644289Y-54835711D01*
X109704898Y-54815508D01*
X109745305Y-54775102D01*
X109583680Y-54532665D01*
X110108960Y-54775102D02*
X109826117Y-55057944D01*
X109906929Y-54977132D02*
X109886726Y-55037741D01*
X109886726Y-55078147D01*
X109906929Y-55138756D01*
X109947335Y-55179163D01*
X110513021Y-55219569D02*
X110492817Y-55158960D01*
X110412005Y-55078147D01*
X110351396Y-55057944D01*
X110290787Y-55078147D01*
X110129163Y-55239772D01*
X110108960Y-55300381D01*
X110129163Y-55360990D01*
X110209975Y-55441802D01*
X110270584Y-55462005D01*
X110331193Y-55441802D01*
X110371599Y-55401396D01*
X110209975Y-55158960D01*
X105012739Y-48901065D02*
X105174364Y-49062689D01*
X104931927Y-49103095D02*
X105295582Y-48739441D01*
X105356191Y-48719237D01*
X105416800Y-48739441D01*
X105457207Y-48779847D01*
X105659237Y-48981877D02*
X105598628Y-48961674D01*
X105558222Y-48961674D01*
X105497613Y-48981877D01*
X105376394Y-49103095D01*
X105356191Y-49163705D01*
X105356191Y-49204111D01*
X105376394Y-49264720D01*
X105437004Y-49325329D01*
X105497613Y-49345532D01*
X105538019Y-49345532D01*
X105598628Y-49325329D01*
X105719846Y-49204111D01*
X105740049Y-49143502D01*
X105740049Y-49103095D01*
X105719846Y-49042486D01*
X105659237Y-48981877D01*
X106366344Y-49688984D02*
X106305735Y-49668781D01*
X106245126Y-49688984D01*
X105881471Y-50052639D01*
X106588577Y-49911217D02*
X106527968Y-49891014D01*
X106487562Y-49891014D01*
X106426953Y-49911217D01*
X106305735Y-50032436D01*
X106285532Y-50093045D01*
X106285532Y-50133451D01*
X106305735Y-50194060D01*
X106366344Y-50254669D01*
X106426953Y-50274872D01*
X106467359Y-50274872D01*
X106527968Y-50254669D01*
X106649187Y-50133451D01*
X106669390Y-50072842D01*
X106669390Y-50032436D01*
X106649187Y-49971827D01*
X106588577Y-49911217D01*
X106972435Y-50295075D02*
X106911826Y-50274872D01*
X106871420Y-50274872D01*
X106810811Y-50295075D01*
X106689593Y-50416294D01*
X106669390Y-50476903D01*
X106669390Y-50517309D01*
X106689593Y-50577918D01*
X106750202Y-50638527D01*
X106810811Y-50658730D01*
X106851217Y-50658730D01*
X106911826Y-50638527D01*
X107033045Y-50517309D01*
X107053248Y-50456700D01*
X107053248Y-50416294D01*
X107033045Y-50355685D01*
X106972435Y-50295075D01*
X107295684Y-50618324D02*
X106871420Y-51042588D01*
X107174466Y-50820355D02*
X107457309Y-50779949D01*
X107174466Y-51062791D02*
X107174466Y-50739543D01*
X108144212Y-51466852D02*
X107921979Y-51689086D01*
X107861370Y-51709289D01*
X107800760Y-51689086D01*
X107719948Y-51608274D01*
X107699745Y-51547665D01*
X108124009Y-51487055D02*
X108103806Y-51426446D01*
X108002791Y-51325431D01*
X107942182Y-51305228D01*
X107881573Y-51325431D01*
X107841167Y-51365837D01*
X107820964Y-51426446D01*
X107841167Y-51487055D01*
X107942182Y-51588071D01*
X107962385Y-51648680D01*
X108002791Y-51891116D02*
X108164415Y-52052741D01*
X107921979Y-52093147D02*
X108285634Y-51729492D01*
X108346243Y-51709289D01*
X108406852Y-51729492D01*
X108447258Y-51769898D01*
X108568476Y-52456802D02*
X108730101Y-52618426D01*
X108487664Y-52658832D02*
X108851319Y-52295177D01*
X108911928Y-52274974D01*
X108972537Y-52295177D01*
X109012944Y-52335584D01*
X109154365Y-52477005D02*
X108730101Y-52901269D01*
X109336192Y-52658832D02*
X109113959Y-52881066D01*
X109053350Y-52901269D01*
X108992741Y-52881066D01*
X108932131Y-52820457D01*
X108911928Y-52759848D01*
X108911928Y-52719442D01*
X109679644Y-53042690D02*
X109659441Y-52982081D01*
X109578629Y-52901269D01*
X109518020Y-52881066D01*
X109457411Y-52901269D01*
X109295786Y-53062893D01*
X109275583Y-53123503D01*
X109295786Y-53184112D01*
X109376598Y-53264924D01*
X109437208Y-53285127D01*
X109497817Y-53264924D01*
X109538223Y-53224518D01*
X109376598Y-52982081D01*
X109881675Y-53770000D02*
X110043299Y-53931625D01*
X109800863Y-53972031D02*
X110164517Y-53608376D01*
X110225127Y-53588173D01*
X110285736Y-53608376D01*
X110326142Y-53648782D01*
X110528172Y-53850812D02*
X110467563Y-53830609D01*
X110427157Y-53830609D01*
X110366548Y-53850812D01*
X110245330Y-53972031D01*
X110225127Y-54032640D01*
X110225127Y-54073046D01*
X110245330Y-54133655D01*
X110305939Y-54194264D01*
X110366548Y-54214467D01*
X110406954Y-54214467D01*
X110467563Y-54194264D01*
X110588782Y-54073046D01*
X110608985Y-54012437D01*
X110608985Y-53972031D01*
X110588782Y-53911422D01*
X110528172Y-53850812D01*
X110507969Y-54396295D02*
X110669594Y-54557919D01*
X110427157Y-54598325D02*
X110790812Y-54234670D01*
X110851421Y-54214467D01*
X110912030Y-54234670D01*
X110952436Y-54275076D01*
X111235279Y-54598325D02*
X111215076Y-54537716D01*
X111134264Y-54456904D01*
X111073655Y-54436701D01*
X111013046Y-54456904D01*
X110851421Y-54618528D01*
X110831218Y-54679137D01*
X110851421Y-54739747D01*
X110932233Y-54820559D01*
X110992843Y-54840762D01*
X111053452Y-54820559D01*
X111093858Y-54780153D01*
X110932233Y-54537716D01*
X111457513Y-54780153D02*
X111174670Y-55062995D01*
X111215076Y-55022589D02*
X111215076Y-55062995D01*
X111235279Y-55123605D01*
X111295888Y-55184214D01*
X111356497Y-55204417D01*
X111417107Y-55184214D01*
X111639340Y-54961980D01*
X111417107Y-55184214D02*
X111396904Y-55244823D01*
X111417107Y-55305432D01*
X111477716Y-55366041D01*
X111538325Y-55386244D01*
X111598934Y-55366041D01*
X111821168Y-55143808D01*
D11*
X124925042Y-79175507D02*
X125059729Y-79040820D01*
X125160744Y-79007148D01*
X125295431Y-79007148D01*
X125463790Y-79108164D01*
X125699492Y-79343866D01*
X125800507Y-79512225D01*
X125800507Y-79646912D01*
X125766835Y-79747927D01*
X125632148Y-79882614D01*
X125531133Y-79916286D01*
X125396446Y-79916286D01*
X125228087Y-79815270D01*
X124992385Y-79579568D01*
X124891370Y-79411209D01*
X124891370Y-79276522D01*
X124925042Y-79175507D01*
X126238240Y-79276522D02*
X125531133Y-78569416D01*
X126642301Y-78872461D01*
X125935194Y-78165355D01*
D12*
X133167883Y-72946975D02*
X132802199Y-72581291D01*
X134171975Y-71942883D02*
X133806291Y-71577199D01*
X127952199Y-77281291D02*
X128317883Y-77646975D01*
X128956291Y-76277199D02*
X129321975Y-76642883D01*
X140621975Y-78142883D02*
X140256291Y-77777199D01*
X139617883Y-79146975D02*
X139252199Y-78781291D01*
X131457117Y-73828025D02*
X131822801Y-74193709D01*
X130453025Y-74832117D02*
X130818709Y-75197801D01*
X182291743Y-122415111D02*
X182107895Y-122231263D01*
X180389625Y-120018019D02*
X179138046Y-118766440D01*
X179138046Y-118766440D02*
X178869346Y-119035141D01*
X173254918Y-124649568D02*
X174506497Y-125901147D01*
X176719741Y-127619417D02*
X176903589Y-127803265D01*
X173254918Y-124649568D02*
X173523619Y-124380868D01*
X128790112Y-81144204D02*
X129155796Y-81509888D01*
X129794204Y-80140112D02*
X130159888Y-80505796D01*
X136143709Y-75822801D02*
X135778025Y-75457117D01*
X137147801Y-74818709D02*
X136782117Y-74453025D01*
X130275288Y-79270675D02*
X134093665Y-83089052D01*
X134956335Y-76710948D02*
X137714052Y-79468665D01*
X121565578Y-69188046D02*
X122456532Y-68297092D01*
X126388046Y-64365578D02*
X125497092Y-65256532D01*
X124224299Y-71846768D02*
X121565578Y-69188046D01*
X130637758Y-68615290D02*
X126388046Y-64365578D01*
X171040546Y-102985256D02*
G75*
G02X157677279Y-89491981I1358696J14709498D01*
G01*
X171091094Y-102988173D02*
G75*
G02X171762846Y-103266421I1J-950000D01*
G01*
X157686827Y-89583906D02*
G75*
G03X157408579Y-88912154I-950000J1D01*
G01*
X153590202Y-88912153D02*
G75*
G02X157408579Y-88912154I1909188J-1909189D01*
G01*
X171762847Y-107084798D02*
G75*
G03X171762846Y-103266421I-1909189J1909188D01*
G01*
X168828353Y-110019291D02*
X171798202Y-107049443D01*
X150655709Y-91846647D02*
X153625557Y-88876798D01*
X162110839Y-116736806D02*
X164444291Y-114403353D01*
X151681014Y-114580130D02*
X162110839Y-116736806D01*
X151115328Y-115145815D02*
X151681014Y-114580130D01*
X145529185Y-109559672D02*
X151115328Y-115145815D01*
X145529185Y-109559672D02*
X146094870Y-108993986D01*
X146094870Y-108993986D02*
X143938194Y-98564161D01*
X143938194Y-98564161D02*
X146271647Y-96230709D01*
D11*
X124255378Y-71098796D02*
X124120691Y-71031453D01*
X123952332Y-70863094D01*
X123918660Y-70762079D01*
X123918660Y-70694735D01*
X123952332Y-70593720D01*
X124019675Y-70526377D01*
X124120691Y-70492705D01*
X124188034Y-70492705D01*
X124289049Y-70526377D01*
X124457408Y-70627392D01*
X124558423Y-70661064D01*
X124625767Y-70661064D01*
X124726782Y-70627392D01*
X124794126Y-70560048D01*
X124827797Y-70459033D01*
X124827797Y-70391690D01*
X124794126Y-70290674D01*
X124625767Y-70122316D01*
X124491080Y-70054972D01*
X124289049Y-69785598D02*
X123413584Y-70324346D01*
X123783973Y-69684583D01*
X123144210Y-70054972D01*
X123682958Y-69179507D01*
X122336088Y-69246850D02*
X122740149Y-69650911D01*
X122538118Y-69448881D02*
X123245225Y-68741774D01*
X123211553Y-68910133D01*
X123211553Y-69044820D01*
X123245225Y-69145835D01*
X134855843Y-71802467D02*
X134855843Y-71869811D01*
X134923187Y-72004498D01*
X134990530Y-72071841D01*
X135125217Y-72139185D01*
X135259904Y-72139185D01*
X135360919Y-72105513D01*
X135529278Y-72004498D01*
X135630293Y-71903483D01*
X135731309Y-71735124D01*
X135764980Y-71634109D01*
X135764980Y-71499422D01*
X135697637Y-71364735D01*
X135630293Y-71297391D01*
X135495606Y-71230048D01*
X135428263Y-71230048D01*
X134115064Y-71196376D02*
X134519125Y-71600437D01*
X134317095Y-71398406D02*
X135024202Y-70691299D01*
X134990530Y-70859658D01*
X134990530Y-70994345D01*
X135024202Y-71095360D01*
X133980377Y-70118880D02*
X133508973Y-70590284D01*
X134418110Y-70017864D02*
X134081393Y-70691299D01*
X133643660Y-70253567D01*
X127672391Y-78835919D02*
X127672391Y-78903263D01*
X127739735Y-79037950D01*
X127807078Y-79105293D01*
X127941765Y-79172637D01*
X128076452Y-79172637D01*
X128177467Y-79138965D01*
X128345826Y-79037950D01*
X128446841Y-78936935D01*
X128547857Y-78768576D01*
X128581528Y-78667561D01*
X128581528Y-78532874D01*
X128514185Y-78398187D01*
X128446841Y-78330843D01*
X128312154Y-78263500D01*
X128244811Y-78263500D01*
X126931612Y-78229828D02*
X127335673Y-78633889D01*
X127133643Y-78431858D02*
X127840750Y-77724751D01*
X127807078Y-77893110D01*
X127807078Y-78027797D01*
X127840750Y-78128813D01*
X127032628Y-76916629D02*
X127167315Y-77051316D01*
X127200986Y-77152332D01*
X127200986Y-77219675D01*
X127167315Y-77388034D01*
X127066299Y-77556393D01*
X126796925Y-77825767D01*
X126695910Y-77859438D01*
X126628567Y-77859438D01*
X126527551Y-77825767D01*
X126392864Y-77691080D01*
X126359193Y-77590064D01*
X126359193Y-77522721D01*
X126392864Y-77421706D01*
X126561223Y-77253347D01*
X126662238Y-77219675D01*
X126729582Y-77219675D01*
X126830597Y-77253347D01*
X126965284Y-77388034D01*
X126998956Y-77489049D01*
X126998956Y-77556393D01*
X126965284Y-77657408D01*
X141305843Y-78002467D02*
X141305843Y-78069811D01*
X141373187Y-78204498D01*
X141440530Y-78271841D01*
X141575217Y-78339185D01*
X141709904Y-78339185D01*
X141810919Y-78305513D01*
X141979278Y-78204498D01*
X142080293Y-78103483D01*
X142181309Y-77935124D01*
X142214980Y-77834109D01*
X142214980Y-77699422D01*
X142147637Y-77564735D01*
X142080293Y-77497391D01*
X141945606Y-77430048D01*
X141878263Y-77430048D01*
X140565064Y-77396376D02*
X140969125Y-77800437D01*
X140767095Y-77598406D02*
X141474202Y-76891299D01*
X141440530Y-77059658D01*
X141440530Y-77194345D01*
X141474202Y-77295360D01*
X141036469Y-76453567D02*
X140565064Y-75982162D01*
X140161003Y-76992315D01*
X130077030Y-76407106D02*
X130077030Y-76474450D01*
X130144374Y-76609137D01*
X130211717Y-76676480D01*
X130346404Y-76743824D01*
X130481091Y-76743824D01*
X130582106Y-76710152D01*
X130750465Y-76609137D01*
X130851480Y-76508122D01*
X130952496Y-76339763D01*
X130986167Y-76238748D01*
X130986167Y-76104061D01*
X130918824Y-75969374D01*
X130851480Y-75902030D01*
X130716793Y-75834687D01*
X130649450Y-75834687D01*
X129336251Y-75801015D02*
X129740312Y-76205076D01*
X129538282Y-76003045D02*
X130245389Y-75295938D01*
X130211717Y-75464297D01*
X130211717Y-75598984D01*
X130245389Y-75700000D01*
X129336251Y-74992893D02*
X129437267Y-75026564D01*
X129504610Y-75026564D01*
X129605625Y-74992893D01*
X129639297Y-74959221D01*
X129672969Y-74858206D01*
X129672969Y-74790862D01*
X129639297Y-74689847D01*
X129504610Y-74555160D01*
X129403595Y-74521488D01*
X129336251Y-74521488D01*
X129235236Y-74555160D01*
X129201564Y-74588832D01*
X129167893Y-74689847D01*
X129167893Y-74757190D01*
X129201564Y-74858206D01*
X129336251Y-74992893D01*
X129369923Y-75093908D01*
X129369923Y-75161251D01*
X129336251Y-75262267D01*
X129201564Y-75396954D01*
X129100549Y-75430625D01*
X129033206Y-75430625D01*
X128932190Y-75396954D01*
X128797503Y-75262267D01*
X128763832Y-75161251D01*
X128763832Y-75093908D01*
X128797503Y-74992893D01*
X128932190Y-74858206D01*
X129033206Y-74824534D01*
X129100549Y-74824534D01*
X129201564Y-74858206D01*
X174087283Y-126390397D02*
X173582207Y-126895473D01*
X173514864Y-127030160D01*
X173514864Y-127164847D01*
X173582207Y-127299534D01*
X173649551Y-127366878D01*
X172673070Y-126390397D02*
X173077131Y-126794458D01*
X172875100Y-126592428D02*
X173582207Y-125885321D01*
X173548535Y-126053680D01*
X173548535Y-126188367D01*
X173582207Y-126289382D01*
X172942444Y-125245558D02*
X172875100Y-125178214D01*
X172774085Y-125144542D01*
X172706742Y-125144542D01*
X172605726Y-125178214D01*
X172437368Y-125279229D01*
X172269009Y-125447588D01*
X172167994Y-125615947D01*
X172134322Y-125716962D01*
X172134322Y-125784306D01*
X172167994Y-125885321D01*
X172235337Y-125952664D01*
X172336352Y-125986336D01*
X172403696Y-125986336D01*
X172504711Y-125952664D01*
X172673070Y-125851649D01*
X172841429Y-125683290D01*
X172942444Y-125514932D01*
X172976116Y-125413916D01*
X172976116Y-125346573D01*
X172942444Y-125245558D01*
X128106243Y-82429458D02*
X128678663Y-82328443D01*
X128510304Y-82833519D02*
X129217411Y-82126413D01*
X128948037Y-81857038D01*
X128847022Y-81823367D01*
X128779678Y-81823367D01*
X128678663Y-81857038D01*
X128577648Y-81958054D01*
X128543976Y-82059069D01*
X128543976Y-82126413D01*
X128577648Y-82227428D01*
X128847022Y-82496802D01*
X128476632Y-81520321D02*
X128476632Y-81452977D01*
X128442961Y-81351962D01*
X128274602Y-81183603D01*
X128173586Y-81149932D01*
X128106243Y-81149932D01*
X128005228Y-81183603D01*
X127937884Y-81250947D01*
X127870541Y-81385634D01*
X127870541Y-82193756D01*
X127432808Y-81756023D01*
X137427608Y-74408919D02*
X138000028Y-74307904D01*
X137831669Y-74812980D02*
X138538776Y-74105874D01*
X138269402Y-73836499D01*
X138168387Y-73802828D01*
X138101043Y-73802828D01*
X138000028Y-73836499D01*
X137899013Y-73937515D01*
X137865341Y-74038530D01*
X137865341Y-74105874D01*
X137899013Y-74206889D01*
X138168387Y-74476263D01*
X137494951Y-73062049D02*
X137831669Y-73398767D01*
X137528623Y-73769156D01*
X137528623Y-73701812D01*
X137494951Y-73600797D01*
X137326593Y-73432438D01*
X137225577Y-73398767D01*
X137158234Y-73398767D01*
X137057219Y-73432438D01*
X136888860Y-73600797D01*
X136855188Y-73701812D01*
X136855188Y-73769156D01*
X136888860Y-73870171D01*
X137057219Y-74038530D01*
X137158234Y-74072202D01*
X137225577Y-74072202D01*
X133046810Y-82455685D02*
X132474390Y-83028105D01*
X132373375Y-83061777D01*
X132306031Y-83061777D01*
X132205016Y-83028105D01*
X132070329Y-82893418D01*
X132036657Y-82792403D01*
X132036657Y-82725059D01*
X132070329Y-82624044D01*
X132642749Y-82051624D01*
X132373375Y-81782250D02*
X131935642Y-81344518D01*
X131901970Y-81849594D01*
X131800955Y-81748579D01*
X131699940Y-81714907D01*
X131632596Y-81714907D01*
X131531581Y-81748579D01*
X131363222Y-81916937D01*
X131329550Y-82017953D01*
X131329550Y-82085296D01*
X131363222Y-82186311D01*
X131565253Y-82388342D01*
X131666268Y-82422014D01*
X131733611Y-82422014D01*
X129435340Y-65096927D02*
X128862920Y-65669347D01*
X128761905Y-65703019D01*
X128694561Y-65703019D01*
X128593546Y-65669347D01*
X128458859Y-65534660D01*
X128425187Y-65433645D01*
X128425187Y-65366301D01*
X128458859Y-65265286D01*
X129031279Y-64692866D01*
X128155813Y-64288805D02*
X127684409Y-64760210D01*
X128593546Y-64187790D02*
X128256828Y-64861225D01*
X127819096Y-64423492D01*
X147973753Y-113812414D02*
X147839066Y-113745070D01*
X147771723Y-113745070D01*
X147670707Y-113778742D01*
X147569692Y-113879757D01*
X147536020Y-113980773D01*
X147536020Y-114048116D01*
X147569692Y-114149131D01*
X147839066Y-114418505D01*
X148546173Y-113711399D01*
X148310471Y-113475696D01*
X148209455Y-113442025D01*
X148142112Y-113442025D01*
X148041097Y-113475696D01*
X147973753Y-113543040D01*
X147940081Y-113644055D01*
X147940081Y-113711399D01*
X147973753Y-113812414D01*
X148209455Y-114048116D01*
X147940081Y-113105307D02*
X147536020Y-112701246D01*
X147030944Y-113610383D02*
X147738051Y-112903276D01*
X146222822Y-112802261D02*
X146626883Y-113206322D01*
X146424852Y-113004292D02*
X147131959Y-112297185D01*
X147098287Y-112465544D01*
X147098287Y-112600231D01*
X147131959Y-112701246D01*
M02*
