G04 #@! TF.GenerationSoftware,KiCad,Pcbnew,5.1.5*
G04 #@! TF.CreationDate,2020-01-16T19:42:05-06:00*
G04 #@! TF.ProjectId,BMM150,424d4d31-3530-42e6-9b69-6361645f7063,rev?*
G04 #@! TF.SameCoordinates,Original*
G04 #@! TF.FileFunction,Copper,L1,Top*
G04 #@! TF.FilePolarity,Positive*
%FSLAX46Y46*%
G04 Gerber Fmt 4.6, Leading zero omitted, Abs format (unit mm)*
G04 Created by KiCad (PCBNEW 5.1.5) date 2020-01-16 19:42:05*
%MOMM*%
%LPD*%
G04 APERTURE LIST*
%ADD10C,0.010000*%
%ADD11C,0.100000*%
%ADD12R,1.700000X1.700000*%
%ADD13O,1.700000X1.700000*%
%ADD14C,0.200000*%
%ADD15C,0.800000*%
%ADD16C,0.150000*%
%ADD17C,0.250000*%
%ADD18C,0.254000*%
G04 APERTURE END LIST*
D10*
G36*
X143294413Y-125629101D02*
G01*
X143477476Y-125721441D01*
X143613408Y-125855243D01*
X143620789Y-125866445D01*
X143659296Y-125936560D01*
X143680787Y-126011161D01*
X143687260Y-126111906D01*
X143680713Y-126260454D01*
X143669912Y-126399000D01*
X143656318Y-126607176D01*
X143645127Y-126865106D01*
X143637606Y-127137886D01*
X143635038Y-127359064D01*
X143635779Y-127591042D01*
X143640613Y-127755025D01*
X143651695Y-127867664D01*
X143671180Y-127945610D01*
X143701225Y-128005512D01*
X143722732Y-128036397D01*
X143808602Y-128121274D01*
X143922178Y-128161004D01*
X143995016Y-128169227D01*
X144242890Y-128150096D01*
X144470719Y-128052890D01*
X144684344Y-127874818D01*
X144739224Y-127813825D01*
X144843892Y-127700241D01*
X144934066Y-127618178D01*
X144991141Y-127584453D01*
X144993112Y-127584334D01*
X145048755Y-127617452D01*
X145122182Y-127701096D01*
X145154505Y-127748393D01*
X145301869Y-127939127D01*
X145451913Y-128053226D01*
X145599284Y-128089020D01*
X145738631Y-128044837D01*
X145832971Y-127960223D01*
X145913653Y-127851415D01*
X145983934Y-127723458D01*
X146051082Y-127559221D01*
X146122364Y-127341574D01*
X146180985Y-127139834D01*
X146240450Y-126929010D01*
X146302683Y-126709557D01*
X146356333Y-126521471D01*
X146367246Y-126483442D01*
X146446416Y-126208050D01*
X146874565Y-126044582D01*
X147092567Y-125965972D01*
X147240998Y-125923703D01*
X147326001Y-125916227D01*
X147347145Y-125925545D01*
X147377677Y-125984474D01*
X147344740Y-126044145D01*
X147242286Y-126109634D01*
X147064270Y-126186021D01*
X147014887Y-126204600D01*
X146855263Y-126266840D01*
X146724296Y-126323866D01*
X146644270Y-126365783D01*
X146633527Y-126373933D01*
X146605315Y-126430037D01*
X146561526Y-126551746D01*
X146507553Y-126722637D01*
X146448790Y-126926288D01*
X146432251Y-126986804D01*
X146321737Y-127368610D01*
X146215651Y-127673568D01*
X146109846Y-127909062D01*
X146000173Y-128082475D01*
X145882485Y-128201190D01*
X145752635Y-128272591D01*
X145701069Y-128288398D01*
X145527379Y-128291191D01*
X145343574Y-128224646D01*
X145171259Y-128097924D01*
X145117569Y-128040944D01*
X144966511Y-127864467D01*
X144796542Y-128041355D01*
X144612034Y-128207866D01*
X144428712Y-128310737D01*
X144215918Y-128364778D01*
X144101413Y-128377186D01*
X143943971Y-128383485D01*
X143834906Y-128367957D01*
X143739244Y-128323620D01*
X143697334Y-128296552D01*
X143569087Y-128168677D01*
X143477698Y-127981493D01*
X143422655Y-127731317D01*
X143403449Y-127414461D01*
X143419569Y-127027242D01*
X143464182Y-126613076D01*
X143492945Y-126361873D01*
X143500189Y-126178459D01*
X143482137Y-126047833D01*
X143435009Y-125954997D01*
X143355027Y-125884951D01*
X143268702Y-125837122D01*
X143123658Y-125792101D01*
X142985297Y-125810585D01*
X142837541Y-125897350D01*
X142721579Y-125999650D01*
X142626116Y-126085110D01*
X142563509Y-126115811D01*
X142511292Y-126101090D01*
X142498527Y-126092361D01*
X142451073Y-126047661D01*
X142457352Y-125998669D01*
X142495525Y-125939482D01*
X142604960Y-125826072D01*
X142757501Y-125719287D01*
X142922405Y-125636782D01*
X143068928Y-125596212D01*
X143095974Y-125594667D01*
X143294413Y-125629101D01*
G37*
X143294413Y-125629101D02*
X143477476Y-125721441D01*
X143613408Y-125855243D01*
X143620789Y-125866445D01*
X143659296Y-125936560D01*
X143680787Y-126011161D01*
X143687260Y-126111906D01*
X143680713Y-126260454D01*
X143669912Y-126399000D01*
X143656318Y-126607176D01*
X143645127Y-126865106D01*
X143637606Y-127137886D01*
X143635038Y-127359064D01*
X143635779Y-127591042D01*
X143640613Y-127755025D01*
X143651695Y-127867664D01*
X143671180Y-127945610D01*
X143701225Y-128005512D01*
X143722732Y-128036397D01*
X143808602Y-128121274D01*
X143922178Y-128161004D01*
X143995016Y-128169227D01*
X144242890Y-128150096D01*
X144470719Y-128052890D01*
X144684344Y-127874818D01*
X144739224Y-127813825D01*
X144843892Y-127700241D01*
X144934066Y-127618178D01*
X144991141Y-127584453D01*
X144993112Y-127584334D01*
X145048755Y-127617452D01*
X145122182Y-127701096D01*
X145154505Y-127748393D01*
X145301869Y-127939127D01*
X145451913Y-128053226D01*
X145599284Y-128089020D01*
X145738631Y-128044837D01*
X145832971Y-127960223D01*
X145913653Y-127851415D01*
X145983934Y-127723458D01*
X146051082Y-127559221D01*
X146122364Y-127341574D01*
X146180985Y-127139834D01*
X146240450Y-126929010D01*
X146302683Y-126709557D01*
X146356333Y-126521471D01*
X146367246Y-126483442D01*
X146446416Y-126208050D01*
X146874565Y-126044582D01*
X147092567Y-125965972D01*
X147240998Y-125923703D01*
X147326001Y-125916227D01*
X147347145Y-125925545D01*
X147377677Y-125984474D01*
X147344740Y-126044145D01*
X147242286Y-126109634D01*
X147064270Y-126186021D01*
X147014887Y-126204600D01*
X146855263Y-126266840D01*
X146724296Y-126323866D01*
X146644270Y-126365783D01*
X146633527Y-126373933D01*
X146605315Y-126430037D01*
X146561526Y-126551746D01*
X146507553Y-126722637D01*
X146448790Y-126926288D01*
X146432251Y-126986804D01*
X146321737Y-127368610D01*
X146215651Y-127673568D01*
X146109846Y-127909062D01*
X146000173Y-128082475D01*
X145882485Y-128201190D01*
X145752635Y-128272591D01*
X145701069Y-128288398D01*
X145527379Y-128291191D01*
X145343574Y-128224646D01*
X145171259Y-128097924D01*
X145117569Y-128040944D01*
X144966511Y-127864467D01*
X144796542Y-128041355D01*
X144612034Y-128207866D01*
X144428712Y-128310737D01*
X144215918Y-128364778D01*
X144101413Y-128377186D01*
X143943971Y-128383485D01*
X143834906Y-128367957D01*
X143739244Y-128323620D01*
X143697334Y-128296552D01*
X143569087Y-128168677D01*
X143477698Y-127981493D01*
X143422655Y-127731317D01*
X143403449Y-127414461D01*
X143419569Y-127027242D01*
X143464182Y-126613076D01*
X143492945Y-126361873D01*
X143500189Y-126178459D01*
X143482137Y-126047833D01*
X143435009Y-125954997D01*
X143355027Y-125884951D01*
X143268702Y-125837122D01*
X143123658Y-125792101D01*
X142985297Y-125810585D01*
X142837541Y-125897350D01*
X142721579Y-125999650D01*
X142626116Y-126085110D01*
X142563509Y-126115811D01*
X142511292Y-126101090D01*
X142498527Y-126092361D01*
X142451073Y-126047661D01*
X142457352Y-125998669D01*
X142495525Y-125939482D01*
X142604960Y-125826072D01*
X142757501Y-125719287D01*
X142922405Y-125636782D01*
X143068928Y-125596212D01*
X143095974Y-125594667D01*
X143294413Y-125629101D01*
G04 #@! TA.AperFunction,SMDPad,CuDef*
D11*
G36*
X147800142Y-110338674D02*
G01*
X147823803Y-110342184D01*
X147847007Y-110347996D01*
X147869529Y-110356054D01*
X147891153Y-110366282D01*
X147911670Y-110378579D01*
X147930883Y-110392829D01*
X147948607Y-110408893D01*
X147964671Y-110426617D01*
X147978921Y-110445830D01*
X147991218Y-110466347D01*
X148001446Y-110487971D01*
X148009504Y-110510493D01*
X148015316Y-110533697D01*
X148018826Y-110557358D01*
X148020000Y-110581250D01*
X148020000Y-111068750D01*
X148018826Y-111092642D01*
X148015316Y-111116303D01*
X148009504Y-111139507D01*
X148001446Y-111162029D01*
X147991218Y-111183653D01*
X147978921Y-111204170D01*
X147964671Y-111223383D01*
X147948607Y-111241107D01*
X147930883Y-111257171D01*
X147911670Y-111271421D01*
X147891153Y-111283718D01*
X147869529Y-111293946D01*
X147847007Y-111302004D01*
X147823803Y-111307816D01*
X147800142Y-111311326D01*
X147776250Y-111312500D01*
X146863750Y-111312500D01*
X146839858Y-111311326D01*
X146816197Y-111307816D01*
X146792993Y-111302004D01*
X146770471Y-111293946D01*
X146748847Y-111283718D01*
X146728330Y-111271421D01*
X146709117Y-111257171D01*
X146691393Y-111241107D01*
X146675329Y-111223383D01*
X146661079Y-111204170D01*
X146648782Y-111183653D01*
X146638554Y-111162029D01*
X146630496Y-111139507D01*
X146624684Y-111116303D01*
X146621174Y-111092642D01*
X146620000Y-111068750D01*
X146620000Y-110581250D01*
X146621174Y-110557358D01*
X146624684Y-110533697D01*
X146630496Y-110510493D01*
X146638554Y-110487971D01*
X146648782Y-110466347D01*
X146661079Y-110445830D01*
X146675329Y-110426617D01*
X146691393Y-110408893D01*
X146709117Y-110392829D01*
X146728330Y-110378579D01*
X146748847Y-110366282D01*
X146770471Y-110356054D01*
X146792993Y-110347996D01*
X146816197Y-110342184D01*
X146839858Y-110338674D01*
X146863750Y-110337500D01*
X147776250Y-110337500D01*
X147800142Y-110338674D01*
G37*
G04 #@! TD.AperFunction*
G04 #@! TA.AperFunction,SMDPad,CuDef*
G36*
X147800142Y-112213674D02*
G01*
X147823803Y-112217184D01*
X147847007Y-112222996D01*
X147869529Y-112231054D01*
X147891153Y-112241282D01*
X147911670Y-112253579D01*
X147930883Y-112267829D01*
X147948607Y-112283893D01*
X147964671Y-112301617D01*
X147978921Y-112320830D01*
X147991218Y-112341347D01*
X148001446Y-112362971D01*
X148009504Y-112385493D01*
X148015316Y-112408697D01*
X148018826Y-112432358D01*
X148020000Y-112456250D01*
X148020000Y-112943750D01*
X148018826Y-112967642D01*
X148015316Y-112991303D01*
X148009504Y-113014507D01*
X148001446Y-113037029D01*
X147991218Y-113058653D01*
X147978921Y-113079170D01*
X147964671Y-113098383D01*
X147948607Y-113116107D01*
X147930883Y-113132171D01*
X147911670Y-113146421D01*
X147891153Y-113158718D01*
X147869529Y-113168946D01*
X147847007Y-113177004D01*
X147823803Y-113182816D01*
X147800142Y-113186326D01*
X147776250Y-113187500D01*
X146863750Y-113187500D01*
X146839858Y-113186326D01*
X146816197Y-113182816D01*
X146792993Y-113177004D01*
X146770471Y-113168946D01*
X146748847Y-113158718D01*
X146728330Y-113146421D01*
X146709117Y-113132171D01*
X146691393Y-113116107D01*
X146675329Y-113098383D01*
X146661079Y-113079170D01*
X146648782Y-113058653D01*
X146638554Y-113037029D01*
X146630496Y-113014507D01*
X146624684Y-112991303D01*
X146621174Y-112967642D01*
X146620000Y-112943750D01*
X146620000Y-112456250D01*
X146621174Y-112432358D01*
X146624684Y-112408697D01*
X146630496Y-112385493D01*
X146638554Y-112362971D01*
X146648782Y-112341347D01*
X146661079Y-112320830D01*
X146675329Y-112301617D01*
X146691393Y-112283893D01*
X146709117Y-112267829D01*
X146728330Y-112253579D01*
X146748847Y-112241282D01*
X146770471Y-112231054D01*
X146792993Y-112222996D01*
X146816197Y-112217184D01*
X146839858Y-112213674D01*
X146863750Y-112212500D01*
X147776250Y-112212500D01*
X147800142Y-112213674D01*
G37*
G04 #@! TD.AperFunction*
G04 #@! TA.AperFunction,SMDPad,CuDef*
G36*
X143230142Y-110336174D02*
G01*
X143253803Y-110339684D01*
X143277007Y-110345496D01*
X143299529Y-110353554D01*
X143321153Y-110363782D01*
X143341670Y-110376079D01*
X143360883Y-110390329D01*
X143378607Y-110406393D01*
X143394671Y-110424117D01*
X143408921Y-110443330D01*
X143421218Y-110463847D01*
X143431446Y-110485471D01*
X143439504Y-110507993D01*
X143445316Y-110531197D01*
X143448826Y-110554858D01*
X143450000Y-110578750D01*
X143450000Y-111066250D01*
X143448826Y-111090142D01*
X143445316Y-111113803D01*
X143439504Y-111137007D01*
X143431446Y-111159529D01*
X143421218Y-111181153D01*
X143408921Y-111201670D01*
X143394671Y-111220883D01*
X143378607Y-111238607D01*
X143360883Y-111254671D01*
X143341670Y-111268921D01*
X143321153Y-111281218D01*
X143299529Y-111291446D01*
X143277007Y-111299504D01*
X143253803Y-111305316D01*
X143230142Y-111308826D01*
X143206250Y-111310000D01*
X142293750Y-111310000D01*
X142269858Y-111308826D01*
X142246197Y-111305316D01*
X142222993Y-111299504D01*
X142200471Y-111291446D01*
X142178847Y-111281218D01*
X142158330Y-111268921D01*
X142139117Y-111254671D01*
X142121393Y-111238607D01*
X142105329Y-111220883D01*
X142091079Y-111201670D01*
X142078782Y-111181153D01*
X142068554Y-111159529D01*
X142060496Y-111137007D01*
X142054684Y-111113803D01*
X142051174Y-111090142D01*
X142050000Y-111066250D01*
X142050000Y-110578750D01*
X142051174Y-110554858D01*
X142054684Y-110531197D01*
X142060496Y-110507993D01*
X142068554Y-110485471D01*
X142078782Y-110463847D01*
X142091079Y-110443330D01*
X142105329Y-110424117D01*
X142121393Y-110406393D01*
X142139117Y-110390329D01*
X142158330Y-110376079D01*
X142178847Y-110363782D01*
X142200471Y-110353554D01*
X142222993Y-110345496D01*
X142246197Y-110339684D01*
X142269858Y-110336174D01*
X142293750Y-110335000D01*
X143206250Y-110335000D01*
X143230142Y-110336174D01*
G37*
G04 #@! TD.AperFunction*
G04 #@! TA.AperFunction,SMDPad,CuDef*
G36*
X143230142Y-112211174D02*
G01*
X143253803Y-112214684D01*
X143277007Y-112220496D01*
X143299529Y-112228554D01*
X143321153Y-112238782D01*
X143341670Y-112251079D01*
X143360883Y-112265329D01*
X143378607Y-112281393D01*
X143394671Y-112299117D01*
X143408921Y-112318330D01*
X143421218Y-112338847D01*
X143431446Y-112360471D01*
X143439504Y-112382993D01*
X143445316Y-112406197D01*
X143448826Y-112429858D01*
X143450000Y-112453750D01*
X143450000Y-112941250D01*
X143448826Y-112965142D01*
X143445316Y-112988803D01*
X143439504Y-113012007D01*
X143431446Y-113034529D01*
X143421218Y-113056153D01*
X143408921Y-113076670D01*
X143394671Y-113095883D01*
X143378607Y-113113607D01*
X143360883Y-113129671D01*
X143341670Y-113143921D01*
X143321153Y-113156218D01*
X143299529Y-113166446D01*
X143277007Y-113174504D01*
X143253803Y-113180316D01*
X143230142Y-113183826D01*
X143206250Y-113185000D01*
X142293750Y-113185000D01*
X142269858Y-113183826D01*
X142246197Y-113180316D01*
X142222993Y-113174504D01*
X142200471Y-113166446D01*
X142178847Y-113156218D01*
X142158330Y-113143921D01*
X142139117Y-113129671D01*
X142121393Y-113113607D01*
X142105329Y-113095883D01*
X142091079Y-113076670D01*
X142078782Y-113056153D01*
X142068554Y-113034529D01*
X142060496Y-113012007D01*
X142054684Y-112988803D01*
X142051174Y-112965142D01*
X142050000Y-112941250D01*
X142050000Y-112453750D01*
X142051174Y-112429858D01*
X142054684Y-112406197D01*
X142060496Y-112382993D01*
X142068554Y-112360471D01*
X142078782Y-112338847D01*
X142091079Y-112318330D01*
X142105329Y-112299117D01*
X142121393Y-112281393D01*
X142139117Y-112265329D01*
X142158330Y-112251079D01*
X142178847Y-112238782D01*
X142200471Y-112228554D01*
X142222993Y-112220496D01*
X142246197Y-112214684D01*
X142269858Y-112211174D01*
X142293750Y-112210000D01*
X143206250Y-112210000D01*
X143230142Y-112211174D01*
G37*
G04 #@! TD.AperFunction*
D12*
X137715001Y-108505001D03*
D13*
X137715001Y-111045001D03*
X137715001Y-113585001D03*
X137715001Y-116125001D03*
X137715001Y-118665001D03*
X137715001Y-121205001D03*
X137715001Y-123745001D03*
X137715001Y-126285001D03*
D14*
X145346000Y-116136000D03*
X145346000Y-115570000D03*
X145346000Y-115004000D03*
X145063000Y-115853000D03*
X145063000Y-115287000D03*
X144780000Y-116136000D03*
X144780000Y-115004000D03*
X144497000Y-115853000D03*
X144497000Y-115287000D03*
X144214000Y-116136000D03*
X144214000Y-115570000D03*
X144214000Y-115004000D03*
G04 #@! TA.AperFunction,SMDPad,CuDef*
D11*
G36*
X144080142Y-120551174D02*
G01*
X144103803Y-120554684D01*
X144127007Y-120560496D01*
X144149529Y-120568554D01*
X144171153Y-120578782D01*
X144191670Y-120591079D01*
X144210883Y-120605329D01*
X144228607Y-120621393D01*
X144244671Y-120639117D01*
X144258921Y-120658330D01*
X144271218Y-120678847D01*
X144281446Y-120700471D01*
X144289504Y-120722993D01*
X144295316Y-120746197D01*
X144298826Y-120769858D01*
X144300000Y-120793750D01*
X144300000Y-121706250D01*
X144298826Y-121730142D01*
X144295316Y-121753803D01*
X144289504Y-121777007D01*
X144281446Y-121799529D01*
X144271218Y-121821153D01*
X144258921Y-121841670D01*
X144244671Y-121860883D01*
X144228607Y-121878607D01*
X144210883Y-121894671D01*
X144191670Y-121908921D01*
X144171153Y-121921218D01*
X144149529Y-121931446D01*
X144127007Y-121939504D01*
X144103803Y-121945316D01*
X144080142Y-121948826D01*
X144056250Y-121950000D01*
X143568750Y-121950000D01*
X143544858Y-121948826D01*
X143521197Y-121945316D01*
X143497993Y-121939504D01*
X143475471Y-121931446D01*
X143453847Y-121921218D01*
X143433330Y-121908921D01*
X143414117Y-121894671D01*
X143396393Y-121878607D01*
X143380329Y-121860883D01*
X143366079Y-121841670D01*
X143353782Y-121821153D01*
X143343554Y-121799529D01*
X143335496Y-121777007D01*
X143329684Y-121753803D01*
X143326174Y-121730142D01*
X143325000Y-121706250D01*
X143325000Y-120793750D01*
X143326174Y-120769858D01*
X143329684Y-120746197D01*
X143335496Y-120722993D01*
X143343554Y-120700471D01*
X143353782Y-120678847D01*
X143366079Y-120658330D01*
X143380329Y-120639117D01*
X143396393Y-120621393D01*
X143414117Y-120605329D01*
X143433330Y-120591079D01*
X143453847Y-120578782D01*
X143475471Y-120568554D01*
X143497993Y-120560496D01*
X143521197Y-120554684D01*
X143544858Y-120551174D01*
X143568750Y-120550000D01*
X144056250Y-120550000D01*
X144080142Y-120551174D01*
G37*
G04 #@! TD.AperFunction*
G04 #@! TA.AperFunction,SMDPad,CuDef*
G36*
X145955142Y-120551174D02*
G01*
X145978803Y-120554684D01*
X146002007Y-120560496D01*
X146024529Y-120568554D01*
X146046153Y-120578782D01*
X146066670Y-120591079D01*
X146085883Y-120605329D01*
X146103607Y-120621393D01*
X146119671Y-120639117D01*
X146133921Y-120658330D01*
X146146218Y-120678847D01*
X146156446Y-120700471D01*
X146164504Y-120722993D01*
X146170316Y-120746197D01*
X146173826Y-120769858D01*
X146175000Y-120793750D01*
X146175000Y-121706250D01*
X146173826Y-121730142D01*
X146170316Y-121753803D01*
X146164504Y-121777007D01*
X146156446Y-121799529D01*
X146146218Y-121821153D01*
X146133921Y-121841670D01*
X146119671Y-121860883D01*
X146103607Y-121878607D01*
X146085883Y-121894671D01*
X146066670Y-121908921D01*
X146046153Y-121921218D01*
X146024529Y-121931446D01*
X146002007Y-121939504D01*
X145978803Y-121945316D01*
X145955142Y-121948826D01*
X145931250Y-121950000D01*
X145443750Y-121950000D01*
X145419858Y-121948826D01*
X145396197Y-121945316D01*
X145372993Y-121939504D01*
X145350471Y-121931446D01*
X145328847Y-121921218D01*
X145308330Y-121908921D01*
X145289117Y-121894671D01*
X145271393Y-121878607D01*
X145255329Y-121860883D01*
X145241079Y-121841670D01*
X145228782Y-121821153D01*
X145218554Y-121799529D01*
X145210496Y-121777007D01*
X145204684Y-121753803D01*
X145201174Y-121730142D01*
X145200000Y-121706250D01*
X145200000Y-120793750D01*
X145201174Y-120769858D01*
X145204684Y-120746197D01*
X145210496Y-120722993D01*
X145218554Y-120700471D01*
X145228782Y-120678847D01*
X145241079Y-120658330D01*
X145255329Y-120639117D01*
X145271393Y-120621393D01*
X145289117Y-120605329D01*
X145308330Y-120591079D01*
X145328847Y-120578782D01*
X145350471Y-120568554D01*
X145372993Y-120560496D01*
X145396197Y-120554684D01*
X145419858Y-120551174D01*
X145443750Y-120550000D01*
X145931250Y-120550000D01*
X145955142Y-120551174D01*
G37*
G04 #@! TD.AperFunction*
D15*
X142500000Y-117000000D03*
X146375000Y-114075000D03*
D16*
X138927500Y-107000000D02*
X142750000Y-110822500D01*
X136512920Y-123745001D02*
X135500000Y-122732081D01*
X137715001Y-123745001D02*
X136512920Y-123745001D01*
X135500000Y-108000000D02*
X136500000Y-107000000D01*
X135500000Y-122732081D02*
X135500000Y-108000000D01*
X136500000Y-107000000D02*
X138927500Y-107000000D01*
X145204579Y-115570000D02*
X145346000Y-115570000D01*
X144938998Y-115570000D02*
X145204579Y-115570000D01*
X144780000Y-115411002D02*
X144938998Y-115570000D01*
X144780000Y-115004000D02*
X144780000Y-115411002D01*
X144214000Y-115570000D02*
X144938998Y-115570000D01*
X144214000Y-116136000D02*
X143364000Y-116136000D01*
X143364000Y-116136000D02*
X142500000Y-117000000D01*
X145346000Y-115104000D02*
X146375000Y-114075000D01*
X146275000Y-114075000D02*
X146375000Y-114075000D01*
X145346000Y-115004000D02*
X146275000Y-114075000D01*
X145346000Y-115570000D02*
X145346000Y-115104000D01*
D17*
X147320000Y-113237500D02*
X147250000Y-113307500D01*
X147320000Y-112750000D02*
X147320000Y-113237500D01*
X147250000Y-113307500D02*
X147250000Y-115250000D01*
X147250000Y-115250000D02*
X146750000Y-115750000D01*
D16*
X146647000Y-115853000D02*
X146750000Y-115750000D01*
X145063000Y-115853000D02*
X146647000Y-115853000D01*
X138917082Y-126285001D02*
X140452083Y-124750000D01*
X137715001Y-126285001D02*
X138917082Y-126285001D01*
X140452083Y-124750000D02*
X143750000Y-124750000D01*
X145687500Y-122812500D02*
X145687500Y-121250000D01*
X143750000Y-124750000D02*
X145687500Y-122812500D01*
X145063000Y-119925500D02*
X145063000Y-115994421D01*
X145687500Y-120550000D02*
X145063000Y-119925500D01*
X145063000Y-115994421D02*
X145063000Y-115853000D01*
X145687500Y-121250000D02*
X145687500Y-120550000D01*
D17*
X144250000Y-114904998D02*
X144182499Y-114972499D01*
X144250000Y-114685000D02*
X144250000Y-114904998D01*
X142750000Y-112697500D02*
X142750000Y-113185000D01*
X142750000Y-113185000D02*
X144250000Y-114685000D01*
D16*
X143767501Y-121205001D02*
X143812500Y-121250000D01*
X137715001Y-121205001D02*
X143767501Y-121205001D01*
X137571027Y-112211973D02*
X136000000Y-113783000D01*
X142750000Y-112697500D02*
X142264473Y-112211973D01*
X142264473Y-112211973D02*
X137571027Y-112211973D01*
X136000000Y-113783000D02*
X136000000Y-120750000D01*
X136455001Y-121205001D02*
X137715001Y-121205001D01*
X136000000Y-120750000D02*
X136455001Y-121205001D01*
X146788278Y-116136000D02*
X148375000Y-114549278D01*
X148375000Y-114549278D02*
X148375000Y-112275000D01*
X137715001Y-109505001D02*
X137715001Y-108505001D01*
X139747510Y-111537510D02*
X137715001Y-109505001D01*
X148375000Y-112275000D02*
X147637510Y-111537510D01*
X145346000Y-116136000D02*
X146788278Y-116136000D01*
X147637510Y-111537510D02*
X139747510Y-111537510D01*
X143239718Y-111895000D02*
X138565000Y-111895000D01*
X138565000Y-111895000D02*
X137715001Y-111045001D01*
X145063000Y-113718282D02*
X143239718Y-111895000D01*
X145063000Y-115287000D02*
X145063000Y-113718282D01*
X139417000Y-115287000D02*
X137715001Y-113585001D01*
X144497000Y-115287000D02*
X139417000Y-115287000D01*
X137987002Y-115853000D02*
X137715001Y-116125001D01*
X144497000Y-115853000D02*
X137987002Y-115853000D01*
X142250999Y-118665001D02*
X137715001Y-118665001D01*
X144780000Y-116136000D02*
X142250999Y-118665001D01*
D18*
G36*
X135928285Y-121682375D02*
G01*
X135950526Y-121709476D01*
X136058638Y-121798201D01*
X136181981Y-121864129D01*
X136315816Y-121904728D01*
X136402237Y-121913239D01*
X136561526Y-122151633D01*
X136768369Y-122358476D01*
X136950535Y-122480196D01*
X136833646Y-122549823D01*
X136617413Y-122744732D01*
X136443360Y-122978081D01*
X136318176Y-123240902D01*
X136273525Y-123388111D01*
X136394846Y-123618001D01*
X137588001Y-123618001D01*
X137588001Y-123598001D01*
X137842001Y-123598001D01*
X137842001Y-123618001D01*
X139035156Y-123618001D01*
X139156477Y-123388111D01*
X139111826Y-123240902D01*
X138986642Y-122978081D01*
X138812589Y-122744732D01*
X138596356Y-122549823D01*
X138479467Y-122480196D01*
X138661633Y-122358476D01*
X138868476Y-122151633D01*
X139026588Y-121915001D01*
X142715010Y-121915001D01*
X142754053Y-122043709D01*
X142835542Y-122196164D01*
X142945208Y-122329792D01*
X143078836Y-122439458D01*
X143231291Y-122520947D01*
X143396715Y-122571128D01*
X143568750Y-122588072D01*
X144056250Y-122588072D01*
X144228285Y-122571128D01*
X144393709Y-122520947D01*
X144546164Y-122439458D01*
X144679792Y-122329792D01*
X144750000Y-122244244D01*
X144820208Y-122329792D01*
X144953836Y-122439458D01*
X144977500Y-122452107D01*
X144977500Y-122518409D01*
X143455909Y-124040000D01*
X140486957Y-124040000D01*
X140452082Y-124036565D01*
X140417207Y-124040000D01*
X140417206Y-124040000D01*
X140312899Y-124050273D01*
X140179063Y-124090872D01*
X140055720Y-124156800D01*
X139947608Y-124245525D01*
X139925375Y-124272616D01*
X138864049Y-125333942D01*
X138661633Y-125131526D01*
X138479467Y-125009806D01*
X138596356Y-124940179D01*
X138812589Y-124745270D01*
X138986642Y-124511921D01*
X139111826Y-124249100D01*
X139156477Y-124101891D01*
X139035156Y-123872001D01*
X137842001Y-123872001D01*
X137842001Y-123892001D01*
X137588001Y-123892001D01*
X137588001Y-123872001D01*
X136394846Y-123872001D01*
X136273525Y-124101891D01*
X136318176Y-124249100D01*
X136443360Y-124511921D01*
X136617413Y-124745270D01*
X136833646Y-124940179D01*
X136950535Y-125009806D01*
X136768369Y-125131526D01*
X136561526Y-125338369D01*
X136399011Y-125581590D01*
X136287069Y-125851843D01*
X136230001Y-126138741D01*
X136230001Y-126431261D01*
X136287069Y-126718159D01*
X136399011Y-126988412D01*
X136561526Y-127231633D01*
X136768369Y-127438476D01*
X137011590Y-127600991D01*
X137281843Y-127712933D01*
X137568741Y-127770001D01*
X137861261Y-127770001D01*
X138148159Y-127712933D01*
X138418412Y-127600991D01*
X138661633Y-127438476D01*
X138868476Y-127231633D01*
X139030991Y-126988412D01*
X139031507Y-126987166D01*
X139056266Y-126984728D01*
X139190102Y-126944129D01*
X139313445Y-126878201D01*
X139421557Y-126789476D01*
X139443794Y-126762380D01*
X140746175Y-125460000D01*
X142068825Y-125460000D01*
X142034978Y-125495077D01*
X141999127Y-125540345D01*
X141962580Y-125585123D01*
X141957685Y-125592599D01*
X141919512Y-125651786D01*
X141913579Y-125663320D01*
X141905928Y-125673811D01*
X141885044Y-125718796D01*
X141862379Y-125762859D01*
X141858798Y-125775329D01*
X141853332Y-125787104D01*
X141841586Y-125835276D01*
X141827907Y-125882915D01*
X141826817Y-125895845D01*
X141823742Y-125908454D01*
X141822544Y-125917309D01*
X141816265Y-125966302D01*
X141814869Y-126013247D01*
X141811193Y-126060079D01*
X141813016Y-126075572D01*
X141812553Y-126091153D01*
X141820299Y-126137456D01*
X141825791Y-126184129D01*
X141830590Y-126198975D01*
X141833161Y-126214347D01*
X141849759Y-126258283D01*
X141864207Y-126302981D01*
X141871791Y-126316600D01*
X141877304Y-126331193D01*
X141902130Y-126371083D01*
X141924976Y-126412108D01*
X141935064Y-126423998D01*
X141943304Y-126437238D01*
X141975392Y-126471532D01*
X142005783Y-126507353D01*
X142012245Y-126513526D01*
X142059699Y-126558226D01*
X142095578Y-126585944D01*
X142098114Y-126588131D01*
X142109011Y-126598856D01*
X142115527Y-126603144D01*
X142129927Y-126615558D01*
X142137269Y-126620653D01*
X142150034Y-126629382D01*
X142156150Y-126632739D01*
X142158544Y-126634589D01*
X142169114Y-126639856D01*
X142182458Y-126647182D01*
X142213357Y-126667512D01*
X142237077Y-126677165D01*
X142259526Y-126689489D01*
X142294782Y-126700649D01*
X142329049Y-126714595D01*
X142337633Y-126717079D01*
X142389849Y-126731800D01*
X142430883Y-126739142D01*
X142471367Y-126749144D01*
X142492242Y-126750120D01*
X142512803Y-126753799D01*
X142554479Y-126753031D01*
X142596137Y-126754979D01*
X142616804Y-126751882D01*
X142637688Y-126751497D01*
X142678428Y-126742647D01*
X142719664Y-126736468D01*
X142739330Y-126729418D01*
X142759747Y-126724983D01*
X142797990Y-126708390D01*
X142810704Y-126703832D01*
X142783250Y-126958699D01*
X142783091Y-126975289D01*
X142780556Y-126991696D01*
X142780123Y-127000622D01*
X142764003Y-127387841D01*
X142765588Y-127416045D01*
X142764143Y-127444260D01*
X142764621Y-127453183D01*
X142783828Y-127770040D01*
X142790989Y-127814903D01*
X142795745Y-127860098D01*
X142797605Y-127868839D01*
X142852648Y-128119015D01*
X142855447Y-128127624D01*
X142856772Y-128136573D01*
X142874733Y-128186950D01*
X142891264Y-128237802D01*
X142895677Y-128245696D01*
X142898718Y-128254225D01*
X142902583Y-128262282D01*
X142940527Y-128340000D01*
X137532279Y-128340000D01*
X137143224Y-128301853D01*
X136800036Y-128198238D01*
X136483511Y-128029939D01*
X136205704Y-127803365D01*
X135977195Y-127527146D01*
X135806690Y-127211803D01*
X135700681Y-126869344D01*
X135660000Y-126482288D01*
X135660000Y-121414091D01*
X135928285Y-121682375D01*
G37*
X135928285Y-121682375D02*
X135950526Y-121709476D01*
X136058638Y-121798201D01*
X136181981Y-121864129D01*
X136315816Y-121904728D01*
X136402237Y-121913239D01*
X136561526Y-122151633D01*
X136768369Y-122358476D01*
X136950535Y-122480196D01*
X136833646Y-122549823D01*
X136617413Y-122744732D01*
X136443360Y-122978081D01*
X136318176Y-123240902D01*
X136273525Y-123388111D01*
X136394846Y-123618001D01*
X137588001Y-123618001D01*
X137588001Y-123598001D01*
X137842001Y-123598001D01*
X137842001Y-123618001D01*
X139035156Y-123618001D01*
X139156477Y-123388111D01*
X139111826Y-123240902D01*
X138986642Y-122978081D01*
X138812589Y-122744732D01*
X138596356Y-122549823D01*
X138479467Y-122480196D01*
X138661633Y-122358476D01*
X138868476Y-122151633D01*
X139026588Y-121915001D01*
X142715010Y-121915001D01*
X142754053Y-122043709D01*
X142835542Y-122196164D01*
X142945208Y-122329792D01*
X143078836Y-122439458D01*
X143231291Y-122520947D01*
X143396715Y-122571128D01*
X143568750Y-122588072D01*
X144056250Y-122588072D01*
X144228285Y-122571128D01*
X144393709Y-122520947D01*
X144546164Y-122439458D01*
X144679792Y-122329792D01*
X144750000Y-122244244D01*
X144820208Y-122329792D01*
X144953836Y-122439458D01*
X144977500Y-122452107D01*
X144977500Y-122518409D01*
X143455909Y-124040000D01*
X140486957Y-124040000D01*
X140452082Y-124036565D01*
X140417207Y-124040000D01*
X140417206Y-124040000D01*
X140312899Y-124050273D01*
X140179063Y-124090872D01*
X140055720Y-124156800D01*
X139947608Y-124245525D01*
X139925375Y-124272616D01*
X138864049Y-125333942D01*
X138661633Y-125131526D01*
X138479467Y-125009806D01*
X138596356Y-124940179D01*
X138812589Y-124745270D01*
X138986642Y-124511921D01*
X139111826Y-124249100D01*
X139156477Y-124101891D01*
X139035156Y-123872001D01*
X137842001Y-123872001D01*
X137842001Y-123892001D01*
X137588001Y-123892001D01*
X137588001Y-123872001D01*
X136394846Y-123872001D01*
X136273525Y-124101891D01*
X136318176Y-124249100D01*
X136443360Y-124511921D01*
X136617413Y-124745270D01*
X136833646Y-124940179D01*
X136950535Y-125009806D01*
X136768369Y-125131526D01*
X136561526Y-125338369D01*
X136399011Y-125581590D01*
X136287069Y-125851843D01*
X136230001Y-126138741D01*
X136230001Y-126431261D01*
X136287069Y-126718159D01*
X136399011Y-126988412D01*
X136561526Y-127231633D01*
X136768369Y-127438476D01*
X137011590Y-127600991D01*
X137281843Y-127712933D01*
X137568741Y-127770001D01*
X137861261Y-127770001D01*
X138148159Y-127712933D01*
X138418412Y-127600991D01*
X138661633Y-127438476D01*
X138868476Y-127231633D01*
X139030991Y-126988412D01*
X139031507Y-126987166D01*
X139056266Y-126984728D01*
X139190102Y-126944129D01*
X139313445Y-126878201D01*
X139421557Y-126789476D01*
X139443794Y-126762380D01*
X140746175Y-125460000D01*
X142068825Y-125460000D01*
X142034978Y-125495077D01*
X141999127Y-125540345D01*
X141962580Y-125585123D01*
X141957685Y-125592599D01*
X141919512Y-125651786D01*
X141913579Y-125663320D01*
X141905928Y-125673811D01*
X141885044Y-125718796D01*
X141862379Y-125762859D01*
X141858798Y-125775329D01*
X141853332Y-125787104D01*
X141841586Y-125835276D01*
X141827907Y-125882915D01*
X141826817Y-125895845D01*
X141823742Y-125908454D01*
X141822544Y-125917309D01*
X141816265Y-125966302D01*
X141814869Y-126013247D01*
X141811193Y-126060079D01*
X141813016Y-126075572D01*
X141812553Y-126091153D01*
X141820299Y-126137456D01*
X141825791Y-126184129D01*
X141830590Y-126198975D01*
X141833161Y-126214347D01*
X141849759Y-126258283D01*
X141864207Y-126302981D01*
X141871791Y-126316600D01*
X141877304Y-126331193D01*
X141902130Y-126371083D01*
X141924976Y-126412108D01*
X141935064Y-126423998D01*
X141943304Y-126437238D01*
X141975392Y-126471532D01*
X142005783Y-126507353D01*
X142012245Y-126513526D01*
X142059699Y-126558226D01*
X142095578Y-126585944D01*
X142098114Y-126588131D01*
X142109011Y-126598856D01*
X142115527Y-126603144D01*
X142129927Y-126615558D01*
X142137269Y-126620653D01*
X142150034Y-126629382D01*
X142156150Y-126632739D01*
X142158544Y-126634589D01*
X142169114Y-126639856D01*
X142182458Y-126647182D01*
X142213357Y-126667512D01*
X142237077Y-126677165D01*
X142259526Y-126689489D01*
X142294782Y-126700649D01*
X142329049Y-126714595D01*
X142337633Y-126717079D01*
X142389849Y-126731800D01*
X142430883Y-126739142D01*
X142471367Y-126749144D01*
X142492242Y-126750120D01*
X142512803Y-126753799D01*
X142554479Y-126753031D01*
X142596137Y-126754979D01*
X142616804Y-126751882D01*
X142637688Y-126751497D01*
X142678428Y-126742647D01*
X142719664Y-126736468D01*
X142739330Y-126729418D01*
X142759747Y-126724983D01*
X142797990Y-126708390D01*
X142810704Y-126703832D01*
X142783250Y-126958699D01*
X142783091Y-126975289D01*
X142780556Y-126991696D01*
X142780123Y-127000622D01*
X142764003Y-127387841D01*
X142765588Y-127416045D01*
X142764143Y-127444260D01*
X142764621Y-127453183D01*
X142783828Y-127770040D01*
X142790989Y-127814903D01*
X142795745Y-127860098D01*
X142797605Y-127868839D01*
X142852648Y-128119015D01*
X142855447Y-128127624D01*
X142856772Y-128136573D01*
X142874733Y-128186950D01*
X142891264Y-128237802D01*
X142895677Y-128245696D01*
X142898718Y-128254225D01*
X142902583Y-128262282D01*
X142940527Y-128340000D01*
X137532279Y-128340000D01*
X137143224Y-128301853D01*
X136800036Y-128198238D01*
X136483511Y-128029939D01*
X136205704Y-127803365D01*
X135977195Y-127527146D01*
X135806690Y-127211803D01*
X135700681Y-126869344D01*
X135660000Y-126482288D01*
X135660000Y-121414091D01*
X135928285Y-121682375D01*
G36*
X141956908Y-117955001D02*
G01*
X139026588Y-117955001D01*
X138868476Y-117718369D01*
X138661633Y-117511526D01*
X138487241Y-117395001D01*
X138661633Y-117278476D01*
X138868476Y-117071633D01*
X139030991Y-116828412D01*
X139140928Y-116563000D01*
X143348909Y-116563000D01*
X141956908Y-117955001D01*
G37*
X141956908Y-117955001D02*
X139026588Y-117955001D01*
X138868476Y-117718369D01*
X138661633Y-117511526D01*
X138487241Y-117395001D01*
X138661633Y-117278476D01*
X138868476Y-117071633D01*
X139030991Y-116828412D01*
X139140928Y-116563000D01*
X143348909Y-116563000D01*
X141956908Y-117955001D01*
G36*
X145998872Y-112284215D02*
G01*
X145981928Y-112456250D01*
X145981928Y-112943750D01*
X145998872Y-113115785D01*
X146049053Y-113281209D01*
X146130542Y-113433664D01*
X146240208Y-113567292D01*
X146373836Y-113676958D01*
X146490000Y-113739049D01*
X146490001Y-114935198D01*
X146282199Y-115143000D01*
X146068772Y-115143000D01*
X146083988Y-115032996D01*
X146075464Y-114888464D01*
X146038907Y-114748373D01*
X145975723Y-114618106D01*
X145943505Y-114569888D01*
X145773000Y-114591826D01*
X145773000Y-114461771D01*
X145780112Y-114406495D01*
X145773000Y-114402327D01*
X145773000Y-113753156D01*
X145776435Y-113718281D01*
X145769101Y-113643816D01*
X145762727Y-113579098D01*
X145722128Y-113445262D01*
X145656200Y-113321919D01*
X145567475Y-113213807D01*
X145540384Y-113191574D01*
X144596319Y-112247510D01*
X146010006Y-112247510D01*
X145998872Y-112284215D01*
G37*
X145998872Y-112284215D02*
X145981928Y-112456250D01*
X145981928Y-112943750D01*
X145998872Y-113115785D01*
X146049053Y-113281209D01*
X146130542Y-113433664D01*
X146240208Y-113567292D01*
X146373836Y-113676958D01*
X146490000Y-113739049D01*
X146490001Y-114935198D01*
X146282199Y-115143000D01*
X146068772Y-115143000D01*
X146083988Y-115032996D01*
X146075464Y-114888464D01*
X146038907Y-114748373D01*
X145975723Y-114618106D01*
X145943505Y-114569888D01*
X145773000Y-114591826D01*
X145773000Y-114461771D01*
X145780112Y-114406495D01*
X145773000Y-114402327D01*
X145773000Y-113753156D01*
X145776435Y-113718281D01*
X145769101Y-113643816D01*
X145762727Y-113579098D01*
X145722128Y-113445262D01*
X145656200Y-113321919D01*
X145567475Y-113213807D01*
X145540384Y-113191574D01*
X144596319Y-112247510D01*
X146010006Y-112247510D01*
X145998872Y-112284215D01*
G36*
X148294299Y-106196637D02*
G01*
X148522806Y-106472856D01*
X148693310Y-106788197D01*
X148799319Y-107130656D01*
X148840001Y-107517722D01*
X148840001Y-111735909D01*
X148621435Y-111517343D01*
X148645812Y-111436982D01*
X148658072Y-111312500D01*
X148655000Y-111110750D01*
X148496250Y-110952000D01*
X148043243Y-110952000D01*
X148033873Y-110944310D01*
X147910530Y-110878382D01*
X147776694Y-110837783D01*
X147672387Y-110827510D01*
X147672385Y-110827510D01*
X147637510Y-110824075D01*
X147602635Y-110827510D01*
X140041601Y-110827510D01*
X139549091Y-110335000D01*
X141411928Y-110335000D01*
X141415000Y-110536750D01*
X141573750Y-110695500D01*
X142623000Y-110695500D01*
X142623000Y-109858750D01*
X142877000Y-109858750D01*
X142877000Y-110695500D01*
X143926250Y-110695500D01*
X144085000Y-110536750D01*
X144088033Y-110337500D01*
X145981928Y-110337500D01*
X145985000Y-110539250D01*
X146143750Y-110698000D01*
X147193000Y-110698000D01*
X147193000Y-109861250D01*
X147447000Y-109861250D01*
X147447000Y-110698000D01*
X148496250Y-110698000D01*
X148655000Y-110539250D01*
X148658072Y-110337500D01*
X148645812Y-110213018D01*
X148609502Y-110093320D01*
X148550537Y-109983006D01*
X148471185Y-109886315D01*
X148374494Y-109806963D01*
X148264180Y-109747998D01*
X148144482Y-109711688D01*
X148020000Y-109699428D01*
X147605750Y-109702500D01*
X147447000Y-109861250D01*
X147193000Y-109861250D01*
X147034250Y-109702500D01*
X146620000Y-109699428D01*
X146495518Y-109711688D01*
X146375820Y-109747998D01*
X146265506Y-109806963D01*
X146168815Y-109886315D01*
X146089463Y-109983006D01*
X146030498Y-110093320D01*
X145994188Y-110213018D01*
X145981928Y-110337500D01*
X144088033Y-110337500D01*
X144088072Y-110335000D01*
X144075812Y-110210518D01*
X144039502Y-110090820D01*
X143980537Y-109980506D01*
X143901185Y-109883815D01*
X143804494Y-109804463D01*
X143694180Y-109745498D01*
X143574482Y-109709188D01*
X143450000Y-109696928D01*
X143035750Y-109700000D01*
X142877000Y-109858750D01*
X142623000Y-109858750D01*
X142464250Y-109700000D01*
X142050000Y-109696928D01*
X141925518Y-109709188D01*
X141805820Y-109745498D01*
X141695506Y-109804463D01*
X141598815Y-109883815D01*
X141519463Y-109980506D01*
X141460498Y-110090820D01*
X141424188Y-110210518D01*
X141411928Y-110335000D01*
X139549091Y-110335000D01*
X139018030Y-109803939D01*
X139095538Y-109709495D01*
X139154503Y-109599181D01*
X139190813Y-109479483D01*
X139203073Y-109355001D01*
X139203073Y-107655001D01*
X139190813Y-107530519D01*
X139154503Y-107410821D01*
X139095538Y-107300507D01*
X139016186Y-107203816D01*
X138919495Y-107124464D01*
X138809181Y-107065499D01*
X138689483Y-107029189D01*
X138565001Y-107016929D01*
X136865001Y-107016929D01*
X136740519Y-107029189D01*
X136620821Y-107065499D01*
X136510507Y-107124464D01*
X136413816Y-107203816D01*
X136334464Y-107300507D01*
X136275499Y-107410821D01*
X136239189Y-107530519D01*
X136226929Y-107655001D01*
X136226929Y-109355001D01*
X136239189Y-109479483D01*
X136275499Y-109599181D01*
X136334464Y-109709495D01*
X136413816Y-109806186D01*
X136510507Y-109885538D01*
X136620821Y-109944503D01*
X136693381Y-109966514D01*
X136561526Y-110098369D01*
X136399011Y-110341590D01*
X136287069Y-110611843D01*
X136230001Y-110898741D01*
X136230001Y-111191261D01*
X136287069Y-111478159D01*
X136399011Y-111748412D01*
X136561526Y-111991633D01*
X136674401Y-112104508D01*
X135660000Y-113118909D01*
X135660000Y-107532279D01*
X135698147Y-107143225D01*
X135801763Y-106800033D01*
X135970062Y-106483511D01*
X136196637Y-106205701D01*
X136291771Y-106127000D01*
X148208915Y-106127000D01*
X148294299Y-106196637D01*
G37*
X148294299Y-106196637D02*
X148522806Y-106472856D01*
X148693310Y-106788197D01*
X148799319Y-107130656D01*
X148840001Y-107517722D01*
X148840001Y-111735909D01*
X148621435Y-111517343D01*
X148645812Y-111436982D01*
X148658072Y-111312500D01*
X148655000Y-111110750D01*
X148496250Y-110952000D01*
X148043243Y-110952000D01*
X148033873Y-110944310D01*
X147910530Y-110878382D01*
X147776694Y-110837783D01*
X147672387Y-110827510D01*
X147672385Y-110827510D01*
X147637510Y-110824075D01*
X147602635Y-110827510D01*
X140041601Y-110827510D01*
X139549091Y-110335000D01*
X141411928Y-110335000D01*
X141415000Y-110536750D01*
X141573750Y-110695500D01*
X142623000Y-110695500D01*
X142623000Y-109858750D01*
X142877000Y-109858750D01*
X142877000Y-110695500D01*
X143926250Y-110695500D01*
X144085000Y-110536750D01*
X144088033Y-110337500D01*
X145981928Y-110337500D01*
X145985000Y-110539250D01*
X146143750Y-110698000D01*
X147193000Y-110698000D01*
X147193000Y-109861250D01*
X147447000Y-109861250D01*
X147447000Y-110698000D01*
X148496250Y-110698000D01*
X148655000Y-110539250D01*
X148658072Y-110337500D01*
X148645812Y-110213018D01*
X148609502Y-110093320D01*
X148550537Y-109983006D01*
X148471185Y-109886315D01*
X148374494Y-109806963D01*
X148264180Y-109747998D01*
X148144482Y-109711688D01*
X148020000Y-109699428D01*
X147605750Y-109702500D01*
X147447000Y-109861250D01*
X147193000Y-109861250D01*
X147034250Y-109702500D01*
X146620000Y-109699428D01*
X146495518Y-109711688D01*
X146375820Y-109747998D01*
X146265506Y-109806963D01*
X146168815Y-109886315D01*
X146089463Y-109983006D01*
X146030498Y-110093320D01*
X145994188Y-110213018D01*
X145981928Y-110337500D01*
X144088033Y-110337500D01*
X144088072Y-110335000D01*
X144075812Y-110210518D01*
X144039502Y-110090820D01*
X143980537Y-109980506D01*
X143901185Y-109883815D01*
X143804494Y-109804463D01*
X143694180Y-109745498D01*
X143574482Y-109709188D01*
X143450000Y-109696928D01*
X143035750Y-109700000D01*
X142877000Y-109858750D01*
X142623000Y-109858750D01*
X142464250Y-109700000D01*
X142050000Y-109696928D01*
X141925518Y-109709188D01*
X141805820Y-109745498D01*
X141695506Y-109804463D01*
X141598815Y-109883815D01*
X141519463Y-109980506D01*
X141460498Y-110090820D01*
X141424188Y-110210518D01*
X141411928Y-110335000D01*
X139549091Y-110335000D01*
X139018030Y-109803939D01*
X139095538Y-109709495D01*
X139154503Y-109599181D01*
X139190813Y-109479483D01*
X139203073Y-109355001D01*
X139203073Y-107655001D01*
X139190813Y-107530519D01*
X139154503Y-107410821D01*
X139095538Y-107300507D01*
X139016186Y-107203816D01*
X138919495Y-107124464D01*
X138809181Y-107065499D01*
X138689483Y-107029189D01*
X138565001Y-107016929D01*
X136865001Y-107016929D01*
X136740519Y-107029189D01*
X136620821Y-107065499D01*
X136510507Y-107124464D01*
X136413816Y-107203816D01*
X136334464Y-107300507D01*
X136275499Y-107410821D01*
X136239189Y-107530519D01*
X136226929Y-107655001D01*
X136226929Y-109355001D01*
X136239189Y-109479483D01*
X136275499Y-109599181D01*
X136334464Y-109709495D01*
X136413816Y-109806186D01*
X136510507Y-109885538D01*
X136620821Y-109944503D01*
X136693381Y-109966514D01*
X136561526Y-110098369D01*
X136399011Y-110341590D01*
X136287069Y-110611843D01*
X136230001Y-110898741D01*
X136230001Y-111191261D01*
X136287069Y-111478159D01*
X136399011Y-111748412D01*
X136561526Y-111991633D01*
X136674401Y-112104508D01*
X135660000Y-113118909D01*
X135660000Y-107532279D01*
X135698147Y-107143225D01*
X135801763Y-106800033D01*
X135970062Y-106483511D01*
X136196637Y-106205701D01*
X136291771Y-106127000D01*
X148208915Y-106127000D01*
X148294299Y-106196637D01*
M02*
