G04 #@! TF.GenerationSoftware,KiCad,Pcbnew,5.1.5*
G04 #@! TF.CreationDate,2020-03-26T20:54:49-05:00*
G04 #@! TF.ProjectId,ADV7123,41445637-3132-4332-9e6b-696361645f70,rev?*
G04 #@! TF.SameCoordinates,Original*
G04 #@! TF.FileFunction,Paste,Bot*
G04 #@! TF.FilePolarity,Positive*
%FSLAX46Y46*%
G04 Gerber Fmt 4.6, Leading zero omitted, Abs format (unit mm)*
G04 Created by KiCad (PCBNEW 5.1.5) date 2020-03-26 20:54:49*
%MOMM*%
%LPD*%
G04 APERTURE LIST*
%ADD10C,0.100000*%
G04 APERTURE END LIST*
D10*
G36*
X137580142Y-63738674D02*
G01*
X137603803Y-63742184D01*
X137627007Y-63747996D01*
X137649529Y-63756054D01*
X137671153Y-63766282D01*
X137691670Y-63778579D01*
X137710883Y-63792829D01*
X137728607Y-63808893D01*
X137744671Y-63826617D01*
X137758921Y-63845830D01*
X137771218Y-63866347D01*
X137781446Y-63887971D01*
X137789504Y-63910493D01*
X137795316Y-63933697D01*
X137798826Y-63957358D01*
X137800000Y-63981250D01*
X137800000Y-64468750D01*
X137798826Y-64492642D01*
X137795316Y-64516303D01*
X137789504Y-64539507D01*
X137781446Y-64562029D01*
X137771218Y-64583653D01*
X137758921Y-64604170D01*
X137744671Y-64623383D01*
X137728607Y-64641107D01*
X137710883Y-64657171D01*
X137691670Y-64671421D01*
X137671153Y-64683718D01*
X137649529Y-64693946D01*
X137627007Y-64702004D01*
X137603803Y-64707816D01*
X137580142Y-64711326D01*
X137556250Y-64712500D01*
X136643750Y-64712500D01*
X136619858Y-64711326D01*
X136596197Y-64707816D01*
X136572993Y-64702004D01*
X136550471Y-64693946D01*
X136528847Y-64683718D01*
X136508330Y-64671421D01*
X136489117Y-64657171D01*
X136471393Y-64641107D01*
X136455329Y-64623383D01*
X136441079Y-64604170D01*
X136428782Y-64583653D01*
X136418554Y-64562029D01*
X136410496Y-64539507D01*
X136404684Y-64516303D01*
X136401174Y-64492642D01*
X136400000Y-64468750D01*
X136400000Y-63981250D01*
X136401174Y-63957358D01*
X136404684Y-63933697D01*
X136410496Y-63910493D01*
X136418554Y-63887971D01*
X136428782Y-63866347D01*
X136441079Y-63845830D01*
X136455329Y-63826617D01*
X136471393Y-63808893D01*
X136489117Y-63792829D01*
X136508330Y-63778579D01*
X136528847Y-63766282D01*
X136550471Y-63756054D01*
X136572993Y-63747996D01*
X136596197Y-63742184D01*
X136619858Y-63738674D01*
X136643750Y-63737500D01*
X137556250Y-63737500D01*
X137580142Y-63738674D01*
G37*
G36*
X137580142Y-61863674D02*
G01*
X137603803Y-61867184D01*
X137627007Y-61872996D01*
X137649529Y-61881054D01*
X137671153Y-61891282D01*
X137691670Y-61903579D01*
X137710883Y-61917829D01*
X137728607Y-61933893D01*
X137744671Y-61951617D01*
X137758921Y-61970830D01*
X137771218Y-61991347D01*
X137781446Y-62012971D01*
X137789504Y-62035493D01*
X137795316Y-62058697D01*
X137798826Y-62082358D01*
X137800000Y-62106250D01*
X137800000Y-62593750D01*
X137798826Y-62617642D01*
X137795316Y-62641303D01*
X137789504Y-62664507D01*
X137781446Y-62687029D01*
X137771218Y-62708653D01*
X137758921Y-62729170D01*
X137744671Y-62748383D01*
X137728607Y-62766107D01*
X137710883Y-62782171D01*
X137691670Y-62796421D01*
X137671153Y-62808718D01*
X137649529Y-62818946D01*
X137627007Y-62827004D01*
X137603803Y-62832816D01*
X137580142Y-62836326D01*
X137556250Y-62837500D01*
X136643750Y-62837500D01*
X136619858Y-62836326D01*
X136596197Y-62832816D01*
X136572993Y-62827004D01*
X136550471Y-62818946D01*
X136528847Y-62808718D01*
X136508330Y-62796421D01*
X136489117Y-62782171D01*
X136471393Y-62766107D01*
X136455329Y-62748383D01*
X136441079Y-62729170D01*
X136428782Y-62708653D01*
X136418554Y-62687029D01*
X136410496Y-62664507D01*
X136404684Y-62641303D01*
X136401174Y-62617642D01*
X136400000Y-62593750D01*
X136400000Y-62106250D01*
X136401174Y-62082358D01*
X136404684Y-62058697D01*
X136410496Y-62035493D01*
X136418554Y-62012971D01*
X136428782Y-61991347D01*
X136441079Y-61970830D01*
X136455329Y-61951617D01*
X136471393Y-61933893D01*
X136489117Y-61917829D01*
X136508330Y-61903579D01*
X136528847Y-61891282D01*
X136550471Y-61881054D01*
X136572993Y-61872996D01*
X136596197Y-61867184D01*
X136619858Y-61863674D01*
X136643750Y-61862500D01*
X137556250Y-61862500D01*
X137580142Y-61863674D01*
G37*
G36*
X140980142Y-61876174D02*
G01*
X141003803Y-61879684D01*
X141027007Y-61885496D01*
X141049529Y-61893554D01*
X141071153Y-61903782D01*
X141091670Y-61916079D01*
X141110883Y-61930329D01*
X141128607Y-61946393D01*
X141144671Y-61964117D01*
X141158921Y-61983330D01*
X141171218Y-62003847D01*
X141181446Y-62025471D01*
X141189504Y-62047993D01*
X141195316Y-62071197D01*
X141198826Y-62094858D01*
X141200000Y-62118750D01*
X141200000Y-62606250D01*
X141198826Y-62630142D01*
X141195316Y-62653803D01*
X141189504Y-62677007D01*
X141181446Y-62699529D01*
X141171218Y-62721153D01*
X141158921Y-62741670D01*
X141144671Y-62760883D01*
X141128607Y-62778607D01*
X141110883Y-62794671D01*
X141091670Y-62808921D01*
X141071153Y-62821218D01*
X141049529Y-62831446D01*
X141027007Y-62839504D01*
X141003803Y-62845316D01*
X140980142Y-62848826D01*
X140956250Y-62850000D01*
X140043750Y-62850000D01*
X140019858Y-62848826D01*
X139996197Y-62845316D01*
X139972993Y-62839504D01*
X139950471Y-62831446D01*
X139928847Y-62821218D01*
X139908330Y-62808921D01*
X139889117Y-62794671D01*
X139871393Y-62778607D01*
X139855329Y-62760883D01*
X139841079Y-62741670D01*
X139828782Y-62721153D01*
X139818554Y-62699529D01*
X139810496Y-62677007D01*
X139804684Y-62653803D01*
X139801174Y-62630142D01*
X139800000Y-62606250D01*
X139800000Y-62118750D01*
X139801174Y-62094858D01*
X139804684Y-62071197D01*
X139810496Y-62047993D01*
X139818554Y-62025471D01*
X139828782Y-62003847D01*
X139841079Y-61983330D01*
X139855329Y-61964117D01*
X139871393Y-61946393D01*
X139889117Y-61930329D01*
X139908330Y-61916079D01*
X139928847Y-61903782D01*
X139950471Y-61893554D01*
X139972993Y-61885496D01*
X139996197Y-61879684D01*
X140019858Y-61876174D01*
X140043750Y-61875000D01*
X140956250Y-61875000D01*
X140980142Y-61876174D01*
G37*
G36*
X140980142Y-63751174D02*
G01*
X141003803Y-63754684D01*
X141027007Y-63760496D01*
X141049529Y-63768554D01*
X141071153Y-63778782D01*
X141091670Y-63791079D01*
X141110883Y-63805329D01*
X141128607Y-63821393D01*
X141144671Y-63839117D01*
X141158921Y-63858330D01*
X141171218Y-63878847D01*
X141181446Y-63900471D01*
X141189504Y-63922993D01*
X141195316Y-63946197D01*
X141198826Y-63969858D01*
X141200000Y-63993750D01*
X141200000Y-64481250D01*
X141198826Y-64505142D01*
X141195316Y-64528803D01*
X141189504Y-64552007D01*
X141181446Y-64574529D01*
X141171218Y-64596153D01*
X141158921Y-64616670D01*
X141144671Y-64635883D01*
X141128607Y-64653607D01*
X141110883Y-64669671D01*
X141091670Y-64683921D01*
X141071153Y-64696218D01*
X141049529Y-64706446D01*
X141027007Y-64714504D01*
X141003803Y-64720316D01*
X140980142Y-64723826D01*
X140956250Y-64725000D01*
X140043750Y-64725000D01*
X140019858Y-64723826D01*
X139996197Y-64720316D01*
X139972993Y-64714504D01*
X139950471Y-64706446D01*
X139928847Y-64696218D01*
X139908330Y-64683921D01*
X139889117Y-64669671D01*
X139871393Y-64653607D01*
X139855329Y-64635883D01*
X139841079Y-64616670D01*
X139828782Y-64596153D01*
X139818554Y-64574529D01*
X139810496Y-64552007D01*
X139804684Y-64528803D01*
X139801174Y-64505142D01*
X139800000Y-64481250D01*
X139800000Y-63993750D01*
X139801174Y-63969858D01*
X139804684Y-63946197D01*
X139810496Y-63922993D01*
X139818554Y-63900471D01*
X139828782Y-63878847D01*
X139841079Y-63858330D01*
X139855329Y-63839117D01*
X139871393Y-63821393D01*
X139889117Y-63805329D01*
X139908330Y-63791079D01*
X139928847Y-63778782D01*
X139950471Y-63768554D01*
X139972993Y-63760496D01*
X139996197Y-63754684D01*
X140019858Y-63751174D01*
X140043750Y-63750000D01*
X140956250Y-63750000D01*
X140980142Y-63751174D01*
G37*
G36*
X144430142Y-63788674D02*
G01*
X144453803Y-63792184D01*
X144477007Y-63797996D01*
X144499529Y-63806054D01*
X144521153Y-63816282D01*
X144541670Y-63828579D01*
X144560883Y-63842829D01*
X144578607Y-63858893D01*
X144594671Y-63876617D01*
X144608921Y-63895830D01*
X144621218Y-63916347D01*
X144631446Y-63937971D01*
X144639504Y-63960493D01*
X144645316Y-63983697D01*
X144648826Y-64007358D01*
X144650000Y-64031250D01*
X144650000Y-64518750D01*
X144648826Y-64542642D01*
X144645316Y-64566303D01*
X144639504Y-64589507D01*
X144631446Y-64612029D01*
X144621218Y-64633653D01*
X144608921Y-64654170D01*
X144594671Y-64673383D01*
X144578607Y-64691107D01*
X144560883Y-64707171D01*
X144541670Y-64721421D01*
X144521153Y-64733718D01*
X144499529Y-64743946D01*
X144477007Y-64752004D01*
X144453803Y-64757816D01*
X144430142Y-64761326D01*
X144406250Y-64762500D01*
X143493750Y-64762500D01*
X143469858Y-64761326D01*
X143446197Y-64757816D01*
X143422993Y-64752004D01*
X143400471Y-64743946D01*
X143378847Y-64733718D01*
X143358330Y-64721421D01*
X143339117Y-64707171D01*
X143321393Y-64691107D01*
X143305329Y-64673383D01*
X143291079Y-64654170D01*
X143278782Y-64633653D01*
X143268554Y-64612029D01*
X143260496Y-64589507D01*
X143254684Y-64566303D01*
X143251174Y-64542642D01*
X143250000Y-64518750D01*
X143250000Y-64031250D01*
X143251174Y-64007358D01*
X143254684Y-63983697D01*
X143260496Y-63960493D01*
X143268554Y-63937971D01*
X143278782Y-63916347D01*
X143291079Y-63895830D01*
X143305329Y-63876617D01*
X143321393Y-63858893D01*
X143339117Y-63842829D01*
X143358330Y-63828579D01*
X143378847Y-63816282D01*
X143400471Y-63806054D01*
X143422993Y-63797996D01*
X143446197Y-63792184D01*
X143469858Y-63788674D01*
X143493750Y-63787500D01*
X144406250Y-63787500D01*
X144430142Y-63788674D01*
G37*
G36*
X144430142Y-61913674D02*
G01*
X144453803Y-61917184D01*
X144477007Y-61922996D01*
X144499529Y-61931054D01*
X144521153Y-61941282D01*
X144541670Y-61953579D01*
X144560883Y-61967829D01*
X144578607Y-61983893D01*
X144594671Y-62001617D01*
X144608921Y-62020830D01*
X144621218Y-62041347D01*
X144631446Y-62062971D01*
X144639504Y-62085493D01*
X144645316Y-62108697D01*
X144648826Y-62132358D01*
X144650000Y-62156250D01*
X144650000Y-62643750D01*
X144648826Y-62667642D01*
X144645316Y-62691303D01*
X144639504Y-62714507D01*
X144631446Y-62737029D01*
X144621218Y-62758653D01*
X144608921Y-62779170D01*
X144594671Y-62798383D01*
X144578607Y-62816107D01*
X144560883Y-62832171D01*
X144541670Y-62846421D01*
X144521153Y-62858718D01*
X144499529Y-62868946D01*
X144477007Y-62877004D01*
X144453803Y-62882816D01*
X144430142Y-62886326D01*
X144406250Y-62887500D01*
X143493750Y-62887500D01*
X143469858Y-62886326D01*
X143446197Y-62882816D01*
X143422993Y-62877004D01*
X143400471Y-62868946D01*
X143378847Y-62858718D01*
X143358330Y-62846421D01*
X143339117Y-62832171D01*
X143321393Y-62816107D01*
X143305329Y-62798383D01*
X143291079Y-62779170D01*
X143278782Y-62758653D01*
X143268554Y-62737029D01*
X143260496Y-62714507D01*
X143254684Y-62691303D01*
X143251174Y-62667642D01*
X143250000Y-62643750D01*
X143250000Y-62156250D01*
X143251174Y-62132358D01*
X143254684Y-62108697D01*
X143260496Y-62085493D01*
X143268554Y-62062971D01*
X143278782Y-62041347D01*
X143291079Y-62020830D01*
X143305329Y-62001617D01*
X143321393Y-61983893D01*
X143339117Y-61967829D01*
X143358330Y-61953579D01*
X143378847Y-61941282D01*
X143400471Y-61931054D01*
X143422993Y-61922996D01*
X143446197Y-61917184D01*
X143469858Y-61913674D01*
X143493750Y-61912500D01*
X144406250Y-61912500D01*
X144430142Y-61913674D01*
G37*
M02*
