%TF.GenerationSoftware,KiCad,Pcbnew,(5.99.0-9526-g5c17ff0595)*%
%TF.CreationDate,2021-04-11T22:42:18-05:00*%
%TF.ProjectId,E73_Devboard,4537335f-4465-4766-926f-6172642e6b69,rev?*%
%TF.SameCoordinates,Original*%
%TF.FileFunction,Copper,L1,Top*%
%TF.FilePolarity,Positive*%
%FSLAX46Y46*%
G04 Gerber Fmt 4.6, Leading zero omitted, Abs format (unit mm)*
G04 Created by KiCad (PCBNEW (5.99.0-9526-g5c17ff0595)) date 2021-04-11 22:42:18*
%MOMM*%
%LPD*%
G01*
G04 APERTURE LIST*
G04 Aperture macros list*
%AMRoundRect*
0 Rectangle with rounded corners*
0 $1 Rounding radius*
0 $2 $3 $4 $5 $6 $7 $8 $9 X,Y pos of 4 corners*
0 Add a 4 corners polygon primitive as box body*
4,1,4,$2,$3,$4,$5,$6,$7,$8,$9,$2,$3,0*
0 Add four circle primitives for the rounded corners*
1,1,$1+$1,$2,$3*
1,1,$1+$1,$4,$5*
1,1,$1+$1,$6,$7*
1,1,$1+$1,$8,$9*
0 Add four rect primitives between the rounded corners*
20,1,$1+$1,$2,$3,$4,$5,0*
20,1,$1+$1,$4,$5,$6,$7,0*
20,1,$1+$1,$6,$7,$8,$9,0*
20,1,$1+$1,$8,$9,$2,$3,0*%
%AMFreePoly0*
4,1,22,0.500000,-0.750000,0.000000,-0.750000,0.000000,-0.745033,-0.079941,-0.743568,-0.215256,-0.701293,-0.333266,-0.622738,-0.424486,-0.514219,-0.481581,-0.384460,-0.499164,-0.250000,-0.500000,-0.250000,-0.500000,0.250000,-0.499164,0.250000,-0.499963,0.256109,-0.478152,0.396186,-0.417904,0.524511,-0.324060,0.630769,-0.204165,0.706417,-0.067858,0.745374,0.000000,0.744959,0.000000,0.750000,
0.500000,0.750000,0.500000,-0.750000,0.500000,-0.750000,$1*%
%AMFreePoly1*
4,1,20,0.000000,0.744959,0.073905,0.744508,0.209726,0.703889,0.328688,0.626782,0.421226,0.519385,0.479903,0.390333,0.500000,0.250000,0.500000,-0.250000,0.499851,-0.262216,0.476331,-0.402017,0.414519,-0.529596,0.319384,-0.634700,0.198574,-0.708877,0.061801,-0.746166,0.000000,-0.745033,0.000000,-0.750000,-0.500000,-0.750000,-0.500000,0.750000,0.000000,0.750000,0.000000,0.744959,
0.000000,0.744959,$1*%
G04 Aperture macros list end*
%TA.AperFunction,EtchedComponent*%
%ADD10C,0.010000*%
%TD*%
%TA.AperFunction,SMDPad,CuDef*%
%ADD11R,1.500000X1.500000*%
%TD*%
%TA.AperFunction,SMDPad,CuDef*%
%ADD12R,1.000000X1.800000*%
%TD*%
%TA.AperFunction,SMDPad,CuDef*%
%ADD13R,0.900000X0.900000*%
%TD*%
%TA.AperFunction,SMDPad,CuDef*%
%ADD14R,2.000000X1.000000*%
%TD*%
%TA.AperFunction,SMDPad,CuDef*%
%ADD15R,1.000000X2.000000*%
%TD*%
%TA.AperFunction,SMDPad,CuDef*%
%ADD16R,2.000000X1.500000*%
%TD*%
%TA.AperFunction,SMDPad,CuDef*%
%ADD17R,2.000000X3.800000*%
%TD*%
%TA.AperFunction,SMDPad,CuDef*%
%ADD18R,0.800000X0.500000*%
%TD*%
%TA.AperFunction,SMDPad,CuDef*%
%ADD19R,0.800000X0.400000*%
%TD*%
%TA.AperFunction,SMDPad,CuDef*%
%ADD20R,0.500000X0.800000*%
%TD*%
%TA.AperFunction,SMDPad,CuDef*%
%ADD21R,0.400000X0.800000*%
%TD*%
%TA.AperFunction,SMDPad,CuDef*%
%ADD22R,1.400000X0.250000*%
%TD*%
%TA.AperFunction,ComponentPad*%
%ADD23O,1.800000X1.000000*%
%TD*%
%TA.AperFunction,ComponentPad*%
%ADD24O,2.100000X1.000000*%
%TD*%
%TA.AperFunction,SMDPad,CuDef*%
%ADD25FreePoly0,270.000000*%
%TD*%
%TA.AperFunction,SMDPad,CuDef*%
%ADD26FreePoly1,270.000000*%
%TD*%
%TA.AperFunction,ComponentPad*%
%ADD27O,1.700000X1.700000*%
%TD*%
%TA.AperFunction,ComponentPad*%
%ADD28R,1.700000X1.700000*%
%TD*%
%TA.AperFunction,ComponentPad*%
%ADD29O,0.850000X0.850000*%
%TD*%
%TA.AperFunction,ComponentPad*%
%ADD30R,0.850000X0.850000*%
%TD*%
%TA.AperFunction,SMDPad,CuDef*%
%ADD31RoundRect,0.218750X-0.218750X-0.256250X0.218750X-0.256250X0.218750X0.256250X-0.218750X0.256250X0*%
%TD*%
%TA.AperFunction,SMDPad,CuDef*%
%ADD32R,1.800000X1.400000*%
%TD*%
%TA.AperFunction,SMDPad,CuDef*%
%ADD33RoundRect,0.250000X-0.250000X-0.475000X0.250000X-0.475000X0.250000X0.475000X-0.250000X0.475000X0*%
%TD*%
%TA.AperFunction,SMDPad,CuDef*%
%ADD34RoundRect,0.250000X0.250000X0.475000X-0.250000X0.475000X-0.250000X-0.475000X0.250000X-0.475000X0*%
%TD*%
%TA.AperFunction,ViaPad*%
%ADD35C,0.800000*%
%TD*%
%TA.AperFunction,Conductor*%
%ADD36C,0.200000*%
%TD*%
%TA.AperFunction,Conductor*%
%ADD37C,0.250000*%
%TD*%
G04 APERTURE END LIST*
D10*
%TO.C,Ref\u002A\u002A*%
X161769413Y-83779101D02*
X161952476Y-83871441D01*
X161952476Y-83871441D02*
X162088408Y-84005243D01*
X162088408Y-84005243D02*
X162095789Y-84016445D01*
X162095789Y-84016445D02*
X162134296Y-84086560D01*
X162134296Y-84086560D02*
X162155787Y-84161161D01*
X162155787Y-84161161D02*
X162162260Y-84261906D01*
X162162260Y-84261906D02*
X162155713Y-84410454D01*
X162155713Y-84410454D02*
X162144912Y-84549000D01*
X162144912Y-84549000D02*
X162131318Y-84757176D01*
X162131318Y-84757176D02*
X162120127Y-85015106D01*
X162120127Y-85015106D02*
X162112606Y-85287886D01*
X162112606Y-85287886D02*
X162110038Y-85509064D01*
X162110038Y-85509064D02*
X162110779Y-85741042D01*
X162110779Y-85741042D02*
X162115613Y-85905025D01*
X162115613Y-85905025D02*
X162126695Y-86017664D01*
X162126695Y-86017664D02*
X162146180Y-86095610D01*
X162146180Y-86095610D02*
X162176225Y-86155512D01*
X162176225Y-86155512D02*
X162197732Y-86186397D01*
X162197732Y-86186397D02*
X162283602Y-86271274D01*
X162283602Y-86271274D02*
X162397178Y-86311004D01*
X162397178Y-86311004D02*
X162470016Y-86319227D01*
X162470016Y-86319227D02*
X162717890Y-86300096D01*
X162717890Y-86300096D02*
X162945719Y-86202890D01*
X162945719Y-86202890D02*
X163159344Y-86024818D01*
X163159344Y-86024818D02*
X163214224Y-85963825D01*
X163214224Y-85963825D02*
X163318892Y-85850241D01*
X163318892Y-85850241D02*
X163409066Y-85768178D01*
X163409066Y-85768178D02*
X163466141Y-85734453D01*
X163466141Y-85734453D02*
X163468112Y-85734334D01*
X163468112Y-85734334D02*
X163523755Y-85767452D01*
X163523755Y-85767452D02*
X163597182Y-85851096D01*
X163597182Y-85851096D02*
X163629505Y-85898393D01*
X163629505Y-85898393D02*
X163776869Y-86089127D01*
X163776869Y-86089127D02*
X163926913Y-86203226D01*
X163926913Y-86203226D02*
X164074284Y-86239020D01*
X164074284Y-86239020D02*
X164213631Y-86194837D01*
X164213631Y-86194837D02*
X164307971Y-86110223D01*
X164307971Y-86110223D02*
X164388653Y-86001415D01*
X164388653Y-86001415D02*
X164458934Y-85873458D01*
X164458934Y-85873458D02*
X164526082Y-85709221D01*
X164526082Y-85709221D02*
X164597364Y-85491574D01*
X164597364Y-85491574D02*
X164655985Y-85289834D01*
X164655985Y-85289834D02*
X164715450Y-85079010D01*
X164715450Y-85079010D02*
X164777683Y-84859557D01*
X164777683Y-84859557D02*
X164831333Y-84671471D01*
X164831333Y-84671471D02*
X164842246Y-84633442D01*
X164842246Y-84633442D02*
X164921416Y-84358050D01*
X164921416Y-84358050D02*
X165349565Y-84194582D01*
X165349565Y-84194582D02*
X165567567Y-84115972D01*
X165567567Y-84115972D02*
X165715998Y-84073703D01*
X165715998Y-84073703D02*
X165801001Y-84066227D01*
X165801001Y-84066227D02*
X165822145Y-84075545D01*
X165822145Y-84075545D02*
X165852677Y-84134474D01*
X165852677Y-84134474D02*
X165819740Y-84194145D01*
X165819740Y-84194145D02*
X165717286Y-84259634D01*
X165717286Y-84259634D02*
X165539270Y-84336021D01*
X165539270Y-84336021D02*
X165489887Y-84354600D01*
X165489887Y-84354600D02*
X165330263Y-84416840D01*
X165330263Y-84416840D02*
X165199296Y-84473866D01*
X165199296Y-84473866D02*
X165119270Y-84515783D01*
X165119270Y-84515783D02*
X165108527Y-84523933D01*
X165108527Y-84523933D02*
X165080315Y-84580037D01*
X165080315Y-84580037D02*
X165036526Y-84701746D01*
X165036526Y-84701746D02*
X164982553Y-84872637D01*
X164982553Y-84872637D02*
X164923790Y-85076288D01*
X164923790Y-85076288D02*
X164907251Y-85136804D01*
X164907251Y-85136804D02*
X164796737Y-85518610D01*
X164796737Y-85518610D02*
X164690651Y-85823568D01*
X164690651Y-85823568D02*
X164584846Y-86059062D01*
X164584846Y-86059062D02*
X164475173Y-86232475D01*
X164475173Y-86232475D02*
X164357485Y-86351190D01*
X164357485Y-86351190D02*
X164227635Y-86422591D01*
X164227635Y-86422591D02*
X164176069Y-86438398D01*
X164176069Y-86438398D02*
X164002379Y-86441191D01*
X164002379Y-86441191D02*
X163818574Y-86374646D01*
X163818574Y-86374646D02*
X163646259Y-86247924D01*
X163646259Y-86247924D02*
X163592569Y-86190944D01*
X163592569Y-86190944D02*
X163441511Y-86014467D01*
X163441511Y-86014467D02*
X163271542Y-86191355D01*
X163271542Y-86191355D02*
X163087034Y-86357866D01*
X163087034Y-86357866D02*
X162903712Y-86460737D01*
X162903712Y-86460737D02*
X162690918Y-86514778D01*
X162690918Y-86514778D02*
X162576413Y-86527186D01*
X162576413Y-86527186D02*
X162418971Y-86533485D01*
X162418971Y-86533485D02*
X162309906Y-86517957D01*
X162309906Y-86517957D02*
X162214244Y-86473620D01*
X162214244Y-86473620D02*
X162172334Y-86446552D01*
X162172334Y-86446552D02*
X162044087Y-86318677D01*
X162044087Y-86318677D02*
X161952698Y-86131493D01*
X161952698Y-86131493D02*
X161897655Y-85881317D01*
X161897655Y-85881317D02*
X161878449Y-85564461D01*
X161878449Y-85564461D02*
X161894569Y-85177242D01*
X161894569Y-85177242D02*
X161939182Y-84763076D01*
X161939182Y-84763076D02*
X161967945Y-84511873D01*
X161967945Y-84511873D02*
X161975189Y-84328459D01*
X161975189Y-84328459D02*
X161957137Y-84197833D01*
X161957137Y-84197833D02*
X161910009Y-84104997D01*
X161910009Y-84104997D02*
X161830027Y-84034951D01*
X161830027Y-84034951D02*
X161743702Y-83987122D01*
X161743702Y-83987122D02*
X161598658Y-83942101D01*
X161598658Y-83942101D02*
X161460297Y-83960585D01*
X161460297Y-83960585D02*
X161312541Y-84047350D01*
X161312541Y-84047350D02*
X161196579Y-84149650D01*
X161196579Y-84149650D02*
X161101116Y-84235110D01*
X161101116Y-84235110D02*
X161038509Y-84265811D01*
X161038509Y-84265811D02*
X160986292Y-84251090D01*
X160986292Y-84251090D02*
X160973527Y-84242361D01*
X160973527Y-84242361D02*
X160926073Y-84197661D01*
X160926073Y-84197661D02*
X160932352Y-84148669D01*
X160932352Y-84148669D02*
X160970525Y-84089482D01*
X160970525Y-84089482D02*
X161079960Y-83976072D01*
X161079960Y-83976072D02*
X161232501Y-83869287D01*
X161232501Y-83869287D02*
X161397405Y-83786782D01*
X161397405Y-83786782D02*
X161543928Y-83746212D01*
X161543928Y-83746212D02*
X161570974Y-83744667D01*
X161570974Y-83744667D02*
X161769413Y-83779101D01*
X161769413Y-83779101D02*
X161769413Y-83779101D01*
G36*
X161769413Y-83779101D02*
G01*
X161952476Y-83871441D01*
X162088408Y-84005243D01*
X162095789Y-84016445D01*
X162134296Y-84086560D01*
X162155787Y-84161161D01*
X162162260Y-84261906D01*
X162155713Y-84410454D01*
X162144912Y-84549000D01*
X162131318Y-84757176D01*
X162120127Y-85015106D01*
X162112606Y-85287886D01*
X162110038Y-85509064D01*
X162110779Y-85741042D01*
X162115613Y-85905025D01*
X162126695Y-86017664D01*
X162146180Y-86095610D01*
X162176225Y-86155512D01*
X162197732Y-86186397D01*
X162283602Y-86271274D01*
X162397178Y-86311004D01*
X162470016Y-86319227D01*
X162717890Y-86300096D01*
X162945719Y-86202890D01*
X163159344Y-86024818D01*
X163214224Y-85963825D01*
X163318892Y-85850241D01*
X163409066Y-85768178D01*
X163466141Y-85734453D01*
X163468112Y-85734334D01*
X163523755Y-85767452D01*
X163597182Y-85851096D01*
X163629505Y-85898393D01*
X163776869Y-86089127D01*
X163926913Y-86203226D01*
X164074284Y-86239020D01*
X164213631Y-86194837D01*
X164307971Y-86110223D01*
X164388653Y-86001415D01*
X164458934Y-85873458D01*
X164526082Y-85709221D01*
X164597364Y-85491574D01*
X164655985Y-85289834D01*
X164715450Y-85079010D01*
X164777683Y-84859557D01*
X164831333Y-84671471D01*
X164842246Y-84633442D01*
X164921416Y-84358050D01*
X165349565Y-84194582D01*
X165567567Y-84115972D01*
X165715998Y-84073703D01*
X165801001Y-84066227D01*
X165822145Y-84075545D01*
X165852677Y-84134474D01*
X165819740Y-84194145D01*
X165717286Y-84259634D01*
X165539270Y-84336021D01*
X165489887Y-84354600D01*
X165330263Y-84416840D01*
X165199296Y-84473866D01*
X165119270Y-84515783D01*
X165108527Y-84523933D01*
X165080315Y-84580037D01*
X165036526Y-84701746D01*
X164982553Y-84872637D01*
X164923790Y-85076288D01*
X164907251Y-85136804D01*
X164796737Y-85518610D01*
X164690651Y-85823568D01*
X164584846Y-86059062D01*
X164475173Y-86232475D01*
X164357485Y-86351190D01*
X164227635Y-86422591D01*
X164176069Y-86438398D01*
X164002379Y-86441191D01*
X163818574Y-86374646D01*
X163646259Y-86247924D01*
X163592569Y-86190944D01*
X163441511Y-86014467D01*
X163271542Y-86191355D01*
X163087034Y-86357866D01*
X162903712Y-86460737D01*
X162690918Y-86514778D01*
X162576413Y-86527186D01*
X162418971Y-86533485D01*
X162309906Y-86517957D01*
X162214244Y-86473620D01*
X162172334Y-86446552D01*
X162044087Y-86318677D01*
X161952698Y-86131493D01*
X161897655Y-85881317D01*
X161878449Y-85564461D01*
X161894569Y-85177242D01*
X161939182Y-84763076D01*
X161967945Y-84511873D01*
X161975189Y-84328459D01*
X161957137Y-84197833D01*
X161910009Y-84104997D01*
X161830027Y-84034951D01*
X161743702Y-83987122D01*
X161598658Y-83942101D01*
X161460297Y-83960585D01*
X161312541Y-84047350D01*
X161196579Y-84149650D01*
X161101116Y-84235110D01*
X161038509Y-84265811D01*
X160986292Y-84251090D01*
X160973527Y-84242361D01*
X160926073Y-84197661D01*
X160932352Y-84148669D01*
X160970525Y-84089482D01*
X161079960Y-83976072D01*
X161232501Y-83869287D01*
X161397405Y-83786782D01*
X161543928Y-83746212D01*
X161570974Y-83744667D01*
X161769413Y-83779101D01*
G37*
X161769413Y-83779101D02*
X161952476Y-83871441D01*
X162088408Y-84005243D01*
X162095789Y-84016445D01*
X162134296Y-84086560D01*
X162155787Y-84161161D01*
X162162260Y-84261906D01*
X162155713Y-84410454D01*
X162144912Y-84549000D01*
X162131318Y-84757176D01*
X162120127Y-85015106D01*
X162112606Y-85287886D01*
X162110038Y-85509064D01*
X162110779Y-85741042D01*
X162115613Y-85905025D01*
X162126695Y-86017664D01*
X162146180Y-86095610D01*
X162176225Y-86155512D01*
X162197732Y-86186397D01*
X162283602Y-86271274D01*
X162397178Y-86311004D01*
X162470016Y-86319227D01*
X162717890Y-86300096D01*
X162945719Y-86202890D01*
X163159344Y-86024818D01*
X163214224Y-85963825D01*
X163318892Y-85850241D01*
X163409066Y-85768178D01*
X163466141Y-85734453D01*
X163468112Y-85734334D01*
X163523755Y-85767452D01*
X163597182Y-85851096D01*
X163629505Y-85898393D01*
X163776869Y-86089127D01*
X163926913Y-86203226D01*
X164074284Y-86239020D01*
X164213631Y-86194837D01*
X164307971Y-86110223D01*
X164388653Y-86001415D01*
X164458934Y-85873458D01*
X164526082Y-85709221D01*
X164597364Y-85491574D01*
X164655985Y-85289834D01*
X164715450Y-85079010D01*
X164777683Y-84859557D01*
X164831333Y-84671471D01*
X164842246Y-84633442D01*
X164921416Y-84358050D01*
X165349565Y-84194582D01*
X165567567Y-84115972D01*
X165715998Y-84073703D01*
X165801001Y-84066227D01*
X165822145Y-84075545D01*
X165852677Y-84134474D01*
X165819740Y-84194145D01*
X165717286Y-84259634D01*
X165539270Y-84336021D01*
X165489887Y-84354600D01*
X165330263Y-84416840D01*
X165199296Y-84473866D01*
X165119270Y-84515783D01*
X165108527Y-84523933D01*
X165080315Y-84580037D01*
X165036526Y-84701746D01*
X164982553Y-84872637D01*
X164923790Y-85076288D01*
X164907251Y-85136804D01*
X164796737Y-85518610D01*
X164690651Y-85823568D01*
X164584846Y-86059062D01*
X164475173Y-86232475D01*
X164357485Y-86351190D01*
X164227635Y-86422591D01*
X164176069Y-86438398D01*
X164002379Y-86441191D01*
X163818574Y-86374646D01*
X163646259Y-86247924D01*
X163592569Y-86190944D01*
X163441511Y-86014467D01*
X163271542Y-86191355D01*
X163087034Y-86357866D01*
X162903712Y-86460737D01*
X162690918Y-86514778D01*
X162576413Y-86527186D01*
X162418971Y-86533485D01*
X162309906Y-86517957D01*
X162214244Y-86473620D01*
X162172334Y-86446552D01*
X162044087Y-86318677D01*
X161952698Y-86131493D01*
X161897655Y-85881317D01*
X161878449Y-85564461D01*
X161894569Y-85177242D01*
X161939182Y-84763076D01*
X161967945Y-84511873D01*
X161975189Y-84328459D01*
X161957137Y-84197833D01*
X161910009Y-84104997D01*
X161830027Y-84034951D01*
X161743702Y-83987122D01*
X161598658Y-83942101D01*
X161460297Y-83960585D01*
X161312541Y-84047350D01*
X161196579Y-84149650D01*
X161101116Y-84235110D01*
X161038509Y-84265811D01*
X160986292Y-84251090D01*
X160973527Y-84242361D01*
X160926073Y-84197661D01*
X160932352Y-84148669D01*
X160970525Y-84089482D01*
X161079960Y-83976072D01*
X161232501Y-83869287D01*
X161397405Y-83786782D01*
X161543928Y-83746212D01*
X161570974Y-83744667D01*
X161769413Y-83779101D01*
%TO.C,JP1*%
G36*
X170100000Y-83650000D02*
G01*
X169500000Y-83650000D01*
X169500000Y-83150000D01*
X170100000Y-83150000D01*
X170100000Y-83650000D01*
G37*
%TD*%
D11*
%TO.P,SW1,2,B*%
%TO.N,VSS*%
X160600000Y-88800000D03*
%TO.P,SW1,1,A*%
%TO.N,Net-(SW1-Pad1)*%
X160600000Y-81000000D03*
%TD*%
D12*
%TO.P,Y1,2,2*%
%TO.N,Net-(C5-Pad2)*%
X139100000Y-84600000D03*
%TO.P,Y1,1,1*%
%TO.N,Net-(C6-Pad1)*%
X141600000Y-84600000D03*
%TD*%
D13*
%TO.P,U2,42,P1.06*%
%TO.N,Net-(J8-Pad8)*%
X149900000Y-67405000D03*
%TO.P,U2,40,P1.04*%
%TO.N,Net-(J8-Pad7)*%
X149900000Y-68675000D03*
%TO.P,U2,38,P1.02*%
%TO.N,Net-(J8-Pad6)*%
X149900000Y-69945000D03*
%TO.P,U2,36,P1.0*%
%TO.N,Net-(J8-Pad5)*%
X149900000Y-71215000D03*
%TO.P,U2,34,P0.22*%
%TO.N,Net-(J8-Pad4)*%
X149900000Y-72485000D03*
%TO.P,U2,32,P0.20*%
%TO.N,Net-(J8-Pad3)*%
X149900000Y-73755000D03*
%TO.P,U2,30,P0.17*%
%TO.N,Net-(J8-Pad2)*%
X149900000Y-75025000D03*
%TO.P,U2,28,P0.15*%
%TO.N,Net-(J8-Pad1)*%
X149900000Y-76295000D03*
%TO.P,U2,24,GND*%
%TO.N,VSS*%
X149310000Y-78700000D03*
%TO.P,U2,22,P0.07*%
%TO.N,Net-(J7-Pad6)*%
X148040000Y-78700000D03*
%TO.P,U2,20,P0.12*%
%TO.N,Net-(J7-Pad5)*%
X146770000Y-78700000D03*
%TO.P,U2,18,P0.04/A2*%
%TO.N,Net-(J7-Pad4)*%
X145500000Y-78700000D03*
%TO.P,U2,16,P0.08*%
%TO.N,Net-(J7-Pad3)*%
X144230000Y-78700000D03*
%TO.P,U2,14,P0.06*%
%TO.N,Net-(J7-Pad2)*%
X142960000Y-78700000D03*
%TO.P,U2,12,P0.26*%
%TO.N,Net-(J7-Pad1)*%
X141690000Y-78700000D03*
D14*
%TO.P,U2,43,NFC2*%
%TO.N,Net-(J3-Pad1)*%
X152000000Y-66770000D03*
%TO.P,U2,41,NFC1*%
%TO.N,Net-(J3-Pad2)*%
X152000000Y-68040000D03*
%TO.P,U2,39,SWD*%
%TO.N,SWD*%
X152000000Y-69310000D03*
%TO.P,U2,37,SWDIO*%
%TO.N,SWDIO*%
X152000000Y-70580000D03*
%TO.P,U2,35,P0.24*%
%TO.N,Net-(SW1-Pad1)*%
X152000000Y-71850000D03*
%TO.P,U2,33,P0.13*%
%TO.N,unconnected-(U2-Pad33)*%
X152000000Y-73120000D03*
%TO.P,U2,31,D+*%
%TO.N,/D+*%
X152000000Y-74390000D03*
%TO.P,U2,29,D-*%
%TO.N,/D-*%
X152000000Y-75660000D03*
%TO.P,U2,27,VBUS*%
%TO.N,VBUS*%
X152000000Y-76930000D03*
%TO.P,U2,26,RST*%
%TO.N,RST*%
X152000000Y-78200000D03*
%TO.P,U2,1,P1.11*%
%TO.N,Net-(J5-Pad1)*%
X139000000Y-66770000D03*
%TO.P,U2,2,P1.10*%
%TO.N,Net-(J5-Pad2)*%
X139000000Y-68040000D03*
%TO.P,U2,3,P0.03*%
%TO.N,Net-(J5-Pad3)*%
X139000000Y-69310000D03*
%TO.P,U2,4,P0.28/A4*%
%TO.N,Net-(J5-Pad4)*%
X139000000Y-70580000D03*
%TO.P,U2,5,GND*%
%TO.N,VSS*%
X139000000Y-71850000D03*
%TO.P,U2,6,P1.13*%
%TO.N,Net-(J5-Pad5)*%
X139000000Y-73120000D03*
%TO.P,U2,7,P0.02/A0*%
%TO.N,Blue*%
X139000000Y-74390000D03*
%TO.P,U2,8,P0.29/A5*%
%TO.N,Green*%
X139000000Y-75660000D03*
%TO.P,U2,9,P0.31/A7*%
%TO.N,Red*%
X139000000Y-76930000D03*
%TO.P,U2,10,P0.30/A6*%
%TO.N,Attention*%
X139000000Y-78200000D03*
D15*
%TO.P,U2,25,DCH*%
%TO.N,Net-(J4-Pad1)*%
X149950000Y-80800000D03*
%TO.P,U2,23,VDDH*%
%TO.N,VCC*%
X148680000Y-80800000D03*
%TO.P,U2,21,GND*%
%TO.N,VSS*%
X147410000Y-80800000D03*
%TO.P,U2,19,VDD*%
%TO.N,VCC*%
X146140000Y-80800000D03*
%TO.P,U2,17,P1.09*%
%TO.N,Net-(J6-Pad2)*%
X144870000Y-80800000D03*
%TO.P,U2,15,P0.5/A3*%
%TO.N,Net-(J6-Pad1)*%
X143600000Y-80800000D03*
%TO.P,U2,13,P0.1/X2*%
%TO.N,Net-(C6-Pad1)*%
X142330000Y-80800000D03*
%TO.P,U2,11,P0.0/X1*%
%TO.N,Net-(C5-Pad2)*%
X141060000Y-80800000D03*
%TD*%
D16*
%TO.P,U1,1,GND*%
%TO.N,VSS*%
X167250000Y-87700000D03*
%TO.P,U1,3,VI*%
%TO.N,Net-(C3-Pad1)*%
X167250000Y-92300000D03*
%TO.P,U1,2,VO*%
%TO.N,VCC*%
X167250000Y-90000000D03*
D17*
X173550000Y-90000000D03*
%TD*%
D18*
%TO.P,RN2,5,R4.2*%
%TO.N,Net-(D2-Pad1)*%
X133400000Y-81200000D03*
D19*
%TO.P,RN2,6,R3.2*%
%TO.N,Net-(D2-Pad2)*%
X133400000Y-82000000D03*
D18*
%TO.P,RN2,8,R1.2*%
%TO.N,Net-(D3-Pad2)*%
X133400000Y-83600000D03*
D19*
%TO.P,RN2,7,R2.2*%
%TO.N,Net-(D2-Pad3)*%
X133400000Y-82800000D03*
D18*
%TO.P,RN2,4,R4.1*%
%TO.N,Blue*%
X135200000Y-81200000D03*
D19*
%TO.P,RN2,2,R2.1*%
%TO.N,Red*%
X135200000Y-82800000D03*
%TO.P,RN2,3,R3.1*%
%TO.N,Green*%
X135200000Y-82000000D03*
D18*
%TO.P,RN2,1,R1.1*%
%TO.N,Attention*%
X135200000Y-83600000D03*
%TD*%
D20*
%TO.P,RN1,5,R4.2*%
%TO.N,unconnected-(RN1-Pad5)*%
X168800000Y-68400000D03*
D21*
%TO.P,RN1,6,R3.2*%
%TO.N,unconnected-(RN1-Pad6)*%
X169600000Y-68400000D03*
D20*
%TO.P,RN1,8,R1.2*%
%TO.N,Net-(P1-PadB5)*%
X171200000Y-68400000D03*
D21*
%TO.P,RN1,7,R2.2*%
%TO.N,Net-(P1-PadA5)*%
X170400000Y-68400000D03*
D20*
%TO.P,RN1,4,R4.1*%
%TO.N,unconnected-(RN1-Pad4)*%
X168800000Y-66600000D03*
D21*
%TO.P,RN1,2,R2.1*%
%TO.N,VSS*%
X170400000Y-66600000D03*
%TO.P,RN1,3,R3.1*%
%TO.N,unconnected-(RN1-Pad3)*%
X169600000Y-66600000D03*
D20*
%TO.P,RN1,1,R1.1*%
%TO.N,VSS*%
X171200000Y-66600000D03*
%TD*%
D22*
%TO.P,P1,A12,GND*%
%TO.N,VSS*%
X168212500Y-72225000D03*
%TO.P,P1,B1,GND*%
X168212500Y-72475000D03*
%TO.P,P1,A9,VBUS*%
%TO.N,VBUS*%
X168212500Y-73025000D03*
%TO.P,P1,B4,VBUS*%
X168212500Y-73275000D03*
%TO.P,P1,B9,VBUS*%
X168212500Y-77825000D03*
%TO.P,P1,A4,VBUS*%
X168212500Y-78075000D03*
%TO.P,P1,B12,GND*%
%TO.N,VSS*%
X168212500Y-78625000D03*
%TO.P,P1,A1,GND*%
X168212500Y-78875000D03*
%TO.P,P1,A8,SBU1*%
%TO.N,unconnected-(P1-PadA8)*%
X168212500Y-77300000D03*
%TO.P,P1,B5,VCONN*%
%TO.N,Net-(P1-PadB5)*%
X168212500Y-73800000D03*
%TO.P,P1,A5,CC*%
%TO.N,Net-(P1-PadA5)*%
X168212500Y-76800000D03*
%TO.P,P1,B8,SBU2*%
%TO.N,unconnected-(P1-PadB8)*%
X168212500Y-74300000D03*
%TO.P,P1,B6,D+*%
%TO.N,/D+*%
X168212500Y-74800000D03*
%TO.P,P1,B7,D-*%
%TO.N,/D-*%
X168212500Y-76300000D03*
%TO.P,P1,A6,D+*%
%TO.N,/D+*%
X168212500Y-75800000D03*
%TO.P,P1,A7,D-*%
%TO.N,/D-*%
X168212500Y-75300000D03*
D23*
%TO.P,P1,S1,SHIELD*%
%TO.N,VSS*%
X173062500Y-71230000D03*
X173062500Y-79870000D03*
D24*
X168912500Y-71230000D03*
X168912500Y-79870000D03*
%TD*%
D25*
%TO.P,JP1,1,1*%
%TO.N,VBUS*%
X169800000Y-82750000D03*
D26*
%TO.P,JP1,2,2*%
%TO.N,Net-(C3-Pad1)*%
X169800000Y-84050000D03*
%TD*%
D27*
%TO.P,J7,6,Pin_6*%
%TO.N,Net-(J7-Pad6)*%
X141580000Y-93600000D03*
%TO.P,J7,5,Pin_5*%
%TO.N,Net-(J7-Pad5)*%
X139040000Y-93600000D03*
%TO.P,J7,4,Pin_4*%
%TO.N,Net-(J7-Pad4)*%
X136500000Y-93600000D03*
%TO.P,J7,3,Pin_3*%
%TO.N,Net-(J7-Pad3)*%
X133960000Y-93600000D03*
%TO.P,J7,2,Pin_2*%
%TO.N,Net-(J7-Pad2)*%
X131420000Y-93600000D03*
D28*
%TO.P,J7,1,Pin_1*%
%TO.N,Net-(J7-Pad1)*%
X128880000Y-93600000D03*
%TD*%
D27*
%TO.P,J6,2,Pin_2*%
%TO.N,Net-(J6-Pad2)*%
X146665000Y-93600000D03*
D28*
%TO.P,J6,1,Pin_1*%
%TO.N,Net-(J6-Pad1)*%
X144125000Y-93600000D03*
%TD*%
D27*
%TO.P,J5,5,Pin_5*%
%TO.N,Net-(J5-Pad5)*%
X128900000Y-77480000D03*
%TO.P,J5,4,Pin_4*%
%TO.N,Net-(J5-Pad4)*%
X128900000Y-74940000D03*
%TO.P,J5,3,Pin_3*%
%TO.N,Net-(J5-Pad3)*%
X128900000Y-72400000D03*
%TO.P,J5,2,Pin_2*%
%TO.N,Net-(J5-Pad2)*%
X128900000Y-69860000D03*
D28*
%TO.P,J5,1,Pin_1*%
%TO.N,Net-(J5-Pad1)*%
X128900000Y-67320000D03*
%TD*%
%TO.P,J4,1,Pin_1*%
%TO.N,Net-(J4-Pad1)*%
X154200000Y-81400000D03*
%TD*%
D27*
%TO.P,J3,2,Pin_2*%
%TO.N,Net-(J3-Pad2)*%
X163300000Y-69840000D03*
D28*
%TO.P,J3,1,Pin_1*%
%TO.N,Net-(J3-Pad1)*%
X163300000Y-67300000D03*
%TD*%
D29*
%TO.P,J2,2,Pin_2*%
%TO.N,VBUS*%
X173200000Y-82800000D03*
D30*
%TO.P,J2,1,Pin_1*%
%TO.N,Net-(C3-Pad1)*%
X173200000Y-83800000D03*
%TD*%
D27*
%TO.P,J1,5,Pin_5*%
%TO.N,RST*%
X159365000Y-93600000D03*
%TO.P,J1,4,Pin_4*%
%TO.N,SWD*%
X156825000Y-93600000D03*
%TO.P,J1,3,Pin_3*%
%TO.N,SWDIO*%
X154285000Y-93600000D03*
%TO.P,J1,2,Pin_2*%
%TO.N,VSS*%
X151745000Y-93600000D03*
D28*
%TO.P,J1,1,Pin_1*%
%TO.N,VCC*%
X149205000Y-93600000D03*
%TD*%
D31*
%TO.P,D3,2,A*%
%TO.N,Net-(D3-Pad2)*%
X129787500Y-86800000D03*
%TO.P,D3,1,K*%
%TO.N,VSS*%
X128212500Y-86800000D03*
%TD*%
D32*
%TO.P,D2,4,A*%
%TO.N,VCC*%
X127600000Y-83900000D03*
%TO.P,D2,3,RK*%
%TO.N,Net-(D2-Pad3)*%
X130200000Y-83900000D03*
%TO.P,D2,2,GK*%
%TO.N,Net-(D2-Pad2)*%
X127600000Y-81800000D03*
%TO.P,D2,1,BK*%
%TO.N,Net-(D2-Pad1)*%
X130200000Y-81800000D03*
%TD*%
D33*
%TO.P,C7,2*%
%TO.N,VSS*%
X148600000Y-84600000D03*
%TO.P,C7,1*%
%TO.N,VCC*%
X146700000Y-84600000D03*
%TD*%
%TO.P,C6,2*%
%TO.N,VSS*%
X143600000Y-87800000D03*
%TO.P,C6,1*%
%TO.N,Net-(C6-Pad1)*%
X141700000Y-87800000D03*
%TD*%
%TO.P,C5,2*%
%TO.N,Net-(C5-Pad2)*%
X138800000Y-87800000D03*
%TO.P,C5,1*%
%TO.N,VSS*%
X136900000Y-87800000D03*
%TD*%
D34*
%TO.P,C4,2*%
%TO.N,VSS*%
X162800000Y-89000000D03*
%TO.P,C4,1*%
%TO.N,VCC*%
X164700000Y-89000000D03*
%TD*%
%TO.P,C3,2*%
%TO.N,VSS*%
X162850000Y-92200000D03*
%TO.P,C3,1*%
%TO.N,Net-(C3-Pad1)*%
X164750000Y-92200000D03*
%TD*%
D33*
%TO.P,C2,2*%
%TO.N,VSS*%
X164500000Y-76600000D03*
%TO.P,C2,1*%
%TO.N,/D-*%
X162600000Y-76600000D03*
%TD*%
%TO.P,C1,2*%
%TO.N,VSS*%
X164500000Y-73400000D03*
%TO.P,C1,1*%
%TO.N,/D+*%
X162600000Y-73400000D03*
%TD*%
D35*
%TO.N,VSS*%
X150400000Y-79000000D03*
X165800000Y-73600000D03*
X166200000Y-76600000D03*
X173400000Y-75400000D03*
X164800000Y-83400000D03*
X152200000Y-88400000D03*
X138200000Y-80800000D03*
X134200000Y-76000000D03*
X134800000Y-71800000D03*
%TO.N,Net-(J7-Pad1)*%
X142169616Y-77755895D03*
%TO.N,Net-(J7-Pad2)*%
X143392891Y-77791581D03*
%TO.N,Net-(J7-Pad3)*%
X144625735Y-77800000D03*
%TO.N,Net-(J7-Pad4)*%
X145972285Y-77761026D03*
%TO.N,Net-(J7-Pad5)*%
X147197040Y-77796585D03*
%TO.N,Net-(J7-Pad6)*%
X148780702Y-77655262D03*
%TO.N,VCC*%
X171800000Y-90000000D03*
X169000000Y-90000000D03*
%TO.N,VBUS*%
X169675000Y-73600000D03*
X170800000Y-76800000D03*
%TO.N,SWDIO*%
X153800000Y-71125000D03*
%TO.N,SWD*%
X154200000Y-70000000D03*
%TO.N,Net-(SW1-Pad1)*%
X157400000Y-72000000D03*
X160000000Y-79400000D03*
%TO.N,Net-(J8-Pad1)*%
X148800000Y-75600000D03*
%TO.N,Net-(J8-Pad2)*%
X148600000Y-74000000D03*
%TO.N,Net-(J8-Pad3)*%
X148585115Y-72821225D03*
%TO.N,Net-(J8-Pad4)*%
X148595516Y-71806320D03*
%TO.N,Net-(J8-Pad5)*%
X148600000Y-70800000D03*
%TO.N,Net-(J8-Pad6)*%
X148600000Y-69800000D03*
%TO.N,Net-(J8-Pad7)*%
X148400000Y-68600000D03*
%TO.N,Net-(J8-Pad8)*%
X148400000Y-67400000D03*
%TD*%
D36*
%TO.N,/D+*%
X152000000Y-74390000D02*
X153500001Y-74390000D01*
X153910001Y-74800000D02*
X162600000Y-74800000D01*
%TO.N,/D-*%
X152000000Y-75660000D02*
X153500001Y-75660000D01*
%TO.N,/D+*%
X153500001Y-74390000D02*
X153910001Y-74800000D01*
%TO.N,/D-*%
X153500001Y-75660000D02*
X153910001Y-75250000D01*
X153910001Y-75250000D02*
X162650000Y-75250000D01*
%TO.N,/D+*%
X162600000Y-74800000D02*
X168212500Y-74800000D01*
D37*
%TO.N,VSS*%
X150400000Y-79000000D02*
X149610000Y-79000000D01*
X149610000Y-79000000D02*
X149310000Y-78700000D01*
D36*
X147724989Y-79475011D02*
X148599978Y-79475011D01*
X148599978Y-79475011D02*
X148600000Y-79474989D01*
D37*
X149310000Y-78700000D02*
X149310000Y-79400000D01*
X149310000Y-79400000D02*
X149235011Y-79474989D01*
D36*
X149235011Y-79474989D02*
X148600000Y-79474989D01*
X147410000Y-79790000D02*
X147724989Y-79475011D01*
D37*
X147410000Y-80800000D02*
X147410000Y-79790000D01*
%TO.N,VCC*%
X149205000Y-94995000D02*
X149205000Y-93600000D01*
X149000000Y-95200000D02*
X149205000Y-94995000D01*
X127600000Y-83900000D02*
X127200000Y-84300000D01*
X127200000Y-84300000D02*
X127200000Y-94205020D01*
X127200000Y-94205020D02*
X128194980Y-95200000D01*
X128194980Y-95200000D02*
X149000000Y-95200000D01*
%TO.N,VBUS*%
X168212500Y-78075000D02*
X153960020Y-78075000D01*
X153960020Y-78075000D02*
X152815020Y-76930000D01*
X152815020Y-76930000D02*
X152000000Y-76930000D01*
%TO.N,Net-(J5-Pad5)*%
X128900000Y-77480000D02*
X133260000Y-73120000D01*
X133260000Y-73120000D02*
X139000000Y-73120000D01*
%TO.N,VCC*%
X167250000Y-90000000D02*
X165700000Y-90000000D01*
X165700000Y-90000000D02*
X164700000Y-89000000D01*
X149205000Y-93600000D02*
X150380011Y-94775011D01*
X168774989Y-94775011D02*
X173550000Y-90000000D01*
X150380011Y-94775011D02*
X168774989Y-94775011D01*
X146700000Y-84600000D02*
X148680000Y-82620000D01*
X148680000Y-82620000D02*
X148680000Y-80800000D01*
X149205000Y-93600000D02*
X149205000Y-87105000D01*
X149205000Y-87105000D02*
X146700000Y-84600000D01*
%TO.N,Net-(J7-Pad3)*%
X144625735Y-77800000D02*
X144625735Y-78304265D01*
X144625735Y-78304265D02*
X144230000Y-78700000D01*
%TO.N,Net-(J7-Pad2)*%
X143392891Y-78267109D02*
X142960000Y-78700000D01*
X143392891Y-77791581D02*
X143392891Y-78267109D01*
%TO.N,Net-(J7-Pad1)*%
X142169616Y-77755895D02*
X142169616Y-78220384D01*
X142169616Y-78220384D02*
X141690000Y-78700000D01*
%TO.N,Net-(J7-Pad4)*%
X145972285Y-77761026D02*
X145972285Y-78227715D01*
X145972285Y-78227715D02*
X145500000Y-78700000D01*
%TO.N,Net-(J7-Pad5)*%
X146770000Y-78700000D02*
X146770000Y-78223625D01*
X146770000Y-78223625D02*
X147197040Y-77796585D01*
%TO.N,Net-(J7-Pad6)*%
X148040000Y-78700000D02*
X148040000Y-78395964D01*
X148040000Y-78395964D02*
X148780702Y-77655262D01*
X148780702Y-77655262D02*
X148780702Y-77924989D01*
%TO.N,Net-(P1-PadB5)*%
X167400000Y-73800000D02*
X168212500Y-73800000D01*
X171200000Y-68400000D02*
X171200000Y-67750000D01*
X168325011Y-67674989D02*
X166600000Y-69400000D01*
X171200000Y-67750000D02*
X171124989Y-67674989D01*
X171124989Y-67674989D02*
X168325011Y-67674989D01*
X166600000Y-69400000D02*
X166600000Y-73000000D01*
X166600000Y-73000000D02*
X167400000Y-73800000D01*
%TO.N,VCC*%
X167250000Y-90000000D02*
X167400000Y-90000000D01*
X167400000Y-90000000D02*
X169000000Y-90000000D01*
X171800000Y-90000000D02*
X173550000Y-90000000D01*
%TO.N,Net-(C3-Pad1)*%
X167250000Y-92300000D02*
X164850000Y-92300000D01*
X164850000Y-92300000D02*
X164750000Y-92200000D01*
X168700000Y-92300000D02*
X167250000Y-92300000D01*
X169800000Y-84050000D02*
X169800000Y-91200000D01*
X169800000Y-91200000D02*
X168700000Y-92300000D01*
X173200000Y-83800000D02*
X170050000Y-83800000D01*
X170050000Y-83800000D02*
X169800000Y-84050000D01*
%TO.N,VBUS*%
X169800000Y-82750000D02*
X173150000Y-82750000D01*
X173150000Y-82750000D02*
X173200000Y-82800000D01*
X170800000Y-76800000D02*
X170800000Y-81750000D01*
X170800000Y-81750000D02*
X169800000Y-82750000D01*
X170800000Y-77000000D02*
X170000000Y-77800000D01*
X170800000Y-76800000D02*
X170800000Y-77000000D01*
X169350000Y-73275000D02*
X169675000Y-73600000D01*
X168212500Y-73275000D02*
X169350000Y-73275000D01*
X170000000Y-77800000D02*
X168487500Y-77800000D01*
X168487500Y-77800000D02*
X168212500Y-78075000D01*
X168212500Y-73025000D02*
X168212500Y-73275000D01*
%TO.N,Net-(P1-PadA5)*%
X169600000Y-76800000D02*
X170400000Y-76000000D01*
X170400000Y-76000000D02*
X170400000Y-68400000D01*
X168212500Y-76800000D02*
X169600000Y-76800000D01*
%TO.N,VSS*%
X168212500Y-72225000D02*
X168212500Y-71930000D01*
X168212500Y-71930000D02*
X168912500Y-71230000D01*
X168212500Y-72475000D02*
X168212500Y-72225000D01*
X168212500Y-78875000D02*
X168212500Y-79170000D01*
X168212500Y-79170000D02*
X168912500Y-79870000D01*
X168212500Y-78625000D02*
X168212500Y-78875000D01*
%TO.N,VCC*%
X146140000Y-80800000D02*
X146140000Y-84040000D01*
X146140000Y-84040000D02*
X146700000Y-84600000D01*
%TO.N,Attention*%
X139000000Y-78200000D02*
X137800000Y-78200000D01*
X137800000Y-78200000D02*
X137050020Y-78949980D01*
X137050020Y-78949980D02*
X137050020Y-82236404D01*
X137050020Y-82236404D02*
X135686424Y-83600000D01*
X135686424Y-83600000D02*
X135200000Y-83600000D01*
%TO.N,Red*%
X136600000Y-82050000D02*
X136600000Y-78200000D01*
X135850000Y-82800000D02*
X136600000Y-82050000D01*
X135200000Y-82800000D02*
X135850000Y-82800000D01*
X136600000Y-78200000D02*
X137870000Y-76930000D01*
X137870000Y-76930000D02*
X139000000Y-76930000D01*
%TO.N,Green*%
X139000000Y-75660000D02*
X137750000Y-75660000D01*
X137750000Y-75660000D02*
X135925011Y-77484989D01*
X135925011Y-77484989D02*
X135925011Y-81924989D01*
X135925011Y-81924989D02*
X135850000Y-82000000D01*
X135850000Y-82000000D02*
X135200000Y-82000000D01*
%TO.N,Blue*%
X137010000Y-74390000D02*
X139000000Y-74390000D01*
X135200000Y-81200000D02*
X135200000Y-76200000D01*
X135200000Y-76200000D02*
X137010000Y-74390000D01*
%TO.N,Net-(D2-Pad3)*%
X133400000Y-82800000D02*
X132071422Y-82800000D01*
X132071422Y-82800000D02*
X130971422Y-83900000D01*
X130971422Y-83900000D02*
X130200000Y-83900000D01*
%TO.N,Net-(D2-Pad1)*%
X130200000Y-81800000D02*
X130800000Y-81200000D01*
X130800000Y-81200000D02*
X133400000Y-81200000D01*
%TO.N,Net-(D2-Pad2)*%
X133400000Y-82000000D02*
X132234998Y-82000000D01*
X132234998Y-82000000D02*
X131360009Y-82874989D01*
X131360009Y-82874989D02*
X128674989Y-82874989D01*
X128674989Y-82874989D02*
X127600000Y-81800000D01*
%TO.N,Net-(D3-Pad2)*%
X133400000Y-83600000D02*
X130200000Y-86800000D01*
X130200000Y-86800000D02*
X129787500Y-86800000D01*
%TO.N,Net-(J5-Pad4)*%
X139000000Y-70580000D02*
X133260000Y-70580000D01*
X133260000Y-70580000D02*
X128900000Y-74940000D01*
%TO.N,Net-(J5-Pad3)*%
X139000000Y-69310000D02*
X131990000Y-69310000D01*
X131990000Y-69310000D02*
X128900000Y-72400000D01*
%TO.N,Net-(J5-Pad2)*%
X139000000Y-68040000D02*
X130720000Y-68040000D01*
X130720000Y-68040000D02*
X128900000Y-69860000D01*
%TO.N,Net-(J5-Pad1)*%
X128900000Y-67320000D02*
X129450000Y-66770000D01*
X129450000Y-66770000D02*
X139000000Y-66770000D01*
%TO.N,Net-(J6-Pad1)*%
X144425020Y-93299980D02*
X144125000Y-93600000D01*
X143600000Y-86261798D02*
X144425020Y-87086818D01*
X143600000Y-80800000D02*
X143600000Y-86261798D01*
X144425020Y-87086818D02*
X144425020Y-93299980D01*
%TO.N,Net-(J6-Pad2)*%
X144870000Y-80800000D02*
X145200000Y-81130000D01*
X145200000Y-81130000D02*
X145200000Y-92135000D01*
X145200000Y-92135000D02*
X146665000Y-93600000D01*
%TO.N,Net-(C5-Pad2)*%
X141060000Y-80800000D02*
X141060000Y-82640000D01*
X141060000Y-82640000D02*
X139100000Y-84600000D01*
X138800000Y-87800000D02*
X138800000Y-84900000D01*
X138800000Y-84900000D02*
X139100000Y-84600000D01*
%TO.N,Net-(C6-Pad1)*%
X142330000Y-80800000D02*
X142330000Y-83870000D01*
X142330000Y-83870000D02*
X141600000Y-84600000D01*
X141700000Y-87800000D02*
X141700000Y-84700000D01*
X141700000Y-84700000D02*
X141600000Y-84600000D01*
%TO.N,RST*%
X159365000Y-93600000D02*
X159365000Y-84279980D01*
X159365000Y-84279980D02*
X153285020Y-78200000D01*
X153285020Y-78200000D02*
X152000000Y-78200000D01*
%TO.N,SWDIO*%
X153255000Y-70580000D02*
X153800000Y-71125000D01*
X152000000Y-70580000D02*
X153255000Y-70580000D01*
%TO.N,SWD*%
X154000000Y-69800000D02*
X154200000Y-70000000D01*
X152000000Y-69310000D02*
X153510000Y-69310000D01*
X153510000Y-69310000D02*
X154000000Y-69800000D01*
%TO.N,Net-(SW1-Pad1)*%
X160600000Y-81000000D02*
X160600000Y-80000000D01*
X160600000Y-80000000D02*
X160000000Y-79400000D01*
X157400000Y-72000000D02*
X157250000Y-71850000D01*
X157250000Y-71850000D02*
X152000000Y-71850000D01*
%TO.N,Net-(J4-Pad1)*%
X149950000Y-80800000D02*
X153600000Y-80800000D01*
X153600000Y-80800000D02*
X154200000Y-81400000D01*
%TO.N,Net-(J3-Pad2)*%
X152000000Y-68040000D02*
X161500000Y-68040000D01*
X161500000Y-68040000D02*
X163300000Y-69840000D01*
%TO.N,Net-(J3-Pad1)*%
X152000000Y-66770000D02*
X162770000Y-66770000D01*
X162770000Y-66770000D02*
X163300000Y-67300000D01*
%TO.N,Net-(J8-Pad1)*%
X149495000Y-76295000D02*
X148800000Y-75600000D01*
X149900000Y-76295000D02*
X149495000Y-76295000D01*
%TO.N,Net-(J8-Pad2)*%
X149625000Y-75025000D02*
X148600000Y-74000000D01*
X149900000Y-75025000D02*
X149625000Y-75025000D01*
%TO.N,Net-(J8-Pad3)*%
X149518890Y-73755000D02*
X148585115Y-72821225D01*
X149900000Y-73755000D02*
X149518890Y-73755000D01*
%TO.N,Net-(J8-Pad4)*%
X149274196Y-72485000D02*
X148595516Y-71806320D01*
X149900000Y-72485000D02*
X149274196Y-72485000D01*
%TO.N,Net-(J8-Pad5)*%
X149015000Y-71215000D02*
X148600000Y-70800000D01*
X149900000Y-71215000D02*
X149015000Y-71215000D01*
%TO.N,Net-(J8-Pad6)*%
X148745000Y-69945000D02*
X148600000Y-69800000D01*
X149900000Y-69945000D02*
X148745000Y-69945000D01*
%TO.N,Net-(J8-Pad7)*%
X148475000Y-68675000D02*
X148400000Y-68600000D01*
X149900000Y-68675000D02*
X148475000Y-68675000D01*
%TO.N,Net-(J8-Pad8)*%
X148405000Y-67405000D02*
X148400000Y-67400000D01*
X149900000Y-67405000D02*
X148405000Y-67405000D01*
D36*
%TO.N,/D+*%
X169400000Y-75600000D02*
X169400000Y-75000000D01*
X168212500Y-75800000D02*
X169200000Y-75800000D01*
X169200000Y-75800000D02*
X169400000Y-75600000D01*
X169400000Y-75000000D02*
X169200000Y-74800000D01*
X169200000Y-74800000D02*
X168212500Y-74800000D01*
%TO.N,/D-*%
X166660119Y-75300000D02*
X166660119Y-75647619D01*
X166660119Y-75647619D02*
X167312500Y-76300000D01*
X167312500Y-76300000D02*
X168212500Y-76300000D01*
X162650000Y-75250000D02*
X166610119Y-75250000D01*
X162600000Y-75300000D02*
X162650000Y-75250000D01*
X162600000Y-76600000D02*
X162600000Y-75300000D01*
%TO.N,/D+*%
X162600000Y-73400000D02*
X162600000Y-74800000D01*
%TO.N,/D-*%
X166610119Y-75250000D02*
X166660119Y-75300000D01*
X166660119Y-75300000D02*
X168212500Y-75300000D01*
%TO.N,/D+*%
X166610119Y-74800000D02*
X168212500Y-74800000D01*
%TD*%
%TA.AperFunction,Conductor*%
%TO.N,VSS*%
G36*
X174942121Y-65820002D02*
G01*
X174988614Y-65873658D01*
X175000000Y-65926000D01*
X175000000Y-87550680D01*
X174979998Y-87618801D01*
X174926342Y-87665294D01*
X174856068Y-87675398D01*
X174821657Y-87665293D01*
X174702867Y-87611043D01*
X174702864Y-87611042D01*
X174694670Y-87607300D01*
X174685755Y-87606018D01*
X174685754Y-87606018D01*
X174554448Y-87587139D01*
X174554441Y-87587138D01*
X174550000Y-87586500D01*
X172550000Y-87586500D01*
X172476921Y-87591727D01*
X172406818Y-87612311D01*
X172345330Y-87630365D01*
X172345328Y-87630366D01*
X172336684Y-87632904D01*
X172329105Y-87637775D01*
X172221309Y-87707051D01*
X172221306Y-87707053D01*
X172213729Y-87711923D01*
X172207828Y-87718733D01*
X172123918Y-87815569D01*
X172123916Y-87815572D01*
X172118016Y-87822381D01*
X172114272Y-87830579D01*
X172062208Y-87944584D01*
X172057300Y-87955330D01*
X172056018Y-87964245D01*
X172056018Y-87964246D01*
X172037139Y-88095552D01*
X172037138Y-88095559D01*
X172036500Y-88100000D01*
X172036500Y-88967082D01*
X172016498Y-89035203D01*
X171962842Y-89081696D01*
X171898650Y-89092176D01*
X171895487Y-89091504D01*
X171704513Y-89091504D01*
X171698061Y-89092876D01*
X171698056Y-89092876D01*
X171611113Y-89111357D01*
X171517713Y-89131210D01*
X171511683Y-89133895D01*
X171511682Y-89133895D01*
X171349280Y-89206201D01*
X171349278Y-89206202D01*
X171343250Y-89208886D01*
X171337909Y-89212766D01*
X171337908Y-89212767D01*
X171194093Y-89317254D01*
X171194091Y-89317256D01*
X171188749Y-89321137D01*
X171060963Y-89463058D01*
X170965476Y-89628446D01*
X170906462Y-89810073D01*
X170905772Y-89816636D01*
X170905772Y-89816637D01*
X170897167Y-89898509D01*
X170886500Y-90000000D01*
X170887190Y-90006565D01*
X170905135Y-90177297D01*
X170906462Y-90189927D01*
X170908502Y-90196205D01*
X170908502Y-90196206D01*
X170919003Y-90228525D01*
X170965476Y-90371554D01*
X171060963Y-90536942D01*
X171065381Y-90541849D01*
X171065382Y-90541850D01*
X171184327Y-90673952D01*
X171188749Y-90678863D01*
X171194091Y-90682744D01*
X171194093Y-90682746D01*
X171252594Y-90725249D01*
X171343250Y-90791114D01*
X171349278Y-90793798D01*
X171349280Y-90793799D01*
X171511686Y-90866107D01*
X171511689Y-90866108D01*
X171517713Y-90868790D01*
X171524163Y-90870161D01*
X171524683Y-90870330D01*
X171583288Y-90910405D01*
X171610923Y-90975802D01*
X171598815Y-91045759D01*
X171574839Y-91079257D01*
X168549490Y-94104606D01*
X168487178Y-94138632D01*
X168460395Y-94141511D01*
X160790372Y-94141511D01*
X160722251Y-94121509D01*
X160675758Y-94067853D01*
X160665654Y-93997579D01*
X160669043Y-93981521D01*
X160702908Y-93860636D01*
X160704349Y-93855494D01*
X160705692Y-93842614D01*
X160713562Y-93767093D01*
X160728249Y-93626176D01*
X160728500Y-93600000D01*
X160725125Y-93560221D01*
X160709458Y-93375576D01*
X160709457Y-93375572D01*
X160709007Y-93370265D01*
X160706391Y-93360184D01*
X160665558Y-93202864D01*
X160651084Y-93147098D01*
X160637467Y-93116868D01*
X160558578Y-92941743D01*
X160558577Y-92941741D01*
X160556388Y-92936882D01*
X160552955Y-92931782D01*
X160515182Y-92875677D01*
X160427627Y-92745626D01*
X160409946Y-92727091D01*
X160343764Y-92657715D01*
X160268482Y-92578799D01*
X160118956Y-92467548D01*
X161842000Y-92467548D01*
X161842000Y-92714223D01*
X161842424Y-92721524D01*
X161856617Y-92843255D01*
X161859963Y-92857410D01*
X161915263Y-93009761D01*
X161921773Y-93022760D01*
X162010641Y-93158306D01*
X162019965Y-93169458D01*
X162137629Y-93280922D01*
X162149276Y-93289635D01*
X162289429Y-93371043D01*
X162302754Y-93376837D01*
X162458700Y-93424068D01*
X162471323Y-93426516D01*
X162541184Y-93432751D01*
X162546779Y-93433000D01*
X162577885Y-93433000D01*
X162593124Y-93428525D01*
X162594329Y-93427135D01*
X162596000Y-93419452D01*
X162596000Y-92472115D01*
X162591525Y-92456876D01*
X162590135Y-92455671D01*
X162582452Y-92454000D01*
X161860115Y-92454000D01*
X161844876Y-92458475D01*
X161843671Y-92459865D01*
X161842000Y-92467548D01*
X160118956Y-92467548D01*
X160083504Y-92441171D01*
X160078747Y-92438752D01*
X160078743Y-92438750D01*
X160067394Y-92432980D01*
X160015737Y-92384276D01*
X159998500Y-92320664D01*
X159998500Y-91671779D01*
X161842000Y-91671779D01*
X161842000Y-91927885D01*
X161846475Y-91943124D01*
X161847865Y-91944329D01*
X161855548Y-91946000D01*
X162577885Y-91946000D01*
X162593124Y-91941525D01*
X162594329Y-91940135D01*
X162596000Y-91932452D01*
X162596000Y-90985115D01*
X162591525Y-90969876D01*
X162590135Y-90968671D01*
X162582452Y-90967000D01*
X162560777Y-90967000D01*
X162553476Y-90967424D01*
X162431745Y-90981617D01*
X162417590Y-90984963D01*
X162265239Y-91040263D01*
X162252240Y-91046773D01*
X162116694Y-91135641D01*
X162105542Y-91144965D01*
X161994078Y-91262629D01*
X161985365Y-91274276D01*
X161903957Y-91414429D01*
X161898163Y-91427754D01*
X161850932Y-91583700D01*
X161848484Y-91596323D01*
X161842249Y-91666184D01*
X161842000Y-91671779D01*
X159998500Y-91671779D01*
X159998500Y-90189000D01*
X160018502Y-90120879D01*
X160072158Y-90074386D01*
X160124500Y-90063000D01*
X160327885Y-90063000D01*
X160343124Y-90058525D01*
X160344329Y-90057135D01*
X160346000Y-90049452D01*
X160346000Y-89067548D01*
X160854000Y-89067548D01*
X160854000Y-90044885D01*
X160858475Y-90060124D01*
X160859865Y-90061329D01*
X160867548Y-90063000D01*
X161347743Y-90063000D01*
X161352250Y-90062839D01*
X161416269Y-90058260D01*
X161429491Y-90055874D01*
X161554458Y-90019181D01*
X161570692Y-90011767D01*
X161678360Y-89942574D01*
X161691847Y-89930888D01*
X161725447Y-89892111D01*
X161785174Y-89853727D01*
X161856170Y-89853727D01*
X161915896Y-89892110D01*
X161926044Y-89905538D01*
X161960641Y-89958306D01*
X161969965Y-89969458D01*
X162087629Y-90080922D01*
X162099276Y-90089635D01*
X162239429Y-90171043D01*
X162252754Y-90176837D01*
X162408700Y-90224068D01*
X162421323Y-90226516D01*
X162491184Y-90232751D01*
X162496779Y-90233000D01*
X162527885Y-90233000D01*
X162543124Y-90228525D01*
X162544329Y-90227135D01*
X162546000Y-90219452D01*
X162546000Y-89272115D01*
X162541525Y-89256876D01*
X162540135Y-89255671D01*
X162532452Y-89254000D01*
X161878000Y-89254000D01*
X161809879Y-89233998D01*
X161763386Y-89180342D01*
X161752000Y-89128000D01*
X161752000Y-89072115D01*
X161747525Y-89056876D01*
X161746135Y-89055671D01*
X161738452Y-89054000D01*
X160872115Y-89054000D01*
X160856876Y-89058475D01*
X160855671Y-89059865D01*
X160854000Y-89067548D01*
X160346000Y-89067548D01*
X160346000Y-87555115D01*
X160344659Y-87550548D01*
X160854000Y-87550548D01*
X160854000Y-88527885D01*
X160858475Y-88543124D01*
X160859865Y-88544329D01*
X160867548Y-88546000D01*
X161772000Y-88546000D01*
X161840121Y-88566002D01*
X161886614Y-88619658D01*
X161898000Y-88672000D01*
X161898000Y-88727885D01*
X161902475Y-88743124D01*
X161903865Y-88744329D01*
X161911548Y-88746000D01*
X162527885Y-88746000D01*
X162543124Y-88741525D01*
X162544329Y-88740135D01*
X162546000Y-88732452D01*
X162546000Y-87785115D01*
X162541525Y-87769876D01*
X162540135Y-87768671D01*
X162532452Y-87767000D01*
X162510777Y-87767000D01*
X162503476Y-87767424D01*
X162381745Y-87781617D01*
X162367590Y-87784963D01*
X162215239Y-87840263D01*
X162202240Y-87846773D01*
X162066694Y-87935641D01*
X162055538Y-87944968D01*
X162048046Y-87952877D01*
X161986677Y-87988576D01*
X161915751Y-87985429D01*
X161857785Y-87944435D01*
X161835677Y-87901723D01*
X161819181Y-87845542D01*
X161811767Y-87829308D01*
X161742574Y-87721640D01*
X161730888Y-87708153D01*
X161634160Y-87624338D01*
X161619152Y-87614693D01*
X161502725Y-87561523D01*
X161485612Y-87556498D01*
X161354446Y-87537639D01*
X161345505Y-87537000D01*
X160872115Y-87537000D01*
X160856876Y-87541475D01*
X160855671Y-87542865D01*
X160854000Y-87550548D01*
X160344659Y-87550548D01*
X160341525Y-87539876D01*
X160340135Y-87538671D01*
X160332452Y-87537000D01*
X160124500Y-87537000D01*
X160056379Y-87516998D01*
X160009886Y-87463342D01*
X159998500Y-87411000D01*
X159998500Y-84358363D01*
X159999014Y-84347459D01*
X160000666Y-84340068D01*
X159998562Y-84273114D01*
X159998500Y-84269156D01*
X159998500Y-84240402D01*
X159997961Y-84236135D01*
X159997027Y-84224285D01*
X159996909Y-84220504D01*
X159995639Y-84180097D01*
X159993159Y-84171560D01*
X160408731Y-84171560D01*
X160409554Y-84180497D01*
X160409554Y-84180499D01*
X160410086Y-84186271D01*
X160413088Y-84218860D01*
X160413208Y-84220167D01*
X160413725Y-84229858D01*
X160413881Y-84240402D01*
X160414306Y-84269156D01*
X160414446Y-84278663D01*
X160417092Y-84287238D01*
X160417946Y-84292635D01*
X160420111Y-84303563D01*
X160421377Y-84308871D01*
X160422200Y-84317810D01*
X160440142Y-84363216D01*
X160443354Y-84372360D01*
X160454150Y-84407351D01*
X160457745Y-84419004D01*
X160462694Y-84426496D01*
X160465040Y-84431459D01*
X160470164Y-84441302D01*
X160472876Y-84446054D01*
X160476174Y-84454401D01*
X160506144Y-84492951D01*
X160511786Y-84500816D01*
X160538693Y-84541552D01*
X160578492Y-84575248D01*
X160583453Y-84579680D01*
X160644296Y-84636992D01*
X160644309Y-84637004D01*
X160647193Y-84639720D01*
X160648675Y-84640763D01*
X160648888Y-84640935D01*
X160652431Y-84644263D01*
X160666917Y-84654169D01*
X160668314Y-84655124D01*
X160679677Y-84663885D01*
X160690294Y-84673079D01*
X160706111Y-84686777D01*
X160714275Y-84690514D01*
X160714277Y-84690515D01*
X160718258Y-84692337D01*
X160722954Y-84695028D01*
X160723116Y-84694710D01*
X160731114Y-84698783D01*
X160738455Y-84703950D01*
X160746953Y-84706849D01*
X160746954Y-84706850D01*
X160752797Y-84708844D01*
X160764317Y-84713419D01*
X160764440Y-84713475D01*
X160767891Y-84715109D01*
X160817609Y-84739590D01*
X160817611Y-84739591D01*
X160825660Y-84743554D01*
X160849110Y-84747653D01*
X160863708Y-84750205D01*
X160876201Y-84753050D01*
X160896516Y-84758777D01*
X160932913Y-84769038D01*
X160935491Y-84769382D01*
X160939220Y-84770277D01*
X160973786Y-84779751D01*
X160982757Y-84779599D01*
X160982758Y-84779599D01*
X160999377Y-84779317D01*
X161018165Y-84780404D01*
X161034635Y-84782600D01*
X161034637Y-84782600D01*
X161043533Y-84783786D01*
X161073440Y-84779207D01*
X161090365Y-84777774D01*
X161103088Y-84777558D01*
X161120633Y-84777260D01*
X161145087Y-84769656D01*
X161163408Y-84765430D01*
X161188710Y-84761556D01*
X161218533Y-84747645D01*
X161225195Y-84744769D01*
X161225434Y-84744674D01*
X161230087Y-84743227D01*
X161234461Y-84741082D01*
X161238980Y-84739284D01*
X161239773Y-84741276D01*
X161300937Y-84730735D01*
X161366314Y-84758418D01*
X161406347Y-84817052D01*
X161411761Y-84869398D01*
X161387279Y-85096680D01*
X161385590Y-85107732D01*
X161383601Y-85117747D01*
X161383399Y-85122611D01*
X161383398Y-85122616D01*
X161382886Y-85134925D01*
X161382270Y-85143179D01*
X161381693Y-85148541D01*
X161380780Y-85157013D01*
X161380937Y-85161502D01*
X161380937Y-85161504D01*
X161381153Y-85167683D01*
X161381121Y-85177327D01*
X161366404Y-85530841D01*
X161365958Y-85537414D01*
X161364078Y-85557378D01*
X161364413Y-85562910D01*
X161364471Y-85569048D01*
X161364495Y-85569047D01*
X161364627Y-85573523D01*
X161364441Y-85578006D01*
X161365562Y-85589103D01*
X161366407Y-85597473D01*
X161366813Y-85602505D01*
X161373990Y-85720899D01*
X161387707Y-85947205D01*
X161388071Y-85948976D01*
X161388130Y-85949397D01*
X161388432Y-85954250D01*
X161389475Y-85958992D01*
X161389476Y-85958997D01*
X161390324Y-85962851D01*
X161398359Y-85999368D01*
X161399301Y-86003651D01*
X161399657Y-86005325D01*
X161402374Y-86018537D01*
X161408880Y-86050178D01*
X161410183Y-86056517D01*
X161411288Y-86058603D01*
X161411721Y-86060104D01*
X161438062Y-86179824D01*
X161440506Y-86200825D01*
X161440971Y-86203754D01*
X161441108Y-86212732D01*
X161443760Y-86221313D01*
X161454119Y-86254834D01*
X161456792Y-86264953D01*
X161459183Y-86275823D01*
X161460756Y-86280017D01*
X161460759Y-86280027D01*
X161465960Y-86293893D01*
X161468368Y-86300939D01*
X161473484Y-86317493D01*
X161474952Y-86322244D01*
X161477089Y-86326621D01*
X161479396Y-86331347D01*
X161484143Y-86342375D01*
X161488413Y-86353758D01*
X161498373Y-86380315D01*
X161503758Y-86387498D01*
X161505347Y-86389618D01*
X161517754Y-86409913D01*
X161569136Y-86515152D01*
X161574362Y-86527476D01*
X161587073Y-86562527D01*
X161592380Y-86569769D01*
X161592381Y-86569771D01*
X161623707Y-86612520D01*
X161626306Y-86616203D01*
X161661098Y-86667451D01*
X161692649Y-86693485D01*
X161701415Y-86701439D01*
X161759956Y-86759809D01*
X161767305Y-86767799D01*
X161771598Y-86772889D01*
X161776356Y-86780507D01*
X161783058Y-86786480D01*
X161783061Y-86786483D01*
X161814733Y-86814708D01*
X161819871Y-86819551D01*
X161834839Y-86834476D01*
X161838431Y-86837160D01*
X161838432Y-86837161D01*
X161843342Y-86840830D01*
X161851738Y-86847685D01*
X161861929Y-86856767D01*
X161878545Y-86867499D01*
X161885589Y-86872397D01*
X161917046Y-86895901D01*
X161917049Y-86895903D01*
X161924238Y-86901274D01*
X161932645Y-86904412D01*
X161940525Y-86908711D01*
X161940282Y-86909156D01*
X161952465Y-86915387D01*
X161963874Y-86923000D01*
X162033203Y-86955132D01*
X162053126Y-86964366D01*
X162069233Y-86973317D01*
X162090146Y-86987030D01*
X162124256Y-86997427D01*
X162125030Y-86997692D01*
X162125862Y-86998078D01*
X162128293Y-86998808D01*
X162161250Y-87008706D01*
X162161747Y-87008856D01*
X162199788Y-87020452D01*
X162200674Y-87020578D01*
X162201482Y-87020789D01*
X162224147Y-87027596D01*
X162224148Y-87027596D01*
X162232745Y-87030178D01*
X162261397Y-87030386D01*
X162285148Y-87033540D01*
X162287446Y-87034509D01*
X162343324Y-87040934D01*
X162346687Y-87041367D01*
X162381227Y-87046284D01*
X162385716Y-87046280D01*
X162390182Y-87046595D01*
X162390173Y-87046718D01*
X162394894Y-87046986D01*
X162396472Y-87047045D01*
X162401318Y-87047602D01*
X162426489Y-87046595D01*
X162432888Y-87046339D01*
X162437822Y-87046238D01*
X162439390Y-87046237D01*
X162492826Y-87046193D01*
X162499947Y-87044104D01*
X162508613Y-87043309D01*
X162571963Y-87040774D01*
X162582858Y-87040810D01*
X162588847Y-87041089D01*
X162588853Y-87041089D01*
X162593710Y-87041315D01*
X162610106Y-87039538D01*
X162618630Y-87038907D01*
X162622181Y-87038765D01*
X162631806Y-87038380D01*
X162642917Y-87036332D01*
X162652165Y-87034980D01*
X162703621Y-87029405D01*
X162758634Y-87023444D01*
X162760345Y-87023271D01*
X162775322Y-87021855D01*
X162775337Y-87021852D01*
X162780175Y-87021395D01*
X162784889Y-87020198D01*
X162784894Y-87020197D01*
X162976529Y-86971530D01*
X162998423Y-86967983D01*
X163000014Y-86967867D01*
X163014052Y-86966849D01*
X163045476Y-86955132D01*
X163048434Y-86954029D01*
X163055231Y-86951906D01*
X163055220Y-86951874D01*
X163059477Y-86950464D01*
X163063824Y-86949360D01*
X163089047Y-86938964D01*
X163093034Y-86937399D01*
X163121451Y-86926803D01*
X163125694Y-86924422D01*
X163130107Y-86922376D01*
X163130155Y-86922479D01*
X163136491Y-86919409D01*
X163158701Y-86910255D01*
X163158704Y-86910253D01*
X163167002Y-86906833D01*
X163174006Y-86901222D01*
X163174011Y-86901219D01*
X163182218Y-86894644D01*
X163199334Y-86883100D01*
X163278562Y-86838640D01*
X163289902Y-86833802D01*
X163289761Y-86833500D01*
X163297892Y-86829697D01*
X163306482Y-86827085D01*
X163346821Y-86800673D01*
X163354164Y-86796216D01*
X163359562Y-86793187D01*
X163368526Y-86788157D01*
X163369616Y-86787322D01*
X163436754Y-86766777D01*
X163504515Y-86785840D01*
X163507539Y-86788870D01*
X163539054Y-86806161D01*
X163541034Y-86807328D01*
X163542773Y-86808607D01*
X163546722Y-86810723D01*
X163546724Y-86810724D01*
X163573627Y-86825138D01*
X163574732Y-86825737D01*
X163595554Y-86837161D01*
X163608030Y-86844006D01*
X163610047Y-86844736D01*
X163612060Y-86845729D01*
X163633229Y-86857070D01*
X163641143Y-86861310D01*
X163667559Y-86866868D01*
X163684492Y-86871689D01*
X163794917Y-86911667D01*
X163807946Y-86916384D01*
X163816748Y-86919953D01*
X163858914Y-86938928D01*
X163910545Y-86946119D01*
X163918799Y-86947550D01*
X163969832Y-86958167D01*
X164019207Y-86954240D01*
X164027170Y-86953859D01*
X164135344Y-86952119D01*
X164155141Y-86953362D01*
X164176452Y-86956398D01*
X164185336Y-86955119D01*
X164185338Y-86955119D01*
X164189672Y-86954495D01*
X165737000Y-86954495D01*
X165737000Y-87427885D01*
X165741475Y-87443124D01*
X165742865Y-87444329D01*
X165750548Y-87446000D01*
X166977885Y-87446000D01*
X166993124Y-87441525D01*
X166994329Y-87440135D01*
X166996000Y-87432452D01*
X166996000Y-86455115D01*
X166994659Y-86450548D01*
X167504000Y-86450548D01*
X167504000Y-87427885D01*
X167508475Y-87443124D01*
X167509865Y-87444329D01*
X167517548Y-87446000D01*
X168744885Y-87446000D01*
X168760124Y-87441525D01*
X168761329Y-87440135D01*
X168763000Y-87432452D01*
X168763000Y-86952257D01*
X168762839Y-86947750D01*
X168758260Y-86883731D01*
X168755874Y-86870509D01*
X168719181Y-86745542D01*
X168711767Y-86729308D01*
X168642574Y-86621640D01*
X168630888Y-86608153D01*
X168534160Y-86524338D01*
X168519152Y-86514693D01*
X168402725Y-86461523D01*
X168385612Y-86456498D01*
X168254446Y-86437639D01*
X168245505Y-86437000D01*
X167522115Y-86437000D01*
X167506876Y-86441475D01*
X167505671Y-86442865D01*
X167504000Y-86450548D01*
X166994659Y-86450548D01*
X166991525Y-86439876D01*
X166990135Y-86438671D01*
X166982452Y-86437000D01*
X166252257Y-86437000D01*
X166247750Y-86437161D01*
X166183731Y-86441740D01*
X166170509Y-86444126D01*
X166045542Y-86480819D01*
X166029308Y-86488233D01*
X165921640Y-86557426D01*
X165908153Y-86569112D01*
X165824338Y-86665840D01*
X165814693Y-86680848D01*
X165761523Y-86797275D01*
X165756498Y-86814388D01*
X165737639Y-86945554D01*
X165737000Y-86954495D01*
X164189672Y-86954495D01*
X164212018Y-86951278D01*
X164215953Y-86950823D01*
X164219225Y-86950770D01*
X164223639Y-86950065D01*
X164223642Y-86950065D01*
X164233135Y-86948549D01*
X164252105Y-86945521D01*
X164253956Y-86945240D01*
X164289904Y-86940064D01*
X164293032Y-86939105D01*
X164296768Y-86938390D01*
X164329429Y-86933175D01*
X164342246Y-86927097D01*
X164353213Y-86922517D01*
X164383124Y-86911657D01*
X164389140Y-86909644D01*
X164411364Y-86902832D01*
X164419457Y-86899025D01*
X164430088Y-86894605D01*
X164441350Y-86890516D01*
X164460400Y-86880041D01*
X164467458Y-86876446D01*
X164504225Y-86859151D01*
X164504230Y-86859148D01*
X164512348Y-86855329D01*
X164519068Y-86849385D01*
X164526572Y-86844448D01*
X164526879Y-86844915D01*
X164536140Y-86838394D01*
X164563383Y-86823414D01*
X164580794Y-86815497D01*
X164594219Y-86810584D01*
X164594223Y-86810582D01*
X164602656Y-86807496D01*
X164609881Y-86802170D01*
X164609886Y-86802167D01*
X164631585Y-86786170D01*
X164633420Y-86784902D01*
X164635258Y-86783891D01*
X164638828Y-86781205D01*
X164638836Y-86781200D01*
X164663268Y-86762819D01*
X164664248Y-86762089D01*
X164686692Y-86745542D01*
X164694916Y-86739479D01*
X164696394Y-86737988D01*
X164698083Y-86736626D01*
X164724438Y-86716798D01*
X164737815Y-86698881D01*
X164740630Y-86695111D01*
X164752112Y-86681785D01*
X164790132Y-86643433D01*
X164798889Y-86636368D01*
X164798514Y-86635932D01*
X164805318Y-86630082D01*
X164812886Y-86625253D01*
X164822434Y-86614331D01*
X164845612Y-86587819D01*
X164850978Y-86582055D01*
X164864071Y-86568847D01*
X164871669Y-86558616D01*
X164877958Y-86550818D01*
X164885127Y-86542617D01*
X164888327Y-86538957D01*
X164897613Y-86524275D01*
X164902931Y-86516525D01*
X164930611Y-86479255D01*
X164933727Y-86470831D01*
X164938002Y-86462942D01*
X164938061Y-86462974D01*
X164944073Y-86450814D01*
X165025946Y-86321357D01*
X165026818Y-86319997D01*
X165032311Y-86311554D01*
X165037134Y-86304139D01*
X165039126Y-86299705D01*
X165039130Y-86299698D01*
X165151236Y-86050178D01*
X165154950Y-86042602D01*
X165160335Y-86032487D01*
X165160337Y-86032484D01*
X165162623Y-86028189D01*
X165165981Y-86018537D01*
X165170049Y-86008308D01*
X165171062Y-86006053D01*
X165171066Y-86006042D01*
X165172899Y-86001962D01*
X165175563Y-85992700D01*
X165177443Y-85986161D01*
X165179531Y-85979584D01*
X165190795Y-85947204D01*
X165271354Y-85715627D01*
X165276159Y-85703788D01*
X165276837Y-85702334D01*
X165278891Y-85697928D01*
X165284799Y-85677515D01*
X165286824Y-85671157D01*
X165291258Y-85658412D01*
X165291259Y-85658410D01*
X165292728Y-85654186D01*
X165293583Y-85649800D01*
X165293587Y-85649786D01*
X165294080Y-85647256D01*
X165296717Y-85636347D01*
X165389834Y-85314642D01*
X165390814Y-85311611D01*
X165392035Y-85308887D01*
X165400887Y-85276497D01*
X165401328Y-85274930D01*
X165409731Y-85245900D01*
X165410142Y-85242972D01*
X165410893Y-85239886D01*
X165417461Y-85215853D01*
X165417934Y-85214170D01*
X165473226Y-85022547D01*
X165474137Y-85019532D01*
X165494930Y-84953696D01*
X165534519Y-84894762D01*
X165569306Y-84874251D01*
X165672701Y-84833935D01*
X165674107Y-84833397D01*
X165689287Y-84827686D01*
X165700293Y-84824217D01*
X165701756Y-84823719D01*
X165706466Y-84822512D01*
X165710935Y-84820594D01*
X165710939Y-84820593D01*
X165728210Y-84813182D01*
X165733505Y-84811050D01*
X165752587Y-84803871D01*
X165756510Y-84801718D01*
X165756524Y-84801711D01*
X165756835Y-84801540D01*
X165767783Y-84796201D01*
X165854608Y-84758944D01*
X165855132Y-84758759D01*
X165856472Y-84758584D01*
X165859866Y-84757092D01*
X165859876Y-84757088D01*
X165897394Y-84740589D01*
X165898430Y-84740139D01*
X165947543Y-84719065D01*
X165947549Y-84719062D01*
X165951662Y-84717297D01*
X165954168Y-84715769D01*
X165956233Y-84714783D01*
X165956942Y-84714404D01*
X165961398Y-84712444D01*
X165965487Y-84709830D01*
X165965493Y-84709827D01*
X165997137Y-84689599D01*
X165999401Y-84688186D01*
X166046943Y-84659196D01*
X166047137Y-84659515D01*
X166053914Y-84655002D01*
X166061347Y-84652348D01*
X166102411Y-84622565D01*
X166108515Y-84618406D01*
X166121679Y-84609992D01*
X166121684Y-84609988D01*
X166125447Y-84607583D01*
X166128834Y-84604666D01*
X166128838Y-84604663D01*
X166134146Y-84600091D01*
X166142375Y-84593581D01*
X166180238Y-84566120D01*
X166185764Y-84558983D01*
X166203168Y-84540645D01*
X166210007Y-84534755D01*
X166214888Y-84527229D01*
X166214891Y-84527225D01*
X166235445Y-84495529D01*
X166241534Y-84486948D01*
X166247425Y-84479339D01*
X166250408Y-84475486D01*
X166259491Y-84459031D01*
X166264082Y-84451369D01*
X166285035Y-84419060D01*
X166285037Y-84419056D01*
X166289918Y-84411529D01*
X166292491Y-84402932D01*
X166296259Y-84394782D01*
X166296461Y-84394875D01*
X166301411Y-84383086D01*
X166302218Y-84381623D01*
X166303826Y-84378795D01*
X166307596Y-84372360D01*
X166326472Y-84340135D01*
X166327703Y-84338034D01*
X166327703Y-84338033D01*
X166332242Y-84330285D01*
X166341018Y-84295243D01*
X166345414Y-84281221D01*
X166355027Y-84255845D01*
X166355028Y-84255842D01*
X166358206Y-84247452D01*
X166358902Y-84238505D01*
X166358903Y-84238500D01*
X166359737Y-84227785D01*
X166363131Y-84206950D01*
X166365743Y-84196522D01*
X166365743Y-84196521D01*
X166367923Y-84187817D01*
X166366511Y-84151714D01*
X166366795Y-84137034D01*
X166369596Y-84101025D01*
X166367296Y-84090062D01*
X166365546Y-84081726D01*
X166362956Y-84060773D01*
X166362536Y-84050029D01*
X166362536Y-84050028D01*
X166362185Y-84041060D01*
X166359035Y-84031665D01*
X166350699Y-84006811D01*
X166346851Y-83992648D01*
X166339430Y-83957287D01*
X166314981Y-83911597D01*
X166314204Y-83910121D01*
X166282031Y-83848026D01*
X166279496Y-83842846D01*
X166260745Y-83802203D01*
X166260743Y-83802200D01*
X166256983Y-83794050D01*
X166247638Y-83783325D01*
X166229004Y-83761940D01*
X166221477Y-83752411D01*
X166196709Y-83717738D01*
X166186318Y-83709572D01*
X166169177Y-83693279D01*
X166166399Y-83690091D01*
X166160499Y-83683320D01*
X166124622Y-83660347D01*
X166114721Y-83653311D01*
X166088288Y-83632540D01*
X166088289Y-83632540D01*
X166081228Y-83626992D01*
X166064138Y-83620135D01*
X166053019Y-83614934D01*
X166046370Y-83610028D01*
X165999986Y-83593032D01*
X165992527Y-83590025D01*
X165980034Y-83584519D01*
X165980026Y-83584516D01*
X165975930Y-83582711D01*
X165965759Y-83579865D01*
X165952801Y-83575467D01*
X165944922Y-83572306D01*
X165945736Y-83570277D01*
X165943933Y-83569233D01*
X165942880Y-83572106D01*
X165937888Y-83570277D01*
X165908468Y-83559497D01*
X165899508Y-83558898D01*
X165895396Y-83558026D01*
X165881246Y-83555600D01*
X165877099Y-83555055D01*
X165868459Y-83552638D01*
X165859488Y-83552742D01*
X165859484Y-83552742D01*
X165820076Y-83553201D01*
X165810213Y-83552930D01*
X165798955Y-83552178D01*
X165798950Y-83552178D01*
X165794100Y-83551854D01*
X165789255Y-83552280D01*
X165777233Y-83553337D01*
X165767666Y-83553812D01*
X165766619Y-83553824D01*
X165730579Y-83554244D01*
X165730577Y-83554244D01*
X165721600Y-83554349D01*
X165713013Y-83556969D01*
X165704143Y-83558345D01*
X165704108Y-83558117D01*
X165699774Y-83559038D01*
X165670789Y-83562620D01*
X165666377Y-83563086D01*
X165640740Y-83565341D01*
X165640738Y-83565341D01*
X165636274Y-83565734D01*
X165631914Y-83566755D01*
X165630345Y-83567006D01*
X165619154Y-83569002D01*
X165617062Y-83569261D01*
X165617058Y-83569262D01*
X165612226Y-83569859D01*
X165592534Y-83575467D01*
X165585395Y-83577500D01*
X165579608Y-83579001D01*
X165527613Y-83591173D01*
X165519798Y-83595590D01*
X165519781Y-83595597D01*
X165508468Y-83599407D01*
X165501546Y-83601378D01*
X165450857Y-83615813D01*
X165440341Y-83618325D01*
X165434265Y-83619504D01*
X165434261Y-83619505D01*
X165429477Y-83620433D01*
X165424900Y-83622084D01*
X165424891Y-83622086D01*
X165414179Y-83625949D01*
X165405959Y-83628599D01*
X165393487Y-83632150D01*
X165382968Y-83636843D01*
X165374404Y-83640292D01*
X165221158Y-83695552D01*
X165209907Y-83699609D01*
X165205865Y-83700934D01*
X165202263Y-83701703D01*
X165194948Y-83704496D01*
X165172157Y-83713197D01*
X165169961Y-83714012D01*
X165146933Y-83722316D01*
X165146924Y-83722320D01*
X165142706Y-83723841D01*
X165139493Y-83725548D01*
X165135508Y-83727190D01*
X164760209Y-83870479D01*
X164750443Y-83873757D01*
X164716366Y-83883664D01*
X164716362Y-83883666D01*
X164707749Y-83886170D01*
X164662107Y-83915260D01*
X164655569Y-83919154D01*
X164616103Y-83941072D01*
X164616099Y-83941075D01*
X164608256Y-83945431D01*
X164601948Y-83951816D01*
X164596583Y-83955888D01*
X164591468Y-83960281D01*
X164583896Y-83965107D01*
X164577986Y-83971860D01*
X164577983Y-83971863D01*
X164548240Y-84005851D01*
X164543055Y-84011426D01*
X164520350Y-84034408D01*
X164505035Y-84049910D01*
X164500772Y-84057809D01*
X164496758Y-84063233D01*
X164493090Y-84068873D01*
X164487176Y-84075631D01*
X164483398Y-84083773D01*
X164483398Y-84083774D01*
X164464399Y-84124725D01*
X164460986Y-84131534D01*
X164439548Y-84171261D01*
X164439547Y-84171264D01*
X164435286Y-84179160D01*
X164427158Y-84217228D01*
X164425288Y-84225984D01*
X164423162Y-84234482D01*
X164359940Y-84454401D01*
X164359750Y-84455061D01*
X164359724Y-84455139D01*
X164359682Y-84455230D01*
X164359604Y-84455503D01*
X164359601Y-84455511D01*
X164349013Y-84492409D01*
X164348993Y-84492477D01*
X164348683Y-84493555D01*
X164348630Y-84493716D01*
X164348486Y-84494028D01*
X164348212Y-84494989D01*
X164340678Y-84521403D01*
X164340598Y-84521682D01*
X164339566Y-84525269D01*
X164337498Y-84524674D01*
X164337477Y-84524713D01*
X164339562Y-84525308D01*
X164339561Y-84525317D01*
X164338253Y-84529902D01*
X164328604Y-84563527D01*
X164328559Y-84563851D01*
X164328495Y-84564111D01*
X164294775Y-84682326D01*
X164294695Y-84682571D01*
X164294564Y-84682856D01*
X164294317Y-84683726D01*
X164294315Y-84683733D01*
X164285897Y-84713419D01*
X164284346Y-84718887D01*
X164274783Y-84752414D01*
X164274741Y-84752726D01*
X164274680Y-84752973D01*
X164232277Y-84902497D01*
X164232202Y-84902728D01*
X164232082Y-84902990D01*
X164231852Y-84903807D01*
X164231847Y-84903821D01*
X164221929Y-84938987D01*
X164221880Y-84939161D01*
X164213392Y-84969094D01*
X164212386Y-84972640D01*
X164212348Y-84972924D01*
X164212291Y-84973157D01*
X164164335Y-85143179D01*
X164163012Y-85147869D01*
X164162740Y-85148822D01*
X164107736Y-85338119D01*
X164106499Y-85342123D01*
X164101711Y-85356743D01*
X164061499Y-85415252D01*
X163996037Y-85442733D01*
X163926109Y-85430461D01*
X163901641Y-85414592D01*
X163866573Y-85385571D01*
X163854815Y-85375840D01*
X163853200Y-85374481D01*
X163808297Y-85336034D01*
X163801479Y-85330196D01*
X163793297Y-85326507D01*
X163793293Y-85326504D01*
X163779319Y-85320203D01*
X163767117Y-85313216D01*
X163765631Y-85311807D01*
X163757644Y-85307707D01*
X163752779Y-85304260D01*
X163740302Y-85296286D01*
X163732970Y-85290558D01*
X163732968Y-85290557D01*
X163725898Y-85285034D01*
X163676254Y-85265283D01*
X163665293Y-85260303D01*
X163647444Y-85251141D01*
X163634970Y-85244738D01*
X163626154Y-85243045D01*
X163617667Y-85240119D01*
X163617733Y-85239927D01*
X163606853Y-85236656D01*
X163597464Y-85232745D01*
X163593317Y-85232286D01*
X163589433Y-85230741D01*
X163580737Y-85229920D01*
X163580732Y-85229919D01*
X163552400Y-85227244D01*
X163541636Y-85226228D01*
X163529727Y-85224526D01*
X163490737Y-85217038D01*
X163481802Y-85217887D01*
X163474465Y-85217538D01*
X163464358Y-85217460D01*
X163460403Y-85217587D01*
X163451485Y-85216601D01*
X163442645Y-85218158D01*
X163442643Y-85218158D01*
X163417074Y-85222661D01*
X163409282Y-85223580D01*
X163409289Y-85223632D01*
X163404838Y-85224220D01*
X163400375Y-85224490D01*
X163395997Y-85225389D01*
X163393584Y-85225708D01*
X163383325Y-85227244D01*
X163353467Y-85230081D01*
X163353464Y-85230082D01*
X163344527Y-85230931D01*
X163336183Y-85234256D01*
X163335920Y-85234320D01*
X163324189Y-85237653D01*
X163324213Y-85237727D01*
X163315686Y-85240521D01*
X163306842Y-85242078D01*
X163302213Y-85244365D01*
X163301365Y-85244590D01*
X163299854Y-85245133D01*
X163291057Y-85246939D01*
X163256601Y-85265186D01*
X163244296Y-85270876D01*
X163238049Y-85273366D01*
X163233856Y-85275844D01*
X163233849Y-85275847D01*
X163214273Y-85287414D01*
X163205983Y-85291903D01*
X163193603Y-85298019D01*
X163193463Y-85298088D01*
X163193429Y-85298019D01*
X163193260Y-85298151D01*
X163187664Y-85299878D01*
X163181219Y-85304136D01*
X163178863Y-85305300D01*
X163175180Y-85307119D01*
X163175177Y-85307121D01*
X163175165Y-85307127D01*
X163175150Y-85307141D01*
X163172532Y-85309047D01*
X163170882Y-85310582D01*
X163169202Y-85311472D01*
X163161266Y-85315675D01*
X163158393Y-85318469D01*
X163155202Y-85319611D01*
X163155991Y-85320805D01*
X163143615Y-85328982D01*
X163138263Y-85332329D01*
X163118037Y-85344280D01*
X163111211Y-85349754D01*
X163101854Y-85356575D01*
X163092031Y-85363065D01*
X163088436Y-85366337D01*
X163088424Y-85366346D01*
X163075784Y-85377849D01*
X163069811Y-85382954D01*
X163037977Y-85408484D01*
X163037975Y-85408486D01*
X163030976Y-85414099D01*
X163025832Y-85421452D01*
X163019696Y-85428005D01*
X163019267Y-85427603D01*
X163011872Y-85436014D01*
X163004489Y-85442733D01*
X162986770Y-85458858D01*
X162980387Y-85464289D01*
X162967522Y-85474519D01*
X162960673Y-85481950D01*
X162952842Y-85489734D01*
X162947790Y-85494332D01*
X162944945Y-85497777D01*
X162944936Y-85497787D01*
X162937265Y-85507078D01*
X162932766Y-85512235D01*
X162913796Y-85532821D01*
X162861932Y-85589103D01*
X162860267Y-85590796D01*
X162858417Y-85592303D01*
X162849238Y-85602505D01*
X162842760Y-85609704D01*
X162782326Y-85646965D01*
X162711342Y-85645637D01*
X162652344Y-85606144D01*
X162624063Y-85541023D01*
X162623095Y-85525833D01*
X162623051Y-85512213D01*
X162623058Y-85510343D01*
X162623127Y-85504448D01*
X162624628Y-85375162D01*
X162625513Y-85298908D01*
X162625553Y-85296899D01*
X162632792Y-85034324D01*
X162632862Y-85032334D01*
X162643534Y-84786368D01*
X162643684Y-84783619D01*
X162656559Y-84586465D01*
X162656672Y-84584883D01*
X162664311Y-84486896D01*
X162665155Y-84480817D01*
X162664986Y-84480796D01*
X162665575Y-84475965D01*
X162666534Y-84471196D01*
X162667741Y-84443810D01*
X162667997Y-84439605D01*
X162669875Y-84415519D01*
X162669587Y-84411053D01*
X162669617Y-84406562D01*
X162669711Y-84406563D01*
X162669649Y-84400515D01*
X162669898Y-84394877D01*
X162674334Y-84294220D01*
X162674725Y-84288411D01*
X162675319Y-84281862D01*
X162676653Y-84267126D01*
X162676341Y-84262275D01*
X162676382Y-84259181D01*
X162676376Y-84258570D01*
X162676224Y-84258574D01*
X162676103Y-84254096D01*
X162676300Y-84249615D01*
X162674291Y-84229216D01*
X162673944Y-84224958D01*
X162672244Y-84198496D01*
X162672766Y-84187411D01*
X162672157Y-84187401D01*
X162672303Y-84178427D01*
X162673719Y-84169564D01*
X162668781Y-84130588D01*
X162667444Y-84120035D01*
X162666704Y-84112277D01*
X162665780Y-84097895D01*
X162665493Y-84093427D01*
X162662936Y-84081215D01*
X162661262Y-84071234D01*
X162659925Y-84060684D01*
X162659924Y-84060677D01*
X162659312Y-84055850D01*
X162657636Y-84050029D01*
X162654425Y-84038885D01*
X162652177Y-84029832D01*
X162644460Y-83992979D01*
X162642621Y-83984196D01*
X162641471Y-83982044D01*
X162641395Y-83980848D01*
X162624868Y-83935258D01*
X162622248Y-83927193D01*
X162622102Y-83926687D01*
X162617584Y-83911002D01*
X162611748Y-83898028D01*
X162608206Y-83889294D01*
X162607817Y-83888221D01*
X162602331Y-83873087D01*
X162599993Y-83868830D01*
X162599989Y-83868821D01*
X162594770Y-83859318D01*
X162590302Y-83850356D01*
X162584674Y-83837844D01*
X162571800Y-83809227D01*
X162565965Y-83802401D01*
X162561161Y-83794822D01*
X162562393Y-83794041D01*
X162547828Y-83769229D01*
X162543841Y-83758453D01*
X162538489Y-83751248D01*
X162538488Y-83751245D01*
X162513221Y-83717226D01*
X162509163Y-83711428D01*
X162500046Y-83697593D01*
X162500043Y-83697589D01*
X162497570Y-83693836D01*
X162490487Y-83685839D01*
X162483671Y-83677442D01*
X162475496Y-83666435D01*
X162472025Y-83663019D01*
X162471939Y-83662920D01*
X162467259Y-83657136D01*
X162466978Y-83656856D01*
X162461587Y-83649682D01*
X162454398Y-83644309D01*
X162451211Y-83641130D01*
X162445886Y-83635482D01*
X162423577Y-83610293D01*
X162415976Y-83605512D01*
X162409133Y-83599705D01*
X162409346Y-83599454D01*
X162399668Y-83591794D01*
X162340392Y-83533448D01*
X162329602Y-83521367D01*
X162316331Y-83504431D01*
X162316329Y-83504430D01*
X162310793Y-83497364D01*
X162254580Y-83457094D01*
X162253192Y-83456085D01*
X162222555Y-83433500D01*
X162197636Y-83415130D01*
X162189212Y-83412048D01*
X162189207Y-83412045D01*
X162165513Y-83403376D01*
X162152060Y-83397546D01*
X162040029Y-83341035D01*
X162024516Y-83331758D01*
X162010679Y-83322071D01*
X162010678Y-83322071D01*
X162003324Y-83316922D01*
X161994820Y-83314045D01*
X161994815Y-83314042D01*
X161969792Y-83305575D01*
X161969541Y-83305480D01*
X161969279Y-83305348D01*
X161968469Y-83305075D01*
X161968458Y-83305071D01*
X161933170Y-83293184D01*
X161933009Y-83293130D01*
X161931889Y-83292751D01*
X161894749Y-83280184D01*
X161894457Y-83280133D01*
X161894228Y-83280066D01*
X161863519Y-83269721D01*
X161854553Y-83269358D01*
X161854552Y-83269358D01*
X161833894Y-83268522D01*
X161817448Y-83266770D01*
X161723964Y-83250548D01*
X161710997Y-83246864D01*
X161710977Y-83246946D01*
X161702253Y-83244815D01*
X161693925Y-83241470D01*
X161684992Y-83240597D01*
X161684991Y-83240597D01*
X161647608Y-83236945D01*
X161638314Y-83235686D01*
X161628710Y-83234019D01*
X161628703Y-83234018D01*
X161624282Y-83233251D01*
X161619798Y-83233118D01*
X161619794Y-83233118D01*
X161607790Y-83232763D01*
X161599268Y-83232221D01*
X161584688Y-83230797D01*
X161584686Y-83230797D01*
X161579845Y-83230324D01*
X161577178Y-83230476D01*
X161572922Y-83230073D01*
X161566551Y-83229904D01*
X161557700Y-83228395D01*
X161548782Y-83229431D01*
X161548777Y-83229431D01*
X161546997Y-83229638D01*
X161528736Y-83230425D01*
X161521703Y-83230217D01*
X161521701Y-83230217D01*
X161512732Y-83229952D01*
X161504031Y-83232219D01*
X161504032Y-83232219D01*
X161488370Y-83235256D01*
X161484288Y-83235782D01*
X161479814Y-83236038D01*
X161473933Y-83237226D01*
X161468598Y-83238303D01*
X161458198Y-83239955D01*
X161448679Y-83241061D01*
X161448678Y-83241061D01*
X161443843Y-83241623D01*
X161425689Y-83246649D01*
X161417035Y-83248719D01*
X161410694Y-83250000D01*
X161379220Y-83256357D01*
X161379217Y-83256358D01*
X161370425Y-83258134D01*
X161362481Y-83262308D01*
X161354023Y-83265315D01*
X161353946Y-83265098D01*
X161342048Y-83269808D01*
X161327205Y-83273918D01*
X161318649Y-83275819D01*
X161311199Y-83276005D01*
X161302651Y-83278738D01*
X161302646Y-83278739D01*
X161258822Y-83292751D01*
X161254072Y-83294167D01*
X161231189Y-83300503D01*
X161231184Y-83300505D01*
X161226867Y-83301700D01*
X161222036Y-83303813D01*
X161209926Y-83308384D01*
X161206661Y-83309428D01*
X161206657Y-83309429D01*
X161202021Y-83310912D01*
X161197669Y-83313089D01*
X161197665Y-83313091D01*
X161191172Y-83316340D01*
X161178579Y-83322641D01*
X161172709Y-83325391D01*
X161132842Y-83342830D01*
X161132840Y-83342831D01*
X161124622Y-83346426D01*
X161117745Y-83352182D01*
X161115100Y-83353820D01*
X161105127Y-83359389D01*
X161013305Y-83405330D01*
X160983075Y-83420455D01*
X160977940Y-83423024D01*
X160977108Y-83423437D01*
X160969590Y-83427127D01*
X160898063Y-83477199D01*
X160884034Y-83486924D01*
X160880019Y-83489707D01*
X160877976Y-83486760D01*
X160877646Y-83486924D01*
X160879792Y-83489989D01*
X160842412Y-83516156D01*
X160835384Y-83520549D01*
X160828655Y-83523115D01*
X160821504Y-83528537D01*
X160821501Y-83528539D01*
X160784678Y-83556461D01*
X160780805Y-83559284D01*
X160760836Y-83573263D01*
X160760833Y-83573266D01*
X160757161Y-83575836D01*
X160753889Y-83578903D01*
X160753625Y-83579150D01*
X160743601Y-83587608D01*
X160741198Y-83589430D01*
X160741189Y-83589438D01*
X160737321Y-83592371D01*
X160733950Y-83595864D01*
X160733947Y-83595867D01*
X160718737Y-83611629D01*
X160714233Y-83616067D01*
X160682288Y-83646008D01*
X160675734Y-83652151D01*
X160671170Y-83659883D01*
X160669869Y-83661506D01*
X160662209Y-83670211D01*
X160660414Y-83672072D01*
X160649430Y-83683454D01*
X160642785Y-83689672D01*
X160636318Y-83693717D01*
X160630355Y-83700417D01*
X160630350Y-83700421D01*
X160599874Y-83734662D01*
X160596427Y-83738381D01*
X160584015Y-83751245D01*
X160577124Y-83758387D01*
X160574497Y-83762026D01*
X160573862Y-83762906D01*
X160565828Y-83772916D01*
X160563356Y-83775693D01*
X160563349Y-83775703D01*
X160560112Y-83779339D01*
X160546100Y-83801064D01*
X160542400Y-83806484D01*
X160539019Y-83811167D01*
X160517052Y-83841592D01*
X160517050Y-83841596D01*
X160511799Y-83848869D01*
X160508799Y-83857327D01*
X160507016Y-83860727D01*
X160501321Y-83870493D01*
X160482316Y-83899960D01*
X160481305Y-83902162D01*
X160479463Y-83905277D01*
X160465526Y-83927193D01*
X160460258Y-83935476D01*
X160457763Y-83944088D01*
X160457760Y-83944096D01*
X160453058Y-83960330D01*
X160446534Y-83977863D01*
X160435736Y-84001373D01*
X160434430Y-84010252D01*
X160434429Y-84010254D01*
X160430937Y-84033990D01*
X160429695Y-84040995D01*
X160428369Y-84045573D01*
X160427751Y-84050395D01*
X160427750Y-84050400D01*
X160425080Y-84071234D01*
X160423474Y-84083774D01*
X160422685Y-84089928D01*
X160422374Y-84092189D01*
X160417160Y-84127619D01*
X160417150Y-84127687D01*
X160416162Y-84133462D01*
X160410857Y-84160661D01*
X160408731Y-84171560D01*
X159993159Y-84171560D01*
X159989988Y-84160646D01*
X159985978Y-84141284D01*
X159984433Y-84129053D01*
X159983440Y-84121192D01*
X159967814Y-84081726D01*
X159967166Y-84080088D01*
X159963321Y-84068858D01*
X159953198Y-84034014D01*
X159953197Y-84034012D01*
X159950986Y-84026401D01*
X159940677Y-84008969D01*
X159931980Y-83991216D01*
X159927442Y-83979755D01*
X159924522Y-83972380D01*
X159907876Y-83949469D01*
X159898531Y-83936606D01*
X159892016Y-83926687D01*
X159872529Y-83893738D01*
X159872524Y-83893731D01*
X159869513Y-83888639D01*
X159869145Y-83888221D01*
X159855062Y-83874138D01*
X159842228Y-83859113D01*
X159830446Y-83842897D01*
X159796664Y-83814950D01*
X159787885Y-83806961D01*
X154904519Y-78923595D01*
X154870493Y-78861283D01*
X154875558Y-78790468D01*
X154918105Y-78733632D01*
X154984625Y-78708821D01*
X154993614Y-78708500D01*
X159131959Y-78708500D01*
X159200080Y-78728502D01*
X159246573Y-78782158D01*
X159256677Y-78852432D01*
X159241078Y-78897499D01*
X159165476Y-79028446D01*
X159163434Y-79034731D01*
X159110471Y-79197736D01*
X159106462Y-79210073D01*
X159105772Y-79216636D01*
X159105772Y-79216637D01*
X159094030Y-79328360D01*
X159086500Y-79400000D01*
X159087190Y-79406565D01*
X159105325Y-79579105D01*
X159106462Y-79589927D01*
X159108502Y-79596205D01*
X159108502Y-79596206D01*
X159125050Y-79647136D01*
X159165476Y-79771554D01*
X159260963Y-79936942D01*
X159325435Y-80008546D01*
X159356151Y-80072551D01*
X159356516Y-80110783D01*
X159336500Y-80250000D01*
X159336500Y-81750000D01*
X159341727Y-81823079D01*
X159358312Y-81879562D01*
X159374712Y-81935415D01*
X159382904Y-81963316D01*
X159398276Y-81987235D01*
X159457051Y-82078691D01*
X159457053Y-82078694D01*
X159461923Y-82086271D01*
X159468733Y-82092172D01*
X159565569Y-82176082D01*
X159565572Y-82176084D01*
X159572381Y-82181984D01*
X159580579Y-82185728D01*
X159639907Y-82212822D01*
X159705330Y-82242700D01*
X159714245Y-82243982D01*
X159714246Y-82243982D01*
X159845552Y-82262861D01*
X159845559Y-82262862D01*
X159850000Y-82263500D01*
X161350000Y-82263500D01*
X161423079Y-82258273D01*
X161512612Y-82231984D01*
X161554670Y-82219635D01*
X161554672Y-82219634D01*
X161563316Y-82217096D01*
X161627135Y-82176082D01*
X161678691Y-82142949D01*
X161678694Y-82142947D01*
X161686271Y-82138077D01*
X161720253Y-82098860D01*
X161776082Y-82034431D01*
X161776084Y-82034428D01*
X161781984Y-82027619D01*
X161788516Y-82013316D01*
X161838958Y-81902864D01*
X161838958Y-81902863D01*
X161842700Y-81894670D01*
X161848592Y-81853692D01*
X161862861Y-81754448D01*
X161862862Y-81754441D01*
X161863500Y-81750000D01*
X161863500Y-80250000D01*
X161858273Y-80176921D01*
X161846190Y-80135768D01*
X167389797Y-80135768D01*
X167421521Y-80243557D01*
X167426120Y-80254941D01*
X167512004Y-80419222D01*
X167518718Y-80429483D01*
X167634880Y-80573959D01*
X167643458Y-80582719D01*
X167785470Y-80701881D01*
X167795584Y-80708807D01*
X167958042Y-80798118D01*
X167969306Y-80802946D01*
X168146016Y-80859002D01*
X168158003Y-80861550D01*
X168301161Y-80877607D01*
X168308185Y-80878000D01*
X168640385Y-80878000D01*
X168655624Y-80873525D01*
X168656829Y-80872135D01*
X168658500Y-80864452D01*
X168658500Y-80142115D01*
X168654025Y-80126876D01*
X168652635Y-80125671D01*
X168644952Y-80124000D01*
X167404448Y-80124000D01*
X167390917Y-80127973D01*
X167389797Y-80135768D01*
X161846190Y-80135768D01*
X161829922Y-80080365D01*
X161819635Y-80045330D01*
X161819634Y-80045328D01*
X161817096Y-80036684D01*
X161764300Y-79954532D01*
X161742949Y-79921309D01*
X161742947Y-79921306D01*
X161738077Y-79913729D01*
X161703442Y-79883717D01*
X161634431Y-79823918D01*
X161634428Y-79823916D01*
X161627619Y-79818016D01*
X161619421Y-79814272D01*
X161502864Y-79761042D01*
X161502863Y-79761042D01*
X161494670Y-79757300D01*
X161485755Y-79756018D01*
X161485754Y-79756018D01*
X161354448Y-79737139D01*
X161354441Y-79737138D01*
X161350000Y-79736500D01*
X161255762Y-79736500D01*
X161187641Y-79716498D01*
X161153827Y-79684562D01*
X161133535Y-79656633D01*
X161127016Y-79646709D01*
X161120684Y-79636002D01*
X161104514Y-79608659D01*
X161104145Y-79608241D01*
X161090062Y-79594158D01*
X161077228Y-79579133D01*
X161065446Y-79562917D01*
X161031664Y-79534970D01*
X161022885Y-79526981D01*
X160947118Y-79451214D01*
X160913092Y-79388902D01*
X160910903Y-79375290D01*
X160894228Y-79216637D01*
X160894228Y-79216636D01*
X160893538Y-79210073D01*
X160889530Y-79197736D01*
X160836566Y-79034731D01*
X160834524Y-79028446D01*
X160758922Y-78897500D01*
X160742184Y-78828505D01*
X160765404Y-78761413D01*
X160821211Y-78717526D01*
X160868041Y-78708500D01*
X166873500Y-78708500D01*
X166941621Y-78728502D01*
X166988114Y-78782158D01*
X166999500Y-78834500D01*
X166999500Y-78997743D01*
X166999661Y-79002250D01*
X167004240Y-79066269D01*
X167006626Y-79079491D01*
X167043319Y-79204458D01*
X167050733Y-79220692D01*
X167119926Y-79328360D01*
X167131612Y-79341847D01*
X167228340Y-79425662D01*
X167243348Y-79435307D01*
X167317665Y-79469246D01*
X167371321Y-79515739D01*
X167391310Y-79585698D01*
X167390915Y-79612795D01*
X167397670Y-79616000D01*
X169040500Y-79616000D01*
X169108621Y-79636002D01*
X169155114Y-79689658D01*
X169166500Y-79742000D01*
X169166500Y-80859885D01*
X169170975Y-80875124D01*
X169172365Y-80876329D01*
X169180048Y-80878000D01*
X169510412Y-80878000D01*
X169516560Y-80877699D01*
X169653126Y-80864309D01*
X169665161Y-80861926D01*
X169842624Y-80808346D01*
X169853967Y-80803671D01*
X169981347Y-80735942D01*
X170050884Y-80721622D01*
X170117125Y-80747170D01*
X170159037Y-80804475D01*
X170166500Y-80847193D01*
X170166500Y-81435405D01*
X170146498Y-81503526D01*
X170129595Y-81524500D01*
X169954500Y-81699595D01*
X169892188Y-81733621D01*
X169865405Y-81736500D01*
X169550000Y-81736500D01*
X169539960Y-81737218D01*
X169483653Y-81741245D01*
X169483648Y-81741246D01*
X169476921Y-81741727D01*
X169475929Y-81742018D01*
X169471841Y-81741579D01*
X169472048Y-81743158D01*
X169353408Y-81758672D01*
X169353407Y-81758672D01*
X169348958Y-81759254D01*
X169344643Y-81760459D01*
X169344642Y-81760459D01*
X169282233Y-81777884D01*
X169208731Y-81798406D01*
X169204632Y-81800209D01*
X169204628Y-81800211D01*
X169123798Y-81835777D01*
X169078972Y-81855501D01*
X168955366Y-81932439D01*
X168846847Y-82023659D01*
X168843865Y-82026994D01*
X168843861Y-82026998D01*
X168797642Y-82078691D01*
X168749806Y-82132192D01*
X168747320Y-82135927D01*
X168747319Y-82135928D01*
X168673736Y-82246468D01*
X168673733Y-82246474D01*
X168671251Y-82250202D01*
X168669324Y-82254241D01*
X168669320Y-82254249D01*
X168636225Y-82323635D01*
X168608570Y-82381616D01*
X168607232Y-82385897D01*
X168607231Y-82385901D01*
X168585540Y-82455330D01*
X168566295Y-82516931D01*
X168543018Y-82660650D01*
X168542699Y-82678098D01*
X168542238Y-82703246D01*
X168540976Y-82718867D01*
X168536500Y-82750000D01*
X168536500Y-83250000D01*
X168541727Y-83323079D01*
X168543630Y-83329561D01*
X168543631Y-83329565D01*
X168552397Y-83359420D01*
X168556219Y-83412848D01*
X168537139Y-83545552D01*
X168537138Y-83545559D01*
X168536500Y-83550000D01*
X168536500Y-84050000D01*
X168541727Y-84123079D01*
X168543615Y-84129509D01*
X168544618Y-84136091D01*
X168557611Y-84240402D01*
X168558416Y-84246869D01*
X168559592Y-84251181D01*
X168559593Y-84251188D01*
X168578784Y-84321576D01*
X168595705Y-84383642D01*
X168620657Y-84441302D01*
X168643644Y-84494421D01*
X168653526Y-84517258D01*
X168655874Y-84521082D01*
X168716851Y-84620393D01*
X168727703Y-84638068D01*
X168730563Y-84641513D01*
X168730566Y-84641517D01*
X168772558Y-84692096D01*
X168820705Y-84750089D01*
X168824027Y-84753096D01*
X168824029Y-84753098D01*
X168871649Y-84796201D01*
X168925809Y-84845224D01*
X169046508Y-84926637D01*
X169050542Y-84928592D01*
X169050543Y-84928592D01*
X169095439Y-84950344D01*
X169148022Y-84998047D01*
X169166500Y-85063736D01*
X169166500Y-88965504D01*
X169146498Y-89033625D01*
X169092842Y-89080118D01*
X169040500Y-89091504D01*
X168904513Y-89091504D01*
X168898053Y-89092877D01*
X168898054Y-89092877D01*
X168854049Y-89102230D01*
X168783259Y-89096828D01*
X168726626Y-89054011D01*
X168717784Y-89039027D01*
X168717096Y-89036684D01*
X168638817Y-88914880D01*
X168618815Y-88846761D01*
X168638817Y-88778640D01*
X168649590Y-88764248D01*
X168675662Y-88734160D01*
X168685307Y-88719152D01*
X168738477Y-88602725D01*
X168743502Y-88585612D01*
X168762361Y-88454446D01*
X168763000Y-88445505D01*
X168763000Y-87972115D01*
X168758525Y-87956876D01*
X168757135Y-87955671D01*
X168749452Y-87954000D01*
X165755115Y-87954000D01*
X165739876Y-87958475D01*
X165738670Y-87959867D01*
X165737908Y-87963369D01*
X165703883Y-88025681D01*
X165641571Y-88059706D01*
X165570755Y-88054641D01*
X165528137Y-88028059D01*
X165407355Y-87913642D01*
X165254445Y-87824825D01*
X165101577Y-87778526D01*
X165091395Y-87775442D01*
X165091394Y-87775442D01*
X165085204Y-87773567D01*
X165078764Y-87772992D01*
X165078763Y-87772992D01*
X165008815Y-87766749D01*
X165008809Y-87766749D01*
X165006022Y-87766500D01*
X164407114Y-87766500D01*
X164317680Y-87776927D01*
X164281629Y-87781130D01*
X164281628Y-87781130D01*
X164274357Y-87781978D01*
X164267479Y-87784474D01*
X164267477Y-87784475D01*
X164156315Y-87824825D01*
X164108136Y-87842313D01*
X164004949Y-87909965D01*
X163991050Y-87919078D01*
X163960253Y-87939269D01*
X163955222Y-87944580D01*
X163955217Y-87944584D01*
X163840450Y-88065736D01*
X163779081Y-88101435D01*
X163708154Y-88098288D01*
X163650189Y-88057294D01*
X163643606Y-88048171D01*
X163639359Y-88041693D01*
X163630035Y-88030542D01*
X163512371Y-87919078D01*
X163500724Y-87910365D01*
X163360571Y-87828957D01*
X163347246Y-87823163D01*
X163191300Y-87775932D01*
X163178677Y-87773484D01*
X163108816Y-87767249D01*
X163103221Y-87767000D01*
X163072115Y-87767000D01*
X163056876Y-87771475D01*
X163055671Y-87772865D01*
X163054000Y-87780548D01*
X163054000Y-90214885D01*
X163058475Y-90230124D01*
X163059865Y-90231329D01*
X163067548Y-90233000D01*
X163089223Y-90233000D01*
X163096524Y-90232576D01*
X163218255Y-90218383D01*
X163232410Y-90215037D01*
X163384761Y-90159737D01*
X163397760Y-90153227D01*
X163533306Y-90064359D01*
X163544458Y-90055035D01*
X163658919Y-89934207D01*
X163720288Y-89898509D01*
X163791215Y-89901656D01*
X163849181Y-89942650D01*
X163855763Y-89951774D01*
X163860046Y-89958306D01*
X163864269Y-89964747D01*
X163992645Y-90086358D01*
X164145555Y-90175175D01*
X164314796Y-90226433D01*
X164321236Y-90227008D01*
X164321237Y-90227008D01*
X164391185Y-90233251D01*
X164391191Y-90233251D01*
X164393978Y-90233500D01*
X164985406Y-90233500D01*
X165053527Y-90253502D01*
X165074501Y-90270405D01*
X165196609Y-90392513D01*
X165203969Y-90400601D01*
X165208027Y-90406995D01*
X165213804Y-90412420D01*
X165256878Y-90452869D01*
X165259720Y-90455624D01*
X165280034Y-90475938D01*
X165283445Y-90478583D01*
X165292465Y-90486287D01*
X165324699Y-90516557D01*
X165331643Y-90520374D01*
X165331645Y-90520376D01*
X165342453Y-90526318D01*
X165358977Y-90537172D01*
X165368711Y-90544723D01*
X165368713Y-90544724D01*
X165374977Y-90549583D01*
X165415561Y-90567146D01*
X165426190Y-90572353D01*
X165464952Y-90593662D01*
X165484578Y-90598701D01*
X165503271Y-90605102D01*
X165521865Y-90613148D01*
X165562511Y-90619586D01*
X165565531Y-90620064D01*
X165577154Y-90622471D01*
X165619975Y-90633465D01*
X165620531Y-90633500D01*
X165623768Y-90633500D01*
X165630531Y-90634571D01*
X165694685Y-90664982D01*
X165732213Y-90725249D01*
X165736502Y-90750030D01*
X165741727Y-90823079D01*
X165762376Y-90893402D01*
X165766808Y-90908496D01*
X165782904Y-90963316D01*
X165787774Y-90970894D01*
X165787775Y-90970896D01*
X165860904Y-91084686D01*
X165880906Y-91152807D01*
X165860904Y-91220928D01*
X165850132Y-91235318D01*
X165818016Y-91272381D01*
X165817671Y-91273137D01*
X165767137Y-91316923D01*
X165696863Y-91327025D01*
X165632283Y-91297531D01*
X165609427Y-91271395D01*
X165585731Y-91235253D01*
X165457355Y-91113642D01*
X165304445Y-91024825D01*
X165143013Y-90975932D01*
X165141395Y-90975442D01*
X165141394Y-90975442D01*
X165135204Y-90973567D01*
X165128764Y-90972992D01*
X165128763Y-90972992D01*
X165058815Y-90966749D01*
X165058809Y-90966749D01*
X165056022Y-90966500D01*
X164457114Y-90966500D01*
X164361894Y-90977602D01*
X164331629Y-90981130D01*
X164331628Y-90981130D01*
X164324357Y-90981978D01*
X164317479Y-90984474D01*
X164317477Y-90984475D01*
X164196185Y-91028502D01*
X164158136Y-91042313D01*
X164091089Y-91086271D01*
X164041050Y-91119078D01*
X164010253Y-91139269D01*
X164005222Y-91144580D01*
X164005217Y-91144584D01*
X163890450Y-91265736D01*
X163829081Y-91301435D01*
X163758154Y-91298288D01*
X163700189Y-91257294D01*
X163693606Y-91248171D01*
X163689359Y-91241693D01*
X163680035Y-91230542D01*
X163562371Y-91119078D01*
X163550724Y-91110365D01*
X163410571Y-91028957D01*
X163397246Y-91023163D01*
X163241300Y-90975932D01*
X163228677Y-90973484D01*
X163158816Y-90967249D01*
X163153221Y-90967000D01*
X163122115Y-90967000D01*
X163106876Y-90971475D01*
X163105671Y-90972865D01*
X163104000Y-90980548D01*
X163104000Y-93414885D01*
X163108475Y-93430124D01*
X163109865Y-93431329D01*
X163117548Y-93433000D01*
X163139223Y-93433000D01*
X163146524Y-93432576D01*
X163268255Y-93418383D01*
X163282410Y-93415037D01*
X163434761Y-93359737D01*
X163447760Y-93353227D01*
X163583306Y-93264359D01*
X163594458Y-93255035D01*
X163708919Y-93134207D01*
X163770288Y-93098509D01*
X163841215Y-93101656D01*
X163899181Y-93142650D01*
X163905763Y-93151774D01*
X163906088Y-93152269D01*
X163914269Y-93164747D01*
X164042645Y-93286358D01*
X164195555Y-93375175D01*
X164364796Y-93426433D01*
X164371236Y-93427008D01*
X164371237Y-93427008D01*
X164441185Y-93433251D01*
X164441191Y-93433251D01*
X164443978Y-93433500D01*
X165042886Y-93433500D01*
X165138106Y-93422398D01*
X165168371Y-93418870D01*
X165168372Y-93418870D01*
X165175643Y-93418022D01*
X165182521Y-93415526D01*
X165182523Y-93415525D01*
X165334985Y-93360184D01*
X165341864Y-93357687D01*
X165458337Y-93281324D01*
X165483628Y-93264743D01*
X165483629Y-93264742D01*
X165489747Y-93260731D01*
X165545662Y-93201706D01*
X165562306Y-93184136D01*
X165623675Y-93148438D01*
X165694602Y-93151585D01*
X165752568Y-93192579D01*
X165774675Y-93235289D01*
X165782904Y-93263316D01*
X165787775Y-93270895D01*
X165857051Y-93378691D01*
X165857053Y-93378694D01*
X165861923Y-93386271D01*
X165868733Y-93392172D01*
X165965569Y-93476082D01*
X165965572Y-93476084D01*
X165972381Y-93481984D01*
X165980579Y-93485728D01*
X166095606Y-93538259D01*
X166105330Y-93542700D01*
X166114245Y-93543982D01*
X166114246Y-93543982D01*
X166245552Y-93562861D01*
X166245559Y-93562862D01*
X166250000Y-93563500D01*
X168250000Y-93563500D01*
X168323079Y-93558273D01*
X168401165Y-93535345D01*
X168454670Y-93519635D01*
X168454672Y-93519634D01*
X168463316Y-93517096D01*
X168527135Y-93476082D01*
X168578691Y-93442949D01*
X168578694Y-93442947D01*
X168586271Y-93438077D01*
X168605813Y-93415525D01*
X168676082Y-93334431D01*
X168676084Y-93334428D01*
X168681984Y-93327619D01*
X168742700Y-93194670D01*
X168747002Y-93164747D01*
X168762861Y-93054448D01*
X168762862Y-93054441D01*
X168763500Y-93050000D01*
X168763500Y-93039616D01*
X168783502Y-92971495D01*
X168837158Y-92925002D01*
X168854011Y-92919043D01*
X168858788Y-92918440D01*
X168866158Y-92915522D01*
X168899901Y-92902163D01*
X168911130Y-92898318D01*
X168953578Y-92885986D01*
X168960406Y-92881948D01*
X168971011Y-92875677D01*
X168988762Y-92866981D01*
X169000226Y-92862442D01*
X169000229Y-92862440D01*
X169007600Y-92859522D01*
X169043368Y-92833535D01*
X169053291Y-92827016D01*
X169059106Y-92823577D01*
X169091341Y-92804514D01*
X169091759Y-92804145D01*
X169105842Y-92790062D01*
X169120867Y-92777228D01*
X169137083Y-92765446D01*
X169165030Y-92731664D01*
X169173019Y-92722885D01*
X170192513Y-91703391D01*
X170200601Y-91696031D01*
X170206995Y-91691973D01*
X170252870Y-91643121D01*
X170255624Y-91640280D01*
X170275938Y-91619966D01*
X170278583Y-91616555D01*
X170286289Y-91607533D01*
X170311133Y-91581077D01*
X170316557Y-91575301D01*
X170320376Y-91568355D01*
X170326318Y-91557547D01*
X170337172Y-91541023D01*
X170344725Y-91531286D01*
X170344725Y-91531285D01*
X170349583Y-91525023D01*
X170367142Y-91484447D01*
X170372363Y-91473790D01*
X170393662Y-91435048D01*
X170397383Y-91420555D01*
X170398699Y-91415432D01*
X170405103Y-91396728D01*
X170409999Y-91385415D01*
X170410001Y-91385408D01*
X170413148Y-91378136D01*
X170419714Y-91336684D01*
X170420065Y-91334465D01*
X170422472Y-91322844D01*
X170431987Y-91285782D01*
X170431987Y-91285781D01*
X170433465Y-91280025D01*
X170433500Y-91279469D01*
X170433500Y-91259548D01*
X170435051Y-91239838D01*
X170436944Y-91227886D01*
X170436944Y-91227885D01*
X170438184Y-91220056D01*
X170434059Y-91176417D01*
X170433500Y-91164560D01*
X170433500Y-85064551D01*
X170453502Y-84996430D01*
X170507349Y-84949850D01*
X170527846Y-84940531D01*
X170527855Y-84940526D01*
X170531924Y-84938676D01*
X170654575Y-84860238D01*
X170761972Y-84767700D01*
X170857684Y-84657983D01*
X170861337Y-84652348D01*
X170916143Y-84567791D01*
X170934791Y-84539021D01*
X170949749Y-84506649D01*
X170996480Y-84453200D01*
X171064129Y-84433500D01*
X172236008Y-84433500D01*
X172304129Y-84453502D01*
X172342005Y-84491378D01*
X172343708Y-84494028D01*
X172382051Y-84553691D01*
X172382053Y-84553694D01*
X172386923Y-84561271D01*
X172393733Y-84567172D01*
X172490569Y-84651082D01*
X172490572Y-84651084D01*
X172497381Y-84656984D01*
X172505579Y-84660728D01*
X172621079Y-84713475D01*
X172630330Y-84717700D01*
X172639245Y-84718982D01*
X172639246Y-84718982D01*
X172770552Y-84737861D01*
X172770559Y-84737862D01*
X172775000Y-84738500D01*
X173625000Y-84738500D01*
X173698079Y-84733273D01*
X173788068Y-84706850D01*
X173829670Y-84694635D01*
X173829672Y-84694634D01*
X173838316Y-84692096D01*
X173889532Y-84659181D01*
X173953691Y-84617949D01*
X173953694Y-84617947D01*
X173961271Y-84613077D01*
X173985038Y-84585649D01*
X174051082Y-84509431D01*
X174051084Y-84509428D01*
X174056984Y-84502619D01*
X174062117Y-84491379D01*
X174113958Y-84377864D01*
X174113958Y-84377863D01*
X174117700Y-84369670D01*
X174121747Y-84341525D01*
X174137861Y-84229448D01*
X174137862Y-84229441D01*
X174138500Y-84225000D01*
X174138500Y-83375000D01*
X174133273Y-83301921D01*
X174092096Y-83161684D01*
X174093840Y-83161172D01*
X174085295Y-83101723D01*
X174090179Y-83080723D01*
X174103422Y-83039966D01*
X174117992Y-82995125D01*
X174119840Y-82977547D01*
X174137810Y-82806565D01*
X174138500Y-82800000D01*
X174137481Y-82790309D01*
X174118683Y-82611445D01*
X174118682Y-82611441D01*
X174117992Y-82604875D01*
X174063851Y-82438249D01*
X174059403Y-82424559D01*
X174059402Y-82424558D01*
X174057362Y-82418278D01*
X173959262Y-82248364D01*
X173947886Y-82235729D01*
X173832401Y-82107470D01*
X173832400Y-82107469D01*
X173827979Y-82102559D01*
X173669250Y-81987235D01*
X173663222Y-81984551D01*
X173663220Y-81984550D01*
X173496043Y-81910118D01*
X173496042Y-81910118D01*
X173490012Y-81907433D01*
X173388020Y-81885754D01*
X173304557Y-81868013D01*
X173304553Y-81868013D01*
X173298100Y-81866641D01*
X173101900Y-81866641D01*
X173095447Y-81868013D01*
X173095443Y-81868013D01*
X173011980Y-81885754D01*
X172909988Y-81907433D01*
X172903958Y-81910118D01*
X172903957Y-81910118D01*
X172736780Y-81984550D01*
X172736778Y-81984551D01*
X172730750Y-81987235D01*
X172725409Y-81991115D01*
X172725408Y-81991116D01*
X172585954Y-82092436D01*
X172519087Y-82116294D01*
X172511893Y-82116500D01*
X171523452Y-82116500D01*
X171455331Y-82096498D01*
X171408838Y-82042842D01*
X171398734Y-81972568D01*
X171407815Y-81940460D01*
X171409998Y-81935415D01*
X171409999Y-81935413D01*
X171413148Y-81928135D01*
X171420064Y-81884469D01*
X171422471Y-81872844D01*
X171431988Y-81835777D01*
X171433465Y-81830025D01*
X171433500Y-81829469D01*
X171433500Y-81809553D01*
X171435051Y-81789842D01*
X171436945Y-81777884D01*
X171438185Y-81770055D01*
X171434059Y-81726406D01*
X171433500Y-81714549D01*
X171433500Y-80139328D01*
X171453502Y-80071207D01*
X171507158Y-80024714D01*
X171577432Y-80014610D01*
X171642012Y-80044104D01*
X171680373Y-80103753D01*
X171721520Y-80243558D01*
X171726117Y-80254935D01*
X171812004Y-80419222D01*
X171818718Y-80429483D01*
X171934880Y-80573959D01*
X171943458Y-80582719D01*
X172085470Y-80701881D01*
X172095584Y-80708807D01*
X172258042Y-80798118D01*
X172269306Y-80802946D01*
X172446016Y-80859002D01*
X172458003Y-80861550D01*
X172601161Y-80877607D01*
X172608185Y-80878000D01*
X172790385Y-80878000D01*
X172805624Y-80873525D01*
X172806829Y-80872135D01*
X172808500Y-80864452D01*
X172808500Y-80137548D01*
X173316500Y-80137548D01*
X173316500Y-80859885D01*
X173320975Y-80875124D01*
X173322365Y-80876329D01*
X173330048Y-80878000D01*
X173510412Y-80878000D01*
X173516560Y-80877699D01*
X173653126Y-80864309D01*
X173665161Y-80861926D01*
X173842624Y-80808346D01*
X173853966Y-80803671D01*
X174017644Y-80716643D01*
X174027860Y-80709856D01*
X174171519Y-80592690D01*
X174180223Y-80584046D01*
X174298386Y-80441212D01*
X174305246Y-80431041D01*
X174393418Y-80267969D01*
X174398168Y-80256670D01*
X174433880Y-80141307D01*
X174434086Y-80127205D01*
X174427330Y-80124000D01*
X173334615Y-80124000D01*
X173319376Y-80128475D01*
X173318171Y-80129865D01*
X173316500Y-80137548D01*
X172808500Y-80137548D01*
X172808500Y-78880115D01*
X172807159Y-78875548D01*
X173316500Y-78875548D01*
X173316500Y-79597885D01*
X173320975Y-79613124D01*
X173322365Y-79614329D01*
X173330048Y-79616000D01*
X174420552Y-79616000D01*
X174434083Y-79612027D01*
X174435203Y-79604232D01*
X174403479Y-79496443D01*
X174398880Y-79485059D01*
X174312996Y-79320778D01*
X174306282Y-79310517D01*
X174190120Y-79166041D01*
X174181542Y-79157281D01*
X174039530Y-79038119D01*
X174029416Y-79031193D01*
X173866958Y-78941882D01*
X173855694Y-78937054D01*
X173678984Y-78880998D01*
X173666997Y-78878450D01*
X173523839Y-78862393D01*
X173516815Y-78862000D01*
X173334615Y-78862000D01*
X173319376Y-78866475D01*
X173318171Y-78867865D01*
X173316500Y-78875548D01*
X172807159Y-78875548D01*
X172804025Y-78864876D01*
X172802635Y-78863671D01*
X172794952Y-78862000D01*
X172614588Y-78862000D01*
X172608440Y-78862301D01*
X172471874Y-78875691D01*
X172459839Y-78878074D01*
X172282376Y-78931654D01*
X172271034Y-78936329D01*
X172107356Y-79023357D01*
X172097140Y-79030144D01*
X171953481Y-79147310D01*
X171944777Y-79155954D01*
X171826614Y-79298788D01*
X171819754Y-79308959D01*
X171731582Y-79472031D01*
X171726832Y-79483330D01*
X171679865Y-79635054D01*
X171640613Y-79694213D01*
X171575609Y-79722760D01*
X171505490Y-79711631D01*
X171452519Y-79664360D01*
X171433500Y-79597794D01*
X171433500Y-77502519D01*
X171453502Y-77434398D01*
X171465864Y-77418209D01*
X171534618Y-77341850D01*
X171534619Y-77341849D01*
X171539037Y-77336942D01*
X171624960Y-77188120D01*
X171631220Y-77177277D01*
X171631221Y-77177276D01*
X171634524Y-77171554D01*
X171665236Y-77077032D01*
X171691498Y-76996206D01*
X171691498Y-76996205D01*
X171693538Y-76989927D01*
X171700213Y-76926423D01*
X171712810Y-76806565D01*
X171713500Y-76800000D01*
X171706543Y-76733810D01*
X171694228Y-76616637D01*
X171694228Y-76616636D01*
X171693538Y-76610073D01*
X171666194Y-76525915D01*
X171658531Y-76502333D01*
X171634524Y-76428446D01*
X171539037Y-76263058D01*
X171477279Y-76194468D01*
X171415673Y-76126048D01*
X171415672Y-76126047D01*
X171411251Y-76121137D01*
X171405909Y-76117256D01*
X171405907Y-76117254D01*
X171262092Y-76012767D01*
X171262091Y-76012766D01*
X171256750Y-76008886D01*
X171250722Y-76006202D01*
X171250720Y-76006201D01*
X171108251Y-75942770D01*
X171054155Y-75896790D01*
X171033500Y-75827663D01*
X171033500Y-71495768D01*
X171689797Y-71495768D01*
X171721521Y-71603557D01*
X171726120Y-71614941D01*
X171812004Y-71779222D01*
X171818718Y-71789483D01*
X171934880Y-71933959D01*
X171943458Y-71942719D01*
X172085470Y-72061881D01*
X172095584Y-72068807D01*
X172258042Y-72158118D01*
X172269306Y-72162946D01*
X172446016Y-72219002D01*
X172458003Y-72221550D01*
X172601161Y-72237607D01*
X172608185Y-72238000D01*
X172790385Y-72238000D01*
X172805624Y-72233525D01*
X172806829Y-72232135D01*
X172808500Y-72224452D01*
X172808500Y-71502115D01*
X172807159Y-71497548D01*
X173316500Y-71497548D01*
X173316500Y-72219885D01*
X173320975Y-72235124D01*
X173322365Y-72236329D01*
X173330048Y-72238000D01*
X173510412Y-72238000D01*
X173516560Y-72237699D01*
X173653126Y-72224309D01*
X173665161Y-72221926D01*
X173842624Y-72168346D01*
X173853966Y-72163671D01*
X174017644Y-72076643D01*
X174027860Y-72069856D01*
X174171519Y-71952690D01*
X174180223Y-71944046D01*
X174298386Y-71801212D01*
X174305246Y-71791041D01*
X174393418Y-71627969D01*
X174398168Y-71616670D01*
X174433880Y-71501307D01*
X174434086Y-71487205D01*
X174427330Y-71484000D01*
X173334615Y-71484000D01*
X173319376Y-71488475D01*
X173318171Y-71489865D01*
X173316500Y-71497548D01*
X172807159Y-71497548D01*
X172804025Y-71486876D01*
X172802635Y-71485671D01*
X172794952Y-71484000D01*
X171704448Y-71484000D01*
X171690917Y-71487973D01*
X171689797Y-71495768D01*
X171033500Y-71495768D01*
X171033500Y-70972795D01*
X171690914Y-70972795D01*
X171697670Y-70976000D01*
X172790385Y-70976000D01*
X172805624Y-70971525D01*
X172806829Y-70970135D01*
X172808500Y-70962452D01*
X172808500Y-70240115D01*
X172807159Y-70235548D01*
X173316500Y-70235548D01*
X173316500Y-70957885D01*
X173320975Y-70973124D01*
X173322365Y-70974329D01*
X173330048Y-70976000D01*
X174420552Y-70976000D01*
X174434083Y-70972027D01*
X174435203Y-70964232D01*
X174403479Y-70856443D01*
X174398880Y-70845059D01*
X174312996Y-70680778D01*
X174306282Y-70670517D01*
X174190120Y-70526041D01*
X174181542Y-70517281D01*
X174039530Y-70398119D01*
X174029416Y-70391193D01*
X173866958Y-70301882D01*
X173855694Y-70297054D01*
X173678984Y-70240998D01*
X173666997Y-70238450D01*
X173523839Y-70222393D01*
X173516815Y-70222000D01*
X173334615Y-70222000D01*
X173319376Y-70226475D01*
X173318171Y-70227865D01*
X173316500Y-70235548D01*
X172807159Y-70235548D01*
X172804025Y-70224876D01*
X172802635Y-70223671D01*
X172794952Y-70222000D01*
X172614588Y-70222000D01*
X172608440Y-70222301D01*
X172471874Y-70235691D01*
X172459839Y-70238074D01*
X172282376Y-70291654D01*
X172271034Y-70296329D01*
X172107356Y-70383357D01*
X172097140Y-70390144D01*
X171953481Y-70507310D01*
X171944777Y-70515954D01*
X171826614Y-70658788D01*
X171819754Y-70668959D01*
X171731582Y-70832031D01*
X171726832Y-70843330D01*
X171691120Y-70958693D01*
X171690914Y-70972795D01*
X171033500Y-70972795D01*
X171033500Y-69439500D01*
X171053502Y-69371379D01*
X171107158Y-69324886D01*
X171159500Y-69313500D01*
X171450000Y-69313500D01*
X171523079Y-69308273D01*
X171601165Y-69285345D01*
X171654670Y-69269635D01*
X171654672Y-69269634D01*
X171663316Y-69267096D01*
X171733698Y-69221864D01*
X171778691Y-69192949D01*
X171778694Y-69192947D01*
X171786271Y-69188077D01*
X171826048Y-69142172D01*
X171876082Y-69084431D01*
X171876084Y-69084428D01*
X171881984Y-69077619D01*
X171929776Y-68972970D01*
X171938958Y-68952864D01*
X171938958Y-68952863D01*
X171942700Y-68944670D01*
X171947769Y-68909415D01*
X171962861Y-68804448D01*
X171962862Y-68804441D01*
X171963500Y-68800000D01*
X171963500Y-68000000D01*
X171958273Y-67926921D01*
X171917096Y-67786684D01*
X171841613Y-67669231D01*
X171826613Y-67636258D01*
X171824986Y-67630657D01*
X171820978Y-67611302D01*
X171819434Y-67599079D01*
X171819434Y-67599078D01*
X171818440Y-67591212D01*
X171807691Y-67564062D01*
X171802168Y-67550111D01*
X171798323Y-67538882D01*
X171788199Y-67504035D01*
X171788198Y-67504034D01*
X171785987Y-67496422D01*
X171785002Y-67494757D01*
X171776633Y-67426941D01*
X171805742Y-67364852D01*
X171875662Y-67284160D01*
X171885307Y-67269152D01*
X171938477Y-67152725D01*
X171943502Y-67135612D01*
X171962361Y-67004446D01*
X171963000Y-66995503D01*
X171963000Y-66868115D01*
X171958525Y-66852876D01*
X171957135Y-66851671D01*
X171949452Y-66850000D01*
X170498905Y-66850000D01*
X170430784Y-66829998D01*
X170416393Y-66819225D01*
X170379134Y-66786940D01*
X170350403Y-66771251D01*
X170316379Y-66708938D01*
X170313500Y-66682157D01*
X170313500Y-66514989D01*
X170333502Y-66446868D01*
X170387158Y-66400375D01*
X170398628Y-66396097D01*
X170400889Y-66393488D01*
X170460615Y-66355104D01*
X170496114Y-66350000D01*
X171944885Y-66350000D01*
X171960124Y-66345525D01*
X171961329Y-66344135D01*
X171963000Y-66336452D01*
X171963000Y-66202257D01*
X171962839Y-66197750D01*
X171958260Y-66133731D01*
X171955874Y-66120509D01*
X171919181Y-65995542D01*
X171911326Y-65978342D01*
X171901223Y-65908068D01*
X171930716Y-65843487D01*
X171990442Y-65805104D01*
X172025940Y-65800000D01*
X174874000Y-65800000D01*
X174942121Y-65820002D01*
G37*
%TD.AperFunction*%
%TA.AperFunction,Conductor*%
G36*
X152778621Y-81453502D02*
G01*
X152825114Y-81507158D01*
X152836500Y-81559500D01*
X152836500Y-82250000D01*
X152841727Y-82323079D01*
X152854037Y-82365002D01*
X152879329Y-82451139D01*
X152882904Y-82463316D01*
X152906480Y-82500000D01*
X152957051Y-82578691D01*
X152957053Y-82578694D01*
X152961923Y-82586271D01*
X152968733Y-82592172D01*
X153065569Y-82676082D01*
X153065572Y-82676084D01*
X153072381Y-82681984D01*
X153080579Y-82685728D01*
X153185621Y-82733699D01*
X153205330Y-82742700D01*
X153214245Y-82743982D01*
X153214246Y-82743982D01*
X153345552Y-82762861D01*
X153345559Y-82762862D01*
X153350000Y-82763500D01*
X155050000Y-82763500D01*
X155123079Y-82758273D01*
X155213218Y-82731806D01*
X155254670Y-82719635D01*
X155254672Y-82719634D01*
X155263316Y-82717096D01*
X155317951Y-82681984D01*
X155378691Y-82642949D01*
X155378694Y-82642947D01*
X155386271Y-82638077D01*
X155415041Y-82604875D01*
X155476082Y-82534431D01*
X155476084Y-82534428D01*
X155481984Y-82527619D01*
X155525135Y-82433132D01*
X155538958Y-82402864D01*
X155538958Y-82402863D01*
X155542700Y-82394670D01*
X155547793Y-82359248D01*
X155562861Y-82254448D01*
X155562862Y-82254441D01*
X155563500Y-82250000D01*
X155563500Y-81678574D01*
X155583502Y-81610453D01*
X155637158Y-81563960D01*
X155707432Y-81553856D01*
X155772012Y-81583350D01*
X155778595Y-81589479D01*
X158694595Y-84505479D01*
X158728621Y-84567791D01*
X158731500Y-84594574D01*
X158731500Y-92324302D01*
X158711498Y-92392423D01*
X158670867Y-92432020D01*
X158561631Y-92498306D01*
X158557601Y-92501803D01*
X158430280Y-92612286D01*
X158387492Y-92649415D01*
X158384109Y-92653541D01*
X158384105Y-92653545D01*
X158311768Y-92741767D01*
X158241304Y-92827705D01*
X158238667Y-92832338D01*
X158238666Y-92832339D01*
X158205116Y-92891278D01*
X158154033Y-92940584D01*
X158084402Y-92954445D01*
X158018332Y-92928461D01*
X157991094Y-92899312D01*
X157985686Y-92891278D01*
X157890818Y-92750366D01*
X157890607Y-92750052D01*
X157890605Y-92750050D01*
X157887627Y-92745626D01*
X157869946Y-92727091D01*
X157803764Y-92657715D01*
X157728482Y-92578799D01*
X157543504Y-92441171D01*
X157538753Y-92438755D01*
X157538749Y-92438753D01*
X157342740Y-92339097D01*
X157342739Y-92339097D01*
X157337982Y-92336678D01*
X157227887Y-92302493D01*
X157122895Y-92269891D01*
X157122889Y-92269890D01*
X157117792Y-92268307D01*
X157012798Y-92254391D01*
X156894515Y-92238714D01*
X156894510Y-92238714D01*
X156889230Y-92238014D01*
X156883900Y-92238214D01*
X156883899Y-92238214D01*
X156790320Y-92241727D01*
X156658831Y-92246663D01*
X156614246Y-92256018D01*
X156438411Y-92292912D01*
X156438408Y-92292913D01*
X156433184Y-92294009D01*
X156218740Y-92378697D01*
X156021631Y-92498306D01*
X156017601Y-92501803D01*
X155890280Y-92612286D01*
X155847492Y-92649415D01*
X155844109Y-92653541D01*
X155844105Y-92653545D01*
X155771768Y-92741767D01*
X155701304Y-92827705D01*
X155698667Y-92832338D01*
X155698666Y-92832339D01*
X155665116Y-92891278D01*
X155614033Y-92940584D01*
X155544402Y-92954445D01*
X155478332Y-92928461D01*
X155451094Y-92899312D01*
X155445686Y-92891278D01*
X155350818Y-92750366D01*
X155350607Y-92750052D01*
X155350605Y-92750050D01*
X155347627Y-92745626D01*
X155329946Y-92727091D01*
X155263764Y-92657715D01*
X155188482Y-92578799D01*
X155003504Y-92441171D01*
X154998753Y-92438755D01*
X154998749Y-92438753D01*
X154802740Y-92339097D01*
X154802739Y-92339097D01*
X154797982Y-92336678D01*
X154687887Y-92302493D01*
X154582895Y-92269891D01*
X154582889Y-92269890D01*
X154577792Y-92268307D01*
X154472798Y-92254391D01*
X154354515Y-92238714D01*
X154354510Y-92238714D01*
X154349230Y-92238014D01*
X154343900Y-92238214D01*
X154343899Y-92238214D01*
X154250320Y-92241727D01*
X154118831Y-92246663D01*
X154074246Y-92256018D01*
X153898411Y-92292912D01*
X153898408Y-92292913D01*
X153893184Y-92294009D01*
X153678740Y-92378697D01*
X153481631Y-92498306D01*
X153477601Y-92501803D01*
X153350280Y-92612286D01*
X153307492Y-92649415D01*
X153304109Y-92653541D01*
X153304105Y-92653545D01*
X153231768Y-92741767D01*
X153161304Y-92827705D01*
X153126870Y-92888197D01*
X153124842Y-92891760D01*
X153073760Y-92941066D01*
X153004130Y-92954928D01*
X152938059Y-92928945D01*
X152910820Y-92899795D01*
X152810218Y-92750366D01*
X152803557Y-92742080D01*
X152651830Y-92583030D01*
X152643873Y-92575990D01*
X152467523Y-92444782D01*
X152458486Y-92439178D01*
X152262550Y-92339559D01*
X152252699Y-92335559D01*
X152042778Y-92270378D01*
X152032396Y-92268095D01*
X152016959Y-92266049D01*
X152002792Y-92268246D01*
X151999000Y-92281430D01*
X151999000Y-93728000D01*
X151978998Y-93796121D01*
X151925342Y-93842614D01*
X151873000Y-93854000D01*
X151617000Y-93854000D01*
X151548879Y-93833998D01*
X151502386Y-93780342D01*
X151491000Y-93728000D01*
X151491000Y-92283717D01*
X151487027Y-92270186D01*
X151476420Y-92268661D01*
X151358554Y-92293391D01*
X151348358Y-92296451D01*
X151143932Y-92377182D01*
X151134396Y-92381916D01*
X150946486Y-92495942D01*
X150937896Y-92502206D01*
X150771884Y-92646264D01*
X150764472Y-92653886D01*
X150762513Y-92656276D01*
X150761431Y-92657014D01*
X150760749Y-92657715D01*
X150760606Y-92657576D01*
X150703855Y-92696273D01*
X150632885Y-92698209D01*
X150572135Y-92661468D01*
X150544178Y-92611888D01*
X150524635Y-92545330D01*
X150524634Y-92545328D01*
X150522096Y-92536684D01*
X150468958Y-92454000D01*
X150447949Y-92421309D01*
X150447947Y-92421306D01*
X150443077Y-92413729D01*
X150419613Y-92393397D01*
X150339431Y-92323918D01*
X150339428Y-92323916D01*
X150332619Y-92318016D01*
X150324421Y-92314272D01*
X150207864Y-92261042D01*
X150207863Y-92261042D01*
X150199670Y-92257300D01*
X150190755Y-92256018D01*
X150190754Y-92256018D01*
X150059448Y-92237139D01*
X150059441Y-92237138D01*
X150055000Y-92236500D01*
X149964500Y-92236500D01*
X149896379Y-92216498D01*
X149849886Y-92162842D01*
X149838500Y-92110500D01*
X149838500Y-87183384D01*
X149839014Y-87172480D01*
X149840666Y-87165089D01*
X149839956Y-87142477D01*
X149838562Y-87098134D01*
X149838500Y-87094177D01*
X149838500Y-87065422D01*
X149837961Y-87061155D01*
X149837027Y-87049305D01*
X149836968Y-87047407D01*
X149835639Y-87005117D01*
X149829988Y-86985666D01*
X149825978Y-86966304D01*
X149824433Y-86954070D01*
X149824432Y-86954067D01*
X149823440Y-86946212D01*
X149820524Y-86938847D01*
X149820523Y-86938843D01*
X149807163Y-86905099D01*
X149803318Y-86893870D01*
X149801662Y-86888169D01*
X149790986Y-86851422D01*
X149785403Y-86841981D01*
X149780677Y-86833989D01*
X149771981Y-86816238D01*
X149767442Y-86804774D01*
X149767440Y-86804771D01*
X149764522Y-86797400D01*
X149738535Y-86761632D01*
X149732016Y-86751709D01*
X149722288Y-86735259D01*
X149709514Y-86713659D01*
X149709145Y-86713241D01*
X149695062Y-86699158D01*
X149682228Y-86684133D01*
X149670446Y-86667917D01*
X149636664Y-86639970D01*
X149627885Y-86631981D01*
X149009908Y-86014004D01*
X148975882Y-85951692D01*
X148980947Y-85880877D01*
X149023494Y-85824041D01*
X149056012Y-85806470D01*
X149184761Y-85759737D01*
X149197760Y-85753227D01*
X149333306Y-85664359D01*
X149344458Y-85655035D01*
X149455922Y-85537371D01*
X149464635Y-85525724D01*
X149546043Y-85385571D01*
X149551837Y-85372246D01*
X149599068Y-85216300D01*
X149601516Y-85203677D01*
X149607751Y-85133816D01*
X149608000Y-85128221D01*
X149608000Y-84872115D01*
X149603525Y-84856876D01*
X149602135Y-84855671D01*
X149594452Y-84854000D01*
X148472000Y-84854000D01*
X148403879Y-84833998D01*
X148357386Y-84780342D01*
X148346000Y-84728000D01*
X148346000Y-84472000D01*
X148366002Y-84403879D01*
X148419658Y-84357386D01*
X148472000Y-84346000D01*
X149589885Y-84346000D01*
X149605124Y-84341525D01*
X149606329Y-84340135D01*
X149608000Y-84332452D01*
X149608000Y-84085777D01*
X149607576Y-84078476D01*
X149593383Y-83956745D01*
X149590037Y-83942590D01*
X149534737Y-83790239D01*
X149528227Y-83777240D01*
X149439359Y-83641694D01*
X149430035Y-83630542D01*
X149312371Y-83519078D01*
X149300724Y-83510365D01*
X149160571Y-83428957D01*
X149147246Y-83423163D01*
X149061092Y-83397070D01*
X149001694Y-83358181D01*
X148972750Y-83293352D01*
X148983450Y-83223166D01*
X149008520Y-83187384D01*
X149072513Y-83123391D01*
X149080601Y-83116031D01*
X149086995Y-83111973D01*
X149132870Y-83063121D01*
X149135624Y-83060280D01*
X149155938Y-83039966D01*
X149158583Y-83036555D01*
X149166289Y-83027533D01*
X149191133Y-83001077D01*
X149196557Y-82995301D01*
X149200376Y-82988355D01*
X149206318Y-82977547D01*
X149217172Y-82961023D01*
X149224725Y-82951286D01*
X149224725Y-82951285D01*
X149229583Y-82945023D01*
X149247142Y-82904447D01*
X149252363Y-82893790D01*
X149273662Y-82855048D01*
X149276030Y-82845826D01*
X149278699Y-82835432D01*
X149285103Y-82816728D01*
X149289999Y-82805415D01*
X149290001Y-82805408D01*
X149293148Y-82798136D01*
X149297827Y-82768597D01*
X149300065Y-82754465D01*
X149302472Y-82742844D01*
X149311987Y-82705782D01*
X149311987Y-82705781D01*
X149313465Y-82700025D01*
X149313500Y-82699469D01*
X149313500Y-82679548D01*
X149315051Y-82659838D01*
X149316944Y-82647886D01*
X149316944Y-82647885D01*
X149318184Y-82640056D01*
X149314059Y-82596417D01*
X149313500Y-82584560D01*
X149313500Y-82438749D01*
X149333502Y-82370628D01*
X149387158Y-82324135D01*
X149447833Y-82313188D01*
X149450000Y-82313500D01*
X150450000Y-82313500D01*
X150523079Y-82308273D01*
X150601165Y-82285345D01*
X150654670Y-82269635D01*
X150654672Y-82269634D01*
X150663316Y-82267096D01*
X150727135Y-82226082D01*
X150778691Y-82192949D01*
X150778694Y-82192947D01*
X150786271Y-82188077D01*
X150829597Y-82138077D01*
X150876082Y-82084431D01*
X150876084Y-82084428D01*
X150881984Y-82077619D01*
X150942700Y-81944670D01*
X150944031Y-81935415D01*
X150962861Y-81804448D01*
X150962862Y-81804441D01*
X150963500Y-81800000D01*
X150963500Y-81559500D01*
X150983502Y-81491379D01*
X151037158Y-81444886D01*
X151089500Y-81433500D01*
X152710500Y-81433500D01*
X152778621Y-81453502D01*
G37*
%TD.AperFunction*%
%TA.AperFunction,Conductor*%
G36*
X137845018Y-79188336D02*
G01*
X137847136Y-79188958D01*
X137855330Y-79192700D01*
X137864245Y-79193982D01*
X137864246Y-79193982D01*
X137995552Y-79212861D01*
X137995559Y-79212862D01*
X138000000Y-79213500D01*
X140000000Y-79213500D01*
X140073079Y-79208273D01*
X140103642Y-79199299D01*
X140174639Y-79199299D01*
X140234365Y-79237683D01*
X140263858Y-79302264D01*
X140253753Y-79372538D01*
X140224771Y-79411253D01*
X140223729Y-79411923D01*
X140217827Y-79418734D01*
X140217826Y-79418735D01*
X140133918Y-79515569D01*
X140133916Y-79515572D01*
X140128016Y-79522381D01*
X140067300Y-79655330D01*
X140066018Y-79664245D01*
X140066018Y-79664246D01*
X140047139Y-79795552D01*
X140047138Y-79795559D01*
X140046500Y-79800000D01*
X140046500Y-81800000D01*
X140051727Y-81873079D01*
X140067893Y-81928135D01*
X140086386Y-81991116D01*
X140092904Y-82013316D01*
X140097775Y-82020895D01*
X140167051Y-82128691D01*
X140167053Y-82128694D01*
X140171923Y-82136271D01*
X140178733Y-82142172D01*
X140275569Y-82226082D01*
X140275572Y-82226084D01*
X140282381Y-82231984D01*
X140290577Y-82235727D01*
X140290580Y-82235729D01*
X140316204Y-82247431D01*
X140369859Y-82293924D01*
X140389860Y-82362045D01*
X140369857Y-82430166D01*
X140352956Y-82451139D01*
X139654501Y-83149595D01*
X139592188Y-83183620D01*
X139565405Y-83186500D01*
X138600000Y-83186500D01*
X138526921Y-83191727D01*
X138448835Y-83214655D01*
X138395330Y-83230365D01*
X138395328Y-83230366D01*
X138386684Y-83232904D01*
X138360082Y-83250000D01*
X138271309Y-83307051D01*
X138271306Y-83307053D01*
X138263729Y-83311923D01*
X138257828Y-83318733D01*
X138173918Y-83415569D01*
X138173916Y-83415572D01*
X138168016Y-83422381D01*
X138164272Y-83430579D01*
X138125193Y-83516151D01*
X138107300Y-83555330D01*
X138106018Y-83564245D01*
X138106018Y-83564246D01*
X138087139Y-83695552D01*
X138087138Y-83695559D01*
X138086500Y-83700000D01*
X138086500Y-85500000D01*
X138091727Y-85573079D01*
X138093631Y-85579562D01*
X138128386Y-85697928D01*
X138132904Y-85713316D01*
X138137775Y-85720895D01*
X138137777Y-85720899D01*
X138146498Y-85734470D01*
X138166500Y-85802590D01*
X138166500Y-86601554D01*
X138146498Y-86669675D01*
X138109586Y-86706925D01*
X138060253Y-86739269D01*
X138055222Y-86744580D01*
X138055217Y-86744584D01*
X137940450Y-86865736D01*
X137879081Y-86901435D01*
X137808154Y-86898288D01*
X137750189Y-86857294D01*
X137743606Y-86848171D01*
X137739359Y-86841693D01*
X137730035Y-86830542D01*
X137612371Y-86719078D01*
X137600724Y-86710365D01*
X137460571Y-86628957D01*
X137447246Y-86623163D01*
X137291300Y-86575932D01*
X137278677Y-86573484D01*
X137208816Y-86567249D01*
X137203221Y-86567000D01*
X137172115Y-86567000D01*
X137156876Y-86571475D01*
X137155671Y-86572865D01*
X137154000Y-86580548D01*
X137154000Y-89014885D01*
X137158475Y-89030124D01*
X137159865Y-89031329D01*
X137167548Y-89033000D01*
X137189223Y-89033000D01*
X137196524Y-89032576D01*
X137318255Y-89018383D01*
X137332410Y-89015037D01*
X137484761Y-88959737D01*
X137497760Y-88953227D01*
X137633306Y-88864359D01*
X137644458Y-88855035D01*
X137758919Y-88734207D01*
X137820288Y-88698509D01*
X137891215Y-88701656D01*
X137949181Y-88742650D01*
X137955763Y-88751774D01*
X137960255Y-88758625D01*
X137964269Y-88764747D01*
X138092645Y-88886358D01*
X138245555Y-88975175D01*
X138414796Y-89026433D01*
X138421236Y-89027008D01*
X138421237Y-89027008D01*
X138491185Y-89033251D01*
X138491191Y-89033251D01*
X138493978Y-89033500D01*
X139092886Y-89033500D01*
X139188106Y-89022398D01*
X139218371Y-89018870D01*
X139218372Y-89018870D01*
X139225643Y-89018022D01*
X139232521Y-89015526D01*
X139232523Y-89015525D01*
X139384985Y-88960184D01*
X139391864Y-88957687D01*
X139508337Y-88881324D01*
X139533628Y-88864743D01*
X139533629Y-88864742D01*
X139539747Y-88860731D01*
X139661358Y-88732355D01*
X139750175Y-88579445D01*
X139801433Y-88410204D01*
X139802008Y-88403763D01*
X139808251Y-88333815D01*
X139808251Y-88333809D01*
X139808500Y-88331022D01*
X139808500Y-87282114D01*
X139793022Y-87149357D01*
X139774793Y-87099135D01*
X139735184Y-86990015D01*
X139732687Y-86983136D01*
X139655754Y-86865793D01*
X139639743Y-86841372D01*
X139639742Y-86841371D01*
X139635731Y-86835253D01*
X139507355Y-86713642D01*
X139501027Y-86709966D01*
X139501021Y-86709962D01*
X139496212Y-86707169D01*
X139447355Y-86655657D01*
X139433500Y-86598217D01*
X139433500Y-86139500D01*
X139453502Y-86071379D01*
X139507158Y-86024886D01*
X139559500Y-86013500D01*
X139600000Y-86013500D01*
X139673079Y-86008273D01*
X139751165Y-85985345D01*
X139804670Y-85969635D01*
X139804672Y-85969634D01*
X139813316Y-85967096D01*
X139891380Y-85916927D01*
X139928691Y-85892949D01*
X139928694Y-85892947D01*
X139936271Y-85888077D01*
X139951584Y-85870405D01*
X140026082Y-85784431D01*
X140026084Y-85784428D01*
X140031984Y-85777619D01*
X140039754Y-85760605D01*
X140088958Y-85652864D01*
X140088958Y-85652863D01*
X140092700Y-85644670D01*
X140099486Y-85597473D01*
X140112861Y-85504448D01*
X140112862Y-85504441D01*
X140113500Y-85500000D01*
X140113500Y-84534594D01*
X140133502Y-84466473D01*
X140150405Y-84445499D01*
X140371405Y-84224499D01*
X140433717Y-84190473D01*
X140504532Y-84195538D01*
X140561368Y-84238085D01*
X140586179Y-84304605D01*
X140586500Y-84313594D01*
X140586500Y-85500000D01*
X140591727Y-85573079D01*
X140593631Y-85579562D01*
X140628386Y-85697928D01*
X140632904Y-85713316D01*
X140646499Y-85734470D01*
X140707051Y-85828691D01*
X140707053Y-85828694D01*
X140711923Y-85836271D01*
X140718733Y-85842172D01*
X140815569Y-85926082D01*
X140815572Y-85926084D01*
X140822381Y-85931984D01*
X140830579Y-85935728D01*
X140865535Y-85951692D01*
X140955330Y-85992700D01*
X140964253Y-85993983D01*
X140972894Y-85996520D01*
X140972058Y-85999368D01*
X141023012Y-86022639D01*
X141061396Y-86082365D01*
X141066500Y-86117863D01*
X141066500Y-86601554D01*
X141046498Y-86669675D01*
X141009586Y-86706925D01*
X140960253Y-86739269D01*
X140838642Y-86867645D01*
X140749825Y-87020555D01*
X140698567Y-87189796D01*
X140691500Y-87268978D01*
X140691500Y-88317886D01*
X140699884Y-88389796D01*
X140706117Y-88443255D01*
X140706978Y-88450643D01*
X140767313Y-88616864D01*
X140803462Y-88672000D01*
X140859387Y-88757300D01*
X140864269Y-88764747D01*
X140992645Y-88886358D01*
X141145555Y-88975175D01*
X141314796Y-89026433D01*
X141321236Y-89027008D01*
X141321237Y-89027008D01*
X141391185Y-89033251D01*
X141391191Y-89033251D01*
X141393978Y-89033500D01*
X141992886Y-89033500D01*
X142088106Y-89022398D01*
X142118371Y-89018870D01*
X142118372Y-89018870D01*
X142125643Y-89018022D01*
X142132521Y-89015526D01*
X142132523Y-89015525D01*
X142284985Y-88960184D01*
X142291864Y-88957687D01*
X142408337Y-88881324D01*
X142433628Y-88864743D01*
X142433629Y-88864742D01*
X142439747Y-88860731D01*
X142444779Y-88855419D01*
X142444783Y-88855416D01*
X142559550Y-88734264D01*
X142620919Y-88698565D01*
X142691846Y-88701712D01*
X142749811Y-88742706D01*
X142756394Y-88751829D01*
X142760641Y-88758307D01*
X142769965Y-88769458D01*
X142887629Y-88880922D01*
X142899276Y-88889635D01*
X143039429Y-88971043D01*
X143052754Y-88976837D01*
X143208700Y-89024068D01*
X143221323Y-89026516D01*
X143291184Y-89032751D01*
X143296779Y-89033000D01*
X143327885Y-89033000D01*
X143343124Y-89028525D01*
X143344329Y-89027135D01*
X143346000Y-89019452D01*
X143346000Y-87672000D01*
X143366002Y-87603879D01*
X143419658Y-87557386D01*
X143472000Y-87546000D01*
X143665520Y-87546000D01*
X143733641Y-87566002D01*
X143780134Y-87619658D01*
X143791520Y-87672000D01*
X143791520Y-92110500D01*
X143771518Y-92178621D01*
X143717862Y-92225114D01*
X143665520Y-92236500D01*
X143275000Y-92236500D01*
X143201921Y-92241727D01*
X143136140Y-92261042D01*
X143070330Y-92280365D01*
X143070328Y-92280366D01*
X143061684Y-92282904D01*
X143041350Y-92295972D01*
X142946309Y-92357051D01*
X142946306Y-92357053D01*
X142938729Y-92361923D01*
X142932828Y-92368733D01*
X142848918Y-92465569D01*
X142848916Y-92465572D01*
X142843016Y-92472381D01*
X142782300Y-92605330D01*
X142781018Y-92614247D01*
X142780418Y-92616290D01*
X142742035Y-92676017D01*
X142677455Y-92705510D01*
X142607181Y-92695407D01*
X142568353Y-92667765D01*
X142487168Y-92582661D01*
X142487156Y-92582651D01*
X142483482Y-92578799D01*
X142298504Y-92441171D01*
X142293753Y-92438755D01*
X142293749Y-92438753D01*
X142097740Y-92339097D01*
X142097739Y-92339097D01*
X142092982Y-92336678D01*
X141982887Y-92302493D01*
X141877895Y-92269891D01*
X141877889Y-92269890D01*
X141872792Y-92268307D01*
X141767798Y-92254391D01*
X141649515Y-92238714D01*
X141649510Y-92238714D01*
X141644230Y-92238014D01*
X141638900Y-92238214D01*
X141638899Y-92238214D01*
X141545320Y-92241727D01*
X141413831Y-92246663D01*
X141369246Y-92256018D01*
X141193411Y-92292912D01*
X141193408Y-92292913D01*
X141188184Y-92294009D01*
X140973740Y-92378697D01*
X140776631Y-92498306D01*
X140772601Y-92501803D01*
X140645280Y-92612286D01*
X140602492Y-92649415D01*
X140599109Y-92653541D01*
X140599105Y-92653545D01*
X140526768Y-92741767D01*
X140456304Y-92827705D01*
X140453667Y-92832338D01*
X140453666Y-92832339D01*
X140420116Y-92891278D01*
X140369033Y-92940584D01*
X140299402Y-92954445D01*
X140233332Y-92928461D01*
X140206094Y-92899312D01*
X140200686Y-92891278D01*
X140105818Y-92750366D01*
X140105607Y-92750052D01*
X140105605Y-92750050D01*
X140102627Y-92745626D01*
X140084946Y-92727091D01*
X140018764Y-92657715D01*
X139943482Y-92578799D01*
X139758504Y-92441171D01*
X139753753Y-92438755D01*
X139753749Y-92438753D01*
X139557740Y-92339097D01*
X139557739Y-92339097D01*
X139552982Y-92336678D01*
X139442887Y-92302493D01*
X139337895Y-92269891D01*
X139337889Y-92269890D01*
X139332792Y-92268307D01*
X139227798Y-92254391D01*
X139109515Y-92238714D01*
X139109510Y-92238714D01*
X139104230Y-92238014D01*
X139098900Y-92238214D01*
X139098899Y-92238214D01*
X139005320Y-92241727D01*
X138873831Y-92246663D01*
X138829246Y-92256018D01*
X138653411Y-92292912D01*
X138653408Y-92292913D01*
X138648184Y-92294009D01*
X138433740Y-92378697D01*
X138236631Y-92498306D01*
X138232601Y-92501803D01*
X138105280Y-92612286D01*
X138062492Y-92649415D01*
X138059109Y-92653541D01*
X138059105Y-92653545D01*
X137986768Y-92741767D01*
X137916304Y-92827705D01*
X137913667Y-92832338D01*
X137913666Y-92832339D01*
X137880116Y-92891278D01*
X137829033Y-92940584D01*
X137759402Y-92954445D01*
X137693332Y-92928461D01*
X137666094Y-92899312D01*
X137660686Y-92891278D01*
X137565818Y-92750366D01*
X137565607Y-92750052D01*
X137565605Y-92750050D01*
X137562627Y-92745626D01*
X137544946Y-92727091D01*
X137478764Y-92657715D01*
X137403482Y-92578799D01*
X137218504Y-92441171D01*
X137213753Y-92438755D01*
X137213749Y-92438753D01*
X137017740Y-92339097D01*
X137017739Y-92339097D01*
X137012982Y-92336678D01*
X136902887Y-92302493D01*
X136797895Y-92269891D01*
X136797889Y-92269890D01*
X136792792Y-92268307D01*
X136687798Y-92254391D01*
X136569515Y-92238714D01*
X136569510Y-92238714D01*
X136564230Y-92238014D01*
X136558900Y-92238214D01*
X136558899Y-92238214D01*
X136465320Y-92241727D01*
X136333831Y-92246663D01*
X136289246Y-92256018D01*
X136113411Y-92292912D01*
X136113408Y-92292913D01*
X136108184Y-92294009D01*
X135893740Y-92378697D01*
X135696631Y-92498306D01*
X135692601Y-92501803D01*
X135565280Y-92612286D01*
X135522492Y-92649415D01*
X135519109Y-92653541D01*
X135519105Y-92653545D01*
X135446768Y-92741767D01*
X135376304Y-92827705D01*
X135373667Y-92832338D01*
X135373666Y-92832339D01*
X135340116Y-92891278D01*
X135289033Y-92940584D01*
X135219402Y-92954445D01*
X135153332Y-92928461D01*
X135126094Y-92899312D01*
X135120686Y-92891278D01*
X135025818Y-92750366D01*
X135025607Y-92750052D01*
X135025605Y-92750050D01*
X135022627Y-92745626D01*
X135004946Y-92727091D01*
X134938764Y-92657715D01*
X134863482Y-92578799D01*
X134678504Y-92441171D01*
X134673753Y-92438755D01*
X134673749Y-92438753D01*
X134477740Y-92339097D01*
X134477739Y-92339097D01*
X134472982Y-92336678D01*
X134362887Y-92302493D01*
X134257895Y-92269891D01*
X134257889Y-92269890D01*
X134252792Y-92268307D01*
X134147798Y-92254391D01*
X134029515Y-92238714D01*
X134029510Y-92238714D01*
X134024230Y-92238014D01*
X134018900Y-92238214D01*
X134018899Y-92238214D01*
X133925320Y-92241727D01*
X133793831Y-92246663D01*
X133749246Y-92256018D01*
X133573411Y-92292912D01*
X133573408Y-92292913D01*
X133568184Y-92294009D01*
X133353740Y-92378697D01*
X133156631Y-92498306D01*
X133152601Y-92501803D01*
X133025280Y-92612286D01*
X132982492Y-92649415D01*
X132979109Y-92653541D01*
X132979105Y-92653545D01*
X132906768Y-92741767D01*
X132836304Y-92827705D01*
X132833667Y-92832338D01*
X132833666Y-92832339D01*
X132800116Y-92891278D01*
X132749033Y-92940584D01*
X132679402Y-92954445D01*
X132613332Y-92928461D01*
X132586094Y-92899312D01*
X132580686Y-92891278D01*
X132485818Y-92750366D01*
X132485607Y-92750052D01*
X132485605Y-92750050D01*
X132482627Y-92745626D01*
X132464946Y-92727091D01*
X132398764Y-92657715D01*
X132323482Y-92578799D01*
X132138504Y-92441171D01*
X132133753Y-92438755D01*
X132133749Y-92438753D01*
X131937740Y-92339097D01*
X131937739Y-92339097D01*
X131932982Y-92336678D01*
X131822887Y-92302493D01*
X131717895Y-92269891D01*
X131717889Y-92269890D01*
X131712792Y-92268307D01*
X131607798Y-92254391D01*
X131489515Y-92238714D01*
X131489510Y-92238714D01*
X131484230Y-92238014D01*
X131478900Y-92238214D01*
X131478899Y-92238214D01*
X131385320Y-92241727D01*
X131253831Y-92246663D01*
X131209246Y-92256018D01*
X131033411Y-92292912D01*
X131033408Y-92292913D01*
X131028184Y-92294009D01*
X130813740Y-92378697D01*
X130616631Y-92498306D01*
X130612601Y-92501803D01*
X130485280Y-92612286D01*
X130442492Y-92649415D01*
X130437339Y-92655700D01*
X130436364Y-92656365D01*
X130435390Y-92657366D01*
X130435186Y-92657168D01*
X130378681Y-92695695D01*
X130307710Y-92697628D01*
X130246961Y-92660885D01*
X130219008Y-92611309D01*
X130208527Y-92575616D01*
X130197096Y-92536684D01*
X130143958Y-92454000D01*
X130122949Y-92421309D01*
X130122947Y-92421306D01*
X130118077Y-92413729D01*
X130094613Y-92393397D01*
X130014431Y-92323918D01*
X130014428Y-92323916D01*
X130007619Y-92318016D01*
X129999421Y-92314272D01*
X129882864Y-92261042D01*
X129882863Y-92261042D01*
X129874670Y-92257300D01*
X129865755Y-92256018D01*
X129865754Y-92256018D01*
X129734448Y-92237139D01*
X129734441Y-92237138D01*
X129730000Y-92236500D01*
X128030000Y-92236500D01*
X127968488Y-92240900D01*
X127899116Y-92225809D01*
X127848913Y-92175608D01*
X127833500Y-92115221D01*
X127833500Y-88067548D01*
X135892000Y-88067548D01*
X135892000Y-88314223D01*
X135892424Y-88321524D01*
X135906617Y-88443255D01*
X135909963Y-88457410D01*
X135965263Y-88609761D01*
X135971773Y-88622760D01*
X136060641Y-88758306D01*
X136069965Y-88769458D01*
X136187629Y-88880922D01*
X136199276Y-88889635D01*
X136339429Y-88971043D01*
X136352754Y-88976837D01*
X136508700Y-89024068D01*
X136521323Y-89026516D01*
X136591184Y-89032751D01*
X136596779Y-89033000D01*
X136627885Y-89033000D01*
X136643124Y-89028525D01*
X136644329Y-89027135D01*
X136646000Y-89019452D01*
X136646000Y-88072115D01*
X136641525Y-88056876D01*
X136640135Y-88055671D01*
X136632452Y-88054000D01*
X135910115Y-88054000D01*
X135894876Y-88058475D01*
X135893671Y-88059865D01*
X135892000Y-88067548D01*
X127833500Y-88067548D01*
X127833500Y-87908706D01*
X127853502Y-87840585D01*
X127907158Y-87794092D01*
X127924003Y-87787810D01*
X127955624Y-87778526D01*
X127956829Y-87777135D01*
X127958500Y-87769452D01*
X127958500Y-85835115D01*
X127954025Y-85819876D01*
X127952635Y-85818671D01*
X127932719Y-85814339D01*
X127870406Y-85780315D01*
X127836380Y-85718003D01*
X127833500Y-85691218D01*
X127833500Y-85239500D01*
X127853502Y-85171379D01*
X127907158Y-85124886D01*
X127959500Y-85113500D01*
X128500000Y-85113500D01*
X128573079Y-85108273D01*
X128651165Y-85085345D01*
X128704670Y-85069635D01*
X128704672Y-85069634D01*
X128713316Y-85067096D01*
X128720894Y-85062226D01*
X128720896Y-85062225D01*
X128834686Y-84989096D01*
X128902807Y-84969094D01*
X128970928Y-84989096D01*
X128985318Y-84999868D01*
X129022381Y-85031984D01*
X129030579Y-85035728D01*
X129093693Y-85064551D01*
X129155330Y-85092700D01*
X129164245Y-85093982D01*
X129164246Y-85093982D01*
X129295552Y-85112861D01*
X129295559Y-85112862D01*
X129300000Y-85113500D01*
X130686406Y-85113500D01*
X130754527Y-85133502D01*
X130801020Y-85187158D01*
X130811124Y-85257432D01*
X130781630Y-85322012D01*
X130775501Y-85328595D01*
X130300668Y-85803428D01*
X130238356Y-85837454D01*
X130175051Y-85834924D01*
X130147014Y-85826433D01*
X130135920Y-85823073D01*
X130129484Y-85822499D01*
X130129481Y-85822498D01*
X130065066Y-85816749D01*
X130065060Y-85816749D01*
X130062273Y-85816500D01*
X129525865Y-85816500D01*
X129435787Y-85827002D01*
X129407568Y-85830292D01*
X129407567Y-85830292D01*
X129400296Y-85831140D01*
X129393419Y-85833636D01*
X129393416Y-85833637D01*
X129247757Y-85886509D01*
X129240878Y-85889006D01*
X129152111Y-85947204D01*
X129121771Y-85967096D01*
X129099049Y-85981993D01*
X129094010Y-85987313D01*
X129094008Y-85987314D01*
X129089244Y-85992342D01*
X129027875Y-86028039D01*
X128956948Y-86024891D01*
X128911119Y-85997160D01*
X128874902Y-85962851D01*
X128863255Y-85954138D01*
X128729360Y-85876365D01*
X128716035Y-85870571D01*
X128567016Y-85825438D01*
X128554393Y-85822990D01*
X128490066Y-85817249D01*
X128484596Y-85817006D01*
X128469376Y-85821475D01*
X128468171Y-85822865D01*
X128466500Y-85830548D01*
X128466500Y-87764885D01*
X128470975Y-87780124D01*
X128472365Y-87781329D01*
X128477985Y-87782551D01*
X128592319Y-87769222D01*
X128606466Y-87765878D01*
X128752022Y-87713043D01*
X128765017Y-87706535D01*
X128894511Y-87621635D01*
X128905663Y-87612311D01*
X128910052Y-87607678D01*
X128971421Y-87571980D01*
X129042348Y-87575128D01*
X129088178Y-87602858D01*
X129130115Y-87642586D01*
X129276766Y-87727767D01*
X129411821Y-87768671D01*
X129426088Y-87772992D01*
X129439080Y-87776927D01*
X129445520Y-87777502D01*
X129445521Y-87777502D01*
X129509934Y-87783251D01*
X129509940Y-87783251D01*
X129512727Y-87783500D01*
X130049135Y-87783500D01*
X130152275Y-87771475D01*
X130167432Y-87769708D01*
X130167433Y-87769708D01*
X130174704Y-87768860D01*
X130181581Y-87766364D01*
X130181584Y-87766363D01*
X130327243Y-87713491D01*
X130334122Y-87710994D01*
X130475951Y-87618007D01*
X130592586Y-87494885D01*
X130677767Y-87348234D01*
X130700923Y-87271779D01*
X135892000Y-87271779D01*
X135892000Y-87527885D01*
X135896475Y-87543124D01*
X135897865Y-87544329D01*
X135905548Y-87546000D01*
X136627885Y-87546000D01*
X136643124Y-87541525D01*
X136644329Y-87540135D01*
X136646000Y-87532452D01*
X136646000Y-86585115D01*
X136641525Y-86569876D01*
X136640135Y-86568671D01*
X136632452Y-86567000D01*
X136610777Y-86567000D01*
X136603476Y-86567424D01*
X136481745Y-86581617D01*
X136467590Y-86584963D01*
X136315239Y-86640263D01*
X136302240Y-86646773D01*
X136166694Y-86735641D01*
X136155542Y-86744965D01*
X136044078Y-86862629D01*
X136035365Y-86874276D01*
X135953957Y-87014429D01*
X135948163Y-87027754D01*
X135900932Y-87183700D01*
X135898484Y-87196323D01*
X135892249Y-87266184D01*
X135892000Y-87271779D01*
X130700923Y-87271779D01*
X130725131Y-87191850D01*
X130756626Y-87139278D01*
X133495500Y-84400405D01*
X133557812Y-84366379D01*
X133584595Y-84363500D01*
X133800000Y-84363500D01*
X133873079Y-84358273D01*
X133968398Y-84330285D01*
X134004670Y-84319635D01*
X134004672Y-84319634D01*
X134013316Y-84317096D01*
X134069138Y-84281221D01*
X134128691Y-84242949D01*
X134128694Y-84242947D01*
X134136271Y-84238077D01*
X134143034Y-84230273D01*
X134203432Y-84160570D01*
X134263158Y-84122186D01*
X134334154Y-84122186D01*
X134393880Y-84160570D01*
X134404652Y-84174958D01*
X134407050Y-84178689D01*
X134411923Y-84186271D01*
X134418733Y-84192172D01*
X134515569Y-84276082D01*
X134515572Y-84276084D01*
X134522381Y-84281984D01*
X134530579Y-84285728D01*
X134587437Y-84311694D01*
X134655330Y-84342700D01*
X134664245Y-84343982D01*
X134664246Y-84343982D01*
X134795552Y-84362861D01*
X134795559Y-84362862D01*
X134800000Y-84363500D01*
X135600000Y-84363500D01*
X135673079Y-84358273D01*
X135768398Y-84330285D01*
X135804670Y-84319635D01*
X135804672Y-84319634D01*
X135813316Y-84317096D01*
X135869138Y-84281221D01*
X135928691Y-84242949D01*
X135928694Y-84242947D01*
X135936271Y-84238077D01*
X136011499Y-84151260D01*
X136042585Y-84125319D01*
X136068534Y-84109973D01*
X136077765Y-84104514D01*
X136078183Y-84104145D01*
X136092266Y-84090062D01*
X136107291Y-84077228D01*
X136123507Y-84065446D01*
X136151454Y-84031664D01*
X136159443Y-84022885D01*
X137442533Y-82739795D01*
X137450621Y-82732435D01*
X137457015Y-82728377D01*
X137502890Y-82679525D01*
X137505644Y-82676684D01*
X137525958Y-82656370D01*
X137528603Y-82652959D01*
X137536309Y-82643937D01*
X137561153Y-82617481D01*
X137566577Y-82611705D01*
X137573786Y-82598592D01*
X137576338Y-82593951D01*
X137587192Y-82577427D01*
X137594745Y-82567690D01*
X137594745Y-82567689D01*
X137599603Y-82561427D01*
X137617162Y-82520851D01*
X137622383Y-82510194D01*
X137627987Y-82500000D01*
X137643682Y-82471452D01*
X137647410Y-82456932D01*
X137648719Y-82451836D01*
X137655123Y-82433132D01*
X137660019Y-82421819D01*
X137660021Y-82421812D01*
X137663168Y-82414540D01*
X137664717Y-82404764D01*
X137670085Y-82370869D01*
X137672492Y-82359248D01*
X137682007Y-82322186D01*
X137682007Y-82322185D01*
X137683485Y-82316429D01*
X137683520Y-82315873D01*
X137683520Y-82295952D01*
X137685071Y-82276242D01*
X137686964Y-82264290D01*
X137686964Y-82264289D01*
X137688204Y-82256460D01*
X137684079Y-82212821D01*
X137683520Y-82200964D01*
X137683520Y-79309232D01*
X137703522Y-79241111D01*
X137757178Y-79194618D01*
X137827452Y-79184514D01*
X137845018Y-79188336D01*
G37*
%TD.AperFunction*%
%TA.AperFunction,Conductor*%
G36*
X147606121Y-80566002D02*
G01*
X147652614Y-80619658D01*
X147664000Y-80672000D01*
X147664000Y-82294885D01*
X147668475Y-82310124D01*
X147669865Y-82311329D01*
X147677548Y-82313000D01*
X147786906Y-82313000D01*
X147855027Y-82333002D01*
X147901520Y-82386658D01*
X147911624Y-82456932D01*
X147882130Y-82521512D01*
X147876001Y-82528095D01*
X147074501Y-83329595D01*
X147012189Y-83363621D01*
X146985406Y-83366500D01*
X146899500Y-83366500D01*
X146831379Y-83346498D01*
X146784886Y-83292842D01*
X146773500Y-83240500D01*
X146773500Y-82438249D01*
X146793502Y-82370128D01*
X146847158Y-82323635D01*
X146908489Y-82312570D01*
X146914501Y-82313000D01*
X147137885Y-82313000D01*
X147153124Y-82308525D01*
X147154329Y-82307135D01*
X147156000Y-82299452D01*
X147156000Y-80672000D01*
X147176002Y-80603879D01*
X147229658Y-80557386D01*
X147282000Y-80546000D01*
X147538000Y-80546000D01*
X147606121Y-80566002D01*
G37*
%TD.AperFunction*%
%TA.AperFunction,Conductor*%
G36*
X136514527Y-73773502D02*
G01*
X136561020Y-73827158D01*
X136571124Y-73897432D01*
X136541630Y-73962012D01*
X136535501Y-73968595D01*
X134807487Y-75696609D01*
X134799399Y-75703969D01*
X134793005Y-75708027D01*
X134787580Y-75713804D01*
X134747131Y-75756878D01*
X134744376Y-75759720D01*
X134724062Y-75780034D01*
X134721417Y-75783445D01*
X134713713Y-75792465D01*
X134683443Y-75824699D01*
X134679626Y-75831643D01*
X134679624Y-75831645D01*
X134673682Y-75842453D01*
X134662828Y-75858977D01*
X134650417Y-75874977D01*
X134647270Y-75882248D01*
X134647270Y-75882249D01*
X134632859Y-75915551D01*
X134627638Y-75926207D01*
X134606338Y-75964952D01*
X134604366Y-75972635D01*
X134604365Y-75972636D01*
X134601301Y-75984568D01*
X134594897Y-76003272D01*
X134590001Y-76014585D01*
X134589999Y-76014592D01*
X134586852Y-76021864D01*
X134585613Y-76029688D01*
X134585612Y-76029691D01*
X134579935Y-76065535D01*
X134577528Y-76077156D01*
X134568013Y-76114218D01*
X134566535Y-76119975D01*
X134566500Y-76120531D01*
X134566500Y-76140452D01*
X134564949Y-76160162D01*
X134561816Y-76179944D01*
X134562562Y-76187836D01*
X134565941Y-76223582D01*
X134566500Y-76235440D01*
X134566500Y-80427075D01*
X134546498Y-80495196D01*
X134508620Y-80533073D01*
X134471312Y-80557049D01*
X134471309Y-80557052D01*
X134463729Y-80561923D01*
X134457827Y-80568734D01*
X134457825Y-80568736D01*
X134396568Y-80639430D01*
X134336842Y-80677814D01*
X134265846Y-80677814D01*
X134206120Y-80639430D01*
X134195348Y-80625042D01*
X134192950Y-80621311D01*
X134192949Y-80621310D01*
X134188077Y-80613729D01*
X134163797Y-80592690D01*
X134084431Y-80523918D01*
X134084428Y-80523916D01*
X134077619Y-80518016D01*
X134066290Y-80512842D01*
X133952864Y-80461042D01*
X133952863Y-80461042D01*
X133944670Y-80457300D01*
X133935755Y-80456018D01*
X133935754Y-80456018D01*
X133804448Y-80437139D01*
X133804441Y-80437138D01*
X133800000Y-80436500D01*
X133000000Y-80436500D01*
X132926921Y-80441727D01*
X132873884Y-80457300D01*
X132795330Y-80480365D01*
X132795328Y-80480366D01*
X132786684Y-80482904D01*
X132688506Y-80546000D01*
X132687731Y-80546498D01*
X132619610Y-80566500D01*
X130878383Y-80566500D01*
X130867479Y-80565986D01*
X130860088Y-80564334D01*
X130852162Y-80564583D01*
X130852161Y-80564583D01*
X130793134Y-80566438D01*
X130789176Y-80566500D01*
X130760422Y-80566500D01*
X130756155Y-80567039D01*
X130744313Y-80567972D01*
X130712665Y-80568967D01*
X130708040Y-80569112D01*
X130700117Y-80569361D01*
X130680667Y-80575012D01*
X130661305Y-80579022D01*
X130641212Y-80581560D01*
X130637492Y-80583033D01*
X130610049Y-80586500D01*
X129300000Y-80586500D01*
X129226921Y-80591727D01*
X129173884Y-80607300D01*
X129095330Y-80630365D01*
X129095328Y-80630366D01*
X129086684Y-80632904D01*
X129079106Y-80637774D01*
X129079104Y-80637775D01*
X128965314Y-80710904D01*
X128897193Y-80730906D01*
X128829072Y-80710904D01*
X128814680Y-80700130D01*
X128784430Y-80673918D01*
X128777619Y-80668016D01*
X128695175Y-80630365D01*
X128652864Y-80611042D01*
X128652863Y-80611042D01*
X128644670Y-80607300D01*
X128635755Y-80606018D01*
X128635754Y-80606018D01*
X128504448Y-80587139D01*
X128504441Y-80587138D01*
X128500000Y-80586500D01*
X127424896Y-80586500D01*
X127356775Y-80566498D01*
X127310282Y-80512842D01*
X127298899Y-80459631D01*
X127299010Y-80443631D01*
X127317434Y-77772072D01*
X127337905Y-77704091D01*
X127391880Y-77657969D01*
X127462222Y-77648350D01*
X127526598Y-77678288D01*
X127564569Y-77738277D01*
X127567828Y-77752905D01*
X127576153Y-77804594D01*
X127576155Y-77804601D01*
X127577002Y-77809861D01*
X127651494Y-78028056D01*
X127654044Y-78032743D01*
X127654045Y-78032745D01*
X127685420Y-78090410D01*
X127761685Y-78230580D01*
X127904424Y-78411644D01*
X127908389Y-78415220D01*
X128071659Y-78562489D01*
X128071665Y-78562494D01*
X128075629Y-78566069D01*
X128270406Y-78689439D01*
X128483184Y-78778228D01*
X128488387Y-78779425D01*
X128488392Y-78779426D01*
X128702678Y-78828701D01*
X128702683Y-78828702D01*
X128707881Y-78829897D01*
X128713209Y-78830200D01*
X128713212Y-78830200D01*
X128869293Y-78839063D01*
X128938071Y-78842968D01*
X128943378Y-78842368D01*
X128943380Y-78842368D01*
X129066005Y-78828505D01*
X129167173Y-78817068D01*
X129172288Y-78815587D01*
X129172292Y-78815586D01*
X129274691Y-78785933D01*
X129388635Y-78752937D01*
X129596125Y-78652409D01*
X129600463Y-78649309D01*
X129600468Y-78649306D01*
X129758047Y-78536697D01*
X129783711Y-78518357D01*
X129946030Y-78354617D01*
X130033043Y-78230580D01*
X130075375Y-78170236D01*
X130075376Y-78170234D01*
X130078439Y-78165868D01*
X130090332Y-78140766D01*
X130174868Y-77962331D01*
X130177153Y-77957508D01*
X130239349Y-77735494D01*
X130263249Y-77506176D01*
X130263500Y-77480000D01*
X130259631Y-77434398D01*
X130244458Y-77255576D01*
X130244457Y-77255572D01*
X130244007Y-77250265D01*
X130242669Y-77245110D01*
X130242668Y-77245104D01*
X130217119Y-77146670D01*
X130219366Y-77075709D01*
X130249983Y-77025921D01*
X133485499Y-73790405D01*
X133547811Y-73756379D01*
X133574594Y-73753500D01*
X136446406Y-73753500D01*
X136514527Y-73773502D01*
G37*
%TD.AperFunction*%
%TA.AperFunction,Conductor*%
G36*
X150481512Y-78809288D02*
G01*
X150519896Y-78869014D01*
X150532904Y-78913316D01*
X150537775Y-78920895D01*
X150607051Y-79028691D01*
X150607053Y-79028694D01*
X150611923Y-79036271D01*
X150618733Y-79042172D01*
X150666059Y-79083181D01*
X150704442Y-79142908D01*
X150704442Y-79213904D01*
X150666058Y-79273630D01*
X150601476Y-79303123D01*
X150565614Y-79303122D01*
X150454459Y-79287140D01*
X150454444Y-79287139D01*
X150450000Y-79286500D01*
X150398249Y-79286500D01*
X150330128Y-79266498D01*
X150283635Y-79212842D01*
X150272570Y-79151511D01*
X150273000Y-79145499D01*
X150273000Y-78904512D01*
X150293002Y-78836391D01*
X150346658Y-78789898D01*
X150416932Y-78779794D01*
X150481512Y-78809288D01*
G37*
%TD.AperFunction*%
%TA.AperFunction,Conductor*%
G36*
X150530545Y-65820002D02*
G01*
X150577038Y-65873658D01*
X150587142Y-65943932D01*
X150569869Y-65990243D01*
X150568016Y-65992381D01*
X150564275Y-66000574D01*
X150564273Y-66000576D01*
X150515293Y-66107828D01*
X150507300Y-66125330D01*
X150506018Y-66134245D01*
X150506018Y-66134246D01*
X150487139Y-66265552D01*
X150487138Y-66265559D01*
X150486500Y-66270000D01*
X150486500Y-66316251D01*
X150466498Y-66384372D01*
X150412842Y-66430865D01*
X150352167Y-66441812D01*
X150350000Y-66441500D01*
X149450000Y-66441500D01*
X149376921Y-66446727D01*
X149327886Y-66461125D01*
X149245330Y-66485365D01*
X149245328Y-66485366D01*
X149236684Y-66487904D01*
X149198528Y-66512426D01*
X149121309Y-66562051D01*
X149121306Y-66562053D01*
X149113729Y-66566923D01*
X149107828Y-66573733D01*
X149067864Y-66619853D01*
X149008137Y-66658236D01*
X148937141Y-66658236D01*
X148898580Y-66639277D01*
X148871845Y-66619853D01*
X148856750Y-66608886D01*
X148850722Y-66606202D01*
X148850720Y-66606201D01*
X148688318Y-66533895D01*
X148688317Y-66533895D01*
X148682287Y-66531210D01*
X148588887Y-66511357D01*
X148501944Y-66492876D01*
X148501939Y-66492876D01*
X148495487Y-66491504D01*
X148304513Y-66491504D01*
X148298061Y-66492876D01*
X148298056Y-66492876D01*
X148211113Y-66511357D01*
X148117713Y-66531210D01*
X148111683Y-66533895D01*
X148111682Y-66533895D01*
X147949280Y-66606201D01*
X147949278Y-66606202D01*
X147943250Y-66608886D01*
X147937909Y-66612766D01*
X147937908Y-66612767D01*
X147794093Y-66717254D01*
X147794091Y-66717256D01*
X147788749Y-66721137D01*
X147660963Y-66863058D01*
X147565476Y-67028446D01*
X147506462Y-67210073D01*
X147505772Y-67216636D01*
X147505772Y-67216637D01*
X147502967Y-67243324D01*
X147486500Y-67400000D01*
X147487190Y-67406565D01*
X147501697Y-67544586D01*
X147506462Y-67589927D01*
X147508502Y-67596205D01*
X147508502Y-67596206D01*
X147513407Y-67611302D01*
X147565476Y-67771554D01*
X147568779Y-67777276D01*
X147568780Y-67777277D01*
X147660963Y-67936942D01*
X147658328Y-67938463D01*
X147677692Y-67993005D01*
X147661502Y-68062131D01*
X147660922Y-68063034D01*
X147660963Y-68063058D01*
X147565476Y-68228446D01*
X147506462Y-68410073D01*
X147486500Y-68600000D01*
X147487190Y-68606565D01*
X147503139Y-68758306D01*
X147506462Y-68789927D01*
X147565476Y-68971554D01*
X147660963Y-69136942D01*
X147765935Y-69253525D01*
X147796652Y-69317533D01*
X147787887Y-69387986D01*
X147781420Y-69400829D01*
X147765476Y-69428446D01*
X147706462Y-69610073D01*
X147705772Y-69616636D01*
X147705772Y-69616637D01*
X147702636Y-69646473D01*
X147686500Y-69800000D01*
X147687190Y-69806565D01*
X147703481Y-69961560D01*
X147706462Y-69989927D01*
X147708502Y-69996205D01*
X147708502Y-69996206D01*
X147734262Y-70075486D01*
X147765476Y-70171554D01*
X147768779Y-70177276D01*
X147768780Y-70177277D01*
X147803261Y-70237000D01*
X147819999Y-70305996D01*
X147803261Y-70363000D01*
X147787590Y-70390144D01*
X147765476Y-70428446D01*
X147763434Y-70434731D01*
X147712796Y-70590580D01*
X147706462Y-70610073D01*
X147705772Y-70616636D01*
X147705772Y-70616637D01*
X147695474Y-70714617D01*
X147686500Y-70800000D01*
X147687190Y-70806565D01*
X147704823Y-70974329D01*
X147706462Y-70989927D01*
X147708502Y-70996205D01*
X147708502Y-70996206D01*
X147726467Y-71051496D01*
X147765476Y-71171554D01*
X147768779Y-71177276D01*
X147768780Y-71177277D01*
X147802844Y-71236277D01*
X147819582Y-71305272D01*
X147802845Y-71362275D01*
X147760992Y-71434766D01*
X147743954Y-71487205D01*
X147709539Y-71593124D01*
X147701978Y-71616393D01*
X147682016Y-71806320D01*
X147682706Y-71812885D01*
X147696689Y-71945921D01*
X147701978Y-71996247D01*
X147704018Y-72002525D01*
X147704018Y-72002526D01*
X147707212Y-72012357D01*
X147760992Y-72177874D01*
X147797881Y-72241767D01*
X147814618Y-72310760D01*
X147797881Y-72367763D01*
X147750591Y-72449671D01*
X147738207Y-72487786D01*
X147694515Y-72622257D01*
X147691577Y-72631298D01*
X147671615Y-72821225D01*
X147672305Y-72827790D01*
X147676929Y-72871780D01*
X147691577Y-73011152D01*
X147750591Y-73192779D01*
X147753894Y-73198501D01*
X147753895Y-73198502D01*
X147846078Y-73358167D01*
X147844030Y-73359349D01*
X147864257Y-73416051D01*
X147847581Y-73486236D01*
X147823469Y-73528000D01*
X147765476Y-73628446D01*
X147763434Y-73634731D01*
X147709552Y-73800564D01*
X147706462Y-73810073D01*
X147686500Y-74000000D01*
X147687190Y-74006565D01*
X147703693Y-74163577D01*
X147706462Y-74189927D01*
X147765476Y-74371554D01*
X147860963Y-74536942D01*
X147988749Y-74678863D01*
X147994091Y-74682744D01*
X147994093Y-74682746D01*
X148128319Y-74780266D01*
X148171673Y-74836488D01*
X148177748Y-74907224D01*
X148147896Y-74966509D01*
X148060963Y-75063058D01*
X147965476Y-75228446D01*
X147906462Y-75410073D01*
X147886500Y-75600000D01*
X147887190Y-75606565D01*
X147905128Y-75777230D01*
X147906462Y-75789927D01*
X147965476Y-75971554D01*
X147968779Y-75977276D01*
X147968780Y-75977277D01*
X147979417Y-75995701D01*
X148060963Y-76136942D01*
X148065381Y-76141849D01*
X148065382Y-76141850D01*
X148127021Y-76210307D01*
X148188749Y-76278863D01*
X148194091Y-76282744D01*
X148194093Y-76282746D01*
X148321807Y-76375535D01*
X148343250Y-76391114D01*
X148349278Y-76393798D01*
X148349280Y-76393799D01*
X148511682Y-76466105D01*
X148517713Y-76468790D01*
X148675519Y-76502333D01*
X148737993Y-76536062D01*
X148772314Y-76598211D01*
X148767586Y-76669050D01*
X148725310Y-76726088D01*
X148675519Y-76748827D01*
X148498415Y-76786472D01*
X148492385Y-76789157D01*
X148492384Y-76789157D01*
X148329982Y-76861463D01*
X148329980Y-76861464D01*
X148323952Y-76864148D01*
X148318611Y-76868028D01*
X148318610Y-76868029D01*
X148174795Y-76972516D01*
X148174793Y-76972518D01*
X148169451Y-76976399D01*
X148165030Y-76981309D01*
X148165029Y-76981310D01*
X148051224Y-77107704D01*
X148041665Y-77118320D01*
X148038364Y-77124038D01*
X148037407Y-77125695D01*
X148036603Y-77126462D01*
X148034481Y-77129382D01*
X148033947Y-77128994D01*
X147986023Y-77174686D01*
X147916308Y-77188120D01*
X147850398Y-77161731D01*
X147834659Y-77147007D01*
X147808291Y-77117722D01*
X147802949Y-77113841D01*
X147802947Y-77113839D01*
X147659132Y-77009352D01*
X147659131Y-77009351D01*
X147653790Y-77005471D01*
X147647762Y-77002787D01*
X147647760Y-77002786D01*
X147485358Y-76930480D01*
X147485357Y-76930480D01*
X147479327Y-76927795D01*
X147364719Y-76903434D01*
X147298984Y-76889461D01*
X147298979Y-76889461D01*
X147292527Y-76888089D01*
X147101553Y-76888089D01*
X147095101Y-76889461D01*
X147095096Y-76889461D01*
X147029361Y-76903434D01*
X146914753Y-76927795D01*
X146908723Y-76930480D01*
X146908722Y-76930480D01*
X146746320Y-77002786D01*
X146746318Y-77002787D01*
X146740290Y-77005471D01*
X146683194Y-77046953D01*
X146616327Y-77070812D01*
X146547176Y-77054731D01*
X146535073Y-77046953D01*
X146531400Y-77044284D01*
X146458528Y-76991340D01*
X146434377Y-76973793D01*
X146434376Y-76973792D01*
X146429035Y-76969912D01*
X146423007Y-76967228D01*
X146423005Y-76967227D01*
X146260603Y-76894921D01*
X146260602Y-76894921D01*
X146254572Y-76892236D01*
X146159911Y-76872115D01*
X146074229Y-76853902D01*
X146074224Y-76853902D01*
X146067772Y-76852530D01*
X145876798Y-76852530D01*
X145870346Y-76853902D01*
X145870341Y-76853902D01*
X145784659Y-76872115D01*
X145689998Y-76892236D01*
X145683968Y-76894921D01*
X145683967Y-76894921D01*
X145521565Y-76967227D01*
X145521563Y-76967228D01*
X145515535Y-76969912D01*
X145510194Y-76973792D01*
X145510193Y-76973793D01*
X145461250Y-77009352D01*
X145361034Y-77082163D01*
X145357590Y-77085988D01*
X145294067Y-77116470D01*
X145223613Y-77107704D01*
X145199707Y-77094052D01*
X145087827Y-77012767D01*
X145087826Y-77012766D01*
X145082485Y-77008886D01*
X145076457Y-77006202D01*
X145076455Y-77006201D01*
X144914053Y-76933895D01*
X144914052Y-76933895D01*
X144908022Y-76931210D01*
X144799191Y-76908077D01*
X144727679Y-76892876D01*
X144727674Y-76892876D01*
X144721222Y-76891504D01*
X144530248Y-76891504D01*
X144523796Y-76892876D01*
X144523791Y-76892876D01*
X144452279Y-76908077D01*
X144343448Y-76931210D01*
X144337418Y-76933895D01*
X144337417Y-76933895D01*
X144175015Y-77006201D01*
X144175013Y-77006202D01*
X144168985Y-77008886D01*
X144163644Y-77012766D01*
X144163643Y-77012767D01*
X144089168Y-77066876D01*
X144022300Y-77090735D01*
X143953148Y-77074654D01*
X143941047Y-77066876D01*
X143854988Y-77004351D01*
X143854983Y-77004348D01*
X143849641Y-77000467D01*
X143843613Y-76997783D01*
X143843611Y-76997782D01*
X143681209Y-76925476D01*
X143681208Y-76925476D01*
X143675178Y-76922791D01*
X143581778Y-76902938D01*
X143494835Y-76884457D01*
X143494830Y-76884457D01*
X143488378Y-76883085D01*
X143297404Y-76883085D01*
X143290952Y-76884457D01*
X143290947Y-76884457D01*
X143204004Y-76902938D01*
X143110604Y-76922791D01*
X143104574Y-76925476D01*
X143104573Y-76925476D01*
X142942171Y-76997782D01*
X142942169Y-76997783D01*
X142936141Y-77000467D01*
X142930800Y-77004347D01*
X142930799Y-77004348D01*
X142879873Y-77041348D01*
X142813005Y-77065207D01*
X142743854Y-77049126D01*
X142731759Y-77041353D01*
X142638770Y-76973793D01*
X142631708Y-76968662D01*
X142631707Y-76968661D01*
X142626366Y-76964781D01*
X142620338Y-76962097D01*
X142620336Y-76962096D01*
X142457934Y-76889790D01*
X142457933Y-76889790D01*
X142451903Y-76887105D01*
X142343900Y-76864148D01*
X142271560Y-76848771D01*
X142271555Y-76848771D01*
X142265103Y-76847399D01*
X142074129Y-76847399D01*
X142067677Y-76848771D01*
X142067672Y-76848771D01*
X141995332Y-76864148D01*
X141887329Y-76887105D01*
X141881299Y-76889790D01*
X141881298Y-76889790D01*
X141718896Y-76962096D01*
X141718894Y-76962097D01*
X141712866Y-76964781D01*
X141707525Y-76968661D01*
X141707524Y-76968662D01*
X141563709Y-77073149D01*
X141563707Y-77073151D01*
X141558365Y-77077032D01*
X141553944Y-77081942D01*
X141553943Y-77081943D01*
X141438457Y-77210204D01*
X141430579Y-77218953D01*
X141335092Y-77384341D01*
X141318828Y-77434398D01*
X141295506Y-77506176D01*
X141276078Y-77565968D01*
X141275388Y-77572531D01*
X141275388Y-77572532D01*
X141269163Y-77631759D01*
X141242150Y-77697416D01*
X141183928Y-77738045D01*
X141170599Y-77741464D01*
X141166921Y-77741727D01*
X141099502Y-77761523D01*
X141035330Y-77780365D01*
X141035328Y-77780366D01*
X141026684Y-77782904D01*
X141019105Y-77787775D01*
X140911309Y-77857051D01*
X140911306Y-77857053D01*
X140903729Y-77861923D01*
X140897828Y-77868733D01*
X140813918Y-77965569D01*
X140813916Y-77965572D01*
X140808016Y-77972381D01*
X140804272Y-77980578D01*
X140804270Y-77980582D01*
X140754113Y-78090410D01*
X140707620Y-78144065D01*
X140639500Y-78164067D01*
X140571379Y-78144065D01*
X140524886Y-78090409D01*
X140513500Y-78038067D01*
X140513500Y-77700000D01*
X140508273Y-77626921D01*
X140500498Y-77600440D01*
X140496676Y-77547013D01*
X140502124Y-77509127D01*
X140513500Y-77430000D01*
X140513500Y-76430000D01*
X140508273Y-76356921D01*
X140500498Y-76330440D01*
X140496676Y-76277013D01*
X140497117Y-76273952D01*
X140513500Y-76160000D01*
X140513500Y-75160000D01*
X140508273Y-75086921D01*
X140500498Y-75060440D01*
X140496676Y-75007013D01*
X140496689Y-75006929D01*
X140513500Y-74890000D01*
X140513500Y-73890000D01*
X140508273Y-73816921D01*
X140500498Y-73790440D01*
X140496676Y-73737013D01*
X140499310Y-73718697D01*
X140513500Y-73620000D01*
X140513500Y-72620000D01*
X140508273Y-72546921D01*
X140505343Y-72536942D01*
X140500163Y-72519299D01*
X140496341Y-72465871D01*
X140512361Y-72354448D01*
X140513000Y-72345503D01*
X140513000Y-72122115D01*
X140508525Y-72106876D01*
X140507135Y-72105671D01*
X140499452Y-72104000D01*
X137505115Y-72104000D01*
X137489876Y-72108475D01*
X137488671Y-72109865D01*
X137487000Y-72117548D01*
X137487000Y-72347743D01*
X137487241Y-72354492D01*
X137486455Y-72354520D01*
X137472014Y-72420890D01*
X137421809Y-72471090D01*
X137361429Y-72486500D01*
X133338383Y-72486500D01*
X133327479Y-72485986D01*
X133320088Y-72484334D01*
X133312162Y-72484583D01*
X133312161Y-72484583D01*
X133253134Y-72486438D01*
X133249176Y-72486500D01*
X133220422Y-72486500D01*
X133216155Y-72487039D01*
X133204313Y-72487972D01*
X133172665Y-72488967D01*
X133168040Y-72489112D01*
X133160117Y-72489361D01*
X133140667Y-72495012D01*
X133121305Y-72499022D01*
X133118580Y-72499366D01*
X133109070Y-72500567D01*
X133109067Y-72500568D01*
X133101212Y-72501560D01*
X133093847Y-72504476D01*
X133093843Y-72504477D01*
X133060099Y-72517837D01*
X133048872Y-72521681D01*
X133006422Y-72534014D01*
X132999594Y-72538052D01*
X132988989Y-72544323D01*
X132971238Y-72553019D01*
X132959774Y-72557558D01*
X132959771Y-72557560D01*
X132952400Y-72560478D01*
X132945984Y-72565139D01*
X132945985Y-72565139D01*
X132916633Y-72586465D01*
X132906710Y-72592983D01*
X132868659Y-72615486D01*
X132868241Y-72615855D01*
X132854158Y-72629938D01*
X132839133Y-72642772D01*
X132822917Y-72654554D01*
X132806870Y-72673952D01*
X132794971Y-72688335D01*
X132786981Y-72697115D01*
X130477167Y-75006929D01*
X130414855Y-75040955D01*
X130344040Y-75035890D01*
X130287204Y-74993343D01*
X130262523Y-74928487D01*
X130259258Y-74890000D01*
X130244007Y-74710265D01*
X130242669Y-74705110D01*
X130242668Y-74705104D01*
X130217119Y-74606670D01*
X130219366Y-74535709D01*
X130249983Y-74485921D01*
X133485499Y-71250405D01*
X133547811Y-71216379D01*
X133574594Y-71213500D01*
X137361751Y-71213500D01*
X137429872Y-71233502D01*
X137476365Y-71287158D01*
X137487430Y-71348489D01*
X137487000Y-71354497D01*
X137487000Y-71577885D01*
X137491475Y-71593124D01*
X137492865Y-71594329D01*
X137500548Y-71596000D01*
X140494885Y-71596000D01*
X140510124Y-71591525D01*
X140511329Y-71590135D01*
X140513000Y-71582452D01*
X140513000Y-71352257D01*
X140512839Y-71347750D01*
X140508260Y-71283729D01*
X140505875Y-71270509D01*
X140500329Y-71251622D01*
X140496507Y-71198193D01*
X140512861Y-71084448D01*
X140512862Y-71084441D01*
X140513500Y-71080000D01*
X140513500Y-70080000D01*
X140508273Y-70006921D01*
X140500498Y-69980440D01*
X140496676Y-69927013D01*
X140496689Y-69926929D01*
X140513500Y-69810000D01*
X140513500Y-68810000D01*
X140508273Y-68736921D01*
X140500498Y-68710440D01*
X140496676Y-68657013D01*
X140502416Y-68617096D01*
X140513500Y-68540000D01*
X140513500Y-67540000D01*
X140508273Y-67466921D01*
X140500498Y-67440440D01*
X140496676Y-67387013D01*
X140499863Y-67364852D01*
X140513500Y-67270000D01*
X140513500Y-66270000D01*
X140508273Y-66196921D01*
X140474507Y-66081923D01*
X140469635Y-66065330D01*
X140469634Y-66065328D01*
X140467096Y-66056684D01*
X140438453Y-66012115D01*
X140426889Y-65994121D01*
X140406887Y-65926000D01*
X140426889Y-65857879D01*
X140480544Y-65811386D01*
X140532887Y-65800000D01*
X150462424Y-65800000D01*
X150530545Y-65820002D01*
G37*
%TD.AperFunction*%
%TA.AperFunction,Conductor*%
G36*
X166073032Y-75878502D02*
G01*
X166121320Y-75936280D01*
X166128812Y-75954369D01*
X166226309Y-76081429D01*
X166232859Y-76086455D01*
X166250150Y-76099723D01*
X166262541Y-76110590D01*
X166849529Y-76697578D01*
X166860396Y-76709969D01*
X166878690Y-76733810D01*
X166949705Y-76788302D01*
X166991571Y-76845639D01*
X166999000Y-76888263D01*
X166999000Y-76925000D01*
X167004227Y-76998079D01*
X167006612Y-77006201D01*
X167010072Y-77017985D01*
X167013893Y-77071412D01*
X166999639Y-77170552D01*
X166999638Y-77170559D01*
X166999000Y-77175000D01*
X166999000Y-77315500D01*
X166978998Y-77383621D01*
X166925342Y-77430114D01*
X166873000Y-77441500D01*
X165600676Y-77441500D01*
X165532555Y-77421498D01*
X165486062Y-77367842D01*
X165475958Y-77297568D01*
X165480086Y-77278977D01*
X165499066Y-77216309D01*
X165501516Y-77203677D01*
X165507751Y-77133816D01*
X165508000Y-77128221D01*
X165508000Y-76872115D01*
X165503525Y-76856876D01*
X165502135Y-76855671D01*
X165494452Y-76854000D01*
X164372000Y-76854000D01*
X164303879Y-76833998D01*
X164257386Y-76780342D01*
X164246000Y-76728000D01*
X164246000Y-76472000D01*
X164266002Y-76403879D01*
X164319658Y-76357386D01*
X164372000Y-76346000D01*
X165489885Y-76346000D01*
X165505124Y-76341525D01*
X165506329Y-76340135D01*
X165508000Y-76332452D01*
X165508000Y-76085777D01*
X165507576Y-76078476D01*
X165498320Y-75999092D01*
X165510298Y-75929113D01*
X165558209Y-75876719D01*
X165623472Y-75858500D01*
X166004911Y-75858500D01*
X166073032Y-75878502D01*
G37*
%TD.AperFunction*%
%TA.AperFunction,Conductor*%
G36*
X168045966Y-65820002D02*
G01*
X168092459Y-65873658D01*
X168102563Y-65943932D01*
X168092459Y-65978342D01*
X168086048Y-65992381D01*
X168057300Y-66055330D01*
X168056018Y-66064245D01*
X168056018Y-66064246D01*
X168037139Y-66195552D01*
X168037138Y-66195559D01*
X168036500Y-66200000D01*
X168036500Y-67000000D01*
X168038126Y-67022723D01*
X168038416Y-67026784D01*
X168023325Y-67096158D01*
X167986796Y-67137711D01*
X167981633Y-67141462D01*
X167971721Y-67147972D01*
X167933670Y-67170475D01*
X167933252Y-67170844D01*
X167919169Y-67184927D01*
X167904144Y-67197761D01*
X167887928Y-67209543D01*
X167859982Y-67243324D01*
X167851992Y-67252104D01*
X166207487Y-68896609D01*
X166199399Y-68903969D01*
X166193005Y-68908027D01*
X166187580Y-68913804D01*
X166147131Y-68956878D01*
X166144376Y-68959720D01*
X166124062Y-68980034D01*
X166121417Y-68983445D01*
X166113713Y-68992465D01*
X166083443Y-69024699D01*
X166079626Y-69031643D01*
X166079624Y-69031645D01*
X166073682Y-69042453D01*
X166062828Y-69058977D01*
X166050417Y-69074977D01*
X166047270Y-69082248D01*
X166047270Y-69082249D01*
X166032859Y-69115551D01*
X166027638Y-69126207D01*
X166006338Y-69164952D01*
X166004366Y-69172635D01*
X166004365Y-69172636D01*
X166001301Y-69184568D01*
X165994897Y-69203272D01*
X165990001Y-69214585D01*
X165989999Y-69214592D01*
X165986852Y-69221864D01*
X165985613Y-69229688D01*
X165985612Y-69229691D01*
X165979935Y-69265535D01*
X165977528Y-69277156D01*
X165968239Y-69313339D01*
X165966535Y-69319975D01*
X165966500Y-69320531D01*
X165966500Y-69340452D01*
X165964949Y-69360162D01*
X165961816Y-69379944D01*
X165962562Y-69387836D01*
X165965941Y-69423582D01*
X165966500Y-69435440D01*
X165966500Y-72921616D01*
X165965986Y-72932520D01*
X165964334Y-72939911D01*
X165964583Y-72947837D01*
X165964583Y-72947838D01*
X165966438Y-73006866D01*
X165966500Y-73010823D01*
X165966500Y-73039578D01*
X165966996Y-73043503D01*
X165966996Y-73043504D01*
X165967039Y-73043843D01*
X165967972Y-73055687D01*
X165969361Y-73099883D01*
X165971573Y-73107495D01*
X165975012Y-73119333D01*
X165979022Y-73138696D01*
X165979945Y-73146000D01*
X165981560Y-73158788D01*
X165984476Y-73166153D01*
X165984477Y-73166157D01*
X165997837Y-73199901D01*
X166001681Y-73211128D01*
X166014014Y-73253578D01*
X166018052Y-73260406D01*
X166024323Y-73271011D01*
X166033019Y-73288762D01*
X166037558Y-73300226D01*
X166040478Y-73307600D01*
X166060546Y-73335220D01*
X166066465Y-73343367D01*
X166072983Y-73353290D01*
X166095486Y-73391341D01*
X166095855Y-73391759D01*
X166109938Y-73405842D01*
X166122772Y-73420867D01*
X166134554Y-73437083D01*
X166168335Y-73465029D01*
X166177115Y-73473019D01*
X166680501Y-73976405D01*
X166714527Y-74038717D01*
X166709462Y-74109532D01*
X166666915Y-74166368D01*
X166600395Y-74191179D01*
X166591406Y-74191500D01*
X165615820Y-74191500D01*
X165547699Y-74171498D01*
X165501206Y-74117842D01*
X165491102Y-74047568D01*
X165495229Y-74028979D01*
X165499067Y-74016307D01*
X165501516Y-74003677D01*
X165507751Y-73933816D01*
X165508000Y-73928221D01*
X165508000Y-73672115D01*
X165503525Y-73656876D01*
X165502135Y-73655671D01*
X165494452Y-73654000D01*
X164372000Y-73654000D01*
X164303879Y-73633998D01*
X164257386Y-73580342D01*
X164246000Y-73528000D01*
X164246000Y-72185115D01*
X164244659Y-72180548D01*
X164754000Y-72180548D01*
X164754000Y-73127885D01*
X164758475Y-73143124D01*
X164759865Y-73144329D01*
X164767548Y-73146000D01*
X165489885Y-73146000D01*
X165505124Y-73141525D01*
X165506329Y-73140135D01*
X165508000Y-73132452D01*
X165508000Y-72885777D01*
X165507576Y-72878476D01*
X165493383Y-72756745D01*
X165490037Y-72742590D01*
X165434737Y-72590239D01*
X165428227Y-72577240D01*
X165339359Y-72441694D01*
X165330035Y-72430542D01*
X165212371Y-72319078D01*
X165200724Y-72310365D01*
X165060571Y-72228957D01*
X165047246Y-72223163D01*
X164891300Y-72175932D01*
X164878677Y-72173484D01*
X164808816Y-72167249D01*
X164803221Y-72167000D01*
X164772115Y-72167000D01*
X164756876Y-72171475D01*
X164755671Y-72172865D01*
X164754000Y-72180548D01*
X164244659Y-72180548D01*
X164241525Y-72169876D01*
X164240135Y-72168671D01*
X164232452Y-72167000D01*
X164210777Y-72167000D01*
X164203476Y-72167424D01*
X164081745Y-72181617D01*
X164067590Y-72184963D01*
X163915239Y-72240263D01*
X163902240Y-72246773D01*
X163766694Y-72335641D01*
X163755542Y-72344965D01*
X163641081Y-72465793D01*
X163579712Y-72501491D01*
X163508785Y-72498344D01*
X163450819Y-72457350D01*
X163444237Y-72448226D01*
X163439745Y-72441375D01*
X163439744Y-72441374D01*
X163435731Y-72435253D01*
X163307355Y-72313642D01*
X163154445Y-72224825D01*
X162985204Y-72173567D01*
X162978764Y-72172992D01*
X162978763Y-72172992D01*
X162908815Y-72166749D01*
X162908809Y-72166749D01*
X162906022Y-72166500D01*
X162307114Y-72166500D01*
X162211894Y-72177602D01*
X162181629Y-72181130D01*
X162181628Y-72181130D01*
X162174357Y-72181978D01*
X162167479Y-72184474D01*
X162167477Y-72184475D01*
X162027941Y-72235124D01*
X162008136Y-72242313D01*
X161944966Y-72283729D01*
X161891050Y-72319078D01*
X161860253Y-72339269D01*
X161738642Y-72467645D01*
X161649825Y-72620555D01*
X161598567Y-72789796D01*
X161591500Y-72868978D01*
X161591500Y-73917886D01*
X161606978Y-74050643D01*
X161603724Y-74051022D01*
X161600733Y-74107358D01*
X161559237Y-74164965D01*
X161493183Y-74190993D01*
X161481889Y-74191500D01*
X154214240Y-74191500D01*
X154146119Y-74171498D01*
X154125145Y-74154595D01*
X153962972Y-73992422D01*
X153952105Y-73980031D01*
X153938837Y-73962740D01*
X153933811Y-73956190D01*
X153806751Y-73858693D01*
X153738633Y-73830478D01*
X153658787Y-73797404D01*
X153617584Y-73791980D01*
X153552658Y-73763259D01*
X153513565Y-73703994D01*
X153509313Y-73649126D01*
X153512860Y-73624459D01*
X153512861Y-73624444D01*
X153513500Y-73620000D01*
X153513500Y-72620000D01*
X153513339Y-72617750D01*
X153513259Y-72615508D01*
X153514045Y-72615480D01*
X153528486Y-72549110D01*
X153578691Y-72498910D01*
X153639071Y-72483500D01*
X156558788Y-72483500D01*
X156626909Y-72503502D01*
X156659340Y-72534131D01*
X156660963Y-72536942D01*
X156665381Y-72541849D01*
X156665382Y-72541850D01*
X156756259Y-72642779D01*
X156788749Y-72678863D01*
X156794091Y-72682744D01*
X156794093Y-72682746D01*
X156937908Y-72787233D01*
X156943250Y-72791114D01*
X156949278Y-72793798D01*
X156949280Y-72793799D01*
X157111682Y-72866105D01*
X157117713Y-72868790D01*
X157197630Y-72885777D01*
X157298056Y-72907124D01*
X157298061Y-72907124D01*
X157304513Y-72908496D01*
X157495487Y-72908496D01*
X157501939Y-72907124D01*
X157501944Y-72907124D01*
X157602370Y-72885777D01*
X157682287Y-72868790D01*
X157688318Y-72866105D01*
X157850720Y-72793799D01*
X157850722Y-72793798D01*
X157856750Y-72791114D01*
X157862092Y-72787233D01*
X158005907Y-72682746D01*
X158005909Y-72682744D01*
X158011251Y-72678863D01*
X158043741Y-72642779D01*
X158134618Y-72541850D01*
X158134619Y-72541849D01*
X158139037Y-72536942D01*
X158234524Y-72371554D01*
X158279893Y-72231923D01*
X158291498Y-72196206D01*
X158291498Y-72196205D01*
X158293538Y-72189927D01*
X158294374Y-72181978D01*
X158312810Y-72006565D01*
X158313500Y-72000000D01*
X158300928Y-71880382D01*
X158294228Y-71816637D01*
X158294228Y-71816636D01*
X158293538Y-71810073D01*
X158290186Y-71799755D01*
X158236566Y-71634731D01*
X158234524Y-71628446D01*
X158139037Y-71463058D01*
X158130472Y-71453545D01*
X158015673Y-71326048D01*
X158015672Y-71326047D01*
X158011251Y-71321137D01*
X158005909Y-71317256D01*
X158005907Y-71317254D01*
X157862092Y-71212767D01*
X157862091Y-71212766D01*
X157856750Y-71208886D01*
X157850722Y-71206202D01*
X157850720Y-71206201D01*
X157688318Y-71133895D01*
X157688317Y-71133895D01*
X157682287Y-71131210D01*
X157585373Y-71110610D01*
X157501944Y-71092876D01*
X157501939Y-71092876D01*
X157495487Y-71091504D01*
X157304513Y-71091504D01*
X157298061Y-71092876D01*
X157298056Y-71092876D01*
X157214627Y-71110610D01*
X157117713Y-71131210D01*
X157111683Y-71133895D01*
X157111682Y-71133895D01*
X157091587Y-71142842D01*
X156985220Y-71190200D01*
X156950615Y-71205607D01*
X156899366Y-71216500D01*
X154836568Y-71216500D01*
X154768447Y-71196498D01*
X154721954Y-71142842D01*
X154711258Y-71103670D01*
X154694228Y-70941638D01*
X154693538Y-70935073D01*
X154690613Y-70926069D01*
X154676959Y-70884048D01*
X154674932Y-70813080D01*
X154711594Y-70752283D01*
X154722731Y-70743176D01*
X154805907Y-70682746D01*
X154805909Y-70682744D01*
X154811251Y-70678863D01*
X154829327Y-70658788D01*
X154934618Y-70541850D01*
X154934619Y-70541849D01*
X154939037Y-70536942D01*
X155013450Y-70408056D01*
X155031220Y-70377277D01*
X155031221Y-70377276D01*
X155034524Y-70371554D01*
X155060485Y-70291654D01*
X155091498Y-70196206D01*
X155091498Y-70196205D01*
X155093538Y-70189927D01*
X155104855Y-70082257D01*
X155112810Y-70006565D01*
X155113500Y-70000000D01*
X155111445Y-69980445D01*
X155094228Y-69816637D01*
X155094228Y-69816636D01*
X155093538Y-69810073D01*
X155034524Y-69628446D01*
X155027094Y-69615576D01*
X154942338Y-69468776D01*
X154939037Y-69463058D01*
X154915465Y-69436878D01*
X154815673Y-69326048D01*
X154815672Y-69326047D01*
X154811251Y-69321137D01*
X154805909Y-69317256D01*
X154805907Y-69317254D01*
X154662092Y-69212767D01*
X154662091Y-69212766D01*
X154656750Y-69208886D01*
X154650722Y-69206202D01*
X154650720Y-69206201D01*
X154488318Y-69133895D01*
X154488317Y-69133895D01*
X154482287Y-69131210D01*
X154388887Y-69111357D01*
X154301944Y-69092876D01*
X154301939Y-69092876D01*
X154295487Y-69091504D01*
X154239598Y-69091504D01*
X154171477Y-69071502D01*
X154150503Y-69054599D01*
X154013391Y-68917487D01*
X154006031Y-68909399D01*
X154001973Y-68903005D01*
X153989561Y-68891349D01*
X153953596Y-68830136D01*
X153956435Y-68759196D01*
X153997176Y-68701052D01*
X154062885Y-68674165D01*
X154075815Y-68673500D01*
X161185405Y-68673500D01*
X161253526Y-68693502D01*
X161274501Y-68710405D01*
X161946954Y-69382859D01*
X161980979Y-69445171D01*
X161981847Y-69494375D01*
X161942551Y-69711683D01*
X161942500Y-69717023D01*
X161941097Y-69863210D01*
X161940338Y-69942233D01*
X161977002Y-70169861D01*
X162051494Y-70388056D01*
X162161685Y-70590580D01*
X162304424Y-70771644D01*
X162357539Y-70819553D01*
X162471659Y-70922489D01*
X162471665Y-70922494D01*
X162475629Y-70926069D01*
X162480142Y-70928928D01*
X162480144Y-70928929D01*
X162547395Y-70971525D01*
X162670406Y-71049439D01*
X162883184Y-71138228D01*
X162888387Y-71139425D01*
X162888392Y-71139426D01*
X163102678Y-71188701D01*
X163102683Y-71188702D01*
X163107881Y-71189897D01*
X163113209Y-71190200D01*
X163113212Y-71190200D01*
X163269293Y-71199063D01*
X163338071Y-71202968D01*
X163343378Y-71202368D01*
X163343380Y-71202368D01*
X163464272Y-71188701D01*
X163567173Y-71177068D01*
X163572288Y-71175587D01*
X163572292Y-71175586D01*
X163670022Y-71147285D01*
X163788635Y-71112937D01*
X163996125Y-71012409D01*
X164000463Y-71009309D01*
X164000468Y-71009306D01*
X164179370Y-70881459D01*
X164183711Y-70878357D01*
X164346030Y-70714617D01*
X164378057Y-70668963D01*
X164475375Y-70530236D01*
X164475376Y-70530234D01*
X164478439Y-70525868D01*
X164577153Y-70317508D01*
X164639349Y-70095494D01*
X164663249Y-69866176D01*
X164663500Y-69840000D01*
X164659549Y-69793435D01*
X164644458Y-69615576D01*
X164644457Y-69615572D01*
X164644007Y-69610265D01*
X164642328Y-69603794D01*
X164595331Y-69422726D01*
X164586084Y-69387098D01*
X164582862Y-69379944D01*
X164493578Y-69181743D01*
X164493577Y-69181741D01*
X164491388Y-69176882D01*
X164362627Y-68985626D01*
X164357293Y-68980034D01*
X164230868Y-68847507D01*
X164198321Y-68784410D01*
X164205052Y-68713733D01*
X164248926Y-68657916D01*
X164286538Y-68639640D01*
X164319545Y-68629948D01*
X164354670Y-68619635D01*
X164354672Y-68619634D01*
X164363316Y-68617096D01*
X164401472Y-68592574D01*
X164478691Y-68542949D01*
X164478694Y-68542947D01*
X164486271Y-68538077D01*
X164513831Y-68506271D01*
X164576082Y-68434431D01*
X164576084Y-68434428D01*
X164581984Y-68427619D01*
X164642700Y-68294670D01*
X164651318Y-68234731D01*
X164662861Y-68154448D01*
X164662862Y-68154441D01*
X164663500Y-68150000D01*
X164663500Y-66450000D01*
X164658273Y-66376921D01*
X164627541Y-66272257D01*
X164619635Y-66245330D01*
X164619634Y-66245328D01*
X164617096Y-66236684D01*
X164587375Y-66190438D01*
X164542949Y-66121309D01*
X164542947Y-66121306D01*
X164538077Y-66113729D01*
X164431321Y-66021224D01*
X164392938Y-65961498D01*
X164392938Y-65890501D01*
X164431322Y-65830775D01*
X164495903Y-65801282D01*
X164513834Y-65800000D01*
X167977845Y-65800000D01*
X168045966Y-65820002D01*
G37*
%TD.AperFunction*%
%TA.AperFunction,Conductor*%
G36*
X168027100Y-68972970D02*
G01*
X168083936Y-69015517D01*
X168089065Y-69022905D01*
X168157047Y-69128686D01*
X168157052Y-69128692D01*
X168161923Y-69136271D01*
X168168733Y-69142172D01*
X168265569Y-69226082D01*
X168265572Y-69226084D01*
X168272381Y-69231984D01*
X168280579Y-69235728D01*
X168374331Y-69278543D01*
X168405330Y-69292700D01*
X168414245Y-69293982D01*
X168414246Y-69293982D01*
X168545552Y-69312861D01*
X168545559Y-69312862D01*
X168550000Y-69313500D01*
X169050000Y-69313500D01*
X169123079Y-69308273D01*
X169182502Y-69290825D01*
X169251227Y-69290826D01*
X169255330Y-69292700D01*
X169327515Y-69303078D01*
X169395552Y-69312861D01*
X169395559Y-69312862D01*
X169400000Y-69313500D01*
X169640500Y-69313500D01*
X169708621Y-69333502D01*
X169755114Y-69387158D01*
X169766500Y-69439500D01*
X169766500Y-70108687D01*
X169746498Y-70176808D01*
X169692842Y-70223301D01*
X169626456Y-70233902D01*
X169523842Y-70222393D01*
X169516815Y-70222000D01*
X169184615Y-70222000D01*
X169169376Y-70226475D01*
X169168171Y-70227865D01*
X169166500Y-70235548D01*
X169166500Y-71358000D01*
X169146498Y-71426121D01*
X169092842Y-71472614D01*
X169040500Y-71484000D01*
X168784500Y-71484000D01*
X168716379Y-71463998D01*
X168669886Y-71410342D01*
X168658500Y-71358000D01*
X168658500Y-70240115D01*
X168654025Y-70224876D01*
X168652635Y-70223671D01*
X168644952Y-70222000D01*
X168314588Y-70222000D01*
X168308440Y-70222301D01*
X168171874Y-70235691D01*
X168159839Y-70238074D01*
X167982376Y-70291654D01*
X167971034Y-70296329D01*
X167807356Y-70383357D01*
X167797140Y-70390144D01*
X167653481Y-70507310D01*
X167644777Y-70515954D01*
X167526614Y-70658788D01*
X167519751Y-70668963D01*
X167470336Y-70760355D01*
X167420341Y-70810764D01*
X167351030Y-70826142D01*
X167284408Y-70801606D01*
X167241627Y-70744946D01*
X167233500Y-70700427D01*
X167233500Y-69714594D01*
X167253502Y-69646473D01*
X167270405Y-69625499D01*
X167893973Y-69001931D01*
X167956285Y-68967905D01*
X168027100Y-68972970D01*
G37*
%TD.AperFunction*%
%TD*%
M02*
