G04 #@! TF.GenerationSoftware,KiCad,Pcbnew,5.1.5*
G04 #@! TF.CreationDate,2020-03-18T22:41:31-05:00*
G04 #@! TF.ProjectId,BlueTeamCon,426c7565-5465-4616-9d43-6f6e2e6b6963,rev?*
G04 #@! TF.SameCoordinates,Original*
G04 #@! TF.FileFunction,Paste,Top*
G04 #@! TF.FilePolarity,Positive*
%FSLAX46Y46*%
G04 Gerber Fmt 4.6, Leading zero omitted, Abs format (unit mm)*
G04 Created by KiCad (PCBNEW 5.1.5) date 2020-03-18 22:41:31*
%MOMM*%
%LPD*%
G04 APERTURE LIST*
%ADD10C,0.100000*%
G04 APERTURE END LIST*
D10*
G36*
X167748632Y-110462449D02*
G01*
X167772293Y-110465959D01*
X167795497Y-110471771D01*
X167818019Y-110479829D01*
X167839643Y-110490057D01*
X167860160Y-110502354D01*
X167879373Y-110516604D01*
X167897097Y-110532668D01*
X168542332Y-111177903D01*
X168558396Y-111195627D01*
X168572646Y-111214840D01*
X168584943Y-111235357D01*
X168595171Y-111256981D01*
X168603229Y-111279503D01*
X168609041Y-111302707D01*
X168612551Y-111326368D01*
X168613725Y-111350260D01*
X168612551Y-111374152D01*
X168609041Y-111397813D01*
X168603229Y-111421017D01*
X168595171Y-111443539D01*
X168584943Y-111465163D01*
X168572646Y-111485680D01*
X168558396Y-111504893D01*
X168542332Y-111522617D01*
X168197617Y-111867332D01*
X168179893Y-111883396D01*
X168160680Y-111897646D01*
X168140163Y-111909943D01*
X168118539Y-111920171D01*
X168096017Y-111928229D01*
X168072813Y-111934041D01*
X168049152Y-111937551D01*
X168025260Y-111938725D01*
X168001368Y-111937551D01*
X167977707Y-111934041D01*
X167954503Y-111928229D01*
X167931981Y-111920171D01*
X167910357Y-111909943D01*
X167889840Y-111897646D01*
X167870627Y-111883396D01*
X167852903Y-111867332D01*
X167207668Y-111222097D01*
X167191604Y-111204373D01*
X167177354Y-111185160D01*
X167165057Y-111164643D01*
X167154829Y-111143019D01*
X167146771Y-111120497D01*
X167140959Y-111097293D01*
X167137449Y-111073632D01*
X167136275Y-111049740D01*
X167137449Y-111025848D01*
X167140959Y-111002187D01*
X167146771Y-110978983D01*
X167154829Y-110956461D01*
X167165057Y-110934837D01*
X167177354Y-110914320D01*
X167191604Y-110895107D01*
X167207668Y-110877383D01*
X167552383Y-110532668D01*
X167570107Y-110516604D01*
X167589320Y-110502354D01*
X167609837Y-110490057D01*
X167631461Y-110479829D01*
X167653983Y-110471771D01*
X167677187Y-110465959D01*
X167700848Y-110462449D01*
X167724740Y-110461275D01*
X167748632Y-110462449D01*
G37*
G36*
X166422806Y-111788275D02*
G01*
X166446467Y-111791785D01*
X166469671Y-111797597D01*
X166492193Y-111805655D01*
X166513817Y-111815883D01*
X166534334Y-111828180D01*
X166553547Y-111842430D01*
X166571271Y-111858494D01*
X167216506Y-112503729D01*
X167232570Y-112521453D01*
X167246820Y-112540666D01*
X167259117Y-112561183D01*
X167269345Y-112582807D01*
X167277403Y-112605329D01*
X167283215Y-112628533D01*
X167286725Y-112652194D01*
X167287899Y-112676086D01*
X167286725Y-112699978D01*
X167283215Y-112723639D01*
X167277403Y-112746843D01*
X167269345Y-112769365D01*
X167259117Y-112790989D01*
X167246820Y-112811506D01*
X167232570Y-112830719D01*
X167216506Y-112848443D01*
X166871791Y-113193158D01*
X166854067Y-113209222D01*
X166834854Y-113223472D01*
X166814337Y-113235769D01*
X166792713Y-113245997D01*
X166770191Y-113254055D01*
X166746987Y-113259867D01*
X166723326Y-113263377D01*
X166699434Y-113264551D01*
X166675542Y-113263377D01*
X166651881Y-113259867D01*
X166628677Y-113254055D01*
X166606155Y-113245997D01*
X166584531Y-113235769D01*
X166564014Y-113223472D01*
X166544801Y-113209222D01*
X166527077Y-113193158D01*
X165881842Y-112547923D01*
X165865778Y-112530199D01*
X165851528Y-112510986D01*
X165839231Y-112490469D01*
X165829003Y-112468845D01*
X165820945Y-112446323D01*
X165815133Y-112423119D01*
X165811623Y-112399458D01*
X165810449Y-112375566D01*
X165811623Y-112351674D01*
X165815133Y-112328013D01*
X165820945Y-112304809D01*
X165829003Y-112282287D01*
X165839231Y-112260663D01*
X165851528Y-112240146D01*
X165865778Y-112220933D01*
X165881842Y-112203209D01*
X166226557Y-111858494D01*
X166244281Y-111842430D01*
X166263494Y-111828180D01*
X166284011Y-111815883D01*
X166305635Y-111805655D01*
X166328157Y-111797597D01*
X166351361Y-111791785D01*
X166375022Y-111788275D01*
X166398914Y-111787101D01*
X166422806Y-111788275D01*
G37*
G36*
X114974152Y-108162449D02*
G01*
X114997813Y-108165959D01*
X115021017Y-108171771D01*
X115043539Y-108179829D01*
X115065163Y-108190057D01*
X115085680Y-108202354D01*
X115104893Y-108216604D01*
X115122617Y-108232668D01*
X115467332Y-108577383D01*
X115483396Y-108595107D01*
X115497646Y-108614320D01*
X115509943Y-108634837D01*
X115520171Y-108656461D01*
X115528229Y-108678983D01*
X115534041Y-108702187D01*
X115537551Y-108725848D01*
X115538725Y-108749740D01*
X115537551Y-108773632D01*
X115534041Y-108797293D01*
X115528229Y-108820497D01*
X115520171Y-108843019D01*
X115509943Y-108864643D01*
X115497646Y-108885160D01*
X115483396Y-108904373D01*
X115467332Y-108922097D01*
X114822097Y-109567332D01*
X114804373Y-109583396D01*
X114785160Y-109597646D01*
X114764643Y-109609943D01*
X114743019Y-109620171D01*
X114720497Y-109628229D01*
X114697293Y-109634041D01*
X114673632Y-109637551D01*
X114649740Y-109638725D01*
X114625848Y-109637551D01*
X114602187Y-109634041D01*
X114578983Y-109628229D01*
X114556461Y-109620171D01*
X114534837Y-109609943D01*
X114514320Y-109597646D01*
X114495107Y-109583396D01*
X114477383Y-109567332D01*
X114132668Y-109222617D01*
X114116604Y-109204893D01*
X114102354Y-109185680D01*
X114090057Y-109165163D01*
X114079829Y-109143539D01*
X114071771Y-109121017D01*
X114065959Y-109097813D01*
X114062449Y-109074152D01*
X114061275Y-109050260D01*
X114062449Y-109026368D01*
X114065959Y-109002707D01*
X114071771Y-108979503D01*
X114079829Y-108956981D01*
X114090057Y-108935357D01*
X114102354Y-108914840D01*
X114116604Y-108895627D01*
X114132668Y-108877903D01*
X114777903Y-108232668D01*
X114795627Y-108216604D01*
X114814840Y-108202354D01*
X114835357Y-108190057D01*
X114856981Y-108179829D01*
X114879503Y-108171771D01*
X114902707Y-108165959D01*
X114926368Y-108162449D01*
X114950260Y-108161275D01*
X114974152Y-108162449D01*
G37*
G36*
X116299978Y-109488275D02*
G01*
X116323639Y-109491785D01*
X116346843Y-109497597D01*
X116369365Y-109505655D01*
X116390989Y-109515883D01*
X116411506Y-109528180D01*
X116430719Y-109542430D01*
X116448443Y-109558494D01*
X116793158Y-109903209D01*
X116809222Y-109920933D01*
X116823472Y-109940146D01*
X116835769Y-109960663D01*
X116845997Y-109982287D01*
X116854055Y-110004809D01*
X116859867Y-110028013D01*
X116863377Y-110051674D01*
X116864551Y-110075566D01*
X116863377Y-110099458D01*
X116859867Y-110123119D01*
X116854055Y-110146323D01*
X116845997Y-110168845D01*
X116835769Y-110190469D01*
X116823472Y-110210986D01*
X116809222Y-110230199D01*
X116793158Y-110247923D01*
X116147923Y-110893158D01*
X116130199Y-110909222D01*
X116110986Y-110923472D01*
X116090469Y-110935769D01*
X116068845Y-110945997D01*
X116046323Y-110954055D01*
X116023119Y-110959867D01*
X115999458Y-110963377D01*
X115975566Y-110964551D01*
X115951674Y-110963377D01*
X115928013Y-110959867D01*
X115904809Y-110954055D01*
X115882287Y-110945997D01*
X115860663Y-110935769D01*
X115840146Y-110923472D01*
X115820933Y-110909222D01*
X115803209Y-110893158D01*
X115458494Y-110548443D01*
X115442430Y-110530719D01*
X115428180Y-110511506D01*
X115415883Y-110490989D01*
X115405655Y-110469365D01*
X115397597Y-110446843D01*
X115391785Y-110423639D01*
X115388275Y-110399978D01*
X115387101Y-110376086D01*
X115388275Y-110352194D01*
X115391785Y-110328533D01*
X115397597Y-110305329D01*
X115405655Y-110282807D01*
X115415883Y-110261183D01*
X115428180Y-110240666D01*
X115442430Y-110221453D01*
X115458494Y-110203729D01*
X116103729Y-109558494D01*
X116121453Y-109542430D01*
X116140666Y-109528180D01*
X116161183Y-109515883D01*
X116182807Y-109505655D01*
X116205329Y-109497597D01*
X116228533Y-109491785D01*
X116252194Y-109488275D01*
X116276086Y-109487101D01*
X116299978Y-109488275D01*
G37*
G36*
X122824152Y-108962449D02*
G01*
X122847813Y-108965959D01*
X122871017Y-108971771D01*
X122893539Y-108979829D01*
X122915163Y-108990057D01*
X122935680Y-109002354D01*
X122954893Y-109016604D01*
X122972617Y-109032668D01*
X123317332Y-109377383D01*
X123333396Y-109395107D01*
X123347646Y-109414320D01*
X123359943Y-109434837D01*
X123370171Y-109456461D01*
X123378229Y-109478983D01*
X123384041Y-109502187D01*
X123387551Y-109525848D01*
X123388725Y-109549740D01*
X123387551Y-109573632D01*
X123384041Y-109597293D01*
X123378229Y-109620497D01*
X123370171Y-109643019D01*
X123359943Y-109664643D01*
X123347646Y-109685160D01*
X123333396Y-109704373D01*
X123317332Y-109722097D01*
X122672097Y-110367332D01*
X122654373Y-110383396D01*
X122635160Y-110397646D01*
X122614643Y-110409943D01*
X122593019Y-110420171D01*
X122570497Y-110428229D01*
X122547293Y-110434041D01*
X122523632Y-110437551D01*
X122499740Y-110438725D01*
X122475848Y-110437551D01*
X122452187Y-110434041D01*
X122428983Y-110428229D01*
X122406461Y-110420171D01*
X122384837Y-110409943D01*
X122364320Y-110397646D01*
X122345107Y-110383396D01*
X122327383Y-110367332D01*
X121982668Y-110022617D01*
X121966604Y-110004893D01*
X121952354Y-109985680D01*
X121940057Y-109965163D01*
X121929829Y-109943539D01*
X121921771Y-109921017D01*
X121915959Y-109897813D01*
X121912449Y-109874152D01*
X121911275Y-109850260D01*
X121912449Y-109826368D01*
X121915959Y-109802707D01*
X121921771Y-109779503D01*
X121929829Y-109756981D01*
X121940057Y-109735357D01*
X121952354Y-109714840D01*
X121966604Y-109695627D01*
X121982668Y-109677903D01*
X122627903Y-109032668D01*
X122645627Y-109016604D01*
X122664840Y-109002354D01*
X122685357Y-108990057D01*
X122706981Y-108979829D01*
X122729503Y-108971771D01*
X122752707Y-108965959D01*
X122776368Y-108962449D01*
X122800260Y-108961275D01*
X122824152Y-108962449D01*
G37*
G36*
X121498326Y-107636623D02*
G01*
X121521987Y-107640133D01*
X121545191Y-107645945D01*
X121567713Y-107654003D01*
X121589337Y-107664231D01*
X121609854Y-107676528D01*
X121629067Y-107690778D01*
X121646791Y-107706842D01*
X121991506Y-108051557D01*
X122007570Y-108069281D01*
X122021820Y-108088494D01*
X122034117Y-108109011D01*
X122044345Y-108130635D01*
X122052403Y-108153157D01*
X122058215Y-108176361D01*
X122061725Y-108200022D01*
X122062899Y-108223914D01*
X122061725Y-108247806D01*
X122058215Y-108271467D01*
X122052403Y-108294671D01*
X122044345Y-108317193D01*
X122034117Y-108338817D01*
X122021820Y-108359334D01*
X122007570Y-108378547D01*
X121991506Y-108396271D01*
X121346271Y-109041506D01*
X121328547Y-109057570D01*
X121309334Y-109071820D01*
X121288817Y-109084117D01*
X121267193Y-109094345D01*
X121244671Y-109102403D01*
X121221467Y-109108215D01*
X121197806Y-109111725D01*
X121173914Y-109112899D01*
X121150022Y-109111725D01*
X121126361Y-109108215D01*
X121103157Y-109102403D01*
X121080635Y-109094345D01*
X121059011Y-109084117D01*
X121038494Y-109071820D01*
X121019281Y-109057570D01*
X121001557Y-109041506D01*
X120656842Y-108696791D01*
X120640778Y-108679067D01*
X120626528Y-108659854D01*
X120614231Y-108639337D01*
X120604003Y-108617713D01*
X120595945Y-108595191D01*
X120590133Y-108571987D01*
X120586623Y-108548326D01*
X120585449Y-108524434D01*
X120586623Y-108500542D01*
X120590133Y-108476881D01*
X120595945Y-108453677D01*
X120604003Y-108431155D01*
X120614231Y-108409531D01*
X120626528Y-108389014D01*
X120640778Y-108369801D01*
X120656842Y-108352077D01*
X121302077Y-107706842D01*
X121319801Y-107690778D01*
X121339014Y-107676528D01*
X121359531Y-107664231D01*
X121381155Y-107654003D01*
X121403677Y-107645945D01*
X121426881Y-107640133D01*
X121450542Y-107636623D01*
X121474434Y-107635449D01*
X121498326Y-107636623D01*
G37*
G36*
X128323326Y-107211623D02*
G01*
X128346987Y-107215133D01*
X128370191Y-107220945D01*
X128392713Y-107229003D01*
X128414337Y-107239231D01*
X128434854Y-107251528D01*
X128454067Y-107265778D01*
X128471791Y-107281842D01*
X128816506Y-107626557D01*
X128832570Y-107644281D01*
X128846820Y-107663494D01*
X128859117Y-107684011D01*
X128869345Y-107705635D01*
X128877403Y-107728157D01*
X128883215Y-107751361D01*
X128886725Y-107775022D01*
X128887899Y-107798914D01*
X128886725Y-107822806D01*
X128883215Y-107846467D01*
X128877403Y-107869671D01*
X128869345Y-107892193D01*
X128859117Y-107913817D01*
X128846820Y-107934334D01*
X128832570Y-107953547D01*
X128816506Y-107971271D01*
X128171271Y-108616506D01*
X128153547Y-108632570D01*
X128134334Y-108646820D01*
X128113817Y-108659117D01*
X128092193Y-108669345D01*
X128069671Y-108677403D01*
X128046467Y-108683215D01*
X128022806Y-108686725D01*
X127998914Y-108687899D01*
X127975022Y-108686725D01*
X127951361Y-108683215D01*
X127928157Y-108677403D01*
X127905635Y-108669345D01*
X127884011Y-108659117D01*
X127863494Y-108646820D01*
X127844281Y-108632570D01*
X127826557Y-108616506D01*
X127481842Y-108271791D01*
X127465778Y-108254067D01*
X127451528Y-108234854D01*
X127439231Y-108214337D01*
X127429003Y-108192713D01*
X127420945Y-108170191D01*
X127415133Y-108146987D01*
X127411623Y-108123326D01*
X127410449Y-108099434D01*
X127411623Y-108075542D01*
X127415133Y-108051881D01*
X127420945Y-108028677D01*
X127429003Y-108006155D01*
X127439231Y-107984531D01*
X127451528Y-107964014D01*
X127465778Y-107944801D01*
X127481842Y-107927077D01*
X128127077Y-107281842D01*
X128144801Y-107265778D01*
X128164014Y-107251528D01*
X128184531Y-107239231D01*
X128206155Y-107229003D01*
X128228677Y-107220945D01*
X128251881Y-107215133D01*
X128275542Y-107211623D01*
X128299434Y-107210449D01*
X128323326Y-107211623D01*
G37*
G36*
X129649152Y-108537449D02*
G01*
X129672813Y-108540959D01*
X129696017Y-108546771D01*
X129718539Y-108554829D01*
X129740163Y-108565057D01*
X129760680Y-108577354D01*
X129779893Y-108591604D01*
X129797617Y-108607668D01*
X130142332Y-108952383D01*
X130158396Y-108970107D01*
X130172646Y-108989320D01*
X130184943Y-109009837D01*
X130195171Y-109031461D01*
X130203229Y-109053983D01*
X130209041Y-109077187D01*
X130212551Y-109100848D01*
X130213725Y-109124740D01*
X130212551Y-109148632D01*
X130209041Y-109172293D01*
X130203229Y-109195497D01*
X130195171Y-109218019D01*
X130184943Y-109239643D01*
X130172646Y-109260160D01*
X130158396Y-109279373D01*
X130142332Y-109297097D01*
X129497097Y-109942332D01*
X129479373Y-109958396D01*
X129460160Y-109972646D01*
X129439643Y-109984943D01*
X129418019Y-109995171D01*
X129395497Y-110003229D01*
X129372293Y-110009041D01*
X129348632Y-110012551D01*
X129324740Y-110013725D01*
X129300848Y-110012551D01*
X129277187Y-110009041D01*
X129253983Y-110003229D01*
X129231461Y-109995171D01*
X129209837Y-109984943D01*
X129189320Y-109972646D01*
X129170107Y-109958396D01*
X129152383Y-109942332D01*
X128807668Y-109597617D01*
X128791604Y-109579893D01*
X128777354Y-109560680D01*
X128765057Y-109540163D01*
X128754829Y-109518539D01*
X128746771Y-109496017D01*
X128740959Y-109472813D01*
X128737449Y-109449152D01*
X128736275Y-109425260D01*
X128737449Y-109401368D01*
X128740959Y-109377707D01*
X128746771Y-109354503D01*
X128754829Y-109331981D01*
X128765057Y-109310357D01*
X128777354Y-109289840D01*
X128791604Y-109270627D01*
X128807668Y-109252903D01*
X129452903Y-108607668D01*
X129470627Y-108591604D01*
X129489840Y-108577354D01*
X129510357Y-108565057D01*
X129531981Y-108554829D01*
X129554503Y-108546771D01*
X129577707Y-108540959D01*
X129601368Y-108537449D01*
X129625260Y-108536275D01*
X129649152Y-108537449D01*
G37*
G36*
X136749978Y-108563275D02*
G01*
X136773639Y-108566785D01*
X136796843Y-108572597D01*
X136819365Y-108580655D01*
X136840989Y-108590883D01*
X136861506Y-108603180D01*
X136880719Y-108617430D01*
X136898443Y-108633494D01*
X137243158Y-108978209D01*
X137259222Y-108995933D01*
X137273472Y-109015146D01*
X137285769Y-109035663D01*
X137295997Y-109057287D01*
X137304055Y-109079809D01*
X137309867Y-109103013D01*
X137313377Y-109126674D01*
X137314551Y-109150566D01*
X137313377Y-109174458D01*
X137309867Y-109198119D01*
X137304055Y-109221323D01*
X137295997Y-109243845D01*
X137285769Y-109265469D01*
X137273472Y-109285986D01*
X137259222Y-109305199D01*
X137243158Y-109322923D01*
X136597923Y-109968158D01*
X136580199Y-109984222D01*
X136560986Y-109998472D01*
X136540469Y-110010769D01*
X136518845Y-110020997D01*
X136496323Y-110029055D01*
X136473119Y-110034867D01*
X136449458Y-110038377D01*
X136425566Y-110039551D01*
X136401674Y-110038377D01*
X136378013Y-110034867D01*
X136354809Y-110029055D01*
X136332287Y-110020997D01*
X136310663Y-110010769D01*
X136290146Y-109998472D01*
X136270933Y-109984222D01*
X136253209Y-109968158D01*
X135908494Y-109623443D01*
X135892430Y-109605719D01*
X135878180Y-109586506D01*
X135865883Y-109565989D01*
X135855655Y-109544365D01*
X135847597Y-109521843D01*
X135841785Y-109498639D01*
X135838275Y-109474978D01*
X135837101Y-109451086D01*
X135838275Y-109427194D01*
X135841785Y-109403533D01*
X135847597Y-109380329D01*
X135855655Y-109357807D01*
X135865883Y-109336183D01*
X135878180Y-109315666D01*
X135892430Y-109296453D01*
X135908494Y-109278729D01*
X136553729Y-108633494D01*
X136571453Y-108617430D01*
X136590666Y-108603180D01*
X136611183Y-108590883D01*
X136632807Y-108580655D01*
X136655329Y-108572597D01*
X136678533Y-108566785D01*
X136702194Y-108563275D01*
X136726086Y-108562101D01*
X136749978Y-108563275D01*
G37*
G36*
X135424152Y-107237449D02*
G01*
X135447813Y-107240959D01*
X135471017Y-107246771D01*
X135493539Y-107254829D01*
X135515163Y-107265057D01*
X135535680Y-107277354D01*
X135554893Y-107291604D01*
X135572617Y-107307668D01*
X135917332Y-107652383D01*
X135933396Y-107670107D01*
X135947646Y-107689320D01*
X135959943Y-107709837D01*
X135970171Y-107731461D01*
X135978229Y-107753983D01*
X135984041Y-107777187D01*
X135987551Y-107800848D01*
X135988725Y-107824740D01*
X135987551Y-107848632D01*
X135984041Y-107872293D01*
X135978229Y-107895497D01*
X135970171Y-107918019D01*
X135959943Y-107939643D01*
X135947646Y-107960160D01*
X135933396Y-107979373D01*
X135917332Y-107997097D01*
X135272097Y-108642332D01*
X135254373Y-108658396D01*
X135235160Y-108672646D01*
X135214643Y-108684943D01*
X135193019Y-108695171D01*
X135170497Y-108703229D01*
X135147293Y-108709041D01*
X135123632Y-108712551D01*
X135099740Y-108713725D01*
X135075848Y-108712551D01*
X135052187Y-108709041D01*
X135028983Y-108703229D01*
X135006461Y-108695171D01*
X134984837Y-108684943D01*
X134964320Y-108672646D01*
X134945107Y-108658396D01*
X134927383Y-108642332D01*
X134582668Y-108297617D01*
X134566604Y-108279893D01*
X134552354Y-108260680D01*
X134540057Y-108240163D01*
X134529829Y-108218539D01*
X134521771Y-108196017D01*
X134515959Y-108172813D01*
X134512449Y-108149152D01*
X134511275Y-108125260D01*
X134512449Y-108101368D01*
X134515959Y-108077707D01*
X134521771Y-108054503D01*
X134529829Y-108031981D01*
X134540057Y-108010357D01*
X134552354Y-107989840D01*
X134566604Y-107970627D01*
X134582668Y-107952903D01*
X135227903Y-107307668D01*
X135245627Y-107291604D01*
X135264840Y-107277354D01*
X135285357Y-107265057D01*
X135306981Y-107254829D01*
X135329503Y-107246771D01*
X135352707Y-107240959D01*
X135376368Y-107237449D01*
X135400260Y-107236275D01*
X135424152Y-107237449D01*
G37*
G36*
X142224152Y-107187449D02*
G01*
X142247813Y-107190959D01*
X142271017Y-107196771D01*
X142293539Y-107204829D01*
X142315163Y-107215057D01*
X142335680Y-107227354D01*
X142354893Y-107241604D01*
X142372617Y-107257668D01*
X142717332Y-107602383D01*
X142733396Y-107620107D01*
X142747646Y-107639320D01*
X142759943Y-107659837D01*
X142770171Y-107681461D01*
X142778229Y-107703983D01*
X142784041Y-107727187D01*
X142787551Y-107750848D01*
X142788725Y-107774740D01*
X142787551Y-107798632D01*
X142784041Y-107822293D01*
X142778229Y-107845497D01*
X142770171Y-107868019D01*
X142759943Y-107889643D01*
X142747646Y-107910160D01*
X142733396Y-107929373D01*
X142717332Y-107947097D01*
X142072097Y-108592332D01*
X142054373Y-108608396D01*
X142035160Y-108622646D01*
X142014643Y-108634943D01*
X141993019Y-108645171D01*
X141970497Y-108653229D01*
X141947293Y-108659041D01*
X141923632Y-108662551D01*
X141899740Y-108663725D01*
X141875848Y-108662551D01*
X141852187Y-108659041D01*
X141828983Y-108653229D01*
X141806461Y-108645171D01*
X141784837Y-108634943D01*
X141764320Y-108622646D01*
X141745107Y-108608396D01*
X141727383Y-108592332D01*
X141382668Y-108247617D01*
X141366604Y-108229893D01*
X141352354Y-108210680D01*
X141340057Y-108190163D01*
X141329829Y-108168539D01*
X141321771Y-108146017D01*
X141315959Y-108122813D01*
X141312449Y-108099152D01*
X141311275Y-108075260D01*
X141312449Y-108051368D01*
X141315959Y-108027707D01*
X141321771Y-108004503D01*
X141329829Y-107981981D01*
X141340057Y-107960357D01*
X141352354Y-107939840D01*
X141366604Y-107920627D01*
X141382668Y-107902903D01*
X142027903Y-107257668D01*
X142045627Y-107241604D01*
X142064840Y-107227354D01*
X142085357Y-107215057D01*
X142106981Y-107204829D01*
X142129503Y-107196771D01*
X142152707Y-107190959D01*
X142176368Y-107187449D01*
X142200260Y-107186275D01*
X142224152Y-107187449D01*
G37*
G36*
X143549978Y-108513275D02*
G01*
X143573639Y-108516785D01*
X143596843Y-108522597D01*
X143619365Y-108530655D01*
X143640989Y-108540883D01*
X143661506Y-108553180D01*
X143680719Y-108567430D01*
X143698443Y-108583494D01*
X144043158Y-108928209D01*
X144059222Y-108945933D01*
X144073472Y-108965146D01*
X144085769Y-108985663D01*
X144095997Y-109007287D01*
X144104055Y-109029809D01*
X144109867Y-109053013D01*
X144113377Y-109076674D01*
X144114551Y-109100566D01*
X144113377Y-109124458D01*
X144109867Y-109148119D01*
X144104055Y-109171323D01*
X144095997Y-109193845D01*
X144085769Y-109215469D01*
X144073472Y-109235986D01*
X144059222Y-109255199D01*
X144043158Y-109272923D01*
X143397923Y-109918158D01*
X143380199Y-109934222D01*
X143360986Y-109948472D01*
X143340469Y-109960769D01*
X143318845Y-109970997D01*
X143296323Y-109979055D01*
X143273119Y-109984867D01*
X143249458Y-109988377D01*
X143225566Y-109989551D01*
X143201674Y-109988377D01*
X143178013Y-109984867D01*
X143154809Y-109979055D01*
X143132287Y-109970997D01*
X143110663Y-109960769D01*
X143090146Y-109948472D01*
X143070933Y-109934222D01*
X143053209Y-109918158D01*
X142708494Y-109573443D01*
X142692430Y-109555719D01*
X142678180Y-109536506D01*
X142665883Y-109515989D01*
X142655655Y-109494365D01*
X142647597Y-109471843D01*
X142641785Y-109448639D01*
X142638275Y-109424978D01*
X142637101Y-109401086D01*
X142638275Y-109377194D01*
X142641785Y-109353533D01*
X142647597Y-109330329D01*
X142655655Y-109307807D01*
X142665883Y-109286183D01*
X142678180Y-109265666D01*
X142692430Y-109246453D01*
X142708494Y-109228729D01*
X143353729Y-108583494D01*
X143371453Y-108567430D01*
X143390666Y-108553180D01*
X143411183Y-108540883D01*
X143432807Y-108530655D01*
X143455329Y-108522597D01*
X143478533Y-108516785D01*
X143502194Y-108513275D01*
X143526086Y-108512101D01*
X143549978Y-108513275D01*
G37*
G36*
X150699978Y-108563275D02*
G01*
X150723639Y-108566785D01*
X150746843Y-108572597D01*
X150769365Y-108580655D01*
X150790989Y-108590883D01*
X150811506Y-108603180D01*
X150830719Y-108617430D01*
X150848443Y-108633494D01*
X151193158Y-108978209D01*
X151209222Y-108995933D01*
X151223472Y-109015146D01*
X151235769Y-109035663D01*
X151245997Y-109057287D01*
X151254055Y-109079809D01*
X151259867Y-109103013D01*
X151263377Y-109126674D01*
X151264551Y-109150566D01*
X151263377Y-109174458D01*
X151259867Y-109198119D01*
X151254055Y-109221323D01*
X151245997Y-109243845D01*
X151235769Y-109265469D01*
X151223472Y-109285986D01*
X151209222Y-109305199D01*
X151193158Y-109322923D01*
X150547923Y-109968158D01*
X150530199Y-109984222D01*
X150510986Y-109998472D01*
X150490469Y-110010769D01*
X150468845Y-110020997D01*
X150446323Y-110029055D01*
X150423119Y-110034867D01*
X150399458Y-110038377D01*
X150375566Y-110039551D01*
X150351674Y-110038377D01*
X150328013Y-110034867D01*
X150304809Y-110029055D01*
X150282287Y-110020997D01*
X150260663Y-110010769D01*
X150240146Y-109998472D01*
X150220933Y-109984222D01*
X150203209Y-109968158D01*
X149858494Y-109623443D01*
X149842430Y-109605719D01*
X149828180Y-109586506D01*
X149815883Y-109565989D01*
X149805655Y-109544365D01*
X149797597Y-109521843D01*
X149791785Y-109498639D01*
X149788275Y-109474978D01*
X149787101Y-109451086D01*
X149788275Y-109427194D01*
X149791785Y-109403533D01*
X149797597Y-109380329D01*
X149805655Y-109357807D01*
X149815883Y-109336183D01*
X149828180Y-109315666D01*
X149842430Y-109296453D01*
X149858494Y-109278729D01*
X150503729Y-108633494D01*
X150521453Y-108617430D01*
X150540666Y-108603180D01*
X150561183Y-108590883D01*
X150582807Y-108580655D01*
X150605329Y-108572597D01*
X150628533Y-108566785D01*
X150652194Y-108563275D01*
X150676086Y-108562101D01*
X150699978Y-108563275D01*
G37*
G36*
X149374152Y-107237449D02*
G01*
X149397813Y-107240959D01*
X149421017Y-107246771D01*
X149443539Y-107254829D01*
X149465163Y-107265057D01*
X149485680Y-107277354D01*
X149504893Y-107291604D01*
X149522617Y-107307668D01*
X149867332Y-107652383D01*
X149883396Y-107670107D01*
X149897646Y-107689320D01*
X149909943Y-107709837D01*
X149920171Y-107731461D01*
X149928229Y-107753983D01*
X149934041Y-107777187D01*
X149937551Y-107800848D01*
X149938725Y-107824740D01*
X149937551Y-107848632D01*
X149934041Y-107872293D01*
X149928229Y-107895497D01*
X149920171Y-107918019D01*
X149909943Y-107939643D01*
X149897646Y-107960160D01*
X149883396Y-107979373D01*
X149867332Y-107997097D01*
X149222097Y-108642332D01*
X149204373Y-108658396D01*
X149185160Y-108672646D01*
X149164643Y-108684943D01*
X149143019Y-108695171D01*
X149120497Y-108703229D01*
X149097293Y-108709041D01*
X149073632Y-108712551D01*
X149049740Y-108713725D01*
X149025848Y-108712551D01*
X149002187Y-108709041D01*
X148978983Y-108703229D01*
X148956461Y-108695171D01*
X148934837Y-108684943D01*
X148914320Y-108672646D01*
X148895107Y-108658396D01*
X148877383Y-108642332D01*
X148532668Y-108297617D01*
X148516604Y-108279893D01*
X148502354Y-108260680D01*
X148490057Y-108240163D01*
X148479829Y-108218539D01*
X148471771Y-108196017D01*
X148465959Y-108172813D01*
X148462449Y-108149152D01*
X148461275Y-108125260D01*
X148462449Y-108101368D01*
X148465959Y-108077707D01*
X148471771Y-108054503D01*
X148479829Y-108031981D01*
X148490057Y-108010357D01*
X148502354Y-107989840D01*
X148516604Y-107970627D01*
X148532668Y-107952903D01*
X149177903Y-107307668D01*
X149195627Y-107291604D01*
X149214840Y-107277354D01*
X149235357Y-107265057D01*
X149256981Y-107254829D01*
X149279503Y-107246771D01*
X149302707Y-107240959D01*
X149326368Y-107237449D01*
X149350260Y-107236275D01*
X149374152Y-107237449D01*
G37*
G36*
X156436239Y-107299536D02*
G01*
X156459900Y-107303046D01*
X156483104Y-107308858D01*
X156505626Y-107316916D01*
X156527250Y-107327144D01*
X156547767Y-107339441D01*
X156566980Y-107353691D01*
X156584704Y-107369755D01*
X156929419Y-107714470D01*
X156945483Y-107732194D01*
X156959733Y-107751407D01*
X156972030Y-107771924D01*
X156982258Y-107793548D01*
X156990316Y-107816070D01*
X156996128Y-107839274D01*
X156999638Y-107862935D01*
X157000812Y-107886827D01*
X156999638Y-107910719D01*
X156996128Y-107934380D01*
X156990316Y-107957584D01*
X156982258Y-107980106D01*
X156972030Y-108001730D01*
X156959733Y-108022247D01*
X156945483Y-108041460D01*
X156929419Y-108059184D01*
X156284184Y-108704419D01*
X156266460Y-108720483D01*
X156247247Y-108734733D01*
X156226730Y-108747030D01*
X156205106Y-108757258D01*
X156182584Y-108765316D01*
X156159380Y-108771128D01*
X156135719Y-108774638D01*
X156111827Y-108775812D01*
X156087935Y-108774638D01*
X156064274Y-108771128D01*
X156041070Y-108765316D01*
X156018548Y-108757258D01*
X155996924Y-108747030D01*
X155976407Y-108734733D01*
X155957194Y-108720483D01*
X155939470Y-108704419D01*
X155594755Y-108359704D01*
X155578691Y-108341980D01*
X155564441Y-108322767D01*
X155552144Y-108302250D01*
X155541916Y-108280626D01*
X155533858Y-108258104D01*
X155528046Y-108234900D01*
X155524536Y-108211239D01*
X155523362Y-108187347D01*
X155524536Y-108163455D01*
X155528046Y-108139794D01*
X155533858Y-108116590D01*
X155541916Y-108094068D01*
X155552144Y-108072444D01*
X155564441Y-108051927D01*
X155578691Y-108032714D01*
X155594755Y-108014990D01*
X156239990Y-107369755D01*
X156257714Y-107353691D01*
X156276927Y-107339441D01*
X156297444Y-107327144D01*
X156319068Y-107316916D01*
X156341590Y-107308858D01*
X156364794Y-107303046D01*
X156388455Y-107299536D01*
X156412347Y-107298362D01*
X156436239Y-107299536D01*
G37*
G36*
X157762065Y-108625362D02*
G01*
X157785726Y-108628872D01*
X157808930Y-108634684D01*
X157831452Y-108642742D01*
X157853076Y-108652970D01*
X157873593Y-108665267D01*
X157892806Y-108679517D01*
X157910530Y-108695581D01*
X158255245Y-109040296D01*
X158271309Y-109058020D01*
X158285559Y-109077233D01*
X158297856Y-109097750D01*
X158308084Y-109119374D01*
X158316142Y-109141896D01*
X158321954Y-109165100D01*
X158325464Y-109188761D01*
X158326638Y-109212653D01*
X158325464Y-109236545D01*
X158321954Y-109260206D01*
X158316142Y-109283410D01*
X158308084Y-109305932D01*
X158297856Y-109327556D01*
X158285559Y-109348073D01*
X158271309Y-109367286D01*
X158255245Y-109385010D01*
X157610010Y-110030245D01*
X157592286Y-110046309D01*
X157573073Y-110060559D01*
X157552556Y-110072856D01*
X157530932Y-110083084D01*
X157508410Y-110091142D01*
X157485206Y-110096954D01*
X157461545Y-110100464D01*
X157437653Y-110101638D01*
X157413761Y-110100464D01*
X157390100Y-110096954D01*
X157366896Y-110091142D01*
X157344374Y-110083084D01*
X157322750Y-110072856D01*
X157302233Y-110060559D01*
X157283020Y-110046309D01*
X157265296Y-110030245D01*
X156920581Y-109685530D01*
X156904517Y-109667806D01*
X156890267Y-109648593D01*
X156877970Y-109628076D01*
X156867742Y-109606452D01*
X156859684Y-109583930D01*
X156853872Y-109560726D01*
X156850362Y-109537065D01*
X156849188Y-109513173D01*
X156850362Y-109489281D01*
X156853872Y-109465620D01*
X156859684Y-109442416D01*
X156867742Y-109419894D01*
X156877970Y-109398270D01*
X156890267Y-109377753D01*
X156904517Y-109358540D01*
X156920581Y-109340816D01*
X157565816Y-108695581D01*
X157583540Y-108679517D01*
X157602753Y-108665267D01*
X157623270Y-108652970D01*
X157644894Y-108642742D01*
X157667416Y-108634684D01*
X157690620Y-108628872D01*
X157714281Y-108625362D01*
X157738173Y-108624188D01*
X157762065Y-108625362D01*
G37*
G36*
X165124978Y-108888275D02*
G01*
X165148639Y-108891785D01*
X165171843Y-108897597D01*
X165194365Y-108905655D01*
X165215989Y-108915883D01*
X165236506Y-108928180D01*
X165255719Y-108942430D01*
X165273443Y-108958494D01*
X165618158Y-109303209D01*
X165634222Y-109320933D01*
X165648472Y-109340146D01*
X165660769Y-109360663D01*
X165670997Y-109382287D01*
X165679055Y-109404809D01*
X165684867Y-109428013D01*
X165688377Y-109451674D01*
X165689551Y-109475566D01*
X165688377Y-109499458D01*
X165684867Y-109523119D01*
X165679055Y-109546323D01*
X165670997Y-109568845D01*
X165660769Y-109590469D01*
X165648472Y-109610986D01*
X165634222Y-109630199D01*
X165618158Y-109647923D01*
X164972923Y-110293158D01*
X164955199Y-110309222D01*
X164935986Y-110323472D01*
X164915469Y-110335769D01*
X164893845Y-110345997D01*
X164871323Y-110354055D01*
X164848119Y-110359867D01*
X164824458Y-110363377D01*
X164800566Y-110364551D01*
X164776674Y-110363377D01*
X164753013Y-110359867D01*
X164729809Y-110354055D01*
X164707287Y-110345997D01*
X164685663Y-110335769D01*
X164665146Y-110323472D01*
X164645933Y-110309222D01*
X164628209Y-110293158D01*
X164283494Y-109948443D01*
X164267430Y-109930719D01*
X164253180Y-109911506D01*
X164240883Y-109890989D01*
X164230655Y-109869365D01*
X164222597Y-109846843D01*
X164216785Y-109823639D01*
X164213275Y-109799978D01*
X164212101Y-109776086D01*
X164213275Y-109752194D01*
X164216785Y-109728533D01*
X164222597Y-109705329D01*
X164230655Y-109682807D01*
X164240883Y-109661183D01*
X164253180Y-109640666D01*
X164267430Y-109621453D01*
X164283494Y-109603729D01*
X164928729Y-108958494D01*
X164946453Y-108942430D01*
X164965666Y-108928180D01*
X164986183Y-108915883D01*
X165007807Y-108905655D01*
X165030329Y-108897597D01*
X165053533Y-108891785D01*
X165077194Y-108888275D01*
X165101086Y-108887101D01*
X165124978Y-108888275D01*
G37*
G36*
X163799152Y-107562449D02*
G01*
X163822813Y-107565959D01*
X163846017Y-107571771D01*
X163868539Y-107579829D01*
X163890163Y-107590057D01*
X163910680Y-107602354D01*
X163929893Y-107616604D01*
X163947617Y-107632668D01*
X164292332Y-107977383D01*
X164308396Y-107995107D01*
X164322646Y-108014320D01*
X164334943Y-108034837D01*
X164345171Y-108056461D01*
X164353229Y-108078983D01*
X164359041Y-108102187D01*
X164362551Y-108125848D01*
X164363725Y-108149740D01*
X164362551Y-108173632D01*
X164359041Y-108197293D01*
X164353229Y-108220497D01*
X164345171Y-108243019D01*
X164334943Y-108264643D01*
X164322646Y-108285160D01*
X164308396Y-108304373D01*
X164292332Y-108322097D01*
X163647097Y-108967332D01*
X163629373Y-108983396D01*
X163610160Y-108997646D01*
X163589643Y-109009943D01*
X163568019Y-109020171D01*
X163545497Y-109028229D01*
X163522293Y-109034041D01*
X163498632Y-109037551D01*
X163474740Y-109038725D01*
X163450848Y-109037551D01*
X163427187Y-109034041D01*
X163403983Y-109028229D01*
X163381461Y-109020171D01*
X163359837Y-109009943D01*
X163339320Y-108997646D01*
X163320107Y-108983396D01*
X163302383Y-108967332D01*
X162957668Y-108622617D01*
X162941604Y-108604893D01*
X162927354Y-108585680D01*
X162915057Y-108565163D01*
X162904829Y-108543539D01*
X162896771Y-108521017D01*
X162890959Y-108497813D01*
X162887449Y-108474152D01*
X162886275Y-108450260D01*
X162887449Y-108426368D01*
X162890959Y-108402707D01*
X162896771Y-108379503D01*
X162904829Y-108356981D01*
X162915057Y-108335357D01*
X162927354Y-108314840D01*
X162941604Y-108295627D01*
X162957668Y-108277903D01*
X163602903Y-107632668D01*
X163620627Y-107616604D01*
X163639840Y-107602354D01*
X163660357Y-107590057D01*
X163681981Y-107579829D01*
X163704503Y-107571771D01*
X163727707Y-107565959D01*
X163751368Y-107562449D01*
X163775260Y-107561275D01*
X163799152Y-107562449D01*
G37*
G36*
X169961239Y-107924536D02*
G01*
X169984900Y-107928046D01*
X170008104Y-107933858D01*
X170030626Y-107941916D01*
X170052250Y-107952144D01*
X170072767Y-107964441D01*
X170091980Y-107978691D01*
X170109704Y-107994755D01*
X170454419Y-108339470D01*
X170470483Y-108357194D01*
X170484733Y-108376407D01*
X170497030Y-108396924D01*
X170507258Y-108418548D01*
X170515316Y-108441070D01*
X170521128Y-108464274D01*
X170524638Y-108487935D01*
X170525812Y-108511827D01*
X170524638Y-108535719D01*
X170521128Y-108559380D01*
X170515316Y-108582584D01*
X170507258Y-108605106D01*
X170497030Y-108626730D01*
X170484733Y-108647247D01*
X170470483Y-108666460D01*
X170454419Y-108684184D01*
X169809184Y-109329419D01*
X169791460Y-109345483D01*
X169772247Y-109359733D01*
X169751730Y-109372030D01*
X169730106Y-109382258D01*
X169707584Y-109390316D01*
X169684380Y-109396128D01*
X169660719Y-109399638D01*
X169636827Y-109400812D01*
X169612935Y-109399638D01*
X169589274Y-109396128D01*
X169566070Y-109390316D01*
X169543548Y-109382258D01*
X169521924Y-109372030D01*
X169501407Y-109359733D01*
X169482194Y-109345483D01*
X169464470Y-109329419D01*
X169119755Y-108984704D01*
X169103691Y-108966980D01*
X169089441Y-108947767D01*
X169077144Y-108927250D01*
X169066916Y-108905626D01*
X169058858Y-108883104D01*
X169053046Y-108859900D01*
X169049536Y-108836239D01*
X169048362Y-108812347D01*
X169049536Y-108788455D01*
X169053046Y-108764794D01*
X169058858Y-108741590D01*
X169066916Y-108719068D01*
X169077144Y-108697444D01*
X169089441Y-108676927D01*
X169103691Y-108657714D01*
X169119755Y-108639990D01*
X169764990Y-107994755D01*
X169782714Y-107978691D01*
X169801927Y-107964441D01*
X169822444Y-107952144D01*
X169844068Y-107941916D01*
X169866590Y-107933858D01*
X169889794Y-107928046D01*
X169913455Y-107924536D01*
X169937347Y-107923362D01*
X169961239Y-107924536D01*
G37*
G36*
X171287065Y-109250362D02*
G01*
X171310726Y-109253872D01*
X171333930Y-109259684D01*
X171356452Y-109267742D01*
X171378076Y-109277970D01*
X171398593Y-109290267D01*
X171417806Y-109304517D01*
X171435530Y-109320581D01*
X171780245Y-109665296D01*
X171796309Y-109683020D01*
X171810559Y-109702233D01*
X171822856Y-109722750D01*
X171833084Y-109744374D01*
X171841142Y-109766896D01*
X171846954Y-109790100D01*
X171850464Y-109813761D01*
X171851638Y-109837653D01*
X171850464Y-109861545D01*
X171846954Y-109885206D01*
X171841142Y-109908410D01*
X171833084Y-109930932D01*
X171822856Y-109952556D01*
X171810559Y-109973073D01*
X171796309Y-109992286D01*
X171780245Y-110010010D01*
X171135010Y-110655245D01*
X171117286Y-110671309D01*
X171098073Y-110685559D01*
X171077556Y-110697856D01*
X171055932Y-110708084D01*
X171033410Y-110716142D01*
X171010206Y-110721954D01*
X170986545Y-110725464D01*
X170962653Y-110726638D01*
X170938761Y-110725464D01*
X170915100Y-110721954D01*
X170891896Y-110716142D01*
X170869374Y-110708084D01*
X170847750Y-110697856D01*
X170827233Y-110685559D01*
X170808020Y-110671309D01*
X170790296Y-110655245D01*
X170445581Y-110310530D01*
X170429517Y-110292806D01*
X170415267Y-110273593D01*
X170402970Y-110253076D01*
X170392742Y-110231452D01*
X170384684Y-110208930D01*
X170378872Y-110185726D01*
X170375362Y-110162065D01*
X170374188Y-110138173D01*
X170375362Y-110114281D01*
X170378872Y-110090620D01*
X170384684Y-110067416D01*
X170392742Y-110044894D01*
X170402970Y-110023270D01*
X170415267Y-110002753D01*
X170429517Y-109983540D01*
X170445581Y-109965816D01*
X171090816Y-109320581D01*
X171108540Y-109304517D01*
X171127753Y-109290267D01*
X171148270Y-109277970D01*
X171169894Y-109267742D01*
X171192416Y-109259684D01*
X171215620Y-109253872D01*
X171239281Y-109250362D01*
X171263173Y-109249188D01*
X171287065Y-109250362D01*
G37*
G36*
X117347806Y-111663275D02*
G01*
X117371467Y-111666785D01*
X117394671Y-111672597D01*
X117417193Y-111680655D01*
X117438817Y-111690883D01*
X117459334Y-111703180D01*
X117478547Y-111717430D01*
X117496271Y-111733494D01*
X118141506Y-112378729D01*
X118157570Y-112396453D01*
X118171820Y-112415666D01*
X118184117Y-112436183D01*
X118194345Y-112457807D01*
X118202403Y-112480329D01*
X118208215Y-112503533D01*
X118211725Y-112527194D01*
X118212899Y-112551086D01*
X118211725Y-112574978D01*
X118208215Y-112598639D01*
X118202403Y-112621843D01*
X118194345Y-112644365D01*
X118184117Y-112665989D01*
X118171820Y-112686506D01*
X118157570Y-112705719D01*
X118141506Y-112723443D01*
X117796791Y-113068158D01*
X117779067Y-113084222D01*
X117759854Y-113098472D01*
X117739337Y-113110769D01*
X117717713Y-113120997D01*
X117695191Y-113129055D01*
X117671987Y-113134867D01*
X117648326Y-113138377D01*
X117624434Y-113139551D01*
X117600542Y-113138377D01*
X117576881Y-113134867D01*
X117553677Y-113129055D01*
X117531155Y-113120997D01*
X117509531Y-113110769D01*
X117489014Y-113098472D01*
X117469801Y-113084222D01*
X117452077Y-113068158D01*
X116806842Y-112422923D01*
X116790778Y-112405199D01*
X116776528Y-112385986D01*
X116764231Y-112365469D01*
X116754003Y-112343845D01*
X116745945Y-112321323D01*
X116740133Y-112298119D01*
X116736623Y-112274458D01*
X116735449Y-112250566D01*
X116736623Y-112226674D01*
X116740133Y-112203013D01*
X116745945Y-112179809D01*
X116754003Y-112157287D01*
X116764231Y-112135663D01*
X116776528Y-112115146D01*
X116790778Y-112095933D01*
X116806842Y-112078209D01*
X117151557Y-111733494D01*
X117169281Y-111717430D01*
X117188494Y-111703180D01*
X117209011Y-111690883D01*
X117230635Y-111680655D01*
X117253157Y-111672597D01*
X117276361Y-111666785D01*
X117300022Y-111663275D01*
X117323914Y-111662101D01*
X117347806Y-111663275D01*
G37*
G36*
X118673632Y-110337449D02*
G01*
X118697293Y-110340959D01*
X118720497Y-110346771D01*
X118743019Y-110354829D01*
X118764643Y-110365057D01*
X118785160Y-110377354D01*
X118804373Y-110391604D01*
X118822097Y-110407668D01*
X119467332Y-111052903D01*
X119483396Y-111070627D01*
X119497646Y-111089840D01*
X119509943Y-111110357D01*
X119520171Y-111131981D01*
X119528229Y-111154503D01*
X119534041Y-111177707D01*
X119537551Y-111201368D01*
X119538725Y-111225260D01*
X119537551Y-111249152D01*
X119534041Y-111272813D01*
X119528229Y-111296017D01*
X119520171Y-111318539D01*
X119509943Y-111340163D01*
X119497646Y-111360680D01*
X119483396Y-111379893D01*
X119467332Y-111397617D01*
X119122617Y-111742332D01*
X119104893Y-111758396D01*
X119085680Y-111772646D01*
X119065163Y-111784943D01*
X119043539Y-111795171D01*
X119021017Y-111803229D01*
X118997813Y-111809041D01*
X118974152Y-111812551D01*
X118950260Y-111813725D01*
X118926368Y-111812551D01*
X118902707Y-111809041D01*
X118879503Y-111803229D01*
X118856981Y-111795171D01*
X118835357Y-111784943D01*
X118814840Y-111772646D01*
X118795627Y-111758396D01*
X118777903Y-111742332D01*
X118132668Y-111097097D01*
X118116604Y-111079373D01*
X118102354Y-111060160D01*
X118090057Y-111039643D01*
X118079829Y-111018019D01*
X118071771Y-110995497D01*
X118065959Y-110972293D01*
X118062449Y-110948632D01*
X118061275Y-110924740D01*
X118062449Y-110900848D01*
X118065959Y-110877187D01*
X118071771Y-110853983D01*
X118079829Y-110831461D01*
X118090057Y-110809837D01*
X118102354Y-110789320D01*
X118116604Y-110770107D01*
X118132668Y-110752383D01*
X118477383Y-110407668D01*
X118495107Y-110391604D01*
X118514320Y-110377354D01*
X118534837Y-110365057D01*
X118556461Y-110354829D01*
X118578983Y-110346771D01*
X118602187Y-110340959D01*
X118625848Y-110337449D01*
X118649740Y-110336275D01*
X118673632Y-110337449D01*
G37*
G36*
X125498632Y-110487449D02*
G01*
X125522293Y-110490959D01*
X125545497Y-110496771D01*
X125568019Y-110504829D01*
X125589643Y-110515057D01*
X125610160Y-110527354D01*
X125629373Y-110541604D01*
X125647097Y-110557668D01*
X126292332Y-111202903D01*
X126308396Y-111220627D01*
X126322646Y-111239840D01*
X126334943Y-111260357D01*
X126345171Y-111281981D01*
X126353229Y-111304503D01*
X126359041Y-111327707D01*
X126362551Y-111351368D01*
X126363725Y-111375260D01*
X126362551Y-111399152D01*
X126359041Y-111422813D01*
X126353229Y-111446017D01*
X126345171Y-111468539D01*
X126334943Y-111490163D01*
X126322646Y-111510680D01*
X126308396Y-111529893D01*
X126292332Y-111547617D01*
X125947617Y-111892332D01*
X125929893Y-111908396D01*
X125910680Y-111922646D01*
X125890163Y-111934943D01*
X125868539Y-111945171D01*
X125846017Y-111953229D01*
X125822813Y-111959041D01*
X125799152Y-111962551D01*
X125775260Y-111963725D01*
X125751368Y-111962551D01*
X125727707Y-111959041D01*
X125704503Y-111953229D01*
X125681981Y-111945171D01*
X125660357Y-111934943D01*
X125639840Y-111922646D01*
X125620627Y-111908396D01*
X125602903Y-111892332D01*
X124957668Y-111247097D01*
X124941604Y-111229373D01*
X124927354Y-111210160D01*
X124915057Y-111189643D01*
X124904829Y-111168019D01*
X124896771Y-111145497D01*
X124890959Y-111122293D01*
X124887449Y-111098632D01*
X124886275Y-111074740D01*
X124887449Y-111050848D01*
X124890959Y-111027187D01*
X124896771Y-111003983D01*
X124904829Y-110981461D01*
X124915057Y-110959837D01*
X124927354Y-110939320D01*
X124941604Y-110920107D01*
X124957668Y-110902383D01*
X125302383Y-110557668D01*
X125320107Y-110541604D01*
X125339320Y-110527354D01*
X125359837Y-110515057D01*
X125381461Y-110504829D01*
X125403983Y-110496771D01*
X125427187Y-110490959D01*
X125450848Y-110487449D01*
X125474740Y-110486275D01*
X125498632Y-110487449D01*
G37*
G36*
X124172806Y-111813275D02*
G01*
X124196467Y-111816785D01*
X124219671Y-111822597D01*
X124242193Y-111830655D01*
X124263817Y-111840883D01*
X124284334Y-111853180D01*
X124303547Y-111867430D01*
X124321271Y-111883494D01*
X124966506Y-112528729D01*
X124982570Y-112546453D01*
X124996820Y-112565666D01*
X125009117Y-112586183D01*
X125019345Y-112607807D01*
X125027403Y-112630329D01*
X125033215Y-112653533D01*
X125036725Y-112677194D01*
X125037899Y-112701086D01*
X125036725Y-112724978D01*
X125033215Y-112748639D01*
X125027403Y-112771843D01*
X125019345Y-112794365D01*
X125009117Y-112815989D01*
X124996820Y-112836506D01*
X124982570Y-112855719D01*
X124966506Y-112873443D01*
X124621791Y-113218158D01*
X124604067Y-113234222D01*
X124584854Y-113248472D01*
X124564337Y-113260769D01*
X124542713Y-113270997D01*
X124520191Y-113279055D01*
X124496987Y-113284867D01*
X124473326Y-113288377D01*
X124449434Y-113289551D01*
X124425542Y-113288377D01*
X124401881Y-113284867D01*
X124378677Y-113279055D01*
X124356155Y-113270997D01*
X124334531Y-113260769D01*
X124314014Y-113248472D01*
X124294801Y-113234222D01*
X124277077Y-113218158D01*
X123631842Y-112572923D01*
X123615778Y-112555199D01*
X123601528Y-112535986D01*
X123589231Y-112515469D01*
X123579003Y-112493845D01*
X123570945Y-112471323D01*
X123565133Y-112448119D01*
X123561623Y-112424458D01*
X123560449Y-112400566D01*
X123561623Y-112376674D01*
X123565133Y-112353013D01*
X123570945Y-112329809D01*
X123579003Y-112307287D01*
X123589231Y-112285663D01*
X123601528Y-112265146D01*
X123615778Y-112245933D01*
X123631842Y-112228209D01*
X123976557Y-111883494D01*
X123994281Y-111867430D01*
X124013494Y-111853180D01*
X124034011Y-111840883D01*
X124055635Y-111830655D01*
X124078157Y-111822597D01*
X124101361Y-111816785D01*
X124125022Y-111813275D01*
X124148914Y-111812101D01*
X124172806Y-111813275D01*
G37*
G36*
X131147806Y-111663275D02*
G01*
X131171467Y-111666785D01*
X131194671Y-111672597D01*
X131217193Y-111680655D01*
X131238817Y-111690883D01*
X131259334Y-111703180D01*
X131278547Y-111717430D01*
X131296271Y-111733494D01*
X131941506Y-112378729D01*
X131957570Y-112396453D01*
X131971820Y-112415666D01*
X131984117Y-112436183D01*
X131994345Y-112457807D01*
X132002403Y-112480329D01*
X132008215Y-112503533D01*
X132011725Y-112527194D01*
X132012899Y-112551086D01*
X132011725Y-112574978D01*
X132008215Y-112598639D01*
X132002403Y-112621843D01*
X131994345Y-112644365D01*
X131984117Y-112665989D01*
X131971820Y-112686506D01*
X131957570Y-112705719D01*
X131941506Y-112723443D01*
X131596791Y-113068158D01*
X131579067Y-113084222D01*
X131559854Y-113098472D01*
X131539337Y-113110769D01*
X131517713Y-113120997D01*
X131495191Y-113129055D01*
X131471987Y-113134867D01*
X131448326Y-113138377D01*
X131424434Y-113139551D01*
X131400542Y-113138377D01*
X131376881Y-113134867D01*
X131353677Y-113129055D01*
X131331155Y-113120997D01*
X131309531Y-113110769D01*
X131289014Y-113098472D01*
X131269801Y-113084222D01*
X131252077Y-113068158D01*
X130606842Y-112422923D01*
X130590778Y-112405199D01*
X130576528Y-112385986D01*
X130564231Y-112365469D01*
X130554003Y-112343845D01*
X130545945Y-112321323D01*
X130540133Y-112298119D01*
X130536623Y-112274458D01*
X130535449Y-112250566D01*
X130536623Y-112226674D01*
X130540133Y-112203013D01*
X130545945Y-112179809D01*
X130554003Y-112157287D01*
X130564231Y-112135663D01*
X130576528Y-112115146D01*
X130590778Y-112095933D01*
X130606842Y-112078209D01*
X130951557Y-111733494D01*
X130969281Y-111717430D01*
X130988494Y-111703180D01*
X131009011Y-111690883D01*
X131030635Y-111680655D01*
X131053157Y-111672597D01*
X131076361Y-111666785D01*
X131100022Y-111663275D01*
X131123914Y-111662101D01*
X131147806Y-111663275D01*
G37*
G36*
X132473632Y-110337449D02*
G01*
X132497293Y-110340959D01*
X132520497Y-110346771D01*
X132543019Y-110354829D01*
X132564643Y-110365057D01*
X132585160Y-110377354D01*
X132604373Y-110391604D01*
X132622097Y-110407668D01*
X133267332Y-111052903D01*
X133283396Y-111070627D01*
X133297646Y-111089840D01*
X133309943Y-111110357D01*
X133320171Y-111131981D01*
X133328229Y-111154503D01*
X133334041Y-111177707D01*
X133337551Y-111201368D01*
X133338725Y-111225260D01*
X133337551Y-111249152D01*
X133334041Y-111272813D01*
X133328229Y-111296017D01*
X133320171Y-111318539D01*
X133309943Y-111340163D01*
X133297646Y-111360680D01*
X133283396Y-111379893D01*
X133267332Y-111397617D01*
X132922617Y-111742332D01*
X132904893Y-111758396D01*
X132885680Y-111772646D01*
X132865163Y-111784943D01*
X132843539Y-111795171D01*
X132821017Y-111803229D01*
X132797813Y-111809041D01*
X132774152Y-111812551D01*
X132750260Y-111813725D01*
X132726368Y-111812551D01*
X132702707Y-111809041D01*
X132679503Y-111803229D01*
X132656981Y-111795171D01*
X132635357Y-111784943D01*
X132614840Y-111772646D01*
X132595627Y-111758396D01*
X132577903Y-111742332D01*
X131932668Y-111097097D01*
X131916604Y-111079373D01*
X131902354Y-111060160D01*
X131890057Y-111039643D01*
X131879829Y-111018019D01*
X131871771Y-110995497D01*
X131865959Y-110972293D01*
X131862449Y-110948632D01*
X131861275Y-110924740D01*
X131862449Y-110900848D01*
X131865959Y-110877187D01*
X131871771Y-110853983D01*
X131879829Y-110831461D01*
X131890057Y-110809837D01*
X131902354Y-110789320D01*
X131916604Y-110770107D01*
X131932668Y-110752383D01*
X132277383Y-110407668D01*
X132295107Y-110391604D01*
X132314320Y-110377354D01*
X132334837Y-110365057D01*
X132356461Y-110354829D01*
X132378983Y-110346771D01*
X132402187Y-110340959D01*
X132425848Y-110337449D01*
X132449740Y-110336275D01*
X132473632Y-110337449D01*
G37*
G36*
X139648632Y-110487449D02*
G01*
X139672293Y-110490959D01*
X139695497Y-110496771D01*
X139718019Y-110504829D01*
X139739643Y-110515057D01*
X139760160Y-110527354D01*
X139779373Y-110541604D01*
X139797097Y-110557668D01*
X140442332Y-111202903D01*
X140458396Y-111220627D01*
X140472646Y-111239840D01*
X140484943Y-111260357D01*
X140495171Y-111281981D01*
X140503229Y-111304503D01*
X140509041Y-111327707D01*
X140512551Y-111351368D01*
X140513725Y-111375260D01*
X140512551Y-111399152D01*
X140509041Y-111422813D01*
X140503229Y-111446017D01*
X140495171Y-111468539D01*
X140484943Y-111490163D01*
X140472646Y-111510680D01*
X140458396Y-111529893D01*
X140442332Y-111547617D01*
X140097617Y-111892332D01*
X140079893Y-111908396D01*
X140060680Y-111922646D01*
X140040163Y-111934943D01*
X140018539Y-111945171D01*
X139996017Y-111953229D01*
X139972813Y-111959041D01*
X139949152Y-111962551D01*
X139925260Y-111963725D01*
X139901368Y-111962551D01*
X139877707Y-111959041D01*
X139854503Y-111953229D01*
X139831981Y-111945171D01*
X139810357Y-111934943D01*
X139789840Y-111922646D01*
X139770627Y-111908396D01*
X139752903Y-111892332D01*
X139107668Y-111247097D01*
X139091604Y-111229373D01*
X139077354Y-111210160D01*
X139065057Y-111189643D01*
X139054829Y-111168019D01*
X139046771Y-111145497D01*
X139040959Y-111122293D01*
X139037449Y-111098632D01*
X139036275Y-111074740D01*
X139037449Y-111050848D01*
X139040959Y-111027187D01*
X139046771Y-111003983D01*
X139054829Y-110981461D01*
X139065057Y-110959837D01*
X139077354Y-110939320D01*
X139091604Y-110920107D01*
X139107668Y-110902383D01*
X139452383Y-110557668D01*
X139470107Y-110541604D01*
X139489320Y-110527354D01*
X139509837Y-110515057D01*
X139531461Y-110504829D01*
X139553983Y-110496771D01*
X139577187Y-110490959D01*
X139600848Y-110487449D01*
X139624740Y-110486275D01*
X139648632Y-110487449D01*
G37*
G36*
X138322806Y-111813275D02*
G01*
X138346467Y-111816785D01*
X138369671Y-111822597D01*
X138392193Y-111830655D01*
X138413817Y-111840883D01*
X138434334Y-111853180D01*
X138453547Y-111867430D01*
X138471271Y-111883494D01*
X139116506Y-112528729D01*
X139132570Y-112546453D01*
X139146820Y-112565666D01*
X139159117Y-112586183D01*
X139169345Y-112607807D01*
X139177403Y-112630329D01*
X139183215Y-112653533D01*
X139186725Y-112677194D01*
X139187899Y-112701086D01*
X139186725Y-112724978D01*
X139183215Y-112748639D01*
X139177403Y-112771843D01*
X139169345Y-112794365D01*
X139159117Y-112815989D01*
X139146820Y-112836506D01*
X139132570Y-112855719D01*
X139116506Y-112873443D01*
X138771791Y-113218158D01*
X138754067Y-113234222D01*
X138734854Y-113248472D01*
X138714337Y-113260769D01*
X138692713Y-113270997D01*
X138670191Y-113279055D01*
X138646987Y-113284867D01*
X138623326Y-113288377D01*
X138599434Y-113289551D01*
X138575542Y-113288377D01*
X138551881Y-113284867D01*
X138528677Y-113279055D01*
X138506155Y-113270997D01*
X138484531Y-113260769D01*
X138464014Y-113248472D01*
X138444801Y-113234222D01*
X138427077Y-113218158D01*
X137781842Y-112572923D01*
X137765778Y-112555199D01*
X137751528Y-112535986D01*
X137739231Y-112515469D01*
X137729003Y-112493845D01*
X137720945Y-112471323D01*
X137715133Y-112448119D01*
X137711623Y-112424458D01*
X137710449Y-112400566D01*
X137711623Y-112376674D01*
X137715133Y-112353013D01*
X137720945Y-112329809D01*
X137729003Y-112307287D01*
X137739231Y-112285663D01*
X137751528Y-112265146D01*
X137765778Y-112245933D01*
X137781842Y-112228209D01*
X138126557Y-111883494D01*
X138144281Y-111867430D01*
X138163494Y-111853180D01*
X138184011Y-111840883D01*
X138205635Y-111830655D01*
X138228157Y-111822597D01*
X138251361Y-111816785D01*
X138275022Y-111813275D01*
X138298914Y-111812101D01*
X138322806Y-111813275D01*
G37*
G36*
X145397806Y-111663275D02*
G01*
X145421467Y-111666785D01*
X145444671Y-111672597D01*
X145467193Y-111680655D01*
X145488817Y-111690883D01*
X145509334Y-111703180D01*
X145528547Y-111717430D01*
X145546271Y-111733494D01*
X146191506Y-112378729D01*
X146207570Y-112396453D01*
X146221820Y-112415666D01*
X146234117Y-112436183D01*
X146244345Y-112457807D01*
X146252403Y-112480329D01*
X146258215Y-112503533D01*
X146261725Y-112527194D01*
X146262899Y-112551086D01*
X146261725Y-112574978D01*
X146258215Y-112598639D01*
X146252403Y-112621843D01*
X146244345Y-112644365D01*
X146234117Y-112665989D01*
X146221820Y-112686506D01*
X146207570Y-112705719D01*
X146191506Y-112723443D01*
X145846791Y-113068158D01*
X145829067Y-113084222D01*
X145809854Y-113098472D01*
X145789337Y-113110769D01*
X145767713Y-113120997D01*
X145745191Y-113129055D01*
X145721987Y-113134867D01*
X145698326Y-113138377D01*
X145674434Y-113139551D01*
X145650542Y-113138377D01*
X145626881Y-113134867D01*
X145603677Y-113129055D01*
X145581155Y-113120997D01*
X145559531Y-113110769D01*
X145539014Y-113098472D01*
X145519801Y-113084222D01*
X145502077Y-113068158D01*
X144856842Y-112422923D01*
X144840778Y-112405199D01*
X144826528Y-112385986D01*
X144814231Y-112365469D01*
X144804003Y-112343845D01*
X144795945Y-112321323D01*
X144790133Y-112298119D01*
X144786623Y-112274458D01*
X144785449Y-112250566D01*
X144786623Y-112226674D01*
X144790133Y-112203013D01*
X144795945Y-112179809D01*
X144804003Y-112157287D01*
X144814231Y-112135663D01*
X144826528Y-112115146D01*
X144840778Y-112095933D01*
X144856842Y-112078209D01*
X145201557Y-111733494D01*
X145219281Y-111717430D01*
X145238494Y-111703180D01*
X145259011Y-111690883D01*
X145280635Y-111680655D01*
X145303157Y-111672597D01*
X145326361Y-111666785D01*
X145350022Y-111663275D01*
X145373914Y-111662101D01*
X145397806Y-111663275D01*
G37*
G36*
X146723632Y-110337449D02*
G01*
X146747293Y-110340959D01*
X146770497Y-110346771D01*
X146793019Y-110354829D01*
X146814643Y-110365057D01*
X146835160Y-110377354D01*
X146854373Y-110391604D01*
X146872097Y-110407668D01*
X147517332Y-111052903D01*
X147533396Y-111070627D01*
X147547646Y-111089840D01*
X147559943Y-111110357D01*
X147570171Y-111131981D01*
X147578229Y-111154503D01*
X147584041Y-111177707D01*
X147587551Y-111201368D01*
X147588725Y-111225260D01*
X147587551Y-111249152D01*
X147584041Y-111272813D01*
X147578229Y-111296017D01*
X147570171Y-111318539D01*
X147559943Y-111340163D01*
X147547646Y-111360680D01*
X147533396Y-111379893D01*
X147517332Y-111397617D01*
X147172617Y-111742332D01*
X147154893Y-111758396D01*
X147135680Y-111772646D01*
X147115163Y-111784943D01*
X147093539Y-111795171D01*
X147071017Y-111803229D01*
X147047813Y-111809041D01*
X147024152Y-111812551D01*
X147000260Y-111813725D01*
X146976368Y-111812551D01*
X146952707Y-111809041D01*
X146929503Y-111803229D01*
X146906981Y-111795171D01*
X146885357Y-111784943D01*
X146864840Y-111772646D01*
X146845627Y-111758396D01*
X146827903Y-111742332D01*
X146182668Y-111097097D01*
X146166604Y-111079373D01*
X146152354Y-111060160D01*
X146140057Y-111039643D01*
X146129829Y-111018019D01*
X146121771Y-110995497D01*
X146115959Y-110972293D01*
X146112449Y-110948632D01*
X146111275Y-110924740D01*
X146112449Y-110900848D01*
X146115959Y-110877187D01*
X146121771Y-110853983D01*
X146129829Y-110831461D01*
X146140057Y-110809837D01*
X146152354Y-110789320D01*
X146166604Y-110770107D01*
X146182668Y-110752383D01*
X146527383Y-110407668D01*
X146545107Y-110391604D01*
X146564320Y-110377354D01*
X146584837Y-110365057D01*
X146606461Y-110354829D01*
X146628983Y-110346771D01*
X146652187Y-110340959D01*
X146675848Y-110337449D01*
X146699740Y-110336275D01*
X146723632Y-110337449D01*
G37*
G36*
X152410719Y-111725362D02*
G01*
X152434380Y-111728872D01*
X152457584Y-111734684D01*
X152480106Y-111742742D01*
X152501730Y-111752970D01*
X152522247Y-111765267D01*
X152541460Y-111779517D01*
X152559184Y-111795581D01*
X153204419Y-112440816D01*
X153220483Y-112458540D01*
X153234733Y-112477753D01*
X153247030Y-112498270D01*
X153257258Y-112519894D01*
X153265316Y-112542416D01*
X153271128Y-112565620D01*
X153274638Y-112589281D01*
X153275812Y-112613173D01*
X153274638Y-112637065D01*
X153271128Y-112660726D01*
X153265316Y-112683930D01*
X153257258Y-112706452D01*
X153247030Y-112728076D01*
X153234733Y-112748593D01*
X153220483Y-112767806D01*
X153204419Y-112785530D01*
X152859704Y-113130245D01*
X152841980Y-113146309D01*
X152822767Y-113160559D01*
X152802250Y-113172856D01*
X152780626Y-113183084D01*
X152758104Y-113191142D01*
X152734900Y-113196954D01*
X152711239Y-113200464D01*
X152687347Y-113201638D01*
X152663455Y-113200464D01*
X152639794Y-113196954D01*
X152616590Y-113191142D01*
X152594068Y-113183084D01*
X152572444Y-113172856D01*
X152551927Y-113160559D01*
X152532714Y-113146309D01*
X152514990Y-113130245D01*
X151869755Y-112485010D01*
X151853691Y-112467286D01*
X151839441Y-112448073D01*
X151827144Y-112427556D01*
X151816916Y-112405932D01*
X151808858Y-112383410D01*
X151803046Y-112360206D01*
X151799536Y-112336545D01*
X151798362Y-112312653D01*
X151799536Y-112288761D01*
X151803046Y-112265100D01*
X151808858Y-112241896D01*
X151816916Y-112219374D01*
X151827144Y-112197750D01*
X151839441Y-112177233D01*
X151853691Y-112158020D01*
X151869755Y-112140296D01*
X152214470Y-111795581D01*
X152232194Y-111779517D01*
X152251407Y-111765267D01*
X152271924Y-111752970D01*
X152293548Y-111742742D01*
X152316070Y-111734684D01*
X152339274Y-111728872D01*
X152362935Y-111725362D01*
X152386827Y-111724188D01*
X152410719Y-111725362D01*
G37*
G36*
X153736545Y-110399536D02*
G01*
X153760206Y-110403046D01*
X153783410Y-110408858D01*
X153805932Y-110416916D01*
X153827556Y-110427144D01*
X153848073Y-110439441D01*
X153867286Y-110453691D01*
X153885010Y-110469755D01*
X154530245Y-111114990D01*
X154546309Y-111132714D01*
X154560559Y-111151927D01*
X154572856Y-111172444D01*
X154583084Y-111194068D01*
X154591142Y-111216590D01*
X154596954Y-111239794D01*
X154600464Y-111263455D01*
X154601638Y-111287347D01*
X154600464Y-111311239D01*
X154596954Y-111334900D01*
X154591142Y-111358104D01*
X154583084Y-111380626D01*
X154572856Y-111402250D01*
X154560559Y-111422767D01*
X154546309Y-111441980D01*
X154530245Y-111459704D01*
X154185530Y-111804419D01*
X154167806Y-111820483D01*
X154148593Y-111834733D01*
X154128076Y-111847030D01*
X154106452Y-111857258D01*
X154083930Y-111865316D01*
X154060726Y-111871128D01*
X154037065Y-111874638D01*
X154013173Y-111875812D01*
X153989281Y-111874638D01*
X153965620Y-111871128D01*
X153942416Y-111865316D01*
X153919894Y-111857258D01*
X153898270Y-111847030D01*
X153877753Y-111834733D01*
X153858540Y-111820483D01*
X153840816Y-111804419D01*
X153195581Y-111159184D01*
X153179517Y-111141460D01*
X153165267Y-111122247D01*
X153152970Y-111101730D01*
X153142742Y-111080106D01*
X153134684Y-111057584D01*
X153128872Y-111034380D01*
X153125362Y-111010719D01*
X153124188Y-110986827D01*
X153125362Y-110962935D01*
X153128872Y-110939274D01*
X153134684Y-110916070D01*
X153142742Y-110893548D01*
X153152970Y-110871924D01*
X153165267Y-110851407D01*
X153179517Y-110832194D01*
X153195581Y-110814470D01*
X153540296Y-110469755D01*
X153558020Y-110453691D01*
X153577233Y-110439441D01*
X153597750Y-110427144D01*
X153619374Y-110416916D01*
X153641896Y-110408858D01*
X153665100Y-110403046D01*
X153688761Y-110399536D01*
X153712653Y-110398362D01*
X153736545Y-110399536D01*
G37*
G36*
X160698632Y-110412449D02*
G01*
X160722293Y-110415959D01*
X160745497Y-110421771D01*
X160768019Y-110429829D01*
X160789643Y-110440057D01*
X160810160Y-110452354D01*
X160829373Y-110466604D01*
X160847097Y-110482668D01*
X161492332Y-111127903D01*
X161508396Y-111145627D01*
X161522646Y-111164840D01*
X161534943Y-111185357D01*
X161545171Y-111206981D01*
X161553229Y-111229503D01*
X161559041Y-111252707D01*
X161562551Y-111276368D01*
X161563725Y-111300260D01*
X161562551Y-111324152D01*
X161559041Y-111347813D01*
X161553229Y-111371017D01*
X161545171Y-111393539D01*
X161534943Y-111415163D01*
X161522646Y-111435680D01*
X161508396Y-111454893D01*
X161492332Y-111472617D01*
X161147617Y-111817332D01*
X161129893Y-111833396D01*
X161110680Y-111847646D01*
X161090163Y-111859943D01*
X161068539Y-111870171D01*
X161046017Y-111878229D01*
X161022813Y-111884041D01*
X160999152Y-111887551D01*
X160975260Y-111888725D01*
X160951368Y-111887551D01*
X160927707Y-111884041D01*
X160904503Y-111878229D01*
X160881981Y-111870171D01*
X160860357Y-111859943D01*
X160839840Y-111847646D01*
X160820627Y-111833396D01*
X160802903Y-111817332D01*
X160157668Y-111172097D01*
X160141604Y-111154373D01*
X160127354Y-111135160D01*
X160115057Y-111114643D01*
X160104829Y-111093019D01*
X160096771Y-111070497D01*
X160090959Y-111047293D01*
X160087449Y-111023632D01*
X160086275Y-110999740D01*
X160087449Y-110975848D01*
X160090959Y-110952187D01*
X160096771Y-110928983D01*
X160104829Y-110906461D01*
X160115057Y-110884837D01*
X160127354Y-110864320D01*
X160141604Y-110845107D01*
X160157668Y-110827383D01*
X160502383Y-110482668D01*
X160520107Y-110466604D01*
X160539320Y-110452354D01*
X160559837Y-110440057D01*
X160581461Y-110429829D01*
X160603983Y-110421771D01*
X160627187Y-110415959D01*
X160650848Y-110412449D01*
X160674740Y-110411275D01*
X160698632Y-110412449D01*
G37*
G36*
X159372806Y-111738275D02*
G01*
X159396467Y-111741785D01*
X159419671Y-111747597D01*
X159442193Y-111755655D01*
X159463817Y-111765883D01*
X159484334Y-111778180D01*
X159503547Y-111792430D01*
X159521271Y-111808494D01*
X160166506Y-112453729D01*
X160182570Y-112471453D01*
X160196820Y-112490666D01*
X160209117Y-112511183D01*
X160219345Y-112532807D01*
X160227403Y-112555329D01*
X160233215Y-112578533D01*
X160236725Y-112602194D01*
X160237899Y-112626086D01*
X160236725Y-112649978D01*
X160233215Y-112673639D01*
X160227403Y-112696843D01*
X160219345Y-112719365D01*
X160209117Y-112740989D01*
X160196820Y-112761506D01*
X160182570Y-112780719D01*
X160166506Y-112798443D01*
X159821791Y-113143158D01*
X159804067Y-113159222D01*
X159784854Y-113173472D01*
X159764337Y-113185769D01*
X159742713Y-113195997D01*
X159720191Y-113204055D01*
X159696987Y-113209867D01*
X159673326Y-113213377D01*
X159649434Y-113214551D01*
X159625542Y-113213377D01*
X159601881Y-113209867D01*
X159578677Y-113204055D01*
X159556155Y-113195997D01*
X159534531Y-113185769D01*
X159514014Y-113173472D01*
X159494801Y-113159222D01*
X159477077Y-113143158D01*
X158831842Y-112497923D01*
X158815778Y-112480199D01*
X158801528Y-112460986D01*
X158789231Y-112440469D01*
X158779003Y-112418845D01*
X158770945Y-112396323D01*
X158765133Y-112373119D01*
X158761623Y-112349458D01*
X158760449Y-112325566D01*
X158761623Y-112301674D01*
X158765133Y-112278013D01*
X158770945Y-112254809D01*
X158779003Y-112232287D01*
X158789231Y-112210663D01*
X158801528Y-112190146D01*
X158815778Y-112170933D01*
X158831842Y-112153209D01*
X159176557Y-111808494D01*
X159194281Y-111792430D01*
X159213494Y-111778180D01*
X159234011Y-111765883D01*
X159255635Y-111755655D01*
X159278157Y-111747597D01*
X159301361Y-111741785D01*
X159325022Y-111738275D01*
X159348914Y-111737101D01*
X159372806Y-111738275D01*
G37*
G36*
X122237065Y-115425362D02*
G01*
X122260726Y-115428872D01*
X122283930Y-115434684D01*
X122306452Y-115442742D01*
X122328076Y-115452970D01*
X122348593Y-115465267D01*
X122367806Y-115479517D01*
X122385530Y-115495581D01*
X122730245Y-115840296D01*
X122746309Y-115858020D01*
X122760559Y-115877233D01*
X122772856Y-115897750D01*
X122783084Y-115919374D01*
X122791142Y-115941896D01*
X122796954Y-115965100D01*
X122800464Y-115988761D01*
X122801638Y-116012653D01*
X122800464Y-116036545D01*
X122796954Y-116060206D01*
X122791142Y-116083410D01*
X122783084Y-116105932D01*
X122772856Y-116127556D01*
X122760559Y-116148073D01*
X122746309Y-116167286D01*
X122730245Y-116185010D01*
X122085010Y-116830245D01*
X122067286Y-116846309D01*
X122048073Y-116860559D01*
X122027556Y-116872856D01*
X122005932Y-116883084D01*
X121983410Y-116891142D01*
X121960206Y-116896954D01*
X121936545Y-116900464D01*
X121912653Y-116901638D01*
X121888761Y-116900464D01*
X121865100Y-116896954D01*
X121841896Y-116891142D01*
X121819374Y-116883084D01*
X121797750Y-116872856D01*
X121777233Y-116860559D01*
X121758020Y-116846309D01*
X121740296Y-116830245D01*
X121395581Y-116485530D01*
X121379517Y-116467806D01*
X121365267Y-116448593D01*
X121352970Y-116428076D01*
X121342742Y-116406452D01*
X121334684Y-116383930D01*
X121328872Y-116360726D01*
X121325362Y-116337065D01*
X121324188Y-116313173D01*
X121325362Y-116289281D01*
X121328872Y-116265620D01*
X121334684Y-116242416D01*
X121342742Y-116219894D01*
X121352970Y-116198270D01*
X121365267Y-116177753D01*
X121379517Y-116158540D01*
X121395581Y-116140816D01*
X122040816Y-115495581D01*
X122058540Y-115479517D01*
X122077753Y-115465267D01*
X122098270Y-115452970D01*
X122119894Y-115442742D01*
X122142416Y-115434684D01*
X122165620Y-115428872D01*
X122189281Y-115425362D01*
X122213173Y-115424188D01*
X122237065Y-115425362D01*
G37*
G36*
X120911239Y-114099536D02*
G01*
X120934900Y-114103046D01*
X120958104Y-114108858D01*
X120980626Y-114116916D01*
X121002250Y-114127144D01*
X121022767Y-114139441D01*
X121041980Y-114153691D01*
X121059704Y-114169755D01*
X121404419Y-114514470D01*
X121420483Y-114532194D01*
X121434733Y-114551407D01*
X121447030Y-114571924D01*
X121457258Y-114593548D01*
X121465316Y-114616070D01*
X121471128Y-114639274D01*
X121474638Y-114662935D01*
X121475812Y-114686827D01*
X121474638Y-114710719D01*
X121471128Y-114734380D01*
X121465316Y-114757584D01*
X121457258Y-114780106D01*
X121447030Y-114801730D01*
X121434733Y-114822247D01*
X121420483Y-114841460D01*
X121404419Y-114859184D01*
X120759184Y-115504419D01*
X120741460Y-115520483D01*
X120722247Y-115534733D01*
X120701730Y-115547030D01*
X120680106Y-115557258D01*
X120657584Y-115565316D01*
X120634380Y-115571128D01*
X120610719Y-115574638D01*
X120586827Y-115575812D01*
X120562935Y-115574638D01*
X120539274Y-115571128D01*
X120516070Y-115565316D01*
X120493548Y-115557258D01*
X120471924Y-115547030D01*
X120451407Y-115534733D01*
X120432194Y-115520483D01*
X120414470Y-115504419D01*
X120069755Y-115159704D01*
X120053691Y-115141980D01*
X120039441Y-115122767D01*
X120027144Y-115102250D01*
X120016916Y-115080626D01*
X120008858Y-115058104D01*
X120003046Y-115034900D01*
X119999536Y-115011239D01*
X119998362Y-114987347D01*
X119999536Y-114963455D01*
X120003046Y-114939794D01*
X120008858Y-114916590D01*
X120016916Y-114894068D01*
X120027144Y-114872444D01*
X120039441Y-114851927D01*
X120053691Y-114832714D01*
X120069755Y-114814990D01*
X120714990Y-114169755D01*
X120732714Y-114153691D01*
X120751927Y-114139441D01*
X120772444Y-114127144D01*
X120794068Y-114116916D01*
X120816590Y-114108858D01*
X120839794Y-114103046D01*
X120863455Y-114099536D01*
X120887347Y-114098362D01*
X120911239Y-114099536D01*
G37*
G36*
X127761239Y-113774536D02*
G01*
X127784900Y-113778046D01*
X127808104Y-113783858D01*
X127830626Y-113791916D01*
X127852250Y-113802144D01*
X127872767Y-113814441D01*
X127891980Y-113828691D01*
X127909704Y-113844755D01*
X128254419Y-114189470D01*
X128270483Y-114207194D01*
X128284733Y-114226407D01*
X128297030Y-114246924D01*
X128307258Y-114268548D01*
X128315316Y-114291070D01*
X128321128Y-114314274D01*
X128324638Y-114337935D01*
X128325812Y-114361827D01*
X128324638Y-114385719D01*
X128321128Y-114409380D01*
X128315316Y-114432584D01*
X128307258Y-114455106D01*
X128297030Y-114476730D01*
X128284733Y-114497247D01*
X128270483Y-114516460D01*
X128254419Y-114534184D01*
X127609184Y-115179419D01*
X127591460Y-115195483D01*
X127572247Y-115209733D01*
X127551730Y-115222030D01*
X127530106Y-115232258D01*
X127507584Y-115240316D01*
X127484380Y-115246128D01*
X127460719Y-115249638D01*
X127436827Y-115250812D01*
X127412935Y-115249638D01*
X127389274Y-115246128D01*
X127366070Y-115240316D01*
X127343548Y-115232258D01*
X127321924Y-115222030D01*
X127301407Y-115209733D01*
X127282194Y-115195483D01*
X127264470Y-115179419D01*
X126919755Y-114834704D01*
X126903691Y-114816980D01*
X126889441Y-114797767D01*
X126877144Y-114777250D01*
X126866916Y-114755626D01*
X126858858Y-114733104D01*
X126853046Y-114709900D01*
X126849536Y-114686239D01*
X126848362Y-114662347D01*
X126849536Y-114638455D01*
X126853046Y-114614794D01*
X126858858Y-114591590D01*
X126866916Y-114569068D01*
X126877144Y-114547444D01*
X126889441Y-114526927D01*
X126903691Y-114507714D01*
X126919755Y-114489990D01*
X127564990Y-113844755D01*
X127582714Y-113828691D01*
X127601927Y-113814441D01*
X127622444Y-113802144D01*
X127644068Y-113791916D01*
X127666590Y-113783858D01*
X127689794Y-113778046D01*
X127713455Y-113774536D01*
X127737347Y-113773362D01*
X127761239Y-113774536D01*
G37*
G36*
X129087065Y-115100362D02*
G01*
X129110726Y-115103872D01*
X129133930Y-115109684D01*
X129156452Y-115117742D01*
X129178076Y-115127970D01*
X129198593Y-115140267D01*
X129217806Y-115154517D01*
X129235530Y-115170581D01*
X129580245Y-115515296D01*
X129596309Y-115533020D01*
X129610559Y-115552233D01*
X129622856Y-115572750D01*
X129633084Y-115594374D01*
X129641142Y-115616896D01*
X129646954Y-115640100D01*
X129650464Y-115663761D01*
X129651638Y-115687653D01*
X129650464Y-115711545D01*
X129646954Y-115735206D01*
X129641142Y-115758410D01*
X129633084Y-115780932D01*
X129622856Y-115802556D01*
X129610559Y-115823073D01*
X129596309Y-115842286D01*
X129580245Y-115860010D01*
X128935010Y-116505245D01*
X128917286Y-116521309D01*
X128898073Y-116535559D01*
X128877556Y-116547856D01*
X128855932Y-116558084D01*
X128833410Y-116566142D01*
X128810206Y-116571954D01*
X128786545Y-116575464D01*
X128762653Y-116576638D01*
X128738761Y-116575464D01*
X128715100Y-116571954D01*
X128691896Y-116566142D01*
X128669374Y-116558084D01*
X128647750Y-116547856D01*
X128627233Y-116535559D01*
X128608020Y-116521309D01*
X128590296Y-116505245D01*
X128245581Y-116160530D01*
X128229517Y-116142806D01*
X128215267Y-116123593D01*
X128202970Y-116103076D01*
X128192742Y-116081452D01*
X128184684Y-116058930D01*
X128178872Y-116035726D01*
X128175362Y-116012065D01*
X128174188Y-115988173D01*
X128175362Y-115964281D01*
X128178872Y-115940620D01*
X128184684Y-115917416D01*
X128192742Y-115894894D01*
X128202970Y-115873270D01*
X128215267Y-115852753D01*
X128229517Y-115833540D01*
X128245581Y-115815816D01*
X128890816Y-115170581D01*
X128908540Y-115154517D01*
X128927753Y-115140267D01*
X128948270Y-115127970D01*
X128969894Y-115117742D01*
X128992416Y-115109684D01*
X129015620Y-115103872D01*
X129039281Y-115100362D01*
X129063173Y-115099188D01*
X129087065Y-115100362D01*
G37*
G36*
X157724978Y-115438275D02*
G01*
X157748639Y-115441785D01*
X157771843Y-115447597D01*
X157794365Y-115455655D01*
X157815989Y-115465883D01*
X157836506Y-115478180D01*
X157855719Y-115492430D01*
X157873443Y-115508494D01*
X158218158Y-115853209D01*
X158234222Y-115870933D01*
X158248472Y-115890146D01*
X158260769Y-115910663D01*
X158270997Y-115932287D01*
X158279055Y-115954809D01*
X158284867Y-115978013D01*
X158288377Y-116001674D01*
X158289551Y-116025566D01*
X158288377Y-116049458D01*
X158284867Y-116073119D01*
X158279055Y-116096323D01*
X158270997Y-116118845D01*
X158260769Y-116140469D01*
X158248472Y-116160986D01*
X158234222Y-116180199D01*
X158218158Y-116197923D01*
X157572923Y-116843158D01*
X157555199Y-116859222D01*
X157535986Y-116873472D01*
X157515469Y-116885769D01*
X157493845Y-116895997D01*
X157471323Y-116904055D01*
X157448119Y-116909867D01*
X157424458Y-116913377D01*
X157400566Y-116914551D01*
X157376674Y-116913377D01*
X157353013Y-116909867D01*
X157329809Y-116904055D01*
X157307287Y-116895997D01*
X157285663Y-116885769D01*
X157265146Y-116873472D01*
X157245933Y-116859222D01*
X157228209Y-116843158D01*
X156883494Y-116498443D01*
X156867430Y-116480719D01*
X156853180Y-116461506D01*
X156840883Y-116440989D01*
X156830655Y-116419365D01*
X156822597Y-116396843D01*
X156816785Y-116373639D01*
X156813275Y-116349978D01*
X156812101Y-116326086D01*
X156813275Y-116302194D01*
X156816785Y-116278533D01*
X156822597Y-116255329D01*
X156830655Y-116232807D01*
X156840883Y-116211183D01*
X156853180Y-116190666D01*
X156867430Y-116171453D01*
X156883494Y-116153729D01*
X157528729Y-115508494D01*
X157546453Y-115492430D01*
X157565666Y-115478180D01*
X157586183Y-115465883D01*
X157607807Y-115455655D01*
X157630329Y-115447597D01*
X157653533Y-115441785D01*
X157677194Y-115438275D01*
X157701086Y-115437101D01*
X157724978Y-115438275D01*
G37*
G36*
X156399152Y-114112449D02*
G01*
X156422813Y-114115959D01*
X156446017Y-114121771D01*
X156468539Y-114129829D01*
X156490163Y-114140057D01*
X156510680Y-114152354D01*
X156529893Y-114166604D01*
X156547617Y-114182668D01*
X156892332Y-114527383D01*
X156908396Y-114545107D01*
X156922646Y-114564320D01*
X156934943Y-114584837D01*
X156945171Y-114606461D01*
X156953229Y-114628983D01*
X156959041Y-114652187D01*
X156962551Y-114675848D01*
X156963725Y-114699740D01*
X156962551Y-114723632D01*
X156959041Y-114747293D01*
X156953229Y-114770497D01*
X156945171Y-114793019D01*
X156934943Y-114814643D01*
X156922646Y-114835160D01*
X156908396Y-114854373D01*
X156892332Y-114872097D01*
X156247097Y-115517332D01*
X156229373Y-115533396D01*
X156210160Y-115547646D01*
X156189643Y-115559943D01*
X156168019Y-115570171D01*
X156145497Y-115578229D01*
X156122293Y-115584041D01*
X156098632Y-115587551D01*
X156074740Y-115588725D01*
X156050848Y-115587551D01*
X156027187Y-115584041D01*
X156003983Y-115578229D01*
X155981461Y-115570171D01*
X155959837Y-115559943D01*
X155939320Y-115547646D01*
X155920107Y-115533396D01*
X155902383Y-115517332D01*
X155557668Y-115172617D01*
X155541604Y-115154893D01*
X155527354Y-115135680D01*
X155515057Y-115115163D01*
X155504829Y-115093539D01*
X155496771Y-115071017D01*
X155490959Y-115047813D01*
X155487449Y-115024152D01*
X155486275Y-115000260D01*
X155487449Y-114976368D01*
X155490959Y-114952707D01*
X155496771Y-114929503D01*
X155504829Y-114906981D01*
X155515057Y-114885357D01*
X155527354Y-114864840D01*
X155541604Y-114845627D01*
X155557668Y-114827903D01*
X156202903Y-114182668D01*
X156220627Y-114166604D01*
X156239840Y-114152354D01*
X156260357Y-114140057D01*
X156281981Y-114129829D01*
X156304503Y-114121771D01*
X156327707Y-114115959D01*
X156351368Y-114112449D01*
X156375260Y-114111275D01*
X156399152Y-114112449D01*
G37*
G36*
X163149152Y-113812449D02*
G01*
X163172813Y-113815959D01*
X163196017Y-113821771D01*
X163218539Y-113829829D01*
X163240163Y-113840057D01*
X163260680Y-113852354D01*
X163279893Y-113866604D01*
X163297617Y-113882668D01*
X163642332Y-114227383D01*
X163658396Y-114245107D01*
X163672646Y-114264320D01*
X163684943Y-114284837D01*
X163695171Y-114306461D01*
X163703229Y-114328983D01*
X163709041Y-114352187D01*
X163712551Y-114375848D01*
X163713725Y-114399740D01*
X163712551Y-114423632D01*
X163709041Y-114447293D01*
X163703229Y-114470497D01*
X163695171Y-114493019D01*
X163684943Y-114514643D01*
X163672646Y-114535160D01*
X163658396Y-114554373D01*
X163642332Y-114572097D01*
X162997097Y-115217332D01*
X162979373Y-115233396D01*
X162960160Y-115247646D01*
X162939643Y-115259943D01*
X162918019Y-115270171D01*
X162895497Y-115278229D01*
X162872293Y-115284041D01*
X162848632Y-115287551D01*
X162824740Y-115288725D01*
X162800848Y-115287551D01*
X162777187Y-115284041D01*
X162753983Y-115278229D01*
X162731461Y-115270171D01*
X162709837Y-115259943D01*
X162689320Y-115247646D01*
X162670107Y-115233396D01*
X162652383Y-115217332D01*
X162307668Y-114872617D01*
X162291604Y-114854893D01*
X162277354Y-114835680D01*
X162265057Y-114815163D01*
X162254829Y-114793539D01*
X162246771Y-114771017D01*
X162240959Y-114747813D01*
X162237449Y-114724152D01*
X162236275Y-114700260D01*
X162237449Y-114676368D01*
X162240959Y-114652707D01*
X162246771Y-114629503D01*
X162254829Y-114606981D01*
X162265057Y-114585357D01*
X162277354Y-114564840D01*
X162291604Y-114545627D01*
X162307668Y-114527903D01*
X162952903Y-113882668D01*
X162970627Y-113866604D01*
X162989840Y-113852354D01*
X163010357Y-113840057D01*
X163031981Y-113829829D01*
X163054503Y-113821771D01*
X163077707Y-113815959D01*
X163101368Y-113812449D01*
X163125260Y-113811275D01*
X163149152Y-113812449D01*
G37*
G36*
X164474978Y-115138275D02*
G01*
X164498639Y-115141785D01*
X164521843Y-115147597D01*
X164544365Y-115155655D01*
X164565989Y-115165883D01*
X164586506Y-115178180D01*
X164605719Y-115192430D01*
X164623443Y-115208494D01*
X164968158Y-115553209D01*
X164984222Y-115570933D01*
X164998472Y-115590146D01*
X165010769Y-115610663D01*
X165020997Y-115632287D01*
X165029055Y-115654809D01*
X165034867Y-115678013D01*
X165038377Y-115701674D01*
X165039551Y-115725566D01*
X165038377Y-115749458D01*
X165034867Y-115773119D01*
X165029055Y-115796323D01*
X165020997Y-115818845D01*
X165010769Y-115840469D01*
X164998472Y-115860986D01*
X164984222Y-115880199D01*
X164968158Y-115897923D01*
X164322923Y-116543158D01*
X164305199Y-116559222D01*
X164285986Y-116573472D01*
X164265469Y-116585769D01*
X164243845Y-116595997D01*
X164221323Y-116604055D01*
X164198119Y-116609867D01*
X164174458Y-116613377D01*
X164150566Y-116614551D01*
X164126674Y-116613377D01*
X164103013Y-116609867D01*
X164079809Y-116604055D01*
X164057287Y-116595997D01*
X164035663Y-116585769D01*
X164015146Y-116573472D01*
X163995933Y-116559222D01*
X163978209Y-116543158D01*
X163633494Y-116198443D01*
X163617430Y-116180719D01*
X163603180Y-116161506D01*
X163590883Y-116140989D01*
X163580655Y-116119365D01*
X163572597Y-116096843D01*
X163566785Y-116073639D01*
X163563275Y-116049978D01*
X163562101Y-116026086D01*
X163563275Y-116002194D01*
X163566785Y-115978533D01*
X163572597Y-115955329D01*
X163580655Y-115932807D01*
X163590883Y-115911183D01*
X163603180Y-115890666D01*
X163617430Y-115871453D01*
X163633494Y-115853729D01*
X164278729Y-115208494D01*
X164296453Y-115192430D01*
X164315666Y-115178180D01*
X164336183Y-115165883D01*
X164357807Y-115155655D01*
X164380329Y-115147597D01*
X164403533Y-115141785D01*
X164427194Y-115138275D01*
X164451086Y-115137101D01*
X164474978Y-115138275D01*
G37*
G36*
X124272806Y-118613275D02*
G01*
X124296467Y-118616785D01*
X124319671Y-118622597D01*
X124342193Y-118630655D01*
X124363817Y-118640883D01*
X124384334Y-118653180D01*
X124403547Y-118667430D01*
X124421271Y-118683494D01*
X125066506Y-119328729D01*
X125082570Y-119346453D01*
X125096820Y-119365666D01*
X125109117Y-119386183D01*
X125119345Y-119407807D01*
X125127403Y-119430329D01*
X125133215Y-119453533D01*
X125136725Y-119477194D01*
X125137899Y-119501086D01*
X125136725Y-119524978D01*
X125133215Y-119548639D01*
X125127403Y-119571843D01*
X125119345Y-119594365D01*
X125109117Y-119615989D01*
X125096820Y-119636506D01*
X125082570Y-119655719D01*
X125066506Y-119673443D01*
X124721791Y-120018158D01*
X124704067Y-120034222D01*
X124684854Y-120048472D01*
X124664337Y-120060769D01*
X124642713Y-120070997D01*
X124620191Y-120079055D01*
X124596987Y-120084867D01*
X124573326Y-120088377D01*
X124549434Y-120089551D01*
X124525542Y-120088377D01*
X124501881Y-120084867D01*
X124478677Y-120079055D01*
X124456155Y-120070997D01*
X124434531Y-120060769D01*
X124414014Y-120048472D01*
X124394801Y-120034222D01*
X124377077Y-120018158D01*
X123731842Y-119372923D01*
X123715778Y-119355199D01*
X123701528Y-119335986D01*
X123689231Y-119315469D01*
X123679003Y-119293845D01*
X123670945Y-119271323D01*
X123665133Y-119248119D01*
X123661623Y-119224458D01*
X123660449Y-119200566D01*
X123661623Y-119176674D01*
X123665133Y-119153013D01*
X123670945Y-119129809D01*
X123679003Y-119107287D01*
X123689231Y-119085663D01*
X123701528Y-119065146D01*
X123715778Y-119045933D01*
X123731842Y-119028209D01*
X124076557Y-118683494D01*
X124094281Y-118667430D01*
X124113494Y-118653180D01*
X124134011Y-118640883D01*
X124155635Y-118630655D01*
X124178157Y-118622597D01*
X124201361Y-118616785D01*
X124225022Y-118613275D01*
X124248914Y-118612101D01*
X124272806Y-118613275D01*
G37*
G36*
X125598632Y-117287449D02*
G01*
X125622293Y-117290959D01*
X125645497Y-117296771D01*
X125668019Y-117304829D01*
X125689643Y-117315057D01*
X125710160Y-117327354D01*
X125729373Y-117341604D01*
X125747097Y-117357668D01*
X126392332Y-118002903D01*
X126408396Y-118020627D01*
X126422646Y-118039840D01*
X126434943Y-118060357D01*
X126445171Y-118081981D01*
X126453229Y-118104503D01*
X126459041Y-118127707D01*
X126462551Y-118151368D01*
X126463725Y-118175260D01*
X126462551Y-118199152D01*
X126459041Y-118222813D01*
X126453229Y-118246017D01*
X126445171Y-118268539D01*
X126434943Y-118290163D01*
X126422646Y-118310680D01*
X126408396Y-118329893D01*
X126392332Y-118347617D01*
X126047617Y-118692332D01*
X126029893Y-118708396D01*
X126010680Y-118722646D01*
X125990163Y-118734943D01*
X125968539Y-118745171D01*
X125946017Y-118753229D01*
X125922813Y-118759041D01*
X125899152Y-118762551D01*
X125875260Y-118763725D01*
X125851368Y-118762551D01*
X125827707Y-118759041D01*
X125804503Y-118753229D01*
X125781981Y-118745171D01*
X125760357Y-118734943D01*
X125739840Y-118722646D01*
X125720627Y-118708396D01*
X125702903Y-118692332D01*
X125057668Y-118047097D01*
X125041604Y-118029373D01*
X125027354Y-118010160D01*
X125015057Y-117989643D01*
X125004829Y-117968019D01*
X124996771Y-117945497D01*
X124990959Y-117922293D01*
X124987449Y-117898632D01*
X124986275Y-117874740D01*
X124987449Y-117850848D01*
X124990959Y-117827187D01*
X124996771Y-117803983D01*
X125004829Y-117781461D01*
X125015057Y-117759837D01*
X125027354Y-117739320D01*
X125041604Y-117720107D01*
X125057668Y-117702383D01*
X125402383Y-117357668D01*
X125420107Y-117341604D01*
X125439320Y-117327354D01*
X125459837Y-117315057D01*
X125481461Y-117304829D01*
X125503983Y-117296771D01*
X125527187Y-117290959D01*
X125550848Y-117287449D01*
X125574740Y-117286275D01*
X125598632Y-117287449D01*
G37*
G36*
X160748632Y-117437449D02*
G01*
X160772293Y-117440959D01*
X160795497Y-117446771D01*
X160818019Y-117454829D01*
X160839643Y-117465057D01*
X160860160Y-117477354D01*
X160879373Y-117491604D01*
X160897097Y-117507668D01*
X161542332Y-118152903D01*
X161558396Y-118170627D01*
X161572646Y-118189840D01*
X161584943Y-118210357D01*
X161595171Y-118231981D01*
X161603229Y-118254503D01*
X161609041Y-118277707D01*
X161612551Y-118301368D01*
X161613725Y-118325260D01*
X161612551Y-118349152D01*
X161609041Y-118372813D01*
X161603229Y-118396017D01*
X161595171Y-118418539D01*
X161584943Y-118440163D01*
X161572646Y-118460680D01*
X161558396Y-118479893D01*
X161542332Y-118497617D01*
X161197617Y-118842332D01*
X161179893Y-118858396D01*
X161160680Y-118872646D01*
X161140163Y-118884943D01*
X161118539Y-118895171D01*
X161096017Y-118903229D01*
X161072813Y-118909041D01*
X161049152Y-118912551D01*
X161025260Y-118913725D01*
X161001368Y-118912551D01*
X160977707Y-118909041D01*
X160954503Y-118903229D01*
X160931981Y-118895171D01*
X160910357Y-118884943D01*
X160889840Y-118872646D01*
X160870627Y-118858396D01*
X160852903Y-118842332D01*
X160207668Y-118197097D01*
X160191604Y-118179373D01*
X160177354Y-118160160D01*
X160165057Y-118139643D01*
X160154829Y-118118019D01*
X160146771Y-118095497D01*
X160140959Y-118072293D01*
X160137449Y-118048632D01*
X160136275Y-118024740D01*
X160137449Y-118000848D01*
X160140959Y-117977187D01*
X160146771Y-117953983D01*
X160154829Y-117931461D01*
X160165057Y-117909837D01*
X160177354Y-117889320D01*
X160191604Y-117870107D01*
X160207668Y-117852383D01*
X160552383Y-117507668D01*
X160570107Y-117491604D01*
X160589320Y-117477354D01*
X160609837Y-117465057D01*
X160631461Y-117454829D01*
X160653983Y-117446771D01*
X160677187Y-117440959D01*
X160700848Y-117437449D01*
X160724740Y-117436275D01*
X160748632Y-117437449D01*
G37*
G36*
X159422806Y-118763275D02*
G01*
X159446467Y-118766785D01*
X159469671Y-118772597D01*
X159492193Y-118780655D01*
X159513817Y-118790883D01*
X159534334Y-118803180D01*
X159553547Y-118817430D01*
X159571271Y-118833494D01*
X160216506Y-119478729D01*
X160232570Y-119496453D01*
X160246820Y-119515666D01*
X160259117Y-119536183D01*
X160269345Y-119557807D01*
X160277403Y-119580329D01*
X160283215Y-119603533D01*
X160286725Y-119627194D01*
X160287899Y-119651086D01*
X160286725Y-119674978D01*
X160283215Y-119698639D01*
X160277403Y-119721843D01*
X160269345Y-119744365D01*
X160259117Y-119765989D01*
X160246820Y-119786506D01*
X160232570Y-119805719D01*
X160216506Y-119823443D01*
X159871791Y-120168158D01*
X159854067Y-120184222D01*
X159834854Y-120198472D01*
X159814337Y-120210769D01*
X159792713Y-120220997D01*
X159770191Y-120229055D01*
X159746987Y-120234867D01*
X159723326Y-120238377D01*
X159699434Y-120239551D01*
X159675542Y-120238377D01*
X159651881Y-120234867D01*
X159628677Y-120229055D01*
X159606155Y-120220997D01*
X159584531Y-120210769D01*
X159564014Y-120198472D01*
X159544801Y-120184222D01*
X159527077Y-120168158D01*
X158881842Y-119522923D01*
X158865778Y-119505199D01*
X158851528Y-119485986D01*
X158839231Y-119465469D01*
X158829003Y-119443845D01*
X158820945Y-119421323D01*
X158815133Y-119398119D01*
X158811623Y-119374458D01*
X158810449Y-119350566D01*
X158811623Y-119326674D01*
X158815133Y-119303013D01*
X158820945Y-119279809D01*
X158829003Y-119257287D01*
X158839231Y-119235663D01*
X158851528Y-119215146D01*
X158865778Y-119195933D01*
X158881842Y-119178209D01*
X159226557Y-118833494D01*
X159244281Y-118817430D01*
X159263494Y-118803180D01*
X159284011Y-118790883D01*
X159305635Y-118780655D01*
X159328157Y-118772597D01*
X159351361Y-118766785D01*
X159375022Y-118763275D01*
X159398914Y-118762101D01*
X159422806Y-118763275D01*
G37*
G36*
X129399978Y-122463275D02*
G01*
X129423639Y-122466785D01*
X129446843Y-122472597D01*
X129469365Y-122480655D01*
X129490989Y-122490883D01*
X129511506Y-122503180D01*
X129530719Y-122517430D01*
X129548443Y-122533494D01*
X129893158Y-122878209D01*
X129909222Y-122895933D01*
X129923472Y-122915146D01*
X129935769Y-122935663D01*
X129945997Y-122957287D01*
X129954055Y-122979809D01*
X129959867Y-123003013D01*
X129963377Y-123026674D01*
X129964551Y-123050566D01*
X129963377Y-123074458D01*
X129959867Y-123098119D01*
X129954055Y-123121323D01*
X129945997Y-123143845D01*
X129935769Y-123165469D01*
X129923472Y-123185986D01*
X129909222Y-123205199D01*
X129893158Y-123222923D01*
X129247923Y-123868158D01*
X129230199Y-123884222D01*
X129210986Y-123898472D01*
X129190469Y-123910769D01*
X129168845Y-123920997D01*
X129146323Y-123929055D01*
X129123119Y-123934867D01*
X129099458Y-123938377D01*
X129075566Y-123939551D01*
X129051674Y-123938377D01*
X129028013Y-123934867D01*
X129004809Y-123929055D01*
X128982287Y-123920997D01*
X128960663Y-123910769D01*
X128940146Y-123898472D01*
X128920933Y-123884222D01*
X128903209Y-123868158D01*
X128558494Y-123523443D01*
X128542430Y-123505719D01*
X128528180Y-123486506D01*
X128515883Y-123465989D01*
X128505655Y-123444365D01*
X128497597Y-123421843D01*
X128491785Y-123398639D01*
X128488275Y-123374978D01*
X128487101Y-123351086D01*
X128488275Y-123327194D01*
X128491785Y-123303533D01*
X128497597Y-123280329D01*
X128505655Y-123257807D01*
X128515883Y-123236183D01*
X128528180Y-123215666D01*
X128542430Y-123196453D01*
X128558494Y-123178729D01*
X129203729Y-122533494D01*
X129221453Y-122517430D01*
X129240666Y-122503180D01*
X129261183Y-122490883D01*
X129282807Y-122480655D01*
X129305329Y-122472597D01*
X129328533Y-122466785D01*
X129352194Y-122463275D01*
X129376086Y-122462101D01*
X129399978Y-122463275D01*
G37*
G36*
X128074152Y-121137449D02*
G01*
X128097813Y-121140959D01*
X128121017Y-121146771D01*
X128143539Y-121154829D01*
X128165163Y-121165057D01*
X128185680Y-121177354D01*
X128204893Y-121191604D01*
X128222617Y-121207668D01*
X128567332Y-121552383D01*
X128583396Y-121570107D01*
X128597646Y-121589320D01*
X128609943Y-121609837D01*
X128620171Y-121631461D01*
X128628229Y-121653983D01*
X128634041Y-121677187D01*
X128637551Y-121700848D01*
X128638725Y-121724740D01*
X128637551Y-121748632D01*
X128634041Y-121772293D01*
X128628229Y-121795497D01*
X128620171Y-121818019D01*
X128609943Y-121839643D01*
X128597646Y-121860160D01*
X128583396Y-121879373D01*
X128567332Y-121897097D01*
X127922097Y-122542332D01*
X127904373Y-122558396D01*
X127885160Y-122572646D01*
X127864643Y-122584943D01*
X127843019Y-122595171D01*
X127820497Y-122603229D01*
X127797293Y-122609041D01*
X127773632Y-122612551D01*
X127749740Y-122613725D01*
X127725848Y-122612551D01*
X127702187Y-122609041D01*
X127678983Y-122603229D01*
X127656461Y-122595171D01*
X127634837Y-122584943D01*
X127614320Y-122572646D01*
X127595107Y-122558396D01*
X127577383Y-122542332D01*
X127232668Y-122197617D01*
X127216604Y-122179893D01*
X127202354Y-122160680D01*
X127190057Y-122140163D01*
X127179829Y-122118539D01*
X127171771Y-122096017D01*
X127165959Y-122072813D01*
X127162449Y-122049152D01*
X127161275Y-122025260D01*
X127162449Y-122001368D01*
X127165959Y-121977707D01*
X127171771Y-121954503D01*
X127179829Y-121931981D01*
X127190057Y-121910357D01*
X127202354Y-121889840D01*
X127216604Y-121870627D01*
X127232668Y-121852903D01*
X127877903Y-121207668D01*
X127895627Y-121191604D01*
X127914840Y-121177354D01*
X127935357Y-121165057D01*
X127956981Y-121154829D01*
X127979503Y-121146771D01*
X128002707Y-121140959D01*
X128026368Y-121137449D01*
X128050260Y-121136275D01*
X128074152Y-121137449D01*
G37*
G36*
X135486239Y-121474536D02*
G01*
X135509900Y-121478046D01*
X135533104Y-121483858D01*
X135555626Y-121491916D01*
X135577250Y-121502144D01*
X135597767Y-121514441D01*
X135616980Y-121528691D01*
X135634704Y-121544755D01*
X135979419Y-121889470D01*
X135995483Y-121907194D01*
X136009733Y-121926407D01*
X136022030Y-121946924D01*
X136032258Y-121968548D01*
X136040316Y-121991070D01*
X136046128Y-122014274D01*
X136049638Y-122037935D01*
X136050812Y-122061827D01*
X136049638Y-122085719D01*
X136046128Y-122109380D01*
X136040316Y-122132584D01*
X136032258Y-122155106D01*
X136022030Y-122176730D01*
X136009733Y-122197247D01*
X135995483Y-122216460D01*
X135979419Y-122234184D01*
X135334184Y-122879419D01*
X135316460Y-122895483D01*
X135297247Y-122909733D01*
X135276730Y-122922030D01*
X135255106Y-122932258D01*
X135232584Y-122940316D01*
X135209380Y-122946128D01*
X135185719Y-122949638D01*
X135161827Y-122950812D01*
X135137935Y-122949638D01*
X135114274Y-122946128D01*
X135091070Y-122940316D01*
X135068548Y-122932258D01*
X135046924Y-122922030D01*
X135026407Y-122909733D01*
X135007194Y-122895483D01*
X134989470Y-122879419D01*
X134644755Y-122534704D01*
X134628691Y-122516980D01*
X134614441Y-122497767D01*
X134602144Y-122477250D01*
X134591916Y-122455626D01*
X134583858Y-122433104D01*
X134578046Y-122409900D01*
X134574536Y-122386239D01*
X134573362Y-122362347D01*
X134574536Y-122338455D01*
X134578046Y-122314794D01*
X134583858Y-122291590D01*
X134591916Y-122269068D01*
X134602144Y-122247444D01*
X134614441Y-122226927D01*
X134628691Y-122207714D01*
X134644755Y-122189990D01*
X135289990Y-121544755D01*
X135307714Y-121528691D01*
X135326927Y-121514441D01*
X135347444Y-121502144D01*
X135369068Y-121491916D01*
X135391590Y-121483858D01*
X135414794Y-121478046D01*
X135438455Y-121474536D01*
X135462347Y-121473362D01*
X135486239Y-121474536D01*
G37*
G36*
X136812065Y-122800362D02*
G01*
X136835726Y-122803872D01*
X136858930Y-122809684D01*
X136881452Y-122817742D01*
X136903076Y-122827970D01*
X136923593Y-122840267D01*
X136942806Y-122854517D01*
X136960530Y-122870581D01*
X137305245Y-123215296D01*
X137321309Y-123233020D01*
X137335559Y-123252233D01*
X137347856Y-123272750D01*
X137358084Y-123294374D01*
X137366142Y-123316896D01*
X137371954Y-123340100D01*
X137375464Y-123363761D01*
X137376638Y-123387653D01*
X137375464Y-123411545D01*
X137371954Y-123435206D01*
X137366142Y-123458410D01*
X137358084Y-123480932D01*
X137347856Y-123502556D01*
X137335559Y-123523073D01*
X137321309Y-123542286D01*
X137305245Y-123560010D01*
X136660010Y-124205245D01*
X136642286Y-124221309D01*
X136623073Y-124235559D01*
X136602556Y-124247856D01*
X136580932Y-124258084D01*
X136558410Y-124266142D01*
X136535206Y-124271954D01*
X136511545Y-124275464D01*
X136487653Y-124276638D01*
X136463761Y-124275464D01*
X136440100Y-124271954D01*
X136416896Y-124266142D01*
X136394374Y-124258084D01*
X136372750Y-124247856D01*
X136352233Y-124235559D01*
X136333020Y-124221309D01*
X136315296Y-124205245D01*
X135970581Y-123860530D01*
X135954517Y-123842806D01*
X135940267Y-123823593D01*
X135927970Y-123803076D01*
X135917742Y-123781452D01*
X135909684Y-123758930D01*
X135903872Y-123735726D01*
X135900362Y-123712065D01*
X135899188Y-123688173D01*
X135900362Y-123664281D01*
X135903872Y-123640620D01*
X135909684Y-123617416D01*
X135917742Y-123594894D01*
X135927970Y-123573270D01*
X135940267Y-123552753D01*
X135954517Y-123533540D01*
X135970581Y-123515816D01*
X136615816Y-122870581D01*
X136633540Y-122854517D01*
X136652753Y-122840267D01*
X136673270Y-122827970D01*
X136694894Y-122817742D01*
X136717416Y-122809684D01*
X136740620Y-122803872D01*
X136764281Y-122800362D01*
X136788173Y-122799188D01*
X136812065Y-122800362D01*
G37*
G36*
X144074978Y-122963275D02*
G01*
X144098639Y-122966785D01*
X144121843Y-122972597D01*
X144144365Y-122980655D01*
X144165989Y-122990883D01*
X144186506Y-123003180D01*
X144205719Y-123017430D01*
X144223443Y-123033494D01*
X144568158Y-123378209D01*
X144584222Y-123395933D01*
X144598472Y-123415146D01*
X144610769Y-123435663D01*
X144620997Y-123457287D01*
X144629055Y-123479809D01*
X144634867Y-123503013D01*
X144638377Y-123526674D01*
X144639551Y-123550566D01*
X144638377Y-123574458D01*
X144634867Y-123598119D01*
X144629055Y-123621323D01*
X144620997Y-123643845D01*
X144610769Y-123665469D01*
X144598472Y-123685986D01*
X144584222Y-123705199D01*
X144568158Y-123722923D01*
X143922923Y-124368158D01*
X143905199Y-124384222D01*
X143885986Y-124398472D01*
X143865469Y-124410769D01*
X143843845Y-124420997D01*
X143821323Y-124429055D01*
X143798119Y-124434867D01*
X143774458Y-124438377D01*
X143750566Y-124439551D01*
X143726674Y-124438377D01*
X143703013Y-124434867D01*
X143679809Y-124429055D01*
X143657287Y-124420997D01*
X143635663Y-124410769D01*
X143615146Y-124398472D01*
X143595933Y-124384222D01*
X143578209Y-124368158D01*
X143233494Y-124023443D01*
X143217430Y-124005719D01*
X143203180Y-123986506D01*
X143190883Y-123965989D01*
X143180655Y-123944365D01*
X143172597Y-123921843D01*
X143166785Y-123898639D01*
X143163275Y-123874978D01*
X143162101Y-123851086D01*
X143163275Y-123827194D01*
X143166785Y-123803533D01*
X143172597Y-123780329D01*
X143180655Y-123757807D01*
X143190883Y-123736183D01*
X143203180Y-123715666D01*
X143217430Y-123696453D01*
X143233494Y-123678729D01*
X143878729Y-123033494D01*
X143896453Y-123017430D01*
X143915666Y-123003180D01*
X143936183Y-122990883D01*
X143957807Y-122980655D01*
X143980329Y-122972597D01*
X144003533Y-122966785D01*
X144027194Y-122963275D01*
X144051086Y-122962101D01*
X144074978Y-122963275D01*
G37*
G36*
X142749152Y-121637449D02*
G01*
X142772813Y-121640959D01*
X142796017Y-121646771D01*
X142818539Y-121654829D01*
X142840163Y-121665057D01*
X142860680Y-121677354D01*
X142879893Y-121691604D01*
X142897617Y-121707668D01*
X143242332Y-122052383D01*
X143258396Y-122070107D01*
X143272646Y-122089320D01*
X143284943Y-122109837D01*
X143295171Y-122131461D01*
X143303229Y-122153983D01*
X143309041Y-122177187D01*
X143312551Y-122200848D01*
X143313725Y-122224740D01*
X143312551Y-122248632D01*
X143309041Y-122272293D01*
X143303229Y-122295497D01*
X143295171Y-122318019D01*
X143284943Y-122339643D01*
X143272646Y-122360160D01*
X143258396Y-122379373D01*
X143242332Y-122397097D01*
X142597097Y-123042332D01*
X142579373Y-123058396D01*
X142560160Y-123072646D01*
X142539643Y-123084943D01*
X142518019Y-123095171D01*
X142495497Y-123103229D01*
X142472293Y-123109041D01*
X142448632Y-123112551D01*
X142424740Y-123113725D01*
X142400848Y-123112551D01*
X142377187Y-123109041D01*
X142353983Y-123103229D01*
X142331461Y-123095171D01*
X142309837Y-123084943D01*
X142289320Y-123072646D01*
X142270107Y-123058396D01*
X142252383Y-123042332D01*
X141907668Y-122697617D01*
X141891604Y-122679893D01*
X141877354Y-122660680D01*
X141865057Y-122640163D01*
X141854829Y-122618539D01*
X141846771Y-122596017D01*
X141840959Y-122572813D01*
X141837449Y-122549152D01*
X141836275Y-122525260D01*
X141837449Y-122501368D01*
X141840959Y-122477707D01*
X141846771Y-122454503D01*
X141854829Y-122431981D01*
X141865057Y-122410357D01*
X141877354Y-122389840D01*
X141891604Y-122370627D01*
X141907668Y-122352903D01*
X142552903Y-121707668D01*
X142570627Y-121691604D01*
X142589840Y-121677354D01*
X142610357Y-121665057D01*
X142631981Y-121654829D01*
X142654503Y-121646771D01*
X142677707Y-121640959D01*
X142701368Y-121637449D01*
X142725260Y-121636275D01*
X142749152Y-121637449D01*
G37*
G36*
X149674152Y-121462449D02*
G01*
X149697813Y-121465959D01*
X149721017Y-121471771D01*
X149743539Y-121479829D01*
X149765163Y-121490057D01*
X149785680Y-121502354D01*
X149804893Y-121516604D01*
X149822617Y-121532668D01*
X150167332Y-121877383D01*
X150183396Y-121895107D01*
X150197646Y-121914320D01*
X150209943Y-121934837D01*
X150220171Y-121956461D01*
X150228229Y-121978983D01*
X150234041Y-122002187D01*
X150237551Y-122025848D01*
X150238725Y-122049740D01*
X150237551Y-122073632D01*
X150234041Y-122097293D01*
X150228229Y-122120497D01*
X150220171Y-122143019D01*
X150209943Y-122164643D01*
X150197646Y-122185160D01*
X150183396Y-122204373D01*
X150167332Y-122222097D01*
X149522097Y-122867332D01*
X149504373Y-122883396D01*
X149485160Y-122897646D01*
X149464643Y-122909943D01*
X149443019Y-122920171D01*
X149420497Y-122928229D01*
X149397293Y-122934041D01*
X149373632Y-122937551D01*
X149349740Y-122938725D01*
X149325848Y-122937551D01*
X149302187Y-122934041D01*
X149278983Y-122928229D01*
X149256461Y-122920171D01*
X149234837Y-122909943D01*
X149214320Y-122897646D01*
X149195107Y-122883396D01*
X149177383Y-122867332D01*
X148832668Y-122522617D01*
X148816604Y-122504893D01*
X148802354Y-122485680D01*
X148790057Y-122465163D01*
X148779829Y-122443539D01*
X148771771Y-122421017D01*
X148765959Y-122397813D01*
X148762449Y-122374152D01*
X148761275Y-122350260D01*
X148762449Y-122326368D01*
X148765959Y-122302707D01*
X148771771Y-122279503D01*
X148779829Y-122256981D01*
X148790057Y-122235357D01*
X148802354Y-122214840D01*
X148816604Y-122195627D01*
X148832668Y-122177903D01*
X149477903Y-121532668D01*
X149495627Y-121516604D01*
X149514840Y-121502354D01*
X149535357Y-121490057D01*
X149556981Y-121479829D01*
X149579503Y-121471771D01*
X149602707Y-121465959D01*
X149626368Y-121462449D01*
X149650260Y-121461275D01*
X149674152Y-121462449D01*
G37*
G36*
X150999978Y-122788275D02*
G01*
X151023639Y-122791785D01*
X151046843Y-122797597D01*
X151069365Y-122805655D01*
X151090989Y-122815883D01*
X151111506Y-122828180D01*
X151130719Y-122842430D01*
X151148443Y-122858494D01*
X151493158Y-123203209D01*
X151509222Y-123220933D01*
X151523472Y-123240146D01*
X151535769Y-123260663D01*
X151545997Y-123282287D01*
X151554055Y-123304809D01*
X151559867Y-123328013D01*
X151563377Y-123351674D01*
X151564551Y-123375566D01*
X151563377Y-123399458D01*
X151559867Y-123423119D01*
X151554055Y-123446323D01*
X151545997Y-123468845D01*
X151535769Y-123490469D01*
X151523472Y-123510986D01*
X151509222Y-123530199D01*
X151493158Y-123547923D01*
X150847923Y-124193158D01*
X150830199Y-124209222D01*
X150810986Y-124223472D01*
X150790469Y-124235769D01*
X150768845Y-124245997D01*
X150746323Y-124254055D01*
X150723119Y-124259867D01*
X150699458Y-124263377D01*
X150675566Y-124264551D01*
X150651674Y-124263377D01*
X150628013Y-124259867D01*
X150604809Y-124254055D01*
X150582287Y-124245997D01*
X150560663Y-124235769D01*
X150540146Y-124223472D01*
X150520933Y-124209222D01*
X150503209Y-124193158D01*
X150158494Y-123848443D01*
X150142430Y-123830719D01*
X150128180Y-123811506D01*
X150115883Y-123790989D01*
X150105655Y-123769365D01*
X150097597Y-123746843D01*
X150091785Y-123723639D01*
X150088275Y-123699978D01*
X150087101Y-123676086D01*
X150088275Y-123652194D01*
X150091785Y-123628533D01*
X150097597Y-123605329D01*
X150105655Y-123582807D01*
X150115883Y-123561183D01*
X150128180Y-123540666D01*
X150142430Y-123521453D01*
X150158494Y-123503729D01*
X150803729Y-122858494D01*
X150821453Y-122842430D01*
X150840666Y-122828180D01*
X150861183Y-122815883D01*
X150882807Y-122805655D01*
X150905329Y-122797597D01*
X150928533Y-122791785D01*
X150952194Y-122788275D01*
X150976086Y-122787101D01*
X150999978Y-122788275D01*
G37*
G36*
X157549978Y-122363275D02*
G01*
X157573639Y-122366785D01*
X157596843Y-122372597D01*
X157619365Y-122380655D01*
X157640989Y-122390883D01*
X157661506Y-122403180D01*
X157680719Y-122417430D01*
X157698443Y-122433494D01*
X158043158Y-122778209D01*
X158059222Y-122795933D01*
X158073472Y-122815146D01*
X158085769Y-122835663D01*
X158095997Y-122857287D01*
X158104055Y-122879809D01*
X158109867Y-122903013D01*
X158113377Y-122926674D01*
X158114551Y-122950566D01*
X158113377Y-122974458D01*
X158109867Y-122998119D01*
X158104055Y-123021323D01*
X158095997Y-123043845D01*
X158085769Y-123065469D01*
X158073472Y-123085986D01*
X158059222Y-123105199D01*
X158043158Y-123122923D01*
X157397923Y-123768158D01*
X157380199Y-123784222D01*
X157360986Y-123798472D01*
X157340469Y-123810769D01*
X157318845Y-123820997D01*
X157296323Y-123829055D01*
X157273119Y-123834867D01*
X157249458Y-123838377D01*
X157225566Y-123839551D01*
X157201674Y-123838377D01*
X157178013Y-123834867D01*
X157154809Y-123829055D01*
X157132287Y-123820997D01*
X157110663Y-123810769D01*
X157090146Y-123798472D01*
X157070933Y-123784222D01*
X157053209Y-123768158D01*
X156708494Y-123423443D01*
X156692430Y-123405719D01*
X156678180Y-123386506D01*
X156665883Y-123365989D01*
X156655655Y-123344365D01*
X156647597Y-123321843D01*
X156641785Y-123298639D01*
X156638275Y-123274978D01*
X156637101Y-123251086D01*
X156638275Y-123227194D01*
X156641785Y-123203533D01*
X156647597Y-123180329D01*
X156655655Y-123157807D01*
X156665883Y-123136183D01*
X156678180Y-123115666D01*
X156692430Y-123096453D01*
X156708494Y-123078729D01*
X157353729Y-122433494D01*
X157371453Y-122417430D01*
X157390666Y-122403180D01*
X157411183Y-122390883D01*
X157432807Y-122380655D01*
X157455329Y-122372597D01*
X157478533Y-122366785D01*
X157502194Y-122363275D01*
X157526086Y-122362101D01*
X157549978Y-122363275D01*
G37*
G36*
X156224152Y-121037449D02*
G01*
X156247813Y-121040959D01*
X156271017Y-121046771D01*
X156293539Y-121054829D01*
X156315163Y-121065057D01*
X156335680Y-121077354D01*
X156354893Y-121091604D01*
X156372617Y-121107668D01*
X156717332Y-121452383D01*
X156733396Y-121470107D01*
X156747646Y-121489320D01*
X156759943Y-121509837D01*
X156770171Y-121531461D01*
X156778229Y-121553983D01*
X156784041Y-121577187D01*
X156787551Y-121600848D01*
X156788725Y-121624740D01*
X156787551Y-121648632D01*
X156784041Y-121672293D01*
X156778229Y-121695497D01*
X156770171Y-121718019D01*
X156759943Y-121739643D01*
X156747646Y-121760160D01*
X156733396Y-121779373D01*
X156717332Y-121797097D01*
X156072097Y-122442332D01*
X156054373Y-122458396D01*
X156035160Y-122472646D01*
X156014643Y-122484943D01*
X155993019Y-122495171D01*
X155970497Y-122503229D01*
X155947293Y-122509041D01*
X155923632Y-122512551D01*
X155899740Y-122513725D01*
X155875848Y-122512551D01*
X155852187Y-122509041D01*
X155828983Y-122503229D01*
X155806461Y-122495171D01*
X155784837Y-122484943D01*
X155764320Y-122472646D01*
X155745107Y-122458396D01*
X155727383Y-122442332D01*
X155382668Y-122097617D01*
X155366604Y-122079893D01*
X155352354Y-122060680D01*
X155340057Y-122040163D01*
X155329829Y-122018539D01*
X155321771Y-121996017D01*
X155315959Y-121972813D01*
X155312449Y-121949152D01*
X155311275Y-121925260D01*
X155312449Y-121901368D01*
X155315959Y-121877707D01*
X155321771Y-121854503D01*
X155329829Y-121831981D01*
X155340057Y-121810357D01*
X155352354Y-121789840D01*
X155366604Y-121770627D01*
X155382668Y-121752903D01*
X156027903Y-121107668D01*
X156045627Y-121091604D01*
X156064840Y-121077354D01*
X156085357Y-121065057D01*
X156106981Y-121054829D01*
X156129503Y-121046771D01*
X156152707Y-121040959D01*
X156176368Y-121037449D01*
X156200260Y-121036275D01*
X156224152Y-121037449D01*
G37*
G36*
X132698632Y-124437449D02*
G01*
X132722293Y-124440959D01*
X132745497Y-124446771D01*
X132768019Y-124454829D01*
X132789643Y-124465057D01*
X132810160Y-124477354D01*
X132829373Y-124491604D01*
X132847097Y-124507668D01*
X133492332Y-125152903D01*
X133508396Y-125170627D01*
X133522646Y-125189840D01*
X133534943Y-125210357D01*
X133545171Y-125231981D01*
X133553229Y-125254503D01*
X133559041Y-125277707D01*
X133562551Y-125301368D01*
X133563725Y-125325260D01*
X133562551Y-125349152D01*
X133559041Y-125372813D01*
X133553229Y-125396017D01*
X133545171Y-125418539D01*
X133534943Y-125440163D01*
X133522646Y-125460680D01*
X133508396Y-125479893D01*
X133492332Y-125497617D01*
X133147617Y-125842332D01*
X133129893Y-125858396D01*
X133110680Y-125872646D01*
X133090163Y-125884943D01*
X133068539Y-125895171D01*
X133046017Y-125903229D01*
X133022813Y-125909041D01*
X132999152Y-125912551D01*
X132975260Y-125913725D01*
X132951368Y-125912551D01*
X132927707Y-125909041D01*
X132904503Y-125903229D01*
X132881981Y-125895171D01*
X132860357Y-125884943D01*
X132839840Y-125872646D01*
X132820627Y-125858396D01*
X132802903Y-125842332D01*
X132157668Y-125197097D01*
X132141604Y-125179373D01*
X132127354Y-125160160D01*
X132115057Y-125139643D01*
X132104829Y-125118019D01*
X132096771Y-125095497D01*
X132090959Y-125072293D01*
X132087449Y-125048632D01*
X132086275Y-125024740D01*
X132087449Y-125000848D01*
X132090959Y-124977187D01*
X132096771Y-124953983D01*
X132104829Y-124931461D01*
X132115057Y-124909837D01*
X132127354Y-124889320D01*
X132141604Y-124870107D01*
X132157668Y-124852383D01*
X132502383Y-124507668D01*
X132520107Y-124491604D01*
X132539320Y-124477354D01*
X132559837Y-124465057D01*
X132581461Y-124454829D01*
X132603983Y-124446771D01*
X132627187Y-124440959D01*
X132650848Y-124437449D01*
X132674740Y-124436275D01*
X132698632Y-124437449D01*
G37*
G36*
X131372806Y-125763275D02*
G01*
X131396467Y-125766785D01*
X131419671Y-125772597D01*
X131442193Y-125780655D01*
X131463817Y-125790883D01*
X131484334Y-125803180D01*
X131503547Y-125817430D01*
X131521271Y-125833494D01*
X132166506Y-126478729D01*
X132182570Y-126496453D01*
X132196820Y-126515666D01*
X132209117Y-126536183D01*
X132219345Y-126557807D01*
X132227403Y-126580329D01*
X132233215Y-126603533D01*
X132236725Y-126627194D01*
X132237899Y-126651086D01*
X132236725Y-126674978D01*
X132233215Y-126698639D01*
X132227403Y-126721843D01*
X132219345Y-126744365D01*
X132209117Y-126765989D01*
X132196820Y-126786506D01*
X132182570Y-126805719D01*
X132166506Y-126823443D01*
X131821791Y-127168158D01*
X131804067Y-127184222D01*
X131784854Y-127198472D01*
X131764337Y-127210769D01*
X131742713Y-127220997D01*
X131720191Y-127229055D01*
X131696987Y-127234867D01*
X131673326Y-127238377D01*
X131649434Y-127239551D01*
X131625542Y-127238377D01*
X131601881Y-127234867D01*
X131578677Y-127229055D01*
X131556155Y-127220997D01*
X131534531Y-127210769D01*
X131514014Y-127198472D01*
X131494801Y-127184222D01*
X131477077Y-127168158D01*
X130831842Y-126522923D01*
X130815778Y-126505199D01*
X130801528Y-126485986D01*
X130789231Y-126465469D01*
X130779003Y-126443845D01*
X130770945Y-126421323D01*
X130765133Y-126398119D01*
X130761623Y-126374458D01*
X130760449Y-126350566D01*
X130761623Y-126326674D01*
X130765133Y-126303013D01*
X130770945Y-126279809D01*
X130779003Y-126257287D01*
X130789231Y-126235663D01*
X130801528Y-126215146D01*
X130815778Y-126195933D01*
X130831842Y-126178209D01*
X131176557Y-125833494D01*
X131194281Y-125817430D01*
X131213494Y-125803180D01*
X131234011Y-125790883D01*
X131255635Y-125780655D01*
X131278157Y-125772597D01*
X131301361Y-125766785D01*
X131325022Y-125763275D01*
X131348914Y-125762101D01*
X131372806Y-125763275D01*
G37*
G36*
X138247806Y-125763275D02*
G01*
X138271467Y-125766785D01*
X138294671Y-125772597D01*
X138317193Y-125780655D01*
X138338817Y-125790883D01*
X138359334Y-125803180D01*
X138378547Y-125817430D01*
X138396271Y-125833494D01*
X139041506Y-126478729D01*
X139057570Y-126496453D01*
X139071820Y-126515666D01*
X139084117Y-126536183D01*
X139094345Y-126557807D01*
X139102403Y-126580329D01*
X139108215Y-126603533D01*
X139111725Y-126627194D01*
X139112899Y-126651086D01*
X139111725Y-126674978D01*
X139108215Y-126698639D01*
X139102403Y-126721843D01*
X139094345Y-126744365D01*
X139084117Y-126765989D01*
X139071820Y-126786506D01*
X139057570Y-126805719D01*
X139041506Y-126823443D01*
X138696791Y-127168158D01*
X138679067Y-127184222D01*
X138659854Y-127198472D01*
X138639337Y-127210769D01*
X138617713Y-127220997D01*
X138595191Y-127229055D01*
X138571987Y-127234867D01*
X138548326Y-127238377D01*
X138524434Y-127239551D01*
X138500542Y-127238377D01*
X138476881Y-127234867D01*
X138453677Y-127229055D01*
X138431155Y-127220997D01*
X138409531Y-127210769D01*
X138389014Y-127198472D01*
X138369801Y-127184222D01*
X138352077Y-127168158D01*
X137706842Y-126522923D01*
X137690778Y-126505199D01*
X137676528Y-126485986D01*
X137664231Y-126465469D01*
X137654003Y-126443845D01*
X137645945Y-126421323D01*
X137640133Y-126398119D01*
X137636623Y-126374458D01*
X137635449Y-126350566D01*
X137636623Y-126326674D01*
X137640133Y-126303013D01*
X137645945Y-126279809D01*
X137654003Y-126257287D01*
X137664231Y-126235663D01*
X137676528Y-126215146D01*
X137690778Y-126195933D01*
X137706842Y-126178209D01*
X138051557Y-125833494D01*
X138069281Y-125817430D01*
X138088494Y-125803180D01*
X138109011Y-125790883D01*
X138130635Y-125780655D01*
X138153157Y-125772597D01*
X138176361Y-125766785D01*
X138200022Y-125763275D01*
X138223914Y-125762101D01*
X138247806Y-125763275D01*
G37*
G36*
X139573632Y-124437449D02*
G01*
X139597293Y-124440959D01*
X139620497Y-124446771D01*
X139643019Y-124454829D01*
X139664643Y-124465057D01*
X139685160Y-124477354D01*
X139704373Y-124491604D01*
X139722097Y-124507668D01*
X140367332Y-125152903D01*
X140383396Y-125170627D01*
X140397646Y-125189840D01*
X140409943Y-125210357D01*
X140420171Y-125231981D01*
X140428229Y-125254503D01*
X140434041Y-125277707D01*
X140437551Y-125301368D01*
X140438725Y-125325260D01*
X140437551Y-125349152D01*
X140434041Y-125372813D01*
X140428229Y-125396017D01*
X140420171Y-125418539D01*
X140409943Y-125440163D01*
X140397646Y-125460680D01*
X140383396Y-125479893D01*
X140367332Y-125497617D01*
X140022617Y-125842332D01*
X140004893Y-125858396D01*
X139985680Y-125872646D01*
X139965163Y-125884943D01*
X139943539Y-125895171D01*
X139921017Y-125903229D01*
X139897813Y-125909041D01*
X139874152Y-125912551D01*
X139850260Y-125913725D01*
X139826368Y-125912551D01*
X139802707Y-125909041D01*
X139779503Y-125903229D01*
X139756981Y-125895171D01*
X139735357Y-125884943D01*
X139714840Y-125872646D01*
X139695627Y-125858396D01*
X139677903Y-125842332D01*
X139032668Y-125197097D01*
X139016604Y-125179373D01*
X139002354Y-125160160D01*
X138990057Y-125139643D01*
X138979829Y-125118019D01*
X138971771Y-125095497D01*
X138965959Y-125072293D01*
X138962449Y-125048632D01*
X138961275Y-125024740D01*
X138962449Y-125000848D01*
X138965959Y-124977187D01*
X138971771Y-124953983D01*
X138979829Y-124931461D01*
X138990057Y-124909837D01*
X139002354Y-124889320D01*
X139016604Y-124870107D01*
X139032668Y-124852383D01*
X139377383Y-124507668D01*
X139395107Y-124491604D01*
X139414320Y-124477354D01*
X139434837Y-124465057D01*
X139456461Y-124454829D01*
X139478983Y-124446771D01*
X139502187Y-124440959D01*
X139525848Y-124437449D01*
X139549740Y-124436275D01*
X139573632Y-124437449D01*
G37*
G36*
X145422806Y-125813275D02*
G01*
X145446467Y-125816785D01*
X145469671Y-125822597D01*
X145492193Y-125830655D01*
X145513817Y-125840883D01*
X145534334Y-125853180D01*
X145553547Y-125867430D01*
X145571271Y-125883494D01*
X146216506Y-126528729D01*
X146232570Y-126546453D01*
X146246820Y-126565666D01*
X146259117Y-126586183D01*
X146269345Y-126607807D01*
X146277403Y-126630329D01*
X146283215Y-126653533D01*
X146286725Y-126677194D01*
X146287899Y-126701086D01*
X146286725Y-126724978D01*
X146283215Y-126748639D01*
X146277403Y-126771843D01*
X146269345Y-126794365D01*
X146259117Y-126815989D01*
X146246820Y-126836506D01*
X146232570Y-126855719D01*
X146216506Y-126873443D01*
X145871791Y-127218158D01*
X145854067Y-127234222D01*
X145834854Y-127248472D01*
X145814337Y-127260769D01*
X145792713Y-127270997D01*
X145770191Y-127279055D01*
X145746987Y-127284867D01*
X145723326Y-127288377D01*
X145699434Y-127289551D01*
X145675542Y-127288377D01*
X145651881Y-127284867D01*
X145628677Y-127279055D01*
X145606155Y-127270997D01*
X145584531Y-127260769D01*
X145564014Y-127248472D01*
X145544801Y-127234222D01*
X145527077Y-127218158D01*
X144881842Y-126572923D01*
X144865778Y-126555199D01*
X144851528Y-126535986D01*
X144839231Y-126515469D01*
X144829003Y-126493845D01*
X144820945Y-126471323D01*
X144815133Y-126448119D01*
X144811623Y-126424458D01*
X144810449Y-126400566D01*
X144811623Y-126376674D01*
X144815133Y-126353013D01*
X144820945Y-126329809D01*
X144829003Y-126307287D01*
X144839231Y-126285663D01*
X144851528Y-126265146D01*
X144865778Y-126245933D01*
X144881842Y-126228209D01*
X145226557Y-125883494D01*
X145244281Y-125867430D01*
X145263494Y-125853180D01*
X145284011Y-125840883D01*
X145305635Y-125830655D01*
X145328157Y-125822597D01*
X145351361Y-125816785D01*
X145375022Y-125813275D01*
X145398914Y-125812101D01*
X145422806Y-125813275D01*
G37*
G36*
X146748632Y-124487449D02*
G01*
X146772293Y-124490959D01*
X146795497Y-124496771D01*
X146818019Y-124504829D01*
X146839643Y-124515057D01*
X146860160Y-124527354D01*
X146879373Y-124541604D01*
X146897097Y-124557668D01*
X147542332Y-125202903D01*
X147558396Y-125220627D01*
X147572646Y-125239840D01*
X147584943Y-125260357D01*
X147595171Y-125281981D01*
X147603229Y-125304503D01*
X147609041Y-125327707D01*
X147612551Y-125351368D01*
X147613725Y-125375260D01*
X147612551Y-125399152D01*
X147609041Y-125422813D01*
X147603229Y-125446017D01*
X147595171Y-125468539D01*
X147584943Y-125490163D01*
X147572646Y-125510680D01*
X147558396Y-125529893D01*
X147542332Y-125547617D01*
X147197617Y-125892332D01*
X147179893Y-125908396D01*
X147160680Y-125922646D01*
X147140163Y-125934943D01*
X147118539Y-125945171D01*
X147096017Y-125953229D01*
X147072813Y-125959041D01*
X147049152Y-125962551D01*
X147025260Y-125963725D01*
X147001368Y-125962551D01*
X146977707Y-125959041D01*
X146954503Y-125953229D01*
X146931981Y-125945171D01*
X146910357Y-125934943D01*
X146889840Y-125922646D01*
X146870627Y-125908396D01*
X146852903Y-125892332D01*
X146207668Y-125247097D01*
X146191604Y-125229373D01*
X146177354Y-125210160D01*
X146165057Y-125189643D01*
X146154829Y-125168019D01*
X146146771Y-125145497D01*
X146140959Y-125122293D01*
X146137449Y-125098632D01*
X146136275Y-125074740D01*
X146137449Y-125050848D01*
X146140959Y-125027187D01*
X146146771Y-125003983D01*
X146154829Y-124981461D01*
X146165057Y-124959837D01*
X146177354Y-124939320D01*
X146191604Y-124920107D01*
X146207668Y-124902383D01*
X146552383Y-124557668D01*
X146570107Y-124541604D01*
X146589320Y-124527354D01*
X146609837Y-124515057D01*
X146631461Y-124504829D01*
X146653983Y-124496771D01*
X146677187Y-124490959D01*
X146700848Y-124487449D01*
X146724740Y-124486275D01*
X146748632Y-124487449D01*
G37*
G36*
X153773632Y-124487449D02*
G01*
X153797293Y-124490959D01*
X153820497Y-124496771D01*
X153843019Y-124504829D01*
X153864643Y-124515057D01*
X153885160Y-124527354D01*
X153904373Y-124541604D01*
X153922097Y-124557668D01*
X154567332Y-125202903D01*
X154583396Y-125220627D01*
X154597646Y-125239840D01*
X154609943Y-125260357D01*
X154620171Y-125281981D01*
X154628229Y-125304503D01*
X154634041Y-125327707D01*
X154637551Y-125351368D01*
X154638725Y-125375260D01*
X154637551Y-125399152D01*
X154634041Y-125422813D01*
X154628229Y-125446017D01*
X154620171Y-125468539D01*
X154609943Y-125490163D01*
X154597646Y-125510680D01*
X154583396Y-125529893D01*
X154567332Y-125547617D01*
X154222617Y-125892332D01*
X154204893Y-125908396D01*
X154185680Y-125922646D01*
X154165163Y-125934943D01*
X154143539Y-125945171D01*
X154121017Y-125953229D01*
X154097813Y-125959041D01*
X154074152Y-125962551D01*
X154050260Y-125963725D01*
X154026368Y-125962551D01*
X154002707Y-125959041D01*
X153979503Y-125953229D01*
X153956981Y-125945171D01*
X153935357Y-125934943D01*
X153914840Y-125922646D01*
X153895627Y-125908396D01*
X153877903Y-125892332D01*
X153232668Y-125247097D01*
X153216604Y-125229373D01*
X153202354Y-125210160D01*
X153190057Y-125189643D01*
X153179829Y-125168019D01*
X153171771Y-125145497D01*
X153165959Y-125122293D01*
X153162449Y-125098632D01*
X153161275Y-125074740D01*
X153162449Y-125050848D01*
X153165959Y-125027187D01*
X153171771Y-125003983D01*
X153179829Y-124981461D01*
X153190057Y-124959837D01*
X153202354Y-124939320D01*
X153216604Y-124920107D01*
X153232668Y-124902383D01*
X153577383Y-124557668D01*
X153595107Y-124541604D01*
X153614320Y-124527354D01*
X153634837Y-124515057D01*
X153656461Y-124504829D01*
X153678983Y-124496771D01*
X153702187Y-124490959D01*
X153725848Y-124487449D01*
X153749740Y-124486275D01*
X153773632Y-124487449D01*
G37*
G36*
X152447806Y-125813275D02*
G01*
X152471467Y-125816785D01*
X152494671Y-125822597D01*
X152517193Y-125830655D01*
X152538817Y-125840883D01*
X152559334Y-125853180D01*
X152578547Y-125867430D01*
X152596271Y-125883494D01*
X153241506Y-126528729D01*
X153257570Y-126546453D01*
X153271820Y-126565666D01*
X153284117Y-126586183D01*
X153294345Y-126607807D01*
X153302403Y-126630329D01*
X153308215Y-126653533D01*
X153311725Y-126677194D01*
X153312899Y-126701086D01*
X153311725Y-126724978D01*
X153308215Y-126748639D01*
X153302403Y-126771843D01*
X153294345Y-126794365D01*
X153284117Y-126815989D01*
X153271820Y-126836506D01*
X153257570Y-126855719D01*
X153241506Y-126873443D01*
X152896791Y-127218158D01*
X152879067Y-127234222D01*
X152859854Y-127248472D01*
X152839337Y-127260769D01*
X152817713Y-127270997D01*
X152795191Y-127279055D01*
X152771987Y-127284867D01*
X152748326Y-127288377D01*
X152724434Y-127289551D01*
X152700542Y-127288377D01*
X152676881Y-127284867D01*
X152653677Y-127279055D01*
X152631155Y-127270997D01*
X152609531Y-127260769D01*
X152589014Y-127248472D01*
X152569801Y-127234222D01*
X152552077Y-127218158D01*
X151906842Y-126572923D01*
X151890778Y-126555199D01*
X151876528Y-126535986D01*
X151864231Y-126515469D01*
X151854003Y-126493845D01*
X151845945Y-126471323D01*
X151840133Y-126448119D01*
X151836623Y-126424458D01*
X151835449Y-126400566D01*
X151836623Y-126376674D01*
X151840133Y-126353013D01*
X151845945Y-126329809D01*
X151854003Y-126307287D01*
X151864231Y-126285663D01*
X151876528Y-126265146D01*
X151890778Y-126245933D01*
X151906842Y-126228209D01*
X152251557Y-125883494D01*
X152269281Y-125867430D01*
X152288494Y-125853180D01*
X152309011Y-125840883D01*
X152330635Y-125830655D01*
X152353157Y-125822597D01*
X152376361Y-125816785D01*
X152400022Y-125813275D01*
X152423914Y-125812101D01*
X152447806Y-125813275D01*
G37*
G36*
X134974152Y-128037449D02*
G01*
X134997813Y-128040959D01*
X135021017Y-128046771D01*
X135043539Y-128054829D01*
X135065163Y-128065057D01*
X135085680Y-128077354D01*
X135104893Y-128091604D01*
X135122617Y-128107668D01*
X135467332Y-128452383D01*
X135483396Y-128470107D01*
X135497646Y-128489320D01*
X135509943Y-128509837D01*
X135520171Y-128531461D01*
X135528229Y-128553983D01*
X135534041Y-128577187D01*
X135537551Y-128600848D01*
X135538725Y-128624740D01*
X135537551Y-128648632D01*
X135534041Y-128672293D01*
X135528229Y-128695497D01*
X135520171Y-128718019D01*
X135509943Y-128739643D01*
X135497646Y-128760160D01*
X135483396Y-128779373D01*
X135467332Y-128797097D01*
X134822097Y-129442332D01*
X134804373Y-129458396D01*
X134785160Y-129472646D01*
X134764643Y-129484943D01*
X134743019Y-129495171D01*
X134720497Y-129503229D01*
X134697293Y-129509041D01*
X134673632Y-129512551D01*
X134649740Y-129513725D01*
X134625848Y-129512551D01*
X134602187Y-129509041D01*
X134578983Y-129503229D01*
X134556461Y-129495171D01*
X134534837Y-129484943D01*
X134514320Y-129472646D01*
X134495107Y-129458396D01*
X134477383Y-129442332D01*
X134132668Y-129097617D01*
X134116604Y-129079893D01*
X134102354Y-129060680D01*
X134090057Y-129040163D01*
X134079829Y-129018539D01*
X134071771Y-128996017D01*
X134065959Y-128972813D01*
X134062449Y-128949152D01*
X134061275Y-128925260D01*
X134062449Y-128901368D01*
X134065959Y-128877707D01*
X134071771Y-128854503D01*
X134079829Y-128831981D01*
X134090057Y-128810357D01*
X134102354Y-128789840D01*
X134116604Y-128770627D01*
X134132668Y-128752903D01*
X134777903Y-128107668D01*
X134795627Y-128091604D01*
X134814840Y-128077354D01*
X134835357Y-128065057D01*
X134856981Y-128054829D01*
X134879503Y-128046771D01*
X134902707Y-128040959D01*
X134926368Y-128037449D01*
X134950260Y-128036275D01*
X134974152Y-128037449D01*
G37*
G36*
X136299978Y-129363275D02*
G01*
X136323639Y-129366785D01*
X136346843Y-129372597D01*
X136369365Y-129380655D01*
X136390989Y-129390883D01*
X136411506Y-129403180D01*
X136430719Y-129417430D01*
X136448443Y-129433494D01*
X136793158Y-129778209D01*
X136809222Y-129795933D01*
X136823472Y-129815146D01*
X136835769Y-129835663D01*
X136845997Y-129857287D01*
X136854055Y-129879809D01*
X136859867Y-129903013D01*
X136863377Y-129926674D01*
X136864551Y-129950566D01*
X136863377Y-129974458D01*
X136859867Y-129998119D01*
X136854055Y-130021323D01*
X136845997Y-130043845D01*
X136835769Y-130065469D01*
X136823472Y-130085986D01*
X136809222Y-130105199D01*
X136793158Y-130122923D01*
X136147923Y-130768158D01*
X136130199Y-130784222D01*
X136110986Y-130798472D01*
X136090469Y-130810769D01*
X136068845Y-130820997D01*
X136046323Y-130829055D01*
X136023119Y-130834867D01*
X135999458Y-130838377D01*
X135975566Y-130839551D01*
X135951674Y-130838377D01*
X135928013Y-130834867D01*
X135904809Y-130829055D01*
X135882287Y-130820997D01*
X135860663Y-130810769D01*
X135840146Y-130798472D01*
X135820933Y-130784222D01*
X135803209Y-130768158D01*
X135458494Y-130423443D01*
X135442430Y-130405719D01*
X135428180Y-130386506D01*
X135415883Y-130365989D01*
X135405655Y-130344365D01*
X135397597Y-130321843D01*
X135391785Y-130298639D01*
X135388275Y-130274978D01*
X135387101Y-130251086D01*
X135388275Y-130227194D01*
X135391785Y-130203533D01*
X135397597Y-130180329D01*
X135405655Y-130157807D01*
X135415883Y-130136183D01*
X135428180Y-130115666D01*
X135442430Y-130096453D01*
X135458494Y-130078729D01*
X136103729Y-129433494D01*
X136121453Y-129417430D01*
X136140666Y-129403180D01*
X136161183Y-129390883D01*
X136182807Y-129380655D01*
X136205329Y-129372597D01*
X136228533Y-129366785D01*
X136252194Y-129363275D01*
X136276086Y-129362101D01*
X136299978Y-129363275D01*
G37*
G36*
X143324978Y-129263275D02*
G01*
X143348639Y-129266785D01*
X143371843Y-129272597D01*
X143394365Y-129280655D01*
X143415989Y-129290883D01*
X143436506Y-129303180D01*
X143455719Y-129317430D01*
X143473443Y-129333494D01*
X143818158Y-129678209D01*
X143834222Y-129695933D01*
X143848472Y-129715146D01*
X143860769Y-129735663D01*
X143870997Y-129757287D01*
X143879055Y-129779809D01*
X143884867Y-129803013D01*
X143888377Y-129826674D01*
X143889551Y-129850566D01*
X143888377Y-129874458D01*
X143884867Y-129898119D01*
X143879055Y-129921323D01*
X143870997Y-129943845D01*
X143860769Y-129965469D01*
X143848472Y-129985986D01*
X143834222Y-130005199D01*
X143818158Y-130022923D01*
X143172923Y-130668158D01*
X143155199Y-130684222D01*
X143135986Y-130698472D01*
X143115469Y-130710769D01*
X143093845Y-130720997D01*
X143071323Y-130729055D01*
X143048119Y-130734867D01*
X143024458Y-130738377D01*
X143000566Y-130739551D01*
X142976674Y-130738377D01*
X142953013Y-130734867D01*
X142929809Y-130729055D01*
X142907287Y-130720997D01*
X142885663Y-130710769D01*
X142865146Y-130698472D01*
X142845933Y-130684222D01*
X142828209Y-130668158D01*
X142483494Y-130323443D01*
X142467430Y-130305719D01*
X142453180Y-130286506D01*
X142440883Y-130265989D01*
X142430655Y-130244365D01*
X142422597Y-130221843D01*
X142416785Y-130198639D01*
X142413275Y-130174978D01*
X142412101Y-130151086D01*
X142413275Y-130127194D01*
X142416785Y-130103533D01*
X142422597Y-130080329D01*
X142430655Y-130057807D01*
X142440883Y-130036183D01*
X142453180Y-130015666D01*
X142467430Y-129996453D01*
X142483494Y-129978729D01*
X143128729Y-129333494D01*
X143146453Y-129317430D01*
X143165666Y-129303180D01*
X143186183Y-129290883D01*
X143207807Y-129280655D01*
X143230329Y-129272597D01*
X143253533Y-129266785D01*
X143277194Y-129263275D01*
X143301086Y-129262101D01*
X143324978Y-129263275D01*
G37*
G36*
X141999152Y-127937449D02*
G01*
X142022813Y-127940959D01*
X142046017Y-127946771D01*
X142068539Y-127954829D01*
X142090163Y-127965057D01*
X142110680Y-127977354D01*
X142129893Y-127991604D01*
X142147617Y-128007668D01*
X142492332Y-128352383D01*
X142508396Y-128370107D01*
X142522646Y-128389320D01*
X142534943Y-128409837D01*
X142545171Y-128431461D01*
X142553229Y-128453983D01*
X142559041Y-128477187D01*
X142562551Y-128500848D01*
X142563725Y-128524740D01*
X142562551Y-128548632D01*
X142559041Y-128572293D01*
X142553229Y-128595497D01*
X142545171Y-128618019D01*
X142534943Y-128639643D01*
X142522646Y-128660160D01*
X142508396Y-128679373D01*
X142492332Y-128697097D01*
X141847097Y-129342332D01*
X141829373Y-129358396D01*
X141810160Y-129372646D01*
X141789643Y-129384943D01*
X141768019Y-129395171D01*
X141745497Y-129403229D01*
X141722293Y-129409041D01*
X141698632Y-129412551D01*
X141674740Y-129413725D01*
X141650848Y-129412551D01*
X141627187Y-129409041D01*
X141603983Y-129403229D01*
X141581461Y-129395171D01*
X141559837Y-129384943D01*
X141539320Y-129372646D01*
X141520107Y-129358396D01*
X141502383Y-129342332D01*
X141157668Y-128997617D01*
X141141604Y-128979893D01*
X141127354Y-128960680D01*
X141115057Y-128940163D01*
X141104829Y-128918539D01*
X141096771Y-128896017D01*
X141090959Y-128872813D01*
X141087449Y-128849152D01*
X141086275Y-128825260D01*
X141087449Y-128801368D01*
X141090959Y-128777707D01*
X141096771Y-128754503D01*
X141104829Y-128731981D01*
X141115057Y-128710357D01*
X141127354Y-128689840D01*
X141141604Y-128670627D01*
X141157668Y-128652903D01*
X141802903Y-128007668D01*
X141820627Y-127991604D01*
X141839840Y-127977354D01*
X141860357Y-127965057D01*
X141881981Y-127954829D01*
X141904503Y-127946771D01*
X141927707Y-127940959D01*
X141951368Y-127937449D01*
X141975260Y-127936275D01*
X141999152Y-127937449D01*
G37*
G36*
X148911239Y-127774536D02*
G01*
X148934900Y-127778046D01*
X148958104Y-127783858D01*
X148980626Y-127791916D01*
X149002250Y-127802144D01*
X149022767Y-127814441D01*
X149041980Y-127828691D01*
X149059704Y-127844755D01*
X149404419Y-128189470D01*
X149420483Y-128207194D01*
X149434733Y-128226407D01*
X149447030Y-128246924D01*
X149457258Y-128268548D01*
X149465316Y-128291070D01*
X149471128Y-128314274D01*
X149474638Y-128337935D01*
X149475812Y-128361827D01*
X149474638Y-128385719D01*
X149471128Y-128409380D01*
X149465316Y-128432584D01*
X149457258Y-128455106D01*
X149447030Y-128476730D01*
X149434733Y-128497247D01*
X149420483Y-128516460D01*
X149404419Y-128534184D01*
X148759184Y-129179419D01*
X148741460Y-129195483D01*
X148722247Y-129209733D01*
X148701730Y-129222030D01*
X148680106Y-129232258D01*
X148657584Y-129240316D01*
X148634380Y-129246128D01*
X148610719Y-129249638D01*
X148586827Y-129250812D01*
X148562935Y-129249638D01*
X148539274Y-129246128D01*
X148516070Y-129240316D01*
X148493548Y-129232258D01*
X148471924Y-129222030D01*
X148451407Y-129209733D01*
X148432194Y-129195483D01*
X148414470Y-129179419D01*
X148069755Y-128834704D01*
X148053691Y-128816980D01*
X148039441Y-128797767D01*
X148027144Y-128777250D01*
X148016916Y-128755626D01*
X148008858Y-128733104D01*
X148003046Y-128709900D01*
X147999536Y-128686239D01*
X147998362Y-128662347D01*
X147999536Y-128638455D01*
X148003046Y-128614794D01*
X148008858Y-128591590D01*
X148016916Y-128569068D01*
X148027144Y-128547444D01*
X148039441Y-128526927D01*
X148053691Y-128507714D01*
X148069755Y-128489990D01*
X148714990Y-127844755D01*
X148732714Y-127828691D01*
X148751927Y-127814441D01*
X148772444Y-127802144D01*
X148794068Y-127791916D01*
X148816590Y-127783858D01*
X148839794Y-127778046D01*
X148863455Y-127774536D01*
X148887347Y-127773362D01*
X148911239Y-127774536D01*
G37*
G36*
X150237065Y-129100362D02*
G01*
X150260726Y-129103872D01*
X150283930Y-129109684D01*
X150306452Y-129117742D01*
X150328076Y-129127970D01*
X150348593Y-129140267D01*
X150367806Y-129154517D01*
X150385530Y-129170581D01*
X150730245Y-129515296D01*
X150746309Y-129533020D01*
X150760559Y-129552233D01*
X150772856Y-129572750D01*
X150783084Y-129594374D01*
X150791142Y-129616896D01*
X150796954Y-129640100D01*
X150800464Y-129663761D01*
X150801638Y-129687653D01*
X150800464Y-129711545D01*
X150796954Y-129735206D01*
X150791142Y-129758410D01*
X150783084Y-129780932D01*
X150772856Y-129802556D01*
X150760559Y-129823073D01*
X150746309Y-129842286D01*
X150730245Y-129860010D01*
X150085010Y-130505245D01*
X150067286Y-130521309D01*
X150048073Y-130535559D01*
X150027556Y-130547856D01*
X150005932Y-130558084D01*
X149983410Y-130566142D01*
X149960206Y-130571954D01*
X149936545Y-130575464D01*
X149912653Y-130576638D01*
X149888761Y-130575464D01*
X149865100Y-130571954D01*
X149841896Y-130566142D01*
X149819374Y-130558084D01*
X149797750Y-130547856D01*
X149777233Y-130535559D01*
X149758020Y-130521309D01*
X149740296Y-130505245D01*
X149395581Y-130160530D01*
X149379517Y-130142806D01*
X149365267Y-130123593D01*
X149352970Y-130103076D01*
X149342742Y-130081452D01*
X149334684Y-130058930D01*
X149328872Y-130035726D01*
X149325362Y-130012065D01*
X149324188Y-129988173D01*
X149325362Y-129964281D01*
X149328872Y-129940620D01*
X149334684Y-129917416D01*
X149342742Y-129894894D01*
X149352970Y-129873270D01*
X149365267Y-129852753D01*
X149379517Y-129833540D01*
X149395581Y-129815816D01*
X150040816Y-129170581D01*
X150058540Y-129154517D01*
X150077753Y-129140267D01*
X150098270Y-129127970D01*
X150119894Y-129117742D01*
X150142416Y-129109684D01*
X150165620Y-129103872D01*
X150189281Y-129100362D01*
X150213173Y-129099188D01*
X150237065Y-129100362D01*
G37*
G36*
X138372806Y-132738275D02*
G01*
X138396467Y-132741785D01*
X138419671Y-132747597D01*
X138442193Y-132755655D01*
X138463817Y-132765883D01*
X138484334Y-132778180D01*
X138503547Y-132792430D01*
X138521271Y-132808494D01*
X139166506Y-133453729D01*
X139182570Y-133471453D01*
X139196820Y-133490666D01*
X139209117Y-133511183D01*
X139219345Y-133532807D01*
X139227403Y-133555329D01*
X139233215Y-133578533D01*
X139236725Y-133602194D01*
X139237899Y-133626086D01*
X139236725Y-133649978D01*
X139233215Y-133673639D01*
X139227403Y-133696843D01*
X139219345Y-133719365D01*
X139209117Y-133740989D01*
X139196820Y-133761506D01*
X139182570Y-133780719D01*
X139166506Y-133798443D01*
X138821791Y-134143158D01*
X138804067Y-134159222D01*
X138784854Y-134173472D01*
X138764337Y-134185769D01*
X138742713Y-134195997D01*
X138720191Y-134204055D01*
X138696987Y-134209867D01*
X138673326Y-134213377D01*
X138649434Y-134214551D01*
X138625542Y-134213377D01*
X138601881Y-134209867D01*
X138578677Y-134204055D01*
X138556155Y-134195997D01*
X138534531Y-134185769D01*
X138514014Y-134173472D01*
X138494801Y-134159222D01*
X138477077Y-134143158D01*
X137831842Y-133497923D01*
X137815778Y-133480199D01*
X137801528Y-133460986D01*
X137789231Y-133440469D01*
X137779003Y-133418845D01*
X137770945Y-133396323D01*
X137765133Y-133373119D01*
X137761623Y-133349458D01*
X137760449Y-133325566D01*
X137761623Y-133301674D01*
X137765133Y-133278013D01*
X137770945Y-133254809D01*
X137779003Y-133232287D01*
X137789231Y-133210663D01*
X137801528Y-133190146D01*
X137815778Y-133170933D01*
X137831842Y-133153209D01*
X138176557Y-132808494D01*
X138194281Y-132792430D01*
X138213494Y-132778180D01*
X138234011Y-132765883D01*
X138255635Y-132755655D01*
X138278157Y-132747597D01*
X138301361Y-132741785D01*
X138325022Y-132738275D01*
X138348914Y-132737101D01*
X138372806Y-132738275D01*
G37*
G36*
X139698632Y-131412449D02*
G01*
X139722293Y-131415959D01*
X139745497Y-131421771D01*
X139768019Y-131429829D01*
X139789643Y-131440057D01*
X139810160Y-131452354D01*
X139829373Y-131466604D01*
X139847097Y-131482668D01*
X140492332Y-132127903D01*
X140508396Y-132145627D01*
X140522646Y-132164840D01*
X140534943Y-132185357D01*
X140545171Y-132206981D01*
X140553229Y-132229503D01*
X140559041Y-132252707D01*
X140562551Y-132276368D01*
X140563725Y-132300260D01*
X140562551Y-132324152D01*
X140559041Y-132347813D01*
X140553229Y-132371017D01*
X140545171Y-132393539D01*
X140534943Y-132415163D01*
X140522646Y-132435680D01*
X140508396Y-132454893D01*
X140492332Y-132472617D01*
X140147617Y-132817332D01*
X140129893Y-132833396D01*
X140110680Y-132847646D01*
X140090163Y-132859943D01*
X140068539Y-132870171D01*
X140046017Y-132878229D01*
X140022813Y-132884041D01*
X139999152Y-132887551D01*
X139975260Y-132888725D01*
X139951368Y-132887551D01*
X139927707Y-132884041D01*
X139904503Y-132878229D01*
X139881981Y-132870171D01*
X139860357Y-132859943D01*
X139839840Y-132847646D01*
X139820627Y-132833396D01*
X139802903Y-132817332D01*
X139157668Y-132172097D01*
X139141604Y-132154373D01*
X139127354Y-132135160D01*
X139115057Y-132114643D01*
X139104829Y-132093019D01*
X139096771Y-132070497D01*
X139090959Y-132047293D01*
X139087449Y-132023632D01*
X139086275Y-131999740D01*
X139087449Y-131975848D01*
X139090959Y-131952187D01*
X139096771Y-131928983D01*
X139104829Y-131906461D01*
X139115057Y-131884837D01*
X139127354Y-131864320D01*
X139141604Y-131845107D01*
X139157668Y-131827383D01*
X139502383Y-131482668D01*
X139520107Y-131466604D01*
X139539320Y-131452354D01*
X139559837Y-131440057D01*
X139581461Y-131429829D01*
X139603983Y-131421771D01*
X139627187Y-131415959D01*
X139650848Y-131412449D01*
X139674740Y-131411275D01*
X139698632Y-131412449D01*
G37*
G36*
X146748632Y-131512449D02*
G01*
X146772293Y-131515959D01*
X146795497Y-131521771D01*
X146818019Y-131529829D01*
X146839643Y-131540057D01*
X146860160Y-131552354D01*
X146879373Y-131566604D01*
X146897097Y-131582668D01*
X147542332Y-132227903D01*
X147558396Y-132245627D01*
X147572646Y-132264840D01*
X147584943Y-132285357D01*
X147595171Y-132306981D01*
X147603229Y-132329503D01*
X147609041Y-132352707D01*
X147612551Y-132376368D01*
X147613725Y-132400260D01*
X147612551Y-132424152D01*
X147609041Y-132447813D01*
X147603229Y-132471017D01*
X147595171Y-132493539D01*
X147584943Y-132515163D01*
X147572646Y-132535680D01*
X147558396Y-132554893D01*
X147542332Y-132572617D01*
X147197617Y-132917332D01*
X147179893Y-132933396D01*
X147160680Y-132947646D01*
X147140163Y-132959943D01*
X147118539Y-132970171D01*
X147096017Y-132978229D01*
X147072813Y-132984041D01*
X147049152Y-132987551D01*
X147025260Y-132988725D01*
X147001368Y-132987551D01*
X146977707Y-132984041D01*
X146954503Y-132978229D01*
X146931981Y-132970171D01*
X146910357Y-132959943D01*
X146889840Y-132947646D01*
X146870627Y-132933396D01*
X146852903Y-132917332D01*
X146207668Y-132272097D01*
X146191604Y-132254373D01*
X146177354Y-132235160D01*
X146165057Y-132214643D01*
X146154829Y-132193019D01*
X146146771Y-132170497D01*
X146140959Y-132147293D01*
X146137449Y-132123632D01*
X146136275Y-132099740D01*
X146137449Y-132075848D01*
X146140959Y-132052187D01*
X146146771Y-132028983D01*
X146154829Y-132006461D01*
X146165057Y-131984837D01*
X146177354Y-131964320D01*
X146191604Y-131945107D01*
X146207668Y-131927383D01*
X146552383Y-131582668D01*
X146570107Y-131566604D01*
X146589320Y-131552354D01*
X146609837Y-131540057D01*
X146631461Y-131529829D01*
X146653983Y-131521771D01*
X146677187Y-131515959D01*
X146700848Y-131512449D01*
X146724740Y-131511275D01*
X146748632Y-131512449D01*
G37*
G36*
X145422806Y-132838275D02*
G01*
X145446467Y-132841785D01*
X145469671Y-132847597D01*
X145492193Y-132855655D01*
X145513817Y-132865883D01*
X145534334Y-132878180D01*
X145553547Y-132892430D01*
X145571271Y-132908494D01*
X146216506Y-133553729D01*
X146232570Y-133571453D01*
X146246820Y-133590666D01*
X146259117Y-133611183D01*
X146269345Y-133632807D01*
X146277403Y-133655329D01*
X146283215Y-133678533D01*
X146286725Y-133702194D01*
X146287899Y-133726086D01*
X146286725Y-133749978D01*
X146283215Y-133773639D01*
X146277403Y-133796843D01*
X146269345Y-133819365D01*
X146259117Y-133840989D01*
X146246820Y-133861506D01*
X146232570Y-133880719D01*
X146216506Y-133898443D01*
X145871791Y-134243158D01*
X145854067Y-134259222D01*
X145834854Y-134273472D01*
X145814337Y-134285769D01*
X145792713Y-134295997D01*
X145770191Y-134304055D01*
X145746987Y-134309867D01*
X145723326Y-134313377D01*
X145699434Y-134314551D01*
X145675542Y-134313377D01*
X145651881Y-134309867D01*
X145628677Y-134304055D01*
X145606155Y-134295997D01*
X145584531Y-134285769D01*
X145564014Y-134273472D01*
X145544801Y-134259222D01*
X145527077Y-134243158D01*
X144881842Y-133597923D01*
X144865778Y-133580199D01*
X144851528Y-133560986D01*
X144839231Y-133540469D01*
X144829003Y-133518845D01*
X144820945Y-133496323D01*
X144815133Y-133473119D01*
X144811623Y-133449458D01*
X144810449Y-133425566D01*
X144811623Y-133401674D01*
X144815133Y-133378013D01*
X144820945Y-133354809D01*
X144829003Y-133332287D01*
X144839231Y-133310663D01*
X144851528Y-133290146D01*
X144865778Y-133270933D01*
X144881842Y-133253209D01*
X145226557Y-132908494D01*
X145244281Y-132892430D01*
X145263494Y-132878180D01*
X145284011Y-132865883D01*
X145305635Y-132855655D01*
X145328157Y-132847597D01*
X145351361Y-132841785D01*
X145375022Y-132838275D01*
X145398914Y-132837101D01*
X145422806Y-132838275D01*
G37*
G36*
X143162065Y-136275362D02*
G01*
X143185726Y-136278872D01*
X143208930Y-136284684D01*
X143231452Y-136292742D01*
X143253076Y-136302970D01*
X143273593Y-136315267D01*
X143292806Y-136329517D01*
X143310530Y-136345581D01*
X143655245Y-136690296D01*
X143671309Y-136708020D01*
X143685559Y-136727233D01*
X143697856Y-136747750D01*
X143708084Y-136769374D01*
X143716142Y-136791896D01*
X143721954Y-136815100D01*
X143725464Y-136838761D01*
X143726638Y-136862653D01*
X143725464Y-136886545D01*
X143721954Y-136910206D01*
X143716142Y-136933410D01*
X143708084Y-136955932D01*
X143697856Y-136977556D01*
X143685559Y-136998073D01*
X143671309Y-137017286D01*
X143655245Y-137035010D01*
X143010010Y-137680245D01*
X142992286Y-137696309D01*
X142973073Y-137710559D01*
X142952556Y-137722856D01*
X142930932Y-137733084D01*
X142908410Y-137741142D01*
X142885206Y-137746954D01*
X142861545Y-137750464D01*
X142837653Y-137751638D01*
X142813761Y-137750464D01*
X142790100Y-137746954D01*
X142766896Y-137741142D01*
X142744374Y-137733084D01*
X142722750Y-137722856D01*
X142702233Y-137710559D01*
X142683020Y-137696309D01*
X142665296Y-137680245D01*
X142320581Y-137335530D01*
X142304517Y-137317806D01*
X142290267Y-137298593D01*
X142277970Y-137278076D01*
X142267742Y-137256452D01*
X142259684Y-137233930D01*
X142253872Y-137210726D01*
X142250362Y-137187065D01*
X142249188Y-137163173D01*
X142250362Y-137139281D01*
X142253872Y-137115620D01*
X142259684Y-137092416D01*
X142267742Y-137069894D01*
X142277970Y-137048270D01*
X142290267Y-137027753D01*
X142304517Y-137008540D01*
X142320581Y-136990816D01*
X142965816Y-136345581D01*
X142983540Y-136329517D01*
X143002753Y-136315267D01*
X143023270Y-136302970D01*
X143044894Y-136292742D01*
X143067416Y-136284684D01*
X143090620Y-136278872D01*
X143114281Y-136275362D01*
X143138173Y-136274188D01*
X143162065Y-136275362D01*
G37*
G36*
X141836239Y-134949536D02*
G01*
X141859900Y-134953046D01*
X141883104Y-134958858D01*
X141905626Y-134966916D01*
X141927250Y-134977144D01*
X141947767Y-134989441D01*
X141966980Y-135003691D01*
X141984704Y-135019755D01*
X142329419Y-135364470D01*
X142345483Y-135382194D01*
X142359733Y-135401407D01*
X142372030Y-135421924D01*
X142382258Y-135443548D01*
X142390316Y-135466070D01*
X142396128Y-135489274D01*
X142399638Y-135512935D01*
X142400812Y-135536827D01*
X142399638Y-135560719D01*
X142396128Y-135584380D01*
X142390316Y-135607584D01*
X142382258Y-135630106D01*
X142372030Y-135651730D01*
X142359733Y-135672247D01*
X142345483Y-135691460D01*
X142329419Y-135709184D01*
X141684184Y-136354419D01*
X141666460Y-136370483D01*
X141647247Y-136384733D01*
X141626730Y-136397030D01*
X141605106Y-136407258D01*
X141582584Y-136415316D01*
X141559380Y-136421128D01*
X141535719Y-136424638D01*
X141511827Y-136425812D01*
X141487935Y-136424638D01*
X141464274Y-136421128D01*
X141441070Y-136415316D01*
X141418548Y-136407258D01*
X141396924Y-136397030D01*
X141376407Y-136384733D01*
X141357194Y-136370483D01*
X141339470Y-136354419D01*
X140994755Y-136009704D01*
X140978691Y-135991980D01*
X140964441Y-135972767D01*
X140952144Y-135952250D01*
X140941916Y-135930626D01*
X140933858Y-135908104D01*
X140928046Y-135884900D01*
X140924536Y-135861239D01*
X140923362Y-135837347D01*
X140924536Y-135813455D01*
X140928046Y-135789794D01*
X140933858Y-135766590D01*
X140941916Y-135744068D01*
X140952144Y-135722444D01*
X140964441Y-135701927D01*
X140978691Y-135682714D01*
X140994755Y-135664990D01*
X141639990Y-135019755D01*
X141657714Y-135003691D01*
X141676927Y-134989441D01*
X141697444Y-134977144D01*
X141719068Y-134966916D01*
X141741590Y-134958858D01*
X141764794Y-134953046D01*
X141788455Y-134949536D01*
X141812347Y-134948362D01*
X141836239Y-134949536D01*
G37*
M02*
