%TF.GenerationSoftware,KiCad,Pcbnew,(5.99.0-9526-g5c17ff0595)*%
%TF.CreationDate,2021-07-10T23:40:12-05:00*%
%TF.ProjectId,18650Battery,31383635-3042-4617-9474-6572792e6b69,rev?*%
%TF.SameCoordinates,Original*%
%TF.FileFunction,Copper,L2,Bot*%
%TF.FilePolarity,Positive*%
%FSLAX46Y46*%
G04 Gerber Fmt 4.6, Leading zero omitted, Abs format (unit mm)*
G04 Created by KiCad (PCBNEW (5.99.0-9526-g5c17ff0595)) date 2021-07-10 23:40:12*
%MOMM*%
%LPD*%
G01*
G04 APERTURE LIST*
G04 Aperture macros list*
%AMRoundRect*
0 Rectangle with rounded corners*
0 $1 Rounding radius*
0 $2 $3 $4 $5 $6 $7 $8 $9 X,Y pos of 4 corners*
0 Add a 4 corners polygon primitive as box body*
4,1,4,$2,$3,$4,$5,$6,$7,$8,$9,$2,$3,0*
0 Add four circle primitives for the rounded corners*
1,1,$1+$1,$2,$3*
1,1,$1+$1,$4,$5*
1,1,$1+$1,$6,$7*
1,1,$1+$1,$8,$9*
0 Add four rect primitives between the rounded corners*
20,1,$1+$1,$2,$3,$4,$5,0*
20,1,$1+$1,$4,$5,$6,$7,0*
20,1,$1+$1,$6,$7,$8,$9,0*
20,1,$1+$1,$8,$9,$2,$3,0*%
G04 Aperture macros list end*
%TA.AperFunction,SMDPad,CuDef*%
%ADD10R,6.350000X7.340000*%
%TD*%
%TA.AperFunction,ComponentPad*%
%ADD11C,6.200000*%
%TD*%
%TA.AperFunction,SMDPad,CuDef*%
%ADD12R,1.500000X2.000000*%
%TD*%
%TA.AperFunction,SMDPad,CuDef*%
%ADD13R,3.800000X2.000000*%
%TD*%
%TA.AperFunction,SMDPad,CuDef*%
%ADD14R,1.060000X0.650000*%
%TD*%
%TA.AperFunction,SMDPad,CuDef*%
%ADD15RoundRect,0.250000X0.262500X0.450000X-0.262500X0.450000X-0.262500X-0.450000X0.262500X-0.450000X0*%
%TD*%
%TA.AperFunction,SMDPad,CuDef*%
%ADD16RoundRect,0.250000X-0.262500X-0.450000X0.262500X-0.450000X0.262500X0.450000X-0.262500X0.450000X0*%
%TD*%
%TA.AperFunction,SMDPad,CuDef*%
%ADD17R,1.250000X0.900000*%
%TD*%
%TA.AperFunction,SMDPad,CuDef*%
%ADD18R,0.900000X0.800000*%
%TD*%
%TA.AperFunction,SMDPad,CuDef*%
%ADD19R,0.250000X1.400000*%
%TD*%
%TA.AperFunction,ComponentPad*%
%ADD20O,1.000000X1.800000*%
%TD*%
%TA.AperFunction,ComponentPad*%
%ADD21O,1.000000X2.100000*%
%TD*%
%TA.AperFunction,ComponentPad*%
%ADD22O,1.700000X1.700000*%
%TD*%
%TA.AperFunction,ComponentPad*%
%ADD23R,1.700000X1.700000*%
%TD*%
%TA.AperFunction,SMDPad,CuDef*%
%ADD24RoundRect,0.243750X0.243750X0.456250X-0.243750X0.456250X-0.243750X-0.456250X0.243750X-0.456250X0*%
%TD*%
%TA.AperFunction,SMDPad,CuDef*%
%ADD25RoundRect,0.250000X0.250000X0.475000X-0.250000X0.475000X-0.250000X-0.475000X0.250000X-0.475000X0*%
%TD*%
%TA.AperFunction,SMDPad,CuDef*%
%ADD26RoundRect,0.250000X-0.250000X-0.475000X0.250000X-0.475000X0.250000X0.475000X-0.250000X0.475000X0*%
%TD*%
%TA.AperFunction,ViaPad*%
%ADD27C,0.600000*%
%TD*%
%TA.AperFunction,Conductor*%
%ADD28C,0.250000*%
%TD*%
G04 APERTURE END LIST*
D10*
%TO.P,BT1,2,-*%
%TO.N,VSS*%
X135770000Y-59650000D03*
%TO.P,BT1,1,+*%
%TO.N,VDDA*%
X135770000Y-138310000D03*
%TD*%
D11*
%TO.P,,1*%
%TO.N,N/C*%
X135890000Y-50000000D03*
%TD*%
D12*
%TO.P,U2,1,GND*%
%TO.N,VSS*%
X148710000Y-72980000D03*
%TO.P,U2,3,VI*%
%TO.N,Net-(C2-Pad1)*%
X153310000Y-72980000D03*
%TO.P,U2,2,VO*%
%TO.N,VCC*%
X151010000Y-72980000D03*
D13*
X151010000Y-79280000D03*
%TD*%
D14*
%TO.P,U1,5,PROG*%
%TO.N,Net-(R3-Pad2)*%
X149460000Y-134470000D03*
%TO.P,U1,4,VCC*%
%TO.N,VBUS*%
X149460000Y-136370000D03*
%TO.P,U1,3,Bat*%
%TO.N,VDDA*%
X151660000Y-136370000D03*
%TO.P,U1,2,Gnd*%
%TO.N,VSS*%
X151660000Y-135420000D03*
%TO.P,U1,1,Chrg*%
%TO.N,Net-(D1-Pad1)*%
X151660000Y-134470000D03*
%TD*%
D15*
%TO.P,R3,2*%
%TO.N,Net-(R3-Pad2)*%
X149295000Y-130040000D03*
%TO.P,R3,1*%
%TO.N,VSS*%
X151120000Y-130040000D03*
%TD*%
D16*
%TO.P,R2,2*%
%TO.N,VDDA*%
X151065000Y-140230000D03*
%TO.P,R2,1*%
%TO.N,VBUS*%
X149240000Y-140230000D03*
%TD*%
%TO.P,R1,2*%
%TO.N,VBUS*%
X151105000Y-126590000D03*
%TO.P,R1,1*%
%TO.N,Net-(D1-Pad2)*%
X149280000Y-126590000D03*
%TD*%
D17*
%TO.P,Power->1,3,C*%
%TO.N,unconnected-(Power->1-Pad3)*%
X154230000Y-86545000D03*
%TO.P,Power->1,2,B*%
%TO.N,Net-(C2-Pad1)*%
X154230000Y-89545000D03*
%TO.P,Power->1,1,A*%
%TO.N,VDDA*%
X154230000Y-91045000D03*
D18*
%TO.P,Power->1,4*%
%TO.N,N/C*%
X155205000Y-92595000D03*
X155205000Y-84985000D03*
X157505000Y-84995000D03*
X157505000Y-92595000D03*
%TD*%
D19*
%TO.P,P1,A12,GND*%
%TO.N,VSS*%
X132545000Y-147422500D03*
%TO.P,P1,B1,GND*%
X132795000Y-147422500D03*
%TO.P,P1,A9,VBUS*%
%TO.N,VBUS*%
X133345000Y-147422500D03*
%TO.P,P1,B4,VBUS*%
X133595000Y-147422500D03*
%TO.P,P1,B9,VBUS*%
X138145000Y-147422500D03*
%TO.P,P1,A4,VBUS*%
X138395000Y-147422500D03*
%TO.P,P1,B12,GND*%
%TO.N,VSS*%
X138945000Y-147422500D03*
%TO.P,P1,A1,GND*%
X139195000Y-147422500D03*
%TO.P,P1,A8,SBU1*%
%TO.N,unconnected-(P1-PadA8)*%
X137620000Y-147422500D03*
%TO.P,P1,B5,VCONN*%
%TO.N,unconnected-(P1-PadB5)*%
X134120000Y-147422500D03*
%TO.P,P1,A5,CC*%
%TO.N,unconnected-(P1-PadA5)*%
X137120000Y-147422500D03*
%TO.P,P1,B8,SBU2*%
%TO.N,unconnected-(P1-PadB8)*%
X134620000Y-147422500D03*
%TO.P,P1,B6,D+*%
%TO.N,unconnected-(P1-PadA6)*%
X135120000Y-147422500D03*
%TO.P,P1,B7,D-*%
%TO.N,unconnected-(P1-PadA7)*%
X136620000Y-147422500D03*
%TO.P,P1,A6,D+*%
%TO.N,unconnected-(P1-PadA6)*%
X136120000Y-147422500D03*
%TO.P,P1,A7,D-*%
%TO.N,unconnected-(P1-PadA7)*%
X135620000Y-147422500D03*
D20*
%TO.P,P1,S1,SHIELD*%
%TO.N,VSS*%
X131550000Y-152272500D03*
X140190000Y-152272500D03*
D21*
X131550000Y-148122500D03*
X140190000Y-148122500D03*
%TD*%
D22*
%TO.P,J4,6,Pin_6*%
%TO.N,unconnected-(J4-Pad6)*%
X119655000Y-148360000D03*
%TO.P,J4,5,Pin_5*%
%TO.N,unconnected-(J4-Pad5)*%
X119655000Y-145820000D03*
%TO.P,J4,4,Pin_4*%
%TO.N,unconnected-(J4-Pad4)*%
X122195000Y-148360000D03*
%TO.P,J4,3,Pin_3*%
%TO.N,unconnected-(J4-Pad3)*%
X122195000Y-145820000D03*
%TO.P,J4,2,Pin_2*%
%TO.N,VSS*%
X124735000Y-148360000D03*
D23*
%TO.P,J4,1,Pin_1*%
%TO.N,VCC*%
X124735000Y-145820000D03*
%TD*%
D22*
%TO.P,J3,6,Pin_6*%
%TO.N,unconnected-(J3-Pad6)*%
X121585000Y-91615000D03*
%TO.P,J3,5,Pin_5*%
%TO.N,unconnected-(J3-Pad5)*%
X119045000Y-91615000D03*
%TO.P,J3,4,Pin_4*%
%TO.N,unconnected-(J3-Pad4)*%
X121585000Y-89075000D03*
%TO.P,J3,3,Pin_3*%
%TO.N,unconnected-(J3-Pad3)*%
X119045000Y-89075000D03*
%TO.P,J3,2,Pin_2*%
%TO.N,VSS*%
X121585000Y-86535000D03*
D23*
%TO.P,J3,1,Pin_1*%
%TO.N,VCC*%
X119045000Y-86535000D03*
%TD*%
D22*
%TO.P,J2,6,Pin_6*%
%TO.N,unconnected-(J2-Pad6)*%
X151925000Y-53125000D03*
%TO.P,J2,5,Pin_5*%
%TO.N,unconnected-(J2-Pad5)*%
X151925000Y-55665000D03*
%TO.P,J2,4,Pin_4*%
%TO.N,unconnected-(J2-Pad4)*%
X149385000Y-53125000D03*
%TO.P,J2,3,Pin_3*%
%TO.N,unconnected-(J2-Pad3)*%
X149385000Y-55665000D03*
%TO.P,J2,2,Pin_2*%
%TO.N,VSS*%
X146845000Y-53125000D03*
D23*
%TO.P,J2,1,Pin_1*%
%TO.N,VCC*%
X146845000Y-55665000D03*
%TD*%
D22*
%TO.P,J1,6,Pin_6*%
%TO.N,unconnected-(J1-Pad6)*%
X124765000Y-53125000D03*
%TO.P,J1,5,Pin_5*%
%TO.N,unconnected-(J1-Pad5)*%
X124765000Y-55665000D03*
%TO.P,J1,4,Pin_4*%
%TO.N,unconnected-(J1-Pad4)*%
X122225000Y-53125000D03*
%TO.P,J1,3,Pin_3*%
%TO.N,unconnected-(J1-Pad3)*%
X122225000Y-55665000D03*
%TO.P,J1,2,Pin_2*%
%TO.N,VSS*%
X119685000Y-53125000D03*
D23*
%TO.P,J1,1,Pin_1*%
%TO.N,VCC*%
X119685000Y-55665000D03*
%TD*%
D24*
%TO.P,D1,2,A*%
%TO.N,Net-(D1-Pad2)*%
X149205000Y-123330000D03*
%TO.P,D1,1,K*%
%TO.N,Net-(D1-Pad1)*%
X151080000Y-123330000D03*
%TD*%
D25*
%TO.P,C3,2*%
%TO.N,VSS*%
X149100000Y-69480000D03*
%TO.P,C3,1*%
%TO.N,VCC*%
X151000000Y-69480000D03*
%TD*%
%TO.P,C2,2*%
%TO.N,VSS*%
X149050000Y-83500000D03*
%TO.P,C2,1*%
%TO.N,Net-(C2-Pad1)*%
X150950000Y-83500000D03*
%TD*%
D26*
%TO.P,C1,2*%
%TO.N,VSS*%
X146040000Y-140270000D03*
%TO.P,C1,1*%
%TO.N,VDDA*%
X144140000Y-140270000D03*
%TD*%
D27*
%TO.N,VSS*%
X153600000Y-134000000D03*
X152600000Y-132000000D03*
X127500000Y-56000000D03*
X127500000Y-53000000D03*
X144500000Y-56000000D03*
X144500000Y-53000000D03*
%TO.N,VDDA*%
X150690000Y-141960000D03*
X148000000Y-142200000D03*
%TD*%
D28*
%TO.N,VSS*%
X151120000Y-130040000D02*
X151120000Y-130520000D01*
X151120000Y-130520000D02*
X152600000Y-132000000D01*
X153600000Y-134000000D02*
X153600000Y-135100000D01*
X153600000Y-135100000D02*
X153280000Y-135420000D01*
X153280000Y-135420000D02*
X153300000Y-135400000D01*
X151660000Y-135420000D02*
X153280000Y-135420000D01*
%TO.N,Net-(C2-Pad1)*%
X150950000Y-83500000D02*
X151950000Y-83500000D01*
X151950000Y-83500000D02*
X153510000Y-81940000D01*
X153510000Y-81940000D02*
X153510000Y-73180000D01*
X153510000Y-73180000D02*
X153310000Y-72980000D01*
X154230000Y-89545000D02*
X153075000Y-89545000D01*
X153075000Y-89545000D02*
X151000000Y-87470000D01*
X151000000Y-87470000D02*
X151000000Y-83550000D01*
X151000000Y-83550000D02*
X150950000Y-83500000D01*
%TO.N,Net-(D1-Pad2)*%
X149205000Y-123330000D02*
X149205000Y-126515000D01*
X149205000Y-126515000D02*
X149280000Y-126590000D01*
%TO.N,unconnected-(P1-PadA6)*%
X135120000Y-146380000D02*
X135500000Y-146000000D01*
X135120000Y-147422500D02*
X135120000Y-146380000D01*
X135500000Y-146000000D02*
X136120000Y-146620000D01*
X136120000Y-146620000D02*
X136120000Y-147422500D01*
%TO.N,unconnected-(P1-PadA7)*%
X136620000Y-148380000D02*
X136000000Y-149000000D01*
X136620000Y-147422500D02*
X136620000Y-148380000D01*
X136000000Y-149000000D02*
X135620000Y-148620000D01*
X135620000Y-148620000D02*
X135620000Y-147422500D01*
%TO.N,VBUS*%
X133595000Y-147422500D02*
X133345000Y-147422500D01*
X138145000Y-147422500D02*
X138395000Y-147422500D01*
%TO.N,VSS*%
X132795000Y-147422500D02*
X132250000Y-147422500D01*
X132250000Y-147422500D02*
X131550000Y-148122500D01*
X138945000Y-147422500D02*
X139195000Y-147422500D01*
X139195000Y-147422500D02*
X139490000Y-147422500D01*
X139490000Y-147422500D02*
X140190000Y-148122500D01*
%TO.N,VDDA*%
X144140000Y-141250000D02*
X144140000Y-140270000D01*
X148000000Y-142200000D02*
X145090000Y-142200000D01*
X145090000Y-142200000D02*
X144140000Y-141250000D01*
%TO.N,VCC*%
X124735000Y-144685000D02*
X124735000Y-145820000D01*
X119045000Y-86535000D02*
X118225000Y-86535000D01*
X118225000Y-86535000D02*
X117160000Y-87600000D01*
X117160000Y-87600000D02*
X117160000Y-136010000D01*
X117160000Y-136010000D02*
X124820000Y-143670000D01*
X124820000Y-143670000D02*
X124820000Y-144600000D01*
X124820000Y-144600000D02*
X124735000Y-144685000D01*
X119685000Y-55665000D02*
X119685000Y-85895000D01*
X119685000Y-85895000D02*
X119045000Y-86535000D01*
X146845000Y-55665000D02*
X145669989Y-54489989D01*
X145669989Y-54489989D02*
X120860011Y-54489989D01*
X120860011Y-54489989D02*
X119685000Y-55665000D01*
X146845000Y-58885000D02*
X146845000Y-55665000D01*
X151000000Y-69480000D02*
X151000000Y-63040000D01*
X151000000Y-63040000D02*
X146845000Y-58885000D01*
X151010000Y-72980000D02*
X151010000Y-69490000D01*
X151010000Y-69490000D02*
X151000000Y-69480000D01*
X151010000Y-79280000D02*
X151010000Y-72980000D01*
%TO.N,VDDA*%
X154230000Y-91045000D02*
X135770000Y-109505000D01*
X135770000Y-109505000D02*
X135770000Y-138310000D01*
%TO.N,VBUS*%
X135587500Y-144480000D02*
X138700000Y-144480000D01*
X138700000Y-144480000D02*
X147230000Y-144480000D01*
X138395000Y-147422500D02*
X138395000Y-144785000D01*
X138395000Y-144785000D02*
X138700000Y-144480000D01*
%TO.N,VDDA*%
X144140000Y-140270000D02*
X142180000Y-138310000D01*
X142180000Y-138310000D02*
X135770000Y-138310000D01*
X151065000Y-141585000D02*
X150690000Y-141960000D01*
X151065000Y-140230000D02*
X151065000Y-141585000D01*
X151660000Y-136370000D02*
X151660000Y-139635000D01*
X151660000Y-139635000D02*
X151065000Y-140230000D01*
%TO.N,Net-(D1-Pad1)*%
X151660000Y-134470000D02*
X153650000Y-132480000D01*
X153650000Y-132480000D02*
X153650000Y-124540000D01*
X153650000Y-124540000D02*
X152440000Y-123330000D01*
X152440000Y-123330000D02*
X151080000Y-123330000D01*
%TO.N,Net-(R3-Pad2)*%
X149460000Y-134470000D02*
X149460000Y-130205000D01*
X149460000Y-130205000D02*
X149295000Y-130040000D01*
%TO.N,VBUS*%
X149460000Y-136370000D02*
X150315011Y-135514989D01*
X150315011Y-135514989D02*
X150315011Y-130760713D01*
X150315011Y-130760713D02*
X150282480Y-130728182D01*
X150282480Y-130728182D02*
X150282480Y-127412520D01*
X150282480Y-127412520D02*
X151105000Y-126590000D01*
X149240000Y-140230000D02*
X149240000Y-136150000D01*
X149240000Y-142470000D02*
X149240000Y-140230000D01*
X133595000Y-147422500D02*
X133595000Y-146472500D01*
X133595000Y-146472500D02*
X135587500Y-144480000D01*
X147230000Y-144480000D02*
X149240000Y-142470000D01*
%TD*%
%TA.AperFunction,Conductor*%
%TO.N,VSS*%
G36*
X145423516Y-55143491D02*
G01*
X145444490Y-55160394D01*
X145444595Y-55160499D01*
X145478621Y-55222811D01*
X145481500Y-55249594D01*
X145481500Y-56515000D01*
X145486727Y-56588079D01*
X145527904Y-56728316D01*
X145532775Y-56735895D01*
X145602051Y-56843691D01*
X145602053Y-56843694D01*
X145606923Y-56851271D01*
X145613733Y-56857172D01*
X145710569Y-56941082D01*
X145710572Y-56941084D01*
X145717381Y-56946984D01*
X145725579Y-56950728D01*
X145837998Y-57002068D01*
X145850330Y-57007700D01*
X145859245Y-57008982D01*
X145859246Y-57008982D01*
X145990552Y-57027861D01*
X145990559Y-57027862D01*
X145995000Y-57028500D01*
X146085500Y-57028500D01*
X146153621Y-57048502D01*
X146200114Y-57102158D01*
X146211500Y-57154500D01*
X146211500Y-58806616D01*
X146210986Y-58817520D01*
X146209334Y-58824911D01*
X146209583Y-58832837D01*
X146209583Y-58832838D01*
X146211438Y-58891866D01*
X146211500Y-58895823D01*
X146211500Y-58924578D01*
X146211996Y-58928503D01*
X146211996Y-58928504D01*
X146212039Y-58928843D01*
X146212972Y-58940687D01*
X146214361Y-58984883D01*
X146216573Y-58992495D01*
X146220012Y-59004333D01*
X146224022Y-59023695D01*
X146226560Y-59043788D01*
X146229476Y-59051153D01*
X146229477Y-59051157D01*
X146242837Y-59084901D01*
X146246681Y-59096128D01*
X146259014Y-59138578D01*
X146263052Y-59145406D01*
X146269323Y-59156011D01*
X146278019Y-59173762D01*
X146282558Y-59185226D01*
X146285478Y-59192600D01*
X146290139Y-59199015D01*
X146311465Y-59228367D01*
X146317983Y-59238290D01*
X146340486Y-59276341D01*
X146340855Y-59276759D01*
X146354938Y-59290842D01*
X146367772Y-59305867D01*
X146379554Y-59322083D01*
X146413335Y-59350029D01*
X146422115Y-59358019D01*
X150329595Y-63265500D01*
X150363621Y-63327812D01*
X150366500Y-63354595D01*
X150366500Y-68281554D01*
X150346498Y-68349675D01*
X150309586Y-68386925D01*
X150260253Y-68419269D01*
X150255222Y-68424580D01*
X150255217Y-68424584D01*
X150140450Y-68545736D01*
X150079081Y-68581435D01*
X150008154Y-68578288D01*
X149950189Y-68537294D01*
X149943606Y-68528171D01*
X149939359Y-68521693D01*
X149930035Y-68510542D01*
X149812371Y-68399078D01*
X149800724Y-68390365D01*
X149660571Y-68308957D01*
X149647246Y-68303163D01*
X149491300Y-68255932D01*
X149478677Y-68253484D01*
X149408816Y-68247249D01*
X149403221Y-68247000D01*
X149372115Y-68247000D01*
X149356876Y-68251475D01*
X149355671Y-68252865D01*
X149354000Y-68260548D01*
X149354000Y-70694885D01*
X149358475Y-70710124D01*
X149359865Y-70711329D01*
X149367548Y-70713000D01*
X149389223Y-70713000D01*
X149396524Y-70712576D01*
X149518255Y-70698383D01*
X149532410Y-70695037D01*
X149684761Y-70639737D01*
X149697760Y-70633227D01*
X149833306Y-70544359D01*
X149844458Y-70535035D01*
X149958919Y-70414207D01*
X150020288Y-70378509D01*
X150091215Y-70381656D01*
X150149181Y-70422650D01*
X150155763Y-70431774D01*
X150160046Y-70438306D01*
X150164269Y-70444747D01*
X150292645Y-70566358D01*
X150298974Y-70570034D01*
X150298979Y-70570038D01*
X150313787Y-70578639D01*
X150362645Y-70630150D01*
X150376500Y-70687592D01*
X150376500Y-71340858D01*
X150356498Y-71408979D01*
X150302842Y-71455472D01*
X150259490Y-71466536D01*
X150186921Y-71471727D01*
X150133884Y-71487300D01*
X150055330Y-71510365D01*
X150055328Y-71510366D01*
X150046684Y-71512904D01*
X149924880Y-71591183D01*
X149856761Y-71611185D01*
X149788640Y-71591183D01*
X149774248Y-71580410D01*
X149744160Y-71554338D01*
X149729152Y-71544693D01*
X149612725Y-71491523D01*
X149595612Y-71486498D01*
X149464446Y-71467639D01*
X149455505Y-71467000D01*
X148982115Y-71467000D01*
X148966876Y-71471475D01*
X148965671Y-71472865D01*
X148964000Y-71480548D01*
X148964000Y-74474885D01*
X148968475Y-74490124D01*
X148969865Y-74491329D01*
X148977548Y-74493000D01*
X149457743Y-74493000D01*
X149462250Y-74492839D01*
X149526269Y-74488260D01*
X149539491Y-74485874D01*
X149664458Y-74449181D01*
X149680692Y-74441767D01*
X149794297Y-74368758D01*
X149862417Y-74348756D01*
X149930538Y-74368758D01*
X149944927Y-74379530D01*
X149982381Y-74411984D01*
X149990579Y-74415728D01*
X150098299Y-74464922D01*
X150115330Y-74472700D01*
X150124245Y-74473982D01*
X150124246Y-74473982D01*
X150130527Y-74474885D01*
X150260000Y-74493500D01*
X150260449Y-74493500D01*
X150326009Y-74517953D01*
X150368556Y-74574789D01*
X150376500Y-74618821D01*
X150376500Y-77640500D01*
X150356498Y-77708621D01*
X150302842Y-77755114D01*
X150250500Y-77766500D01*
X149110000Y-77766500D01*
X149036921Y-77771727D01*
X148958835Y-77794655D01*
X148905330Y-77810365D01*
X148905328Y-77810366D01*
X148896684Y-77812904D01*
X148889105Y-77817775D01*
X148781309Y-77887051D01*
X148781306Y-77887053D01*
X148773729Y-77891923D01*
X148767828Y-77898733D01*
X148683918Y-77995569D01*
X148683916Y-77995572D01*
X148678016Y-78002381D01*
X148617300Y-78135330D01*
X148616018Y-78144245D01*
X148616018Y-78144246D01*
X148597139Y-78275552D01*
X148597138Y-78275559D01*
X148596500Y-78280000D01*
X148596500Y-80280000D01*
X148601727Y-80353079D01*
X148642904Y-80493316D01*
X148647775Y-80500895D01*
X148717051Y-80608691D01*
X148717053Y-80608694D01*
X148721923Y-80616271D01*
X148728733Y-80622172D01*
X148825569Y-80706082D01*
X148825572Y-80706084D01*
X148832381Y-80711984D01*
X148965330Y-80772700D01*
X148974245Y-80773982D01*
X148974246Y-80773982D01*
X149105552Y-80792861D01*
X149105559Y-80792862D01*
X149110000Y-80793500D01*
X152750500Y-80793500D01*
X152818621Y-80813502D01*
X152865114Y-80867158D01*
X152876500Y-80919500D01*
X152876500Y-81625406D01*
X152856498Y-81693527D01*
X152839595Y-81714501D01*
X151987577Y-82566519D01*
X151925265Y-82600545D01*
X151854450Y-82595480D01*
X151797614Y-82552933D01*
X151793107Y-82546504D01*
X151789743Y-82541372D01*
X151789742Y-82541371D01*
X151785731Y-82535253D01*
X151657355Y-82413642D01*
X151504445Y-82324825D01*
X151335204Y-82273567D01*
X151328764Y-82272992D01*
X151328763Y-82272992D01*
X151258815Y-82266749D01*
X151258809Y-82266749D01*
X151256022Y-82266500D01*
X150657114Y-82266500D01*
X150561894Y-82277602D01*
X150531629Y-82281130D01*
X150531628Y-82281130D01*
X150524357Y-82281978D01*
X150517479Y-82284474D01*
X150517477Y-82284475D01*
X150406315Y-82324825D01*
X150358136Y-82342313D01*
X150298070Y-82381694D01*
X150230193Y-82426196D01*
X150210253Y-82439269D01*
X150205222Y-82444580D01*
X150205217Y-82444584D01*
X150090450Y-82565736D01*
X150029081Y-82601435D01*
X149958154Y-82598288D01*
X149900189Y-82557294D01*
X149893606Y-82548171D01*
X149889359Y-82541693D01*
X149880035Y-82530542D01*
X149762371Y-82419078D01*
X149750724Y-82410365D01*
X149610571Y-82328957D01*
X149597246Y-82323163D01*
X149441300Y-82275932D01*
X149428677Y-82273484D01*
X149358816Y-82267249D01*
X149353221Y-82267000D01*
X149322115Y-82267000D01*
X149306876Y-82271475D01*
X149305671Y-82272865D01*
X149304000Y-82280548D01*
X149304000Y-84714885D01*
X149308475Y-84730124D01*
X149309865Y-84731329D01*
X149317548Y-84733000D01*
X149339223Y-84733000D01*
X149346524Y-84732576D01*
X149468255Y-84718383D01*
X149482410Y-84715037D01*
X149634761Y-84659737D01*
X149647760Y-84653227D01*
X149783306Y-84564359D01*
X149794458Y-84555035D01*
X149908919Y-84434207D01*
X149970288Y-84398509D01*
X150041215Y-84401656D01*
X150099181Y-84442650D01*
X150105763Y-84451774D01*
X150110046Y-84458306D01*
X150114269Y-84464747D01*
X150242645Y-84586358D01*
X150248972Y-84590033D01*
X150248976Y-84590036D01*
X150303786Y-84621872D01*
X150352644Y-84673384D01*
X150366500Y-84730826D01*
X150366500Y-87391616D01*
X150365986Y-87402520D01*
X150364334Y-87409911D01*
X150364583Y-87417837D01*
X150364583Y-87417838D01*
X150366438Y-87476866D01*
X150366500Y-87480823D01*
X150366500Y-87509578D01*
X150366996Y-87513503D01*
X150366996Y-87513504D01*
X150367039Y-87513843D01*
X150367972Y-87525687D01*
X150369361Y-87569883D01*
X150371573Y-87577495D01*
X150375012Y-87589333D01*
X150379022Y-87608695D01*
X150381560Y-87628788D01*
X150384476Y-87636153D01*
X150384477Y-87636157D01*
X150397837Y-87669901D01*
X150401681Y-87681128D01*
X150414014Y-87723578D01*
X150418052Y-87730406D01*
X150424323Y-87741011D01*
X150433019Y-87758762D01*
X150437558Y-87770226D01*
X150440478Y-87777600D01*
X150445139Y-87784015D01*
X150466465Y-87813367D01*
X150472983Y-87823290D01*
X150495486Y-87861341D01*
X150495855Y-87861759D01*
X150509938Y-87875842D01*
X150522772Y-87890867D01*
X150534554Y-87907083D01*
X150568335Y-87935029D01*
X150577115Y-87943019D01*
X152571609Y-89937513D01*
X152578969Y-89945601D01*
X152583027Y-89951995D01*
X152588804Y-89957420D01*
X152631878Y-89997869D01*
X152634720Y-90000624D01*
X152655034Y-90020938D01*
X152658445Y-90023583D01*
X152667465Y-90031287D01*
X152699699Y-90061557D01*
X152706643Y-90065374D01*
X152706645Y-90065376D01*
X152717453Y-90071318D01*
X152733977Y-90082172D01*
X152749977Y-90094583D01*
X152757248Y-90097730D01*
X152757249Y-90097730D01*
X152790551Y-90112141D01*
X152801207Y-90117362D01*
X152839952Y-90138662D01*
X152847635Y-90140634D01*
X152847636Y-90140635D01*
X152859568Y-90143699D01*
X152878272Y-90150103D01*
X152889585Y-90154999D01*
X152889592Y-90155001D01*
X152896864Y-90158148D01*
X152904688Y-90159387D01*
X152904691Y-90159388D01*
X152940535Y-90165065D01*
X152952156Y-90167472D01*
X152989218Y-90176987D01*
X152994975Y-90178465D01*
X152995531Y-90178500D01*
X153015452Y-90178500D01*
X153035162Y-90180051D01*
X153054944Y-90183184D01*
X153054554Y-90185649D01*
X153110310Y-90203940D01*
X153155097Y-90259028D01*
X153162990Y-90329584D01*
X153153511Y-90360090D01*
X153135835Y-90398796D01*
X153112300Y-90450330D01*
X153111018Y-90459245D01*
X153111018Y-90459246D01*
X153092139Y-90590552D01*
X153092138Y-90590559D01*
X153091500Y-90595000D01*
X153091500Y-91235406D01*
X153071498Y-91303527D01*
X153054595Y-91324501D01*
X135377487Y-109001609D01*
X135369399Y-109008969D01*
X135363005Y-109013027D01*
X135357580Y-109018804D01*
X135317131Y-109061878D01*
X135314376Y-109064720D01*
X135294062Y-109085034D01*
X135291417Y-109088445D01*
X135283713Y-109097465D01*
X135253443Y-109129699D01*
X135249626Y-109136643D01*
X135249624Y-109136645D01*
X135243682Y-109147453D01*
X135232828Y-109163977D01*
X135220417Y-109179977D01*
X135217270Y-109187248D01*
X135217270Y-109187249D01*
X135202859Y-109220551D01*
X135197638Y-109231207D01*
X135176338Y-109269952D01*
X135174366Y-109277635D01*
X135174365Y-109277636D01*
X135171301Y-109289568D01*
X135164897Y-109308272D01*
X135160001Y-109319585D01*
X135159999Y-109319592D01*
X135156852Y-109326864D01*
X135155613Y-109334688D01*
X135155612Y-109334691D01*
X135149935Y-109370535D01*
X135147528Y-109382156D01*
X135138013Y-109419218D01*
X135136535Y-109424975D01*
X135136500Y-109425531D01*
X135136500Y-109445452D01*
X135134949Y-109465162D01*
X135131816Y-109484944D01*
X135132562Y-109492836D01*
X135135941Y-109528582D01*
X135136500Y-109540440D01*
X135136500Y-134000500D01*
X135116498Y-134068621D01*
X135062842Y-134115114D01*
X135010500Y-134126500D01*
X132595000Y-134126500D01*
X132521921Y-134131727D01*
X132468884Y-134147300D01*
X132390330Y-134170365D01*
X132390328Y-134170366D01*
X132381684Y-134172904D01*
X132374105Y-134177775D01*
X132266309Y-134247051D01*
X132266306Y-134247053D01*
X132258729Y-134251923D01*
X132252828Y-134258733D01*
X132168918Y-134355569D01*
X132168916Y-134355572D01*
X132163016Y-134362381D01*
X132102300Y-134495330D01*
X132101018Y-134504245D01*
X132101018Y-134504246D01*
X132082139Y-134635552D01*
X132082138Y-134635559D01*
X132081500Y-134640000D01*
X132081500Y-141980000D01*
X132086727Y-142053079D01*
X132088631Y-142059562D01*
X132118800Y-142162309D01*
X132127904Y-142193316D01*
X132132775Y-142200895D01*
X132202051Y-142308691D01*
X132202053Y-142308694D01*
X132206923Y-142316271D01*
X132213733Y-142322172D01*
X132310569Y-142406082D01*
X132310572Y-142406084D01*
X132317381Y-142411984D01*
X132325579Y-142415728D01*
X132424698Y-142460994D01*
X132450330Y-142472700D01*
X132459245Y-142473982D01*
X132459246Y-142473982D01*
X132590552Y-142492861D01*
X132590559Y-142492862D01*
X132595000Y-142493500D01*
X138945000Y-142493500D01*
X139018079Y-142488273D01*
X139096165Y-142465345D01*
X139149670Y-142449635D01*
X139149672Y-142449634D01*
X139158316Y-142447096D01*
X139222135Y-142406082D01*
X139273691Y-142372949D01*
X139273694Y-142372947D01*
X139281271Y-142368077D01*
X139312663Y-142331849D01*
X139371082Y-142264431D01*
X139371084Y-142264428D01*
X139376984Y-142257619D01*
X139437700Y-142124670D01*
X139452358Y-142022722D01*
X139457861Y-141984448D01*
X139457862Y-141984441D01*
X139458500Y-141980000D01*
X139458500Y-139069500D01*
X139478502Y-139001379D01*
X139532158Y-138954886D01*
X139584500Y-138943500D01*
X141865406Y-138943500D01*
X141933527Y-138963502D01*
X141954501Y-138980405D01*
X143094595Y-140120499D01*
X143128621Y-140182811D01*
X143131500Y-140209594D01*
X143131500Y-140787886D01*
X143146978Y-140920643D01*
X143149474Y-140927521D01*
X143149475Y-140927523D01*
X143193731Y-141049445D01*
X143207313Y-141086864D01*
X143257642Y-141163628D01*
X143286321Y-141207371D01*
X143304269Y-141234747D01*
X143432645Y-141356358D01*
X143438974Y-141360034D01*
X143438979Y-141360038D01*
X143483376Y-141385826D01*
X143532234Y-141437337D01*
X143537237Y-141448387D01*
X143537833Y-141449892D01*
X143541681Y-141461128D01*
X143554014Y-141503578D01*
X143558052Y-141510406D01*
X143564323Y-141521011D01*
X143573019Y-141538762D01*
X143577558Y-141550226D01*
X143580478Y-141557600D01*
X143606465Y-141593367D01*
X143612983Y-141603290D01*
X143635486Y-141641341D01*
X143635855Y-141641759D01*
X143649938Y-141655842D01*
X143662772Y-141670867D01*
X143674554Y-141687083D01*
X143699650Y-141707844D01*
X143708335Y-141715029D01*
X143717115Y-141723019D01*
X144586609Y-142592513D01*
X144593969Y-142600601D01*
X144598027Y-142606995D01*
X144603804Y-142612420D01*
X144646878Y-142652869D01*
X144649720Y-142655624D01*
X144670034Y-142675938D01*
X144673445Y-142678583D01*
X144682465Y-142686287D01*
X144714699Y-142716557D01*
X144721643Y-142720374D01*
X144721645Y-142720376D01*
X144732453Y-142726318D01*
X144748977Y-142737172D01*
X144764977Y-142749583D01*
X144772248Y-142752730D01*
X144772249Y-142752730D01*
X144805551Y-142767141D01*
X144816207Y-142772362D01*
X144854952Y-142793662D01*
X144862635Y-142795634D01*
X144862636Y-142795635D01*
X144874568Y-142798699D01*
X144893272Y-142805103D01*
X144904585Y-142809999D01*
X144904592Y-142810001D01*
X144911864Y-142813148D01*
X144919688Y-142814387D01*
X144919691Y-142814388D01*
X144955535Y-142820065D01*
X144967156Y-142822472D01*
X145004218Y-142831987D01*
X145009975Y-142833465D01*
X145010531Y-142833500D01*
X145030452Y-142833500D01*
X145050162Y-142835051D01*
X145062114Y-142836944D01*
X145062115Y-142836944D01*
X145069944Y-142838184D01*
X145077836Y-142837438D01*
X145113582Y-142834059D01*
X145125440Y-142833500D01*
X147454113Y-142833500D01*
X147523106Y-142854068D01*
X147633211Y-142926119D01*
X147639816Y-142928575D01*
X147646104Y-142931752D01*
X147644877Y-142934180D01*
X147691832Y-142969258D01*
X147716709Y-143035754D01*
X147701686Y-143105143D01*
X147680134Y-143133962D01*
X147004501Y-143809595D01*
X146942189Y-143843621D01*
X146915406Y-143846500D01*
X138778383Y-143846500D01*
X138767479Y-143845986D01*
X138760088Y-143844334D01*
X138752162Y-143844583D01*
X138752161Y-143844583D01*
X138693134Y-143846438D01*
X138689176Y-143846500D01*
X135665901Y-143846500D01*
X135654981Y-143845985D01*
X135647589Y-143844333D01*
X135639666Y-143844582D01*
X135580616Y-143846438D01*
X135576658Y-143846500D01*
X135547922Y-143846500D01*
X135543651Y-143847039D01*
X135531822Y-143847971D01*
X135487617Y-143849361D01*
X135480001Y-143851574D01*
X135479999Y-143851574D01*
X135468161Y-143855013D01*
X135448802Y-143859022D01*
X135436579Y-143860566D01*
X135436578Y-143860566D01*
X135428712Y-143861560D01*
X135421336Y-143864480D01*
X135421337Y-143864480D01*
X135387611Y-143877832D01*
X135376382Y-143881677D01*
X135341535Y-143891801D01*
X135341534Y-143891802D01*
X135333922Y-143894013D01*
X135327099Y-143898048D01*
X135316483Y-143904326D01*
X135298731Y-143913022D01*
X135279900Y-143920478D01*
X135257481Y-143936766D01*
X135244129Y-143946467D01*
X135234211Y-143952982D01*
X135196159Y-143975486D01*
X135195741Y-143975854D01*
X135181658Y-143989937D01*
X135166625Y-144002778D01*
X135150417Y-144014554D01*
X135145365Y-144020661D01*
X135122475Y-144048331D01*
X135114484Y-144057112D01*
X133202487Y-145969109D01*
X133194399Y-145976469D01*
X133188005Y-145980527D01*
X133182580Y-145986304D01*
X133142131Y-146029378D01*
X133139376Y-146032220D01*
X133119062Y-146052534D01*
X133116417Y-146055945D01*
X133108713Y-146064965D01*
X133078443Y-146097199D01*
X133074626Y-146104143D01*
X133074624Y-146104145D01*
X133068682Y-146114953D01*
X133057828Y-146131477D01*
X133045417Y-146147477D01*
X133044180Y-146150335D01*
X132993852Y-146197328D01*
X132928307Y-146210415D01*
X132915507Y-146209500D01*
X132422257Y-146209500D01*
X132417750Y-146209661D01*
X132353731Y-146214240D01*
X132340509Y-146216626D01*
X132215542Y-146253319D01*
X132199308Y-146260733D01*
X132091640Y-146329926D01*
X132078153Y-146341612D01*
X131994338Y-146438340D01*
X131984693Y-146453348D01*
X131950754Y-146527665D01*
X131904261Y-146581321D01*
X131834302Y-146601310D01*
X131807205Y-146600915D01*
X131804000Y-146607670D01*
X131804000Y-149630552D01*
X131807973Y-149644083D01*
X131815768Y-149645203D01*
X131923557Y-149613479D01*
X131934941Y-149608880D01*
X132099222Y-149522996D01*
X132109483Y-149516282D01*
X132253959Y-149400120D01*
X132262724Y-149391537D01*
X132320435Y-149322760D01*
X132379544Y-149283433D01*
X132450532Y-149282307D01*
X132495379Y-149306180D01*
X132495461Y-149306060D01*
X132496538Y-149306797D01*
X132498955Y-149308084D01*
X132506275Y-149314358D01*
X132512290Y-149317583D01*
X132512294Y-149317586D01*
X132659877Y-149396719D01*
X132665892Y-149399944D01*
X132744709Y-149422247D01*
X132833596Y-149447400D01*
X132833601Y-149447401D01*
X132840164Y-149449258D01*
X132846973Y-149449663D01*
X132846976Y-149449663D01*
X132983982Y-149457802D01*
X133020961Y-149459999D01*
X133100507Y-149447400D01*
X133193112Y-149432733D01*
X133193116Y-149432732D01*
X133199846Y-149431666D01*
X133206192Y-149429179D01*
X133206196Y-149429178D01*
X133362119Y-149368073D01*
X133362123Y-149368071D01*
X133368474Y-149365582D01*
X133518977Y-149264828D01*
X133523705Y-149259898D01*
X133639608Y-149139037D01*
X133639611Y-149139033D01*
X133644335Y-149134107D01*
X133738697Y-148979516D01*
X133744258Y-148963367D01*
X133795440Y-148814725D01*
X133795441Y-148814722D01*
X133797663Y-148808268D01*
X133798448Y-148801486D01*
X133805611Y-148739579D01*
X133833311Y-148674209D01*
X133891955Y-148634192D01*
X133948708Y-148629345D01*
X133990541Y-148635360D01*
X133990556Y-148635361D01*
X133995000Y-148636000D01*
X134245000Y-148636000D01*
X134318079Y-148630773D01*
X134337985Y-148624928D01*
X134391412Y-148621107D01*
X134490552Y-148635361D01*
X134490559Y-148635362D01*
X134495000Y-148636000D01*
X134745000Y-148636000D01*
X134818079Y-148630773D01*
X134831702Y-148626773D01*
X134902697Y-148626774D01*
X134962423Y-148665159D01*
X134988064Y-148720260D01*
X134989361Y-148719883D01*
X134995012Y-148739333D01*
X134999022Y-148758695D01*
X135001560Y-148778788D01*
X135004476Y-148786153D01*
X135004477Y-148786157D01*
X135017837Y-148819901D01*
X135021681Y-148831128D01*
X135034014Y-148873578D01*
X135038052Y-148880406D01*
X135044323Y-148891011D01*
X135053019Y-148908762D01*
X135057558Y-148920226D01*
X135060478Y-148927600D01*
X135065139Y-148934015D01*
X135086465Y-148963367D01*
X135092983Y-148973290D01*
X135115486Y-149011341D01*
X135115855Y-149011759D01*
X135129938Y-149025842D01*
X135142772Y-149040867D01*
X135154554Y-149057083D01*
X135178579Y-149076958D01*
X135188335Y-149085029D01*
X135197115Y-149093019D01*
X135501410Y-149397314D01*
X135516525Y-149415582D01*
X135521054Y-149422247D01*
X135562784Y-149459037D01*
X135568538Y-149464442D01*
X135580034Y-149475938D01*
X135592900Y-149485918D01*
X135598976Y-149490945D01*
X135641110Y-149528091D01*
X135648177Y-149531692D01*
X135648180Y-149531694D01*
X135648458Y-149531836D01*
X135668468Y-149544534D01*
X135674977Y-149549583D01*
X135720862Y-149569439D01*
X135726514Y-149571885D01*
X135733676Y-149575255D01*
X135776654Y-149597154D01*
X135776656Y-149597155D01*
X135783716Y-149600752D01*
X135791450Y-149602481D01*
X135791453Y-149602482D01*
X135791745Y-149602547D01*
X135814297Y-149609874D01*
X135814593Y-149610002D01*
X135814596Y-149610003D01*
X135821864Y-149613148D01*
X135829685Y-149614387D01*
X135829686Y-149614387D01*
X135877336Y-149621934D01*
X135885110Y-149623417D01*
X135907144Y-149628342D01*
X135939911Y-149635666D01*
X135948144Y-149635407D01*
X135971816Y-149636897D01*
X135972112Y-149636944D01*
X135972115Y-149636944D01*
X135979944Y-149638184D01*
X135987837Y-149637438D01*
X136035842Y-149632901D01*
X136043739Y-149632404D01*
X136091961Y-149630888D01*
X136099883Y-149630639D01*
X136107791Y-149628341D01*
X136131095Y-149623896D01*
X136131395Y-149623868D01*
X136131399Y-149623867D01*
X136139284Y-149623122D01*
X136175728Y-149610002D01*
X136192123Y-149604100D01*
X136199647Y-149601656D01*
X136245962Y-149588199D01*
X136245964Y-149588198D01*
X136253578Y-149585986D01*
X136260663Y-149581796D01*
X136282123Y-149571698D01*
X136289873Y-149568908D01*
X136336349Y-149537323D01*
X136342980Y-149533114D01*
X136391341Y-149504514D01*
X136391759Y-149504145D01*
X136397314Y-149498590D01*
X136415584Y-149483474D01*
X136415690Y-149483402D01*
X136422247Y-149478946D01*
X136448064Y-149449663D01*
X136459014Y-149437242D01*
X136464433Y-149431471D01*
X137012528Y-148883377D01*
X137020606Y-148876028D01*
X137026995Y-148871973D01*
X137072855Y-148823137D01*
X137075609Y-148820296D01*
X137095938Y-148799967D01*
X137098590Y-148796547D01*
X137106297Y-148787524D01*
X137131130Y-148761080D01*
X137136557Y-148755301D01*
X137140374Y-148748357D01*
X137140378Y-148748352D01*
X137146316Y-148737550D01*
X137157172Y-148721023D01*
X137164722Y-148711289D01*
X137169583Y-148705023D01*
X137172733Y-148697743D01*
X137174060Y-148695500D01*
X137225953Y-148647047D01*
X137273524Y-148633960D01*
X137311341Y-148631255D01*
X137311342Y-148631255D01*
X137318079Y-148630773D01*
X137337985Y-148624928D01*
X137391412Y-148621107D01*
X137490552Y-148635361D01*
X137490559Y-148635362D01*
X137495000Y-148636000D01*
X137745000Y-148636000D01*
X137770278Y-148634192D01*
X137798507Y-148632173D01*
X137867881Y-148647264D01*
X137918083Y-148697466D01*
X137930650Y-148731225D01*
X137949908Y-148820296D01*
X137964367Y-148887172D01*
X138039762Y-149051848D01*
X138148760Y-149196493D01*
X138153939Y-149200932D01*
X138153940Y-149200933D01*
X138276734Y-149306180D01*
X138286275Y-149314358D01*
X138292290Y-149317583D01*
X138292294Y-149317586D01*
X138439877Y-149396719D01*
X138445892Y-149399944D01*
X138524709Y-149422247D01*
X138613596Y-149447400D01*
X138613601Y-149447401D01*
X138620164Y-149449258D01*
X138626973Y-149449663D01*
X138626976Y-149449663D01*
X138763982Y-149457802D01*
X138800961Y-149459999D01*
X138880507Y-149447400D01*
X138973112Y-149432733D01*
X138973116Y-149432732D01*
X138979846Y-149431666D01*
X138986192Y-149429179D01*
X138986196Y-149429178D01*
X139142119Y-149368073D01*
X139142123Y-149368071D01*
X139148474Y-149365582D01*
X139251027Y-149296928D01*
X139318761Y-149275654D01*
X139387245Y-149294377D01*
X139418763Y-149321996D01*
X139467304Y-149381513D01*
X139475954Y-149390223D01*
X139618788Y-149508386D01*
X139628959Y-149515246D01*
X139792031Y-149603418D01*
X139803330Y-149608168D01*
X139918693Y-149643880D01*
X139932795Y-149644086D01*
X139936000Y-149637330D01*
X139936000Y-148390048D01*
X140444000Y-148390048D01*
X140444000Y-149630552D01*
X140447973Y-149644083D01*
X140455768Y-149645203D01*
X140563557Y-149613479D01*
X140574941Y-149608880D01*
X140739222Y-149522996D01*
X140749483Y-149516282D01*
X140893959Y-149400120D01*
X140902719Y-149391542D01*
X141021881Y-149249530D01*
X141028807Y-149239416D01*
X141118118Y-149076958D01*
X141122946Y-149065694D01*
X141179002Y-148888984D01*
X141181550Y-148876997D01*
X141197607Y-148733839D01*
X141198000Y-148726815D01*
X141198000Y-148394615D01*
X141193525Y-148379376D01*
X141192135Y-148378171D01*
X141184452Y-148376500D01*
X140462115Y-148376500D01*
X140446876Y-148380975D01*
X140445671Y-148382365D01*
X140444000Y-148390048D01*
X139936000Y-148390048D01*
X139936000Y-146614448D01*
X139934010Y-146607670D01*
X140444000Y-146607670D01*
X140444000Y-147850385D01*
X140448475Y-147865624D01*
X140449865Y-147866829D01*
X140457548Y-147868500D01*
X141179885Y-147868500D01*
X141195124Y-147864025D01*
X141196329Y-147862635D01*
X141198000Y-147854952D01*
X141198000Y-147524588D01*
X141197699Y-147518440D01*
X141184309Y-147381874D01*
X141181926Y-147369839D01*
X141128346Y-147192376D01*
X141123671Y-147181034D01*
X141036643Y-147017356D01*
X141029856Y-147007140D01*
X140912690Y-146863481D01*
X140904046Y-146854777D01*
X140761212Y-146736614D01*
X140751041Y-146729754D01*
X140587969Y-146641582D01*
X140576670Y-146636832D01*
X140461307Y-146601120D01*
X140447205Y-146600914D01*
X140444000Y-146607670D01*
X139934010Y-146607670D01*
X139932027Y-146600917D01*
X139900136Y-146596332D01*
X139900385Y-146594602D01*
X139863551Y-146591981D01*
X139806700Y-146549454D01*
X139794978Y-146525298D01*
X139792923Y-146526236D01*
X139781767Y-146501808D01*
X139712574Y-146394140D01*
X139700888Y-146380653D01*
X139604160Y-146296838D01*
X139589152Y-146287193D01*
X139472725Y-146234023D01*
X139455612Y-146228998D01*
X139324446Y-146210139D01*
X139315505Y-146209500D01*
X139154500Y-146209500D01*
X139086379Y-146189498D01*
X139039886Y-146135842D01*
X139028500Y-146083500D01*
X139028500Y-145239500D01*
X139048502Y-145171379D01*
X139102158Y-145124886D01*
X139154500Y-145113500D01*
X147151616Y-145113500D01*
X147162520Y-145114014D01*
X147169911Y-145115666D01*
X147177837Y-145115417D01*
X147177838Y-145115417D01*
X147236866Y-145113562D01*
X147240823Y-145113500D01*
X147269578Y-145113500D01*
X147273845Y-145112961D01*
X147285687Y-145112028D01*
X147317335Y-145111033D01*
X147321960Y-145110888D01*
X147329883Y-145110639D01*
X147349334Y-145104988D01*
X147368695Y-145100978D01*
X147371420Y-145100634D01*
X147380930Y-145099433D01*
X147380933Y-145099432D01*
X147388788Y-145098440D01*
X147396153Y-145095524D01*
X147396157Y-145095523D01*
X147429901Y-145082163D01*
X147441130Y-145078318D01*
X147483578Y-145065986D01*
X147490406Y-145061948D01*
X147501011Y-145055677D01*
X147518762Y-145046981D01*
X147530226Y-145042442D01*
X147530229Y-145042440D01*
X147537600Y-145039522D01*
X147573368Y-145013535D01*
X147583291Y-145007016D01*
X147621341Y-144984514D01*
X147621759Y-144984145D01*
X147635842Y-144970062D01*
X147650867Y-144957228D01*
X147667083Y-144945446D01*
X147695030Y-144911664D01*
X147703019Y-144902885D01*
X149632513Y-142973391D01*
X149640601Y-142966031D01*
X149646995Y-142961973D01*
X149692870Y-142913121D01*
X149695624Y-142910280D01*
X149715938Y-142889966D01*
X149718583Y-142886555D01*
X149726289Y-142877533D01*
X149751133Y-142851077D01*
X149756557Y-142845301D01*
X149760880Y-142837438D01*
X149766318Y-142827547D01*
X149777172Y-142811023D01*
X149784725Y-142801286D01*
X149784725Y-142801285D01*
X149789583Y-142795023D01*
X149807142Y-142754447D01*
X149812363Y-142743790D01*
X149819343Y-142731093D01*
X149833662Y-142705048D01*
X149835668Y-142697234D01*
X149838699Y-142685432D01*
X149845103Y-142666728D01*
X149849999Y-142655415D01*
X149850001Y-142655408D01*
X149853148Y-142648136D01*
X149860065Y-142604465D01*
X149862472Y-142592845D01*
X149872524Y-142553691D01*
X149908837Y-142492684D01*
X149972368Y-142460994D01*
X150042947Y-142468682D01*
X150085203Y-142497496D01*
X150171456Y-142586813D01*
X150177348Y-142590668D01*
X150177352Y-142590672D01*
X150209311Y-142611585D01*
X150323211Y-142686119D01*
X150493197Y-142749336D01*
X150500178Y-142750267D01*
X150500180Y-142750268D01*
X150549766Y-142756884D01*
X150672963Y-142773322D01*
X150679974Y-142772684D01*
X150679978Y-142772684D01*
X150820059Y-142759934D01*
X150853577Y-142756884D01*
X150860279Y-142754706D01*
X150860281Y-142754706D01*
X151019361Y-142703018D01*
X151019364Y-142703017D01*
X151026060Y-142700841D01*
X151121910Y-142643703D01*
X151175789Y-142611585D01*
X151175791Y-142611584D01*
X151181841Y-142607977D01*
X151313177Y-142482908D01*
X151413540Y-142331849D01*
X151477942Y-142162309D01*
X151487503Y-142094281D01*
X151516792Y-142029607D01*
X151523182Y-142022722D01*
X151540938Y-142004966D01*
X151543583Y-142001555D01*
X151551289Y-141992533D01*
X151558882Y-141984448D01*
X151581557Y-141960301D01*
X151587967Y-141948642D01*
X151591318Y-141942547D01*
X151602172Y-141926023D01*
X151609725Y-141916286D01*
X151609725Y-141916285D01*
X151614583Y-141910023D01*
X151632142Y-141869447D01*
X151637363Y-141858790D01*
X151658662Y-141820048D01*
X151660635Y-141812364D01*
X151663699Y-141800432D01*
X151670103Y-141781728D01*
X151674999Y-141770415D01*
X151675001Y-141770408D01*
X151678148Y-141763136D01*
X151685065Y-141719465D01*
X151687472Y-141707844D01*
X151696987Y-141670782D01*
X151696987Y-141670781D01*
X151698465Y-141665025D01*
X151698500Y-141664469D01*
X151698500Y-141644548D01*
X151700051Y-141624838D01*
X151701944Y-141612886D01*
X151701944Y-141612885D01*
X151703184Y-141605056D01*
X151699059Y-141561417D01*
X151698500Y-141549560D01*
X151698500Y-141411642D01*
X151718502Y-141343521D01*
X151755415Y-141306270D01*
X151778159Y-141291358D01*
X151817247Y-141265731D01*
X151938858Y-141137355D01*
X152027675Y-140984445D01*
X152078933Y-140815204D01*
X152079508Y-140808763D01*
X152085751Y-140738815D01*
X152085751Y-140738809D01*
X152086000Y-140736022D01*
X152086000Y-140157094D01*
X152106002Y-140088973D01*
X152122905Y-140067999D01*
X152135938Y-140054966D01*
X152138583Y-140051555D01*
X152146289Y-140042533D01*
X152171133Y-140016077D01*
X152176557Y-140010301D01*
X152183383Y-139997885D01*
X152186318Y-139992547D01*
X152197172Y-139976023D01*
X152204725Y-139966286D01*
X152204725Y-139966285D01*
X152209583Y-139960023D01*
X152227142Y-139919447D01*
X152232363Y-139908790D01*
X152253662Y-139870048D01*
X152255635Y-139862364D01*
X152258699Y-139850432D01*
X152265103Y-139831728D01*
X152269999Y-139820415D01*
X152270001Y-139820408D01*
X152273148Y-139813136D01*
X152280065Y-139769465D01*
X152282472Y-139757844D01*
X152291987Y-139720782D01*
X152291987Y-139720781D01*
X152293465Y-139715025D01*
X152293500Y-139714469D01*
X152293500Y-139694548D01*
X152295051Y-139674838D01*
X152296944Y-139662886D01*
X152296944Y-139662885D01*
X152298184Y-139655056D01*
X152294059Y-139611417D01*
X152293500Y-139599560D01*
X152293500Y-137288663D01*
X152313502Y-137220542D01*
X152367158Y-137174049D01*
X152384002Y-137167767D01*
X152394670Y-137164635D01*
X152394672Y-137164634D01*
X152403316Y-137162096D01*
X152485510Y-137109273D01*
X152518691Y-137087949D01*
X152518694Y-137087947D01*
X152526271Y-137083077D01*
X152566051Y-137037169D01*
X152616082Y-136979431D01*
X152616084Y-136979428D01*
X152621984Y-136972619D01*
X152682700Y-136839670D01*
X152693962Y-136761340D01*
X152702861Y-136699448D01*
X152702862Y-136699441D01*
X152703500Y-136695000D01*
X152703500Y-136045000D01*
X152698273Y-135971921D01*
X152687267Y-135934438D01*
X152683445Y-135881008D01*
X152702361Y-135749446D01*
X152703000Y-135740505D01*
X152703000Y-135692115D01*
X152698525Y-135676876D01*
X152697135Y-135675671D01*
X152689452Y-135674000D01*
X152584994Y-135674000D01*
X152516873Y-135653998D01*
X152502482Y-135643225D01*
X152474430Y-135618918D01*
X152467619Y-135613016D01*
X152334670Y-135552300D01*
X152325755Y-135551018D01*
X152325754Y-135551018D01*
X152290601Y-135545964D01*
X152226020Y-135516471D01*
X152187636Y-135456745D01*
X152187636Y-135385748D01*
X152226019Y-135326022D01*
X152273034Y-135300350D01*
X152394670Y-135264635D01*
X152394672Y-135264634D01*
X152403316Y-135262096D01*
X152521719Y-135186002D01*
X152589841Y-135166000D01*
X152684885Y-135166000D01*
X152700124Y-135161525D01*
X152701329Y-135160135D01*
X152703000Y-135152452D01*
X152703000Y-135097257D01*
X152702839Y-135092750D01*
X152698260Y-135028731D01*
X152695875Y-135015512D01*
X152687433Y-134986762D01*
X152683611Y-134933331D01*
X152702861Y-134799445D01*
X152702861Y-134799444D01*
X152703500Y-134795000D01*
X152703500Y-134374594D01*
X152723502Y-134306473D01*
X152740405Y-134285499D01*
X154042513Y-132983391D01*
X154050601Y-132976031D01*
X154056995Y-132971973D01*
X154102870Y-132923121D01*
X154105624Y-132920280D01*
X154125938Y-132899966D01*
X154128583Y-132896555D01*
X154136289Y-132887533D01*
X154161133Y-132861077D01*
X154166557Y-132855301D01*
X154170376Y-132848355D01*
X154176318Y-132837547D01*
X154187172Y-132821023D01*
X154194725Y-132811286D01*
X154194725Y-132811285D01*
X154199583Y-132805023D01*
X154217142Y-132764447D01*
X154222363Y-132753790D01*
X154243662Y-132715048D01*
X154245635Y-132707364D01*
X154248699Y-132695432D01*
X154255103Y-132676728D01*
X154259999Y-132665415D01*
X154260001Y-132665408D01*
X154263148Y-132658136D01*
X154270065Y-132614465D01*
X154272472Y-132602844D01*
X154281987Y-132565782D01*
X154281987Y-132565781D01*
X154283465Y-132560025D01*
X154283500Y-132559469D01*
X154283500Y-132539548D01*
X154285051Y-132519838D01*
X154286944Y-132507886D01*
X154286944Y-132507885D01*
X154288184Y-132500056D01*
X154284059Y-132456417D01*
X154283500Y-132444560D01*
X154283500Y-124618383D01*
X154284014Y-124607479D01*
X154285666Y-124600088D01*
X154283562Y-124533134D01*
X154283500Y-124529176D01*
X154283500Y-124500422D01*
X154282961Y-124496155D01*
X154282027Y-124484305D01*
X154281981Y-124482815D01*
X154280639Y-124440117D01*
X154274988Y-124420666D01*
X154270978Y-124401304D01*
X154269433Y-124389073D01*
X154268440Y-124381212D01*
X154252166Y-124340108D01*
X154248321Y-124328878D01*
X154238198Y-124294034D01*
X154238197Y-124294032D01*
X154235986Y-124286421D01*
X154225677Y-124268989D01*
X154216980Y-124251236D01*
X154212442Y-124239775D01*
X154209522Y-124232400D01*
X154183531Y-124196626D01*
X154177016Y-124186707D01*
X154157529Y-124153758D01*
X154157527Y-124153755D01*
X154154513Y-124148659D01*
X154154145Y-124148241D01*
X154140062Y-124134158D01*
X154127228Y-124119133D01*
X154115446Y-124102917D01*
X154081664Y-124074970D01*
X154072885Y-124066981D01*
X152943391Y-122937487D01*
X152936031Y-122929399D01*
X152931973Y-122923005D01*
X152883121Y-122877130D01*
X152880280Y-122874376D01*
X152859966Y-122854062D01*
X152856555Y-122851417D01*
X152847533Y-122843711D01*
X152821077Y-122818867D01*
X152815301Y-122813443D01*
X152808357Y-122809626D01*
X152808355Y-122809624D01*
X152797547Y-122803682D01*
X152781023Y-122792828D01*
X152771286Y-122785275D01*
X152771285Y-122785275D01*
X152765023Y-122780417D01*
X152724447Y-122762858D01*
X152713790Y-122757637D01*
X152675048Y-122736338D01*
X152667365Y-122734366D01*
X152667364Y-122734365D01*
X152655432Y-122731301D01*
X152636728Y-122724897D01*
X152625415Y-122720001D01*
X152625408Y-122719999D01*
X152618136Y-122716852D01*
X152610312Y-122715613D01*
X152610309Y-122715612D01*
X152574465Y-122709935D01*
X152562844Y-122707528D01*
X152525782Y-122698013D01*
X152525781Y-122698013D01*
X152520025Y-122696535D01*
X152519469Y-122696500D01*
X152499548Y-122696500D01*
X152479838Y-122694949D01*
X152467886Y-122693056D01*
X152467885Y-122693056D01*
X152460056Y-122691816D01*
X152452164Y-122692562D01*
X152416418Y-122695941D01*
X152404560Y-122696500D01*
X152147893Y-122696500D01*
X152079772Y-122676498D01*
X152033279Y-122622842D01*
X152029454Y-122613491D01*
X152003345Y-122541563D01*
X152000848Y-122534684D01*
X151925750Y-122420139D01*
X151908698Y-122394131D01*
X151908696Y-122394129D01*
X151904686Y-122388012D01*
X151777361Y-122267396D01*
X151771034Y-122263721D01*
X151771030Y-122263718D01*
X151632034Y-122182983D01*
X151632032Y-122182982D01*
X151625703Y-122179306D01*
X151457847Y-122128468D01*
X151451411Y-122127894D01*
X151451408Y-122127893D01*
X151382566Y-122121749D01*
X151382560Y-122121749D01*
X151379773Y-122121500D01*
X150793363Y-122121500D01*
X150700623Y-122132312D01*
X150669317Y-122135962D01*
X150669316Y-122135962D01*
X150662045Y-122136810D01*
X150655168Y-122139306D01*
X150655165Y-122139307D01*
X150550814Y-122177185D01*
X150497184Y-122196652D01*
X150350512Y-122292814D01*
X150345480Y-122298126D01*
X150345475Y-122298130D01*
X150233547Y-122416283D01*
X150172178Y-122451981D01*
X150101251Y-122448833D01*
X150043286Y-122407839D01*
X150036708Y-122398722D01*
X150029686Y-122388012D01*
X149902361Y-122267396D01*
X149896034Y-122263721D01*
X149896030Y-122263718D01*
X149757034Y-122182983D01*
X149757032Y-122182982D01*
X149750703Y-122179306D01*
X149582847Y-122128468D01*
X149576411Y-122127894D01*
X149576408Y-122127893D01*
X149507566Y-122121749D01*
X149507560Y-122121749D01*
X149504773Y-122121500D01*
X148918363Y-122121500D01*
X148825623Y-122132312D01*
X148794317Y-122135962D01*
X148794316Y-122135962D01*
X148787045Y-122136810D01*
X148780168Y-122139306D01*
X148780165Y-122139307D01*
X148675814Y-122177185D01*
X148622184Y-122196652D01*
X148475512Y-122292814D01*
X148354896Y-122420139D01*
X148351221Y-122426466D01*
X148351218Y-122426470D01*
X148288363Y-122534684D01*
X148266806Y-122571797D01*
X148215968Y-122739653D01*
X148215394Y-122746089D01*
X148215393Y-122746092D01*
X148210253Y-122803682D01*
X148209000Y-122817727D01*
X148209000Y-123829137D01*
X148224310Y-123960455D01*
X148226806Y-123967332D01*
X148226807Y-123967335D01*
X148278348Y-124109327D01*
X148284152Y-124125316D01*
X148324402Y-124186707D01*
X148372753Y-124260455D01*
X148380314Y-124271988D01*
X148507639Y-124392604D01*
X148513970Y-124396281D01*
X148519830Y-124400665D01*
X148518056Y-124403037D01*
X148557657Y-124444806D01*
X148571500Y-124502224D01*
X148571500Y-125459907D01*
X148551498Y-125528028D01*
X148529173Y-125553338D01*
X148527753Y-125554269D01*
X148406142Y-125682645D01*
X148317325Y-125835555D01*
X148266067Y-126004796D01*
X148259000Y-126083978D01*
X148259000Y-127082886D01*
X148274478Y-127215643D01*
X148334813Y-127381864D01*
X148431769Y-127529747D01*
X148560145Y-127651358D01*
X148713055Y-127740175D01*
X148882296Y-127791433D01*
X148888736Y-127792008D01*
X148888737Y-127792008D01*
X148958685Y-127798251D01*
X148958691Y-127798251D01*
X148961478Y-127798500D01*
X149522980Y-127798500D01*
X149591101Y-127818502D01*
X149637594Y-127872158D01*
X149648980Y-127924500D01*
X149648980Y-128705500D01*
X149628978Y-128773621D01*
X149575322Y-128820114D01*
X149522980Y-128831500D01*
X148989614Y-128831500D01*
X148894394Y-128842602D01*
X148864129Y-128846130D01*
X148864128Y-128846130D01*
X148856857Y-128846978D01*
X148849979Y-128849474D01*
X148849977Y-128849475D01*
X148727431Y-128893957D01*
X148690636Y-128907313D01*
X148587069Y-128975214D01*
X148573550Y-128984078D01*
X148542753Y-129004269D01*
X148421142Y-129132645D01*
X148332325Y-129285555D01*
X148281067Y-129454796D01*
X148274000Y-129533978D01*
X148274000Y-130532886D01*
X148279510Y-130580147D01*
X148286649Y-130641374D01*
X148289478Y-130665643D01*
X148291974Y-130672521D01*
X148291975Y-130672523D01*
X148338454Y-130800571D01*
X148349813Y-130831864D01*
X148417714Y-130935431D01*
X148428821Y-130952371D01*
X148446769Y-130979747D01*
X148575145Y-131101358D01*
X148728055Y-131190175D01*
X148737024Y-131192892D01*
X148738201Y-131193662D01*
X148741773Y-131195215D01*
X148741507Y-131195826D01*
X148796420Y-131231778D01*
X148825365Y-131296607D01*
X148826500Y-131313481D01*
X148826500Y-133551337D01*
X148806498Y-133619458D01*
X148752842Y-133665951D01*
X148735998Y-133672233D01*
X148725330Y-133675365D01*
X148725328Y-133675366D01*
X148716684Y-133677904D01*
X148709105Y-133682775D01*
X148601309Y-133752051D01*
X148601306Y-133752053D01*
X148593729Y-133756923D01*
X148587828Y-133763733D01*
X148503918Y-133860569D01*
X148503916Y-133860572D01*
X148498016Y-133867381D01*
X148494272Y-133875579D01*
X148467165Y-133934936D01*
X148437300Y-134000330D01*
X148436018Y-134009245D01*
X148436018Y-134009246D01*
X148417139Y-134140552D01*
X148417138Y-134140559D01*
X148416500Y-134145000D01*
X148416500Y-134795000D01*
X148421727Y-134868079D01*
X148423631Y-134874562D01*
X148459063Y-134995233D01*
X148462904Y-135008316D01*
X148467775Y-135015895D01*
X148537051Y-135123691D01*
X148537053Y-135123694D01*
X148541923Y-135131271D01*
X148548733Y-135137172D01*
X148645569Y-135221082D01*
X148645572Y-135221084D01*
X148652381Y-135226984D01*
X148660579Y-135230728D01*
X148746157Y-135269810D01*
X148785330Y-135287700D01*
X148794245Y-135288982D01*
X148794246Y-135288982D01*
X148829399Y-135294036D01*
X148893980Y-135323529D01*
X148932364Y-135383255D01*
X148932364Y-135454252D01*
X148893981Y-135513978D01*
X148846966Y-135539650D01*
X148725330Y-135575365D01*
X148725328Y-135575366D01*
X148716684Y-135577904D01*
X148709105Y-135582775D01*
X148601309Y-135652051D01*
X148601306Y-135652053D01*
X148593729Y-135656923D01*
X148587828Y-135663733D01*
X148503918Y-135760569D01*
X148503916Y-135760572D01*
X148498016Y-135767381D01*
X148494272Y-135775579D01*
X148490198Y-135784501D01*
X148437300Y-135900330D01*
X148436018Y-135909245D01*
X148436018Y-135909246D01*
X148417139Y-136040552D01*
X148417138Y-136040559D01*
X148416500Y-136045000D01*
X148416500Y-136695000D01*
X148421727Y-136768079D01*
X148462904Y-136908316D01*
X148467775Y-136915895D01*
X148537051Y-137023691D01*
X148537053Y-137023694D01*
X148541923Y-137031271D01*
X148563015Y-137049548D01*
X148601397Y-137109273D01*
X148606500Y-137144770D01*
X148606500Y-139048358D01*
X148586498Y-139116479D01*
X148549585Y-139153730D01*
X148487753Y-139194269D01*
X148366142Y-139322645D01*
X148277325Y-139475555D01*
X148226067Y-139644796D01*
X148225492Y-139651236D01*
X148225492Y-139651237D01*
X148219849Y-139714469D01*
X148219000Y-139723978D01*
X148219000Y-140722886D01*
X148234478Y-140855643D01*
X148294813Y-141021864D01*
X148391769Y-141169747D01*
X148397081Y-141174779D01*
X148485726Y-141258753D01*
X148521424Y-141320122D01*
X148518277Y-141391049D01*
X148477283Y-141449015D01*
X148411458Y-141475616D01*
X148357654Y-141465913D01*
X148356615Y-141468831D01*
X148185763Y-141407994D01*
X148178771Y-141407160D01*
X148178770Y-141407160D01*
X148095721Y-141397257D01*
X148005679Y-141386520D01*
X147998676Y-141387256D01*
X147998675Y-141387256D01*
X147832321Y-141404740D01*
X147832317Y-141404741D01*
X147825313Y-141405477D01*
X147818642Y-141407748D01*
X147660299Y-141461652D01*
X147660296Y-141461653D01*
X147653629Y-141463923D01*
X147647630Y-141467613D01*
X147647629Y-141467614D01*
X147567451Y-141516940D01*
X147519405Y-141546498D01*
X147517259Y-141547818D01*
X147451237Y-141566500D01*
X146841219Y-141566500D01*
X146773098Y-141546498D01*
X146726605Y-141492842D01*
X146716501Y-141422568D01*
X146745995Y-141357988D01*
X146772132Y-141335129D01*
X146773307Y-141334358D01*
X146784458Y-141325035D01*
X146895922Y-141207371D01*
X146904635Y-141195724D01*
X146986043Y-141055571D01*
X146991837Y-141042246D01*
X147039068Y-140886300D01*
X147041516Y-140873677D01*
X147047751Y-140803816D01*
X147048000Y-140798221D01*
X147048000Y-140542115D01*
X147043525Y-140526876D01*
X147042135Y-140525671D01*
X147034452Y-140524000D01*
X145912000Y-140524000D01*
X145843879Y-140503998D01*
X145797386Y-140450342D01*
X145786000Y-140398000D01*
X145786000Y-139055115D01*
X145784659Y-139050548D01*
X146294000Y-139050548D01*
X146294000Y-139997885D01*
X146298475Y-140013124D01*
X146299865Y-140014329D01*
X146307548Y-140016000D01*
X147029885Y-140016000D01*
X147045124Y-140011525D01*
X147046329Y-140010135D01*
X147048000Y-140002452D01*
X147048000Y-139755777D01*
X147047576Y-139748476D01*
X147033383Y-139626745D01*
X147030037Y-139612590D01*
X146974737Y-139460239D01*
X146968227Y-139447240D01*
X146879359Y-139311694D01*
X146870035Y-139300542D01*
X146752371Y-139189078D01*
X146740724Y-139180365D01*
X146600571Y-139098957D01*
X146587246Y-139093163D01*
X146431300Y-139045932D01*
X146418677Y-139043484D01*
X146348816Y-139037249D01*
X146343221Y-139037000D01*
X146312115Y-139037000D01*
X146296876Y-139041475D01*
X146295671Y-139042865D01*
X146294000Y-139050548D01*
X145784659Y-139050548D01*
X145781525Y-139039876D01*
X145780135Y-139038671D01*
X145772452Y-139037000D01*
X145750777Y-139037000D01*
X145743476Y-139037424D01*
X145621745Y-139051617D01*
X145607590Y-139054963D01*
X145455239Y-139110263D01*
X145442240Y-139116773D01*
X145306694Y-139205641D01*
X145295542Y-139214965D01*
X145181081Y-139335793D01*
X145119712Y-139371491D01*
X145048785Y-139368344D01*
X144990819Y-139327350D01*
X144984237Y-139318226D01*
X144979745Y-139311375D01*
X144979744Y-139311374D01*
X144975731Y-139305253D01*
X144847355Y-139183642D01*
X144694445Y-139094825D01*
X144525204Y-139043567D01*
X144518764Y-139042992D01*
X144518763Y-139042992D01*
X144448815Y-139036749D01*
X144448809Y-139036749D01*
X144446022Y-139036500D01*
X143854595Y-139036500D01*
X143786474Y-139016498D01*
X143765500Y-138999595D01*
X142683391Y-137917487D01*
X142676031Y-137909399D01*
X142671973Y-137903005D01*
X142623121Y-137857130D01*
X142620280Y-137854376D01*
X142599966Y-137834062D01*
X142596555Y-137831417D01*
X142587533Y-137823711D01*
X142561077Y-137798867D01*
X142555301Y-137793443D01*
X142548357Y-137789626D01*
X142548355Y-137789624D01*
X142537547Y-137783682D01*
X142521023Y-137772828D01*
X142511286Y-137765275D01*
X142511285Y-137765275D01*
X142505023Y-137760417D01*
X142464447Y-137742858D01*
X142453790Y-137737637D01*
X142415048Y-137716338D01*
X142407365Y-137714366D01*
X142407364Y-137714365D01*
X142395432Y-137711301D01*
X142376728Y-137704897D01*
X142365415Y-137700001D01*
X142365408Y-137699999D01*
X142358136Y-137696852D01*
X142350312Y-137695613D01*
X142350309Y-137695612D01*
X142314465Y-137689935D01*
X142302844Y-137687528D01*
X142265782Y-137678013D01*
X142265781Y-137678013D01*
X142260025Y-137676535D01*
X142259469Y-137676500D01*
X142239548Y-137676500D01*
X142219838Y-137674949D01*
X142207886Y-137673056D01*
X142207885Y-137673056D01*
X142200056Y-137671816D01*
X142192164Y-137672562D01*
X142156418Y-137675941D01*
X142144560Y-137676500D01*
X139584500Y-137676500D01*
X139516379Y-137656498D01*
X139469886Y-137602842D01*
X139458500Y-137550500D01*
X139458500Y-134990481D01*
X142063397Y-134990481D01*
X142095207Y-135247698D01*
X142165557Y-135497143D01*
X142167534Y-135501491D01*
X142167535Y-135501494D01*
X142246729Y-135675671D01*
X142272830Y-135733076D01*
X142414556Y-135950069D01*
X142587473Y-136143127D01*
X142787604Y-136307809D01*
X142804061Y-136317600D01*
X143006224Y-136437875D01*
X143006228Y-136437877D01*
X143010341Y-136440324D01*
X143115751Y-136483019D01*
X143246125Y-136535826D01*
X143246129Y-136535827D01*
X143250560Y-136537622D01*
X143255211Y-136538726D01*
X143255215Y-136538727D01*
X143367243Y-136565312D01*
X143502732Y-136597466D01*
X143761054Y-136618477D01*
X143765828Y-136618139D01*
X144014800Y-136600511D01*
X144014804Y-136600510D01*
X144019583Y-136600172D01*
X144101252Y-136581692D01*
X144267707Y-136544027D01*
X144267711Y-136544026D01*
X144272368Y-136542972D01*
X144513592Y-136448195D01*
X144517724Y-136445795D01*
X144517728Y-136445793D01*
X144733568Y-136320423D01*
X144737705Y-136318020D01*
X144939549Y-136155443D01*
X145114478Y-135964206D01*
X145258469Y-135748709D01*
X145262304Y-135740505D01*
X145323638Y-135609272D01*
X145368206Y-135513912D01*
X145371849Y-135501494D01*
X145439818Y-135269810D01*
X145439819Y-135269805D01*
X145441165Y-135265217D01*
X145472929Y-135028731D01*
X145475230Y-135011603D01*
X145475230Y-135011599D01*
X145475667Y-135008348D01*
X145476320Y-134985698D01*
X145478405Y-134913295D01*
X145478500Y-134910000D01*
X145478250Y-134906710D01*
X145459205Y-134656338D01*
X145459204Y-134656333D01*
X145458842Y-134651571D01*
X145455639Y-134637750D01*
X145401401Y-134403753D01*
X145400320Y-134399089D01*
X145304280Y-134158364D01*
X145172933Y-133934936D01*
X145009302Y-133733946D01*
X144817152Y-133560020D01*
X144804009Y-133551337D01*
X144604897Y-133419798D01*
X144600904Y-133417160D01*
X144596564Y-133415159D01*
X144596560Y-133415157D01*
X144369887Y-133310660D01*
X144369884Y-133310659D01*
X144365535Y-133308654D01*
X144360933Y-133307330D01*
X144121055Y-133238319D01*
X144121050Y-133238318D01*
X144116462Y-133236998D01*
X144111727Y-133236387D01*
X144111721Y-133236386D01*
X143864153Y-133204452D01*
X143859416Y-133203841D01*
X143718015Y-133207174D01*
X143605092Y-133209835D01*
X143605088Y-133209835D01*
X143600312Y-133209948D01*
X143518392Y-133224466D01*
X143349817Y-133254342D01*
X143349813Y-133254343D01*
X143345113Y-133255176D01*
X143099692Y-133338485D01*
X143095456Y-133340686D01*
X143095450Y-133340688D01*
X142984694Y-133398222D01*
X142869696Y-133457958D01*
X142660418Y-133610846D01*
X142657026Y-133614220D01*
X142657024Y-133614222D01*
X142480067Y-133790255D01*
X142480063Y-133790260D01*
X142476674Y-133793631D01*
X142322692Y-134002106D01*
X142320462Y-134006344D01*
X142320461Y-134006346D01*
X142257245Y-134126500D01*
X142202016Y-134231473D01*
X142200455Y-134235992D01*
X142200453Y-134235998D01*
X142118983Y-134471937D01*
X142117423Y-134476455D01*
X142070859Y-134731413D01*
X142063397Y-134990481D01*
X139458500Y-134990481D01*
X139458500Y-134640000D01*
X139453273Y-134566921D01*
X139412096Y-134426684D01*
X139345079Y-134322404D01*
X139337949Y-134311309D01*
X139337947Y-134311306D01*
X139333077Y-134303729D01*
X139312039Y-134285499D01*
X139229431Y-134213918D01*
X139229428Y-134213916D01*
X139222619Y-134208016D01*
X139089670Y-134147300D01*
X139080755Y-134146018D01*
X139080754Y-134146018D01*
X138949448Y-134127139D01*
X138949441Y-134127138D01*
X138945000Y-134126500D01*
X136529500Y-134126500D01*
X136461379Y-134106498D01*
X136414886Y-134052842D01*
X136403500Y-134000500D01*
X136403500Y-109819594D01*
X136423502Y-109751473D01*
X136440405Y-109730499D01*
X154026405Y-92144500D01*
X154088717Y-92110474D01*
X154159532Y-92115539D01*
X154216368Y-92158086D01*
X154241179Y-92224606D01*
X154241500Y-92233595D01*
X154241500Y-92995000D01*
X154246727Y-93068079D01*
X154287904Y-93208316D01*
X154292775Y-93215895D01*
X154362051Y-93323691D01*
X154362053Y-93323694D01*
X154366923Y-93331271D01*
X154373733Y-93337172D01*
X154470569Y-93421082D01*
X154470572Y-93421084D01*
X154477381Y-93426984D01*
X154610330Y-93487700D01*
X154619245Y-93488982D01*
X154619246Y-93488982D01*
X154750552Y-93507861D01*
X154750559Y-93507862D01*
X154755000Y-93508500D01*
X154874000Y-93508500D01*
X154942121Y-93528502D01*
X154988614Y-93582158D01*
X155000000Y-93634500D01*
X155000000Y-153874000D01*
X154979998Y-153942121D01*
X154926342Y-153988614D01*
X154874000Y-154000000D01*
X116635500Y-154000000D01*
X116567379Y-153979998D01*
X116520886Y-153926342D01*
X116509500Y-153874000D01*
X116509500Y-152540048D01*
X130542000Y-152540048D01*
X130542000Y-152720412D01*
X130542301Y-152726560D01*
X130555691Y-152863126D01*
X130558074Y-152875161D01*
X130611654Y-153052624D01*
X130616329Y-153063966D01*
X130703357Y-153227644D01*
X130710144Y-153237860D01*
X130827310Y-153381519D01*
X130835954Y-153390223D01*
X130978788Y-153508386D01*
X130988959Y-153515246D01*
X131152031Y-153603418D01*
X131163330Y-153608168D01*
X131278693Y-153643880D01*
X131292795Y-153644086D01*
X131296000Y-153637330D01*
X131296000Y-152544615D01*
X131294659Y-152540048D01*
X131804000Y-152540048D01*
X131804000Y-153630552D01*
X131807973Y-153644083D01*
X131815768Y-153645203D01*
X131923557Y-153613479D01*
X131934941Y-153608880D01*
X132099222Y-153522996D01*
X132109483Y-153516282D01*
X132253959Y-153400120D01*
X132262719Y-153391542D01*
X132381881Y-153249530D01*
X132388807Y-153239416D01*
X132478118Y-153076958D01*
X132482946Y-153065694D01*
X132539002Y-152888984D01*
X132541550Y-152876997D01*
X132557607Y-152733839D01*
X132558000Y-152726815D01*
X132558000Y-152544615D01*
X132556659Y-152540048D01*
X139182000Y-152540048D01*
X139182000Y-152720412D01*
X139182301Y-152726560D01*
X139195691Y-152863126D01*
X139198074Y-152875161D01*
X139251654Y-153052624D01*
X139256329Y-153063966D01*
X139343357Y-153227644D01*
X139350144Y-153237860D01*
X139467310Y-153381519D01*
X139475954Y-153390223D01*
X139618788Y-153508386D01*
X139628959Y-153515246D01*
X139792031Y-153603418D01*
X139803330Y-153608168D01*
X139918693Y-153643880D01*
X139932795Y-153644086D01*
X139936000Y-153637330D01*
X139936000Y-152544615D01*
X139934659Y-152540048D01*
X140444000Y-152540048D01*
X140444000Y-153630552D01*
X140447973Y-153644083D01*
X140455768Y-153645203D01*
X140563557Y-153613479D01*
X140574941Y-153608880D01*
X140739222Y-153522996D01*
X140749483Y-153516282D01*
X140893959Y-153400120D01*
X140902719Y-153391542D01*
X141021881Y-153249530D01*
X141028807Y-153239416D01*
X141118118Y-153076958D01*
X141122946Y-153065694D01*
X141179002Y-152888984D01*
X141181550Y-152876997D01*
X141197607Y-152733839D01*
X141198000Y-152726815D01*
X141198000Y-152544615D01*
X141193525Y-152529376D01*
X141192135Y-152528171D01*
X141184452Y-152526500D01*
X140462115Y-152526500D01*
X140446876Y-152530975D01*
X140445671Y-152532365D01*
X140444000Y-152540048D01*
X139934659Y-152540048D01*
X139931525Y-152529376D01*
X139930135Y-152528171D01*
X139922452Y-152526500D01*
X139200115Y-152526500D01*
X139184876Y-152530975D01*
X139183671Y-152532365D01*
X139182000Y-152540048D01*
X132556659Y-152540048D01*
X132553525Y-152529376D01*
X132552135Y-152528171D01*
X132544452Y-152526500D01*
X131822115Y-152526500D01*
X131806876Y-152530975D01*
X131805671Y-152532365D01*
X131804000Y-152540048D01*
X131294659Y-152540048D01*
X131291525Y-152529376D01*
X131290135Y-152528171D01*
X131282452Y-152526500D01*
X130560115Y-152526500D01*
X130544876Y-152530975D01*
X130543671Y-152532365D01*
X130542000Y-152540048D01*
X116509500Y-152540048D01*
X116509500Y-151818185D01*
X130542000Y-151818185D01*
X130542000Y-152000385D01*
X130546475Y-152015624D01*
X130547865Y-152016829D01*
X130555548Y-152018500D01*
X131277885Y-152018500D01*
X131293124Y-152014025D01*
X131294329Y-152012635D01*
X131296000Y-152004952D01*
X131296000Y-150914448D01*
X131294010Y-150907670D01*
X131804000Y-150907670D01*
X131804000Y-152000385D01*
X131808475Y-152015624D01*
X131809865Y-152016829D01*
X131817548Y-152018500D01*
X132539885Y-152018500D01*
X132555124Y-152014025D01*
X132556329Y-152012635D01*
X132558000Y-152004952D01*
X132558000Y-151824588D01*
X132557699Y-151818440D01*
X132557674Y-151818185D01*
X139182000Y-151818185D01*
X139182000Y-152000385D01*
X139186475Y-152015624D01*
X139187865Y-152016829D01*
X139195548Y-152018500D01*
X139917885Y-152018500D01*
X139933124Y-152014025D01*
X139934329Y-152012635D01*
X139936000Y-152004952D01*
X139936000Y-150914448D01*
X139934010Y-150907670D01*
X140444000Y-150907670D01*
X140444000Y-152000385D01*
X140448475Y-152015624D01*
X140449865Y-152016829D01*
X140457548Y-152018500D01*
X141179885Y-152018500D01*
X141195124Y-152014025D01*
X141196329Y-152012635D01*
X141198000Y-152004952D01*
X141198000Y-151824588D01*
X141197699Y-151818440D01*
X141184309Y-151681874D01*
X141181926Y-151669839D01*
X141128346Y-151492376D01*
X141123671Y-151481034D01*
X141036643Y-151317356D01*
X141029856Y-151307140D01*
X140912690Y-151163481D01*
X140904046Y-151154777D01*
X140761212Y-151036614D01*
X140751041Y-151029754D01*
X140587969Y-150941582D01*
X140576670Y-150936832D01*
X140461307Y-150901120D01*
X140447205Y-150900914D01*
X140444000Y-150907670D01*
X139934010Y-150907670D01*
X139932027Y-150900917D01*
X139924232Y-150899797D01*
X139816443Y-150931521D01*
X139805059Y-150936120D01*
X139640778Y-151022004D01*
X139630517Y-151028718D01*
X139486041Y-151144880D01*
X139477281Y-151153458D01*
X139358119Y-151295470D01*
X139351193Y-151305584D01*
X139261882Y-151468042D01*
X139257054Y-151479306D01*
X139200998Y-151656016D01*
X139198450Y-151668003D01*
X139182393Y-151811161D01*
X139182000Y-151818185D01*
X132557674Y-151818185D01*
X132544309Y-151681874D01*
X132541926Y-151669839D01*
X132488346Y-151492376D01*
X132483671Y-151481034D01*
X132396643Y-151317356D01*
X132389856Y-151307140D01*
X132272690Y-151163481D01*
X132264046Y-151154777D01*
X132121212Y-151036614D01*
X132111041Y-151029754D01*
X131947969Y-150941582D01*
X131936670Y-150936832D01*
X131821307Y-150901120D01*
X131807205Y-150900914D01*
X131804000Y-150907670D01*
X131294010Y-150907670D01*
X131292027Y-150900917D01*
X131284232Y-150899797D01*
X131176443Y-150931521D01*
X131165059Y-150936120D01*
X131000778Y-151022004D01*
X130990517Y-151028718D01*
X130846041Y-151144880D01*
X130837281Y-151153458D01*
X130718119Y-151295470D01*
X130711193Y-151305584D01*
X130621882Y-151468042D01*
X130617054Y-151479306D01*
X130560998Y-151656016D01*
X130558450Y-151668003D01*
X130542393Y-151811161D01*
X130542000Y-151818185D01*
X116509500Y-151818185D01*
X116509500Y-136561757D01*
X116529502Y-136493636D01*
X116583158Y-136447143D01*
X116653432Y-136437039D01*
X116715813Y-136464671D01*
X116728333Y-136475028D01*
X116737115Y-136483019D01*
X124149595Y-143895499D01*
X124183621Y-143957811D01*
X124186500Y-143984594D01*
X124186500Y-144330500D01*
X124166498Y-144398621D01*
X124112842Y-144445114D01*
X124060500Y-144456500D01*
X123885000Y-144456500D01*
X123811921Y-144461727D01*
X123758884Y-144477300D01*
X123680330Y-144500365D01*
X123680328Y-144500366D01*
X123671684Y-144502904D01*
X123651350Y-144515972D01*
X123556309Y-144577051D01*
X123556306Y-144577053D01*
X123548729Y-144581923D01*
X123542828Y-144588733D01*
X123458918Y-144685569D01*
X123458916Y-144685572D01*
X123453016Y-144692381D01*
X123392300Y-144825330D01*
X123391215Y-144832875D01*
X123353209Y-144892011D01*
X123288628Y-144921504D01*
X123218354Y-144911399D01*
X123179528Y-144883757D01*
X123102167Y-144802661D01*
X123102162Y-144802656D01*
X123098482Y-144798799D01*
X122913504Y-144661171D01*
X122908753Y-144658755D01*
X122908749Y-144658753D01*
X122712740Y-144559097D01*
X122712739Y-144559097D01*
X122707982Y-144556678D01*
X122567033Y-144512912D01*
X122492895Y-144489891D01*
X122492889Y-144489890D01*
X122487792Y-144488307D01*
X122382798Y-144474391D01*
X122264515Y-144458714D01*
X122264510Y-144458714D01*
X122259230Y-144458014D01*
X122253900Y-144458214D01*
X122253899Y-144458214D01*
X122160320Y-144461727D01*
X122028831Y-144466663D01*
X121984246Y-144476018D01*
X121808411Y-144512912D01*
X121808408Y-144512913D01*
X121803184Y-144514009D01*
X121588740Y-144598697D01*
X121391631Y-144718306D01*
X121387601Y-144721803D01*
X121260280Y-144832286D01*
X121217492Y-144869415D01*
X121214109Y-144873541D01*
X121214105Y-144873545D01*
X121183067Y-144911399D01*
X121071304Y-145047705D01*
X121068667Y-145052338D01*
X121068666Y-145052339D01*
X121035116Y-145111278D01*
X120984033Y-145160584D01*
X120914402Y-145174445D01*
X120848332Y-145148461D01*
X120821094Y-145119312D01*
X120819120Y-145116379D01*
X120722091Y-144972257D01*
X120720607Y-144970052D01*
X120720605Y-144970050D01*
X120717627Y-144965626D01*
X120558482Y-144798799D01*
X120373504Y-144661171D01*
X120368753Y-144658755D01*
X120368749Y-144658753D01*
X120172740Y-144559097D01*
X120172739Y-144559097D01*
X120167982Y-144556678D01*
X120027033Y-144512912D01*
X119952895Y-144489891D01*
X119952889Y-144489890D01*
X119947792Y-144488307D01*
X119842798Y-144474391D01*
X119724515Y-144458714D01*
X119724510Y-144458714D01*
X119719230Y-144458014D01*
X119713900Y-144458214D01*
X119713899Y-144458214D01*
X119620320Y-144461727D01*
X119488831Y-144466663D01*
X119444246Y-144476018D01*
X119268411Y-144512912D01*
X119268408Y-144512913D01*
X119263184Y-144514009D01*
X119048740Y-144598697D01*
X118851631Y-144718306D01*
X118847601Y-144721803D01*
X118720280Y-144832286D01*
X118677492Y-144869415D01*
X118674109Y-144873541D01*
X118674105Y-144873545D01*
X118643067Y-144911399D01*
X118531304Y-145047705D01*
X118528666Y-145052339D01*
X118528663Y-145052344D01*
X118473950Y-145148461D01*
X118417245Y-145248077D01*
X118338578Y-145464802D01*
X118297551Y-145691683D01*
X118295338Y-145922233D01*
X118332002Y-146149861D01*
X118406494Y-146368056D01*
X118516685Y-146570580D01*
X118659424Y-146751644D01*
X118712539Y-146799553D01*
X118826659Y-146902489D01*
X118826665Y-146902494D01*
X118830629Y-146906069D01*
X118835142Y-146908928D01*
X118835144Y-146908929D01*
X118953242Y-146983731D01*
X119000087Y-147037079D01*
X119010654Y-147107285D01*
X118981587Y-147172058D01*
X118951186Y-147197894D01*
X118856196Y-147255535D01*
X118856189Y-147255540D01*
X118851631Y-147258306D01*
X118847601Y-147261803D01*
X118723100Y-147369839D01*
X118677492Y-147409415D01*
X118674109Y-147413541D01*
X118674105Y-147413545D01*
X118601768Y-147501767D01*
X118531304Y-147587705D01*
X118528666Y-147592339D01*
X118528663Y-147592344D01*
X118431166Y-147763621D01*
X118417245Y-147788077D01*
X118338578Y-148004802D01*
X118337629Y-148010051D01*
X118337628Y-148010054D01*
X118320997Y-148102027D01*
X118297551Y-148231683D01*
X118295338Y-148462233D01*
X118332002Y-148689861D01*
X118406494Y-148908056D01*
X118409044Y-148912743D01*
X118409045Y-148912745D01*
X118420618Y-148934015D01*
X118516685Y-149110580D01*
X118659424Y-149291644D01*
X118684606Y-149314358D01*
X118826659Y-149442489D01*
X118826665Y-149442494D01*
X118830629Y-149446069D01*
X118835142Y-149448928D01*
X118835144Y-149448929D01*
X118900248Y-149490165D01*
X119025406Y-149569439D01*
X119238184Y-149658228D01*
X119243387Y-149659425D01*
X119243392Y-149659426D01*
X119457678Y-149708701D01*
X119457683Y-149708702D01*
X119462881Y-149709897D01*
X119468209Y-149710200D01*
X119468212Y-149710200D01*
X119624293Y-149719063D01*
X119693071Y-149722968D01*
X119698378Y-149722368D01*
X119698380Y-149722368D01*
X119819272Y-149708701D01*
X119922173Y-149697068D01*
X119927288Y-149695587D01*
X119927292Y-149695586D01*
X120052161Y-149659426D01*
X120143635Y-149632937D01*
X120351125Y-149532409D01*
X120355463Y-149529309D01*
X120355468Y-149529306D01*
X120534370Y-149401459D01*
X120538711Y-149398357D01*
X120671081Y-149264828D01*
X120697277Y-149238403D01*
X120697278Y-149238402D01*
X120701030Y-149234617D01*
X120704090Y-149230255D01*
X120704095Y-149230249D01*
X120822634Y-149061271D01*
X120878130Y-149016990D01*
X120948755Y-149009743D01*
X121012088Y-149041829D01*
X121036461Y-149073410D01*
X121056685Y-149110580D01*
X121199424Y-149291644D01*
X121224606Y-149314358D01*
X121366659Y-149442489D01*
X121366665Y-149442494D01*
X121370629Y-149446069D01*
X121375142Y-149448928D01*
X121375144Y-149448929D01*
X121440248Y-149490165D01*
X121565406Y-149569439D01*
X121778184Y-149658228D01*
X121783387Y-149659425D01*
X121783392Y-149659426D01*
X121997678Y-149708701D01*
X121997683Y-149708702D01*
X122002881Y-149709897D01*
X122008209Y-149710200D01*
X122008212Y-149710200D01*
X122164293Y-149719063D01*
X122233071Y-149722968D01*
X122238378Y-149722368D01*
X122238380Y-149722368D01*
X122359272Y-149708701D01*
X122462173Y-149697068D01*
X122467288Y-149695587D01*
X122467292Y-149695586D01*
X122592161Y-149659426D01*
X122683635Y-149632937D01*
X122891125Y-149532409D01*
X122895463Y-149529309D01*
X122895468Y-149529306D01*
X123074370Y-149401459D01*
X123078711Y-149398357D01*
X123211081Y-149264828D01*
X123237277Y-149238403D01*
X123237278Y-149238402D01*
X123241030Y-149234617D01*
X123362953Y-149060816D01*
X123418449Y-149016536D01*
X123489075Y-149009289D01*
X123552407Y-149041375D01*
X123576781Y-149072958D01*
X123594550Y-149105617D01*
X123600402Y-149114491D01*
X123736486Y-149287113D01*
X123743750Y-149294875D01*
X123906967Y-149442094D01*
X123915444Y-149448528D01*
X124101122Y-149566136D01*
X124110567Y-149571053D01*
X124313406Y-149655694D01*
X124323545Y-149658950D01*
X124463345Y-149691096D01*
X124477422Y-149690257D01*
X124481000Y-149680999D01*
X124481000Y-148627548D01*
X124989000Y-148627548D01*
X124989000Y-149679941D01*
X124993151Y-149694079D01*
X125003798Y-149695774D01*
X125007192Y-149695096D01*
X125218333Y-149633954D01*
X125228259Y-149630143D01*
X125426065Y-149534307D01*
X125435212Y-149528876D01*
X125614041Y-149401083D01*
X125622149Y-149394182D01*
X125776893Y-149238082D01*
X125783706Y-149229933D01*
X125909940Y-149049988D01*
X125915295Y-149040787D01*
X126009399Y-148842156D01*
X126013123Y-148832197D01*
X126070968Y-148625718D01*
X126069430Y-148617351D01*
X126057137Y-148614000D01*
X125007115Y-148614000D01*
X124991876Y-148618475D01*
X124990671Y-148619865D01*
X124989000Y-148627548D01*
X124481000Y-148627548D01*
X124481000Y-148390048D01*
X130542000Y-148390048D01*
X130542000Y-148720412D01*
X130542301Y-148726560D01*
X130555691Y-148863126D01*
X130558074Y-148875161D01*
X130611654Y-149052624D01*
X130616329Y-149063966D01*
X130703357Y-149227644D01*
X130710144Y-149237860D01*
X130827310Y-149381519D01*
X130835954Y-149390223D01*
X130978788Y-149508386D01*
X130988959Y-149515246D01*
X131152031Y-149603418D01*
X131163330Y-149608168D01*
X131278693Y-149643880D01*
X131292795Y-149644086D01*
X131296000Y-149637330D01*
X131296000Y-148394615D01*
X131291525Y-148379376D01*
X131290135Y-148378171D01*
X131282452Y-148376500D01*
X130560115Y-148376500D01*
X130544876Y-148380975D01*
X130543671Y-148382365D01*
X130542000Y-148390048D01*
X124481000Y-148390048D01*
X124481000Y-148232000D01*
X124501002Y-148163879D01*
X124554658Y-148117386D01*
X124607000Y-148106000D01*
X126054079Y-148106000D01*
X126067610Y-148102027D01*
X126068876Y-148093218D01*
X126021954Y-147912433D01*
X126018419Y-147902395D01*
X125928147Y-147701998D01*
X125922967Y-147692692D01*
X125805482Y-147518185D01*
X130542000Y-147518185D01*
X130542000Y-147850385D01*
X130546475Y-147865624D01*
X130547865Y-147866829D01*
X130555548Y-147868500D01*
X131277885Y-147868500D01*
X131293124Y-147864025D01*
X131294329Y-147862635D01*
X131296000Y-147854952D01*
X131296000Y-146614448D01*
X131292027Y-146600917D01*
X131284232Y-146599797D01*
X131176443Y-146631521D01*
X131165059Y-146636120D01*
X131000778Y-146722004D01*
X130990517Y-146728718D01*
X130846041Y-146844880D01*
X130837281Y-146853458D01*
X130718119Y-146995470D01*
X130711193Y-147005584D01*
X130621882Y-147168042D01*
X130617054Y-147179306D01*
X130560998Y-147356016D01*
X130558450Y-147368003D01*
X130542393Y-147511161D01*
X130542000Y-147518185D01*
X125805482Y-147518185D01*
X125800218Y-147510366D01*
X125793557Y-147502080D01*
X125665331Y-147367665D01*
X125632784Y-147304568D01*
X125639515Y-147233891D01*
X125683389Y-147178074D01*
X125721003Y-147159797D01*
X125789670Y-147139635D01*
X125789672Y-147139634D01*
X125798316Y-147137096D01*
X125836472Y-147112574D01*
X125913691Y-147062949D01*
X125913694Y-147062947D01*
X125921271Y-147058077D01*
X125961048Y-147012172D01*
X126011082Y-146954431D01*
X126011084Y-146954428D01*
X126016984Y-146947619D01*
X126077700Y-146814670D01*
X126084926Y-146764411D01*
X126097861Y-146674448D01*
X126097862Y-146674441D01*
X126098500Y-146670000D01*
X126098500Y-144970000D01*
X126093273Y-144896921D01*
X126065596Y-144802661D01*
X126054635Y-144765330D01*
X126054634Y-144765328D01*
X126052096Y-144756684D01*
X125990713Y-144661171D01*
X125977949Y-144641309D01*
X125977947Y-144641306D01*
X125973077Y-144633729D01*
X125930384Y-144596735D01*
X125869431Y-144543918D01*
X125869428Y-144543916D01*
X125862619Y-144538016D01*
X125780175Y-144500365D01*
X125737864Y-144481042D01*
X125737863Y-144481042D01*
X125729670Y-144477300D01*
X125720755Y-144476018D01*
X125720754Y-144476018D01*
X125589448Y-144457139D01*
X125589441Y-144457138D01*
X125585000Y-144456500D01*
X125579500Y-144456500D01*
X125579177Y-144456405D01*
X125576014Y-144456179D01*
X125576063Y-144455491D01*
X125511379Y-144436498D01*
X125464886Y-144382842D01*
X125453500Y-144330500D01*
X125453500Y-143748384D01*
X125454014Y-143737480D01*
X125455666Y-143730089D01*
X125453562Y-143663134D01*
X125453500Y-143659177D01*
X125453500Y-143630422D01*
X125452961Y-143626155D01*
X125452027Y-143614305D01*
X125450888Y-143578042D01*
X125450639Y-143570117D01*
X125444987Y-143550661D01*
X125440978Y-143531302D01*
X125439434Y-143519079D01*
X125439434Y-143519078D01*
X125438440Y-143511212D01*
X125433230Y-143498054D01*
X125422168Y-143470111D01*
X125418323Y-143458882D01*
X125408199Y-143424035D01*
X125408198Y-143424034D01*
X125405987Y-143416422D01*
X125395674Y-143398983D01*
X125386978Y-143381231D01*
X125382442Y-143369775D01*
X125379522Y-143362400D01*
X125353533Y-143326629D01*
X125347016Y-143316708D01*
X125327548Y-143283790D01*
X125324514Y-143278659D01*
X125324145Y-143278241D01*
X125310062Y-143264158D01*
X125297228Y-143249133D01*
X125285446Y-143232917D01*
X125251664Y-143204970D01*
X125242885Y-143196981D01*
X117830405Y-135784501D01*
X117796379Y-135722189D01*
X117793500Y-135695406D01*
X117793500Y-92585360D01*
X117813502Y-92517239D01*
X117867158Y-92470746D01*
X117937432Y-92460642D01*
X118002012Y-92490136D01*
X118018450Y-92507354D01*
X118049424Y-92546644D01*
X118053389Y-92550220D01*
X118216659Y-92697489D01*
X118216665Y-92697494D01*
X118220629Y-92701069D01*
X118415406Y-92824439D01*
X118628184Y-92913228D01*
X118633387Y-92914425D01*
X118633392Y-92914426D01*
X118847678Y-92963701D01*
X118847683Y-92963702D01*
X118852881Y-92964897D01*
X118858209Y-92965200D01*
X118858212Y-92965200D01*
X119014293Y-92974063D01*
X119083071Y-92977968D01*
X119088378Y-92977368D01*
X119088380Y-92977368D01*
X119209272Y-92963701D01*
X119312173Y-92952068D01*
X119317288Y-92950587D01*
X119317292Y-92950586D01*
X119446298Y-92913228D01*
X119533635Y-92887937D01*
X119741125Y-92787409D01*
X119745463Y-92784309D01*
X119745468Y-92784306D01*
X119924370Y-92656459D01*
X119928711Y-92653357D01*
X120091030Y-92489617D01*
X120094090Y-92485255D01*
X120094095Y-92485249D01*
X120212634Y-92316271D01*
X120268130Y-92271990D01*
X120338755Y-92264743D01*
X120402088Y-92296829D01*
X120426461Y-92328410D01*
X120446685Y-92365580D01*
X120589424Y-92546644D01*
X120593389Y-92550220D01*
X120756659Y-92697489D01*
X120756665Y-92697494D01*
X120760629Y-92701069D01*
X120955406Y-92824439D01*
X121168184Y-92913228D01*
X121173387Y-92914425D01*
X121173392Y-92914426D01*
X121387678Y-92963701D01*
X121387683Y-92963702D01*
X121392881Y-92964897D01*
X121398209Y-92965200D01*
X121398212Y-92965200D01*
X121554293Y-92974063D01*
X121623071Y-92977968D01*
X121628378Y-92977368D01*
X121628380Y-92977368D01*
X121749272Y-92963701D01*
X121852173Y-92952068D01*
X121857288Y-92950587D01*
X121857292Y-92950586D01*
X121986298Y-92913228D01*
X122073635Y-92887937D01*
X122281125Y-92787409D01*
X122285463Y-92784309D01*
X122285468Y-92784306D01*
X122464370Y-92656459D01*
X122468711Y-92653357D01*
X122631030Y-92489617D01*
X122721330Y-92360895D01*
X122760375Y-92305236D01*
X122760376Y-92305234D01*
X122763439Y-92300868D01*
X122862153Y-92092508D01*
X122924349Y-91870494D01*
X122948249Y-91641176D01*
X122948500Y-91615000D01*
X122929007Y-91385265D01*
X122871084Y-91162098D01*
X122776388Y-90951882D01*
X122647627Y-90760626D01*
X122619611Y-90731257D01*
X122538455Y-90646184D01*
X122488482Y-90593799D01*
X122303504Y-90456171D01*
X122298743Y-90453751D01*
X122295425Y-90451693D01*
X122248071Y-90398796D01*
X122236832Y-90328695D01*
X122265277Y-90263645D01*
X122288564Y-90242093D01*
X122370998Y-90183184D01*
X122468711Y-90113357D01*
X122631030Y-89949617D01*
X122721330Y-89820895D01*
X122760375Y-89765236D01*
X122760376Y-89765234D01*
X122763439Y-89760868D01*
X122862153Y-89552508D01*
X122924349Y-89330494D01*
X122948249Y-89101176D01*
X122948500Y-89075000D01*
X122929007Y-88845265D01*
X122911999Y-88779734D01*
X122872426Y-88627269D01*
X122871084Y-88622098D01*
X122855151Y-88586727D01*
X122778578Y-88416743D01*
X122778577Y-88416741D01*
X122776388Y-88411882D01*
X122647627Y-88220626D01*
X122619611Y-88191257D01*
X122492161Y-88057656D01*
X122488482Y-88053799D01*
X122303504Y-87916171D01*
X122298742Y-87913750D01*
X122294967Y-87911409D01*
X122247613Y-87858512D01*
X122236374Y-87788410D01*
X122264819Y-87723361D01*
X122288107Y-87701809D01*
X122464034Y-87576089D01*
X122472149Y-87569182D01*
X122626893Y-87413082D01*
X122633706Y-87404933D01*
X122759940Y-87224988D01*
X122765295Y-87215787D01*
X122859399Y-87017156D01*
X122863123Y-87007197D01*
X122920968Y-86800718D01*
X122919430Y-86792351D01*
X122907137Y-86789000D01*
X121457000Y-86789000D01*
X121388879Y-86768998D01*
X121342386Y-86715342D01*
X121331000Y-86663000D01*
X121331000Y-85218717D01*
X121330328Y-85216430D01*
X121839000Y-85216430D01*
X121839000Y-86262885D01*
X121843475Y-86278124D01*
X121844865Y-86279329D01*
X121852548Y-86281000D01*
X122904079Y-86281000D01*
X122917610Y-86277027D01*
X122918876Y-86268218D01*
X122871954Y-86087433D01*
X122868419Y-86077395D01*
X122778147Y-85876998D01*
X122772967Y-85867692D01*
X122650218Y-85685366D01*
X122643557Y-85677080D01*
X122491830Y-85518030D01*
X122483873Y-85510990D01*
X122307523Y-85379782D01*
X122298486Y-85374178D01*
X122102550Y-85274559D01*
X122092699Y-85270559D01*
X121882778Y-85205378D01*
X121872396Y-85203095D01*
X121856959Y-85201049D01*
X121842792Y-85203246D01*
X121839000Y-85216430D01*
X121330328Y-85216430D01*
X121327027Y-85205186D01*
X121316420Y-85203661D01*
X121198554Y-85228391D01*
X121188358Y-85231451D01*
X120983932Y-85312182D01*
X120974396Y-85316916D01*
X120786486Y-85430942D01*
X120777896Y-85437206D01*
X120611884Y-85581264D01*
X120604472Y-85588886D01*
X120602513Y-85591276D01*
X120601431Y-85592014D01*
X120600749Y-85592715D01*
X120600606Y-85592576D01*
X120543855Y-85631273D01*
X120472885Y-85633209D01*
X120412135Y-85596468D01*
X120384178Y-85546888D01*
X120364635Y-85480330D01*
X120364634Y-85480328D01*
X120362096Y-85471684D01*
X120345918Y-85446510D01*
X120338502Y-85434971D01*
X120318500Y-85366850D01*
X120318500Y-83767548D01*
X148042000Y-83767548D01*
X148042000Y-84014223D01*
X148042424Y-84021524D01*
X148056617Y-84143255D01*
X148059963Y-84157410D01*
X148115263Y-84309761D01*
X148121773Y-84322760D01*
X148210641Y-84458306D01*
X148219965Y-84469458D01*
X148337629Y-84580922D01*
X148349276Y-84589635D01*
X148489429Y-84671043D01*
X148502754Y-84676837D01*
X148658700Y-84724068D01*
X148671323Y-84726516D01*
X148741184Y-84732751D01*
X148746779Y-84733000D01*
X148777885Y-84733000D01*
X148793124Y-84728525D01*
X148794329Y-84727135D01*
X148796000Y-84719452D01*
X148796000Y-83772115D01*
X148791525Y-83756876D01*
X148790135Y-83755671D01*
X148782452Y-83754000D01*
X148060115Y-83754000D01*
X148044876Y-83758475D01*
X148043671Y-83759865D01*
X148042000Y-83767548D01*
X120318500Y-83767548D01*
X120318500Y-82971779D01*
X148042000Y-82971779D01*
X148042000Y-83227885D01*
X148046475Y-83243124D01*
X148047865Y-83244329D01*
X148055548Y-83246000D01*
X148777885Y-83246000D01*
X148793124Y-83241525D01*
X148794329Y-83240135D01*
X148796000Y-83232452D01*
X148796000Y-82285115D01*
X148791525Y-82269876D01*
X148790135Y-82268671D01*
X148782452Y-82267000D01*
X148760777Y-82267000D01*
X148753476Y-82267424D01*
X148631745Y-82281617D01*
X148617590Y-82284963D01*
X148465239Y-82340263D01*
X148452240Y-82346773D01*
X148316694Y-82435641D01*
X148305542Y-82444965D01*
X148194078Y-82562629D01*
X148185365Y-82574276D01*
X148103957Y-82714429D01*
X148098163Y-82727754D01*
X148050932Y-82883700D01*
X148048484Y-82896323D01*
X148042249Y-82966184D01*
X148042000Y-82971779D01*
X120318500Y-82971779D01*
X120318500Y-73247548D01*
X147447000Y-73247548D01*
X147447000Y-73977743D01*
X147447161Y-73982250D01*
X147451740Y-74046269D01*
X147454126Y-74059491D01*
X147490819Y-74184458D01*
X147498233Y-74200692D01*
X147567426Y-74308360D01*
X147579112Y-74321847D01*
X147675840Y-74405662D01*
X147690848Y-74415307D01*
X147807275Y-74468477D01*
X147824388Y-74473502D01*
X147955554Y-74492361D01*
X147964495Y-74493000D01*
X148437885Y-74493000D01*
X148453124Y-74488525D01*
X148454329Y-74487135D01*
X148456000Y-74479452D01*
X148456000Y-73252115D01*
X148451525Y-73236876D01*
X148450135Y-73235671D01*
X148442452Y-73234000D01*
X147465115Y-73234000D01*
X147449876Y-73238475D01*
X147448671Y-73239865D01*
X147447000Y-73247548D01*
X120318500Y-73247548D01*
X120318500Y-71984495D01*
X147447000Y-71984495D01*
X147447000Y-72707885D01*
X147451475Y-72723124D01*
X147452865Y-72724329D01*
X147460548Y-72726000D01*
X148437885Y-72726000D01*
X148453124Y-72721525D01*
X148454329Y-72720135D01*
X148456000Y-72712452D01*
X148456000Y-71485115D01*
X148451525Y-71469876D01*
X148450135Y-71468671D01*
X148442452Y-71467000D01*
X147962257Y-71467000D01*
X147957750Y-71467161D01*
X147893731Y-71471740D01*
X147880509Y-71474126D01*
X147755542Y-71510819D01*
X147739308Y-71518233D01*
X147631640Y-71587426D01*
X147618153Y-71599112D01*
X147534338Y-71695840D01*
X147524693Y-71710848D01*
X147471523Y-71827275D01*
X147466498Y-71844388D01*
X147447639Y-71975554D01*
X147447000Y-71984495D01*
X120318500Y-71984495D01*
X120318500Y-69747548D01*
X148092000Y-69747548D01*
X148092000Y-69994223D01*
X148092424Y-70001524D01*
X148106617Y-70123255D01*
X148109963Y-70137410D01*
X148165263Y-70289761D01*
X148171773Y-70302760D01*
X148260641Y-70438306D01*
X148269965Y-70449458D01*
X148387629Y-70560922D01*
X148399276Y-70569635D01*
X148539429Y-70651043D01*
X148552754Y-70656837D01*
X148708700Y-70704068D01*
X148721323Y-70706516D01*
X148791184Y-70712751D01*
X148796779Y-70713000D01*
X148827885Y-70713000D01*
X148843124Y-70708525D01*
X148844329Y-70707135D01*
X148846000Y-70699452D01*
X148846000Y-69752115D01*
X148841525Y-69736876D01*
X148840135Y-69735671D01*
X148832452Y-69734000D01*
X148110115Y-69734000D01*
X148094876Y-69738475D01*
X148093671Y-69739865D01*
X148092000Y-69747548D01*
X120318500Y-69747548D01*
X120318500Y-68951779D01*
X148092000Y-68951779D01*
X148092000Y-69207885D01*
X148096475Y-69223124D01*
X148097865Y-69224329D01*
X148105548Y-69226000D01*
X148827885Y-69226000D01*
X148843124Y-69221525D01*
X148844329Y-69220135D01*
X148846000Y-69212452D01*
X148846000Y-68265115D01*
X148841525Y-68249876D01*
X148840135Y-68248671D01*
X148832452Y-68247000D01*
X148810777Y-68247000D01*
X148803476Y-68247424D01*
X148681745Y-68261617D01*
X148667590Y-68264963D01*
X148515239Y-68320263D01*
X148502240Y-68326773D01*
X148366694Y-68415641D01*
X148355542Y-68424965D01*
X148244078Y-68542629D01*
X148235365Y-68554276D01*
X148153957Y-68694429D01*
X148148163Y-68707754D01*
X148100932Y-68863700D01*
X148098484Y-68876323D01*
X148092249Y-68946184D01*
X148092000Y-68951779D01*
X120318500Y-68951779D01*
X120318500Y-59917548D01*
X132082000Y-59917548D01*
X132082000Y-63317743D01*
X132082161Y-63322250D01*
X132086740Y-63386269D01*
X132089126Y-63399491D01*
X132125819Y-63524458D01*
X132133233Y-63540692D01*
X132202426Y-63648360D01*
X132214112Y-63661847D01*
X132310840Y-63745662D01*
X132325848Y-63755307D01*
X132442275Y-63808477D01*
X132459388Y-63813502D01*
X132590554Y-63832361D01*
X132599495Y-63833000D01*
X135497885Y-63833000D01*
X135513124Y-63828525D01*
X135514329Y-63827135D01*
X135516000Y-63819452D01*
X135516000Y-59922115D01*
X135514659Y-59917548D01*
X136024000Y-59917548D01*
X136024000Y-63814885D01*
X136028475Y-63830124D01*
X136029865Y-63831329D01*
X136037548Y-63833000D01*
X138942743Y-63833000D01*
X138947250Y-63832839D01*
X139011269Y-63828260D01*
X139024491Y-63825874D01*
X139149458Y-63789181D01*
X139165692Y-63781767D01*
X139273360Y-63712574D01*
X139286847Y-63700888D01*
X139370662Y-63604160D01*
X139380307Y-63589152D01*
X139433477Y-63472725D01*
X139438502Y-63455612D01*
X139457361Y-63324446D01*
X139458000Y-63315503D01*
X139458000Y-59922115D01*
X139453525Y-59906876D01*
X139452135Y-59905671D01*
X139444452Y-59904000D01*
X136042115Y-59904000D01*
X136026876Y-59908475D01*
X136025671Y-59909865D01*
X136024000Y-59917548D01*
X135514659Y-59917548D01*
X135511525Y-59906876D01*
X135510135Y-59905671D01*
X135502452Y-59904000D01*
X132100115Y-59904000D01*
X132084876Y-59908475D01*
X132083671Y-59909865D01*
X132082000Y-59917548D01*
X120318500Y-59917548D01*
X120318500Y-57154500D01*
X120338502Y-57086379D01*
X120392158Y-57039886D01*
X120444500Y-57028500D01*
X120535000Y-57028500D01*
X120608079Y-57023273D01*
X120686165Y-57000345D01*
X120739670Y-56984635D01*
X120739672Y-56984634D01*
X120748316Y-56982096D01*
X120814721Y-56939420D01*
X120863691Y-56907949D01*
X120863694Y-56907947D01*
X120871271Y-56903077D01*
X120896086Y-56874439D01*
X120961082Y-56799431D01*
X120961084Y-56799428D01*
X120966984Y-56792619D01*
X121027700Y-56659670D01*
X121028320Y-56655360D01*
X121065432Y-56597610D01*
X121130012Y-56568117D01*
X121200286Y-56578220D01*
X121232335Y-56599270D01*
X121400629Y-56751069D01*
X121595406Y-56874439D01*
X121808184Y-56963228D01*
X121813387Y-56964425D01*
X121813392Y-56964426D01*
X122027678Y-57013701D01*
X122027683Y-57013702D01*
X122032881Y-57014897D01*
X122038209Y-57015200D01*
X122038212Y-57015200D01*
X122188877Y-57023755D01*
X122263071Y-57027968D01*
X122268378Y-57027368D01*
X122268380Y-57027368D01*
X122442354Y-57007700D01*
X122492173Y-57002068D01*
X122497288Y-57000587D01*
X122497292Y-57000586D01*
X122626298Y-56963228D01*
X122713635Y-56937937D01*
X122921125Y-56837409D01*
X122925463Y-56834309D01*
X122925468Y-56834306D01*
X123104370Y-56706459D01*
X123108711Y-56703357D01*
X123271030Y-56539617D01*
X123274090Y-56535255D01*
X123274095Y-56535249D01*
X123392634Y-56366271D01*
X123448130Y-56321990D01*
X123518755Y-56314743D01*
X123582088Y-56346829D01*
X123606461Y-56378410D01*
X123626685Y-56415580D01*
X123769424Y-56596644D01*
X123773389Y-56600220D01*
X123936659Y-56747489D01*
X123936665Y-56747494D01*
X123940629Y-56751069D01*
X124135406Y-56874439D01*
X124348184Y-56963228D01*
X124353387Y-56964425D01*
X124353392Y-56964426D01*
X124567678Y-57013701D01*
X124567683Y-57013702D01*
X124572881Y-57014897D01*
X124578209Y-57015200D01*
X124578212Y-57015200D01*
X124728877Y-57023755D01*
X124803071Y-57027968D01*
X124808378Y-57027368D01*
X124808380Y-57027368D01*
X124982354Y-57007700D01*
X125032173Y-57002068D01*
X125037288Y-57000587D01*
X125037292Y-57000586D01*
X125166298Y-56963228D01*
X125253635Y-56937937D01*
X125461125Y-56837409D01*
X125465463Y-56834309D01*
X125465468Y-56834306D01*
X125644370Y-56706459D01*
X125648711Y-56703357D01*
X125811030Y-56539617D01*
X125901330Y-56410895D01*
X125940375Y-56355236D01*
X125940376Y-56355234D01*
X125943439Y-56350868D01*
X126042153Y-56142508D01*
X126086419Y-55984495D01*
X132082000Y-55984495D01*
X132082000Y-59377885D01*
X132086475Y-59393124D01*
X132087865Y-59394329D01*
X132095548Y-59396000D01*
X135497885Y-59396000D01*
X135513124Y-59391525D01*
X135514329Y-59390135D01*
X135516000Y-59382452D01*
X135516000Y-55485115D01*
X135514659Y-55480548D01*
X136024000Y-55480548D01*
X136024000Y-59377885D01*
X136028475Y-59393124D01*
X136029865Y-59394329D01*
X136037548Y-59396000D01*
X139439885Y-59396000D01*
X139455124Y-59391525D01*
X139456329Y-59390135D01*
X139458000Y-59382452D01*
X139458000Y-55982257D01*
X139457839Y-55977750D01*
X139453260Y-55913731D01*
X139450874Y-55900509D01*
X139414181Y-55775542D01*
X139406767Y-55759308D01*
X139337574Y-55651640D01*
X139325888Y-55638153D01*
X139229160Y-55554338D01*
X139214152Y-55544693D01*
X139097725Y-55491523D01*
X139080612Y-55486498D01*
X138949446Y-55467639D01*
X138940505Y-55467000D01*
X136042115Y-55467000D01*
X136026876Y-55471475D01*
X136025671Y-55472865D01*
X136024000Y-55480548D01*
X135514659Y-55480548D01*
X135511525Y-55469876D01*
X135510135Y-55468671D01*
X135502452Y-55467000D01*
X132597257Y-55467000D01*
X132592750Y-55467161D01*
X132528731Y-55471740D01*
X132515509Y-55474126D01*
X132390542Y-55510819D01*
X132374308Y-55518233D01*
X132266640Y-55587426D01*
X132253153Y-55599112D01*
X132169338Y-55695840D01*
X132159693Y-55710848D01*
X132106523Y-55827275D01*
X132101498Y-55844388D01*
X132082639Y-55975554D01*
X132082000Y-55984495D01*
X126086419Y-55984495D01*
X126104349Y-55920494D01*
X126128249Y-55691176D01*
X126128500Y-55665000D01*
X126128250Y-55662052D01*
X126109458Y-55440576D01*
X126109457Y-55440572D01*
X126109007Y-55435265D01*
X126107668Y-55430105D01*
X126107668Y-55430104D01*
X126069005Y-55281143D01*
X126071252Y-55210182D01*
X126111507Y-55151701D01*
X126176989Y-55124266D01*
X126190964Y-55123489D01*
X145355395Y-55123489D01*
X145423516Y-55143491D01*
G37*
%TD.AperFunction*%
%TA.AperFunction,Conductor*%
G36*
X152197173Y-123993791D02*
G01*
X152232959Y-124018863D01*
X152606699Y-124392604D01*
X152979596Y-124765501D01*
X153013621Y-124827813D01*
X153016500Y-124854596D01*
X153016500Y-132165406D01*
X152996498Y-132233527D01*
X152979595Y-132254501D01*
X151639501Y-133594595D01*
X151577189Y-133628621D01*
X151550406Y-133631500D01*
X151130000Y-133631500D01*
X151083500Y-133634826D01*
X151014126Y-133619735D01*
X150963924Y-133569533D01*
X150948511Y-133509147D01*
X150948511Y-130839109D01*
X150949025Y-130828195D01*
X150950678Y-130820802D01*
X150948573Y-130753828D01*
X150948511Y-130749871D01*
X150948511Y-130721135D01*
X150947972Y-130716864D01*
X150947039Y-130705026D01*
X150946018Y-130672523D01*
X150945650Y-130660830D01*
X150939998Y-130641374D01*
X150935989Y-130622015D01*
X150934445Y-130609792D01*
X150934445Y-130609791D01*
X150933451Y-130601925D01*
X150924828Y-130580144D01*
X150915980Y-130533763D01*
X150915980Y-130307548D01*
X151374000Y-130307548D01*
X151374000Y-131229885D01*
X151378475Y-131245124D01*
X151379865Y-131246329D01*
X151387548Y-131248000D01*
X151421723Y-131248000D01*
X151429024Y-131247576D01*
X151550755Y-131233383D01*
X151564910Y-131230037D01*
X151717261Y-131174737D01*
X151730260Y-131168227D01*
X151865806Y-131079359D01*
X151876958Y-131070035D01*
X151988422Y-130952371D01*
X151997135Y-130940724D01*
X152078543Y-130800571D01*
X152084337Y-130787246D01*
X152131568Y-130631300D01*
X152134016Y-130618677D01*
X152140251Y-130548816D01*
X152140500Y-130543221D01*
X152140500Y-130312115D01*
X152136025Y-130296876D01*
X152134635Y-130295671D01*
X152126952Y-130294000D01*
X151392115Y-130294000D01*
X151376876Y-130298475D01*
X151375671Y-130299865D01*
X151374000Y-130307548D01*
X150915980Y-130307548D01*
X150915980Y-128845548D01*
X151374000Y-128845548D01*
X151374000Y-129767885D01*
X151378475Y-129783124D01*
X151379865Y-129784329D01*
X151387548Y-129786000D01*
X152122385Y-129786000D01*
X152137624Y-129781525D01*
X152138829Y-129780135D01*
X152140500Y-129772452D01*
X152140500Y-129550777D01*
X152140076Y-129543476D01*
X152125883Y-129421745D01*
X152122537Y-129407590D01*
X152067237Y-129255239D01*
X152060727Y-129242240D01*
X151971859Y-129106694D01*
X151962535Y-129095542D01*
X151844871Y-128984078D01*
X151833224Y-128975365D01*
X151693071Y-128893957D01*
X151679746Y-128888163D01*
X151523800Y-128840932D01*
X151511177Y-128838484D01*
X151441316Y-128832249D01*
X151435721Y-128832000D01*
X151392115Y-128832000D01*
X151376876Y-128836475D01*
X151375671Y-128837865D01*
X151374000Y-128845548D01*
X150915980Y-128845548D01*
X150915980Y-127924500D01*
X150935982Y-127856379D01*
X150989638Y-127809886D01*
X151041980Y-127798500D01*
X151410386Y-127798500D01*
X151505606Y-127787398D01*
X151535871Y-127783870D01*
X151535872Y-127783870D01*
X151543143Y-127783022D01*
X151550021Y-127780526D01*
X151550023Y-127780525D01*
X151702485Y-127725184D01*
X151709364Y-127722687D01*
X151857247Y-127625731D01*
X151978858Y-127497355D01*
X152067675Y-127344445D01*
X152118933Y-127175204D01*
X152126000Y-127096022D01*
X152126000Y-126097114D01*
X152110522Y-125964357D01*
X152050187Y-125798136D01*
X151953231Y-125650253D01*
X151824855Y-125528642D01*
X151671945Y-125439825D01*
X151502704Y-125388567D01*
X151496264Y-125387992D01*
X151496263Y-125387992D01*
X151426315Y-125381749D01*
X151426309Y-125381749D01*
X151423522Y-125381500D01*
X150799614Y-125381500D01*
X150704394Y-125392602D01*
X150674129Y-125396130D01*
X150674128Y-125396130D01*
X150666857Y-125396978D01*
X150659979Y-125399474D01*
X150659977Y-125399475D01*
X150555862Y-125437267D01*
X150500636Y-125457313D01*
X150352753Y-125554269D01*
X150347721Y-125559581D01*
X150285294Y-125625480D01*
X150223924Y-125661178D01*
X150152998Y-125658030D01*
X150107168Y-125630300D01*
X150005169Y-125533676D01*
X149999855Y-125528642D01*
X149901214Y-125471347D01*
X149852356Y-125419836D01*
X149838500Y-125362393D01*
X149838500Y-124498175D01*
X149858502Y-124430054D01*
X149895415Y-124392804D01*
X149934488Y-124367186D01*
X149939520Y-124361874D01*
X149939525Y-124361870D01*
X150051453Y-124243717D01*
X150112822Y-124208019D01*
X150183749Y-124211167D01*
X150241714Y-124252161D01*
X150248292Y-124261278D01*
X150255314Y-124271988D01*
X150382639Y-124392604D01*
X150388966Y-124396279D01*
X150388970Y-124396282D01*
X150527966Y-124477017D01*
X150527968Y-124477018D01*
X150534297Y-124480694D01*
X150702153Y-124531532D01*
X150708589Y-124532106D01*
X150708592Y-124532107D01*
X150777434Y-124538251D01*
X150777440Y-124538251D01*
X150780227Y-124538500D01*
X151366637Y-124538500D01*
X151459377Y-124527688D01*
X151490683Y-124524038D01*
X151490684Y-124524038D01*
X151497955Y-124523190D01*
X151504832Y-124520694D01*
X151504835Y-124520693D01*
X151655937Y-124465845D01*
X151662816Y-124463348D01*
X151788095Y-124381212D01*
X151803369Y-124371198D01*
X151803370Y-124371197D01*
X151809488Y-124367186D01*
X151930104Y-124239861D01*
X151933779Y-124233534D01*
X151933782Y-124233530D01*
X152014517Y-124094534D01*
X152014518Y-124094532D01*
X152018194Y-124088203D01*
X152020315Y-124081200D01*
X152020318Y-124081193D01*
X152023272Y-124071438D01*
X152062159Y-124012039D01*
X152126987Y-123983093D01*
X152197173Y-123993791D01*
G37*
%TD.AperFunction*%
%TA.AperFunction,Conductor*%
G36*
X154518735Y-50010415D02*
G01*
X154519159Y-50010599D01*
X154530222Y-50016058D01*
X154591971Y-50050395D01*
X154602025Y-50055986D01*
X154612950Y-50062816D01*
X154674495Y-50105823D01*
X154685178Y-50114180D01*
X154705750Y-50132139D01*
X154739253Y-50161386D01*
X154748659Y-50170500D01*
X154786634Y-50211336D01*
X154797761Y-50223302D01*
X154806222Y-50233414D01*
X154815522Y-50245791D01*
X154824187Y-50257324D01*
X154850733Y-50292655D01*
X154857736Y-50303007D01*
X154887307Y-50351778D01*
X154887307Y-50351779D01*
X154898567Y-50370351D01*
X154904350Y-50381016D01*
X154941484Y-50458143D01*
X154945815Y-50468243D01*
X154979144Y-50556397D01*
X154979271Y-50556733D01*
X154982512Y-50566493D01*
X154995099Y-50610295D01*
X155000000Y-50645094D01*
X155000000Y-83945500D01*
X154979998Y-84013621D01*
X154926342Y-84060114D01*
X154874000Y-84071500D01*
X154755000Y-84071500D01*
X154681921Y-84076727D01*
X154628884Y-84092300D01*
X154550330Y-84115365D01*
X154550328Y-84115366D01*
X154541684Y-84117904D01*
X154516702Y-84133959D01*
X154426309Y-84192051D01*
X154426306Y-84192053D01*
X154418729Y-84196923D01*
X154412828Y-84203733D01*
X154328918Y-84300569D01*
X154328916Y-84300572D01*
X154323016Y-84307381D01*
X154262300Y-84440330D01*
X154261018Y-84449245D01*
X154261018Y-84449246D01*
X154242139Y-84580552D01*
X154242138Y-84580559D01*
X154241500Y-84585000D01*
X154241500Y-85385000D01*
X154245075Y-85434971D01*
X154245900Y-85446510D01*
X154230809Y-85515884D01*
X154180608Y-85566087D01*
X154120221Y-85581500D01*
X153605000Y-85581500D01*
X153531921Y-85586727D01*
X153453835Y-85609655D01*
X153400330Y-85625365D01*
X153400328Y-85625366D01*
X153391684Y-85627904D01*
X153353528Y-85652426D01*
X153276309Y-85702051D01*
X153276306Y-85702053D01*
X153268729Y-85706923D01*
X153262828Y-85713733D01*
X153178918Y-85810569D01*
X153178916Y-85810572D01*
X153173016Y-85817381D01*
X153112300Y-85950330D01*
X153111018Y-85959245D01*
X153111018Y-85959246D01*
X153092139Y-86090552D01*
X153092138Y-86090559D01*
X153091500Y-86095000D01*
X153091500Y-86995000D01*
X153096727Y-87068079D01*
X153137904Y-87208316D01*
X153142775Y-87215895D01*
X153212051Y-87323691D01*
X153212053Y-87323694D01*
X153216923Y-87331271D01*
X153223733Y-87337172D01*
X153320569Y-87421082D01*
X153320572Y-87421084D01*
X153327381Y-87426984D01*
X153335579Y-87430728D01*
X153445272Y-87480823D01*
X153460330Y-87487700D01*
X153469245Y-87488982D01*
X153469246Y-87488982D01*
X153600552Y-87507861D01*
X153600559Y-87507862D01*
X153605000Y-87508500D01*
X154855000Y-87508500D01*
X154863934Y-87507861D01*
X154865011Y-87507784D01*
X154934385Y-87522875D01*
X154984588Y-87573078D01*
X155000000Y-87633463D01*
X155000000Y-88456936D01*
X154979998Y-88525057D01*
X154926342Y-88571550D01*
X154864086Y-88580492D01*
X154863945Y-88582461D01*
X154859447Y-88582139D01*
X154855000Y-88581500D01*
X153605000Y-88581500D01*
X153531921Y-88586727D01*
X153478884Y-88602300D01*
X153400330Y-88625365D01*
X153400328Y-88625366D01*
X153391684Y-88627904D01*
X153384106Y-88632774D01*
X153384104Y-88632775D01*
X153271414Y-88705197D01*
X153203293Y-88725199D01*
X153135172Y-88705197D01*
X153114198Y-88688294D01*
X151670405Y-87244501D01*
X151636379Y-87182189D01*
X151633500Y-87155406D01*
X151633500Y-84665544D01*
X151653502Y-84597423D01*
X151678679Y-84568880D01*
X151683625Y-84564745D01*
X151689747Y-84560731D01*
X151811358Y-84432355D01*
X151875016Y-84322760D01*
X151896498Y-84285776D01*
X151896499Y-84285774D01*
X151900175Y-84279445D01*
X151902296Y-84272442D01*
X151902299Y-84272435D01*
X151918019Y-84220532D01*
X151956908Y-84161134D01*
X152021737Y-84132191D01*
X152034648Y-84131118D01*
X152041959Y-84130888D01*
X152049883Y-84130639D01*
X152069334Y-84124988D01*
X152088695Y-84120978D01*
X152091420Y-84120634D01*
X152100930Y-84119433D01*
X152100933Y-84119432D01*
X152108788Y-84118440D01*
X152116153Y-84115524D01*
X152116157Y-84115523D01*
X152149901Y-84102163D01*
X152161130Y-84098318D01*
X152203578Y-84085986D01*
X152216015Y-84078631D01*
X152221011Y-84075677D01*
X152238762Y-84066981D01*
X152250226Y-84062442D01*
X152250229Y-84062440D01*
X152257600Y-84059522D01*
X152293368Y-84033535D01*
X152303291Y-84027016D01*
X152312578Y-84021524D01*
X152341341Y-84004514D01*
X152341759Y-84004145D01*
X152355842Y-83990062D01*
X152370867Y-83977228D01*
X152387083Y-83965446D01*
X152415030Y-83931664D01*
X152423019Y-83922885D01*
X153902513Y-82443391D01*
X153910601Y-82436031D01*
X153916995Y-82431973D01*
X153962870Y-82383121D01*
X153965624Y-82380280D01*
X153985938Y-82359966D01*
X153988583Y-82356555D01*
X153996289Y-82347533D01*
X153997423Y-82346326D01*
X154026557Y-82315301D01*
X154030376Y-82308355D01*
X154036318Y-82297547D01*
X154047172Y-82281023D01*
X154054725Y-82271286D01*
X154054725Y-82271285D01*
X154059583Y-82265023D01*
X154077142Y-82224447D01*
X154082363Y-82213790D01*
X154103662Y-82175048D01*
X154105635Y-82167364D01*
X154108699Y-82155432D01*
X154115103Y-82136728D01*
X154119999Y-82125415D01*
X154120001Y-82125408D01*
X154123148Y-82118136D01*
X154130065Y-82074465D01*
X154132472Y-82062844D01*
X154141987Y-82025782D01*
X154141987Y-82025781D01*
X154143465Y-82020025D01*
X154143500Y-82019469D01*
X154143500Y-81999548D01*
X154145051Y-81979838D01*
X154146944Y-81967886D01*
X154146944Y-81967885D01*
X154148184Y-81960056D01*
X154144059Y-81916417D01*
X154143500Y-81904560D01*
X154143500Y-74579536D01*
X154163502Y-74511415D01*
X154217158Y-74464922D01*
X154234001Y-74458640D01*
X154244724Y-74455491D01*
X154273316Y-74447096D01*
X154337788Y-74405662D01*
X154388691Y-74372949D01*
X154388694Y-74372947D01*
X154396271Y-74368077D01*
X154436330Y-74321847D01*
X154486082Y-74264431D01*
X154486084Y-74264428D01*
X154491984Y-74257619D01*
X154552700Y-74124670D01*
X154563972Y-74046269D01*
X154572861Y-73984448D01*
X154572862Y-73984441D01*
X154573500Y-73980000D01*
X154573500Y-71980000D01*
X154568273Y-71906921D01*
X154527096Y-71766684D01*
X154481567Y-71695840D01*
X154452949Y-71651309D01*
X154452947Y-71651306D01*
X154448077Y-71643729D01*
X154441267Y-71637828D01*
X154344431Y-71553918D01*
X154344428Y-71553916D01*
X154337619Y-71548016D01*
X154204670Y-71487300D01*
X154195755Y-71486018D01*
X154195754Y-71486018D01*
X154064448Y-71467139D01*
X154064441Y-71467138D01*
X154060000Y-71466500D01*
X152560000Y-71466500D01*
X152486921Y-71471727D01*
X152433884Y-71487300D01*
X152355330Y-71510365D01*
X152355328Y-71510366D01*
X152346684Y-71512904D01*
X152339106Y-71517774D01*
X152339104Y-71517775D01*
X152225314Y-71590904D01*
X152157193Y-71610906D01*
X152089072Y-71590904D01*
X152074680Y-71580130D01*
X152044430Y-71553918D01*
X152037619Y-71548016D01*
X151904670Y-71487300D01*
X151895755Y-71486018D01*
X151895754Y-71486018D01*
X151857708Y-71480548D01*
X151760000Y-71466500D01*
X151759551Y-71466500D01*
X151693991Y-71442047D01*
X151651444Y-71385211D01*
X151643500Y-71341179D01*
X151643500Y-70671890D01*
X151663502Y-70603769D01*
X151700415Y-70566518D01*
X151733628Y-70544743D01*
X151733629Y-70544742D01*
X151739747Y-70540731D01*
X151861358Y-70412355D01*
X151950175Y-70259445D01*
X152001433Y-70090204D01*
X152008500Y-70011022D01*
X152008500Y-68962114D01*
X151993022Y-68829357D01*
X151948883Y-68707754D01*
X151935184Y-68670015D01*
X151932687Y-68663136D01*
X151856968Y-68547645D01*
X151839743Y-68521372D01*
X151839742Y-68521371D01*
X151835731Y-68515253D01*
X151707355Y-68393642D01*
X151701027Y-68389966D01*
X151701021Y-68389962D01*
X151696212Y-68387169D01*
X151647355Y-68335657D01*
X151633500Y-68278217D01*
X151633500Y-63118383D01*
X151634014Y-63107479D01*
X151635666Y-63100088D01*
X151633562Y-63033134D01*
X151633500Y-63029176D01*
X151633500Y-63000422D01*
X151632961Y-62996155D01*
X151632027Y-62984305D01*
X151630888Y-62948040D01*
X151630639Y-62940117D01*
X151624988Y-62920666D01*
X151620978Y-62901304D01*
X151619433Y-62889073D01*
X151618440Y-62881212D01*
X151602166Y-62840108D01*
X151598321Y-62828878D01*
X151588198Y-62794034D01*
X151588197Y-62794032D01*
X151585986Y-62786421D01*
X151575677Y-62768989D01*
X151566980Y-62751236D01*
X151562442Y-62739775D01*
X151559522Y-62732400D01*
X151533531Y-62696626D01*
X151527016Y-62686707D01*
X151507529Y-62653758D01*
X151507527Y-62653755D01*
X151504513Y-62648659D01*
X151504145Y-62648241D01*
X151490062Y-62634158D01*
X151477228Y-62619133D01*
X151465446Y-62602917D01*
X151431664Y-62574970D01*
X151422885Y-62566981D01*
X147515405Y-58659501D01*
X147481379Y-58597189D01*
X147478500Y-58570406D01*
X147478500Y-57154500D01*
X147498502Y-57086379D01*
X147552158Y-57039886D01*
X147604500Y-57028500D01*
X147695000Y-57028500D01*
X147768079Y-57023273D01*
X147846165Y-57000345D01*
X147899670Y-56984635D01*
X147899672Y-56984634D01*
X147908316Y-56982096D01*
X147974721Y-56939420D01*
X148023691Y-56907949D01*
X148023694Y-56907947D01*
X148031271Y-56903077D01*
X148056086Y-56874439D01*
X148121082Y-56799431D01*
X148121084Y-56799428D01*
X148126984Y-56792619D01*
X148187700Y-56659670D01*
X148188320Y-56655360D01*
X148225432Y-56597610D01*
X148290012Y-56568117D01*
X148360286Y-56578220D01*
X148392335Y-56599270D01*
X148560629Y-56751069D01*
X148755406Y-56874439D01*
X148968184Y-56963228D01*
X148973387Y-56964425D01*
X148973392Y-56964426D01*
X149187678Y-57013701D01*
X149187683Y-57013702D01*
X149192881Y-57014897D01*
X149198209Y-57015200D01*
X149198212Y-57015200D01*
X149348877Y-57023755D01*
X149423071Y-57027968D01*
X149428378Y-57027368D01*
X149428380Y-57027368D01*
X149602354Y-57007700D01*
X149652173Y-57002068D01*
X149657288Y-57000587D01*
X149657292Y-57000586D01*
X149786298Y-56963228D01*
X149873635Y-56937937D01*
X150081125Y-56837409D01*
X150085463Y-56834309D01*
X150085468Y-56834306D01*
X150264370Y-56706459D01*
X150268711Y-56703357D01*
X150431030Y-56539617D01*
X150434090Y-56535255D01*
X150434095Y-56535249D01*
X150552634Y-56366271D01*
X150608130Y-56321990D01*
X150678755Y-56314743D01*
X150742088Y-56346829D01*
X150766461Y-56378410D01*
X150786685Y-56415580D01*
X150929424Y-56596644D01*
X150933389Y-56600220D01*
X151096659Y-56747489D01*
X151096665Y-56747494D01*
X151100629Y-56751069D01*
X151295406Y-56874439D01*
X151508184Y-56963228D01*
X151513387Y-56964425D01*
X151513392Y-56964426D01*
X151727678Y-57013701D01*
X151727683Y-57013702D01*
X151732881Y-57014897D01*
X151738209Y-57015200D01*
X151738212Y-57015200D01*
X151888877Y-57023755D01*
X151963071Y-57027968D01*
X151968378Y-57027368D01*
X151968380Y-57027368D01*
X152142354Y-57007700D01*
X152192173Y-57002068D01*
X152197288Y-57000587D01*
X152197292Y-57000586D01*
X152326298Y-56963228D01*
X152413635Y-56937937D01*
X152621125Y-56837409D01*
X152625463Y-56834309D01*
X152625468Y-56834306D01*
X152804370Y-56706459D01*
X152808711Y-56703357D01*
X152971030Y-56539617D01*
X153061330Y-56410895D01*
X153100375Y-56355236D01*
X153100376Y-56355234D01*
X153103439Y-56350868D01*
X153202153Y-56142508D01*
X153264349Y-55920494D01*
X153288249Y-55691176D01*
X153288500Y-55665000D01*
X153288250Y-55662052D01*
X153269458Y-55440576D01*
X153269457Y-55440572D01*
X153269007Y-55435265D01*
X153267668Y-55430104D01*
X153220816Y-55249594D01*
X153211084Y-55212098D01*
X153187841Y-55160499D01*
X153118578Y-55006743D01*
X153118577Y-55006741D01*
X153116388Y-55001882D01*
X153105338Y-54985468D01*
X153085686Y-54956278D01*
X152987627Y-54810626D01*
X152828482Y-54643799D01*
X152643504Y-54506171D01*
X152638743Y-54503751D01*
X152635425Y-54501693D01*
X152588071Y-54448796D01*
X152576832Y-54378695D01*
X152605277Y-54313645D01*
X152628564Y-54292093D01*
X152640931Y-54283255D01*
X152808711Y-54163357D01*
X152971030Y-53999617D01*
X153055103Y-53879771D01*
X153100375Y-53815236D01*
X153100376Y-53815234D01*
X153103439Y-53810868D01*
X153120786Y-53774254D01*
X153180611Y-53647977D01*
X153202153Y-53602508D01*
X153264349Y-53380494D01*
X153265692Y-53367614D01*
X153271147Y-53315263D01*
X153288249Y-53151176D01*
X153288500Y-53125000D01*
X153288250Y-53122052D01*
X153269458Y-52900576D01*
X153269457Y-52900572D01*
X153269007Y-52895265D01*
X153211084Y-52672098D01*
X153116388Y-52461882D01*
X152987627Y-52270626D01*
X152828482Y-52103799D01*
X152643504Y-51966171D01*
X152638753Y-51963755D01*
X152638749Y-51963753D01*
X152442740Y-51864097D01*
X152442739Y-51864097D01*
X152437982Y-51861678D01*
X152327887Y-51827492D01*
X152222895Y-51794891D01*
X152222889Y-51794890D01*
X152217792Y-51793307D01*
X152112798Y-51779391D01*
X151994515Y-51763714D01*
X151994510Y-51763714D01*
X151989230Y-51763014D01*
X151983900Y-51763214D01*
X151983899Y-51763214D01*
X151874030Y-51767339D01*
X151758831Y-51771663D01*
X151676368Y-51788966D01*
X151538411Y-51817912D01*
X151538408Y-51817913D01*
X151533184Y-51819009D01*
X151318740Y-51903697D01*
X151121631Y-52023306D01*
X151117601Y-52026803D01*
X151002672Y-52126533D01*
X150947492Y-52174415D01*
X150944109Y-52178541D01*
X150944105Y-52178545D01*
X150871768Y-52266767D01*
X150801304Y-52352705D01*
X150798667Y-52357338D01*
X150798666Y-52357339D01*
X150765116Y-52416278D01*
X150714033Y-52465584D01*
X150644402Y-52479445D01*
X150578332Y-52453461D01*
X150551094Y-52424312D01*
X150548358Y-52420247D01*
X150450818Y-52275366D01*
X150450607Y-52275052D01*
X150450605Y-52275050D01*
X150447627Y-52270626D01*
X150288482Y-52103799D01*
X150103504Y-51966171D01*
X150098753Y-51963755D01*
X150098749Y-51963753D01*
X149902740Y-51864097D01*
X149902739Y-51864097D01*
X149897982Y-51861678D01*
X149787887Y-51827492D01*
X149682895Y-51794891D01*
X149682889Y-51794890D01*
X149677792Y-51793307D01*
X149572798Y-51779391D01*
X149454515Y-51763714D01*
X149454510Y-51763714D01*
X149449230Y-51763014D01*
X149443900Y-51763214D01*
X149443899Y-51763214D01*
X149334030Y-51767339D01*
X149218831Y-51771663D01*
X149136368Y-51788966D01*
X148998411Y-51817912D01*
X148998408Y-51817913D01*
X148993184Y-51819009D01*
X148778740Y-51903697D01*
X148581631Y-52023306D01*
X148577601Y-52026803D01*
X148462672Y-52126533D01*
X148407492Y-52174415D01*
X148404109Y-52178541D01*
X148404105Y-52178545D01*
X148331768Y-52266767D01*
X148261304Y-52352705D01*
X148225657Y-52415328D01*
X148224842Y-52416760D01*
X148173760Y-52466066D01*
X148104130Y-52479928D01*
X148038059Y-52453945D01*
X148010820Y-52424795D01*
X147910218Y-52275366D01*
X147903557Y-52267080D01*
X147751830Y-52108030D01*
X147743873Y-52100990D01*
X147567523Y-51969782D01*
X147558486Y-51964178D01*
X147362550Y-51864559D01*
X147352699Y-51860559D01*
X147142778Y-51795378D01*
X147132396Y-51793095D01*
X147116959Y-51791049D01*
X147102792Y-51793246D01*
X147099000Y-51806430D01*
X147099000Y-53253000D01*
X147078998Y-53321121D01*
X147025342Y-53367614D01*
X146973000Y-53379000D01*
X145528403Y-53379000D01*
X145515222Y-53382870D01*
X145513255Y-53397423D01*
X145521638Y-53449471D01*
X145524212Y-53459793D01*
X145595226Y-53667801D01*
X145600513Y-53679844D01*
X145609578Y-53750260D01*
X145579135Y-53814398D01*
X145518849Y-53851896D01*
X145485139Y-53856489D01*
X136065234Y-53856489D01*
X135997113Y-53836487D01*
X135950620Y-53782831D01*
X135940516Y-53712557D01*
X135970010Y-53647977D01*
X136029736Y-53609593D01*
X136058640Y-53604662D01*
X136267714Y-53593705D01*
X136270954Y-53593192D01*
X136270962Y-53593191D01*
X136442893Y-53565959D01*
X136641289Y-53534536D01*
X137006633Y-53436643D01*
X137359743Y-53301097D01*
X137362683Y-53299599D01*
X137693811Y-53130881D01*
X137693818Y-53130877D01*
X137696750Y-53129383D01*
X138013962Y-52923383D01*
X138100663Y-52853174D01*
X145514008Y-52853174D01*
X145515427Y-52866414D01*
X145530062Y-52871000D01*
X146572885Y-52871000D01*
X146588124Y-52866525D01*
X146589329Y-52865135D01*
X146591000Y-52857452D01*
X146591000Y-51808717D01*
X146587027Y-51795186D01*
X146576420Y-51793661D01*
X146458554Y-51818391D01*
X146448358Y-51821451D01*
X146243932Y-51902182D01*
X146234396Y-51906916D01*
X146046486Y-52020942D01*
X146037896Y-52027206D01*
X145871884Y-52171264D01*
X145864464Y-52178895D01*
X145725100Y-52348860D01*
X145719075Y-52357627D01*
X145610342Y-52548644D01*
X145605877Y-52558308D01*
X145530882Y-52764916D01*
X145528111Y-52775184D01*
X145514008Y-52853174D01*
X138100663Y-52853174D01*
X138307903Y-52685354D01*
X138575354Y-52417903D01*
X138813383Y-52123962D01*
X139019383Y-51806750D01*
X139020877Y-51803818D01*
X139020881Y-51803811D01*
X139189599Y-51472683D01*
X139191097Y-51469743D01*
X139326643Y-51116633D01*
X139424536Y-50751289D01*
X139455959Y-50552893D01*
X139483191Y-50380962D01*
X139483192Y-50380954D01*
X139483705Y-50377714D01*
X139497242Y-50119405D01*
X139520781Y-50052425D01*
X139576797Y-50008804D01*
X139623069Y-50000000D01*
X154468575Y-50000000D01*
X154518735Y-50010415D01*
G37*
%TD.AperFunction*%
%TA.AperFunction,Conductor*%
G36*
X132225052Y-50020002D02*
G01*
X132271545Y-50073658D01*
X132282758Y-50119405D01*
X132296295Y-50377714D01*
X132296808Y-50380954D01*
X132296809Y-50380962D01*
X132324041Y-50552893D01*
X132355464Y-50751289D01*
X132453357Y-51116633D01*
X132588903Y-51469743D01*
X132590401Y-51472683D01*
X132759119Y-51803811D01*
X132759123Y-51803818D01*
X132760617Y-51806750D01*
X132966617Y-52123962D01*
X133204646Y-52417903D01*
X133472097Y-52685354D01*
X133766038Y-52923383D01*
X134083250Y-53129383D01*
X134086182Y-53130877D01*
X134086189Y-53130881D01*
X134417317Y-53299599D01*
X134420257Y-53301097D01*
X134773367Y-53436643D01*
X135138711Y-53534536D01*
X135337107Y-53565959D01*
X135509038Y-53593191D01*
X135509046Y-53593192D01*
X135512286Y-53593705D01*
X135721360Y-53604662D01*
X135788341Y-53628201D01*
X135831962Y-53684217D01*
X135838374Y-53754923D01*
X135805542Y-53817872D01*
X135743889Y-53853077D01*
X135714766Y-53856489D01*
X126120945Y-53856489D01*
X126052824Y-53836487D01*
X126006331Y-53782831D01*
X125996227Y-53712557D01*
X126007078Y-53676542D01*
X126029981Y-53628201D01*
X126042153Y-53602508D01*
X126104349Y-53380494D01*
X126105692Y-53367614D01*
X126111147Y-53315263D01*
X126128249Y-53151176D01*
X126128500Y-53125000D01*
X126128250Y-53122052D01*
X126109458Y-52900576D01*
X126109457Y-52900572D01*
X126109007Y-52895265D01*
X126051084Y-52672098D01*
X125956388Y-52461882D01*
X125827627Y-52270626D01*
X125668482Y-52103799D01*
X125483504Y-51966171D01*
X125478753Y-51963755D01*
X125478749Y-51963753D01*
X125282740Y-51864097D01*
X125282739Y-51864097D01*
X125277982Y-51861678D01*
X125167887Y-51827492D01*
X125062895Y-51794891D01*
X125062889Y-51794890D01*
X125057792Y-51793307D01*
X124952798Y-51779391D01*
X124834515Y-51763714D01*
X124834510Y-51763714D01*
X124829230Y-51763014D01*
X124823900Y-51763214D01*
X124823899Y-51763214D01*
X124714030Y-51767339D01*
X124598831Y-51771663D01*
X124516368Y-51788966D01*
X124378411Y-51817912D01*
X124378408Y-51817913D01*
X124373184Y-51819009D01*
X124158740Y-51903697D01*
X123961631Y-52023306D01*
X123957601Y-52026803D01*
X123842672Y-52126533D01*
X123787492Y-52174415D01*
X123784109Y-52178541D01*
X123784105Y-52178545D01*
X123711768Y-52266767D01*
X123641304Y-52352705D01*
X123638667Y-52357338D01*
X123638666Y-52357339D01*
X123605116Y-52416278D01*
X123554033Y-52465584D01*
X123484402Y-52479445D01*
X123418332Y-52453461D01*
X123391094Y-52424312D01*
X123388358Y-52420247D01*
X123290818Y-52275366D01*
X123290607Y-52275052D01*
X123290605Y-52275050D01*
X123287627Y-52270626D01*
X123128482Y-52103799D01*
X122943504Y-51966171D01*
X122938753Y-51963755D01*
X122938749Y-51963753D01*
X122742740Y-51864097D01*
X122742739Y-51864097D01*
X122737982Y-51861678D01*
X122627887Y-51827492D01*
X122522895Y-51794891D01*
X122522889Y-51794890D01*
X122517792Y-51793307D01*
X122412798Y-51779391D01*
X122294515Y-51763714D01*
X122294510Y-51763714D01*
X122289230Y-51763014D01*
X122283900Y-51763214D01*
X122283899Y-51763214D01*
X122174030Y-51767339D01*
X122058831Y-51771663D01*
X121976368Y-51788966D01*
X121838411Y-51817912D01*
X121838408Y-51817913D01*
X121833184Y-51819009D01*
X121618740Y-51903697D01*
X121421631Y-52023306D01*
X121417601Y-52026803D01*
X121302672Y-52126533D01*
X121247492Y-52174415D01*
X121244109Y-52178541D01*
X121244105Y-52178545D01*
X121171768Y-52266767D01*
X121101304Y-52352705D01*
X121065657Y-52415328D01*
X121064842Y-52416760D01*
X121013760Y-52466066D01*
X120944130Y-52479928D01*
X120878059Y-52453945D01*
X120850820Y-52424795D01*
X120750218Y-52275366D01*
X120743557Y-52267080D01*
X120591830Y-52108030D01*
X120583873Y-52100990D01*
X120407523Y-51969782D01*
X120398486Y-51964178D01*
X120202550Y-51864559D01*
X120192699Y-51860559D01*
X119982778Y-51795378D01*
X119972396Y-51793095D01*
X119956959Y-51791049D01*
X119942792Y-51793246D01*
X119939000Y-51806430D01*
X119939000Y-53253000D01*
X119918998Y-53321121D01*
X119865342Y-53367614D01*
X119813000Y-53379000D01*
X118368403Y-53379000D01*
X118355222Y-53382870D01*
X118353255Y-53397423D01*
X118361638Y-53449471D01*
X118364212Y-53459793D01*
X118435230Y-53667810D01*
X118439497Y-53677533D01*
X118544556Y-53870625D01*
X118550402Y-53879491D01*
X118686486Y-54052113D01*
X118693750Y-54059875D01*
X118749593Y-54110244D01*
X118786780Y-54170723D01*
X118785366Y-54241705D01*
X118745801Y-54300655D01*
X118700699Y-54324703D01*
X118630330Y-54345365D01*
X118630328Y-54345366D01*
X118621684Y-54347904D01*
X118614105Y-54352775D01*
X118506309Y-54422051D01*
X118506306Y-54422053D01*
X118498729Y-54426923D01*
X118492828Y-54433733D01*
X118408918Y-54530569D01*
X118408916Y-54530572D01*
X118403016Y-54537381D01*
X118342300Y-54670330D01*
X118341018Y-54679245D01*
X118341018Y-54679246D01*
X118322139Y-54810552D01*
X118322138Y-54810559D01*
X118321500Y-54815000D01*
X118321500Y-56515000D01*
X118326727Y-56588079D01*
X118367904Y-56728316D01*
X118372775Y-56735895D01*
X118442051Y-56843691D01*
X118442053Y-56843694D01*
X118446923Y-56851271D01*
X118453733Y-56857172D01*
X118550569Y-56941082D01*
X118550572Y-56941084D01*
X118557381Y-56946984D01*
X118565579Y-56950728D01*
X118677998Y-57002068D01*
X118690330Y-57007700D01*
X118699245Y-57008982D01*
X118699246Y-57008982D01*
X118830552Y-57027861D01*
X118830559Y-57027862D01*
X118835000Y-57028500D01*
X118925500Y-57028500D01*
X118993621Y-57048502D01*
X119040114Y-57102158D01*
X119051500Y-57154500D01*
X119051500Y-85045500D01*
X119031498Y-85113621D01*
X118977842Y-85160114D01*
X118925500Y-85171500D01*
X118195000Y-85171500D01*
X118121921Y-85176727D01*
X118043835Y-85199655D01*
X117990330Y-85215365D01*
X117990328Y-85215366D01*
X117981684Y-85217904D01*
X117974105Y-85222775D01*
X117866309Y-85292051D01*
X117866306Y-85292053D01*
X117858729Y-85296923D01*
X117852828Y-85303733D01*
X117768918Y-85400569D01*
X117768916Y-85400572D01*
X117763016Y-85407381D01*
X117702300Y-85540330D01*
X117701018Y-85549245D01*
X117701018Y-85549246D01*
X117682139Y-85680552D01*
X117682138Y-85680559D01*
X117681500Y-85685000D01*
X117681500Y-86130406D01*
X117661498Y-86198527D01*
X117644595Y-86219501D01*
X116767487Y-87096609D01*
X116759399Y-87103969D01*
X116753005Y-87108027D01*
X116747580Y-87113804D01*
X116727350Y-87135347D01*
X116666138Y-87171312D01*
X116595198Y-87168475D01*
X116537054Y-87127734D01*
X116510165Y-87062026D01*
X116509500Y-87049094D01*
X116509500Y-52853174D01*
X118354008Y-52853174D01*
X118355427Y-52866414D01*
X118370062Y-52871000D01*
X119412885Y-52871000D01*
X119428124Y-52866525D01*
X119429329Y-52865135D01*
X119431000Y-52857452D01*
X119431000Y-51808717D01*
X119427027Y-51795186D01*
X119416420Y-51793661D01*
X119298554Y-51818391D01*
X119288358Y-51821451D01*
X119083932Y-51902182D01*
X119074396Y-51906916D01*
X118886486Y-52020942D01*
X118877896Y-52027206D01*
X118711884Y-52171264D01*
X118704464Y-52178895D01*
X118565100Y-52348860D01*
X118559075Y-52357627D01*
X118450342Y-52548644D01*
X118445877Y-52558308D01*
X118370882Y-52764916D01*
X118368111Y-52775184D01*
X118354008Y-52853174D01*
X116509500Y-52853174D01*
X116509500Y-51227202D01*
X116509536Y-51224187D01*
X116513253Y-51068909D01*
X116513588Y-51062259D01*
X116515620Y-51035847D01*
X116524075Y-50925938D01*
X116524860Y-50918575D01*
X116541865Y-50793903D01*
X116543230Y-50785854D01*
X116565956Y-50673950D01*
X116568153Y-50664872D01*
X116575719Y-50638007D01*
X116595946Y-50566182D01*
X116599138Y-50556397D01*
X116631342Y-50469869D01*
X116635719Y-50459540D01*
X116671267Y-50385069D01*
X116677118Y-50374212D01*
X116690665Y-50351779D01*
X116715356Y-50310894D01*
X116722758Y-50299975D01*
X116763886Y-50245671D01*
X116772749Y-50235206D01*
X116795308Y-50211336D01*
X116817275Y-50188093D01*
X116827614Y-50178323D01*
X116876975Y-50136698D01*
X116888250Y-50128223D01*
X116945091Y-50090296D01*
X116956987Y-50083270D01*
X117016430Y-50052425D01*
X117023827Y-50048587D01*
X117035736Y-50043173D01*
X117114931Y-50012020D01*
X117126621Y-50008071D01*
X117138145Y-50004797D01*
X117172579Y-50000000D01*
X132156931Y-50000000D01*
X132225052Y-50020002D01*
G37*
%TD.AperFunction*%
%TD*%
M02*
