M48
; DRILL file {KiCad (5.99.0-9526-g5c17ff0595)} date Sat Jul 10 23:40:16 2021
; FORMAT={-:-/ absolute / inch / decimal}
; #@! TF.CreationDate,2021-07-10T23:40:16-05:00
; #@! TF.GenerationSoftware,Kicad,Pcbnew,(5.99.0-9526-g5c17ff0595)
; #@! TF.FileFunction,Plated,1,2,PTH
FMAT,2
INCH
T1C0.0157
T2C0.0236
T3C0.0394
T4C0.2362
%
G90
G05
T1
X5.0197Y-2.0866
X5.0197Y-2.2047
X5.689Y-2.0866
X5.689Y-2.2047
X5.8268Y-5.5984
X5.9327Y-5.589
X6.0079Y-5.1969
X6.0472Y-5.2756
T3
X4.6868Y-3.4069
X4.6868Y-3.5069
X4.6868Y-3.6069
X4.7108Y-5.7409
X4.7108Y-5.8409
X4.712Y-2.0915
X4.712Y-2.1915
X4.7868Y-3.4069
X4.7868Y-3.5069
X4.7868Y-3.6069
X4.8108Y-5.7409
X4.8108Y-5.8409
X4.812Y-2.0915
X4.812Y-2.1915
X4.9108Y-5.7409
X4.9108Y-5.8409
X4.912Y-2.0915
X4.912Y-2.1915
X5.7813Y-2.0915
X5.7813Y-2.1915
X5.8813Y-2.0915
X5.8813Y-2.1915
X5.9813Y-2.0915
X5.9813Y-2.1915
T4
X5.35Y-1.9685
T2
G00X5.1791Y-5.8532
M15
G01X5.1791Y-5.8099
M16
G05
G00X5.1791Y-6.0107
M15
G01X5.1791Y-5.9792
M16
G05
G00X5.5193Y-5.8532
M15
G01X5.5193Y-5.8099
M16
G05
G00X5.5193Y-6.0107
M15
G01X5.5193Y-5.9792
M16
G05
T0
M30
