<?xml version="1.0" encoding="UTF-8" standalone="no"?>
<!-- Created with Inkscape (http://www.inkscape.org/) -->

<svg
   xmlns:dc="http://purl.org/dc/elements/1.1/"
   xmlns:cc="http://creativecommons.org/ns#"
   xmlns:rdf="http://www.w3.org/1999/02/22-rdf-syntax-ns#"
   xmlns:svg="http://www.w3.org/2000/svg"
   xmlns="http://www.w3.org/2000/svg"
   xmlns:sodipodi="http://sodipodi.sourceforge.net/DTD/sodipodi-0.dtd"
   xmlns:inkscape="http://www.inkscape.org/namespaces/inkscape"
   version="1.1"
   id="svg2"
   width="35.0mm"
   height="35.0mm"
   viewBox="0 0 35.0 35.0"
   sodipodi:docname="Python.svg"
   inkscape:version="0.92.4 5da689c313, 2019-01-14">
  <metadata
     id="metadata8">
    <rdf:RDF>
      <cc:Work
         rdf:about="">
        <dc:format>image/svg+xml</dc:format>
        <dc:type
           rdf:resource="http://purl.org/dc/dcmitype/StillImage" />
        <dc:title></dc:title>
      </cc:Work>
    </rdf:RDF>
  </metadata>
  <defs
     id="defs6" />
  <sodipodi:namedview
     pagecolor="#ffffff"
     bordercolor="#666666"
     borderopacity="1"
     objecttolerance="10"
     gridtolerance="10"
     guidetolerance="10"
     inkscape:pageopacity="0"
     inkscape:pageshadow="2"
     inkscape:window-width="1920"
     inkscape:window-height="1022"
     id="namedview4"
     showgrid="false"
     inkscape:zoom="5.0844444"
     inkscape:cx="102.70825"
     inkscape:cy="73.530068"
     inkscape:window-x="0"
     inkscape:window-y="0"
     inkscape:window-maximized="1"
     inkscape:current-layer="svg2"
     borderlayer="true"
     inkscape:document-units="mm">
    <inkscape:grid
       spacingx="2.54"
       spacingy="2.54"
       empspacing="1"
       type="xygrid"
       units="mm"
       id="grid76" />
    <inkscape:grid
       id="grid160"
       units="mm"
       type="xygrid"
       empspacing="1"
       spacingy="2.54"
       spacingx="2.54" />
  </sodipodi:namedview>
  <path
     style="fill:none;fill-opacity:1;stroke:#000000;stroke-width:0.06202441;stroke-opacity:1"
     d="m 20.528027,29.524958 c -1.054014,-0.546488 -0.951269,-2.096135 0.167087,-2.52003 0.558972,-0.211868 1.247128,0.01426 1.585257,0.520905 0.321709,0.482045 0.32913,1.042592 0.02038,1.53827 -0.22956,0.36851 -0.707531,0.633515 -1.142618,0.633515 -0.204261,0 -0.401108,-0.0539 -0.63008,-0.17266 z M 5.8735971,24.259244 c -1.352069,-0.272225 -2.393776,-1.349552 -2.922103,-3.021993 -0.229256,-0.725706 -0.515495,-2.182413 -0.601986,-3.063592 -0.188815,-1.923608 0.228752,-4.645009 0.916517,-5.97322 0.238157,-0.459923 0.406245,-0.683284 0.830492,-1.103606 0.588571,-0.583119 1.086902,-0.881435 1.871488,-1.120337 l 0.517869,-0.07312 5.2556079,-0.08756 5.307552,-0.01881 V 9.428754 9.060502 L 13.515852,9.044542 9.9826701,9.028582 9.9648001,7.2984339 c -0.02458,-2.376849 0.07436,-2.8686362 0.7152419,-3.5556843 0.778364,-0.8344085 2.408183,-1.3060355 5.092703,-1.4736937 1.76821,-0.1104311 4.250524,0.046177 5.412909,0.3414924 1.500522,0.3812263 2.781882,1.5730154 3.080382,2.8650496 0.09042,0.3913632 0.08989,7.9176811 -5.65e-4,8.3541951 -0.03733,0.180094 -0.180227,0.560991 -0.317563,0.846437 -0.434928,0.903974 -1.273397,1.600149 -2.292162,1.903159 -0.297164,0.08839 -0.904577,0.106671 -4.637805,0.139607 -4.810335,0.04244 -4.492482,0.01249 -5.478763,0.516102 -0.691598,0.353136 -1.461471,1.11723 -1.8172759,1.803628 -0.471175,0.908954 -0.47555,0.936317 -0.514058,3.213137 l -0.03451,2.039106 -1.525342,0.0092 c -0.838936,0.0048 -1.637401,-0.01337 -1.774371,-0.04094 z M 13.822688,6.861936 c 0.981021,-0.685805 0.569157,-2.218218 -0.61781,-2.2986501 -1.360881,-0.092218 -1.848372,1.8309607 -0.609918,2.4061684 0.374096,0.1737499 0.89001,0.1285685 1.227728,-0.1075183 z"
     id="path16"
     inkscape:connector-curvature="0"
     sodipodi:nodetypes="scsscssssscccccccssssscscsssscccccssscss" />
  <path
     style="fill:none;fill-opacity:1;stroke:#000000;stroke-width:0.06202441px;stroke-linecap:butt;stroke-linejoin:miter;stroke-opacity:1"
     d="m 21.373676,17.442985 c -3.105507,0.131766 -8.233932,-0.248242 -9.316521,0.395298 -0.982669,0.466082 -1.556659,1.255157 -1.917364,2.212794 v 0 c -0.1895259,0.665011 -0.09113,5.387887 -0.136687,8.081827 v 0"
     id="path20"
     inkscape:connector-curvature="0"
     sodipodi:nodetypes="cccccc" />
  <path
     style="fill:none;fill-opacity:1;stroke:#000000;stroke-width:0.06202441px;stroke-linecap:butt;stroke-linejoin:miter;stroke-opacity:1"
     d="m 18.769058,24.260267 -1.625117,0.0016 -0.002,0.716846 7.131947,-0.0056 -0.02632,3.387086"
     id="path24"
     inkscape:connector-curvature="0"
     sodipodi:nodetypes="cccc" />
  <g
     id="g88"
     sodipodi:insensitive="true"
     inkscape:groupmode="layer"
     inkscape:label="[fixed] BG">
    <rect
       id="rect86"
       style="stroke:none;fill-opacity:1;fill:#FFFFFF"
       height="35.0"
       width="35.0"
       y="0"
       x="0" />
  </g>
  <g
     id="g90"
     inkscape:groupmode="layer"
     inkscape:label="F.Cu"
     style="display:inline">
    <path
       style="fill:#ff0000;fill-opacity:1;stroke:#000000;stroke-width:0.01723387;stroke-miterlimit:4;stroke-dasharray:none;stroke-opacity:1"
       d="m 15.429801,31.748244 c -2.644807,-0.288529 -4.397397,-1.215146 -5.090743,-2.691546 l -0.24673,-0.52539 -0.01637,-3.162811 c -0.009,-1.739547 0.007,-3.632942 0.03554,-4.207545 l 0.0519,-1.044732 0.244958,-0.511065 c 0.441963,-0.922094 1.289189,-1.665906 2.12971,-1.869758 0.700289,-0.169841 1.73089,-0.211433 5.279547,-0.213065 4.032927,-0.0019 4.019987,-6.83e-4 4.859913,-0.438327 1.146044,-0.597142 1.977344,-1.510227 2.242107,-2.462691 0.07478,-0.269038 0.08953,-0.682524 0.08953,-2.511322 V 9.920735 l 1.811933,0.02661 c 2.006022,0.02945 2.074758,0.04044 2.680338,0.428692 0.421827,0.27044 0.841639,0.712389 1.095257,1.153015 0.581599,1.010445 1.089013,3.052383 1.211566,4.875588 0.109598,1.630511 -0.01713,2.755438 -0.476693,4.231149 -0.464255,1.490813 -1.017537,2.454982 -1.741304,3.03446 -0.710467,0.568827 -0.117616,0.521109 -6.702041,0.539455 l -5.800991,0.01616 v 0.413731 0.41373 h 3.574747 3.574749 l -0.02702,1.734403 c -0.0333,2.137565 -0.04762,2.195799 -0.712005,2.895584 -0.662507,0.697815 -1.510959,1.169483 -2.814695,1.564739 -1.566064,0.474786 -3.659193,0.674087 -5.253201,0.500194 z m 6.365934,-2.164138 c 1.05674,-0.555762 1.030334,-2.05538 -0.04524,-2.569221 -0.306267,-0.146315 -0.851977,-0.162823 -1.142818,-0.03457 -0.279684,0.123333 -0.582985,0.418091 -0.726529,0.706063 -0.167761,0.336556 -0.167369,0.920653 8.07e-4,1.258192 0.353062,0.708454 1.227238,1.000588 1.913743,0.639538 z"
       id="path4757"
       inkscape:connector-curvature="0" />
  </g>
  <g
     id="g92"
     inkscape:groupmode="layer"
     inkscape:label="B.Cu-disabled" />
  <g
     id="g94"
     inkscape:groupmode="layer"
     inkscape:label="B.Adhes-disabled" />
  <g
     id="g96"
     inkscape:groupmode="layer"
     inkscape:label="F.Adhes-disabled" />
  <g
     id="g98"
     inkscape:groupmode="layer"
     inkscape:label="B.Paste-disabled" />
  <g
     id="g100"
     inkscape:groupmode="layer"
     inkscape:label="F.Paste-disabled" />
  <g
     id="g102"
     inkscape:groupmode="layer"
     inkscape:label="B.SilkS-disabled" />
  <g
     id="g104"
     inkscape:groupmode="layer"
     inkscape:label="F.SilkS"
     style="display:inline">
    <path
       style="fill:#000000;fill-opacity:1;stroke:#000000;stroke-width:0.00430846;stroke-miterlimit:4;stroke-dasharray:none;stroke-opacity:1"
       d="M 12.85629,7.0117849 C 12.619619,6.9645273 12.419846,6.8501801 12.234723,6.6560114 12.126646,6.5426502 12.096801,6.500254 12.041607,6.3816609 11.946745,6.1778416 11.92734,6.0869646 11.927768,5.8485563 c 4.04e-4,-0.2328857 0.02784,-0.3605804 0.119378,-0.5558988 0.145617,-0.3107112 0.376187,-0.5231557 0.687631,-0.6335754 0.129514,-0.045918 0.140454,-0.047297 0.372218,-0.046893 0.274466,4.69e-4 0.378344,0.022813 0.576219,0.1238941 0.525696,0.2685453 0.779444,0.9161719 0.58232,1.4862241 -0.128102,0.3704478 -0.441247,0.6634746 -0.821435,0.7686651 -0.149465,0.041354 -0.43441,0.051443 -0.587809,0.020812 z"
       id="path4746"
       inkscape:connector-curvature="0" />
    <path
       style="fill:#000000;fill-opacity:1;stroke:#000000;stroke-width:0.01723387;stroke-miterlimit:4;stroke-dasharray:none;stroke-opacity:1"
       d="m 20.623304,29.497173 c -0.616354,-0.324495 -0.898165,-0.973981 -0.695812,-1.603624 0.10396,-0.323478 0.262563,-0.519351 0.572377,-0.706883 0.578425,-0.350121 1.365646,-0.16748 1.747115,0.405348 0.327381,0.491605 0.245398,1.230726 -0.18381,1.657194 -0.37074,0.368368 -1.004017,0.477429 -1.43987,0.247965 z"
       id="path4748"
       inkscape:connector-curvature="0" />
    <path
       style="fill:#000000;fill-opacity:1;stroke:#000000;stroke-width:0.01723387;stroke-miterlimit:4;stroke-dasharray:none;stroke-opacity:1"
       d="M 15.514077,32.559657 C 12.938705,32.137107 11.41353,31.482859 10.361231,30.349262 9.9161741,29.869816 9.5459951,29.178361 9.4465501,28.640724 c -0.03016,-0.163063 -0.0718,-1.059627 -0.09254,-1.992365 l -0.03771,-1.695883 -1.662701,-0.03656 c -1.913004,-0.04207 -2.187576,-0.08666 -2.952882,-0.479584 -1.169599,-0.600492 -2.009944,-1.817557 -2.439923,-3.533713 -0.432532,-1.726352 -0.480308,-2.092315 -0.479939,-3.676345 1.92e-4,-0.825715 0.03081,-1.695883 0.07094,-2.016059 0.418378,-3.337907 1.685316,-5.210016 3.950448,-5.837447 0.692805,-0.191903 1.20792,-0.254795 2.478148,-0.302564 l 1.053451,-0.03961 V 7.3548476 c 0,-1.9584387 0.06153,-2.4816788 0.371943,-3.1627972 0.228362,-0.5010793 0.6713489,-1.0002238 1.1579509,-1.3047409 1.054788,-0.6600889 3.422928,-1.0179124 6.740132,-1.0184266 2.498216,-3.837e-4 3.582216,0.1394595 4.548608,0.5868149 0.991352,0.4589114 1.669276,0.994866 2.1824,1.7253718 0.547673,0.7796871 0.531395,0.6900645 0.551168,3.0344063 l 0.01733,2.0559131 1.977191,0.0226 c 2.260916,0.02585 2.347754,0.04125 3.063998,0.543787 1.255343,0.880775 1.978493,2.496388 2.484327,5.550321 0.101012,0.609856 0.123205,0.977615 0.125239,2.075356 0.0027,1.456029 -0.0182,1.615954 -0.379767,2.905497 -0.6472,2.308297 -1.423681,3.528388 -2.6424,4.152039 -0.24721,0.126502 -0.563245,0.259014 -0.702301,0.29447 -0.139055,0.03545 -1.068196,0.08074 -2.064759,0.100641 l -1.811932,0.03618 -2.02e-4,0.954783 c -2.02e-4,1.458936 -0.09331,2.768925 -0.224557,3.163046 -0.563755,1.692825 -2.354124,2.817561 -5.365545,3.370715 -0.697736,0.128163 -1.060294,0.158448 -2.1069,0.175993 -0.863489,0.01448 -1.415494,-0.0037 -1.741702,-0.05716 z m 2.528278,-0.689814 c 2.568783,-0.244086 4.603166,-1.025837 5.601916,-2.15264 0.625359,-0.705538 0.681334,-0.977978 0.687151,-3.344545 l 0.0036,-1.437925 H 20.767341 17.199662 V 24.6396 24.344468 l 5.772899,-0.01618 5.7729,-0.01618 0.365197,-0.187023 c 0.489569,-0.250717 0.933938,-0.636815 1.260437,-1.095155 0.770767,-1.082 1.436066,-3.131862 1.554465,-4.789487 0.177233,-2.48127 -0.495211,-5.780879 -1.448246,-7.106392 C 29.992464,10.459705 29.227417,9.97636 28.48357,9.874432 28.256796,9.843352 27.358105,9.817112 26.486478,9.816102 l -1.584777,-0.0019 -0.01646,2.360247 -0.01646,2.360248 -0.218632,0.466712 c -0.160658,0.342958 -0.331985,0.587054 -0.646115,0.920555 -0.477749,0.507206 -0.768879,0.731828 -1.334304,1.029485 -0.850948,0.447964 -0.485308,0.415239 -5.132954,0.459413 -3.357049,0.03191 -4.284784,0.05764 -4.686174,0.130028 -1.176076,0.212072 -2.184536,1.066984 -2.676681,2.26913 -0.171933,0.419973 -0.2172889,1.514796 -0.2198399,5.306578 -0.0023,3.403388 8.08e-4,3.445317 0.2913879,4.057703 0.513165,1.081152 1.731023,1.928461 3.409077,2.371822 0.492124,0.130025 1.437332,0.292973 2.000066,0.344803 0.514081,0.04734 1.785384,0.03608 2.387818,-0.02117 z M 9.2241791,24.000822 c 0.0014,-0.187522 0.02471,-1.114762 0.05161,-2.06053 0.05504,-1.93527 0.08652,-2.116959 0.493383,-2.847821 0.5501999,-0.988335 1.5232659,-1.803384 2.5425119,-2.129628 0.355971,-0.113941 0.884922,-0.132572 5.899221,-0.207789 l 3.286761,-0.04931 0.464819,-0.180818 c 0.962741,-0.374513 1.629646,-0.999644 2.073796,-1.943895 0.263975,-0.561207 0.264038,-0.561488 0.313349,-1.403997 0.02713,-0.463473 0.03912,-2.376959 0.02666,-4.25219 C 24.355864,5.8520795 24.343802,5.4860532 24.254154,5.218856 23.912764,4.2013053 22.935647,3.2211411 21.80316,2.7602179 20.903569,2.3940838 19.289622,2.2010036 17.115319,2.1994005 c -1.558237,-0.00115 -2.427207,0.063937 -3.567681,0.2672178 -1.470078,0.2620308 -2.276351,0.6144363 -2.898803,1.267006 -0.479653,0.5028611 -0.61983,0.8416629 -0.6977209,1.6863779 -0.05905,0.6403458 -0.07292,3.1184618 -0.01937,3.4603728 l 0.03483,0.22236 h 3.5041459 3.504145 v 0.316354 0.316354 l -5.211062,0.04156 c -4.0583959,0.03237 -5.3080039,0.05979 -5.6493289,0.123943 -1.156085,0.217317 -2.397655,1.225245 -2.960484,2.403372 -0.664938,1.391864 -1.057372,4.217354 -0.839939,6.047473 0.08892,0.748476 0.314523,1.910425 0.504706,2.599498 0.39325,1.424847 1.115186,2.467781 2.077768,3.001619 0.646779,0.358698 0.797953,0.380631 2.653484,0.384962 l 1.671472,0.0039 0.0027,-0.340953 z"
       id="path4754"
       inkscape:connector-curvature="0" />
  </g>
  <g
     id="g106"
     inkscape:groupmode="layer"
     inkscape:label="B.Mask-disabled" />
  <g
     id="g108"
     inkscape:groupmode="layer"
     inkscape:label="F.Mask"
     style="display:inline">
    <path
       inkscape:connector-curvature="0"
       id="path4760"
       d="m 15.429801,31.748244 c -2.644807,-0.288529 -4.397397,-1.215146 -5.090743,-2.691546 l -0.24673,-0.52539 -0.01637,-3.162811 c -0.009,-1.739547 0.007,-3.632942 0.03554,-4.207545 l 0.0519,-1.044732 0.244958,-0.511065 c 0.441963,-0.922094 1.289189,-1.665906 2.12971,-1.869758 0.700289,-0.169841 1.73089,-0.211433 5.279547,-0.213065 4.032927,-0.0019 4.019987,-6.83e-4 4.859913,-0.438327 1.146044,-0.597142 1.977344,-1.510227 2.242107,-2.462691 0.07478,-0.269038 0.08953,-0.682524 0.08953,-2.511322 V 9.920735 l 1.811933,0.02661 c 2.006022,0.02945 2.074758,0.04044 2.680338,0.428692 0.421827,0.27044 0.841639,0.712389 1.095257,1.153015 0.581599,1.010445 1.089013,3.052383 1.211566,4.875588 0.109598,1.630511 -0.01713,2.755438 -0.476693,4.231149 -0.464255,1.490813 -1.017537,2.454982 -1.741304,3.03446 -0.710467,0.568827 -0.117616,0.521109 -6.702041,0.539455 l -5.800991,0.01616 v 0.413731 0.41373 h 3.574747 3.574749 l -0.02702,1.734403 c -0.0333,2.137565 -0.04762,2.195799 -0.712005,2.895584 -0.662507,0.697815 -1.510959,1.169483 -2.814695,1.564739 -1.566064,0.474786 -3.659193,0.674087 -5.253201,0.500194 z m 6.365934,-2.164138 c 1.05674,-0.555762 1.030334,-2.05538 -0.04524,-2.569221 -0.306267,-0.146315 -0.851977,-0.162823 -1.142818,-0.03457 -0.279684,0.123333 -0.582985,0.418091 -0.726529,0.706063 -0.167761,0.336556 -0.167369,0.920653 8.07e-4,1.258192 0.353062,0.708454 1.227238,1.000588 1.913743,0.639538 z"
       style="fill:#ff0000;fill-opacity:1;stroke:#000000;stroke-width:0.01723387;stroke-miterlimit:4;stroke-dasharray:none;stroke-opacity:1" />
  </g>
  <g
     id="g110"
     inkscape:groupmode="layer"
     inkscape:label="Dwgs.User-disabled" />
  <g
     id="g112"
     inkscape:groupmode="layer"
     inkscape:label="Cmts.User-disabled" />
  <g
     id="g114"
     inkscape:groupmode="layer"
     inkscape:label="Eco1.User-disabled" />
  <g
     id="g116"
     inkscape:groupmode="layer"
     inkscape:label="Eco2.User-disabled" />
  <g
     id="g118"
     inkscape:groupmode="layer"
     inkscape:label="Edge.Cuts">
    <path
       id="path55"
       style="fill:none;fill-opacity:1;stroke:#000000;stroke-width:0.06202441px;stroke-linecap:butt;stroke-linejoin:miter;stroke-opacity:1"
       d="m 9.2867781,9.010233 c -2.7976,0.02532 -7.873626,-0.509932 -7.582363,9.069486 0.0046,0.139986 0.0405,0.446058 0.06226,0.649966 0.0662,0.620429 0.455579,2.407728 0.628774,2.886171 0.533886,1.474851 1.332038,2.458545 2.392227,2.948358 0.768172,0.354868 1.003023,0.390078 2.813672,0.421502 l 1.66542,0.02893 0.0053,0.626787 c 0.01448,1.674052 0.06155,2.818263 0.127519,3.098432 0.287284,1.220434 1.2940089,2.303925 2.7544439,2.964464 0.924089,0.417957 2.446096,0.811324 3.701941,0.956774 l -2.67e-4,-6.4e-5 c 1.584058,0.183465 3.690903,-0.05717 5.371896,-0.613549 2.058647,-0.681375 3.265831,-1.745061 3.634354,-3.202348 0.08164,-0.322736 0.142031,-1.617812 0.152338,-3.26588 l 0.0039,-0.565309 1.789937,-0.02885 c 1.565789,-0.02522 1.83672,-0.04414 2.163491,-0.151075 1.152009,-0.376978 1.943672,-1.137903 2.558964,-2.459625 0.327511,-0.703541 0.744451,-1.996756 0.936015,-2.903269 0.15704,-0.74369 0.169256,-0.904137 0.162384,-2.162689 -0.0042,-0.747672 -0.04979,-1.425278 -0.0833,-1.544225 -0.560766,-3.805554 -1.454788,-5.112521 -2.39227,-5.85768 m -4.1e-5,1e-6 C 29.309827,9.239639 28.767231,9.255426 28.066685,9.22766 l -3.117059,-0.01718 -0.0086,-3.2998808 -0.01527,-0.522637 C 24.857861,4.7474576 24.583463,4.4273074 24.380806,4.1377283 24.006931,3.5711619 23.40984,2.9012057 21.725495,2.1925091 20.165737,1.582982 13.756425,1.6194615 11.384276,2.5452947 8.6608361,3.7443975 9.3691231,6.2684727 9.2868081,9.010234"
       inkscape:connector-curvature="0" />
  </g>
  <g
     id="g120"
     inkscape:groupmode="layer"
     inkscape:label="Margin-disabled" />
  <g
     id="g122"
     inkscape:groupmode="layer"
     inkscape:label="B.CrtYd-disabled" />
  <g
     id="g124"
     inkscape:groupmode="layer"
     inkscape:label="F.CrtYd-disabled" />
  <g
     id="g126"
     inkscape:groupmode="layer"
     inkscape:label="B.Fab-disabled" />
  <g
     id="g128"
     inkscape:groupmode="layer"
     inkscape:label="F.Fab-disabled" />
  <g
     id="g130"
     inkscape:groupmode="layer"
     inkscape:label="Drill" />
  <path
     style="fill:none;stroke:#000000;stroke-width:0.06196001;stroke-linecap:butt;stroke-linejoin:miter;stroke-miterlimit:4;stroke-dasharray:none;stroke-opacity:1"
     d="m 18.769057,24.260267 9.73,-0.0037 c 0.353546,-0.04238 0.707492,-0.189826 0.969811,-0.406406 0.512671,-0.382844 0.906339,-0.780738 1.312722,-1.6194 0.504179,-1.040482 0.779917,-2.014687 1.001882,-3.13032 0.168469,-0.846745 0.152371,-2.820615 -0.03176,-3.892833 -0.426797,-2.48529 -0.945764,-3.88271 -1.86568,-4.63482 C 29.036092,9.896031 28.612227,9.916254 27.79295,9.884052 l -2.822666,-0.0086 -0.01,3.935118 c 0.106944,2.108344 -2.543061,3.633744 -3.586616,3.632335 v 0"
     id="path4708"
     inkscape:connector-curvature="0"
     sodipodi:nodetypes="cccscscccccc" />
  <path
     style="fill:none;stroke:#000000;stroke-width:0.06196001;stroke-linecap:butt;stroke-linejoin:miter;stroke-miterlimit:4;stroke-dasharray:none;stroke-opacity:1"
     d="m 24.247586,28.360171 c -0.43416,4.174652 -13.593354,5.247467 -14.244484,-0.227268"
     id="path4710"
     inkscape:connector-curvature="0"
     sodipodi:nodetypes="cc" />
</svg>
