<?xml version="1.0" encoding="UTF-8" standalone="no"?>
<!-- Created with Inkscape (http://www.inkscape.org/) -->

<svg
   width="60.0mm"
   height="120.0mm"
   viewBox="0 0 60.0 120.0"
   version="1.1"
   id="svg5"
   sodipodi:docname="18650Battery.svg"
   inkscape:version="1.1 (c4e8f9ed74, 2021-05-24)"
   xmlns:inkscape="http://www.inkscape.org/namespaces/inkscape"
   xmlns:sodipodi="http://sodipodi.sourceforge.net/DTD/sodipodi-0.dtd"
   xmlns="http://www.w3.org/2000/svg"
   xmlns:svg="http://www.w3.org/2000/svg">
  <sodipodi:namedview
     id="namedview7"
     pagecolor="#ffffff"
     bordercolor="#666666"
     borderopacity="1.0"
     inkscape:pageshadow="2"
     inkscape:pageopacity="0.0"
     inkscape:pagecheckerboard="0"
     inkscape:document-units="mm"
     showgrid="false"
     inkscape:zoom="3.0182099"
     inkscape:cx="137.49872"
     inkscape:cy="110.49596"
     inkscape:window-width="1920"
     inkscape:window-height="1021"
     inkscape:window-x="1920"
     inkscape:window-y="0"
     inkscape:window-maximized="1"
     inkscape:current-layer="g1004"
     borderlayer="true" />
  <defs
     id="defs2">
    <clipPath
       clipPathUnits="userSpaceOnUse"
       id="clipPath2340">
      <rect
         style="fill:#000000;fill-opacity:1;stroke:#000000;stroke-width:1;stroke-opacity:1"
         id="rect2342"
         width="48.83036"
         height="5.8782563"
         x="84.924049"
         y="7.9432116" />
    </clipPath>
  </defs>
  <g
     inkscape:label="[fixed] BG"
     inkscape:groupmode="layer"
     sodipodi:insensitive="true"
     id="g990">
    <rect
       x="0"
       y="0"
       width="60.0"
       height="120.0"
       style="fill:#FFFFFF;fill-opacity:1;stroke:none"
       id="rect988" />
  </g>
  <g
     inkscape:label="Edge.Cuts"
     inkscape:groupmode="layer"
     id="g992"
     style="display:inline">
    <path
       id="path6687"
       style="fill:none;fill-opacity:1;stroke:#000000;stroke-width:0.43679;stroke-miterlimit:4;stroke-dasharray:none"
       d="M 32.5633 7.61116 L 31.3695 7.60713 L 30.1765 7.61793 L 28.984 7.64313 L 27.7921 7.6823 L 26.6009 7.73499 L 25.4102 7.80078 L 24.2201 7.87921 L 23.0304 7.96983 L 21.8414 8.07222 L 20.6527 8.18591 L 19.4646 8.31049 L 18.2769 8.4455 L 17.0897 8.59049 L 15.9029 8.74502 L 14.7165 8.90869 L 13.5304 9.08103 L 13.3736 9.1104 L 13.2212 9.15113 L 13.0738 9.20294 L 12.9324 9.26553 L 12.7978 9.33863 L 12.6706 9.422 L 12.5518 9.51531 L 12.442 9.61832 L 12.3422 9.73074 L 12.2532 9.85228 L 12.1756 9.9827 L 12.1103 10.1217 L 12.0582 10.269 L 12.02 10.4243 L 12.0063 10.5049 L 11.9964 10.5874 L 11.9904 10.6718 L 11.9884 10.758 L 11.9884 11.7661 L 11.8251 11.797 L 11.6741 11.8399 L 11.5353 11.8945 L 11.4083 11.9604 L 11.2929 12.0374 L 11.1889 12.1251 L 11.096 12.2234 L 11.0139 12.3318 L 10.9424 12.4502 L 10.8813 12.5782 L 10.8302 12.7155 L 10.789 12.8618 L 10.7575 13.0169 L 10.7352 13.1804 L 10.722 13.352 L 10.7177 13.5316 L 10.7177 116.682 L 10.7199 116.773 L 10.7263 116.864 L 10.7369 116.955 L 10.7516 117.045 L 10.7702 117.134 L 10.7926 117.221 L 10.8485 117.392 L 10.9185 117.556 L 11.0016 117.711 L 11.097 117.857 L 11.149 117.925 L 11.2038 117.99 L 11.2613 118.052 L 11.3212 118.11 L 11.3836 118.165 L 11.4483 118.215 L 11.5152 118.262 L 11.5842 118.304 L 11.6552 118.342 L 11.7281 118.375 L 11.8027 118.403 L 11.879 118.426 L 11.9569 118.444 L 12.0362 118.456 L 12.1168 118.463 L 12.1987 118.464 L 12.2817 118.459 L 12.3657 118.447 L 13.6494 118.231 L 14.9213 118.032 L 16.1817 117.849 L 17.4307 117.683 L 18.6687 117.533 L 19.8957 117.398 L 21.1121 117.279 L 22.3179 117.175 L 23.5135 117.086 L 24.699 117.012 L 25.8745 116.951 L 27.0405 116.905 L 28.1969 116.873 L 29.3442 116.853 L 30.4824 116.846 L 31.6117 116.853 L 32.7324 116.872 L 33.8447 116.904 L 34.9488 116.946 L 36.0447 117.001 L 37.133 117.067 L 38.2138 117.143 L 39.2869 117.231 L 40.3532 117.328 L 41.4123 117.436 L 42.4646 117.554 L 43.5105 117.681 L 44.5498 117.817 L 45.5832 117.962 L 46.6103 118.116 L 47.6322 118.277 L 48.6482 118.447 L 48.7323 118.459 L 48.8154 118.464 L 48.8971 118.463 L 48.9778 118.456 L 49.0572 118.443 L 49.135 118.425 L 49.2115 118.402 L 49.2861 118.374 L 49.3588 118.341 L 49.4297 118.303 L 49.4988 118.261 L 49.5657 118.214 L 49.6306 118.164 L 49.6927 118.109 L 49.7528 118.051 L 49.8102 117.989 L 49.865 117.924 L 49.9171 117.856 L 50.0123 117.711 L 50.0954 117.556 L 50.1655 117.392 L 50.2214 117.221 L 50.2439 117.134 L 50.2624 117.045 L 50.2769 116.955 L 50.2875 116.865 L 50.2941 116.774 L 50.2962 116.682 L 50.2962 56.2194 L 50.2962 56.1922 L 52.7489 56.152 L 52.7587 46.186 L 50.2962 46.2132 L 50.2962 13.5316 L 50.2917 13.352 L 50.278 13.1801 L 50.2547 13.0162 L 50.2221 12.8605 L 50.1798 12.7133 L 50.1274 12.5747 L 50.065 12.4451 L 49.992 12.3247 L 49.9086 12.2137 L 49.8144 12.1124 L 49.7097 12.021 L 49.5935 11.9398 L 49.466 11.8689 L 49.3271 11.8087 L 49.1765 11.7594 L 49.0141 11.7212 L 49.0241 11.2036 L 49.0222 10.7579 L 49.0203 10.6719 L 49.0142 10.5878 L 49.0042 10.5058 L 48.9904 10.4259 L 48.973 10.3481 L 48.9521 10.2723 L 48.8997 10.1271 L 48.8341 9.9905 L 48.7563 9.86252 L 48.6669 9.74327 L 48.5669 9.63286 L 48.4568 9.53142 L 48.338 9.43904 L 48.2107 9.35584 L 48.0763 9.28189 L 47.9353 9.21735 L 47.7885 9.16227 L 47.6366 9.11681 L 47.4807 9.08104 L 46.5446 8.90376 L 45.6091 8.73885 L 44.674 8.58607 L 43.7398 8.44522 L 42.8058 8.31614 L 41.8724 8.19856 L 40.9392 8.09229 L 40.0068 7.99714 L 39.0747 7.91289 L 38.1433 7.83934 L 37.2123 7.7763 L 36.2815 7.72352 L 35.3515 7.68083 L 34.4217 7.64801 L 33.4922 7.62485 L 32.5633 7.61116 L 32.5633 7.61116"
       sodipodi:nodetypes="ssscsscsscccccsccss" />
  </g>
  <g
     inkscape:label="B.Cu"
     inkscape:groupmode="layer"
     id="g994" />
  <g
     inkscape:label="B.Mask"
     inkscape:groupmode="layer"
     id="g996" />
  <g
     inkscape:label="B.SilkS"
     inkscape:groupmode="layer"
     id="g998" />
  <g
     inkscape:label="F.Cu"
     inkscape:groupmode="layer"
     id="g1000" />
  <g
     inkscape:label="F.Mask"
     inkscape:groupmode="layer"
     id="g1002" />
  <g
     inkscape:label="F.SilkS"
     inkscape:groupmode="layer"
     id="g1004"
     style="display:inline">
    <path
       style="fill:#000000;stroke-width:0.102173"
       d="m 17.878348,36.413685 c -0.09447,-0.252289 -0.02292,-0.90185 0.103706,-0.941606 0.07652,-0.02402 0.130994,0.04477 0.130994,0.165451 0,0.169982 0.06528,0.206575 0.368491,0.206575 0.28422,0 0.368487,-0.04069 0.368487,-0.177919 0,-0.150887 0.10663,-0.181628 0.701806,-0.202323 0.482466,-0.01678 0.728749,0.01558 0.788007,0.103551 0.06676,0.0991 0.08656,0.100003 0.08781,0.004 0.0032,-0.247571 0.417419,-0.123794 0.580664,0.173524 0.202946,0.369615 0.276679,0.371464 0.501773,0.01258 0.168077,-0.267979 0.222531,-0.285732 0.917597,-0.299189 0.440781,-0.0085 0.738916,0.0264 0.738916,0.08658 0,0.05548 -0.189508,0.100877 -0.421128,0.100877 -0.23162,0 -0.421128,0.04462 -0.421128,0.09916 0,0.05453 0.165817,0.09916 0.368487,0.09916 0.202668,0 0.368487,0.04462 0.368487,0.09916 0,0.05453 -0.165819,0.09916 -0.368487,0.09916 -0.20267,0 -0.368487,0.04462 -0.368487,0.09916 0,0.05453 0.163024,0.09916 0.362273,0.09916 0.199252,0 0.391554,0.04462 0.427342,0.09916 0.04085,0.06226 -0.191923,0.09916 -0.625478,0.09916 h -0.690548 l -0.002,-0.322259 -0.0016,-0.322258 -0.219129,0.322258 c -0.120521,0.177243 -0.276947,0.322259 -0.347613,0.322259 -0.07066,0 -0.205113,-0.145016 -0.298775,-0.322259 -0.131269,-0.248413 -0.172203,-0.276815 -0.178637,-0.123945 -0.0045,0.109072 -0.055,0.265244 -0.112014,0.347048 -0.09215,0.132208 -0.115188,0.132208 -0.207342,0 -0.06932,-0.09946 -0.104203,-0.107672 -0.105281,-0.02479 -0.002,0.163047 -0.966345,0.167245 -1.138659,0.005 -0.09827,-0.09255 -0.126339,-0.09255 -0.126339,0 0,0.06544 -0.04737,0.118988 -0.105285,0.118988 -0.0579,0 -0.105281,-0.08924 -0.105281,-0.198313 0,-0.160539 -0.07018,-0.198313 -0.368487,-0.198313 -0.294565,0 -0.368487,0.03861 -0.368487,0.192461 0,0.227634 -0.168378,0.355915 -0.234699,0.178806 z m 2.287705,-0.470423 c 0,-0.2172 -0.04562,-0.247892 -0.368487,-0.247892 -0.325807,0 -0.372423,0.03233 -0.402462,0.279096 -0.03255,0.267383 -0.01707,0.277786 0.368487,0.247891 0.350266,-0.02716 0.402462,-0.06336 0.402462,-0.279095 z m 4.09858,0.505315 c -0.02487,-0.02343 -0.04521,-0.25825 -0.04521,-0.521842 V 35.44748 h 0.526408 c 0.289529,0 0.526413,0.04462 0.526413,0.09916 0,0.05453 -0.189508,0.09916 -0.421128,0.09916 -0.231623,0 -0.421131,0.04462 -0.421131,0.09916 0,0.05453 0.192305,0.09916 0.427343,0.09916 0.258085,0 0.40157,0.03928 0.362275,0.09916 -0.03577,0.05453 -0.228094,0.09916 -0.427343,0.09916 -0.199249,0 -0.362275,0.04462 -0.362275,0.09916 0,0.05453 0.163026,0.09916 0.362275,0.09916 0.548553,0 0.547312,0.1733 -0.0016,0.214412 -0.26448,0.01981 -0.50122,0.01685 -0.52609,-0.0066 z m 1.180214,0.02083 c -0.03704,-0.03487 -0.06733,-0.279073 -0.06733,-0.542664 0,-0.405721 0.03088,-0.479255 0.201208,-0.479255 0.110664,0 0.3208,0.133861 0.466975,0.297469 0.14617,0.163608 0.292513,0.297469 0.325201,0.297469 0.03271,0 0.05944,-0.133861 0.05944,-0.297469 0,-0.163608 0.04737,-0.297469 0.105282,-0.297469 0.0579,0 0.105281,0.223101 0.105281,0.495781 0,0.606877 -0.15635,0.643468 -0.620786,0.145284 l -0.326754,-0.350497 v 0.344646 c 0,0.33666 -0.113741,0.513644 -0.248519,0.386705 z m 2.632053,0 c -0.03704,-0.03487 -0.06733,-0.279073 -0.06733,-0.542664 v -0.47926 h 0.582356 c 0.62896,0 0.666172,0.03128 0.70795,0.594938 0.02734,0.36902 -0.161642,0.543958 -0.218488,0.20224 -0.04804,-0.288846 -0.755971,-0.298004 -0.755971,-0.0098 0,0.206962 -0.138758,0.337901 -0.248523,0.234522 z m 0.880216,-0.717819 c 0,-0.05089 -0.142132,-0.08872 -0.315846,-0.08407 -0.173719,0.0046 -0.315847,0.04629 -0.315847,0.09253 0,0.04624 0.142128,0.08407 0.315847,0.08407 0.173714,0 0.315846,-0.04163 0.315846,-0.09252 z m 0.731849,0.666272 c -0.181355,-0.06318 -0.212249,-0.1463 -0.185227,-0.498313 l 0.03243,-0.422482 0.553909,-0.03001 c 0.430136,-0.0233 0.568313,0.0054 0.618379,0.128222 0.08849,0.217198 -0.02912,0.302573 -0.215839,0.156644 -0.08476,-0.06625 -0.287252,-0.106072 -0.449992,-0.0885 -0.23419,0.02528 -0.302842,0.08882 -0.329208,0.304634 -0.03204,0.262089 -0.01568,0.272102 0.42113,0.257823 0.313567,-0.01025 0.364688,-0.02766 0.164914,-0.05616 -0.415664,-0.0593 -0.357382,-0.226449 0.07896,-0.226449 0.318556,0 0.368487,0.03218 0.368487,0.237476 0,0.204555 -0.05825,0.242708 -0.420141,0.275213 -0.231082,0.02075 -0.518092,0.0036 -0.637805,-0.03809 z m 1.768601,0.06376 c -0.04343,-0.04159 -0.07896,-0.174599 -0.07896,-0.295578 0,-0.125206 -0.113379,-0.289928 -0.263203,-0.382385 -0.276404,-0.170569 -0.349302,-0.356165 -0.139895,-0.356165 0.06782,0 0.209953,0.07385 0.315846,0.164102 0.179154,0.152699 0.205915,0.152699 0.385069,0 0.197685,-0.168493 0.43916,-0.21957 0.43916,-0.09289 0,0.03916 -0.114344,0.163747 -0.254101,0.276847 -0.139753,0.113101 -0.270042,0.33075 -0.289525,0.483663 -0.0195,0.152914 -0.07096,0.243999 -0.114389,0.202408 z m 2.000361,0 c -0.04343,-0.04159 -0.07896,-0.291282 -0.07896,-0.554873 v -0.479255 h 0.505354 c 0.609995,0 0.758031,0.120057 0.758031,0.614769 0,0.4001 -0.14892,0.510357 -0.241069,0.178481 -0.04194,-0.151027 -0.143609,-0.198312 -0.426416,-0.198312 -0.321023,0 -0.375864,0.03488 -0.404666,0.257404 -0.0183,0.141572 -0.06885,0.223377 -0.112276,0.181786 z m 0.868581,-0.736659 c 0,-0.05453 -0.139335,-0.09916 -0.309636,-0.09916 -0.170296,0 -0.338913,0.04462 -0.374698,0.09916 -0.03872,0.05901 0.08664,0.09916 0.309631,0.09916 0.206085,0 0.374703,-0.04462 0.374703,-0.09916 z m 1.789794,0.695535 c 0,-0.231144 0.455182,-0.993004 0.593278,-0.993004 0.120067,0 0.670109,0.760007 0.670109,0.925908 0,0.03611 -0.07106,0.06565 -0.157922,0.06565 -0.08685,0 -0.157925,-0.04462 -0.157925,-0.09916 0,-0.16043 -0.545652,-0.113493 -0.755004,0.06495 -0.138153,0.11775 -0.192536,0.12782 -0.192536,0.03565 z m 0.736978,-0.497223 c 0,-0.05453 -0.04458,-0.09916 -0.09907,-0.09916 -0.05448,0 -0.128349,0.04462 -0.164137,0.09916 -0.03577,0.05453 0.0088,0.09916 0.09907,0.09916 0.09027,0 0.164136,-0.04462 0.164137,-0.09916 z m 1.026758,0.521374 c -0.34289,-0.04589 -0.484584,-0.406199 -0.305402,-0.776576 0.100848,-0.208464 0.187399,-0.240579 0.648358,-0.240579 0.38235,0 0.549507,0.04304 0.594317,0.153011 0.08666,0.212676 -0.03314,0.295894 -0.217963,0.151423 -0.08476,-0.06625 -0.287257,-0.106072 -0.449997,-0.0885 -0.238432,0.02575 -0.302655,0.08777 -0.330716,0.319395 l -0.03482,0.28744 0.534916,-0.05967 c 0.294204,-0.03282 0.534916,-0.01978 0.534916,0.02896 0,0.171967 -0.502506,0.288141 -0.973604,0.225085 z m 1.672623,0.0047 c -0.03705,-0.03487 -0.06733,-0.234448 -0.06733,-0.443504 0,-0.341671 -0.02722,-0.380099 -0.269417,-0.380099 -0.152805,0 -0.241257,-0.04292 -0.20435,-0.09916 0.03577,-0.05453 0.322842,-0.09916 0.637904,-0.09916 0.315062,0 0.572837,0.04462 0.572837,0.09916 0,0.05453 -0.09475,0.09916 -0.210561,0.09916 -0.174944,0 -0.210566,0.0661 -0.210566,0.390774 0,0.376582 -0.108185,0.565003 -0.248519,0.432833 z m 3.485947,0.012 c -0.04343,-0.04147 -0.07896,-0.15721 -0.07896,-0.257194 0,-0.141652 -0.08136,-0.181786 -0.368487,-0.181786 -0.298298,0 -0.368487,0.03778 -0.368487,0.198312 0,0.110174 -0.07018,0.198314 -0.157925,0.198314 -0.11932,0 -0.157922,-0.121192 -0.157922,-0.495783 v -0.495781 h 0.582356 c 0.399159,0 0.599967,0.04322 0.638334,0.137391 0.08179,0.200744 0.004,0.985245 -0.0889,0.896526 z m -0.184243,-0.736426 c 0,-0.05453 -0.142132,-0.09916 -0.315846,-0.09916 -0.173719,0 -0.315847,0.04462 -0.315847,0.09916 0,0.05453 0.142128,0.09916 0.315847,0.09916 0.173714,0 0.315846,-0.04462 0.315846,-0.09916 z m -16.002894,0.198312 v -0.495781 h 0.526412 c 0.289525,0 0.526408,0.04462 0.526408,0.09916 0,0.05453 -0.189508,0.09916 -0.421127,0.09916 -0.231619,0 -0.421127,0.04462 -0.421127,0.09916 0,0.05453 0.163022,0.09916 0.362271,0.09916 0.199253,0 0.391554,0.04462 0.427343,0.09916 0.03931,0.05988 -0.104186,0.09916 -0.362271,0.09916 -0.235043,0 -0.427343,0.04462 -0.427343,0.09916 0,0.05453 0.163022,0.09916 0.362271,0.09916 0.199253,0 0.391554,0.04462 0.427343,0.09916 0.0401,0.06111 -0.139283,0.09916 -0.467557,0.09916 h -0.532623 z m 8.001445,0 v -0.495782 h 0.526412 c 0.289524,0 0.526413,0.04462 0.526413,0.09916 0,0.05453 -0.165821,0.09916 -0.368487,0.09916 -0.202672,0 -0.368492,0.04462 -0.368492,0.09916 0,0.05453 0.16582,0.09916 0.368492,0.09916 0.202666,0 0.368487,0.04462 0.368487,0.09916 0,0.05453 -0.163023,0.09916 -0.362276,0.09916 -0.199249,0 -0.391554,0.04462 -0.427343,0.09916 -0.03927,0.05988 0.104191,0.09916 0.362276,0.09916 0.235037,0 0.427343,0.04462 0.427343,0.09916 0,0.05453 -0.236889,0.09916 -0.526413,0.09916 h -0.526412 z m 5.624002,0.361707 c -0.03239,-0.07948 -0.0437,-0.29378 -0.02515,-0.476212 l 0.03374,-0.331699 h 0.579052 0.579053 v 0.446204 0.446204 l -0.553908,0.03001 c -0.409887,0.0222 -0.569221,-0.0076 -0.612793,-0.114506 z m 0.989449,-0.336918 c -0.02777,-0.227349 -0.09031,-0.277854 -0.376202,-0.303802 -0.236157,-0.02144 -0.362558,0.01715 -0.406075,0.123945 -0.117378,0.288083 0.04136,0.452537 0.436806,0.452537 0.351109,0 0.37635,-0.01992 0.345471,-0.27268 z M 17.855715,35.158959 c -0.03255,-0.04962 -0.03319,-0.154066 -0.0016,-0.232115 0.04978,-0.122175 1.802909,-0.138902 12.607883,-0.120292 6.902537,0.01189 12.585599,0.02709 12.629027,0.03381 0.04343,0.0067 0.07896,0.101427 0.07896,0.210499 0,0.197211 -0.07019,0.198313 -12.627651,0.198313 -7.469813,0 -12.651829,-0.03685 -12.686845,-0.09021 z m 2.49137,-0.788749 c -0.06365,-0.03704 -0.130417,-0.311794 -0.14838,-0.610553 l -0.03267,-0.543195 -0.283703,0.570149 c -0.247631,0.497657 -0.321744,0.570149 -0.582888,0.570149 -0.2614,0 -0.341119,-0.07827 -0.631196,-0.619728 l -0.332014,-0.619727 -0.0064,0.619727 c -0.0061,0.595308 -0.01683,0.619728 -0.272648,0.619728 h -0.26633 l 0.01488,-0.936848 c 0.01592,-1.002697 0.0495,-1.056994 0.596311,-0.96426 0.170249,0.02887 0.314291,0.203455 0.514467,0.623556 0.152907,0.320902 0.313422,0.583458 0.356692,0.583458 0.04327,0 0.231341,-0.289139 0.417928,-0.64253 0.320646,-0.607286 0.357409,-0.640668 0.670244,-0.608608 l 0.330987,0.03392 0.02996,0.943724 c 0.02316,0.729173 -0.0028,0.955622 -0.114827,0.996059 -0.07964,0.02878 -0.196886,0.02202 -0.260532,-0.01502 z m 4.109216,0.0095 c -0.169974,-0.02639 -0.236884,-0.104844 -0.236884,-0.277765 0,-0.201667 0.05155,-0.240995 0.315847,-0.240995 0.264678,0 0.315846,0.03921 0.315846,0.242039 0,0.279929 -0.06784,0.327475 -0.394809,0.276721 z M 26.3669,34.3164 C 26.33908,34.24814 26.33013,33.798041 26.347,33.316165 l 0.03068,-0.876141 1.052821,0.0095 c 0.972234,0.0088 1.05535,0.02491 1.085871,0.210398 0.03044,0.185057 -0.031,0.203147 -0.78117,0.229934 -0.518212,0.0185 -0.82949,0.07257 -0.856234,0.148726 -0.02989,0.08505 0.196041,0.128061 0.781167,0.148735 0.742707,0.02624 0.82319,0.04847 0.82319,0.227395 0,0.178893 -0.08048,0.201158 -0.821786,0.227371 -0.701022,0.02479 -0.819147,0.05393 -0.803816,0.198313 0.03868,0.36434 -0.0148,0.495269 -0.22328,0.546618 -0.123493,0.03041 -0.238789,-2.9e-5 -0.267566,-0.07065 z m 15.817994,-0.151435 c -0.178029,-0.139929 -0.538462,-0.442166 -0.800967,-0.671639 l -0.477286,-0.417225 -0.03112,0.640327 -0.03112,0.640325 h -0.367492 -0.367488 l 0.03012,-0.96222 0.03012,-0.962218 0.391981,-0.03576 c 0.483683,-0.04413 0.545078,-0.01185 1.331871,0.700304 l 0.63471,0.574496 0.03147,-0.622315 c 0.03012,-0.595939 0.04345,-0.623168 0.314148,-0.642427 l 0.28268,-0.02011 0.03315,0.977396 0.03315,0.977395 -0.357139,0.03905 c -0.268725,0.02938 -0.437266,-0.02394 -0.68082,-0.21537 z m -20.893867,-0.764074 0.03314,-0.955862 1.050039,0.02014 c 0.577524,0.01107 1.110952,0.06774 1.185394,0.125933 0.08681,0.06786 0.13029,0.325877 0.121225,0.719424 -0.0078,0.337494 0.01867,0.710962 0.05876,0.829928 0.06385,0.189466 0.03374,0.216304 -0.242725,0.216304 -0.247154,0 -0.322918,-0.04839 -0.349264,-0.223102 -0.0298,-0.197636 -0.102738,-0.226496 -0.639015,-0.252839 -0.586955,-0.02883 -0.60537,-0.02205 -0.60537,0.223102 0,0.216014 -0.04699,0.252839 -0.32266,0.252839 h -0.322655 z m 1.849702,-0.258804 c -0.02619,-0.07471 -0.280612,-0.13576 -0.640468,-0.153682 -0.482649,-0.02404 -0.597054,-2.91e-4 -0.597054,0.123945 0,0.121965 0.132187,0.153683 0.640466,0.153683 0.465341,0 0.628598,-0.03389 0.597056,-0.123946 z m 5.985967,1.028485 c -0.142948,-0.148764 -0.172676,-0.342562 -0.147922,-0.964294 0.03009,-0.756094 0.03844,-0.778112 0.294189,-0.778134 0.253584,-2.3e-5 0.264332,0.02613 0.29412,0.715599 0.0347,0.803337 0.10279,0.862004 0.926661,0.798496 l 0.411091,-0.03169 0.05264,-0.743673 c 0.02897,-0.409021 0.08817,-0.732518 0.131603,-0.718884 0.04343,0.01363 0.173715,0.02479 0.289524,0.02479 0.192863,0 0.210566,0.0661 0.210566,0.786169 0,1.054541 -0.05152,1.097803 -1.307229,1.097803 -0.821432,0 -1.004728,-0.02954 -1.155244,-0.186182 z m 3.158004,0.03383 c -0.09302,-0.08761 -0.169119,-0.228088 -0.169119,-0.312186 0,-0.12034 0.07288,-0.138439 0.342166,-0.08498 0.609115,0.120922 1.342893,0.173912 1.520321,0.109789 0.323944,-0.117076 -0.01349,-0.247842 -0.811961,-0.314659 -0.433026,-0.03624 -0.846541,-0.109886 -0.918922,-0.16367 -0.212659,-0.158015 -0.163719,-0.744434 0.07204,-0.863269 0.112002,-0.05646 0.630463,-0.102644 1.152133,-0.102644 0.852963,0 0.964558,0.0216 1.107996,0.214472 0.08773,0.117959 0.134993,0.251821 0.105038,0.297469 -0.07721,0.11767 -0.505077,0.103021 -0.637642,-0.02184 -0.138877,-0.130798 -1.256009,-0.08028 -1.221828,0.05525 0.01377,0.05453 0.392362,0.121466 0.841344,0.148734 0.778321,0.04727 0.82323,0.06317 0.964327,0.341375 0.127505,0.251407 0.127111,0.326897 -0.0028,0.545361 -0.143334,0.240955 -0.201132,0.254967 -1.162384,0.281815 -0.816768,0.02281 -1.044113,-0.0024 -1.180667,-0.131028 z m 3.094628,-0.77807 c 0,-0.91136 0.0054,-0.931389 0.260731,-0.977369 0.143401,-0.02582 0.285533,-0.02358 0.315846,0.005 0.03032,0.02855 0.05512,0.468365 0.05512,0.977368 v 0.92546 h -0.315846 -0.315847 v -0.930427 z m 1.428829,0.774608 c -0.115241,-0.108533 -0.165442,-0.344575 -0.165442,-0.77788 0,-0.858302 0.136294,-0.962596 1.281363,-0.980496 1.135998,-0.01776 1.397138,0.05369 1.561423,0.427232 0.175855,0.399848 0.07862,1.187476 -0.167527,1.356989 -0.289763,0.199551 -2.292392,0.178931 -2.509817,-0.02584 z M 38.85364,33.410428 V 32.95988 l -0.763296,0.02913 c -0.751462,0.02869 -0.763825,0.03349 -0.797465,0.310189 -0.06175,0.507825 0.01703,0.561773 0.82048,0.561773 H 38.85364 Z M 29.220322,30.38886 c -2.292025,-0.430361 -4.308597,-2.252079 -4.83904,-4.37146 -0.937103,-3.744164 2.007571,-7.279361 6.049782,-7.263003 3.52564,0.01427 6.256464,2.586682 6.247443,5.885038 -0.0088,3.235348 -2.837411,5.878485 -6.247443,5.837896 -0.434286,-0.0051 -0.979122,-0.04499 -1.210742,-0.08847 z m 2.511576,-0.849532 c 1.820837,-0.442151 3.325233,-1.76179 3.857017,-3.383336 0.263401,-0.803172 0.283444,-2.142415 0.04357,-2.911538 -0.541601,-1.736609 -1.992939,-3.086314 -3.835541,-3.566955 -0.259044,-0.06757 -0.897379,-0.119621 -1.418526,-0.115668 -4.03953,0.03064 -6.583082,4.08849 -4.67556,7.45913 1.134572,2.004817 3.711363,3.081161 6.029034,2.518367 z M 28.82671,29.07228 c -1.311848,-0.430908 -2.258178,-1.223933 -2.871022,-2.405918 -0.954078,-1.840109 -0.588722,-3.903456 0.94725,-5.349568 1.593295,-1.500081 3.731728,-1.842629 5.796535,-0.928527 0.628056,0.278044 1.571935,1.092357 1.996771,1.722681 1.601437,2.376011 0.630607,5.478071 -2.114299,6.755743 -0.773237,0.359919 -0.882939,0.383196 -1.932775,0.410103 -0.947321,0.02428 -1.218613,-0.0062 -1.82246,-0.204514 z m -0.981028,-1.876842 c 0.09014,-0.121206 0.163894,-0.299483 0.163894,-0.396171 0,-0.125379 0.349025,-0.338767 1.216978,-0.744043 l 1.216977,-0.568248 1.222532,0.592583 c 1.101697,0.53401 1.233761,0.626885 1.336117,0.939629 0.09648,0.294807 0.166569,0.351829 0.465595,0.378811 0.638227,0.05759 0.996945,-0.555996 0.579208,-0.99073 -0.18484,-0.192365 -0.621706,-0.237285 -0.869723,-0.08943 -0.102654,0.0612 -0.487822,-0.0698 -1.237064,-0.420749 -0.598403,-0.280288 -1.086687,-0.532907 -1.085076,-0.561377 0.0016,-0.02847 0.272315,-0.172547 0.601567,-0.320172 l 0.598646,-0.268411 0.41611,0.218832 c 0.228862,0.120358 0.428278,0.300404 0.443144,0.4001 0.05081,0.340693 0.131938,0.438401 0.450987,0.543152 0.629449,0.206659 1.130959,-0.521448 0.681409,-0.989291 -0.187769,-0.195411 -0.665823,-0.242891 -0.835598,-0.08299 -0.107724,0.101455 -0.779957,-0.07713 -0.779957,-0.207204 0,-0.03597 0.144265,-0.121668 0.32059,-0.190454 0.245204,-0.09566 0.38278,-0.09838 0.585069,-0.01157 0.273771,0.117481 0.632071,0.01737 0.803566,-0.224521 0.134679,-0.189966 0.08695,-0.582631 -0.09367,-0.770599 -0.3539,-0.3683 -1.089147,-0.113543 -1.089147,0.377382 0,0.170623 -0.113931,0.285249 -0.438551,0.441223 l -0.438556,0.210716 -0.614265,-0.276511 c -0.337848,-0.15208 -0.611881,-0.301771 -0.608961,-0.332646 0.0028,-0.03087 0.481946,-0.270723 1.064492,-0.532997 0.9414,-0.423832 1.094757,-0.465182 1.379069,-0.371836 0.420149,0.137941 0.42213,0.137662 0.689745,-0.09715 0.273456,-0.239941 0.299067,-0.65275 0.05617,-0.905526 -0.355793,-0.370273 -1.089146,-0.113017 -1.089146,0.382067 0,0.201775 -0.177996,0.317697 -1.252751,0.815863 l -1.252753,0.580667 -1.212714,-0.549085 c -1.130586,-0.5119 -1.217173,-0.571469 -1.278548,-0.879605 -0.106056,-0.532421 -0.709947,-0.70933 -1.115978,-0.326923 -0.286225,0.269572 -0.229805,0.66327 0.131277,0.916028 0.248953,0.174269 0.321473,0.182896 0.605618,0.07205 0.300104,-0.117074 0.396803,-0.0925 1.375376,0.349529 0.578914,0.261502 1.052574,0.512855 1.052574,0.558564 0,0.04571 -0.254413,0.20062 -0.565357,0.344248 l -0.565352,0.261142 -0.43211,-0.187853 c -0.31665,-0.137659 -0.432838,-0.247467 -0.434828,-0.410955 -0.0035,-0.297557 -0.360791,-0.619727 -0.687047,-0.619727 -0.294547,0 -0.684337,0.314345 -0.684337,0.551878 0,0.483875 0.455722,0.784613 0.945359,0.623856 0.333884,-0.10962 0.845577,0.0029 0.843619,0.18554 -0.0016,0.156892 -0.547948,0.320094 -0.742748,0.221905 -0.489661,-0.246811 -1.04623,0.03947 -1.04623,0.53815 0,0.525621 0.88094,0.770955 1.204776,0.335517 0.09014,-0.121206 0.163894,-0.298392 0.163894,-0.393745 0,-0.107193 0.168558,-0.246144 0.441593,-0.364031 l 0.441596,-0.190664 0.558584,0.258017 c 0.307224,0.141908 0.558588,0.292171 0.558588,0.333917 0,0.04175 -0.478086,0.294761 -1.062414,0.562259 -0.936522,0.428728 -1.097822,0.473771 -1.361246,0.380125 -0.638594,-0.227017 -1.162718,0.348458 -0.796626,0.874675 0.23033,0.331072 0.818638,0.345998 1.056031,0.02679 z m 1.92737,-2.286768 c -0.275051,-0.113729 -0.500089,-0.234937 -0.500089,-0.269353 0,-0.03442 0.276226,-0.186916 0.613834,-0.33889 l 0.613834,-0.276316 0.544268,0.259755 c 0.299349,0.142864 0.542969,0.292467 0.541377,0.332451 -0.0044,0.109312 -0.915002,0.520355 -1.127712,0.509016 -0.101982,-0.0055 -0.410463,-0.102934 -0.685512,-0.216663 z"
       id="path1818" />
    <path
       id="path3236"
       style="fill:#000000;fill-opacity:1;stroke:#000000;stroke-width:0.421676"
       d="m 11.988543,10.548129 c 0,-0.8672404 0.695565,-1.4478282 1.541875,-1.5654154 11.243634,-1.5622014 22.535763,-2.0881979 33.950236,0 0.840655,0.1537927 1.541869,0.698175 1.541869,1.5654154 0.0054,0.254586 0.0023,0.555056 -0.0083,0.899099 -12.324868,-2.1974589 -25.009572,-1.6022081 -37.02568,0.04221 z"
       sodipodi:nodetypes="ssscccs" />
    <path
       style="fill:#000000;fill-opacity:1;stroke:#000000;stroke-width:0.271981px;stroke-linecap:butt;stroke-linejoin:miter;stroke-opacity:1"
       d="m 10.852746,54.121518 c 9.383349,9.009844 48.177128,45.559235 0.01441,46.029362"
       id="path8757"
       sodipodi:nodetypes="cc" />
    <path
       style="fill:none;stroke:#000000;stroke-width:0.41336;stroke-linecap:butt;stroke-linejoin:miter;stroke-miterlimit:4;stroke-dasharray:none;stroke-opacity:1"
       d="m 50.296217,46.244918 v 9.947294 0"
       id="path10345" />
  </g>
  <g
     inkscape:label="Dwgs.User"
     inkscape:groupmode="layer"
     id="g1006" />
  <g
     inkscape:label="Drill"
     inkscape:groupmode="layer"
     id="g1008" />
</svg>
