<?xml version="1.0" standalone="no"?>
 <!DOCTYPE svg PUBLIC "-//W3C//DTD SVG 1.1//EN" 
 "http://www.w3.org/Graphics/SVG/1.1/DTD/svg11.dtd"> 
<svg
  xmlns:svg="http://www.w3.org/2000/svg"
  xmlns="http://www.w3.org/2000/svg"
  xmlns:xlink="http://www.w3.org/1999/xlink"
  version="1.1"
  width="75.0824mm" height="76.7842mm" viewBox="0.0000 0.0000 75.0824 76.7842">
<title>SVG Image created as T7Totem-F_Silkscreen.svg date 2023/03/19 21:17:50 </title>
  <desc>Image generated by PCBNEW </desc>
<g style="fill:#000000; fill-opacity:1.0000;stroke:#000000; stroke-opacity:1.0000;
stroke-linecap:round; stroke-linejoin:round;"
 transform="translate(0 0) scale(1 1)">
</g>
<g style="fill:#000000; fill-opacity:0.0; 
stroke:#000000; stroke-width:0.0000; stroke-opacity:1; 
stroke-linecap:round; stroke-linejoin:round;">
</g>
<g style="fill:#F2EDA1; fill-opacity:0.0; 
stroke:#F2EDA1; stroke-width:0.0000; stroke-opacity:1; 
stroke-linecap:round; stroke-linejoin:round;">
</g>
<g style="fill:#F2EDA1; fill-opacity:0.0; 
stroke:#F2EDA1; stroke-width:0.1500; stroke-opacity:1; 
stroke-linecap:round; stroke-linejoin:round;">
<path d="M9.5902 41.7026 A1.4001 1.4001 0.0 0 0 10.9902 43.1026" />
<path d="M65.5103 36.6925 A1.4000 1.4000 0.0 0 0 64.1103 35.2925" />
<path d="M64.1103 35.2925
L10.9902 35.2925
" />
<path d="M9.5902 36.6925
L9.5902 41.7026
" />
<path d="M64.1003 43.0925 A1.4000 1.4000 0.0 0 0 65.5003 41.6925" />
<path d="M10.9902 43.1026
L64.1003 43.0925
" />
<path d="M65.5003 41.6925
L65.5103 36.6925
" />
<path d="M10.9902 35.2924 A1.4001 1.4001 0.0 0 0 9.5902 36.6925" />
</g>
<g style="fill:#F2EDA1; fill-opacity:1.0000; 
stroke:#F2EDA1; stroke-width:0.0000; stroke-opacity:1; 
stroke-linecap:round; stroke-linejoin:round;">
<path style="fill:#F2EDA1; fill-opacity:1.0000; 
stroke:#F2EDA1; stroke-width:0.0000; stroke-opacity:1; 
stroke-linecap:round; stroke-linejoin:round;fill-rule:evenodd;"
d="M 14.4402,55.5829
14.5522,55.8711
14.4355,56.1544
14.1426,56.2830
13.8425,56.1568
13.7187,55.8734
13.8354,55.5829
14.1402,55.4496
Z" /> 
<path style="fill:#F2EDA1; fill-opacity:1.0000; 
stroke:#F2EDA1; stroke-width:0.0000; stroke-opacity:1; 
stroke-linecap:round; stroke-linejoin:round;fill-rule:evenodd;"
d="M 59.8031,55.3829
59.8864,55.5591
59.7054,55.7115
59.1053,55.7115
59.2577,55.4424
59.5649,55.3162
Z" /> 
<path style="fill:#F2EDA1; fill-opacity:1.0000; 
stroke:#F2EDA1; stroke-width:0.0000; stroke-opacity:1; 
stroke-linecap:round; stroke-linejoin:round;fill-rule:evenodd;"
d="M 59.5721,59.1993
57.4813,59.1993
54.5333,59.1993
51.3615,59.1993
47.2039,59.1993
43.9511,59.1993
40.8293,59.1993
36.2168,59.1993
33.4879,59.1993
29.1159,59.1993
27.1490,59.1993
24.2629,59.1993
20.7506,59.1993
19.0480,59.1993
15.0403,59.1993
11.3756,59.1993
10.1087,59.1993
9.1166,59.1993
7.1325,59.1993
7.9838,56.3616
10.1087,56.3616
10.2326,56.6354
10.2754,56.6878
10.4135,56.8331
10.6279,56.9831
10.9517,57.1188
11.1577,57.1599
11.3756,57.1736
11.6619,57.1456
11.9365,57.0614
12.1995,56.9212
12.3805,56.7658
12.5233,56.5569
12.6162,56.3027
12.6472,56.0116
12.6317,55.8663
12.8853,55.8663
12.9244,56.1846
13.0419,56.4759
13.2377,56.7402
13.4793,56.9492
13.7341,57.0747
14.0021,57.1165
14.3551,57.0534
14.5903,56.8640
14.6927,57.0522
15.0403,57.1165
15.2517,57.0855
15.3665,56.9926
15.4070,56.8664
15.4140,56.7069
15.7952,56.7069
15.8023,56.8736
15.8428,56.9974
15.9678,57.0938
16.2095,57.1260
16.4524,57.0950
16.5810,57.0022
16.6262,56.8760
16.6334,56.7116
16.6334,55.8687
16.7048,55.5579
16.9191,55.4543
17.1406,55.5579
17.2144,55.8687
17.2144,56.7021
17.2215,56.8664
17.2620,56.9926
17.3870,57.0926
17.6287,57.1260
17.8740,57.0938
18.0002,56.9974
18.0455,56.8736
18.0526,56.7069
18.0526,55.8734
18.1121,55.5639
18.3383,55.4543
18.5598,55.5579
18.6336,55.8687
18.6336,56.7021
18.6408,56.8664
18.6812,56.9926
18.8063,57.0926
19.0480,57.1260
19.2920,57.0938
19.4147,56.9974
19.4599,56.8712
19.4664,56.7212
19.7766,56.7212
19.8671,56.9021
20.1537,57.0503
20.4481,57.1392
20.7506,57.1688
21.0397,57.1524
21.2945,57.1032
21.5149,57.0212
21.7745,56.7617
21.8441,56.5694
21.8674,56.3402
21.8441,56.1134
21.7745,55.9282
21.7102,55.8639
22.1769,55.8639
22.2121,56.1954
22.3177,56.4915
22.4936,56.7521
22.7230,56.9545
22.9889,57.0760
23.2913,57.1165
23.6438,57.0117
23.7724,56.9069
23.8581,56.8117
23.9057,57.0069
24.0283,57.0926
24.2629,57.1212
24.5022,57.0903
24.6296,56.9974
24.6749,56.8760
24.6820,56.7164
24.6820,56.7021
25.0630,56.7021
25.0701,56.8664
25.1106,56.9926
25.2356,57.0891
25.4773,57.1212
25.7214,57.0891
25.8440,56.9926
25.8893,56.8712
25.8964,56.7069
25.8964,55.8639
26.0131,55.5639
26.3179,55.4496
26.6180,55.5591
26.7299,55.8639
26.7299,56.7021
26.7584,56.9450
26.8823,57.0772
27.1490,57.1212
27.3942,57.0891
27.5204,56.9926
27.5609,56.8712
27.5681,56.7069
27.5681,55.8687
27.5645,55.8353
27.8776,55.8353
27.9160,56.1457
28.0311,56.4291
28.2229,56.6855
28.4587,56.8879
28.7055,57.0093
28.9635,57.0498
29.3052,56.9903
29.5397,56.8117
29.5397,56.9545
29.4254,57.2974
29.1302,57.4403
28.8730,57.3963
28.6349,57.2641
28.4968,57.2069
28.3801,57.2450
28.2396,57.3832
28.0967,57.7118
28.1789,57.8630
28.4253,58.0309
28.7623,58.1630
29.1159,58.2071
29.4228,58.1698
29.7086,58.0578
29.9731,57.8713
30.1848,57.6239
30.3118,57.3295
30.3541,56.9879
30.3541,55.0162
30.3470,54.8543
30.3041,54.7328
30.1827,54.6352
29.9112,54.6066
29.6421,54.6757
29.5445,54.8781
29.4659,54.7852
29.2826,54.6757
28.9873,54.6161
28.7185,54.6569
28.4645,54.7791
28.2253,54.9829
28.0322,55.2406
27.9163,55.5247
27.8776,55.8353
27.5645,55.8353
27.5329,55.5372
27.4273,55.2411
27.2514,54.9805
27.0225,54.7781
26.7582,54.6566
26.4584,54.6161
26.1012,54.7257
25.9726,54.8257
25.8869,54.9209
25.8393,54.7257
25.7166,54.6435
25.4821,54.6161
25.2404,54.6459
25.1154,54.7352
25.0701,54.8567
25.0630,55.0162
25.0630,56.7021
24.6820,56.7021
24.6820,55.0305
24.6749,54.8662
24.6344,54.7400
24.5094,54.6435
24.2677,54.6114
24.0236,54.6423
23.9009,54.7352
23.8557,54.8614
23.8486,55.0257
23.8486,55.8687
23.7319,56.1687
23.4271,56.2830
23.1270,56.1735
23.0151,55.8687
23.0151,55.0352
22.9865,54.7924
22.8603,54.6566
22.5960,54.6114
22.3508,54.6435
22.2245,54.7400
22.1841,54.8638
22.1769,55.0305
22.1769,55.8639
21.7102,55.8639
21.5435,55.6972
21.2435,55.5782
20.9339,55.5163
20.6910,55.4484
20.6101,55.3305
20.8910,55.2257
21.2268,55.2972
21.4387,55.3686
21.6530,55.2019
21.7578,54.9209
21.5911,54.7304
21.2387,54.6090
20.8958,54.5685
20.5238,54.5986
20.2344,54.6889
20.0277,54.8394
19.9037,55.0501
19.8623,55.3210
19.8850,55.5561
19.9528,55.7568
20.1814,56.0258
20.4779,56.1723
20.7767,56.2497
21.0161,56.3045
21.0958,56.3830
21.0232,56.4688
20.8053,56.4973
20.4434,56.3807
20.1267,56.2640
19.9576,56.3449
19.8219,56.5652
19.7766,56.7212
19.4664,56.7212
19.4671,56.7069
19.4671,55.8734
19.4385,55.4652
19.3528,55.1421
19.2099,54.9043
18.9218,54.6846
18.5717,54.6114
18.2383,54.7043
18.0026,54.8757
17.8764,55.0257
17.6901,54.7955
17.4488,54.6574
17.1525,54.6114
16.8608,54.6959
16.6143,54.9495
16.5334,54.7019
16.1857,54.6161
15.9678,54.6483
15.8476,54.7447
15.8023,54.8662
15.7952,55.0305
15.7952,56.7069
15.4140,56.7069
15.4142,56.7021
15.4142,55.0352
15.4070,54.8709
15.3642,54.7447
15.2380,54.6447
14.9617,54.6161
14.6938,54.6828
14.5855,54.8828
14.4998,54.7852
14.3140,54.6781
14.0188,54.6209
13.7439,54.6625
13.4843,54.7871
13.2401,54.9948
13.0430,55.2578
12.9247,55.5483
12.8853,55.8663
12.6317,55.8663
12.6168,55.7264
12.5257,55.4901
12.3894,55.3097
12.2233,55.1924
12.0340,55.1132
11.8280,55.0472
11.6220,54.9954
11.4327,54.9590
11.1303,54.8495
11.0089,54.6376
11.1113,54.4328
11.3684,54.3590
11.6232,54.4209
11.6970,54.4828
11.7518,54.5304
11.9995,54.6257
12.1685,54.5661
12.3328,54.3875
12.4471,54.1256
12.3507,53.9732
31.8210,53.9732
31.8448,54.1732
31.9400,54.2852
32.1639,54.3209
33.0783,54.3209
33.0783,56.7116
33.0854,56.8760
33.1283,56.9998
33.2521,57.0974
33.4879,57.1260
33.7260,57.0974
33.8522,56.9998
33.8951,56.8783
33.9022,56.7164
33.9022,54.3209
34.8118,54.3209
35.0547,54.2780
35.1357,54.1756
35.1497,54.0589
35.3024,54.0589
35.3309,54.2971
35.4452,54.4352
35.7215,54.4828
36.8073,54.4828
36.7025,54.6995
36.5871,54.8698
36.4501,55.0710
36.3025,55.2978
36.1549,55.5448
36.0179,55.8193
35.9024,56.1282
35.8239,56.4503
35.7977,56.7640
35.8048,56.9236
35.8501,57.0307
35.9763,57.1069
36.2168,57.1260
36.4573,57.1069
36.5835,57.0331
36.6311,56.9283
36.6406,56.7736
36.6668,56.5497
36.7454,56.2925
36.8764,56.0020
37.0597,55.6782
37.1793,55.4877
39.2981,55.4877
39.3222,55.7984
39.3945,56.0925
39.5151,56.3699
39.6839,56.6307
39.8976,56.8545
40.1673,57.0307
40.4816,57.1450
40.8293,57.1831
41.1775,57.1456
41.4936,57.0331
41.7663,56.8599
41.9842,56.6402
42.1550,56.3759
42.1613,56.3616
42.6842,56.3616
42.8081,56.6354
42.8509,56.6878
42.9890,56.8331
43.2034,56.9831
43.5272,57.1188
43.7332,57.1599
43.9511,57.1736
44.2374,57.1456
44.5120,57.0614
44.7750,56.9212
44.9560,56.7658
45.0060,56.6926
45.5322,56.6926
45.5608,56.9402
45.6870,57.0760
45.9513,57.1212
47.2039,57.1212
47.4904,57.0855
47.7468,56.9783
47.9730,56.7998
48.1500,56.5682
48.2588,56.3023
48.2992,56.0020
48.2680,55.7348
48.1744,55.4856
48.0182,55.2543
48.1540,54.9793
48.1992,54.6781
48.1648,54.4029
48.0616,54.1552
47.9194,53.9732
49.6946,53.9732
49.7185,54.1732
49.8137,54.2852
50.0375,54.3209
50.9519,54.3209
50.9519,56.7116
50.9591,56.8760
51.0020,56.9998
51.1258,57.0974
51.3615,57.1260
51.5996,57.0974
51.7259,56.9998
51.7687,56.8783
51.7759,56.7164
51.7759,55.8734
53.2237,55.8734
53.2743,56.2348
53.4261,56.5569
53.6517,56.8224
53.9237,57.0141
54.2238,57.1302
54.5333,57.1688
54.8423,57.1325
55.1406,57.0236
55.4114,56.8379
55.6382,56.5712
55.7918,56.2419
55.8430,55.8687
55.7991,55.5102
55.6674,55.1966
55.5860,55.0972
56.0335,55.0972
56.1026,55.3734
56.2764,55.4543
56.4717,55.4401
56.4717,56.1449
56.5003,56.4661
56.5860,56.7185
56.7289,56.9021
56.9268,57.0265
57.1776,57.1011
57.4813,57.1260
57.6409,57.1188
57.7671,57.0784
57.8671,56.9533
57.9004,56.7116
57.7909,56.3926
57.6647,56.3473
57.4932,56.3402
57.3408,56.2830
57.3004,56.0973
57.3004,55.8830
58.2195,55.8830
58.2529,56.1904
58.3529,56.4778
58.5196,56.7450
58.7023,56.9254
58.9458,57.0665
59.2393,57.1575
59.5721,57.1879
60.0159,57.1614
60.3329,57.0819
60.5231,56.9495
60.5865,56.7640
60.5703,56.7069
61.0199,56.7069
61.0270,56.8736
61.0675,56.9974
61.1925,57.0938
61.4342,57.1260
61.6771,57.0950
61.8057,57.0022
61.8509,56.8760
61.8581,56.7116
61.8581,55.8687
61.9295,55.5579
62.1438,55.4543
62.3653,55.5579
62.4391,55.8687
62.4391,56.7021
62.4462,56.8664
62.4867,56.9926
62.6117,57.0926
62.8534,57.1260
63.0987,57.0938
63.2249,56.9974
63.2702,56.8736
63.2773,56.7069
63.2773,55.8734
63.3368,55.5639
63.5630,55.4543
63.7845,55.5579
63.8583,55.8687
63.8583,56.7021
63.8655,56.8664
63.9059,56.9926
64.0310,57.0926
64.2727,57.1260
64.5167,57.0938
64.6394,56.9974
64.6846,56.8712
64.6918,56.7069
64.6918,55.8734
64.6632,55.4652
64.5775,55.1421
64.4346,54.9043
64.1465,54.6846
63.7964,54.6114
63.4630,54.7043
63.2273,54.8757
63.1011,55.0257
62.9148,54.7955
62.6735,54.6574
62.3772,54.6114
62.0855,54.6959
61.8390,54.9495
61.7581,54.7019
61.4104,54.6161
61.1925,54.6483
61.0723,54.7447
61.0270,54.8662
61.0199,55.0305
61.0199,56.7069
60.5703,56.7069
60.5246,56.5450
60.2626,56.3306
60.0721,56.3830
60.0197,56.4021
59.8328,56.4449
59.5864,56.4592
59.2720,56.3687
59.1149,56.1449
60.2436,56.1449
60.5651,56.0044
60.6740,55.8258
60.7103,55.5710
60.6698,55.2894
60.5484,55.0305
60.3716,54.8263
60.1507,54.6804
59.8858,54.5929
59.5768,54.5638
59.2109,54.6037
58.8879,54.7236
58.6077,54.9233
58.3920,55.1898
58.2626,55.5096
58.2195,55.8830
57.3004,55.8830
57.3004,55.4401
57.6099,55.4591
57.7742,55.4520
57.9004,55.4115
57.9969,55.2865
58.0290,55.0448
57.9981,54.8007
57.9052,54.6781
57.7790,54.6328
57.6171,54.6257
57.3004,54.6447
57.3004,54.1780
57.2765,53.9351
57.1491,53.8030
56.8908,53.7589
56.6467,53.7887
56.5241,53.8780
56.4788,53.9923
56.4717,54.1542
56.4717,54.6447
56.3145,54.6257
56.1240,54.6876
56.0573,54.8138
56.0335,55.0972
55.5860,55.0972
55.4477,54.9281
55.1710,54.7230
54.8678,54.6000
54.5381,54.5590
54.2079,54.6003
53.9031,54.7241
53.6237,54.9305
53.4015,55.2004
53.2681,55.5147
53.2237,55.8734
51.7759,55.8734
51.7759,54.3209
52.6855,54.3209
52.9284,54.2780
53.0093,54.1756
53.0332,53.9780
53.0093,53.7779
52.9141,53.6660
52.6903,53.6303
50.0423,53.6303
49.7994,53.6732
49.7185,53.7756
49.6946,53.9732
47.9194,53.9732
47.8897,53.9351
47.6769,53.7658
47.4325,53.6642
47.1562,53.6303
45.9561,53.6303
45.7108,53.6625
45.5846,53.7589
45.5394,53.8827
45.5322,54.0494
45.5322,56.6926
45.0060,56.6926
45.0988,56.5569
45.1917,56.3027
45.2227,56.0116
45.1923,55.7264
45.1012,55.4901
44.9649,55.3097
44.7988,55.1924
44.6095,55.1132
44.4035,55.0472
44.1975,54.9954
44.0082,54.9590
43.7058,54.8495
43.5844,54.6376
43.6868,54.4328
43.9439,54.3590
44.1987,54.4209
44.2725,54.4828
44.3273,54.5304
44.5750,54.6257
44.7440,54.5661
44.9083,54.3875
45.0226,54.1256
44.8750,53.8922
44.7559,53.8018
44.4297,53.6517
44.1815,53.5964
43.9082,53.5779
43.5746,53.6126
43.2912,53.7166
43.0581,53.8899
42.8848,54.1097
42.7808,54.3534
42.7462,54.6209
42.7765,54.9037
42.8676,55.1424
43.0039,55.3299
43.1700,55.4591
43.3581,55.5526
43.5605,55.6329
43.7630,55.6966
43.9511,55.7401
44.2535,55.8473
44.3749,56.0306
44.3257,56.2317
44.1781,56.3523
43.9320,56.3926
43.7034,56.3187
43.5129,56.1640
43.3010,55.9854
43.1414,55.9258
42.8890,56.0401
42.7354,56.2205
42.6842,56.3616
42.1613,56.3616
42.2771,56.0973
42.3503,55.8044
42.3747,55.4972
42.3747,54.0589
42.3461,53.8113
42.2842,53.7113
42.1604,53.6541
41.9437,53.6303
41.7175,53.6589
41.5793,53.7637
41.5317,54.0256
41.5317,55.4829
41.4889,55.8008
41.3603,56.0782
41.1448,56.2711
40.8412,56.3354
40.5030,56.2544
40.2887,56.0401
40.1816,55.7711
40.1458,55.4877
40.1458,54.0589
40.0887,53.7589
39.9649,53.6589
39.7220,53.6303
39.4791,53.6589
39.3505,53.7589
39.3053,53.8851
39.2981,54.0542
39.2981,55.4877
37.1793,55.4877
37.2354,55.3984
37.4098,55.1210
37.5711,54.8430
37.7074,54.5614
37.8003,54.3012
37.8313,54.0875
37.8027,53.8208
37.6765,53.6851
37.4122,53.6398
35.6977,53.6398
35.4214,53.6970
35.3309,53.8208
35.3024,54.0589
35.1497,54.0589
35.1595,53.9780
35.1357,53.7779
35.0404,53.6660
34.8166,53.6303
32.1686,53.6303
31.9258,53.6732
31.8448,53.7756
31.8210,53.9732
12.3507,53.9732
12.2995,53.8922
12.1804,53.8018
11.8542,53.6517
11.6060,53.5964
11.3327,53.5779
10.9991,53.6126
10.7157,53.7166
10.4826,53.8899
10.3093,54.1097
10.2053,54.3534
10.1707,54.6209
10.2010,54.9037
10.2921,55.1424
10.4284,55.3299
10.5945,55.4591
10.7826,55.5526
10.9850,55.6329
11.1875,55.6966
11.3756,55.7401
11.6780,55.8473
11.7994,56.0306
11.7502,56.2317
11.6026,56.3523
11.3565,56.3926
11.1279,56.3187
10.9374,56.1640
10.7255,55.9854
10.5659,55.9258
10.3135,56.0401
10.1599,56.2205
10.1087,56.3616
7.9838,56.3616
9.1166,52.5857
10.1087,52.5857
10.1087,52.5857
64.6918,52.5857
65.6839,52.5857
67.6680,52.5857
65.6839,59.1993
64.6918,59.1993
64.2727,59.1993
Z" /> 
<path style="fill:#F2EDA1; fill-opacity:1.0000; 
stroke:#F2EDA1; stroke-width:0.0000; stroke-opacity:1; 
stroke-linecap:round; stroke-linejoin:round;fill-rule:evenodd;"
d="M 47.2777,54.5209
47.3563,54.6876
47.3420,54.8590
47.1134,54.9590
46.8205,55.0257
46.7324,55.2996
46.8181,55.5734
47.0753,55.6401
47.3420,55.6782
47.4301,55.7734
47.4563,55.9544
47.3813,56.1973
47.1562,56.2783
46.3752,56.2783
46.3752,54.4733
47.0419,54.4733
Z" /> 
<path style="fill:#F2EDA1; fill-opacity:1.0000; 
stroke:#F2EDA1; stroke-width:0.0000; stroke-opacity:1; 
stroke-linecap:round; stroke-linejoin:round;fill-rule:evenodd;"
d="M 54.8524,55.5115
54.9632,55.6556
55.0001,55.8592
54.9608,56.0639
54.8429,56.2116
54.5286,56.3306
54.2190,56.2140
54.1047,56.0687
54.0666,55.8663
54.1035,55.6633
54.2143,55.5163
54.5333,55.3972
Z" /> 
<path style="fill:#F2EDA1; fill-opacity:1.0000; 
stroke:#F2EDA1; stroke-width:0.0000; stroke-opacity:1; 
stroke-linecap:round; stroke-linejoin:round;fill-rule:evenodd;"
d="M 29.4016,55.5567
29.5112,55.8377
29.3969,56.1140
29.1087,56.2402
28.8135,56.1163
28.6920,55.8377
28.8063,55.5544
29.1064,55.4258
Z" /> 
<g >
</g>
<g >
</g>
<g >
</g>
<g >
</g>
<g >
</g>
<g >
</g>
<g >
</g>
<g >
</g>
<g >
</g>
<g >
</g>
</g>
<g style="fill:#000000; fill-opacity:1.0000; 
stroke:#000000; stroke-width:0.0000; stroke-opacity:1; 
stroke-linecap:round; stroke-linejoin:round;">
</g>
<g style="fill:#D0D2CD; fill-opacity:1.0000; 
stroke:#D0D2CD; stroke-width:0.0000; stroke-opacity:1; 
stroke-linecap:round; stroke-linejoin:round;">
</g>
<g style="fill:#D0D2CD; fill-opacity:1.0000; 
stroke:#D0D2CD; stroke-width:0.1000; stroke-opacity:1; 
stroke-linecap:round; stroke-linejoin:round;">
</g>
<g style="fill:#D0D2CD; fill-opacity:0.0; 
stroke:#D0D2CD; stroke-width:0.1000; stroke-opacity:1; 
stroke-linecap:round; stroke-linejoin:round;">
<path d="M75.0505 69.7428
L75.0003 8.6925
" />
<path d="M75.0003 8.6925 A7.0000 7.0000 0.0 0 0 68.0003 1.6925" />
<path d="M0.0500 8.7422
L0.0500 69.7428
" />
<path d="M0.0500 69.7428 A7.0000 7.0000 0.0 0 0 7.0500 76.7428" />
<path d="M68.0505 76.7428 A7.0000 7.0000 0.0 0 0 75.0505 69.7428" />
<path d="M68.0003 1.6925
L7.0500 1.7422
" />
<path d="M7.0500 1.7422 A7.0000 7.0000 0.0 0 0 0.0500 8.7422" />
<path d="M7.0500 76.7428
L68.0505 76.7428
" />
<g >
</g>
<g >
</g>
<g >
</g>
<g >
</g>
<g >
</g>
<g >
</g>
<g >
</g>
<g >
</g>
<g >
</g>
<g >
</g>
</g> 
</svg>
