<?xml version="1.0" standalone="no"?>
 <!DOCTYPE svg PUBLIC "-//W3C//DTD SVG 1.1//EN" 
 "http://www.w3.org/Graphics/SVG/1.1/DTD/svg11.dtd"> 
<svg
  xmlns:svg="http://www.w3.org/2000/svg"
  xmlns="http://www.w3.org/2000/svg"
  xmlns:xlink="http://www.w3.org/1999/xlink"
  version="1.1"
  width="75.0824mm" height="76.7842mm" viewBox="0.0000 0.0000 75.0824 76.7842">
<title>SVG Image created as T7Totem-F_Courtyard.svg date 2023/03/19 21:17:50 </title>
  <desc>Image generated by PCBNEW </desc>
<g style="fill:#000000; fill-opacity:1.0000;stroke:#000000; stroke-opacity:1.0000;
stroke-linecap:round; stroke-linejoin:round;"
 transform="translate(0 0) scale(1 1)">
</g>
<g style="fill:#000000; fill-opacity:0.0; 
stroke:#000000; stroke-width:0.0000; stroke-opacity:1; 
stroke-linecap:round; stroke-linejoin:round;">
</g>
<g style="fill:#FF26E2; fill-opacity:0.0; 
stroke:#FF26E2; stroke-width:0.0000; stroke-opacity:1; 
stroke-linecap:round; stroke-linejoin:round;">
</g>
<g style="fill:#FF26E2; fill-opacity:0.0; 
stroke:#FF26E2; stroke-width:0.0500; stroke-opacity:1; 
stroke-linecap:round; stroke-linejoin:round;">
<circle cx="68.0003" cy="8.7925" r="3.4500" /> 
<circle cx="6.7003" cy="8.7925" r="3.4500" /> 
<circle cx="68.0003" cy="70.1925" r="3.4500" /> 
<circle cx="6.7003" cy="70.1925" r="3.4500" /> 
<g >
</g>
<g >
</g>
<g >
</g>
<g >
</g>
<g >
</g>
<g >
</g>
<g >
</g>
<g >
</g>
<g >
</g>
<g >
</g>
</g>
<g style="fill:#000000; fill-opacity:0.0; 
stroke:#000000; stroke-width:0.0500; stroke-opacity:1; 
stroke-linecap:round; stroke-linejoin:round;">
</g>
<g style="fill:#D0D2CD; fill-opacity:0.0; 
stroke:#D0D2CD; stroke-width:0.0500; stroke-opacity:1; 
stroke-linecap:round; stroke-linejoin:round;">
</g>
<g style="fill:#D0D2CD; fill-opacity:0.0; 
stroke:#D0D2CD; stroke-width:0.1000; stroke-opacity:1; 
stroke-linecap:round; stroke-linejoin:round;">
<path d="M75.0505 69.7428
L75.0003 8.6925
" />
<path d="M75.0003 8.6925 A7.0000 7.0000 0.0 0 0 68.0003 1.6925" />
<path d="M0.0500 8.7422
L0.0500 69.7428
" />
<path d="M0.0500 69.7428 A7.0000 7.0000 0.0 0 0 7.0500 76.7428" />
<path d="M68.0505 76.7428 A7.0000 7.0000 0.0 0 0 75.0505 69.7428" />
<path d="M68.0003 1.6925
L7.0500 1.7422
" />
<path d="M7.0500 1.7422 A7.0000 7.0000 0.0 0 0 0.0500 8.7422" />
<path d="M7.0500 76.7428
L68.0505 76.7428
" />
<g >
</g>
<g >
</g>
<g >
</g>
<g >
</g>
<g >
</g>
<g >
</g>
<g >
</g>
<g >
</g>
<g >
</g>
<g >
</g>
</g> 
</svg>
