G04 #@! TF.GenerationSoftware,KiCad,Pcbnew,5.1.2*
G04 #@! TF.CreationDate,2019-08-23T11:00:22-05:00*
G04 #@! TF.ProjectId,dragos,64726167-6f73-42e6-9b69-6361645f7063,rev?*
G04 #@! TF.SameCoordinates,Original*
G04 #@! TF.FileFunction,Soldermask,Bot*
G04 #@! TF.FilePolarity,Negative*
%FSLAX46Y46*%
G04 Gerber Fmt 4.6, Leading zero omitted, Abs format (unit mm)*
G04 Created by KiCad (PCBNEW 5.1.2) date 2019-08-23 11:00:22*
%MOMM*%
%LPD*%
G04 APERTURE LIST*
%ADD10C,0.010000*%
%ADD11C,3.900000*%
%ADD12C,0.100000*%
%ADD13C,4.900000*%
%ADD14C,1.375000*%
%ADD15R,2.100000X2.100000*%
%ADD16O,2.100000X2.100000*%
%ADD17C,2.100000*%
%ADD18C,2.100000*%
%ADD19R,1.010000X2.400000*%
%ADD20R,3.080000X4.000000*%
%ADD21O,1.400000X2.500000*%
%ADD22O,1.400000X2.200000*%
%ADD23R,0.650000X1.800000*%
%ADD24C,1.050000*%
%ADD25R,1.300000X1.200000*%
%ADD26R,1.650000X1.300000*%
%ADD27C,1.300000*%
%ADD28C,1.200000*%
%ADD29R,1.850000X0.850000*%
%ADD30R,4.200000X2.400000*%
%ADD31R,1.900000X2.400000*%
%ADD32C,2.810000*%
%ADD33C,1.000000*%
%ADD34R,1.100000X2.400000*%
%ADD35R,2.400000X1.100000*%
G04 APERTURE END LIST*
D10*
G36*
X178033358Y-80150063D02*
G01*
X178120003Y-80191700D01*
X178251037Y-80266816D01*
X178438156Y-80380374D01*
X178515055Y-80427652D01*
X178874670Y-80649968D01*
X179170545Y-80835416D01*
X179411724Y-80990381D01*
X179607249Y-81121248D01*
X179766165Y-81234404D01*
X179897516Y-81336232D01*
X180010346Y-81433119D01*
X180113698Y-81531449D01*
X180192023Y-81611652D01*
X180498327Y-81988569D01*
X180738557Y-82403183D01*
X180871507Y-82735833D01*
X180900631Y-82841432D01*
X180942344Y-83014090D01*
X180993033Y-83237766D01*
X181049086Y-83496418D01*
X181106891Y-83774004D01*
X181121718Y-83847083D01*
X181181455Y-84147161D01*
X181224365Y-84374039D01*
X181251679Y-84537236D01*
X181264630Y-84646271D01*
X181264451Y-84710662D01*
X181252373Y-84739929D01*
X181237916Y-84744622D01*
X181178124Y-84726525D01*
X181057885Y-84677480D01*
X180892592Y-84604181D01*
X180697635Y-84513323D01*
X180615988Y-84474140D01*
X180263526Y-84297767D01*
X179968979Y-84134642D01*
X179710531Y-83969538D01*
X179466363Y-83787225D01*
X179214658Y-83572475D01*
X178933598Y-83310058D01*
X178895137Y-83272973D01*
X178522622Y-82928010D01*
X178186937Y-82650069D01*
X177880979Y-82433795D01*
X177597648Y-82273833D01*
X177525497Y-82240221D01*
X177392076Y-82190569D01*
X177253587Y-82164288D01*
X177078290Y-82156686D01*
X176971250Y-82158308D01*
X176811328Y-82160262D01*
X176689916Y-82157414D01*
X176626722Y-82150392D01*
X176622000Y-82147180D01*
X176653885Y-82115003D01*
X176739395Y-82045633D01*
X176863313Y-81951162D01*
X176937701Y-81896263D01*
X177192837Y-81730152D01*
X177428281Y-81622489D01*
X177529181Y-81591060D01*
X177664134Y-81549478D01*
X177755951Y-81511358D01*
X177785350Y-81484754D01*
X177785047Y-81484189D01*
X177743009Y-81450507D01*
X177643592Y-81383013D01*
X177501894Y-81291666D01*
X177341734Y-81191779D01*
X177176169Y-81088057D01*
X177040943Y-80999573D01*
X176950270Y-80935893D01*
X176918334Y-80906875D01*
X176938612Y-80858258D01*
X176988972Y-80768313D01*
X177005470Y-80741171D01*
X177092606Y-80600182D01*
X177312386Y-80687855D01*
X177495458Y-80759447D01*
X177655520Y-80819413D01*
X177776425Y-80861945D01*
X177842025Y-80881238D01*
X177849209Y-80880872D01*
X177837779Y-80839119D01*
X177809009Y-80741675D01*
X177785709Y-80664355D01*
X177734937Y-80464346D01*
X177725974Y-80333729D01*
X177758941Y-80268205D01*
X177797150Y-80258334D01*
X177877398Y-80225341D01*
X177922788Y-80176422D01*
X177946447Y-80147386D01*
X177979404Y-80136946D01*
X178033358Y-80150063D01*
X178033358Y-80150063D01*
G37*
X178033358Y-80150063D02*
X178120003Y-80191700D01*
X178251037Y-80266816D01*
X178438156Y-80380374D01*
X178515055Y-80427652D01*
X178874670Y-80649968D01*
X179170545Y-80835416D01*
X179411724Y-80990381D01*
X179607249Y-81121248D01*
X179766165Y-81234404D01*
X179897516Y-81336232D01*
X180010346Y-81433119D01*
X180113698Y-81531449D01*
X180192023Y-81611652D01*
X180498327Y-81988569D01*
X180738557Y-82403183D01*
X180871507Y-82735833D01*
X180900631Y-82841432D01*
X180942344Y-83014090D01*
X180993033Y-83237766D01*
X181049086Y-83496418D01*
X181106891Y-83774004D01*
X181121718Y-83847083D01*
X181181455Y-84147161D01*
X181224365Y-84374039D01*
X181251679Y-84537236D01*
X181264630Y-84646271D01*
X181264451Y-84710662D01*
X181252373Y-84739929D01*
X181237916Y-84744622D01*
X181178124Y-84726525D01*
X181057885Y-84677480D01*
X180892592Y-84604181D01*
X180697635Y-84513323D01*
X180615988Y-84474140D01*
X180263526Y-84297767D01*
X179968979Y-84134642D01*
X179710531Y-83969538D01*
X179466363Y-83787225D01*
X179214658Y-83572475D01*
X178933598Y-83310058D01*
X178895137Y-83272973D01*
X178522622Y-82928010D01*
X178186937Y-82650069D01*
X177880979Y-82433795D01*
X177597648Y-82273833D01*
X177525497Y-82240221D01*
X177392076Y-82190569D01*
X177253587Y-82164288D01*
X177078290Y-82156686D01*
X176971250Y-82158308D01*
X176811328Y-82160262D01*
X176689916Y-82157414D01*
X176626722Y-82150392D01*
X176622000Y-82147180D01*
X176653885Y-82115003D01*
X176739395Y-82045633D01*
X176863313Y-81951162D01*
X176937701Y-81896263D01*
X177192837Y-81730152D01*
X177428281Y-81622489D01*
X177529181Y-81591060D01*
X177664134Y-81549478D01*
X177755951Y-81511358D01*
X177785350Y-81484754D01*
X177785047Y-81484189D01*
X177743009Y-81450507D01*
X177643592Y-81383013D01*
X177501894Y-81291666D01*
X177341734Y-81191779D01*
X177176169Y-81088057D01*
X177040943Y-80999573D01*
X176950270Y-80935893D01*
X176918334Y-80906875D01*
X176938612Y-80858258D01*
X176988972Y-80768313D01*
X177005470Y-80741171D01*
X177092606Y-80600182D01*
X177312386Y-80687855D01*
X177495458Y-80759447D01*
X177655520Y-80819413D01*
X177776425Y-80861945D01*
X177842025Y-80881238D01*
X177849209Y-80880872D01*
X177837779Y-80839119D01*
X177809009Y-80741675D01*
X177785709Y-80664355D01*
X177734937Y-80464346D01*
X177725974Y-80333729D01*
X177758941Y-80268205D01*
X177797150Y-80258334D01*
X177877398Y-80225341D01*
X177922788Y-80176422D01*
X177946447Y-80147386D01*
X177979404Y-80136946D01*
X178033358Y-80150063D01*
D11*
X102206040Y-71783753D03*
D12*
G36*
X99639471Y-74216390D02*
G01*
X98962243Y-70375640D01*
X104772609Y-69351116D01*
X105449837Y-73191866D01*
X99639471Y-74216390D01*
X99639471Y-74216390D01*
G37*
D11*
X157946158Y-61955267D03*
D12*
G36*
X155379589Y-64387904D02*
G01*
X154702361Y-60547154D01*
X160512727Y-59522630D01*
X161189955Y-63363380D01*
X155379589Y-64387904D01*
X155379589Y-64387904D01*
G37*
D13*
X115176541Y-69471318D03*
D12*
G36*
X113276024Y-72801939D02*
G01*
X112251500Y-66991573D01*
X117077058Y-66140697D01*
X118101582Y-71951063D01*
X113276024Y-72801939D01*
X113276024Y-72801939D01*
G37*
D13*
X145016215Y-64209779D03*
D12*
G36*
X143115698Y-67540400D02*
G01*
X142091174Y-61730034D01*
X146916732Y-60879158D01*
X147941256Y-66689524D01*
X143115698Y-67540400D01*
X143115698Y-67540400D01*
G37*
G36*
X163502443Y-104601655D02*
G01*
X163535812Y-104606605D01*
X163568535Y-104614802D01*
X163600297Y-104626166D01*
X163630793Y-104640590D01*
X163659727Y-104657932D01*
X163686823Y-104678028D01*
X163711818Y-104700682D01*
X163734472Y-104725677D01*
X163754568Y-104752773D01*
X163771910Y-104781707D01*
X163786334Y-104812203D01*
X163797698Y-104843965D01*
X163805895Y-104876688D01*
X163810845Y-104910057D01*
X163812500Y-104943750D01*
X163812500Y-106056250D01*
X163810845Y-106089943D01*
X163805895Y-106123312D01*
X163797698Y-106156035D01*
X163786334Y-106187797D01*
X163771910Y-106218293D01*
X163754568Y-106247227D01*
X163734472Y-106274323D01*
X163711818Y-106299318D01*
X163686823Y-106321972D01*
X163659727Y-106342068D01*
X163630793Y-106359410D01*
X163600297Y-106373834D01*
X163568535Y-106385198D01*
X163535812Y-106393395D01*
X163502443Y-106398345D01*
X163468750Y-106400000D01*
X162781250Y-106400000D01*
X162747557Y-106398345D01*
X162714188Y-106393395D01*
X162681465Y-106385198D01*
X162649703Y-106373834D01*
X162619207Y-106359410D01*
X162590273Y-106342068D01*
X162563177Y-106321972D01*
X162538182Y-106299318D01*
X162515528Y-106274323D01*
X162495432Y-106247227D01*
X162478090Y-106218293D01*
X162463666Y-106187797D01*
X162452302Y-106156035D01*
X162444105Y-106123312D01*
X162439155Y-106089943D01*
X162437500Y-106056250D01*
X162437500Y-104943750D01*
X162439155Y-104910057D01*
X162444105Y-104876688D01*
X162452302Y-104843965D01*
X162463666Y-104812203D01*
X162478090Y-104781707D01*
X162495432Y-104752773D01*
X162515528Y-104725677D01*
X162538182Y-104700682D01*
X162563177Y-104678028D01*
X162590273Y-104657932D01*
X162619207Y-104640590D01*
X162649703Y-104626166D01*
X162681465Y-104614802D01*
X162714188Y-104606605D01*
X162747557Y-104601655D01*
X162781250Y-104600000D01*
X163468750Y-104600000D01*
X163502443Y-104601655D01*
X163502443Y-104601655D01*
G37*
D14*
X163125000Y-105500000D03*
D12*
G36*
X165377443Y-104601655D02*
G01*
X165410812Y-104606605D01*
X165443535Y-104614802D01*
X165475297Y-104626166D01*
X165505793Y-104640590D01*
X165534727Y-104657932D01*
X165561823Y-104678028D01*
X165586818Y-104700682D01*
X165609472Y-104725677D01*
X165629568Y-104752773D01*
X165646910Y-104781707D01*
X165661334Y-104812203D01*
X165672698Y-104843965D01*
X165680895Y-104876688D01*
X165685845Y-104910057D01*
X165687500Y-104943750D01*
X165687500Y-106056250D01*
X165685845Y-106089943D01*
X165680895Y-106123312D01*
X165672698Y-106156035D01*
X165661334Y-106187797D01*
X165646910Y-106218293D01*
X165629568Y-106247227D01*
X165609472Y-106274323D01*
X165586818Y-106299318D01*
X165561823Y-106321972D01*
X165534727Y-106342068D01*
X165505793Y-106359410D01*
X165475297Y-106373834D01*
X165443535Y-106385198D01*
X165410812Y-106393395D01*
X165377443Y-106398345D01*
X165343750Y-106400000D01*
X164656250Y-106400000D01*
X164622557Y-106398345D01*
X164589188Y-106393395D01*
X164556465Y-106385198D01*
X164524703Y-106373834D01*
X164494207Y-106359410D01*
X164465273Y-106342068D01*
X164438177Y-106321972D01*
X164413182Y-106299318D01*
X164390528Y-106274323D01*
X164370432Y-106247227D01*
X164353090Y-106218293D01*
X164338666Y-106187797D01*
X164327302Y-106156035D01*
X164319105Y-106123312D01*
X164314155Y-106089943D01*
X164312500Y-106056250D01*
X164312500Y-104943750D01*
X164314155Y-104910057D01*
X164319105Y-104876688D01*
X164327302Y-104843965D01*
X164338666Y-104812203D01*
X164353090Y-104781707D01*
X164370432Y-104752773D01*
X164390528Y-104725677D01*
X164413182Y-104700682D01*
X164438177Y-104678028D01*
X164465273Y-104657932D01*
X164494207Y-104640590D01*
X164524703Y-104626166D01*
X164556465Y-104614802D01*
X164589188Y-104606605D01*
X164622557Y-104601655D01*
X164656250Y-104600000D01*
X165343750Y-104600000D01*
X165377443Y-104601655D01*
X165377443Y-104601655D01*
G37*
D14*
X165000000Y-105500000D03*
D12*
G36*
X160877443Y-104601655D02*
G01*
X160910812Y-104606605D01*
X160943535Y-104614802D01*
X160975297Y-104626166D01*
X161005793Y-104640590D01*
X161034727Y-104657932D01*
X161061823Y-104678028D01*
X161086818Y-104700682D01*
X161109472Y-104725677D01*
X161129568Y-104752773D01*
X161146910Y-104781707D01*
X161161334Y-104812203D01*
X161172698Y-104843965D01*
X161180895Y-104876688D01*
X161185845Y-104910057D01*
X161187500Y-104943750D01*
X161187500Y-106056250D01*
X161185845Y-106089943D01*
X161180895Y-106123312D01*
X161172698Y-106156035D01*
X161161334Y-106187797D01*
X161146910Y-106218293D01*
X161129568Y-106247227D01*
X161109472Y-106274323D01*
X161086818Y-106299318D01*
X161061823Y-106321972D01*
X161034727Y-106342068D01*
X161005793Y-106359410D01*
X160975297Y-106373834D01*
X160943535Y-106385198D01*
X160910812Y-106393395D01*
X160877443Y-106398345D01*
X160843750Y-106400000D01*
X160156250Y-106400000D01*
X160122557Y-106398345D01*
X160089188Y-106393395D01*
X160056465Y-106385198D01*
X160024703Y-106373834D01*
X159994207Y-106359410D01*
X159965273Y-106342068D01*
X159938177Y-106321972D01*
X159913182Y-106299318D01*
X159890528Y-106274323D01*
X159870432Y-106247227D01*
X159853090Y-106218293D01*
X159838666Y-106187797D01*
X159827302Y-106156035D01*
X159819105Y-106123312D01*
X159814155Y-106089943D01*
X159812500Y-106056250D01*
X159812500Y-104943750D01*
X159814155Y-104910057D01*
X159819105Y-104876688D01*
X159827302Y-104843965D01*
X159838666Y-104812203D01*
X159853090Y-104781707D01*
X159870432Y-104752773D01*
X159890528Y-104725677D01*
X159913182Y-104700682D01*
X159938177Y-104678028D01*
X159965273Y-104657932D01*
X159994207Y-104640590D01*
X160024703Y-104626166D01*
X160056465Y-104614802D01*
X160089188Y-104606605D01*
X160122557Y-104601655D01*
X160156250Y-104600000D01*
X160843750Y-104600000D01*
X160877443Y-104601655D01*
X160877443Y-104601655D01*
G37*
D14*
X160500000Y-105500000D03*
D12*
G36*
X159002443Y-104601655D02*
G01*
X159035812Y-104606605D01*
X159068535Y-104614802D01*
X159100297Y-104626166D01*
X159130793Y-104640590D01*
X159159727Y-104657932D01*
X159186823Y-104678028D01*
X159211818Y-104700682D01*
X159234472Y-104725677D01*
X159254568Y-104752773D01*
X159271910Y-104781707D01*
X159286334Y-104812203D01*
X159297698Y-104843965D01*
X159305895Y-104876688D01*
X159310845Y-104910057D01*
X159312500Y-104943750D01*
X159312500Y-106056250D01*
X159310845Y-106089943D01*
X159305895Y-106123312D01*
X159297698Y-106156035D01*
X159286334Y-106187797D01*
X159271910Y-106218293D01*
X159254568Y-106247227D01*
X159234472Y-106274323D01*
X159211818Y-106299318D01*
X159186823Y-106321972D01*
X159159727Y-106342068D01*
X159130793Y-106359410D01*
X159100297Y-106373834D01*
X159068535Y-106385198D01*
X159035812Y-106393395D01*
X159002443Y-106398345D01*
X158968750Y-106400000D01*
X158281250Y-106400000D01*
X158247557Y-106398345D01*
X158214188Y-106393395D01*
X158181465Y-106385198D01*
X158149703Y-106373834D01*
X158119207Y-106359410D01*
X158090273Y-106342068D01*
X158063177Y-106321972D01*
X158038182Y-106299318D01*
X158015528Y-106274323D01*
X157995432Y-106247227D01*
X157978090Y-106218293D01*
X157963666Y-106187797D01*
X157952302Y-106156035D01*
X157944105Y-106123312D01*
X157939155Y-106089943D01*
X157937500Y-106056250D01*
X157937500Y-104943750D01*
X157939155Y-104910057D01*
X157944105Y-104876688D01*
X157952302Y-104843965D01*
X157963666Y-104812203D01*
X157978090Y-104781707D01*
X157995432Y-104752773D01*
X158015528Y-104725677D01*
X158038182Y-104700682D01*
X158063177Y-104678028D01*
X158090273Y-104657932D01*
X158119207Y-104640590D01*
X158149703Y-104626166D01*
X158181465Y-104614802D01*
X158214188Y-104606605D01*
X158247557Y-104601655D01*
X158281250Y-104600000D01*
X158968750Y-104600000D01*
X159002443Y-104601655D01*
X159002443Y-104601655D01*
G37*
D14*
X158625000Y-105500000D03*
D12*
G36*
X159002443Y-101601655D02*
G01*
X159035812Y-101606605D01*
X159068535Y-101614802D01*
X159100297Y-101626166D01*
X159130793Y-101640590D01*
X159159727Y-101657932D01*
X159186823Y-101678028D01*
X159211818Y-101700682D01*
X159234472Y-101725677D01*
X159254568Y-101752773D01*
X159271910Y-101781707D01*
X159286334Y-101812203D01*
X159297698Y-101843965D01*
X159305895Y-101876688D01*
X159310845Y-101910057D01*
X159312500Y-101943750D01*
X159312500Y-103056250D01*
X159310845Y-103089943D01*
X159305895Y-103123312D01*
X159297698Y-103156035D01*
X159286334Y-103187797D01*
X159271910Y-103218293D01*
X159254568Y-103247227D01*
X159234472Y-103274323D01*
X159211818Y-103299318D01*
X159186823Y-103321972D01*
X159159727Y-103342068D01*
X159130793Y-103359410D01*
X159100297Y-103373834D01*
X159068535Y-103385198D01*
X159035812Y-103393395D01*
X159002443Y-103398345D01*
X158968750Y-103400000D01*
X158281250Y-103400000D01*
X158247557Y-103398345D01*
X158214188Y-103393395D01*
X158181465Y-103385198D01*
X158149703Y-103373834D01*
X158119207Y-103359410D01*
X158090273Y-103342068D01*
X158063177Y-103321972D01*
X158038182Y-103299318D01*
X158015528Y-103274323D01*
X157995432Y-103247227D01*
X157978090Y-103218293D01*
X157963666Y-103187797D01*
X157952302Y-103156035D01*
X157944105Y-103123312D01*
X157939155Y-103089943D01*
X157937500Y-103056250D01*
X157937500Y-101943750D01*
X157939155Y-101910057D01*
X157944105Y-101876688D01*
X157952302Y-101843965D01*
X157963666Y-101812203D01*
X157978090Y-101781707D01*
X157995432Y-101752773D01*
X158015528Y-101725677D01*
X158038182Y-101700682D01*
X158063177Y-101678028D01*
X158090273Y-101657932D01*
X158119207Y-101640590D01*
X158149703Y-101626166D01*
X158181465Y-101614802D01*
X158214188Y-101606605D01*
X158247557Y-101601655D01*
X158281250Y-101600000D01*
X158968750Y-101600000D01*
X159002443Y-101601655D01*
X159002443Y-101601655D01*
G37*
D14*
X158625000Y-102500000D03*
D12*
G36*
X160877443Y-101601655D02*
G01*
X160910812Y-101606605D01*
X160943535Y-101614802D01*
X160975297Y-101626166D01*
X161005793Y-101640590D01*
X161034727Y-101657932D01*
X161061823Y-101678028D01*
X161086818Y-101700682D01*
X161109472Y-101725677D01*
X161129568Y-101752773D01*
X161146910Y-101781707D01*
X161161334Y-101812203D01*
X161172698Y-101843965D01*
X161180895Y-101876688D01*
X161185845Y-101910057D01*
X161187500Y-101943750D01*
X161187500Y-103056250D01*
X161185845Y-103089943D01*
X161180895Y-103123312D01*
X161172698Y-103156035D01*
X161161334Y-103187797D01*
X161146910Y-103218293D01*
X161129568Y-103247227D01*
X161109472Y-103274323D01*
X161086818Y-103299318D01*
X161061823Y-103321972D01*
X161034727Y-103342068D01*
X161005793Y-103359410D01*
X160975297Y-103373834D01*
X160943535Y-103385198D01*
X160910812Y-103393395D01*
X160877443Y-103398345D01*
X160843750Y-103400000D01*
X160156250Y-103400000D01*
X160122557Y-103398345D01*
X160089188Y-103393395D01*
X160056465Y-103385198D01*
X160024703Y-103373834D01*
X159994207Y-103359410D01*
X159965273Y-103342068D01*
X159938177Y-103321972D01*
X159913182Y-103299318D01*
X159890528Y-103274323D01*
X159870432Y-103247227D01*
X159853090Y-103218293D01*
X159838666Y-103187797D01*
X159827302Y-103156035D01*
X159819105Y-103123312D01*
X159814155Y-103089943D01*
X159812500Y-103056250D01*
X159812500Y-101943750D01*
X159814155Y-101910057D01*
X159819105Y-101876688D01*
X159827302Y-101843965D01*
X159838666Y-101812203D01*
X159853090Y-101781707D01*
X159870432Y-101752773D01*
X159890528Y-101725677D01*
X159913182Y-101700682D01*
X159938177Y-101678028D01*
X159965273Y-101657932D01*
X159994207Y-101640590D01*
X160024703Y-101626166D01*
X160056465Y-101614802D01*
X160089188Y-101606605D01*
X160122557Y-101601655D01*
X160156250Y-101600000D01*
X160843750Y-101600000D01*
X160877443Y-101601655D01*
X160877443Y-101601655D01*
G37*
D14*
X160500000Y-102500000D03*
D12*
G36*
X144377443Y-96601655D02*
G01*
X144410812Y-96606605D01*
X144443535Y-96614802D01*
X144475297Y-96626166D01*
X144505793Y-96640590D01*
X144534727Y-96657932D01*
X144561823Y-96678028D01*
X144586818Y-96700682D01*
X144609472Y-96725677D01*
X144629568Y-96752773D01*
X144646910Y-96781707D01*
X144661334Y-96812203D01*
X144672698Y-96843965D01*
X144680895Y-96876688D01*
X144685845Y-96910057D01*
X144687500Y-96943750D01*
X144687500Y-98056250D01*
X144685845Y-98089943D01*
X144680895Y-98123312D01*
X144672698Y-98156035D01*
X144661334Y-98187797D01*
X144646910Y-98218293D01*
X144629568Y-98247227D01*
X144609472Y-98274323D01*
X144586818Y-98299318D01*
X144561823Y-98321972D01*
X144534727Y-98342068D01*
X144505793Y-98359410D01*
X144475297Y-98373834D01*
X144443535Y-98385198D01*
X144410812Y-98393395D01*
X144377443Y-98398345D01*
X144343750Y-98400000D01*
X143656250Y-98400000D01*
X143622557Y-98398345D01*
X143589188Y-98393395D01*
X143556465Y-98385198D01*
X143524703Y-98373834D01*
X143494207Y-98359410D01*
X143465273Y-98342068D01*
X143438177Y-98321972D01*
X143413182Y-98299318D01*
X143390528Y-98274323D01*
X143370432Y-98247227D01*
X143353090Y-98218293D01*
X143338666Y-98187797D01*
X143327302Y-98156035D01*
X143319105Y-98123312D01*
X143314155Y-98089943D01*
X143312500Y-98056250D01*
X143312500Y-96943750D01*
X143314155Y-96910057D01*
X143319105Y-96876688D01*
X143327302Y-96843965D01*
X143338666Y-96812203D01*
X143353090Y-96781707D01*
X143370432Y-96752773D01*
X143390528Y-96725677D01*
X143413182Y-96700682D01*
X143438177Y-96678028D01*
X143465273Y-96657932D01*
X143494207Y-96640590D01*
X143524703Y-96626166D01*
X143556465Y-96614802D01*
X143589188Y-96606605D01*
X143622557Y-96601655D01*
X143656250Y-96600000D01*
X144343750Y-96600000D01*
X144377443Y-96601655D01*
X144377443Y-96601655D01*
G37*
D14*
X144000000Y-97500000D03*
D12*
G36*
X142502443Y-96601655D02*
G01*
X142535812Y-96606605D01*
X142568535Y-96614802D01*
X142600297Y-96626166D01*
X142630793Y-96640590D01*
X142659727Y-96657932D01*
X142686823Y-96678028D01*
X142711818Y-96700682D01*
X142734472Y-96725677D01*
X142754568Y-96752773D01*
X142771910Y-96781707D01*
X142786334Y-96812203D01*
X142797698Y-96843965D01*
X142805895Y-96876688D01*
X142810845Y-96910057D01*
X142812500Y-96943750D01*
X142812500Y-98056250D01*
X142810845Y-98089943D01*
X142805895Y-98123312D01*
X142797698Y-98156035D01*
X142786334Y-98187797D01*
X142771910Y-98218293D01*
X142754568Y-98247227D01*
X142734472Y-98274323D01*
X142711818Y-98299318D01*
X142686823Y-98321972D01*
X142659727Y-98342068D01*
X142630793Y-98359410D01*
X142600297Y-98373834D01*
X142568535Y-98385198D01*
X142535812Y-98393395D01*
X142502443Y-98398345D01*
X142468750Y-98400000D01*
X141781250Y-98400000D01*
X141747557Y-98398345D01*
X141714188Y-98393395D01*
X141681465Y-98385198D01*
X141649703Y-98373834D01*
X141619207Y-98359410D01*
X141590273Y-98342068D01*
X141563177Y-98321972D01*
X141538182Y-98299318D01*
X141515528Y-98274323D01*
X141495432Y-98247227D01*
X141478090Y-98218293D01*
X141463666Y-98187797D01*
X141452302Y-98156035D01*
X141444105Y-98123312D01*
X141439155Y-98089943D01*
X141437500Y-98056250D01*
X141437500Y-96943750D01*
X141439155Y-96910057D01*
X141444105Y-96876688D01*
X141452302Y-96843965D01*
X141463666Y-96812203D01*
X141478090Y-96781707D01*
X141495432Y-96752773D01*
X141515528Y-96725677D01*
X141538182Y-96700682D01*
X141563177Y-96678028D01*
X141590273Y-96657932D01*
X141619207Y-96640590D01*
X141649703Y-96626166D01*
X141681465Y-96614802D01*
X141714188Y-96606605D01*
X141747557Y-96601655D01*
X141781250Y-96600000D01*
X142468750Y-96600000D01*
X142502443Y-96601655D01*
X142502443Y-96601655D01*
G37*
D14*
X142125000Y-97500000D03*
D12*
G36*
X150002443Y-95101655D02*
G01*
X150035812Y-95106605D01*
X150068535Y-95114802D01*
X150100297Y-95126166D01*
X150130793Y-95140590D01*
X150159727Y-95157932D01*
X150186823Y-95178028D01*
X150211818Y-95200682D01*
X150234472Y-95225677D01*
X150254568Y-95252773D01*
X150271910Y-95281707D01*
X150286334Y-95312203D01*
X150297698Y-95343965D01*
X150305895Y-95376688D01*
X150310845Y-95410057D01*
X150312500Y-95443750D01*
X150312500Y-96556250D01*
X150310845Y-96589943D01*
X150305895Y-96623312D01*
X150297698Y-96656035D01*
X150286334Y-96687797D01*
X150271910Y-96718293D01*
X150254568Y-96747227D01*
X150234472Y-96774323D01*
X150211818Y-96799318D01*
X150186823Y-96821972D01*
X150159727Y-96842068D01*
X150130793Y-96859410D01*
X150100297Y-96873834D01*
X150068535Y-96885198D01*
X150035812Y-96893395D01*
X150002443Y-96898345D01*
X149968750Y-96900000D01*
X149281250Y-96900000D01*
X149247557Y-96898345D01*
X149214188Y-96893395D01*
X149181465Y-96885198D01*
X149149703Y-96873834D01*
X149119207Y-96859410D01*
X149090273Y-96842068D01*
X149063177Y-96821972D01*
X149038182Y-96799318D01*
X149015528Y-96774323D01*
X148995432Y-96747227D01*
X148978090Y-96718293D01*
X148963666Y-96687797D01*
X148952302Y-96656035D01*
X148944105Y-96623312D01*
X148939155Y-96589943D01*
X148937500Y-96556250D01*
X148937500Y-95443750D01*
X148939155Y-95410057D01*
X148944105Y-95376688D01*
X148952302Y-95343965D01*
X148963666Y-95312203D01*
X148978090Y-95281707D01*
X148995432Y-95252773D01*
X149015528Y-95225677D01*
X149038182Y-95200682D01*
X149063177Y-95178028D01*
X149090273Y-95157932D01*
X149119207Y-95140590D01*
X149149703Y-95126166D01*
X149181465Y-95114802D01*
X149214188Y-95106605D01*
X149247557Y-95101655D01*
X149281250Y-95100000D01*
X149968750Y-95100000D01*
X150002443Y-95101655D01*
X150002443Y-95101655D01*
G37*
D14*
X149625000Y-96000000D03*
D12*
G36*
X151877443Y-95101655D02*
G01*
X151910812Y-95106605D01*
X151943535Y-95114802D01*
X151975297Y-95126166D01*
X152005793Y-95140590D01*
X152034727Y-95157932D01*
X152061823Y-95178028D01*
X152086818Y-95200682D01*
X152109472Y-95225677D01*
X152129568Y-95252773D01*
X152146910Y-95281707D01*
X152161334Y-95312203D01*
X152172698Y-95343965D01*
X152180895Y-95376688D01*
X152185845Y-95410057D01*
X152187500Y-95443750D01*
X152187500Y-96556250D01*
X152185845Y-96589943D01*
X152180895Y-96623312D01*
X152172698Y-96656035D01*
X152161334Y-96687797D01*
X152146910Y-96718293D01*
X152129568Y-96747227D01*
X152109472Y-96774323D01*
X152086818Y-96799318D01*
X152061823Y-96821972D01*
X152034727Y-96842068D01*
X152005793Y-96859410D01*
X151975297Y-96873834D01*
X151943535Y-96885198D01*
X151910812Y-96893395D01*
X151877443Y-96898345D01*
X151843750Y-96900000D01*
X151156250Y-96900000D01*
X151122557Y-96898345D01*
X151089188Y-96893395D01*
X151056465Y-96885198D01*
X151024703Y-96873834D01*
X150994207Y-96859410D01*
X150965273Y-96842068D01*
X150938177Y-96821972D01*
X150913182Y-96799318D01*
X150890528Y-96774323D01*
X150870432Y-96747227D01*
X150853090Y-96718293D01*
X150838666Y-96687797D01*
X150827302Y-96656035D01*
X150819105Y-96623312D01*
X150814155Y-96589943D01*
X150812500Y-96556250D01*
X150812500Y-95443750D01*
X150814155Y-95410057D01*
X150819105Y-95376688D01*
X150827302Y-95343965D01*
X150838666Y-95312203D01*
X150853090Y-95281707D01*
X150870432Y-95252773D01*
X150890528Y-95225677D01*
X150913182Y-95200682D01*
X150938177Y-95178028D01*
X150965273Y-95157932D01*
X150994207Y-95140590D01*
X151024703Y-95126166D01*
X151056465Y-95114802D01*
X151089188Y-95106605D01*
X151122557Y-95101655D01*
X151156250Y-95100000D01*
X151843750Y-95100000D01*
X151877443Y-95101655D01*
X151877443Y-95101655D01*
G37*
D14*
X151500000Y-96000000D03*
D12*
G36*
X128752443Y-79101655D02*
G01*
X128785812Y-79106605D01*
X128818535Y-79114802D01*
X128850297Y-79126166D01*
X128880793Y-79140590D01*
X128909727Y-79157932D01*
X128936823Y-79178028D01*
X128961818Y-79200682D01*
X128984472Y-79225677D01*
X129004568Y-79252773D01*
X129021910Y-79281707D01*
X129036334Y-79312203D01*
X129047698Y-79343965D01*
X129055895Y-79376688D01*
X129060845Y-79410057D01*
X129062500Y-79443750D01*
X129062500Y-80556250D01*
X129060845Y-80589943D01*
X129055895Y-80623312D01*
X129047698Y-80656035D01*
X129036334Y-80687797D01*
X129021910Y-80718293D01*
X129004568Y-80747227D01*
X128984472Y-80774323D01*
X128961818Y-80799318D01*
X128936823Y-80821972D01*
X128909727Y-80842068D01*
X128880793Y-80859410D01*
X128850297Y-80873834D01*
X128818535Y-80885198D01*
X128785812Y-80893395D01*
X128752443Y-80898345D01*
X128718750Y-80900000D01*
X128031250Y-80900000D01*
X127997557Y-80898345D01*
X127964188Y-80893395D01*
X127931465Y-80885198D01*
X127899703Y-80873834D01*
X127869207Y-80859410D01*
X127840273Y-80842068D01*
X127813177Y-80821972D01*
X127788182Y-80799318D01*
X127765528Y-80774323D01*
X127745432Y-80747227D01*
X127728090Y-80718293D01*
X127713666Y-80687797D01*
X127702302Y-80656035D01*
X127694105Y-80623312D01*
X127689155Y-80589943D01*
X127687500Y-80556250D01*
X127687500Y-79443750D01*
X127689155Y-79410057D01*
X127694105Y-79376688D01*
X127702302Y-79343965D01*
X127713666Y-79312203D01*
X127728090Y-79281707D01*
X127745432Y-79252773D01*
X127765528Y-79225677D01*
X127788182Y-79200682D01*
X127813177Y-79178028D01*
X127840273Y-79157932D01*
X127869207Y-79140590D01*
X127899703Y-79126166D01*
X127931465Y-79114802D01*
X127964188Y-79106605D01*
X127997557Y-79101655D01*
X128031250Y-79100000D01*
X128718750Y-79100000D01*
X128752443Y-79101655D01*
X128752443Y-79101655D01*
G37*
D14*
X128375000Y-80000000D03*
D12*
G36*
X126877443Y-79101655D02*
G01*
X126910812Y-79106605D01*
X126943535Y-79114802D01*
X126975297Y-79126166D01*
X127005793Y-79140590D01*
X127034727Y-79157932D01*
X127061823Y-79178028D01*
X127086818Y-79200682D01*
X127109472Y-79225677D01*
X127129568Y-79252773D01*
X127146910Y-79281707D01*
X127161334Y-79312203D01*
X127172698Y-79343965D01*
X127180895Y-79376688D01*
X127185845Y-79410057D01*
X127187500Y-79443750D01*
X127187500Y-80556250D01*
X127185845Y-80589943D01*
X127180895Y-80623312D01*
X127172698Y-80656035D01*
X127161334Y-80687797D01*
X127146910Y-80718293D01*
X127129568Y-80747227D01*
X127109472Y-80774323D01*
X127086818Y-80799318D01*
X127061823Y-80821972D01*
X127034727Y-80842068D01*
X127005793Y-80859410D01*
X126975297Y-80873834D01*
X126943535Y-80885198D01*
X126910812Y-80893395D01*
X126877443Y-80898345D01*
X126843750Y-80900000D01*
X126156250Y-80900000D01*
X126122557Y-80898345D01*
X126089188Y-80893395D01*
X126056465Y-80885198D01*
X126024703Y-80873834D01*
X125994207Y-80859410D01*
X125965273Y-80842068D01*
X125938177Y-80821972D01*
X125913182Y-80799318D01*
X125890528Y-80774323D01*
X125870432Y-80747227D01*
X125853090Y-80718293D01*
X125838666Y-80687797D01*
X125827302Y-80656035D01*
X125819105Y-80623312D01*
X125814155Y-80589943D01*
X125812500Y-80556250D01*
X125812500Y-79443750D01*
X125814155Y-79410057D01*
X125819105Y-79376688D01*
X125827302Y-79343965D01*
X125838666Y-79312203D01*
X125853090Y-79281707D01*
X125870432Y-79252773D01*
X125890528Y-79225677D01*
X125913182Y-79200682D01*
X125938177Y-79178028D01*
X125965273Y-79157932D01*
X125994207Y-79140590D01*
X126024703Y-79126166D01*
X126056465Y-79114802D01*
X126089188Y-79106605D01*
X126122557Y-79101655D01*
X126156250Y-79100000D01*
X126843750Y-79100000D01*
X126877443Y-79101655D01*
X126877443Y-79101655D01*
G37*
D14*
X126500000Y-80000000D03*
D12*
G36*
X127002443Y-75101655D02*
G01*
X127035812Y-75106605D01*
X127068535Y-75114802D01*
X127100297Y-75126166D01*
X127130793Y-75140590D01*
X127159727Y-75157932D01*
X127186823Y-75178028D01*
X127211818Y-75200682D01*
X127234472Y-75225677D01*
X127254568Y-75252773D01*
X127271910Y-75281707D01*
X127286334Y-75312203D01*
X127297698Y-75343965D01*
X127305895Y-75376688D01*
X127310845Y-75410057D01*
X127312500Y-75443750D01*
X127312500Y-76556250D01*
X127310845Y-76589943D01*
X127305895Y-76623312D01*
X127297698Y-76656035D01*
X127286334Y-76687797D01*
X127271910Y-76718293D01*
X127254568Y-76747227D01*
X127234472Y-76774323D01*
X127211818Y-76799318D01*
X127186823Y-76821972D01*
X127159727Y-76842068D01*
X127130793Y-76859410D01*
X127100297Y-76873834D01*
X127068535Y-76885198D01*
X127035812Y-76893395D01*
X127002443Y-76898345D01*
X126968750Y-76900000D01*
X126281250Y-76900000D01*
X126247557Y-76898345D01*
X126214188Y-76893395D01*
X126181465Y-76885198D01*
X126149703Y-76873834D01*
X126119207Y-76859410D01*
X126090273Y-76842068D01*
X126063177Y-76821972D01*
X126038182Y-76799318D01*
X126015528Y-76774323D01*
X125995432Y-76747227D01*
X125978090Y-76718293D01*
X125963666Y-76687797D01*
X125952302Y-76656035D01*
X125944105Y-76623312D01*
X125939155Y-76589943D01*
X125937500Y-76556250D01*
X125937500Y-75443750D01*
X125939155Y-75410057D01*
X125944105Y-75376688D01*
X125952302Y-75343965D01*
X125963666Y-75312203D01*
X125978090Y-75281707D01*
X125995432Y-75252773D01*
X126015528Y-75225677D01*
X126038182Y-75200682D01*
X126063177Y-75178028D01*
X126090273Y-75157932D01*
X126119207Y-75140590D01*
X126149703Y-75126166D01*
X126181465Y-75114802D01*
X126214188Y-75106605D01*
X126247557Y-75101655D01*
X126281250Y-75100000D01*
X126968750Y-75100000D01*
X127002443Y-75101655D01*
X127002443Y-75101655D01*
G37*
D14*
X126625000Y-76000000D03*
D12*
G36*
X128877443Y-75101655D02*
G01*
X128910812Y-75106605D01*
X128943535Y-75114802D01*
X128975297Y-75126166D01*
X129005793Y-75140590D01*
X129034727Y-75157932D01*
X129061823Y-75178028D01*
X129086818Y-75200682D01*
X129109472Y-75225677D01*
X129129568Y-75252773D01*
X129146910Y-75281707D01*
X129161334Y-75312203D01*
X129172698Y-75343965D01*
X129180895Y-75376688D01*
X129185845Y-75410057D01*
X129187500Y-75443750D01*
X129187500Y-76556250D01*
X129185845Y-76589943D01*
X129180895Y-76623312D01*
X129172698Y-76656035D01*
X129161334Y-76687797D01*
X129146910Y-76718293D01*
X129129568Y-76747227D01*
X129109472Y-76774323D01*
X129086818Y-76799318D01*
X129061823Y-76821972D01*
X129034727Y-76842068D01*
X129005793Y-76859410D01*
X128975297Y-76873834D01*
X128943535Y-76885198D01*
X128910812Y-76893395D01*
X128877443Y-76898345D01*
X128843750Y-76900000D01*
X128156250Y-76900000D01*
X128122557Y-76898345D01*
X128089188Y-76893395D01*
X128056465Y-76885198D01*
X128024703Y-76873834D01*
X127994207Y-76859410D01*
X127965273Y-76842068D01*
X127938177Y-76821972D01*
X127913182Y-76799318D01*
X127890528Y-76774323D01*
X127870432Y-76747227D01*
X127853090Y-76718293D01*
X127838666Y-76687797D01*
X127827302Y-76656035D01*
X127819105Y-76623312D01*
X127814155Y-76589943D01*
X127812500Y-76556250D01*
X127812500Y-75443750D01*
X127814155Y-75410057D01*
X127819105Y-75376688D01*
X127827302Y-75343965D01*
X127838666Y-75312203D01*
X127853090Y-75281707D01*
X127870432Y-75252773D01*
X127890528Y-75225677D01*
X127913182Y-75200682D01*
X127938177Y-75178028D01*
X127965273Y-75157932D01*
X127994207Y-75140590D01*
X128024703Y-75126166D01*
X128056465Y-75114802D01*
X128089188Y-75106605D01*
X128122557Y-75101655D01*
X128156250Y-75100000D01*
X128843750Y-75100000D01*
X128877443Y-75101655D01*
X128877443Y-75101655D01*
G37*
D14*
X128500000Y-76000000D03*
D12*
G36*
X129377443Y-83601655D02*
G01*
X129410812Y-83606605D01*
X129443535Y-83614802D01*
X129475297Y-83626166D01*
X129505793Y-83640590D01*
X129534727Y-83657932D01*
X129561823Y-83678028D01*
X129586818Y-83700682D01*
X129609472Y-83725677D01*
X129629568Y-83752773D01*
X129646910Y-83781707D01*
X129661334Y-83812203D01*
X129672698Y-83843965D01*
X129680895Y-83876688D01*
X129685845Y-83910057D01*
X129687500Y-83943750D01*
X129687500Y-85056250D01*
X129685845Y-85089943D01*
X129680895Y-85123312D01*
X129672698Y-85156035D01*
X129661334Y-85187797D01*
X129646910Y-85218293D01*
X129629568Y-85247227D01*
X129609472Y-85274323D01*
X129586818Y-85299318D01*
X129561823Y-85321972D01*
X129534727Y-85342068D01*
X129505793Y-85359410D01*
X129475297Y-85373834D01*
X129443535Y-85385198D01*
X129410812Y-85393395D01*
X129377443Y-85398345D01*
X129343750Y-85400000D01*
X128656250Y-85400000D01*
X128622557Y-85398345D01*
X128589188Y-85393395D01*
X128556465Y-85385198D01*
X128524703Y-85373834D01*
X128494207Y-85359410D01*
X128465273Y-85342068D01*
X128438177Y-85321972D01*
X128413182Y-85299318D01*
X128390528Y-85274323D01*
X128370432Y-85247227D01*
X128353090Y-85218293D01*
X128338666Y-85187797D01*
X128327302Y-85156035D01*
X128319105Y-85123312D01*
X128314155Y-85089943D01*
X128312500Y-85056250D01*
X128312500Y-83943750D01*
X128314155Y-83910057D01*
X128319105Y-83876688D01*
X128327302Y-83843965D01*
X128338666Y-83812203D01*
X128353090Y-83781707D01*
X128370432Y-83752773D01*
X128390528Y-83725677D01*
X128413182Y-83700682D01*
X128438177Y-83678028D01*
X128465273Y-83657932D01*
X128494207Y-83640590D01*
X128524703Y-83626166D01*
X128556465Y-83614802D01*
X128589188Y-83606605D01*
X128622557Y-83601655D01*
X128656250Y-83600000D01*
X129343750Y-83600000D01*
X129377443Y-83601655D01*
X129377443Y-83601655D01*
G37*
D14*
X129000000Y-84500000D03*
D12*
G36*
X127502443Y-83601655D02*
G01*
X127535812Y-83606605D01*
X127568535Y-83614802D01*
X127600297Y-83626166D01*
X127630793Y-83640590D01*
X127659727Y-83657932D01*
X127686823Y-83678028D01*
X127711818Y-83700682D01*
X127734472Y-83725677D01*
X127754568Y-83752773D01*
X127771910Y-83781707D01*
X127786334Y-83812203D01*
X127797698Y-83843965D01*
X127805895Y-83876688D01*
X127810845Y-83910057D01*
X127812500Y-83943750D01*
X127812500Y-85056250D01*
X127810845Y-85089943D01*
X127805895Y-85123312D01*
X127797698Y-85156035D01*
X127786334Y-85187797D01*
X127771910Y-85218293D01*
X127754568Y-85247227D01*
X127734472Y-85274323D01*
X127711818Y-85299318D01*
X127686823Y-85321972D01*
X127659727Y-85342068D01*
X127630793Y-85359410D01*
X127600297Y-85373834D01*
X127568535Y-85385198D01*
X127535812Y-85393395D01*
X127502443Y-85398345D01*
X127468750Y-85400000D01*
X126781250Y-85400000D01*
X126747557Y-85398345D01*
X126714188Y-85393395D01*
X126681465Y-85385198D01*
X126649703Y-85373834D01*
X126619207Y-85359410D01*
X126590273Y-85342068D01*
X126563177Y-85321972D01*
X126538182Y-85299318D01*
X126515528Y-85274323D01*
X126495432Y-85247227D01*
X126478090Y-85218293D01*
X126463666Y-85187797D01*
X126452302Y-85156035D01*
X126444105Y-85123312D01*
X126439155Y-85089943D01*
X126437500Y-85056250D01*
X126437500Y-83943750D01*
X126439155Y-83910057D01*
X126444105Y-83876688D01*
X126452302Y-83843965D01*
X126463666Y-83812203D01*
X126478090Y-83781707D01*
X126495432Y-83752773D01*
X126515528Y-83725677D01*
X126538182Y-83700682D01*
X126563177Y-83678028D01*
X126590273Y-83657932D01*
X126619207Y-83640590D01*
X126649703Y-83626166D01*
X126681465Y-83614802D01*
X126714188Y-83606605D01*
X126747557Y-83601655D01*
X126781250Y-83600000D01*
X127468750Y-83600000D01*
X127502443Y-83601655D01*
X127502443Y-83601655D01*
G37*
D14*
X127125000Y-84500000D03*
D12*
G36*
X132002443Y-83601655D02*
G01*
X132035812Y-83606605D01*
X132068535Y-83614802D01*
X132100297Y-83626166D01*
X132130793Y-83640590D01*
X132159727Y-83657932D01*
X132186823Y-83678028D01*
X132211818Y-83700682D01*
X132234472Y-83725677D01*
X132254568Y-83752773D01*
X132271910Y-83781707D01*
X132286334Y-83812203D01*
X132297698Y-83843965D01*
X132305895Y-83876688D01*
X132310845Y-83910057D01*
X132312500Y-83943750D01*
X132312500Y-85056250D01*
X132310845Y-85089943D01*
X132305895Y-85123312D01*
X132297698Y-85156035D01*
X132286334Y-85187797D01*
X132271910Y-85218293D01*
X132254568Y-85247227D01*
X132234472Y-85274323D01*
X132211818Y-85299318D01*
X132186823Y-85321972D01*
X132159727Y-85342068D01*
X132130793Y-85359410D01*
X132100297Y-85373834D01*
X132068535Y-85385198D01*
X132035812Y-85393395D01*
X132002443Y-85398345D01*
X131968750Y-85400000D01*
X131281250Y-85400000D01*
X131247557Y-85398345D01*
X131214188Y-85393395D01*
X131181465Y-85385198D01*
X131149703Y-85373834D01*
X131119207Y-85359410D01*
X131090273Y-85342068D01*
X131063177Y-85321972D01*
X131038182Y-85299318D01*
X131015528Y-85274323D01*
X130995432Y-85247227D01*
X130978090Y-85218293D01*
X130963666Y-85187797D01*
X130952302Y-85156035D01*
X130944105Y-85123312D01*
X130939155Y-85089943D01*
X130937500Y-85056250D01*
X130937500Y-83943750D01*
X130939155Y-83910057D01*
X130944105Y-83876688D01*
X130952302Y-83843965D01*
X130963666Y-83812203D01*
X130978090Y-83781707D01*
X130995432Y-83752773D01*
X131015528Y-83725677D01*
X131038182Y-83700682D01*
X131063177Y-83678028D01*
X131090273Y-83657932D01*
X131119207Y-83640590D01*
X131149703Y-83626166D01*
X131181465Y-83614802D01*
X131214188Y-83606605D01*
X131247557Y-83601655D01*
X131281250Y-83600000D01*
X131968750Y-83600000D01*
X132002443Y-83601655D01*
X132002443Y-83601655D01*
G37*
D14*
X131625000Y-84500000D03*
D12*
G36*
X133877443Y-83601655D02*
G01*
X133910812Y-83606605D01*
X133943535Y-83614802D01*
X133975297Y-83626166D01*
X134005793Y-83640590D01*
X134034727Y-83657932D01*
X134061823Y-83678028D01*
X134086818Y-83700682D01*
X134109472Y-83725677D01*
X134129568Y-83752773D01*
X134146910Y-83781707D01*
X134161334Y-83812203D01*
X134172698Y-83843965D01*
X134180895Y-83876688D01*
X134185845Y-83910057D01*
X134187500Y-83943750D01*
X134187500Y-85056250D01*
X134185845Y-85089943D01*
X134180895Y-85123312D01*
X134172698Y-85156035D01*
X134161334Y-85187797D01*
X134146910Y-85218293D01*
X134129568Y-85247227D01*
X134109472Y-85274323D01*
X134086818Y-85299318D01*
X134061823Y-85321972D01*
X134034727Y-85342068D01*
X134005793Y-85359410D01*
X133975297Y-85373834D01*
X133943535Y-85385198D01*
X133910812Y-85393395D01*
X133877443Y-85398345D01*
X133843750Y-85400000D01*
X133156250Y-85400000D01*
X133122557Y-85398345D01*
X133089188Y-85393395D01*
X133056465Y-85385198D01*
X133024703Y-85373834D01*
X132994207Y-85359410D01*
X132965273Y-85342068D01*
X132938177Y-85321972D01*
X132913182Y-85299318D01*
X132890528Y-85274323D01*
X132870432Y-85247227D01*
X132853090Y-85218293D01*
X132838666Y-85187797D01*
X132827302Y-85156035D01*
X132819105Y-85123312D01*
X132814155Y-85089943D01*
X132812500Y-85056250D01*
X132812500Y-83943750D01*
X132814155Y-83910057D01*
X132819105Y-83876688D01*
X132827302Y-83843965D01*
X132838666Y-83812203D01*
X132853090Y-83781707D01*
X132870432Y-83752773D01*
X132890528Y-83725677D01*
X132913182Y-83700682D01*
X132938177Y-83678028D01*
X132965273Y-83657932D01*
X132994207Y-83640590D01*
X133024703Y-83626166D01*
X133056465Y-83614802D01*
X133089188Y-83606605D01*
X133122557Y-83601655D01*
X133156250Y-83600000D01*
X133843750Y-83600000D01*
X133877443Y-83601655D01*
X133877443Y-83601655D01*
G37*
D14*
X133500000Y-84500000D03*
D15*
X137500000Y-96500000D03*
D16*
X137500000Y-93960000D03*
D15*
X173500000Y-123500000D03*
D16*
X173500000Y-120960000D03*
X173500000Y-118420000D03*
X173500000Y-115880000D03*
X173500000Y-113340000D03*
D17*
X149000000Y-128000000D03*
D12*
G36*
X148742146Y-129462365D02*
G01*
X147537635Y-127742146D01*
X149257854Y-126537635D01*
X150462365Y-128257854D01*
X148742146Y-129462365D01*
X148742146Y-129462365D01*
G37*
D17*
X151080646Y-126543116D03*
D18*
X151080646Y-126543116D02*
X151080646Y-126543116D01*
D17*
X147543116Y-125919354D03*
D18*
X147543116Y-125919354D02*
X147543116Y-125919354D01*
D17*
X149623762Y-124462470D03*
D18*
X149623762Y-124462470D02*
X149623762Y-124462470D01*
D17*
X146086232Y-123838708D03*
D18*
X146086232Y-123838708D02*
X146086232Y-123838708D01*
D17*
X148166878Y-122381823D03*
D18*
X148166878Y-122381823D02*
X148166878Y-122381823D01*
D17*
X144629348Y-121758061D03*
D18*
X144629348Y-121758061D02*
X144629348Y-121758061D01*
D17*
X146709994Y-120301177D03*
D18*
X146709994Y-120301177D02*
X146709994Y-120301177D01*
D17*
X143172463Y-119677415D03*
D18*
X143172463Y-119677415D02*
X143172463Y-119677415D01*
D17*
X145253110Y-118220531D03*
D18*
X145253110Y-118220531D02*
X145253110Y-118220531D01*
D15*
X177500000Y-123580000D03*
D16*
X177500000Y-121040000D03*
X177500000Y-118500000D03*
X177500000Y-115960000D03*
D19*
X166010000Y-110200000D03*
X165010000Y-110200000D03*
X164010000Y-110200000D03*
X163010000Y-110200000D03*
X162010000Y-110200000D03*
X161010000Y-110200000D03*
X160010000Y-110200000D03*
X159010000Y-110200000D03*
X158010000Y-110200000D03*
X157010000Y-110200000D03*
D20*
X169000000Y-113000000D03*
X154020000Y-113000000D03*
D21*
X165820000Y-129500000D03*
X157180000Y-129500000D03*
D22*
X165820000Y-133650000D03*
X157180000Y-133650000D03*
D23*
X161250000Y-128800000D03*
X161750000Y-128800000D03*
X162250000Y-128800000D03*
X160750000Y-128800000D03*
X160250000Y-128800000D03*
X162750000Y-128800000D03*
X159750000Y-128800000D03*
X163250000Y-128800000D03*
X164825000Y-128800000D03*
X164575000Y-128800000D03*
X164025000Y-128800000D03*
X163775000Y-128800000D03*
X159225000Y-128800000D03*
X158975000Y-128800000D03*
X158425000Y-128800000D03*
X158175000Y-128800000D03*
D24*
X158610000Y-130000000D03*
X164390000Y-130000000D03*
D12*
G36*
X169502443Y-126101655D02*
G01*
X169535812Y-126106605D01*
X169568535Y-126114802D01*
X169600297Y-126126166D01*
X169630793Y-126140590D01*
X169659727Y-126157932D01*
X169686823Y-126178028D01*
X169711818Y-126200682D01*
X169734472Y-126225677D01*
X169754568Y-126252773D01*
X169771910Y-126281707D01*
X169786334Y-126312203D01*
X169797698Y-126343965D01*
X169805895Y-126376688D01*
X169810845Y-126410057D01*
X169812500Y-126443750D01*
X169812500Y-127556250D01*
X169810845Y-127589943D01*
X169805895Y-127623312D01*
X169797698Y-127656035D01*
X169786334Y-127687797D01*
X169771910Y-127718293D01*
X169754568Y-127747227D01*
X169734472Y-127774323D01*
X169711818Y-127799318D01*
X169686823Y-127821972D01*
X169659727Y-127842068D01*
X169630793Y-127859410D01*
X169600297Y-127873834D01*
X169568535Y-127885198D01*
X169535812Y-127893395D01*
X169502443Y-127898345D01*
X169468750Y-127900000D01*
X168781250Y-127900000D01*
X168747557Y-127898345D01*
X168714188Y-127893395D01*
X168681465Y-127885198D01*
X168649703Y-127873834D01*
X168619207Y-127859410D01*
X168590273Y-127842068D01*
X168563177Y-127821972D01*
X168538182Y-127799318D01*
X168515528Y-127774323D01*
X168495432Y-127747227D01*
X168478090Y-127718293D01*
X168463666Y-127687797D01*
X168452302Y-127656035D01*
X168444105Y-127623312D01*
X168439155Y-127589943D01*
X168437500Y-127556250D01*
X168437500Y-126443750D01*
X168439155Y-126410057D01*
X168444105Y-126376688D01*
X168452302Y-126343965D01*
X168463666Y-126312203D01*
X168478090Y-126281707D01*
X168495432Y-126252773D01*
X168515528Y-126225677D01*
X168538182Y-126200682D01*
X168563177Y-126178028D01*
X168590273Y-126157932D01*
X168619207Y-126140590D01*
X168649703Y-126126166D01*
X168681465Y-126114802D01*
X168714188Y-126106605D01*
X168747557Y-126101655D01*
X168781250Y-126100000D01*
X169468750Y-126100000D01*
X169502443Y-126101655D01*
X169502443Y-126101655D01*
G37*
D14*
X169125000Y-127000000D03*
D12*
G36*
X171377443Y-126101655D02*
G01*
X171410812Y-126106605D01*
X171443535Y-126114802D01*
X171475297Y-126126166D01*
X171505793Y-126140590D01*
X171534727Y-126157932D01*
X171561823Y-126178028D01*
X171586818Y-126200682D01*
X171609472Y-126225677D01*
X171629568Y-126252773D01*
X171646910Y-126281707D01*
X171661334Y-126312203D01*
X171672698Y-126343965D01*
X171680895Y-126376688D01*
X171685845Y-126410057D01*
X171687500Y-126443750D01*
X171687500Y-127556250D01*
X171685845Y-127589943D01*
X171680895Y-127623312D01*
X171672698Y-127656035D01*
X171661334Y-127687797D01*
X171646910Y-127718293D01*
X171629568Y-127747227D01*
X171609472Y-127774323D01*
X171586818Y-127799318D01*
X171561823Y-127821972D01*
X171534727Y-127842068D01*
X171505793Y-127859410D01*
X171475297Y-127873834D01*
X171443535Y-127885198D01*
X171410812Y-127893395D01*
X171377443Y-127898345D01*
X171343750Y-127900000D01*
X170656250Y-127900000D01*
X170622557Y-127898345D01*
X170589188Y-127893395D01*
X170556465Y-127885198D01*
X170524703Y-127873834D01*
X170494207Y-127859410D01*
X170465273Y-127842068D01*
X170438177Y-127821972D01*
X170413182Y-127799318D01*
X170390528Y-127774323D01*
X170370432Y-127747227D01*
X170353090Y-127718293D01*
X170338666Y-127687797D01*
X170327302Y-127656035D01*
X170319105Y-127623312D01*
X170314155Y-127589943D01*
X170312500Y-127556250D01*
X170312500Y-126443750D01*
X170314155Y-126410057D01*
X170319105Y-126376688D01*
X170327302Y-126343965D01*
X170338666Y-126312203D01*
X170353090Y-126281707D01*
X170370432Y-126252773D01*
X170390528Y-126225677D01*
X170413182Y-126200682D01*
X170438177Y-126178028D01*
X170465273Y-126157932D01*
X170494207Y-126140590D01*
X170524703Y-126126166D01*
X170556465Y-126114802D01*
X170589188Y-126106605D01*
X170622557Y-126101655D01*
X170656250Y-126100000D01*
X171343750Y-126100000D01*
X171377443Y-126101655D01*
X171377443Y-126101655D01*
G37*
D14*
X171000000Y-127000000D03*
D12*
G36*
X171377443Y-130101655D02*
G01*
X171410812Y-130106605D01*
X171443535Y-130114802D01*
X171475297Y-130126166D01*
X171505793Y-130140590D01*
X171534727Y-130157932D01*
X171561823Y-130178028D01*
X171586818Y-130200682D01*
X171609472Y-130225677D01*
X171629568Y-130252773D01*
X171646910Y-130281707D01*
X171661334Y-130312203D01*
X171672698Y-130343965D01*
X171680895Y-130376688D01*
X171685845Y-130410057D01*
X171687500Y-130443750D01*
X171687500Y-131556250D01*
X171685845Y-131589943D01*
X171680895Y-131623312D01*
X171672698Y-131656035D01*
X171661334Y-131687797D01*
X171646910Y-131718293D01*
X171629568Y-131747227D01*
X171609472Y-131774323D01*
X171586818Y-131799318D01*
X171561823Y-131821972D01*
X171534727Y-131842068D01*
X171505793Y-131859410D01*
X171475297Y-131873834D01*
X171443535Y-131885198D01*
X171410812Y-131893395D01*
X171377443Y-131898345D01*
X171343750Y-131900000D01*
X170656250Y-131900000D01*
X170622557Y-131898345D01*
X170589188Y-131893395D01*
X170556465Y-131885198D01*
X170524703Y-131873834D01*
X170494207Y-131859410D01*
X170465273Y-131842068D01*
X170438177Y-131821972D01*
X170413182Y-131799318D01*
X170390528Y-131774323D01*
X170370432Y-131747227D01*
X170353090Y-131718293D01*
X170338666Y-131687797D01*
X170327302Y-131656035D01*
X170319105Y-131623312D01*
X170314155Y-131589943D01*
X170312500Y-131556250D01*
X170312500Y-130443750D01*
X170314155Y-130410057D01*
X170319105Y-130376688D01*
X170327302Y-130343965D01*
X170338666Y-130312203D01*
X170353090Y-130281707D01*
X170370432Y-130252773D01*
X170390528Y-130225677D01*
X170413182Y-130200682D01*
X170438177Y-130178028D01*
X170465273Y-130157932D01*
X170494207Y-130140590D01*
X170524703Y-130126166D01*
X170556465Y-130114802D01*
X170589188Y-130106605D01*
X170622557Y-130101655D01*
X170656250Y-130100000D01*
X171343750Y-130100000D01*
X171377443Y-130101655D01*
X171377443Y-130101655D01*
G37*
D14*
X171000000Y-131000000D03*
D12*
G36*
X169502443Y-130101655D02*
G01*
X169535812Y-130106605D01*
X169568535Y-130114802D01*
X169600297Y-130126166D01*
X169630793Y-130140590D01*
X169659727Y-130157932D01*
X169686823Y-130178028D01*
X169711818Y-130200682D01*
X169734472Y-130225677D01*
X169754568Y-130252773D01*
X169771910Y-130281707D01*
X169786334Y-130312203D01*
X169797698Y-130343965D01*
X169805895Y-130376688D01*
X169810845Y-130410057D01*
X169812500Y-130443750D01*
X169812500Y-131556250D01*
X169810845Y-131589943D01*
X169805895Y-131623312D01*
X169797698Y-131656035D01*
X169786334Y-131687797D01*
X169771910Y-131718293D01*
X169754568Y-131747227D01*
X169734472Y-131774323D01*
X169711818Y-131799318D01*
X169686823Y-131821972D01*
X169659727Y-131842068D01*
X169630793Y-131859410D01*
X169600297Y-131873834D01*
X169568535Y-131885198D01*
X169535812Y-131893395D01*
X169502443Y-131898345D01*
X169468750Y-131900000D01*
X168781250Y-131900000D01*
X168747557Y-131898345D01*
X168714188Y-131893395D01*
X168681465Y-131885198D01*
X168649703Y-131873834D01*
X168619207Y-131859410D01*
X168590273Y-131842068D01*
X168563177Y-131821972D01*
X168538182Y-131799318D01*
X168515528Y-131774323D01*
X168495432Y-131747227D01*
X168478090Y-131718293D01*
X168463666Y-131687797D01*
X168452302Y-131656035D01*
X168444105Y-131623312D01*
X168439155Y-131589943D01*
X168437500Y-131556250D01*
X168437500Y-130443750D01*
X168439155Y-130410057D01*
X168444105Y-130376688D01*
X168452302Y-130343965D01*
X168463666Y-130312203D01*
X168478090Y-130281707D01*
X168495432Y-130252773D01*
X168515528Y-130225677D01*
X168538182Y-130200682D01*
X168563177Y-130178028D01*
X168590273Y-130157932D01*
X168619207Y-130140590D01*
X168649703Y-130126166D01*
X168681465Y-130114802D01*
X168714188Y-130106605D01*
X168747557Y-130101655D01*
X168781250Y-130100000D01*
X169468750Y-130100000D01*
X169502443Y-130101655D01*
X169502443Y-130101655D01*
G37*
D14*
X169125000Y-131000000D03*
D12*
G36*
X152883433Y-80021509D02*
G01*
X152916802Y-80026459D01*
X152949525Y-80034656D01*
X152981287Y-80046020D01*
X153011783Y-80060444D01*
X153040717Y-80077786D01*
X153067813Y-80097882D01*
X153092808Y-80120536D01*
X153879464Y-80907192D01*
X153902118Y-80932187D01*
X153922214Y-80959283D01*
X153939556Y-80988217D01*
X153953980Y-81018713D01*
X153965344Y-81050475D01*
X153973541Y-81083198D01*
X153978491Y-81116567D01*
X153980146Y-81150260D01*
X153978491Y-81183953D01*
X153973541Y-81217322D01*
X153965344Y-81250045D01*
X153953980Y-81281807D01*
X153939556Y-81312303D01*
X153922214Y-81341237D01*
X153902118Y-81368333D01*
X153879464Y-81393328D01*
X153393328Y-81879464D01*
X153368333Y-81902118D01*
X153341237Y-81922214D01*
X153312303Y-81939556D01*
X153281807Y-81953980D01*
X153250045Y-81965344D01*
X153217322Y-81973541D01*
X153183953Y-81978491D01*
X153150260Y-81980146D01*
X153116567Y-81978491D01*
X153083198Y-81973541D01*
X153050475Y-81965344D01*
X153018713Y-81953980D01*
X152988217Y-81939556D01*
X152959283Y-81922214D01*
X152932187Y-81902118D01*
X152907192Y-81879464D01*
X152120536Y-81092808D01*
X152097882Y-81067813D01*
X152077786Y-81040717D01*
X152060444Y-81011783D01*
X152046020Y-80981287D01*
X152034656Y-80949525D01*
X152026459Y-80916802D01*
X152021509Y-80883433D01*
X152019854Y-80849740D01*
X152021509Y-80816047D01*
X152026459Y-80782678D01*
X152034656Y-80749955D01*
X152046020Y-80718193D01*
X152060444Y-80687697D01*
X152077786Y-80658763D01*
X152097882Y-80631667D01*
X152120536Y-80606672D01*
X152606672Y-80120536D01*
X152631667Y-80097882D01*
X152658763Y-80077786D01*
X152687697Y-80060444D01*
X152718193Y-80046020D01*
X152749955Y-80034656D01*
X152782678Y-80026459D01*
X152816047Y-80021509D01*
X152849740Y-80019854D01*
X152883433Y-80021509D01*
X152883433Y-80021509D01*
G37*
D14*
X153000000Y-81000000D03*
D12*
G36*
X151557607Y-81347335D02*
G01*
X151590976Y-81352285D01*
X151623699Y-81360482D01*
X151655461Y-81371846D01*
X151685957Y-81386270D01*
X151714891Y-81403612D01*
X151741987Y-81423708D01*
X151766982Y-81446362D01*
X152553638Y-82233018D01*
X152576292Y-82258013D01*
X152596388Y-82285109D01*
X152613730Y-82314043D01*
X152628154Y-82344539D01*
X152639518Y-82376301D01*
X152647715Y-82409024D01*
X152652665Y-82442393D01*
X152654320Y-82476086D01*
X152652665Y-82509779D01*
X152647715Y-82543148D01*
X152639518Y-82575871D01*
X152628154Y-82607633D01*
X152613730Y-82638129D01*
X152596388Y-82667063D01*
X152576292Y-82694159D01*
X152553638Y-82719154D01*
X152067502Y-83205290D01*
X152042507Y-83227944D01*
X152015411Y-83248040D01*
X151986477Y-83265382D01*
X151955981Y-83279806D01*
X151924219Y-83291170D01*
X151891496Y-83299367D01*
X151858127Y-83304317D01*
X151824434Y-83305972D01*
X151790741Y-83304317D01*
X151757372Y-83299367D01*
X151724649Y-83291170D01*
X151692887Y-83279806D01*
X151662391Y-83265382D01*
X151633457Y-83248040D01*
X151606361Y-83227944D01*
X151581366Y-83205290D01*
X150794710Y-82418634D01*
X150772056Y-82393639D01*
X150751960Y-82366543D01*
X150734618Y-82337609D01*
X150720194Y-82307113D01*
X150708830Y-82275351D01*
X150700633Y-82242628D01*
X150695683Y-82209259D01*
X150694028Y-82175566D01*
X150695683Y-82141873D01*
X150700633Y-82108504D01*
X150708830Y-82075781D01*
X150720194Y-82044019D01*
X150734618Y-82013523D01*
X150751960Y-81984589D01*
X150772056Y-81957493D01*
X150794710Y-81932498D01*
X151280846Y-81446362D01*
X151305841Y-81423708D01*
X151332937Y-81403612D01*
X151361871Y-81386270D01*
X151392367Y-81371846D01*
X151424129Y-81360482D01*
X151456852Y-81352285D01*
X151490221Y-81347335D01*
X151523914Y-81345680D01*
X151557607Y-81347335D01*
X151557607Y-81347335D01*
G37*
D14*
X151674174Y-82325826D03*
D12*
G36*
X114377443Y-74601655D02*
G01*
X114410812Y-74606605D01*
X114443535Y-74614802D01*
X114475297Y-74626166D01*
X114505793Y-74640590D01*
X114534727Y-74657932D01*
X114561823Y-74678028D01*
X114586818Y-74700682D01*
X114609472Y-74725677D01*
X114629568Y-74752773D01*
X114646910Y-74781707D01*
X114661334Y-74812203D01*
X114672698Y-74843965D01*
X114680895Y-74876688D01*
X114685845Y-74910057D01*
X114687500Y-74943750D01*
X114687500Y-76056250D01*
X114685845Y-76089943D01*
X114680895Y-76123312D01*
X114672698Y-76156035D01*
X114661334Y-76187797D01*
X114646910Y-76218293D01*
X114629568Y-76247227D01*
X114609472Y-76274323D01*
X114586818Y-76299318D01*
X114561823Y-76321972D01*
X114534727Y-76342068D01*
X114505793Y-76359410D01*
X114475297Y-76373834D01*
X114443535Y-76385198D01*
X114410812Y-76393395D01*
X114377443Y-76398345D01*
X114343750Y-76400000D01*
X113656250Y-76400000D01*
X113622557Y-76398345D01*
X113589188Y-76393395D01*
X113556465Y-76385198D01*
X113524703Y-76373834D01*
X113494207Y-76359410D01*
X113465273Y-76342068D01*
X113438177Y-76321972D01*
X113413182Y-76299318D01*
X113390528Y-76274323D01*
X113370432Y-76247227D01*
X113353090Y-76218293D01*
X113338666Y-76187797D01*
X113327302Y-76156035D01*
X113319105Y-76123312D01*
X113314155Y-76089943D01*
X113312500Y-76056250D01*
X113312500Y-74943750D01*
X113314155Y-74910057D01*
X113319105Y-74876688D01*
X113327302Y-74843965D01*
X113338666Y-74812203D01*
X113353090Y-74781707D01*
X113370432Y-74752773D01*
X113390528Y-74725677D01*
X113413182Y-74700682D01*
X113438177Y-74678028D01*
X113465273Y-74657932D01*
X113494207Y-74640590D01*
X113524703Y-74626166D01*
X113556465Y-74614802D01*
X113589188Y-74606605D01*
X113622557Y-74601655D01*
X113656250Y-74600000D01*
X114343750Y-74600000D01*
X114377443Y-74601655D01*
X114377443Y-74601655D01*
G37*
D14*
X114000000Y-75500000D03*
D12*
G36*
X116252443Y-74601655D02*
G01*
X116285812Y-74606605D01*
X116318535Y-74614802D01*
X116350297Y-74626166D01*
X116380793Y-74640590D01*
X116409727Y-74657932D01*
X116436823Y-74678028D01*
X116461818Y-74700682D01*
X116484472Y-74725677D01*
X116504568Y-74752773D01*
X116521910Y-74781707D01*
X116536334Y-74812203D01*
X116547698Y-74843965D01*
X116555895Y-74876688D01*
X116560845Y-74910057D01*
X116562500Y-74943750D01*
X116562500Y-76056250D01*
X116560845Y-76089943D01*
X116555895Y-76123312D01*
X116547698Y-76156035D01*
X116536334Y-76187797D01*
X116521910Y-76218293D01*
X116504568Y-76247227D01*
X116484472Y-76274323D01*
X116461818Y-76299318D01*
X116436823Y-76321972D01*
X116409727Y-76342068D01*
X116380793Y-76359410D01*
X116350297Y-76373834D01*
X116318535Y-76385198D01*
X116285812Y-76393395D01*
X116252443Y-76398345D01*
X116218750Y-76400000D01*
X115531250Y-76400000D01*
X115497557Y-76398345D01*
X115464188Y-76393395D01*
X115431465Y-76385198D01*
X115399703Y-76373834D01*
X115369207Y-76359410D01*
X115340273Y-76342068D01*
X115313177Y-76321972D01*
X115288182Y-76299318D01*
X115265528Y-76274323D01*
X115245432Y-76247227D01*
X115228090Y-76218293D01*
X115213666Y-76187797D01*
X115202302Y-76156035D01*
X115194105Y-76123312D01*
X115189155Y-76089943D01*
X115187500Y-76056250D01*
X115187500Y-74943750D01*
X115189155Y-74910057D01*
X115194105Y-74876688D01*
X115202302Y-74843965D01*
X115213666Y-74812203D01*
X115228090Y-74781707D01*
X115245432Y-74752773D01*
X115265528Y-74725677D01*
X115288182Y-74700682D01*
X115313177Y-74678028D01*
X115340273Y-74657932D01*
X115369207Y-74640590D01*
X115399703Y-74626166D01*
X115431465Y-74614802D01*
X115464188Y-74606605D01*
X115497557Y-74601655D01*
X115531250Y-74600000D01*
X116218750Y-74600000D01*
X116252443Y-74601655D01*
X116252443Y-74601655D01*
G37*
D14*
X115875000Y-75500000D03*
D12*
G36*
X111877443Y-74601655D02*
G01*
X111910812Y-74606605D01*
X111943535Y-74614802D01*
X111975297Y-74626166D01*
X112005793Y-74640590D01*
X112034727Y-74657932D01*
X112061823Y-74678028D01*
X112086818Y-74700682D01*
X112109472Y-74725677D01*
X112129568Y-74752773D01*
X112146910Y-74781707D01*
X112161334Y-74812203D01*
X112172698Y-74843965D01*
X112180895Y-74876688D01*
X112185845Y-74910057D01*
X112187500Y-74943750D01*
X112187500Y-76056250D01*
X112185845Y-76089943D01*
X112180895Y-76123312D01*
X112172698Y-76156035D01*
X112161334Y-76187797D01*
X112146910Y-76218293D01*
X112129568Y-76247227D01*
X112109472Y-76274323D01*
X112086818Y-76299318D01*
X112061823Y-76321972D01*
X112034727Y-76342068D01*
X112005793Y-76359410D01*
X111975297Y-76373834D01*
X111943535Y-76385198D01*
X111910812Y-76393395D01*
X111877443Y-76398345D01*
X111843750Y-76400000D01*
X111156250Y-76400000D01*
X111122557Y-76398345D01*
X111089188Y-76393395D01*
X111056465Y-76385198D01*
X111024703Y-76373834D01*
X110994207Y-76359410D01*
X110965273Y-76342068D01*
X110938177Y-76321972D01*
X110913182Y-76299318D01*
X110890528Y-76274323D01*
X110870432Y-76247227D01*
X110853090Y-76218293D01*
X110838666Y-76187797D01*
X110827302Y-76156035D01*
X110819105Y-76123312D01*
X110814155Y-76089943D01*
X110812500Y-76056250D01*
X110812500Y-74943750D01*
X110814155Y-74910057D01*
X110819105Y-74876688D01*
X110827302Y-74843965D01*
X110838666Y-74812203D01*
X110853090Y-74781707D01*
X110870432Y-74752773D01*
X110890528Y-74725677D01*
X110913182Y-74700682D01*
X110938177Y-74678028D01*
X110965273Y-74657932D01*
X110994207Y-74640590D01*
X111024703Y-74626166D01*
X111056465Y-74614802D01*
X111089188Y-74606605D01*
X111122557Y-74601655D01*
X111156250Y-74600000D01*
X111843750Y-74600000D01*
X111877443Y-74601655D01*
X111877443Y-74601655D01*
G37*
D14*
X111500000Y-75500000D03*
D12*
G36*
X110002443Y-74601655D02*
G01*
X110035812Y-74606605D01*
X110068535Y-74614802D01*
X110100297Y-74626166D01*
X110130793Y-74640590D01*
X110159727Y-74657932D01*
X110186823Y-74678028D01*
X110211818Y-74700682D01*
X110234472Y-74725677D01*
X110254568Y-74752773D01*
X110271910Y-74781707D01*
X110286334Y-74812203D01*
X110297698Y-74843965D01*
X110305895Y-74876688D01*
X110310845Y-74910057D01*
X110312500Y-74943750D01*
X110312500Y-76056250D01*
X110310845Y-76089943D01*
X110305895Y-76123312D01*
X110297698Y-76156035D01*
X110286334Y-76187797D01*
X110271910Y-76218293D01*
X110254568Y-76247227D01*
X110234472Y-76274323D01*
X110211818Y-76299318D01*
X110186823Y-76321972D01*
X110159727Y-76342068D01*
X110130793Y-76359410D01*
X110100297Y-76373834D01*
X110068535Y-76385198D01*
X110035812Y-76393395D01*
X110002443Y-76398345D01*
X109968750Y-76400000D01*
X109281250Y-76400000D01*
X109247557Y-76398345D01*
X109214188Y-76393395D01*
X109181465Y-76385198D01*
X109149703Y-76373834D01*
X109119207Y-76359410D01*
X109090273Y-76342068D01*
X109063177Y-76321972D01*
X109038182Y-76299318D01*
X109015528Y-76274323D01*
X108995432Y-76247227D01*
X108978090Y-76218293D01*
X108963666Y-76187797D01*
X108952302Y-76156035D01*
X108944105Y-76123312D01*
X108939155Y-76089943D01*
X108937500Y-76056250D01*
X108937500Y-74943750D01*
X108939155Y-74910057D01*
X108944105Y-74876688D01*
X108952302Y-74843965D01*
X108963666Y-74812203D01*
X108978090Y-74781707D01*
X108995432Y-74752773D01*
X109015528Y-74725677D01*
X109038182Y-74700682D01*
X109063177Y-74678028D01*
X109090273Y-74657932D01*
X109119207Y-74640590D01*
X109149703Y-74626166D01*
X109181465Y-74614802D01*
X109214188Y-74606605D01*
X109247557Y-74601655D01*
X109281250Y-74600000D01*
X109968750Y-74600000D01*
X110002443Y-74601655D01*
X110002443Y-74601655D01*
G37*
D14*
X109625000Y-75500000D03*
D12*
G36*
X151377443Y-108101655D02*
G01*
X151410812Y-108106605D01*
X151443535Y-108114802D01*
X151475297Y-108126166D01*
X151505793Y-108140590D01*
X151534727Y-108157932D01*
X151561823Y-108178028D01*
X151586818Y-108200682D01*
X151609472Y-108225677D01*
X151629568Y-108252773D01*
X151646910Y-108281707D01*
X151661334Y-108312203D01*
X151672698Y-108343965D01*
X151680895Y-108376688D01*
X151685845Y-108410057D01*
X151687500Y-108443750D01*
X151687500Y-109556250D01*
X151685845Y-109589943D01*
X151680895Y-109623312D01*
X151672698Y-109656035D01*
X151661334Y-109687797D01*
X151646910Y-109718293D01*
X151629568Y-109747227D01*
X151609472Y-109774323D01*
X151586818Y-109799318D01*
X151561823Y-109821972D01*
X151534727Y-109842068D01*
X151505793Y-109859410D01*
X151475297Y-109873834D01*
X151443535Y-109885198D01*
X151410812Y-109893395D01*
X151377443Y-109898345D01*
X151343750Y-109900000D01*
X150656250Y-109900000D01*
X150622557Y-109898345D01*
X150589188Y-109893395D01*
X150556465Y-109885198D01*
X150524703Y-109873834D01*
X150494207Y-109859410D01*
X150465273Y-109842068D01*
X150438177Y-109821972D01*
X150413182Y-109799318D01*
X150390528Y-109774323D01*
X150370432Y-109747227D01*
X150353090Y-109718293D01*
X150338666Y-109687797D01*
X150327302Y-109656035D01*
X150319105Y-109623312D01*
X150314155Y-109589943D01*
X150312500Y-109556250D01*
X150312500Y-108443750D01*
X150314155Y-108410057D01*
X150319105Y-108376688D01*
X150327302Y-108343965D01*
X150338666Y-108312203D01*
X150353090Y-108281707D01*
X150370432Y-108252773D01*
X150390528Y-108225677D01*
X150413182Y-108200682D01*
X150438177Y-108178028D01*
X150465273Y-108157932D01*
X150494207Y-108140590D01*
X150524703Y-108126166D01*
X150556465Y-108114802D01*
X150589188Y-108106605D01*
X150622557Y-108101655D01*
X150656250Y-108100000D01*
X151343750Y-108100000D01*
X151377443Y-108101655D01*
X151377443Y-108101655D01*
G37*
D14*
X151000000Y-109000000D03*
D12*
G36*
X149502443Y-108101655D02*
G01*
X149535812Y-108106605D01*
X149568535Y-108114802D01*
X149600297Y-108126166D01*
X149630793Y-108140590D01*
X149659727Y-108157932D01*
X149686823Y-108178028D01*
X149711818Y-108200682D01*
X149734472Y-108225677D01*
X149754568Y-108252773D01*
X149771910Y-108281707D01*
X149786334Y-108312203D01*
X149797698Y-108343965D01*
X149805895Y-108376688D01*
X149810845Y-108410057D01*
X149812500Y-108443750D01*
X149812500Y-109556250D01*
X149810845Y-109589943D01*
X149805895Y-109623312D01*
X149797698Y-109656035D01*
X149786334Y-109687797D01*
X149771910Y-109718293D01*
X149754568Y-109747227D01*
X149734472Y-109774323D01*
X149711818Y-109799318D01*
X149686823Y-109821972D01*
X149659727Y-109842068D01*
X149630793Y-109859410D01*
X149600297Y-109873834D01*
X149568535Y-109885198D01*
X149535812Y-109893395D01*
X149502443Y-109898345D01*
X149468750Y-109900000D01*
X148781250Y-109900000D01*
X148747557Y-109898345D01*
X148714188Y-109893395D01*
X148681465Y-109885198D01*
X148649703Y-109873834D01*
X148619207Y-109859410D01*
X148590273Y-109842068D01*
X148563177Y-109821972D01*
X148538182Y-109799318D01*
X148515528Y-109774323D01*
X148495432Y-109747227D01*
X148478090Y-109718293D01*
X148463666Y-109687797D01*
X148452302Y-109656035D01*
X148444105Y-109623312D01*
X148439155Y-109589943D01*
X148437500Y-109556250D01*
X148437500Y-108443750D01*
X148439155Y-108410057D01*
X148444105Y-108376688D01*
X148452302Y-108343965D01*
X148463666Y-108312203D01*
X148478090Y-108281707D01*
X148495432Y-108252773D01*
X148515528Y-108225677D01*
X148538182Y-108200682D01*
X148563177Y-108178028D01*
X148590273Y-108157932D01*
X148619207Y-108140590D01*
X148649703Y-108126166D01*
X148681465Y-108114802D01*
X148714188Y-108106605D01*
X148747557Y-108101655D01*
X148781250Y-108100000D01*
X149468750Y-108100000D01*
X149502443Y-108101655D01*
X149502443Y-108101655D01*
G37*
D14*
X149125000Y-109000000D03*
D12*
G36*
X149502443Y-112101655D02*
G01*
X149535812Y-112106605D01*
X149568535Y-112114802D01*
X149600297Y-112126166D01*
X149630793Y-112140590D01*
X149659727Y-112157932D01*
X149686823Y-112178028D01*
X149711818Y-112200682D01*
X149734472Y-112225677D01*
X149754568Y-112252773D01*
X149771910Y-112281707D01*
X149786334Y-112312203D01*
X149797698Y-112343965D01*
X149805895Y-112376688D01*
X149810845Y-112410057D01*
X149812500Y-112443750D01*
X149812500Y-113556250D01*
X149810845Y-113589943D01*
X149805895Y-113623312D01*
X149797698Y-113656035D01*
X149786334Y-113687797D01*
X149771910Y-113718293D01*
X149754568Y-113747227D01*
X149734472Y-113774323D01*
X149711818Y-113799318D01*
X149686823Y-113821972D01*
X149659727Y-113842068D01*
X149630793Y-113859410D01*
X149600297Y-113873834D01*
X149568535Y-113885198D01*
X149535812Y-113893395D01*
X149502443Y-113898345D01*
X149468750Y-113900000D01*
X148781250Y-113900000D01*
X148747557Y-113898345D01*
X148714188Y-113893395D01*
X148681465Y-113885198D01*
X148649703Y-113873834D01*
X148619207Y-113859410D01*
X148590273Y-113842068D01*
X148563177Y-113821972D01*
X148538182Y-113799318D01*
X148515528Y-113774323D01*
X148495432Y-113747227D01*
X148478090Y-113718293D01*
X148463666Y-113687797D01*
X148452302Y-113656035D01*
X148444105Y-113623312D01*
X148439155Y-113589943D01*
X148437500Y-113556250D01*
X148437500Y-112443750D01*
X148439155Y-112410057D01*
X148444105Y-112376688D01*
X148452302Y-112343965D01*
X148463666Y-112312203D01*
X148478090Y-112281707D01*
X148495432Y-112252773D01*
X148515528Y-112225677D01*
X148538182Y-112200682D01*
X148563177Y-112178028D01*
X148590273Y-112157932D01*
X148619207Y-112140590D01*
X148649703Y-112126166D01*
X148681465Y-112114802D01*
X148714188Y-112106605D01*
X148747557Y-112101655D01*
X148781250Y-112100000D01*
X149468750Y-112100000D01*
X149502443Y-112101655D01*
X149502443Y-112101655D01*
G37*
D14*
X149125000Y-113000000D03*
D12*
G36*
X151377443Y-112101655D02*
G01*
X151410812Y-112106605D01*
X151443535Y-112114802D01*
X151475297Y-112126166D01*
X151505793Y-112140590D01*
X151534727Y-112157932D01*
X151561823Y-112178028D01*
X151586818Y-112200682D01*
X151609472Y-112225677D01*
X151629568Y-112252773D01*
X151646910Y-112281707D01*
X151661334Y-112312203D01*
X151672698Y-112343965D01*
X151680895Y-112376688D01*
X151685845Y-112410057D01*
X151687500Y-112443750D01*
X151687500Y-113556250D01*
X151685845Y-113589943D01*
X151680895Y-113623312D01*
X151672698Y-113656035D01*
X151661334Y-113687797D01*
X151646910Y-113718293D01*
X151629568Y-113747227D01*
X151609472Y-113774323D01*
X151586818Y-113799318D01*
X151561823Y-113821972D01*
X151534727Y-113842068D01*
X151505793Y-113859410D01*
X151475297Y-113873834D01*
X151443535Y-113885198D01*
X151410812Y-113893395D01*
X151377443Y-113898345D01*
X151343750Y-113900000D01*
X150656250Y-113900000D01*
X150622557Y-113898345D01*
X150589188Y-113893395D01*
X150556465Y-113885198D01*
X150524703Y-113873834D01*
X150494207Y-113859410D01*
X150465273Y-113842068D01*
X150438177Y-113821972D01*
X150413182Y-113799318D01*
X150390528Y-113774323D01*
X150370432Y-113747227D01*
X150353090Y-113718293D01*
X150338666Y-113687797D01*
X150327302Y-113656035D01*
X150319105Y-113623312D01*
X150314155Y-113589943D01*
X150312500Y-113556250D01*
X150312500Y-112443750D01*
X150314155Y-112410057D01*
X150319105Y-112376688D01*
X150327302Y-112343965D01*
X150338666Y-112312203D01*
X150353090Y-112281707D01*
X150370432Y-112252773D01*
X150390528Y-112225677D01*
X150413182Y-112200682D01*
X150438177Y-112178028D01*
X150465273Y-112157932D01*
X150494207Y-112140590D01*
X150524703Y-112126166D01*
X150556465Y-112114802D01*
X150589188Y-112106605D01*
X150622557Y-112101655D01*
X150656250Y-112100000D01*
X151343750Y-112100000D01*
X151377443Y-112101655D01*
X151377443Y-112101655D01*
G37*
D14*
X151000000Y-113000000D03*
D12*
G36*
X105877443Y-74601655D02*
G01*
X105910812Y-74606605D01*
X105943535Y-74614802D01*
X105975297Y-74626166D01*
X106005793Y-74640590D01*
X106034727Y-74657932D01*
X106061823Y-74678028D01*
X106086818Y-74700682D01*
X106109472Y-74725677D01*
X106129568Y-74752773D01*
X106146910Y-74781707D01*
X106161334Y-74812203D01*
X106172698Y-74843965D01*
X106180895Y-74876688D01*
X106185845Y-74910057D01*
X106187500Y-74943750D01*
X106187500Y-76056250D01*
X106185845Y-76089943D01*
X106180895Y-76123312D01*
X106172698Y-76156035D01*
X106161334Y-76187797D01*
X106146910Y-76218293D01*
X106129568Y-76247227D01*
X106109472Y-76274323D01*
X106086818Y-76299318D01*
X106061823Y-76321972D01*
X106034727Y-76342068D01*
X106005793Y-76359410D01*
X105975297Y-76373834D01*
X105943535Y-76385198D01*
X105910812Y-76393395D01*
X105877443Y-76398345D01*
X105843750Y-76400000D01*
X105156250Y-76400000D01*
X105122557Y-76398345D01*
X105089188Y-76393395D01*
X105056465Y-76385198D01*
X105024703Y-76373834D01*
X104994207Y-76359410D01*
X104965273Y-76342068D01*
X104938177Y-76321972D01*
X104913182Y-76299318D01*
X104890528Y-76274323D01*
X104870432Y-76247227D01*
X104853090Y-76218293D01*
X104838666Y-76187797D01*
X104827302Y-76156035D01*
X104819105Y-76123312D01*
X104814155Y-76089943D01*
X104812500Y-76056250D01*
X104812500Y-74943750D01*
X104814155Y-74910057D01*
X104819105Y-74876688D01*
X104827302Y-74843965D01*
X104838666Y-74812203D01*
X104853090Y-74781707D01*
X104870432Y-74752773D01*
X104890528Y-74725677D01*
X104913182Y-74700682D01*
X104938177Y-74678028D01*
X104965273Y-74657932D01*
X104994207Y-74640590D01*
X105024703Y-74626166D01*
X105056465Y-74614802D01*
X105089188Y-74606605D01*
X105122557Y-74601655D01*
X105156250Y-74600000D01*
X105843750Y-74600000D01*
X105877443Y-74601655D01*
X105877443Y-74601655D01*
G37*
D14*
X105500000Y-75500000D03*
D12*
G36*
X107752443Y-74601655D02*
G01*
X107785812Y-74606605D01*
X107818535Y-74614802D01*
X107850297Y-74626166D01*
X107880793Y-74640590D01*
X107909727Y-74657932D01*
X107936823Y-74678028D01*
X107961818Y-74700682D01*
X107984472Y-74725677D01*
X108004568Y-74752773D01*
X108021910Y-74781707D01*
X108036334Y-74812203D01*
X108047698Y-74843965D01*
X108055895Y-74876688D01*
X108060845Y-74910057D01*
X108062500Y-74943750D01*
X108062500Y-76056250D01*
X108060845Y-76089943D01*
X108055895Y-76123312D01*
X108047698Y-76156035D01*
X108036334Y-76187797D01*
X108021910Y-76218293D01*
X108004568Y-76247227D01*
X107984472Y-76274323D01*
X107961818Y-76299318D01*
X107936823Y-76321972D01*
X107909727Y-76342068D01*
X107880793Y-76359410D01*
X107850297Y-76373834D01*
X107818535Y-76385198D01*
X107785812Y-76393395D01*
X107752443Y-76398345D01*
X107718750Y-76400000D01*
X107031250Y-76400000D01*
X106997557Y-76398345D01*
X106964188Y-76393395D01*
X106931465Y-76385198D01*
X106899703Y-76373834D01*
X106869207Y-76359410D01*
X106840273Y-76342068D01*
X106813177Y-76321972D01*
X106788182Y-76299318D01*
X106765528Y-76274323D01*
X106745432Y-76247227D01*
X106728090Y-76218293D01*
X106713666Y-76187797D01*
X106702302Y-76156035D01*
X106694105Y-76123312D01*
X106689155Y-76089943D01*
X106687500Y-76056250D01*
X106687500Y-74943750D01*
X106689155Y-74910057D01*
X106694105Y-74876688D01*
X106702302Y-74843965D01*
X106713666Y-74812203D01*
X106728090Y-74781707D01*
X106745432Y-74752773D01*
X106765528Y-74725677D01*
X106788182Y-74700682D01*
X106813177Y-74678028D01*
X106840273Y-74657932D01*
X106869207Y-74640590D01*
X106899703Y-74626166D01*
X106931465Y-74614802D01*
X106964188Y-74606605D01*
X106997557Y-74601655D01*
X107031250Y-74600000D01*
X107718750Y-74600000D01*
X107752443Y-74601655D01*
X107752443Y-74601655D01*
G37*
D14*
X107375000Y-75500000D03*
D25*
X152000000Y-92100000D03*
X152000000Y-84500000D03*
X149700000Y-84490000D03*
X149700000Y-92100000D03*
D26*
X148725000Y-90550000D03*
X148725000Y-89050000D03*
X148725000Y-86050000D03*
D27*
X150850000Y-86800000D03*
X150850000Y-89800000D03*
X110098497Y-82485724D03*
X112817421Y-81217870D03*
X112599088Y-78975002D03*
D12*
G36*
X112358648Y-79997408D02*
G01*
X111661328Y-78502000D01*
X112839528Y-77952596D01*
X113536848Y-79448004D01*
X112358648Y-79997408D01*
X112358648Y-79997408D01*
G37*
D27*
X109880164Y-80242857D03*
D12*
G36*
X109639724Y-81265263D02*
G01*
X108942404Y-79769855D01*
X110120604Y-79220451D01*
X110817924Y-80715859D01*
X109639724Y-81265263D01*
X109639724Y-81265263D01*
G37*
D27*
X108520703Y-80876784D03*
D12*
G36*
X108280263Y-81899190D02*
G01*
X107582943Y-80403782D01*
X108761143Y-79854378D01*
X109458463Y-81349786D01*
X108280263Y-81899190D01*
X108280263Y-81899190D01*
G37*
D28*
X107527978Y-82415492D03*
D12*
G36*
X107258895Y-83258163D02*
G01*
X106709491Y-82079963D01*
X107797061Y-81572821D01*
X108346465Y-82751021D01*
X107258895Y-83258163D01*
X107258895Y-83258163D01*
G37*
D28*
X114424981Y-79199367D03*
D12*
G36*
X114155898Y-80042038D02*
G01*
X113606494Y-78863838D01*
X114694064Y-78356696D01*
X115243468Y-79534896D01*
X114155898Y-80042038D01*
X114155898Y-80042038D01*
G37*
D28*
X115387940Y-81288102D03*
D12*
G36*
X115118857Y-82130773D02*
G01*
X114569453Y-80952573D01*
X115657023Y-80445431D01*
X116206427Y-81623631D01*
X115118857Y-82130773D01*
X115118857Y-82130773D01*
G37*
D28*
X108500000Y-84500000D03*
D12*
G36*
X108230917Y-85342671D02*
G01*
X107681513Y-84164471D01*
X108769083Y-83657329D01*
X109318487Y-84835529D01*
X108230917Y-85342671D01*
X108230917Y-85342671D01*
G37*
D29*
X149550000Y-104925000D03*
X149550000Y-104275000D03*
X149550000Y-103625000D03*
X149550000Y-102975000D03*
X149550000Y-102325000D03*
X149550000Y-101675000D03*
X149550000Y-101025000D03*
X149550000Y-100375000D03*
X149550000Y-99725000D03*
X149550000Y-99075000D03*
X155450000Y-99075000D03*
X155450000Y-99725000D03*
X155450000Y-100375000D03*
X155450000Y-101025000D03*
X155450000Y-101675000D03*
X155450000Y-102325000D03*
X155450000Y-102975000D03*
X155450000Y-103625000D03*
X155450000Y-104275000D03*
X155450000Y-104925000D03*
D30*
X134200000Y-74700000D03*
D31*
X134200000Y-81000000D03*
X131900000Y-81000000D03*
X136500000Y-81000000D03*
D12*
G36*
X122642079Y-75751404D02*
G01*
X122670375Y-75755601D01*
X122698124Y-75762552D01*
X122725057Y-75772189D01*
X122750916Y-75784419D01*
X122775452Y-75799125D01*
X122798429Y-75816166D01*
X122819624Y-75835376D01*
X122838834Y-75856571D01*
X122855875Y-75879548D01*
X122870581Y-75904084D01*
X122882811Y-75929943D01*
X122892448Y-75956876D01*
X122899399Y-75984625D01*
X122903596Y-76012921D01*
X122905000Y-76041492D01*
X122905000Y-78958508D01*
X122903596Y-78987079D01*
X122899399Y-79015375D01*
X122892448Y-79043124D01*
X122882811Y-79070057D01*
X122870581Y-79095916D01*
X122855875Y-79120452D01*
X122838834Y-79143429D01*
X122819624Y-79164624D01*
X122798429Y-79183834D01*
X122775452Y-79200875D01*
X122750916Y-79215581D01*
X122725057Y-79227811D01*
X122698124Y-79237448D01*
X122670375Y-79244399D01*
X122642079Y-79248596D01*
X122613508Y-79250000D01*
X120386492Y-79250000D01*
X120357921Y-79248596D01*
X120329625Y-79244399D01*
X120301876Y-79237448D01*
X120274943Y-79227811D01*
X120249084Y-79215581D01*
X120224548Y-79200875D01*
X120201571Y-79183834D01*
X120180376Y-79164624D01*
X120161166Y-79143429D01*
X120144125Y-79120452D01*
X120129419Y-79095916D01*
X120117189Y-79070057D01*
X120107552Y-79043124D01*
X120100601Y-79015375D01*
X120096404Y-78987079D01*
X120095000Y-78958508D01*
X120095000Y-76041492D01*
X120096404Y-76012921D01*
X120100601Y-75984625D01*
X120107552Y-75956876D01*
X120117189Y-75929943D01*
X120129419Y-75904084D01*
X120144125Y-75879548D01*
X120161166Y-75856571D01*
X120180376Y-75835376D01*
X120201571Y-75816166D01*
X120224548Y-75799125D01*
X120249084Y-75784419D01*
X120274943Y-75772189D01*
X120301876Y-75762552D01*
X120329625Y-75755601D01*
X120357921Y-75751404D01*
X120386492Y-75750000D01*
X122613508Y-75750000D01*
X122642079Y-75751404D01*
X122642079Y-75751404D01*
G37*
D32*
X121500000Y-77500000D03*
D12*
G36*
X119624504Y-78906204D02*
G01*
X119648773Y-78909804D01*
X119672571Y-78915765D01*
X119695671Y-78924030D01*
X119717849Y-78934520D01*
X119738893Y-78947133D01*
X119758598Y-78961747D01*
X119776777Y-78978223D01*
X119793253Y-78996402D01*
X119807867Y-79016107D01*
X119820480Y-79037151D01*
X119830970Y-79059329D01*
X119839235Y-79082429D01*
X119845196Y-79106227D01*
X119848796Y-79130496D01*
X119850000Y-79155000D01*
X119850000Y-79655000D01*
X119848796Y-79679504D01*
X119845196Y-79703773D01*
X119839235Y-79727571D01*
X119830970Y-79750671D01*
X119820480Y-79772849D01*
X119807867Y-79793893D01*
X119793253Y-79813598D01*
X119776777Y-79831777D01*
X119758598Y-79848253D01*
X119738893Y-79862867D01*
X119717849Y-79875480D01*
X119695671Y-79885970D01*
X119672571Y-79894235D01*
X119648773Y-79900196D01*
X119624504Y-79903796D01*
X119600000Y-79905000D01*
X118100000Y-79905000D01*
X118075496Y-79903796D01*
X118051227Y-79900196D01*
X118027429Y-79894235D01*
X118004329Y-79885970D01*
X117982151Y-79875480D01*
X117961107Y-79862867D01*
X117941402Y-79848253D01*
X117923223Y-79831777D01*
X117906747Y-79813598D01*
X117892133Y-79793893D01*
X117879520Y-79772849D01*
X117869030Y-79750671D01*
X117860765Y-79727571D01*
X117854804Y-79703773D01*
X117851204Y-79679504D01*
X117850000Y-79655000D01*
X117850000Y-79155000D01*
X117851204Y-79130496D01*
X117854804Y-79106227D01*
X117860765Y-79082429D01*
X117869030Y-79059329D01*
X117879520Y-79037151D01*
X117892133Y-79016107D01*
X117906747Y-78996402D01*
X117923223Y-78978223D01*
X117941402Y-78961747D01*
X117961107Y-78947133D01*
X117982151Y-78934520D01*
X118004329Y-78924030D01*
X118027429Y-78915765D01*
X118051227Y-78909804D01*
X118075496Y-78906204D01*
X118100000Y-78905000D01*
X119600000Y-78905000D01*
X119624504Y-78906204D01*
X119624504Y-78906204D01*
G37*
D33*
X118850000Y-79405000D03*
D12*
G36*
X119624504Y-77636204D02*
G01*
X119648773Y-77639804D01*
X119672571Y-77645765D01*
X119695671Y-77654030D01*
X119717849Y-77664520D01*
X119738893Y-77677133D01*
X119758598Y-77691747D01*
X119776777Y-77708223D01*
X119793253Y-77726402D01*
X119807867Y-77746107D01*
X119820480Y-77767151D01*
X119830970Y-77789329D01*
X119839235Y-77812429D01*
X119845196Y-77836227D01*
X119848796Y-77860496D01*
X119850000Y-77885000D01*
X119850000Y-78385000D01*
X119848796Y-78409504D01*
X119845196Y-78433773D01*
X119839235Y-78457571D01*
X119830970Y-78480671D01*
X119820480Y-78502849D01*
X119807867Y-78523893D01*
X119793253Y-78543598D01*
X119776777Y-78561777D01*
X119758598Y-78578253D01*
X119738893Y-78592867D01*
X119717849Y-78605480D01*
X119695671Y-78615970D01*
X119672571Y-78624235D01*
X119648773Y-78630196D01*
X119624504Y-78633796D01*
X119600000Y-78635000D01*
X118100000Y-78635000D01*
X118075496Y-78633796D01*
X118051227Y-78630196D01*
X118027429Y-78624235D01*
X118004329Y-78615970D01*
X117982151Y-78605480D01*
X117961107Y-78592867D01*
X117941402Y-78578253D01*
X117923223Y-78561777D01*
X117906747Y-78543598D01*
X117892133Y-78523893D01*
X117879520Y-78502849D01*
X117869030Y-78480671D01*
X117860765Y-78457571D01*
X117854804Y-78433773D01*
X117851204Y-78409504D01*
X117850000Y-78385000D01*
X117850000Y-77885000D01*
X117851204Y-77860496D01*
X117854804Y-77836227D01*
X117860765Y-77812429D01*
X117869030Y-77789329D01*
X117879520Y-77767151D01*
X117892133Y-77746107D01*
X117906747Y-77726402D01*
X117923223Y-77708223D01*
X117941402Y-77691747D01*
X117961107Y-77677133D01*
X117982151Y-77664520D01*
X118004329Y-77654030D01*
X118027429Y-77645765D01*
X118051227Y-77639804D01*
X118075496Y-77636204D01*
X118100000Y-77635000D01*
X119600000Y-77635000D01*
X119624504Y-77636204D01*
X119624504Y-77636204D01*
G37*
D33*
X118850000Y-78135000D03*
D12*
G36*
X119624504Y-76366204D02*
G01*
X119648773Y-76369804D01*
X119672571Y-76375765D01*
X119695671Y-76384030D01*
X119717849Y-76394520D01*
X119738893Y-76407133D01*
X119758598Y-76421747D01*
X119776777Y-76438223D01*
X119793253Y-76456402D01*
X119807867Y-76476107D01*
X119820480Y-76497151D01*
X119830970Y-76519329D01*
X119839235Y-76542429D01*
X119845196Y-76566227D01*
X119848796Y-76590496D01*
X119850000Y-76615000D01*
X119850000Y-77115000D01*
X119848796Y-77139504D01*
X119845196Y-77163773D01*
X119839235Y-77187571D01*
X119830970Y-77210671D01*
X119820480Y-77232849D01*
X119807867Y-77253893D01*
X119793253Y-77273598D01*
X119776777Y-77291777D01*
X119758598Y-77308253D01*
X119738893Y-77322867D01*
X119717849Y-77335480D01*
X119695671Y-77345970D01*
X119672571Y-77354235D01*
X119648773Y-77360196D01*
X119624504Y-77363796D01*
X119600000Y-77365000D01*
X118100000Y-77365000D01*
X118075496Y-77363796D01*
X118051227Y-77360196D01*
X118027429Y-77354235D01*
X118004329Y-77345970D01*
X117982151Y-77335480D01*
X117961107Y-77322867D01*
X117941402Y-77308253D01*
X117923223Y-77291777D01*
X117906747Y-77273598D01*
X117892133Y-77253893D01*
X117879520Y-77232849D01*
X117869030Y-77210671D01*
X117860765Y-77187571D01*
X117854804Y-77163773D01*
X117851204Y-77139504D01*
X117850000Y-77115000D01*
X117850000Y-76615000D01*
X117851204Y-76590496D01*
X117854804Y-76566227D01*
X117860765Y-76542429D01*
X117869030Y-76519329D01*
X117879520Y-76497151D01*
X117892133Y-76476107D01*
X117906747Y-76456402D01*
X117923223Y-76438223D01*
X117941402Y-76421747D01*
X117961107Y-76407133D01*
X117982151Y-76394520D01*
X118004329Y-76384030D01*
X118027429Y-76375765D01*
X118051227Y-76369804D01*
X118075496Y-76366204D01*
X118100000Y-76365000D01*
X119600000Y-76365000D01*
X119624504Y-76366204D01*
X119624504Y-76366204D01*
G37*
D33*
X118850000Y-76865000D03*
D12*
G36*
X119624504Y-75096204D02*
G01*
X119648773Y-75099804D01*
X119672571Y-75105765D01*
X119695671Y-75114030D01*
X119717849Y-75124520D01*
X119738893Y-75137133D01*
X119758598Y-75151747D01*
X119776777Y-75168223D01*
X119793253Y-75186402D01*
X119807867Y-75206107D01*
X119820480Y-75227151D01*
X119830970Y-75249329D01*
X119839235Y-75272429D01*
X119845196Y-75296227D01*
X119848796Y-75320496D01*
X119850000Y-75345000D01*
X119850000Y-75845000D01*
X119848796Y-75869504D01*
X119845196Y-75893773D01*
X119839235Y-75917571D01*
X119830970Y-75940671D01*
X119820480Y-75962849D01*
X119807867Y-75983893D01*
X119793253Y-76003598D01*
X119776777Y-76021777D01*
X119758598Y-76038253D01*
X119738893Y-76052867D01*
X119717849Y-76065480D01*
X119695671Y-76075970D01*
X119672571Y-76084235D01*
X119648773Y-76090196D01*
X119624504Y-76093796D01*
X119600000Y-76095000D01*
X118100000Y-76095000D01*
X118075496Y-76093796D01*
X118051227Y-76090196D01*
X118027429Y-76084235D01*
X118004329Y-76075970D01*
X117982151Y-76065480D01*
X117961107Y-76052867D01*
X117941402Y-76038253D01*
X117923223Y-76021777D01*
X117906747Y-76003598D01*
X117892133Y-75983893D01*
X117879520Y-75962849D01*
X117869030Y-75940671D01*
X117860765Y-75917571D01*
X117854804Y-75893773D01*
X117851204Y-75869504D01*
X117850000Y-75845000D01*
X117850000Y-75345000D01*
X117851204Y-75320496D01*
X117854804Y-75296227D01*
X117860765Y-75272429D01*
X117869030Y-75249329D01*
X117879520Y-75227151D01*
X117892133Y-75206107D01*
X117906747Y-75186402D01*
X117923223Y-75168223D01*
X117941402Y-75151747D01*
X117961107Y-75137133D01*
X117982151Y-75124520D01*
X118004329Y-75114030D01*
X118027429Y-75105765D01*
X118051227Y-75099804D01*
X118075496Y-75096204D01*
X118100000Y-75095000D01*
X119600000Y-75095000D01*
X119624504Y-75096204D01*
X119624504Y-75096204D01*
G37*
D33*
X118850000Y-75595000D03*
D12*
G36*
X124924504Y-75096204D02*
G01*
X124948773Y-75099804D01*
X124972571Y-75105765D01*
X124995671Y-75114030D01*
X125017849Y-75124520D01*
X125038893Y-75137133D01*
X125058598Y-75151747D01*
X125076777Y-75168223D01*
X125093253Y-75186402D01*
X125107867Y-75206107D01*
X125120480Y-75227151D01*
X125130970Y-75249329D01*
X125139235Y-75272429D01*
X125145196Y-75296227D01*
X125148796Y-75320496D01*
X125150000Y-75345000D01*
X125150000Y-75845000D01*
X125148796Y-75869504D01*
X125145196Y-75893773D01*
X125139235Y-75917571D01*
X125130970Y-75940671D01*
X125120480Y-75962849D01*
X125107867Y-75983893D01*
X125093253Y-76003598D01*
X125076777Y-76021777D01*
X125058598Y-76038253D01*
X125038893Y-76052867D01*
X125017849Y-76065480D01*
X124995671Y-76075970D01*
X124972571Y-76084235D01*
X124948773Y-76090196D01*
X124924504Y-76093796D01*
X124900000Y-76095000D01*
X123400000Y-76095000D01*
X123375496Y-76093796D01*
X123351227Y-76090196D01*
X123327429Y-76084235D01*
X123304329Y-76075970D01*
X123282151Y-76065480D01*
X123261107Y-76052867D01*
X123241402Y-76038253D01*
X123223223Y-76021777D01*
X123206747Y-76003598D01*
X123192133Y-75983893D01*
X123179520Y-75962849D01*
X123169030Y-75940671D01*
X123160765Y-75917571D01*
X123154804Y-75893773D01*
X123151204Y-75869504D01*
X123150000Y-75845000D01*
X123150000Y-75345000D01*
X123151204Y-75320496D01*
X123154804Y-75296227D01*
X123160765Y-75272429D01*
X123169030Y-75249329D01*
X123179520Y-75227151D01*
X123192133Y-75206107D01*
X123206747Y-75186402D01*
X123223223Y-75168223D01*
X123241402Y-75151747D01*
X123261107Y-75137133D01*
X123282151Y-75124520D01*
X123304329Y-75114030D01*
X123327429Y-75105765D01*
X123351227Y-75099804D01*
X123375496Y-75096204D01*
X123400000Y-75095000D01*
X124900000Y-75095000D01*
X124924504Y-75096204D01*
X124924504Y-75096204D01*
G37*
D33*
X124150000Y-75595000D03*
D12*
G36*
X124924504Y-76366204D02*
G01*
X124948773Y-76369804D01*
X124972571Y-76375765D01*
X124995671Y-76384030D01*
X125017849Y-76394520D01*
X125038893Y-76407133D01*
X125058598Y-76421747D01*
X125076777Y-76438223D01*
X125093253Y-76456402D01*
X125107867Y-76476107D01*
X125120480Y-76497151D01*
X125130970Y-76519329D01*
X125139235Y-76542429D01*
X125145196Y-76566227D01*
X125148796Y-76590496D01*
X125150000Y-76615000D01*
X125150000Y-77115000D01*
X125148796Y-77139504D01*
X125145196Y-77163773D01*
X125139235Y-77187571D01*
X125130970Y-77210671D01*
X125120480Y-77232849D01*
X125107867Y-77253893D01*
X125093253Y-77273598D01*
X125076777Y-77291777D01*
X125058598Y-77308253D01*
X125038893Y-77322867D01*
X125017849Y-77335480D01*
X124995671Y-77345970D01*
X124972571Y-77354235D01*
X124948773Y-77360196D01*
X124924504Y-77363796D01*
X124900000Y-77365000D01*
X123400000Y-77365000D01*
X123375496Y-77363796D01*
X123351227Y-77360196D01*
X123327429Y-77354235D01*
X123304329Y-77345970D01*
X123282151Y-77335480D01*
X123261107Y-77322867D01*
X123241402Y-77308253D01*
X123223223Y-77291777D01*
X123206747Y-77273598D01*
X123192133Y-77253893D01*
X123179520Y-77232849D01*
X123169030Y-77210671D01*
X123160765Y-77187571D01*
X123154804Y-77163773D01*
X123151204Y-77139504D01*
X123150000Y-77115000D01*
X123150000Y-76615000D01*
X123151204Y-76590496D01*
X123154804Y-76566227D01*
X123160765Y-76542429D01*
X123169030Y-76519329D01*
X123179520Y-76497151D01*
X123192133Y-76476107D01*
X123206747Y-76456402D01*
X123223223Y-76438223D01*
X123241402Y-76421747D01*
X123261107Y-76407133D01*
X123282151Y-76394520D01*
X123304329Y-76384030D01*
X123327429Y-76375765D01*
X123351227Y-76369804D01*
X123375496Y-76366204D01*
X123400000Y-76365000D01*
X124900000Y-76365000D01*
X124924504Y-76366204D01*
X124924504Y-76366204D01*
G37*
D33*
X124150000Y-76865000D03*
D12*
G36*
X124924504Y-77636204D02*
G01*
X124948773Y-77639804D01*
X124972571Y-77645765D01*
X124995671Y-77654030D01*
X125017849Y-77664520D01*
X125038893Y-77677133D01*
X125058598Y-77691747D01*
X125076777Y-77708223D01*
X125093253Y-77726402D01*
X125107867Y-77746107D01*
X125120480Y-77767151D01*
X125130970Y-77789329D01*
X125139235Y-77812429D01*
X125145196Y-77836227D01*
X125148796Y-77860496D01*
X125150000Y-77885000D01*
X125150000Y-78385000D01*
X125148796Y-78409504D01*
X125145196Y-78433773D01*
X125139235Y-78457571D01*
X125130970Y-78480671D01*
X125120480Y-78502849D01*
X125107867Y-78523893D01*
X125093253Y-78543598D01*
X125076777Y-78561777D01*
X125058598Y-78578253D01*
X125038893Y-78592867D01*
X125017849Y-78605480D01*
X124995671Y-78615970D01*
X124972571Y-78624235D01*
X124948773Y-78630196D01*
X124924504Y-78633796D01*
X124900000Y-78635000D01*
X123400000Y-78635000D01*
X123375496Y-78633796D01*
X123351227Y-78630196D01*
X123327429Y-78624235D01*
X123304329Y-78615970D01*
X123282151Y-78605480D01*
X123261107Y-78592867D01*
X123241402Y-78578253D01*
X123223223Y-78561777D01*
X123206747Y-78543598D01*
X123192133Y-78523893D01*
X123179520Y-78502849D01*
X123169030Y-78480671D01*
X123160765Y-78457571D01*
X123154804Y-78433773D01*
X123151204Y-78409504D01*
X123150000Y-78385000D01*
X123150000Y-77885000D01*
X123151204Y-77860496D01*
X123154804Y-77836227D01*
X123160765Y-77812429D01*
X123169030Y-77789329D01*
X123179520Y-77767151D01*
X123192133Y-77746107D01*
X123206747Y-77726402D01*
X123223223Y-77708223D01*
X123241402Y-77691747D01*
X123261107Y-77677133D01*
X123282151Y-77664520D01*
X123304329Y-77654030D01*
X123327429Y-77645765D01*
X123351227Y-77639804D01*
X123375496Y-77636204D01*
X123400000Y-77635000D01*
X124900000Y-77635000D01*
X124924504Y-77636204D01*
X124924504Y-77636204D01*
G37*
D33*
X124150000Y-78135000D03*
D12*
G36*
X124924504Y-78906204D02*
G01*
X124948773Y-78909804D01*
X124972571Y-78915765D01*
X124995671Y-78924030D01*
X125017849Y-78934520D01*
X125038893Y-78947133D01*
X125058598Y-78961747D01*
X125076777Y-78978223D01*
X125093253Y-78996402D01*
X125107867Y-79016107D01*
X125120480Y-79037151D01*
X125130970Y-79059329D01*
X125139235Y-79082429D01*
X125145196Y-79106227D01*
X125148796Y-79130496D01*
X125150000Y-79155000D01*
X125150000Y-79655000D01*
X125148796Y-79679504D01*
X125145196Y-79703773D01*
X125139235Y-79727571D01*
X125130970Y-79750671D01*
X125120480Y-79772849D01*
X125107867Y-79793893D01*
X125093253Y-79813598D01*
X125076777Y-79831777D01*
X125058598Y-79848253D01*
X125038893Y-79862867D01*
X125017849Y-79875480D01*
X124995671Y-79885970D01*
X124972571Y-79894235D01*
X124948773Y-79900196D01*
X124924504Y-79903796D01*
X124900000Y-79905000D01*
X123400000Y-79905000D01*
X123375496Y-79903796D01*
X123351227Y-79900196D01*
X123327429Y-79894235D01*
X123304329Y-79885970D01*
X123282151Y-79875480D01*
X123261107Y-79862867D01*
X123241402Y-79848253D01*
X123223223Y-79831777D01*
X123206747Y-79813598D01*
X123192133Y-79793893D01*
X123179520Y-79772849D01*
X123169030Y-79750671D01*
X123160765Y-79727571D01*
X123154804Y-79703773D01*
X123151204Y-79679504D01*
X123150000Y-79655000D01*
X123150000Y-79155000D01*
X123151204Y-79130496D01*
X123154804Y-79106227D01*
X123160765Y-79082429D01*
X123169030Y-79059329D01*
X123179520Y-79037151D01*
X123192133Y-79016107D01*
X123206747Y-78996402D01*
X123223223Y-78978223D01*
X123241402Y-78961747D01*
X123261107Y-78947133D01*
X123282151Y-78934520D01*
X123304329Y-78924030D01*
X123327429Y-78915765D01*
X123351227Y-78909804D01*
X123375496Y-78906204D01*
X123400000Y-78905000D01*
X124900000Y-78905000D01*
X124924504Y-78906204D01*
X124924504Y-78906204D01*
G37*
D33*
X124150000Y-79405000D03*
D34*
X143930000Y-114740000D03*
X142660000Y-114740000D03*
X141390000Y-114740000D03*
X140120000Y-114740000D03*
X138850000Y-114740000D03*
X137580000Y-114740000D03*
X136310000Y-114740000D03*
X135040000Y-114740000D03*
D35*
X146190000Y-103230000D03*
X146190000Y-104500000D03*
X146190000Y-105770000D03*
X146190000Y-107040000D03*
X146190000Y-108310000D03*
X146190000Y-109580000D03*
X146190000Y-110850000D03*
X146190000Y-112120000D03*
D34*
X135040000Y-100640000D03*
X136310000Y-100640000D03*
X137580000Y-100640000D03*
X138850000Y-100640000D03*
X140120000Y-100640000D03*
X141390000Y-100640000D03*
X142660000Y-100640000D03*
X143930000Y-100640000D03*
M02*
