G04 #@! TF.GenerationSoftware,KiCad,Pcbnew,5.1.2*
G04 #@! TF.CreationDate,2019-08-23T11:00:22-05:00*
G04 #@! TF.ProjectId,dragos,64726167-6f73-42e6-9b69-6361645f7063,rev?*
G04 #@! TF.SameCoordinates,Original*
G04 #@! TF.FileFunction,Legend,Bot*
G04 #@! TF.FilePolarity,Positive*
%FSLAX46Y46*%
G04 Gerber Fmt 4.6, Leading zero omitted, Abs format (unit mm)*
G04 Created by KiCad (PCBNEW 5.1.2) date 2019-08-23 11:00:22*
%MOMM*%
%LPD*%
G04 APERTURE LIST*
%ADD10C,0.120000*%
%ADD11C,0.150000*%
G04 APERTURE END LIST*
D10*
X123326951Y-70344277D02*
X138837673Y-67609318D01*
X138837673Y-67609318D02*
X138012844Y-62931481D01*
X138012844Y-62931481D02*
X122502122Y-65666440D01*
X122502122Y-65666440D02*
X123326951Y-70344277D01*
X123326951Y-70344277D02*
X123066479Y-68867065D01*
X123066479Y-68867065D02*
X122327873Y-68997301D01*
X122327873Y-68997301D02*
X122067401Y-67520090D01*
X122067401Y-67520090D02*
X122806007Y-67389853D01*
X119663064Y-69721036D02*
X119315767Y-67751420D01*
X118504608Y-68909876D02*
X120474223Y-68562580D01*
X141328834Y-65900776D02*
X140981538Y-63931160D01*
X163803922Y-106210000D02*
X164321078Y-106210000D01*
X163803922Y-104790000D02*
X164321078Y-104790000D01*
X159303922Y-104790000D02*
X159821078Y-104790000D01*
X159303922Y-106210000D02*
X159821078Y-106210000D01*
X159303922Y-103210000D02*
X159821078Y-103210000D01*
X159303922Y-101790000D02*
X159821078Y-101790000D01*
X142803922Y-96790000D02*
X143321078Y-96790000D01*
X142803922Y-98210000D02*
X143321078Y-98210000D01*
X150303922Y-96710000D02*
X150821078Y-96710000D01*
X150303922Y-95290000D02*
X150821078Y-95290000D01*
X127178922Y-79290000D02*
X127696078Y-79290000D01*
X127178922Y-80710000D02*
X127696078Y-80710000D01*
X127303922Y-76710000D02*
X127821078Y-76710000D01*
X127303922Y-75290000D02*
X127821078Y-75290000D01*
X127803922Y-83790000D02*
X128321078Y-83790000D01*
X127803922Y-85210000D02*
X128321078Y-85210000D01*
X132303922Y-85210000D02*
X132821078Y-85210000D01*
X132303922Y-83790000D02*
X132821078Y-83790000D01*
X136170000Y-92630000D02*
X138830000Y-92630000D01*
X136170000Y-95230000D02*
X136170000Y-92630000D01*
X138830000Y-95230000D02*
X138830000Y-92630000D01*
X136170000Y-95230000D02*
X138830000Y-95230000D01*
X136170000Y-96500000D02*
X136170000Y-97830000D01*
X136170000Y-97830000D02*
X137500000Y-97830000D01*
X172170000Y-112010000D02*
X174830000Y-112010000D01*
X172170000Y-122230000D02*
X172170000Y-112010000D01*
X174830000Y-122230000D02*
X174830000Y-112010000D01*
X172170000Y-122230000D02*
X174830000Y-122230000D01*
X172170000Y-123500000D02*
X172170000Y-124830000D01*
X172170000Y-124830000D02*
X173500000Y-124830000D01*
X141320135Y-119350800D02*
X145579725Y-116368202D01*
X147182086Y-127722534D02*
X141320135Y-119350800D01*
X152932975Y-126869731D02*
X145579725Y-116368202D01*
X147182086Y-127722534D02*
X149311881Y-126231235D01*
X149311881Y-126231235D02*
X150803180Y-128361030D01*
X150803180Y-128361030D02*
X152932975Y-126869731D01*
X147910528Y-128762857D02*
X148673384Y-129852329D01*
X148673384Y-129852329D02*
X149762857Y-129089472D01*
X176170000Y-114630000D02*
X178830000Y-114630000D01*
X176170000Y-122310000D02*
X176170000Y-114630000D01*
X178830000Y-122310000D02*
X178830000Y-114630000D01*
X176170000Y-122310000D02*
X178830000Y-122310000D01*
X176170000Y-123580000D02*
X176170000Y-124910000D01*
X176170000Y-124910000D02*
X177500000Y-124910000D01*
X153465000Y-115060000D02*
X153465000Y-115600000D01*
X153465000Y-115600000D02*
X152440000Y-115600000D01*
X152440000Y-115600000D02*
X152440000Y-116710000D01*
X152440000Y-116710000D02*
X170580000Y-116710000D01*
X170580000Y-116710000D02*
X170580000Y-115600000D01*
X170580000Y-115600000D02*
X169555000Y-115600000D01*
X169555000Y-115600000D02*
X169555000Y-115060000D01*
X167400000Y-111090000D02*
X166575000Y-111090000D01*
X166575000Y-111090000D02*
X166575000Y-109290000D01*
X156445000Y-111090000D02*
X155620000Y-111090000D01*
X169803922Y-127710000D02*
X170321078Y-127710000D01*
X169803922Y-126290000D02*
X170321078Y-126290000D01*
X169803922Y-130290000D02*
X170321078Y-130290000D01*
X169803922Y-131710000D02*
X170321078Y-131710000D01*
X151652199Y-81343709D02*
X152017883Y-80978025D01*
X152656291Y-82347801D02*
X153021975Y-81982117D01*
X114678922Y-76210000D02*
X115196078Y-76210000D01*
X114678922Y-74790000D02*
X115196078Y-74790000D01*
X110303922Y-74790000D02*
X110821078Y-74790000D01*
X110303922Y-76210000D02*
X110821078Y-76210000D01*
X149803922Y-108290000D02*
X150321078Y-108290000D01*
X149803922Y-109710000D02*
X150321078Y-109710000D01*
X149803922Y-113710000D02*
X150321078Y-113710000D01*
X149803922Y-112290000D02*
X150321078Y-112290000D01*
X106178922Y-76210000D02*
X106696078Y-76210000D01*
X106178922Y-74790000D02*
X106696078Y-74790000D01*
D11*
X150275000Y-98550000D02*
X154725000Y-98550000D01*
X148750000Y-105450000D02*
X154725000Y-105450000D01*
D10*
X130790000Y-75940000D02*
X132050000Y-75940000D01*
X137610000Y-75940000D02*
X136350000Y-75940000D01*
X130790000Y-79700000D02*
X130790000Y-75940000D01*
X137610000Y-81950000D02*
X137610000Y-75940000D01*
X118050000Y-80060000D02*
X123450000Y-80060000D01*
X119550000Y-74940000D02*
X123450000Y-74940000D01*
X146310000Y-100520000D02*
X144740000Y-100520000D01*
X146310000Y-100520000D02*
X146310000Y-102410000D01*
X146310000Y-112970000D02*
X146310000Y-114860000D01*
X146310000Y-114860000D02*
X144740000Y-114860000D01*
X134230000Y-114860000D02*
X123070000Y-114860000D01*
X123070000Y-114860000D02*
X123070000Y-100520000D01*
X123070000Y-100520000D02*
X134230000Y-100520000D01*
X134230000Y-100520000D02*
X134230000Y-99920000D01*
D11*
X121728602Y-63953305D02*
X121596184Y-64025008D01*
X121557557Y-64080172D01*
X121527199Y-64182232D01*
X121552006Y-64322919D01*
X121615440Y-64408442D01*
X121670604Y-64447068D01*
X121772665Y-64477426D01*
X122147829Y-64411274D01*
X121974181Y-63426466D01*
X121645912Y-63484349D01*
X121560390Y-63547783D01*
X121521763Y-63602947D01*
X121491405Y-63705007D01*
X121507943Y-63798799D01*
X121571377Y-63884321D01*
X121626541Y-63922948D01*
X121728602Y-63953305D01*
X122056871Y-63895423D01*
X121130060Y-63575308D02*
X120567313Y-63674535D01*
X121022335Y-64609729D02*
X120848687Y-63624921D01*
X119896840Y-64808184D02*
X120459588Y-64708957D01*
X120178214Y-64758571D02*
X120004566Y-63773763D01*
X120123164Y-63897912D01*
X120233493Y-63975165D01*
X120335553Y-64005523D01*
X164229166Y-107507142D02*
X164276785Y-107554761D01*
X164419642Y-107602380D01*
X164514880Y-107602380D01*
X164657738Y-107554761D01*
X164752976Y-107459523D01*
X164800595Y-107364285D01*
X164848214Y-107173809D01*
X164848214Y-107030952D01*
X164800595Y-106840476D01*
X164752976Y-106745238D01*
X164657738Y-106650000D01*
X164514880Y-106602380D01*
X164419642Y-106602380D01*
X164276785Y-106650000D01*
X164229166Y-106697619D01*
X163895833Y-106602380D02*
X163276785Y-106602380D01*
X163610119Y-106983333D01*
X163467261Y-106983333D01*
X163372023Y-107030952D01*
X163324404Y-107078571D01*
X163276785Y-107173809D01*
X163276785Y-107411904D01*
X163324404Y-107507142D01*
X163372023Y-107554761D01*
X163467261Y-107602380D01*
X163752976Y-107602380D01*
X163848214Y-107554761D01*
X163895833Y-107507142D01*
X159729166Y-107507142D02*
X159776785Y-107554761D01*
X159919642Y-107602380D01*
X160014880Y-107602380D01*
X160157738Y-107554761D01*
X160252976Y-107459523D01*
X160300595Y-107364285D01*
X160348214Y-107173809D01*
X160348214Y-107030952D01*
X160300595Y-106840476D01*
X160252976Y-106745238D01*
X160157738Y-106650000D01*
X160014880Y-106602380D01*
X159919642Y-106602380D01*
X159776785Y-106650000D01*
X159729166Y-106697619D01*
X158872023Y-106935714D02*
X158872023Y-107602380D01*
X159110119Y-106554761D02*
X159348214Y-107269047D01*
X158729166Y-107269047D01*
X159729166Y-104507142D02*
X159776785Y-104554761D01*
X159919642Y-104602380D01*
X160014880Y-104602380D01*
X160157738Y-104554761D01*
X160252976Y-104459523D01*
X160300595Y-104364285D01*
X160348214Y-104173809D01*
X160348214Y-104030952D01*
X160300595Y-103840476D01*
X160252976Y-103745238D01*
X160157738Y-103650000D01*
X160014880Y-103602380D01*
X159919642Y-103602380D01*
X159776785Y-103650000D01*
X159729166Y-103697619D01*
X158824404Y-103602380D02*
X159300595Y-103602380D01*
X159348214Y-104078571D01*
X159300595Y-104030952D01*
X159205357Y-103983333D01*
X158967261Y-103983333D01*
X158872023Y-104030952D01*
X158824404Y-104078571D01*
X158776785Y-104173809D01*
X158776785Y-104411904D01*
X158824404Y-104507142D01*
X158872023Y-104554761D01*
X158967261Y-104602380D01*
X159205357Y-104602380D01*
X159300595Y-104554761D01*
X159348214Y-104507142D01*
X143229166Y-99507142D02*
X143276785Y-99554761D01*
X143419642Y-99602380D01*
X143514880Y-99602380D01*
X143657738Y-99554761D01*
X143752976Y-99459523D01*
X143800595Y-99364285D01*
X143848214Y-99173809D01*
X143848214Y-99030952D01*
X143800595Y-98840476D01*
X143752976Y-98745238D01*
X143657738Y-98650000D01*
X143514880Y-98602380D01*
X143419642Y-98602380D01*
X143276785Y-98650000D01*
X143229166Y-98697619D01*
X142372023Y-98602380D02*
X142562500Y-98602380D01*
X142657738Y-98650000D01*
X142705357Y-98697619D01*
X142800595Y-98840476D01*
X142848214Y-99030952D01*
X142848214Y-99411904D01*
X142800595Y-99507142D01*
X142752976Y-99554761D01*
X142657738Y-99602380D01*
X142467261Y-99602380D01*
X142372023Y-99554761D01*
X142324404Y-99507142D01*
X142276785Y-99411904D01*
X142276785Y-99173809D01*
X142324404Y-99078571D01*
X142372023Y-99030952D01*
X142467261Y-98983333D01*
X142657738Y-98983333D01*
X142752976Y-99030952D01*
X142800595Y-99078571D01*
X142848214Y-99173809D01*
X150729166Y-98007142D02*
X150776785Y-98054761D01*
X150919642Y-98102380D01*
X151014880Y-98102380D01*
X151157738Y-98054761D01*
X151252976Y-97959523D01*
X151300595Y-97864285D01*
X151348214Y-97673809D01*
X151348214Y-97530952D01*
X151300595Y-97340476D01*
X151252976Y-97245238D01*
X151157738Y-97150000D01*
X151014880Y-97102380D01*
X150919642Y-97102380D01*
X150776785Y-97150000D01*
X150729166Y-97197619D01*
X150395833Y-97102380D02*
X149729166Y-97102380D01*
X150157738Y-98102380D01*
X127604166Y-82007142D02*
X127651785Y-82054761D01*
X127794642Y-82102380D01*
X127889880Y-82102380D01*
X128032738Y-82054761D01*
X128127976Y-81959523D01*
X128175595Y-81864285D01*
X128223214Y-81673809D01*
X128223214Y-81530952D01*
X128175595Y-81340476D01*
X128127976Y-81245238D01*
X128032738Y-81150000D01*
X127889880Y-81102380D01*
X127794642Y-81102380D01*
X127651785Y-81150000D01*
X127604166Y-81197619D01*
X127032738Y-81530952D02*
X127127976Y-81483333D01*
X127175595Y-81435714D01*
X127223214Y-81340476D01*
X127223214Y-81292857D01*
X127175595Y-81197619D01*
X127127976Y-81150000D01*
X127032738Y-81102380D01*
X126842261Y-81102380D01*
X126747023Y-81150000D01*
X126699404Y-81197619D01*
X126651785Y-81292857D01*
X126651785Y-81340476D01*
X126699404Y-81435714D01*
X126747023Y-81483333D01*
X126842261Y-81530952D01*
X127032738Y-81530952D01*
X127127976Y-81578571D01*
X127175595Y-81626190D01*
X127223214Y-81721428D01*
X127223214Y-81911904D01*
X127175595Y-82007142D01*
X127127976Y-82054761D01*
X127032738Y-82102380D01*
X126842261Y-82102380D01*
X126747023Y-82054761D01*
X126699404Y-82007142D01*
X126651785Y-81911904D01*
X126651785Y-81721428D01*
X126699404Y-81626190D01*
X126747023Y-81578571D01*
X126842261Y-81530952D01*
X127729166Y-78007142D02*
X127776785Y-78054761D01*
X127919642Y-78102380D01*
X128014880Y-78102380D01*
X128157738Y-78054761D01*
X128252976Y-77959523D01*
X128300595Y-77864285D01*
X128348214Y-77673809D01*
X128348214Y-77530952D01*
X128300595Y-77340476D01*
X128252976Y-77245238D01*
X128157738Y-77150000D01*
X128014880Y-77102380D01*
X127919642Y-77102380D01*
X127776785Y-77150000D01*
X127729166Y-77197619D01*
X127252976Y-78102380D02*
X127062500Y-78102380D01*
X126967261Y-78054761D01*
X126919642Y-78007142D01*
X126824404Y-77864285D01*
X126776785Y-77673809D01*
X126776785Y-77292857D01*
X126824404Y-77197619D01*
X126872023Y-77150000D01*
X126967261Y-77102380D01*
X127157738Y-77102380D01*
X127252976Y-77150000D01*
X127300595Y-77197619D01*
X127348214Y-77292857D01*
X127348214Y-77530952D01*
X127300595Y-77626190D01*
X127252976Y-77673809D01*
X127157738Y-77721428D01*
X126967261Y-77721428D01*
X126872023Y-77673809D01*
X126824404Y-77626190D01*
X126776785Y-77530952D01*
X128705357Y-86507142D02*
X128752976Y-86554761D01*
X128895833Y-86602380D01*
X128991071Y-86602380D01*
X129133928Y-86554761D01*
X129229166Y-86459523D01*
X129276785Y-86364285D01*
X129324404Y-86173809D01*
X129324404Y-86030952D01*
X129276785Y-85840476D01*
X129229166Y-85745238D01*
X129133928Y-85650000D01*
X128991071Y-85602380D01*
X128895833Y-85602380D01*
X128752976Y-85650000D01*
X128705357Y-85697619D01*
X127752976Y-86602380D02*
X128324404Y-86602380D01*
X128038690Y-86602380D02*
X128038690Y-85602380D01*
X128133928Y-85745238D01*
X128229166Y-85840476D01*
X128324404Y-85888095D01*
X127133928Y-85602380D02*
X127038690Y-85602380D01*
X126943452Y-85650000D01*
X126895833Y-85697619D01*
X126848214Y-85792857D01*
X126800595Y-85983333D01*
X126800595Y-86221428D01*
X126848214Y-86411904D01*
X126895833Y-86507142D01*
X126943452Y-86554761D01*
X127038690Y-86602380D01*
X127133928Y-86602380D01*
X127229166Y-86554761D01*
X127276785Y-86507142D01*
X127324404Y-86411904D01*
X127372023Y-86221428D01*
X127372023Y-85983333D01*
X127324404Y-85792857D01*
X127276785Y-85697619D01*
X127229166Y-85650000D01*
X127133928Y-85602380D01*
X133205357Y-86507142D02*
X133252976Y-86554761D01*
X133395833Y-86602380D01*
X133491071Y-86602380D01*
X133633928Y-86554761D01*
X133729166Y-86459523D01*
X133776785Y-86364285D01*
X133824404Y-86173809D01*
X133824404Y-86030952D01*
X133776785Y-85840476D01*
X133729166Y-85745238D01*
X133633928Y-85650000D01*
X133491071Y-85602380D01*
X133395833Y-85602380D01*
X133252976Y-85650000D01*
X133205357Y-85697619D01*
X132252976Y-86602380D02*
X132824404Y-86602380D01*
X132538690Y-86602380D02*
X132538690Y-85602380D01*
X132633928Y-85745238D01*
X132729166Y-85840476D01*
X132824404Y-85888095D01*
X131300595Y-86602380D02*
X131872023Y-86602380D01*
X131586309Y-86602380D02*
X131586309Y-85602380D01*
X131681547Y-85745238D01*
X131776785Y-85840476D01*
X131872023Y-85888095D01*
X137833333Y-98282380D02*
X137833333Y-98996666D01*
X137880952Y-99139523D01*
X137976190Y-99234761D01*
X138119047Y-99282380D01*
X138214285Y-99282380D01*
X136833333Y-99282380D02*
X137404761Y-99282380D01*
X137119047Y-99282380D02*
X137119047Y-98282380D01*
X137214285Y-98425238D01*
X137309523Y-98520476D01*
X137404761Y-98568095D01*
X173833333Y-125282380D02*
X173833333Y-125996666D01*
X173880952Y-126139523D01*
X173976190Y-126234761D01*
X174119047Y-126282380D01*
X174214285Y-126282380D01*
X173404761Y-125377619D02*
X173357142Y-125330000D01*
X173261904Y-125282380D01*
X173023809Y-125282380D01*
X172928571Y-125330000D01*
X172880952Y-125377619D01*
X172833333Y-125472857D01*
X172833333Y-125568095D01*
X172880952Y-125710952D01*
X173452380Y-126282380D01*
X172833333Y-126282380D01*
X151335705Y-128540406D02*
X151745402Y-129125515D01*
X151866349Y-129215223D01*
X151998990Y-129238611D01*
X152143325Y-129195679D01*
X152221339Y-129141053D01*
X151023647Y-128758911D02*
X150516553Y-129113983D01*
X151008109Y-129234848D01*
X150891087Y-129316788D01*
X150840386Y-129410421D01*
X150828692Y-129476742D01*
X150844311Y-129582069D01*
X150980877Y-129777106D01*
X151074510Y-129827807D01*
X151140831Y-129839501D01*
X151246158Y-129823882D01*
X151480202Y-129660003D01*
X151530903Y-129566369D01*
X151542597Y-129500049D01*
X177833333Y-125362380D02*
X177833333Y-126076666D01*
X177880952Y-126219523D01*
X177976190Y-126314761D01*
X178119047Y-126362380D01*
X178214285Y-126362380D01*
X176880952Y-125362380D02*
X177357142Y-125362380D01*
X177404761Y-125838571D01*
X177357142Y-125790952D01*
X177261904Y-125743333D01*
X177023809Y-125743333D01*
X176928571Y-125790952D01*
X176880952Y-125838571D01*
X176833333Y-125933809D01*
X176833333Y-126171904D01*
X176880952Y-126267142D01*
X176928571Y-126314761D01*
X177023809Y-126362380D01*
X177261904Y-126362380D01*
X177357142Y-126314761D01*
X177404761Y-126267142D01*
X161843333Y-107452380D02*
X161843333Y-108166666D01*
X161890952Y-108309523D01*
X161986190Y-108404761D01*
X162129047Y-108452380D01*
X162224285Y-108452380D01*
X160938571Y-107452380D02*
X161129047Y-107452380D01*
X161224285Y-107500000D01*
X161271904Y-107547619D01*
X161367142Y-107690476D01*
X161414761Y-107880952D01*
X161414761Y-108261904D01*
X161367142Y-108357142D01*
X161319523Y-108404761D01*
X161224285Y-108452380D01*
X161033809Y-108452380D01*
X160938571Y-108404761D01*
X160890952Y-108357142D01*
X160843333Y-108261904D01*
X160843333Y-108023809D01*
X160890952Y-107928571D01*
X160938571Y-107880952D01*
X161033809Y-107833333D01*
X161224285Y-107833333D01*
X161319523Y-107880952D01*
X161367142Y-107928571D01*
X161414761Y-108023809D01*
X155377380Y-133866666D02*
X156091666Y-133866666D01*
X156234523Y-133819047D01*
X156329761Y-133723809D01*
X156377380Y-133580952D01*
X156377380Y-133485714D01*
X155377380Y-134247619D02*
X155377380Y-134914285D01*
X156377380Y-134485714D01*
X170229166Y-129102380D02*
X170562500Y-128626190D01*
X170800595Y-129102380D02*
X170800595Y-128102380D01*
X170419642Y-128102380D01*
X170324404Y-128150000D01*
X170276785Y-128197619D01*
X170229166Y-128292857D01*
X170229166Y-128435714D01*
X170276785Y-128530952D01*
X170324404Y-128578571D01*
X170419642Y-128626190D01*
X170800595Y-128626190D01*
X169276785Y-129102380D02*
X169848214Y-129102380D01*
X169562500Y-129102380D02*
X169562500Y-128102380D01*
X169657738Y-128245238D01*
X169752976Y-128340476D01*
X169848214Y-128388095D01*
X170229166Y-133102380D02*
X170562500Y-132626190D01*
X170800595Y-133102380D02*
X170800595Y-132102380D01*
X170419642Y-132102380D01*
X170324404Y-132150000D01*
X170276785Y-132197619D01*
X170229166Y-132292857D01*
X170229166Y-132435714D01*
X170276785Y-132530952D01*
X170324404Y-132578571D01*
X170419642Y-132626190D01*
X170800595Y-132626190D01*
X169848214Y-132197619D02*
X169800595Y-132150000D01*
X169705357Y-132102380D01*
X169467261Y-132102380D01*
X169372023Y-132150000D01*
X169324404Y-132197619D01*
X169276785Y-132292857D01*
X169276785Y-132388095D01*
X169324404Y-132530952D01*
X169895833Y-133102380D01*
X169276785Y-133102380D01*
X153941545Y-83031669D02*
X153840530Y-82459249D01*
X154345606Y-82627608D02*
X153638500Y-81920501D01*
X153369125Y-82189875D01*
X153335454Y-82290890D01*
X153335454Y-82358234D01*
X153369125Y-82459249D01*
X153470141Y-82560264D01*
X153571156Y-82593936D01*
X153638500Y-82593936D01*
X153739515Y-82560264D01*
X154008889Y-82290890D01*
X152998736Y-82560264D02*
X152561003Y-82997997D01*
X153066080Y-83031669D01*
X152965064Y-83132684D01*
X152931393Y-83233700D01*
X152931393Y-83301043D01*
X152965064Y-83402058D01*
X153133423Y-83570417D01*
X153234438Y-83604089D01*
X153301782Y-83604089D01*
X153402797Y-83570417D01*
X153604828Y-83368387D01*
X153638500Y-83267371D01*
X153638500Y-83200028D01*
X115104166Y-77602380D02*
X115437500Y-77126190D01*
X115675595Y-77602380D02*
X115675595Y-76602380D01*
X115294642Y-76602380D01*
X115199404Y-76650000D01*
X115151785Y-76697619D01*
X115104166Y-76792857D01*
X115104166Y-76935714D01*
X115151785Y-77030952D01*
X115199404Y-77078571D01*
X115294642Y-77126190D01*
X115675595Y-77126190D01*
X114199404Y-76602380D02*
X114675595Y-76602380D01*
X114723214Y-77078571D01*
X114675595Y-77030952D01*
X114580357Y-76983333D01*
X114342261Y-76983333D01*
X114247023Y-77030952D01*
X114199404Y-77078571D01*
X114151785Y-77173809D01*
X114151785Y-77411904D01*
X114199404Y-77507142D01*
X114247023Y-77554761D01*
X114342261Y-77602380D01*
X114580357Y-77602380D01*
X114675595Y-77554761D01*
X114723214Y-77507142D01*
X110729166Y-77602380D02*
X111062500Y-77126190D01*
X111300595Y-77602380D02*
X111300595Y-76602380D01*
X110919642Y-76602380D01*
X110824404Y-76650000D01*
X110776785Y-76697619D01*
X110729166Y-76792857D01*
X110729166Y-76935714D01*
X110776785Y-77030952D01*
X110824404Y-77078571D01*
X110919642Y-77126190D01*
X111300595Y-77126190D01*
X109872023Y-76602380D02*
X110062500Y-76602380D01*
X110157738Y-76650000D01*
X110205357Y-76697619D01*
X110300595Y-76840476D01*
X110348214Y-77030952D01*
X110348214Y-77411904D01*
X110300595Y-77507142D01*
X110252976Y-77554761D01*
X110157738Y-77602380D01*
X109967261Y-77602380D01*
X109872023Y-77554761D01*
X109824404Y-77507142D01*
X109776785Y-77411904D01*
X109776785Y-77173809D01*
X109824404Y-77078571D01*
X109872023Y-77030952D01*
X109967261Y-76983333D01*
X110157738Y-76983333D01*
X110252976Y-77030952D01*
X110300595Y-77078571D01*
X110348214Y-77173809D01*
X150229166Y-111102380D02*
X150562500Y-110626190D01*
X150800595Y-111102380D02*
X150800595Y-110102380D01*
X150419642Y-110102380D01*
X150324404Y-110150000D01*
X150276785Y-110197619D01*
X150229166Y-110292857D01*
X150229166Y-110435714D01*
X150276785Y-110530952D01*
X150324404Y-110578571D01*
X150419642Y-110626190D01*
X150800595Y-110626190D01*
X149895833Y-110102380D02*
X149229166Y-110102380D01*
X149657738Y-111102380D01*
X150229166Y-115102380D02*
X150562500Y-114626190D01*
X150800595Y-115102380D02*
X150800595Y-114102380D01*
X150419642Y-114102380D01*
X150324404Y-114150000D01*
X150276785Y-114197619D01*
X150229166Y-114292857D01*
X150229166Y-114435714D01*
X150276785Y-114530952D01*
X150324404Y-114578571D01*
X150419642Y-114626190D01*
X150800595Y-114626190D01*
X149657738Y-114530952D02*
X149752976Y-114483333D01*
X149800595Y-114435714D01*
X149848214Y-114340476D01*
X149848214Y-114292857D01*
X149800595Y-114197619D01*
X149752976Y-114150000D01*
X149657738Y-114102380D01*
X149467261Y-114102380D01*
X149372023Y-114150000D01*
X149324404Y-114197619D01*
X149276785Y-114292857D01*
X149276785Y-114340476D01*
X149324404Y-114435714D01*
X149372023Y-114483333D01*
X149467261Y-114530952D01*
X149657738Y-114530952D01*
X149752976Y-114578571D01*
X149800595Y-114626190D01*
X149848214Y-114721428D01*
X149848214Y-114911904D01*
X149800595Y-115007142D01*
X149752976Y-115054761D01*
X149657738Y-115102380D01*
X149467261Y-115102380D01*
X149372023Y-115054761D01*
X149324404Y-115007142D01*
X149276785Y-114911904D01*
X149276785Y-114721428D01*
X149324404Y-114626190D01*
X149372023Y-114578571D01*
X149467261Y-114530952D01*
X106604166Y-77602380D02*
X106937500Y-77126190D01*
X107175595Y-77602380D02*
X107175595Y-76602380D01*
X106794642Y-76602380D01*
X106699404Y-76650000D01*
X106651785Y-76697619D01*
X106604166Y-76792857D01*
X106604166Y-76935714D01*
X106651785Y-77030952D01*
X106699404Y-77078571D01*
X106794642Y-77126190D01*
X107175595Y-77126190D01*
X106127976Y-77602380D02*
X105937500Y-77602380D01*
X105842261Y-77554761D01*
X105794642Y-77507142D01*
X105699404Y-77364285D01*
X105651785Y-77173809D01*
X105651785Y-76792857D01*
X105699404Y-76697619D01*
X105747023Y-76650000D01*
X105842261Y-76602380D01*
X106032738Y-76602380D01*
X106127976Y-76650000D01*
X106175595Y-76697619D01*
X106223214Y-76792857D01*
X106223214Y-77030952D01*
X106175595Y-77126190D01*
X106127976Y-77173809D01*
X106032738Y-77221428D01*
X105842261Y-77221428D01*
X105747023Y-77173809D01*
X105699404Y-77126190D01*
X105651785Y-77030952D01*
X147554761Y-89166666D02*
X147602380Y-89309523D01*
X147602380Y-89547619D01*
X147554761Y-89642857D01*
X147507142Y-89690476D01*
X147411904Y-89738095D01*
X147316666Y-89738095D01*
X147221428Y-89690476D01*
X147173809Y-89642857D01*
X147126190Y-89547619D01*
X147078571Y-89357142D01*
X147030952Y-89261904D01*
X146983333Y-89214285D01*
X146888095Y-89166666D01*
X146792857Y-89166666D01*
X146697619Y-89214285D01*
X146650000Y-89261904D01*
X146602380Y-89357142D01*
X146602380Y-89595238D01*
X146650000Y-89738095D01*
X146602380Y-90071428D02*
X147602380Y-90309523D01*
X146888095Y-90500000D01*
X147602380Y-90690476D01*
X146602380Y-90928571D01*
X146697619Y-91261904D02*
X146650000Y-91309523D01*
X146602380Y-91404761D01*
X146602380Y-91642857D01*
X146650000Y-91738095D01*
X146697619Y-91785714D01*
X146792857Y-91833333D01*
X146888095Y-91833333D01*
X147030952Y-91785714D01*
X147602380Y-91214285D01*
X147602380Y-91833333D01*
X109279864Y-79231565D02*
X109170516Y-79335097D01*
X108954728Y-79435720D01*
X108848289Y-79432812D01*
X108785006Y-79409779D01*
X108701599Y-79343589D01*
X108661350Y-79257274D01*
X108664258Y-79150834D01*
X108687291Y-79087552D01*
X108753481Y-79004145D01*
X108905987Y-78880489D01*
X108972177Y-78797082D01*
X108995210Y-78733800D01*
X108998118Y-78627360D01*
X108957869Y-78541045D01*
X108874462Y-78474855D01*
X108811180Y-78451822D01*
X108704740Y-78448914D01*
X108488952Y-78549537D01*
X108379605Y-78653069D01*
X108057377Y-78750784D02*
X108264208Y-79757715D01*
X107789708Y-79190851D01*
X107918948Y-79918713D01*
X107280542Y-79113028D01*
X107021597Y-79233776D02*
X106460549Y-79495397D01*
X106923649Y-79699784D01*
X106794177Y-79760159D01*
X106727986Y-79843565D01*
X106704954Y-79906848D01*
X106702045Y-80013287D01*
X106802669Y-80229075D01*
X106886076Y-80295265D01*
X106949358Y-80318298D01*
X107055798Y-80321206D01*
X107314743Y-80200458D01*
X107380933Y-80117051D01*
X107403966Y-80053769D01*
X153261904Y-105752380D02*
X153261904Y-106561904D01*
X153214285Y-106657142D01*
X153166666Y-106704761D01*
X153071428Y-106752380D01*
X152880952Y-106752380D01*
X152785714Y-106704761D01*
X152738095Y-106657142D01*
X152690476Y-106561904D01*
X152690476Y-105752380D01*
X151690476Y-106752380D02*
X152261904Y-106752380D01*
X151976190Y-106752380D02*
X151976190Y-105752380D01*
X152071428Y-105895238D01*
X152166666Y-105990476D01*
X152261904Y-106038095D01*
X138152380Y-77088095D02*
X138961904Y-77088095D01*
X139057142Y-77135714D01*
X139104761Y-77183333D01*
X139152380Y-77278571D01*
X139152380Y-77469047D01*
X139104761Y-77564285D01*
X139057142Y-77611904D01*
X138961904Y-77659523D01*
X138152380Y-77659523D01*
X138247619Y-78088095D02*
X138200000Y-78135714D01*
X138152380Y-78230952D01*
X138152380Y-78469047D01*
X138200000Y-78564285D01*
X138247619Y-78611904D01*
X138342857Y-78659523D01*
X138438095Y-78659523D01*
X138580952Y-78611904D01*
X139152380Y-78040476D01*
X139152380Y-78659523D01*
X122261904Y-80352380D02*
X122261904Y-81161904D01*
X122214285Y-81257142D01*
X122166666Y-81304761D01*
X122071428Y-81352380D01*
X121880952Y-81352380D01*
X121785714Y-81304761D01*
X121738095Y-81257142D01*
X121690476Y-81161904D01*
X121690476Y-80352380D01*
X121309523Y-80352380D02*
X120690476Y-80352380D01*
X121023809Y-80733333D01*
X120880952Y-80733333D01*
X120785714Y-80780952D01*
X120738095Y-80828571D01*
X120690476Y-80923809D01*
X120690476Y-81161904D01*
X120738095Y-81257142D01*
X120785714Y-81304761D01*
X120880952Y-81352380D01*
X121166666Y-81352380D01*
X121261904Y-81304761D01*
X121309523Y-81257142D01*
X147642380Y-106928095D02*
X148451904Y-106928095D01*
X148547142Y-106975714D01*
X148594761Y-107023333D01*
X148642380Y-107118571D01*
X148642380Y-107309047D01*
X148594761Y-107404285D01*
X148547142Y-107451904D01*
X148451904Y-107499523D01*
X147642380Y-107499523D01*
X147975714Y-108404285D02*
X148642380Y-108404285D01*
X147594761Y-108166190D02*
X148309047Y-107928095D01*
X148309047Y-108547142D01*
M02*
