G04 #@! TF.GenerationSoftware,KiCad,Pcbnew,5.1.2*
G04 #@! TF.CreationDate,2019-08-23T11:00:21-05:00*
G04 #@! TF.ProjectId,dragos,64726167-6f73-42e6-9b69-6361645f7063,rev?*
G04 #@! TF.SameCoordinates,Original*
G04 #@! TF.FileFunction,Copper,L1,Top*
G04 #@! TF.FilePolarity,Positive*
%FSLAX46Y46*%
G04 Gerber Fmt 4.6, Leading zero omitted, Abs format (unit mm)*
G04 Created by KiCad (PCBNEW 5.1.2) date 2019-08-23 11:00:21*
%MOMM*%
%LPD*%
G04 APERTURE LIST*
%ADD10C,0.010000*%
%ADD11R,1.700000X1.700000*%
%ADD12O,1.700000X1.700000*%
%ADD13C,1.700000*%
%ADD14C,0.100000*%
%ADD15C,1.700000*%
%ADD16O,1.000000X2.100000*%
%ADD17O,1.000000X1.800000*%
G04 APERTURE END LIST*
D10*
G36*
X139161591Y-63687163D02*
G01*
X139601337Y-63734734D01*
X140070881Y-63811732D01*
X140510764Y-63901260D01*
X140827362Y-63970083D01*
X140514676Y-64049490D01*
X140123494Y-64186425D01*
X139729266Y-64393623D01*
X139343639Y-64659583D01*
X138978264Y-64972800D01*
X138644788Y-65321774D01*
X138354861Y-65695002D01*
X138120132Y-66080982D01*
X137952248Y-66468210D01*
X137905003Y-66626377D01*
X137851550Y-66957510D01*
X137853506Y-67294737D01*
X137908969Y-67611609D01*
X137992093Y-67835776D01*
X138165079Y-68110514D01*
X138391865Y-68353729D01*
X138622505Y-68523632D01*
X138786510Y-68620012D01*
X138761039Y-68501923D01*
X138701117Y-68164833D01*
X138672079Y-67860420D01*
X138675486Y-67607989D01*
X138683455Y-67542796D01*
X138698450Y-67414461D01*
X138698747Y-67327892D01*
X138688434Y-67304334D01*
X138633795Y-67319815D01*
X138529755Y-67359382D01*
X138456018Y-67390064D01*
X138339094Y-67435021D01*
X138257352Y-67456840D01*
X138235621Y-67455399D01*
X138251625Y-67417110D01*
X138315627Y-67339782D01*
X138411201Y-67239312D01*
X138521922Y-67131598D01*
X138631363Y-67032538D01*
X138723100Y-66958030D01*
X138780707Y-66923971D01*
X138785345Y-66923334D01*
X138828887Y-66889246D01*
X138891247Y-66804871D01*
X138956298Y-66697039D01*
X139007912Y-66592581D01*
X139029961Y-66518328D01*
X139030000Y-66516313D01*
X138993192Y-66507094D01*
X138901740Y-66513728D01*
X138871250Y-66518212D01*
X138725012Y-66526571D01*
X138560242Y-66515288D01*
X138522000Y-66509302D01*
X138331500Y-66474738D01*
X138540125Y-66402702D01*
X138711719Y-66359429D01*
X138905182Y-66333037D01*
X138984625Y-66329404D01*
X139129786Y-66322229D01*
X139234193Y-66292605D01*
X139336850Y-66225510D01*
X139407388Y-66166595D01*
X139594276Y-66005051D01*
X139407388Y-65975516D01*
X139211612Y-65938688D01*
X139061631Y-65898800D01*
X138968880Y-65859873D01*
X138944797Y-65825931D01*
X138954409Y-65816162D01*
X139047879Y-65789776D01*
X139196495Y-65782052D01*
X139373056Y-65791966D01*
X139550361Y-65818493D01*
X139646733Y-65842238D01*
X139799356Y-65878090D01*
X139928921Y-65878467D01*
X140065019Y-65850603D01*
X140274539Y-65797063D01*
X140043853Y-65659565D01*
X139813167Y-65522068D01*
X140046000Y-65549261D01*
X140271127Y-65602438D01*
X140516219Y-65706102D01*
X140554000Y-65726063D01*
X140750396Y-65826808D01*
X140926614Y-65906052D01*
X141067697Y-65957969D01*
X141158687Y-65976734D01*
X141182127Y-65970651D01*
X141169694Y-65929570D01*
X141112454Y-65851690D01*
X141076774Y-65811449D01*
X140977450Y-65699774D01*
X140858491Y-65559050D01*
X140783523Y-65466954D01*
X140617876Y-65259408D01*
X140762073Y-65333975D01*
X140866483Y-65403546D01*
X140997487Y-65511974D01*
X141117092Y-65626188D01*
X141327913Y-65843834D01*
X141299655Y-65653334D01*
X141275902Y-65496071D01*
X141252390Y-65344688D01*
X141247608Y-65314667D01*
X141249277Y-65278189D01*
X141276117Y-65293076D01*
X141331729Y-65364244D01*
X141419715Y-65496606D01*
X141543674Y-65695077D01*
X141629492Y-65835848D01*
X142035165Y-66505196D01*
X142162416Y-67260511D01*
X142203138Y-67503867D01*
X142238464Y-67718108D01*
X142266148Y-67889367D01*
X142283949Y-68003782D01*
X142289667Y-68046921D01*
X142261144Y-68029479D01*
X142182139Y-67961591D01*
X142062500Y-67852216D01*
X141912073Y-67710311D01*
X141782312Y-67585342D01*
X141611220Y-67421584D01*
X141459510Y-67280863D01*
X141338132Y-67172980D01*
X141258033Y-67107737D01*
X141231979Y-67092667D01*
X141201803Y-67055883D01*
X141189004Y-66967256D01*
X141189000Y-66965667D01*
X141174850Y-66876527D01*
X141140750Y-66838678D01*
X141140106Y-66838667D01*
X141124972Y-66814213D01*
X141161272Y-66761250D01*
X141221735Y-66656523D01*
X141213223Y-66541554D01*
X141198483Y-66515871D01*
X141496384Y-66515871D01*
X141522267Y-66555374D01*
X141558084Y-66610730D01*
X141533569Y-66626773D01*
X141524036Y-66627000D01*
X141521660Y-66653696D01*
X141569989Y-66723594D01*
X141655987Y-66818846D01*
X141768659Y-66924705D01*
X141835934Y-66961849D01*
X141863426Y-66929135D01*
X141856749Y-66825423D01*
X141848804Y-66779665D01*
X141813311Y-66682249D01*
X141752439Y-66586431D01*
X141682684Y-66510122D01*
X141620542Y-66471234D01*
X141582509Y-66487679D01*
X141581744Y-66489681D01*
X141536908Y-66520839D01*
X141513468Y-66513304D01*
X141496384Y-66515871D01*
X141198483Y-66515871D01*
X141133580Y-66402791D01*
X141096750Y-66356018D01*
X140911380Y-66189833D01*
X140679154Y-66069429D01*
X140423951Y-66001598D01*
X140169645Y-65993137D01*
X139974673Y-66036699D01*
X139706008Y-66180644D01*
X139488103Y-66389175D01*
X139323594Y-66657215D01*
X139215118Y-66979689D01*
X139165311Y-67351521D01*
X139164672Y-67595886D01*
X139186000Y-67854944D01*
X139231559Y-68081648D01*
X139308771Y-68286736D01*
X139425053Y-68480947D01*
X139587826Y-68675021D01*
X139804507Y-68879696D01*
X140082516Y-69105711D01*
X140342334Y-69300523D01*
X140541856Y-69447007D01*
X140725024Y-69582224D01*
X140877562Y-69695582D01*
X140985198Y-69776488D01*
X141024186Y-69806548D01*
X141095977Y-69857301D01*
X141159202Y-69872623D01*
X141247287Y-69854800D01*
X141330811Y-69827506D01*
X141548643Y-69782814D01*
X141682310Y-69793120D01*
X141837536Y-69825371D01*
X141672018Y-69895282D01*
X141535003Y-69947168D01*
X141407931Y-69986062D01*
X141387649Y-69990848D01*
X141268798Y-70016502D01*
X141401790Y-70184418D01*
X141491815Y-70286905D01*
X141571179Y-70336511D01*
X141674788Y-70351716D01*
X141718968Y-70352334D01*
X141864677Y-70362688D01*
X141994919Y-70388360D01*
X142018638Y-70396240D01*
X142093128Y-70441082D01*
X142091889Y-70483276D01*
X142023747Y-70515834D01*
X141897528Y-70531768D01*
X141846902Y-70532223D01*
X141732700Y-70536835D01*
X141663830Y-70551847D01*
X141654667Y-70561508D01*
X141670101Y-70640691D01*
X141706683Y-70739052D01*
X141749834Y-70823340D01*
X141784976Y-70860303D01*
X141785686Y-70860334D01*
X141850519Y-70891073D01*
X141946995Y-70970455D01*
X142056174Y-71079220D01*
X142159123Y-71198112D01*
X142236902Y-71307873D01*
X142251362Y-71333897D01*
X142333926Y-71495736D01*
X142125402Y-71367430D01*
X142007314Y-71286940D01*
X141921426Y-71213895D01*
X141892934Y-71176728D01*
X141848034Y-71121326D01*
X141825329Y-71114334D01*
X141785204Y-71148237D01*
X141790430Y-71244927D01*
X141839200Y-71396871D01*
X141929710Y-71596537D01*
X141951000Y-71638328D01*
X142050046Y-71839192D01*
X142103071Y-71969926D01*
X142110063Y-72030311D01*
X142071010Y-72020132D01*
X141985899Y-71939172D01*
X141967557Y-71919139D01*
X141877303Y-71828829D01*
X141807520Y-71776264D01*
X141781856Y-71770383D01*
X141753248Y-71821736D01*
X141724545Y-71922625D01*
X141719553Y-71947335D01*
X141642237Y-72184551D01*
X141503804Y-72439553D01*
X141319537Y-72693633D01*
X141104718Y-72928086D01*
X140874628Y-73124203D01*
X140644558Y-73263273D01*
X140345604Y-73360733D01*
X140026074Y-73393255D01*
X139716772Y-73358321D01*
X139661112Y-73343678D01*
X139431245Y-73258595D01*
X139226453Y-73140050D01*
X139039491Y-72979582D01*
X138863112Y-72768733D01*
X138690069Y-72499042D01*
X138513117Y-72162051D01*
X138355654Y-71819638D01*
X138185735Y-71446430D01*
X138033503Y-71145606D01*
X137892243Y-70908476D01*
X137755242Y-70726349D01*
X137615786Y-70590534D01*
X137467160Y-70492342D01*
X137302652Y-70423081D01*
X137268347Y-70412265D01*
X136961469Y-70356187D01*
X136680492Y-70377661D01*
X136431520Y-70474325D01*
X136220662Y-70643817D01*
X136055207Y-70881500D01*
X135998577Y-71029898D01*
X135963280Y-71225686D01*
X135948380Y-71414827D01*
X135952395Y-71740679D01*
X136004875Y-72036269D01*
X136113090Y-72331444D01*
X136225822Y-72553667D01*
X136311696Y-72690721D01*
X136423171Y-72843826D01*
X136546860Y-72997474D01*
X136669381Y-73136160D01*
X136777349Y-73244377D01*
X136857381Y-73306619D01*
X136883523Y-73315667D01*
X136903452Y-73275534D01*
X136907855Y-73161232D01*
X136898722Y-73008750D01*
X136871952Y-72701834D01*
X137104309Y-73221453D01*
X137189690Y-73413805D01*
X137260956Y-73577057D01*
X137311731Y-73696394D01*
X137335636Y-73757001D01*
X137336667Y-73761203D01*
X137317399Y-73775537D01*
X137252777Y-73775149D01*
X137132577Y-73758793D01*
X136946572Y-73725223D01*
X136791547Y-73694784D01*
X136619324Y-73659193D01*
X136481553Y-73628575D01*
X136397128Y-73607244D01*
X136380074Y-73600852D01*
X136408298Y-73580788D01*
X136496325Y-73543804D01*
X136593333Y-73508908D01*
X136821112Y-73431483D01*
X136464985Y-73075357D01*
X136108859Y-72719230D01*
X135913011Y-72868771D01*
X135597555Y-73073733D01*
X135254123Y-73224023D01*
X134868471Y-73324179D01*
X134426356Y-73378743D01*
X134288667Y-73386551D01*
X134054888Y-73393994D01*
X133880455Y-73391051D01*
X133740464Y-73375693D01*
X133610007Y-73345891D01*
X133543423Y-73325849D01*
X133184893Y-73168294D01*
X132852310Y-72934867D01*
X132549409Y-72631394D01*
X132279921Y-72263703D01*
X132047581Y-71837622D01*
X131856120Y-71358978D01*
X131709273Y-70833599D01*
X131617495Y-70319318D01*
X131593649Y-70039956D01*
X131586151Y-69704857D01*
X131590923Y-69480123D01*
X132281532Y-69480123D01*
X132298622Y-69797375D01*
X132375932Y-70415642D01*
X132501474Y-70965207D01*
X132675726Y-71447283D01*
X132899166Y-71863081D01*
X133172273Y-72213813D01*
X133302369Y-72342436D01*
X133585598Y-72569447D01*
X133864811Y-72722232D01*
X134159171Y-72807996D01*
X134487841Y-72833945D01*
X134601303Y-72830894D01*
X134804927Y-72813994D01*
X134968967Y-72778490D01*
X135137440Y-72712933D01*
X135236303Y-72665697D01*
X135407122Y-72569839D01*
X135569746Y-72459741D01*
X135689986Y-72358633D01*
X135693366Y-72355170D01*
X135783141Y-72257599D01*
X135824370Y-72184713D01*
X135827910Y-72100867D01*
X135806966Y-71982167D01*
X135784880Y-71766163D01*
X135789669Y-71503887D01*
X135818996Y-71228535D01*
X135870523Y-70973301D01*
X135880564Y-70936920D01*
X135975267Y-70700277D01*
X136113953Y-70468830D01*
X136277205Y-70271304D01*
X136403817Y-70162885D01*
X136499458Y-70088645D01*
X136552875Y-70014336D01*
X136581389Y-69907836D01*
X136594397Y-69809455D01*
X136601698Y-69664189D01*
X136599475Y-69465317D01*
X136588482Y-69243273D01*
X136576784Y-69098749D01*
X136490893Y-68502266D01*
X136352931Y-67970976D01*
X136161991Y-67502617D01*
X135917167Y-67094924D01*
X135645788Y-66773731D01*
X135415409Y-66541026D01*
X135247596Y-66700430D01*
X135079784Y-66859834D01*
X135188219Y-66660587D01*
X135296653Y-66461340D01*
X135120743Y-66377219D01*
X134792257Y-66260378D01*
X134442716Y-66207284D01*
X134093799Y-66218304D01*
X133767183Y-66293800D01*
X133626630Y-66352105D01*
X133322897Y-66545644D01*
X133052054Y-66810781D01*
X132817028Y-67139925D01*
X132620744Y-67525487D01*
X132466127Y-67959878D01*
X132356102Y-68435507D01*
X132293595Y-68944785D01*
X132281532Y-69480123D01*
X131590923Y-69480123D01*
X131593875Y-69341129D01*
X131615695Y-68975880D01*
X131650484Y-68636215D01*
X131697117Y-68349244D01*
X131699875Y-68336125D01*
X131841326Y-67828484D01*
X132039951Y-67349889D01*
X132288800Y-66911463D01*
X132580917Y-66524332D01*
X132909351Y-66199621D01*
X132988859Y-66140167D01*
X135812667Y-66140167D01*
X135833834Y-66161334D01*
X135855000Y-66140167D01*
X135833834Y-66119000D01*
X135812667Y-66140167D01*
X132988859Y-66140167D01*
X133088416Y-66065721D01*
X135919962Y-66065721D01*
X136215564Y-66362004D01*
X136562919Y-66769585D01*
X136843295Y-67228596D01*
X137056446Y-67738361D01*
X137202126Y-68298202D01*
X137280088Y-68907442D01*
X137294334Y-69327593D01*
X137294334Y-69919387D01*
X137474447Y-69946396D01*
X137703669Y-70014627D01*
X137936537Y-70141575D01*
X138142772Y-70308382D01*
X138246899Y-70427478D01*
X138325828Y-70545158D01*
X138419890Y-70706053D01*
X138532674Y-70917100D01*
X138667767Y-71185234D01*
X138828756Y-71517392D01*
X139019228Y-71920509D01*
X139020341Y-71922887D01*
X139120890Y-72122944D01*
X139228690Y-72313369D01*
X139329122Y-72469474D01*
X139391890Y-72550369D01*
X139633656Y-72758657D01*
X139911106Y-72892416D01*
X140216127Y-72949574D01*
X140540601Y-72928058D01*
X140709034Y-72886712D01*
X140887160Y-72790436D01*
X141041452Y-72626195D01*
X141166345Y-72408695D01*
X141256278Y-72152644D01*
X141305686Y-71872748D01*
X141309008Y-71583714D01*
X141279707Y-71378057D01*
X141212021Y-71139092D01*
X141111530Y-70919619D01*
X140969948Y-70709769D01*
X140778991Y-70499672D01*
X140530374Y-70279461D01*
X140215812Y-70039264D01*
X140067167Y-69933631D01*
X139876872Y-69799362D01*
X139703436Y-69674692D01*
X139562705Y-69571175D01*
X139470523Y-69500364D01*
X139453334Y-69486036D01*
X139367134Y-69421689D01*
X139232177Y-69332932D01*
X139073837Y-69236265D01*
X139030000Y-69210738D01*
X138850880Y-69103277D01*
X138670305Y-68987868D01*
X138523592Y-68887181D01*
X138507322Y-68875221D01*
X138327159Y-68716924D01*
X138132147Y-68505828D01*
X137941878Y-68266481D01*
X137775941Y-68023431D01*
X137659091Y-67812334D01*
X137594981Y-67666674D01*
X137556664Y-67544470D01*
X137538077Y-67414002D01*
X137533158Y-67243553D01*
X137533668Y-67156167D01*
X137562819Y-66739803D01*
X137636563Y-66302639D01*
X137746793Y-65889509D01*
X137780314Y-65791882D01*
X137823914Y-65662591D01*
X137847242Y-65574796D01*
X137845386Y-65547073D01*
X137844994Y-65547298D01*
X137801701Y-65595460D01*
X137725099Y-65700829D01*
X137625251Y-65847899D01*
X137512221Y-66021164D01*
X137396072Y-66205119D01*
X137286868Y-66384258D01*
X137194673Y-66543075D01*
X137171712Y-66584667D01*
X137082720Y-66743524D01*
X137027891Y-66827357D01*
X137005915Y-66835103D01*
X137015484Y-66765698D01*
X137055290Y-66618080D01*
X137085990Y-66515043D01*
X137165646Y-66287742D01*
X137274165Y-66027520D01*
X137401903Y-65753326D01*
X137539218Y-65484113D01*
X137676467Y-65238831D01*
X137804009Y-65036431D01*
X137906899Y-64901685D01*
X137996563Y-64793946D01*
X138048546Y-64714988D01*
X138053068Y-64680031D01*
X138049673Y-64679513D01*
X137990583Y-64697533D01*
X137874064Y-64746491D01*
X137717943Y-64818535D01*
X137569500Y-64891017D01*
X137323311Y-65027349D01*
X137037723Y-65207047D01*
X136734544Y-65414978D01*
X136435585Y-65636010D01*
X136162655Y-65855012D01*
X136088564Y-65918532D01*
X135919962Y-66065721D01*
X133088416Y-66065721D01*
X133145667Y-66022911D01*
X133298515Y-65931993D01*
X133453306Y-65854945D01*
X133548939Y-65817758D01*
X133660631Y-65770184D01*
X133743027Y-65699254D01*
X133814951Y-65699254D01*
X133815946Y-65724347D01*
X133844167Y-65717995D01*
X133922192Y-65701728D01*
X134061169Y-65684913D01*
X134237437Y-65670142D01*
X134336372Y-65664107D01*
X134686475Y-65665974D01*
X135021824Y-65706014D01*
X135319079Y-65780302D01*
X135514522Y-65862154D01*
X135660877Y-65939747D01*
X136255355Y-65337184D01*
X136458243Y-65136018D01*
X136661881Y-64942067D01*
X136851351Y-64768969D01*
X137011736Y-64630365D01*
X137125000Y-64542062D01*
X137289714Y-64432646D01*
X137459587Y-64329124D01*
X137598488Y-64253492D01*
X137601250Y-64252149D01*
X137721407Y-64185382D01*
X137789033Y-64130804D01*
X137797846Y-64097375D01*
X137741565Y-64094051D01*
X137707084Y-64101223D01*
X137634766Y-64115176D01*
X137494722Y-64139022D01*
X137302962Y-64170149D01*
X137075497Y-64205947D01*
X136892167Y-64234127D01*
X136470664Y-64302319D01*
X136116761Y-64370727D01*
X135813601Y-64445496D01*
X135544326Y-64532771D01*
X135292078Y-64638697D01*
X135039999Y-64769420D01*
X134771230Y-64931084D01*
X134508945Y-65102867D01*
X134361253Y-65207869D01*
X134212691Y-65323288D01*
X134073519Y-65439630D01*
X133953998Y-65547401D01*
X133864388Y-65637107D01*
X133814951Y-65699254D01*
X133743027Y-65699254D01*
X133750944Y-65692439D01*
X133844721Y-65562114D01*
X133860694Y-65536527D01*
X134125153Y-65177187D01*
X134457897Y-64837980D01*
X134842749Y-64533167D01*
X135263533Y-64277004D01*
X135325834Y-64245113D01*
X135633233Y-64105978D01*
X135955720Y-63990770D01*
X136306669Y-63896506D01*
X136699454Y-63820203D01*
X137147447Y-63758877D01*
X137664023Y-63709546D01*
X137760000Y-63702110D01*
X138267036Y-63672741D01*
X138725528Y-63667129D01*
X139161591Y-63687163D01*
X139161591Y-63687163D01*
G37*
X139161591Y-63687163D02*
X139601337Y-63734734D01*
X140070881Y-63811732D01*
X140510764Y-63901260D01*
X140827362Y-63970083D01*
X140514676Y-64049490D01*
X140123494Y-64186425D01*
X139729266Y-64393623D01*
X139343639Y-64659583D01*
X138978264Y-64972800D01*
X138644788Y-65321774D01*
X138354861Y-65695002D01*
X138120132Y-66080982D01*
X137952248Y-66468210D01*
X137905003Y-66626377D01*
X137851550Y-66957510D01*
X137853506Y-67294737D01*
X137908969Y-67611609D01*
X137992093Y-67835776D01*
X138165079Y-68110514D01*
X138391865Y-68353729D01*
X138622505Y-68523632D01*
X138786510Y-68620012D01*
X138761039Y-68501923D01*
X138701117Y-68164833D01*
X138672079Y-67860420D01*
X138675486Y-67607989D01*
X138683455Y-67542796D01*
X138698450Y-67414461D01*
X138698747Y-67327892D01*
X138688434Y-67304334D01*
X138633795Y-67319815D01*
X138529755Y-67359382D01*
X138456018Y-67390064D01*
X138339094Y-67435021D01*
X138257352Y-67456840D01*
X138235621Y-67455399D01*
X138251625Y-67417110D01*
X138315627Y-67339782D01*
X138411201Y-67239312D01*
X138521922Y-67131598D01*
X138631363Y-67032538D01*
X138723100Y-66958030D01*
X138780707Y-66923971D01*
X138785345Y-66923334D01*
X138828887Y-66889246D01*
X138891247Y-66804871D01*
X138956298Y-66697039D01*
X139007912Y-66592581D01*
X139029961Y-66518328D01*
X139030000Y-66516313D01*
X138993192Y-66507094D01*
X138901740Y-66513728D01*
X138871250Y-66518212D01*
X138725012Y-66526571D01*
X138560242Y-66515288D01*
X138522000Y-66509302D01*
X138331500Y-66474738D01*
X138540125Y-66402702D01*
X138711719Y-66359429D01*
X138905182Y-66333037D01*
X138984625Y-66329404D01*
X139129786Y-66322229D01*
X139234193Y-66292605D01*
X139336850Y-66225510D01*
X139407388Y-66166595D01*
X139594276Y-66005051D01*
X139407388Y-65975516D01*
X139211612Y-65938688D01*
X139061631Y-65898800D01*
X138968880Y-65859873D01*
X138944797Y-65825931D01*
X138954409Y-65816162D01*
X139047879Y-65789776D01*
X139196495Y-65782052D01*
X139373056Y-65791966D01*
X139550361Y-65818493D01*
X139646733Y-65842238D01*
X139799356Y-65878090D01*
X139928921Y-65878467D01*
X140065019Y-65850603D01*
X140274539Y-65797063D01*
X140043853Y-65659565D01*
X139813167Y-65522068D01*
X140046000Y-65549261D01*
X140271127Y-65602438D01*
X140516219Y-65706102D01*
X140554000Y-65726063D01*
X140750396Y-65826808D01*
X140926614Y-65906052D01*
X141067697Y-65957969D01*
X141158687Y-65976734D01*
X141182127Y-65970651D01*
X141169694Y-65929570D01*
X141112454Y-65851690D01*
X141076774Y-65811449D01*
X140977450Y-65699774D01*
X140858491Y-65559050D01*
X140783523Y-65466954D01*
X140617876Y-65259408D01*
X140762073Y-65333975D01*
X140866483Y-65403546D01*
X140997487Y-65511974D01*
X141117092Y-65626188D01*
X141327913Y-65843834D01*
X141299655Y-65653334D01*
X141275902Y-65496071D01*
X141252390Y-65344688D01*
X141247608Y-65314667D01*
X141249277Y-65278189D01*
X141276117Y-65293076D01*
X141331729Y-65364244D01*
X141419715Y-65496606D01*
X141543674Y-65695077D01*
X141629492Y-65835848D01*
X142035165Y-66505196D01*
X142162416Y-67260511D01*
X142203138Y-67503867D01*
X142238464Y-67718108D01*
X142266148Y-67889367D01*
X142283949Y-68003782D01*
X142289667Y-68046921D01*
X142261144Y-68029479D01*
X142182139Y-67961591D01*
X142062500Y-67852216D01*
X141912073Y-67710311D01*
X141782312Y-67585342D01*
X141611220Y-67421584D01*
X141459510Y-67280863D01*
X141338132Y-67172980D01*
X141258033Y-67107737D01*
X141231979Y-67092667D01*
X141201803Y-67055883D01*
X141189004Y-66967256D01*
X141189000Y-66965667D01*
X141174850Y-66876527D01*
X141140750Y-66838678D01*
X141140106Y-66838667D01*
X141124972Y-66814213D01*
X141161272Y-66761250D01*
X141221735Y-66656523D01*
X141213223Y-66541554D01*
X141198483Y-66515871D01*
X141496384Y-66515871D01*
X141522267Y-66555374D01*
X141558084Y-66610730D01*
X141533569Y-66626773D01*
X141524036Y-66627000D01*
X141521660Y-66653696D01*
X141569989Y-66723594D01*
X141655987Y-66818846D01*
X141768659Y-66924705D01*
X141835934Y-66961849D01*
X141863426Y-66929135D01*
X141856749Y-66825423D01*
X141848804Y-66779665D01*
X141813311Y-66682249D01*
X141752439Y-66586431D01*
X141682684Y-66510122D01*
X141620542Y-66471234D01*
X141582509Y-66487679D01*
X141581744Y-66489681D01*
X141536908Y-66520839D01*
X141513468Y-66513304D01*
X141496384Y-66515871D01*
X141198483Y-66515871D01*
X141133580Y-66402791D01*
X141096750Y-66356018D01*
X140911380Y-66189833D01*
X140679154Y-66069429D01*
X140423951Y-66001598D01*
X140169645Y-65993137D01*
X139974673Y-66036699D01*
X139706008Y-66180644D01*
X139488103Y-66389175D01*
X139323594Y-66657215D01*
X139215118Y-66979689D01*
X139165311Y-67351521D01*
X139164672Y-67595886D01*
X139186000Y-67854944D01*
X139231559Y-68081648D01*
X139308771Y-68286736D01*
X139425053Y-68480947D01*
X139587826Y-68675021D01*
X139804507Y-68879696D01*
X140082516Y-69105711D01*
X140342334Y-69300523D01*
X140541856Y-69447007D01*
X140725024Y-69582224D01*
X140877562Y-69695582D01*
X140985198Y-69776488D01*
X141024186Y-69806548D01*
X141095977Y-69857301D01*
X141159202Y-69872623D01*
X141247287Y-69854800D01*
X141330811Y-69827506D01*
X141548643Y-69782814D01*
X141682310Y-69793120D01*
X141837536Y-69825371D01*
X141672018Y-69895282D01*
X141535003Y-69947168D01*
X141407931Y-69986062D01*
X141387649Y-69990848D01*
X141268798Y-70016502D01*
X141401790Y-70184418D01*
X141491815Y-70286905D01*
X141571179Y-70336511D01*
X141674788Y-70351716D01*
X141718968Y-70352334D01*
X141864677Y-70362688D01*
X141994919Y-70388360D01*
X142018638Y-70396240D01*
X142093128Y-70441082D01*
X142091889Y-70483276D01*
X142023747Y-70515834D01*
X141897528Y-70531768D01*
X141846902Y-70532223D01*
X141732700Y-70536835D01*
X141663830Y-70551847D01*
X141654667Y-70561508D01*
X141670101Y-70640691D01*
X141706683Y-70739052D01*
X141749834Y-70823340D01*
X141784976Y-70860303D01*
X141785686Y-70860334D01*
X141850519Y-70891073D01*
X141946995Y-70970455D01*
X142056174Y-71079220D01*
X142159123Y-71198112D01*
X142236902Y-71307873D01*
X142251362Y-71333897D01*
X142333926Y-71495736D01*
X142125402Y-71367430D01*
X142007314Y-71286940D01*
X141921426Y-71213895D01*
X141892934Y-71176728D01*
X141848034Y-71121326D01*
X141825329Y-71114334D01*
X141785204Y-71148237D01*
X141790430Y-71244927D01*
X141839200Y-71396871D01*
X141929710Y-71596537D01*
X141951000Y-71638328D01*
X142050046Y-71839192D01*
X142103071Y-71969926D01*
X142110063Y-72030311D01*
X142071010Y-72020132D01*
X141985899Y-71939172D01*
X141967557Y-71919139D01*
X141877303Y-71828829D01*
X141807520Y-71776264D01*
X141781856Y-71770383D01*
X141753248Y-71821736D01*
X141724545Y-71922625D01*
X141719553Y-71947335D01*
X141642237Y-72184551D01*
X141503804Y-72439553D01*
X141319537Y-72693633D01*
X141104718Y-72928086D01*
X140874628Y-73124203D01*
X140644558Y-73263273D01*
X140345604Y-73360733D01*
X140026074Y-73393255D01*
X139716772Y-73358321D01*
X139661112Y-73343678D01*
X139431245Y-73258595D01*
X139226453Y-73140050D01*
X139039491Y-72979582D01*
X138863112Y-72768733D01*
X138690069Y-72499042D01*
X138513117Y-72162051D01*
X138355654Y-71819638D01*
X138185735Y-71446430D01*
X138033503Y-71145606D01*
X137892243Y-70908476D01*
X137755242Y-70726349D01*
X137615786Y-70590534D01*
X137467160Y-70492342D01*
X137302652Y-70423081D01*
X137268347Y-70412265D01*
X136961469Y-70356187D01*
X136680492Y-70377661D01*
X136431520Y-70474325D01*
X136220662Y-70643817D01*
X136055207Y-70881500D01*
X135998577Y-71029898D01*
X135963280Y-71225686D01*
X135948380Y-71414827D01*
X135952395Y-71740679D01*
X136004875Y-72036269D01*
X136113090Y-72331444D01*
X136225822Y-72553667D01*
X136311696Y-72690721D01*
X136423171Y-72843826D01*
X136546860Y-72997474D01*
X136669381Y-73136160D01*
X136777349Y-73244377D01*
X136857381Y-73306619D01*
X136883523Y-73315667D01*
X136903452Y-73275534D01*
X136907855Y-73161232D01*
X136898722Y-73008750D01*
X136871952Y-72701834D01*
X137104309Y-73221453D01*
X137189690Y-73413805D01*
X137260956Y-73577057D01*
X137311731Y-73696394D01*
X137335636Y-73757001D01*
X137336667Y-73761203D01*
X137317399Y-73775537D01*
X137252777Y-73775149D01*
X137132577Y-73758793D01*
X136946572Y-73725223D01*
X136791547Y-73694784D01*
X136619324Y-73659193D01*
X136481553Y-73628575D01*
X136397128Y-73607244D01*
X136380074Y-73600852D01*
X136408298Y-73580788D01*
X136496325Y-73543804D01*
X136593333Y-73508908D01*
X136821112Y-73431483D01*
X136464985Y-73075357D01*
X136108859Y-72719230D01*
X135913011Y-72868771D01*
X135597555Y-73073733D01*
X135254123Y-73224023D01*
X134868471Y-73324179D01*
X134426356Y-73378743D01*
X134288667Y-73386551D01*
X134054888Y-73393994D01*
X133880455Y-73391051D01*
X133740464Y-73375693D01*
X133610007Y-73345891D01*
X133543423Y-73325849D01*
X133184893Y-73168294D01*
X132852310Y-72934867D01*
X132549409Y-72631394D01*
X132279921Y-72263703D01*
X132047581Y-71837622D01*
X131856120Y-71358978D01*
X131709273Y-70833599D01*
X131617495Y-70319318D01*
X131593649Y-70039956D01*
X131586151Y-69704857D01*
X131590923Y-69480123D01*
X132281532Y-69480123D01*
X132298622Y-69797375D01*
X132375932Y-70415642D01*
X132501474Y-70965207D01*
X132675726Y-71447283D01*
X132899166Y-71863081D01*
X133172273Y-72213813D01*
X133302369Y-72342436D01*
X133585598Y-72569447D01*
X133864811Y-72722232D01*
X134159171Y-72807996D01*
X134487841Y-72833945D01*
X134601303Y-72830894D01*
X134804927Y-72813994D01*
X134968967Y-72778490D01*
X135137440Y-72712933D01*
X135236303Y-72665697D01*
X135407122Y-72569839D01*
X135569746Y-72459741D01*
X135689986Y-72358633D01*
X135693366Y-72355170D01*
X135783141Y-72257599D01*
X135824370Y-72184713D01*
X135827910Y-72100867D01*
X135806966Y-71982167D01*
X135784880Y-71766163D01*
X135789669Y-71503887D01*
X135818996Y-71228535D01*
X135870523Y-70973301D01*
X135880564Y-70936920D01*
X135975267Y-70700277D01*
X136113953Y-70468830D01*
X136277205Y-70271304D01*
X136403817Y-70162885D01*
X136499458Y-70088645D01*
X136552875Y-70014336D01*
X136581389Y-69907836D01*
X136594397Y-69809455D01*
X136601698Y-69664189D01*
X136599475Y-69465317D01*
X136588482Y-69243273D01*
X136576784Y-69098749D01*
X136490893Y-68502266D01*
X136352931Y-67970976D01*
X136161991Y-67502617D01*
X135917167Y-67094924D01*
X135645788Y-66773731D01*
X135415409Y-66541026D01*
X135247596Y-66700430D01*
X135079784Y-66859834D01*
X135188219Y-66660587D01*
X135296653Y-66461340D01*
X135120743Y-66377219D01*
X134792257Y-66260378D01*
X134442716Y-66207284D01*
X134093799Y-66218304D01*
X133767183Y-66293800D01*
X133626630Y-66352105D01*
X133322897Y-66545644D01*
X133052054Y-66810781D01*
X132817028Y-67139925D01*
X132620744Y-67525487D01*
X132466127Y-67959878D01*
X132356102Y-68435507D01*
X132293595Y-68944785D01*
X132281532Y-69480123D01*
X131590923Y-69480123D01*
X131593875Y-69341129D01*
X131615695Y-68975880D01*
X131650484Y-68636215D01*
X131697117Y-68349244D01*
X131699875Y-68336125D01*
X131841326Y-67828484D01*
X132039951Y-67349889D01*
X132288800Y-66911463D01*
X132580917Y-66524332D01*
X132909351Y-66199621D01*
X132988859Y-66140167D01*
X135812667Y-66140167D01*
X135833834Y-66161334D01*
X135855000Y-66140167D01*
X135833834Y-66119000D01*
X135812667Y-66140167D01*
X132988859Y-66140167D01*
X133088416Y-66065721D01*
X135919962Y-66065721D01*
X136215564Y-66362004D01*
X136562919Y-66769585D01*
X136843295Y-67228596D01*
X137056446Y-67738361D01*
X137202126Y-68298202D01*
X137280088Y-68907442D01*
X137294334Y-69327593D01*
X137294334Y-69919387D01*
X137474447Y-69946396D01*
X137703669Y-70014627D01*
X137936537Y-70141575D01*
X138142772Y-70308382D01*
X138246899Y-70427478D01*
X138325828Y-70545158D01*
X138419890Y-70706053D01*
X138532674Y-70917100D01*
X138667767Y-71185234D01*
X138828756Y-71517392D01*
X139019228Y-71920509D01*
X139020341Y-71922887D01*
X139120890Y-72122944D01*
X139228690Y-72313369D01*
X139329122Y-72469474D01*
X139391890Y-72550369D01*
X139633656Y-72758657D01*
X139911106Y-72892416D01*
X140216127Y-72949574D01*
X140540601Y-72928058D01*
X140709034Y-72886712D01*
X140887160Y-72790436D01*
X141041452Y-72626195D01*
X141166345Y-72408695D01*
X141256278Y-72152644D01*
X141305686Y-71872748D01*
X141309008Y-71583714D01*
X141279707Y-71378057D01*
X141212021Y-71139092D01*
X141111530Y-70919619D01*
X140969948Y-70709769D01*
X140778991Y-70499672D01*
X140530374Y-70279461D01*
X140215812Y-70039264D01*
X140067167Y-69933631D01*
X139876872Y-69799362D01*
X139703436Y-69674692D01*
X139562705Y-69571175D01*
X139470523Y-69500364D01*
X139453334Y-69486036D01*
X139367134Y-69421689D01*
X139232177Y-69332932D01*
X139073837Y-69236265D01*
X139030000Y-69210738D01*
X138850880Y-69103277D01*
X138670305Y-68987868D01*
X138523592Y-68887181D01*
X138507322Y-68875221D01*
X138327159Y-68716924D01*
X138132147Y-68505828D01*
X137941878Y-68266481D01*
X137775941Y-68023431D01*
X137659091Y-67812334D01*
X137594981Y-67666674D01*
X137556664Y-67544470D01*
X137538077Y-67414002D01*
X137533158Y-67243553D01*
X137533668Y-67156167D01*
X137562819Y-66739803D01*
X137636563Y-66302639D01*
X137746793Y-65889509D01*
X137780314Y-65791882D01*
X137823914Y-65662591D01*
X137847242Y-65574796D01*
X137845386Y-65547073D01*
X137844994Y-65547298D01*
X137801701Y-65595460D01*
X137725099Y-65700829D01*
X137625251Y-65847899D01*
X137512221Y-66021164D01*
X137396072Y-66205119D01*
X137286868Y-66384258D01*
X137194673Y-66543075D01*
X137171712Y-66584667D01*
X137082720Y-66743524D01*
X137027891Y-66827357D01*
X137005915Y-66835103D01*
X137015484Y-66765698D01*
X137055290Y-66618080D01*
X137085990Y-66515043D01*
X137165646Y-66287742D01*
X137274165Y-66027520D01*
X137401903Y-65753326D01*
X137539218Y-65484113D01*
X137676467Y-65238831D01*
X137804009Y-65036431D01*
X137906899Y-64901685D01*
X137996563Y-64793946D01*
X138048546Y-64714988D01*
X138053068Y-64680031D01*
X138049673Y-64679513D01*
X137990583Y-64697533D01*
X137874064Y-64746491D01*
X137717943Y-64818535D01*
X137569500Y-64891017D01*
X137323311Y-65027349D01*
X137037723Y-65207047D01*
X136734544Y-65414978D01*
X136435585Y-65636010D01*
X136162655Y-65855012D01*
X136088564Y-65918532D01*
X135919962Y-66065721D01*
X133088416Y-66065721D01*
X133145667Y-66022911D01*
X133298515Y-65931993D01*
X133453306Y-65854945D01*
X133548939Y-65817758D01*
X133660631Y-65770184D01*
X133743027Y-65699254D01*
X133814951Y-65699254D01*
X133815946Y-65724347D01*
X133844167Y-65717995D01*
X133922192Y-65701728D01*
X134061169Y-65684913D01*
X134237437Y-65670142D01*
X134336372Y-65664107D01*
X134686475Y-65665974D01*
X135021824Y-65706014D01*
X135319079Y-65780302D01*
X135514522Y-65862154D01*
X135660877Y-65939747D01*
X136255355Y-65337184D01*
X136458243Y-65136018D01*
X136661881Y-64942067D01*
X136851351Y-64768969D01*
X137011736Y-64630365D01*
X137125000Y-64542062D01*
X137289714Y-64432646D01*
X137459587Y-64329124D01*
X137598488Y-64253492D01*
X137601250Y-64252149D01*
X137721407Y-64185382D01*
X137789033Y-64130804D01*
X137797846Y-64097375D01*
X137741565Y-64094051D01*
X137707084Y-64101223D01*
X137634766Y-64115176D01*
X137494722Y-64139022D01*
X137302962Y-64170149D01*
X137075497Y-64205947D01*
X136892167Y-64234127D01*
X136470664Y-64302319D01*
X136116761Y-64370727D01*
X135813601Y-64445496D01*
X135544326Y-64532771D01*
X135292078Y-64638697D01*
X135039999Y-64769420D01*
X134771230Y-64931084D01*
X134508945Y-65102867D01*
X134361253Y-65207869D01*
X134212691Y-65323288D01*
X134073519Y-65439630D01*
X133953998Y-65547401D01*
X133864388Y-65637107D01*
X133814951Y-65699254D01*
X133743027Y-65699254D01*
X133750944Y-65692439D01*
X133844721Y-65562114D01*
X133860694Y-65536527D01*
X134125153Y-65177187D01*
X134457897Y-64837980D01*
X134842749Y-64533167D01*
X135263533Y-64277004D01*
X135325834Y-64245113D01*
X135633233Y-64105978D01*
X135955720Y-63990770D01*
X136306669Y-63896506D01*
X136699454Y-63820203D01*
X137147447Y-63758877D01*
X137664023Y-63709546D01*
X137760000Y-63702110D01*
X138267036Y-63672741D01*
X138725528Y-63667129D01*
X139161591Y-63687163D01*
G36*
X128706800Y-65677400D02*
G01*
X128950536Y-65688493D01*
X129161366Y-65711746D01*
X129365111Y-65751032D01*
X129587592Y-65810222D01*
X129848123Y-65891090D01*
X130047574Y-65956390D01*
X130179342Y-66010864D01*
X130255576Y-66071892D01*
X130288423Y-66156855D01*
X130290030Y-66283133D01*
X130272546Y-66468106D01*
X130269809Y-66494420D01*
X130250113Y-66668324D01*
X130231114Y-66807796D01*
X130215645Y-66893241D01*
X130209712Y-66910066D01*
X130168977Y-66896724D01*
X130082380Y-66842803D01*
X129988776Y-66775029D01*
X129603073Y-66523603D01*
X129204586Y-66352230D01*
X128779912Y-66256427D01*
X128362000Y-66231126D01*
X127901878Y-66267527D01*
X127490924Y-66371411D01*
X127128016Y-66543722D01*
X126812028Y-66785404D01*
X126541836Y-67097399D01*
X126316317Y-67480651D01*
X126134346Y-67936102D01*
X126069063Y-68154906D01*
X126033980Y-68293314D01*
X126008413Y-68423640D01*
X125990906Y-68563323D01*
X125980000Y-68729800D01*
X125974235Y-68940509D01*
X125972155Y-69212888D01*
X125972029Y-69315167D01*
X125973229Y-69614904D01*
X125977975Y-69847989D01*
X125987710Y-70032411D01*
X126003877Y-70186159D01*
X126027921Y-70327221D01*
X126061284Y-70473585D01*
X126066722Y-70495293D01*
X126221914Y-70979906D01*
X126428868Y-71420381D01*
X126681909Y-71810197D01*
X126975365Y-72142835D01*
X127303560Y-72411774D01*
X127660822Y-72610494D01*
X128007049Y-72724956D01*
X128221249Y-72758434D01*
X128462883Y-72771175D01*
X128715387Y-72765147D01*
X128962196Y-72742322D01*
X129186745Y-72704670D01*
X129372469Y-72654161D01*
X129502804Y-72592766D01*
X129554150Y-72540931D01*
X129568133Y-72485729D01*
X129578290Y-72376048D01*
X129584705Y-72206503D01*
X129587462Y-71971709D01*
X129586648Y-71666279D01*
X129582348Y-71284829D01*
X129578183Y-71020408D01*
X129553811Y-69590334D01*
X130224667Y-69590334D01*
X130224667Y-71278483D01*
X130224062Y-71725094D01*
X130222120Y-72093341D01*
X130218647Y-72389519D01*
X130213451Y-72619924D01*
X130206341Y-72790851D01*
X130197123Y-72908595D01*
X130185605Y-72979451D01*
X130171750Y-73009590D01*
X130097246Y-73047961D01*
X129959687Y-73099836D01*
X129778432Y-73159306D01*
X129572836Y-73220464D01*
X129362256Y-73277400D01*
X129166050Y-73324207D01*
X129088526Y-73340213D01*
X128774450Y-73382214D01*
X128428482Y-73397237D01*
X128082077Y-73385821D01*
X127766690Y-73348504D01*
X127609124Y-73314877D01*
X127254941Y-73199270D01*
X126937552Y-73042919D01*
X126635776Y-72833136D01*
X126328431Y-72557232D01*
X126304226Y-72533181D01*
X126127815Y-72351858D01*
X125996372Y-72201011D01*
X125891314Y-72055172D01*
X125794060Y-71888872D01*
X125700025Y-71705073D01*
X125481423Y-71174165D01*
X125324188Y-70599620D01*
X125229891Y-69997740D01*
X125200102Y-69384827D01*
X125236391Y-68777183D01*
X125340329Y-68191110D01*
X125355657Y-68129834D01*
X125491250Y-67717511D01*
X125679559Y-67311104D01*
X125909266Y-66928660D01*
X126169052Y-66588227D01*
X126447597Y-66307853D01*
X126550212Y-66225151D01*
X126760150Y-66074784D01*
X126943958Y-65964362D01*
X127135482Y-65876557D01*
X127368568Y-65794040D01*
X127431179Y-65774124D01*
X127567880Y-65734527D01*
X127696432Y-65706893D01*
X127836989Y-65689159D01*
X128009705Y-65679265D01*
X128234733Y-65675150D01*
X128404334Y-65674597D01*
X128706800Y-65677400D01*
X128706800Y-65677400D01*
G37*
X128706800Y-65677400D02*
X128950536Y-65688493D01*
X129161366Y-65711746D01*
X129365111Y-65751032D01*
X129587592Y-65810222D01*
X129848123Y-65891090D01*
X130047574Y-65956390D01*
X130179342Y-66010864D01*
X130255576Y-66071892D01*
X130288423Y-66156855D01*
X130290030Y-66283133D01*
X130272546Y-66468106D01*
X130269809Y-66494420D01*
X130250113Y-66668324D01*
X130231114Y-66807796D01*
X130215645Y-66893241D01*
X130209712Y-66910066D01*
X130168977Y-66896724D01*
X130082380Y-66842803D01*
X129988776Y-66775029D01*
X129603073Y-66523603D01*
X129204586Y-66352230D01*
X128779912Y-66256427D01*
X128362000Y-66231126D01*
X127901878Y-66267527D01*
X127490924Y-66371411D01*
X127128016Y-66543722D01*
X126812028Y-66785404D01*
X126541836Y-67097399D01*
X126316317Y-67480651D01*
X126134346Y-67936102D01*
X126069063Y-68154906D01*
X126033980Y-68293314D01*
X126008413Y-68423640D01*
X125990906Y-68563323D01*
X125980000Y-68729800D01*
X125974235Y-68940509D01*
X125972155Y-69212888D01*
X125972029Y-69315167D01*
X125973229Y-69614904D01*
X125977975Y-69847989D01*
X125987710Y-70032411D01*
X126003877Y-70186159D01*
X126027921Y-70327221D01*
X126061284Y-70473585D01*
X126066722Y-70495293D01*
X126221914Y-70979906D01*
X126428868Y-71420381D01*
X126681909Y-71810197D01*
X126975365Y-72142835D01*
X127303560Y-72411774D01*
X127660822Y-72610494D01*
X128007049Y-72724956D01*
X128221249Y-72758434D01*
X128462883Y-72771175D01*
X128715387Y-72765147D01*
X128962196Y-72742322D01*
X129186745Y-72704670D01*
X129372469Y-72654161D01*
X129502804Y-72592766D01*
X129554150Y-72540931D01*
X129568133Y-72485729D01*
X129578290Y-72376048D01*
X129584705Y-72206503D01*
X129587462Y-71971709D01*
X129586648Y-71666279D01*
X129582348Y-71284829D01*
X129578183Y-71020408D01*
X129553811Y-69590334D01*
X130224667Y-69590334D01*
X130224667Y-71278483D01*
X130224062Y-71725094D01*
X130222120Y-72093341D01*
X130218647Y-72389519D01*
X130213451Y-72619924D01*
X130206341Y-72790851D01*
X130197123Y-72908595D01*
X130185605Y-72979451D01*
X130171750Y-73009590D01*
X130097246Y-73047961D01*
X129959687Y-73099836D01*
X129778432Y-73159306D01*
X129572836Y-73220464D01*
X129362256Y-73277400D01*
X129166050Y-73324207D01*
X129088526Y-73340213D01*
X128774450Y-73382214D01*
X128428482Y-73397237D01*
X128082077Y-73385821D01*
X127766690Y-73348504D01*
X127609124Y-73314877D01*
X127254941Y-73199270D01*
X126937552Y-73042919D01*
X126635776Y-72833136D01*
X126328431Y-72557232D01*
X126304226Y-72533181D01*
X126127815Y-72351858D01*
X125996372Y-72201011D01*
X125891314Y-72055172D01*
X125794060Y-71888872D01*
X125700025Y-71705073D01*
X125481423Y-71174165D01*
X125324188Y-70599620D01*
X125229891Y-69997740D01*
X125200102Y-69384827D01*
X125236391Y-68777183D01*
X125340329Y-68191110D01*
X125355657Y-68129834D01*
X125491250Y-67717511D01*
X125679559Y-67311104D01*
X125909266Y-66928660D01*
X126169052Y-66588227D01*
X126447597Y-66307853D01*
X126550212Y-66225151D01*
X126760150Y-66074784D01*
X126943958Y-65964362D01*
X127135482Y-65876557D01*
X127368568Y-65794040D01*
X127431179Y-65774124D01*
X127567880Y-65734527D01*
X127696432Y-65706893D01*
X127836989Y-65689159D01*
X128009705Y-65679265D01*
X128234733Y-65675150D01*
X128404334Y-65674597D01*
X128706800Y-65677400D01*
G36*
X109705976Y-65785241D02*
G01*
X109978551Y-65790765D01*
X110237284Y-65798995D01*
X110468111Y-65809863D01*
X110651352Y-65822800D01*
X111122054Y-65889724D01*
X111534443Y-66005501D01*
X111903573Y-66176721D01*
X112244496Y-66409973D01*
X112488090Y-66627000D01*
X112802239Y-66993370D01*
X113057725Y-67419475D01*
X113253187Y-67902717D01*
X113354541Y-68278000D01*
X113397385Y-68535753D01*
X113428446Y-68852885D01*
X113447154Y-69204852D01*
X113452940Y-69567112D01*
X113445232Y-69915124D01*
X113423461Y-70224344D01*
X113403391Y-70381173D01*
X113288361Y-70912139D01*
X113119461Y-71408494D01*
X112901728Y-71862230D01*
X112640202Y-72265339D01*
X112339920Y-72609811D01*
X112005921Y-72887637D01*
X111721375Y-73054810D01*
X111377391Y-73195059D01*
X111011911Y-73296483D01*
X110657838Y-73350935D01*
X110497098Y-73358000D01*
X110281627Y-73358000D01*
X110294230Y-73093417D01*
X110306834Y-72828834D01*
X110607234Y-72801982D01*
X111032587Y-72729110D01*
X111413478Y-72592265D01*
X111743175Y-72394680D01*
X112014947Y-72139589D01*
X112034235Y-72116489D01*
X112281367Y-71753021D01*
X112481368Y-71328470D01*
X112631589Y-70853792D01*
X112729381Y-70339942D01*
X112772097Y-69797876D01*
X112757088Y-69238551D01*
X112749890Y-69155902D01*
X112670272Y-68587808D01*
X112544469Y-68088683D01*
X112370212Y-67655106D01*
X112145234Y-67283661D01*
X111867266Y-66970928D01*
X111534040Y-66713489D01*
X111143288Y-66507926D01*
X110940219Y-66428649D01*
X110803432Y-66382364D01*
X110685292Y-66349882D01*
X110565753Y-66328780D01*
X110424767Y-66316637D01*
X110242291Y-66311031D01*
X109998277Y-66309540D01*
X109954163Y-66309521D01*
X109704496Y-66310333D01*
X109525859Y-66313842D01*
X109404623Y-66321625D01*
X109327158Y-66335262D01*
X109279836Y-66356332D01*
X109249026Y-66386415D01*
X109245079Y-66391675D01*
X109233968Y-66417385D01*
X109224271Y-66465604D01*
X109215897Y-66541584D01*
X109208756Y-66650574D01*
X109202756Y-66797825D01*
X109197809Y-66988588D01*
X109193822Y-67228113D01*
X109190705Y-67521652D01*
X109188368Y-67874453D01*
X109186720Y-68291769D01*
X109185671Y-68778850D01*
X109185129Y-69340946D01*
X109185000Y-69873591D01*
X109185000Y-73273334D01*
X109026250Y-73272868D01*
X108868730Y-73265063D01*
X108714346Y-73247070D01*
X108561192Y-73221738D01*
X108541277Y-69532786D01*
X108537821Y-68825200D01*
X108535556Y-68199592D01*
X108534503Y-67653282D01*
X108534679Y-67183588D01*
X108536104Y-66787831D01*
X108538796Y-66463330D01*
X108542774Y-66207404D01*
X108548058Y-66017372D01*
X108554665Y-65890554D01*
X108562616Y-65824271D01*
X108567431Y-65812732D01*
X108627712Y-65800592D01*
X108758536Y-65791566D01*
X108945838Y-65785586D01*
X109175555Y-65782584D01*
X109433622Y-65782491D01*
X109705976Y-65785241D01*
X109705976Y-65785241D01*
G37*
X109705976Y-65785241D02*
X109978551Y-65790765D01*
X110237284Y-65798995D01*
X110468111Y-65809863D01*
X110651352Y-65822800D01*
X111122054Y-65889724D01*
X111534443Y-66005501D01*
X111903573Y-66176721D01*
X112244496Y-66409973D01*
X112488090Y-66627000D01*
X112802239Y-66993370D01*
X113057725Y-67419475D01*
X113253187Y-67902717D01*
X113354541Y-68278000D01*
X113397385Y-68535753D01*
X113428446Y-68852885D01*
X113447154Y-69204852D01*
X113452940Y-69567112D01*
X113445232Y-69915124D01*
X113423461Y-70224344D01*
X113403391Y-70381173D01*
X113288361Y-70912139D01*
X113119461Y-71408494D01*
X112901728Y-71862230D01*
X112640202Y-72265339D01*
X112339920Y-72609811D01*
X112005921Y-72887637D01*
X111721375Y-73054810D01*
X111377391Y-73195059D01*
X111011911Y-73296483D01*
X110657838Y-73350935D01*
X110497098Y-73358000D01*
X110281627Y-73358000D01*
X110294230Y-73093417D01*
X110306834Y-72828834D01*
X110607234Y-72801982D01*
X111032587Y-72729110D01*
X111413478Y-72592265D01*
X111743175Y-72394680D01*
X112014947Y-72139589D01*
X112034235Y-72116489D01*
X112281367Y-71753021D01*
X112481368Y-71328470D01*
X112631589Y-70853792D01*
X112729381Y-70339942D01*
X112772097Y-69797876D01*
X112757088Y-69238551D01*
X112749890Y-69155902D01*
X112670272Y-68587808D01*
X112544469Y-68088683D01*
X112370212Y-67655106D01*
X112145234Y-67283661D01*
X111867266Y-66970928D01*
X111534040Y-66713489D01*
X111143288Y-66507926D01*
X110940219Y-66428649D01*
X110803432Y-66382364D01*
X110685292Y-66349882D01*
X110565753Y-66328780D01*
X110424767Y-66316637D01*
X110242291Y-66311031D01*
X109998277Y-66309540D01*
X109954163Y-66309521D01*
X109704496Y-66310333D01*
X109525859Y-66313842D01*
X109404623Y-66321625D01*
X109327158Y-66335262D01*
X109279836Y-66356332D01*
X109249026Y-66386415D01*
X109245079Y-66391675D01*
X109233968Y-66417385D01*
X109224271Y-66465604D01*
X109215897Y-66541584D01*
X109208756Y-66650574D01*
X109202756Y-66797825D01*
X109197809Y-66988588D01*
X109193822Y-67228113D01*
X109190705Y-67521652D01*
X109188368Y-67874453D01*
X109186720Y-68291769D01*
X109185671Y-68778850D01*
X109185129Y-69340946D01*
X109185000Y-69873591D01*
X109185000Y-73273334D01*
X109026250Y-73272868D01*
X108868730Y-73265063D01*
X108714346Y-73247070D01*
X108561192Y-73221738D01*
X108541277Y-69532786D01*
X108537821Y-68825200D01*
X108535556Y-68199592D01*
X108534503Y-67653282D01*
X108534679Y-67183588D01*
X108536104Y-66787831D01*
X108538796Y-66463330D01*
X108542774Y-66207404D01*
X108548058Y-66017372D01*
X108554665Y-65890554D01*
X108562616Y-65824271D01*
X108567431Y-65812732D01*
X108627712Y-65800592D01*
X108758536Y-65791566D01*
X108945838Y-65785586D01*
X109175555Y-65782584D01*
X109433622Y-65782491D01*
X109705976Y-65785241D01*
G36*
X115937167Y-65791126D02*
G01*
X116272506Y-65799281D01*
X116535035Y-65808726D01*
X116736609Y-65820407D01*
X116889084Y-65835271D01*
X117004314Y-65854264D01*
X117094155Y-65878332D01*
X117113420Y-65885029D01*
X117345481Y-66007099D01*
X117571631Y-66194952D01*
X117773566Y-66430612D01*
X117926994Y-66683809D01*
X118094915Y-67117108D01*
X118181609Y-67562934D01*
X118188070Y-68013611D01*
X118115293Y-68461466D01*
X117964272Y-68898824D01*
X117736002Y-69318012D01*
X117553097Y-69569167D01*
X117447010Y-69704058D01*
X117364961Y-69814791D01*
X117319116Y-69884646D01*
X117313536Y-69898417D01*
X117334108Y-69948597D01*
X117392163Y-70060508D01*
X117481442Y-70223387D01*
X117595688Y-70426475D01*
X117728642Y-70659010D01*
X117874045Y-70910229D01*
X118025639Y-71169372D01*
X118177165Y-71425678D01*
X118322365Y-71668384D01*
X118454980Y-71886730D01*
X118568753Y-72069955D01*
X118648474Y-72193834D01*
X118787863Y-72399532D01*
X118934817Y-72608131D01*
X119071150Y-72794250D01*
X119171957Y-72924297D01*
X119272482Y-73052214D01*
X119347953Y-73156492D01*
X119385416Y-73218964D01*
X119387334Y-73226276D01*
X119349393Y-73271537D01*
X119250033Y-73299995D01*
X119110945Y-73310998D01*
X118953822Y-73303894D01*
X118800356Y-73278030D01*
X118702895Y-73246845D01*
X118595986Y-73172591D01*
X118457196Y-73028540D01*
X118291044Y-72821339D01*
X118102046Y-72557634D01*
X117894720Y-72244072D01*
X117673583Y-71887301D01*
X117443152Y-71493967D01*
X117207944Y-71070717D01*
X117147058Y-70957515D01*
X116982371Y-70644095D01*
X116859310Y-70392479D01*
X116776572Y-70191498D01*
X116732850Y-70029982D01*
X116726841Y-69896760D01*
X116757239Y-69780662D01*
X116822739Y-69670518D01*
X116922037Y-69555158D01*
X116976711Y-69499258D01*
X117220184Y-69199248D01*
X117394960Y-68853790D01*
X117501996Y-68460317D01*
X117542248Y-68016263D01*
X117542598Y-67981667D01*
X117515365Y-67584795D01*
X117431969Y-67229424D01*
X117296058Y-66923317D01*
X117111282Y-66674236D01*
X116881289Y-66489946D01*
X116827443Y-66460128D01*
X116726786Y-66412408D01*
X116631956Y-66381109D01*
X116521098Y-66362843D01*
X116372355Y-66354223D01*
X116163872Y-66351858D01*
X116128943Y-66351834D01*
X115640834Y-66351834D01*
X115646635Y-69791417D01*
X115652437Y-73231000D01*
X115307969Y-73231001D01*
X114963500Y-73231002D01*
X114963500Y-65770845D01*
X115937167Y-65791126D01*
X115937167Y-65791126D01*
G37*
X115937167Y-65791126D02*
X116272506Y-65799281D01*
X116535035Y-65808726D01*
X116736609Y-65820407D01*
X116889084Y-65835271D01*
X117004314Y-65854264D01*
X117094155Y-65878332D01*
X117113420Y-65885029D01*
X117345481Y-66007099D01*
X117571631Y-66194952D01*
X117773566Y-66430612D01*
X117926994Y-66683809D01*
X118094915Y-67117108D01*
X118181609Y-67562934D01*
X118188070Y-68013611D01*
X118115293Y-68461466D01*
X117964272Y-68898824D01*
X117736002Y-69318012D01*
X117553097Y-69569167D01*
X117447010Y-69704058D01*
X117364961Y-69814791D01*
X117319116Y-69884646D01*
X117313536Y-69898417D01*
X117334108Y-69948597D01*
X117392163Y-70060508D01*
X117481442Y-70223387D01*
X117595688Y-70426475D01*
X117728642Y-70659010D01*
X117874045Y-70910229D01*
X118025639Y-71169372D01*
X118177165Y-71425678D01*
X118322365Y-71668384D01*
X118454980Y-71886730D01*
X118568753Y-72069955D01*
X118648474Y-72193834D01*
X118787863Y-72399532D01*
X118934817Y-72608131D01*
X119071150Y-72794250D01*
X119171957Y-72924297D01*
X119272482Y-73052214D01*
X119347953Y-73156492D01*
X119385416Y-73218964D01*
X119387334Y-73226276D01*
X119349393Y-73271537D01*
X119250033Y-73299995D01*
X119110945Y-73310998D01*
X118953822Y-73303894D01*
X118800356Y-73278030D01*
X118702895Y-73246845D01*
X118595986Y-73172591D01*
X118457196Y-73028540D01*
X118291044Y-72821339D01*
X118102046Y-72557634D01*
X117894720Y-72244072D01*
X117673583Y-71887301D01*
X117443152Y-71493967D01*
X117207944Y-71070717D01*
X117147058Y-70957515D01*
X116982371Y-70644095D01*
X116859310Y-70392479D01*
X116776572Y-70191498D01*
X116732850Y-70029982D01*
X116726841Y-69896760D01*
X116757239Y-69780662D01*
X116822739Y-69670518D01*
X116922037Y-69555158D01*
X116976711Y-69499258D01*
X117220184Y-69199248D01*
X117394960Y-68853790D01*
X117501996Y-68460317D01*
X117542248Y-68016263D01*
X117542598Y-67981667D01*
X117515365Y-67584795D01*
X117431969Y-67229424D01*
X117296058Y-66923317D01*
X117111282Y-66674236D01*
X116881289Y-66489946D01*
X116827443Y-66460128D01*
X116726786Y-66412408D01*
X116631956Y-66381109D01*
X116521098Y-66362843D01*
X116372355Y-66354223D01*
X116163872Y-66351858D01*
X116128943Y-66351834D01*
X115640834Y-66351834D01*
X115646635Y-69791417D01*
X115652437Y-73231000D01*
X115307969Y-73231001D01*
X114963500Y-73231002D01*
X114963500Y-65770845D01*
X115937167Y-65791126D01*
G36*
X122029742Y-65692134D02*
G01*
X122079263Y-65799174D01*
X122143310Y-65962627D01*
X122216940Y-66170163D01*
X122266701Y-66320084D01*
X122315083Y-66469319D01*
X122387078Y-66691056D01*
X122480082Y-66977290D01*
X122591491Y-67320018D01*
X122718703Y-67711234D01*
X122859115Y-68142935D01*
X123010123Y-68607116D01*
X123169125Y-69095773D01*
X123333517Y-69600902D01*
X123496096Y-70100368D01*
X123656665Y-70593985D01*
X123809397Y-71064243D01*
X123952294Y-71504937D01*
X124083353Y-71909864D01*
X124200575Y-72272819D01*
X124301958Y-72587598D01*
X124385503Y-72847997D01*
X124449208Y-73047811D01*
X124491073Y-73180837D01*
X124509098Y-73240871D01*
X124509667Y-73243618D01*
X124471546Y-73264141D01*
X124372627Y-73274725D01*
X124236076Y-73276313D01*
X124085062Y-73269847D01*
X123942749Y-73256268D01*
X123832306Y-73236519D01*
X123778952Y-73213904D01*
X123753203Y-73160384D01*
X123707093Y-73035388D01*
X123643827Y-72848765D01*
X123566607Y-72610361D01*
X123478637Y-72330021D01*
X123383121Y-72017594D01*
X123307228Y-71763987D01*
X123190204Y-71369853D01*
X123066663Y-70954730D01*
X122938981Y-70526538D01*
X122809538Y-70093194D01*
X122680713Y-69662616D01*
X122554883Y-69242720D01*
X122434427Y-68841426D01*
X122321724Y-68466650D01*
X122219152Y-68126311D01*
X122129090Y-67828325D01*
X122053916Y-67580611D01*
X121996010Y-67391085D01*
X121957748Y-67267667D01*
X121942080Y-67219667D01*
X121919331Y-67222564D01*
X121882893Y-67295494D01*
X121838849Y-67426161D01*
X121837331Y-67431334D01*
X121749025Y-67737615D01*
X121643475Y-68110516D01*
X121524864Y-68534748D01*
X121397380Y-68995019D01*
X121265206Y-69476041D01*
X121132528Y-69962523D01*
X121003532Y-70439176D01*
X120882401Y-70890709D01*
X120773323Y-71301834D01*
X120680481Y-71657259D01*
X120678568Y-71664667D01*
X120595919Y-71984638D01*
X120518334Y-72284889D01*
X120448838Y-72553720D01*
X120390455Y-72779434D01*
X120346212Y-72950333D01*
X120319133Y-73054718D01*
X120314564Y-73072250D01*
X120273070Y-73231000D01*
X119952673Y-73231000D01*
X119781336Y-73227064D01*
X119683678Y-73214012D01*
X119649019Y-73189978D01*
X119649973Y-73178084D01*
X119664658Y-73130716D01*
X119702301Y-73008121D01*
X119761142Y-72816048D01*
X119839425Y-72560249D01*
X119935391Y-72246474D01*
X120047282Y-71880473D01*
X120173341Y-71467998D01*
X120311808Y-71014800D01*
X120460926Y-70526628D01*
X120618937Y-70009235D01*
X120784083Y-69468370D01*
X120808085Y-69389753D01*
X120999448Y-68764735D01*
X121177757Y-68185939D01*
X121341837Y-67657054D01*
X121490509Y-67181772D01*
X121622596Y-66763783D01*
X121736922Y-66406779D01*
X121832308Y-66114449D01*
X121907578Y-65890485D01*
X121961555Y-65738578D01*
X121993061Y-65662418D01*
X121999688Y-65653836D01*
X122029742Y-65692134D01*
X122029742Y-65692134D01*
G37*
X122029742Y-65692134D02*
X122079263Y-65799174D01*
X122143310Y-65962627D01*
X122216940Y-66170163D01*
X122266701Y-66320084D01*
X122315083Y-66469319D01*
X122387078Y-66691056D01*
X122480082Y-66977290D01*
X122591491Y-67320018D01*
X122718703Y-67711234D01*
X122859115Y-68142935D01*
X123010123Y-68607116D01*
X123169125Y-69095773D01*
X123333517Y-69600902D01*
X123496096Y-70100368D01*
X123656665Y-70593985D01*
X123809397Y-71064243D01*
X123952294Y-71504937D01*
X124083353Y-71909864D01*
X124200575Y-72272819D01*
X124301958Y-72587598D01*
X124385503Y-72847997D01*
X124449208Y-73047811D01*
X124491073Y-73180837D01*
X124509098Y-73240871D01*
X124509667Y-73243618D01*
X124471546Y-73264141D01*
X124372627Y-73274725D01*
X124236076Y-73276313D01*
X124085062Y-73269847D01*
X123942749Y-73256268D01*
X123832306Y-73236519D01*
X123778952Y-73213904D01*
X123753203Y-73160384D01*
X123707093Y-73035388D01*
X123643827Y-72848765D01*
X123566607Y-72610361D01*
X123478637Y-72330021D01*
X123383121Y-72017594D01*
X123307228Y-71763987D01*
X123190204Y-71369853D01*
X123066663Y-70954730D01*
X122938981Y-70526538D01*
X122809538Y-70093194D01*
X122680713Y-69662616D01*
X122554883Y-69242720D01*
X122434427Y-68841426D01*
X122321724Y-68466650D01*
X122219152Y-68126311D01*
X122129090Y-67828325D01*
X122053916Y-67580611D01*
X121996010Y-67391085D01*
X121957748Y-67267667D01*
X121942080Y-67219667D01*
X121919331Y-67222564D01*
X121882893Y-67295494D01*
X121838849Y-67426161D01*
X121837331Y-67431334D01*
X121749025Y-67737615D01*
X121643475Y-68110516D01*
X121524864Y-68534748D01*
X121397380Y-68995019D01*
X121265206Y-69476041D01*
X121132528Y-69962523D01*
X121003532Y-70439176D01*
X120882401Y-70890709D01*
X120773323Y-71301834D01*
X120680481Y-71657259D01*
X120678568Y-71664667D01*
X120595919Y-71984638D01*
X120518334Y-72284889D01*
X120448838Y-72553720D01*
X120390455Y-72779434D01*
X120346212Y-72950333D01*
X120319133Y-73054718D01*
X120314564Y-73072250D01*
X120273070Y-73231000D01*
X119952673Y-73231000D01*
X119781336Y-73227064D01*
X119683678Y-73214012D01*
X119649019Y-73189978D01*
X119649973Y-73178084D01*
X119664658Y-73130716D01*
X119702301Y-73008121D01*
X119761142Y-72816048D01*
X119839425Y-72560249D01*
X119935391Y-72246474D01*
X120047282Y-71880473D01*
X120173341Y-71467998D01*
X120311808Y-71014800D01*
X120460926Y-70526628D01*
X120618937Y-70009235D01*
X120784083Y-69468370D01*
X120808085Y-69389753D01*
X120999448Y-68764735D01*
X121177757Y-68185939D01*
X121341837Y-67657054D01*
X121490509Y-67181772D01*
X121622596Y-66763783D01*
X121736922Y-66406779D01*
X121832308Y-66114449D01*
X121907578Y-65890485D01*
X121961555Y-65738578D01*
X121993061Y-65662418D01*
X121999688Y-65653836D01*
X122029742Y-65692134D01*
G36*
X136998000Y-66944500D02*
G01*
X136976834Y-66965667D01*
X136955667Y-66944500D01*
X136976834Y-66923334D01*
X136998000Y-66944500D01*
X136998000Y-66944500D01*
G37*
X136998000Y-66944500D02*
X136976834Y-66965667D01*
X136955667Y-66944500D01*
X136976834Y-66923334D01*
X136998000Y-66944500D01*
D11*
X137500000Y-96500000D03*
D12*
X137500000Y-93960000D03*
D11*
X173500000Y-123500000D03*
D12*
X173500000Y-120960000D03*
X173500000Y-118420000D03*
X173500000Y-115880000D03*
X173500000Y-113340000D03*
D13*
X149000000Y-128000000D03*
D14*
G36*
X148791261Y-129183819D02*
G01*
X147816181Y-127791261D01*
X149208739Y-126816181D01*
X150183819Y-128208739D01*
X148791261Y-129183819D01*
X148791261Y-129183819D01*
G37*
D13*
X151080646Y-126543116D03*
D15*
X151080646Y-126543116D02*
X151080646Y-126543116D01*
D13*
X147543116Y-125919354D03*
D15*
X147543116Y-125919354D02*
X147543116Y-125919354D01*
D13*
X149623762Y-124462470D03*
D15*
X149623762Y-124462470D02*
X149623762Y-124462470D01*
D13*
X146086232Y-123838708D03*
D15*
X146086232Y-123838708D02*
X146086232Y-123838708D01*
D13*
X148166878Y-122381823D03*
D15*
X148166878Y-122381823D02*
X148166878Y-122381823D01*
D13*
X144629348Y-121758061D03*
D15*
X144629348Y-121758061D02*
X144629348Y-121758061D01*
D13*
X146709994Y-120301177D03*
D15*
X146709994Y-120301177D02*
X146709994Y-120301177D01*
D13*
X143172463Y-119677415D03*
D15*
X143172463Y-119677415D02*
X143172463Y-119677415D01*
D13*
X145253110Y-118220531D03*
D15*
X145253110Y-118220531D02*
X145253110Y-118220531D01*
D11*
X177500000Y-123580000D03*
D12*
X177500000Y-121040000D03*
X177500000Y-118500000D03*
X177500000Y-115960000D03*
D16*
X165820000Y-129500000D03*
X157180000Y-129500000D03*
D17*
X165820000Y-133650000D03*
X157180000Y-133650000D03*
M02*
