G04 #@! TF.GenerationSoftware,KiCad,Pcbnew,5.1.2*
G04 #@! TF.CreationDate,2019-06-26T09:28:03-05:00*
G04 #@! TF.ProjectId,LN4890,4c4e3438-3930-42e6-9b69-6361645f7063,rev?*
G04 #@! TF.SameCoordinates,Original*
G04 #@! TF.FileFunction,Legend,Top*
G04 #@! TF.FilePolarity,Positive*
%FSLAX46Y46*%
G04 Gerber Fmt 4.6, Leading zero omitted, Abs format (unit mm)*
G04 Created by KiCad (PCBNEW 5.1.2) date 2019-06-26 09:28:03*
%MOMM*%
%LPD*%
G04 APERTURE LIST*
%ADD10C,0.150000*%
%ADD11C,0.120000*%
G04 APERTURE END LIST*
D10*
X131571428Y-93428571D02*
X130857142Y-93428571D01*
X130857142Y-91928571D01*
X132071428Y-93428571D02*
X132071428Y-91928571D01*
X132928571Y-93428571D01*
X132928571Y-91928571D01*
X134285714Y-92428571D02*
X134285714Y-93428571D01*
X133928571Y-91857142D02*
X133571428Y-92928571D01*
X134500000Y-92928571D01*
X135285714Y-92571428D02*
X135142857Y-92500000D01*
X135071428Y-92428571D01*
X135000000Y-92285714D01*
X135000000Y-92214285D01*
X135071428Y-92071428D01*
X135142857Y-92000000D01*
X135285714Y-91928571D01*
X135571428Y-91928571D01*
X135714285Y-92000000D01*
X135785714Y-92071428D01*
X135857142Y-92214285D01*
X135857142Y-92285714D01*
X135785714Y-92428571D01*
X135714285Y-92500000D01*
X135571428Y-92571428D01*
X135285714Y-92571428D01*
X135142857Y-92642857D01*
X135071428Y-92714285D01*
X135000000Y-92857142D01*
X135000000Y-93142857D01*
X135071428Y-93285714D01*
X135142857Y-93357142D01*
X135285714Y-93428571D01*
X135571428Y-93428571D01*
X135714285Y-93357142D01*
X135785714Y-93285714D01*
X135857142Y-93142857D01*
X135857142Y-92857142D01*
X135785714Y-92714285D01*
X135714285Y-92642857D01*
X135571428Y-92571428D01*
X136571428Y-93428571D02*
X136857142Y-93428571D01*
X137000000Y-93357142D01*
X137071428Y-93285714D01*
X137214285Y-93071428D01*
X137285714Y-92785714D01*
X137285714Y-92214285D01*
X137214285Y-92071428D01*
X137142857Y-92000000D01*
X137000000Y-91928571D01*
X136714285Y-91928571D01*
X136571428Y-92000000D01*
X136500000Y-92071428D01*
X136428571Y-92214285D01*
X136428571Y-92571428D01*
X136500000Y-92714285D01*
X136571428Y-92785714D01*
X136714285Y-92857142D01*
X137000000Y-92857142D01*
X137142857Y-92785714D01*
X137214285Y-92714285D01*
X137285714Y-92571428D01*
X138214285Y-91928571D02*
X138357142Y-91928571D01*
X138500000Y-92000000D01*
X138571428Y-92071428D01*
X138642857Y-92214285D01*
X138714285Y-92500000D01*
X138714285Y-92857142D01*
X138642857Y-93142857D01*
X138571428Y-93285714D01*
X138500000Y-93357142D01*
X138357142Y-93428571D01*
X138214285Y-93428571D01*
X138071428Y-93357142D01*
X138000000Y-93285714D01*
X137928571Y-93142857D01*
X137857142Y-92857142D01*
X137857142Y-92500000D01*
X137928571Y-92214285D01*
X138000000Y-92071428D01*
X138071428Y-92000000D01*
X138214285Y-91928571D01*
X141357142Y-93285714D02*
X141285714Y-93357142D01*
X141071428Y-93428571D01*
X140928571Y-93428571D01*
X140714285Y-93357142D01*
X140571428Y-93214285D01*
X140500000Y-93071428D01*
X140428571Y-92785714D01*
X140428571Y-92571428D01*
X140500000Y-92285714D01*
X140571428Y-92142857D01*
X140714285Y-92000000D01*
X140928571Y-91928571D01*
X141071428Y-91928571D01*
X141285714Y-92000000D01*
X141357142Y-92071428D01*
X142214285Y-93428571D02*
X142071428Y-93357142D01*
X142000000Y-93214285D01*
X142000000Y-91928571D01*
X143428571Y-93428571D02*
X143428571Y-92642857D01*
X143357142Y-92500000D01*
X143214285Y-92428571D01*
X142928571Y-92428571D01*
X142785714Y-92500000D01*
X143428571Y-93357142D02*
X143285714Y-93428571D01*
X142928571Y-93428571D01*
X142785714Y-93357142D01*
X142714285Y-93214285D01*
X142714285Y-93071428D01*
X142785714Y-92928571D01*
X142928571Y-92857142D01*
X143285714Y-92857142D01*
X143428571Y-92785714D01*
X144071428Y-93357142D02*
X144214285Y-93428571D01*
X144500000Y-93428571D01*
X144642857Y-93357142D01*
X144714285Y-93214285D01*
X144714285Y-93142857D01*
X144642857Y-93000000D01*
X144500000Y-92928571D01*
X144285714Y-92928571D01*
X144142857Y-92857142D01*
X144071428Y-92714285D01*
X144071428Y-92642857D01*
X144142857Y-92500000D01*
X144285714Y-92428571D01*
X144500000Y-92428571D01*
X144642857Y-92500000D01*
X145285714Y-93357142D02*
X145428571Y-93428571D01*
X145714285Y-93428571D01*
X145857142Y-93357142D01*
X145928571Y-93214285D01*
X145928571Y-93142857D01*
X145857142Y-93000000D01*
X145714285Y-92928571D01*
X145500000Y-92928571D01*
X145357142Y-92857142D01*
X145285714Y-92714285D01*
X145285714Y-92642857D01*
X145357142Y-92500000D01*
X145500000Y-92428571D01*
X145714285Y-92428571D01*
X145857142Y-92500000D01*
X147714285Y-93428571D02*
X147714285Y-91928571D01*
X148071428Y-91928571D01*
X148285714Y-92000000D01*
X148428571Y-92142857D01*
X148500000Y-92285714D01*
X148571428Y-92571428D01*
X148571428Y-92785714D01*
X148500000Y-93071428D01*
X148428571Y-93214285D01*
X148285714Y-93357142D01*
X148071428Y-93428571D01*
X147714285Y-93428571D01*
X150285714Y-93000000D02*
X151000000Y-93000000D01*
X150142857Y-93428571D02*
X150642857Y-91928571D01*
X151142857Y-93428571D01*
X151642857Y-93428571D02*
X151642857Y-92428571D01*
X151642857Y-92571428D02*
X151714285Y-92500000D01*
X151857142Y-92428571D01*
X152071428Y-92428571D01*
X152214285Y-92500000D01*
X152285714Y-92642857D01*
X152285714Y-93428571D01*
X152285714Y-92642857D02*
X152357142Y-92500000D01*
X152500000Y-92428571D01*
X152714285Y-92428571D01*
X152857142Y-92500000D01*
X152928571Y-92642857D01*
X152928571Y-93428571D01*
X153642857Y-92428571D02*
X153642857Y-93928571D01*
X153642857Y-92500000D02*
X153785714Y-92428571D01*
X154071428Y-92428571D01*
X154214285Y-92500000D01*
X154285714Y-92571428D01*
X154357142Y-92714285D01*
X154357142Y-93142857D01*
X154285714Y-93285714D01*
X154214285Y-93357142D01*
X154071428Y-93428571D01*
X153785714Y-93428571D01*
X153642857Y-93357142D01*
X155928571Y-91928571D02*
X156785714Y-91928571D01*
X156357142Y-93428571D02*
X156357142Y-91928571D01*
X157857142Y-93357142D02*
X157714285Y-93428571D01*
X157428571Y-93428571D01*
X157285714Y-93357142D01*
X157214285Y-93214285D01*
X157214285Y-92642857D01*
X157285714Y-92500000D01*
X157428571Y-92428571D01*
X157714285Y-92428571D01*
X157857142Y-92500000D01*
X157928571Y-92642857D01*
X157928571Y-92785714D01*
X157214285Y-92928571D01*
X158500000Y-93357142D02*
X158642857Y-93428571D01*
X158928571Y-93428571D01*
X159071428Y-93357142D01*
X159142857Y-93214285D01*
X159142857Y-93142857D01*
X159071428Y-93000000D01*
X158928571Y-92928571D01*
X158714285Y-92928571D01*
X158571428Y-92857142D01*
X158500000Y-92714285D01*
X158500000Y-92642857D01*
X158571428Y-92500000D01*
X158714285Y-92428571D01*
X158928571Y-92428571D01*
X159071428Y-92500000D01*
X159571428Y-92428571D02*
X160142857Y-92428571D01*
X159785714Y-91928571D02*
X159785714Y-93214285D01*
X159857142Y-93357142D01*
X160000000Y-93428571D01*
X160142857Y-93428571D01*
X161214285Y-93357142D02*
X161071428Y-93428571D01*
X160785714Y-93428571D01*
X160642857Y-93357142D01*
X160571428Y-93214285D01*
X160571428Y-92642857D01*
X160642857Y-92500000D01*
X160785714Y-92428571D01*
X161071428Y-92428571D01*
X161214285Y-92500000D01*
X161285714Y-92642857D01*
X161285714Y-92785714D01*
X160571428Y-92928571D01*
X161928571Y-93428571D02*
X161928571Y-92428571D01*
X161928571Y-92714285D02*
X162000000Y-92571428D01*
X162071428Y-92500000D01*
X162214285Y-92428571D01*
X162357142Y-92428571D01*
D11*
X136758578Y-82040000D02*
X136241422Y-82040000D01*
X136758578Y-83460000D02*
X136241422Y-83460000D01*
X135821078Y-90210000D02*
X135303922Y-90210000D01*
X135821078Y-88790000D02*
X135303922Y-88790000D01*
X144178922Y-79790000D02*
X144696078Y-79790000D01*
X144178922Y-81210000D02*
X144696078Y-81210000D01*
X162550000Y-79600000D02*
X149950000Y-79600000D01*
X149950000Y-79600000D02*
X149950000Y-89950000D01*
X149950000Y-89950000D02*
X150900000Y-89950000D01*
X150900000Y-89950000D02*
X150650000Y-90450000D01*
X150650000Y-90450000D02*
X152550000Y-90450000D01*
X152550000Y-90450000D02*
X152600000Y-90450000D01*
X152600000Y-90450000D02*
X152350000Y-89950000D01*
X152350000Y-89950000D02*
X157750000Y-89950000D01*
X157750000Y-89950000D02*
X157450000Y-90450000D01*
X157450000Y-90450000D02*
X162550000Y-90450000D01*
X162550000Y-90450000D02*
X162550000Y-79600000D01*
X135170000Y-87080000D02*
X137830000Y-87080000D01*
X135170000Y-87020000D02*
X135170000Y-87080000D01*
X137830000Y-87020000D02*
X137830000Y-87080000D01*
X135170000Y-87020000D02*
X137830000Y-87020000D01*
X135170000Y-85750000D02*
X135170000Y-84420000D01*
X135170000Y-84420000D02*
X136500000Y-84420000D01*
X132330000Y-80590000D02*
X129670000Y-80590000D01*
X132330000Y-88270000D02*
X132330000Y-80590000D01*
X129670000Y-88270000D02*
X129670000Y-80590000D01*
X132330000Y-88270000D02*
X129670000Y-88270000D01*
X132330000Y-89540000D02*
X132330000Y-90870000D01*
X132330000Y-90870000D02*
X131000000Y-90870000D01*
X139053922Y-79790000D02*
X139571078Y-79790000D01*
X139053922Y-81210000D02*
X139571078Y-81210000D01*
X139821078Y-90210000D02*
X139303922Y-90210000D01*
X139821078Y-88790000D02*
X139303922Y-88790000D01*
X143946078Y-88790000D02*
X143428922Y-88790000D01*
X143946078Y-90210000D02*
X143428922Y-90210000D01*
D10*
X142240001Y-83200001D02*
X142240001Y-83325001D01*
X145490001Y-83200001D02*
X145490001Y-83425001D01*
X145490001Y-86450001D02*
X145490001Y-86225001D01*
X142240001Y-86450001D02*
X142240001Y-86225001D01*
X142240001Y-83200001D02*
X145490001Y-83200001D01*
X142240001Y-86450001D02*
X145490001Y-86450001D01*
X142240001Y-83325001D02*
X141165001Y-83325001D01*
X136333333Y-84757142D02*
X136285714Y-84804761D01*
X136142857Y-84852380D01*
X136047619Y-84852380D01*
X135904761Y-84804761D01*
X135809523Y-84709523D01*
X135761904Y-84614285D01*
X135714285Y-84423809D01*
X135714285Y-84280952D01*
X135761904Y-84090476D01*
X135809523Y-83995238D01*
X135904761Y-83900000D01*
X136047619Y-83852380D01*
X136142857Y-83852380D01*
X136285714Y-83900000D01*
X136333333Y-83947619D01*
X137285714Y-84852380D02*
X136714285Y-84852380D01*
X137000000Y-84852380D02*
X137000000Y-83852380D01*
X136904761Y-83995238D01*
X136809523Y-84090476D01*
X136714285Y-84138095D01*
X135395833Y-91507142D02*
X135348214Y-91554761D01*
X135205357Y-91602380D01*
X135110119Y-91602380D01*
X134967261Y-91554761D01*
X134872023Y-91459523D01*
X134824404Y-91364285D01*
X134776785Y-91173809D01*
X134776785Y-91030952D01*
X134824404Y-90840476D01*
X134872023Y-90745238D01*
X134967261Y-90650000D01*
X135110119Y-90602380D01*
X135205357Y-90602380D01*
X135348214Y-90650000D01*
X135395833Y-90697619D01*
X135776785Y-90697619D02*
X135824404Y-90650000D01*
X135919642Y-90602380D01*
X136157738Y-90602380D01*
X136252976Y-90650000D01*
X136300595Y-90697619D01*
X136348214Y-90792857D01*
X136348214Y-90888095D01*
X136300595Y-91030952D01*
X135729166Y-91602380D01*
X136348214Y-91602380D01*
X144270833Y-79207142D02*
X144223214Y-79254761D01*
X144080357Y-79302380D01*
X143985119Y-79302380D01*
X143842261Y-79254761D01*
X143747023Y-79159523D01*
X143699404Y-79064285D01*
X143651785Y-78873809D01*
X143651785Y-78730952D01*
X143699404Y-78540476D01*
X143747023Y-78445238D01*
X143842261Y-78350000D01*
X143985119Y-78302380D01*
X144080357Y-78302380D01*
X144223214Y-78350000D01*
X144270833Y-78397619D01*
X144604166Y-78302380D02*
X145223214Y-78302380D01*
X144889880Y-78683333D01*
X145032738Y-78683333D01*
X145127976Y-78730952D01*
X145175595Y-78778571D01*
X145223214Y-78873809D01*
X145223214Y-79111904D01*
X145175595Y-79207142D01*
X145127976Y-79254761D01*
X145032738Y-79302380D01*
X144747023Y-79302380D01*
X144651785Y-79254761D01*
X144604166Y-79207142D01*
X162692380Y-80663333D02*
X163406666Y-80663333D01*
X163549523Y-80710952D01*
X163644761Y-80806190D01*
X163692380Y-80949047D01*
X163692380Y-81044285D01*
X163692380Y-79663333D02*
X163692380Y-80234761D01*
X163692380Y-79949047D02*
X162692380Y-79949047D01*
X162835238Y-80044285D01*
X162930476Y-80139523D01*
X162978095Y-80234761D01*
X136166666Y-82872380D02*
X136166666Y-83586666D01*
X136119047Y-83729523D01*
X136023809Y-83824761D01*
X135880952Y-83872380D01*
X135785714Y-83872380D01*
X136595238Y-82967619D02*
X136642857Y-82920000D01*
X136738095Y-82872380D01*
X136976190Y-82872380D01*
X137071428Y-82920000D01*
X137119047Y-82967619D01*
X137166666Y-83062857D01*
X137166666Y-83158095D01*
X137119047Y-83300952D01*
X136547619Y-83872380D01*
X137166666Y-83872380D01*
X130666666Y-78952380D02*
X130666666Y-79666666D01*
X130619047Y-79809523D01*
X130523809Y-79904761D01*
X130380952Y-79952380D01*
X130285714Y-79952380D01*
X131047619Y-78952380D02*
X131666666Y-78952380D01*
X131333333Y-79333333D01*
X131476190Y-79333333D01*
X131571428Y-79380952D01*
X131619047Y-79428571D01*
X131666666Y-79523809D01*
X131666666Y-79761904D01*
X131619047Y-79857142D01*
X131571428Y-79904761D01*
X131476190Y-79952380D01*
X131190476Y-79952380D01*
X131095238Y-79904761D01*
X131047619Y-79857142D01*
X139145833Y-79302380D02*
X138812500Y-78826190D01*
X138574404Y-79302380D02*
X138574404Y-78302380D01*
X138955357Y-78302380D01*
X139050595Y-78350000D01*
X139098214Y-78397619D01*
X139145833Y-78492857D01*
X139145833Y-78635714D01*
X139098214Y-78730952D01*
X139050595Y-78778571D01*
X138955357Y-78826190D01*
X138574404Y-78826190D01*
X140098214Y-79302380D02*
X139526785Y-79302380D01*
X139812500Y-79302380D02*
X139812500Y-78302380D01*
X139717261Y-78445238D01*
X139622023Y-78540476D01*
X139526785Y-78588095D01*
X139395833Y-91602380D02*
X139062500Y-91126190D01*
X138824404Y-91602380D02*
X138824404Y-90602380D01*
X139205357Y-90602380D01*
X139300595Y-90650000D01*
X139348214Y-90697619D01*
X139395833Y-90792857D01*
X139395833Y-90935714D01*
X139348214Y-91030952D01*
X139300595Y-91078571D01*
X139205357Y-91126190D01*
X138824404Y-91126190D01*
X139776785Y-90697619D02*
X139824404Y-90650000D01*
X139919642Y-90602380D01*
X140157738Y-90602380D01*
X140252976Y-90650000D01*
X140300595Y-90697619D01*
X140348214Y-90792857D01*
X140348214Y-90888095D01*
X140300595Y-91030952D01*
X139729166Y-91602380D01*
X140348214Y-91602380D01*
X143520833Y-91602380D02*
X143187500Y-91126190D01*
X142949404Y-91602380D02*
X142949404Y-90602380D01*
X143330357Y-90602380D01*
X143425595Y-90650000D01*
X143473214Y-90697619D01*
X143520833Y-90792857D01*
X143520833Y-90935714D01*
X143473214Y-91030952D01*
X143425595Y-91078571D01*
X143330357Y-91126190D01*
X142949404Y-91126190D01*
X143854166Y-90602380D02*
X144473214Y-90602380D01*
X144139880Y-90983333D01*
X144282738Y-90983333D01*
X144377976Y-91030952D01*
X144425595Y-91078571D01*
X144473214Y-91173809D01*
X144473214Y-91411904D01*
X144425595Y-91507142D01*
X144377976Y-91554761D01*
X144282738Y-91602380D01*
X143997023Y-91602380D01*
X143901785Y-91554761D01*
X143854166Y-91507142D01*
X143103096Y-81727381D02*
X143103096Y-82536905D01*
X143150715Y-82632143D01*
X143198334Y-82679762D01*
X143293572Y-82727381D01*
X143484048Y-82727381D01*
X143579286Y-82679762D01*
X143626905Y-82632143D01*
X143674524Y-82536905D01*
X143674524Y-81727381D01*
X144674524Y-82727381D02*
X144103096Y-82727381D01*
X144388810Y-82727381D02*
X144388810Y-81727381D01*
X144293572Y-81870239D01*
X144198334Y-81965477D01*
X144103096Y-82013096D01*
M02*
