%TF.GenerationSoftware,KiCad,Pcbnew,(6.99.0-1239-g6d82490b59-dirty)*%
%TF.CreationDate,2022-03-22T11:17:58-05:00*%
%TF.ProjectId,LayoutBottom,4c61796f-7574-4426-9f74-746f6d2e6b69,rev?*%
%TF.SameCoordinates,Original*%
%TF.FileFunction,Copper,L1,Top*%
%TF.FilePolarity,Positive*%
%FSLAX46Y46*%
G04 Gerber Fmt 4.6, Leading zero omitted, Abs format (unit mm)*
G04 Created by KiCad (PCBNEW (6.99.0-1239-g6d82490b59-dirty)) date 2022-03-22 11:17:58*
%MOMM*%
%LPD*%
G01*
G04 APERTURE LIST*
G04 Aperture macros list*
%AMRoundRect*
0 Rectangle with rounded corners*
0 $1 Rounding radius*
0 $2 $3 $4 $5 $6 $7 $8 $9 X,Y pos of 4 corners*
0 Add a 4 corners polygon primitive as box body*
4,1,4,$2,$3,$4,$5,$6,$7,$8,$9,$2,$3,0*
0 Add four circle primitives for the rounded corners*
1,1,$1+$1,$2,$3*
1,1,$1+$1,$4,$5*
1,1,$1+$1,$6,$7*
1,1,$1+$1,$8,$9*
0 Add four rect primitives between the rounded corners*
20,1,$1+$1,$2,$3,$4,$5,0*
20,1,$1+$1,$4,$5,$6,$7,0*
20,1,$1+$1,$6,$7,$8,$9,0*
20,1,$1+$1,$8,$9,$2,$3,0*%
G04 Aperture macros list end*
%TA.AperFunction,SMDPad,CuDef*%
%ADD10R,1.500000X0.900000*%
%TD*%
%TA.AperFunction,SMDPad,CuDef*%
%ADD11R,0.900000X1.500000*%
%TD*%
%TA.AperFunction,SMDPad,CuDef*%
%ADD12R,4.100000X4.100000*%
%TD*%
%TA.AperFunction,SMDPad,CuDef*%
%ADD13RoundRect,0.150000X-0.512500X-0.150000X0.512500X-0.150000X0.512500X0.150000X-0.512500X0.150000X0*%
%TD*%
%TA.AperFunction,SMDPad,CuDef*%
%ADD14R,0.800000X0.500000*%
%TD*%
%TA.AperFunction,SMDPad,CuDef*%
%ADD15R,0.800000X0.400000*%
%TD*%
%TA.AperFunction,SMDPad,CuDef*%
%ADD16RoundRect,0.250000X-0.262500X-0.450000X0.262500X-0.450000X0.262500X0.450000X-0.262500X0.450000X0*%
%TD*%
%TA.AperFunction,SMDPad,CuDef*%
%ADD17R,0.250000X1.400000*%
%TD*%
%TA.AperFunction,ComponentPad*%
%ADD18O,1.000000X2.100000*%
%TD*%
%TA.AperFunction,ComponentPad*%
%ADD19O,1.000000X1.800000*%
%TD*%
%TA.AperFunction,ComponentPad*%
%ADD20R,1.700000X1.700000*%
%TD*%
%TA.AperFunction,ComponentPad*%
%ADD21O,1.700000X1.700000*%
%TD*%
%TA.AperFunction,SMDPad,CuDef*%
%ADD22R,1.800000X0.820000*%
%TD*%
%TA.AperFunction,SMDPad,CuDef*%
%ADD23RoundRect,0.243750X-0.243750X-0.456250X0.243750X-0.456250X0.243750X0.456250X-0.243750X0.456250X0*%
%TD*%
%TA.AperFunction,SMDPad,CuDef*%
%ADD24RoundRect,0.250000X-0.250000X-0.475000X0.250000X-0.475000X0.250000X0.475000X-0.250000X0.475000X0*%
%TD*%
G04 APERTURE END LIST*
D10*
%TO.P,U2,1,GND*%
%TO.N,VSS*%
X189599999Y-74794999D03*
%TO.P,U2,2,3V3*%
%TO.N,VCC*%
X189599999Y-76294999D03*
%TO.P,U2,3,IO00*%
%TO.N,Boot*%
X189599999Y-77794999D03*
%TO.P,U2,4,IO01*%
%TO.N,/SK6812*%
X189599999Y-79294999D03*
%TO.P,U2,5,IO02*%
%TO.N,unconnected-(U2-IO02)*%
X189599999Y-80794999D03*
%TO.P,U2,6,IO03*%
%TO.N,unconnected-(U2-IO03)*%
X189599999Y-82294999D03*
%TO.P,U2,7,IO04*%
%TO.N,Net-(J4-Pin_1)*%
X189599999Y-83794999D03*
%TO.P,U2,8,IO05*%
%TO.N,TopLeft*%
X189599999Y-85294999D03*
%TO.P,U2,9,IO06*%
%TO.N,TopRight*%
X189599999Y-86794999D03*
%TO.P,U2,10,IO07*%
%TO.N,BottomLeft*%
X189599999Y-88294999D03*
%TO.P,U2,11,IO08*%
%TO.N,BottomRight*%
X189599999Y-89794999D03*
%TO.P,U2,12,IO09*%
%TO.N,LeftOne*%
X189599999Y-91294999D03*
%TO.P,U2,13,IO10*%
%TO.N,LeftTwo*%
X189599999Y-92794999D03*
%TO.P,U2,14,IO11*%
%TO.N,RightOne*%
X189599999Y-94294999D03*
%TO.P,U2,15,IO12*%
%TO.N,RightTwo*%
X189599999Y-95794999D03*
%TO.P,U2,16,IO13*%
%TO.N,unconnected-(U2-IO13)*%
X189599999Y-97294999D03*
D11*
%TO.P,U2,17,IO14*%
%TO.N,Buzzer*%
X191474999Y-98044999D03*
%TO.P,U2,18,IO15*%
%TO.N,unconnected-(U2-IO15)*%
X192974999Y-98044999D03*
%TO.P,U2,19,IO16*%
%TO.N,unconnected-(U2-IO16)*%
X194474999Y-98044999D03*
%TO.P,U2,20,IO17*%
%TO.N,unconnected-(U2-IO17)*%
X195974999Y-98044999D03*
%TO.P,U2,21,IO18*%
%TO.N,unconnected-(U2-IO18)*%
X197474999Y-98044999D03*
%TO.P,U2,22,USB_D-*%
%TO.N,/D-*%
X198974999Y-98044999D03*
%TO.P,U2,23,USB_D+*%
%TO.N,/D+*%
X200474999Y-98044999D03*
%TO.P,U2,24,IO21*%
%TO.N,unconnected-(U2-IO21)*%
X201974999Y-98044999D03*
%TO.P,U2,25,IO26*%
%TO.N,unconnected-(U2-IO26)*%
X203474999Y-98044999D03*
%TO.P,U2,26,GND*%
%TO.N,VSS*%
X204974999Y-98044999D03*
D10*
%TO.P,U2,27,IO33*%
%TO.N,10*%
X206849999Y-97394999D03*
%TO.P,U2,28,IO34*%
%TO.N,9*%
X206849999Y-95894999D03*
%TO.P,U2,29,IO35*%
%TO.N,8*%
X206849999Y-94394999D03*
%TO.P,U2,30,IO36*%
%TO.N,7*%
X206849999Y-92894999D03*
%TO.P,U2,31,IO37*%
%TO.N,6*%
X206849999Y-91394999D03*
%TO.P,U2,32,IO38*%
%TO.N,5*%
X206849999Y-89894999D03*
%TO.P,U2,33,IO39*%
%TO.N,4*%
X206849999Y-88394999D03*
%TO.P,U2,34,IO40*%
%TO.N,3*%
X206849999Y-86894999D03*
%TO.P,U2,35,IO41*%
%TO.N,2*%
X206849999Y-85394999D03*
%TO.P,U2,36,IO42*%
%TO.N,1*%
X206849999Y-83894999D03*
%TO.P,U2,37,TXD0*%
%TO.N,TX*%
X206849999Y-82394999D03*
%TO.P,U2,38,RXD0*%
%TO.N,RX*%
X206849999Y-80894999D03*
%TO.P,U2,39,IO45*%
%TO.N,unconnected-(U2-IO45)*%
X206849999Y-79394999D03*
%TO.P,U2,40,IO46*%
%TO.N,unconnected-(U2-IO46)*%
X206849999Y-77794999D03*
%TO.P,U2,41,EN*%
%TO.N,Reset*%
X206849999Y-76294999D03*
%TO.P,U2,42,GND*%
%TO.N,VSS*%
X206849999Y-74894999D03*
D12*
%TO.P,U2,43,GND*%
X197034999Y-82834999D03*
%TD*%
D13*
%TO.P,U1,1,Chrg*%
%TO.N,Net-(D1-K)*%
X199277500Y-100840000D03*
%TO.P,U1,2,Gnd*%
%TO.N,VSS*%
X199277500Y-101790000D03*
%TO.P,U1,3,Bat*%
%TO.N,VDDA*%
X199277500Y-102740000D03*
%TO.P,U1,4,VCC*%
%TO.N,VBUS*%
X201552500Y-102740000D03*
%TO.P,U1,5,PROG*%
%TO.N,Net-(U1-PROG)*%
X201552500Y-100840000D03*
%TD*%
D14*
%TO.P,RN1,1,R1.1*%
%TO.N,VSS*%
X224174999Y-80149999D03*
D15*
%TO.P,RN1,2,R2.1*%
X224174999Y-80949999D03*
%TO.P,RN1,3,R3.1*%
%TO.N,unconnected-(RN1-R3.1)*%
X224174999Y-81749999D03*
D14*
%TO.P,RN1,4,R4.1*%
%TO.N,unconnected-(RN1-R4.1)*%
X224174999Y-82549999D03*
%TO.P,RN1,5,R4.2*%
%TO.N,unconnected-(RN1-R4.2)*%
X225974999Y-82549999D03*
D15*
%TO.P,RN1,6,R3.2*%
%TO.N,unconnected-(RN1-R3.2)*%
X225974999Y-81749999D03*
%TO.P,RN1,7,R2.2*%
%TO.N,Net-(P1-CC)*%
X225974999Y-80949999D03*
D14*
%TO.P,RN1,8,R1.2*%
%TO.N,Net-(P1-VCONN)*%
X225974999Y-80149999D03*
%TD*%
D16*
%TO.P,R4,1*%
%TO.N,Reset*%
X233592500Y-86030000D03*
%TO.P,R4,2*%
%TO.N,VCC*%
X235417500Y-86030000D03*
%TD*%
%TO.P,R3,1*%
%TO.N,VSS*%
X224292500Y-94230000D03*
%TO.P,R3,2*%
%TO.N,Net-(U1-PROG)*%
X226117500Y-94230000D03*
%TD*%
%TO.P,R2,1*%
%TO.N,VBUS*%
X276492500Y-49460000D03*
%TO.P,R2,2*%
%TO.N,VDDA*%
X278317500Y-49460000D03*
%TD*%
%TO.P,R1,1*%
%TO.N,Net-(D1-A)*%
X238002500Y-86030000D03*
%TO.P,R1,2*%
%TO.N,VBUS*%
X239827500Y-86030000D03*
%TD*%
D17*
%TO.P,P1,A1,GND*%
%TO.N,VSS*%
X234294999Y-73574999D03*
%TO.P,P1,A4,VBUS*%
%TO.N,VBUS*%
X235094999Y-73574999D03*
%TO.P,P1,A5,CC*%
%TO.N,Net-(P1-CC)*%
X236369999Y-73574999D03*
%TO.P,P1,A6,D+*%
%TO.N,/D+*%
X237369999Y-73574999D03*
%TO.P,P1,A7,D-*%
%TO.N,/D-*%
X237869999Y-73574999D03*
%TO.P,P1,A8,SBU1*%
%TO.N,unconnected-(P1-SBU1)*%
X235869999Y-73574999D03*
%TO.P,P1,A9,VBUS*%
%TO.N,VBUS*%
X240144999Y-73574999D03*
%TO.P,P1,A12,GND*%
%TO.N,VSS*%
X240944999Y-73574999D03*
%TO.P,P1,B1,GND*%
X240694999Y-73574999D03*
%TO.P,P1,B4,VBUS*%
%TO.N,VBUS*%
X239894999Y-73574999D03*
%TO.P,P1,B5,VCONN*%
%TO.N,Net-(P1-VCONN)*%
X239369999Y-73574999D03*
%TO.P,P1,B6,D+*%
%TO.N,/D+*%
X238369999Y-73574999D03*
%TO.P,P1,B7,D-*%
%TO.N,/D-*%
X236869999Y-73574999D03*
%TO.P,P1,B8,SBU2*%
%TO.N,unconnected-(P1-SBU2)*%
X238869999Y-73574999D03*
%TO.P,P1,B9,VBUS*%
%TO.N,VBUS*%
X235344999Y-73574999D03*
%TO.P,P1,B12,GND*%
%TO.N,VSS*%
X234544999Y-73574999D03*
D18*
%TO.P,P1,S1,SHIELD*%
X241939999Y-74274999D03*
D19*
X233299999Y-78424999D03*
D18*
X233299999Y-74274999D03*
D19*
X241939999Y-78424999D03*
%TD*%
D20*
%TO.P,J5,1,Pin_1*%
%TO.N,1*%
X225324999Y-53799999D03*
D21*
%TO.P,J5,2,Pin_2*%
%TO.N,2*%
X225324999Y-56339999D03*
%TO.P,J5,3,Pin_3*%
%TO.N,3*%
X225324999Y-58879999D03*
%TO.P,J5,4,Pin_4*%
%TO.N,4*%
X225324999Y-61419999D03*
%TO.P,J5,5,Pin_5*%
%TO.N,5*%
X225324999Y-63959999D03*
%TO.P,J5,6,Pin_6*%
%TO.N,6*%
X225324999Y-66499999D03*
%TO.P,J5,7,Pin_7*%
%TO.N,7*%
X225324999Y-69039999D03*
%TO.P,J5,8,Pin_8*%
%TO.N,8*%
X225324999Y-71579999D03*
%TO.P,J5,9,Pin_9*%
%TO.N,9*%
X225324999Y-74119999D03*
%TO.P,J5,10,Pin_10*%
%TO.N,10*%
X225324999Y-76659999D03*
%TD*%
D20*
%TO.P,J1,1,Pin_1*%
%TO.N,VCC*%
X229974999Y-74699999D03*
D21*
%TO.P,J1,2,Pin_2*%
%TO.N,VSS*%
X229974999Y-77239999D03*
%TO.P,J1,3,Pin_3*%
%TO.N,Boot*%
X229974999Y-79779999D03*
%TO.P,J1,4,Pin_4*%
%TO.N,TX*%
X229974999Y-82319999D03*
%TO.P,J1,5,Pin_5*%
%TO.N,RX*%
X229974999Y-84859999D03*
%TO.P,J1,6,Pin_6*%
%TO.N,Reset*%
X229974999Y-87399999D03*
%TD*%
D22*
%TO.P,D8,1,VDD*%
%TO.N,VCC*%
X234384999Y-57779999D03*
%TO.P,D8,2,DOUT*%
%TO.N,unconnected-(D8-DOUT)*%
X234384999Y-59314999D03*
%TO.P,D8,3,VSS*%
%TO.N,VSS*%
X229284999Y-59314999D03*
%TO.P,D8,4,DIN*%
%TO.N,Net-(D7-DOUT)*%
X229284999Y-57779999D03*
%TD*%
%TO.P,D7,1,VDD*%
%TO.N,VCC*%
X234384999Y-62499999D03*
%TO.P,D7,2,DOUT*%
%TO.N,Net-(D7-DOUT)*%
X234384999Y-64034999D03*
%TO.P,D7,3,VSS*%
%TO.N,VSS*%
X229284999Y-64034999D03*
%TO.P,D7,4,DIN*%
%TO.N,Net-(D6-DOUT)*%
X229284999Y-62499999D03*
%TD*%
%TO.P,D6,1,VDD*%
%TO.N,VCC*%
X188314999Y-101149999D03*
%TO.P,D6,2,DOUT*%
%TO.N,Net-(D6-DOUT)*%
X188314999Y-102684999D03*
%TO.P,D6,3,VSS*%
%TO.N,VSS*%
X183214999Y-102684999D03*
%TO.P,D6,4,DIN*%
%TO.N,Net-(D5-DOUT)*%
X183214999Y-101149999D03*
%TD*%
%TO.P,D5,1,VDD*%
%TO.N,VCC*%
X234384999Y-67219999D03*
%TO.P,D5,2,DOUT*%
%TO.N,Net-(D5-DOUT)*%
X234384999Y-68754999D03*
%TO.P,D5,3,VSS*%
%TO.N,VSS*%
X229284999Y-68754999D03*
%TO.P,D5,4,DIN*%
%TO.N,Net-(D4-DOUT)*%
X229284999Y-67219999D03*
%TD*%
%TO.P,D4,1,VDD*%
%TO.N,VCC*%
X234384999Y-53059999D03*
%TO.P,D4,2,DOUT*%
%TO.N,Net-(D4-DOUT)*%
X234384999Y-54594999D03*
%TO.P,D4,3,VSS*%
%TO.N,VSS*%
X229284999Y-54594999D03*
%TO.P,D4,4,DIN*%
%TO.N,Net-(D3-DOUT)*%
X229284999Y-53059999D03*
%TD*%
%TO.P,D3,1,VDD*%
%TO.N,VCC*%
X180184999Y-101149999D03*
%TO.P,D3,2,DOUT*%
%TO.N,Net-(D3-DOUT)*%
X180184999Y-102684999D03*
%TO.P,D3,3,VSS*%
%TO.N,VSS*%
X175084999Y-102684999D03*
%TO.P,D3,4,DIN*%
%TO.N,Net-(D2-DOUT)*%
X175084999Y-101149999D03*
%TD*%
%TO.P,D2,1,VDD*%
%TO.N,VCC*%
X196444999Y-101149999D03*
%TO.P,D2,2,DOUT*%
%TO.N,Net-(D2-DOUT)*%
X196444999Y-102684999D03*
%TO.P,D2,3,VSS*%
%TO.N,VSS*%
X191344999Y-102684999D03*
%TO.P,D2,4,DIN*%
%TO.N,/SK6812*%
X191344999Y-101149999D03*
%TD*%
D23*
%TO.P,D1,1,K*%
%TO.N,Net-(D1-K)*%
X213197500Y-101085000D03*
%TO.P,D1,2,A*%
%TO.N,Net-(D1-A)*%
X215072500Y-101085000D03*
%TD*%
D24*
%TO.P,C13,1*%
%TO.N,VSS*%
X224275000Y-91250000D03*
%TO.P,C13,2*%
%TO.N,VCC*%
X226175000Y-91250000D03*
%TD*%
%TO.P,C12,1*%
%TO.N,VSS*%
X224275000Y-88240000D03*
%TO.P,C12,2*%
%TO.N,VCC*%
X226175000Y-88240000D03*
%TD*%
%TO.P,C11,1*%
%TO.N,VSS*%
X228725000Y-91230000D03*
%TO.P,C11,2*%
%TO.N,VCC*%
X230625000Y-91230000D03*
%TD*%
%TO.P,C10,1*%
%TO.N,VCC*%
X233575000Y-83050000D03*
%TO.P,C10,2*%
%TO.N,VSS*%
X235475000Y-83050000D03*
%TD*%
%TO.P,C9,1*%
%TO.N,VCC*%
X276475000Y-46480000D03*
%TO.P,C9,2*%
%TO.N,VSS*%
X278375000Y-46480000D03*
%TD*%
%TO.P,C8,1*%
%TO.N,VSS*%
X208715000Y-101070000D03*
%TO.P,C8,2*%
%TO.N,VCC*%
X210615000Y-101070000D03*
%TD*%
%TO.P,C7,1*%
%TO.N,Reset*%
X217615000Y-101070000D03*
%TO.P,C7,2*%
%TO.N,VSS*%
X219515000Y-101070000D03*
%TD*%
%TO.P,C6,1*%
%TO.N,VSS*%
X244215000Y-73880000D03*
%TO.P,C6,2*%
%TO.N,VCC*%
X246115000Y-73880000D03*
%TD*%
%TO.P,C5,1*%
%TO.N,VSS*%
X204265000Y-101070000D03*
%TO.P,C5,2*%
%TO.N,VCC*%
X206165000Y-101070000D03*
%TD*%
%TO.P,C4,1*%
%TO.N,VSS*%
X204265000Y-104080000D03*
%TO.P,C4,2*%
%TO.N,VCC*%
X206165000Y-104080000D03*
%TD*%
%TO.P,C3,1*%
%TO.N,/D-*%
X213165000Y-104110000D03*
%TO.P,C3,2*%
%TO.N,VSS*%
X215065000Y-104110000D03*
%TD*%
%TO.P,C2,1*%
%TO.N,/D+*%
X208715000Y-104080000D03*
%TO.P,C2,2*%
%TO.N,VSS*%
X210615000Y-104080000D03*
%TD*%
%TO.P,C1,1*%
%TO.N,VDDA*%
X224275000Y-85230000D03*
%TO.P,C1,2*%
%TO.N,VSS*%
X226175000Y-85230000D03*
%TD*%
M02*
