%TF.GenerationSoftware,KiCad,Pcbnew,(6.99.0-1239-g6d82490b59-dirty)*%
%TF.CreationDate,2022-03-22T11:17:59-05:00*%
%TF.ProjectId,LayoutBottom,4c61796f-7574-4426-9f74-746f6d2e6b69,rev?*%
%TF.SameCoordinates,Original*%
%TF.FileFunction,Legend,Top*%
%TF.FilePolarity,Positive*%
%FSLAX46Y46*%
G04 Gerber Fmt 4.6, Leading zero omitted, Abs format (unit mm)*
G04 Created by KiCad (PCBNEW (6.99.0-1239-g6d82490b59-dirty)) date 2022-03-22 11:17:59*
%MOMM*%
%LPD*%
G01*
G04 APERTURE LIST*
%ADD10C,0.150000*%
%ADD11C,0.120000*%
%ADD12C,0.010000*%
G04 APERTURE END LIST*
D10*
%TO.C,U2*%
X187267380Y-97861904D02*
X188076904Y-97861904D01*
X188076904Y-97861904D02*
X188172142Y-97814285D01*
X188172142Y-97814285D02*
X188219761Y-97766666D01*
X188219761Y-97766666D02*
X188267380Y-97671428D01*
X188267380Y-97671428D02*
X188267380Y-97480952D01*
X188267380Y-97480952D02*
X188219761Y-97385714D01*
X188219761Y-97385714D02*
X188172142Y-97338095D01*
X188172142Y-97338095D02*
X188076904Y-97290476D01*
X188076904Y-97290476D02*
X187267380Y-97290476D01*
X187362619Y-96861904D02*
X187315000Y-96814285D01*
X187315000Y-96814285D02*
X187267380Y-96719047D01*
X187267380Y-96719047D02*
X187267380Y-96480952D01*
X187267380Y-96480952D02*
X187315000Y-96385714D01*
X187315000Y-96385714D02*
X187362619Y-96338095D01*
X187362619Y-96338095D02*
X187457857Y-96290476D01*
X187457857Y-96290476D02*
X187553095Y-96290476D01*
X187553095Y-96290476D02*
X187695952Y-96338095D01*
X187695952Y-96338095D02*
X188267380Y-96909523D01*
X188267380Y-96909523D02*
X188267380Y-96290476D01*
%TO.C,U1*%
X199653095Y-98842380D02*
X199653095Y-99651904D01*
X199653095Y-99651904D02*
X199700714Y-99747142D01*
X199700714Y-99747142D02*
X199748333Y-99794761D01*
X199748333Y-99794761D02*
X199843571Y-99842380D01*
X199843571Y-99842380D02*
X200034047Y-99842380D01*
X200034047Y-99842380D02*
X200129285Y-99794761D01*
X200129285Y-99794761D02*
X200176904Y-99747142D01*
X200176904Y-99747142D02*
X200224523Y-99651904D01*
X200224523Y-99651904D02*
X200224523Y-98842380D01*
X201224523Y-99842380D02*
X200653095Y-99842380D01*
X200938809Y-99842380D02*
X200938809Y-98842380D01*
X200938809Y-98842380D02*
X200843571Y-98985238D01*
X200843571Y-98985238D02*
X200748333Y-99080476D01*
X200748333Y-99080476D02*
X200653095Y-99128095D01*
%TO.C,RN1*%
X224384523Y-79002380D02*
X224051190Y-78526190D01*
X223813095Y-79002380D02*
X223813095Y-78002380D01*
X223813095Y-78002380D02*
X224194047Y-78002380D01*
X224194047Y-78002380D02*
X224289285Y-78050000D01*
X224289285Y-78050000D02*
X224336904Y-78097619D01*
X224336904Y-78097619D02*
X224384523Y-78192857D01*
X224384523Y-78192857D02*
X224384523Y-78335714D01*
X224384523Y-78335714D02*
X224336904Y-78430952D01*
X224336904Y-78430952D02*
X224289285Y-78478571D01*
X224289285Y-78478571D02*
X224194047Y-78526190D01*
X224194047Y-78526190D02*
X223813095Y-78526190D01*
X224813095Y-79002380D02*
X224813095Y-78002380D01*
X224813095Y-78002380D02*
X225384523Y-79002380D01*
X225384523Y-79002380D02*
X225384523Y-78002380D01*
X226384523Y-79002380D02*
X225813095Y-79002380D01*
X226098809Y-79002380D02*
X226098809Y-78002380D01*
X226098809Y-78002380D02*
X226003571Y-78145238D01*
X226003571Y-78145238D02*
X225908333Y-78240476D01*
X225908333Y-78240476D02*
X225813095Y-78288095D01*
%TO.C,R4*%
X234338333Y-84832380D02*
X234005000Y-84356190D01*
X233766905Y-84832380D02*
X233766905Y-83832380D01*
X233766905Y-83832380D02*
X234147857Y-83832380D01*
X234147857Y-83832380D02*
X234243095Y-83880000D01*
X234243095Y-83880000D02*
X234290714Y-83927619D01*
X234290714Y-83927619D02*
X234338333Y-84022857D01*
X234338333Y-84022857D02*
X234338333Y-84165714D01*
X234338333Y-84165714D02*
X234290714Y-84260952D01*
X234290714Y-84260952D02*
X234243095Y-84308571D01*
X234243095Y-84308571D02*
X234147857Y-84356190D01*
X234147857Y-84356190D02*
X233766905Y-84356190D01*
X235195476Y-84165714D02*
X235195476Y-84832380D01*
X234957381Y-83784761D02*
X234719286Y-84499047D01*
X234719286Y-84499047D02*
X235338333Y-84499047D01*
%TO.C,R3*%
X225038333Y-93032380D02*
X224705000Y-92556190D01*
X224466905Y-93032380D02*
X224466905Y-92032380D01*
X224466905Y-92032380D02*
X224847857Y-92032380D01*
X224847857Y-92032380D02*
X224943095Y-92080000D01*
X224943095Y-92080000D02*
X224990714Y-92127619D01*
X224990714Y-92127619D02*
X225038333Y-92222857D01*
X225038333Y-92222857D02*
X225038333Y-92365714D01*
X225038333Y-92365714D02*
X224990714Y-92460952D01*
X224990714Y-92460952D02*
X224943095Y-92508571D01*
X224943095Y-92508571D02*
X224847857Y-92556190D01*
X224847857Y-92556190D02*
X224466905Y-92556190D01*
X225371667Y-92032380D02*
X225990714Y-92032380D01*
X225990714Y-92032380D02*
X225657381Y-92413333D01*
X225657381Y-92413333D02*
X225800238Y-92413333D01*
X225800238Y-92413333D02*
X225895476Y-92460952D01*
X225895476Y-92460952D02*
X225943095Y-92508571D01*
X225943095Y-92508571D02*
X225990714Y-92603809D01*
X225990714Y-92603809D02*
X225990714Y-92841904D01*
X225990714Y-92841904D02*
X225943095Y-92937142D01*
X225943095Y-92937142D02*
X225895476Y-92984761D01*
X225895476Y-92984761D02*
X225800238Y-93032380D01*
X225800238Y-93032380D02*
X225514524Y-93032380D01*
X225514524Y-93032380D02*
X225419286Y-92984761D01*
X225419286Y-92984761D02*
X225371667Y-92937142D01*
%TO.C,R2*%
X277238333Y-48262380D02*
X276905000Y-47786190D01*
X276666905Y-48262380D02*
X276666905Y-47262380D01*
X276666905Y-47262380D02*
X277047857Y-47262380D01*
X277047857Y-47262380D02*
X277143095Y-47310000D01*
X277143095Y-47310000D02*
X277190714Y-47357619D01*
X277190714Y-47357619D02*
X277238333Y-47452857D01*
X277238333Y-47452857D02*
X277238333Y-47595714D01*
X277238333Y-47595714D02*
X277190714Y-47690952D01*
X277190714Y-47690952D02*
X277143095Y-47738571D01*
X277143095Y-47738571D02*
X277047857Y-47786190D01*
X277047857Y-47786190D02*
X276666905Y-47786190D01*
X277619286Y-47357619D02*
X277666905Y-47310000D01*
X277666905Y-47310000D02*
X277762143Y-47262380D01*
X277762143Y-47262380D02*
X278000238Y-47262380D01*
X278000238Y-47262380D02*
X278095476Y-47310000D01*
X278095476Y-47310000D02*
X278143095Y-47357619D01*
X278143095Y-47357619D02*
X278190714Y-47452857D01*
X278190714Y-47452857D02*
X278190714Y-47548095D01*
X278190714Y-47548095D02*
X278143095Y-47690952D01*
X278143095Y-47690952D02*
X277571667Y-48262380D01*
X277571667Y-48262380D02*
X278190714Y-48262380D01*
%TO.C,R1*%
X238748333Y-84832380D02*
X238415000Y-84356190D01*
X238176905Y-84832380D02*
X238176905Y-83832380D01*
X238176905Y-83832380D02*
X238557857Y-83832380D01*
X238557857Y-83832380D02*
X238653095Y-83880000D01*
X238653095Y-83880000D02*
X238700714Y-83927619D01*
X238700714Y-83927619D02*
X238748333Y-84022857D01*
X238748333Y-84022857D02*
X238748333Y-84165714D01*
X238748333Y-84165714D02*
X238700714Y-84260952D01*
X238700714Y-84260952D02*
X238653095Y-84308571D01*
X238653095Y-84308571D02*
X238557857Y-84356190D01*
X238557857Y-84356190D02*
X238176905Y-84356190D01*
X239700714Y-84832380D02*
X239129286Y-84832380D01*
X239415000Y-84832380D02*
X239415000Y-83832380D01*
X239415000Y-83832380D02*
X239319762Y-83975238D01*
X239319762Y-83975238D02*
X239224524Y-84070476D01*
X239224524Y-84070476D02*
X239129286Y-84118095D01*
%TO.C,P1*%
X243647380Y-79713094D02*
X242647380Y-79713094D01*
X242647380Y-79713094D02*
X242647380Y-79332142D01*
X242647380Y-79332142D02*
X242695000Y-79236904D01*
X242695000Y-79236904D02*
X242742619Y-79189285D01*
X242742619Y-79189285D02*
X242837857Y-79141666D01*
X242837857Y-79141666D02*
X242980714Y-79141666D01*
X242980714Y-79141666D02*
X243075952Y-79189285D01*
X243075952Y-79189285D02*
X243123571Y-79236904D01*
X243123571Y-79236904D02*
X243171190Y-79332142D01*
X243171190Y-79332142D02*
X243171190Y-79713094D01*
X243647380Y-78189285D02*
X243647380Y-78760713D01*
X243647380Y-78474999D02*
X242647380Y-78474999D01*
X242647380Y-78474999D02*
X242790238Y-78570237D01*
X242790238Y-78570237D02*
X242885476Y-78665475D01*
X242885476Y-78665475D02*
X242933095Y-78760713D01*
%TO.C,J5*%
X224991666Y-50922380D02*
X224991666Y-51636666D01*
X224991666Y-51636666D02*
X224944047Y-51779523D01*
X224944047Y-51779523D02*
X224848809Y-51874761D01*
X224848809Y-51874761D02*
X224705952Y-51922380D01*
X224705952Y-51922380D02*
X224610714Y-51922380D01*
X225944047Y-50922380D02*
X225467857Y-50922380D01*
X225467857Y-50922380D02*
X225420238Y-51398571D01*
X225420238Y-51398571D02*
X225467857Y-51350952D01*
X225467857Y-51350952D02*
X225563095Y-51303333D01*
X225563095Y-51303333D02*
X225801190Y-51303333D01*
X225801190Y-51303333D02*
X225896428Y-51350952D01*
X225896428Y-51350952D02*
X225944047Y-51398571D01*
X225944047Y-51398571D02*
X225991666Y-51493809D01*
X225991666Y-51493809D02*
X225991666Y-51731904D01*
X225991666Y-51731904D02*
X225944047Y-51827142D01*
X225944047Y-51827142D02*
X225896428Y-51874761D01*
X225896428Y-51874761D02*
X225801190Y-51922380D01*
X225801190Y-51922380D02*
X225563095Y-51922380D01*
X225563095Y-51922380D02*
X225467857Y-51874761D01*
X225467857Y-51874761D02*
X225420238Y-51827142D01*
%TO.C,J1*%
X229641666Y-71822380D02*
X229641666Y-72536666D01*
X229641666Y-72536666D02*
X229594047Y-72679523D01*
X229594047Y-72679523D02*
X229498809Y-72774761D01*
X229498809Y-72774761D02*
X229355952Y-72822380D01*
X229355952Y-72822380D02*
X229260714Y-72822380D01*
X230641666Y-72822380D02*
X230070238Y-72822380D01*
X230355952Y-72822380D02*
X230355952Y-71822380D01*
X230355952Y-71822380D02*
X230260714Y-71965238D01*
X230260714Y-71965238D02*
X230165476Y-72060476D01*
X230165476Y-72060476D02*
X230070238Y-72108095D01*
%TO.C,D8*%
X231096905Y-56407380D02*
X231096905Y-55407380D01*
X231096905Y-55407380D02*
X231335000Y-55407380D01*
X231335000Y-55407380D02*
X231477857Y-55455000D01*
X231477857Y-55455000D02*
X231573095Y-55550238D01*
X231573095Y-55550238D02*
X231620714Y-55645476D01*
X231620714Y-55645476D02*
X231668333Y-55835952D01*
X231668333Y-55835952D02*
X231668333Y-55978809D01*
X231668333Y-55978809D02*
X231620714Y-56169285D01*
X231620714Y-56169285D02*
X231573095Y-56264523D01*
X231573095Y-56264523D02*
X231477857Y-56359761D01*
X231477857Y-56359761D02*
X231335000Y-56407380D01*
X231335000Y-56407380D02*
X231096905Y-56407380D01*
X232239762Y-55835952D02*
X232144524Y-55788333D01*
X232144524Y-55788333D02*
X232096905Y-55740714D01*
X232096905Y-55740714D02*
X232049286Y-55645476D01*
X232049286Y-55645476D02*
X232049286Y-55597857D01*
X232049286Y-55597857D02*
X232096905Y-55502619D01*
X232096905Y-55502619D02*
X232144524Y-55455000D01*
X232144524Y-55455000D02*
X232239762Y-55407380D01*
X232239762Y-55407380D02*
X232430238Y-55407380D01*
X232430238Y-55407380D02*
X232525476Y-55455000D01*
X232525476Y-55455000D02*
X232573095Y-55502619D01*
X232573095Y-55502619D02*
X232620714Y-55597857D01*
X232620714Y-55597857D02*
X232620714Y-55645476D01*
X232620714Y-55645476D02*
X232573095Y-55740714D01*
X232573095Y-55740714D02*
X232525476Y-55788333D01*
X232525476Y-55788333D02*
X232430238Y-55835952D01*
X232430238Y-55835952D02*
X232239762Y-55835952D01*
X232239762Y-55835952D02*
X232144524Y-55883571D01*
X232144524Y-55883571D02*
X232096905Y-55931190D01*
X232096905Y-55931190D02*
X232049286Y-56026428D01*
X232049286Y-56026428D02*
X232049286Y-56216904D01*
X232049286Y-56216904D02*
X232096905Y-56312142D01*
X232096905Y-56312142D02*
X232144524Y-56359761D01*
X232144524Y-56359761D02*
X232239762Y-56407380D01*
X232239762Y-56407380D02*
X232430238Y-56407380D01*
X232430238Y-56407380D02*
X232525476Y-56359761D01*
X232525476Y-56359761D02*
X232573095Y-56312142D01*
X232573095Y-56312142D02*
X232620714Y-56216904D01*
X232620714Y-56216904D02*
X232620714Y-56026428D01*
X232620714Y-56026428D02*
X232573095Y-55931190D01*
X232573095Y-55931190D02*
X232525476Y-55883571D01*
X232525476Y-55883571D02*
X232430238Y-55835952D01*
%TO.C,D7*%
X231096905Y-61127380D02*
X231096905Y-60127380D01*
X231096905Y-60127380D02*
X231335000Y-60127380D01*
X231335000Y-60127380D02*
X231477857Y-60175000D01*
X231477857Y-60175000D02*
X231573095Y-60270238D01*
X231573095Y-60270238D02*
X231620714Y-60365476D01*
X231620714Y-60365476D02*
X231668333Y-60555952D01*
X231668333Y-60555952D02*
X231668333Y-60698809D01*
X231668333Y-60698809D02*
X231620714Y-60889285D01*
X231620714Y-60889285D02*
X231573095Y-60984523D01*
X231573095Y-60984523D02*
X231477857Y-61079761D01*
X231477857Y-61079761D02*
X231335000Y-61127380D01*
X231335000Y-61127380D02*
X231096905Y-61127380D01*
X232001667Y-60127380D02*
X232668333Y-60127380D01*
X232668333Y-60127380D02*
X232239762Y-61127380D01*
%TO.C,D6*%
X185026905Y-99777380D02*
X185026905Y-98777380D01*
X185026905Y-98777380D02*
X185265000Y-98777380D01*
X185265000Y-98777380D02*
X185407857Y-98825000D01*
X185407857Y-98825000D02*
X185503095Y-98920238D01*
X185503095Y-98920238D02*
X185550714Y-99015476D01*
X185550714Y-99015476D02*
X185598333Y-99205952D01*
X185598333Y-99205952D02*
X185598333Y-99348809D01*
X185598333Y-99348809D02*
X185550714Y-99539285D01*
X185550714Y-99539285D02*
X185503095Y-99634523D01*
X185503095Y-99634523D02*
X185407857Y-99729761D01*
X185407857Y-99729761D02*
X185265000Y-99777380D01*
X185265000Y-99777380D02*
X185026905Y-99777380D01*
X186455476Y-98777380D02*
X186265000Y-98777380D01*
X186265000Y-98777380D02*
X186169762Y-98825000D01*
X186169762Y-98825000D02*
X186122143Y-98872619D01*
X186122143Y-98872619D02*
X186026905Y-99015476D01*
X186026905Y-99015476D02*
X185979286Y-99205952D01*
X185979286Y-99205952D02*
X185979286Y-99586904D01*
X185979286Y-99586904D02*
X186026905Y-99682142D01*
X186026905Y-99682142D02*
X186074524Y-99729761D01*
X186074524Y-99729761D02*
X186169762Y-99777380D01*
X186169762Y-99777380D02*
X186360238Y-99777380D01*
X186360238Y-99777380D02*
X186455476Y-99729761D01*
X186455476Y-99729761D02*
X186503095Y-99682142D01*
X186503095Y-99682142D02*
X186550714Y-99586904D01*
X186550714Y-99586904D02*
X186550714Y-99348809D01*
X186550714Y-99348809D02*
X186503095Y-99253571D01*
X186503095Y-99253571D02*
X186455476Y-99205952D01*
X186455476Y-99205952D02*
X186360238Y-99158333D01*
X186360238Y-99158333D02*
X186169762Y-99158333D01*
X186169762Y-99158333D02*
X186074524Y-99205952D01*
X186074524Y-99205952D02*
X186026905Y-99253571D01*
X186026905Y-99253571D02*
X185979286Y-99348809D01*
%TO.C,D5*%
X231096905Y-65847380D02*
X231096905Y-64847380D01*
X231096905Y-64847380D02*
X231335000Y-64847380D01*
X231335000Y-64847380D02*
X231477857Y-64895000D01*
X231477857Y-64895000D02*
X231573095Y-64990238D01*
X231573095Y-64990238D02*
X231620714Y-65085476D01*
X231620714Y-65085476D02*
X231668333Y-65275952D01*
X231668333Y-65275952D02*
X231668333Y-65418809D01*
X231668333Y-65418809D02*
X231620714Y-65609285D01*
X231620714Y-65609285D02*
X231573095Y-65704523D01*
X231573095Y-65704523D02*
X231477857Y-65799761D01*
X231477857Y-65799761D02*
X231335000Y-65847380D01*
X231335000Y-65847380D02*
X231096905Y-65847380D01*
X232573095Y-64847380D02*
X232096905Y-64847380D01*
X232096905Y-64847380D02*
X232049286Y-65323571D01*
X232049286Y-65323571D02*
X232096905Y-65275952D01*
X232096905Y-65275952D02*
X232192143Y-65228333D01*
X232192143Y-65228333D02*
X232430238Y-65228333D01*
X232430238Y-65228333D02*
X232525476Y-65275952D01*
X232525476Y-65275952D02*
X232573095Y-65323571D01*
X232573095Y-65323571D02*
X232620714Y-65418809D01*
X232620714Y-65418809D02*
X232620714Y-65656904D01*
X232620714Y-65656904D02*
X232573095Y-65752142D01*
X232573095Y-65752142D02*
X232525476Y-65799761D01*
X232525476Y-65799761D02*
X232430238Y-65847380D01*
X232430238Y-65847380D02*
X232192143Y-65847380D01*
X232192143Y-65847380D02*
X232096905Y-65799761D01*
X232096905Y-65799761D02*
X232049286Y-65752142D01*
%TO.C,D4*%
X231096905Y-51687380D02*
X231096905Y-50687380D01*
X231096905Y-50687380D02*
X231335000Y-50687380D01*
X231335000Y-50687380D02*
X231477857Y-50735000D01*
X231477857Y-50735000D02*
X231573095Y-50830238D01*
X231573095Y-50830238D02*
X231620714Y-50925476D01*
X231620714Y-50925476D02*
X231668333Y-51115952D01*
X231668333Y-51115952D02*
X231668333Y-51258809D01*
X231668333Y-51258809D02*
X231620714Y-51449285D01*
X231620714Y-51449285D02*
X231573095Y-51544523D01*
X231573095Y-51544523D02*
X231477857Y-51639761D01*
X231477857Y-51639761D02*
X231335000Y-51687380D01*
X231335000Y-51687380D02*
X231096905Y-51687380D01*
X232525476Y-51020714D02*
X232525476Y-51687380D01*
X232287381Y-50639761D02*
X232049286Y-51354047D01*
X232049286Y-51354047D02*
X232668333Y-51354047D01*
%TO.C,D3*%
X176896905Y-99777380D02*
X176896905Y-98777380D01*
X176896905Y-98777380D02*
X177135000Y-98777380D01*
X177135000Y-98777380D02*
X177277857Y-98825000D01*
X177277857Y-98825000D02*
X177373095Y-98920238D01*
X177373095Y-98920238D02*
X177420714Y-99015476D01*
X177420714Y-99015476D02*
X177468333Y-99205952D01*
X177468333Y-99205952D02*
X177468333Y-99348809D01*
X177468333Y-99348809D02*
X177420714Y-99539285D01*
X177420714Y-99539285D02*
X177373095Y-99634523D01*
X177373095Y-99634523D02*
X177277857Y-99729761D01*
X177277857Y-99729761D02*
X177135000Y-99777380D01*
X177135000Y-99777380D02*
X176896905Y-99777380D01*
X177801667Y-98777380D02*
X178420714Y-98777380D01*
X178420714Y-98777380D02*
X178087381Y-99158333D01*
X178087381Y-99158333D02*
X178230238Y-99158333D01*
X178230238Y-99158333D02*
X178325476Y-99205952D01*
X178325476Y-99205952D02*
X178373095Y-99253571D01*
X178373095Y-99253571D02*
X178420714Y-99348809D01*
X178420714Y-99348809D02*
X178420714Y-99586904D01*
X178420714Y-99586904D02*
X178373095Y-99682142D01*
X178373095Y-99682142D02*
X178325476Y-99729761D01*
X178325476Y-99729761D02*
X178230238Y-99777380D01*
X178230238Y-99777380D02*
X177944524Y-99777380D01*
X177944524Y-99777380D02*
X177849286Y-99729761D01*
X177849286Y-99729761D02*
X177801667Y-99682142D01*
%TO.C,D2*%
X193156905Y-99777380D02*
X193156905Y-98777380D01*
X193156905Y-98777380D02*
X193395000Y-98777380D01*
X193395000Y-98777380D02*
X193537857Y-98825000D01*
X193537857Y-98825000D02*
X193633095Y-98920238D01*
X193633095Y-98920238D02*
X193680714Y-99015476D01*
X193680714Y-99015476D02*
X193728333Y-99205952D01*
X193728333Y-99205952D02*
X193728333Y-99348809D01*
X193728333Y-99348809D02*
X193680714Y-99539285D01*
X193680714Y-99539285D02*
X193633095Y-99634523D01*
X193633095Y-99634523D02*
X193537857Y-99729761D01*
X193537857Y-99729761D02*
X193395000Y-99777380D01*
X193395000Y-99777380D02*
X193156905Y-99777380D01*
X194109286Y-98872619D02*
X194156905Y-98825000D01*
X194156905Y-98825000D02*
X194252143Y-98777380D01*
X194252143Y-98777380D02*
X194490238Y-98777380D01*
X194490238Y-98777380D02*
X194585476Y-98825000D01*
X194585476Y-98825000D02*
X194633095Y-98872619D01*
X194633095Y-98872619D02*
X194680714Y-98967857D01*
X194680714Y-98967857D02*
X194680714Y-99063095D01*
X194680714Y-99063095D02*
X194633095Y-99205952D01*
X194633095Y-99205952D02*
X194061667Y-99777380D01*
X194061667Y-99777380D02*
X194680714Y-99777380D01*
%TO.C,D1*%
X213396905Y-99887380D02*
X213396905Y-98887380D01*
X213396905Y-98887380D02*
X213635000Y-98887380D01*
X213635000Y-98887380D02*
X213777857Y-98935000D01*
X213777857Y-98935000D02*
X213873095Y-99030238D01*
X213873095Y-99030238D02*
X213920714Y-99125476D01*
X213920714Y-99125476D02*
X213968333Y-99315952D01*
X213968333Y-99315952D02*
X213968333Y-99458809D01*
X213968333Y-99458809D02*
X213920714Y-99649285D01*
X213920714Y-99649285D02*
X213873095Y-99744523D01*
X213873095Y-99744523D02*
X213777857Y-99839761D01*
X213777857Y-99839761D02*
X213635000Y-99887380D01*
X213635000Y-99887380D02*
X213396905Y-99887380D01*
X214920714Y-99887380D02*
X214349286Y-99887380D01*
X214635000Y-99887380D02*
X214635000Y-98887380D01*
X214635000Y-98887380D02*
X214539762Y-99030238D01*
X214539762Y-99030238D02*
X214444524Y-99125476D01*
X214444524Y-99125476D02*
X214349286Y-99173095D01*
%TO.C,C13*%
X224582142Y-89927142D02*
X224534523Y-89974761D01*
X224534523Y-89974761D02*
X224391666Y-90022380D01*
X224391666Y-90022380D02*
X224296428Y-90022380D01*
X224296428Y-90022380D02*
X224153571Y-89974761D01*
X224153571Y-89974761D02*
X224058333Y-89879523D01*
X224058333Y-89879523D02*
X224010714Y-89784285D01*
X224010714Y-89784285D02*
X223963095Y-89593809D01*
X223963095Y-89593809D02*
X223963095Y-89450952D01*
X223963095Y-89450952D02*
X224010714Y-89260476D01*
X224010714Y-89260476D02*
X224058333Y-89165238D01*
X224058333Y-89165238D02*
X224153571Y-89070000D01*
X224153571Y-89070000D02*
X224296428Y-89022380D01*
X224296428Y-89022380D02*
X224391666Y-89022380D01*
X224391666Y-89022380D02*
X224534523Y-89070000D01*
X224534523Y-89070000D02*
X224582142Y-89117619D01*
X225534523Y-90022380D02*
X224963095Y-90022380D01*
X225248809Y-90022380D02*
X225248809Y-89022380D01*
X225248809Y-89022380D02*
X225153571Y-89165238D01*
X225153571Y-89165238D02*
X225058333Y-89260476D01*
X225058333Y-89260476D02*
X224963095Y-89308095D01*
X225867857Y-89022380D02*
X226486904Y-89022380D01*
X226486904Y-89022380D02*
X226153571Y-89403333D01*
X226153571Y-89403333D02*
X226296428Y-89403333D01*
X226296428Y-89403333D02*
X226391666Y-89450952D01*
X226391666Y-89450952D02*
X226439285Y-89498571D01*
X226439285Y-89498571D02*
X226486904Y-89593809D01*
X226486904Y-89593809D02*
X226486904Y-89831904D01*
X226486904Y-89831904D02*
X226439285Y-89927142D01*
X226439285Y-89927142D02*
X226391666Y-89974761D01*
X226391666Y-89974761D02*
X226296428Y-90022380D01*
X226296428Y-90022380D02*
X226010714Y-90022380D01*
X226010714Y-90022380D02*
X225915476Y-89974761D01*
X225915476Y-89974761D02*
X225867857Y-89927142D01*
%TO.C,C12*%
X224582142Y-86917142D02*
X224534523Y-86964761D01*
X224534523Y-86964761D02*
X224391666Y-87012380D01*
X224391666Y-87012380D02*
X224296428Y-87012380D01*
X224296428Y-87012380D02*
X224153571Y-86964761D01*
X224153571Y-86964761D02*
X224058333Y-86869523D01*
X224058333Y-86869523D02*
X224010714Y-86774285D01*
X224010714Y-86774285D02*
X223963095Y-86583809D01*
X223963095Y-86583809D02*
X223963095Y-86440952D01*
X223963095Y-86440952D02*
X224010714Y-86250476D01*
X224010714Y-86250476D02*
X224058333Y-86155238D01*
X224058333Y-86155238D02*
X224153571Y-86060000D01*
X224153571Y-86060000D02*
X224296428Y-86012380D01*
X224296428Y-86012380D02*
X224391666Y-86012380D01*
X224391666Y-86012380D02*
X224534523Y-86060000D01*
X224534523Y-86060000D02*
X224582142Y-86107619D01*
X225534523Y-87012380D02*
X224963095Y-87012380D01*
X225248809Y-87012380D02*
X225248809Y-86012380D01*
X225248809Y-86012380D02*
X225153571Y-86155238D01*
X225153571Y-86155238D02*
X225058333Y-86250476D01*
X225058333Y-86250476D02*
X224963095Y-86298095D01*
X225915476Y-86107619D02*
X225963095Y-86060000D01*
X225963095Y-86060000D02*
X226058333Y-86012380D01*
X226058333Y-86012380D02*
X226296428Y-86012380D01*
X226296428Y-86012380D02*
X226391666Y-86060000D01*
X226391666Y-86060000D02*
X226439285Y-86107619D01*
X226439285Y-86107619D02*
X226486904Y-86202857D01*
X226486904Y-86202857D02*
X226486904Y-86298095D01*
X226486904Y-86298095D02*
X226439285Y-86440952D01*
X226439285Y-86440952D02*
X225867857Y-87012380D01*
X225867857Y-87012380D02*
X226486904Y-87012380D01*
%TO.C,C11*%
X229032142Y-89907142D02*
X228984523Y-89954761D01*
X228984523Y-89954761D02*
X228841666Y-90002380D01*
X228841666Y-90002380D02*
X228746428Y-90002380D01*
X228746428Y-90002380D02*
X228603571Y-89954761D01*
X228603571Y-89954761D02*
X228508333Y-89859523D01*
X228508333Y-89859523D02*
X228460714Y-89764285D01*
X228460714Y-89764285D02*
X228413095Y-89573809D01*
X228413095Y-89573809D02*
X228413095Y-89430952D01*
X228413095Y-89430952D02*
X228460714Y-89240476D01*
X228460714Y-89240476D02*
X228508333Y-89145238D01*
X228508333Y-89145238D02*
X228603571Y-89050000D01*
X228603571Y-89050000D02*
X228746428Y-89002380D01*
X228746428Y-89002380D02*
X228841666Y-89002380D01*
X228841666Y-89002380D02*
X228984523Y-89050000D01*
X228984523Y-89050000D02*
X229032142Y-89097619D01*
X229984523Y-90002380D02*
X229413095Y-90002380D01*
X229698809Y-90002380D02*
X229698809Y-89002380D01*
X229698809Y-89002380D02*
X229603571Y-89145238D01*
X229603571Y-89145238D02*
X229508333Y-89240476D01*
X229508333Y-89240476D02*
X229413095Y-89288095D01*
X230936904Y-90002380D02*
X230365476Y-90002380D01*
X230651190Y-90002380D02*
X230651190Y-89002380D01*
X230651190Y-89002380D02*
X230555952Y-89145238D01*
X230555952Y-89145238D02*
X230460714Y-89240476D01*
X230460714Y-89240476D02*
X230365476Y-89288095D01*
%TO.C,C10*%
X233882142Y-81727142D02*
X233834523Y-81774761D01*
X233834523Y-81774761D02*
X233691666Y-81822380D01*
X233691666Y-81822380D02*
X233596428Y-81822380D01*
X233596428Y-81822380D02*
X233453571Y-81774761D01*
X233453571Y-81774761D02*
X233358333Y-81679523D01*
X233358333Y-81679523D02*
X233310714Y-81584285D01*
X233310714Y-81584285D02*
X233263095Y-81393809D01*
X233263095Y-81393809D02*
X233263095Y-81250952D01*
X233263095Y-81250952D02*
X233310714Y-81060476D01*
X233310714Y-81060476D02*
X233358333Y-80965238D01*
X233358333Y-80965238D02*
X233453571Y-80870000D01*
X233453571Y-80870000D02*
X233596428Y-80822380D01*
X233596428Y-80822380D02*
X233691666Y-80822380D01*
X233691666Y-80822380D02*
X233834523Y-80870000D01*
X233834523Y-80870000D02*
X233882142Y-80917619D01*
X234834523Y-81822380D02*
X234263095Y-81822380D01*
X234548809Y-81822380D02*
X234548809Y-80822380D01*
X234548809Y-80822380D02*
X234453571Y-80965238D01*
X234453571Y-80965238D02*
X234358333Y-81060476D01*
X234358333Y-81060476D02*
X234263095Y-81108095D01*
X235453571Y-80822380D02*
X235548809Y-80822380D01*
X235548809Y-80822380D02*
X235644047Y-80870000D01*
X235644047Y-80870000D02*
X235691666Y-80917619D01*
X235691666Y-80917619D02*
X235739285Y-81012857D01*
X235739285Y-81012857D02*
X235786904Y-81203333D01*
X235786904Y-81203333D02*
X235786904Y-81441428D01*
X235786904Y-81441428D02*
X235739285Y-81631904D01*
X235739285Y-81631904D02*
X235691666Y-81727142D01*
X235691666Y-81727142D02*
X235644047Y-81774761D01*
X235644047Y-81774761D02*
X235548809Y-81822380D01*
X235548809Y-81822380D02*
X235453571Y-81822380D01*
X235453571Y-81822380D02*
X235358333Y-81774761D01*
X235358333Y-81774761D02*
X235310714Y-81727142D01*
X235310714Y-81727142D02*
X235263095Y-81631904D01*
X235263095Y-81631904D02*
X235215476Y-81441428D01*
X235215476Y-81441428D02*
X235215476Y-81203333D01*
X235215476Y-81203333D02*
X235263095Y-81012857D01*
X235263095Y-81012857D02*
X235310714Y-80917619D01*
X235310714Y-80917619D02*
X235358333Y-80870000D01*
X235358333Y-80870000D02*
X235453571Y-80822380D01*
%TO.C,C9*%
X277258333Y-45157142D02*
X277210714Y-45204761D01*
X277210714Y-45204761D02*
X277067857Y-45252380D01*
X277067857Y-45252380D02*
X276972619Y-45252380D01*
X276972619Y-45252380D02*
X276829762Y-45204761D01*
X276829762Y-45204761D02*
X276734524Y-45109523D01*
X276734524Y-45109523D02*
X276686905Y-45014285D01*
X276686905Y-45014285D02*
X276639286Y-44823809D01*
X276639286Y-44823809D02*
X276639286Y-44680952D01*
X276639286Y-44680952D02*
X276686905Y-44490476D01*
X276686905Y-44490476D02*
X276734524Y-44395238D01*
X276734524Y-44395238D02*
X276829762Y-44300000D01*
X276829762Y-44300000D02*
X276972619Y-44252380D01*
X276972619Y-44252380D02*
X277067857Y-44252380D01*
X277067857Y-44252380D02*
X277210714Y-44300000D01*
X277210714Y-44300000D02*
X277258333Y-44347619D01*
X277734524Y-45252380D02*
X277925000Y-45252380D01*
X277925000Y-45252380D02*
X278020238Y-45204761D01*
X278020238Y-45204761D02*
X278067857Y-45157142D01*
X278067857Y-45157142D02*
X278163095Y-45014285D01*
X278163095Y-45014285D02*
X278210714Y-44823809D01*
X278210714Y-44823809D02*
X278210714Y-44442857D01*
X278210714Y-44442857D02*
X278163095Y-44347619D01*
X278163095Y-44347619D02*
X278115476Y-44300000D01*
X278115476Y-44300000D02*
X278020238Y-44252380D01*
X278020238Y-44252380D02*
X277829762Y-44252380D01*
X277829762Y-44252380D02*
X277734524Y-44300000D01*
X277734524Y-44300000D02*
X277686905Y-44347619D01*
X277686905Y-44347619D02*
X277639286Y-44442857D01*
X277639286Y-44442857D02*
X277639286Y-44680952D01*
X277639286Y-44680952D02*
X277686905Y-44776190D01*
X277686905Y-44776190D02*
X277734524Y-44823809D01*
X277734524Y-44823809D02*
X277829762Y-44871428D01*
X277829762Y-44871428D02*
X278020238Y-44871428D01*
X278020238Y-44871428D02*
X278115476Y-44823809D01*
X278115476Y-44823809D02*
X278163095Y-44776190D01*
X278163095Y-44776190D02*
X278210714Y-44680952D01*
%TO.C,C8*%
X209498333Y-99747142D02*
X209450714Y-99794761D01*
X209450714Y-99794761D02*
X209307857Y-99842380D01*
X209307857Y-99842380D02*
X209212619Y-99842380D01*
X209212619Y-99842380D02*
X209069762Y-99794761D01*
X209069762Y-99794761D02*
X208974524Y-99699523D01*
X208974524Y-99699523D02*
X208926905Y-99604285D01*
X208926905Y-99604285D02*
X208879286Y-99413809D01*
X208879286Y-99413809D02*
X208879286Y-99270952D01*
X208879286Y-99270952D02*
X208926905Y-99080476D01*
X208926905Y-99080476D02*
X208974524Y-98985238D01*
X208974524Y-98985238D02*
X209069762Y-98890000D01*
X209069762Y-98890000D02*
X209212619Y-98842380D01*
X209212619Y-98842380D02*
X209307857Y-98842380D01*
X209307857Y-98842380D02*
X209450714Y-98890000D01*
X209450714Y-98890000D02*
X209498333Y-98937619D01*
X210069762Y-99270952D02*
X209974524Y-99223333D01*
X209974524Y-99223333D02*
X209926905Y-99175714D01*
X209926905Y-99175714D02*
X209879286Y-99080476D01*
X209879286Y-99080476D02*
X209879286Y-99032857D01*
X209879286Y-99032857D02*
X209926905Y-98937619D01*
X209926905Y-98937619D02*
X209974524Y-98890000D01*
X209974524Y-98890000D02*
X210069762Y-98842380D01*
X210069762Y-98842380D02*
X210260238Y-98842380D01*
X210260238Y-98842380D02*
X210355476Y-98890000D01*
X210355476Y-98890000D02*
X210403095Y-98937619D01*
X210403095Y-98937619D02*
X210450714Y-99032857D01*
X210450714Y-99032857D02*
X210450714Y-99080476D01*
X210450714Y-99080476D02*
X210403095Y-99175714D01*
X210403095Y-99175714D02*
X210355476Y-99223333D01*
X210355476Y-99223333D02*
X210260238Y-99270952D01*
X210260238Y-99270952D02*
X210069762Y-99270952D01*
X210069762Y-99270952D02*
X209974524Y-99318571D01*
X209974524Y-99318571D02*
X209926905Y-99366190D01*
X209926905Y-99366190D02*
X209879286Y-99461428D01*
X209879286Y-99461428D02*
X209879286Y-99651904D01*
X209879286Y-99651904D02*
X209926905Y-99747142D01*
X209926905Y-99747142D02*
X209974524Y-99794761D01*
X209974524Y-99794761D02*
X210069762Y-99842380D01*
X210069762Y-99842380D02*
X210260238Y-99842380D01*
X210260238Y-99842380D02*
X210355476Y-99794761D01*
X210355476Y-99794761D02*
X210403095Y-99747142D01*
X210403095Y-99747142D02*
X210450714Y-99651904D01*
X210450714Y-99651904D02*
X210450714Y-99461428D01*
X210450714Y-99461428D02*
X210403095Y-99366190D01*
X210403095Y-99366190D02*
X210355476Y-99318571D01*
X210355476Y-99318571D02*
X210260238Y-99270952D01*
%TO.C,C7*%
X218398333Y-99747142D02*
X218350714Y-99794761D01*
X218350714Y-99794761D02*
X218207857Y-99842380D01*
X218207857Y-99842380D02*
X218112619Y-99842380D01*
X218112619Y-99842380D02*
X217969762Y-99794761D01*
X217969762Y-99794761D02*
X217874524Y-99699523D01*
X217874524Y-99699523D02*
X217826905Y-99604285D01*
X217826905Y-99604285D02*
X217779286Y-99413809D01*
X217779286Y-99413809D02*
X217779286Y-99270952D01*
X217779286Y-99270952D02*
X217826905Y-99080476D01*
X217826905Y-99080476D02*
X217874524Y-98985238D01*
X217874524Y-98985238D02*
X217969762Y-98890000D01*
X217969762Y-98890000D02*
X218112619Y-98842380D01*
X218112619Y-98842380D02*
X218207857Y-98842380D01*
X218207857Y-98842380D02*
X218350714Y-98890000D01*
X218350714Y-98890000D02*
X218398333Y-98937619D01*
X218731667Y-98842380D02*
X219398333Y-98842380D01*
X219398333Y-98842380D02*
X218969762Y-99842380D01*
%TO.C,C6*%
X244998333Y-72557142D02*
X244950714Y-72604761D01*
X244950714Y-72604761D02*
X244807857Y-72652380D01*
X244807857Y-72652380D02*
X244712619Y-72652380D01*
X244712619Y-72652380D02*
X244569762Y-72604761D01*
X244569762Y-72604761D02*
X244474524Y-72509523D01*
X244474524Y-72509523D02*
X244426905Y-72414285D01*
X244426905Y-72414285D02*
X244379286Y-72223809D01*
X244379286Y-72223809D02*
X244379286Y-72080952D01*
X244379286Y-72080952D02*
X244426905Y-71890476D01*
X244426905Y-71890476D02*
X244474524Y-71795238D01*
X244474524Y-71795238D02*
X244569762Y-71700000D01*
X244569762Y-71700000D02*
X244712619Y-71652380D01*
X244712619Y-71652380D02*
X244807857Y-71652380D01*
X244807857Y-71652380D02*
X244950714Y-71700000D01*
X244950714Y-71700000D02*
X244998333Y-71747619D01*
X245855476Y-71652380D02*
X245665000Y-71652380D01*
X245665000Y-71652380D02*
X245569762Y-71700000D01*
X245569762Y-71700000D02*
X245522143Y-71747619D01*
X245522143Y-71747619D02*
X245426905Y-71890476D01*
X245426905Y-71890476D02*
X245379286Y-72080952D01*
X245379286Y-72080952D02*
X245379286Y-72461904D01*
X245379286Y-72461904D02*
X245426905Y-72557142D01*
X245426905Y-72557142D02*
X245474524Y-72604761D01*
X245474524Y-72604761D02*
X245569762Y-72652380D01*
X245569762Y-72652380D02*
X245760238Y-72652380D01*
X245760238Y-72652380D02*
X245855476Y-72604761D01*
X245855476Y-72604761D02*
X245903095Y-72557142D01*
X245903095Y-72557142D02*
X245950714Y-72461904D01*
X245950714Y-72461904D02*
X245950714Y-72223809D01*
X245950714Y-72223809D02*
X245903095Y-72128571D01*
X245903095Y-72128571D02*
X245855476Y-72080952D01*
X245855476Y-72080952D02*
X245760238Y-72033333D01*
X245760238Y-72033333D02*
X245569762Y-72033333D01*
X245569762Y-72033333D02*
X245474524Y-72080952D01*
X245474524Y-72080952D02*
X245426905Y-72128571D01*
X245426905Y-72128571D02*
X245379286Y-72223809D01*
%TO.C,C5*%
X205048333Y-99747142D02*
X205000714Y-99794761D01*
X205000714Y-99794761D02*
X204857857Y-99842380D01*
X204857857Y-99842380D02*
X204762619Y-99842380D01*
X204762619Y-99842380D02*
X204619762Y-99794761D01*
X204619762Y-99794761D02*
X204524524Y-99699523D01*
X204524524Y-99699523D02*
X204476905Y-99604285D01*
X204476905Y-99604285D02*
X204429286Y-99413809D01*
X204429286Y-99413809D02*
X204429286Y-99270952D01*
X204429286Y-99270952D02*
X204476905Y-99080476D01*
X204476905Y-99080476D02*
X204524524Y-98985238D01*
X204524524Y-98985238D02*
X204619762Y-98890000D01*
X204619762Y-98890000D02*
X204762619Y-98842380D01*
X204762619Y-98842380D02*
X204857857Y-98842380D01*
X204857857Y-98842380D02*
X205000714Y-98890000D01*
X205000714Y-98890000D02*
X205048333Y-98937619D01*
X205953095Y-98842380D02*
X205476905Y-98842380D01*
X205476905Y-98842380D02*
X205429286Y-99318571D01*
X205429286Y-99318571D02*
X205476905Y-99270952D01*
X205476905Y-99270952D02*
X205572143Y-99223333D01*
X205572143Y-99223333D02*
X205810238Y-99223333D01*
X205810238Y-99223333D02*
X205905476Y-99270952D01*
X205905476Y-99270952D02*
X205953095Y-99318571D01*
X205953095Y-99318571D02*
X206000714Y-99413809D01*
X206000714Y-99413809D02*
X206000714Y-99651904D01*
X206000714Y-99651904D02*
X205953095Y-99747142D01*
X205953095Y-99747142D02*
X205905476Y-99794761D01*
X205905476Y-99794761D02*
X205810238Y-99842380D01*
X205810238Y-99842380D02*
X205572143Y-99842380D01*
X205572143Y-99842380D02*
X205476905Y-99794761D01*
X205476905Y-99794761D02*
X205429286Y-99747142D01*
%TO.C,C4*%
X205048333Y-102757142D02*
X205000714Y-102804761D01*
X205000714Y-102804761D02*
X204857857Y-102852380D01*
X204857857Y-102852380D02*
X204762619Y-102852380D01*
X204762619Y-102852380D02*
X204619762Y-102804761D01*
X204619762Y-102804761D02*
X204524524Y-102709523D01*
X204524524Y-102709523D02*
X204476905Y-102614285D01*
X204476905Y-102614285D02*
X204429286Y-102423809D01*
X204429286Y-102423809D02*
X204429286Y-102280952D01*
X204429286Y-102280952D02*
X204476905Y-102090476D01*
X204476905Y-102090476D02*
X204524524Y-101995238D01*
X204524524Y-101995238D02*
X204619762Y-101900000D01*
X204619762Y-101900000D02*
X204762619Y-101852380D01*
X204762619Y-101852380D02*
X204857857Y-101852380D01*
X204857857Y-101852380D02*
X205000714Y-101900000D01*
X205000714Y-101900000D02*
X205048333Y-101947619D01*
X205905476Y-102185714D02*
X205905476Y-102852380D01*
X205667381Y-101804761D02*
X205429286Y-102519047D01*
X205429286Y-102519047D02*
X206048333Y-102519047D01*
%TO.C,C3*%
X213948333Y-102787142D02*
X213900714Y-102834761D01*
X213900714Y-102834761D02*
X213757857Y-102882380D01*
X213757857Y-102882380D02*
X213662619Y-102882380D01*
X213662619Y-102882380D02*
X213519762Y-102834761D01*
X213519762Y-102834761D02*
X213424524Y-102739523D01*
X213424524Y-102739523D02*
X213376905Y-102644285D01*
X213376905Y-102644285D02*
X213329286Y-102453809D01*
X213329286Y-102453809D02*
X213329286Y-102310952D01*
X213329286Y-102310952D02*
X213376905Y-102120476D01*
X213376905Y-102120476D02*
X213424524Y-102025238D01*
X213424524Y-102025238D02*
X213519762Y-101930000D01*
X213519762Y-101930000D02*
X213662619Y-101882380D01*
X213662619Y-101882380D02*
X213757857Y-101882380D01*
X213757857Y-101882380D02*
X213900714Y-101930000D01*
X213900714Y-101930000D02*
X213948333Y-101977619D01*
X214281667Y-101882380D02*
X214900714Y-101882380D01*
X214900714Y-101882380D02*
X214567381Y-102263333D01*
X214567381Y-102263333D02*
X214710238Y-102263333D01*
X214710238Y-102263333D02*
X214805476Y-102310952D01*
X214805476Y-102310952D02*
X214853095Y-102358571D01*
X214853095Y-102358571D02*
X214900714Y-102453809D01*
X214900714Y-102453809D02*
X214900714Y-102691904D01*
X214900714Y-102691904D02*
X214853095Y-102787142D01*
X214853095Y-102787142D02*
X214805476Y-102834761D01*
X214805476Y-102834761D02*
X214710238Y-102882380D01*
X214710238Y-102882380D02*
X214424524Y-102882380D01*
X214424524Y-102882380D02*
X214329286Y-102834761D01*
X214329286Y-102834761D02*
X214281667Y-102787142D01*
%TO.C,C2*%
X209498333Y-102757142D02*
X209450714Y-102804761D01*
X209450714Y-102804761D02*
X209307857Y-102852380D01*
X209307857Y-102852380D02*
X209212619Y-102852380D01*
X209212619Y-102852380D02*
X209069762Y-102804761D01*
X209069762Y-102804761D02*
X208974524Y-102709523D01*
X208974524Y-102709523D02*
X208926905Y-102614285D01*
X208926905Y-102614285D02*
X208879286Y-102423809D01*
X208879286Y-102423809D02*
X208879286Y-102280952D01*
X208879286Y-102280952D02*
X208926905Y-102090476D01*
X208926905Y-102090476D02*
X208974524Y-101995238D01*
X208974524Y-101995238D02*
X209069762Y-101900000D01*
X209069762Y-101900000D02*
X209212619Y-101852380D01*
X209212619Y-101852380D02*
X209307857Y-101852380D01*
X209307857Y-101852380D02*
X209450714Y-101900000D01*
X209450714Y-101900000D02*
X209498333Y-101947619D01*
X209879286Y-101947619D02*
X209926905Y-101900000D01*
X209926905Y-101900000D02*
X210022143Y-101852380D01*
X210022143Y-101852380D02*
X210260238Y-101852380D01*
X210260238Y-101852380D02*
X210355476Y-101900000D01*
X210355476Y-101900000D02*
X210403095Y-101947619D01*
X210403095Y-101947619D02*
X210450714Y-102042857D01*
X210450714Y-102042857D02*
X210450714Y-102138095D01*
X210450714Y-102138095D02*
X210403095Y-102280952D01*
X210403095Y-102280952D02*
X209831667Y-102852380D01*
X209831667Y-102852380D02*
X210450714Y-102852380D01*
%TO.C,C1*%
X225058333Y-83907142D02*
X225010714Y-83954761D01*
X225010714Y-83954761D02*
X224867857Y-84002380D01*
X224867857Y-84002380D02*
X224772619Y-84002380D01*
X224772619Y-84002380D02*
X224629762Y-83954761D01*
X224629762Y-83954761D02*
X224534524Y-83859523D01*
X224534524Y-83859523D02*
X224486905Y-83764285D01*
X224486905Y-83764285D02*
X224439286Y-83573809D01*
X224439286Y-83573809D02*
X224439286Y-83430952D01*
X224439286Y-83430952D02*
X224486905Y-83240476D01*
X224486905Y-83240476D02*
X224534524Y-83145238D01*
X224534524Y-83145238D02*
X224629762Y-83050000D01*
X224629762Y-83050000D02*
X224772619Y-83002380D01*
X224772619Y-83002380D02*
X224867857Y-83002380D01*
X224867857Y-83002380D02*
X225010714Y-83050000D01*
X225010714Y-83050000D02*
X225058333Y-83097619D01*
X226010714Y-84002380D02*
X225439286Y-84002380D01*
X225725000Y-84002380D02*
X225725000Y-83002380D01*
X225725000Y-83002380D02*
X225629762Y-83145238D01*
X225629762Y-83145238D02*
X225534524Y-83240476D01*
X225534524Y-83240476D02*
X225439286Y-83288095D01*
D11*
%TO.C,U2*%
X207345000Y-98110000D02*
X207345000Y-98370000D01*
X189100000Y-67120000D02*
X207355000Y-67120000D01*
X189105000Y-98010000D02*
X189105000Y-98370000D01*
X207345000Y-98370000D02*
X205685000Y-98370000D01*
X189115000Y-74200000D02*
X189100000Y-67120000D01*
X189105000Y-98370000D02*
X190765000Y-98370000D01*
X207355000Y-73540000D02*
X207355000Y-67120000D01*
X189115000Y-74200000D02*
X188725000Y-74200000D01*
%TO.C,U1*%
X200415000Y-103350000D02*
X199615000Y-103350000D01*
X200415000Y-100230000D02*
X198615000Y-100230000D01*
X200415000Y-100230000D02*
X201215000Y-100230000D01*
X200415000Y-103350000D02*
X201215000Y-103350000D01*
%TO.C,RN1*%
X225575000Y-79670000D02*
X224575000Y-79670000D01*
X225575000Y-83030000D02*
X224575000Y-83030000D01*
%TO.C,R4*%
X234277936Y-85295000D02*
X234732064Y-85295000D01*
X234277936Y-86765000D02*
X234732064Y-86765000D01*
%TO.C,R3*%
X224977936Y-93495000D02*
X225432064Y-93495000D01*
X224977936Y-94965000D02*
X225432064Y-94965000D01*
%TO.C,R2*%
X277177936Y-48725000D02*
X277632064Y-48725000D01*
X277177936Y-50195000D02*
X277632064Y-50195000D01*
%TO.C,R1*%
X238687936Y-85295000D02*
X239142064Y-85295000D01*
X238687936Y-86765000D02*
X239142064Y-86765000D01*
%TO.C,J5*%
X223995000Y-77990000D02*
X226655000Y-77990000D01*
X223995000Y-55070000D02*
X226655000Y-55070000D01*
X223995000Y-52470000D02*
X225325000Y-52470000D01*
X223995000Y-55070000D02*
X223995000Y-77990000D01*
X226655000Y-55070000D02*
X226655000Y-77990000D01*
X223995000Y-53800000D02*
X223995000Y-52470000D01*
%TO.C,J1*%
X228645000Y-75970000D02*
X228645000Y-88730000D01*
X228645000Y-74700000D02*
X228645000Y-73370000D01*
X228645000Y-73370000D02*
X229975000Y-73370000D01*
X228645000Y-75970000D02*
X231305000Y-75970000D01*
X228645000Y-88730000D02*
X231305000Y-88730000D01*
X231305000Y-75970000D02*
X231305000Y-88730000D01*
%TO.C,D8*%
X230235000Y-58755000D02*
X228335000Y-58755000D01*
X228235000Y-58655000D02*
X230135000Y-58655000D01*
X228210000Y-59955000D02*
X228210000Y-58655000D01*
X228335000Y-59855000D02*
X230235000Y-59855000D01*
X230235000Y-59855000D02*
X230235000Y-59955000D01*
X228310000Y-58755000D02*
X228310000Y-59855000D01*
X230235000Y-59955000D02*
X228235000Y-59955000D01*
X230235000Y-59955000D02*
X233435000Y-59955000D01*
X233435000Y-59955000D02*
X233435000Y-57155000D01*
X233435000Y-57155000D02*
X230235000Y-57155000D01*
X230235000Y-57155000D02*
X230235000Y-59955000D01*
%TO.C,D7*%
X230235000Y-63475000D02*
X228335000Y-63475000D01*
X228235000Y-63375000D02*
X230135000Y-63375000D01*
X228210000Y-64675000D02*
X228210000Y-63375000D01*
X228335000Y-64575000D02*
X230235000Y-64575000D01*
X230235000Y-64575000D02*
X230235000Y-64675000D01*
X228310000Y-63475000D02*
X228310000Y-64575000D01*
X230235000Y-64675000D02*
X228235000Y-64675000D01*
X230235000Y-64675000D02*
X233435000Y-64675000D01*
X233435000Y-64675000D02*
X233435000Y-61875000D01*
X233435000Y-61875000D02*
X230235000Y-61875000D01*
X230235000Y-61875000D02*
X230235000Y-64675000D01*
%TO.C,D6*%
X184165000Y-102125000D02*
X182265000Y-102125000D01*
X182165000Y-102025000D02*
X184065000Y-102025000D01*
X182140000Y-103325000D02*
X182140000Y-102025000D01*
X182265000Y-103225000D02*
X184165000Y-103225000D01*
X184165000Y-103225000D02*
X184165000Y-103325000D01*
X182240000Y-102125000D02*
X182240000Y-103225000D01*
X184165000Y-103325000D02*
X182165000Y-103325000D01*
X184165000Y-103325000D02*
X187365000Y-103325000D01*
X187365000Y-103325000D02*
X187365000Y-100525000D01*
X187365000Y-100525000D02*
X184165000Y-100525000D01*
X184165000Y-100525000D02*
X184165000Y-103325000D01*
%TO.C,D5*%
X230235000Y-68195000D02*
X228335000Y-68195000D01*
X228235000Y-68095000D02*
X230135000Y-68095000D01*
X228210000Y-69395000D02*
X228210000Y-68095000D01*
X228335000Y-69295000D02*
X230235000Y-69295000D01*
X230235000Y-69295000D02*
X230235000Y-69395000D01*
X228310000Y-68195000D02*
X228310000Y-69295000D01*
X230235000Y-69395000D02*
X228235000Y-69395000D01*
X230235000Y-69395000D02*
X233435000Y-69395000D01*
X233435000Y-69395000D02*
X233435000Y-66595000D01*
X233435000Y-66595000D02*
X230235000Y-66595000D01*
X230235000Y-66595000D02*
X230235000Y-69395000D01*
%TO.C,D4*%
X230235000Y-54035000D02*
X228335000Y-54035000D01*
X228235000Y-53935000D02*
X230135000Y-53935000D01*
X228210000Y-55235000D02*
X228210000Y-53935000D01*
X228335000Y-55135000D02*
X230235000Y-55135000D01*
X230235000Y-55135000D02*
X230235000Y-55235000D01*
X228310000Y-54035000D02*
X228310000Y-55135000D01*
X230235000Y-55235000D02*
X228235000Y-55235000D01*
X230235000Y-55235000D02*
X233435000Y-55235000D01*
X233435000Y-55235000D02*
X233435000Y-52435000D01*
X233435000Y-52435000D02*
X230235000Y-52435000D01*
X230235000Y-52435000D02*
X230235000Y-55235000D01*
%TO.C,D3*%
X176035000Y-102125000D02*
X174135000Y-102125000D01*
X174035000Y-102025000D02*
X175935000Y-102025000D01*
X174010000Y-103325000D02*
X174010000Y-102025000D01*
X174135000Y-103225000D02*
X176035000Y-103225000D01*
X176035000Y-103225000D02*
X176035000Y-103325000D01*
X174110000Y-102125000D02*
X174110000Y-103225000D01*
X176035000Y-103325000D02*
X174035000Y-103325000D01*
X176035000Y-103325000D02*
X179235000Y-103325000D01*
X179235000Y-103325000D02*
X179235000Y-100525000D01*
X179235000Y-100525000D02*
X176035000Y-100525000D01*
X176035000Y-100525000D02*
X176035000Y-103325000D01*
%TO.C,D2*%
X192295000Y-102125000D02*
X190395000Y-102125000D01*
X190295000Y-102025000D02*
X192195000Y-102025000D01*
X190270000Y-103325000D02*
X190270000Y-102025000D01*
X190395000Y-103225000D02*
X192295000Y-103225000D01*
X192295000Y-103225000D02*
X192295000Y-103325000D01*
X190370000Y-102125000D02*
X190370000Y-103225000D01*
X192295000Y-103325000D02*
X190295000Y-103325000D01*
X192295000Y-103325000D02*
X195495000Y-103325000D01*
X195495000Y-103325000D02*
X195495000Y-100525000D01*
X195495000Y-100525000D02*
X192295000Y-100525000D01*
X192295000Y-100525000D02*
X192295000Y-103325000D01*
%TO.C,D1*%
X212450000Y-102045000D02*
X215135000Y-102045000D01*
X212450000Y-100125000D02*
X212450000Y-102045000D01*
X215135000Y-100125000D02*
X212450000Y-100125000D01*
%TO.C,C13*%
X224963748Y-91985000D02*
X225486252Y-91985000D01*
X224963748Y-90515000D02*
X225486252Y-90515000D01*
%TO.C,C12*%
X224963748Y-88975000D02*
X225486252Y-88975000D01*
X224963748Y-87505000D02*
X225486252Y-87505000D01*
%TO.C,C11*%
X229413748Y-91965000D02*
X229936252Y-91965000D01*
X229413748Y-90495000D02*
X229936252Y-90495000D01*
%TO.C,C10*%
X234263748Y-83785000D02*
X234786252Y-83785000D01*
X234263748Y-82315000D02*
X234786252Y-82315000D01*
%TO.C,C9*%
X277163748Y-47215000D02*
X277686252Y-47215000D01*
X277163748Y-45745000D02*
X277686252Y-45745000D01*
%TO.C,C8*%
X209403748Y-101805000D02*
X209926252Y-101805000D01*
X209403748Y-100335000D02*
X209926252Y-100335000D01*
%TO.C,C7*%
X218303748Y-101805000D02*
X218826252Y-101805000D01*
X218303748Y-100335000D02*
X218826252Y-100335000D01*
%TO.C,C6*%
X244903748Y-74615000D02*
X245426252Y-74615000D01*
X244903748Y-73145000D02*
X245426252Y-73145000D01*
%TO.C,C5*%
X204953748Y-101805000D02*
X205476252Y-101805000D01*
X204953748Y-100335000D02*
X205476252Y-100335000D01*
%TO.C,C4*%
X204953748Y-104815000D02*
X205476252Y-104815000D01*
X204953748Y-103345000D02*
X205476252Y-103345000D01*
%TO.C,C3*%
X213853748Y-104845000D02*
X214376252Y-104845000D01*
X213853748Y-103375000D02*
X214376252Y-103375000D01*
%TO.C,C2*%
X209403748Y-104815000D02*
X209926252Y-104815000D01*
X209403748Y-103345000D02*
X209926252Y-103345000D01*
%TO.C,C1*%
X224963748Y-85965000D02*
X225486252Y-85965000D01*
X224963748Y-84495000D02*
X225486252Y-84495000D01*
%TO.C,G\u002A\u002A\u002A*%
G36*
X110266550Y-89393284D02*
G01*
X110297617Y-89238368D01*
X110413064Y-88791003D01*
X110556288Y-88366494D01*
X110731792Y-87952337D01*
X110840584Y-87730519D01*
X110856192Y-87702439D01*
X110892601Y-87638434D01*
X110949400Y-87539215D01*
X111026180Y-87405493D01*
X111122529Y-87237978D01*
X111238035Y-87037381D01*
X111372289Y-86804412D01*
X111524880Y-86539783D01*
X111695395Y-86244204D01*
X111883426Y-85918385D01*
X112088560Y-85563037D01*
X112310388Y-85178872D01*
X112548497Y-84766599D01*
X112802478Y-84326929D01*
X113071919Y-83860572D01*
X113356409Y-83368240D01*
X113655538Y-82850644D01*
X113968895Y-82308493D01*
X114296069Y-81742498D01*
X114636649Y-81153371D01*
X114990224Y-80541821D01*
X115356383Y-79908559D01*
X115734716Y-79254297D01*
X116124811Y-78579744D01*
X116526258Y-77885611D01*
X116938646Y-77172609D01*
X117361564Y-76441449D01*
X117794601Y-75692841D01*
X118237346Y-74927496D01*
X118689389Y-74146124D01*
X119150319Y-73349437D01*
X119619724Y-72538144D01*
X120097193Y-71712957D01*
X120582317Y-70874586D01*
X121074684Y-70023742D01*
X121573883Y-69161135D01*
X122079504Y-68287476D01*
X122591135Y-67403476D01*
X123108366Y-66509845D01*
X123630785Y-65607294D01*
X123961501Y-65035960D01*
X136957586Y-42584707D01*
X137063668Y-42537756D01*
X137176390Y-42502345D01*
X137294953Y-42489373D01*
X137405550Y-42499045D01*
X137493976Y-42531329D01*
X137584233Y-42609143D01*
X137660381Y-42725799D01*
X137721792Y-42880011D01*
X137767838Y-43070491D01*
X137773803Y-43104642D01*
X137774920Y-43132442D01*
X137776006Y-43201512D01*
X137777062Y-43310789D01*
X137778086Y-43459210D01*
X137779080Y-43645713D01*
X137780043Y-43869234D01*
X137780976Y-44128710D01*
X137781878Y-44423079D01*
X137782749Y-44751277D01*
X137783591Y-45112241D01*
X137784402Y-45504909D01*
X137785182Y-45928216D01*
X137785933Y-46381102D01*
X137786653Y-46862501D01*
X137787343Y-47371351D01*
X137788004Y-47906590D01*
X137788634Y-48467155D01*
X137789234Y-49051981D01*
X137789805Y-49660007D01*
X137790346Y-50290169D01*
X137790857Y-50941404D01*
X137791338Y-51612649D01*
X137791790Y-52302842D01*
X137792213Y-53010919D01*
X137792606Y-53735817D01*
X137792969Y-54476473D01*
X137793303Y-55231825D01*
X137793608Y-56000809D01*
X137793884Y-56782362D01*
X137794130Y-57575421D01*
X137794348Y-58378923D01*
X137794536Y-59191806D01*
X137794696Y-60013006D01*
X137794827Y-60841460D01*
X137794928Y-61676105D01*
X137795001Y-62515879D01*
X137795046Y-63359718D01*
X137795061Y-64206558D01*
X137795048Y-65055338D01*
X137795007Y-65904995D01*
X137794937Y-66754464D01*
X137794839Y-67602684D01*
X137794712Y-68448591D01*
X137794557Y-69291121D01*
X137794374Y-70129214D01*
X137794163Y-70961804D01*
X137793923Y-71787829D01*
X137793656Y-72606227D01*
X137793360Y-73415934D01*
X137793037Y-74215886D01*
X137792686Y-75005022D01*
X137792307Y-75782279D01*
X137791900Y-76546592D01*
X137791466Y-77296899D01*
X137791004Y-78032138D01*
X137790515Y-78751245D01*
X137789998Y-79453156D01*
X137789453Y-80136810D01*
X137788882Y-80801143D01*
X137788283Y-81445092D01*
X137787657Y-82067595D01*
X137787003Y-82667587D01*
X137786323Y-83244007D01*
X137785615Y-83795790D01*
X137784881Y-84321875D01*
X137784120Y-84821197D01*
X137783331Y-85292695D01*
X137782516Y-85735305D01*
X137781675Y-86147964D01*
X137780806Y-86529609D01*
X137779911Y-86879177D01*
X137778990Y-87195606D01*
X137778042Y-87477831D01*
X137777067Y-87724790D01*
X137776067Y-87935420D01*
X137775040Y-88108659D01*
X137773986Y-88243442D01*
X137772907Y-88338708D01*
X137771801Y-88393392D01*
X137771160Y-88405989D01*
X137711527Y-88753590D01*
X137612690Y-89088858D01*
X137476733Y-89408810D01*
X137305738Y-89710465D01*
X137101790Y-89990841D01*
X136866971Y-90246957D01*
X136603366Y-90475831D01*
X136313057Y-90674482D01*
X136106502Y-90788257D01*
X135898783Y-90882852D01*
X135679679Y-90962721D01*
X135434629Y-91033100D01*
X135404223Y-91040798D01*
X135222417Y-91086266D01*
X123707750Y-91088428D01*
X123010764Y-91088546D01*
X122324081Y-91088635D01*
X121648928Y-91088698D01*
X120986534Y-91088734D01*
X120338128Y-91088743D01*
X119704938Y-91088727D01*
X119088193Y-91088685D01*
X118489120Y-91088619D01*
X117908949Y-91088529D01*
X117348907Y-91088415D01*
X116810224Y-91088278D01*
X116294127Y-91088119D01*
X115801845Y-91087937D01*
X115334606Y-91087735D01*
X114893639Y-91087511D01*
X114480173Y-91087267D01*
X114095435Y-91087003D01*
X113740654Y-91086720D01*
X113417059Y-91086418D01*
X113125878Y-91086098D01*
X112868339Y-91085760D01*
X112645671Y-91085406D01*
X112459102Y-91085034D01*
X112309860Y-91084647D01*
X112199175Y-91084243D01*
X112128274Y-91083825D01*
X112098387Y-91083393D01*
X112097833Y-91083360D01*
X111975178Y-91070720D01*
X111829364Y-91050595D01*
X111675964Y-91025562D01*
X111530549Y-90998199D01*
X111408688Y-90971083D01*
X111388750Y-90965978D01*
X111120447Y-90879067D01*
X110887262Y-90769040D01*
X110689343Y-90636001D01*
X110526839Y-90480058D01*
X110399899Y-90301313D01*
X110370396Y-90246493D01*
X110301520Y-90088475D01*
X110257283Y-89932254D01*
X110237099Y-89769722D01*
X110238045Y-89718722D01*
X110366406Y-89718722D01*
X110374051Y-89822570D01*
X110391650Y-89912500D01*
X110461281Y-90116012D01*
X110562103Y-90296447D01*
X110694984Y-90454336D01*
X110860792Y-90590210D01*
X111060397Y-90704601D01*
X111294666Y-90798040D01*
X111564468Y-90871058D01*
X111870671Y-90924188D01*
X112083623Y-90947773D01*
X112116457Y-90948824D01*
X112190378Y-90949848D01*
X112304140Y-90950844D01*
X112456498Y-90951810D01*
X112646204Y-90952744D01*
X112872014Y-90953645D01*
X113132681Y-90954512D01*
X113426959Y-90955343D01*
X113753602Y-90956136D01*
X114111363Y-90956890D01*
X114498998Y-90957603D01*
X114915260Y-90958274D01*
X115358902Y-90958901D01*
X115828680Y-90959482D01*
X116323346Y-90960017D01*
X116841655Y-90960503D01*
X117382360Y-90960939D01*
X117944216Y-90961324D01*
X118525977Y-90961655D01*
X119126397Y-90961932D01*
X119744228Y-90962153D01*
X120378227Y-90962316D01*
X121027146Y-90962419D01*
X121689739Y-90962462D01*
X122364761Y-90962443D01*
X123050965Y-90962359D01*
X123728917Y-90962215D01*
X135180083Y-90959264D01*
X135360000Y-90913822D01*
X135715414Y-90805677D01*
X136041094Y-90667983D01*
X136338377Y-90499942D01*
X136608602Y-90300757D01*
X136853106Y-90069629D01*
X136942020Y-89970379D01*
X137157128Y-89689700D01*
X137332946Y-89395549D01*
X137470560Y-89085377D01*
X137571055Y-88756641D01*
X137635516Y-88406794D01*
X137645702Y-88319820D01*
X137646857Y-88287553D01*
X137647983Y-88213239D01*
X137649080Y-88097165D01*
X137650147Y-87939619D01*
X137651184Y-87740886D01*
X137652192Y-87501253D01*
X137653169Y-87221007D01*
X137654115Y-86900436D01*
X137655030Y-86539825D01*
X137655915Y-86139461D01*
X137656768Y-85699632D01*
X137657589Y-85220623D01*
X137658378Y-84702722D01*
X137659135Y-84146216D01*
X137659860Y-83551391D01*
X137660552Y-82918533D01*
X137661210Y-82247930D01*
X137661836Y-81539869D01*
X137662428Y-80794635D01*
X137662986Y-80012517D01*
X137663510Y-79193800D01*
X137663999Y-78338771D01*
X137664454Y-77447718D01*
X137664874Y-76520926D01*
X137665258Y-75558683D01*
X137665608Y-74561275D01*
X137665921Y-73528990D01*
X137666198Y-72462113D01*
X137666440Y-71360932D01*
X137666644Y-70225733D01*
X137666812Y-69056803D01*
X137666942Y-67854429D01*
X137667036Y-66618898D01*
X137667080Y-65708029D01*
X137667119Y-64524371D01*
X137667146Y-63382313D01*
X137667160Y-62281121D01*
X137667161Y-61220061D01*
X137667147Y-60198400D01*
X137667117Y-59215404D01*
X137667070Y-58270340D01*
X137667006Y-57362473D01*
X137666922Y-56491071D01*
X137666819Y-55655399D01*
X137666695Y-54854725D01*
X137666550Y-54088314D01*
X137666381Y-53355432D01*
X137666189Y-52655347D01*
X137665972Y-51987324D01*
X137665730Y-51350630D01*
X137665460Y-50744532D01*
X137665163Y-50168294D01*
X137664837Y-49621185D01*
X137664481Y-49102470D01*
X137664095Y-48611416D01*
X137663677Y-48147289D01*
X137663226Y-47709355D01*
X137662741Y-47296881D01*
X137662222Y-46909133D01*
X137661667Y-46545378D01*
X137661075Y-46204881D01*
X137660445Y-45886910D01*
X137659777Y-45590731D01*
X137659069Y-45315609D01*
X137658320Y-45060812D01*
X137657530Y-44825605D01*
X137656697Y-44609256D01*
X137655820Y-44411030D01*
X137654898Y-44230194D01*
X137653931Y-44066014D01*
X137652917Y-43917756D01*
X137651855Y-43784688D01*
X137650745Y-43666074D01*
X137649585Y-43561183D01*
X137648374Y-43469279D01*
X137647112Y-43389630D01*
X137645797Y-43321502D01*
X137644428Y-43264161D01*
X137643005Y-43216873D01*
X137641526Y-43178905D01*
X137639990Y-43149523D01*
X137638397Y-43127994D01*
X137636745Y-43113584D01*
X137636376Y-43111312D01*
X137599955Y-42945433D01*
X137554196Y-42817362D01*
X137496999Y-42723201D01*
X137426266Y-42659049D01*
X137380049Y-42634814D01*
X137330426Y-42619112D01*
X137280117Y-42618345D01*
X137210599Y-42632510D01*
X137201748Y-42634781D01*
X137134030Y-42656264D01*
X137081362Y-42679942D01*
X137063820Y-42692360D01*
X137052364Y-42711509D01*
X137020199Y-42766442D01*
X136967821Y-42856302D01*
X136895724Y-42980233D01*
X136804404Y-43137380D01*
X136694358Y-43326887D01*
X136566080Y-43547897D01*
X136420067Y-43799555D01*
X136256813Y-44081004D01*
X136076815Y-44391389D01*
X135880568Y-44729854D01*
X135668568Y-45095541D01*
X135441310Y-45487597D01*
X135199290Y-45905164D01*
X134943003Y-46347386D01*
X134672946Y-46813408D01*
X134389614Y-47302373D01*
X134093502Y-47813426D01*
X133785106Y-48345711D01*
X133464922Y-48898370D01*
X133133445Y-49470550D01*
X132791170Y-50061392D01*
X132438595Y-50670043D01*
X132076213Y-51295644D01*
X131704521Y-51937342D01*
X131324015Y-52594278D01*
X130935189Y-53265598D01*
X130538540Y-53950446D01*
X130134564Y-54647965D01*
X129723755Y-55357299D01*
X129306609Y-56077593D01*
X128883623Y-56807991D01*
X128455291Y-57547635D01*
X128022109Y-58295671D01*
X127584573Y-59051243D01*
X127143179Y-59813494D01*
X126698422Y-60581568D01*
X126250797Y-61354610D01*
X125800801Y-62131763D01*
X125348929Y-62912172D01*
X124895676Y-63694980D01*
X124441539Y-64479331D01*
X123987012Y-65264370D01*
X123532592Y-66049240D01*
X123078774Y-66833086D01*
X122626053Y-67615051D01*
X122174926Y-68394279D01*
X121725888Y-69169915D01*
X121279434Y-69941102D01*
X120836060Y-70706984D01*
X120396262Y-71466706D01*
X119960535Y-72219411D01*
X119529375Y-72964243D01*
X119103278Y-73700347D01*
X118682739Y-74426866D01*
X118268253Y-75142945D01*
X117860317Y-75847726D01*
X117459426Y-76540355D01*
X117066076Y-77219976D01*
X116680762Y-77885731D01*
X116303980Y-78536766D01*
X115936225Y-79172225D01*
X115577994Y-79791250D01*
X115229781Y-80392987D01*
X114892082Y-80976580D01*
X114565394Y-81541171D01*
X114250211Y-82085906D01*
X113947029Y-82609928D01*
X113656344Y-83112381D01*
X113378651Y-83592410D01*
X113114446Y-84049158D01*
X112864225Y-84481769D01*
X112628483Y-84889387D01*
X112407716Y-85271157D01*
X112202420Y-85626222D01*
X112013089Y-85953726D01*
X111840221Y-86252813D01*
X111684309Y-86522628D01*
X111545851Y-86762314D01*
X111425341Y-86971015D01*
X111323275Y-87147875D01*
X111240149Y-87292039D01*
X111176459Y-87402650D01*
X111132699Y-87478852D01*
X111110460Y-87517848D01*
X110946478Y-87821628D01*
X110808258Y-88108809D01*
X110690774Y-88391845D01*
X110588998Y-88683191D01*
X110497904Y-88995302D01*
X110468343Y-89108871D01*
X110421704Y-89303887D01*
X110389594Y-89466073D01*
X110371374Y-89602120D01*
X110366406Y-89718722D01*
X110238045Y-89718722D01*
X110240383Y-89592768D01*
X110266550Y-89393284D01*
G37*
D12*
X110266550Y-89393284D02*
X110297617Y-89238368D01*
X110413064Y-88791003D01*
X110556288Y-88366494D01*
X110731792Y-87952337D01*
X110840584Y-87730519D01*
X110856192Y-87702439D01*
X110892601Y-87638434D01*
X110949400Y-87539215D01*
X111026180Y-87405493D01*
X111122529Y-87237978D01*
X111238035Y-87037381D01*
X111372289Y-86804412D01*
X111524880Y-86539783D01*
X111695395Y-86244204D01*
X111883426Y-85918385D01*
X112088560Y-85563037D01*
X112310388Y-85178872D01*
X112548497Y-84766599D01*
X112802478Y-84326929D01*
X113071919Y-83860572D01*
X113356409Y-83368240D01*
X113655538Y-82850644D01*
X113968895Y-82308493D01*
X114296069Y-81742498D01*
X114636649Y-81153371D01*
X114990224Y-80541821D01*
X115356383Y-79908559D01*
X115734716Y-79254297D01*
X116124811Y-78579744D01*
X116526258Y-77885611D01*
X116938646Y-77172609D01*
X117361564Y-76441449D01*
X117794601Y-75692841D01*
X118237346Y-74927496D01*
X118689389Y-74146124D01*
X119150319Y-73349437D01*
X119619724Y-72538144D01*
X120097193Y-71712957D01*
X120582317Y-70874586D01*
X121074684Y-70023742D01*
X121573883Y-69161135D01*
X122079504Y-68287476D01*
X122591135Y-67403476D01*
X123108366Y-66509845D01*
X123630785Y-65607294D01*
X123961501Y-65035960D01*
X136957586Y-42584707D01*
X137063668Y-42537756D01*
X137176390Y-42502345D01*
X137294953Y-42489373D01*
X137405550Y-42499045D01*
X137493976Y-42531329D01*
X137584233Y-42609143D01*
X137660381Y-42725799D01*
X137721792Y-42880011D01*
X137767838Y-43070491D01*
X137773803Y-43104642D01*
X137774920Y-43132442D01*
X137776006Y-43201512D01*
X137777062Y-43310789D01*
X137778086Y-43459210D01*
X137779080Y-43645713D01*
X137780043Y-43869234D01*
X137780976Y-44128710D01*
X137781878Y-44423079D01*
X137782749Y-44751277D01*
X137783591Y-45112241D01*
X137784402Y-45504909D01*
X137785182Y-45928216D01*
X137785933Y-46381102D01*
X137786653Y-46862501D01*
X137787343Y-47371351D01*
X137788004Y-47906590D01*
X137788634Y-48467155D01*
X137789234Y-49051981D01*
X137789805Y-49660007D01*
X137790346Y-50290169D01*
X137790857Y-50941404D01*
X137791338Y-51612649D01*
X137791790Y-52302842D01*
X137792213Y-53010919D01*
X137792606Y-53735817D01*
X137792969Y-54476473D01*
X137793303Y-55231825D01*
X137793608Y-56000809D01*
X137793884Y-56782362D01*
X137794130Y-57575421D01*
X137794348Y-58378923D01*
X137794536Y-59191806D01*
X137794696Y-60013006D01*
X137794827Y-60841460D01*
X137794928Y-61676105D01*
X137795001Y-62515879D01*
X137795046Y-63359718D01*
X137795061Y-64206558D01*
X137795048Y-65055338D01*
X137795007Y-65904995D01*
X137794937Y-66754464D01*
X137794839Y-67602684D01*
X137794712Y-68448591D01*
X137794557Y-69291121D01*
X137794374Y-70129214D01*
X137794163Y-70961804D01*
X137793923Y-71787829D01*
X137793656Y-72606227D01*
X137793360Y-73415934D01*
X137793037Y-74215886D01*
X137792686Y-75005022D01*
X137792307Y-75782279D01*
X137791900Y-76546592D01*
X137791466Y-77296899D01*
X137791004Y-78032138D01*
X137790515Y-78751245D01*
X137789998Y-79453156D01*
X137789453Y-80136810D01*
X137788882Y-80801143D01*
X137788283Y-81445092D01*
X137787657Y-82067595D01*
X137787003Y-82667587D01*
X137786323Y-83244007D01*
X137785615Y-83795790D01*
X137784881Y-84321875D01*
X137784120Y-84821197D01*
X137783331Y-85292695D01*
X137782516Y-85735305D01*
X137781675Y-86147964D01*
X137780806Y-86529609D01*
X137779911Y-86879177D01*
X137778990Y-87195606D01*
X137778042Y-87477831D01*
X137777067Y-87724790D01*
X137776067Y-87935420D01*
X137775040Y-88108659D01*
X137773986Y-88243442D01*
X137772907Y-88338708D01*
X137771801Y-88393392D01*
X137771160Y-88405989D01*
X137711527Y-88753590D01*
X137612690Y-89088858D01*
X137476733Y-89408810D01*
X137305738Y-89710465D01*
X137101790Y-89990841D01*
X136866971Y-90246957D01*
X136603366Y-90475831D01*
X136313057Y-90674482D01*
X136106502Y-90788257D01*
X135898783Y-90882852D01*
X135679679Y-90962721D01*
X135434629Y-91033100D01*
X135404223Y-91040798D01*
X135222417Y-91086266D01*
X123707750Y-91088428D01*
X123010764Y-91088546D01*
X122324081Y-91088635D01*
X121648928Y-91088698D01*
X120986534Y-91088734D01*
X120338128Y-91088743D01*
X119704938Y-91088727D01*
X119088193Y-91088685D01*
X118489120Y-91088619D01*
X117908949Y-91088529D01*
X117348907Y-91088415D01*
X116810224Y-91088278D01*
X116294127Y-91088119D01*
X115801845Y-91087937D01*
X115334606Y-91087735D01*
X114893639Y-91087511D01*
X114480173Y-91087267D01*
X114095435Y-91087003D01*
X113740654Y-91086720D01*
X113417059Y-91086418D01*
X113125878Y-91086098D01*
X112868339Y-91085760D01*
X112645671Y-91085406D01*
X112459102Y-91085034D01*
X112309860Y-91084647D01*
X112199175Y-91084243D01*
X112128274Y-91083825D01*
X112098387Y-91083393D01*
X112097833Y-91083360D01*
X111975178Y-91070720D01*
X111829364Y-91050595D01*
X111675964Y-91025562D01*
X111530549Y-90998199D01*
X111408688Y-90971083D01*
X111388750Y-90965978D01*
X111120447Y-90879067D01*
X110887262Y-90769040D01*
X110689343Y-90636001D01*
X110526839Y-90480058D01*
X110399899Y-90301313D01*
X110370396Y-90246493D01*
X110301520Y-90088475D01*
X110257283Y-89932254D01*
X110237099Y-89769722D01*
X110238045Y-89718722D01*
X110366406Y-89718722D01*
X110374051Y-89822570D01*
X110391650Y-89912500D01*
X110461281Y-90116012D01*
X110562103Y-90296447D01*
X110694984Y-90454336D01*
X110860792Y-90590210D01*
X111060397Y-90704601D01*
X111294666Y-90798040D01*
X111564468Y-90871058D01*
X111870671Y-90924188D01*
X112083623Y-90947773D01*
X112116457Y-90948824D01*
X112190378Y-90949848D01*
X112304140Y-90950844D01*
X112456498Y-90951810D01*
X112646204Y-90952744D01*
X112872014Y-90953645D01*
X113132681Y-90954512D01*
X113426959Y-90955343D01*
X113753602Y-90956136D01*
X114111363Y-90956890D01*
X114498998Y-90957603D01*
X114915260Y-90958274D01*
X115358902Y-90958901D01*
X115828680Y-90959482D01*
X116323346Y-90960017D01*
X116841655Y-90960503D01*
X117382360Y-90960939D01*
X117944216Y-90961324D01*
X118525977Y-90961655D01*
X119126397Y-90961932D01*
X119744228Y-90962153D01*
X120378227Y-90962316D01*
X121027146Y-90962419D01*
X121689739Y-90962462D01*
X122364761Y-90962443D01*
X123050965Y-90962359D01*
X123728917Y-90962215D01*
X135180083Y-90959264D01*
X135360000Y-90913822D01*
X135715414Y-90805677D01*
X136041094Y-90667983D01*
X136338377Y-90499942D01*
X136608602Y-90300757D01*
X136853106Y-90069629D01*
X136942020Y-89970379D01*
X137157128Y-89689700D01*
X137332946Y-89395549D01*
X137470560Y-89085377D01*
X137571055Y-88756641D01*
X137635516Y-88406794D01*
X137645702Y-88319820D01*
X137646857Y-88287553D01*
X137647983Y-88213239D01*
X137649080Y-88097165D01*
X137650147Y-87939619D01*
X137651184Y-87740886D01*
X137652192Y-87501253D01*
X137653169Y-87221007D01*
X137654115Y-86900436D01*
X137655030Y-86539825D01*
X137655915Y-86139461D01*
X137656768Y-85699632D01*
X137657589Y-85220623D01*
X137658378Y-84702722D01*
X137659135Y-84146216D01*
X137659860Y-83551391D01*
X137660552Y-82918533D01*
X137661210Y-82247930D01*
X137661836Y-81539869D01*
X137662428Y-80794635D01*
X137662986Y-80012517D01*
X137663510Y-79193800D01*
X137663999Y-78338771D01*
X137664454Y-77447718D01*
X137664874Y-76520926D01*
X137665258Y-75558683D01*
X137665608Y-74561275D01*
X137665921Y-73528990D01*
X137666198Y-72462113D01*
X137666440Y-71360932D01*
X137666644Y-70225733D01*
X137666812Y-69056803D01*
X137666942Y-67854429D01*
X137667036Y-66618898D01*
X137667080Y-65708029D01*
X137667119Y-64524371D01*
X137667146Y-63382313D01*
X137667160Y-62281121D01*
X137667161Y-61220061D01*
X137667147Y-60198400D01*
X137667117Y-59215404D01*
X137667070Y-58270340D01*
X137667006Y-57362473D01*
X137666922Y-56491071D01*
X137666819Y-55655399D01*
X137666695Y-54854725D01*
X137666550Y-54088314D01*
X137666381Y-53355432D01*
X137666189Y-52655347D01*
X137665972Y-51987324D01*
X137665730Y-51350630D01*
X137665460Y-50744532D01*
X137665163Y-50168294D01*
X137664837Y-49621185D01*
X137664481Y-49102470D01*
X137664095Y-48611416D01*
X137663677Y-48147289D01*
X137663226Y-47709355D01*
X137662741Y-47296881D01*
X137662222Y-46909133D01*
X137661667Y-46545378D01*
X137661075Y-46204881D01*
X137660445Y-45886910D01*
X137659777Y-45590731D01*
X137659069Y-45315609D01*
X137658320Y-45060812D01*
X137657530Y-44825605D01*
X137656697Y-44609256D01*
X137655820Y-44411030D01*
X137654898Y-44230194D01*
X137653931Y-44066014D01*
X137652917Y-43917756D01*
X137651855Y-43784688D01*
X137650745Y-43666074D01*
X137649585Y-43561183D01*
X137648374Y-43469279D01*
X137647112Y-43389630D01*
X137645797Y-43321502D01*
X137644428Y-43264161D01*
X137643005Y-43216873D01*
X137641526Y-43178905D01*
X137639990Y-43149523D01*
X137638397Y-43127994D01*
X137636745Y-43113584D01*
X137636376Y-43111312D01*
X137599955Y-42945433D01*
X137554196Y-42817362D01*
X137496999Y-42723201D01*
X137426266Y-42659049D01*
X137380049Y-42634814D01*
X137330426Y-42619112D01*
X137280117Y-42618345D01*
X137210599Y-42632510D01*
X137201748Y-42634781D01*
X137134030Y-42656264D01*
X137081362Y-42679942D01*
X137063820Y-42692360D01*
X137052364Y-42711509D01*
X137020199Y-42766442D01*
X136967821Y-42856302D01*
X136895724Y-42980233D01*
X136804404Y-43137380D01*
X136694358Y-43326887D01*
X136566080Y-43547897D01*
X136420067Y-43799555D01*
X136256813Y-44081004D01*
X136076815Y-44391389D01*
X135880568Y-44729854D01*
X135668568Y-45095541D01*
X135441310Y-45487597D01*
X135199290Y-45905164D01*
X134943003Y-46347386D01*
X134672946Y-46813408D01*
X134389614Y-47302373D01*
X134093502Y-47813426D01*
X133785106Y-48345711D01*
X133464922Y-48898370D01*
X133133445Y-49470550D01*
X132791170Y-50061392D01*
X132438595Y-50670043D01*
X132076213Y-51295644D01*
X131704521Y-51937342D01*
X131324015Y-52594278D01*
X130935189Y-53265598D01*
X130538540Y-53950446D01*
X130134564Y-54647965D01*
X129723755Y-55357299D01*
X129306609Y-56077593D01*
X128883623Y-56807991D01*
X128455291Y-57547635D01*
X128022109Y-58295671D01*
X127584573Y-59051243D01*
X127143179Y-59813494D01*
X126698422Y-60581568D01*
X126250797Y-61354610D01*
X125800801Y-62131763D01*
X125348929Y-62912172D01*
X124895676Y-63694980D01*
X124441539Y-64479331D01*
X123987012Y-65264370D01*
X123532592Y-66049240D01*
X123078774Y-66833086D01*
X122626053Y-67615051D01*
X122174926Y-68394279D01*
X121725888Y-69169915D01*
X121279434Y-69941102D01*
X120836060Y-70706984D01*
X120396262Y-71466706D01*
X119960535Y-72219411D01*
X119529375Y-72964243D01*
X119103278Y-73700347D01*
X118682739Y-74426866D01*
X118268253Y-75142945D01*
X117860317Y-75847726D01*
X117459426Y-76540355D01*
X117066076Y-77219976D01*
X116680762Y-77885731D01*
X116303980Y-78536766D01*
X115936225Y-79172225D01*
X115577994Y-79791250D01*
X115229781Y-80392987D01*
X114892082Y-80976580D01*
X114565394Y-81541171D01*
X114250211Y-82085906D01*
X113947029Y-82609928D01*
X113656344Y-83112381D01*
X113378651Y-83592410D01*
X113114446Y-84049158D01*
X112864225Y-84481769D01*
X112628483Y-84889387D01*
X112407716Y-85271157D01*
X112202420Y-85626222D01*
X112013089Y-85953726D01*
X111840221Y-86252813D01*
X111684309Y-86522628D01*
X111545851Y-86762314D01*
X111425341Y-86971015D01*
X111323275Y-87147875D01*
X111240149Y-87292039D01*
X111176459Y-87402650D01*
X111132699Y-87478852D01*
X111110460Y-87517848D01*
X110946478Y-87821628D01*
X110808258Y-88108809D01*
X110690774Y-88391845D01*
X110588998Y-88683191D01*
X110497904Y-88995302D01*
X110468343Y-89108871D01*
X110421704Y-89303887D01*
X110389594Y-89466073D01*
X110371374Y-89602120D01*
X110366406Y-89718722D01*
X110238045Y-89718722D01*
X110240383Y-89592768D01*
X110266550Y-89393284D01*
G36*
X144726869Y-117503250D02*
G01*
X144773265Y-117308637D01*
X144861673Y-116991679D01*
X144969877Y-116704409D01*
X145101949Y-116437209D01*
X145232572Y-116223849D01*
X145444106Y-115944120D01*
X145686265Y-115692174D01*
X145956132Y-115469969D01*
X146250791Y-115279460D01*
X146567324Y-115122602D01*
X146902816Y-115001351D01*
X147149833Y-114938184D01*
X147163859Y-114935425D01*
X147180162Y-114932800D01*
X147199792Y-114930308D01*
X147223800Y-114927944D01*
X147253237Y-114925704D01*
X147289155Y-114923587D01*
X147332604Y-114921587D01*
X147384635Y-114919703D01*
X147446298Y-114917929D01*
X147518646Y-114916264D01*
X147602729Y-114914703D01*
X147699597Y-114913244D01*
X147810302Y-114911882D01*
X147935895Y-114910615D01*
X148077427Y-114909439D01*
X148235948Y-114908351D01*
X148412509Y-114907347D01*
X148608162Y-114906424D01*
X148823957Y-114905579D01*
X149060945Y-114904808D01*
X149320178Y-114904107D01*
X149602705Y-114903474D01*
X149909579Y-114902905D01*
X150241850Y-114902397D01*
X150600569Y-114901946D01*
X150986786Y-114901549D01*
X151401554Y-114901202D01*
X151845922Y-114900903D01*
X152320942Y-114900647D01*
X152827664Y-114900431D01*
X153367140Y-114900253D01*
X153940421Y-114900108D01*
X154548556Y-114899993D01*
X155192599Y-114899905D01*
X155873598Y-114899841D01*
X156592606Y-114899797D01*
X157350673Y-114899769D01*
X158148849Y-114899754D01*
X158988187Y-114899750D01*
X159087833Y-114899750D01*
X159955608Y-114899765D01*
X160781995Y-114899811D01*
X161567939Y-114899891D01*
X162314385Y-114900007D01*
X163022277Y-114900160D01*
X163692561Y-114900354D01*
X164326182Y-114900590D01*
X164924084Y-114900871D01*
X165487214Y-114901198D01*
X166016516Y-114901575D01*
X166512934Y-114902002D01*
X166977414Y-114902483D01*
X167410902Y-114903020D01*
X167814341Y-114903614D01*
X168188677Y-114904268D01*
X168534856Y-114904984D01*
X168853821Y-114905765D01*
X169146519Y-114906612D01*
X169413893Y-114907528D01*
X169656890Y-114908515D01*
X169876454Y-114909575D01*
X170073530Y-114910710D01*
X170249064Y-114911923D01*
X170404000Y-114913216D01*
X170539283Y-114914590D01*
X170655858Y-114916049D01*
X170754670Y-114917594D01*
X170836665Y-114919227D01*
X170902787Y-114920951D01*
X170953982Y-114922768D01*
X170991194Y-114924681D01*
X171015369Y-114926690D01*
X171021526Y-114927510D01*
X171306147Y-114985228D01*
X171553747Y-115062777D01*
X171764938Y-115160602D01*
X171940333Y-115279148D01*
X172080546Y-115418861D01*
X172186188Y-115580186D01*
X172257873Y-115763569D01*
X172276461Y-115839729D01*
X172287250Y-115923397D01*
X172292303Y-116035396D01*
X172291092Y-116162044D01*
X172289941Y-116190354D01*
X172284635Y-116279982D01*
X172276516Y-116358804D01*
X172263575Y-116436428D01*
X172243799Y-116522464D01*
X172215179Y-116626519D01*
X172175704Y-116758202D01*
X172161377Y-116804750D01*
X172024290Y-117227759D01*
X171883575Y-117619075D01*
X171735026Y-117989332D01*
X171574437Y-118349168D01*
X171445621Y-118614500D01*
X171427485Y-118647832D01*
X171388536Y-118717070D01*
X171329192Y-118821494D01*
X171249869Y-118960385D01*
X171150983Y-119133021D01*
X171032951Y-119338684D01*
X170896187Y-119576653D01*
X170741109Y-119846208D01*
X170568133Y-120146629D01*
X170377675Y-120477196D01*
X170170151Y-120837188D01*
X169945977Y-121225887D01*
X169705570Y-121642571D01*
X169449345Y-122086521D01*
X169177720Y-122557016D01*
X168891110Y-123053338D01*
X168589931Y-123574764D01*
X168274599Y-124120576D01*
X167945532Y-124690054D01*
X167603144Y-125282477D01*
X167247852Y-125897125D01*
X166880073Y-126533279D01*
X166500222Y-127190218D01*
X166108716Y-127867222D01*
X165705971Y-128563571D01*
X165292403Y-129278545D01*
X164868428Y-130011425D01*
X164434463Y-130761489D01*
X163990924Y-131528018D01*
X163538226Y-132310292D01*
X163076787Y-133107591D01*
X162607022Y-133919195D01*
X162129347Y-134744384D01*
X161644179Y-135582437D01*
X161151934Y-136432635D01*
X160653028Y-137294257D01*
X160147878Y-138166584D01*
X159636899Y-139048895D01*
X159120507Y-139940471D01*
X158599120Y-140840591D01*
X158403570Y-141178167D01*
X145547286Y-163371417D01*
X145443685Y-163375772D01*
X145358157Y-163372032D01*
X145271245Y-163357380D01*
X145248855Y-163351171D01*
X145109889Y-163285853D01*
X144992197Y-163184729D01*
X144895629Y-163047547D01*
X144820040Y-162874057D01*
X144765281Y-162664008D01*
X144737693Y-162481441D01*
X144736359Y-162457394D01*
X144735078Y-162409076D01*
X144733847Y-162336005D01*
X144732668Y-162237699D01*
X144731539Y-162113675D01*
X144730461Y-161963449D01*
X144729432Y-161786540D01*
X144728453Y-161582465D01*
X144727523Y-161350742D01*
X144726641Y-161090887D01*
X144725808Y-160802419D01*
X144725024Y-160484854D01*
X144724286Y-160137711D01*
X144723596Y-159760506D01*
X144722953Y-159352756D01*
X144722357Y-158913981D01*
X144721807Y-158443696D01*
X144721302Y-157941419D01*
X144720843Y-157406668D01*
X144720429Y-156838961D01*
X144720060Y-156237813D01*
X144719735Y-155602744D01*
X144719454Y-154933270D01*
X144719216Y-154228908D01*
X144719022Y-153489177D01*
X144718871Y-152713594D01*
X144718762Y-151901675D01*
X144718695Y-151052939D01*
X144718670Y-150166903D01*
X144718687Y-149243085D01*
X144718744Y-148281001D01*
X144718842Y-147280169D01*
X144718981Y-146240107D01*
X144719159Y-145160331D01*
X144719377Y-144040361D01*
X144719634Y-142879712D01*
X144719929Y-141677902D01*
X144720263Y-140434449D01*
X144720376Y-140035167D01*
X144853250Y-140035167D01*
X144853252Y-141209725D01*
X144853261Y-142342703D01*
X144853277Y-143434853D01*
X144853300Y-144486928D01*
X144853334Y-145499679D01*
X144853378Y-146473859D01*
X144853434Y-147410222D01*
X144853504Y-148309519D01*
X144853588Y-149172503D01*
X144853687Y-149999927D01*
X144853803Y-150792544D01*
X144853937Y-151551105D01*
X144854090Y-152276363D01*
X144854264Y-152969072D01*
X144854459Y-153629983D01*
X144854677Y-154259849D01*
X144854919Y-154859422D01*
X144855186Y-155429456D01*
X144855480Y-155970702D01*
X144855801Y-156483914D01*
X144856151Y-156969844D01*
X144856531Y-157429244D01*
X144856942Y-157862867D01*
X144857386Y-158271465D01*
X144857863Y-158655792D01*
X144858375Y-159016599D01*
X144858924Y-159354640D01*
X144859509Y-159670666D01*
X144860133Y-159965431D01*
X144860797Y-160239686D01*
X144861501Y-160494185D01*
X144862248Y-160729680D01*
X144863038Y-160946924D01*
X144863872Y-161146668D01*
X144864752Y-161329667D01*
X144865679Y-161496671D01*
X144866654Y-161648435D01*
X144867678Y-161785709D01*
X144868753Y-161909248D01*
X144869879Y-162019803D01*
X144871059Y-162118127D01*
X144872292Y-162204973D01*
X144873581Y-162281093D01*
X144874926Y-162347240D01*
X144876329Y-162404166D01*
X144877791Y-162452623D01*
X144879314Y-162493366D01*
X144880897Y-162527145D01*
X144882543Y-162554713D01*
X144884253Y-162576824D01*
X144886028Y-162594229D01*
X144887869Y-162607682D01*
X144889399Y-162616148D01*
X144942023Y-162812914D01*
X145011308Y-162972673D01*
X145096803Y-163094633D01*
X145198060Y-163178002D01*
X145213083Y-163186347D01*
X145288268Y-163218773D01*
X145365632Y-163241104D01*
X145426897Y-163248229D01*
X145432755Y-163247768D01*
X145444487Y-163229431D01*
X145477020Y-163175166D01*
X145529945Y-163085678D01*
X145602852Y-162961676D01*
X145695331Y-162803865D01*
X145806970Y-162612952D01*
X145937360Y-162389644D01*
X146086091Y-162134648D01*
X146252751Y-161848670D01*
X146436932Y-161532418D01*
X146638223Y-161186597D01*
X146856213Y-160811915D01*
X147090492Y-160409079D01*
X147340650Y-159978794D01*
X147606276Y-159521768D01*
X147886961Y-159038708D01*
X148182295Y-158530320D01*
X148491866Y-157997310D01*
X148815264Y-157440387D01*
X149152080Y-156860256D01*
X149501903Y-156257623D01*
X149864323Y-155633197D01*
X150238929Y-154987683D01*
X150625311Y-154321789D01*
X151023060Y-153636220D01*
X151431764Y-152931684D01*
X151851013Y-152208888D01*
X152280398Y-151468537D01*
X152719508Y-150711339D01*
X153167932Y-149938001D01*
X153625261Y-149149230D01*
X154091084Y-148345731D01*
X154564990Y-147528212D01*
X155046570Y-146697379D01*
X155535414Y-145853940D01*
X156031110Y-144998600D01*
X156533250Y-144132067D01*
X157041421Y-143255048D01*
X157555216Y-142368248D01*
X158074222Y-141472375D01*
X158244656Y-141178167D01*
X158766021Y-140278146D01*
X159282488Y-139386561D01*
X159793640Y-138504129D01*
X160299062Y-137631568D01*
X160798339Y-136769596D01*
X161291055Y-135918931D01*
X161776793Y-135080290D01*
X162255139Y-134254392D01*
X162725678Y-133441954D01*
X163187992Y-132643695D01*
X163641668Y-131860331D01*
X164086288Y-131092582D01*
X164521438Y-130341164D01*
X164946702Y-129606796D01*
X165361665Y-128890195D01*
X165765910Y-128192080D01*
X166159022Y-127513168D01*
X166540586Y-126854177D01*
X166910186Y-126215825D01*
X167267406Y-125598830D01*
X167611831Y-125003909D01*
X167943045Y-124431781D01*
X168260632Y-123883163D01*
X168564178Y-123358773D01*
X168853265Y-122859330D01*
X169127480Y-122385550D01*
X169386405Y-121938152D01*
X169629626Y-121517853D01*
X169856727Y-121125373D01*
X170067293Y-120761427D01*
X170260907Y-120426735D01*
X170437154Y-120122013D01*
X170595618Y-119847981D01*
X170735885Y-119605355D01*
X170857537Y-119394854D01*
X170960161Y-119217195D01*
X171043339Y-119073097D01*
X171106657Y-118963277D01*
X171149699Y-118888453D01*
X171172049Y-118849342D01*
X171174517Y-118844934D01*
X171283879Y-118637799D01*
X171394045Y-118412875D01*
X171503300Y-118174854D01*
X171609929Y-117928426D01*
X171712217Y-117678283D01*
X171808450Y-117429117D01*
X171896912Y-117185618D01*
X171975889Y-116952478D01*
X172043666Y-116734388D01*
X172098527Y-116536040D01*
X172138758Y-116362124D01*
X172162644Y-116217332D01*
X172168833Y-116124873D01*
X172150529Y-115912641D01*
X172096059Y-115722080D01*
X172006093Y-115553994D01*
X171881296Y-115409185D01*
X171722336Y-115288455D01*
X171529880Y-115192606D01*
X171343333Y-115132041D01*
X171316084Y-115124655D01*
X171291942Y-115117630D01*
X171269846Y-115110958D01*
X171248734Y-115104628D01*
X171227544Y-115098631D01*
X171205216Y-115092957D01*
X171180688Y-115087597D01*
X171152897Y-115082541D01*
X171120783Y-115077779D01*
X171083284Y-115073302D01*
X171039338Y-115069100D01*
X170987884Y-115065164D01*
X170927860Y-115061484D01*
X170858205Y-115058050D01*
X170777856Y-115054853D01*
X170685754Y-115051883D01*
X170580835Y-115049131D01*
X170462039Y-115046586D01*
X170328303Y-115044240D01*
X170178567Y-115042082D01*
X170011768Y-115040104D01*
X169826846Y-115038295D01*
X169622738Y-115036645D01*
X169398383Y-115035146D01*
X169152720Y-115033788D01*
X168884687Y-115032560D01*
X168593221Y-115031454D01*
X168277263Y-115030460D01*
X167935750Y-115029568D01*
X167567621Y-115028768D01*
X167171813Y-115028051D01*
X166747267Y-115027408D01*
X166292919Y-115026828D01*
X165807708Y-115026302D01*
X165290574Y-115025821D01*
X164740453Y-115025374D01*
X164156286Y-115024953D01*
X163537009Y-115024548D01*
X162881563Y-115024148D01*
X162188884Y-115023745D01*
X161457912Y-115023329D01*
X160687584Y-115022889D01*
X159876840Y-115022418D01*
X159193667Y-115022007D01*
X158345785Y-115021478D01*
X157539179Y-115020956D01*
X156772792Y-115020451D01*
X156045566Y-115019974D01*
X155356442Y-115019532D01*
X154704365Y-115019137D01*
X154088276Y-115018798D01*
X153507118Y-115018523D01*
X152959833Y-115018324D01*
X152445364Y-115018208D01*
X151962653Y-115018186D01*
X151510644Y-115018268D01*
X151088277Y-115018463D01*
X150694497Y-115018780D01*
X150328244Y-115019229D01*
X149988463Y-115019820D01*
X149674095Y-115020562D01*
X149384082Y-115021465D01*
X149117368Y-115022538D01*
X148872895Y-115023790D01*
X148649605Y-115025233D01*
X148446441Y-115026874D01*
X148262346Y-115028723D01*
X148096261Y-115030791D01*
X147947129Y-115033086D01*
X147813894Y-115035618D01*
X147695496Y-115038398D01*
X147590880Y-115041433D01*
X147498987Y-115044734D01*
X147418760Y-115048311D01*
X147349141Y-115052173D01*
X147289072Y-115056329D01*
X147237498Y-115060789D01*
X147193359Y-115065563D01*
X147155598Y-115070660D01*
X147123158Y-115076089D01*
X147094982Y-115081861D01*
X147070011Y-115087985D01*
X147047189Y-115094470D01*
X147025458Y-115101327D01*
X147003759Y-115108563D01*
X146981037Y-115116190D01*
X146956233Y-115124217D01*
X146928290Y-115132652D01*
X146927583Y-115132857D01*
X146823187Y-115167060D01*
X146700556Y-115213357D01*
X146578982Y-115264252D01*
X146520785Y-115290903D01*
X146213777Y-115460050D01*
X145932518Y-115661665D01*
X145678948Y-115893212D01*
X145455006Y-116152155D01*
X145262633Y-116435959D01*
X145103770Y-116742087D01*
X144980356Y-117068004D01*
X144894331Y-117411174D01*
X144892932Y-117418583D01*
X144890856Y-117430370D01*
X144888853Y-117443689D01*
X144886923Y-117459296D01*
X144885064Y-117477950D01*
X144883274Y-117500408D01*
X144881553Y-117527429D01*
X144879898Y-117559770D01*
X144878310Y-117598189D01*
X144876786Y-117643443D01*
X144875324Y-117696290D01*
X144873925Y-117757489D01*
X144872586Y-117827797D01*
X144871306Y-117907971D01*
X144870083Y-117998770D01*
X144868917Y-118100951D01*
X144867806Y-118215272D01*
X144866749Y-118342491D01*
X144865744Y-118483365D01*
X144864791Y-118638653D01*
X144863887Y-118809111D01*
X144863031Y-118995499D01*
X144862223Y-119198573D01*
X144861460Y-119419092D01*
X144860741Y-119657813D01*
X144860066Y-119915494D01*
X144859433Y-120192892D01*
X144858840Y-120490766D01*
X144858286Y-120809874D01*
X144857769Y-121150972D01*
X144857290Y-121514819D01*
X144856845Y-121902173D01*
X144856434Y-122313791D01*
X144856056Y-122750432D01*
X144855708Y-123212852D01*
X144855391Y-123701810D01*
X144855102Y-124218063D01*
X144854840Y-124762370D01*
X144854604Y-125335488D01*
X144854392Y-125938174D01*
X144854204Y-126571187D01*
X144854037Y-127235284D01*
X144853891Y-127931224D01*
X144853764Y-128659763D01*
X144853655Y-129421660D01*
X144853562Y-130217672D01*
X144853484Y-131048558D01*
X144853421Y-131915074D01*
X144853370Y-132817979D01*
X144853330Y-133758031D01*
X144853299Y-134735987D01*
X144853278Y-135752605D01*
X144853263Y-136808643D01*
X144853255Y-137904859D01*
X144853251Y-139042009D01*
X144853250Y-140035167D01*
X144720376Y-140035167D01*
X144720419Y-139887000D01*
X144726869Y-117503250D01*
G37*
X144726869Y-117503250D02*
X144773265Y-117308637D01*
X144861673Y-116991679D01*
X144969877Y-116704409D01*
X145101949Y-116437209D01*
X145232572Y-116223849D01*
X145444106Y-115944120D01*
X145686265Y-115692174D01*
X145956132Y-115469969D01*
X146250791Y-115279460D01*
X146567324Y-115122602D01*
X146902816Y-115001351D01*
X147149833Y-114938184D01*
X147163859Y-114935425D01*
X147180162Y-114932800D01*
X147199792Y-114930308D01*
X147223800Y-114927944D01*
X147253237Y-114925704D01*
X147289155Y-114923587D01*
X147332604Y-114921587D01*
X147384635Y-114919703D01*
X147446298Y-114917929D01*
X147518646Y-114916264D01*
X147602729Y-114914703D01*
X147699597Y-114913244D01*
X147810302Y-114911882D01*
X147935895Y-114910615D01*
X148077427Y-114909439D01*
X148235948Y-114908351D01*
X148412509Y-114907347D01*
X148608162Y-114906424D01*
X148823957Y-114905579D01*
X149060945Y-114904808D01*
X149320178Y-114904107D01*
X149602705Y-114903474D01*
X149909579Y-114902905D01*
X150241850Y-114902397D01*
X150600569Y-114901946D01*
X150986786Y-114901549D01*
X151401554Y-114901202D01*
X151845922Y-114900903D01*
X152320942Y-114900647D01*
X152827664Y-114900431D01*
X153367140Y-114900253D01*
X153940421Y-114900108D01*
X154548556Y-114899993D01*
X155192599Y-114899905D01*
X155873598Y-114899841D01*
X156592606Y-114899797D01*
X157350673Y-114899769D01*
X158148849Y-114899754D01*
X158988187Y-114899750D01*
X159087833Y-114899750D01*
X159955608Y-114899765D01*
X160781995Y-114899811D01*
X161567939Y-114899891D01*
X162314385Y-114900007D01*
X163022277Y-114900160D01*
X163692561Y-114900354D01*
X164326182Y-114900590D01*
X164924084Y-114900871D01*
X165487214Y-114901198D01*
X166016516Y-114901575D01*
X166512934Y-114902002D01*
X166977414Y-114902483D01*
X167410902Y-114903020D01*
X167814341Y-114903614D01*
X168188677Y-114904268D01*
X168534856Y-114904984D01*
X168853821Y-114905765D01*
X169146519Y-114906612D01*
X169413893Y-114907528D01*
X169656890Y-114908515D01*
X169876454Y-114909575D01*
X170073530Y-114910710D01*
X170249064Y-114911923D01*
X170404000Y-114913216D01*
X170539283Y-114914590D01*
X170655858Y-114916049D01*
X170754670Y-114917594D01*
X170836665Y-114919227D01*
X170902787Y-114920951D01*
X170953982Y-114922768D01*
X170991194Y-114924681D01*
X171015369Y-114926690D01*
X171021526Y-114927510D01*
X171306147Y-114985228D01*
X171553747Y-115062777D01*
X171764938Y-115160602D01*
X171940333Y-115279148D01*
X172080546Y-115418861D01*
X172186188Y-115580186D01*
X172257873Y-115763569D01*
X172276461Y-115839729D01*
X172287250Y-115923397D01*
X172292303Y-116035396D01*
X172291092Y-116162044D01*
X172289941Y-116190354D01*
X172284635Y-116279982D01*
X172276516Y-116358804D01*
X172263575Y-116436428D01*
X172243799Y-116522464D01*
X172215179Y-116626519D01*
X172175704Y-116758202D01*
X172161377Y-116804750D01*
X172024290Y-117227759D01*
X171883575Y-117619075D01*
X171735026Y-117989332D01*
X171574437Y-118349168D01*
X171445621Y-118614500D01*
X171427485Y-118647832D01*
X171388536Y-118717070D01*
X171329192Y-118821494D01*
X171249869Y-118960385D01*
X171150983Y-119133021D01*
X171032951Y-119338684D01*
X170896187Y-119576653D01*
X170741109Y-119846208D01*
X170568133Y-120146629D01*
X170377675Y-120477196D01*
X170170151Y-120837188D01*
X169945977Y-121225887D01*
X169705570Y-121642571D01*
X169449345Y-122086521D01*
X169177720Y-122557016D01*
X168891110Y-123053338D01*
X168589931Y-123574764D01*
X168274599Y-124120576D01*
X167945532Y-124690054D01*
X167603144Y-125282477D01*
X167247852Y-125897125D01*
X166880073Y-126533279D01*
X166500222Y-127190218D01*
X166108716Y-127867222D01*
X165705971Y-128563571D01*
X165292403Y-129278545D01*
X164868428Y-130011425D01*
X164434463Y-130761489D01*
X163990924Y-131528018D01*
X163538226Y-132310292D01*
X163076787Y-133107591D01*
X162607022Y-133919195D01*
X162129347Y-134744384D01*
X161644179Y-135582437D01*
X161151934Y-136432635D01*
X160653028Y-137294257D01*
X160147878Y-138166584D01*
X159636899Y-139048895D01*
X159120507Y-139940471D01*
X158599120Y-140840591D01*
X158403570Y-141178167D01*
X145547286Y-163371417D01*
X145443685Y-163375772D01*
X145358157Y-163372032D01*
X145271245Y-163357380D01*
X145248855Y-163351171D01*
X145109889Y-163285853D01*
X144992197Y-163184729D01*
X144895629Y-163047547D01*
X144820040Y-162874057D01*
X144765281Y-162664008D01*
X144737693Y-162481441D01*
X144736359Y-162457394D01*
X144735078Y-162409076D01*
X144733847Y-162336005D01*
X144732668Y-162237699D01*
X144731539Y-162113675D01*
X144730461Y-161963449D01*
X144729432Y-161786540D01*
X144728453Y-161582465D01*
X144727523Y-161350742D01*
X144726641Y-161090887D01*
X144725808Y-160802419D01*
X144725024Y-160484854D01*
X144724286Y-160137711D01*
X144723596Y-159760506D01*
X144722953Y-159352756D01*
X144722357Y-158913981D01*
X144721807Y-158443696D01*
X144721302Y-157941419D01*
X144720843Y-157406668D01*
X144720429Y-156838961D01*
X144720060Y-156237813D01*
X144719735Y-155602744D01*
X144719454Y-154933270D01*
X144719216Y-154228908D01*
X144719022Y-153489177D01*
X144718871Y-152713594D01*
X144718762Y-151901675D01*
X144718695Y-151052939D01*
X144718670Y-150166903D01*
X144718687Y-149243085D01*
X144718744Y-148281001D01*
X144718842Y-147280169D01*
X144718981Y-146240107D01*
X144719159Y-145160331D01*
X144719377Y-144040361D01*
X144719634Y-142879712D01*
X144719929Y-141677902D01*
X144720263Y-140434449D01*
X144720376Y-140035167D01*
X144853250Y-140035167D01*
X144853252Y-141209725D01*
X144853261Y-142342703D01*
X144853277Y-143434853D01*
X144853300Y-144486928D01*
X144853334Y-145499679D01*
X144853378Y-146473859D01*
X144853434Y-147410222D01*
X144853504Y-148309519D01*
X144853588Y-149172503D01*
X144853687Y-149999927D01*
X144853803Y-150792544D01*
X144853937Y-151551105D01*
X144854090Y-152276363D01*
X144854264Y-152969072D01*
X144854459Y-153629983D01*
X144854677Y-154259849D01*
X144854919Y-154859422D01*
X144855186Y-155429456D01*
X144855480Y-155970702D01*
X144855801Y-156483914D01*
X144856151Y-156969844D01*
X144856531Y-157429244D01*
X144856942Y-157862867D01*
X144857386Y-158271465D01*
X144857863Y-158655792D01*
X144858375Y-159016599D01*
X144858924Y-159354640D01*
X144859509Y-159670666D01*
X144860133Y-159965431D01*
X144860797Y-160239686D01*
X144861501Y-160494185D01*
X144862248Y-160729680D01*
X144863038Y-160946924D01*
X144863872Y-161146668D01*
X144864752Y-161329667D01*
X144865679Y-161496671D01*
X144866654Y-161648435D01*
X144867678Y-161785709D01*
X144868753Y-161909248D01*
X144869879Y-162019803D01*
X144871059Y-162118127D01*
X144872292Y-162204973D01*
X144873581Y-162281093D01*
X144874926Y-162347240D01*
X144876329Y-162404166D01*
X144877791Y-162452623D01*
X144879314Y-162493366D01*
X144880897Y-162527145D01*
X144882543Y-162554713D01*
X144884253Y-162576824D01*
X144886028Y-162594229D01*
X144887869Y-162607682D01*
X144889399Y-162616148D01*
X144942023Y-162812914D01*
X145011308Y-162972673D01*
X145096803Y-163094633D01*
X145198060Y-163178002D01*
X145213083Y-163186347D01*
X145288268Y-163218773D01*
X145365632Y-163241104D01*
X145426897Y-163248229D01*
X145432755Y-163247768D01*
X145444487Y-163229431D01*
X145477020Y-163175166D01*
X145529945Y-163085678D01*
X145602852Y-162961676D01*
X145695331Y-162803865D01*
X145806970Y-162612952D01*
X145937360Y-162389644D01*
X146086091Y-162134648D01*
X146252751Y-161848670D01*
X146436932Y-161532418D01*
X146638223Y-161186597D01*
X146856213Y-160811915D01*
X147090492Y-160409079D01*
X147340650Y-159978794D01*
X147606276Y-159521768D01*
X147886961Y-159038708D01*
X148182295Y-158530320D01*
X148491866Y-157997310D01*
X148815264Y-157440387D01*
X149152080Y-156860256D01*
X149501903Y-156257623D01*
X149864323Y-155633197D01*
X150238929Y-154987683D01*
X150625311Y-154321789D01*
X151023060Y-153636220D01*
X151431764Y-152931684D01*
X151851013Y-152208888D01*
X152280398Y-151468537D01*
X152719508Y-150711339D01*
X153167932Y-149938001D01*
X153625261Y-149149230D01*
X154091084Y-148345731D01*
X154564990Y-147528212D01*
X155046570Y-146697379D01*
X155535414Y-145853940D01*
X156031110Y-144998600D01*
X156533250Y-144132067D01*
X157041421Y-143255048D01*
X157555216Y-142368248D01*
X158074222Y-141472375D01*
X158244656Y-141178167D01*
X158766021Y-140278146D01*
X159282488Y-139386561D01*
X159793640Y-138504129D01*
X160299062Y-137631568D01*
X160798339Y-136769596D01*
X161291055Y-135918931D01*
X161776793Y-135080290D01*
X162255139Y-134254392D01*
X162725678Y-133441954D01*
X163187992Y-132643695D01*
X163641668Y-131860331D01*
X164086288Y-131092582D01*
X164521438Y-130341164D01*
X164946702Y-129606796D01*
X165361665Y-128890195D01*
X165765910Y-128192080D01*
X166159022Y-127513168D01*
X166540586Y-126854177D01*
X166910186Y-126215825D01*
X167267406Y-125598830D01*
X167611831Y-125003909D01*
X167943045Y-124431781D01*
X168260632Y-123883163D01*
X168564178Y-123358773D01*
X168853265Y-122859330D01*
X169127480Y-122385550D01*
X169386405Y-121938152D01*
X169629626Y-121517853D01*
X169856727Y-121125373D01*
X170067293Y-120761427D01*
X170260907Y-120426735D01*
X170437154Y-120122013D01*
X170595618Y-119847981D01*
X170735885Y-119605355D01*
X170857537Y-119394854D01*
X170960161Y-119217195D01*
X171043339Y-119073097D01*
X171106657Y-118963277D01*
X171149699Y-118888453D01*
X171172049Y-118849342D01*
X171174517Y-118844934D01*
X171283879Y-118637799D01*
X171394045Y-118412875D01*
X171503300Y-118174854D01*
X171609929Y-117928426D01*
X171712217Y-117678283D01*
X171808450Y-117429117D01*
X171896912Y-117185618D01*
X171975889Y-116952478D01*
X172043666Y-116734388D01*
X172098527Y-116536040D01*
X172138758Y-116362124D01*
X172162644Y-116217332D01*
X172168833Y-116124873D01*
X172150529Y-115912641D01*
X172096059Y-115722080D01*
X172006093Y-115553994D01*
X171881296Y-115409185D01*
X171722336Y-115288455D01*
X171529880Y-115192606D01*
X171343333Y-115132041D01*
X171316084Y-115124655D01*
X171291942Y-115117630D01*
X171269846Y-115110958D01*
X171248734Y-115104628D01*
X171227544Y-115098631D01*
X171205216Y-115092957D01*
X171180688Y-115087597D01*
X171152897Y-115082541D01*
X171120783Y-115077779D01*
X171083284Y-115073302D01*
X171039338Y-115069100D01*
X170987884Y-115065164D01*
X170927860Y-115061484D01*
X170858205Y-115058050D01*
X170777856Y-115054853D01*
X170685754Y-115051883D01*
X170580835Y-115049131D01*
X170462039Y-115046586D01*
X170328303Y-115044240D01*
X170178567Y-115042082D01*
X170011768Y-115040104D01*
X169826846Y-115038295D01*
X169622738Y-115036645D01*
X169398383Y-115035146D01*
X169152720Y-115033788D01*
X168884687Y-115032560D01*
X168593221Y-115031454D01*
X168277263Y-115030460D01*
X167935750Y-115029568D01*
X167567621Y-115028768D01*
X167171813Y-115028051D01*
X166747267Y-115027408D01*
X166292919Y-115026828D01*
X165807708Y-115026302D01*
X165290574Y-115025821D01*
X164740453Y-115025374D01*
X164156286Y-115024953D01*
X163537009Y-115024548D01*
X162881563Y-115024148D01*
X162188884Y-115023745D01*
X161457912Y-115023329D01*
X160687584Y-115022889D01*
X159876840Y-115022418D01*
X159193667Y-115022007D01*
X158345785Y-115021478D01*
X157539179Y-115020956D01*
X156772792Y-115020451D01*
X156045566Y-115019974D01*
X155356442Y-115019532D01*
X154704365Y-115019137D01*
X154088276Y-115018798D01*
X153507118Y-115018523D01*
X152959833Y-115018324D01*
X152445364Y-115018208D01*
X151962653Y-115018186D01*
X151510644Y-115018268D01*
X151088277Y-115018463D01*
X150694497Y-115018780D01*
X150328244Y-115019229D01*
X149988463Y-115019820D01*
X149674095Y-115020562D01*
X149384082Y-115021465D01*
X149117368Y-115022538D01*
X148872895Y-115023790D01*
X148649605Y-115025233D01*
X148446441Y-115026874D01*
X148262346Y-115028723D01*
X148096261Y-115030791D01*
X147947129Y-115033086D01*
X147813894Y-115035618D01*
X147695496Y-115038398D01*
X147590880Y-115041433D01*
X147498987Y-115044734D01*
X147418760Y-115048311D01*
X147349141Y-115052173D01*
X147289072Y-115056329D01*
X147237498Y-115060789D01*
X147193359Y-115065563D01*
X147155598Y-115070660D01*
X147123158Y-115076089D01*
X147094982Y-115081861D01*
X147070011Y-115087985D01*
X147047189Y-115094470D01*
X147025458Y-115101327D01*
X147003759Y-115108563D01*
X146981037Y-115116190D01*
X146956233Y-115124217D01*
X146928290Y-115132652D01*
X146927583Y-115132857D01*
X146823187Y-115167060D01*
X146700556Y-115213357D01*
X146578982Y-115264252D01*
X146520785Y-115290903D01*
X146213777Y-115460050D01*
X145932518Y-115661665D01*
X145678948Y-115893212D01*
X145455006Y-116152155D01*
X145262633Y-116435959D01*
X145103770Y-116742087D01*
X144980356Y-117068004D01*
X144894331Y-117411174D01*
X144892932Y-117418583D01*
X144890856Y-117430370D01*
X144888853Y-117443689D01*
X144886923Y-117459296D01*
X144885064Y-117477950D01*
X144883274Y-117500408D01*
X144881553Y-117527429D01*
X144879898Y-117559770D01*
X144878310Y-117598189D01*
X144876786Y-117643443D01*
X144875324Y-117696290D01*
X144873925Y-117757489D01*
X144872586Y-117827797D01*
X144871306Y-117907971D01*
X144870083Y-117998770D01*
X144868917Y-118100951D01*
X144867806Y-118215272D01*
X144866749Y-118342491D01*
X144865744Y-118483365D01*
X144864791Y-118638653D01*
X144863887Y-118809111D01*
X144863031Y-118995499D01*
X144862223Y-119198573D01*
X144861460Y-119419092D01*
X144860741Y-119657813D01*
X144860066Y-119915494D01*
X144859433Y-120192892D01*
X144858840Y-120490766D01*
X144858286Y-120809874D01*
X144857769Y-121150972D01*
X144857290Y-121514819D01*
X144856845Y-121902173D01*
X144856434Y-122313791D01*
X144856056Y-122750432D01*
X144855708Y-123212852D01*
X144855391Y-123701810D01*
X144855102Y-124218063D01*
X144854840Y-124762370D01*
X144854604Y-125335488D01*
X144854392Y-125938174D01*
X144854204Y-126571187D01*
X144854037Y-127235284D01*
X144853891Y-127931224D01*
X144853764Y-128659763D01*
X144853655Y-129421660D01*
X144853562Y-130217672D01*
X144853484Y-131048558D01*
X144853421Y-131915074D01*
X144853370Y-132817979D01*
X144853330Y-133758031D01*
X144853299Y-134735987D01*
X144853278Y-135752605D01*
X144853263Y-136808643D01*
X144853255Y-137904859D01*
X144853251Y-139042009D01*
X144853250Y-140035167D01*
X144720376Y-140035167D01*
X144720419Y-139887000D01*
X144726869Y-117503250D01*
G36*
X144758822Y-54496460D02*
G01*
X144759110Y-53675544D01*
X144759430Y-52890909D01*
X144759784Y-52142051D01*
X144760172Y-51428467D01*
X144760595Y-50749652D01*
X144761052Y-50105102D01*
X144761545Y-49494312D01*
X144762073Y-48916779D01*
X144762639Y-48371997D01*
X144763241Y-47859463D01*
X144763881Y-47378673D01*
X144764558Y-46929121D01*
X144765275Y-46510304D01*
X144766030Y-46121718D01*
X144766825Y-45762858D01*
X144767661Y-45433219D01*
X144768537Y-45132299D01*
X144769454Y-44859591D01*
X144770412Y-44614593D01*
X144771413Y-44396799D01*
X144772457Y-44205706D01*
X144773543Y-44040810D01*
X144774674Y-43901605D01*
X144775849Y-43787587D01*
X144777068Y-43698253D01*
X144778333Y-43633099D01*
X144779644Y-43591618D01*
X144780735Y-43575063D01*
X144823267Y-43321611D01*
X144884898Y-43100598D01*
X144964888Y-42913370D01*
X145062496Y-42761273D01*
X145176979Y-42645652D01*
X145307596Y-42567854D01*
X145343102Y-42554329D01*
X145441192Y-42532535D01*
X145563734Y-42522154D01*
X145694330Y-42523507D01*
X145816577Y-42536914D01*
X145853671Y-42544355D01*
X145957738Y-42568376D01*
X157502244Y-62360767D01*
X158004853Y-63222461D01*
X158504337Y-64078796D01*
X159000200Y-64928924D01*
X159491947Y-65771996D01*
X159979085Y-66607163D01*
X160461117Y-67433579D01*
X160937551Y-68250394D01*
X161407890Y-69056761D01*
X161871639Y-69851830D01*
X162328306Y-70634755D01*
X162777393Y-71404687D01*
X163218408Y-72160778D01*
X163650855Y-72902179D01*
X164074239Y-73628042D01*
X164488065Y-74337520D01*
X164891840Y-75029764D01*
X165285067Y-75703925D01*
X165667253Y-76359156D01*
X166037903Y-76994608D01*
X166396522Y-77609434D01*
X166742614Y-78202785D01*
X167075687Y-78773812D01*
X167395244Y-79321668D01*
X167700791Y-79845505D01*
X167991833Y-80344474D01*
X168267876Y-80817727D01*
X168528425Y-81264416D01*
X168772985Y-81683693D01*
X169001061Y-82074710D01*
X169212159Y-82436618D01*
X169405783Y-82768569D01*
X169581440Y-83069715D01*
X169738634Y-83339208D01*
X169876871Y-83576199D01*
X169995656Y-83779841D01*
X170094494Y-83949286D01*
X170172890Y-84083684D01*
X170220248Y-84164870D01*
X170445685Y-84551826D01*
X170650636Y-84904814D01*
X170836340Y-85226202D01*
X171004034Y-85518356D01*
X171154957Y-85783643D01*
X171290345Y-86024431D01*
X171411438Y-86243087D01*
X171519471Y-86441977D01*
X171615685Y-86623470D01*
X171701315Y-86789932D01*
X171777600Y-86943730D01*
X171845778Y-87087231D01*
X171907087Y-87222802D01*
X171962763Y-87352811D01*
X172014046Y-87479625D01*
X172062173Y-87605610D01*
X172108381Y-87733134D01*
X172152130Y-87859333D01*
X172236244Y-88125610D01*
X172310437Y-88398629D01*
X172372463Y-88668285D01*
X172420079Y-88924473D01*
X172451040Y-89157088D01*
X172457874Y-89235848D01*
X172453171Y-89432898D01*
X172409752Y-89625335D01*
X172326761Y-89815070D01*
X172203346Y-90004011D01*
X172038652Y-90194068D01*
X172021370Y-90211703D01*
X171783193Y-90423016D01*
X171513850Y-90608205D01*
X171216545Y-90765863D01*
X170894480Y-90894583D01*
X170550860Y-90992958D01*
X170188887Y-91059580D01*
X170055215Y-91075467D01*
X170019573Y-91076944D01*
X169943174Y-91078364D01*
X169827538Y-91079726D01*
X169674185Y-91081031D01*
X169484635Y-91082280D01*
X169260407Y-91083471D01*
X169003021Y-91084605D01*
X168713996Y-91085683D01*
X168394852Y-91086704D01*
X168047110Y-91087669D01*
X167672287Y-91088577D01*
X167271905Y-91089430D01*
X166847482Y-91090226D01*
X166400539Y-91090966D01*
X165932595Y-91091651D01*
X165445169Y-91092279D01*
X164939782Y-91092853D01*
X164417952Y-91093370D01*
X163881200Y-91093833D01*
X163331046Y-91094240D01*
X162769008Y-91094592D01*
X162196607Y-91094889D01*
X161615362Y-91095131D01*
X161026792Y-91095319D01*
X160432418Y-91095452D01*
X159833759Y-91095530D01*
X159232335Y-91095554D01*
X158629666Y-91095524D01*
X158027270Y-91095440D01*
X157426668Y-91095302D01*
X156829379Y-91095110D01*
X156236923Y-91094864D01*
X155650820Y-91094565D01*
X155072589Y-91094212D01*
X154503750Y-91093805D01*
X153945822Y-91093346D01*
X153400326Y-91092833D01*
X152868780Y-91092267D01*
X152352705Y-91091649D01*
X151853620Y-91090977D01*
X151373044Y-91090253D01*
X150912498Y-91089477D01*
X150473502Y-91088648D01*
X150057573Y-91087766D01*
X149666233Y-91086833D01*
X149301001Y-91085848D01*
X148963397Y-91084810D01*
X148654940Y-91083721D01*
X148377150Y-91082580D01*
X148131546Y-91081388D01*
X147919648Y-91080144D01*
X147742977Y-91078849D01*
X147603050Y-91077503D01*
X147501389Y-91076106D01*
X147439513Y-91074657D01*
X147420976Y-91073648D01*
X147252417Y-91046874D01*
X147063345Y-91004546D01*
X146870525Y-90951170D01*
X146690725Y-90891249D01*
X146583493Y-90848647D01*
X146262620Y-90687412D01*
X145967272Y-90493623D01*
X145699326Y-90269688D01*
X145460659Y-90018012D01*
X145253149Y-89741004D01*
X145078674Y-89441071D01*
X144939112Y-89120619D01*
X144836341Y-88782057D01*
X144789392Y-88548707D01*
X144787758Y-88534771D01*
X144786182Y-88513033D01*
X144784661Y-88482765D01*
X144783196Y-88443236D01*
X144781785Y-88393718D01*
X144780427Y-88333480D01*
X144779121Y-88261794D01*
X144777866Y-88177928D01*
X144776662Y-88081155D01*
X144775506Y-87970744D01*
X144774398Y-87845965D01*
X144773337Y-87706089D01*
X144772322Y-87550387D01*
X144771351Y-87378128D01*
X144770425Y-87188584D01*
X144769541Y-86981024D01*
X144768699Y-86754720D01*
X144767898Y-86508940D01*
X144767136Y-86242957D01*
X144766413Y-85956040D01*
X144765728Y-85647459D01*
X144765080Y-85316485D01*
X144764467Y-84962389D01*
X144763888Y-84584440D01*
X144763343Y-84181910D01*
X144762831Y-83754068D01*
X144762350Y-83300186D01*
X144761899Y-82819532D01*
X144761478Y-82311379D01*
X144761085Y-81774996D01*
X144760720Y-81209653D01*
X144760381Y-80614621D01*
X144760067Y-79989171D01*
X144759778Y-79332572D01*
X144759512Y-78644096D01*
X144759268Y-77923012D01*
X144759045Y-77168592D01*
X144758842Y-76380105D01*
X144758658Y-75556821D01*
X144758493Y-74698012D01*
X144758344Y-73802947D01*
X144758212Y-72870898D01*
X144758095Y-71901133D01*
X144757991Y-70892925D01*
X144757901Y-69845543D01*
X144757822Y-68758257D01*
X144757754Y-67630338D01*
X144757697Y-66461057D01*
X144757680Y-66065377D01*
X144757640Y-64812076D01*
X144757627Y-63600605D01*
X144757642Y-62430458D01*
X144757685Y-61301132D01*
X144757757Y-60212121D01*
X144757859Y-59162923D01*
X144757990Y-58153033D01*
X144758151Y-57181945D01*
X144758343Y-56249157D01*
X144758372Y-56132707D01*
X144888119Y-56132707D01*
X144888138Y-57084880D01*
X144888201Y-58076089D01*
X144888307Y-59106745D01*
X144888456Y-60177260D01*
X144888648Y-61288043D01*
X144888881Y-62439507D01*
X144889157Y-63632061D01*
X144889474Y-64866117D01*
X144889832Y-66142085D01*
X144889842Y-66174083D01*
X144890186Y-67344560D01*
X144890523Y-68473459D01*
X144890854Y-69561538D01*
X144891180Y-70609552D01*
X144891502Y-71618259D01*
X144891824Y-72588414D01*
X144892144Y-73520773D01*
X144892467Y-74416094D01*
X144892792Y-75275133D01*
X144893122Y-76098645D01*
X144893457Y-76887387D01*
X144893800Y-77642116D01*
X144894151Y-78363587D01*
X144894513Y-79052558D01*
X144894887Y-79709784D01*
X144895274Y-80336023D01*
X144895676Y-80932029D01*
X144896095Y-81498560D01*
X144896531Y-82036372D01*
X144896987Y-82546222D01*
X144897463Y-83028864D01*
X144897962Y-83485057D01*
X144898485Y-83915557D01*
X144899033Y-84321119D01*
X144899608Y-84702500D01*
X144900212Y-85060456D01*
X144900845Y-85395744D01*
X144901510Y-85709120D01*
X144902207Y-86001341D01*
X144902939Y-86273162D01*
X144903707Y-86525341D01*
X144904512Y-86758633D01*
X144905356Y-86973795D01*
X144906241Y-87171583D01*
X144907167Y-87352753D01*
X144908137Y-87518063D01*
X144909152Y-87668267D01*
X144910213Y-87804123D01*
X144911322Y-87926387D01*
X144912481Y-88035816D01*
X144913690Y-88133165D01*
X144914952Y-88219191D01*
X144916267Y-88294650D01*
X144917638Y-88360299D01*
X144919066Y-88416894D01*
X144920553Y-88465191D01*
X144922099Y-88505947D01*
X144923707Y-88539918D01*
X144925378Y-88567860D01*
X144927113Y-88590530D01*
X144928914Y-88608684D01*
X144930782Y-88623079D01*
X144932720Y-88634471D01*
X144934456Y-88642500D01*
X145039125Y-88999203D01*
X145175482Y-89328041D01*
X145343970Y-89629708D01*
X145545030Y-89904900D01*
X145779102Y-90154311D01*
X146028000Y-90364642D01*
X146123809Y-90434699D01*
X146223935Y-90503813D01*
X146314622Y-90562681D01*
X146366667Y-90593676D01*
X146626219Y-90719660D01*
X146910179Y-90823732D01*
X147204366Y-90901394D01*
X147477917Y-90946334D01*
X147512308Y-90947818D01*
X147587509Y-90949253D01*
X147701995Y-90950638D01*
X147854242Y-90951972D01*
X148042725Y-90953256D01*
X148265922Y-90954490D01*
X148522306Y-90955673D01*
X148810355Y-90956805D01*
X149128544Y-90957887D01*
X149475349Y-90958917D01*
X149849246Y-90959895D01*
X150248711Y-90960822D01*
X150672219Y-90961698D01*
X151118247Y-90962522D01*
X151585270Y-90963293D01*
X152071764Y-90964013D01*
X152576205Y-90964680D01*
X153097069Y-90965294D01*
X153632832Y-90965856D01*
X154181969Y-90966365D01*
X154742957Y-90966821D01*
X155314271Y-90967223D01*
X155894387Y-90967573D01*
X156481782Y-90967869D01*
X157074930Y-90968111D01*
X157672308Y-90968299D01*
X158272391Y-90968433D01*
X158873656Y-90968513D01*
X159474579Y-90968538D01*
X160073634Y-90968509D01*
X160669298Y-90968426D01*
X161260048Y-90968287D01*
X161844358Y-90968093D01*
X162420704Y-90967844D01*
X162987563Y-90967540D01*
X163543411Y-90967180D01*
X164086722Y-90966765D01*
X164615974Y-90966293D01*
X165129641Y-90965766D01*
X165626201Y-90965182D01*
X166104127Y-90964541D01*
X166561898Y-90963845D01*
X166997987Y-90963091D01*
X167410872Y-90962281D01*
X167799028Y-90961413D01*
X168160930Y-90960488D01*
X168495055Y-90959506D01*
X168799879Y-90958466D01*
X169073878Y-90957369D01*
X169315526Y-90956213D01*
X169523301Y-90955000D01*
X169695678Y-90953728D01*
X169831133Y-90952398D01*
X169928141Y-90951009D01*
X169985179Y-90949561D01*
X169998130Y-90948825D01*
X170326991Y-90902771D01*
X170644866Y-90829131D01*
X170947690Y-90729953D01*
X171231398Y-90607285D01*
X171491926Y-90463175D01*
X171725207Y-90299672D01*
X171927178Y-90118824D01*
X172093774Y-89922679D01*
X172126004Y-89876594D01*
X172210058Y-89742230D01*
X172269718Y-89620664D01*
X172306977Y-89501846D01*
X172323830Y-89375726D01*
X172322273Y-89232255D01*
X172304299Y-89061380D01*
X172297433Y-89012917D01*
X172215165Y-88577012D01*
X172094565Y-88125703D01*
X171936148Y-87660397D01*
X171740435Y-87182503D01*
X171507942Y-86693428D01*
X171300558Y-86303583D01*
X171284616Y-86275809D01*
X171247766Y-86212188D01*
X171190426Y-86113441D01*
X171113017Y-85980290D01*
X171015960Y-85813456D01*
X170899674Y-85613658D01*
X170764580Y-85381619D01*
X170611099Y-85118059D01*
X170439649Y-84823698D01*
X170250653Y-84499258D01*
X170044529Y-84145460D01*
X169821698Y-83763024D01*
X169582580Y-83352672D01*
X169327596Y-82915124D01*
X169057166Y-82451101D01*
X168771710Y-81961324D01*
X168471648Y-81446514D01*
X168157400Y-80907391D01*
X167829387Y-80344678D01*
X167488029Y-79759094D01*
X167133747Y-79151360D01*
X166766959Y-78522198D01*
X166388088Y-77872327D01*
X165997552Y-77202470D01*
X165595772Y-76513347D01*
X165183169Y-75805679D01*
X164760162Y-75080186D01*
X164327172Y-74337590D01*
X163884620Y-73578612D01*
X163432924Y-72803972D01*
X162972506Y-72014391D01*
X162503786Y-71210590D01*
X162027184Y-70393291D01*
X161543120Y-69563213D01*
X161052014Y-68721078D01*
X160554288Y-67867607D01*
X160050360Y-67003520D01*
X159540651Y-66129538D01*
X159025582Y-65246383D01*
X158520140Y-64379752D01*
X157894288Y-63306680D01*
X157289402Y-62269565D01*
X156705124Y-61267793D01*
X156141093Y-60300753D01*
X155596951Y-59367831D01*
X155072339Y-58468415D01*
X154566897Y-57601890D01*
X154080267Y-56767646D01*
X153612088Y-55965068D01*
X153162002Y-55193545D01*
X152729650Y-54452462D01*
X152314673Y-53741208D01*
X151916711Y-53059169D01*
X151535405Y-52405733D01*
X151170396Y-51780286D01*
X150821324Y-51182217D01*
X150487832Y-50610911D01*
X150169558Y-50065757D01*
X149866145Y-49546141D01*
X149577233Y-49051451D01*
X149302463Y-48581073D01*
X149041475Y-48134396D01*
X148793911Y-47710805D01*
X148559411Y-47309688D01*
X148337617Y-46930433D01*
X148128168Y-46572426D01*
X147930706Y-46235055D01*
X147744872Y-45917707D01*
X147570306Y-45619769D01*
X147406649Y-45340627D01*
X147253542Y-45079670D01*
X147110626Y-44836285D01*
X146977542Y-44609858D01*
X146853930Y-44399776D01*
X146739432Y-44205428D01*
X146633688Y-44026199D01*
X146536338Y-43861478D01*
X146447025Y-43710651D01*
X146365387Y-43573106D01*
X146291068Y-43448229D01*
X146223706Y-43335408D01*
X146162944Y-43234031D01*
X146108421Y-43143483D01*
X146059779Y-43063152D01*
X146016659Y-42992426D01*
X145978700Y-42930692D01*
X145945545Y-42877336D01*
X145916834Y-42831746D01*
X145892208Y-42793310D01*
X145871307Y-42761413D01*
X145853772Y-42735444D01*
X145839245Y-42714790D01*
X145827366Y-42698837D01*
X145817775Y-42686973D01*
X145810114Y-42678585D01*
X145804024Y-42673060D01*
X145799145Y-42669785D01*
X145795167Y-42668162D01*
X145731757Y-42656646D01*
X145648579Y-42649212D01*
X145594083Y-42647658D01*
X145443988Y-42666154D01*
X145312032Y-42721614D01*
X145198013Y-42814334D01*
X145101731Y-42944608D01*
X145022984Y-43112731D01*
X144961570Y-43318997D01*
X144917288Y-43563701D01*
X144906421Y-43652750D01*
X144905102Y-43678696D01*
X144903835Y-43732175D01*
X144902620Y-43813598D01*
X144901456Y-43923376D01*
X144900343Y-44061920D01*
X144899281Y-44229641D01*
X144898269Y-44426949D01*
X144897308Y-44654255D01*
X144896396Y-44911971D01*
X144895533Y-45200507D01*
X144894719Y-45520273D01*
X144893955Y-45871681D01*
X144893239Y-46255141D01*
X144892571Y-46671065D01*
X144891951Y-47119863D01*
X144891379Y-47601946D01*
X144890854Y-48117724D01*
X144890376Y-48667610D01*
X144889945Y-49252012D01*
X144889561Y-49871343D01*
X144889222Y-50526013D01*
X144888929Y-51216433D01*
X144888682Y-51943014D01*
X144888480Y-52706166D01*
X144888323Y-53506300D01*
X144888211Y-54343828D01*
X144888143Y-55219160D01*
X144888119Y-56132707D01*
X144758372Y-56132707D01*
X144758567Y-55354164D01*
X144758822Y-54496460D01*
G37*
X144758822Y-54496460D02*
X144759110Y-53675544D01*
X144759430Y-52890909D01*
X144759784Y-52142051D01*
X144760172Y-51428467D01*
X144760595Y-50749652D01*
X144761052Y-50105102D01*
X144761545Y-49494312D01*
X144762073Y-48916779D01*
X144762639Y-48371997D01*
X144763241Y-47859463D01*
X144763881Y-47378673D01*
X144764558Y-46929121D01*
X144765275Y-46510304D01*
X144766030Y-46121718D01*
X144766825Y-45762858D01*
X144767661Y-45433219D01*
X144768537Y-45132299D01*
X144769454Y-44859591D01*
X144770412Y-44614593D01*
X144771413Y-44396799D01*
X144772457Y-44205706D01*
X144773543Y-44040810D01*
X144774674Y-43901605D01*
X144775849Y-43787587D01*
X144777068Y-43698253D01*
X144778333Y-43633099D01*
X144779644Y-43591618D01*
X144780735Y-43575063D01*
X144823267Y-43321611D01*
X144884898Y-43100598D01*
X144964888Y-42913370D01*
X145062496Y-42761273D01*
X145176979Y-42645652D01*
X145307596Y-42567854D01*
X145343102Y-42554329D01*
X145441192Y-42532535D01*
X145563734Y-42522154D01*
X145694330Y-42523507D01*
X145816577Y-42536914D01*
X145853671Y-42544355D01*
X145957738Y-42568376D01*
X157502244Y-62360767D01*
X158004853Y-63222461D01*
X158504337Y-64078796D01*
X159000200Y-64928924D01*
X159491947Y-65771996D01*
X159979085Y-66607163D01*
X160461117Y-67433579D01*
X160937551Y-68250394D01*
X161407890Y-69056761D01*
X161871639Y-69851830D01*
X162328306Y-70634755D01*
X162777393Y-71404687D01*
X163218408Y-72160778D01*
X163650855Y-72902179D01*
X164074239Y-73628042D01*
X164488065Y-74337520D01*
X164891840Y-75029764D01*
X165285067Y-75703925D01*
X165667253Y-76359156D01*
X166037903Y-76994608D01*
X166396522Y-77609434D01*
X166742614Y-78202785D01*
X167075687Y-78773812D01*
X167395244Y-79321668D01*
X167700791Y-79845505D01*
X167991833Y-80344474D01*
X168267876Y-80817727D01*
X168528425Y-81264416D01*
X168772985Y-81683693D01*
X169001061Y-82074710D01*
X169212159Y-82436618D01*
X169405783Y-82768569D01*
X169581440Y-83069715D01*
X169738634Y-83339208D01*
X169876871Y-83576199D01*
X169995656Y-83779841D01*
X170094494Y-83949286D01*
X170172890Y-84083684D01*
X170220248Y-84164870D01*
X170445685Y-84551826D01*
X170650636Y-84904814D01*
X170836340Y-85226202D01*
X171004034Y-85518356D01*
X171154957Y-85783643D01*
X171290345Y-86024431D01*
X171411438Y-86243087D01*
X171519471Y-86441977D01*
X171615685Y-86623470D01*
X171701315Y-86789932D01*
X171777600Y-86943730D01*
X171845778Y-87087231D01*
X171907087Y-87222802D01*
X171962763Y-87352811D01*
X172014046Y-87479625D01*
X172062173Y-87605610D01*
X172108381Y-87733134D01*
X172152130Y-87859333D01*
X172236244Y-88125610D01*
X172310437Y-88398629D01*
X172372463Y-88668285D01*
X172420079Y-88924473D01*
X172451040Y-89157088D01*
X172457874Y-89235848D01*
X172453171Y-89432898D01*
X172409752Y-89625335D01*
X172326761Y-89815070D01*
X172203346Y-90004011D01*
X172038652Y-90194068D01*
X172021370Y-90211703D01*
X171783193Y-90423016D01*
X171513850Y-90608205D01*
X171216545Y-90765863D01*
X170894480Y-90894583D01*
X170550860Y-90992958D01*
X170188887Y-91059580D01*
X170055215Y-91075467D01*
X170019573Y-91076944D01*
X169943174Y-91078364D01*
X169827538Y-91079726D01*
X169674185Y-91081031D01*
X169484635Y-91082280D01*
X169260407Y-91083471D01*
X169003021Y-91084605D01*
X168713996Y-91085683D01*
X168394852Y-91086704D01*
X168047110Y-91087669D01*
X167672287Y-91088577D01*
X167271905Y-91089430D01*
X166847482Y-91090226D01*
X166400539Y-91090966D01*
X165932595Y-91091651D01*
X165445169Y-91092279D01*
X164939782Y-91092853D01*
X164417952Y-91093370D01*
X163881200Y-91093833D01*
X163331046Y-91094240D01*
X162769008Y-91094592D01*
X162196607Y-91094889D01*
X161615362Y-91095131D01*
X161026792Y-91095319D01*
X160432418Y-91095452D01*
X159833759Y-91095530D01*
X159232335Y-91095554D01*
X158629666Y-91095524D01*
X158027270Y-91095440D01*
X157426668Y-91095302D01*
X156829379Y-91095110D01*
X156236923Y-91094864D01*
X155650820Y-91094565D01*
X155072589Y-91094212D01*
X154503750Y-91093805D01*
X153945822Y-91093346D01*
X153400326Y-91092833D01*
X152868780Y-91092267D01*
X152352705Y-91091649D01*
X151853620Y-91090977D01*
X151373044Y-91090253D01*
X150912498Y-91089477D01*
X150473502Y-91088648D01*
X150057573Y-91087766D01*
X149666233Y-91086833D01*
X149301001Y-91085848D01*
X148963397Y-91084810D01*
X148654940Y-91083721D01*
X148377150Y-91082580D01*
X148131546Y-91081388D01*
X147919648Y-91080144D01*
X147742977Y-91078849D01*
X147603050Y-91077503D01*
X147501389Y-91076106D01*
X147439513Y-91074657D01*
X147420976Y-91073648D01*
X147252417Y-91046874D01*
X147063345Y-91004546D01*
X146870525Y-90951170D01*
X146690725Y-90891249D01*
X146583493Y-90848647D01*
X146262620Y-90687412D01*
X145967272Y-90493623D01*
X145699326Y-90269688D01*
X145460659Y-90018012D01*
X145253149Y-89741004D01*
X145078674Y-89441071D01*
X144939112Y-89120619D01*
X144836341Y-88782057D01*
X144789392Y-88548707D01*
X144787758Y-88534771D01*
X144786182Y-88513033D01*
X144784661Y-88482765D01*
X144783196Y-88443236D01*
X144781785Y-88393718D01*
X144780427Y-88333480D01*
X144779121Y-88261794D01*
X144777866Y-88177928D01*
X144776662Y-88081155D01*
X144775506Y-87970744D01*
X144774398Y-87845965D01*
X144773337Y-87706089D01*
X144772322Y-87550387D01*
X144771351Y-87378128D01*
X144770425Y-87188584D01*
X144769541Y-86981024D01*
X144768699Y-86754720D01*
X144767898Y-86508940D01*
X144767136Y-86242957D01*
X144766413Y-85956040D01*
X144765728Y-85647459D01*
X144765080Y-85316485D01*
X144764467Y-84962389D01*
X144763888Y-84584440D01*
X144763343Y-84181910D01*
X144762831Y-83754068D01*
X144762350Y-83300186D01*
X144761899Y-82819532D01*
X144761478Y-82311379D01*
X144761085Y-81774996D01*
X144760720Y-81209653D01*
X144760381Y-80614621D01*
X144760067Y-79989171D01*
X144759778Y-79332572D01*
X144759512Y-78644096D01*
X144759268Y-77923012D01*
X144759045Y-77168592D01*
X144758842Y-76380105D01*
X144758658Y-75556821D01*
X144758493Y-74698012D01*
X144758344Y-73802947D01*
X144758212Y-72870898D01*
X144758095Y-71901133D01*
X144757991Y-70892925D01*
X144757901Y-69845543D01*
X144757822Y-68758257D01*
X144757754Y-67630338D01*
X144757697Y-66461057D01*
X144757680Y-66065377D01*
X144757640Y-64812076D01*
X144757627Y-63600605D01*
X144757642Y-62430458D01*
X144757685Y-61301132D01*
X144757757Y-60212121D01*
X144757859Y-59162923D01*
X144757990Y-58153033D01*
X144758151Y-57181945D01*
X144758343Y-56249157D01*
X144758372Y-56132707D01*
X144888119Y-56132707D01*
X144888138Y-57084880D01*
X144888201Y-58076089D01*
X144888307Y-59106745D01*
X144888456Y-60177260D01*
X144888648Y-61288043D01*
X144888881Y-62439507D01*
X144889157Y-63632061D01*
X144889474Y-64866117D01*
X144889832Y-66142085D01*
X144889842Y-66174083D01*
X144890186Y-67344560D01*
X144890523Y-68473459D01*
X144890854Y-69561538D01*
X144891180Y-70609552D01*
X144891502Y-71618259D01*
X144891824Y-72588414D01*
X144892144Y-73520773D01*
X144892467Y-74416094D01*
X144892792Y-75275133D01*
X144893122Y-76098645D01*
X144893457Y-76887387D01*
X144893800Y-77642116D01*
X144894151Y-78363587D01*
X144894513Y-79052558D01*
X144894887Y-79709784D01*
X144895274Y-80336023D01*
X144895676Y-80932029D01*
X144896095Y-81498560D01*
X144896531Y-82036372D01*
X144896987Y-82546222D01*
X144897463Y-83028864D01*
X144897962Y-83485057D01*
X144898485Y-83915557D01*
X144899033Y-84321119D01*
X144899608Y-84702500D01*
X144900212Y-85060456D01*
X144900845Y-85395744D01*
X144901510Y-85709120D01*
X144902207Y-86001341D01*
X144902939Y-86273162D01*
X144903707Y-86525341D01*
X144904512Y-86758633D01*
X144905356Y-86973795D01*
X144906241Y-87171583D01*
X144907167Y-87352753D01*
X144908137Y-87518063D01*
X144909152Y-87668267D01*
X144910213Y-87804123D01*
X144911322Y-87926387D01*
X144912481Y-88035816D01*
X144913690Y-88133165D01*
X144914952Y-88219191D01*
X144916267Y-88294650D01*
X144917638Y-88360299D01*
X144919066Y-88416894D01*
X144920553Y-88465191D01*
X144922099Y-88505947D01*
X144923707Y-88539918D01*
X144925378Y-88567860D01*
X144927113Y-88590530D01*
X144928914Y-88608684D01*
X144930782Y-88623079D01*
X144932720Y-88634471D01*
X144934456Y-88642500D01*
X145039125Y-88999203D01*
X145175482Y-89328041D01*
X145343970Y-89629708D01*
X145545030Y-89904900D01*
X145779102Y-90154311D01*
X146028000Y-90364642D01*
X146123809Y-90434699D01*
X146223935Y-90503813D01*
X146314622Y-90562681D01*
X146366667Y-90593676D01*
X146626219Y-90719660D01*
X146910179Y-90823732D01*
X147204366Y-90901394D01*
X147477917Y-90946334D01*
X147512308Y-90947818D01*
X147587509Y-90949253D01*
X147701995Y-90950638D01*
X147854242Y-90951972D01*
X148042725Y-90953256D01*
X148265922Y-90954490D01*
X148522306Y-90955673D01*
X148810355Y-90956805D01*
X149128544Y-90957887D01*
X149475349Y-90958917D01*
X149849246Y-90959895D01*
X150248711Y-90960822D01*
X150672219Y-90961698D01*
X151118247Y-90962522D01*
X151585270Y-90963293D01*
X152071764Y-90964013D01*
X152576205Y-90964680D01*
X153097069Y-90965294D01*
X153632832Y-90965856D01*
X154181969Y-90966365D01*
X154742957Y-90966821D01*
X155314271Y-90967223D01*
X155894387Y-90967573D01*
X156481782Y-90967869D01*
X157074930Y-90968111D01*
X157672308Y-90968299D01*
X158272391Y-90968433D01*
X158873656Y-90968513D01*
X159474579Y-90968538D01*
X160073634Y-90968509D01*
X160669298Y-90968426D01*
X161260048Y-90968287D01*
X161844358Y-90968093D01*
X162420704Y-90967844D01*
X162987563Y-90967540D01*
X163543411Y-90967180D01*
X164086722Y-90966765D01*
X164615974Y-90966293D01*
X165129641Y-90965766D01*
X165626201Y-90965182D01*
X166104127Y-90964541D01*
X166561898Y-90963845D01*
X166997987Y-90963091D01*
X167410872Y-90962281D01*
X167799028Y-90961413D01*
X168160930Y-90960488D01*
X168495055Y-90959506D01*
X168799879Y-90958466D01*
X169073878Y-90957369D01*
X169315526Y-90956213D01*
X169523301Y-90955000D01*
X169695678Y-90953728D01*
X169831133Y-90952398D01*
X169928141Y-90951009D01*
X169985179Y-90949561D01*
X169998130Y-90948825D01*
X170326991Y-90902771D01*
X170644866Y-90829131D01*
X170947690Y-90729953D01*
X171231398Y-90607285D01*
X171491926Y-90463175D01*
X171725207Y-90299672D01*
X171927178Y-90118824D01*
X172093774Y-89922679D01*
X172126004Y-89876594D01*
X172210058Y-89742230D01*
X172269718Y-89620664D01*
X172306977Y-89501846D01*
X172323830Y-89375726D01*
X172322273Y-89232255D01*
X172304299Y-89061380D01*
X172297433Y-89012917D01*
X172215165Y-88577012D01*
X172094565Y-88125703D01*
X171936148Y-87660397D01*
X171740435Y-87182503D01*
X171507942Y-86693428D01*
X171300558Y-86303583D01*
X171284616Y-86275809D01*
X171247766Y-86212188D01*
X171190426Y-86113441D01*
X171113017Y-85980290D01*
X171015960Y-85813456D01*
X170899674Y-85613658D01*
X170764580Y-85381619D01*
X170611099Y-85118059D01*
X170439649Y-84823698D01*
X170250653Y-84499258D01*
X170044529Y-84145460D01*
X169821698Y-83763024D01*
X169582580Y-83352672D01*
X169327596Y-82915124D01*
X169057166Y-82451101D01*
X168771710Y-81961324D01*
X168471648Y-81446514D01*
X168157400Y-80907391D01*
X167829387Y-80344678D01*
X167488029Y-79759094D01*
X167133747Y-79151360D01*
X166766959Y-78522198D01*
X166388088Y-77872327D01*
X165997552Y-77202470D01*
X165595772Y-76513347D01*
X165183169Y-75805679D01*
X164760162Y-75080186D01*
X164327172Y-74337590D01*
X163884620Y-73578612D01*
X163432924Y-72803972D01*
X162972506Y-72014391D01*
X162503786Y-71210590D01*
X162027184Y-70393291D01*
X161543120Y-69563213D01*
X161052014Y-68721078D01*
X160554288Y-67867607D01*
X160050360Y-67003520D01*
X159540651Y-66129538D01*
X159025582Y-65246383D01*
X158520140Y-64379752D01*
X157894288Y-63306680D01*
X157289402Y-62269565D01*
X156705124Y-61267793D01*
X156141093Y-60300753D01*
X155596951Y-59367831D01*
X155072339Y-58468415D01*
X154566897Y-57601890D01*
X154080267Y-56767646D01*
X153612088Y-55965068D01*
X153162002Y-55193545D01*
X152729650Y-54452462D01*
X152314673Y-53741208D01*
X151916711Y-53059169D01*
X151535405Y-52405733D01*
X151170396Y-51780286D01*
X150821324Y-51182217D01*
X150487832Y-50610911D01*
X150169558Y-50065757D01*
X149866145Y-49546141D01*
X149577233Y-49051451D01*
X149302463Y-48581073D01*
X149041475Y-48134396D01*
X148793911Y-47710805D01*
X148559411Y-47309688D01*
X148337617Y-46930433D01*
X148128168Y-46572426D01*
X147930706Y-46235055D01*
X147744872Y-45917707D01*
X147570306Y-45619769D01*
X147406649Y-45340627D01*
X147253542Y-45079670D01*
X147110626Y-44836285D01*
X146977542Y-44609858D01*
X146853930Y-44399776D01*
X146739432Y-44205428D01*
X146633688Y-44026199D01*
X146536338Y-43861478D01*
X146447025Y-43710651D01*
X146365387Y-43573106D01*
X146291068Y-43448229D01*
X146223706Y-43335408D01*
X146162944Y-43234031D01*
X146108421Y-43143483D01*
X146059779Y-43063152D01*
X146016659Y-42992426D01*
X145978700Y-42930692D01*
X145945545Y-42877336D01*
X145916834Y-42831746D01*
X145892208Y-42793310D01*
X145871307Y-42761413D01*
X145853772Y-42735444D01*
X145839245Y-42714790D01*
X145827366Y-42698837D01*
X145817775Y-42686973D01*
X145810114Y-42678585D01*
X145804024Y-42673060D01*
X145799145Y-42669785D01*
X145795167Y-42668162D01*
X145731757Y-42656646D01*
X145648579Y-42649212D01*
X145594083Y-42647658D01*
X145443988Y-42666154D01*
X145312032Y-42721614D01*
X145198013Y-42814334D01*
X145101731Y-42944608D01*
X145022984Y-43112731D01*
X144961570Y-43318997D01*
X144917288Y-43563701D01*
X144906421Y-43652750D01*
X144905102Y-43678696D01*
X144903835Y-43732175D01*
X144902620Y-43813598D01*
X144901456Y-43923376D01*
X144900343Y-44061920D01*
X144899281Y-44229641D01*
X144898269Y-44426949D01*
X144897308Y-44654255D01*
X144896396Y-44911971D01*
X144895533Y-45200507D01*
X144894719Y-45520273D01*
X144893955Y-45871681D01*
X144893239Y-46255141D01*
X144892571Y-46671065D01*
X144891951Y-47119863D01*
X144891379Y-47601946D01*
X144890854Y-48117724D01*
X144890376Y-48667610D01*
X144889945Y-49252012D01*
X144889561Y-49871343D01*
X144889222Y-50526013D01*
X144888929Y-51216433D01*
X144888682Y-51943014D01*
X144888480Y-52706166D01*
X144888323Y-53506300D01*
X144888211Y-54343828D01*
X144888143Y-55219160D01*
X144888119Y-56132707D01*
X144758372Y-56132707D01*
X144758567Y-55354164D01*
X144758822Y-54496460D01*
G36*
X110043351Y-116288674D02*
G01*
X110044510Y-116277124D01*
X110085240Y-116027951D01*
X110154660Y-115806308D01*
X110253971Y-115611058D01*
X110384372Y-115441067D01*
X110547064Y-115295200D01*
X110743247Y-115172322D01*
X110974121Y-115071298D01*
X111240885Y-114990993D01*
X111451728Y-114946114D01*
X111706250Y-114899750D01*
X123432583Y-114899750D01*
X124275186Y-114899753D01*
X125076509Y-114899764D01*
X125837605Y-114899787D01*
X126559529Y-114899825D01*
X127243332Y-114899882D01*
X127890068Y-114899961D01*
X128500792Y-114900066D01*
X129076555Y-114900200D01*
X129618412Y-114900367D01*
X130127416Y-114900570D01*
X130604620Y-114900813D01*
X131051077Y-114901098D01*
X131467841Y-114901431D01*
X131855966Y-114901813D01*
X132216504Y-114902249D01*
X132550509Y-114902742D01*
X132859034Y-114903296D01*
X133143133Y-114903913D01*
X133403859Y-114904598D01*
X133642265Y-114905355D01*
X133859405Y-114906185D01*
X134056332Y-114907094D01*
X134234099Y-114908084D01*
X134393760Y-114909159D01*
X134536368Y-114910323D01*
X134662976Y-114911578D01*
X134774639Y-114912929D01*
X134872408Y-114914379D01*
X134957338Y-114915931D01*
X135030481Y-114917589D01*
X135092892Y-114919357D01*
X135145623Y-114921237D01*
X135189729Y-114923234D01*
X135226261Y-114925350D01*
X135256274Y-114927590D01*
X135280821Y-114929956D01*
X135300955Y-114932453D01*
X135317730Y-114935084D01*
X135332199Y-114937851D01*
X135338265Y-114939149D01*
X135688293Y-115036583D01*
X136020054Y-115170491D01*
X136330719Y-115339360D01*
X136617457Y-115541674D01*
X136849235Y-115747645D01*
X137072622Y-115990885D01*
X137262697Y-116247527D01*
X137422399Y-116522936D01*
X137554671Y-116822475D01*
X137662454Y-117151509D01*
X137701803Y-117302571D01*
X137703826Y-117311921D01*
X137705779Y-117323506D01*
X137707664Y-117338084D01*
X137709482Y-117356415D01*
X137711235Y-117379258D01*
X137712926Y-117407372D01*
X137714556Y-117441518D01*
X137716128Y-117482453D01*
X137717642Y-117530938D01*
X137719102Y-117587731D01*
X137720508Y-117653593D01*
X137721862Y-117729282D01*
X137723168Y-117815558D01*
X137724425Y-117913180D01*
X137725638Y-118022907D01*
X137726806Y-118145499D01*
X137727932Y-118281714D01*
X137729019Y-118432313D01*
X137730067Y-118598055D01*
X137731079Y-118779699D01*
X137732057Y-118978003D01*
X137733002Y-119193729D01*
X137733917Y-119427634D01*
X137734803Y-119680478D01*
X137735662Y-119953021D01*
X137736497Y-120246021D01*
X137737308Y-120560239D01*
X137738098Y-120896433D01*
X137738869Y-121255363D01*
X137739623Y-121637788D01*
X137740361Y-122044467D01*
X137741086Y-122476160D01*
X137741798Y-122933626D01*
X137742502Y-123417625D01*
X137743197Y-123928915D01*
X137743886Y-124468256D01*
X137744571Y-125036407D01*
X137745253Y-125634128D01*
X137745935Y-126262178D01*
X137746619Y-126921316D01*
X137747306Y-127612301D01*
X137747999Y-128335893D01*
X137748698Y-129092852D01*
X137749407Y-129883936D01*
X137750127Y-130709905D01*
X137750859Y-131571518D01*
X137751606Y-132469534D01*
X137752370Y-133404713D01*
X137753152Y-134377814D01*
X137753954Y-135389597D01*
X137754779Y-136440820D01*
X137755628Y-137532243D01*
X137756503Y-138664626D01*
X137757232Y-139611833D01*
X137757977Y-140581271D01*
X137758714Y-141541005D01*
X137759443Y-142490144D01*
X137760164Y-143427793D01*
X137760875Y-144353059D01*
X137761577Y-145265049D01*
X137762267Y-146162869D01*
X137762946Y-147045627D01*
X137763613Y-147912427D01*
X137764267Y-148762378D01*
X137764908Y-149594586D01*
X137765534Y-150408158D01*
X137766146Y-151202199D01*
X137766742Y-151975817D01*
X137767321Y-152728119D01*
X137767884Y-153458211D01*
X137768429Y-154165199D01*
X137768956Y-154848190D01*
X137769463Y-155506291D01*
X137769951Y-156138609D01*
X137770419Y-156744250D01*
X137770865Y-157322320D01*
X137771290Y-157871927D01*
X137771692Y-158392177D01*
X137772071Y-158882176D01*
X137772426Y-159341032D01*
X137772757Y-159767850D01*
X137773062Y-160161738D01*
X137773342Y-160521802D01*
X137773595Y-160847148D01*
X137773820Y-161136884D01*
X137774018Y-161390116D01*
X137774187Y-161605951D01*
X137774326Y-161783494D01*
X137774436Y-161921854D01*
X137774514Y-162020136D01*
X137774562Y-162077447D01*
X137774574Y-162090833D01*
X137764524Y-162368576D01*
X137733332Y-162610675D01*
X137680325Y-162818545D01*
X137604826Y-162993600D01*
X137506163Y-163137253D01*
X137383660Y-163250918D01*
X137236643Y-163336009D01*
X137167333Y-163363599D01*
X137087214Y-163384608D01*
X136984267Y-163401512D01*
X136871063Y-163413357D01*
X136760178Y-163419184D01*
X136664184Y-163418036D01*
X136595653Y-163408958D01*
X136590524Y-163407494D01*
X136583964Y-163399870D01*
X136569323Y-163378276D01*
X136546304Y-163342201D01*
X136514606Y-163291131D01*
X136473929Y-163224556D01*
X136423974Y-163141962D01*
X136364441Y-163042837D01*
X136295031Y-162926671D01*
X136215443Y-162792949D01*
X136125378Y-162641161D01*
X136024536Y-162470793D01*
X135912618Y-162281335D01*
X135789324Y-162072273D01*
X135654354Y-161843096D01*
X135507409Y-161593292D01*
X135348188Y-161322347D01*
X135176393Y-161029751D01*
X134991723Y-160714991D01*
X134793878Y-160377555D01*
X134582560Y-160016931D01*
X134357469Y-159632606D01*
X134118304Y-159224068D01*
X133864766Y-158790806D01*
X133596555Y-158332307D01*
X133313372Y-157848060D01*
X133014917Y-157337551D01*
X132700890Y-156800268D01*
X132370992Y-156235701D01*
X132024923Y-155643336D01*
X131662383Y-155022661D01*
X131283072Y-154373164D01*
X130886691Y-153694333D01*
X130472940Y-152985657D01*
X130041520Y-152246622D01*
X129592131Y-151476716D01*
X129124472Y-150675428D01*
X128638245Y-149842246D01*
X128133149Y-148976656D01*
X127608886Y-148078148D01*
X127065155Y-147146209D01*
X126501656Y-146180326D01*
X125918091Y-145179988D01*
X125314158Y-144144682D01*
X124689559Y-143073897D01*
X124043994Y-141967120D01*
X123947862Y-141802303D01*
X123429045Y-140912792D01*
X122915146Y-140031686D01*
X122406587Y-139159711D01*
X121903790Y-138297591D01*
X121407178Y-137446050D01*
X120917172Y-136605813D01*
X120434196Y-135777604D01*
X119958670Y-134962148D01*
X119491018Y-134160170D01*
X119031662Y-133372393D01*
X118581024Y-132599542D01*
X118139526Y-131842342D01*
X117707591Y-131101518D01*
X117285640Y-130377792D01*
X116874097Y-129671891D01*
X116473383Y-128984539D01*
X116083921Y-128316459D01*
X115706132Y-127668377D01*
X115340440Y-127041016D01*
X114987266Y-126435103D01*
X114647033Y-125851360D01*
X114320163Y-125290512D01*
X114007078Y-124753284D01*
X113708201Y-124240401D01*
X113423953Y-123752586D01*
X113154758Y-123290564D01*
X112901036Y-122855060D01*
X112663212Y-122446798D01*
X112441706Y-122066503D01*
X112236941Y-121714899D01*
X112049340Y-121392710D01*
X111879324Y-121100661D01*
X111727316Y-120839477D01*
X111593738Y-120609882D01*
X111479013Y-120412600D01*
X111383563Y-120248356D01*
X111307809Y-120117874D01*
X111252175Y-120021879D01*
X111217082Y-119961095D01*
X111203587Y-119937417D01*
X110977967Y-119498429D01*
X110765473Y-119025344D01*
X110568746Y-118525078D01*
X110390428Y-118004549D01*
X110233164Y-117470673D01*
X110172688Y-117238794D01*
X110126027Y-117049588D01*
X110089912Y-116894259D01*
X110063425Y-116765931D01*
X110045651Y-116657729D01*
X110035673Y-116562778D01*
X110032575Y-116474202D01*
X110033149Y-116456327D01*
X110171016Y-116456327D01*
X110193785Y-116722112D01*
X110226075Y-116894077D01*
X110380537Y-117507050D01*
X110566096Y-118110040D01*
X110780218Y-118695947D01*
X111020369Y-119257674D01*
X111206906Y-119641083D01*
X111225486Y-119674809D01*
X111264718Y-119743913D01*
X111324100Y-119847529D01*
X111403125Y-119984790D01*
X111501289Y-120154830D01*
X111618087Y-120356784D01*
X111753013Y-120589785D01*
X111905563Y-120852966D01*
X112075231Y-121145462D01*
X112261513Y-121466407D01*
X112463903Y-121814935D01*
X112681897Y-122190178D01*
X112914990Y-122591272D01*
X113162675Y-123017350D01*
X113424450Y-123467545D01*
X113699807Y-123940992D01*
X113988243Y-124436825D01*
X114289252Y-124954177D01*
X114602330Y-125492182D01*
X114926971Y-126049975D01*
X115262670Y-126626688D01*
X115608922Y-127221456D01*
X115965223Y-127833412D01*
X116331066Y-128461691D01*
X116705948Y-129105427D01*
X117089363Y-129763752D01*
X117480807Y-130435802D01*
X117879773Y-131120709D01*
X118285757Y-131817608D01*
X118698255Y-132525633D01*
X119116760Y-133243917D01*
X119540769Y-133971594D01*
X119969775Y-134707798D01*
X120403274Y-135451663D01*
X120840762Y-136202323D01*
X121281732Y-136958912D01*
X121725680Y-137720563D01*
X122172101Y-138486410D01*
X122620490Y-139255588D01*
X123070341Y-140027229D01*
X123521151Y-140800468D01*
X123972413Y-141574440D01*
X124423623Y-142348276D01*
X124874275Y-143121112D01*
X125323866Y-143892082D01*
X125771889Y-144660318D01*
X126217839Y-145424955D01*
X126661213Y-146185127D01*
X127101503Y-146939968D01*
X127538207Y-147688612D01*
X127970818Y-148430191D01*
X128398831Y-149163841D01*
X128821742Y-149888695D01*
X129239045Y-150603886D01*
X129650236Y-151308550D01*
X130054810Y-152001819D01*
X130452260Y-152682827D01*
X130842083Y-153350709D01*
X131223774Y-154004598D01*
X131596826Y-154643628D01*
X131960737Y-155266932D01*
X132314999Y-155873645D01*
X132659108Y-156462901D01*
X132992560Y-157033833D01*
X133314849Y-157585576D01*
X133625471Y-158117262D01*
X133923919Y-158628026D01*
X134209689Y-159117002D01*
X134482277Y-159583324D01*
X134741177Y-160026125D01*
X134985883Y-160444539D01*
X135215892Y-160837701D01*
X135430698Y-161204743D01*
X135629796Y-161544800D01*
X135812681Y-161857006D01*
X135978847Y-162140495D01*
X136127791Y-162394400D01*
X136259007Y-162617855D01*
X136371989Y-162809994D01*
X136466233Y-162969951D01*
X136541234Y-163096860D01*
X136596487Y-163189854D01*
X136631487Y-163248068D01*
X136645728Y-163270635D01*
X136645956Y-163270875D01*
X136696305Y-163290852D01*
X136777900Y-163295788D01*
X136894092Y-163285727D01*
X136965743Y-163275163D01*
X137137411Y-163228890D01*
X137283551Y-163149603D01*
X137404737Y-163036721D01*
X137501547Y-162889666D01*
X137574554Y-162707860D01*
X137592294Y-162644933D01*
X137594105Y-162635801D01*
X137595852Y-162622214D01*
X137597536Y-162603426D01*
X137599157Y-162578689D01*
X137600718Y-162547255D01*
X137602218Y-162508379D01*
X137603659Y-162461311D01*
X137605043Y-162405307D01*
X137606369Y-162339617D01*
X137607640Y-162263495D01*
X137608857Y-162176194D01*
X137610020Y-162076966D01*
X137611131Y-161965065D01*
X137612191Y-161839743D01*
X137613200Y-161700252D01*
X137614160Y-161545846D01*
X137615073Y-161375778D01*
X137615938Y-161189300D01*
X137616758Y-160985664D01*
X137617533Y-160764125D01*
X137618265Y-160523934D01*
X137618954Y-160264345D01*
X137619601Y-159984609D01*
X137620209Y-159683981D01*
X137620777Y-159361713D01*
X137621307Y-159017057D01*
X137621800Y-158649266D01*
X137622257Y-158257593D01*
X137622680Y-157841292D01*
X137623068Y-157399614D01*
X137623424Y-156931813D01*
X137623749Y-156437140D01*
X137624043Y-155914850D01*
X137624308Y-155364195D01*
X137624544Y-154784428D01*
X137624754Y-154174801D01*
X137624937Y-153534567D01*
X137625095Y-152862979D01*
X137625230Y-152159291D01*
X137625342Y-151422753D01*
X137625432Y-150652620D01*
X137625501Y-149848145D01*
X137625551Y-149008579D01*
X137625583Y-148133176D01*
X137625598Y-147221189D01*
X137625596Y-146271870D01*
X137625579Y-145284472D01*
X137625548Y-144258249D01*
X137625505Y-143192452D01*
X137625449Y-142086334D01*
X137625383Y-140939149D01*
X137625331Y-140118647D01*
X137625231Y-138865143D01*
X137625093Y-137644235D01*
X137624920Y-136456221D01*
X137624711Y-135301398D01*
X137624465Y-134180062D01*
X137624185Y-133092511D01*
X137623869Y-132039041D01*
X137623519Y-131019950D01*
X137623134Y-130035535D01*
X137622715Y-129086093D01*
X137622262Y-128171921D01*
X137621775Y-127293316D01*
X137621255Y-126450574D01*
X137620702Y-125643994D01*
X137620116Y-124873871D01*
X137619498Y-124140504D01*
X137618847Y-123444188D01*
X137618165Y-122785222D01*
X137617451Y-122163902D01*
X137616705Y-121580525D01*
X137615928Y-121035388D01*
X137615121Y-120528789D01*
X137614283Y-120061024D01*
X137613415Y-119632390D01*
X137612518Y-119243184D01*
X137611590Y-118893704D01*
X137610633Y-118584247D01*
X137609647Y-118315109D01*
X137608633Y-118086587D01*
X137607590Y-117898979D01*
X137606519Y-117752581D01*
X137605420Y-117647691D01*
X137604293Y-117584606D01*
X137603396Y-117564613D01*
X137538694Y-117216606D01*
X137435183Y-116885331D01*
X137293315Y-116571692D01*
X137113544Y-116276593D01*
X136896323Y-116000936D01*
X136734483Y-115831858D01*
X136469762Y-115603089D01*
X136184545Y-115410951D01*
X135877777Y-115254893D01*
X135548406Y-115134358D01*
X135275333Y-115064689D01*
X135261115Y-115061951D01*
X135244371Y-115059348D01*
X135224047Y-115056876D01*
X135199087Y-115054532D01*
X135168435Y-115052313D01*
X135131036Y-115050215D01*
X135085833Y-115048234D01*
X135031772Y-115046368D01*
X134967796Y-115044613D01*
X134892851Y-115042965D01*
X134805879Y-115041422D01*
X134705827Y-115039979D01*
X134591637Y-115038634D01*
X134462255Y-115037382D01*
X134316625Y-115036222D01*
X134153690Y-115035148D01*
X133972397Y-115034159D01*
X133771688Y-115033250D01*
X133550508Y-115032418D01*
X133307802Y-115031660D01*
X133042513Y-115030972D01*
X132753587Y-115030351D01*
X132439968Y-115029793D01*
X132100599Y-115029296D01*
X131734426Y-115028856D01*
X131340392Y-115028468D01*
X130917443Y-115028131D01*
X130464522Y-115027841D01*
X129980573Y-115027593D01*
X129464542Y-115027386D01*
X128915372Y-115027214D01*
X128332008Y-115027076D01*
X127713394Y-115026968D01*
X127058475Y-115026886D01*
X126366194Y-115026826D01*
X125635497Y-115026786D01*
X124865327Y-115026763D01*
X124054630Y-115026752D01*
X123453750Y-115026750D01*
X122608902Y-115026743D01*
X121805322Y-115026730D01*
X121041945Y-115026718D01*
X120317707Y-115026715D01*
X119631543Y-115026732D01*
X118982387Y-115026775D01*
X118369174Y-115026854D01*
X117790840Y-115026977D01*
X117246320Y-115027153D01*
X116734548Y-115027390D01*
X116254459Y-115027696D01*
X115804990Y-115028081D01*
X115385074Y-115028553D01*
X114993647Y-115029121D01*
X114629643Y-115029792D01*
X114291999Y-115030576D01*
X113979648Y-115031481D01*
X113691526Y-115032516D01*
X113426568Y-115033689D01*
X113183709Y-115035009D01*
X112961883Y-115036484D01*
X112760027Y-115038123D01*
X112577075Y-115039934D01*
X112411961Y-115041926D01*
X112263622Y-115044108D01*
X112130992Y-115046488D01*
X112013006Y-115049074D01*
X111908599Y-115051876D01*
X111816706Y-115054901D01*
X111736263Y-115058158D01*
X111666204Y-115061657D01*
X111605464Y-115065404D01*
X111552978Y-115069410D01*
X111507681Y-115073682D01*
X111468509Y-115078229D01*
X111434397Y-115083060D01*
X111404279Y-115088182D01*
X111377090Y-115093606D01*
X111351765Y-115099338D01*
X111327241Y-115105389D01*
X111302450Y-115111765D01*
X111276330Y-115118477D01*
X111251167Y-115124723D01*
X110999442Y-115203524D01*
X110779773Y-115309594D01*
X110592802Y-115441820D01*
X110439177Y-115599089D01*
X110319540Y-115780287D01*
X110234538Y-115984301D01*
X110184815Y-116210019D01*
X110171016Y-116456327D01*
X110033149Y-116456327D01*
X110035439Y-116385125D01*
X110043351Y-116288674D01*
G37*
X110043351Y-116288674D02*
X110044510Y-116277124D01*
X110085240Y-116027951D01*
X110154660Y-115806308D01*
X110253971Y-115611058D01*
X110384372Y-115441067D01*
X110547064Y-115295200D01*
X110743247Y-115172322D01*
X110974121Y-115071298D01*
X111240885Y-114990993D01*
X111451728Y-114946114D01*
X111706250Y-114899750D01*
X123432583Y-114899750D01*
X124275186Y-114899753D01*
X125076509Y-114899764D01*
X125837605Y-114899787D01*
X126559529Y-114899825D01*
X127243332Y-114899882D01*
X127890068Y-114899961D01*
X128500792Y-114900066D01*
X129076555Y-114900200D01*
X129618412Y-114900367D01*
X130127416Y-114900570D01*
X130604620Y-114900813D01*
X131051077Y-114901098D01*
X131467841Y-114901431D01*
X131855966Y-114901813D01*
X132216504Y-114902249D01*
X132550509Y-114902742D01*
X132859034Y-114903296D01*
X133143133Y-114903913D01*
X133403859Y-114904598D01*
X133642265Y-114905355D01*
X133859405Y-114906185D01*
X134056332Y-114907094D01*
X134234099Y-114908084D01*
X134393760Y-114909159D01*
X134536368Y-114910323D01*
X134662976Y-114911578D01*
X134774639Y-114912929D01*
X134872408Y-114914379D01*
X134957338Y-114915931D01*
X135030481Y-114917589D01*
X135092892Y-114919357D01*
X135145623Y-114921237D01*
X135189729Y-114923234D01*
X135226261Y-114925350D01*
X135256274Y-114927590D01*
X135280821Y-114929956D01*
X135300955Y-114932453D01*
X135317730Y-114935084D01*
X135332199Y-114937851D01*
X135338265Y-114939149D01*
X135688293Y-115036583D01*
X136020054Y-115170491D01*
X136330719Y-115339360D01*
X136617457Y-115541674D01*
X136849235Y-115747645D01*
X137072622Y-115990885D01*
X137262697Y-116247527D01*
X137422399Y-116522936D01*
X137554671Y-116822475D01*
X137662454Y-117151509D01*
X137701803Y-117302571D01*
X137703826Y-117311921D01*
X137705779Y-117323506D01*
X137707664Y-117338084D01*
X137709482Y-117356415D01*
X137711235Y-117379258D01*
X137712926Y-117407372D01*
X137714556Y-117441518D01*
X137716128Y-117482453D01*
X137717642Y-117530938D01*
X137719102Y-117587731D01*
X137720508Y-117653593D01*
X137721862Y-117729282D01*
X137723168Y-117815558D01*
X137724425Y-117913180D01*
X137725638Y-118022907D01*
X137726806Y-118145499D01*
X137727932Y-118281714D01*
X137729019Y-118432313D01*
X137730067Y-118598055D01*
X137731079Y-118779699D01*
X137732057Y-118978003D01*
X137733002Y-119193729D01*
X137733917Y-119427634D01*
X137734803Y-119680478D01*
X137735662Y-119953021D01*
X137736497Y-120246021D01*
X137737308Y-120560239D01*
X137738098Y-120896433D01*
X137738869Y-121255363D01*
X137739623Y-121637788D01*
X137740361Y-122044467D01*
X137741086Y-122476160D01*
X137741798Y-122933626D01*
X137742502Y-123417625D01*
X137743197Y-123928915D01*
X137743886Y-124468256D01*
X137744571Y-125036407D01*
X137745253Y-125634128D01*
X137745935Y-126262178D01*
X137746619Y-126921316D01*
X137747306Y-127612301D01*
X137747999Y-128335893D01*
X137748698Y-129092852D01*
X137749407Y-129883936D01*
X137750127Y-130709905D01*
X137750859Y-131571518D01*
X137751606Y-132469534D01*
X137752370Y-133404713D01*
X137753152Y-134377814D01*
X137753954Y-135389597D01*
X137754779Y-136440820D01*
X137755628Y-137532243D01*
X137756503Y-138664626D01*
X137757232Y-139611833D01*
X137757977Y-140581271D01*
X137758714Y-141541005D01*
X137759443Y-142490144D01*
X137760164Y-143427793D01*
X137760875Y-144353059D01*
X137761577Y-145265049D01*
X137762267Y-146162869D01*
X137762946Y-147045627D01*
X137763613Y-147912427D01*
X137764267Y-148762378D01*
X137764908Y-149594586D01*
X137765534Y-150408158D01*
X137766146Y-151202199D01*
X137766742Y-151975817D01*
X137767321Y-152728119D01*
X137767884Y-153458211D01*
X137768429Y-154165199D01*
X137768956Y-154848190D01*
X137769463Y-155506291D01*
X137769951Y-156138609D01*
X137770419Y-156744250D01*
X137770865Y-157322320D01*
X137771290Y-157871927D01*
X137771692Y-158392177D01*
X137772071Y-158882176D01*
X137772426Y-159341032D01*
X137772757Y-159767850D01*
X137773062Y-160161738D01*
X137773342Y-160521802D01*
X137773595Y-160847148D01*
X137773820Y-161136884D01*
X137774018Y-161390116D01*
X137774187Y-161605951D01*
X137774326Y-161783494D01*
X137774436Y-161921854D01*
X137774514Y-162020136D01*
X137774562Y-162077447D01*
X137774574Y-162090833D01*
X137764524Y-162368576D01*
X137733332Y-162610675D01*
X137680325Y-162818545D01*
X137604826Y-162993600D01*
X137506163Y-163137253D01*
X137383660Y-163250918D01*
X137236643Y-163336009D01*
X137167333Y-163363599D01*
X137087214Y-163384608D01*
X136984267Y-163401512D01*
X136871063Y-163413357D01*
X136760178Y-163419184D01*
X136664184Y-163418036D01*
X136595653Y-163408958D01*
X136590524Y-163407494D01*
X136583964Y-163399870D01*
X136569323Y-163378276D01*
X136546304Y-163342201D01*
X136514606Y-163291131D01*
X136473929Y-163224556D01*
X136423974Y-163141962D01*
X136364441Y-163042837D01*
X136295031Y-162926671D01*
X136215443Y-162792949D01*
X136125378Y-162641161D01*
X136024536Y-162470793D01*
X135912618Y-162281335D01*
X135789324Y-162072273D01*
X135654354Y-161843096D01*
X135507409Y-161593292D01*
X135348188Y-161322347D01*
X135176393Y-161029751D01*
X134991723Y-160714991D01*
X134793878Y-160377555D01*
X134582560Y-160016931D01*
X134357469Y-159632606D01*
X134118304Y-159224068D01*
X133864766Y-158790806D01*
X133596555Y-158332307D01*
X133313372Y-157848060D01*
X133014917Y-157337551D01*
X132700890Y-156800268D01*
X132370992Y-156235701D01*
X132024923Y-155643336D01*
X131662383Y-155022661D01*
X131283072Y-154373164D01*
X130886691Y-153694333D01*
X130472940Y-152985657D01*
X130041520Y-152246622D01*
X129592131Y-151476716D01*
X129124472Y-150675428D01*
X128638245Y-149842246D01*
X128133149Y-148976656D01*
X127608886Y-148078148D01*
X127065155Y-147146209D01*
X126501656Y-146180326D01*
X125918091Y-145179988D01*
X125314158Y-144144682D01*
X124689559Y-143073897D01*
X124043994Y-141967120D01*
X123947862Y-141802303D01*
X123429045Y-140912792D01*
X122915146Y-140031686D01*
X122406587Y-139159711D01*
X121903790Y-138297591D01*
X121407178Y-137446050D01*
X120917172Y-136605813D01*
X120434196Y-135777604D01*
X119958670Y-134962148D01*
X119491018Y-134160170D01*
X119031662Y-133372393D01*
X118581024Y-132599542D01*
X118139526Y-131842342D01*
X117707591Y-131101518D01*
X117285640Y-130377792D01*
X116874097Y-129671891D01*
X116473383Y-128984539D01*
X116083921Y-128316459D01*
X115706132Y-127668377D01*
X115340440Y-127041016D01*
X114987266Y-126435103D01*
X114647033Y-125851360D01*
X114320163Y-125290512D01*
X114007078Y-124753284D01*
X113708201Y-124240401D01*
X113423953Y-123752586D01*
X113154758Y-123290564D01*
X112901036Y-122855060D01*
X112663212Y-122446798D01*
X112441706Y-122066503D01*
X112236941Y-121714899D01*
X112049340Y-121392710D01*
X111879324Y-121100661D01*
X111727316Y-120839477D01*
X111593738Y-120609882D01*
X111479013Y-120412600D01*
X111383563Y-120248356D01*
X111307809Y-120117874D01*
X111252175Y-120021879D01*
X111217082Y-119961095D01*
X111203587Y-119937417D01*
X110977967Y-119498429D01*
X110765473Y-119025344D01*
X110568746Y-118525078D01*
X110390428Y-118004549D01*
X110233164Y-117470673D01*
X110172688Y-117238794D01*
X110126027Y-117049588D01*
X110089912Y-116894259D01*
X110063425Y-116765931D01*
X110045651Y-116657729D01*
X110035673Y-116562778D01*
X110032575Y-116474202D01*
X110033149Y-116456327D01*
X110171016Y-116456327D01*
X110193785Y-116722112D01*
X110226075Y-116894077D01*
X110380537Y-117507050D01*
X110566096Y-118110040D01*
X110780218Y-118695947D01*
X111020369Y-119257674D01*
X111206906Y-119641083D01*
X111225486Y-119674809D01*
X111264718Y-119743913D01*
X111324100Y-119847529D01*
X111403125Y-119984790D01*
X111501289Y-120154830D01*
X111618087Y-120356784D01*
X111753013Y-120589785D01*
X111905563Y-120852966D01*
X112075231Y-121145462D01*
X112261513Y-121466407D01*
X112463903Y-121814935D01*
X112681897Y-122190178D01*
X112914990Y-122591272D01*
X113162675Y-123017350D01*
X113424450Y-123467545D01*
X113699807Y-123940992D01*
X113988243Y-124436825D01*
X114289252Y-124954177D01*
X114602330Y-125492182D01*
X114926971Y-126049975D01*
X115262670Y-126626688D01*
X115608922Y-127221456D01*
X115965223Y-127833412D01*
X116331066Y-128461691D01*
X116705948Y-129105427D01*
X117089363Y-129763752D01*
X117480807Y-130435802D01*
X117879773Y-131120709D01*
X118285757Y-131817608D01*
X118698255Y-132525633D01*
X119116760Y-133243917D01*
X119540769Y-133971594D01*
X119969775Y-134707798D01*
X120403274Y-135451663D01*
X120840762Y-136202323D01*
X121281732Y-136958912D01*
X121725680Y-137720563D01*
X122172101Y-138486410D01*
X122620490Y-139255588D01*
X123070341Y-140027229D01*
X123521151Y-140800468D01*
X123972413Y-141574440D01*
X124423623Y-142348276D01*
X124874275Y-143121112D01*
X125323866Y-143892082D01*
X125771889Y-144660318D01*
X126217839Y-145424955D01*
X126661213Y-146185127D01*
X127101503Y-146939968D01*
X127538207Y-147688612D01*
X127970818Y-148430191D01*
X128398831Y-149163841D01*
X128821742Y-149888695D01*
X129239045Y-150603886D01*
X129650236Y-151308550D01*
X130054810Y-152001819D01*
X130452260Y-152682827D01*
X130842083Y-153350709D01*
X131223774Y-154004598D01*
X131596826Y-154643628D01*
X131960737Y-155266932D01*
X132314999Y-155873645D01*
X132659108Y-156462901D01*
X132992560Y-157033833D01*
X133314849Y-157585576D01*
X133625471Y-158117262D01*
X133923919Y-158628026D01*
X134209689Y-159117002D01*
X134482277Y-159583324D01*
X134741177Y-160026125D01*
X134985883Y-160444539D01*
X135215892Y-160837701D01*
X135430698Y-161204743D01*
X135629796Y-161544800D01*
X135812681Y-161857006D01*
X135978847Y-162140495D01*
X136127791Y-162394400D01*
X136259007Y-162617855D01*
X136371989Y-162809994D01*
X136466233Y-162969951D01*
X136541234Y-163096860D01*
X136596487Y-163189854D01*
X136631487Y-163248068D01*
X136645728Y-163270635D01*
X136645956Y-163270875D01*
X136696305Y-163290852D01*
X136777900Y-163295788D01*
X136894092Y-163285727D01*
X136965743Y-163275163D01*
X137137411Y-163228890D01*
X137283551Y-163149603D01*
X137404737Y-163036721D01*
X137501547Y-162889666D01*
X137574554Y-162707860D01*
X137592294Y-162644933D01*
X137594105Y-162635801D01*
X137595852Y-162622214D01*
X137597536Y-162603426D01*
X137599157Y-162578689D01*
X137600718Y-162547255D01*
X137602218Y-162508379D01*
X137603659Y-162461311D01*
X137605043Y-162405307D01*
X137606369Y-162339617D01*
X137607640Y-162263495D01*
X137608857Y-162176194D01*
X137610020Y-162076966D01*
X137611131Y-161965065D01*
X137612191Y-161839743D01*
X137613200Y-161700252D01*
X137614160Y-161545846D01*
X137615073Y-161375778D01*
X137615938Y-161189300D01*
X137616758Y-160985664D01*
X137617533Y-160764125D01*
X137618265Y-160523934D01*
X137618954Y-160264345D01*
X137619601Y-159984609D01*
X137620209Y-159683981D01*
X137620777Y-159361713D01*
X137621307Y-159017057D01*
X137621800Y-158649266D01*
X137622257Y-158257593D01*
X137622680Y-157841292D01*
X137623068Y-157399614D01*
X137623424Y-156931813D01*
X137623749Y-156437140D01*
X137624043Y-155914850D01*
X137624308Y-155364195D01*
X137624544Y-154784428D01*
X137624754Y-154174801D01*
X137624937Y-153534567D01*
X137625095Y-152862979D01*
X137625230Y-152159291D01*
X137625342Y-151422753D01*
X137625432Y-150652620D01*
X137625501Y-149848145D01*
X137625551Y-149008579D01*
X137625583Y-148133176D01*
X137625598Y-147221189D01*
X137625596Y-146271870D01*
X137625579Y-145284472D01*
X137625548Y-144258249D01*
X137625505Y-143192452D01*
X137625449Y-142086334D01*
X137625383Y-140939149D01*
X137625331Y-140118647D01*
X137625231Y-138865143D01*
X137625093Y-137644235D01*
X137624920Y-136456221D01*
X137624711Y-135301398D01*
X137624465Y-134180062D01*
X137624185Y-133092511D01*
X137623869Y-132039041D01*
X137623519Y-131019950D01*
X137623134Y-130035535D01*
X137622715Y-129086093D01*
X137622262Y-128171921D01*
X137621775Y-127293316D01*
X137621255Y-126450574D01*
X137620702Y-125643994D01*
X137620116Y-124873871D01*
X137619498Y-124140504D01*
X137618847Y-123444188D01*
X137618165Y-122785222D01*
X137617451Y-122163902D01*
X137616705Y-121580525D01*
X137615928Y-121035388D01*
X137615121Y-120528789D01*
X137614283Y-120061024D01*
X137613415Y-119632390D01*
X137612518Y-119243184D01*
X137611590Y-118893704D01*
X137610633Y-118584247D01*
X137609647Y-118315109D01*
X137608633Y-118086587D01*
X137607590Y-117898979D01*
X137606519Y-117752581D01*
X137605420Y-117647691D01*
X137604293Y-117584606D01*
X137603396Y-117564613D01*
X137538694Y-117216606D01*
X137435183Y-116885331D01*
X137293315Y-116571692D01*
X137113544Y-116276593D01*
X136896323Y-116000936D01*
X136734483Y-115831858D01*
X136469762Y-115603089D01*
X136184545Y-115410951D01*
X135877777Y-115254893D01*
X135548406Y-115134358D01*
X135275333Y-115064689D01*
X135261115Y-115061951D01*
X135244371Y-115059348D01*
X135224047Y-115056876D01*
X135199087Y-115054532D01*
X135168435Y-115052313D01*
X135131036Y-115050215D01*
X135085833Y-115048234D01*
X135031772Y-115046368D01*
X134967796Y-115044613D01*
X134892851Y-115042965D01*
X134805879Y-115041422D01*
X134705827Y-115039979D01*
X134591637Y-115038634D01*
X134462255Y-115037382D01*
X134316625Y-115036222D01*
X134153690Y-115035148D01*
X133972397Y-115034159D01*
X133771688Y-115033250D01*
X133550508Y-115032418D01*
X133307802Y-115031660D01*
X133042513Y-115030972D01*
X132753587Y-115030351D01*
X132439968Y-115029793D01*
X132100599Y-115029296D01*
X131734426Y-115028856D01*
X131340392Y-115028468D01*
X130917443Y-115028131D01*
X130464522Y-115027841D01*
X129980573Y-115027593D01*
X129464542Y-115027386D01*
X128915372Y-115027214D01*
X128332008Y-115027076D01*
X127713394Y-115026968D01*
X127058475Y-115026886D01*
X126366194Y-115026826D01*
X125635497Y-115026786D01*
X124865327Y-115026763D01*
X124054630Y-115026752D01*
X123453750Y-115026750D01*
X122608902Y-115026743D01*
X121805322Y-115026730D01*
X121041945Y-115026718D01*
X120317707Y-115026715D01*
X119631543Y-115026732D01*
X118982387Y-115026775D01*
X118369174Y-115026854D01*
X117790840Y-115026977D01*
X117246320Y-115027153D01*
X116734548Y-115027390D01*
X116254459Y-115027696D01*
X115804990Y-115028081D01*
X115385074Y-115028553D01*
X114993647Y-115029121D01*
X114629643Y-115029792D01*
X114291999Y-115030576D01*
X113979648Y-115031481D01*
X113691526Y-115032516D01*
X113426568Y-115033689D01*
X113183709Y-115035009D01*
X112961883Y-115036484D01*
X112760027Y-115038123D01*
X112577075Y-115039934D01*
X112411961Y-115041926D01*
X112263622Y-115044108D01*
X112130992Y-115046488D01*
X112013006Y-115049074D01*
X111908599Y-115051876D01*
X111816706Y-115054901D01*
X111736263Y-115058158D01*
X111666204Y-115061657D01*
X111605464Y-115065404D01*
X111552978Y-115069410D01*
X111507681Y-115073682D01*
X111468509Y-115078229D01*
X111434397Y-115083060D01*
X111404279Y-115088182D01*
X111377090Y-115093606D01*
X111351765Y-115099338D01*
X111327241Y-115105389D01*
X111302450Y-115111765D01*
X111276330Y-115118477D01*
X111251167Y-115124723D01*
X110999442Y-115203524D01*
X110779773Y-115309594D01*
X110592802Y-115441820D01*
X110439177Y-115599089D01*
X110319540Y-115780287D01*
X110234538Y-115984301D01*
X110184815Y-116210019D01*
X110171016Y-116456327D01*
X110033149Y-116456327D01*
X110035439Y-116385125D01*
X110043351Y-116288674D01*
%TD*%
M02*
