%TF.GenerationSoftware,KiCad,Pcbnew,(6.99.0-1239-g6d82490b59-dirty)*%
%TF.CreationDate,2022-03-22T11:17:59-05:00*%
%TF.ProjectId,LayoutBottom,4c61796f-7574-4426-9f74-746f6d2e6b69,rev?*%
%TF.SameCoordinates,Original*%
%TF.FileFunction,Soldermask,Top*%
%TF.FilePolarity,Negative*%
%FSLAX46Y46*%
G04 Gerber Fmt 4.6, Leading zero omitted, Abs format (unit mm)*
G04 Created by KiCad (PCBNEW (6.99.0-1239-g6d82490b59-dirty)) date 2022-03-22 11:17:59*
%MOMM*%
%LPD*%
G01*
G04 APERTURE LIST*
G04 Aperture macros list*
%AMRoundRect*
0 Rectangle with rounded corners*
0 $1 Rounding radius*
0 $2 $3 $4 $5 $6 $7 $8 $9 X,Y pos of 4 corners*
0 Add a 4 corners polygon primitive as box body*
4,1,4,$2,$3,$4,$5,$6,$7,$8,$9,$2,$3,0*
0 Add four circle primitives for the rounded corners*
1,1,$1+$1,$2,$3*
1,1,$1+$1,$4,$5*
1,1,$1+$1,$6,$7*
1,1,$1+$1,$8,$9*
0 Add four rect primitives between the rounded corners*
20,1,$1+$1,$2,$3,$4,$5,0*
20,1,$1+$1,$4,$5,$6,$7,0*
20,1,$1+$1,$6,$7,$8,$9,0*
20,1,$1+$1,$8,$9,$2,$3,0*%
G04 Aperture macros list end*
%ADD10RoundRect,0.200000X-0.750000X-0.450000X0.750000X-0.450000X0.750000X0.450000X-0.750000X0.450000X0*%
%ADD11RoundRect,0.200000X0.750000X0.450000X-0.750000X0.450000X-0.750000X-0.450000X0.750000X-0.450000X0*%
%ADD12RoundRect,0.200000X-0.450000X-0.750000X0.450000X-0.750000X0.450000X0.750000X-0.450000X0.750000X0*%
%ADD13RoundRect,0.200000X-2.050000X-2.050000X2.050000X-2.050000X2.050000X2.050000X-2.050000X2.050000X0*%
%ADD14RoundRect,0.350000X-0.512500X-0.150000X0.512500X-0.150000X0.512500X0.150000X-0.512500X0.150000X0*%
%ADD15RoundRect,0.200000X-0.400000X-0.250000X0.400000X-0.250000X0.400000X0.250000X-0.400000X0.250000X0*%
%ADD16RoundRect,0.200000X-0.400000X-0.200000X0.400000X-0.200000X0.400000X0.200000X-0.400000X0.200000X0*%
%ADD17RoundRect,0.450000X-0.262500X-0.450000X0.262500X-0.450000X0.262500X0.450000X-0.262500X0.450000X0*%
%ADD18C,1.050000*%
%ADD19RoundRect,0.200000X-0.125000X-0.700000X0.125000X-0.700000X0.125000X0.700000X-0.125000X0.700000X0*%
%ADD20O,1.400000X2.500000*%
%ADD21O,1.400000X2.200000*%
%ADD22RoundRect,0.200000X-0.850000X-0.850000X0.850000X-0.850000X0.850000X0.850000X-0.850000X0.850000X0*%
%ADD23O,2.100000X2.100000*%
%ADD24RoundRect,0.200000X-0.900000X-0.410000X0.900000X-0.410000X0.900000X0.410000X-0.900000X0.410000X0*%
%ADD25RoundRect,0.443750X-0.243750X-0.456250X0.243750X-0.456250X0.243750X0.456250X-0.243750X0.456250X0*%
%ADD26RoundRect,0.450000X-0.250000X-0.475000X0.250000X-0.475000X0.250000X0.475000X-0.250000X0.475000X0*%
G04 APERTURE END LIST*
D10*
%TO.C,U2*%
X189600000Y-74795000D03*
X189600000Y-76295000D03*
X189600000Y-77795000D03*
X189600000Y-79295000D03*
X189600000Y-80795000D03*
X189600000Y-82295000D03*
X189600000Y-83795000D03*
X189600000Y-85295000D03*
X189600000Y-86795000D03*
X189600000Y-88295000D03*
X189600000Y-89795000D03*
X189600000Y-91295000D03*
X189600000Y-92795000D03*
X189600000Y-94295000D03*
D11*
X189600000Y-95795000D03*
X189600000Y-97295000D03*
D12*
X191475000Y-98045000D03*
X192975000Y-98045000D03*
X194475000Y-98045000D03*
X195975000Y-98045000D03*
X197475000Y-98045000D03*
X198975000Y-98045000D03*
X200475000Y-98045000D03*
X201975000Y-98045000D03*
X203475000Y-98045000D03*
X204975000Y-98045000D03*
D10*
X206850000Y-97395000D03*
X206850000Y-95895000D03*
X206850000Y-94395000D03*
X206850000Y-92895000D03*
X206850000Y-91395000D03*
X206850000Y-89895000D03*
X206850000Y-88395000D03*
X206850000Y-86895000D03*
X206850000Y-85395000D03*
X206850000Y-83895000D03*
X206850000Y-82395000D03*
X206850000Y-80895000D03*
X206850000Y-79395000D03*
X206850000Y-77795000D03*
X206850000Y-76295000D03*
X206850000Y-74895000D03*
D13*
X197035000Y-82835000D03*
%TD*%
D14*
%TO.C,U1*%
X199277500Y-100840000D03*
X199277500Y-101790000D03*
X199277500Y-102740000D03*
X201552500Y-102740000D03*
X201552500Y-100840000D03*
%TD*%
D15*
%TO.C,RN1*%
X224175000Y-80150000D03*
D16*
X224175000Y-80950000D03*
X224175000Y-81750000D03*
D15*
X224175000Y-82550000D03*
X225975000Y-82550000D03*
D16*
X225975000Y-81750000D03*
X225975000Y-80950000D03*
D15*
X225975000Y-80150000D03*
%TD*%
D17*
%TO.C,R4*%
X233592500Y-86030000D03*
X235417500Y-86030000D03*
%TD*%
%TO.C,R3*%
X224292500Y-94230000D03*
X226117500Y-94230000D03*
%TD*%
%TO.C,R2*%
X276492500Y-49460000D03*
X278317500Y-49460000D03*
%TD*%
%TO.C,R1*%
X238002500Y-86030000D03*
X239827500Y-86030000D03*
%TD*%
D18*
%TO.C,P1*%
X240510000Y-74775000D03*
X234730000Y-74775000D03*
D19*
X234295000Y-73575000D03*
X235095000Y-73575000D03*
X236370000Y-73575000D03*
X237370000Y-73575000D03*
X237870000Y-73575000D03*
X235870000Y-73575000D03*
X240145000Y-73575000D03*
X240945000Y-73575000D03*
X240695000Y-73575000D03*
X239895000Y-73575000D03*
X239370000Y-73575000D03*
X238370000Y-73575000D03*
X236870000Y-73575000D03*
X238870000Y-73575000D03*
X235345000Y-73575000D03*
X234545000Y-73575000D03*
D20*
X241939999Y-74274999D03*
D21*
X233299999Y-78424999D03*
D20*
X233299999Y-74274999D03*
D21*
X241939999Y-78424999D03*
%TD*%
D22*
%TO.C,J5*%
X225325000Y-53800000D03*
D23*
X225324999Y-56339999D03*
X225324999Y-58879999D03*
X225324999Y-61419999D03*
X225324999Y-63959999D03*
X225324999Y-66499999D03*
X225324999Y-69039999D03*
X225324999Y-71579999D03*
X225324999Y-74119999D03*
X225324999Y-76659999D03*
%TD*%
D22*
%TO.C,J1*%
X229975000Y-74700000D03*
D23*
X229974999Y-77239999D03*
X229974999Y-79779999D03*
X229974999Y-82319999D03*
X229974999Y-84859999D03*
X229974999Y-87399999D03*
%TD*%
D24*
%TO.C,D8*%
X234385000Y-57780000D03*
X234385000Y-59315000D03*
X229285000Y-59315000D03*
X229285000Y-57780000D03*
%TD*%
%TO.C,D7*%
X234385000Y-62500000D03*
X234385000Y-64035000D03*
X229285000Y-64035000D03*
X229285000Y-62500000D03*
%TD*%
%TO.C,D6*%
X188315000Y-101150000D03*
X188315000Y-102685000D03*
X183215000Y-102685000D03*
X183215000Y-101150000D03*
%TD*%
%TO.C,D5*%
X234385000Y-67220000D03*
X234385000Y-68755000D03*
X229285000Y-68755000D03*
X229285000Y-67220000D03*
%TD*%
%TO.C,D4*%
X234385000Y-53060000D03*
X234385000Y-54595000D03*
X229285000Y-54595000D03*
X229285000Y-53060000D03*
%TD*%
%TO.C,D3*%
X180185000Y-101150000D03*
X180185000Y-102685000D03*
X175085000Y-102685000D03*
X175085000Y-101150000D03*
%TD*%
%TO.C,D2*%
X196445000Y-101150000D03*
X196445000Y-102685000D03*
X191345000Y-102685000D03*
X191345000Y-101150000D03*
%TD*%
D25*
%TO.C,D1*%
X213197500Y-101085000D03*
X215072500Y-101085000D03*
%TD*%
D26*
%TO.C,C13*%
X224275000Y-91250000D03*
X226175000Y-91250000D03*
%TD*%
%TO.C,C12*%
X224275000Y-88240000D03*
X226175000Y-88240000D03*
%TD*%
%TO.C,C11*%
X228725000Y-91230000D03*
X230625000Y-91230000D03*
%TD*%
%TO.C,C10*%
X233575000Y-83050000D03*
X235475000Y-83050000D03*
%TD*%
%TO.C,C9*%
X276475000Y-46480000D03*
X278375000Y-46480000D03*
%TD*%
%TO.C,C8*%
X208715000Y-101070000D03*
X210615000Y-101070000D03*
%TD*%
%TO.C,C7*%
X217615000Y-101070000D03*
X219515000Y-101070000D03*
%TD*%
%TO.C,C6*%
X244215000Y-73880000D03*
X246115000Y-73880000D03*
%TD*%
%TO.C,C5*%
X204265000Y-101070000D03*
X206165000Y-101070000D03*
%TD*%
%TO.C,C4*%
X204265000Y-104080000D03*
X206165000Y-104080000D03*
%TD*%
%TO.C,C3*%
X213165000Y-104110000D03*
X215065000Y-104110000D03*
%TD*%
%TO.C,C2*%
X208715000Y-104080000D03*
X210615000Y-104080000D03*
%TD*%
%TO.C,C1*%
X224275000Y-85230000D03*
X226175000Y-85230000D03*
%TD*%
M02*
