*
*
G04 PADS 9.5 Build Number: 522968 generated Gerber (RS-274-X) file*
G04 PC Version=2.1*
*
%IN "ESP32_MODULE_6x6_A.pcb"*%
*
%MOMM*%
*
%FSLAX35Y35*%
*
*
*
*
G04 PC Standard Apertures*
*
*
G04 Thermal Relief Aperture macro.*
%AMTER*
1,1,$1,0,0*
1,0,$1-$2,0,0*
21,0,$3,$4,0,0,45*
21,0,$3,$4,0,0,135*
%
*
*
G04 Annular Aperture macro.*
%AMANN*
1,1,$1,0,0*
1,0,$2,0,0*
%
*
*
G04 Odd Aperture macro.*
%AMODD*
1,1,$1,0,0*
1,0,$1-0.005,0,0*
%
*
*
G04 PC Custom Aperture Macros*
*
*
*
*
*
*
G04 PC Aperture Table*
*
%ADD010C,0.0254*%
%ADD044C,0.254*%
%ADD045C,0.508*%
%ADD046C,0.381*%
%ADD047C,0.3048*%
%ADD109C,0.127*%
%ADD115R,0.9X0.9*%
*
*
*
*
G04 PC Circuitry*
G04 Layer Name ESP32_MODULE_6x6_A.pcb - circuitry*
%LPD*%
*
G54D10*
G01X52383276Y38712749D02*
X52382184Y38720393D01*
X52379040Y38726682*
X52373907Y38729761*
X52373907D02*
X52366439Y38730828D01*
X52361012Y38729743*
X52356755Y38728678*
X52356755D02*
X52352623Y38725580D01*
X52349350Y38720124*
X52349350D02*
X52347125Y38720209D01*
X52344949Y38724560*
X52341877Y38727632*
X52336558Y38729760*
X52331283Y38730815*
X52331283D02*
X52327107Y38729771D01*
X52321760Y38727632*
X52315141Y38721013*
X52312973Y38721911*
Y38729712*
X52305307*
Y38673288*
X52312973*
Y38709438*
X52313011Y38709746*
X52314145Y38714281*
X52314145D02*
X52314401Y38714786D01*
X52320071Y38721590*
X52320697Y38721998*
X52328635Y38724266*
X52329292Y38724277*
X52333827Y38723143*
X52333827D02*
X52334224Y38722968D01*
X52337626Y38720700*
X52338057Y38720211*
X52340325Y38715675*
X52340459Y38715107*
Y38673288*
X52348124*
X52348124D02*
Y38706036D01*
X52348124D02*
X52348137Y38706215D01*
X52348137D02*
X52349271Y38714153D01*
X52349512Y38714735*
X52352914Y38719271*
X52353168Y38719525*
X52357704Y38722927*
X52358217Y38723156*
X52363886Y38724290*
X52363886D02*
X52364385D01*
X52370054Y38723156*
X52370821Y38722673*
X52374223Y38718137*
X52374412Y38717777*
X52375546Y38714375*
X52375611Y38713973*
Y38673288*
X52383276*
Y38712749*
X52288026D02*
X52286934Y38720393D01*
X52283790Y38726682*
X52278657Y38729761*
X52278657D02*
X52271189Y38730828D01*
X52265762Y38729743*
X52261505Y38728678*
X52261505D02*
X52257373Y38725580D01*
X52254100Y38720124*
X52254100D02*
X52251875Y38720209D01*
X52249699Y38724560*
X52246627Y38727632*
X52241308Y38729760*
X52236033Y38730815*
X52236033D02*
X52231857Y38729771D01*
X52226510Y38727632*
X52219891Y38721013*
X52217723Y38721911*
Y38729712*
X52210057*
Y38673288*
X52217723*
Y38709438*
X52217761Y38709746*
X52218895Y38714281*
X52218895D02*
X52219151Y38714786D01*
X52224821Y38721590*
X52225447Y38721998*
X52233385Y38724266*
X52234042Y38724277*
X52238577Y38723143*
X52238577D02*
X52238974Y38722968D01*
X52242376Y38720700*
X52242807Y38720211*
X52245075Y38715675*
X52245209Y38715107*
Y38673288*
X52252874*
X52252874D02*
Y38706036D01*
X52252874D02*
X52252887Y38706215D01*
X52252887D02*
X52254021Y38714153D01*
X52254262Y38714735*
X52257664Y38719271*
X52257918Y38719525*
X52262454Y38722927*
X52262967Y38723156*
X52268636Y38724290*
X52268636D02*
X52269135D01*
X52274804Y38723156*
X52275571Y38722673*
X52278973Y38718137*
X52279162Y38717777*
X52280296Y38714375*
X52280361Y38713973*
Y38673288*
X52288026*
Y38712749*
X52195037Y38700359D02*
X52193954Y38710102D01*
X52193954D02*
X52188600Y38717599D01*
X52181031Y38723005*
X52172435Y38725154*
X52165029Y38724096*
X52158465Y38719720*
X52156491Y38720777*
X52156491D02*
X52156506Y38720975D01*
X52159908Y38742520*
X52161162Y38743592*
X52190508*
Y38751257*
X52154277*
X52146790Y38711682*
X52155026Y38710767*
X52160264Y38716005*
X52160813Y38716328*
X52160813D02*
X52168751Y38718596D01*
X52169279Y38718632*
X52177217Y38717498*
X52177217D02*
X52177799Y38717257D01*
X52182335Y38713855*
X52182662Y38713493*
X52186064Y38707823*
X52186232Y38707349*
X52187366Y38699412*
Y38699053*
X52186232Y38691115*
X52186064Y38690641*
X52182662Y38684972*
X52182471Y38684727*
X52177935Y38680191*
X52177217Y38679832*
X52169279Y38678698*
X52168851Y38678710*
X52163181Y38679844*
X52162862Y38679953*
X52162862D02*
X52158326Y38682221D01*
X52158326D02*
X52157759Y38682789D01*
X52157759D02*
X52155491Y38687325D01*
X52155422Y38687491*
X52153479Y38693321*
X52145738Y38692461*
X52147595Y38685033*
X52152963Y38677518*
X52160438Y38673247*
X52169074Y38672167*
X52175675Y38673267*
X52175675D02*
X52181041Y38674341D01*
X52181041D02*
X52185275Y38677516D01*
X52189626Y38681867*
X52193943Y38689422*
X52195037Y38700359*
X52125874Y38680953D02*
X52118209D01*
Y38673288*
X52125874*
X52125874D02*
Y38680953D01*
X52099787Y38700359D02*
X52098704Y38710102D01*
X52098704D02*
X52093350Y38717599D01*
X52085781Y38723005*
X52077185Y38725154*
X52069779Y38724096*
X52063215Y38719720*
X52061241Y38720777*
X52061241D02*
X52061256Y38720975D01*
X52064658Y38742520*
X52065912Y38743592*
X52095258*
Y38751257*
X52059027*
X52051540Y38711682*
X52059776Y38710767*
X52065014Y38716005*
X52065563Y38716328*
X52065563D02*
X52073501Y38718596D01*
X52074029Y38718632*
X52081967Y38717498*
X52081967D02*
X52082549Y38717257D01*
X52087085Y38713855*
X52087412Y38713493*
X52090814Y38707823*
X52090982Y38707349*
X52092116Y38699412*
Y38699053*
X52090982Y38691115*
X52090814Y38690641*
X52087412Y38684972*
X52087221Y38684727*
X52082685Y38680191*
X52081967Y38679832*
X52074029Y38678698*
X52073601Y38678710*
X52067931Y38679844*
X52067612Y38679953*
X52067612D02*
X52063076Y38682221D01*
X52063076D02*
X52062509Y38682789D01*
X52062509D02*
X52060241Y38687325D01*
X52060172Y38687491*
X52058229Y38693321*
X52050488Y38692461*
X52052345Y38685033*
X52057713Y38677518*
X52065188Y38673247*
X52073824Y38672167*
X52080425Y38673267*
X52080425D02*
X52085791Y38674341D01*
X52085791D02*
X52090025Y38677516D01*
X52094376Y38681867*
X52098693Y38689422*
X52099787Y38700359*
X52035160Y38680953D02*
X51996743D01*
X51995751Y38683017*
X52000287Y38688686*
X52000516Y38688909*
X52005026Y38692291*
X52011791Y38697929*
X52011791D02*
X52020777Y38705792D01*
X52020777D02*
X52026363Y38712494D01*
X52029644Y38716869*
X52031817Y38722302*
X52034007Y38731060*
X52032948Y38739527*
X52027664Y38745868*
X52027664D02*
X52020092Y38750195D01*
X52010280Y38752375*
X52000546Y38751294*
X51993079Y38747027*
X51987711Y38739512*
X51985854Y38732084*
X51993458Y38731239*
X51994363Y38735767*
X51994593Y38736280*
X51997995Y38740816*
X51997995D02*
X51998249Y38741070D01*
X51998249D02*
X52002784Y38744472D01*
X52002784D02*
X52003337Y38744708D01*
X52003337D02*
X52010141Y38745842D01*
X52010599Y38745835*
X52016269Y38744701*
X52016269D02*
X52016781Y38744472D01*
X52016781D02*
X52021317Y38741070D01*
X52021453Y38740952*
X52024855Y38737550*
X52025202Y38736901*
X52026336Y38731231*
Y38730733*
X52025202Y38725064*
X52025046Y38724659*
X52021644Y38718990*
X52021519Y38718816*
X52021519D02*
X52014716Y38710879D01*
X52014595Y38710756*
X52004373Y38701670*
X51996526Y38694944*
X51987647Y38683845*
X51987647D02*
X51985500Y38678478D01*
X51984635Y38673288*
X52035160*
Y38680953*
X51118813Y40261584D02*
X51117721Y40269228D01*
X51114577Y40275517*
X51109444Y40278596*
X51109444D02*
X51101976Y40279663D01*
X51096549Y40278578*
X51092292Y40277513*
X51092292D02*
X51088160Y40274415D01*
X51084887Y40268959*
X51084887D02*
X51082662Y40269044D01*
X51080486Y40273395*
X51077414Y40276467*
X51072095Y40278595*
X51066820Y40279650*
X51066820D02*
X51062644Y40278606D01*
X51057297Y40276467*
X51050678Y40269848*
X51048510Y40270746*
Y40278547*
X51040844*
Y40222123*
X51048510*
Y40258273*
X51048548Y40258581*
X51049682Y40263116*
X51049682D02*
X51049938Y40263621D01*
X51055608Y40270425*
X51056234Y40270833*
X51064172Y40273101*
X51064829Y40273112*
X51069364Y40271978*
X51069364D02*
X51069761Y40271803D01*
X51073163Y40269535*
X51073594Y40269046*
X51075862Y40264510*
X51075996Y40263942*
Y40222123*
X51083661*
X51083661D02*
Y40254871D01*
X51083661D02*
X51083674Y40255050D01*
X51083674D02*
X51084808Y40262988D01*
X51085049Y40263570*
X51088451Y40268106*
X51088705Y40268360*
X51093241Y40271762*
X51093754Y40271991*
X51099423Y40273125*
X51099423D02*
X51099922D01*
X51105591Y40271991*
X51106358Y40271508*
X51109760Y40266972*
X51109949Y40266612*
X51111083Y40263210*
X51111148Y40262808*
Y40222123*
X51118813*
Y40261584*
X51023563D02*
X51022471Y40269228D01*
X51019327Y40275517*
X51014194Y40278596*
X51014194D02*
X51006726Y40279663D01*
X51001299Y40278578*
X50997042Y40277513*
X50997042D02*
X50992910Y40274415D01*
X50989637Y40268959*
X50989637D02*
X50987412Y40269044D01*
X50985236Y40273395*
X50982164Y40276467*
X50976845Y40278595*
X50971570Y40279650*
X50971570D02*
X50967394Y40278606D01*
X50962047Y40276467*
X50955428Y40269848*
X50953260Y40270746*
Y40278547*
X50945594*
Y40222123*
X50953260*
Y40258273*
X50953298Y40258581*
X50954432Y40263116*
X50954432D02*
X50954688Y40263621D01*
X50960358Y40270425*
X50960984Y40270833*
X50968922Y40273101*
X50969579Y40273112*
X50974114Y40271978*
X50974114D02*
X50974511Y40271803D01*
X50977913Y40269535*
X50978344Y40269046*
X50980612Y40264510*
X50980746Y40263942*
Y40222123*
X50988411*
X50988411D02*
Y40254871D01*
X50988411D02*
X50988424Y40255050D01*
X50988424D02*
X50989558Y40262988D01*
X50989799Y40263570*
X50993201Y40268106*
X50993455Y40268360*
X50997991Y40271762*
X50998504Y40271991*
X51004173Y40273125*
X51004173D02*
X51004672D01*
X51010341Y40271991*
X51011108Y40271508*
X51014510Y40266972*
X51014699Y40266612*
X51015833Y40263210*
X51015898Y40262808*
Y40222123*
X51023563*
Y40261584*
X50930581Y40271702D02*
X50928374Y40279425D01*
X50928374D02*
X50923918Y40291679D01*
X50923918D02*
X50920739Y40295919D01*
X50916578Y40299039*
X50916578D02*
X50905735Y40301208D01*
X50898217Y40300134*
X50891847Y40296949*
X50887593Y40291632*
X50884306Y40283962*
X50884306D02*
X50882083Y40273956D01*
X50882083D02*
X50880960Y40260488D01*
Y40250491*
X50883185Y40241593*
X50883185D02*
X50885401Y40233836D01*
X50888581Y40228537*
X50896093Y40223171*
X50905820Y40221009*
X50913325Y40222081*
X50919694Y40225266*
X50923948Y40230583*
X50927235Y40238253*
X50929460Y40248263*
X50930581Y40260598*
Y40271702*
X50922916Y40269612D02*
Y40251469D01*
X50922898Y40251260*
X50922898D02*
X50921765Y40244457D01*
X50921765D02*
X50921757Y40244416D01*
X50921757D02*
X50920623Y40238747D01*
X50920514Y40238428*
X50918246Y40233892*
X50917903Y40233468*
X50917903D02*
X50912234Y40228933D01*
X50911689Y40228679*
X50911689D02*
X50906020Y40227545D01*
X50905522*
X50899852Y40228679*
X50899308Y40228933*
X50893638Y40233468*
X50893638D02*
X50893296Y40233892D01*
X50893296D02*
X50891028Y40238428D01*
X50890918Y40238747*
X50889784Y40244416*
X50889784D02*
X50889777Y40244457D01*
X50888643Y40251260*
X50888626Y40251469*
Y40269612*
X50888638Y40269792*
X50888638D02*
X50889772Y40277729D01*
X50889784Y40277798*
X50889784D02*
X50890918Y40283468D01*
X50891028Y40283787*
X50893296Y40288323*
X50893296D02*
X50893638Y40288746D01*
X50893638D02*
X50899308Y40293282D01*
X50899852Y40293536*
X50905522Y40294670*
X50905980Y40294677*
X50905980D02*
X50912783Y40293543D01*
X50913566Y40293084*
X50918102Y40287414*
X50918167Y40287325*
X50920435Y40283924*
X50920435D02*
X50920623Y40283468D01*
X50921757Y40277798*
X50921757D02*
X50921769Y40277729D01*
X50922903Y40269792*
X50922903D02*
X50922916Y40269612D01*
X50861411Y40229788D02*
X50853746D01*
Y40222123*
X50861411*
X50861411D02*
Y40229788D01*
X50835308Y40244700D02*
X50834237Y40251125D01*
X50832117Y40256425*
X50827911Y40260631*
X50821292Y40263940*
X50821207Y40266165*
X50826742Y40269487*
X50829888Y40272632*
X50832001Y40276859*
X50833044Y40281029*
X50831985Y40289496*
X50826672Y40295872*
X50820279Y40300134*
X50810521Y40301218*
X50800763Y40300134*
X50794370Y40295872*
X50789048Y40289486*
X50789048D02*
X50787996Y40282121D01*
X50789054Y40276831*
X50791154Y40272632*
X50794299Y40269487*
X50799835Y40266165*
X50799583Y40263871*
X50793064Y40261698*
X50788952Y40257587*
X50786811Y40251162*
X50785734Y40244700*
X50787906Y40234923*
X50792188Y40227430*
X50800743Y40222083*
X50810521Y40220997*
X50820298Y40222083*
X50828853Y40227430*
X50833135Y40234923*
X50833135D02*
X50835308Y40244700D01*
X50825360Y40280643D02*
X50824226Y40276108D01*
X50824226D02*
X50824051Y40275711D01*
X50821783Y40272309*
X50821294Y40271878*
X50816758Y40269610*
X50816439Y40269501*
X50816439D02*
X50810770Y40268367D01*
X50810272*
X50804602Y40269501*
X50804602D02*
X50804283Y40269610D01*
X50799747Y40271878*
X50799259Y40272309*
X50796991Y40275711*
X50796802Y40276166*
X50796802D02*
X50795668Y40281836D01*
X50795682Y40282393*
X50795682D02*
X50796815Y40286929D01*
X50796815D02*
X50796991Y40287325D01*
X50799259Y40290727*
X50799747Y40291159*
X50804283Y40293426*
X50804283D02*
X50804602Y40293536D01*
X50810272Y40294670*
X50810770*
X50816439Y40293536*
X50816439D02*
X50816758Y40293426D01*
X50816758D02*
X50821294Y40291159D01*
X50821862Y40290591*
X50824130Y40286055*
X50824226Y40285795*
X50825360Y40281259*
Y40280643*
X50827666Y40244666D02*
X50827648Y40244457D01*
X50827648D02*
X50826515Y40237653D01*
X50826515D02*
X50826278Y40237100D01*
X50822876Y40232564*
X50822622Y40232310*
X50818086Y40228908*
X50817533Y40228672*
X50810730Y40227538*
X50810730D02*
X50810521Y40227521D01*
X50810521D02*
X50805985D01*
X50805985D02*
X50805281Y40227734D01*
X50805281D02*
X50801944Y40229958D01*
X50797480Y40232190*
X50796991Y40232622*
X50794723Y40236024*
X50794723D02*
X50794522Y40236548D01*
X50793388Y40244486*
X50793388D02*
X50793376Y40244666D01*
X50793376D02*
X50793400Y40244915D01*
X50794534Y40250584*
X50794691Y40250989*
X50794691D02*
X50798092Y40256658D01*
X50798092D02*
X50798419Y40257021D01*
X50798419D02*
X50802955Y40260423D01*
X50803508Y40260659*
X50810312Y40261793*
X50810730*
X50810730D02*
X50817533Y40260659D01*
X50818086Y40260423*
X50822622Y40257021*
X50822949Y40256658*
X50826351Y40250989*
X50826351D02*
X50826507Y40250584D01*
X50827641Y40244915*
X50827666Y40244666*
X50757090Y40301226D02*
X50752276D01*
X50752276D02*
X50749244Y40296173D01*
X50749053Y40295928*
X50743383Y40290259*
X50743189Y40290100*
X50743189D02*
X50736386Y40285564D01*
X50736312Y40285518*
X50736312D02*
X50729014Y40281348D01*
Y40273935*
X50738413Y40278634*
X50747393Y40285369*
X50749425Y40284353*
Y40222123*
X50757090*
Y40301226*
X50731420Y40275138D02*
Y40282723D01*
X50733960Y40276408D02*
Y40284174D01*
X50736500Y40277678D02*
Y40285640D01*
X50739040Y40279104D02*
Y40287334D01*
X50741580Y40281009D02*
Y40289027D01*
X50744120Y40282914D02*
Y40290996D01*
X50746660Y40284819D02*
Y40293536D01*
X50749200Y40285074D02*
Y40296105D01*
X50751740Y40222123D02*
Y40300333D01*
X50754280Y40222123D02*
Y40301226D01*
X50756820Y40222123D02*
Y40301226D01*
X50787300Y40237652D02*
Y40252630D01*
X50789840Y40231539D02*
Y40258475D01*
Y40275260D02*
Y40290436D01*
X50792380Y40227310D02*
Y40261014D01*
Y40271406D02*
Y40293484D01*
X50794920Y40225723D02*
Y40235728D01*
Y40251371D02*
Y40262317D01*
Y40269114D02*
Y40296239D01*
X50797460Y40224135D02*
Y40232200D01*
Y40255604D02*
Y40263164D01*
Y40267590D02*
Y40275007D01*
Y40288029D02*
Y40297932D01*
X50800000Y40222548D02*
Y40230930D01*
Y40258206D02*
Y40264105D01*
Y40266047D02*
Y40271751D01*
Y40291285D02*
Y40299625D01*
X50802540Y40221884D02*
Y40229561D01*
Y40260111D02*
Y40270481D01*
Y40292555D02*
Y40300331D01*
X50805080Y40221601D02*
Y40227867D01*
Y40260921D02*
Y40269405D01*
Y40293631D02*
Y40300614D01*
X50807620Y40221319D02*
Y40227521D01*
Y40261345D02*
Y40268897D01*
Y40294139D02*
Y40300896D01*
X50810160Y40221037D02*
Y40227521D01*
Y40261768D02*
Y40268389D01*
Y40294647D02*
Y40301178D01*
X50812700Y40221239D02*
Y40227866D01*
Y40261465D02*
Y40268753D01*
Y40294284D02*
Y40300976D01*
X50815240Y40221521D02*
Y40228290D01*
Y40261042D02*
Y40269261D01*
Y40293776D02*
Y40300694D01*
X50817780Y40221803D02*
Y40228739D01*
Y40260592D02*
Y40270121D01*
Y40292916D02*
Y40300411D01*
X50820320Y40222097D02*
Y40230584D01*
Y40258747D02*
Y40271391D01*
Y40291646D02*
Y40300106D01*
X50822860Y40223684D02*
Y40232543D01*
Y40256787D02*
Y40263156D01*
Y40267157D02*
Y40273925D01*
Y40288595D02*
Y40298413D01*
X50825400Y40225272D02*
Y40235930D01*
Y40252573D02*
Y40261886D01*
Y40268681D02*
Y40296720D01*
X50827940Y40226859D02*
Y40260602D01*
Y40270684D02*
Y40294350D01*
X50830480Y40230277D02*
Y40258062D01*
Y40273817D02*
Y40291302D01*
X50833020Y40234722D02*
Y40254167D01*
Y40280934D02*
Y40281218D01*
X50855880Y40222123D02*
Y40229788D01*
X50858420Y40222123D02*
Y40229788D01*
X50860960Y40222123D02*
Y40229788D01*
X50881280Y40249213D02*
Y40264323D01*
X50883820Y40239370D02*
Y40281774D01*
X50886360Y40232238D02*
Y40288754D01*
X50888900Y40228309D02*
Y40249718D01*
Y40271622D02*
Y40293265D01*
X50891440Y40226494D02*
Y40237603D01*
Y40284612D02*
Y40296440D01*
X50893980Y40224680D02*
Y40233195D01*
Y40289020D02*
Y40298015D01*
X50896520Y40223076D02*
Y40231163D01*
Y40291052D02*
Y40299285D01*
X50899060Y40222511D02*
Y40229131D01*
Y40293084D02*
Y40300254D01*
X50901600Y40221947D02*
Y40228329D01*
Y40293885D02*
Y40300617D01*
X50904140Y40221382D02*
Y40227822D01*
Y40294393D02*
Y40300980D01*
X50906680Y40221132D02*
Y40227677D01*
Y40294560D02*
Y40301019D01*
X50909220Y40221495D02*
Y40228185D01*
Y40294137D02*
Y40300511D01*
X50911760Y40221858D02*
Y40228695D01*
Y40293714D02*
Y40300003D01*
X50914300Y40222569D02*
Y40230586D01*
Y40292166D02*
Y40299495D01*
X50916840Y40223839D02*
Y40232618D01*
Y40288991D02*
Y40298843D01*
X50919380Y40225109D02*
Y40236160D01*
Y40285505D02*
Y40296938D01*
X50921920Y40228048D02*
Y40245390D01*
Y40276672D02*
Y40294344D01*
X50924460Y40231778D02*
Y40290190D01*
X50927000Y40237704D02*
Y40283205D01*
X50929540Y40249147D02*
Y40275346D01*
X50947320Y40222123D02*
Y40278547D01*
X50949860Y40222123D02*
Y40278547D01*
X50952400Y40222123D02*
Y40278547D01*
X50954940Y40263924D02*
Y40269544D01*
X50957480Y40266972D02*
Y40271900D01*
X50960020Y40270020D02*
Y40274440D01*
X50962560Y40271283D02*
Y40276672D01*
X50965100Y40272009D02*
Y40277688D01*
X50967640Y40272735D02*
Y40278667D01*
X50970180Y40272962D02*
Y40279302D01*
X50972720Y40272327D02*
Y40279420D01*
X50975260Y40271303D02*
Y40278912D01*
X50977800Y40269610D02*
Y40278213D01*
X50980340Y40265054D02*
Y40277197D01*
X50982880Y40222123D02*
Y40275751D01*
X50985420Y40222123D02*
Y40273027D01*
X50987960Y40222123D02*
Y40268486D01*
X50990500Y40264504D02*
Y40270398D01*
X50993040Y40267891D02*
Y40274512D01*
X50995580Y40269954D02*
Y40276417D01*
X50998120Y40271847D02*
Y40277783D01*
X51000660Y40272422D02*
Y40278418D01*
X51003200Y40272930D02*
Y40278958D01*
X51005740Y40272911D02*
Y40279466D01*
X51008280Y40272403D02*
Y40279441D01*
X51010820Y40271786D02*
Y40279078D01*
X51013360Y40268505D02*
Y40278715D01*
X51015900Y40222123D02*
Y40277573D01*
X51018440Y40222123D02*
Y40276049D01*
X51020980Y40222123D02*
Y40272211D01*
X51023520Y40222123D02*
Y40261887D01*
X51041300Y40222123D02*
Y40278547D01*
X51043840Y40222123D02*
Y40278547D01*
X51046380Y40222123D02*
Y40278547D01*
X51048920Y40260070D02*
Y40269811D01*
X51051460Y40265448D02*
Y40270630D01*
X51054000Y40268496D02*
Y40273170D01*
X51056540Y40270920D02*
Y40275710D01*
X51059080Y40271646D02*
Y40277180D01*
X51061620Y40272372D02*
Y40278196D01*
X51064160Y40273098D02*
Y40278985D01*
X51066700Y40272644D02*
Y40279620D01*
X51069240Y40272009D02*
Y40279166D01*
X51071780Y40270457D02*
Y40278658D01*
X51074320Y40267594D02*
Y40277705D01*
X51076860Y40222123D02*
Y40276689D01*
X51079400Y40222123D02*
Y40274481D01*
X51081940Y40222123D02*
Y40270487D01*
X51084480Y40260691D02*
Y40268541D01*
X51087020Y40266198D02*
Y40272514D01*
X51089560Y40269001D02*
Y40275465D01*
X51092100Y40270906D02*
Y40277370D01*
X51094640Y40272168D02*
Y40278101D01*
X51097180Y40272676D02*
Y40278704D01*
X51099720Y40273149D02*
Y40279212D01*
X51102260Y40272657D02*
Y40279623D01*
X51104800Y40272149D02*
Y40279260D01*
X51107340Y40270199D02*
Y40278897D01*
X51109880Y40266778D02*
Y40278335D01*
X51112420Y40222123D02*
Y40276811D01*
X51114960Y40222123D02*
Y40274751D01*
X51117500Y40222123D02*
Y40269671D01*
X51986180Y38673288D02*
Y38680178D01*
Y38732048D02*
Y38733388D01*
X51988720Y38673288D02*
Y38685187D01*
Y38731766D02*
Y38740924D01*
X51991260Y38673288D02*
Y38688362D01*
Y38731483D02*
Y38744480D01*
X51993800Y38673288D02*
Y38691537D01*
Y38732950D02*
Y38747439D01*
X51996340Y38673288D02*
Y38681019D01*
Y38683753D02*
Y38694712D01*
Y38738610D02*
Y38748890D01*
X51998880Y38673288D02*
Y38680953D01*
Y38686928D02*
Y38696962D01*
Y38741543D02*
Y38750342D01*
X52001420Y38673288D02*
Y38680953D01*
Y38689587D02*
Y38699139D01*
Y38743448D02*
Y38751391D01*
X52003960Y38673288D02*
Y38680953D01*
Y38691492D02*
Y38701316D01*
Y38744812D02*
Y38751673D01*
X52006500Y38673288D02*
Y38680953D01*
Y38693520D02*
Y38703561D01*
Y38745235D02*
Y38751955D01*
X52009040Y38673288D02*
Y38680953D01*
Y38695636D02*
Y38705818D01*
Y38745659D02*
Y38752238D01*
X52011580Y38673288D02*
Y38680953D01*
Y38697753D02*
Y38708076D01*
Y38745639D02*
Y38752086D01*
X52014120Y38673288D02*
Y38680953D01*
Y38699967D02*
Y38710334D01*
Y38745131D02*
Y38751522D01*
X52016660Y38673288D02*
Y38680953D01*
Y38702189D02*
Y38713147D01*
Y38744552D02*
Y38750958D01*
X52019200Y38673288D02*
Y38680953D01*
Y38704412D02*
Y38716110D01*
Y38742658D02*
Y38750393D01*
X52021740Y38673288D02*
Y38680953D01*
Y38706947D02*
Y38719149D01*
Y38740665D02*
Y38749253D01*
X52024280Y38673288D02*
Y38680953D01*
Y38709995D02*
Y38723383D01*
Y38738125D02*
Y38747802D01*
X52026820Y38673288D02*
Y38680953D01*
Y38713104D02*
Y38746350D01*
X52029360Y38673288D02*
Y38680953D01*
Y38716491D02*
Y38743833D01*
X52031900Y38673288D02*
Y38680953D01*
Y38722634D02*
Y38740785D01*
X52034440Y38673288D02*
Y38680953D01*
X52052220Y38685532D02*
Y38692653D01*
Y38711607D02*
Y38715277D01*
X52054760Y38681652D02*
Y38692936D01*
Y38711325D02*
Y38728702D01*
X52057300Y38678096D02*
Y38693218D01*
Y38711042D02*
Y38742128D01*
X52059840Y38676303D02*
Y38688487D01*
Y38710831D02*
Y38751257D01*
X52062380Y38674851D02*
Y38683046D01*
Y38713371D02*
Y38719514D01*
Y38728093D02*
Y38751257D01*
X52064920Y38673400D02*
Y38681300D01*
Y38715911D02*
Y38720857D01*
Y38743114D02*
Y38751257D01*
X52067460Y38672963D02*
Y38680030D01*
Y38716870D02*
Y38722550D01*
Y38743592D02*
Y38751257D01*
X52070000Y38672645D02*
Y38679430D01*
Y38717596D02*
Y38724128D01*
Y38743592D02*
Y38751257D01*
X52072540Y38672328D02*
Y38678922D01*
Y38718322D02*
Y38724491D01*
Y38743592D02*
Y38751257D01*
X52075080Y38672377D02*
Y38678848D01*
Y38718482D02*
Y38724853D01*
Y38743592D02*
Y38751257D01*
X52077620Y38672800D02*
Y38679211D01*
Y38718119D02*
Y38725045D01*
Y38743592D02*
Y38751257D01*
X52080160Y38673223D02*
Y38679574D01*
Y38717757D02*
Y38724410D01*
Y38743592D02*
Y38751257D01*
X52082700Y38673722D02*
Y38680206D01*
Y38717144D02*
Y38723775D01*
Y38743592D02*
Y38751257D01*
X52085240Y38674231D02*
Y38682746D01*
Y38715239D02*
Y38723140D01*
Y38743592D02*
Y38751257D01*
X52087780Y38675832D02*
Y38685585D01*
Y38712879D02*
Y38721577D01*
Y38743592D02*
Y38751257D01*
X52090320Y38677811D02*
Y38689818D01*
Y38708646D02*
Y38719763D01*
Y38743592D02*
Y38751257D01*
X52092860Y38680351D02*
Y38717949D01*
Y38743592D02*
Y38751257D01*
X52095400Y38683659D02*
Y38714729D01*
X52097940Y38688104D02*
Y38711173D01*
X52118260Y38673288D02*
Y38680953D01*
X52120800Y38673288D02*
Y38680953D01*
X52123340Y38673288D02*
Y38680953D01*
X52146200Y38690612D02*
Y38692512D01*
X52148740Y38683430D02*
Y38692794D01*
Y38711466D02*
Y38721990D01*
X52151280Y38679874D02*
Y38693077D01*
Y38711184D02*
Y38735415D01*
X52153820Y38677028D02*
Y38692297D01*
Y38710901D02*
Y38748841D01*
X52156360Y38675577D02*
Y38685586D01*
Y38712101D02*
Y38751257D01*
X52158900Y38674126D02*
Y38681935D01*
Y38714641D02*
Y38720010D01*
Y38736137D02*
Y38751257D01*
X52161440Y38673121D02*
Y38680665D01*
Y38716507D02*
Y38721704D01*
Y38743592D02*
Y38751257D01*
X52163980Y38672804D02*
Y38679684D01*
Y38717233D02*
Y38723397D01*
Y38743592D02*
Y38751257D01*
X52166520Y38672486D02*
Y38679176D01*
Y38717959D02*
Y38724309D01*
Y38743592D02*
Y38751257D01*
X52169060Y38672169D02*
Y38678686D01*
Y38718645D02*
Y38724672D01*
Y38743592D02*
Y38751257D01*
X52171600Y38672588D02*
Y38679030D01*
Y38718301D02*
Y38725035D01*
Y38743592D02*
Y38751257D01*
X52174140Y38673012D02*
Y38679393D01*
Y38717938D02*
Y38724728D01*
Y38743592D02*
Y38751257D01*
X52176680Y38673468D02*
Y38679755D01*
Y38717575D02*
Y38724093D01*
Y38743592D02*
Y38751257D01*
X52179220Y38673976D02*
Y38681476D01*
Y38716192D02*
Y38723458D01*
Y38743592D02*
Y38751257D01*
X52181760Y38674880D02*
Y38684016D01*
Y38714287D02*
Y38722484D01*
Y38743592D02*
Y38751257D01*
X52184300Y38676785D02*
Y38687702D01*
Y38710763D02*
Y38720670D01*
Y38743592D02*
Y38751257D01*
X52186840Y38679081D02*
Y38695371D01*
Y38703094D02*
Y38718856D01*
Y38743592D02*
Y38751257D01*
X52189380Y38681621D02*
Y38716507D01*
Y38743592D02*
Y38751257D01*
X52191920Y38685881D02*
Y38712951D01*
X52194460Y38694589D02*
Y38705553D01*
X52212240Y38673288D02*
Y38729712D01*
X52214780Y38673288D02*
Y38729712D01*
X52217320Y38673288D02*
Y38729712D01*
X52219860Y38715637D02*
Y38720983D01*
X52222400Y38718685D02*
Y38723522D01*
X52224940Y38721715D02*
Y38726062D01*
X52227480Y38722579D02*
Y38728020D01*
X52230020Y38723305D02*
Y38729036D01*
X52232560Y38724030D02*
Y38729947D01*
X52235100Y38724012D02*
Y38730582D01*
X52237640Y38723377D02*
Y38730493D01*
X52240180Y38722164D02*
Y38729985D01*
X52242720Y38720359D02*
Y38729195D01*
X52245260Y38673288D02*
Y38728179D01*
X52247800Y38673288D02*
Y38726459D01*
X52250340Y38673288D02*
Y38723278D01*
X52252880Y38706154D02*
Y38719514D01*
X52255420Y38716279D02*
Y38722324D01*
X52257960Y38719556D02*
Y38726020D01*
X52260500Y38721461D02*
Y38727925D01*
X52263040Y38723171D02*
Y38729062D01*
X52265580Y38723679D02*
Y38729697D01*
X52268120Y38724187D02*
Y38730214D01*
X52270660Y38723985D02*
Y38730722D01*
X52273200Y38723477D02*
Y38730541D01*
X52275740Y38722448D02*
Y38730178D01*
X52278280Y38719061D02*
Y38729815D01*
X52280820Y38673288D02*
Y38728464D01*
X52283360Y38673288D02*
Y38726940D01*
X52285900Y38673288D02*
Y38722462D01*
X52306220Y38673288D02*
Y38729712D01*
X52308760Y38673288D02*
Y38729712D01*
X52311300Y38673288D02*
Y38729712D01*
X52313840Y38713063D02*
Y38720706D01*
X52316380Y38717161D02*
Y38722252D01*
X52318920Y38720209D02*
Y38724792D01*
X52321460Y38722216D02*
Y38727332D01*
X52324000Y38722942D02*
Y38728528D01*
X52326540Y38723667D02*
Y38729544D01*
X52329080Y38724311D02*
Y38730264D01*
X52331620Y38723695D02*
Y38730747D01*
X52334160Y38723007D02*
Y38730239D01*
X52336700Y38721317D02*
Y38729703D01*
X52339240Y38717845D02*
Y38728687D01*
X52341780Y38673288D02*
Y38727671D01*
X52344320Y38673288D02*
Y38725189D01*
X52346860Y38673288D02*
Y38720738D01*
X52349400Y38714556D02*
Y38720208D01*
X52351940Y38717972D02*
Y38724441D01*
X52354480Y38720509D02*
Y38726972D01*
X52357020Y38722414D02*
Y38728745D01*
X52359560Y38723425D02*
Y38729380D01*
X52362100Y38723933D02*
Y38729960D01*
X52364640Y38724239D02*
Y38730468D01*
X52367180Y38723731D02*
Y38730722D01*
X52369720Y38723223D02*
Y38730359D01*
X52372260Y38720754D02*
Y38729997D01*
X52374800Y38716612D02*
Y38729226D01*
X52377340Y38673288D02*
Y38727702D01*
X52379880Y38673288D02*
Y38725002D01*
X52382420Y38673288D02*
Y38718743D01*
*
G04 PC Custom Flashes*
G04 Layer Name ESP32_MODULE_6x6_A.pcb - flashes*
%LPD*%
*
*
G04 PC Circuitry*
G04 Layer Name ESP32_MODULE_6x6_A.pcb - circuitry*
%LPD*%
*
G54D10*
X50000000Y39992380D02*
X50000067D01*
X51799996D02*
X51800063D01*
X51799996Y37446906D02*
X51800063D01*
X51799996Y39992380D02*
X51800063D01*
G54D44*
X50000000D02*
X51799996D01*
Y37446906*
X50000000*
Y39992380*
G54D45*
X50242341Y38936172D03*
X50317500D03*
X50390677D03*
X50879100Y38863667D03*
X51025855Y38809426D03*
G54D46*
X51133033Y38281400D03*
X50390967Y38481400D03*
X51130300Y38521400D03*
Y38641400D03*
G54D47*
X50049657Y37494112D03*
X50131623Y37657383D03*
X50121818Y37608107D03*
X50161950Y37495687D03*
X50232613D03*
X50157328Y37570084D03*
X50226339Y37565080D03*
X50369062Y37611054D03*
X50450723Y37625176D03*
X50446786Y37570998D03*
X50522173Y37570211D03*
X50519811Y37634600D03*
X50641528Y37575697D03*
X50642315Y37644023D03*
X50835330Y37642626D03*
X50905993Y37633203D03*
X50896569Y37579024D03*
X50966445Y37577450D03*
X51135431Y37618928D03*
X51295629Y37625989D03*
X51206119Y37616566D03*
X51191971Y37575722D03*
X51282268D03*
X51563319Y37635666D03*
X51526007Y37679532D03*
X51567536Y37488981D03*
X51643964Y37492664D03*
X51408709Y37568661D03*
X51559128Y37551745D03*
X51636420Y37555326D03*
X51608252Y37678288D03*
X51745056Y37500081D03*
X51663268Y37662768D03*
X50132410Y37920451D03*
X50133198Y37797160D03*
X50579476Y37866400D03*
X50526161D03*
X50538658Y37706837D03*
X50662000Y37791221D03*
X50702000Y37866400D03*
X50822000Y37791221D03*
X50862000Y37866400D03*
X50742000Y37791221D03*
X50782000Y37866400D03*
X50652526Y37711562D03*
X51064209Y37843438D03*
X51003706Y37866400D03*
X50997204Y37744404D03*
X51052703D03*
X51392707Y37933735D03*
X51482598Y37803738D03*
X51437869Y37893324D03*
X51518056Y37759898D03*
X51582420Y37767365D03*
X51553185Y37812095D03*
X51612062D03*
X51520190Y37892968D03*
X51485646Y37936148D03*
X51641119Y37763403D03*
X51645844Y37889031D03*
X51582242Y37892968D03*
X51606575Y37932237D03*
X51546123Y37933786D03*
X51674089Y37927817D03*
X51668602Y37806583D03*
X50125349Y38041304D03*
X50369570Y38184891D03*
X50449580D03*
X50622000Y38104987D03*
X50495300Y38184891D03*
X50902000Y38090280D03*
X50942000Y38124398D03*
X51375867Y38204467D03*
X51448664Y38129976D03*
X51500022Y38124693D03*
X51555547Y38120705D03*
X51602054Y38167720D03*
X50329565Y38209300D03*
X50363567Y38416100D03*
X50263322Y38259795D03*
X50287909Y38301731D03*
X50328933Y38359633D03*
X50610041Y38423558D03*
Y38347358D03*
X50409575Y38209300D03*
X50762441Y38347358D03*
X50686241Y38423558D03*
X50838641Y38347358D03*
X50686241D03*
X50838641Y38423558D03*
X50762441D03*
X50914841D03*
Y38347358D03*
X51112533Y38441400D03*
X51014833Y38236367D03*
X51133033Y38361400D03*
X51333627Y38353750D03*
X51331874Y38297286D03*
X51286180Y38328274D03*
X51269900Y38403833D03*
X51223700Y38450400D03*
X51160767Y38401400D03*
X51176133Y38321400D03*
X51283818Y38281944D03*
X51336067Y38243100D03*
X51426333Y38232967D03*
X51606633Y38226033D03*
X51619500Y38288467D03*
Y38346700D03*
Y38403733D03*
X50176378Y38603635D03*
X50211430Y38651717D03*
X50276149Y38547831D03*
X50368300Y38681400D03*
X50342267Y38508000D03*
X50610041Y38575958D03*
Y38499758D03*
Y38652158D03*
X50390967Y38641400D03*
Y38561400D03*
X50838641Y38575958D03*
Y38652158D03*
X50686241Y38499758D03*
X50762441Y38575958D03*
X50686241D03*
X50762441Y38652158D03*
Y38499758D03*
X50838641D03*
X50686241Y38652158D03*
X50914841D03*
Y38575958D03*
Y38499758D03*
X51168400Y38481433D03*
X51265682Y38560023D03*
X51318767Y38534533D03*
X51334186Y38587760D03*
X51387653Y38591138D03*
X51609446Y38707292D03*
X51614933Y38467933D03*
X51614200Y38528633D03*
X51535405Y38704981D03*
X51533220Y38592408D03*
X51608333Y38585067D03*
X50131623Y38803050D03*
X50123600Y38922500D03*
X50368300Y38841400D03*
Y38761400D03*
X50390967Y38801400D03*
Y38721400D03*
X50632467Y38880600D03*
X50999300Y38922100D03*
X51043102Y38962029D03*
X51046600Y38887667D03*
X51098118Y38935588D03*
X51142136Y38793119D03*
X51275563Y38921338D03*
X51151814Y38918290D03*
X51205281Y38920119D03*
X51181862Y38969420D03*
X51195629Y38804981D03*
X51260399Y38869776D03*
X51594600Y38790500D03*
X51579905Y38746002D03*
X51522400Y38861597D03*
X51625500Y38845167D03*
X51523975Y38940922D03*
X51586001Y38944046D03*
X51447368Y38792509D03*
X51632331Y38944833D03*
X51616634Y38890655D03*
X51566393Y38889868D03*
X51569033Y38839800D03*
X51538910Y38806022D03*
X51492377Y38792509D03*
X51514907Y38744986D03*
X51666113Y38900866D03*
X50125705Y39202034D03*
X50532435Y39129898D03*
X50469240Y39071782D03*
X50466033Y38975433D03*
X50633070Y39179580D03*
X50822452Y39152275D03*
X50861720Y39113032D03*
X50867232Y39178970D03*
X50816813Y38988775D03*
X50780694Y39027256D03*
X50743788Y39064924D03*
X50706095Y39098706D03*
X50666039Y39141099D03*
X51137488Y39000256D03*
X51139952Y39086540D03*
X50920623Y39167998D03*
X50906475Y39062765D03*
X50947318Y39029009D03*
X50944956Y39105945D03*
X51018769Y39100459D03*
X50986587Y39145214D03*
X51042340Y39182120D03*
X50988136Y39210390D03*
X51118362Y39204345D03*
X51130071Y39140794D03*
X51081583Y39124005D03*
X51084732Y39054129D03*
X51089431Y38995227D03*
X51174471Y39043385D03*
X51216381Y39100103D03*
X51188034Y39188876D03*
X51179398Y39145722D03*
X51327328Y39219687D03*
X51253363Y39213514D03*
X51260754Y39153113D03*
X51319936Y39167921D03*
X51244727Y38970665D03*
X51222553Y39019966D03*
X51287882D03*
Y39089004D03*
X51329792Y39101348D03*
X51384046Y39106276D03*
X51385265Y39175313D03*
X51577594Y39159285D03*
X51430884Y39108739D03*
X51626895Y39196268D03*
X51449375Y39172849D03*
X51501165Y39164213D03*
X51512265Y39113667D03*
X51553743Y39035410D03*
X51622857Y39055831D03*
X51669186Y39056619D03*
X51677441Y39183949D03*
X50070079Y39351767D03*
X50119710Y39248058D03*
X50116789Y39296674D03*
X50217526Y39257355D03*
X50283489Y39266270D03*
X50335204Y39365000D03*
X50147523Y39349735D03*
X50180797Y39297944D03*
X50241300Y39309667D03*
X50233604Y39365000D03*
X50360299Y39247957D03*
X50367182Y39300001D03*
X50317967Y39311433D03*
X50284404Y39365000D03*
X50634797Y39333682D03*
Y39379224D03*
X50590829Y39380799D03*
X50466598Y39368023D03*
X50399847D03*
X50415544Y39238102D03*
X50485953D03*
X50589077Y39226697D03*
X50540410Y39271452D03*
X50501142Y39307571D03*
X50428600Y39302719D03*
X50861720Y39265356D03*
X50835812Y39372925D03*
X50725094Y39325833D03*
X50754151Y39376862D03*
X50683489Y39377649D03*
X50678764Y39288927D03*
X50719607Y39249659D03*
X50771423Y39274779D03*
X50794207Y39322684D03*
X50860146Y39319534D03*
X51132764Y39359158D03*
X51000887Y39372188D03*
X51059332Y39359869D03*
X51061187Y39257507D03*
X50902564Y39229237D03*
X50908050Y39374500D03*
X50912774Y39295201D03*
X50959891Y39331320D03*
X50985190Y39272468D03*
X51032205Y39294515D03*
X51076427Y39312828D03*
X51114654Y39284482D03*
X51398829Y39230786D03*
X51194181Y39241886D03*
X51176299Y39315292D03*
X51215365Y39357939D03*
X51327556Y39359158D03*
X51343355Y39313387D03*
X51318692Y39275160D03*
X51260119Y39317756D03*
X51242263Y39273941D03*
X51565275Y39234469D03*
X51493774D03*
X51656486Y39296115D03*
X51548003Y39301043D03*
X51601013Y39304751D03*
X51595196Y39365000D03*
X51544396D03*
X51493596D03*
X51427404Y39359158D03*
X51478966Y39305996D03*
X51414856D03*
X51446500Y39261733D03*
X51668831Y39246814D03*
G54D109*
X50000000Y37596906D02*
X50225781Y37822687D01*
Y38305464*
X50310358Y38390042*
Y38476091*
X50342267Y38508000*
X50285867Y37617516D02*
Y38223006D01*
X50363550Y38300689*
Y38416084*
X50363550D02*
X50363567Y38416100D01*
X50285867Y37617516D02*
X50456489Y37446894D01*
X50583489D02*
Y37712710D01*
X50662000Y37791221*
X50000000Y37723906D02*
X50193599Y37917505D01*
Y38319790*
X50273761Y38399952*
Y38492688*
X50342473Y38561400*
X50390967*
X50000000Y37850906D02*
X50163754Y38014660D01*
Y38335944*
X50238430Y38410620*
Y38510112*
X50276149Y38547831*
X50702000Y37866400D02*
Y37455382D01*
X50710489Y37446894*
X50822000Y37791221D02*
X51091489Y37521732D01*
Y37446894*
X50862000Y37866400D02*
Y37803383D01*
X51218489Y37446894*
X50742000Y37791221D02*
Y37542382D01*
X50837489Y37446894*
X50782000Y37866400D02*
Y37629382D01*
X50964489Y37446894*
X50000000Y37977906D02*
X50132359Y38110265D01*
Y38352073*
X50205435Y38425149*
Y38531702*
X50315133Y38641400*
X50390967*
X50000000Y38104906D02*
X50100940Y38205846D01*
Y38370184*
X50172466Y38441710*
Y38542345*
X50311521Y38681400*
X50368300*
X50369570Y38184891D02*
Y38149229D01*
X50584911Y37933888*
X51127112*
X51472489Y37588511*
Y37446894*
X50449580Y38184891D02*
Y38165753D01*
X50620133Y37995200*
X51186167*
X51457461Y37723906*
X51799996*
X50622000Y38104987D02*
X50671487Y38055500D01*
X51245300*
X51322894Y37977906*
X51799996*
X50495300Y38184891D02*
Y38170533D01*
X50640367Y38025467*
X51216533*
X51391094Y37850906*
X51799996*
X50902000Y38090280D02*
X50905847Y38086433D01*
X51266600*
X51335503Y38017530*
X51712620*
X51799996Y38104906*
X50942000Y38124398D02*
X51280760D01*
X51356995Y38048162*
X51616253*
X51799996Y38231906*
X50000000D02*
X50069520Y38301426D01*
Y38382731*
X50136144Y38449355*
Y38629238*
X50228306Y38721400*
X50390967*
X50000000Y38358906D02*
X50106655Y38465561D01*
Y38639576*
X50228479Y38761400*
X50368300*
X50329565Y38209300D02*
Y38141935D01*
X50568245Y37903255*
X51099490*
X51345489Y37657256*
Y37446894*
X50409575Y38209300D02*
Y38157025D01*
X50602080Y37964520*
X51154346*
X51154346D02*
X51521961Y37596906D01*
X51800352*
X51014833Y38236367D02*
Y38674018D01*
X51090397Y38749583*
X51203808*
X51575130Y39120906*
X51799996*
X51176133Y38321400D02*
X51191971Y38305562D01*
Y38264862*
X51378140Y38078693*
X51601445*
X51697330Y38174578*
Y38256239*
X51799996Y38358906*
X50000000Y38485906D02*
X50075260Y38561166D01*
Y38648009*
X50228651Y38801400*
X50390967*
X50000000Y38612906D02*
X50228494Y38841400D01*
X50368300*
X51045693Y38656137D02*
Y38448741D01*
X51133033Y38361400*
X51045693Y38656137D02*
X51109116Y38719561D01*
X51221334*
X51495679Y38993906*
X51799996*
X51077392Y38645725D02*
Y38513742D01*
X51077392D02*
X51109700Y38481433D01*
X51168400*
X51077392Y38645725D02*
X51122933Y38691267D01*
X51210563*
X51236600Y38665230*
X51747672*
X51799996Y38612906*
X50000000Y38739906D02*
X50174676Y38914582D01*
Y38955209*
X50291249Y39071782*
X50469240*
X50000000Y38866906D02*
X50262992Y39129898D01*
X50532435*
X50000000Y38993906D02*
X50194005Y39187911D01*
X50544022*
X50632467Y39099467*
Y38880600*
X51071576Y38809426D02*
G75*
G03X51071576I-45721J0D01*
G01X50924821Y38863667D02*
G03X50924821I-45721J0D01*
G01X51778405Y37472307D02*
Y37526505D01*
X51778405D02*
G03X51774595Y37530315I-3810J0D01*
G01X51774595D02*
X51755352D01*
X51737648Y37539548D02*
G03X51755352Y37530315I17704J12358D01*
G01X51737648Y37539548D02*
G03X51737207Y37540072I-3124J-2181D01*
G01X51735446Y37543359D02*
G03X51737207Y37540072I6232J1223D01*
G01X51735446Y37543359D02*
G03X51735254Y37544017I-3738J-734D01*
G01X51733762Y37551906D02*
G03X51735254Y37544017I21590J0D01*
G01X51733761Y37551906D02*
Y37565155D01*
X51733761D02*
G03X51729951Y37568965I-3810J0D01*
G01X51729951D02*
X51521961D01*
X51506366Y37573723D02*
G03X51521961Y37568965I15595J23183D01*
G01X51506366Y37573722D02*
G03X51500429Y37570561I-2127J-3161D01*
G01Y37517294*
G03X51504239Y37513484I3810J0*
G01X51517489*
X51531662Y37508180D02*
G03X51517489Y37513484I-14173J-16286D01*
G01X51531662Y37508181D02*
G03X51534164Y37507245I2502J2874D01*
G01X51534164D02*
X51538224D01*
X51544575Y37500894D02*
G03X51538224Y37507245I-6351J0D01*
G01X51544575Y37500894D02*
Y37472307D01*
X51544575D02*
G03X51548385Y37468497I3810J-0D01*
G01X51548385D02*
X51774595D01*
X51774595D02*
G03X51778405Y37472307I0J3810D01*
G01X51735327Y37650687D02*
Y37669214D01*
X51735327D02*
G03X51735039Y37670668I-3810J0D01*
G01X51733406Y37678906D02*
G03X51735039Y37670668I21590J0D01*
G01X51733406Y37678906D02*
Y37692155D01*
X51733406D02*
G03X51729596Y37695965I-3810J0D01*
G01X51729596D02*
X51471613D01*
X51471613D02*
G03X51468919Y37689461I0J-3810D01*
G01X51532418Y37625962*
Y37625963D02*
G03X51535112Y37624847I2694J2694D01*
G01X51535112D02*
X51729951D01*
X51729951D02*
G03X51733761Y37628657I0J3810D01*
G01X51733761D02*
Y37641906D01*
X51735093Y37649370D02*
G03X51733761Y37641906I20259J-7464D01*
G01X51735093Y37649370D02*
G03X51735327Y37650687I-3576J1317D01*
G01X51444548Y37517294D02*
Y37575360D01*
G03X51443432Y37578054I-3810J-0*
G01X51379933Y37641553*
G03X51373429Y37638859I-2694J-2694*
G01Y37517294*
G03X51377239Y37513484I3810J0*
G01X51390489*
X51404662Y37508180D02*
G03X51390489Y37513484I-14173J-16286D01*
G01X51404662Y37508181D02*
G03X51407164Y37507245I2502J2874D01*
G01X51407164D02*
X51410814D01*
X51410814D02*
G03X51413315Y37508180I0J3810D01*
G01X51427489Y37513484D02*
G03X51413315Y37508180I-0J-21590D01*
G01X51427489Y37513484D02*
X51440738D01*
G03X51444548Y37517294I0J3810*
G01X51735327Y37778598D02*
Y37796214D01*
X51735327D02*
G03X51735039Y37797668I-3810J0D01*
G01X51733406Y37805906D02*
G03X51735039Y37797668I21590J0D01*
G01X51733406Y37805906D02*
Y37819155D01*
X51733406D02*
G03X51729596Y37822965I-3810J0D01*
G01X51729596D02*
X51407113D01*
X51407113D02*
G03X51404419Y37816461I0J-3810D01*
G01X51467918Y37752962*
Y37752963D02*
G03X51470612Y37751847I2694J2694D01*
G01X51470612D02*
X51729596D01*
X51729596D02*
G03X51733406Y37755657I-0J3810D01*
G01X51733406D02*
Y37768906D01*
X51735039Y37777144D02*
G03X51733406Y37768906I19957J-8238D01*
G01X51735039Y37777144D02*
G03X51735327Y37778598I-3522J1454D01*
G01Y37905598D02*
Y37923214D01*
X51735327D02*
G03X51735039Y37924668I-3810J0D01*
G01X51733406Y37932906D02*
G03X51735039Y37924668I21590J0D01*
G01X51733406Y37932906D02*
Y37946155D01*
X51733406D02*
G03X51729596Y37949965I-3810J0D01*
G01X51729596D02*
X51340747D01*
X51340747D02*
G03X51338052Y37943461I-0J-3810D01*
G01X51338052D02*
X51401551Y37879962D01*
Y37879963D02*
G03X51404245Y37878847I2694J2694D01*
G01X51404245D02*
X51729596D01*
X51729596D02*
G03X51733406Y37882657I-0J3810D01*
G01X51733406D02*
Y37895906D01*
X51735039Y37904144D02*
G03X51733406Y37895906I19957J-8238D01*
G01X51735039Y37904144D02*
G03X51735327Y37905598I-3522J1454D01*
G01X51051025Y37513484D02*
G03X51053719Y37519988I0J3810D01*
G01X50818704Y37755003*
G03X50816590Y37756075I-2694J-2694*
G01X50814549Y37756450D02*
G03X50816590Y37756075I7451J34771D01*
G01X50814549Y37756450D02*
G03X50809941Y37752725I-798J-3725D01*
G01X50809941D02*
Y37642534D01*
X50809941D02*
G03X50811056Y37639840I3810J-0D01*
G01X50811056D02*
X50936296Y37514600D01*
G03X50938990Y37513484I2694J2694*
G01X51009489*
X51023662Y37508180D02*
G03X51009489Y37513484I-14173J-16286D01*
G01X51023662Y37508181D02*
G03X51026164Y37507245I2502J2874D01*
G01X51026164D02*
X51029814D01*
X51029814D02*
G03X51032315Y37508180I0J3810D01*
G01X51046489Y37513484D02*
G03X51032315Y37508180I-0J-21590D01*
G01X51046489Y37513484D02*
X51051025D01*
X51317548Y37517294D02*
Y37644105D01*
G03X51316432Y37646799I-3810J-0*
G01X51089032Y37874199*
G03X51086338Y37875315I-2694J-2694*
G01X51042745*
G03X51038967Y37871011I-0J-3810*
G01X50968446D02*
G03X51038967I35260J-4611D01*
G01X50968446D02*
G03X50964668Y37875315I-3778J494D01*
G01X50901038*
G03X50897260Y37871011I0J-3810*
G01X50890678Y37845373D02*
G03X50897260Y37871011I-28678J21027D01*
G01X50890678Y37845373D02*
G03X50889940Y37843120I3072J-2253D01*
G01Y37816534*
G03X50891056Y37813840I3810J0*
G01X51190296Y37514600*
G03X51192990Y37513484I2694J2694*
G01X51263489*
X51277662Y37508180D02*
G03X51263489Y37513484I-14173J-16286D01*
G01X51277662Y37508181D02*
G03X51280164Y37507245I2502J2874D01*
G01X51280164D02*
X51283814D01*
X51283814D02*
G03X51286315Y37508180I0J3810D01*
G01X51300489Y37513484D02*
G03X51286315Y37508180I-0J-21590D01*
G01X51300489Y37513484D02*
X51313738D01*
G03X51317548Y37517294I0J3810*
G01X50674059D02*
Y37752725D01*
X50674059D02*
G03X50669451Y37756450I-3810J-0D01*
G01X50667410Y37756075D02*
G03X50669451Y37756450I-5410J35146D01*
G01X50667410Y37756075D02*
G03X50665296Y37755003I580J-3766D01*
G01X50612545Y37702253*
X50612545D02*
G03X50611429Y37699559I2694J-2694D01*
G01X50611429D02*
Y37517294D01*
G03X50615239Y37513484I3810J0*
G01X50628489*
X50642662Y37508180D02*
G03X50628489Y37513484I-14173J-16286D01*
G01X50642662Y37508181D02*
G03X50645164Y37507245I2502J2874D01*
G01X50645164D02*
X50648814D01*
X50648814D02*
G03X50651315Y37508180I0J3810D01*
G01X50665489Y37513484D02*
G03X50651315Y37508180I-0J-21590D01*
G01X50665489Y37513484D02*
X50670249D01*
X50670249D02*
G03X50674059Y37517294I0J3810D01*
G01X50389898Y37472307D02*
Y37472392D01*
G03X50388782Y37475086I-3810J0*
G01X50266110Y37597759*
X50257926Y37617516D02*
G03X50266110Y37597759I27941J-0D01*
G01X50257926Y37617516D02*
Y37808362D01*
G03X50250716Y37810081I-3810J0*
G01X50245538Y37802930D02*
G03X50250716Y37810081I-19757J19757D01*
G01X50245538Y37802930D02*
X50067706Y37625099D01*
X50067707D02*
G03X50066591Y37622405I2694J-2694D01*
G01X50066591D02*
Y37551906D01*
X50065691Y37545740D02*
G03X50066591Y37551906I-20691J6166D01*
G01X50065691Y37545740D02*
G03X50065533Y37544651I3652J-1089D01*
G01X50065533D02*
Y37542042D01*
X50060187Y37535772D02*
G03X50065533Y37542042I-1005J6270D01*
G01X50060187Y37535771D02*
G03X50058421Y37534994I603J-3762D01*
G01X50045000Y37530315D02*
G03X50058421Y37534994I0J21591D01*
G01X50045000Y37530315D02*
X50025401D01*
X50025401D02*
G03X50021591Y37526505I-0J-3810D01*
G01X50021591D02*
Y37472307D01*
X50021591D02*
G03X50025401Y37468497I3810J-0D01*
G01X50025401D02*
X50386088D01*
X50386088D02*
G03X50389898Y37472307I0J3810D01*
G01X50674059Y37829718D02*
Y37843120D01*
X50674059D02*
G03X50673322Y37845373I-3810J0D01*
G01X50666740Y37871011D02*
G03X50673322Y37845373I35260J-4611D01*
G01X50666740Y37871011D02*
G03X50662962Y37875315I-3778J494D01*
G01X50618514*
G03X50614736Y37871011I-0J-3810*
G01X50555398Y37840231D02*
G03X50614736Y37871011I24078J26169D01*
G01X50555398Y37840231D02*
G03X50550239I-2580J-2804D01*
G01X50521633Y37901671D02*
G03X50550239Y37840231I4528J-35271D01*
G01X50521633Y37901671D02*
G03X50523842Y37908144I-485J3779D01*
G01X50320311Y38111675*
G03X50313807Y38108981I-2694J-2694*
G01Y37630667*
G03X50314923Y37627973I3810J0*
G01X50428296Y37514600*
G03X50430990Y37513484I2694J2694*
G01X50501489*
X50515662Y37508180D02*
G03X50501489Y37513484I-14173J-16286D01*
G01X50515662Y37508181D02*
G03X50518164Y37507245I2502J2874D01*
G01X50518164D02*
X50521814D01*
X50521814D02*
G03X50524315Y37508180I0J3810D01*
G01X50538489Y37513484D02*
G03X50524315Y37508180I-0J-21590D01*
G01X50538489Y37513484D02*
X50551738D01*
G03X50555548Y37517294I0J3810*
G01Y37712710*
X50563732Y37732467D02*
G03X50555548Y37712710I19757J-19757D01*
G01X50563732Y37732467D02*
X50625782Y37794517D01*
G03X50626853Y37796631I-2694J2694*
G01X50669451Y37825992D02*
G03X50626854Y37796631I-7451J-34771D01*
G01X50669451Y37825992D02*
G03X50674059Y37829718I798J3726D01*
G01X51735327Y38540598D02*
Y38558214D01*
X51735327D02*
G03X51735039Y38559668I-3810J0D01*
G01X51733406Y38567906D02*
G03X51735039Y38559668I21590J0D01*
G01X51733406Y38567906D02*
Y38633479D01*
X51733406D02*
G03X51729596Y38637289I-3810J0D01*
G01X51729596D02*
X51236600D01*
X51216843Y38645473D02*
G03X51236600Y38637289I19757J19757D01*
G01X51216843Y38645473D02*
X51200106Y38662210D01*
G03X51197412Y38663326I-2694J-2694*
G01X51169496*
X51169496D02*
G03X51166038Y38657918I0J-3810D01*
G01X51111009Y38607080D02*
G03X51166038Y38657918I19291J34320D01*
G01X51111009Y38607079D02*
G03X51105332Y38603758I-1867J-3321D01*
G01Y38559042*
G03X51111009Y38555721I3810J-0*
G01X51169661Y38520558D02*
G03X51111009Y38555720I-39361J842D01*
G01X51169662Y38520557D02*
G03X51172980Y38516698I3809J-81D01*
G01X51153277Y38449249D02*
G03X51172980Y38516698I15123J32184D01*
G01X51153277Y38449249D02*
G03X51147871Y38445375I-1620J-3449D01*
G01X51148063Y38439911D02*
G03X51147871Y38445374I-35530J1489D01*
G01X51148063Y38439911D02*
G03X51152730Y38436041I3806J-159D01*
G01X51171213Y38367409D02*
G03X51152730Y38436040I-10446J33991D01*
G01X51171213Y38367408D02*
G03X51168530Y38363538I1120J-3641D01*
G01X51168586Y38360671D02*
G03X51168529Y38363538I-35553J729D01*
G01X51168586Y38360671D02*
G03X51172757Y38356800I3810J-78D01*
G01X51211283Y38326791D02*
G03X51172757Y38356800I-35150J-5391D01*
G01X51211283Y38326791D02*
G03X51212280Y38324752I3766J578D01*
G01X51219912Y38305562D02*
G03X51212279Y38324752I-27941J0D01*
G01X51219912Y38305562D02*
Y38278014D01*
G03X51221028Y38275320I3810J-0*
G01X51221028D02*
X51388598Y38107750D01*
G03X51391292Y38106634I2694J2694*
G01X51588293*
G03X51590987Y38107750I0J3810*
G01X51668273Y38185036*
G03X51669389Y38187730I-2694J2694*
G01Y38256239*
X51677573Y38275996D02*
G03X51669389Y38256239I19757J-19757D01*
G01X51677573Y38275996D02*
X51732290Y38330713D01*
X51732290D02*
G03X51733406Y38333407I-2694J2694D01*
G01X51733406D02*
Y38403906D01*
X51735039Y38412144D02*
G03X51733406Y38403906I19957J-8238D01*
G01X51735039Y38412144D02*
G03X51735327Y38413598I-3522J1454D01*
G01X51735327D02*
Y38431214D01*
X51735327D02*
G03X51735039Y38432668I-3810J0D01*
G01X51733406Y38440906D02*
G03X51735039Y38432668I21590J0D01*
G01X51733406Y38440906D02*
Y38530906D01*
X51735039Y38539144D02*
G03X51733406Y38530906I19957J-8238D01*
G01X51735039Y38539144D02*
G03X51735327Y38540598I-3522J1454D01*
G01Y38921598D02*
Y38939214D01*
X51735327D02*
G03X51735039Y38940668I-3810J0D01*
G01X51733406Y38948906D02*
G03X51735039Y38940668I21590J0D01*
G01X51733406Y38948906D02*
Y38962155D01*
X51733406D02*
G03X51729596Y38965965I-3810J0D01*
G01X51729596D02*
X51508830D01*
X51508830D02*
G03X51506136Y38964850I0J-3810D01*
G01X51506136D02*
X51244009Y38702723D01*
Y38702722D02*
G03X51244010Y38697334I2694J-2694D01*
G01X51244009D02*
X51247057Y38694286D01*
X51247057D02*
G03X51249751Y38693171I2694J2695D01*
G01X51249751D02*
X51729596D01*
X51729596D02*
G03X51733406Y38696981I-0J3810D01*
G01X51733406D02*
Y38784906D01*
X51735039Y38793144D02*
G03X51733406Y38784906I19957J-8238D01*
G01X51735039Y38793144D02*
G03X51735327Y38794598I-3522J1454D01*
G01X51735327D02*
Y38812214D01*
X51735327D02*
G03X51735039Y38813668I-3810J0D01*
G01X51733406Y38821906D02*
G03X51735039Y38813668I21590J0D01*
G01X51733406Y38821906D02*
Y38911906D01*
X51735039Y38920144D02*
G03X51733406Y38911906I19957J-8238D01*
G01X51735039Y38920144D02*
G03X51735327Y38921598I-3522J1454D01*
G01Y39048598D02*
Y39066214D01*
X51735327D02*
G03X51735039Y39067668I-3810J0D01*
G01X51733406Y39075906D02*
G03X51735039Y39067668I21590J0D01*
G01X51733406Y39075906D02*
Y39089155D01*
X51733406D02*
G03X51729596Y39092965I-3810J0D01*
G01X51729596D02*
X51588282D01*
X51588282D02*
G03X51585588Y39091850I-0J-3810D01*
G01X51585588D02*
X51522089Y39028351D01*
X51522089D02*
G03X51524783Y39021847I2694J-2694D01*
G01X51524783D02*
X51729596D01*
X51729596D02*
G03X51733406Y39025657I-0J3810D01*
G01X51733406D02*
Y39038906D01*
X51735039Y39047144D02*
G03X51733406Y39038906I19957J-8238D01*
G01X51735039Y39047144D02*
G03X51735327Y39048598I-3522J1454D01*
G01X51778405Y39192535D02*
Y39387758D01*
X51778405D02*
G03X51774595Y39391568I-3810J0D01*
G01X51774595D02*
X50025401D01*
X50025401D02*
G03X50021591Y39387758I-0J-3810D01*
G01X50021591D02*
Y39191307D01*
X50021591D02*
G03X50025401Y39187497I3810J-0D01*
G01X50025401D02*
X50045000D01*
X50051849Y39186381D02*
G03X50045000Y39187497I-6849J-20475D01*
G01X50051849Y39186381D02*
G03X50053058Y39186185I1209J3614D01*
G01X50053058D02*
X50059182D01*
X50065533Y39179834D02*
G03X50059182Y39186185I-6351J0D01*
G01X50065533Y39179834D02*
Y39173161D01*
X50065533D02*
G03X50065691Y39172072I3810J-0D01*
G01X50066590Y39165906D02*
G03X50065691Y39172072I-21590J0D01*
G01X50066591Y39165906D02*
Y39109209D01*
X50066591D02*
G03X50073095Y39106514I3810J-0D01*
G01X50073095D02*
X50174248Y39207668D01*
X50194005Y39215852D02*
G03X50174248Y39207668I0J-27941D01*
G01X50194005Y39215852D02*
X50544022D01*
X50563779Y39207668D02*
G03X50544022Y39215852I-19757J-19757D01*
G01X50563779Y39207668D02*
X50652224Y39119224D01*
X50660407Y39099467D02*
G03X50652224Y39119224I-27940J-0D01*
G01X50660407Y39099467D02*
Y38903880D01*
G03X50661145Y38901627I3810J-0*
G01X50603789D02*
G03X50661145I28678J-21027D01*
G01X50603789D02*
G03X50604526Y38903880I-3073J2253D01*
G01Y39086315*
G03X50603410Y39089009I-3810J0*
G01X50572429Y39119991*
X50572428D02*
G03X50566125Y39118516I-2694J-2694D01*
G01X50511408Y39101220D02*
G03X50566125Y39118516I21027J28678D01*
G01X50511408Y39101220D02*
G03X50509155Y39101957I-2253J-3073D01*
G01X50498479*
G03X50495649Y39095596I0J-3810*
G01X50448213Y39043105D02*
G03X50495649Y39095596I21027J28677D01*
G01X50448213Y39043104D02*
G03X50445960Y39043842I-2253J-3072D01*
G01X50304401*
X50304401D02*
G03X50301706Y39042726I-0J-3810D01*
G01X50301706D02*
X50246850Y38987870D01*
X50246850D02*
G03X50248990Y38981406I2694J-2694D01*
G01X50277030Y38965955D02*
G03X50248990Y38981406I-34689J-29783D01*
G01X50277030Y38965956D02*
G03X50282811I2891J2481D01*
G01X50351274Y38966988D02*
G03X50282811Y38965955I-33774J-30816D01*
G01X50351274Y38966989D02*
G03X50356903I2815J2568D01*
G01Y38905355D02*
G03Y38966988I33774J30817D01*
G01Y38905355D02*
G03X50351274I-2814J-2568D01*
G01X50282811Y38906388D02*
G03X50351274Y38905355I34689J29784D01*
G01X50282811Y38906388D02*
G03X50277030I-2890J-2482D01*
G01X50207533Y38906529D02*
G03X50277030Y38906388I34808J29643D01*
G01X50207532Y38906529D02*
G03X50201037Y38905321I-2900J-2470D01*
G01X50194433Y38894825D02*
G03X50201037Y38905321I-19757J19757D01*
G01X50194433Y38894825D02*
X50067706Y38768099D01*
X50067707D02*
G03X50066591Y38765405I2694J-2694D01*
G01X50066591D02*
Y38728209D01*
X50066591D02*
G03X50073095Y38725514I3810J-0D01*
G01X50073095D02*
X50208737Y38861157D01*
X50228494Y38869340D02*
G03X50208737Y38861157I0J-27940D01*
G01X50228494Y38869341D02*
X50345020D01*
X50345020D02*
G03X50347273Y38870078I0J3810D01*
G01X50403653Y38837568D02*
G03X50347273Y38870078I-35353J3832D01*
G01X50403654Y38837568D02*
G03X50405847Y38833698I3787J-410D01*
G01Y38769103D02*
G03Y38833697I-14880J32297D01*
G01Y38769102D02*
G03X50403654Y38765232I1594J-3460D01*
G01X50403653Y38757568D02*
G03Y38765232I-35353J3832D01*
G01X50403654Y38757568D02*
G03X50405847Y38753698I3787J-410D01*
G01Y38689103D02*
G03Y38753697I-14880J32297D01*
G01Y38689102D02*
G03X50403654Y38685232I1594J-3460D01*
G01X50403653Y38677568D02*
G03Y38685232I-35353J3832D01*
G01X50403654Y38677568D02*
G03X50405847Y38673698I3787J-410D01*
G01X50369940Y38612722D02*
G03X50405847Y38673697I21027J28678D01*
G01X50369940Y38612722D02*
G03X50367687Y38613459I-2253J-3073D01*
G01X50367687D02*
X50328284D01*
X50328284D02*
G03X50325590Y38612344I0J-3810D01*
G01X50325590D02*
X50296028Y38582782D01*
Y38582781D02*
G03X50296538Y38576966I2694J-2694D01*
G01X50304589Y38569178D02*
G03X50296538Y38576966I-28440J-21347D01*
G01X50304589Y38569178D02*
G03X50310331Y38568771I3048J2287D01*
G01X50322716Y38581157*
X50342473Y38589340D02*
G03X50322717Y38581157I0J-27940D01*
G01X50342473Y38589341D02*
X50367687D01*
X50367687D02*
G03X50369940Y38590078I0J3810D01*
G01X50400153Y38527047D02*
G03X50369940Y38590078I-9186J34353D01*
G01X50400153Y38527046D02*
G03X50400240Y38519663I984J-3680D01*
G01X50395500Y38442291D02*
G03X50400240Y38519663I-4533J39109D01*
G01X50395500Y38442291D02*
G03X50392806Y38436338I439J-3784D01*
G01X50392230Y38395053D02*
G03X50392806Y38436338I-28663J21047D01*
G01X50392230Y38395053D02*
G03X50391491Y38392798I3071J-2255D01*
G01Y38300689*
X50383307Y38280932D02*
G03X50391491Y38300689I-19757J19757D01*
G01X50383307Y38280932D02*
X50347748Y38245373D01*
G03X50348422Y38239449I2694J-2694*
G01X50362516Y38222671D02*
G03X50348422Y38239449I-32951J-13371D01*
G01X50362516Y38222671D02*
G03X50366388Y38220309I3531J1432D01*
G01X50372752Y38220308D02*
G03X50366388I-3182J-35417D01*
G01X50372752D02*
G03X50376624Y38222671I341J3795D01*
G01X50442526D02*
G03X50376624I-32951J-13371D01*
G01X50442526D02*
G03X50446398Y38220309I3531J1432D01*
G01X50470228Y38213843D02*
G03X50446398Y38220308I-20648J-28952D01*
G01X50470228Y38213843D02*
G03X50474652I2212J3102D01*
G01X50530118Y38177661D02*
G03X50474652Y38213843I-34818J7230D01*
G01X50530118Y38177661D02*
G03X50531154Y38174193I3730J-774D01*
G01X50584553Y38120794*
G03X50590610Y38121698I2694J2694*
G01X50657147Y38110397D02*
G03X50590610Y38121698I-35147J-5410D01*
G01X50657147Y38110397D02*
G03X50658218Y38108283I3765J580D01*
G01X50681944Y38084556*
Y38084557D02*
G03X50684638Y38083441I2694J2694D01*
G01X50684638D02*
X50862746D01*
X50862746D02*
G03X50866545Y38087544I0J3810D01*
G01X50902885Y38125830D02*
G03X50866545Y38087544I-885J-35550D01*
G01X50902885Y38125830D02*
G03X50906756Y38129132I95J3809D01*
G01X50963027Y38153076D02*
G03X50906756Y38129131I-21027J-28678D01*
G01X50963027Y38153076D02*
G03X50965280Y38152338I2253J3072D01*
G01X51255783*
G03X51258477Y38158842I0J3810*
G01X51172214Y38245105*
X51166919Y38252490D02*
G03X51172214Y38245105I25052J12372D01*
G01X51166919Y38252490D02*
G03X51160814Y38253503I-3416J-1687D01*
G01X51123760Y38319663D02*
G03X51160814Y38253503I9273J-38263D01*
G01X51123760Y38319663D02*
G03X51123847Y38327046I-897J3703D01*
G01X51097887Y38355990D02*
G03X51123847Y38327046I35146J5410D01*
G01X51097887Y38355990D02*
G03X51096815Y38358104I-3766J-580D01*
G01X51049278Y38405642*
Y38405641D02*
G03X51042774Y38402947I-2694J-2694D01*
G01X51042774D02*
Y38259646D01*
G03X51043511Y38257394I3810J0*
G01X50986155Y38257393D02*
G03X51043511I28678J-21026D01*
G01X50986155Y38257394D02*
G03X50986893Y38259646I-3072J2252D01*
G01Y38674018*
X50995076Y38693775D02*
G03X50986893Y38674018I19757J-19757D01*
G01X50995076Y38693775D02*
X51070639Y38769340D01*
X51090397Y38777524D02*
G03X51070640Y38769340I-0J-27941D01*
G01X51090397Y38777524D02*
X51190656D01*
G03X51193350Y38778640I0J3810*
G01X51555373Y39140663*
X51575130Y39148846D02*
G03X51555373Y39140663I0J-27940D01*
G01X51575130Y39148847D02*
X51729596D01*
X51729596D02*
G03X51733406Y39152657I-0J3810D01*
G01X51733406D02*
Y39165906D01*
X51735039Y39174144D02*
G03X51733406Y39165906I19957J-8238D01*
G01X51735039Y39174144D02*
G03X51735327Y39175598I-3522J1454D01*
G01X51735327D02*
Y39182374D01*
X51741678Y39188725D02*
G03X51735327Y39182374I0J-6351D01*
G01X51741678Y39188725D02*
X51774595D01*
X51774595D02*
G03X51778405Y39192535I0J3810D01*
G01X50197840Y37835838D02*
Y37873034D01*
G03X50191336Y37875728I-3810J0*
G01X50067706Y37752099*
X50067707D02*
G03X50066591Y37749405I2694J-2694D01*
G01X50066591D02*
Y37712209D01*
X50066591D02*
G03X50073095Y37709514I3810J-0D01*
G01X50073095D02*
X50196724Y37833144D01*
G03X50197840Y37835838I-2694J2694*
G01X50165658Y37930656D02*
Y37967852D01*
G03X50159154Y37970546I-3810J0*
G01X50067706Y37879099*
X50067707D02*
G03X50066591Y37876405I2694J-2694D01*
G01X50066591D02*
Y37839209D01*
X50066591D02*
G03X50073095Y37836514I3810J-0D01*
G01X50073095D02*
X50164542Y37927962D01*
G03X50165658Y37930656I-2694J2694*
G01X50277563Y38686955D02*
G03X50274869Y38693459I-2694J2694D01*
G01X50274869D02*
X50241457D01*
X50241457D02*
G03X50238763Y38692344I0J-3810D01*
G01X50238763D02*
X50165200Y38618781D01*
X50165201D02*
G03X50164085Y38616087I2694J-2694D01*
G01X50164085D02*
Y38582675D01*
X50164085D02*
G03X50170589Y38579981I3810J0D01*
G01X50277563Y38686955*
X50135813Y38027811D02*
Y38065007D01*
G03X50129309Y38067701I-3810J0*
G01X50067706Y38006099*
X50067707D02*
G03X50066591Y38003405I2694J-2694D01*
G01X50066591D02*
Y37966209D01*
X50066591D02*
G03X50073095Y37963514I3810J-0D01*
G01X50073095D02*
X50134697Y38025117D01*
G03X50135813Y38027811I-2694J2694*
G01X50335610Y38313841D02*
Y38366581D01*
X50335610D02*
G03X50329106Y38369276I-3810J0D01*
G01X50329106D02*
X50254837Y38295007D01*
G03X50253721Y38292313I2694J-2694*
G01Y38237330*
G03X50260931Y38235611I3810J0*
G01X50266110Y38242763D02*
G03X50260931Y38235611I19757J-19757D01*
G01X50266110Y38242763D02*
X50334494Y38311147D01*
G03X50335610Y38313841I-2694J2694*
G01X50148854Y38965881D02*
G03X50142639Y38970031I-3521J1456D01*
G01X50067706Y38895099*
X50067707D02*
G03X50066591Y38892405I2694J-2694D01*
G01X50066591D02*
Y38855209D01*
X50066591D02*
G03X50073095Y38852514I3810J-0D01*
G01X50073095D02*
X50145619Y38925039D01*
G03X50146735Y38927733I-2694J2694*
G01Y38955209*
X50148854Y38965881D02*
G03X50146735Y38955209I25822J-10672D01*
G01X51071576Y38809426D02*
G03X51071576I-45721J0D01*
G01X50924821Y38863667D02*
G03X50924821I-45721J0D01*
G01X50141081Y38968473D02*
X50148969D01*
X50129651Y38957043D02*
X50146795D01*
X50118221Y38945613D02*
X50146735D01*
X50106791Y38934183D02*
X50146735D01*
X50095361Y38922753D02*
X50143333D01*
X50083931Y38911323D02*
X50131903D01*
X50072501Y38899893D02*
X50120473D01*
X50066591Y38888463D02*
X50109043D01*
X50066591Y38877033D02*
X50097613D01*
X50066591Y38865603D02*
X50086183D01*
X50066734Y38854173D02*
X50074753D01*
X50322513Y38362683D02*
X50335610D01*
X50311083Y38351253D02*
X50335610D01*
X50299653Y38339823D02*
X50335610D01*
X50288223Y38328393D02*
X50335610D01*
X50276793Y38316963D02*
X50335610D01*
X50265363Y38305533D02*
X50328880D01*
X50254168Y38294103D02*
X50317450D01*
X50253721Y38282673D02*
X50306020D01*
X50253721Y38271243D02*
X50294590D01*
X50253721Y38259813D02*
X50283160D01*
X50253721Y38248383D02*
X50271730D01*
X50253740Y38236953D02*
X50261656D01*
X50115681Y38054073D02*
X50135813D01*
X50104251Y38042643D02*
X50135813D01*
X50092821Y38031213D02*
X50135813D01*
X50127111Y38065503D02*
X50135781D01*
X50081391Y38019783D02*
X50129363D01*
X50069961Y38008353D02*
X50117933D01*
X50066591Y37996923D02*
X50106503D01*
X50066591Y37985493D02*
X50095073D01*
X50066591Y37974063D02*
X50083643D01*
X50069086Y37962633D02*
X50071716D01*
X50229142Y38682723D02*
X50273330D01*
X50217712Y38671293D02*
X50261900D01*
X50206282Y38659863D02*
X50250470D01*
X50194852Y38648433D02*
X50239040D01*
X50183422Y38637003D02*
X50227610D01*
X50171992Y38625573D02*
X50216180D01*
X50164085Y38614143D02*
X50204750D01*
X50164085Y38602713D02*
X50193320D01*
X50164085Y38591283D02*
X50181890D01*
X50165335Y38579853D02*
X50170454D01*
X50151241Y37962633D02*
X50165658D01*
X50139811Y37951203D02*
X50165658D01*
X50128381Y37939773D02*
X50165658D01*
X50116951Y37928343D02*
X50164875D01*
X50105521Y37916913D02*
X50153493D01*
X50094091Y37905483D02*
X50142063D01*
X50082661Y37894053D02*
X50130633D01*
X50071231Y37882623D02*
X50119203D01*
X50066591Y37871193D02*
X50107773D01*
X50066591Y37859763D02*
X50096343D01*
X50066591Y37848333D02*
X50084913D01*
X50067368Y37836903D02*
X50073483D01*
X50186801Y37871193D02*
X50197840D01*
X50175371Y37859763D02*
X50197840D01*
X50163941Y37848333D02*
X50197840D01*
X50152511Y37836903D02*
X50197840D01*
X50141081Y37825473D02*
X50189053D01*
X50129651Y37814043D02*
X50177623D01*
X50118221Y37802613D02*
X50166193D01*
X50106791Y37791183D02*
X50154763D01*
X50095361Y37779753D02*
X50143333D01*
X50083931Y37768323D02*
X50131903D01*
X50072501Y37756893D02*
X50120473D01*
X50066591Y37745463D02*
X50109043D01*
X50066591Y37734033D02*
X50097613D01*
X50066591Y37722603D02*
X50086183D01*
X50066734Y37711173D02*
X50074753D01*
X50021591Y39379953D02*
X51778405D01*
X50021591Y39368523D02*
X51778405D01*
X50021591Y39357093D02*
X51778405D01*
X50021591Y39345663D02*
X51778405D01*
X50021591Y39334233D02*
X51778405D01*
X50021591Y39322803D02*
X51778405D01*
X50021591Y39311373D02*
X51778405D01*
X50021591Y39299943D02*
X51778405D01*
X50021591Y39288513D02*
X51778405D01*
X50021591Y39277083D02*
X51778405D01*
X50021591Y39265653D02*
X51778405D01*
X50021591Y39254223D02*
X51778405D01*
X50021591Y39242793D02*
X51778405D01*
X50021591Y39231363D02*
X51778405D01*
X50021591Y39219933D02*
X51778405D01*
X50562908Y39208503D02*
X51778405D01*
X50574375Y39197073D02*
X51778405D01*
X50024225Y39391383D02*
X51775771D01*
X50585805Y39185643D02*
X51736233D01*
X50597235Y39174213D02*
X51735067D01*
X50608665Y39162783D02*
X51733406D01*
X50620095Y39151353D02*
X51733176D01*
X50631525Y39139923D02*
X51554633D01*
X50642955Y39128493D02*
X51543203D01*
X50654171Y39117063D02*
X51531773D01*
X50659718Y39105633D02*
X51520343D01*
X50660407Y39094203D02*
X51508913D01*
X50660407Y39082773D02*
X51497483D01*
X50660407Y39071343D02*
X51486053D01*
X50660407Y39059913D02*
X51474623D01*
X50660407Y39048483D02*
X51463193D01*
X50660407Y39037053D02*
X51451763D01*
X50660407Y39025623D02*
X51440333D01*
X50660407Y39014193D02*
X51428903D01*
X50660407Y39002763D02*
X51417473D01*
X50660407Y38991333D02*
X51406043D01*
X50660407Y38979903D02*
X51394613D01*
X50660407Y38968473D02*
X51383183D01*
X50660407Y38957043D02*
X51371753D01*
X50660407Y38945613D02*
X51360323D01*
X50660407Y38934183D02*
X51348893D01*
X50660407Y38922753D02*
X51337463D01*
X50660407Y38911323D02*
X51326033D01*
X50906993Y38899893D02*
X51314603D01*
X50917513Y38888463D02*
X51303173D01*
X50922823Y38877033D02*
X51291743D01*
X50924780Y38865603D02*
X51280313D01*
X51035241Y38854173D02*
X51268883D01*
X50956331Y38156943D02*
X51259509D01*
X51057166Y38842743D02*
X51257453D01*
X50536975Y38168373D02*
X51248947D01*
X51065997Y38831313D02*
X51246023D01*
X50530495Y38179803D02*
X51237517D01*
X51070364Y38819883D02*
X51234593D01*
X50530290Y38191233D02*
X51226087D01*
X51071565Y38808453D02*
X51223163D01*
X51026173Y38202663D02*
X51214657D01*
X51069861Y38797023D02*
X51211733D01*
X51042554Y38214093D02*
X51203227D01*
X51064872Y38785593D02*
X51200303D01*
X51048700Y38225523D02*
X51191797D01*
X51050389Y38236953D02*
X51180367D01*
X51154478Y38248383D02*
X51169408D01*
X51042774Y38328393D02*
X51119802D01*
X51042774Y38316963D02*
X51116141D01*
X51048302Y38248383D02*
X51111588D01*
X51042774Y38339823D02*
X51104767D01*
X51042774Y38305533D02*
X51101926D01*
X51042774Y38259813D02*
X51100109D01*
X51042774Y38351253D02*
X51098951D01*
X51042774Y38294103D02*
X51095768D01*
X51042774Y38271243D02*
X51094996D01*
X51042774Y38282673D02*
X51093683D01*
X51042774Y38362683D02*
X51092237D01*
X51042774Y38374113D02*
X51080807D01*
X51054956Y38774163D02*
X51077110D01*
X51042774Y38385543D02*
X51069377D01*
X50403836Y38762733D02*
X51064032D01*
X51042774Y38396973D02*
X51057947D01*
X50410212Y38751303D02*
X51052602D01*
X50421353Y38739873D02*
X51041173D01*
X50425823Y38728443D02*
X51029743D01*
X50426256Y38717013D02*
X51018313D01*
X50923824Y38854173D02*
X51016470D01*
X50422816Y38705583D02*
X51006884D01*
X50526101Y38202663D02*
X51003493D01*
X50413829Y38774163D02*
X50996754D01*
X50413817Y38694153D02*
X50995454D01*
X50919752Y38842743D02*
X50994545D01*
X50403836Y38682723D02*
X50988283D01*
X50515593Y38214093D02*
X50987113D01*
X50410228Y38671293D02*
X50986893D01*
X50421359Y38659863D02*
X50986893D01*
X50425825Y38648433D02*
X50986893D01*
X50426254Y38637003D02*
X50986893D01*
X50422811Y38625573D02*
X50986893D01*
X50413805Y38614143D02*
X50986893D01*
X50315960Y38602713D02*
X50986893D01*
X50410243Y38591283D02*
X50986893D01*
X50421365Y38579853D02*
X50986893D01*
X50425827Y38568423D02*
X50986893D01*
X50426253Y38556993D02*
X50986893D01*
X50422806Y38545563D02*
X50986893D01*
X50413793Y38534133D02*
X50986893D01*
X50397385Y38522703D02*
X50986893D01*
X50416612Y38511273D02*
X50986893D01*
X50425750Y38499843D02*
X50986893D01*
X50429708Y38488413D02*
X50986893D01*
X50430089Y38476983D02*
X50986893D01*
X50427007Y38465553D02*
X50986893D01*
X50419357Y38454123D02*
X50986893D01*
X50398163Y38442693D02*
X50986893D01*
X50395733Y38431263D02*
X50986893D01*
X50398931Y38419833D02*
X50986893D01*
X50398284Y38408403D02*
X50986893D01*
X50393545Y38396973D02*
X50986893D01*
X50391491Y38385543D02*
X50986893D01*
X50391491Y38374113D02*
X50986893D01*
X50391491Y38362683D02*
X50986893D01*
X50391491Y38351253D02*
X50986893D01*
X50391491Y38339823D02*
X50986893D01*
X50391491Y38328393D02*
X50986893D01*
X50391491Y38316963D02*
X50986893D01*
X50391491Y38305533D02*
X50986893D01*
X50390703Y38294103D02*
X50986893D01*
X50384906Y38282673D02*
X50986893D01*
X50373618Y38271243D02*
X50986893D01*
X50362188Y38259813D02*
X50986893D01*
X50422821Y38785593D02*
X50986838D01*
X50911405Y38831313D02*
X50985714D01*
X50426257Y38797023D02*
X50981849D01*
X50350758Y38248383D02*
X50981364D01*
X50892265Y38819883D02*
X50981347D01*
X50441220Y38225523D02*
X50980967D01*
X50425821Y38808453D02*
X50980145D01*
X50431933Y38236953D02*
X50979278D01*
X50548405Y38156943D02*
X50927669D01*
X50559835Y38145513D02*
X50913387D01*
X50642445Y38134083D02*
X50907784D01*
X50652862Y38122653D02*
X50887283D01*
X50657010Y38111223D02*
X50873260D01*
X50666708Y38099793D02*
X50867735D01*
X50678138Y38088363D02*
X50866491D01*
X50421347Y38819883D02*
X50865935D01*
X50662339Y38899893D02*
X50851207D01*
X50410196Y38831313D02*
X50846795D01*
X50667147Y38888463D02*
X50840687D01*
X50403835Y38842743D02*
X50838448D01*
X50667848Y38877033D02*
X50835377D01*
X50656261Y38854173D02*
X50834376D01*
X50664710Y38865603D02*
X50833420D01*
X50401488Y38854173D02*
X50608673D01*
X50503059Y39082773D02*
X50604526D01*
X50504797Y39071343D02*
X50604526D01*
X50502761Y39059913D02*
X50604526D01*
X50496104Y39048483D02*
X50604526D01*
X50476881Y39037053D02*
X50604526D01*
X50284603Y39025623D02*
X50604526D01*
X50273173Y39014193D02*
X50604526D01*
X50261743Y39002763D02*
X50604526D01*
X50250313Y38991333D02*
X50604526D01*
X50404018Y38979903D02*
X50604526D01*
X50423035Y38968473D02*
X50604526D01*
X50431356Y38957043D02*
X50604526D01*
X50435413Y38945613D02*
X50604526D01*
X50436355Y38934183D02*
X50604526D01*
X50434384Y38922753D02*
X50604526D01*
X50429056Y38911323D02*
X50604526D01*
X50418502Y38899893D02*
X50602595D01*
X50571265Y38134083D02*
X50601555D01*
X50394353Y38865603D02*
X50600223D01*
X50496842Y39094203D02*
X50598217D01*
X50188071Y38888463D02*
X50597786D01*
X50176641Y38877033D02*
X50597086D01*
X50582695Y38122653D02*
X50591138D01*
X50558430Y39105633D02*
X50586787D01*
X50565598Y39117063D02*
X50575357D01*
X50469873Y38214093D02*
X50475007D01*
X50296033Y39037053D02*
X50461598D01*
X50351923Y38236953D02*
X50387217D01*
X50361210Y38225523D02*
X50377930D01*
X50330841Y38979903D02*
X50377337D01*
X50304530Y38591283D02*
X50371690D01*
X50345324Y38899893D02*
X50362853D01*
X50349858Y38968473D02*
X50358320D01*
X50294920Y38579853D02*
X50321412D01*
X50305343Y38568423D02*
X50309930D01*
X50255682Y38979903D02*
X50304159D01*
X50270166Y38899893D02*
X50289676D01*
X50274699Y38968473D02*
X50285142D01*
X50165211Y38865603D02*
X50214533D01*
X50198443Y38899893D02*
X50214517D01*
X50153781Y38854173D02*
X50201753D01*
X50142351Y38842743D02*
X50190323D01*
X50130921Y38831313D02*
X50178893D01*
X50021591Y39208503D02*
X50175120D01*
X50119491Y38819883D02*
X50167463D01*
X50021591Y39197073D02*
X50163653D01*
X50108061Y38808453D02*
X50156033D01*
X50061749Y39185643D02*
X50152223D01*
X50096631Y38797023D02*
X50144603D01*
X50065533Y39174213D02*
X50140793D01*
X50085201Y38785593D02*
X50133173D01*
X50066591Y39162783D02*
X50129363D01*
X50073771Y38774163D02*
X50121743D01*
X50066591Y39151353D02*
X50117933D01*
X50066591Y38762733D02*
X50110313D01*
X50066591Y39139923D02*
X50106503D01*
X50066591Y38751303D02*
X50098883D01*
X50066591Y39128493D02*
X50095073D01*
X50066591Y38739873D02*
X50087453D01*
X50066591Y39117063D02*
X50083643D01*
X50066591Y38728443D02*
X50076023D01*
X50069086Y39105633D02*
X50071716D01*
X51553651Y39059913D02*
X51735327D01*
X51542221Y39048483D02*
X51735326D01*
X51565081Y39071343D02*
X51733894D01*
X51576511Y39082773D02*
X51733406D01*
X51530791Y39037053D02*
X51733406D01*
X51520973Y39025623D02*
X51733406D01*
X51475470Y38934183D02*
X51735327D01*
X51464040Y38922753D02*
X51735327D01*
X51349740Y38808453D02*
X51735327D01*
X51338310Y38797023D02*
X51735327D01*
X51486900Y38945613D02*
X51733659D01*
X51361170Y38819883D02*
X51733501D01*
X51326880Y38785593D02*
X51733417D01*
X51498330Y38957043D02*
X51733406D01*
X51452610Y38911323D02*
X51733406D01*
X51441180Y38899893D02*
X51733406D01*
X51429750Y38888463D02*
X51733406D01*
X51418320Y38877033D02*
X51733406D01*
X51406890Y38865603D02*
X51733406D01*
X51395460Y38854173D02*
X51733406D01*
X51384030Y38842743D02*
X51733406D01*
X51372600Y38831313D02*
X51733406D01*
X51315450Y38774163D02*
X51733406D01*
X51304020Y38762733D02*
X51733406D01*
X51292590Y38751303D02*
X51733406D01*
X51281160Y38739873D02*
X51733406D01*
X51269730Y38728443D02*
X51733406D01*
X51258300Y38717013D02*
X51733406D01*
X51246870Y38705583D02*
X51733406D01*
X51247198Y38694153D02*
X51732149D01*
X51147129Y38556993D02*
X51735327D01*
X51161384Y38545563D02*
X51735327D01*
X51191177Y38419833D02*
X51735327D01*
X51180074Y38431263D02*
X51735327D01*
X51195631Y38408403D02*
X51733879D01*
X51167555Y38534133D02*
X51733648D01*
X51166349Y38625573D02*
X51733406D01*
X51158709Y38614143D02*
X51733406D01*
X51137603Y38602713D02*
X51733406D01*
X51105332Y38591283D02*
X51733406D01*
X51105332Y38579853D02*
X51733406D01*
X51105332Y38568423D02*
X51733406D01*
X51169649Y38522703D02*
X51733406D01*
X51187743Y38511273D02*
X51733406D01*
X51198824Y38499843D02*
X51733406D01*
X51203269Y38488413D02*
X51733406D01*
X51203681Y38476983D02*
X51733406D01*
X51200218Y38465553D02*
X51733406D01*
X51191175Y38454123D02*
X51733406D01*
X51148070Y38442693D02*
X51733406D01*
X51196051Y38396973D02*
X51733406D01*
X51192596Y38385543D02*
X51733406D01*
X51183569Y38374113D02*
X51733406D01*
X51168571Y38362683D02*
X51733406D01*
X51195456Y38351253D02*
X51733406D01*
X51206550Y38339823D02*
X51733406D01*
X51169424Y38637003D02*
X51731046D01*
X51211000Y38328393D02*
X51729969D01*
X51217480Y38316963D02*
X51718539D01*
X51219912Y38305533D02*
X51707109D01*
X51219912Y38294103D02*
X51695679D01*
X51219912Y38282673D02*
X51684249D01*
X51225105Y38271243D02*
X51673759D01*
X51236535Y38259813D02*
X51669619D01*
X51247965Y38248383D02*
X51669389D01*
X51259395Y38236953D02*
X51669389D01*
X51270825Y38225523D02*
X51669389D01*
X51282255Y38214093D02*
X51669389D01*
X51293685Y38202663D02*
X51669389D01*
X51305115Y38191233D02*
X51669389D01*
X51316545Y38179803D02*
X51663040D01*
X51327975Y38168373D02*
X51651610D01*
X51339405Y38156943D02*
X51640180D01*
X51350835Y38145513D02*
X51628750D01*
X51362265Y38134083D02*
X51617320D01*
X51373695Y38122653D02*
X51605890D01*
X51385125Y38111223D02*
X51594460D01*
X51169037Y38648433D02*
X51213883D01*
X51165702Y38659863D02*
X51202453D01*
X51105332Y38602713D02*
X51122997D01*
X51105930Y38556993D02*
X51113471D01*
X50599337Y37836903D02*
X50674059D01*
X50610104Y37848333D02*
X50671371D01*
X50614411Y37859763D02*
X50667064D01*
X50614717Y37871193D02*
X50666759D01*
X50313807Y37825473D02*
X50652440D01*
X50313807Y37814043D02*
X50634729D01*
X50313807Y37802613D02*
X50628313D01*
X50313807Y37791183D02*
X50622448D01*
X50313807Y37779753D02*
X50611018D01*
X50313807Y37768323D02*
X50599588D01*
X50313807Y37756893D02*
X50588158D01*
X50313807Y37745463D02*
X50576728D01*
X50313807Y37734033D02*
X50565298D01*
X50546022Y37836903D02*
X50559615D01*
X50313807Y37722603D02*
X50557358D01*
X50313807Y37711173D02*
X50555548D01*
X50313807Y37699743D02*
X50555548D01*
X50313807Y37688313D02*
X50555548D01*
X50313807Y37676883D02*
X50555548D01*
X50313807Y37665453D02*
X50555548D01*
X50313807Y37654023D02*
X50555548D01*
X50313807Y37642593D02*
X50555548D01*
X50313807Y37631163D02*
X50555548D01*
X50323164Y37619733D02*
X50555548D01*
X50334594Y37608303D02*
X50555548D01*
X50346024Y37596873D02*
X50555548D01*
X50357454Y37585443D02*
X50555548D01*
X50368884Y37574013D02*
X50555548D01*
X50380314Y37562583D02*
X50555548D01*
X50391744Y37551153D02*
X50555548D01*
X50403174Y37539723D02*
X50555548D01*
X50414604Y37528293D02*
X50555548D01*
X50426034Y37516863D02*
X50555524D01*
X50313807Y37905483D02*
X50524958D01*
X50313807Y37916913D02*
X50515073D01*
X50313807Y37836903D02*
X50506300D01*
X50313807Y37894053D02*
X50503803D01*
X50313807Y37928343D02*
X50503643D01*
X50313807Y37848333D02*
X50495532D01*
X50313807Y37882623D02*
X50494516D01*
X50313807Y37939773D02*
X50492213D01*
X50313807Y37859763D02*
X50491225D01*
X50313807Y37871193D02*
X50490925D01*
X50313807Y37951203D02*
X50480783D01*
X50313807Y37962633D02*
X50469353D01*
X50313807Y37974063D02*
X50457923D01*
X50313807Y37985493D02*
X50446493D01*
X50313807Y37996923D02*
X50435063D01*
X50313807Y38008353D02*
X50423633D01*
X50313807Y38019783D02*
X50412203D01*
X50313807Y38031213D02*
X50400773D01*
X50313807Y38042643D02*
X50389343D01*
X50313807Y38054073D02*
X50377913D01*
X50313807Y38065503D02*
X50366483D01*
X50313807Y38076933D02*
X50355053D01*
X50313807Y38088363D02*
X50343623D01*
X50313807Y38099793D02*
X50332193D01*
X50314537Y38111223D02*
X50320763D01*
X50021773Y37471143D02*
X50389716D01*
X50021591Y37482573D02*
X50381296D01*
X50021591Y37494003D02*
X50369866D01*
X50021591Y37505433D02*
X50358436D01*
X50021591Y37516863D02*
X50347006D01*
X50022036Y37528293D02*
X50335576D01*
X50065094Y37539723D02*
X50324146D01*
X50066577Y37551153D02*
X50312716D01*
X50066591Y37562583D02*
X50301286D01*
X50066591Y37574013D02*
X50289856D01*
X50066591Y37585443D02*
X50278426D01*
X50066591Y37596873D02*
X50266996D01*
X50066591Y37608303D02*
X50259489D01*
X50245221Y37802613D02*
X50257926D01*
X50233791Y37791183D02*
X50257926D01*
X50222361Y37779753D02*
X50257926D01*
X50210931Y37768323D02*
X50257926D01*
X50199501Y37756893D02*
X50257926D01*
X50188071Y37745463D02*
X50257926D01*
X50176641Y37734033D02*
X50257926D01*
X50165211Y37722603D02*
X50257926D01*
X50153781Y37711173D02*
X50257926D01*
X50142351Y37699743D02*
X50257926D01*
X50130921Y37688313D02*
X50257926D01*
X50119491Y37676883D02*
X50257926D01*
X50108061Y37665453D02*
X50257926D01*
X50096631Y37654023D02*
X50257926D01*
X50085201Y37642593D02*
X50257926D01*
X50073771Y37631163D02*
X50257926D01*
X50066591Y37619733D02*
X50257926D01*
X50655755Y37745463D02*
X50674059D01*
X50644325Y37734033D02*
X50674059D01*
X50632895Y37722603D02*
X50674059D01*
X50621465Y37711173D02*
X50674059D01*
X50611434Y37699743D02*
X50674059D01*
X50611429Y37688313D02*
X50674059D01*
X50611429Y37676883D02*
X50674059D01*
X50611429Y37665453D02*
X50674059D01*
X50611429Y37654023D02*
X50674059D01*
X50611429Y37642593D02*
X50674059D01*
X50611429Y37631163D02*
X50674059D01*
X50611429Y37619733D02*
X50674059D01*
X50611429Y37608303D02*
X50674059D01*
X50611429Y37596873D02*
X50674059D01*
X50611429Y37585443D02*
X50674059D01*
X50611429Y37574013D02*
X50674059D01*
X50611429Y37562583D02*
X50674059D01*
X50611429Y37551153D02*
X50674059D01*
X50611429Y37539723D02*
X50674059D01*
X50611429Y37528293D02*
X50674059D01*
X50611454Y37516863D02*
X50674035D01*
X51062304Y37642593D02*
X51317548D01*
X51073734Y37631163D02*
X51317548D01*
X51085164Y37619733D02*
X51317548D01*
X51096594Y37608303D02*
X51317548D01*
X51108024Y37596873D02*
X51317548D01*
X51119454Y37585443D02*
X51317548D01*
X51130884Y37574013D02*
X51317548D01*
X51142314Y37562583D02*
X51317548D01*
X51153744Y37551153D02*
X51317548D01*
X51165174Y37539723D02*
X51317548D01*
X51176604Y37528293D02*
X51317548D01*
X51188034Y37516863D02*
X51317524D01*
X51050874Y37654023D02*
X51309209D01*
X51039444Y37665453D02*
X51297779D01*
X51028014Y37676883D02*
X51286349D01*
X51016584Y37688313D02*
X51274919D01*
X51005154Y37699743D02*
X51263489D01*
X50993724Y37711173D02*
X51252059D01*
X50982294Y37722603D02*
X51240629D01*
X50970864Y37734033D02*
X51229199D01*
X50959434Y37745463D02*
X51217769D01*
X50948004Y37756893D02*
X51206339D01*
X50936574Y37768323D02*
X51194909D01*
X50925144Y37779753D02*
X51183479D01*
X50913714Y37791183D02*
X51172049D01*
X50902284Y37802613D02*
X51160619D01*
X50890868Y37814043D02*
X51149189D01*
X50889940Y37825473D02*
X51137759D01*
X51023567Y37836903D02*
X51126329D01*
X51034335Y37848333D02*
X51114899D01*
X51038642Y37859763D02*
X51103469D01*
X51038947Y37871193D02*
X51092039D01*
X50889940Y37836903D02*
X50983845D01*
X50892629Y37848333D02*
X50973078D01*
X50896935Y37859763D02*
X50968771D01*
X50897241Y37871193D02*
X50968465D01*
X50934034Y37516863D02*
X51054811D01*
X50922604Y37528293D02*
X51045415D01*
X50911174Y37539723D02*
X51033985D01*
X50899744Y37551153D02*
X51022555D01*
X50888314Y37562583D02*
X51011125D01*
X50876884Y37574013D02*
X50999695D01*
X50865454Y37585443D02*
X50988265D01*
X50854024Y37596873D02*
X50976835D01*
X50842594Y37608303D02*
X50965405D01*
X50831164Y37619733D02*
X50953975D01*
X50819734Y37631163D02*
X50942545D01*
X50809941Y37642593D02*
X50931115D01*
X50809941Y37654023D02*
X50919685D01*
X50809941Y37665453D02*
X50908255D01*
X50809941Y37676883D02*
X50896825D01*
X50809941Y37688313D02*
X50885395D01*
X50809941Y37699743D02*
X50873965D01*
X50809941Y37711173D02*
X50862535D01*
X50809941Y37722603D02*
X50851105D01*
X50809941Y37734033D02*
X50839675D01*
X50809941Y37745463D02*
X50828245D01*
X51364601Y37916913D02*
X51735327D01*
X51376031Y37905483D02*
X51735326D01*
X51353171Y37928343D02*
X51733894D01*
X51341741Y37939773D02*
X51733406D01*
X51387461Y37894053D02*
X51733406D01*
X51398891Y37882623D02*
X51733406D01*
X51429698Y37791183D02*
X51735327D01*
X51441128Y37779753D02*
X51735327D01*
X51418268Y37802613D02*
X51733659D01*
X51406838Y37814043D02*
X51733406D01*
X51452558Y37768323D02*
X51733406D01*
X51463988Y37756893D02*
X51733406D01*
X51373429Y37574013D02*
X51444548D01*
X51373429Y37562583D02*
X51444548D01*
X51373429Y37551153D02*
X51444548D01*
X51373429Y37539723D02*
X51444548D01*
X51373429Y37528293D02*
X51444548D01*
X51373454Y37516863D02*
X51444524D01*
X51373429Y37585443D02*
X51436043D01*
X51373429Y37596873D02*
X51424613D01*
X51373429Y37608303D02*
X51413183D01*
X51373429Y37619733D02*
X51401753D01*
X51373429Y37631163D02*
X51390323D01*
X51376482Y37642593D02*
X51377997D01*
X51492928Y37665453D02*
X51735327D01*
X51504358Y37654023D02*
X51735327D01*
X51515788Y37642593D02*
X51733772D01*
X51527218Y37631163D02*
X51733761D01*
X51481498Y37676883D02*
X51733501D01*
X51470068Y37688313D02*
X51733406D01*
X51500454Y37516863D02*
X51778405D01*
X51542666Y37505433D02*
X51778405D01*
X51544575Y37494003D02*
X51778405D01*
X51544575Y37482573D02*
X51778405D01*
X51544757Y37471143D02*
X51778223D01*
X51500429Y37528293D02*
X51777960D01*
X51500429Y37539723D02*
X51737518D01*
X51500429Y37551153D02*
X51733775D01*
X51500429Y37562583D02*
X51733761D01*
X51502626Y37574013D02*
X51505853D01*
X50000000Y40268478D02*
X50639071D01*
X50000000D02*
X50127000Y40293878D01*
Y40243078*
X50000000Y40268478*
X51799996D02*
X51160925D01*
X51799996D02*
X51672996Y40243078D01*
Y40293878*
X51799996Y40268478*
X50000000Y40043180D02*
Y40319278D01*
X51799996Y40043180D02*
Y40319278D01*
X52180336Y37446906D02*
Y38595818D01*
Y37446906D02*
X52154936Y37573906D01*
X52205736*
X52180336Y37446906*
Y39992380D02*
Y38843468D01*
Y39992380D02*
X52205736Y39865380D01*
X52154936*
X52180336Y39992380*
X51850796Y37446906D02*
X52231136D01*
X51850796Y39992380D02*
X52231136D01*
G54D115*
X51799996Y39247906D03*
X50000000Y38866906D03*
X50710489Y37446894D03*
X51799996Y38866906D03*
X50000000Y38739906D03*
X50837489Y37446894D03*
X51799996Y38739906D03*
X50000000Y38612906D03*
X50964489Y37446894D03*
X51799996Y38612906D03*
X50000000Y38485906D03*
X50329489Y37446894D03*
X51091489D03*
X51799996Y38485906D03*
X50000000Y38358906D03*
X51218489Y37446894D03*
X51799996Y38358906D03*
X50000000Y38231906D03*
X51345489Y37446894D03*
X51799996Y38231906D03*
X50000000Y38104906D03*
X51472489Y37446894D03*
X50000000Y39247906D03*
X51799996Y38104906D03*
X50000000Y37977906D03*
X51799996D03*
X50000000Y37850906D03*
X51799996D03*
X50000000Y37723906D03*
X51799996D03*
X50000000Y37596906D03*
X51800352D03*
X50000000Y39120906D03*
X50456489Y37446894D03*
X51799996Y39120906D03*
X50000000Y38993906D03*
X50583489Y37446894D03*
X51799996Y38993906D03*
G74*
X0Y0D02*
M02*
