*
*
G04 PADS 9.5 Build Number: 522968 generated Gerber (RS-274-X) file*
G04 PC Version=2.1*
*
%IN "ESP32_MODULE_6x6_A.pcb"*%
*
%MOMM*%
*
%FSLAX35Y35*%
*
*
*
*
G04 PC Standard Apertures*
*
*
G04 Thermal Relief Aperture macro.*
%AMTER*
1,1,$1,0,0*
1,0,$1-$2,0,0*
21,0,$3,$4,0,0,45*
21,0,$3,$4,0,0,135*
%
*
*
G04 Annular Aperture macro.*
%AMANN*
1,1,$1,0,0*
1,0,$2,0,0*
%
*
*
G04 Odd Aperture macro.*
%AMODD*
1,1,$1,0,0*
1,0,$1-0.005,0,0*
%
*
*
G04 PC Custom Aperture Macros*
*
*
*
*
*
*
G04 PC Aperture Table*
*
%ADD010C,0.0254*%
%ADD043C,0.2032*%
%ADD044C,0.254*%
%ADD048C,0.1524*%
%ADD109C,0.127*%
%ADD169C,0.15189*%
*
*
*
*
G04 PC Circuitry*
G04 Layer Name ESP32_MODULE_6x6_A.pcb - circuitry*
%LPD*%
*
*
G04 PC Custom Flashes*
G04 Layer Name ESP32_MODULE_6x6_A.pcb - flashes*
%LPD*%
*
*
G04 PC Circuitry*
G04 Layer Name ESP32_MODULE_6x6_A.pcb - circuitry*
%LPD*%
*
G54D10*
G01X50156550Y39094659D02*
Y39147159D01*
X50199050*
Y39094659*
X50156550*
Y39187159D02*
Y39239659D01*
X50199050*
Y39187159*
X50156550*
X50156540Y39147170D02*
X50177800Y39167159D01*
X50199060Y39147170*
X50156540*
X50199060Y39187149D02*
X50177800Y39167159D01*
X50156540Y39187149*
X50199060*
X50762000Y38564900D02*
Y38437900D01*
X50825500Y38501400D02*
X50698500D01*
X50462000Y38801400D02*
X51012000D01*
X51062000Y38751400*
Y38201400*
X50462000*
Y38801400*
G54D43*
X51535328Y38660709D02*
Y38635309D01*
X50786395Y38939460D02*
X50804356Y38957420D01*
X50830649Y39041474D02*
X50848610Y39059434D01*
X50782156Y39179770D02*
X50764195Y39197730D01*
X50611694Y39073012D02*
X50593733Y39055052D01*
X50530871Y38992190D02*
X50548832Y39010151D01*
X50226974Y37712730D02*
X50201574D01*
X50297840Y38405210D02*
X50272440D01*
X51492758Y38166171D02*
Y38191571D01*
X51337208Y38660709D02*
Y38635309D01*
X51183818Y38184357D02*
Y38158957D01*
X51409700Y38863375D02*
Y38837975D01*
Y39015775D02*
Y39041175D01*
X51155700Y38865814D02*
Y38840414D01*
X50968945Y38992980D02*
X50986906Y38975020D01*
X51409700Y38926875D02*
Y38952275D01*
Y38749609D02*
Y38724209D01*
X50382092Y39100383D02*
X50407492D01*
G54D44*
X50000000Y39992380D02*
X51799996D01*
Y37446906*
X50000000*
Y39992380*
G54D48*
X51049274Y37643693D02*
Y38126293D01*
X50541274*
Y37643693*
X50757174*
Y37645648*
X50833374D02*
G75*
G03X50757174I-38100J0D01*
G01X50833374D02*
Y37643693D01*
X51049274*
X51018794Y37700843D02*
G03X51018794I-20320J0D01*
G01X50348640Y38806606D02*
Y38904396D01*
X50221640*
Y38806606*
Y38717706D02*
Y38619916D01*
X50348640*
Y38717706*
X50221640Y39064797D02*
Y38967007D01*
X50348640*
Y39064797*
Y39153697D02*
Y39251487D01*
X50221640*
Y39153697*
G54D109*
X51443888Y38685220D02*
X51626768D01*
Y38610442*
X51443888*
Y38685220*
X50833721Y38857470D02*
X50704406Y38986786D01*
X50757281Y39039661*
X50886597Y38910346*
X50833721Y38857470*
X50877975Y38959484D02*
X50748660Y39088800D01*
X50801535Y39141675*
X50930851Y39012360*
X50877975Y38959484*
X50864146Y39227096D02*
X50734830Y39097780D01*
X50681954Y39150656*
X50811270Y39279971*
X50864146Y39227096*
X50564368Y39155002D02*
X50693683Y39025687D01*
X50693683D02*
X50640808Y38972811D01*
X50511492Y39102126*
X50564368Y39155002*
X50578197Y38910200D02*
X50448882Y39039516D01*
X50501757Y39092392*
X50631073Y38963076*
X50578197Y38910200*
X50251485Y37804170D02*
Y37621290D01*
X50176708*
Y37804170*
X50251485*
X50322351Y38496650D02*
Y38313770D01*
X50247574*
Y38496650*
X50322351*
X51584198Y38141660D02*
X51401318D01*
Y38216437*
X51584198*
Y38141660*
X51245768Y38685220D02*
X51428648D01*
Y38610442*
X51245768*
Y38685220*
X51092378Y38208868D02*
X51275258D01*
Y38134091*
X51092378*
Y38208868*
X51318260Y38887886D02*
X51501140D01*
Y38813109*
X51318260*
Y38887886*
X51501140Y38991264D02*
X51318260D01*
Y39066042*
X51501140*
Y38991264*
X51064260Y38890325D02*
X51247140D01*
Y38815547*
X51064260*
Y38890325*
X50886955Y38945654D02*
X51016271Y39074970D01*
X51069147Y39022094*
X50939831Y38892779*
X50886955Y38945654*
X51501140Y38902364D02*
X51318260D01*
Y38977142*
X51501140*
Y38902364*
X51318260Y38774120D02*
X51501140D01*
Y38699342*
X51318260*
Y38774120*
X50357581Y39008943D02*
Y39191823D01*
X50432359*
Y39008943*
X50357581*
X51573978Y38761217D02*
X51571669Y38766773D01*
X51567051Y38772329*
X51562433Y38775107*
X51562433D02*
X51553196D01*
X51548578Y38772329*
X51543960Y38766773*
X51541651Y38761217*
X51539342Y38752882*
Y38738992*
X51541651Y38730657*
X51543960Y38725101*
X51548578Y38719545*
X51553196Y38716767*
X51562433*
X51562433D02*
X51567051Y38719545D01*
X51571669Y38725101*
X51573978Y38730657*
X51594760Y38763995D02*
X51599378Y38766773D01*
X51606305Y38775107*
Y38716767*
X50695683Y38946493D02*
X50697979Y38952054D01*
X50698642Y38959249*
X50697341Y38964479*
X50690810Y38971010*
X50685580Y38972311*
X50678386Y38971648*
X50678386D02*
X50672824Y38969351D01*
X50672824D02*
X50665298Y38965091D01*
X50655476Y38955269*
X50651215Y38947743*
X50648919Y38942181*
X50648256Y38934987*
X50649557Y38929757*
X50656088Y38923226*
X50656088D02*
X50661318Y38921924D01*
X50661318D02*
X50668512Y38922588D01*
X50674074Y38924884*
X50712342Y38933762D02*
X50717572Y38932461D01*
X50728364Y38933456*
X50687111Y38892203*
X50752855Y38908964D02*
X50745993Y38911898D01*
X50736834Y38909270*
X50736834D02*
X50725379Y38901081D01*
X50719486Y38895188*
X50711296Y38883733*
X50708668Y38874574*
X50708668D02*
X50711602Y38867711D01*
X50714868Y38864446*
X50721731Y38861512*
X50730890Y38864140*
X50730890D02*
X50742344Y38872329D01*
X50748238Y38878222*
X50756427Y38889677*
X50759055Y38898836*
X50756121Y38905699*
X50752855Y38908964*
X50912755Y39134348D02*
X50915051Y39139909D01*
X50915714Y39147104*
X50914413Y39152334*
X50907882Y39158865*
X50902652Y39160166*
X50895458Y39159503*
X50895458D02*
X50889896Y39157206D01*
X50889896D02*
X50882370Y39152946D01*
X50872548Y39143124*
X50868287Y39135598*
X50865991Y39130036*
X50865328Y39122842*
X50866629Y39117612*
X50873160Y39111081*
X50873160D02*
X50878390Y39109779D01*
X50878390D02*
X50885584Y39110443D01*
X50891146Y39112739*
X50929414Y39121617D02*
X50934644Y39120316D01*
X50945436Y39121311*
X50904183Y39080058*
X50976458Y39090288D02*
X50932629Y39079114D01*
X50957120Y39054622*
X50976458Y39090288D02*
X50935205Y39049035D01*
X50660928Y39240393D02*
X50655367Y39242689D01*
X50655367D02*
X50648172Y39243353D01*
X50642942Y39242052*
X50636411Y39235521*
X50636411D02*
X50635110Y39230291D01*
X50635773Y39223096*
X50638069Y39217535*
X50638069D02*
X50642330Y39210008D01*
X50642330D02*
X50652152Y39200186D01*
X50659678Y39195926*
X50665240Y39193630*
X50672434Y39192966*
X50677664Y39194268*
X50677664D02*
X50684195Y39200799D01*
X50685496Y39206029*
X50685496D02*
X50684833Y39213223D01*
X50682537Y39218785*
X50673659Y39257053D02*
X50674960Y39262283D01*
X50673965Y39273074*
X50715218Y39231821*
X50709886Y39308995D02*
X50693558Y39292668D01*
X50709605Y39273355*
X50709274Y39276952*
X50712208Y39283815*
X50717106Y39288713*
X50723969Y39291647*
X50731163Y39290984*
X50738689Y39286723*
X50740985Y39281162*
X50745246Y39273636*
X50745909Y39266441*
X50742975Y39259578*
X50742975D02*
X50738077Y39254680D01*
X50731214Y39251746*
X50727617Y39252078*
X50722055Y39254374*
X50543921Y39276334D02*
X50546217Y39281895D01*
X50546881Y39289090*
X50545580Y39294320*
X50539048Y39300851*
X50539048D02*
X50533819Y39302152D01*
X50533819D02*
X50526624Y39301489D01*
X50526624D02*
X50521062Y39299192D01*
X50521062D02*
X50513536Y39294932D01*
X50503714Y39285110*
X50499454Y39277584*
X50497158Y39272022*
X50496494Y39264828*
X50497795Y39259598*
X50497795D02*
X50504327Y39253067D01*
X50504327D02*
X50509557Y39251765D01*
X50509557D02*
X50516751Y39252429D01*
X50522313Y39254725*
X50560581Y39263603D02*
X50565811Y39262302D01*
X50576602Y39263297*
X50535349Y39222044*
X50604997Y39223115D02*
X50607293Y39228677D01*
X50604359Y39235540*
X50604359D02*
X50601094Y39238805D01*
X50594231Y39241739*
X50585072Y39239111*
X50585072D02*
X50573617Y39230922D01*
X50563795Y39221100*
X50557570Y39211609*
X50557570D02*
X50556907Y39204415D01*
X50559841Y39197552*
X50561474Y39195919*
X50561474D02*
X50568336Y39192986D01*
X50575531Y39193649*
X50583057Y39197909*
X50585021Y39199874*
X50589282Y39207400*
X50589945Y39214594*
X50587011Y39221457*
X50585378Y39223090*
X50585378D02*
X50578516Y39226024D01*
X50571321Y39225360*
X50571321D02*
X50563795Y39221100D01*
X50490912Y39220860D02*
X50493208Y39226422D01*
X50493871Y39233616*
X50492570Y39238846*
X50486039Y39245377*
X50480809Y39246678*
X50473614Y39246015*
X50468053Y39243719*
X50460527Y39239458*
X50450705Y39229636*
X50450705D02*
X50446444Y39222110D01*
X50444148Y39216548*
X50443485Y39209354*
X50444786Y39204124*
X50451317Y39197593*
X50456547Y39196292*
X50463741Y39196955*
X50469303Y39199251*
X50507571Y39208129D02*
X50512801Y39206828D01*
X50523593Y39207823*
X50482340Y39166570*
X50561146Y39170269D02*
X50503566Y39145344D01*
X50538288Y39193128D02*
X50561146Y39170269D01*
X50201193Y37868448D02*
X50195637Y37866139D01*
X50190081Y37861521*
X50187303Y37856903*
Y37847666*
X50190081Y37843048*
X50195637Y37838430*
X50201193Y37836121*
X50209528Y37833812*
X50223418*
X50231753Y37836121*
X50237309Y37838430*
X50242865Y37843048*
X50245643Y37847666*
Y37856903*
X50242865Y37861521*
X50237309Y37866139*
X50231753Y37868448*
X50198415Y37889230D02*
X50195637Y37893848D01*
X50187303Y37900775*
X50187303D02*
X50245643D01*
X50187303Y37933103D02*
X50190081Y37926175D01*
X50190081D02*
X50195637Y37923866D01*
X50201193*
X50206750Y37926175*
X50206750D02*
X50209528Y37930794D01*
X50212306Y37940030*
X50215084Y37946957*
X50220640Y37951575*
X50220640D02*
X50226196Y37953885D01*
X50226196D02*
X50234531D01*
X50234531D02*
X50240087Y37951575D01*
X50240087D02*
X50242865Y37949266D01*
X50245643Y37942339*
Y37933103*
X50242865Y37926175*
X50242865D02*
X50240087Y37923866D01*
X50234531Y37921557*
X50226196*
X50226196D02*
X50220640Y37923866D01*
X50215084Y37928485*
X50215084D02*
X50212306Y37935412D01*
X50209528Y37944648*
X50206750Y37949266*
X50201193Y37951575*
X50201193D02*
X50195637D01*
X50195637D02*
X50190081Y37949266D01*
X50187303Y37942339*
Y37933103*
X50257480Y38206014D02*
X50251924Y38203705D01*
X50251924D02*
X50246367Y38199087D01*
X50243589Y38194469*
Y38185232*
X50246367Y38180614*
X50251924Y38175996*
X50251924D02*
X50257480Y38173687D01*
X50265814Y38171378*
X50279705*
X50288039Y38173687*
X50293595Y38175996*
X50299152Y38180614*
X50301930Y38185232*
Y38194469*
X50299152Y38199087*
X50293595Y38203705*
X50288039Y38206014*
X50254702Y38226796D02*
X50251924Y38231414D01*
X50251924D02*
X50243589Y38238341D01*
X50243589D02*
X50301930D01*
X50263036Y38289141D02*
X50271370Y38286832D01*
X50276927Y38282214*
X50279705Y38275287*
Y38272978*
X50276927Y38266051*
X50276927D02*
X50271370Y38261432D01*
X50263036Y38259123*
X50260258*
X50251924Y38261432*
X50251924D02*
X50246367Y38266051D01*
X50246367D02*
X50243589Y38272978D01*
Y38275287*
X50246367Y38282214*
X50251924Y38286832*
X50251924D02*
X50263036Y38289141D01*
X50263036D02*
X50276927D01*
X50276927D02*
X50290817Y38286832D01*
X50299152Y38282214*
X50301930Y38275287*
Y38270669*
X50299152Y38263741*
X50299152D02*
X50293595Y38261432D01*
X51488659Y38104500D02*
X51486350Y38110056D01*
X51481732Y38115612*
X51477114Y38118390*
X51467878*
X51463259Y38115612*
X51458641Y38110056*
X51456332Y38104500*
X51454023Y38096165*
Y38082275*
X51456332Y38073940*
X51458641Y38068384*
X51463259Y38062828*
X51467878Y38060050*
X51477114*
X51481732Y38062828*
X51486350Y38068384*
X51488659Y38073940*
X51511750Y38104500D02*
Y38107278D01*
X51514059Y38112834*
X51516369Y38115612*
X51516369D02*
X51520987Y38118390D01*
X51530223*
X51534841Y38115612*
X51537150Y38112834*
X51539459Y38107278*
Y38101721*
X51539459D02*
X51537150Y38096165D01*
X51532532Y38087831*
X51509441Y38060050*
X51541769*
X51169864Y38664925D02*
X51167555Y38670481D01*
X51167555D02*
X51162937Y38676038D01*
X51158319Y38678816*
X51158319D02*
X51149082D01*
X51144464Y38676038*
X51139846Y38670481*
X51139846D02*
X51137537Y38664925D01*
X51135228Y38656591*
Y38642700*
X51137537Y38634366*
X51139846Y38628810*
X51144464Y38623253*
X51149082Y38620475*
X51158319*
X51158319D02*
X51162937Y38623253D01*
X51167555Y38628810*
X51169864Y38634366*
X51195264Y38678816D02*
X51220664D01*
X51206809Y38656591*
X51213737*
X51218355Y38653813*
X51220664Y38651035*
X51222973Y38642700*
Y38637144*
X51220664Y38628810*
X51216046Y38623253*
X51209119Y38620475*
X51209119D02*
X51202191D01*
X51195264Y38623253*
X51192955Y38626031*
X51192955D02*
X51190646Y38631588D01*
X51183301Y38276991D02*
X51180991Y38282547D01*
X51180991D02*
X51176373Y38288104D01*
X51176373D02*
X51171755Y38290882D01*
X51162519*
X51157901Y38288104*
X51157901D02*
X51153282Y38282547D01*
X51150973Y38276991*
X51148664Y38268657*
Y38254766*
X51150973Y38246432*
X51153282Y38240875*
X51157901Y38235319*
X51157901D02*
X51162519Y38232541D01*
X51171755*
X51176373Y38235319*
X51180991Y38240875*
X51180991D02*
X51183301Y38246432D01*
X51227173Y38290882D02*
X51204082Y38251988D01*
X51238719*
X51227173Y38290882D02*
Y38232541D01*
X51576442Y38866017D02*
X51574133Y38871573D01*
X51569514Y38877130*
X51569514D02*
X51564896Y38879908D01*
X51555660*
X51551042Y38877130*
X51551042D02*
X51546424Y38871573D01*
X51544114Y38866017*
X51544114D02*
X51541805Y38857683D01*
Y38843792*
X51544114Y38835458*
X51544114D02*
X51546424Y38829901D01*
X51551042Y38824345*
X51555660Y38821567*
X51564896*
X51569514Y38824345*
X51569514D02*
X51574133Y38829901D01*
X51576442Y38835458*
X51627242Y38879908D02*
X51604151D01*
X51601842Y38854905*
X51601842D02*
X51604151Y38857683D01*
X51611078Y38860461*
X51618005*
X51624933Y38857683*
X51629551Y38852126*
X51631860Y38843792*
X51629551Y38838236*
X51627242Y38829901*
X51622624Y38824345*
X51615696Y38821567*
X51608769*
X51601842Y38824345*
X51599533Y38827123*
X51597224Y38832680*
X51571514Y39053393D02*
X51569205Y39058949D01*
X51564587Y39064505*
X51559969Y39067283*
X51559969D02*
X51550732D01*
X51550732D02*
X51546114Y39064505D01*
X51541496Y39058949*
X51539187Y39053393*
X51536878Y39045058*
X51536878D02*
Y39031168D01*
X51539187Y39022833*
X51539187D02*
X51541496Y39017277D01*
X51546114Y39011721*
X51550732Y39008943*
X51559969*
X51564587Y39011721*
X51569205Y39017277*
X51571514Y39022833*
X51620005Y39058949D02*
X51617696Y39064505D01*
X51610769Y39067283*
X51610769D02*
X51606151D01*
X51606151D02*
X51599223Y39064505D01*
X51594605Y39056171*
X51592296Y39042280*
Y39028390*
X51594605Y39017277*
X51599223Y39011721*
X51606151Y39008943*
X51606151D02*
X51608460D01*
X51615387Y39011721*
X51620005Y39017277*
X51622314Y39025612*
Y39028390*
X51620005Y39036724*
X51615387Y39042280*
X51608460Y39045058*
X51608460D02*
X51606151D01*
X51606151D02*
X51599223Y39042280D01*
X51594605Y39036724*
X51592296Y39028390*
X51184774Y38981054D02*
X51182465Y38986610D01*
X51177846Y38992166*
X51177846D02*
X51173228Y38994944D01*
X51163992*
X51159374Y38992166*
X51154756Y38986610*
X51152446Y38981054*
X51152446D02*
X51150137Y38972719D01*
Y38958829*
X51152446Y38950494*
X51152446D02*
X51154756Y38944938D01*
X51159374Y38939382*
X51163992Y38936604*
X51173228*
X51177846Y38939382*
X51177846D02*
X51182465Y38944938D01*
X51184774Y38950494*
X51235574Y38975497D02*
X51233265Y38967163D01*
X51228646Y38961607*
X51228646D02*
X51221719Y38958829D01*
X51219410*
X51212483Y38961607*
X51207865Y38967163*
X51205556Y38975497*
Y38978275*
X51205556D02*
X51207865Y38986610D01*
X51212483Y38992166*
X51219410Y38994944*
X51221719*
X51228646Y38992166*
X51228646D02*
X51233265Y38986610D01*
X51235574Y38975497*
Y38961607*
X51233265Y38947716*
X51228646Y38939382*
X51228646D02*
X51221719Y38936604D01*
X51217101*
X51210174Y38939382*
X51207865Y38944938*
X50080267Y39143614D02*
X50138608D01*
X50080267D02*
Y39159777D01*
X50083045Y39166705*
X50083045D02*
X50088602Y39171323D01*
X50088602D02*
X50094158Y39173632D01*
X50102492Y39175941*
X50116383*
X50124717Y39173632*
X50130273Y39171323*
X50135830Y39166705*
X50135830D02*
X50138608Y39159777D01*
Y39143614*
X50091380Y39196723D02*
X50088602Y39201341D01*
X50088602D02*
X50080267Y39208268D01*
X50138608*
X51044546Y39101213D02*
X51085799Y39059960D01*
X51105392Y39079553*
X51095162Y39151829D02*
X51106336Y39107999D01*
X51130828Y39132491*
X51095162Y39151829D02*
X51136415Y39110576D01*
X51546733Y38973608D02*
Y38915268D01*
Y38973608D02*
X51567515D01*
X51574442Y38970830*
X51576751Y38968052*
X51579060Y38962496*
Y38956940*
X51579060D02*
X51576751Y38951383D01*
X51574442Y38948605*
X51567515Y38945827*
X51546733*
X51562897D02*
X51579060Y38915268D01*
X51599842Y38962496D02*
X51604460Y38965274D01*
X51611388Y38973608*
X51611388D02*
Y38915268D01*
X50195050Y38023499D02*
X50236722D01*
X50245056Y38025808*
X50250612Y38030426*
X50253390Y38037353*
X50253390D02*
Y38041972D01*
X50250612Y38048899*
X50245056Y38053517*
X50236722Y38055826*
X50195050*
Y38081226D02*
Y38106626D01*
X50217275Y38092772*
Y38099699*
X50220053Y38104317*
X50222831Y38106626*
X50231165Y38108935*
X50236722*
X50245056Y38106626*
X50250612Y38102008*
X50253390Y38095081*
Y38088153*
X50253390D02*
X50250612Y38081226D01*
X50247834Y38078917*
X50242278Y38076608*
X50318876Y38516450D02*
X50360548D01*
X50368882Y38518759*
X50374439Y38523377*
X50374439D02*
X50377217Y38530304D01*
X50377217D02*
Y38534923D01*
X50374439Y38541850*
X50374439D02*
X50368882Y38546468D01*
X50360548Y38548777*
X50318876*
X50332767Y38571868D02*
X50329989D01*
X50329989D02*
X50324432Y38574177D01*
X50321654Y38576486*
X50318876Y38581104*
X50318876D02*
Y38590341D01*
X50321654Y38594959*
X50324432Y38597268*
X50329989Y38599577*
X50329989D02*
X50335545D01*
X50341101Y38597268*
X50349435Y38592650*
X50377217Y38569559*
Y38601886*
X50386923Y38779128D02*
X50381367Y38776819D01*
X50375810Y38772201*
X50373032Y38767583*
Y38758346*
X50375810Y38753728*
X50381367Y38749110*
X50386923Y38746801*
X50395257Y38744492*
X50409148*
X50417482Y38746801*
X50423039Y38749110*
X50423039D02*
X50428595Y38753728D01*
X50431373Y38758346*
Y38767583*
X50428595Y38772201*
X50423039Y38776819*
X50423039D02*
X50417482Y38779128D01*
X50384145Y38799910D02*
X50381367Y38804528D01*
X50373032Y38811456*
X50373032D02*
X50431373D01*
X50386923Y38834546D02*
X50384145D01*
X50378589Y38836856*
X50378589D02*
X50375810Y38839165D01*
X50373032Y38843783*
Y38853019*
X50375810Y38857637*
X50378589Y38859946*
X50378589D02*
X50384145Y38862256D01*
X50384145D02*
X50389701D01*
X50389701D02*
X50395257Y38859946D01*
X50403592Y38855328*
X50431373Y38832237*
Y38864565*
X50093528Y38986621D02*
X50087971Y38984312D01*
X50082415Y38979694*
X50082415D02*
X50079637Y38975075D01*
Y38965839*
X50082415Y38961221*
X50087971Y38956603*
X50093528Y38954294*
X50093528D02*
X50101862Y38951984D01*
X50101862D02*
X50115753D01*
X50115753D02*
X50124087Y38954294D01*
X50124087D02*
X50129643Y38956603D01*
X50135199Y38961221*
X50135199D02*
X50137978Y38965839D01*
Y38975075*
X50135199Y38979694*
X50135199D02*
X50129643Y38984312D01*
X50124087Y38986621*
X50090749Y39007403D02*
X50087971Y39012021D01*
X50079637Y39018948*
X50137978*
X50079637Y39044348D02*
Y39069748D01*
X50101862Y39055894*
X50101862D02*
Y39062821D01*
X50104640Y39067439*
X50107418Y39069748*
X50115753Y39072057*
X50121309*
X50129643Y39069748*
X50135199Y39065130*
X50135199D02*
X50137978Y39058203D01*
Y39051275*
X50135199Y39044348*
X50135199D02*
X50132421Y39042039D01*
X50126865Y39039730*
X51181853Y38766767D02*
X51179544Y38772323D01*
X51174926Y38777879*
X51170308Y38780657*
X51161071*
X51156453Y38777879*
X51151835Y38772323*
X51149526Y38766767*
X51147217Y38758432*
Y38744542*
X51149526Y38736207*
X51151835Y38730651*
X51156453Y38725095*
X51161071Y38722317*
X51170308*
X51174926Y38725095*
X51179544Y38730651*
X51181853Y38736207*
X51204944Y38766767D02*
Y38769545D01*
X51207253Y38775101*
X51209562Y38777879*
X51214180Y38780657*
X51223417*
X51228035Y38777879*
X51230344Y38775101*
X51232653Y38769545*
Y38763989*
X51232653D02*
X51230344Y38758432D01*
X51225726Y38750098*
X51202635Y38722317*
X51234962*
X51269598Y38780657D02*
X51262671Y38777879D01*
X51258053Y38769545*
X51255744Y38755654*
Y38747320*
X51258053Y38733429*
X51262671Y38725095*
X51269598Y38722317*
X51269598D02*
X51274217D01*
X51281144Y38725095*
X51285762Y38733429*
X51288071Y38747320*
Y38755654*
X51285762Y38769545*
X51281144Y38777879*
X51274217Y38780657*
X51269598*
X50379532Y38930438D02*
X50373975Y38928129D01*
X50368419Y38923511*
X50365641Y38918893*
Y38909657*
X50365641D02*
X50368419Y38905038D01*
X50373975Y38900420*
X50379532Y38898111*
X50387866Y38895802*
X50401757*
X50410091Y38898111*
X50415647Y38900420*
X50421204Y38905038*
X50421204D02*
X50423982Y38909657D01*
X50423982D02*
Y38918893D01*
X50421204Y38923511*
X50421204D02*
X50415647Y38928129D01*
X50410091Y38930438*
X50376754Y38951220D02*
X50373975Y38955838D01*
X50365641Y38962766*
X50423982*
X50376754Y38983547D02*
X50373975Y38988166D01*
X50365641Y38995093*
X50423982*
X51255009Y38373450D02*
X51296681D01*
X51305016Y38375759*
X51310572Y38380377*
X51313350Y38387305*
X51313350D02*
Y38391923D01*
X51310572Y38398850*
X51305016Y38403468*
X51296681Y38405777*
X51255009*
X51266122Y38426559D02*
X51263344Y38431177D01*
X51255009Y38438105*
X51255009D02*
X51313350D01*
G54D169*
X51573606Y38390032D02*
Y38420032D01*
X51373606Y38390032D02*
Y38420032D01*
X51483606Y38530032D02*
X51463606D01*
X51493606Y38290032D02*
X51463606D01*
G74*
X0Y0D02*
M02*
