M48
; DRILL file {KiCad 5.1.2} date Fri 05 Jul 2019 09:59:44 PM CDT
; FORMAT={-:-/ absolute / inch / decimal}
; #@! TF.CreationDate,2019-07-05T21:59:44-05:00
; #@! TF.GenerationSoftware,Kicad,Pcbnew,5.1.2
; #@! TF.FileFunction,Plated,1,2,PTH
FMAT,2
INCH
T1C0.0079
T2C0.0157
T3C0.0394
%
G90
G05
T1
X4.4522Y-5.3506
X4.4884Y-5.3868
X4.5054Y-5.2975
X4.5246Y-5.423
X4.5415Y-5.3337
X4.5777Y-5.3698
T2
X6.3Y-3.2449
X6.6764Y-3.0697
X6.7823Y-3.1587
T3
X7.1005Y-2.5994
X7.1713Y-2.5287
X7.1713Y-2.6701
X7.242Y-2.5994
X7.242Y-2.7408
X7.3127Y-2.6701
X5.004Y-4.697
X5.0747Y-4.6263
X5.0747Y-4.7677
X5.1454Y-4.697
X5.1454Y-4.8384
X5.2161Y-4.7677
X4.1106Y-5.5941
X4.1813Y-5.5234
X4.1813Y-5.6648
X4.2521Y-5.5941
X4.2521Y-5.7355
X4.3228Y-5.6648
X5.8568Y-3.8502
X5.9275Y-3.7794
X5.9275Y-3.9209
X5.9982Y-3.8502
X5.9982Y-3.9916
X6.0689Y-3.9209
T0
M30
