G04 #@! TF.GenerationSoftware,KiCad,Pcbnew,5.1.2*
G04 #@! TF.CreationDate,2019-07-05T21:59:41-05:00*
G04 #@! TF.ProjectId,Master_Sword_(Ocarina_of_Time),4d617374-6572-45f5-9377-6f72645f284f,rev?*
G04 #@! TF.SameCoordinates,Original*
G04 #@! TF.FileFunction,Copper,L1,Top*
G04 #@! TF.FilePolarity,Positive*
%FSLAX46Y46*%
G04 Gerber Fmt 4.6, Leading zero omitted, Abs format (unit mm)*
G04 Created by KiCad (PCBNEW 5.1.2) date 2019-07-05 21:59:41*
%MOMM*%
%LPD*%
G04 APERTURE LIST*
%ADD10C,0.010000*%
%ADD11C,1.700000*%
%ADD12C,1.700000*%
%ADD13C,0.100000*%
%ADD14C,0.500000*%
%ADD15C,2.410000*%
%ADD16C,0.600000*%
%ADD17C,0.250000*%
G04 APERTURE END LIST*
D10*
G36*
X179971843Y-65149028D02*
G01*
X179284755Y-65837064D01*
X179088575Y-66035258D01*
X178914222Y-66214741D01*
X178770137Y-66366548D01*
X178664761Y-66481713D01*
X178606534Y-66551271D01*
X178597666Y-66566836D01*
X178626925Y-66602432D01*
X178711785Y-66693343D01*
X178847872Y-66835122D01*
X179030812Y-67023323D01*
X179256232Y-67253498D01*
X179519757Y-67521201D01*
X179817014Y-67821985D01*
X180143627Y-68151403D01*
X180495225Y-68505009D01*
X180867431Y-68878357D01*
X181124109Y-69135276D01*
X183650552Y-71661982D01*
X183010737Y-72331574D01*
X182823859Y-72525443D01*
X182589388Y-72765987D01*
X182319971Y-73040384D01*
X182028254Y-73335815D01*
X181726884Y-73639459D01*
X181428509Y-73938498D01*
X181243499Y-74123000D01*
X181003693Y-74362278D01*
X180714074Y-74652365D01*
X180384162Y-74983669D01*
X180023475Y-75346596D01*
X179641531Y-75731555D01*
X179247850Y-76128954D01*
X178851950Y-76529200D01*
X178463349Y-76922701D01*
X178169208Y-77221036D01*
X176222340Y-79197240D01*
X176315295Y-79380036D01*
X176491423Y-79683552D01*
X176721328Y-80014886D01*
X176988922Y-80354028D01*
X177278117Y-80680969D01*
X177572827Y-80975698D01*
X177666390Y-81060575D01*
X177875332Y-81241430D01*
X178082394Y-81412359D01*
X178295803Y-81578912D01*
X178523789Y-81746642D01*
X178774582Y-81921101D01*
X179056411Y-82107841D01*
X179377506Y-82312415D01*
X179746097Y-82540374D01*
X180170411Y-82797271D01*
X180658680Y-83088658D01*
X180772497Y-83156164D01*
X181069562Y-83333437D01*
X181366699Y-83513002D01*
X181649120Y-83685761D01*
X181902040Y-83842611D01*
X182110675Y-83974454D01*
X182254164Y-84068100D01*
X182682833Y-84356052D01*
X182889018Y-84877624D01*
X183254994Y-85872786D01*
X183551536Y-86834469D01*
X183781079Y-87773946D01*
X183946062Y-88702490D01*
X184048921Y-89631374D01*
X184089333Y-90429894D01*
X184085966Y-91303670D01*
X184030144Y-92128137D01*
X183918498Y-92922972D01*
X183747654Y-93707853D01*
X183514244Y-94502459D01*
X183278558Y-95162666D01*
X183219628Y-95306521D01*
X183137684Y-95492577D01*
X183038792Y-95708429D01*
X182929019Y-95941671D01*
X182814430Y-96179899D01*
X182701093Y-96410706D01*
X182595074Y-96621688D01*
X182502440Y-96800439D01*
X182429256Y-96934554D01*
X182381589Y-97011627D01*
X182367675Y-97025333D01*
X182333234Y-96997888D01*
X182239314Y-96917877D01*
X182089896Y-96788785D01*
X181888957Y-96614095D01*
X181640476Y-96397294D01*
X181348432Y-96141865D01*
X181016804Y-95851293D01*
X180649570Y-95529064D01*
X180250709Y-95178661D01*
X179824200Y-94803570D01*
X179374021Y-94407275D01*
X178904151Y-93993261D01*
X178658031Y-93776249D01*
X178175391Y-93350600D01*
X177707705Y-92938153D01*
X177259219Y-92542652D01*
X176834175Y-92167837D01*
X176436818Y-91817450D01*
X176071390Y-91495234D01*
X175742137Y-91204931D01*
X175453303Y-90950282D01*
X175209130Y-90735029D01*
X175013863Y-90562914D01*
X174871745Y-90437679D01*
X174787021Y-90363066D01*
X174769062Y-90347276D01*
X174564138Y-90167385D01*
X174746479Y-88596031D01*
X174928819Y-87024676D01*
X174828672Y-86391269D01*
X174790801Y-86166119D01*
X174753320Y-85968649D01*
X174719622Y-85815010D01*
X174693098Y-85721353D01*
X174684012Y-85702569D01*
X174630044Y-85672640D01*
X174509116Y-85625091D01*
X174335823Y-85565051D01*
X174124757Y-85497652D01*
X173962166Y-85448787D01*
X173695567Y-85370361D01*
X173419788Y-85288719D01*
X173161324Y-85211738D01*
X172946673Y-85147295D01*
X172876824Y-85126127D01*
X172468815Y-85001957D01*
X172286059Y-84721452D01*
X172193918Y-84583275D01*
X172134199Y-84506961D01*
X172094810Y-84482356D01*
X172063657Y-84499305D01*
X172047011Y-84520723D01*
X171856350Y-84786565D01*
X171682049Y-85017853D01*
X171512959Y-85226411D01*
X171337935Y-85424060D01*
X171145829Y-85622624D01*
X170925493Y-85833924D01*
X170665783Y-86069783D01*
X170355549Y-86342023D01*
X170215666Y-86463018D01*
X169803254Y-86826019D01*
X169453672Y-87150918D01*
X169159274Y-87446533D01*
X168912411Y-87721679D01*
X168705437Y-87985175D01*
X168530705Y-88245837D01*
X168380567Y-88512482D01*
X168305392Y-88665548D01*
X168107843Y-89175324D01*
X167976579Y-89722238D01*
X167911243Y-90310280D01*
X167911481Y-90943440D01*
X167976936Y-91625707D01*
X168017685Y-91891820D01*
X168054560Y-92143275D01*
X168070717Y-92330752D01*
X168065560Y-92446367D01*
X168060794Y-92463320D01*
X168058215Y-92469435D01*
X168054215Y-92476841D01*
X168047740Y-92486591D01*
X168037737Y-92499735D01*
X168023150Y-92517329D01*
X168002925Y-92540422D01*
X167976008Y-92570070D01*
X167941345Y-92607323D01*
X167897881Y-92653234D01*
X167844562Y-92708857D01*
X167780334Y-92775242D01*
X167704142Y-92853444D01*
X167614932Y-92944515D01*
X167511650Y-93049507D01*
X167393241Y-93169472D01*
X167258651Y-93305464D01*
X167106826Y-93458535D01*
X166936712Y-93629736D01*
X166747254Y-93820122D01*
X166537397Y-94030744D01*
X166306088Y-94262656D01*
X166052272Y-94516908D01*
X165774895Y-94794555D01*
X165472903Y-95096649D01*
X165145241Y-95424241D01*
X164790855Y-95778385D01*
X164408690Y-96160134D01*
X163997692Y-96570539D01*
X163556808Y-97010654D01*
X163084982Y-97481531D01*
X162581160Y-97984222D01*
X162044289Y-98519780D01*
X161473313Y-99089258D01*
X160867178Y-99693707D01*
X160224831Y-100334182D01*
X159545216Y-101011733D01*
X158827280Y-101727415D01*
X158069967Y-102482278D01*
X157272225Y-103277377D01*
X156432998Y-104113763D01*
X155551232Y-104992488D01*
X154625872Y-105914607D01*
X153655866Y-106881170D01*
X152640157Y-107893231D01*
X151577692Y-108951841D01*
X150467417Y-110058055D01*
X149308277Y-111212924D01*
X148099218Y-112417500D01*
X146839186Y-113672837D01*
X145527126Y-114979987D01*
X144161983Y-116340002D01*
X142742705Y-117753935D01*
X141268235Y-119222838D01*
X139737521Y-120747765D01*
X138149507Y-122329767D01*
X136503140Y-123969897D01*
X135581217Y-124888326D01*
X111593602Y-148785034D01*
X110604551Y-149357477D01*
X109587004Y-149940389D01*
X108631795Y-150474793D01*
X107733664Y-150963165D01*
X106887354Y-151407983D01*
X106087605Y-151811721D01*
X105329160Y-152176856D01*
X104606761Y-152505865D01*
X103915148Y-152801222D01*
X103249064Y-153065404D01*
X102603249Y-153300888D01*
X101972447Y-153510149D01*
X101453246Y-153666635D01*
X100453697Y-153919952D01*
X99468117Y-154101523D01*
X98502992Y-154210615D01*
X97564806Y-154246493D01*
X96661928Y-154208585D01*
X96473228Y-154191397D01*
X96318410Y-154175053D01*
X96215244Y-154161574D01*
X96181476Y-154153920D01*
X96173032Y-154109142D01*
X96158114Y-153992692D01*
X96138143Y-153817197D01*
X96114538Y-153595283D01*
X96088717Y-153339577D01*
X96080681Y-153257436D01*
X96054818Y-152937398D01*
X96032811Y-152557892D01*
X96014775Y-152132459D01*
X96000823Y-151674636D01*
X95991070Y-151197964D01*
X95985629Y-150715981D01*
X95984614Y-150242227D01*
X95988140Y-149790241D01*
X95996321Y-149373562D01*
X96009270Y-149005729D01*
X96027102Y-148700282D01*
X96040999Y-148545000D01*
X96147245Y-147730995D01*
X96287193Y-146942660D01*
X96457021Y-146199053D01*
X96639651Y-145560500D01*
X96816758Y-145040410D01*
X97013250Y-144534905D01*
X97095956Y-144347779D01*
X102319822Y-144347779D01*
X102324786Y-144787716D01*
X102340126Y-145238217D01*
X102365452Y-145680968D01*
X102400376Y-146097655D01*
X102437969Y-146422534D01*
X102469893Y-146654765D01*
X102499800Y-146863057D01*
X102525131Y-147030264D01*
X102543328Y-147139235D01*
X102548950Y-147166513D01*
X102565050Y-147205461D01*
X102600048Y-147235359D01*
X102667716Y-147260175D01*
X102781824Y-147283874D01*
X102956144Y-147310425D01*
X103130639Y-147334059D01*
X103901199Y-147419789D01*
X104647874Y-147470675D01*
X105355713Y-147486212D01*
X106009763Y-147465893D01*
X106316730Y-147441667D01*
X107164288Y-147322222D01*
X107966909Y-147132287D01*
X108729205Y-146870022D01*
X109455788Y-146533591D01*
X110151272Y-146121155D01*
X110779666Y-145663418D01*
X110802552Y-145644464D01*
X110832613Y-145618237D01*
X110870778Y-145583814D01*
X110917977Y-145540270D01*
X110975136Y-145486684D01*
X111043184Y-145422129D01*
X111123051Y-145345685D01*
X111215663Y-145256426D01*
X111321950Y-145153429D01*
X111442840Y-145035770D01*
X111579261Y-144902527D01*
X111732141Y-144752775D01*
X111902409Y-144585592D01*
X112090994Y-144400052D01*
X112298823Y-144195234D01*
X112526826Y-143970213D01*
X112775929Y-143724065D01*
X113047063Y-143455868D01*
X113341154Y-143164697D01*
X113659132Y-142849629D01*
X114001925Y-142509741D01*
X114370461Y-142144108D01*
X114765668Y-141751808D01*
X115188476Y-141331917D01*
X115639811Y-140883511D01*
X116120604Y-140405667D01*
X116631781Y-139897461D01*
X117174272Y-139357969D01*
X117749004Y-138786269D01*
X118356907Y-138181435D01*
X118998908Y-137542546D01*
X119675936Y-136868677D01*
X120388919Y-136158905D01*
X121138785Y-135412306D01*
X121926464Y-134627957D01*
X122752882Y-133804934D01*
X123618970Y-132942313D01*
X124525654Y-132039172D01*
X125473864Y-131094585D01*
X126464528Y-130107631D01*
X127498573Y-129077385D01*
X128576929Y-128002924D01*
X129700524Y-126883324D01*
X130870286Y-125717661D01*
X132087144Y-124505013D01*
X133352025Y-123244455D01*
X134665859Y-121935064D01*
X136029573Y-120575916D01*
X137444097Y-119166088D01*
X138910358Y-117704657D01*
X140429284Y-116190698D01*
X142001805Y-114623289D01*
X143628848Y-113001505D01*
X145311342Y-111324423D01*
X147050215Y-109591119D01*
X148846396Y-107800671D01*
X150700812Y-105952154D01*
X152329833Y-104328302D01*
X163759833Y-92934538D01*
X164098500Y-92799498D01*
X164617334Y-92635147D01*
X165142881Y-92553762D01*
X165677218Y-92555399D01*
X166222419Y-92640115D01*
X166780559Y-92807964D01*
X166955385Y-92876413D01*
X167270203Y-93006233D01*
X167562668Y-92713768D01*
X167855133Y-92421302D01*
X167599141Y-91897568D01*
X167306133Y-91232344D01*
X167091619Y-90594635D01*
X166955189Y-89981258D01*
X166896430Y-89389031D01*
X166914932Y-88814769D01*
X167010284Y-88255292D01*
X167091099Y-87966000D01*
X167188976Y-87706260D01*
X167325869Y-87408866D01*
X167487208Y-87101714D01*
X167658422Y-86812701D01*
X167809650Y-86590166D01*
X168011843Y-86340876D01*
X168276626Y-86052521D01*
X168595960Y-85732723D01*
X168961805Y-85389106D01*
X169366120Y-85029291D01*
X169800867Y-84660903D01*
X170109833Y-84409344D01*
X170583024Y-84024779D01*
X170987980Y-83683647D01*
X171327524Y-83383343D01*
X171604480Y-83121265D01*
X171821670Y-82894810D01*
X171981917Y-82701375D01*
X172020591Y-82647537D01*
X172179732Y-82416471D01*
X171800949Y-82042010D01*
X171705170Y-81948060D01*
X171554623Y-81801356D01*
X171355501Y-81607895D01*
X171113999Y-81373678D01*
X170836311Y-81104701D01*
X170528632Y-80806965D01*
X170197155Y-80486467D01*
X169848076Y-80149206D01*
X169487588Y-79801182D01*
X169333354Y-79652359D01*
X167244541Y-77637170D01*
X166992363Y-77835292D01*
X166729585Y-78062166D01*
X166430669Y-78357172D01*
X166100822Y-78714558D01*
X165745253Y-79128571D01*
X165369170Y-79593459D01*
X165178357Y-79838894D01*
X164896130Y-80204829D01*
X164655981Y-80512102D01*
X164449891Y-80770303D01*
X164269836Y-80989022D01*
X164107796Y-81177850D01*
X163955750Y-81346376D01*
X163805674Y-81504191D01*
X163677297Y-81633483D01*
X163207848Y-82048983D01*
X162702830Y-82403842D01*
X162175143Y-82690041D01*
X161643166Y-82897843D01*
X161076338Y-83034256D01*
X160463647Y-83101914D01*
X159808314Y-83101045D01*
X159113562Y-83031879D01*
X158382613Y-82894647D01*
X157618688Y-82689577D01*
X157304000Y-82588403D01*
X156817166Y-82424697D01*
X156357798Y-82882119D01*
X155898429Y-83339540D01*
X156044913Y-83546687D01*
X156300886Y-83949841D01*
X156502080Y-84354035D01*
X156645370Y-84749078D01*
X156727633Y-85124780D01*
X156745744Y-85470949D01*
X156711552Y-85721419D01*
X156708041Y-85734725D01*
X156703031Y-85749178D01*
X156695352Y-85765978D01*
X156683838Y-85786323D01*
X156667321Y-85811413D01*
X156644632Y-85842446D01*
X156614605Y-85880622D01*
X156576070Y-85927139D01*
X156527860Y-85983196D01*
X156468808Y-86049993D01*
X156397745Y-86128727D01*
X156313504Y-86220599D01*
X156214916Y-86326807D01*
X156100814Y-86448551D01*
X155970031Y-86587028D01*
X155821397Y-86743439D01*
X155653745Y-86918981D01*
X155465908Y-87114855D01*
X155256717Y-87332259D01*
X155025005Y-87572391D01*
X154769603Y-87836452D01*
X154489345Y-88125639D01*
X154183061Y-88441153D01*
X153849585Y-88784191D01*
X153487748Y-89155953D01*
X153096382Y-89557638D01*
X152674320Y-89990445D01*
X152220394Y-90455572D01*
X151733435Y-90954219D01*
X151212277Y-91487585D01*
X150655750Y-92056869D01*
X150062688Y-92663269D01*
X149431922Y-93307984D01*
X148762284Y-93992215D01*
X148052608Y-94717158D01*
X147301724Y-95484015D01*
X146508464Y-96293983D01*
X145671662Y-97148261D01*
X144790149Y-98048048D01*
X143862758Y-98994544D01*
X142888320Y-99988948D01*
X141865667Y-101032457D01*
X140793632Y-102126272D01*
X139671047Y-103271591D01*
X138496744Y-104469614D01*
X137269555Y-105721539D01*
X135988313Y-107028564D01*
X134651848Y-108391890D01*
X133258994Y-109812715D01*
X131808583Y-111292239D01*
X131109100Y-112005759D01*
X129877153Y-113262436D01*
X128658721Y-114505343D01*
X127455190Y-115733068D01*
X126267944Y-116944196D01*
X125098368Y-118137316D01*
X123947846Y-119311015D01*
X122817764Y-120463879D01*
X121709505Y-121594496D01*
X120624455Y-122701454D01*
X119563998Y-123783338D01*
X118529519Y-124838736D01*
X117522403Y-125866236D01*
X116544034Y-126864424D01*
X115595797Y-127831887D01*
X114679076Y-128767214D01*
X113795257Y-129668990D01*
X112945724Y-130535803D01*
X112131862Y-131366241D01*
X111355055Y-132158889D01*
X110616688Y-132912336D01*
X109918146Y-133625168D01*
X109260814Y-134295973D01*
X108646076Y-134923338D01*
X108075316Y-135505849D01*
X107549920Y-136042095D01*
X107071273Y-136530662D01*
X106640758Y-136970137D01*
X106259761Y-137359107D01*
X105929666Y-137696160D01*
X105651858Y-137979882D01*
X105427722Y-138208862D01*
X105258643Y-138381685D01*
X105146004Y-138496939D01*
X105091191Y-138553211D01*
X105090107Y-138554333D01*
X104780498Y-138884359D01*
X104453948Y-139248884D01*
X104129165Y-139626086D01*
X103824860Y-139994140D01*
X103559741Y-140331226D01*
X103508256Y-140399430D01*
X103175231Y-140884947D01*
X102905679Y-141371840D01*
X102692730Y-141877478D01*
X102529515Y-142419230D01*
X102409163Y-143014465D01*
X102371076Y-143274500D01*
X102342578Y-143572857D01*
X102325623Y-143936722D01*
X102319822Y-144347779D01*
X97095956Y-144347779D01*
X97233912Y-144035649D01*
X97483531Y-143534309D01*
X97766892Y-143022550D01*
X98088782Y-142492038D01*
X98453985Y-141934440D01*
X98867289Y-141341420D01*
X99333479Y-140704645D01*
X99724834Y-140187953D01*
X99755712Y-140148277D01*
X99790342Y-140105108D01*
X99829865Y-140057283D01*
X99875422Y-140003636D01*
X99928153Y-139943005D01*
X99989200Y-139874224D01*
X100059703Y-139796130D01*
X100140804Y-139707560D01*
X100233643Y-139607348D01*
X100339361Y-139494331D01*
X100459100Y-139367345D01*
X100594000Y-139225225D01*
X100745202Y-139066809D01*
X100913847Y-138890931D01*
X101101076Y-138696428D01*
X101308030Y-138482135D01*
X101535850Y-138246889D01*
X101785676Y-137989526D01*
X102058651Y-137708881D01*
X102355914Y-137403791D01*
X102678606Y-137073091D01*
X103027869Y-136715617D01*
X103404844Y-136330206D01*
X103810671Y-135915694D01*
X104246491Y-135470915D01*
X104713446Y-134994708D01*
X105212676Y-134485906D01*
X105745321Y-133943346D01*
X106312525Y-133365865D01*
X106915426Y-132752298D01*
X107555166Y-132101481D01*
X108232885Y-131412250D01*
X108949726Y-130683441D01*
X109706829Y-129913891D01*
X110505334Y-129102434D01*
X111346382Y-128247907D01*
X112231116Y-127349146D01*
X113160675Y-126404987D01*
X114136200Y-125414266D01*
X115158832Y-124375819D01*
X116229713Y-123288482D01*
X117349984Y-122151090D01*
X118520784Y-120962480D01*
X119743255Y-119721488D01*
X121018539Y-118426949D01*
X122347775Y-117077700D01*
X123732105Y-115672577D01*
X125172671Y-114210415D01*
X126670612Y-112690050D01*
X127915412Y-111426635D01*
X129196470Y-110126353D01*
X130463016Y-108840654D01*
X131713744Y-107570864D01*
X132947353Y-106318311D01*
X134162537Y-105084321D01*
X135357993Y-103870221D01*
X136532417Y-102677337D01*
X137684504Y-101506997D01*
X138812952Y-100360526D01*
X139916456Y-99239252D01*
X140993712Y-98144500D01*
X142043416Y-97077599D01*
X143064265Y-96039875D01*
X144054954Y-95032653D01*
X145014180Y-94057262D01*
X145940638Y-93115027D01*
X146833025Y-92207275D01*
X147690037Y-91335334D01*
X148510370Y-90500529D01*
X149292720Y-89704188D01*
X150035783Y-88947636D01*
X150738256Y-88232201D01*
X151398833Y-87559210D01*
X152016212Y-86929989D01*
X152589089Y-86345865D01*
X153116159Y-85808164D01*
X153596119Y-85318213D01*
X154027665Y-84877339D01*
X154409492Y-84486869D01*
X154740297Y-84148129D01*
X155018777Y-83862446D01*
X155243627Y-83631146D01*
X155413543Y-83455557D01*
X155527221Y-83337005D01*
X155583357Y-83276816D01*
X155589500Y-83269107D01*
X155619842Y-83219693D01*
X155704099Y-83125217D01*
X155832117Y-82995964D01*
X155993742Y-82842222D01*
X156161000Y-82690124D01*
X156732500Y-82180898D01*
X157278007Y-82128724D01*
X158102060Y-82023163D01*
X158861169Y-81869127D01*
X159561403Y-81664247D01*
X160208831Y-81406152D01*
X160809521Y-81092475D01*
X161369543Y-80720843D01*
X161821555Y-80354588D01*
X161925045Y-80257008D01*
X162074110Y-80107885D01*
X162257748Y-79918663D01*
X162464957Y-79700785D01*
X162684734Y-79465695D01*
X162875084Y-79258830D01*
X163313513Y-78790769D01*
X163712363Y-78390218D01*
X164070336Y-78058391D01*
X164386135Y-77796506D01*
X164593736Y-77647247D01*
X164691189Y-77572735D01*
X164719187Y-77525801D01*
X164706732Y-77514811D01*
X164640670Y-77495159D01*
X164516456Y-77460086D01*
X164357680Y-77416226D01*
X164310166Y-77403254D01*
X163971500Y-77311040D01*
X163675166Y-75668166D01*
X162978621Y-75529845D01*
X162282077Y-75391523D01*
X160911491Y-75839162D01*
X160586776Y-75944524D01*
X160287500Y-76040306D01*
X160023194Y-76123558D01*
X159803388Y-76191336D01*
X159637613Y-76240690D01*
X159535398Y-76268673D01*
X159506040Y-76273817D01*
X159469524Y-76245361D01*
X159372865Y-76166228D01*
X159220672Y-76040290D01*
X159017556Y-75871420D01*
X158768126Y-75663488D01*
X158476991Y-75420366D01*
X158148762Y-75145926D01*
X157788049Y-74844040D01*
X157399460Y-74518579D01*
X156987606Y-74173414D01*
X156557097Y-73812419D01*
X156112543Y-73439463D01*
X155658552Y-73058419D01*
X155199736Y-72673159D01*
X154740703Y-72287554D01*
X154286063Y-71905476D01*
X153840427Y-71530796D01*
X153408404Y-71167387D01*
X152994603Y-70819119D01*
X152603635Y-70489865D01*
X152240109Y-70183496D01*
X151908635Y-69903883D01*
X151613823Y-69654899D01*
X151360283Y-69440416D01*
X151152624Y-69264303D01*
X150995456Y-69130435D01*
X150893389Y-69042681D01*
X150851032Y-69004914D01*
X150850168Y-69003905D01*
X150884080Y-68983457D01*
X150990059Y-68940170D01*
X151159502Y-68876906D01*
X151383805Y-68796531D01*
X151654366Y-68701907D01*
X151962580Y-68595898D01*
X152299844Y-68481369D01*
X152657555Y-68361182D01*
X153027108Y-68238201D01*
X153399902Y-68115291D01*
X153767331Y-67995315D01*
X154120794Y-67881136D01*
X154451685Y-67775619D01*
X154751403Y-67681626D01*
X155011343Y-67602023D01*
X155222901Y-67539671D01*
X155371442Y-67498973D01*
X156062255Y-67340707D01*
X156760638Y-67218761D01*
X157474080Y-67133217D01*
X158210067Y-67084157D01*
X158976086Y-67071665D01*
X159779624Y-67095822D01*
X160628169Y-67156711D01*
X161529207Y-67254414D01*
X162490226Y-67389015D01*
X163518712Y-67560595D01*
X163685034Y-67590576D01*
X164541568Y-67746419D01*
X164874456Y-68193626D01*
X164987914Y-68348964D01*
X165138874Y-68559992D01*
X165317251Y-68812373D01*
X165512961Y-69091771D01*
X165715918Y-69383847D01*
X165916038Y-69674265D01*
X165918599Y-69678000D01*
X166201859Y-70089035D01*
X166447001Y-70439788D01*
X166662046Y-70740966D01*
X166855017Y-71003276D01*
X167033933Y-71237427D01*
X167206816Y-71454125D01*
X167381687Y-71664079D01*
X167566568Y-71877995D01*
X167567013Y-71878503D01*
X168071979Y-72403296D01*
X168626529Y-72887218D01*
X169214952Y-73318400D01*
X169821536Y-73684971D01*
X170223359Y-73885365D01*
X170536185Y-74027925D01*
X175166578Y-69501040D01*
X179796971Y-64974156D01*
X179971843Y-65149028D01*
X179971843Y-65149028D01*
G37*
X179971843Y-65149028D02*
X179284755Y-65837064D01*
X179088575Y-66035258D01*
X178914222Y-66214741D01*
X178770137Y-66366548D01*
X178664761Y-66481713D01*
X178606534Y-66551271D01*
X178597666Y-66566836D01*
X178626925Y-66602432D01*
X178711785Y-66693343D01*
X178847872Y-66835122D01*
X179030812Y-67023323D01*
X179256232Y-67253498D01*
X179519757Y-67521201D01*
X179817014Y-67821985D01*
X180143627Y-68151403D01*
X180495225Y-68505009D01*
X180867431Y-68878357D01*
X181124109Y-69135276D01*
X183650552Y-71661982D01*
X183010737Y-72331574D01*
X182823859Y-72525443D01*
X182589388Y-72765987D01*
X182319971Y-73040384D01*
X182028254Y-73335815D01*
X181726884Y-73639459D01*
X181428509Y-73938498D01*
X181243499Y-74123000D01*
X181003693Y-74362278D01*
X180714074Y-74652365D01*
X180384162Y-74983669D01*
X180023475Y-75346596D01*
X179641531Y-75731555D01*
X179247850Y-76128954D01*
X178851950Y-76529200D01*
X178463349Y-76922701D01*
X178169208Y-77221036D01*
X176222340Y-79197240D01*
X176315295Y-79380036D01*
X176491423Y-79683552D01*
X176721328Y-80014886D01*
X176988922Y-80354028D01*
X177278117Y-80680969D01*
X177572827Y-80975698D01*
X177666390Y-81060575D01*
X177875332Y-81241430D01*
X178082394Y-81412359D01*
X178295803Y-81578912D01*
X178523789Y-81746642D01*
X178774582Y-81921101D01*
X179056411Y-82107841D01*
X179377506Y-82312415D01*
X179746097Y-82540374D01*
X180170411Y-82797271D01*
X180658680Y-83088658D01*
X180772497Y-83156164D01*
X181069562Y-83333437D01*
X181366699Y-83513002D01*
X181649120Y-83685761D01*
X181902040Y-83842611D01*
X182110675Y-83974454D01*
X182254164Y-84068100D01*
X182682833Y-84356052D01*
X182889018Y-84877624D01*
X183254994Y-85872786D01*
X183551536Y-86834469D01*
X183781079Y-87773946D01*
X183946062Y-88702490D01*
X184048921Y-89631374D01*
X184089333Y-90429894D01*
X184085966Y-91303670D01*
X184030144Y-92128137D01*
X183918498Y-92922972D01*
X183747654Y-93707853D01*
X183514244Y-94502459D01*
X183278558Y-95162666D01*
X183219628Y-95306521D01*
X183137684Y-95492577D01*
X183038792Y-95708429D01*
X182929019Y-95941671D01*
X182814430Y-96179899D01*
X182701093Y-96410706D01*
X182595074Y-96621688D01*
X182502440Y-96800439D01*
X182429256Y-96934554D01*
X182381589Y-97011627D01*
X182367675Y-97025333D01*
X182333234Y-96997888D01*
X182239314Y-96917877D01*
X182089896Y-96788785D01*
X181888957Y-96614095D01*
X181640476Y-96397294D01*
X181348432Y-96141865D01*
X181016804Y-95851293D01*
X180649570Y-95529064D01*
X180250709Y-95178661D01*
X179824200Y-94803570D01*
X179374021Y-94407275D01*
X178904151Y-93993261D01*
X178658031Y-93776249D01*
X178175391Y-93350600D01*
X177707705Y-92938153D01*
X177259219Y-92542652D01*
X176834175Y-92167837D01*
X176436818Y-91817450D01*
X176071390Y-91495234D01*
X175742137Y-91204931D01*
X175453303Y-90950282D01*
X175209130Y-90735029D01*
X175013863Y-90562914D01*
X174871745Y-90437679D01*
X174787021Y-90363066D01*
X174769062Y-90347276D01*
X174564138Y-90167385D01*
X174746479Y-88596031D01*
X174928819Y-87024676D01*
X174828672Y-86391269D01*
X174790801Y-86166119D01*
X174753320Y-85968649D01*
X174719622Y-85815010D01*
X174693098Y-85721353D01*
X174684012Y-85702569D01*
X174630044Y-85672640D01*
X174509116Y-85625091D01*
X174335823Y-85565051D01*
X174124757Y-85497652D01*
X173962166Y-85448787D01*
X173695567Y-85370361D01*
X173419788Y-85288719D01*
X173161324Y-85211738D01*
X172946673Y-85147295D01*
X172876824Y-85126127D01*
X172468815Y-85001957D01*
X172286059Y-84721452D01*
X172193918Y-84583275D01*
X172134199Y-84506961D01*
X172094810Y-84482356D01*
X172063657Y-84499305D01*
X172047011Y-84520723D01*
X171856350Y-84786565D01*
X171682049Y-85017853D01*
X171512959Y-85226411D01*
X171337935Y-85424060D01*
X171145829Y-85622624D01*
X170925493Y-85833924D01*
X170665783Y-86069783D01*
X170355549Y-86342023D01*
X170215666Y-86463018D01*
X169803254Y-86826019D01*
X169453672Y-87150918D01*
X169159274Y-87446533D01*
X168912411Y-87721679D01*
X168705437Y-87985175D01*
X168530705Y-88245837D01*
X168380567Y-88512482D01*
X168305392Y-88665548D01*
X168107843Y-89175324D01*
X167976579Y-89722238D01*
X167911243Y-90310280D01*
X167911481Y-90943440D01*
X167976936Y-91625707D01*
X168017685Y-91891820D01*
X168054560Y-92143275D01*
X168070717Y-92330752D01*
X168065560Y-92446367D01*
X168060794Y-92463320D01*
X168058215Y-92469435D01*
X168054215Y-92476841D01*
X168047740Y-92486591D01*
X168037737Y-92499735D01*
X168023150Y-92517329D01*
X168002925Y-92540422D01*
X167976008Y-92570070D01*
X167941345Y-92607323D01*
X167897881Y-92653234D01*
X167844562Y-92708857D01*
X167780334Y-92775242D01*
X167704142Y-92853444D01*
X167614932Y-92944515D01*
X167511650Y-93049507D01*
X167393241Y-93169472D01*
X167258651Y-93305464D01*
X167106826Y-93458535D01*
X166936712Y-93629736D01*
X166747254Y-93820122D01*
X166537397Y-94030744D01*
X166306088Y-94262656D01*
X166052272Y-94516908D01*
X165774895Y-94794555D01*
X165472903Y-95096649D01*
X165145241Y-95424241D01*
X164790855Y-95778385D01*
X164408690Y-96160134D01*
X163997692Y-96570539D01*
X163556808Y-97010654D01*
X163084982Y-97481531D01*
X162581160Y-97984222D01*
X162044289Y-98519780D01*
X161473313Y-99089258D01*
X160867178Y-99693707D01*
X160224831Y-100334182D01*
X159545216Y-101011733D01*
X158827280Y-101727415D01*
X158069967Y-102482278D01*
X157272225Y-103277377D01*
X156432998Y-104113763D01*
X155551232Y-104992488D01*
X154625872Y-105914607D01*
X153655866Y-106881170D01*
X152640157Y-107893231D01*
X151577692Y-108951841D01*
X150467417Y-110058055D01*
X149308277Y-111212924D01*
X148099218Y-112417500D01*
X146839186Y-113672837D01*
X145527126Y-114979987D01*
X144161983Y-116340002D01*
X142742705Y-117753935D01*
X141268235Y-119222838D01*
X139737521Y-120747765D01*
X138149507Y-122329767D01*
X136503140Y-123969897D01*
X135581217Y-124888326D01*
X111593602Y-148785034D01*
X110604551Y-149357477D01*
X109587004Y-149940389D01*
X108631795Y-150474793D01*
X107733664Y-150963165D01*
X106887354Y-151407983D01*
X106087605Y-151811721D01*
X105329160Y-152176856D01*
X104606761Y-152505865D01*
X103915148Y-152801222D01*
X103249064Y-153065404D01*
X102603249Y-153300888D01*
X101972447Y-153510149D01*
X101453246Y-153666635D01*
X100453697Y-153919952D01*
X99468117Y-154101523D01*
X98502992Y-154210615D01*
X97564806Y-154246493D01*
X96661928Y-154208585D01*
X96473228Y-154191397D01*
X96318410Y-154175053D01*
X96215244Y-154161574D01*
X96181476Y-154153920D01*
X96173032Y-154109142D01*
X96158114Y-153992692D01*
X96138143Y-153817197D01*
X96114538Y-153595283D01*
X96088717Y-153339577D01*
X96080681Y-153257436D01*
X96054818Y-152937398D01*
X96032811Y-152557892D01*
X96014775Y-152132459D01*
X96000823Y-151674636D01*
X95991070Y-151197964D01*
X95985629Y-150715981D01*
X95984614Y-150242227D01*
X95988140Y-149790241D01*
X95996321Y-149373562D01*
X96009270Y-149005729D01*
X96027102Y-148700282D01*
X96040999Y-148545000D01*
X96147245Y-147730995D01*
X96287193Y-146942660D01*
X96457021Y-146199053D01*
X96639651Y-145560500D01*
X96816758Y-145040410D01*
X97013250Y-144534905D01*
X97095956Y-144347779D01*
X102319822Y-144347779D01*
X102324786Y-144787716D01*
X102340126Y-145238217D01*
X102365452Y-145680968D01*
X102400376Y-146097655D01*
X102437969Y-146422534D01*
X102469893Y-146654765D01*
X102499800Y-146863057D01*
X102525131Y-147030264D01*
X102543328Y-147139235D01*
X102548950Y-147166513D01*
X102565050Y-147205461D01*
X102600048Y-147235359D01*
X102667716Y-147260175D01*
X102781824Y-147283874D01*
X102956144Y-147310425D01*
X103130639Y-147334059D01*
X103901199Y-147419789D01*
X104647874Y-147470675D01*
X105355713Y-147486212D01*
X106009763Y-147465893D01*
X106316730Y-147441667D01*
X107164288Y-147322222D01*
X107966909Y-147132287D01*
X108729205Y-146870022D01*
X109455788Y-146533591D01*
X110151272Y-146121155D01*
X110779666Y-145663418D01*
X110802552Y-145644464D01*
X110832613Y-145618237D01*
X110870778Y-145583814D01*
X110917977Y-145540270D01*
X110975136Y-145486684D01*
X111043184Y-145422129D01*
X111123051Y-145345685D01*
X111215663Y-145256426D01*
X111321950Y-145153429D01*
X111442840Y-145035770D01*
X111579261Y-144902527D01*
X111732141Y-144752775D01*
X111902409Y-144585592D01*
X112090994Y-144400052D01*
X112298823Y-144195234D01*
X112526826Y-143970213D01*
X112775929Y-143724065D01*
X113047063Y-143455868D01*
X113341154Y-143164697D01*
X113659132Y-142849629D01*
X114001925Y-142509741D01*
X114370461Y-142144108D01*
X114765668Y-141751808D01*
X115188476Y-141331917D01*
X115639811Y-140883511D01*
X116120604Y-140405667D01*
X116631781Y-139897461D01*
X117174272Y-139357969D01*
X117749004Y-138786269D01*
X118356907Y-138181435D01*
X118998908Y-137542546D01*
X119675936Y-136868677D01*
X120388919Y-136158905D01*
X121138785Y-135412306D01*
X121926464Y-134627957D01*
X122752882Y-133804934D01*
X123618970Y-132942313D01*
X124525654Y-132039172D01*
X125473864Y-131094585D01*
X126464528Y-130107631D01*
X127498573Y-129077385D01*
X128576929Y-128002924D01*
X129700524Y-126883324D01*
X130870286Y-125717661D01*
X132087144Y-124505013D01*
X133352025Y-123244455D01*
X134665859Y-121935064D01*
X136029573Y-120575916D01*
X137444097Y-119166088D01*
X138910358Y-117704657D01*
X140429284Y-116190698D01*
X142001805Y-114623289D01*
X143628848Y-113001505D01*
X145311342Y-111324423D01*
X147050215Y-109591119D01*
X148846396Y-107800671D01*
X150700812Y-105952154D01*
X152329833Y-104328302D01*
X163759833Y-92934538D01*
X164098500Y-92799498D01*
X164617334Y-92635147D01*
X165142881Y-92553762D01*
X165677218Y-92555399D01*
X166222419Y-92640115D01*
X166780559Y-92807964D01*
X166955385Y-92876413D01*
X167270203Y-93006233D01*
X167562668Y-92713768D01*
X167855133Y-92421302D01*
X167599141Y-91897568D01*
X167306133Y-91232344D01*
X167091619Y-90594635D01*
X166955189Y-89981258D01*
X166896430Y-89389031D01*
X166914932Y-88814769D01*
X167010284Y-88255292D01*
X167091099Y-87966000D01*
X167188976Y-87706260D01*
X167325869Y-87408866D01*
X167487208Y-87101714D01*
X167658422Y-86812701D01*
X167809650Y-86590166D01*
X168011843Y-86340876D01*
X168276626Y-86052521D01*
X168595960Y-85732723D01*
X168961805Y-85389106D01*
X169366120Y-85029291D01*
X169800867Y-84660903D01*
X170109833Y-84409344D01*
X170583024Y-84024779D01*
X170987980Y-83683647D01*
X171327524Y-83383343D01*
X171604480Y-83121265D01*
X171821670Y-82894810D01*
X171981917Y-82701375D01*
X172020591Y-82647537D01*
X172179732Y-82416471D01*
X171800949Y-82042010D01*
X171705170Y-81948060D01*
X171554623Y-81801356D01*
X171355501Y-81607895D01*
X171113999Y-81373678D01*
X170836311Y-81104701D01*
X170528632Y-80806965D01*
X170197155Y-80486467D01*
X169848076Y-80149206D01*
X169487588Y-79801182D01*
X169333354Y-79652359D01*
X167244541Y-77637170D01*
X166992363Y-77835292D01*
X166729585Y-78062166D01*
X166430669Y-78357172D01*
X166100822Y-78714558D01*
X165745253Y-79128571D01*
X165369170Y-79593459D01*
X165178357Y-79838894D01*
X164896130Y-80204829D01*
X164655981Y-80512102D01*
X164449891Y-80770303D01*
X164269836Y-80989022D01*
X164107796Y-81177850D01*
X163955750Y-81346376D01*
X163805674Y-81504191D01*
X163677297Y-81633483D01*
X163207848Y-82048983D01*
X162702830Y-82403842D01*
X162175143Y-82690041D01*
X161643166Y-82897843D01*
X161076338Y-83034256D01*
X160463647Y-83101914D01*
X159808314Y-83101045D01*
X159113562Y-83031879D01*
X158382613Y-82894647D01*
X157618688Y-82689577D01*
X157304000Y-82588403D01*
X156817166Y-82424697D01*
X156357798Y-82882119D01*
X155898429Y-83339540D01*
X156044913Y-83546687D01*
X156300886Y-83949841D01*
X156502080Y-84354035D01*
X156645370Y-84749078D01*
X156727633Y-85124780D01*
X156745744Y-85470949D01*
X156711552Y-85721419D01*
X156708041Y-85734725D01*
X156703031Y-85749178D01*
X156695352Y-85765978D01*
X156683838Y-85786323D01*
X156667321Y-85811413D01*
X156644632Y-85842446D01*
X156614605Y-85880622D01*
X156576070Y-85927139D01*
X156527860Y-85983196D01*
X156468808Y-86049993D01*
X156397745Y-86128727D01*
X156313504Y-86220599D01*
X156214916Y-86326807D01*
X156100814Y-86448551D01*
X155970031Y-86587028D01*
X155821397Y-86743439D01*
X155653745Y-86918981D01*
X155465908Y-87114855D01*
X155256717Y-87332259D01*
X155025005Y-87572391D01*
X154769603Y-87836452D01*
X154489345Y-88125639D01*
X154183061Y-88441153D01*
X153849585Y-88784191D01*
X153487748Y-89155953D01*
X153096382Y-89557638D01*
X152674320Y-89990445D01*
X152220394Y-90455572D01*
X151733435Y-90954219D01*
X151212277Y-91487585D01*
X150655750Y-92056869D01*
X150062688Y-92663269D01*
X149431922Y-93307984D01*
X148762284Y-93992215D01*
X148052608Y-94717158D01*
X147301724Y-95484015D01*
X146508464Y-96293983D01*
X145671662Y-97148261D01*
X144790149Y-98048048D01*
X143862758Y-98994544D01*
X142888320Y-99988948D01*
X141865667Y-101032457D01*
X140793632Y-102126272D01*
X139671047Y-103271591D01*
X138496744Y-104469614D01*
X137269555Y-105721539D01*
X135988313Y-107028564D01*
X134651848Y-108391890D01*
X133258994Y-109812715D01*
X131808583Y-111292239D01*
X131109100Y-112005759D01*
X129877153Y-113262436D01*
X128658721Y-114505343D01*
X127455190Y-115733068D01*
X126267944Y-116944196D01*
X125098368Y-118137316D01*
X123947846Y-119311015D01*
X122817764Y-120463879D01*
X121709505Y-121594496D01*
X120624455Y-122701454D01*
X119563998Y-123783338D01*
X118529519Y-124838736D01*
X117522403Y-125866236D01*
X116544034Y-126864424D01*
X115595797Y-127831887D01*
X114679076Y-128767214D01*
X113795257Y-129668990D01*
X112945724Y-130535803D01*
X112131862Y-131366241D01*
X111355055Y-132158889D01*
X110616688Y-132912336D01*
X109918146Y-133625168D01*
X109260814Y-134295973D01*
X108646076Y-134923338D01*
X108075316Y-135505849D01*
X107549920Y-136042095D01*
X107071273Y-136530662D01*
X106640758Y-136970137D01*
X106259761Y-137359107D01*
X105929666Y-137696160D01*
X105651858Y-137979882D01*
X105427722Y-138208862D01*
X105258643Y-138381685D01*
X105146004Y-138496939D01*
X105091191Y-138553211D01*
X105090107Y-138554333D01*
X104780498Y-138884359D01*
X104453948Y-139248884D01*
X104129165Y-139626086D01*
X103824860Y-139994140D01*
X103559741Y-140331226D01*
X103508256Y-140399430D01*
X103175231Y-140884947D01*
X102905679Y-141371840D01*
X102692730Y-141877478D01*
X102529515Y-142419230D01*
X102409163Y-143014465D01*
X102371076Y-143274500D01*
X102342578Y-143572857D01*
X102325623Y-143936722D01*
X102319822Y-144347779D01*
X97095956Y-144347779D01*
X97233912Y-144035649D01*
X97483531Y-143534309D01*
X97766892Y-143022550D01*
X98088782Y-142492038D01*
X98453985Y-141934440D01*
X98867289Y-141341420D01*
X99333479Y-140704645D01*
X99724834Y-140187953D01*
X99755712Y-140148277D01*
X99790342Y-140105108D01*
X99829865Y-140057283D01*
X99875422Y-140003636D01*
X99928153Y-139943005D01*
X99989200Y-139874224D01*
X100059703Y-139796130D01*
X100140804Y-139707560D01*
X100233643Y-139607348D01*
X100339361Y-139494331D01*
X100459100Y-139367345D01*
X100594000Y-139225225D01*
X100745202Y-139066809D01*
X100913847Y-138890931D01*
X101101076Y-138696428D01*
X101308030Y-138482135D01*
X101535850Y-138246889D01*
X101785676Y-137989526D01*
X102058651Y-137708881D01*
X102355914Y-137403791D01*
X102678606Y-137073091D01*
X103027869Y-136715617D01*
X103404844Y-136330206D01*
X103810671Y-135915694D01*
X104246491Y-135470915D01*
X104713446Y-134994708D01*
X105212676Y-134485906D01*
X105745321Y-133943346D01*
X106312525Y-133365865D01*
X106915426Y-132752298D01*
X107555166Y-132101481D01*
X108232885Y-131412250D01*
X108949726Y-130683441D01*
X109706829Y-129913891D01*
X110505334Y-129102434D01*
X111346382Y-128247907D01*
X112231116Y-127349146D01*
X113160675Y-126404987D01*
X114136200Y-125414266D01*
X115158832Y-124375819D01*
X116229713Y-123288482D01*
X117349984Y-122151090D01*
X118520784Y-120962480D01*
X119743255Y-119721488D01*
X121018539Y-118426949D01*
X122347775Y-117077700D01*
X123732105Y-115672577D01*
X125172671Y-114210415D01*
X126670612Y-112690050D01*
X127915412Y-111426635D01*
X129196470Y-110126353D01*
X130463016Y-108840654D01*
X131713744Y-107570864D01*
X132947353Y-106318311D01*
X134162537Y-105084321D01*
X135357993Y-103870221D01*
X136532417Y-102677337D01*
X137684504Y-101506997D01*
X138812952Y-100360526D01*
X139916456Y-99239252D01*
X140993712Y-98144500D01*
X142043416Y-97077599D01*
X143064265Y-96039875D01*
X144054954Y-95032653D01*
X145014180Y-94057262D01*
X145940638Y-93115027D01*
X146833025Y-92207275D01*
X147690037Y-91335334D01*
X148510370Y-90500529D01*
X149292720Y-89704188D01*
X150035783Y-88947636D01*
X150738256Y-88232201D01*
X151398833Y-87559210D01*
X152016212Y-86929989D01*
X152589089Y-86345865D01*
X153116159Y-85808164D01*
X153596119Y-85318213D01*
X154027665Y-84877339D01*
X154409492Y-84486869D01*
X154740297Y-84148129D01*
X155018777Y-83862446D01*
X155243627Y-83631146D01*
X155413543Y-83455557D01*
X155527221Y-83337005D01*
X155583357Y-83276816D01*
X155589500Y-83269107D01*
X155619842Y-83219693D01*
X155704099Y-83125217D01*
X155832117Y-82995964D01*
X155993742Y-82842222D01*
X156161000Y-82690124D01*
X156732500Y-82180898D01*
X157278007Y-82128724D01*
X158102060Y-82023163D01*
X158861169Y-81869127D01*
X159561403Y-81664247D01*
X160208831Y-81406152D01*
X160809521Y-81092475D01*
X161369543Y-80720843D01*
X161821555Y-80354588D01*
X161925045Y-80257008D01*
X162074110Y-80107885D01*
X162257748Y-79918663D01*
X162464957Y-79700785D01*
X162684734Y-79465695D01*
X162875084Y-79258830D01*
X163313513Y-78790769D01*
X163712363Y-78390218D01*
X164070336Y-78058391D01*
X164386135Y-77796506D01*
X164593736Y-77647247D01*
X164691189Y-77572735D01*
X164719187Y-77525801D01*
X164706732Y-77514811D01*
X164640670Y-77495159D01*
X164516456Y-77460086D01*
X164357680Y-77416226D01*
X164310166Y-77403254D01*
X163971500Y-77311040D01*
X163675166Y-75668166D01*
X162978621Y-75529845D01*
X162282077Y-75391523D01*
X160911491Y-75839162D01*
X160586776Y-75944524D01*
X160287500Y-76040306D01*
X160023194Y-76123558D01*
X159803388Y-76191336D01*
X159637613Y-76240690D01*
X159535398Y-76268673D01*
X159506040Y-76273817D01*
X159469524Y-76245361D01*
X159372865Y-76166228D01*
X159220672Y-76040290D01*
X159017556Y-75871420D01*
X158768126Y-75663488D01*
X158476991Y-75420366D01*
X158148762Y-75145926D01*
X157788049Y-74844040D01*
X157399460Y-74518579D01*
X156987606Y-74173414D01*
X156557097Y-73812419D01*
X156112543Y-73439463D01*
X155658552Y-73058419D01*
X155199736Y-72673159D01*
X154740703Y-72287554D01*
X154286063Y-71905476D01*
X153840427Y-71530796D01*
X153408404Y-71167387D01*
X152994603Y-70819119D01*
X152603635Y-70489865D01*
X152240109Y-70183496D01*
X151908635Y-69903883D01*
X151613823Y-69654899D01*
X151360283Y-69440416D01*
X151152624Y-69264303D01*
X150995456Y-69130435D01*
X150893389Y-69042681D01*
X150851032Y-69004914D01*
X150850168Y-69003905D01*
X150884080Y-68983457D01*
X150990059Y-68940170D01*
X151159502Y-68876906D01*
X151383805Y-68796531D01*
X151654366Y-68701907D01*
X151962580Y-68595898D01*
X152299844Y-68481369D01*
X152657555Y-68361182D01*
X153027108Y-68238201D01*
X153399902Y-68115291D01*
X153767331Y-67995315D01*
X154120794Y-67881136D01*
X154451685Y-67775619D01*
X154751403Y-67681626D01*
X155011343Y-67602023D01*
X155222901Y-67539671D01*
X155371442Y-67498973D01*
X156062255Y-67340707D01*
X156760638Y-67218761D01*
X157474080Y-67133217D01*
X158210067Y-67084157D01*
X158976086Y-67071665D01*
X159779624Y-67095822D01*
X160628169Y-67156711D01*
X161529207Y-67254414D01*
X162490226Y-67389015D01*
X163518712Y-67560595D01*
X163685034Y-67590576D01*
X164541568Y-67746419D01*
X164874456Y-68193626D01*
X164987914Y-68348964D01*
X165138874Y-68559992D01*
X165317251Y-68812373D01*
X165512961Y-69091771D01*
X165715918Y-69383847D01*
X165916038Y-69674265D01*
X165918599Y-69678000D01*
X166201859Y-70089035D01*
X166447001Y-70439788D01*
X166662046Y-70740966D01*
X166855017Y-71003276D01*
X167033933Y-71237427D01*
X167206816Y-71454125D01*
X167381687Y-71664079D01*
X167566568Y-71877995D01*
X167567013Y-71878503D01*
X168071979Y-72403296D01*
X168626529Y-72887218D01*
X169214952Y-73318400D01*
X169821536Y-73684971D01*
X170223359Y-73885365D01*
X170536185Y-74027925D01*
X175166578Y-69501040D01*
X179796971Y-64974156D01*
X179971843Y-65149028D01*
G36*
X191280022Y-54486020D02*
G01*
X191481942Y-54523862D01*
X191656599Y-54562220D01*
X191785057Y-54596561D01*
X191847823Y-54621913D01*
X191890652Y-54657944D01*
X191991574Y-54744384D01*
X192144722Y-54876168D01*
X192344229Y-55048230D01*
X192584229Y-55255502D01*
X192858854Y-55492919D01*
X193162238Y-55755415D01*
X193488514Y-56037923D01*
X193773990Y-56285259D01*
X195636833Y-57899684D01*
X195770134Y-58733223D01*
X195903435Y-59566761D01*
X195234218Y-60616749D01*
X194565000Y-61666737D01*
X194497133Y-62253952D01*
X194470619Y-62479593D01*
X194445638Y-62685396D01*
X194424662Y-62851470D01*
X194410160Y-62957925D01*
X194407980Y-62972003D01*
X194386694Y-63102840D01*
X191167644Y-64111166D01*
X187744702Y-67543456D01*
X182513500Y-62310138D01*
X182894500Y-61939531D01*
X183011464Y-61825615D01*
X183179657Y-61661606D01*
X183389763Y-61456597D01*
X183632468Y-61219681D01*
X183898456Y-60959951D01*
X184178413Y-60686500D01*
X184463023Y-60408420D01*
X184498145Y-60374098D01*
X185720791Y-59179273D01*
X186321356Y-57708220D01*
X186921922Y-56237166D01*
X188336211Y-56237166D01*
X190775545Y-54399046D01*
X191280022Y-54486020D01*
X191280022Y-54486020D01*
G37*
X191280022Y-54486020D02*
X191481942Y-54523862D01*
X191656599Y-54562220D01*
X191785057Y-54596561D01*
X191847823Y-54621913D01*
X191890652Y-54657944D01*
X191991574Y-54744384D01*
X192144722Y-54876168D01*
X192344229Y-55048230D01*
X192584229Y-55255502D01*
X192858854Y-55492919D01*
X193162238Y-55755415D01*
X193488514Y-56037923D01*
X193773990Y-56285259D01*
X195636833Y-57899684D01*
X195770134Y-58733223D01*
X195903435Y-59566761D01*
X195234218Y-60616749D01*
X194565000Y-61666737D01*
X194497133Y-62253952D01*
X194470619Y-62479593D01*
X194445638Y-62685396D01*
X194424662Y-62851470D01*
X194410160Y-62957925D01*
X194407980Y-62972003D01*
X194386694Y-63102840D01*
X191167644Y-64111166D01*
X187744702Y-67543456D01*
X182513500Y-62310138D01*
X182894500Y-61939531D01*
X183011464Y-61825615D01*
X183179657Y-61661606D01*
X183389763Y-61456597D01*
X183632468Y-61219681D01*
X183898456Y-60959951D01*
X184178413Y-60686500D01*
X184463023Y-60408420D01*
X184498145Y-60374098D01*
X185720791Y-59179273D01*
X186321356Y-57708220D01*
X186921922Y-56237166D01*
X188336211Y-56237166D01*
X190775545Y-54399046D01*
X191280022Y-54486020D01*
G36*
X158213600Y-84124761D02*
G01*
X158222838Y-84143462D01*
X158256324Y-84180862D01*
X158346345Y-84270661D01*
X158487410Y-84407632D01*
X158674024Y-84586547D01*
X158900695Y-84802178D01*
X159161930Y-85049299D01*
X159452234Y-85322681D01*
X159766116Y-85617097D01*
X160061051Y-85892771D01*
X160390332Y-86201139D01*
X160699877Y-86493140D01*
X160984315Y-86763569D01*
X161238281Y-87007219D01*
X161456405Y-87218886D01*
X161633321Y-87393363D01*
X161763661Y-87525446D01*
X161842057Y-87609929D01*
X161863761Y-87640975D01*
X161881709Y-87699105D01*
X161939106Y-87754333D01*
X161988770Y-87795842D01*
X162091609Y-87887611D01*
X162240938Y-88023394D01*
X162430073Y-88196944D01*
X162652331Y-88402017D01*
X162901028Y-88632364D01*
X163169480Y-88881742D01*
X163451003Y-89143902D01*
X163738914Y-89412600D01*
X164026527Y-89681589D01*
X164307160Y-89944623D01*
X164574129Y-90195455D01*
X164820750Y-90427841D01*
X165040338Y-90635533D01*
X165226211Y-90812286D01*
X165371684Y-90951853D01*
X165470073Y-91047989D01*
X165514695Y-91094446D01*
X165516666Y-91097583D01*
X165481493Y-91120494D01*
X165442583Y-91125867D01*
X165390484Y-91138474D01*
X165266499Y-91173397D01*
X165079614Y-91227895D01*
X164838818Y-91299225D01*
X164553097Y-91384648D01*
X164231439Y-91481419D01*
X163882830Y-91586799D01*
X163516259Y-91698045D01*
X163140711Y-91812415D01*
X162765176Y-91927169D01*
X162398639Y-92039563D01*
X162050087Y-92146857D01*
X161728509Y-92246308D01*
X161442892Y-92335176D01*
X161202222Y-92410718D01*
X161015487Y-92470192D01*
X160891674Y-92510858D01*
X160839770Y-92529973D01*
X160839577Y-92530086D01*
X160761379Y-92557125D01*
X160733744Y-92561409D01*
X160676596Y-92575213D01*
X160550621Y-92610618D01*
X160367834Y-92664082D01*
X160140255Y-92732060D01*
X159879902Y-92811009D01*
X159695833Y-92867441D01*
X159387944Y-92962037D01*
X159021672Y-93074244D01*
X158619670Y-93197144D01*
X158204589Y-93323818D01*
X157799081Y-93447345D01*
X157452166Y-93552802D01*
X157133930Y-93649517D01*
X156837399Y-93739819D01*
X156573481Y-93820373D01*
X156353084Y-93887842D01*
X156187115Y-93938891D01*
X156086481Y-93970184D01*
X156065750Y-93976821D01*
X155983249Y-94001643D01*
X155950152Y-94006881D01*
X155959575Y-93965292D01*
X155977664Y-93886575D01*
X156076111Y-93886575D01*
X156076570Y-93892666D01*
X156121256Y-93880652D01*
X156239458Y-93846104D01*
X156423728Y-93791267D01*
X156666623Y-93718383D01*
X156960696Y-93629697D01*
X157298502Y-93527451D01*
X157672595Y-93413889D01*
X158075530Y-93291255D01*
X158323714Y-93215572D01*
X158742071Y-93087741D01*
X159137403Y-92966633D01*
X159502047Y-92854614D01*
X159828343Y-92754053D01*
X160108630Y-92667319D01*
X160335247Y-92596780D01*
X160500532Y-92544805D01*
X160596825Y-92513761D01*
X160617867Y-92506355D01*
X160624025Y-92489690D01*
X160604311Y-92452233D01*
X160576441Y-92417252D01*
X160735362Y-92417252D01*
X160742674Y-92430565D01*
X160767602Y-92435509D01*
X160816078Y-92430591D01*
X160894034Y-92414319D01*
X161007400Y-92385200D01*
X161162108Y-92341741D01*
X161364090Y-92282450D01*
X161619277Y-92205833D01*
X161933601Y-92110397D01*
X162312993Y-91994650D01*
X162763385Y-91857100D01*
X163124833Y-91746812D01*
X163536373Y-91621100D01*
X163923943Y-91502273D01*
X164279898Y-91392703D01*
X164596594Y-91294767D01*
X164866387Y-91210836D01*
X165081631Y-91143286D01*
X165234682Y-91094489D01*
X165317896Y-91066821D01*
X165330638Y-91061831D01*
X165307679Y-91030142D01*
X165229216Y-90947255D01*
X165101907Y-90819452D01*
X164932413Y-90653015D01*
X164727394Y-90454226D01*
X164493510Y-90229367D01*
X164237421Y-89984720D01*
X163965786Y-89726567D01*
X163685266Y-89461191D01*
X163402520Y-89194872D01*
X163124209Y-88933894D01*
X162856993Y-88684539D01*
X162607530Y-88453087D01*
X162382482Y-88245822D01*
X162188508Y-88069026D01*
X162032269Y-87928980D01*
X161920423Y-87831966D01*
X161859632Y-87784267D01*
X161851819Y-87780405D01*
X161836019Y-87819485D01*
X161803309Y-87933615D01*
X161755545Y-88115287D01*
X161694582Y-88356990D01*
X161622275Y-88651214D01*
X161540480Y-88990449D01*
X161451052Y-89367186D01*
X161355847Y-89773914D01*
X161303928Y-89998000D01*
X161205917Y-90422279D01*
X161112903Y-90824484D01*
X161026761Y-91196532D01*
X160949369Y-91530341D01*
X160882601Y-91817828D01*
X160828334Y-92050912D01*
X160788445Y-92221509D01*
X160764809Y-92321538D01*
X160759809Y-92342030D01*
X160749861Y-92371492D01*
X160739735Y-92397063D01*
X160735362Y-92417252D01*
X160576441Y-92417252D01*
X160554778Y-92390063D01*
X160471478Y-92299256D01*
X160350465Y-92175891D01*
X160187790Y-92016046D01*
X159979506Y-91815797D01*
X159721667Y-91571224D01*
X159410324Y-91278404D01*
X159041530Y-90933413D01*
X158931389Y-90830622D01*
X158607144Y-90528881D01*
X158301430Y-90245824D01*
X158019809Y-89986506D01*
X157767848Y-89755983D01*
X157551109Y-89559308D01*
X157375159Y-89401537D01*
X157245560Y-89287725D01*
X157167879Y-89222926D01*
X157146963Y-89209592D01*
X157131898Y-89255300D01*
X157100723Y-89373814D01*
X157055479Y-89556205D01*
X156998207Y-89793545D01*
X156930947Y-90076908D01*
X156855739Y-90397366D01*
X156774624Y-90745990D01*
X156689644Y-91113854D01*
X156602837Y-91492029D01*
X156516245Y-91871588D01*
X156431909Y-92243604D01*
X156351868Y-92599149D01*
X156278164Y-92929295D01*
X156212837Y-93225114D01*
X156157928Y-93477679D01*
X156115477Y-93678063D01*
X156087524Y-93817337D01*
X156076111Y-93886575D01*
X155977664Y-93886575D01*
X155986428Y-93848439D01*
X156029044Y-93663542D01*
X156085755Y-93417820D01*
X156154894Y-93118495D01*
X156234793Y-92772787D01*
X156323783Y-92387915D01*
X156420198Y-91971100D01*
X156514323Y-91564333D01*
X156615617Y-91124132D01*
X156710051Y-90708829D01*
X156796049Y-90325687D01*
X156872035Y-89981969D01*
X156936432Y-89684938D01*
X156987665Y-89441858D01*
X157024158Y-89259990D01*
X157044334Y-89146600D01*
X157047126Y-89109000D01*
X157051712Y-89065947D01*
X157051760Y-89065690D01*
X157206899Y-89065690D01*
X157230720Y-89099253D01*
X157311278Y-89185085D01*
X157443167Y-89317950D01*
X157620984Y-89492610D01*
X157839324Y-89703829D01*
X158092782Y-89946369D01*
X158375954Y-90214993D01*
X158683436Y-90504464D01*
X158921399Y-90727105D01*
X159316091Y-91094616D01*
X159653158Y-91406595D01*
X159936084Y-91666111D01*
X160168356Y-91876232D01*
X160353455Y-92040026D01*
X160494869Y-92160564D01*
X160596080Y-92240913D01*
X160660573Y-92284142D01*
X160691834Y-92293321D01*
X160695425Y-92289471D01*
X160709581Y-92236213D01*
X160740841Y-92108210D01*
X160787377Y-91913243D01*
X160847366Y-91659090D01*
X160918980Y-91353530D01*
X161000394Y-91004343D01*
X161089783Y-90619308D01*
X161185320Y-90206205D01*
X161240950Y-89964970D01*
X161338051Y-89541543D01*
X161428524Y-89143288D01*
X161510710Y-88777758D01*
X161582952Y-88452506D01*
X161643594Y-88175084D01*
X161690979Y-87953046D01*
X161723448Y-87793944D01*
X161739345Y-87705330D01*
X161740299Y-87689187D01*
X161697513Y-87697453D01*
X161582754Y-87728123D01*
X161404906Y-87778501D01*
X161172856Y-87845888D01*
X160895490Y-87927586D01*
X160581692Y-88020897D01*
X160240350Y-88123123D01*
X159880348Y-88231566D01*
X159510572Y-88343528D01*
X159139908Y-88456311D01*
X158777242Y-88567217D01*
X158431459Y-88673549D01*
X158111446Y-88772607D01*
X157826087Y-88861693D01*
X157584269Y-88938111D01*
X157394878Y-88999162D01*
X157266798Y-89042147D01*
X157208917Y-89064370D01*
X157206899Y-89065690D01*
X157051760Y-89065690D01*
X157073634Y-88949161D01*
X157076318Y-88936067D01*
X157134666Y-88936067D01*
X157153033Y-88980149D01*
X157160194Y-88982000D01*
X157204325Y-88969968D01*
X157321991Y-88935367D01*
X157505779Y-88880437D01*
X157748273Y-88807420D01*
X158042059Y-88718557D01*
X158379723Y-88616088D01*
X158753851Y-88502255D01*
X159157028Y-88379299D01*
X159414444Y-88300656D01*
X159832861Y-88172509D01*
X160227560Y-88051177D01*
X160590999Y-87939009D01*
X160915641Y-87838352D01*
X161193945Y-87751556D01*
X161418370Y-87680968D01*
X161581377Y-87628938D01*
X161675427Y-87597812D01*
X161695589Y-87590166D01*
X161677161Y-87555046D01*
X161597513Y-87465002D01*
X161458379Y-87321730D01*
X161261489Y-87126922D01*
X161008576Y-86882274D01*
X160701372Y-86589481D01*
X160341609Y-86250237D01*
X159983401Y-85915075D01*
X159607868Y-85565038D01*
X159289295Y-85268852D01*
X159022912Y-85022419D01*
X158803948Y-84821644D01*
X158627633Y-84662431D01*
X158489197Y-84540683D01*
X158383869Y-84452303D01*
X158306878Y-84393197D01*
X158253455Y-84359267D01*
X158218829Y-84346416D01*
X158198229Y-84350550D01*
X158186885Y-84367572D01*
X158185579Y-84371315D01*
X158169063Y-84433865D01*
X158136303Y-84568075D01*
X158089422Y-84764721D01*
X158030543Y-85014581D01*
X157961790Y-85308431D01*
X157885285Y-85637051D01*
X157803152Y-85991216D01*
X157717514Y-86361704D01*
X157630494Y-86739293D01*
X157544216Y-87114760D01*
X157460803Y-87478883D01*
X157382378Y-87822438D01*
X157311064Y-88136203D01*
X157248986Y-88410955D01*
X157198265Y-88637473D01*
X157161025Y-88806533D01*
X157139390Y-88908912D01*
X157134666Y-88936067D01*
X157076318Y-88936067D01*
X157110914Y-88767342D01*
X157161575Y-88529190D01*
X157223640Y-88243406D01*
X157295132Y-87918690D01*
X157374074Y-87563743D01*
X157458489Y-87187266D01*
X157546400Y-86797960D01*
X157635830Y-86404524D01*
X157724801Y-86015660D01*
X157811336Y-85640069D01*
X157893459Y-85286450D01*
X157969192Y-84963505D01*
X158036558Y-84679934D01*
X158093580Y-84444438D01*
X158138281Y-84265717D01*
X158168684Y-84152473D01*
X158182248Y-84113666D01*
X158213600Y-84124761D01*
X158213600Y-84124761D01*
G37*
X158213600Y-84124761D02*
X158222838Y-84143462D01*
X158256324Y-84180862D01*
X158346345Y-84270661D01*
X158487410Y-84407632D01*
X158674024Y-84586547D01*
X158900695Y-84802178D01*
X159161930Y-85049299D01*
X159452234Y-85322681D01*
X159766116Y-85617097D01*
X160061051Y-85892771D01*
X160390332Y-86201139D01*
X160699877Y-86493140D01*
X160984315Y-86763569D01*
X161238281Y-87007219D01*
X161456405Y-87218886D01*
X161633321Y-87393363D01*
X161763661Y-87525446D01*
X161842057Y-87609929D01*
X161863761Y-87640975D01*
X161881709Y-87699105D01*
X161939106Y-87754333D01*
X161988770Y-87795842D01*
X162091609Y-87887611D01*
X162240938Y-88023394D01*
X162430073Y-88196944D01*
X162652331Y-88402017D01*
X162901028Y-88632364D01*
X163169480Y-88881742D01*
X163451003Y-89143902D01*
X163738914Y-89412600D01*
X164026527Y-89681589D01*
X164307160Y-89944623D01*
X164574129Y-90195455D01*
X164820750Y-90427841D01*
X165040338Y-90635533D01*
X165226211Y-90812286D01*
X165371684Y-90951853D01*
X165470073Y-91047989D01*
X165514695Y-91094446D01*
X165516666Y-91097583D01*
X165481493Y-91120494D01*
X165442583Y-91125867D01*
X165390484Y-91138474D01*
X165266499Y-91173397D01*
X165079614Y-91227895D01*
X164838818Y-91299225D01*
X164553097Y-91384648D01*
X164231439Y-91481419D01*
X163882830Y-91586799D01*
X163516259Y-91698045D01*
X163140711Y-91812415D01*
X162765176Y-91927169D01*
X162398639Y-92039563D01*
X162050087Y-92146857D01*
X161728509Y-92246308D01*
X161442892Y-92335176D01*
X161202222Y-92410718D01*
X161015487Y-92470192D01*
X160891674Y-92510858D01*
X160839770Y-92529973D01*
X160839577Y-92530086D01*
X160761379Y-92557125D01*
X160733744Y-92561409D01*
X160676596Y-92575213D01*
X160550621Y-92610618D01*
X160367834Y-92664082D01*
X160140255Y-92732060D01*
X159879902Y-92811009D01*
X159695833Y-92867441D01*
X159387944Y-92962037D01*
X159021672Y-93074244D01*
X158619670Y-93197144D01*
X158204589Y-93323818D01*
X157799081Y-93447345D01*
X157452166Y-93552802D01*
X157133930Y-93649517D01*
X156837399Y-93739819D01*
X156573481Y-93820373D01*
X156353084Y-93887842D01*
X156187115Y-93938891D01*
X156086481Y-93970184D01*
X156065750Y-93976821D01*
X155983249Y-94001643D01*
X155950152Y-94006881D01*
X155959575Y-93965292D01*
X155977664Y-93886575D01*
X156076111Y-93886575D01*
X156076570Y-93892666D01*
X156121256Y-93880652D01*
X156239458Y-93846104D01*
X156423728Y-93791267D01*
X156666623Y-93718383D01*
X156960696Y-93629697D01*
X157298502Y-93527451D01*
X157672595Y-93413889D01*
X158075530Y-93291255D01*
X158323714Y-93215572D01*
X158742071Y-93087741D01*
X159137403Y-92966633D01*
X159502047Y-92854614D01*
X159828343Y-92754053D01*
X160108630Y-92667319D01*
X160335247Y-92596780D01*
X160500532Y-92544805D01*
X160596825Y-92513761D01*
X160617867Y-92506355D01*
X160624025Y-92489690D01*
X160604311Y-92452233D01*
X160576441Y-92417252D01*
X160735362Y-92417252D01*
X160742674Y-92430565D01*
X160767602Y-92435509D01*
X160816078Y-92430591D01*
X160894034Y-92414319D01*
X161007400Y-92385200D01*
X161162108Y-92341741D01*
X161364090Y-92282450D01*
X161619277Y-92205833D01*
X161933601Y-92110397D01*
X162312993Y-91994650D01*
X162763385Y-91857100D01*
X163124833Y-91746812D01*
X163536373Y-91621100D01*
X163923943Y-91502273D01*
X164279898Y-91392703D01*
X164596594Y-91294767D01*
X164866387Y-91210836D01*
X165081631Y-91143286D01*
X165234682Y-91094489D01*
X165317896Y-91066821D01*
X165330638Y-91061831D01*
X165307679Y-91030142D01*
X165229216Y-90947255D01*
X165101907Y-90819452D01*
X164932413Y-90653015D01*
X164727394Y-90454226D01*
X164493510Y-90229367D01*
X164237421Y-89984720D01*
X163965786Y-89726567D01*
X163685266Y-89461191D01*
X163402520Y-89194872D01*
X163124209Y-88933894D01*
X162856993Y-88684539D01*
X162607530Y-88453087D01*
X162382482Y-88245822D01*
X162188508Y-88069026D01*
X162032269Y-87928980D01*
X161920423Y-87831966D01*
X161859632Y-87784267D01*
X161851819Y-87780405D01*
X161836019Y-87819485D01*
X161803309Y-87933615D01*
X161755545Y-88115287D01*
X161694582Y-88356990D01*
X161622275Y-88651214D01*
X161540480Y-88990449D01*
X161451052Y-89367186D01*
X161355847Y-89773914D01*
X161303928Y-89998000D01*
X161205917Y-90422279D01*
X161112903Y-90824484D01*
X161026761Y-91196532D01*
X160949369Y-91530341D01*
X160882601Y-91817828D01*
X160828334Y-92050912D01*
X160788445Y-92221509D01*
X160764809Y-92321538D01*
X160759809Y-92342030D01*
X160749861Y-92371492D01*
X160739735Y-92397063D01*
X160735362Y-92417252D01*
X160576441Y-92417252D01*
X160554778Y-92390063D01*
X160471478Y-92299256D01*
X160350465Y-92175891D01*
X160187790Y-92016046D01*
X159979506Y-91815797D01*
X159721667Y-91571224D01*
X159410324Y-91278404D01*
X159041530Y-90933413D01*
X158931389Y-90830622D01*
X158607144Y-90528881D01*
X158301430Y-90245824D01*
X158019809Y-89986506D01*
X157767848Y-89755983D01*
X157551109Y-89559308D01*
X157375159Y-89401537D01*
X157245560Y-89287725D01*
X157167879Y-89222926D01*
X157146963Y-89209592D01*
X157131898Y-89255300D01*
X157100723Y-89373814D01*
X157055479Y-89556205D01*
X156998207Y-89793545D01*
X156930947Y-90076908D01*
X156855739Y-90397366D01*
X156774624Y-90745990D01*
X156689644Y-91113854D01*
X156602837Y-91492029D01*
X156516245Y-91871588D01*
X156431909Y-92243604D01*
X156351868Y-92599149D01*
X156278164Y-92929295D01*
X156212837Y-93225114D01*
X156157928Y-93477679D01*
X156115477Y-93678063D01*
X156087524Y-93817337D01*
X156076111Y-93886575D01*
X155977664Y-93886575D01*
X155986428Y-93848439D01*
X156029044Y-93663542D01*
X156085755Y-93417820D01*
X156154894Y-93118495D01*
X156234793Y-92772787D01*
X156323783Y-92387915D01*
X156420198Y-91971100D01*
X156514323Y-91564333D01*
X156615617Y-91124132D01*
X156710051Y-90708829D01*
X156796049Y-90325687D01*
X156872035Y-89981969D01*
X156936432Y-89684938D01*
X156987665Y-89441858D01*
X157024158Y-89259990D01*
X157044334Y-89146600D01*
X157047126Y-89109000D01*
X157051712Y-89065947D01*
X157051760Y-89065690D01*
X157206899Y-89065690D01*
X157230720Y-89099253D01*
X157311278Y-89185085D01*
X157443167Y-89317950D01*
X157620984Y-89492610D01*
X157839324Y-89703829D01*
X158092782Y-89946369D01*
X158375954Y-90214993D01*
X158683436Y-90504464D01*
X158921399Y-90727105D01*
X159316091Y-91094616D01*
X159653158Y-91406595D01*
X159936084Y-91666111D01*
X160168356Y-91876232D01*
X160353455Y-92040026D01*
X160494869Y-92160564D01*
X160596080Y-92240913D01*
X160660573Y-92284142D01*
X160691834Y-92293321D01*
X160695425Y-92289471D01*
X160709581Y-92236213D01*
X160740841Y-92108210D01*
X160787377Y-91913243D01*
X160847366Y-91659090D01*
X160918980Y-91353530D01*
X161000394Y-91004343D01*
X161089783Y-90619308D01*
X161185320Y-90206205D01*
X161240950Y-89964970D01*
X161338051Y-89541543D01*
X161428524Y-89143288D01*
X161510710Y-88777758D01*
X161582952Y-88452506D01*
X161643594Y-88175084D01*
X161690979Y-87953046D01*
X161723448Y-87793944D01*
X161739345Y-87705330D01*
X161740299Y-87689187D01*
X161697513Y-87697453D01*
X161582754Y-87728123D01*
X161404906Y-87778501D01*
X161172856Y-87845888D01*
X160895490Y-87927586D01*
X160581692Y-88020897D01*
X160240350Y-88123123D01*
X159880348Y-88231566D01*
X159510572Y-88343528D01*
X159139908Y-88456311D01*
X158777242Y-88567217D01*
X158431459Y-88673549D01*
X158111446Y-88772607D01*
X157826087Y-88861693D01*
X157584269Y-88938111D01*
X157394878Y-88999162D01*
X157266798Y-89042147D01*
X157208917Y-89064370D01*
X157206899Y-89065690D01*
X157051760Y-89065690D01*
X157073634Y-88949161D01*
X157076318Y-88936067D01*
X157134666Y-88936067D01*
X157153033Y-88980149D01*
X157160194Y-88982000D01*
X157204325Y-88969968D01*
X157321991Y-88935367D01*
X157505779Y-88880437D01*
X157748273Y-88807420D01*
X158042059Y-88718557D01*
X158379723Y-88616088D01*
X158753851Y-88502255D01*
X159157028Y-88379299D01*
X159414444Y-88300656D01*
X159832861Y-88172509D01*
X160227560Y-88051177D01*
X160590999Y-87939009D01*
X160915641Y-87838352D01*
X161193945Y-87751556D01*
X161418370Y-87680968D01*
X161581377Y-87628938D01*
X161675427Y-87597812D01*
X161695589Y-87590166D01*
X161677161Y-87555046D01*
X161597513Y-87465002D01*
X161458379Y-87321730D01*
X161261489Y-87126922D01*
X161008576Y-86882274D01*
X160701372Y-86589481D01*
X160341609Y-86250237D01*
X159983401Y-85915075D01*
X159607868Y-85565038D01*
X159289295Y-85268852D01*
X159022912Y-85022419D01*
X158803948Y-84821644D01*
X158627633Y-84662431D01*
X158489197Y-84540683D01*
X158383869Y-84452303D01*
X158306878Y-84393197D01*
X158253455Y-84359267D01*
X158218829Y-84346416D01*
X158198229Y-84350550D01*
X158186885Y-84367572D01*
X158185579Y-84371315D01*
X158169063Y-84433865D01*
X158136303Y-84568075D01*
X158089422Y-84764721D01*
X158030543Y-85014581D01*
X157961790Y-85308431D01*
X157885285Y-85637051D01*
X157803152Y-85991216D01*
X157717514Y-86361704D01*
X157630494Y-86739293D01*
X157544216Y-87114760D01*
X157460803Y-87478883D01*
X157382378Y-87822438D01*
X157311064Y-88136203D01*
X157248986Y-88410955D01*
X157198265Y-88637473D01*
X157161025Y-88806533D01*
X157139390Y-88908912D01*
X157134666Y-88936067D01*
X157076318Y-88936067D01*
X157110914Y-88767342D01*
X157161575Y-88529190D01*
X157223640Y-88243406D01*
X157295132Y-87918690D01*
X157374074Y-87563743D01*
X157458489Y-87187266D01*
X157546400Y-86797960D01*
X157635830Y-86404524D01*
X157724801Y-86015660D01*
X157811336Y-85640069D01*
X157893459Y-85286450D01*
X157969192Y-84963505D01*
X158036558Y-84679934D01*
X158093580Y-84444438D01*
X158138281Y-84265717D01*
X158168684Y-84152473D01*
X158182248Y-84113666D01*
X158213600Y-84124761D01*
G36*
X157232905Y-89391824D02*
G01*
X157319800Y-89461091D01*
X157446470Y-89570196D01*
X157602100Y-89709911D01*
X157712810Y-89811973D01*
X158209207Y-90274240D01*
X158646658Y-90681878D01*
X159028294Y-91037830D01*
X159357248Y-91345041D01*
X159636651Y-91606456D01*
X159869634Y-91825019D01*
X160059330Y-92003673D01*
X160208870Y-92145364D01*
X160321386Y-92253035D01*
X160400010Y-92329632D01*
X160447874Y-92378097D01*
X160468109Y-92401377D01*
X160469138Y-92403333D01*
X160433289Y-92424397D01*
X160325509Y-92467287D01*
X160154849Y-92529112D01*
X159930354Y-92606980D01*
X159661075Y-92697997D01*
X159356058Y-92799272D01*
X159024353Y-92907911D01*
X158675006Y-93021023D01*
X158317066Y-93135715D01*
X157959581Y-93249094D01*
X157611600Y-93358269D01*
X157282170Y-93460345D01*
X156980339Y-93552432D01*
X156715155Y-93631636D01*
X156495668Y-93695066D01*
X156330924Y-93739827D01*
X156229971Y-93763029D01*
X156207564Y-93765666D01*
X156173635Y-93733728D01*
X156178135Y-93691583D01*
X156191864Y-93636915D01*
X156222694Y-93507821D01*
X156268737Y-93312383D01*
X156328107Y-93058686D01*
X156398918Y-92754812D01*
X156479285Y-92408845D01*
X156567320Y-92028870D01*
X156661138Y-91622969D01*
X156688368Y-91504980D01*
X156783187Y-91095322D01*
X156872718Y-90711051D01*
X156955096Y-90359991D01*
X157028459Y-90049965D01*
X157090941Y-89788796D01*
X157140681Y-89584307D01*
X157175814Y-89444322D01*
X157194476Y-89376663D01*
X157196601Y-89371620D01*
X157232905Y-89391824D01*
X157232905Y-89391824D01*
G37*
X157232905Y-89391824D02*
X157319800Y-89461091D01*
X157446470Y-89570196D01*
X157602100Y-89709911D01*
X157712810Y-89811973D01*
X158209207Y-90274240D01*
X158646658Y-90681878D01*
X159028294Y-91037830D01*
X159357248Y-91345041D01*
X159636651Y-91606456D01*
X159869634Y-91825019D01*
X160059330Y-92003673D01*
X160208870Y-92145364D01*
X160321386Y-92253035D01*
X160400010Y-92329632D01*
X160447874Y-92378097D01*
X160468109Y-92401377D01*
X160469138Y-92403333D01*
X160433289Y-92424397D01*
X160325509Y-92467287D01*
X160154849Y-92529112D01*
X159930354Y-92606980D01*
X159661075Y-92697997D01*
X159356058Y-92799272D01*
X159024353Y-92907911D01*
X158675006Y-93021023D01*
X158317066Y-93135715D01*
X157959581Y-93249094D01*
X157611600Y-93358269D01*
X157282170Y-93460345D01*
X156980339Y-93552432D01*
X156715155Y-93631636D01*
X156495668Y-93695066D01*
X156330924Y-93739827D01*
X156229971Y-93763029D01*
X156207564Y-93765666D01*
X156173635Y-93733728D01*
X156178135Y-93691583D01*
X156191864Y-93636915D01*
X156222694Y-93507821D01*
X156268737Y-93312383D01*
X156328107Y-93058686D01*
X156398918Y-92754812D01*
X156479285Y-92408845D01*
X156567320Y-92028870D01*
X156661138Y-91622969D01*
X156688368Y-91504980D01*
X156783187Y-91095322D01*
X156872718Y-90711051D01*
X156955096Y-90359991D01*
X157028459Y-90049965D01*
X157090941Y-89788796D01*
X157140681Y-89584307D01*
X157175814Y-89444322D01*
X157194476Y-89376663D01*
X157196601Y-89371620D01*
X157232905Y-89391824D01*
G36*
X161934239Y-87994861D02*
G01*
X162025290Y-88070497D01*
X162166932Y-88194013D01*
X162353607Y-88360358D01*
X162579761Y-88564484D01*
X162839837Y-88801342D01*
X163128279Y-89065884D01*
X163439530Y-89353061D01*
X163768035Y-89657823D01*
X164108237Y-89975124D01*
X164260041Y-90117258D01*
X164490603Y-90335516D01*
X164697861Y-90535810D01*
X164874539Y-90710780D01*
X165013364Y-90853065D01*
X165107062Y-90955304D01*
X165148357Y-91010136D01*
X165149041Y-91016809D01*
X165099909Y-91038289D01*
X164979303Y-91080856D01*
X164796923Y-91141524D01*
X164562467Y-91217310D01*
X164285636Y-91305231D01*
X163976129Y-91402301D01*
X163643644Y-91505538D01*
X163297881Y-91611956D01*
X162948540Y-91718572D01*
X162605320Y-91822401D01*
X162277920Y-91920460D01*
X161976039Y-92009764D01*
X161709378Y-92087330D01*
X161487634Y-92150173D01*
X161320508Y-92195309D01*
X161308311Y-92198444D01*
X161122978Y-92245035D01*
X161004594Y-92271633D01*
X160938281Y-92279993D01*
X160909162Y-92271870D01*
X160902359Y-92249018D01*
X160902333Y-92246326D01*
X160911762Y-92173519D01*
X160938555Y-92030339D01*
X160980470Y-91826395D01*
X161035267Y-91571294D01*
X161100705Y-91274644D01*
X161174541Y-90946055D01*
X161254535Y-90595135D01*
X161338445Y-90231491D01*
X161424030Y-89864732D01*
X161509050Y-89504466D01*
X161591262Y-89160302D01*
X161668425Y-88841848D01*
X161738299Y-88558711D01*
X161798642Y-88320502D01*
X161847212Y-88136826D01*
X161881769Y-88017294D01*
X161899334Y-87972151D01*
X161934239Y-87994861D01*
X161934239Y-87994861D01*
G37*
X161934239Y-87994861D02*
X162025290Y-88070497D01*
X162166932Y-88194013D01*
X162353607Y-88360358D01*
X162579761Y-88564484D01*
X162839837Y-88801342D01*
X163128279Y-89065884D01*
X163439530Y-89353061D01*
X163768035Y-89657823D01*
X164108237Y-89975124D01*
X164260041Y-90117258D01*
X164490603Y-90335516D01*
X164697861Y-90535810D01*
X164874539Y-90710780D01*
X165013364Y-90853065D01*
X165107062Y-90955304D01*
X165148357Y-91010136D01*
X165149041Y-91016809D01*
X165099909Y-91038289D01*
X164979303Y-91080856D01*
X164796923Y-91141524D01*
X164562467Y-91217310D01*
X164285636Y-91305231D01*
X163976129Y-91402301D01*
X163643644Y-91505538D01*
X163297881Y-91611956D01*
X162948540Y-91718572D01*
X162605320Y-91822401D01*
X162277920Y-91920460D01*
X161976039Y-92009764D01*
X161709378Y-92087330D01*
X161487634Y-92150173D01*
X161320508Y-92195309D01*
X161308311Y-92198444D01*
X161122978Y-92245035D01*
X161004594Y-92271633D01*
X160938281Y-92279993D01*
X160909162Y-92271870D01*
X160902359Y-92249018D01*
X160902333Y-92246326D01*
X160911762Y-92173519D01*
X160938555Y-92030339D01*
X160980470Y-91826395D01*
X161035267Y-91571294D01*
X161100705Y-91274644D01*
X161174541Y-90946055D01*
X161254535Y-90595135D01*
X161338445Y-90231491D01*
X161424030Y-89864732D01*
X161509050Y-89504466D01*
X161591262Y-89160302D01*
X161668425Y-88841848D01*
X161738299Y-88558711D01*
X161798642Y-88320502D01*
X161847212Y-88136826D01*
X161881769Y-88017294D01*
X161899334Y-87972151D01*
X161934239Y-87994861D01*
G36*
X158295760Y-84514552D02*
G01*
X158324147Y-84530635D01*
X158370748Y-84565076D01*
X158439425Y-84621372D01*
X158534044Y-84703021D01*
X158658467Y-84813522D01*
X158816561Y-84956373D01*
X159012188Y-85135072D01*
X159249212Y-85353117D01*
X159531499Y-85614007D01*
X159862912Y-85921239D01*
X160247316Y-86278312D01*
X160688574Y-86688723D01*
X160826359Y-86816948D01*
X161033903Y-87011989D01*
X161217865Y-87188482D01*
X161370001Y-87338219D01*
X161482068Y-87452991D01*
X161545820Y-87524588D01*
X161557235Y-87544713D01*
X161505370Y-87576540D01*
X161442708Y-87595579D01*
X161382436Y-87612148D01*
X161250311Y-87650830D01*
X161055417Y-87708893D01*
X160806841Y-87783601D01*
X160513667Y-87872220D01*
X160184981Y-87972016D01*
X159829866Y-88080256D01*
X159674666Y-88127685D01*
X159300476Y-88241493D01*
X158939705Y-88350019D01*
X158603043Y-88450134D01*
X158301176Y-88538711D01*
X158044793Y-88612620D01*
X157844582Y-88668733D01*
X157711232Y-88703920D01*
X157685000Y-88710122D01*
X157530020Y-88749137D01*
X157409193Y-88787668D01*
X157344917Y-88818391D01*
X157341041Y-88822590D01*
X157302516Y-88837163D01*
X157286991Y-88819395D01*
X157288776Y-88766987D01*
X157308610Y-88641914D01*
X157344296Y-88453698D01*
X157393634Y-88211860D01*
X157454424Y-87925919D01*
X157524468Y-87605397D01*
X157601565Y-87259814D01*
X157683516Y-86898691D01*
X157768123Y-86531549D01*
X157853185Y-86167909D01*
X157936504Y-85817291D01*
X158015879Y-85489216D01*
X158089113Y-85193205D01*
X158154004Y-84938779D01*
X158208355Y-84735458D01*
X158249965Y-84592762D01*
X158276635Y-84520214D01*
X158281721Y-84513327D01*
X158295760Y-84514552D01*
X158295760Y-84514552D01*
G37*
X158295760Y-84514552D02*
X158324147Y-84530635D01*
X158370748Y-84565076D01*
X158439425Y-84621372D01*
X158534044Y-84703021D01*
X158658467Y-84813522D01*
X158816561Y-84956373D01*
X159012188Y-85135072D01*
X159249212Y-85353117D01*
X159531499Y-85614007D01*
X159862912Y-85921239D01*
X160247316Y-86278312D01*
X160688574Y-86688723D01*
X160826359Y-86816948D01*
X161033903Y-87011989D01*
X161217865Y-87188482D01*
X161370001Y-87338219D01*
X161482068Y-87452991D01*
X161545820Y-87524588D01*
X161557235Y-87544713D01*
X161505370Y-87576540D01*
X161442708Y-87595579D01*
X161382436Y-87612148D01*
X161250311Y-87650830D01*
X161055417Y-87708893D01*
X160806841Y-87783601D01*
X160513667Y-87872220D01*
X160184981Y-87972016D01*
X159829866Y-88080256D01*
X159674666Y-88127685D01*
X159300476Y-88241493D01*
X158939705Y-88350019D01*
X158603043Y-88450134D01*
X158301176Y-88538711D01*
X158044793Y-88612620D01*
X157844582Y-88668733D01*
X157711232Y-88703920D01*
X157685000Y-88710122D01*
X157530020Y-88749137D01*
X157409193Y-88787668D01*
X157344917Y-88818391D01*
X157341041Y-88822590D01*
X157302516Y-88837163D01*
X157286991Y-88819395D01*
X157288776Y-88766987D01*
X157308610Y-88641914D01*
X157344296Y-88453698D01*
X157393634Y-88211860D01*
X157454424Y-87925919D01*
X157524468Y-87605397D01*
X157601565Y-87259814D01*
X157683516Y-86898691D01*
X157768123Y-86531549D01*
X157853185Y-86167909D01*
X157936504Y-85817291D01*
X158015879Y-85489216D01*
X158089113Y-85193205D01*
X158154004Y-84938779D01*
X158208355Y-84735458D01*
X158249965Y-84592762D01*
X158276635Y-84520214D01*
X158281721Y-84513327D01*
X158295760Y-84514552D01*
D11*
X104410000Y-142090000D03*
D12*
X104410000Y-142090000D02*
X104410000Y-142090000D01*
D11*
X106206052Y-140293949D03*
D12*
X106206052Y-140293949D02*
X106206052Y-140293949D01*
D11*
X106206052Y-143886051D03*
D12*
X106206052Y-143886051D02*
X106206052Y-143886051D01*
D11*
X108002103Y-142090000D03*
D12*
X108002103Y-142090000D02*
X108002103Y-142090000D01*
D11*
X108002103Y-145682102D03*
D12*
X108002103Y-145682102D02*
X108002103Y-145682102D01*
D11*
X109798154Y-143886051D03*
D13*
G36*
X109798154Y-142683969D02*
G01*
X111000236Y-143886051D01*
X109798154Y-145088133D01*
X108596072Y-143886051D01*
X109798154Y-142683969D01*
X109798154Y-142683969D01*
G37*
D11*
X132490000Y-121100000D03*
D13*
G36*
X132490000Y-119897918D02*
G01*
X133692082Y-121100000D01*
X132490000Y-122302082D01*
X131287918Y-121100000D01*
X132490000Y-119897918D01*
X132490000Y-119897918D01*
G37*
D11*
X130693949Y-122896051D03*
D12*
X130693949Y-122896051D02*
X130693949Y-122896051D01*
D11*
X130693949Y-119303949D03*
D12*
X130693949Y-119303949D02*
X130693949Y-119303949D01*
D11*
X128897898Y-121100000D03*
D12*
X128897898Y-121100000D02*
X128897898Y-121100000D01*
D11*
X128897898Y-117507898D03*
D12*
X128897898Y-117507898D02*
X128897898Y-117507898D01*
D11*
X127101846Y-119303949D03*
D12*
X127101846Y-119303949D02*
X127101846Y-119303949D01*
D11*
X154150000Y-99590000D03*
D13*
G36*
X154150000Y-98387918D02*
G01*
X155352082Y-99590000D01*
X154150000Y-100792082D01*
X152947918Y-99590000D01*
X154150000Y-98387918D01*
X154150000Y-98387918D01*
G37*
D11*
X152353949Y-101386051D03*
D12*
X152353949Y-101386051D02*
X152353949Y-101386051D01*
D11*
X152353949Y-97793949D03*
D12*
X152353949Y-97793949D02*
X152353949Y-97793949D01*
D11*
X150557898Y-99590000D03*
D12*
X150557898Y-99590000D02*
X150557898Y-99590000D01*
D11*
X150557898Y-95997898D03*
D12*
X150557898Y-95997898D02*
X150557898Y-95997898D01*
D11*
X148761846Y-97793949D03*
D12*
X148761846Y-97793949D02*
X148761846Y-97793949D01*
D11*
X180353948Y-66023949D03*
D12*
X180353948Y-66023949D02*
X180353948Y-66023949D01*
D11*
X182150000Y-64227898D03*
D12*
X182150000Y-64227898D02*
X182150000Y-64227898D01*
D11*
X182150000Y-67820000D03*
D12*
X182150000Y-67820000D02*
X182150000Y-67820000D01*
D11*
X183946051Y-66023949D03*
D12*
X183946051Y-66023949D02*
X183946051Y-66023949D01*
D11*
X183946051Y-69616051D03*
D12*
X183946051Y-69616051D02*
X183946051Y-69616051D01*
D11*
X185742102Y-67820000D03*
D13*
G36*
X185742102Y-66617918D02*
G01*
X186944184Y-67820000D01*
X185742102Y-69022082D01*
X184540020Y-67820000D01*
X185742102Y-66617918D01*
X185742102Y-66617918D01*
G37*
D14*
X114923952Y-137744526D03*
X116274526Y-136393952D03*
X114004713Y-136825287D03*
X115355287Y-135474713D03*
X113085474Y-135906048D03*
X114436048Y-134555474D03*
D13*
G36*
X114460552Y-134306677D02*
G01*
X114484820Y-134310277D01*
X114508619Y-134316238D01*
X114531718Y-134324503D01*
X114553896Y-134334992D01*
X114574939Y-134347605D01*
X114594645Y-134362220D01*
X114612823Y-134378696D01*
X116451304Y-136217177D01*
X116467780Y-136235355D01*
X116482395Y-136255061D01*
X116495008Y-136276104D01*
X116505497Y-136298282D01*
X116513762Y-136321381D01*
X116519723Y-136345180D01*
X116523323Y-136369448D01*
X116524527Y-136393952D01*
X116523323Y-136418456D01*
X116519723Y-136442724D01*
X116513762Y-136466523D01*
X116505497Y-136489622D01*
X116495008Y-136511800D01*
X116482395Y-136532843D01*
X116467780Y-136552549D01*
X116451304Y-136570727D01*
X115100727Y-137921304D01*
X115082549Y-137937780D01*
X115062843Y-137952395D01*
X115041800Y-137965008D01*
X115019622Y-137975497D01*
X114996523Y-137983762D01*
X114972724Y-137989723D01*
X114948456Y-137993323D01*
X114923952Y-137994527D01*
X114899448Y-137993323D01*
X114875180Y-137989723D01*
X114851381Y-137983762D01*
X114828282Y-137975497D01*
X114806104Y-137965008D01*
X114785061Y-137952395D01*
X114765355Y-137937780D01*
X114747177Y-137921304D01*
X112908696Y-136082823D01*
X112892220Y-136064645D01*
X112877605Y-136044939D01*
X112864992Y-136023896D01*
X112854503Y-136001718D01*
X112846238Y-135978619D01*
X112840277Y-135954820D01*
X112836677Y-135930552D01*
X112835473Y-135906048D01*
X112836677Y-135881544D01*
X112840277Y-135857276D01*
X112846238Y-135833477D01*
X112854503Y-135810378D01*
X112864992Y-135788200D01*
X112877605Y-135767157D01*
X112892220Y-135747451D01*
X112908696Y-135729273D01*
X114259273Y-134378696D01*
X114277451Y-134362220D01*
X114297157Y-134347605D01*
X114318200Y-134334992D01*
X114340378Y-134324503D01*
X114363477Y-134316238D01*
X114387276Y-134310277D01*
X114411544Y-134306677D01*
X114436048Y-134305473D01*
X114460552Y-134306677D01*
X114460552Y-134306677D01*
G37*
D15*
X114680000Y-136150000D03*
D16*
X169580000Y-77970000D03*
X172270000Y-80230000D03*
X160020000Y-82420000D03*
D17*
X154821751Y-100261751D02*
X154991751Y-100261751D01*
X154150000Y-99590000D02*
X154821751Y-100261751D01*
X154991751Y-100261751D02*
X156430000Y-101700000D01*
X170010000Y-77970000D02*
X172270000Y-80230000D01*
X169580000Y-77970000D02*
X170010000Y-77970000D01*
X184003100Y-67820000D02*
X185742102Y-67820000D01*
X172569999Y-79930001D02*
X172569999Y-79253101D01*
X172569999Y-79253101D02*
X184003100Y-67820000D01*
X172270000Y-80230000D02*
X172569999Y-79930001D01*
X160319999Y-82120001D02*
X160939999Y-82120001D01*
X160020000Y-82420000D02*
X160319999Y-82120001D01*
X160939999Y-82120001D02*
X166370000Y-76690000D01*
X168300000Y-76690000D02*
X169580000Y-77970000D01*
X166370000Y-76690000D02*
X168300000Y-76690000D01*
X129843950Y-125501973D02*
X109735923Y-145610000D01*
X130693949Y-122896051D02*
X129843950Y-123746050D01*
X129843950Y-123746050D02*
X129843950Y-125501973D01*
X109735923Y-145610000D02*
X107890000Y-145610000D01*
M02*
