G04 #@! TF.GenerationSoftware,KiCad,Pcbnew,5.1.2*
G04 #@! TF.CreationDate,2019-07-05T21:59:41-05:00*
G04 #@! TF.ProjectId,Master_Sword_(Ocarina_of_Time),4d617374-6572-45f5-9377-6f72645f284f,rev?*
G04 #@! TF.SameCoordinates,Original*
G04 #@! TF.FileFunction,Legend,Bot*
G04 #@! TF.FilePolarity,Positive*
%FSLAX46Y46*%
G04 Gerber Fmt 4.6, Leading zero omitted, Abs format (unit mm)*
G04 Created by KiCad (PCBNEW 5.1.2) date 2019-07-05 21:59:41*
%MOMM*%
%LPD*%
G04 APERTURE LIST*
%ADD10C,0.100000*%
%ADD11C,0.150000*%
%ADD12C,0.120000*%
G04 APERTURE END LIST*
D10*
X121129246Y-124181361D02*
X121482799Y-123827808D01*
X121533307Y-123736894D01*
X121540041Y-123649347D01*
X121503002Y-123565168D01*
X121462596Y-123524762D01*
X122028282Y-124090447D02*
X121826251Y-123888417D01*
X121331276Y-124383392D01*
X122364999Y-124521446D02*
X122368366Y-124477673D01*
X122331327Y-124393493D01*
X122290921Y-124353087D01*
X122206742Y-124316048D01*
X122119195Y-124322783D01*
X122051852Y-124349720D01*
X121937368Y-124423798D01*
X121866657Y-124494508D01*
X121792579Y-124608992D01*
X121765642Y-124676336D01*
X121758908Y-124763882D01*
X121795947Y-124848062D01*
X121836353Y-124888468D01*
X121920532Y-124925507D01*
X121964305Y-124922140D01*
X122220211Y-125272326D02*
X122573764Y-124918773D01*
X122624272Y-124827859D01*
X122631006Y-124740312D01*
X122593967Y-124656133D01*
X122553561Y-124615727D01*
X123119246Y-125181412D02*
X122917216Y-124979382D01*
X122422241Y-125474356D01*
X123455964Y-125612411D02*
X123459331Y-125568637D01*
X123422292Y-125484458D01*
X123381886Y-125444052D01*
X123297707Y-125407013D01*
X123210160Y-125413747D01*
X123142817Y-125440685D01*
X123028333Y-125514763D01*
X122957622Y-125585473D01*
X122883544Y-125699957D01*
X122856607Y-125767301D01*
X122849872Y-125854847D01*
X122886911Y-125939027D01*
X122927317Y-125979433D01*
X123011497Y-126016472D01*
X123055270Y-126013104D01*
X123311175Y-126363291D02*
X123664729Y-126009737D01*
X123715236Y-125918824D01*
X123721971Y-125831277D01*
X123684932Y-125747098D01*
X123644526Y-125706692D01*
X124210211Y-126272377D02*
X124008181Y-126070346D01*
X123513206Y-126565321D01*
X124546929Y-126703375D02*
X124550296Y-126659602D01*
X124513257Y-126575423D01*
X124472851Y-126535017D01*
X124388672Y-126497978D01*
X124301125Y-126504712D01*
X124233781Y-126531649D01*
X124119297Y-126605727D01*
X124048587Y-126676438D01*
X123974509Y-126790922D01*
X123947572Y-126858265D01*
X123940837Y-126945812D01*
X123977876Y-127029991D01*
X124018282Y-127070397D01*
X124102462Y-127107436D01*
X124146235Y-127104069D01*
X124402140Y-127454255D02*
X124755694Y-127100702D01*
X124806201Y-127009788D01*
X124812936Y-126922242D01*
X124775897Y-126838062D01*
X124735491Y-126797656D01*
X125301176Y-127363342D02*
X125099145Y-127161311D01*
X124604171Y-127656286D01*
X125637893Y-127794340D02*
X125641261Y-127750567D01*
X125604222Y-127666387D01*
X125563816Y-127625981D01*
X125479636Y-127588942D01*
X125392090Y-127595677D01*
X125324746Y-127622614D01*
X125210262Y-127696692D01*
X125139552Y-127767403D01*
X125065474Y-127881887D01*
X125038536Y-127949230D01*
X125031802Y-128036777D01*
X125068841Y-128120956D01*
X125109247Y-128161362D01*
X125193426Y-128198401D01*
X125237200Y-128195034D01*
D11*
X140532167Y-117307596D02*
X139825060Y-116600489D01*
X140094434Y-117341267D01*
X139353655Y-117071893D01*
X140060762Y-117779000D01*
X139420999Y-118418763D02*
X139050610Y-118048374D01*
X139016938Y-117947359D01*
X139050610Y-117846344D01*
X139185297Y-117711657D01*
X139286312Y-117677985D01*
X139387327Y-118385092D02*
X139488342Y-118351420D01*
X139656701Y-118183061D01*
X139690373Y-118082046D01*
X139656701Y-117981031D01*
X139589358Y-117913687D01*
X139488342Y-117880015D01*
X139387327Y-117913687D01*
X139218968Y-118082046D01*
X139117953Y-118115718D01*
X138781236Y-119058527D02*
X138074129Y-118351420D01*
X138747564Y-119024855D02*
X138848579Y-118991183D01*
X138983266Y-118856496D01*
X139016938Y-118755481D01*
X139016938Y-118688137D01*
X138983266Y-118587122D01*
X138781236Y-118385092D01*
X138680220Y-118351420D01*
X138612877Y-118351420D01*
X138511862Y-118385092D01*
X138377175Y-118519779D01*
X138343503Y-118620794D01*
X138141472Y-119630946D02*
X138242488Y-119597275D01*
X138377175Y-119462588D01*
X138410846Y-119361572D01*
X138377175Y-119260557D01*
X138107801Y-118991183D01*
X138006785Y-118957511D01*
X137905770Y-118991183D01*
X137771083Y-119125870D01*
X137737411Y-119226885D01*
X137771083Y-119327901D01*
X137838427Y-119395244D01*
X138242488Y-119125870D01*
X136929289Y-119967664D02*
X136659915Y-120237038D01*
X137299679Y-120540084D02*
X136693587Y-119933992D01*
X136592572Y-119900320D01*
X136491557Y-119933992D01*
X136424213Y-120001336D01*
X136794602Y-121045160D02*
X136828274Y-120944145D01*
X136828274Y-120876801D01*
X136794602Y-120775786D01*
X136592572Y-120573755D01*
X136491557Y-120540084D01*
X136424213Y-120540084D01*
X136323198Y-120573755D01*
X136222183Y-120674771D01*
X136188511Y-120775786D01*
X136188511Y-120843129D01*
X136222183Y-120944145D01*
X136424213Y-121146175D01*
X136525228Y-121179847D01*
X136592572Y-121179847D01*
X136693587Y-121146175D01*
X136794602Y-121045160D01*
X136255854Y-121583908D02*
X135784450Y-121112503D01*
X135919137Y-121247190D02*
X135818122Y-121213519D01*
X135750778Y-121213519D01*
X135649763Y-121247190D01*
X135582419Y-121314534D01*
X135279374Y-122560389D02*
X134572267Y-121853282D01*
X134403908Y-122021641D01*
X134336564Y-122156328D01*
X134336564Y-122291015D01*
X134370236Y-122392030D01*
X134471251Y-122560389D01*
X134572267Y-122661404D01*
X134740625Y-122762419D01*
X134841641Y-122796091D01*
X134976328Y-122796091D01*
X135111015Y-122728748D01*
X135279374Y-122560389D01*
X134269221Y-123503198D02*
X134370236Y-123469526D01*
X134504923Y-123334839D01*
X134538595Y-123233824D01*
X134504923Y-123132809D01*
X134235549Y-122863435D01*
X134134534Y-122829763D01*
X134033519Y-122863435D01*
X133898832Y-122998122D01*
X133865160Y-123099137D01*
X133898832Y-123200152D01*
X133966175Y-123267496D01*
X134370236Y-122998122D01*
X133595786Y-123301167D02*
X133326412Y-123570541D01*
X133966175Y-123873587D02*
X133360084Y-123267496D01*
X133259068Y-123233824D01*
X133158053Y-123267496D01*
X133090710Y-123334839D01*
X133225397Y-124547022D02*
X133326412Y-124513350D01*
X133461099Y-124378663D01*
X133494771Y-124277648D01*
X133494771Y-124210305D01*
X133461099Y-124109289D01*
X133259068Y-123907259D01*
X133158053Y-123873587D01*
X133090710Y-123873587D01*
X132989694Y-123907259D01*
X132855007Y-124041946D01*
X132821336Y-124142961D01*
X132855007Y-124984755D02*
X132888679Y-124883740D01*
X132888679Y-124816396D01*
X132855007Y-124715381D01*
X132652977Y-124513350D01*
X132551962Y-124479679D01*
X132484618Y-124479679D01*
X132383603Y-124513350D01*
X132282588Y-124614366D01*
X132248916Y-124715381D01*
X132248916Y-124782724D01*
X132282588Y-124883740D01*
X132484618Y-125085770D01*
X132585633Y-125119442D01*
X132652977Y-125119442D01*
X132753992Y-125085770D01*
X132855007Y-124984755D01*
X131844855Y-125052098D02*
X132316259Y-125523503D01*
X131912198Y-125119442D02*
X131844855Y-125119442D01*
X131743840Y-125153114D01*
X131642824Y-125254129D01*
X131609153Y-125355144D01*
X131642824Y-125456159D01*
X132013214Y-125826549D01*
X130531657Y-126028579D02*
X130464313Y-126028579D01*
X130363298Y-126062251D01*
X130194939Y-126230610D01*
X130161267Y-126331625D01*
X130161267Y-126398968D01*
X130194939Y-126499984D01*
X130262283Y-126567327D01*
X130396970Y-126634671D01*
X131205092Y-126634671D01*
X130767359Y-127072403D01*
X129824550Y-126600999D02*
X129353145Y-127072403D01*
X130363298Y-127476464D01*
D12*
X166951522Y-69568188D02*
G75*
G02X153458247Y-82931455I-14709498J1358696D01*
G01*
X166954439Y-69517640D02*
G75*
G02X167232687Y-68845888I950000J1D01*
G01*
X153550172Y-82921907D02*
G75*
G03X152878420Y-83200155I-1J-950000D01*
G01*
X152878419Y-87018532D02*
G75*
G02X152878420Y-83200155I1909189J1909188D01*
G01*
X171051064Y-68845887D02*
G75*
G03X167232687Y-68845888I-1909188J-1909189D01*
G01*
X173985557Y-71780381D02*
X171015709Y-68810532D01*
X155812913Y-89953025D02*
X152843064Y-86983177D01*
X180703072Y-78497895D02*
X178369619Y-76164443D01*
X178546396Y-88927720D02*
X180703072Y-78497895D01*
X179112081Y-89493406D02*
X178546396Y-88927720D01*
X173525938Y-95079549D02*
X179112081Y-89493406D01*
X173525938Y-95079549D02*
X172960252Y-94513864D01*
X172960252Y-94513864D02*
X162530427Y-96670540D01*
X162530427Y-96670540D02*
X160196975Y-94337087D01*
X109927801Y-134316291D02*
X109562117Y-134681975D01*
X108923709Y-133312199D02*
X108558025Y-133677883D01*
X118702117Y-131121975D02*
X119067801Y-130756291D01*
X117698025Y-130117883D02*
X118063709Y-129752199D01*
X115973709Y-127572199D02*
X115608025Y-127937883D01*
X116977801Y-128576291D02*
X116612117Y-128941975D01*
X121464888Y-133169204D02*
X121099204Y-133534888D01*
X120460796Y-132165112D02*
X120095112Y-132530796D01*
X96980000Y-152990000D02*
X97240000Y-152990000D01*
X100020000Y-153340000D02*
X101790000Y-153340000D01*
X101790000Y-153340000D02*
X101790000Y-152960000D01*
X101790000Y-145020000D02*
X100020000Y-145020000D01*
X97240000Y-145370000D02*
X96980000Y-145370000D01*
X101790000Y-145020000D02*
X101790000Y-145400000D01*
X115869204Y-142134888D02*
X116234888Y-141769204D01*
X114865112Y-141130796D02*
X115230796Y-140765112D01*
X112821975Y-131422117D02*
X112456291Y-131787801D01*
X111817883Y-130418025D02*
X111452199Y-130783709D01*
X114050675Y-140399712D02*
X117869052Y-136581335D01*
X111490948Y-135718665D02*
X114248665Y-132960948D01*
X122341954Y-122035578D02*
X123232908Y-122926532D01*
X127164422Y-126858046D02*
X126273468Y-125967092D01*
X119683232Y-124694299D02*
X122341954Y-122035578D01*
X122914710Y-131107758D02*
X127164422Y-126858046D01*
D11*
X177778680Y-92634980D02*
X177711336Y-92769667D01*
X177711336Y-92837010D01*
X177745008Y-92938026D01*
X177846023Y-93039041D01*
X177947039Y-93072713D01*
X178014382Y-93072713D01*
X178115397Y-93039041D01*
X178384771Y-92769667D01*
X177677665Y-92062560D01*
X177441962Y-92298262D01*
X177408291Y-92399278D01*
X177408291Y-92466621D01*
X177441962Y-92567636D01*
X177509306Y-92634980D01*
X177610321Y-92668652D01*
X177677665Y-92668652D01*
X177778680Y-92634980D01*
X178014382Y-92399278D01*
X177071573Y-92668652D02*
X176667512Y-93072713D01*
X177576649Y-93577789D02*
X176869542Y-92870682D01*
X176768527Y-94385911D02*
X177172588Y-93981850D01*
X176970558Y-94183881D02*
X176263451Y-93476774D01*
X176431810Y-93510446D01*
X176566497Y-93510446D01*
X176667512Y-93476774D01*
X108783293Y-132628330D02*
X108850637Y-132628330D01*
X108985324Y-132560986D01*
X109052667Y-132493643D01*
X109120011Y-132358956D01*
X109120011Y-132224269D01*
X109086339Y-132123254D01*
X108985324Y-131954895D01*
X108884309Y-131853880D01*
X108715950Y-131752864D01*
X108614935Y-131719193D01*
X108480248Y-131719193D01*
X108345561Y-131786536D01*
X108278217Y-131853880D01*
X108210874Y-131988567D01*
X108210874Y-132055910D01*
X108177202Y-133369109D02*
X108581263Y-132965048D01*
X108379232Y-133167078D02*
X107672125Y-132459971D01*
X107840484Y-132493643D01*
X107975171Y-132493643D01*
X108076187Y-132459971D01*
X107099706Y-133503796D02*
X107571110Y-133975200D01*
X106998690Y-133066063D02*
X107672125Y-133402780D01*
X107234393Y-133840513D01*
X120256745Y-131401782D02*
X120324089Y-131401782D01*
X120458776Y-131334438D01*
X120526119Y-131267095D01*
X120593463Y-131132408D01*
X120593463Y-130997721D01*
X120559791Y-130896706D01*
X120458776Y-130728347D01*
X120357761Y-130627332D01*
X120189402Y-130526316D01*
X120088387Y-130492645D01*
X119953700Y-130492645D01*
X119819013Y-130559988D01*
X119751669Y-130627332D01*
X119684326Y-130762019D01*
X119684326Y-130829362D01*
X119650654Y-132142561D02*
X120054715Y-131738500D01*
X119852684Y-131940530D02*
X119145577Y-131233423D01*
X119313936Y-131267095D01*
X119448623Y-131267095D01*
X119549639Y-131233423D01*
X118337455Y-132041545D02*
X118472142Y-131906858D01*
X118573158Y-131873187D01*
X118640501Y-131873187D01*
X118808860Y-131906858D01*
X118977219Y-132007874D01*
X119246593Y-132277248D01*
X119280264Y-132378263D01*
X119280264Y-132445606D01*
X119246593Y-132546622D01*
X119111906Y-132681309D01*
X119010890Y-132714980D01*
X118943547Y-132714980D01*
X118842532Y-132681309D01*
X118674173Y-132512950D01*
X118640501Y-132411935D01*
X118640501Y-132344591D01*
X118674173Y-132243576D01*
X118808860Y-132108889D01*
X118909875Y-132075217D01*
X118977219Y-132075217D01*
X119078234Y-132108889D01*
X115833293Y-126888330D02*
X115900637Y-126888330D01*
X116035324Y-126820986D01*
X116102667Y-126753643D01*
X116170011Y-126618956D01*
X116170011Y-126484269D01*
X116136339Y-126383254D01*
X116035324Y-126214895D01*
X115934309Y-126113880D01*
X115765950Y-126012864D01*
X115664935Y-125979193D01*
X115530248Y-125979193D01*
X115395561Y-126046536D01*
X115328217Y-126113880D01*
X115260874Y-126248567D01*
X115260874Y-126315910D01*
X115227202Y-127629109D02*
X115631263Y-127225048D01*
X115429232Y-127427078D02*
X114722125Y-126719971D01*
X114890484Y-126753643D01*
X115025171Y-126753643D01*
X115126187Y-126719971D01*
X114284393Y-127157704D02*
X113812988Y-127629109D01*
X114823141Y-128033170D01*
X122817106Y-134067969D02*
X122884450Y-134067969D01*
X123019137Y-134000625D01*
X123086480Y-133933282D01*
X123153824Y-133798595D01*
X123153824Y-133663908D01*
X123120152Y-133562893D01*
X123019137Y-133394534D01*
X122918122Y-133293519D01*
X122749763Y-133192503D01*
X122648748Y-133158832D01*
X122514061Y-133158832D01*
X122379374Y-133226175D01*
X122312030Y-133293519D01*
X122244687Y-133428206D01*
X122244687Y-133495549D01*
X122211015Y-134808748D02*
X122615076Y-134404687D01*
X122413045Y-134606717D02*
X121705938Y-133899610D01*
X121874297Y-133933282D01*
X122008984Y-133933282D01*
X122110000Y-133899610D01*
X121402893Y-134808748D02*
X121436564Y-134707732D01*
X121436564Y-134640389D01*
X121402893Y-134539374D01*
X121369221Y-134505702D01*
X121268206Y-134472030D01*
X121200862Y-134472030D01*
X121099847Y-134505702D01*
X120965160Y-134640389D01*
X120931488Y-134741404D01*
X120931488Y-134808748D01*
X120965160Y-134909763D01*
X120998832Y-134943435D01*
X121099847Y-134977106D01*
X121167190Y-134977106D01*
X121268206Y-134943435D01*
X121402893Y-134808748D01*
X121503908Y-134775076D01*
X121571251Y-134775076D01*
X121672267Y-134808748D01*
X121806954Y-134943435D01*
X121840625Y-135044450D01*
X121840625Y-135111793D01*
X121806954Y-135212809D01*
X121672267Y-135347496D01*
X121571251Y-135381167D01*
X121503908Y-135381167D01*
X121402893Y-135347496D01*
X121268206Y-135212809D01*
X121234534Y-135111793D01*
X121234534Y-135044450D01*
X121268206Y-134943435D01*
X101589523Y-143282380D02*
X101589523Y-143996666D01*
X101637142Y-144139523D01*
X101732380Y-144234761D01*
X101875238Y-144282380D01*
X101970476Y-144282380D01*
X100589523Y-144282380D02*
X101160952Y-144282380D01*
X100875238Y-144282380D02*
X100875238Y-143282380D01*
X100970476Y-143425238D01*
X101065714Y-143520476D01*
X101160952Y-143568095D01*
X99970476Y-143282380D02*
X99875238Y-143282380D01*
X99780000Y-143330000D01*
X99732380Y-143377619D01*
X99684761Y-143472857D01*
X99637142Y-143663333D01*
X99637142Y-143901428D01*
X99684761Y-144091904D01*
X99732380Y-144187142D01*
X99780000Y-144234761D01*
X99875238Y-144282380D01*
X99970476Y-144282380D01*
X100065714Y-144234761D01*
X100113333Y-144187142D01*
X100160952Y-144091904D01*
X100208571Y-143901428D01*
X100208571Y-143663333D01*
X100160952Y-143472857D01*
X100113333Y-143377619D01*
X100065714Y-143330000D01*
X99970476Y-143282380D01*
X117154458Y-142818756D02*
X117053443Y-142246336D01*
X117558519Y-142414695D02*
X116851413Y-141707588D01*
X116582038Y-141976962D01*
X116548367Y-142077977D01*
X116548367Y-142145321D01*
X116582038Y-142246336D01*
X116683054Y-142347351D01*
X116784069Y-142381023D01*
X116851413Y-142381023D01*
X116952428Y-142347351D01*
X117221802Y-142077977D01*
X116245321Y-142448367D02*
X116177977Y-142448367D01*
X116076962Y-142482038D01*
X115908603Y-142650397D01*
X115874932Y-142751413D01*
X115874932Y-142818756D01*
X115908603Y-142919771D01*
X115975947Y-142987115D01*
X116110634Y-143054458D01*
X116918756Y-143054458D01*
X116481023Y-143492191D01*
X111408093Y-130138217D02*
X111307078Y-129565797D01*
X111812154Y-129734156D02*
X111105048Y-129027049D01*
X110835673Y-129296423D01*
X110802002Y-129397438D01*
X110802002Y-129464782D01*
X110835673Y-129565797D01*
X110936689Y-129666812D01*
X111037704Y-129700484D01*
X111105048Y-129700484D01*
X111206063Y-129666812D01*
X111475437Y-129397438D01*
X110061223Y-130070874D02*
X110397941Y-129734156D01*
X110768330Y-130037202D01*
X110700986Y-130037202D01*
X110599971Y-130070874D01*
X110431612Y-130239232D01*
X110397941Y-130340248D01*
X110397941Y-130407591D01*
X110431612Y-130508606D01*
X110599971Y-130676965D01*
X110700986Y-130710637D01*
X110768330Y-130710637D01*
X110869345Y-130676965D01*
X111037704Y-130508606D01*
X111071376Y-130407591D01*
X111071376Y-130340248D01*
X145247172Y-104319451D02*
X145179829Y-104454138D01*
X145011470Y-104622497D01*
X144910455Y-104656169D01*
X144843111Y-104656169D01*
X144742096Y-104622497D01*
X144674753Y-104555154D01*
X144641081Y-104454138D01*
X144641081Y-104386795D01*
X144674753Y-104285780D01*
X144775768Y-104117421D01*
X144809440Y-104016406D01*
X144809440Y-103949062D01*
X144775768Y-103848047D01*
X144708424Y-103780703D01*
X144607409Y-103747032D01*
X144540066Y-103747032D01*
X144439050Y-103780703D01*
X144270692Y-103949062D01*
X144203348Y-104083749D01*
X143933974Y-104285780D02*
X144472722Y-105161245D01*
X143832959Y-104790856D01*
X144203348Y-105430619D01*
X143327883Y-104891871D01*
X143395226Y-106238741D02*
X143799287Y-105834680D01*
X143597257Y-106036711D02*
X142890150Y-105329604D01*
X143058509Y-105363276D01*
X143193196Y-105363276D01*
X143294211Y-105329604D01*
X117235685Y-137628189D02*
X117808105Y-138200609D01*
X117841777Y-138301624D01*
X117841777Y-138368968D01*
X117808105Y-138469983D01*
X117673418Y-138604670D01*
X117572403Y-138638342D01*
X117505059Y-138638342D01*
X117404044Y-138604670D01*
X116831624Y-138032250D01*
X116562250Y-138301624D02*
X116124518Y-138739357D01*
X116629594Y-138773029D01*
X116528579Y-138874044D01*
X116494907Y-138975059D01*
X116494907Y-139042403D01*
X116528579Y-139143418D01*
X116696937Y-139311777D01*
X116797953Y-139345449D01*
X116865296Y-139345449D01*
X116966311Y-139311777D01*
X117168342Y-139109746D01*
X117202014Y-139008731D01*
X117202014Y-138941388D01*
X126736117Y-128053393D02*
X127308537Y-128625813D01*
X127342209Y-128726828D01*
X127342209Y-128794172D01*
X127308537Y-128895187D01*
X127173850Y-129029874D01*
X127072835Y-129063546D01*
X127005491Y-129063546D01*
X126904476Y-129029874D01*
X126332056Y-128457454D01*
X125927995Y-129332920D02*
X126399400Y-129804324D01*
X125826980Y-128895187D02*
X126500415Y-129231905D01*
X126062682Y-129669637D01*
M02*
