G04 #@! TF.GenerationSoftware,KiCad,Pcbnew,5.1.2*
G04 #@! TF.CreationDate,2019-05-26T21:34:20-05:00*
G04 #@! TF.ProjectId,badge,62616467-652e-46b6-9963-61645f706362,rev?*
G04 #@! TF.SameCoordinates,Original*
G04 #@! TF.FileFunction,Copper,L2,Bot*
G04 #@! TF.FilePolarity,Positive*
%FSLAX46Y46*%
G04 Gerber Fmt 4.6, Leading zero omitted, Abs format (unit mm)*
G04 Created by KiCad (PCBNEW 5.1.2) date 2019-05-26 21:34:20*
%MOMM*%
%LPD*%
G04 APERTURE LIST*
%ADD10C,2.000000*%
%ADD11C,2.499360*%
%ADD12R,1.300000X3.400000*%
%ADD13R,1.700000X1.700000*%
%ADD14O,1.700000X1.700000*%
%ADD15R,10.000000X2.000000*%
%ADD16C,0.600000*%
%ADD17C,0.250000*%
%ADD18C,0.254000*%
G04 APERTURE END LIST*
D10*
X165481000Y-131064000D03*
X169291000Y-131064000D03*
X152400000Y-131826000D03*
X84820000Y-125147000D03*
D11*
X88600000Y-129307000D03*
X84790000Y-129307000D03*
D12*
X130895000Y-114305000D03*
X122195000Y-114305000D03*
D13*
X122030000Y-130147000D03*
D14*
X124570000Y-130147000D03*
X127110000Y-130147000D03*
X129650000Y-130147000D03*
X132190000Y-130147000D03*
D13*
X144450000Y-106647000D03*
D14*
X146990000Y-106647000D03*
X149530000Y-106647000D03*
X152070000Y-106647000D03*
D15*
X126520000Y-121597000D03*
X164520000Y-103597000D03*
X88520000Y-103597000D03*
X88520000Y-90597000D03*
X164520000Y-90597000D03*
D16*
X104320000Y-110297000D03*
X101120000Y-110297000D03*
X108320000Y-106897000D03*
X156120000Y-106397000D03*
X101720000Y-110997000D03*
X103920000Y-110997000D03*
X168070000Y-105397000D03*
X169620000Y-99197000D03*
X161320000Y-94397000D03*
X161220000Y-99301000D03*
X152320000Y-94397000D03*
X152420000Y-99301000D03*
X143320000Y-94397000D03*
X143420000Y-99301000D03*
X134520000Y-94397000D03*
X134420000Y-99301000D03*
X125520000Y-94397000D03*
X125620000Y-99301000D03*
X116920000Y-94397000D03*
X116820000Y-99301000D03*
X107920000Y-94397000D03*
X107820000Y-99301000D03*
X98920000Y-94397000D03*
X99020000Y-99301000D03*
X90520000Y-94397000D03*
X90620000Y-99301000D03*
X102720000Y-117297000D03*
X102570000Y-114397000D03*
X119997600Y-114321400D03*
X152075010Y-109902010D03*
X82670000Y-94097000D03*
X97020000Y-116397000D03*
X158690000Y-128197000D03*
X97020000Y-115197000D03*
X159960000Y-128197000D03*
X154880000Y-128197000D03*
X153610000Y-128197000D03*
X152340000Y-128197000D03*
X151120000Y-127797000D03*
X142070000Y-131647000D03*
X143320000Y-111197000D03*
X142520000Y-103397000D03*
X96410000Y-110037000D03*
X149800000Y-110197000D03*
X146120000Y-107997000D03*
X153610000Y-110197000D03*
X89820000Y-111147000D03*
X89820000Y-105147000D03*
X90960000Y-108767000D03*
X93120000Y-105097002D03*
X89240000Y-114857000D03*
X91006000Y-113915000D03*
X130895000Y-114305000D03*
X162814000Y-125984000D03*
X142120000Y-126246989D03*
X139670000Y-126246989D03*
X150570000Y-121897000D03*
X151820000Y-114647000D03*
X92820000Y-117647000D03*
X148820000Y-113647000D03*
D17*
X161320000Y-94397000D02*
X161320000Y-99201000D01*
X161320000Y-99201000D02*
X161220000Y-99301000D01*
X152320000Y-94397000D02*
X152320000Y-99201000D01*
X152320000Y-99201000D02*
X152420000Y-99301000D01*
X143320000Y-94397000D02*
X143320000Y-99201000D01*
X143320000Y-99201000D02*
X143420000Y-99301000D01*
X134520000Y-94397000D02*
X134520000Y-99201000D01*
X134520000Y-99201000D02*
X134420000Y-99301000D01*
X125520000Y-94397000D02*
X125520000Y-99201000D01*
X125520000Y-99201000D02*
X125620000Y-99301000D01*
X116920000Y-94397000D02*
X116920000Y-99201000D01*
X116920000Y-99201000D02*
X116820000Y-99301000D01*
X107920000Y-94397000D02*
X107920000Y-99201000D01*
X107920000Y-99201000D02*
X107820000Y-99301000D01*
X98920000Y-94397000D02*
X98920000Y-99201000D01*
X98920000Y-99201000D02*
X99020000Y-99301000D01*
X90520000Y-94397000D02*
X90520000Y-99201000D01*
X90520000Y-99201000D02*
X90620000Y-99301000D01*
X122195000Y-114305000D02*
X120014000Y-114305000D01*
X120014000Y-114305000D02*
X119997600Y-114321400D01*
X91674003Y-99926001D02*
X84549001Y-99926001D01*
X143620001Y-111822001D02*
X103570003Y-111822001D01*
X145870003Y-109571999D02*
X143620001Y-111822001D01*
X103570003Y-111822001D02*
X91674003Y-99926001D01*
X152075010Y-109902010D02*
X151744999Y-109571999D01*
X151744999Y-109571999D02*
X145870003Y-109571999D01*
X84549001Y-99926001D02*
X82670000Y-98047000D01*
X82670000Y-98047000D02*
X82670000Y-94097000D01*
X97020000Y-116397000D02*
X107944999Y-127321999D01*
X157814999Y-127321999D02*
X158690000Y-128197000D01*
X107944999Y-127321999D02*
X157814999Y-127321999D01*
X97319999Y-116696999D02*
X97020000Y-116397000D01*
X158634989Y-126871989D02*
X159960000Y-128197000D01*
X109194989Y-126871989D02*
X158634989Y-126871989D01*
X97520000Y-115197000D02*
X109194989Y-126871989D01*
X97020000Y-115197000D02*
X97520000Y-115197000D01*
X132940000Y-129397000D02*
X132190000Y-130147000D01*
X153820000Y-129397000D02*
X132940000Y-129397000D01*
X153820000Y-129397000D02*
X153820000Y-129257000D01*
X153820000Y-129257000D02*
X154880000Y-128197000D01*
X130900000Y-128897000D02*
X129650000Y-130147000D01*
X152695012Y-128946990D02*
X130900000Y-128897000D01*
X152695012Y-128946990D02*
X152860010Y-128946990D01*
X152860010Y-128946990D02*
X153610000Y-128197000D01*
X128860000Y-128397000D02*
X127110000Y-130147000D01*
X151545012Y-128446990D02*
X128860000Y-128397000D01*
X151545012Y-128446990D02*
X152090010Y-128446990D01*
X152090010Y-128446990D02*
X152340000Y-128197000D01*
X126820000Y-127897000D02*
X124570000Y-130147000D01*
X150070000Y-127897000D02*
X126820000Y-127897000D01*
X150170000Y-127797000D02*
X151120000Y-127797000D01*
X150070000Y-127897000D02*
X150170000Y-127797000D01*
X83215319Y-127401681D02*
X84820000Y-125797000D01*
X84499472Y-131347001D02*
X83215319Y-130062848D01*
X83215319Y-130062848D02*
X83215319Y-127401681D01*
X141770001Y-131347001D02*
X84499472Y-131347001D01*
X142070000Y-131647000D02*
X141770001Y-131347001D01*
X143320000Y-111197000D02*
X142520000Y-110397000D01*
X142520000Y-110397000D02*
X142520000Y-103397000D01*
X96410000Y-110587000D02*
X97970000Y-112147000D01*
X96410000Y-110037000D02*
X96410000Y-110587000D01*
X97970000Y-112147000D02*
X97970000Y-115010590D01*
X97970000Y-115010590D02*
X109356410Y-126397000D01*
X109356410Y-126397000D02*
X138320000Y-126397000D01*
X139095012Y-125621988D02*
X143044988Y-125621988D01*
X138320000Y-126397000D02*
X139095012Y-125621988D01*
X143044988Y-125621988D02*
X143570000Y-126147000D01*
X143570000Y-126147000D02*
X148570000Y-126147000D01*
X149800000Y-124917000D02*
X149800000Y-111147000D01*
X148570000Y-126147000D02*
X149800000Y-124917000D01*
X149800000Y-111317000D02*
X149800000Y-111147000D01*
X149800000Y-111147000D02*
X149800000Y-110197000D01*
X146120000Y-107997000D02*
X151410000Y-107997000D01*
X151410000Y-107997000D02*
X153610000Y-110197000D01*
X89820000Y-111147000D02*
X89220000Y-110547000D01*
X89220000Y-105747000D02*
X89820000Y-105147000D01*
X89220000Y-110547000D02*
X89220000Y-105747000D01*
X90960000Y-108767000D02*
X90960000Y-107257002D01*
X90960000Y-107257002D02*
X93120000Y-105097002D01*
X89240000Y-114857000D02*
X90064000Y-114857000D01*
X90064000Y-114857000D02*
X91006000Y-113915000D01*
X142120000Y-126246989D02*
X139670000Y-126246989D01*
X150570000Y-121897000D02*
X151820000Y-120647000D01*
X151820000Y-120647000D02*
X151820000Y-114647000D01*
X92820000Y-112701998D02*
X96109999Y-109411999D01*
X92820000Y-117647000D02*
X92820000Y-112701998D01*
X96710001Y-109411999D02*
X99578001Y-112279999D01*
X99578001Y-112279999D02*
X147452999Y-112279999D01*
X96109999Y-109411999D02*
X96710001Y-109411999D01*
X147452999Y-112279999D02*
X148820000Y-113647000D01*
D18*
G36*
X82881928Y-89597000D02*
G01*
X82881928Y-91597000D01*
X82894188Y-91721482D01*
X82930498Y-91841180D01*
X82989463Y-91951494D01*
X83068815Y-92048185D01*
X83165506Y-92127537D01*
X83275820Y-92186502D01*
X83395518Y-92222812D01*
X83520000Y-92235072D01*
X93520000Y-92235072D01*
X93644482Y-92222812D01*
X93764180Y-92186502D01*
X93874494Y-92127537D01*
X93971185Y-92048185D01*
X94050537Y-91951494D01*
X94109502Y-91841180D01*
X94145812Y-91721482D01*
X94158072Y-91597000D01*
X94158072Y-89597000D01*
X94149208Y-89507000D01*
X158890792Y-89507000D01*
X158881928Y-89597000D01*
X158881928Y-91597000D01*
X158894188Y-91721482D01*
X158930498Y-91841180D01*
X158989463Y-91951494D01*
X159068815Y-92048185D01*
X159165506Y-92127537D01*
X159275820Y-92186502D01*
X159395518Y-92222812D01*
X159520000Y-92235072D01*
X169520000Y-92235072D01*
X169644482Y-92222812D01*
X169764180Y-92186502D01*
X169874494Y-92127537D01*
X169971185Y-92048185D01*
X170050537Y-91951494D01*
X170109502Y-91841180D01*
X170145812Y-91721482D01*
X170158072Y-91597000D01*
X170158072Y-89597000D01*
X170149208Y-89507000D01*
X170810000Y-89507000D01*
X170810001Y-110270000D01*
X165320000Y-110270000D01*
X165295224Y-110272440D01*
X165271399Y-110279667D01*
X165249443Y-110291403D01*
X165230197Y-110307197D01*
X165214403Y-110326443D01*
X165202667Y-110348399D01*
X165195440Y-110372224D01*
X165193000Y-110397000D01*
X165193000Y-128397000D01*
X165195440Y-128421776D01*
X165202667Y-128445601D01*
X165214403Y-128467557D01*
X165230197Y-128486803D01*
X165249443Y-128502597D01*
X165271399Y-128514333D01*
X165295224Y-128521560D01*
X165320000Y-128524000D01*
X170810001Y-128524000D01*
X170810001Y-130458731D01*
X170739918Y-130289537D01*
X170560987Y-130021748D01*
X170333252Y-129794013D01*
X170065463Y-129615082D01*
X169767912Y-129491832D01*
X169452033Y-129429000D01*
X169129967Y-129429000D01*
X168814088Y-129491832D01*
X168516537Y-129615082D01*
X168248748Y-129794013D01*
X168021013Y-130021748D01*
X167842082Y-130289537D01*
X167718832Y-130587088D01*
X167656000Y-130902967D01*
X167656000Y-131225033D01*
X167718832Y-131540912D01*
X167772302Y-131670000D01*
X166999698Y-131670000D01*
X167053168Y-131540912D01*
X167116000Y-131225033D01*
X167116000Y-130902967D01*
X167053168Y-130587088D01*
X166929918Y-130289537D01*
X166750987Y-130021748D01*
X166523252Y-129794013D01*
X166255463Y-129615082D01*
X165957912Y-129491832D01*
X165642033Y-129429000D01*
X165319967Y-129429000D01*
X165004088Y-129491832D01*
X164706537Y-129615082D01*
X164438748Y-129794013D01*
X164211013Y-130021748D01*
X164032082Y-130289537D01*
X163908832Y-130587088D01*
X163846000Y-130902967D01*
X163846000Y-131225033D01*
X163908832Y-131540912D01*
X163962302Y-131670000D01*
X154035000Y-131670000D01*
X154035000Y-131664967D01*
X153972168Y-131349088D01*
X153848918Y-131051537D01*
X153669987Y-130783748D01*
X153442252Y-130556013D01*
X153174463Y-130377082D01*
X152876912Y-130253832D01*
X152561033Y-130191000D01*
X152238967Y-130191000D01*
X151923088Y-130253832D01*
X151625537Y-130377082D01*
X151357748Y-130556013D01*
X151130013Y-130783748D01*
X150951082Y-131051537D01*
X150827832Y-131349088D01*
X150765000Y-131664967D01*
X150765000Y-131670000D01*
X143005000Y-131670000D01*
X143005000Y-131554911D01*
X142969068Y-131374271D01*
X142898586Y-131204111D01*
X142796262Y-131050972D01*
X142666028Y-130920738D01*
X142512889Y-130818414D01*
X142342729Y-130747932D01*
X142204531Y-130720442D01*
X142194277Y-130712027D01*
X142062248Y-130641455D01*
X141918987Y-130597998D01*
X141807334Y-130587001D01*
X141807323Y-130587001D01*
X141770001Y-130583325D01*
X141732679Y-130587001D01*
X133608348Y-130587001D01*
X133653513Y-130438111D01*
X133681200Y-130157000D01*
X153782667Y-130157000D01*
X153820000Y-130160677D01*
X153857333Y-130157000D01*
X153968986Y-130146003D01*
X154112247Y-130102546D01*
X154244276Y-130031974D01*
X154360001Y-129937001D01*
X154454974Y-129821276D01*
X154525546Y-129689247D01*
X154552974Y-129598827D01*
X155031650Y-129120152D01*
X155152729Y-129096068D01*
X155322889Y-129025586D01*
X155476028Y-128923262D01*
X155606262Y-128793028D01*
X155708586Y-128639889D01*
X155779068Y-128469729D01*
X155815000Y-128289089D01*
X155815000Y-128104911D01*
X155810442Y-128081999D01*
X157500198Y-128081999D01*
X157766847Y-128348649D01*
X157790932Y-128469729D01*
X157861414Y-128639889D01*
X157963738Y-128793028D01*
X158093972Y-128923262D01*
X158247111Y-129025586D01*
X158417271Y-129096068D01*
X158597911Y-129132000D01*
X158782089Y-129132000D01*
X158962729Y-129096068D01*
X159132889Y-129025586D01*
X159286028Y-128923262D01*
X159325000Y-128884290D01*
X159363972Y-128923262D01*
X159517111Y-129025586D01*
X159687271Y-129096068D01*
X159867911Y-129132000D01*
X160052089Y-129132000D01*
X160232729Y-129096068D01*
X160402889Y-129025586D01*
X160556028Y-128923262D01*
X160686262Y-128793028D01*
X160788586Y-128639889D01*
X160859068Y-128469729D01*
X160895000Y-128289089D01*
X160895000Y-128104911D01*
X160859068Y-127924271D01*
X160788586Y-127754111D01*
X160686262Y-127600972D01*
X160556028Y-127470738D01*
X160402889Y-127368414D01*
X160232729Y-127297932D01*
X160111649Y-127273847D01*
X159198793Y-126360992D01*
X159174990Y-126331988D01*
X159059265Y-126237015D01*
X158927236Y-126166443D01*
X158783975Y-126122986D01*
X158672322Y-126111989D01*
X158672311Y-126111989D01*
X158634989Y-126108313D01*
X158597667Y-126111989D01*
X149679812Y-126111989D01*
X149899890Y-125891911D01*
X161879000Y-125891911D01*
X161879000Y-126076089D01*
X161914932Y-126256729D01*
X161985414Y-126426889D01*
X162087738Y-126580028D01*
X162217972Y-126710262D01*
X162371111Y-126812586D01*
X162541271Y-126883068D01*
X162721911Y-126919000D01*
X162906089Y-126919000D01*
X163086729Y-126883068D01*
X163256889Y-126812586D01*
X163410028Y-126710262D01*
X163540262Y-126580028D01*
X163642586Y-126426889D01*
X163713068Y-126256729D01*
X163749000Y-126076089D01*
X163749000Y-125891911D01*
X163713068Y-125711271D01*
X163642586Y-125541111D01*
X163540262Y-125387972D01*
X163410028Y-125257738D01*
X163256889Y-125155414D01*
X163086729Y-125084932D01*
X162906089Y-125049000D01*
X162721911Y-125049000D01*
X162541271Y-125084932D01*
X162371111Y-125155414D01*
X162217972Y-125257738D01*
X162087738Y-125387972D01*
X161985414Y-125541111D01*
X161914932Y-125711271D01*
X161879000Y-125891911D01*
X149899890Y-125891911D01*
X150311004Y-125480798D01*
X150340001Y-125457001D01*
X150434974Y-125341276D01*
X150505546Y-125209247D01*
X150549003Y-125065986D01*
X150560000Y-124954333D01*
X150560000Y-124954325D01*
X150563676Y-124917000D01*
X150560000Y-124879675D01*
X150560000Y-122832000D01*
X150662089Y-122832000D01*
X150842729Y-122796068D01*
X151012889Y-122725586D01*
X151166028Y-122623262D01*
X151296262Y-122493028D01*
X151398586Y-122339889D01*
X151469068Y-122169729D01*
X151493153Y-122048649D01*
X152331004Y-121210798D01*
X152360001Y-121187001D01*
X152386332Y-121154917D01*
X152454974Y-121071277D01*
X152525546Y-120939247D01*
X152525546Y-120939246D01*
X152569003Y-120795986D01*
X152580000Y-120684333D01*
X152580000Y-120684323D01*
X152583676Y-120647000D01*
X152580000Y-120609677D01*
X152580000Y-115192535D01*
X152648586Y-115089889D01*
X152719068Y-114919729D01*
X152755000Y-114739089D01*
X152755000Y-114554911D01*
X152719068Y-114374271D01*
X152648586Y-114204111D01*
X152546262Y-114050972D01*
X152416028Y-113920738D01*
X152262889Y-113818414D01*
X152092729Y-113747932D01*
X151912089Y-113712000D01*
X151727911Y-113712000D01*
X151547271Y-113747932D01*
X151377111Y-113818414D01*
X151223972Y-113920738D01*
X151093738Y-114050972D01*
X150991414Y-114204111D01*
X150920932Y-114374271D01*
X150885000Y-114554911D01*
X150885000Y-114739089D01*
X150920932Y-114919729D01*
X150991414Y-115089889D01*
X151060001Y-115192537D01*
X151060000Y-120332198D01*
X150560000Y-120832199D01*
X150560000Y-110742535D01*
X150628586Y-110639889D01*
X150699068Y-110469729D01*
X150726465Y-110331999D01*
X151241081Y-110331999D01*
X151246424Y-110344899D01*
X151348748Y-110498038D01*
X151478982Y-110628272D01*
X151632121Y-110730596D01*
X151802281Y-110801078D01*
X151982921Y-110837010D01*
X152167099Y-110837010D01*
X152347739Y-110801078D01*
X152517899Y-110730596D01*
X152671038Y-110628272D01*
X152745683Y-110553627D01*
X152781414Y-110639889D01*
X152883738Y-110793028D01*
X153013972Y-110923262D01*
X153167111Y-111025586D01*
X153337271Y-111096068D01*
X153517911Y-111132000D01*
X153702089Y-111132000D01*
X153882729Y-111096068D01*
X154052889Y-111025586D01*
X154206028Y-110923262D01*
X154336262Y-110793028D01*
X154438586Y-110639889D01*
X154509068Y-110469729D01*
X154545000Y-110289089D01*
X154545000Y-110104911D01*
X154509068Y-109924271D01*
X154438586Y-109754111D01*
X154336262Y-109600972D01*
X154206028Y-109470738D01*
X154052889Y-109368414D01*
X153882729Y-109297932D01*
X153761649Y-109273847D01*
X152543106Y-108055305D01*
X152641034Y-108025599D01*
X152899014Y-107887706D01*
X153125134Y-107702134D01*
X153310706Y-107476014D01*
X153448599Y-107218034D01*
X153533513Y-106938111D01*
X153562185Y-106647000D01*
X153533513Y-106355889D01*
X153448599Y-106075966D01*
X153310706Y-105817986D01*
X153125134Y-105591866D01*
X152899014Y-105406294D01*
X152641034Y-105268401D01*
X152361111Y-105183487D01*
X152142950Y-105162000D01*
X151997050Y-105162000D01*
X151778889Y-105183487D01*
X151498966Y-105268401D01*
X151240986Y-105406294D01*
X151014866Y-105591866D01*
X150829294Y-105817986D01*
X150800000Y-105872791D01*
X150770706Y-105817986D01*
X150585134Y-105591866D01*
X150359014Y-105406294D01*
X150101034Y-105268401D01*
X149821111Y-105183487D01*
X149602950Y-105162000D01*
X149457050Y-105162000D01*
X149238889Y-105183487D01*
X148958966Y-105268401D01*
X148700986Y-105406294D01*
X148474866Y-105591866D01*
X148289294Y-105817986D01*
X148260000Y-105872791D01*
X148230706Y-105817986D01*
X148045134Y-105591866D01*
X147819014Y-105406294D01*
X147561034Y-105268401D01*
X147281111Y-105183487D01*
X147062950Y-105162000D01*
X146917050Y-105162000D01*
X146698889Y-105183487D01*
X146418966Y-105268401D01*
X146160986Y-105406294D01*
X145934866Y-105591866D01*
X145910393Y-105621687D01*
X145889502Y-105552820D01*
X145830537Y-105442506D01*
X145751185Y-105345815D01*
X145654494Y-105266463D01*
X145544180Y-105207498D01*
X145424482Y-105171188D01*
X145300000Y-105158928D01*
X143600000Y-105158928D01*
X143475518Y-105171188D01*
X143355820Y-105207498D01*
X143280000Y-105248025D01*
X143280000Y-103942535D01*
X143348586Y-103839889D01*
X143419068Y-103669729D01*
X143455000Y-103489089D01*
X143455000Y-103304911D01*
X143419068Y-103124271D01*
X143348586Y-102954111D01*
X143246262Y-102800972D01*
X143116028Y-102670738D01*
X143005672Y-102597000D01*
X158881928Y-102597000D01*
X158881928Y-104597000D01*
X158894188Y-104721482D01*
X158930498Y-104841180D01*
X158989463Y-104951494D01*
X159068815Y-105048185D01*
X159165506Y-105127537D01*
X159275820Y-105186502D01*
X159395518Y-105222812D01*
X159520000Y-105235072D01*
X169520000Y-105235072D01*
X169644482Y-105222812D01*
X169764180Y-105186502D01*
X169874494Y-105127537D01*
X169971185Y-105048185D01*
X170050537Y-104951494D01*
X170109502Y-104841180D01*
X170145812Y-104721482D01*
X170158072Y-104597000D01*
X170158072Y-102597000D01*
X170145812Y-102472518D01*
X170109502Y-102352820D01*
X170050537Y-102242506D01*
X169971185Y-102145815D01*
X169874494Y-102066463D01*
X169764180Y-102007498D01*
X169644482Y-101971188D01*
X169520000Y-101958928D01*
X159520000Y-101958928D01*
X159395518Y-101971188D01*
X159275820Y-102007498D01*
X159165506Y-102066463D01*
X159068815Y-102145815D01*
X158989463Y-102242506D01*
X158930498Y-102352820D01*
X158894188Y-102472518D01*
X158881928Y-102597000D01*
X143005672Y-102597000D01*
X142962889Y-102568414D01*
X142792729Y-102497932D01*
X142612089Y-102462000D01*
X142427911Y-102462000D01*
X142247271Y-102497932D01*
X142077111Y-102568414D01*
X141923972Y-102670738D01*
X141793738Y-102800972D01*
X141691414Y-102954111D01*
X141620932Y-103124271D01*
X141585000Y-103304911D01*
X141585000Y-103489089D01*
X141620932Y-103669729D01*
X141691414Y-103839889D01*
X141760001Y-103942537D01*
X141760000Y-110359677D01*
X141756324Y-110397000D01*
X141760000Y-110434322D01*
X141760000Y-110434332D01*
X141770997Y-110545985D01*
X141799482Y-110639889D01*
X141814454Y-110689246D01*
X141885026Y-110821276D01*
X141893806Y-110831974D01*
X141979999Y-110937001D01*
X142009002Y-110960803D01*
X142110200Y-111062001D01*
X103884805Y-111062001D01*
X92237807Y-99415004D01*
X92214004Y-99386000D01*
X92098279Y-99291027D01*
X91966250Y-99220455D01*
X91822989Y-99176998D01*
X91711336Y-99166001D01*
X91711325Y-99166001D01*
X91674003Y-99162325D01*
X91636681Y-99166001D01*
X84863803Y-99166001D01*
X84311378Y-98613576D01*
X89636353Y-98613576D01*
X89670000Y-98616890D01*
X89703647Y-98613576D01*
X89804283Y-98603664D01*
X89933406Y-98564495D01*
X90052407Y-98500888D01*
X90156711Y-98415287D01*
X90242312Y-98310983D01*
X90305919Y-98191982D01*
X90345088Y-98062859D01*
X90358314Y-97928576D01*
X90355000Y-97894929D01*
X90355000Y-92962223D01*
X90358314Y-92928576D01*
X90358019Y-92925576D01*
X91986686Y-92925576D01*
X91990000Y-92959223D01*
X91990001Y-97891919D01*
X91986686Y-97925576D01*
X91999912Y-98059859D01*
X92039081Y-98188982D01*
X92102688Y-98307983D01*
X92188289Y-98412287D01*
X92292593Y-98497888D01*
X92411594Y-98561495D01*
X92540717Y-98600664D01*
X92641353Y-98610576D01*
X92675000Y-98613890D01*
X92708647Y-98610576D01*
X98041353Y-98610576D01*
X98075000Y-98613890D01*
X98108647Y-98610576D01*
X98209283Y-98600664D01*
X98338406Y-98561495D01*
X98457407Y-98497888D01*
X98561711Y-98412287D01*
X98647312Y-98307983D01*
X98710919Y-98188982D01*
X98750088Y-98059859D01*
X98763314Y-97925576D01*
X98760000Y-97891929D01*
X98760000Y-92959223D01*
X98763314Y-92925576D01*
X100876686Y-92925576D01*
X100880000Y-92959223D01*
X100880001Y-97891919D01*
X100876686Y-97925576D01*
X100889912Y-98059859D01*
X100929081Y-98188982D01*
X100992688Y-98307983D01*
X101078289Y-98412287D01*
X101182593Y-98497888D01*
X101301594Y-98561495D01*
X101430717Y-98600664D01*
X101531353Y-98610576D01*
X101565000Y-98613890D01*
X101598647Y-98610576D01*
X106931353Y-98610576D01*
X106965000Y-98613890D01*
X106998647Y-98610576D01*
X107099283Y-98600664D01*
X107228406Y-98561495D01*
X107347407Y-98497888D01*
X107451711Y-98412287D01*
X107537312Y-98307983D01*
X107600919Y-98188982D01*
X107640088Y-98059859D01*
X107653314Y-97925576D01*
X107650000Y-97891929D01*
X107650000Y-92959223D01*
X107653314Y-92925576D01*
X109766686Y-92925576D01*
X109770000Y-92959223D01*
X109770001Y-97891919D01*
X109766686Y-97925576D01*
X109779912Y-98059859D01*
X109819081Y-98188982D01*
X109882688Y-98307983D01*
X109968289Y-98412287D01*
X110072593Y-98497888D01*
X110191594Y-98561495D01*
X110320717Y-98600664D01*
X110421353Y-98610576D01*
X110455000Y-98613890D01*
X110488647Y-98610576D01*
X115821353Y-98610576D01*
X115855000Y-98613890D01*
X115888647Y-98610576D01*
X115989283Y-98600664D01*
X116118406Y-98561495D01*
X116237407Y-98497888D01*
X116341711Y-98412287D01*
X116427312Y-98307983D01*
X116490919Y-98188982D01*
X116530088Y-98059859D01*
X116543314Y-97925576D01*
X116540000Y-97891929D01*
X116540000Y-92959223D01*
X116543314Y-92925576D01*
X118656686Y-92925576D01*
X118660000Y-92959223D01*
X118660001Y-97891919D01*
X118656686Y-97925576D01*
X118669912Y-98059859D01*
X118709081Y-98188982D01*
X118772688Y-98307983D01*
X118858289Y-98412287D01*
X118962593Y-98497888D01*
X119081594Y-98561495D01*
X119210717Y-98600664D01*
X119311353Y-98610576D01*
X119345000Y-98613890D01*
X119378647Y-98610576D01*
X124711353Y-98610576D01*
X124745000Y-98613890D01*
X124778647Y-98610576D01*
X124879283Y-98600664D01*
X125008406Y-98561495D01*
X125127407Y-98497888D01*
X125231711Y-98412287D01*
X125317312Y-98307983D01*
X125380919Y-98188982D01*
X125420088Y-98059859D01*
X125433314Y-97925576D01*
X125430000Y-97891929D01*
X125430000Y-92959223D01*
X125433314Y-92925576D01*
X127546686Y-92925576D01*
X127550000Y-92959223D01*
X127550001Y-97891919D01*
X127546686Y-97925576D01*
X127559912Y-98059859D01*
X127599081Y-98188982D01*
X127662688Y-98307983D01*
X127748289Y-98412287D01*
X127852593Y-98497888D01*
X127971594Y-98561495D01*
X128100717Y-98600664D01*
X128201353Y-98610576D01*
X128235000Y-98613890D01*
X128268647Y-98610576D01*
X133601353Y-98610576D01*
X133635000Y-98613890D01*
X133668647Y-98610576D01*
X133769283Y-98600664D01*
X133898406Y-98561495D01*
X134017407Y-98497888D01*
X134121711Y-98412287D01*
X134207312Y-98307983D01*
X134270919Y-98188982D01*
X134310088Y-98059859D01*
X134323314Y-97925576D01*
X134320000Y-97891929D01*
X134320000Y-92959223D01*
X134323314Y-92925576D01*
X136436686Y-92925576D01*
X136440000Y-92959223D01*
X136440001Y-97891919D01*
X136436686Y-97925576D01*
X136449912Y-98059859D01*
X136489081Y-98188982D01*
X136552688Y-98307983D01*
X136638289Y-98412287D01*
X136742593Y-98497888D01*
X136861594Y-98561495D01*
X136990717Y-98600664D01*
X137091353Y-98610576D01*
X137125000Y-98613890D01*
X137158647Y-98610576D01*
X142491353Y-98610576D01*
X142525000Y-98613890D01*
X142558647Y-98610576D01*
X142659283Y-98600664D01*
X142788406Y-98561495D01*
X142907407Y-98497888D01*
X143011711Y-98412287D01*
X143097312Y-98307983D01*
X143160919Y-98188982D01*
X143200088Y-98059859D01*
X143213314Y-97925576D01*
X143210000Y-97891929D01*
X143210000Y-92959223D01*
X143213314Y-92925576D01*
X145326686Y-92925576D01*
X145330000Y-92959223D01*
X145330001Y-97891919D01*
X145326686Y-97925576D01*
X145339912Y-98059859D01*
X145379081Y-98188982D01*
X145442688Y-98307983D01*
X145528289Y-98412287D01*
X145632593Y-98497888D01*
X145751594Y-98561495D01*
X145880717Y-98600664D01*
X145981353Y-98610576D01*
X146015000Y-98613890D01*
X146048647Y-98610576D01*
X151381353Y-98610576D01*
X151415000Y-98613890D01*
X151448647Y-98610576D01*
X151549283Y-98600664D01*
X151678406Y-98561495D01*
X151797407Y-98497888D01*
X151901711Y-98412287D01*
X151987312Y-98307983D01*
X152050919Y-98188982D01*
X152090088Y-98059859D01*
X152103314Y-97925576D01*
X152100000Y-97891929D01*
X152100000Y-92959223D01*
X152103314Y-92925576D01*
X154216686Y-92925576D01*
X154220000Y-92959223D01*
X154220001Y-97891919D01*
X154216686Y-97925576D01*
X154229912Y-98059859D01*
X154269081Y-98188982D01*
X154332688Y-98307983D01*
X154418289Y-98412287D01*
X154522593Y-98497888D01*
X154641594Y-98561495D01*
X154770717Y-98600664D01*
X154871353Y-98610576D01*
X154905000Y-98613890D01*
X154938647Y-98610576D01*
X160271353Y-98610576D01*
X160305000Y-98613890D01*
X160338647Y-98610576D01*
X160439283Y-98600664D01*
X160568406Y-98561495D01*
X160687407Y-98497888D01*
X160791711Y-98412287D01*
X160877312Y-98307983D01*
X160940919Y-98188982D01*
X160980088Y-98059859D01*
X160993314Y-97925576D01*
X160990000Y-97891929D01*
X160990000Y-92959223D01*
X160990556Y-92953576D01*
X162806686Y-92953576D01*
X162810000Y-92987223D01*
X162810001Y-97919919D01*
X162806686Y-97953576D01*
X162819912Y-98087859D01*
X162859081Y-98216982D01*
X162922688Y-98335983D01*
X163008289Y-98440287D01*
X163112593Y-98525888D01*
X163231594Y-98589495D01*
X163360717Y-98628664D01*
X163461353Y-98638576D01*
X163495000Y-98641890D01*
X163528647Y-98638576D01*
X168861353Y-98638576D01*
X168895000Y-98641890D01*
X168928647Y-98638576D01*
X169029283Y-98628664D01*
X169158406Y-98589495D01*
X169277407Y-98525888D01*
X169381711Y-98440287D01*
X169467312Y-98335983D01*
X169530919Y-98216982D01*
X169570088Y-98087859D01*
X169583314Y-97953576D01*
X169580000Y-97919929D01*
X169580000Y-92987223D01*
X169583314Y-92953576D01*
X169570088Y-92819293D01*
X169530919Y-92690170D01*
X169467312Y-92571169D01*
X169381711Y-92466865D01*
X169277407Y-92381264D01*
X169158406Y-92317657D01*
X169029283Y-92278488D01*
X168928647Y-92268576D01*
X168895000Y-92265262D01*
X168861353Y-92268576D01*
X163528647Y-92268576D01*
X163495000Y-92265262D01*
X163461353Y-92268576D01*
X163360717Y-92278488D01*
X163231594Y-92317657D01*
X163112593Y-92381264D01*
X163008289Y-92466865D01*
X162922688Y-92571169D01*
X162859081Y-92690170D01*
X162819912Y-92819293D01*
X162806686Y-92953576D01*
X160990556Y-92953576D01*
X160993314Y-92925576D01*
X160980088Y-92791293D01*
X160940919Y-92662170D01*
X160877312Y-92543169D01*
X160791711Y-92438865D01*
X160687407Y-92353264D01*
X160568406Y-92289657D01*
X160439283Y-92250488D01*
X160338647Y-92240576D01*
X160305000Y-92237262D01*
X160271353Y-92240576D01*
X154938647Y-92240576D01*
X154905000Y-92237262D01*
X154871353Y-92240576D01*
X154770717Y-92250488D01*
X154641594Y-92289657D01*
X154522593Y-92353264D01*
X154418289Y-92438865D01*
X154332688Y-92543169D01*
X154269081Y-92662170D01*
X154229912Y-92791293D01*
X154216686Y-92925576D01*
X152103314Y-92925576D01*
X152090088Y-92791293D01*
X152050919Y-92662170D01*
X151987312Y-92543169D01*
X151901711Y-92438865D01*
X151797407Y-92353264D01*
X151678406Y-92289657D01*
X151549283Y-92250488D01*
X151448647Y-92240576D01*
X151415000Y-92237262D01*
X151381353Y-92240576D01*
X146048647Y-92240576D01*
X146015000Y-92237262D01*
X145981353Y-92240576D01*
X145880717Y-92250488D01*
X145751594Y-92289657D01*
X145632593Y-92353264D01*
X145528289Y-92438865D01*
X145442688Y-92543169D01*
X145379081Y-92662170D01*
X145339912Y-92791293D01*
X145326686Y-92925576D01*
X143213314Y-92925576D01*
X143200088Y-92791293D01*
X143160919Y-92662170D01*
X143097312Y-92543169D01*
X143011711Y-92438865D01*
X142907407Y-92353264D01*
X142788406Y-92289657D01*
X142659283Y-92250488D01*
X142558647Y-92240576D01*
X142525000Y-92237262D01*
X142491353Y-92240576D01*
X137158647Y-92240576D01*
X137125000Y-92237262D01*
X137091353Y-92240576D01*
X136990717Y-92250488D01*
X136861594Y-92289657D01*
X136742593Y-92353264D01*
X136638289Y-92438865D01*
X136552688Y-92543169D01*
X136489081Y-92662170D01*
X136449912Y-92791293D01*
X136436686Y-92925576D01*
X134323314Y-92925576D01*
X134310088Y-92791293D01*
X134270919Y-92662170D01*
X134207312Y-92543169D01*
X134121711Y-92438865D01*
X134017407Y-92353264D01*
X133898406Y-92289657D01*
X133769283Y-92250488D01*
X133668647Y-92240576D01*
X133635000Y-92237262D01*
X133601353Y-92240576D01*
X128268647Y-92240576D01*
X128235000Y-92237262D01*
X128201353Y-92240576D01*
X128100717Y-92250488D01*
X127971594Y-92289657D01*
X127852593Y-92353264D01*
X127748289Y-92438865D01*
X127662688Y-92543169D01*
X127599081Y-92662170D01*
X127559912Y-92791293D01*
X127546686Y-92925576D01*
X125433314Y-92925576D01*
X125420088Y-92791293D01*
X125380919Y-92662170D01*
X125317312Y-92543169D01*
X125231711Y-92438865D01*
X125127407Y-92353264D01*
X125008406Y-92289657D01*
X124879283Y-92250488D01*
X124778647Y-92240576D01*
X124745000Y-92237262D01*
X124711353Y-92240576D01*
X119378647Y-92240576D01*
X119345000Y-92237262D01*
X119311353Y-92240576D01*
X119210717Y-92250488D01*
X119081594Y-92289657D01*
X118962593Y-92353264D01*
X118858289Y-92438865D01*
X118772688Y-92543169D01*
X118709081Y-92662170D01*
X118669912Y-92791293D01*
X118656686Y-92925576D01*
X116543314Y-92925576D01*
X116530088Y-92791293D01*
X116490919Y-92662170D01*
X116427312Y-92543169D01*
X116341711Y-92438865D01*
X116237407Y-92353264D01*
X116118406Y-92289657D01*
X115989283Y-92250488D01*
X115888647Y-92240576D01*
X115855000Y-92237262D01*
X115821353Y-92240576D01*
X110488647Y-92240576D01*
X110455000Y-92237262D01*
X110421353Y-92240576D01*
X110320717Y-92250488D01*
X110191594Y-92289657D01*
X110072593Y-92353264D01*
X109968289Y-92438865D01*
X109882688Y-92543169D01*
X109819081Y-92662170D01*
X109779912Y-92791293D01*
X109766686Y-92925576D01*
X107653314Y-92925576D01*
X107640088Y-92791293D01*
X107600919Y-92662170D01*
X107537312Y-92543169D01*
X107451711Y-92438865D01*
X107347407Y-92353264D01*
X107228406Y-92289657D01*
X107099283Y-92250488D01*
X106998647Y-92240576D01*
X106965000Y-92237262D01*
X106931353Y-92240576D01*
X101598647Y-92240576D01*
X101565000Y-92237262D01*
X101531353Y-92240576D01*
X101430717Y-92250488D01*
X101301594Y-92289657D01*
X101182593Y-92353264D01*
X101078289Y-92438865D01*
X100992688Y-92543169D01*
X100929081Y-92662170D01*
X100889912Y-92791293D01*
X100876686Y-92925576D01*
X98763314Y-92925576D01*
X98750088Y-92791293D01*
X98710919Y-92662170D01*
X98647312Y-92543169D01*
X98561711Y-92438865D01*
X98457407Y-92353264D01*
X98338406Y-92289657D01*
X98209283Y-92250488D01*
X98108647Y-92240576D01*
X98075000Y-92237262D01*
X98041353Y-92240576D01*
X92708647Y-92240576D01*
X92675000Y-92237262D01*
X92641353Y-92240576D01*
X92540717Y-92250488D01*
X92411594Y-92289657D01*
X92292593Y-92353264D01*
X92188289Y-92438865D01*
X92102688Y-92543169D01*
X92039081Y-92662170D01*
X91999912Y-92791293D01*
X91986686Y-92925576D01*
X90358019Y-92925576D01*
X90345088Y-92794293D01*
X90305919Y-92665170D01*
X90242312Y-92546169D01*
X90156711Y-92441865D01*
X90052407Y-92356264D01*
X89933406Y-92292657D01*
X89804283Y-92253488D01*
X89703647Y-92243576D01*
X89670000Y-92240262D01*
X89636353Y-92243576D01*
X84303647Y-92243576D01*
X84270000Y-92240262D01*
X84236353Y-92243576D01*
X84135717Y-92253488D01*
X84006594Y-92292657D01*
X83887593Y-92356264D01*
X83783289Y-92441865D01*
X83697688Y-92546169D01*
X83634081Y-92665170D01*
X83594912Y-92794293D01*
X83581686Y-92928576D01*
X83585000Y-92962223D01*
X83585000Y-93904367D01*
X83569068Y-93824271D01*
X83498586Y-93654111D01*
X83396262Y-93500972D01*
X83266028Y-93370738D01*
X83112889Y-93268414D01*
X82942729Y-93197932D01*
X82762089Y-93162000D01*
X82577911Y-93162000D01*
X82397271Y-93197932D01*
X82227111Y-93268414D01*
X82073972Y-93370738D01*
X82030000Y-93414710D01*
X82030000Y-89507000D01*
X82890792Y-89507000D01*
X82881928Y-89597000D01*
X82881928Y-89597000D01*
G37*
X82881928Y-89597000D02*
X82881928Y-91597000D01*
X82894188Y-91721482D01*
X82930498Y-91841180D01*
X82989463Y-91951494D01*
X83068815Y-92048185D01*
X83165506Y-92127537D01*
X83275820Y-92186502D01*
X83395518Y-92222812D01*
X83520000Y-92235072D01*
X93520000Y-92235072D01*
X93644482Y-92222812D01*
X93764180Y-92186502D01*
X93874494Y-92127537D01*
X93971185Y-92048185D01*
X94050537Y-91951494D01*
X94109502Y-91841180D01*
X94145812Y-91721482D01*
X94158072Y-91597000D01*
X94158072Y-89597000D01*
X94149208Y-89507000D01*
X158890792Y-89507000D01*
X158881928Y-89597000D01*
X158881928Y-91597000D01*
X158894188Y-91721482D01*
X158930498Y-91841180D01*
X158989463Y-91951494D01*
X159068815Y-92048185D01*
X159165506Y-92127537D01*
X159275820Y-92186502D01*
X159395518Y-92222812D01*
X159520000Y-92235072D01*
X169520000Y-92235072D01*
X169644482Y-92222812D01*
X169764180Y-92186502D01*
X169874494Y-92127537D01*
X169971185Y-92048185D01*
X170050537Y-91951494D01*
X170109502Y-91841180D01*
X170145812Y-91721482D01*
X170158072Y-91597000D01*
X170158072Y-89597000D01*
X170149208Y-89507000D01*
X170810000Y-89507000D01*
X170810001Y-110270000D01*
X165320000Y-110270000D01*
X165295224Y-110272440D01*
X165271399Y-110279667D01*
X165249443Y-110291403D01*
X165230197Y-110307197D01*
X165214403Y-110326443D01*
X165202667Y-110348399D01*
X165195440Y-110372224D01*
X165193000Y-110397000D01*
X165193000Y-128397000D01*
X165195440Y-128421776D01*
X165202667Y-128445601D01*
X165214403Y-128467557D01*
X165230197Y-128486803D01*
X165249443Y-128502597D01*
X165271399Y-128514333D01*
X165295224Y-128521560D01*
X165320000Y-128524000D01*
X170810001Y-128524000D01*
X170810001Y-130458731D01*
X170739918Y-130289537D01*
X170560987Y-130021748D01*
X170333252Y-129794013D01*
X170065463Y-129615082D01*
X169767912Y-129491832D01*
X169452033Y-129429000D01*
X169129967Y-129429000D01*
X168814088Y-129491832D01*
X168516537Y-129615082D01*
X168248748Y-129794013D01*
X168021013Y-130021748D01*
X167842082Y-130289537D01*
X167718832Y-130587088D01*
X167656000Y-130902967D01*
X167656000Y-131225033D01*
X167718832Y-131540912D01*
X167772302Y-131670000D01*
X166999698Y-131670000D01*
X167053168Y-131540912D01*
X167116000Y-131225033D01*
X167116000Y-130902967D01*
X167053168Y-130587088D01*
X166929918Y-130289537D01*
X166750987Y-130021748D01*
X166523252Y-129794013D01*
X166255463Y-129615082D01*
X165957912Y-129491832D01*
X165642033Y-129429000D01*
X165319967Y-129429000D01*
X165004088Y-129491832D01*
X164706537Y-129615082D01*
X164438748Y-129794013D01*
X164211013Y-130021748D01*
X164032082Y-130289537D01*
X163908832Y-130587088D01*
X163846000Y-130902967D01*
X163846000Y-131225033D01*
X163908832Y-131540912D01*
X163962302Y-131670000D01*
X154035000Y-131670000D01*
X154035000Y-131664967D01*
X153972168Y-131349088D01*
X153848918Y-131051537D01*
X153669987Y-130783748D01*
X153442252Y-130556013D01*
X153174463Y-130377082D01*
X152876912Y-130253832D01*
X152561033Y-130191000D01*
X152238967Y-130191000D01*
X151923088Y-130253832D01*
X151625537Y-130377082D01*
X151357748Y-130556013D01*
X151130013Y-130783748D01*
X150951082Y-131051537D01*
X150827832Y-131349088D01*
X150765000Y-131664967D01*
X150765000Y-131670000D01*
X143005000Y-131670000D01*
X143005000Y-131554911D01*
X142969068Y-131374271D01*
X142898586Y-131204111D01*
X142796262Y-131050972D01*
X142666028Y-130920738D01*
X142512889Y-130818414D01*
X142342729Y-130747932D01*
X142204531Y-130720442D01*
X142194277Y-130712027D01*
X142062248Y-130641455D01*
X141918987Y-130597998D01*
X141807334Y-130587001D01*
X141807323Y-130587001D01*
X141770001Y-130583325D01*
X141732679Y-130587001D01*
X133608348Y-130587001D01*
X133653513Y-130438111D01*
X133681200Y-130157000D01*
X153782667Y-130157000D01*
X153820000Y-130160677D01*
X153857333Y-130157000D01*
X153968986Y-130146003D01*
X154112247Y-130102546D01*
X154244276Y-130031974D01*
X154360001Y-129937001D01*
X154454974Y-129821276D01*
X154525546Y-129689247D01*
X154552974Y-129598827D01*
X155031650Y-129120152D01*
X155152729Y-129096068D01*
X155322889Y-129025586D01*
X155476028Y-128923262D01*
X155606262Y-128793028D01*
X155708586Y-128639889D01*
X155779068Y-128469729D01*
X155815000Y-128289089D01*
X155815000Y-128104911D01*
X155810442Y-128081999D01*
X157500198Y-128081999D01*
X157766847Y-128348649D01*
X157790932Y-128469729D01*
X157861414Y-128639889D01*
X157963738Y-128793028D01*
X158093972Y-128923262D01*
X158247111Y-129025586D01*
X158417271Y-129096068D01*
X158597911Y-129132000D01*
X158782089Y-129132000D01*
X158962729Y-129096068D01*
X159132889Y-129025586D01*
X159286028Y-128923262D01*
X159325000Y-128884290D01*
X159363972Y-128923262D01*
X159517111Y-129025586D01*
X159687271Y-129096068D01*
X159867911Y-129132000D01*
X160052089Y-129132000D01*
X160232729Y-129096068D01*
X160402889Y-129025586D01*
X160556028Y-128923262D01*
X160686262Y-128793028D01*
X160788586Y-128639889D01*
X160859068Y-128469729D01*
X160895000Y-128289089D01*
X160895000Y-128104911D01*
X160859068Y-127924271D01*
X160788586Y-127754111D01*
X160686262Y-127600972D01*
X160556028Y-127470738D01*
X160402889Y-127368414D01*
X160232729Y-127297932D01*
X160111649Y-127273847D01*
X159198793Y-126360992D01*
X159174990Y-126331988D01*
X159059265Y-126237015D01*
X158927236Y-126166443D01*
X158783975Y-126122986D01*
X158672322Y-126111989D01*
X158672311Y-126111989D01*
X158634989Y-126108313D01*
X158597667Y-126111989D01*
X149679812Y-126111989D01*
X149899890Y-125891911D01*
X161879000Y-125891911D01*
X161879000Y-126076089D01*
X161914932Y-126256729D01*
X161985414Y-126426889D01*
X162087738Y-126580028D01*
X162217972Y-126710262D01*
X162371111Y-126812586D01*
X162541271Y-126883068D01*
X162721911Y-126919000D01*
X162906089Y-126919000D01*
X163086729Y-126883068D01*
X163256889Y-126812586D01*
X163410028Y-126710262D01*
X163540262Y-126580028D01*
X163642586Y-126426889D01*
X163713068Y-126256729D01*
X163749000Y-126076089D01*
X163749000Y-125891911D01*
X163713068Y-125711271D01*
X163642586Y-125541111D01*
X163540262Y-125387972D01*
X163410028Y-125257738D01*
X163256889Y-125155414D01*
X163086729Y-125084932D01*
X162906089Y-125049000D01*
X162721911Y-125049000D01*
X162541271Y-125084932D01*
X162371111Y-125155414D01*
X162217972Y-125257738D01*
X162087738Y-125387972D01*
X161985414Y-125541111D01*
X161914932Y-125711271D01*
X161879000Y-125891911D01*
X149899890Y-125891911D01*
X150311004Y-125480798D01*
X150340001Y-125457001D01*
X150434974Y-125341276D01*
X150505546Y-125209247D01*
X150549003Y-125065986D01*
X150560000Y-124954333D01*
X150560000Y-124954325D01*
X150563676Y-124917000D01*
X150560000Y-124879675D01*
X150560000Y-122832000D01*
X150662089Y-122832000D01*
X150842729Y-122796068D01*
X151012889Y-122725586D01*
X151166028Y-122623262D01*
X151296262Y-122493028D01*
X151398586Y-122339889D01*
X151469068Y-122169729D01*
X151493153Y-122048649D01*
X152331004Y-121210798D01*
X152360001Y-121187001D01*
X152386332Y-121154917D01*
X152454974Y-121071277D01*
X152525546Y-120939247D01*
X152525546Y-120939246D01*
X152569003Y-120795986D01*
X152580000Y-120684333D01*
X152580000Y-120684323D01*
X152583676Y-120647000D01*
X152580000Y-120609677D01*
X152580000Y-115192535D01*
X152648586Y-115089889D01*
X152719068Y-114919729D01*
X152755000Y-114739089D01*
X152755000Y-114554911D01*
X152719068Y-114374271D01*
X152648586Y-114204111D01*
X152546262Y-114050972D01*
X152416028Y-113920738D01*
X152262889Y-113818414D01*
X152092729Y-113747932D01*
X151912089Y-113712000D01*
X151727911Y-113712000D01*
X151547271Y-113747932D01*
X151377111Y-113818414D01*
X151223972Y-113920738D01*
X151093738Y-114050972D01*
X150991414Y-114204111D01*
X150920932Y-114374271D01*
X150885000Y-114554911D01*
X150885000Y-114739089D01*
X150920932Y-114919729D01*
X150991414Y-115089889D01*
X151060001Y-115192537D01*
X151060000Y-120332198D01*
X150560000Y-120832199D01*
X150560000Y-110742535D01*
X150628586Y-110639889D01*
X150699068Y-110469729D01*
X150726465Y-110331999D01*
X151241081Y-110331999D01*
X151246424Y-110344899D01*
X151348748Y-110498038D01*
X151478982Y-110628272D01*
X151632121Y-110730596D01*
X151802281Y-110801078D01*
X151982921Y-110837010D01*
X152167099Y-110837010D01*
X152347739Y-110801078D01*
X152517899Y-110730596D01*
X152671038Y-110628272D01*
X152745683Y-110553627D01*
X152781414Y-110639889D01*
X152883738Y-110793028D01*
X153013972Y-110923262D01*
X153167111Y-111025586D01*
X153337271Y-111096068D01*
X153517911Y-111132000D01*
X153702089Y-111132000D01*
X153882729Y-111096068D01*
X154052889Y-111025586D01*
X154206028Y-110923262D01*
X154336262Y-110793028D01*
X154438586Y-110639889D01*
X154509068Y-110469729D01*
X154545000Y-110289089D01*
X154545000Y-110104911D01*
X154509068Y-109924271D01*
X154438586Y-109754111D01*
X154336262Y-109600972D01*
X154206028Y-109470738D01*
X154052889Y-109368414D01*
X153882729Y-109297932D01*
X153761649Y-109273847D01*
X152543106Y-108055305D01*
X152641034Y-108025599D01*
X152899014Y-107887706D01*
X153125134Y-107702134D01*
X153310706Y-107476014D01*
X153448599Y-107218034D01*
X153533513Y-106938111D01*
X153562185Y-106647000D01*
X153533513Y-106355889D01*
X153448599Y-106075966D01*
X153310706Y-105817986D01*
X153125134Y-105591866D01*
X152899014Y-105406294D01*
X152641034Y-105268401D01*
X152361111Y-105183487D01*
X152142950Y-105162000D01*
X151997050Y-105162000D01*
X151778889Y-105183487D01*
X151498966Y-105268401D01*
X151240986Y-105406294D01*
X151014866Y-105591866D01*
X150829294Y-105817986D01*
X150800000Y-105872791D01*
X150770706Y-105817986D01*
X150585134Y-105591866D01*
X150359014Y-105406294D01*
X150101034Y-105268401D01*
X149821111Y-105183487D01*
X149602950Y-105162000D01*
X149457050Y-105162000D01*
X149238889Y-105183487D01*
X148958966Y-105268401D01*
X148700986Y-105406294D01*
X148474866Y-105591866D01*
X148289294Y-105817986D01*
X148260000Y-105872791D01*
X148230706Y-105817986D01*
X148045134Y-105591866D01*
X147819014Y-105406294D01*
X147561034Y-105268401D01*
X147281111Y-105183487D01*
X147062950Y-105162000D01*
X146917050Y-105162000D01*
X146698889Y-105183487D01*
X146418966Y-105268401D01*
X146160986Y-105406294D01*
X145934866Y-105591866D01*
X145910393Y-105621687D01*
X145889502Y-105552820D01*
X145830537Y-105442506D01*
X145751185Y-105345815D01*
X145654494Y-105266463D01*
X145544180Y-105207498D01*
X145424482Y-105171188D01*
X145300000Y-105158928D01*
X143600000Y-105158928D01*
X143475518Y-105171188D01*
X143355820Y-105207498D01*
X143280000Y-105248025D01*
X143280000Y-103942535D01*
X143348586Y-103839889D01*
X143419068Y-103669729D01*
X143455000Y-103489089D01*
X143455000Y-103304911D01*
X143419068Y-103124271D01*
X143348586Y-102954111D01*
X143246262Y-102800972D01*
X143116028Y-102670738D01*
X143005672Y-102597000D01*
X158881928Y-102597000D01*
X158881928Y-104597000D01*
X158894188Y-104721482D01*
X158930498Y-104841180D01*
X158989463Y-104951494D01*
X159068815Y-105048185D01*
X159165506Y-105127537D01*
X159275820Y-105186502D01*
X159395518Y-105222812D01*
X159520000Y-105235072D01*
X169520000Y-105235072D01*
X169644482Y-105222812D01*
X169764180Y-105186502D01*
X169874494Y-105127537D01*
X169971185Y-105048185D01*
X170050537Y-104951494D01*
X170109502Y-104841180D01*
X170145812Y-104721482D01*
X170158072Y-104597000D01*
X170158072Y-102597000D01*
X170145812Y-102472518D01*
X170109502Y-102352820D01*
X170050537Y-102242506D01*
X169971185Y-102145815D01*
X169874494Y-102066463D01*
X169764180Y-102007498D01*
X169644482Y-101971188D01*
X169520000Y-101958928D01*
X159520000Y-101958928D01*
X159395518Y-101971188D01*
X159275820Y-102007498D01*
X159165506Y-102066463D01*
X159068815Y-102145815D01*
X158989463Y-102242506D01*
X158930498Y-102352820D01*
X158894188Y-102472518D01*
X158881928Y-102597000D01*
X143005672Y-102597000D01*
X142962889Y-102568414D01*
X142792729Y-102497932D01*
X142612089Y-102462000D01*
X142427911Y-102462000D01*
X142247271Y-102497932D01*
X142077111Y-102568414D01*
X141923972Y-102670738D01*
X141793738Y-102800972D01*
X141691414Y-102954111D01*
X141620932Y-103124271D01*
X141585000Y-103304911D01*
X141585000Y-103489089D01*
X141620932Y-103669729D01*
X141691414Y-103839889D01*
X141760001Y-103942537D01*
X141760000Y-110359677D01*
X141756324Y-110397000D01*
X141760000Y-110434322D01*
X141760000Y-110434332D01*
X141770997Y-110545985D01*
X141799482Y-110639889D01*
X141814454Y-110689246D01*
X141885026Y-110821276D01*
X141893806Y-110831974D01*
X141979999Y-110937001D01*
X142009002Y-110960803D01*
X142110200Y-111062001D01*
X103884805Y-111062001D01*
X92237807Y-99415004D01*
X92214004Y-99386000D01*
X92098279Y-99291027D01*
X91966250Y-99220455D01*
X91822989Y-99176998D01*
X91711336Y-99166001D01*
X91711325Y-99166001D01*
X91674003Y-99162325D01*
X91636681Y-99166001D01*
X84863803Y-99166001D01*
X84311378Y-98613576D01*
X89636353Y-98613576D01*
X89670000Y-98616890D01*
X89703647Y-98613576D01*
X89804283Y-98603664D01*
X89933406Y-98564495D01*
X90052407Y-98500888D01*
X90156711Y-98415287D01*
X90242312Y-98310983D01*
X90305919Y-98191982D01*
X90345088Y-98062859D01*
X90358314Y-97928576D01*
X90355000Y-97894929D01*
X90355000Y-92962223D01*
X90358314Y-92928576D01*
X90358019Y-92925576D01*
X91986686Y-92925576D01*
X91990000Y-92959223D01*
X91990001Y-97891919D01*
X91986686Y-97925576D01*
X91999912Y-98059859D01*
X92039081Y-98188982D01*
X92102688Y-98307983D01*
X92188289Y-98412287D01*
X92292593Y-98497888D01*
X92411594Y-98561495D01*
X92540717Y-98600664D01*
X92641353Y-98610576D01*
X92675000Y-98613890D01*
X92708647Y-98610576D01*
X98041353Y-98610576D01*
X98075000Y-98613890D01*
X98108647Y-98610576D01*
X98209283Y-98600664D01*
X98338406Y-98561495D01*
X98457407Y-98497888D01*
X98561711Y-98412287D01*
X98647312Y-98307983D01*
X98710919Y-98188982D01*
X98750088Y-98059859D01*
X98763314Y-97925576D01*
X98760000Y-97891929D01*
X98760000Y-92959223D01*
X98763314Y-92925576D01*
X100876686Y-92925576D01*
X100880000Y-92959223D01*
X100880001Y-97891919D01*
X100876686Y-97925576D01*
X100889912Y-98059859D01*
X100929081Y-98188982D01*
X100992688Y-98307983D01*
X101078289Y-98412287D01*
X101182593Y-98497888D01*
X101301594Y-98561495D01*
X101430717Y-98600664D01*
X101531353Y-98610576D01*
X101565000Y-98613890D01*
X101598647Y-98610576D01*
X106931353Y-98610576D01*
X106965000Y-98613890D01*
X106998647Y-98610576D01*
X107099283Y-98600664D01*
X107228406Y-98561495D01*
X107347407Y-98497888D01*
X107451711Y-98412287D01*
X107537312Y-98307983D01*
X107600919Y-98188982D01*
X107640088Y-98059859D01*
X107653314Y-97925576D01*
X107650000Y-97891929D01*
X107650000Y-92959223D01*
X107653314Y-92925576D01*
X109766686Y-92925576D01*
X109770000Y-92959223D01*
X109770001Y-97891919D01*
X109766686Y-97925576D01*
X109779912Y-98059859D01*
X109819081Y-98188982D01*
X109882688Y-98307983D01*
X109968289Y-98412287D01*
X110072593Y-98497888D01*
X110191594Y-98561495D01*
X110320717Y-98600664D01*
X110421353Y-98610576D01*
X110455000Y-98613890D01*
X110488647Y-98610576D01*
X115821353Y-98610576D01*
X115855000Y-98613890D01*
X115888647Y-98610576D01*
X115989283Y-98600664D01*
X116118406Y-98561495D01*
X116237407Y-98497888D01*
X116341711Y-98412287D01*
X116427312Y-98307983D01*
X116490919Y-98188982D01*
X116530088Y-98059859D01*
X116543314Y-97925576D01*
X116540000Y-97891929D01*
X116540000Y-92959223D01*
X116543314Y-92925576D01*
X118656686Y-92925576D01*
X118660000Y-92959223D01*
X118660001Y-97891919D01*
X118656686Y-97925576D01*
X118669912Y-98059859D01*
X118709081Y-98188982D01*
X118772688Y-98307983D01*
X118858289Y-98412287D01*
X118962593Y-98497888D01*
X119081594Y-98561495D01*
X119210717Y-98600664D01*
X119311353Y-98610576D01*
X119345000Y-98613890D01*
X119378647Y-98610576D01*
X124711353Y-98610576D01*
X124745000Y-98613890D01*
X124778647Y-98610576D01*
X124879283Y-98600664D01*
X125008406Y-98561495D01*
X125127407Y-98497888D01*
X125231711Y-98412287D01*
X125317312Y-98307983D01*
X125380919Y-98188982D01*
X125420088Y-98059859D01*
X125433314Y-97925576D01*
X125430000Y-97891929D01*
X125430000Y-92959223D01*
X125433314Y-92925576D01*
X127546686Y-92925576D01*
X127550000Y-92959223D01*
X127550001Y-97891919D01*
X127546686Y-97925576D01*
X127559912Y-98059859D01*
X127599081Y-98188982D01*
X127662688Y-98307983D01*
X127748289Y-98412287D01*
X127852593Y-98497888D01*
X127971594Y-98561495D01*
X128100717Y-98600664D01*
X128201353Y-98610576D01*
X128235000Y-98613890D01*
X128268647Y-98610576D01*
X133601353Y-98610576D01*
X133635000Y-98613890D01*
X133668647Y-98610576D01*
X133769283Y-98600664D01*
X133898406Y-98561495D01*
X134017407Y-98497888D01*
X134121711Y-98412287D01*
X134207312Y-98307983D01*
X134270919Y-98188982D01*
X134310088Y-98059859D01*
X134323314Y-97925576D01*
X134320000Y-97891929D01*
X134320000Y-92959223D01*
X134323314Y-92925576D01*
X136436686Y-92925576D01*
X136440000Y-92959223D01*
X136440001Y-97891919D01*
X136436686Y-97925576D01*
X136449912Y-98059859D01*
X136489081Y-98188982D01*
X136552688Y-98307983D01*
X136638289Y-98412287D01*
X136742593Y-98497888D01*
X136861594Y-98561495D01*
X136990717Y-98600664D01*
X137091353Y-98610576D01*
X137125000Y-98613890D01*
X137158647Y-98610576D01*
X142491353Y-98610576D01*
X142525000Y-98613890D01*
X142558647Y-98610576D01*
X142659283Y-98600664D01*
X142788406Y-98561495D01*
X142907407Y-98497888D01*
X143011711Y-98412287D01*
X143097312Y-98307983D01*
X143160919Y-98188982D01*
X143200088Y-98059859D01*
X143213314Y-97925576D01*
X143210000Y-97891929D01*
X143210000Y-92959223D01*
X143213314Y-92925576D01*
X145326686Y-92925576D01*
X145330000Y-92959223D01*
X145330001Y-97891919D01*
X145326686Y-97925576D01*
X145339912Y-98059859D01*
X145379081Y-98188982D01*
X145442688Y-98307983D01*
X145528289Y-98412287D01*
X145632593Y-98497888D01*
X145751594Y-98561495D01*
X145880717Y-98600664D01*
X145981353Y-98610576D01*
X146015000Y-98613890D01*
X146048647Y-98610576D01*
X151381353Y-98610576D01*
X151415000Y-98613890D01*
X151448647Y-98610576D01*
X151549283Y-98600664D01*
X151678406Y-98561495D01*
X151797407Y-98497888D01*
X151901711Y-98412287D01*
X151987312Y-98307983D01*
X152050919Y-98188982D01*
X152090088Y-98059859D01*
X152103314Y-97925576D01*
X152100000Y-97891929D01*
X152100000Y-92959223D01*
X152103314Y-92925576D01*
X154216686Y-92925576D01*
X154220000Y-92959223D01*
X154220001Y-97891919D01*
X154216686Y-97925576D01*
X154229912Y-98059859D01*
X154269081Y-98188982D01*
X154332688Y-98307983D01*
X154418289Y-98412287D01*
X154522593Y-98497888D01*
X154641594Y-98561495D01*
X154770717Y-98600664D01*
X154871353Y-98610576D01*
X154905000Y-98613890D01*
X154938647Y-98610576D01*
X160271353Y-98610576D01*
X160305000Y-98613890D01*
X160338647Y-98610576D01*
X160439283Y-98600664D01*
X160568406Y-98561495D01*
X160687407Y-98497888D01*
X160791711Y-98412287D01*
X160877312Y-98307983D01*
X160940919Y-98188982D01*
X160980088Y-98059859D01*
X160993314Y-97925576D01*
X160990000Y-97891929D01*
X160990000Y-92959223D01*
X160990556Y-92953576D01*
X162806686Y-92953576D01*
X162810000Y-92987223D01*
X162810001Y-97919919D01*
X162806686Y-97953576D01*
X162819912Y-98087859D01*
X162859081Y-98216982D01*
X162922688Y-98335983D01*
X163008289Y-98440287D01*
X163112593Y-98525888D01*
X163231594Y-98589495D01*
X163360717Y-98628664D01*
X163461353Y-98638576D01*
X163495000Y-98641890D01*
X163528647Y-98638576D01*
X168861353Y-98638576D01*
X168895000Y-98641890D01*
X168928647Y-98638576D01*
X169029283Y-98628664D01*
X169158406Y-98589495D01*
X169277407Y-98525888D01*
X169381711Y-98440287D01*
X169467312Y-98335983D01*
X169530919Y-98216982D01*
X169570088Y-98087859D01*
X169583314Y-97953576D01*
X169580000Y-97919929D01*
X169580000Y-92987223D01*
X169583314Y-92953576D01*
X169570088Y-92819293D01*
X169530919Y-92690170D01*
X169467312Y-92571169D01*
X169381711Y-92466865D01*
X169277407Y-92381264D01*
X169158406Y-92317657D01*
X169029283Y-92278488D01*
X168928647Y-92268576D01*
X168895000Y-92265262D01*
X168861353Y-92268576D01*
X163528647Y-92268576D01*
X163495000Y-92265262D01*
X163461353Y-92268576D01*
X163360717Y-92278488D01*
X163231594Y-92317657D01*
X163112593Y-92381264D01*
X163008289Y-92466865D01*
X162922688Y-92571169D01*
X162859081Y-92690170D01*
X162819912Y-92819293D01*
X162806686Y-92953576D01*
X160990556Y-92953576D01*
X160993314Y-92925576D01*
X160980088Y-92791293D01*
X160940919Y-92662170D01*
X160877312Y-92543169D01*
X160791711Y-92438865D01*
X160687407Y-92353264D01*
X160568406Y-92289657D01*
X160439283Y-92250488D01*
X160338647Y-92240576D01*
X160305000Y-92237262D01*
X160271353Y-92240576D01*
X154938647Y-92240576D01*
X154905000Y-92237262D01*
X154871353Y-92240576D01*
X154770717Y-92250488D01*
X154641594Y-92289657D01*
X154522593Y-92353264D01*
X154418289Y-92438865D01*
X154332688Y-92543169D01*
X154269081Y-92662170D01*
X154229912Y-92791293D01*
X154216686Y-92925576D01*
X152103314Y-92925576D01*
X152090088Y-92791293D01*
X152050919Y-92662170D01*
X151987312Y-92543169D01*
X151901711Y-92438865D01*
X151797407Y-92353264D01*
X151678406Y-92289657D01*
X151549283Y-92250488D01*
X151448647Y-92240576D01*
X151415000Y-92237262D01*
X151381353Y-92240576D01*
X146048647Y-92240576D01*
X146015000Y-92237262D01*
X145981353Y-92240576D01*
X145880717Y-92250488D01*
X145751594Y-92289657D01*
X145632593Y-92353264D01*
X145528289Y-92438865D01*
X145442688Y-92543169D01*
X145379081Y-92662170D01*
X145339912Y-92791293D01*
X145326686Y-92925576D01*
X143213314Y-92925576D01*
X143200088Y-92791293D01*
X143160919Y-92662170D01*
X143097312Y-92543169D01*
X143011711Y-92438865D01*
X142907407Y-92353264D01*
X142788406Y-92289657D01*
X142659283Y-92250488D01*
X142558647Y-92240576D01*
X142525000Y-92237262D01*
X142491353Y-92240576D01*
X137158647Y-92240576D01*
X137125000Y-92237262D01*
X137091353Y-92240576D01*
X136990717Y-92250488D01*
X136861594Y-92289657D01*
X136742593Y-92353264D01*
X136638289Y-92438865D01*
X136552688Y-92543169D01*
X136489081Y-92662170D01*
X136449912Y-92791293D01*
X136436686Y-92925576D01*
X134323314Y-92925576D01*
X134310088Y-92791293D01*
X134270919Y-92662170D01*
X134207312Y-92543169D01*
X134121711Y-92438865D01*
X134017407Y-92353264D01*
X133898406Y-92289657D01*
X133769283Y-92250488D01*
X133668647Y-92240576D01*
X133635000Y-92237262D01*
X133601353Y-92240576D01*
X128268647Y-92240576D01*
X128235000Y-92237262D01*
X128201353Y-92240576D01*
X128100717Y-92250488D01*
X127971594Y-92289657D01*
X127852593Y-92353264D01*
X127748289Y-92438865D01*
X127662688Y-92543169D01*
X127599081Y-92662170D01*
X127559912Y-92791293D01*
X127546686Y-92925576D01*
X125433314Y-92925576D01*
X125420088Y-92791293D01*
X125380919Y-92662170D01*
X125317312Y-92543169D01*
X125231711Y-92438865D01*
X125127407Y-92353264D01*
X125008406Y-92289657D01*
X124879283Y-92250488D01*
X124778647Y-92240576D01*
X124745000Y-92237262D01*
X124711353Y-92240576D01*
X119378647Y-92240576D01*
X119345000Y-92237262D01*
X119311353Y-92240576D01*
X119210717Y-92250488D01*
X119081594Y-92289657D01*
X118962593Y-92353264D01*
X118858289Y-92438865D01*
X118772688Y-92543169D01*
X118709081Y-92662170D01*
X118669912Y-92791293D01*
X118656686Y-92925576D01*
X116543314Y-92925576D01*
X116530088Y-92791293D01*
X116490919Y-92662170D01*
X116427312Y-92543169D01*
X116341711Y-92438865D01*
X116237407Y-92353264D01*
X116118406Y-92289657D01*
X115989283Y-92250488D01*
X115888647Y-92240576D01*
X115855000Y-92237262D01*
X115821353Y-92240576D01*
X110488647Y-92240576D01*
X110455000Y-92237262D01*
X110421353Y-92240576D01*
X110320717Y-92250488D01*
X110191594Y-92289657D01*
X110072593Y-92353264D01*
X109968289Y-92438865D01*
X109882688Y-92543169D01*
X109819081Y-92662170D01*
X109779912Y-92791293D01*
X109766686Y-92925576D01*
X107653314Y-92925576D01*
X107640088Y-92791293D01*
X107600919Y-92662170D01*
X107537312Y-92543169D01*
X107451711Y-92438865D01*
X107347407Y-92353264D01*
X107228406Y-92289657D01*
X107099283Y-92250488D01*
X106998647Y-92240576D01*
X106965000Y-92237262D01*
X106931353Y-92240576D01*
X101598647Y-92240576D01*
X101565000Y-92237262D01*
X101531353Y-92240576D01*
X101430717Y-92250488D01*
X101301594Y-92289657D01*
X101182593Y-92353264D01*
X101078289Y-92438865D01*
X100992688Y-92543169D01*
X100929081Y-92662170D01*
X100889912Y-92791293D01*
X100876686Y-92925576D01*
X98763314Y-92925576D01*
X98750088Y-92791293D01*
X98710919Y-92662170D01*
X98647312Y-92543169D01*
X98561711Y-92438865D01*
X98457407Y-92353264D01*
X98338406Y-92289657D01*
X98209283Y-92250488D01*
X98108647Y-92240576D01*
X98075000Y-92237262D01*
X98041353Y-92240576D01*
X92708647Y-92240576D01*
X92675000Y-92237262D01*
X92641353Y-92240576D01*
X92540717Y-92250488D01*
X92411594Y-92289657D01*
X92292593Y-92353264D01*
X92188289Y-92438865D01*
X92102688Y-92543169D01*
X92039081Y-92662170D01*
X91999912Y-92791293D01*
X91986686Y-92925576D01*
X90358019Y-92925576D01*
X90345088Y-92794293D01*
X90305919Y-92665170D01*
X90242312Y-92546169D01*
X90156711Y-92441865D01*
X90052407Y-92356264D01*
X89933406Y-92292657D01*
X89804283Y-92253488D01*
X89703647Y-92243576D01*
X89670000Y-92240262D01*
X89636353Y-92243576D01*
X84303647Y-92243576D01*
X84270000Y-92240262D01*
X84236353Y-92243576D01*
X84135717Y-92253488D01*
X84006594Y-92292657D01*
X83887593Y-92356264D01*
X83783289Y-92441865D01*
X83697688Y-92546169D01*
X83634081Y-92665170D01*
X83594912Y-92794293D01*
X83581686Y-92928576D01*
X83585000Y-92962223D01*
X83585000Y-93904367D01*
X83569068Y-93824271D01*
X83498586Y-93654111D01*
X83396262Y-93500972D01*
X83266028Y-93370738D01*
X83112889Y-93268414D01*
X82942729Y-93197932D01*
X82762089Y-93162000D01*
X82577911Y-93162000D01*
X82397271Y-93197932D01*
X82227111Y-93268414D01*
X82073972Y-93370738D01*
X82030000Y-93414710D01*
X82030000Y-89507000D01*
X82890792Y-89507000D01*
X82881928Y-89597000D01*
G36*
X82035026Y-98471276D02*
G01*
X82074871Y-98519826D01*
X82129999Y-98587001D01*
X82159003Y-98610804D01*
X83985201Y-100437003D01*
X84009000Y-100466002D01*
X84124725Y-100560975D01*
X84256754Y-100631547D01*
X84400015Y-100675004D01*
X84511668Y-100686001D01*
X84511676Y-100686001D01*
X84549001Y-100689677D01*
X84586326Y-100686001D01*
X91359202Y-100686001D01*
X92632129Y-101958928D01*
X83520000Y-101958928D01*
X83395518Y-101971188D01*
X83275820Y-102007498D01*
X83165506Y-102066463D01*
X83068815Y-102145815D01*
X82989463Y-102242506D01*
X82930498Y-102352820D01*
X82894188Y-102472518D01*
X82881928Y-102597000D01*
X82881928Y-104597000D01*
X82894188Y-104721482D01*
X82930498Y-104841180D01*
X82989463Y-104951494D01*
X83068815Y-105048185D01*
X83165506Y-105127537D01*
X83275820Y-105186502D01*
X83395518Y-105222812D01*
X83520000Y-105235072D01*
X88656961Y-105235072D01*
X88656202Y-105235997D01*
X88656201Y-105235998D01*
X88585026Y-105322724D01*
X88514454Y-105454754D01*
X88494275Y-105521279D01*
X88479109Y-105571277D01*
X88470998Y-105598015D01*
X88456324Y-105747000D01*
X88460001Y-105784332D01*
X88460000Y-110509677D01*
X88456324Y-110547000D01*
X88460000Y-110584322D01*
X88460000Y-110584332D01*
X88470997Y-110695985D01*
X88500434Y-110793028D01*
X88514454Y-110839246D01*
X88585026Y-110971276D01*
X88617854Y-111011276D01*
X88679999Y-111087001D01*
X88709002Y-111110803D01*
X88896847Y-111298649D01*
X88920932Y-111419729D01*
X88991414Y-111589889D01*
X89093738Y-111743028D01*
X89223972Y-111873262D01*
X89377111Y-111975586D01*
X89547271Y-112046068D01*
X89727911Y-112082000D01*
X89912089Y-112082000D01*
X90092729Y-112046068D01*
X90262889Y-111975586D01*
X90416028Y-111873262D01*
X90546262Y-111743028D01*
X90648586Y-111589889D01*
X90719068Y-111419729D01*
X90755000Y-111239089D01*
X90755000Y-111054911D01*
X90719068Y-110874271D01*
X90648586Y-110704111D01*
X90546262Y-110550972D01*
X90416028Y-110420738D01*
X90262889Y-110318414D01*
X90092729Y-110247932D01*
X89980000Y-110225509D01*
X89980000Y-106068491D01*
X90092729Y-106046068D01*
X90262889Y-105975586D01*
X90416028Y-105873262D01*
X90546262Y-105743028D01*
X90648586Y-105589889D01*
X90719068Y-105419729D01*
X90755000Y-105239089D01*
X90755000Y-105235072D01*
X91907128Y-105235072D01*
X90448998Y-106693203D01*
X90420000Y-106717001D01*
X90396202Y-106745999D01*
X90396201Y-106746000D01*
X90325026Y-106832726D01*
X90254454Y-106964756D01*
X90210998Y-107108017D01*
X90196324Y-107257002D01*
X90200001Y-107294334D01*
X90200000Y-108221464D01*
X90131414Y-108324111D01*
X90060932Y-108494271D01*
X90025000Y-108674911D01*
X90025000Y-108859089D01*
X90060932Y-109039729D01*
X90131414Y-109209889D01*
X90233738Y-109363028D01*
X90363972Y-109493262D01*
X90517111Y-109595586D01*
X90687271Y-109666068D01*
X90867911Y-109702000D01*
X91052089Y-109702000D01*
X91232729Y-109666068D01*
X91402889Y-109595586D01*
X91556028Y-109493262D01*
X91686262Y-109363028D01*
X91788586Y-109209889D01*
X91859068Y-109039729D01*
X91895000Y-108859089D01*
X91895000Y-108674911D01*
X91859068Y-108494271D01*
X91788586Y-108324111D01*
X91720000Y-108221465D01*
X91720000Y-107571803D01*
X93271649Y-106020155D01*
X93392729Y-105996070D01*
X93562889Y-105925588D01*
X93716028Y-105823264D01*
X93846262Y-105693030D01*
X93948586Y-105539891D01*
X94019068Y-105369731D01*
X94055000Y-105189091D01*
X94055000Y-105004913D01*
X94045576Y-104957538D01*
X94050537Y-104951494D01*
X94109502Y-104841180D01*
X94145812Y-104721482D01*
X94158072Y-104597000D01*
X94158072Y-103484871D01*
X102193199Y-111519999D01*
X99892804Y-111519999D01*
X97273805Y-108901002D01*
X97250002Y-108871998D01*
X97134277Y-108777025D01*
X97002248Y-108706453D01*
X96858987Y-108662996D01*
X96747334Y-108651999D01*
X96747323Y-108651999D01*
X96710001Y-108648323D01*
X96672679Y-108651999D01*
X96147321Y-108651999D01*
X96109998Y-108648323D01*
X96072675Y-108651999D01*
X96072666Y-108651999D01*
X95961013Y-108662996D01*
X95817752Y-108706453D01*
X95685723Y-108777025D01*
X95569998Y-108871998D01*
X95546200Y-108900996D01*
X92308998Y-112138199D01*
X92280000Y-112161997D01*
X92256202Y-112190995D01*
X92256201Y-112190996D01*
X92185026Y-112277722D01*
X92114454Y-112409752D01*
X92100130Y-112456975D01*
X92074339Y-112542000D01*
X92070998Y-112553013D01*
X92056324Y-112701998D01*
X92060001Y-112739330D01*
X92060000Y-117101464D01*
X91991414Y-117204111D01*
X91920932Y-117374271D01*
X91885000Y-117554911D01*
X91885000Y-117739089D01*
X91920932Y-117919729D01*
X91991414Y-118089889D01*
X92093738Y-118243028D01*
X92223972Y-118373262D01*
X92377111Y-118475586D01*
X92547271Y-118546068D01*
X92727911Y-118582000D01*
X92912089Y-118582000D01*
X93092729Y-118546068D01*
X93262889Y-118475586D01*
X93416028Y-118373262D01*
X93546262Y-118243028D01*
X93648586Y-118089889D01*
X93719068Y-117919729D01*
X93755000Y-117739089D01*
X93755000Y-117554911D01*
X93719068Y-117374271D01*
X93648586Y-117204111D01*
X93580000Y-117101465D01*
X93580000Y-113016799D01*
X95709017Y-110887783D01*
X95727981Y-110923262D01*
X95775026Y-111011276D01*
X95825681Y-111072998D01*
X95870000Y-111127001D01*
X95898998Y-111150799D01*
X97210000Y-112461802D01*
X97210001Y-114281476D01*
X97112089Y-114262000D01*
X96927911Y-114262000D01*
X96747271Y-114297932D01*
X96577111Y-114368414D01*
X96423972Y-114470738D01*
X96293738Y-114600972D01*
X96191414Y-114754111D01*
X96120932Y-114924271D01*
X96085000Y-115104911D01*
X96085000Y-115289089D01*
X96120932Y-115469729D01*
X96191414Y-115639889D01*
X96293738Y-115793028D01*
X96297710Y-115797000D01*
X96293738Y-115800972D01*
X96191414Y-115954111D01*
X96120932Y-116124271D01*
X96085000Y-116304911D01*
X96085000Y-116489089D01*
X96120932Y-116669729D01*
X96191414Y-116839889D01*
X96293738Y-116993028D01*
X96423972Y-117123262D01*
X96577111Y-117225586D01*
X96747271Y-117296068D01*
X96868352Y-117320153D01*
X107381199Y-127833001D01*
X107404998Y-127862000D01*
X107520723Y-127956973D01*
X107652752Y-128027545D01*
X107796013Y-128071002D01*
X107907666Y-128081999D01*
X107907674Y-128081999D01*
X107944999Y-128085675D01*
X107982324Y-128081999D01*
X125560199Y-128081999D01*
X124935996Y-128706203D01*
X124861111Y-128683487D01*
X124642950Y-128662000D01*
X124497050Y-128662000D01*
X124278889Y-128683487D01*
X123998966Y-128768401D01*
X123740986Y-128906294D01*
X123514866Y-129091866D01*
X123490393Y-129121687D01*
X123469502Y-129052820D01*
X123410537Y-128942506D01*
X123331185Y-128845815D01*
X123234494Y-128766463D01*
X123124180Y-128707498D01*
X123004482Y-128671188D01*
X122880000Y-128658928D01*
X121180000Y-128658928D01*
X121055518Y-128671188D01*
X120935820Y-128707498D01*
X120825506Y-128766463D01*
X120728815Y-128845815D01*
X120649463Y-128942506D01*
X120590498Y-129052820D01*
X120554188Y-129172518D01*
X120541928Y-129297000D01*
X120541928Y-130587001D01*
X89997367Y-130587001D01*
X90028488Y-130555880D01*
X89913378Y-130440770D01*
X90203315Y-130314896D01*
X90369139Y-129982738D01*
X90466975Y-129624613D01*
X90493065Y-129254281D01*
X90446405Y-128885975D01*
X90328789Y-128533849D01*
X90203315Y-128299104D01*
X89913377Y-128173229D01*
X88779605Y-129307000D01*
X88793748Y-129321142D01*
X88614142Y-129500748D01*
X88600000Y-129486605D01*
X88585858Y-129500748D01*
X88406252Y-129321142D01*
X88420395Y-129307000D01*
X87286623Y-128173229D01*
X86996685Y-128299104D01*
X86830861Y-128631262D01*
X86733025Y-128989387D01*
X86706935Y-129359719D01*
X86753595Y-129728025D01*
X86871211Y-130080151D01*
X86996685Y-130314896D01*
X87286622Y-130440770D01*
X87171512Y-130555880D01*
X87202633Y-130587001D01*
X86175338Y-130587001D01*
X86253926Y-130508413D01*
X86460182Y-130199731D01*
X86602253Y-129856741D01*
X86674680Y-129492625D01*
X86674680Y-129121375D01*
X86602253Y-128757259D01*
X86460182Y-128414269D01*
X86253926Y-128105587D01*
X86141962Y-127993623D01*
X87466229Y-127993623D01*
X88600000Y-129127395D01*
X89733771Y-127993623D01*
X89607896Y-127703685D01*
X89275738Y-127537861D01*
X88917613Y-127440025D01*
X88547281Y-127413935D01*
X88178975Y-127460595D01*
X87826849Y-127578211D01*
X87592104Y-127703685D01*
X87466229Y-127993623D01*
X86141962Y-127993623D01*
X85991413Y-127843074D01*
X85682731Y-127636818D01*
X85339741Y-127494747D01*
X84975625Y-127422320D01*
X84604375Y-127422320D01*
X84240259Y-127494747D01*
X84166504Y-127525297D01*
X84909802Y-126782000D01*
X84981033Y-126782000D01*
X85296912Y-126719168D01*
X85594463Y-126595918D01*
X85862252Y-126416987D01*
X86089987Y-126189252D01*
X86268918Y-125921463D01*
X86392168Y-125623912D01*
X86455000Y-125308033D01*
X86455000Y-124985967D01*
X86392168Y-124670088D01*
X86268918Y-124372537D01*
X86089987Y-124104748D01*
X85862252Y-123877013D01*
X85594463Y-123698082D01*
X85296912Y-123574832D01*
X84981033Y-123512000D01*
X84658967Y-123512000D01*
X84343088Y-123574832D01*
X84045537Y-123698082D01*
X83777748Y-123877013D01*
X83550013Y-124104748D01*
X83371082Y-124372537D01*
X83247832Y-124670088D01*
X83185000Y-124985967D01*
X83185000Y-125308033D01*
X83247832Y-125623912D01*
X83371082Y-125921463D01*
X83471079Y-126071119D01*
X82704317Y-126837882D01*
X82675319Y-126861680D01*
X82651521Y-126890678D01*
X82651520Y-126890679D01*
X82580345Y-126977405D01*
X82509773Y-127109435D01*
X82487765Y-127181989D01*
X82466317Y-127252695D01*
X82459491Y-127321999D01*
X82451643Y-127401681D01*
X82455320Y-127439013D01*
X82455319Y-130025525D01*
X82451643Y-130062848D01*
X82455319Y-130100170D01*
X82455319Y-130100180D01*
X82466316Y-130211833D01*
X82509773Y-130355094D01*
X82580345Y-130487124D01*
X82597817Y-130508413D01*
X82675318Y-130602849D01*
X82704322Y-130626652D01*
X83747669Y-131670000D01*
X82030000Y-131670000D01*
X82030000Y-115569835D01*
X84585000Y-115569835D01*
X84585000Y-115744165D01*
X84619010Y-115915145D01*
X84685723Y-116076205D01*
X84782576Y-116221155D01*
X84905845Y-116344424D01*
X85050795Y-116441277D01*
X85211855Y-116507990D01*
X85382835Y-116542000D01*
X85557165Y-116542000D01*
X85728145Y-116507990D01*
X85889205Y-116441277D01*
X86034155Y-116344424D01*
X86157424Y-116221155D01*
X86254277Y-116076205D01*
X86320990Y-115915145D01*
X86355000Y-115744165D01*
X86355000Y-115569835D01*
X86320990Y-115398855D01*
X86254277Y-115237795D01*
X86157424Y-115092845D01*
X86034155Y-114969576D01*
X85889205Y-114872723D01*
X85728145Y-114806010D01*
X85557165Y-114772000D01*
X85382835Y-114772000D01*
X85211855Y-114806010D01*
X85050795Y-114872723D01*
X84905845Y-114969576D01*
X84782576Y-115092845D01*
X84685723Y-115237795D01*
X84619010Y-115398855D01*
X84585000Y-115569835D01*
X82030000Y-115569835D01*
X82030000Y-114764911D01*
X88305000Y-114764911D01*
X88305000Y-114949089D01*
X88340932Y-115129729D01*
X88411414Y-115299889D01*
X88513738Y-115453028D01*
X88643972Y-115583262D01*
X88797111Y-115685586D01*
X88967271Y-115756068D01*
X89147911Y-115792000D01*
X89332089Y-115792000D01*
X89512729Y-115756068D01*
X89682889Y-115685586D01*
X89785535Y-115617000D01*
X90026678Y-115617000D01*
X90064000Y-115620676D01*
X90101322Y-115617000D01*
X90101333Y-115617000D01*
X90212986Y-115606003D01*
X90356247Y-115562546D01*
X90488276Y-115491974D01*
X90604001Y-115397001D01*
X90627804Y-115367998D01*
X91157649Y-114838153D01*
X91278729Y-114814068D01*
X91448889Y-114743586D01*
X91602028Y-114641262D01*
X91732262Y-114511028D01*
X91834586Y-114357889D01*
X91905068Y-114187729D01*
X91941000Y-114007089D01*
X91941000Y-113822911D01*
X91905068Y-113642271D01*
X91834586Y-113472111D01*
X91732262Y-113318972D01*
X91602028Y-113188738D01*
X91448889Y-113086414D01*
X91278729Y-113015932D01*
X91098089Y-112980000D01*
X90913911Y-112980000D01*
X90733271Y-113015932D01*
X90563111Y-113086414D01*
X90409972Y-113188738D01*
X90279738Y-113318972D01*
X90177414Y-113472111D01*
X90106932Y-113642271D01*
X90082847Y-113763351D01*
X89763753Y-114082446D01*
X89682889Y-114028414D01*
X89512729Y-113957932D01*
X89332089Y-113922000D01*
X89147911Y-113922000D01*
X88967271Y-113957932D01*
X88797111Y-114028414D01*
X88643972Y-114130738D01*
X88513738Y-114260972D01*
X88411414Y-114414111D01*
X88340932Y-114584271D01*
X88305000Y-114764911D01*
X82030000Y-114764911D01*
X82030000Y-111569835D01*
X84585000Y-111569835D01*
X84585000Y-111744165D01*
X84619010Y-111915145D01*
X84685723Y-112076205D01*
X84782576Y-112221155D01*
X84905845Y-112344424D01*
X85050795Y-112441277D01*
X85211855Y-112507990D01*
X85382835Y-112542000D01*
X85557165Y-112542000D01*
X85728145Y-112507990D01*
X85889205Y-112441277D01*
X86034155Y-112344424D01*
X86157424Y-112221155D01*
X86254277Y-112076205D01*
X86320990Y-111915145D01*
X86355000Y-111744165D01*
X86355000Y-111569835D01*
X86320990Y-111398855D01*
X86254277Y-111237795D01*
X86157424Y-111092845D01*
X86034155Y-110969576D01*
X85889205Y-110872723D01*
X85728145Y-110806010D01*
X85557165Y-110772000D01*
X85382835Y-110772000D01*
X85211855Y-110806010D01*
X85050795Y-110872723D01*
X84905845Y-110969576D01*
X84782576Y-111092845D01*
X84685723Y-111237795D01*
X84619010Y-111398855D01*
X84585000Y-111569835D01*
X82030000Y-111569835D01*
X82030000Y-98461873D01*
X82035026Y-98471276D01*
X82035026Y-98471276D01*
G37*
X82035026Y-98471276D02*
X82074871Y-98519826D01*
X82129999Y-98587001D01*
X82159003Y-98610804D01*
X83985201Y-100437003D01*
X84009000Y-100466002D01*
X84124725Y-100560975D01*
X84256754Y-100631547D01*
X84400015Y-100675004D01*
X84511668Y-100686001D01*
X84511676Y-100686001D01*
X84549001Y-100689677D01*
X84586326Y-100686001D01*
X91359202Y-100686001D01*
X92632129Y-101958928D01*
X83520000Y-101958928D01*
X83395518Y-101971188D01*
X83275820Y-102007498D01*
X83165506Y-102066463D01*
X83068815Y-102145815D01*
X82989463Y-102242506D01*
X82930498Y-102352820D01*
X82894188Y-102472518D01*
X82881928Y-102597000D01*
X82881928Y-104597000D01*
X82894188Y-104721482D01*
X82930498Y-104841180D01*
X82989463Y-104951494D01*
X83068815Y-105048185D01*
X83165506Y-105127537D01*
X83275820Y-105186502D01*
X83395518Y-105222812D01*
X83520000Y-105235072D01*
X88656961Y-105235072D01*
X88656202Y-105235997D01*
X88656201Y-105235998D01*
X88585026Y-105322724D01*
X88514454Y-105454754D01*
X88494275Y-105521279D01*
X88479109Y-105571277D01*
X88470998Y-105598015D01*
X88456324Y-105747000D01*
X88460001Y-105784332D01*
X88460000Y-110509677D01*
X88456324Y-110547000D01*
X88460000Y-110584322D01*
X88460000Y-110584332D01*
X88470997Y-110695985D01*
X88500434Y-110793028D01*
X88514454Y-110839246D01*
X88585026Y-110971276D01*
X88617854Y-111011276D01*
X88679999Y-111087001D01*
X88709002Y-111110803D01*
X88896847Y-111298649D01*
X88920932Y-111419729D01*
X88991414Y-111589889D01*
X89093738Y-111743028D01*
X89223972Y-111873262D01*
X89377111Y-111975586D01*
X89547271Y-112046068D01*
X89727911Y-112082000D01*
X89912089Y-112082000D01*
X90092729Y-112046068D01*
X90262889Y-111975586D01*
X90416028Y-111873262D01*
X90546262Y-111743028D01*
X90648586Y-111589889D01*
X90719068Y-111419729D01*
X90755000Y-111239089D01*
X90755000Y-111054911D01*
X90719068Y-110874271D01*
X90648586Y-110704111D01*
X90546262Y-110550972D01*
X90416028Y-110420738D01*
X90262889Y-110318414D01*
X90092729Y-110247932D01*
X89980000Y-110225509D01*
X89980000Y-106068491D01*
X90092729Y-106046068D01*
X90262889Y-105975586D01*
X90416028Y-105873262D01*
X90546262Y-105743028D01*
X90648586Y-105589889D01*
X90719068Y-105419729D01*
X90755000Y-105239089D01*
X90755000Y-105235072D01*
X91907128Y-105235072D01*
X90448998Y-106693203D01*
X90420000Y-106717001D01*
X90396202Y-106745999D01*
X90396201Y-106746000D01*
X90325026Y-106832726D01*
X90254454Y-106964756D01*
X90210998Y-107108017D01*
X90196324Y-107257002D01*
X90200001Y-107294334D01*
X90200000Y-108221464D01*
X90131414Y-108324111D01*
X90060932Y-108494271D01*
X90025000Y-108674911D01*
X90025000Y-108859089D01*
X90060932Y-109039729D01*
X90131414Y-109209889D01*
X90233738Y-109363028D01*
X90363972Y-109493262D01*
X90517111Y-109595586D01*
X90687271Y-109666068D01*
X90867911Y-109702000D01*
X91052089Y-109702000D01*
X91232729Y-109666068D01*
X91402889Y-109595586D01*
X91556028Y-109493262D01*
X91686262Y-109363028D01*
X91788586Y-109209889D01*
X91859068Y-109039729D01*
X91895000Y-108859089D01*
X91895000Y-108674911D01*
X91859068Y-108494271D01*
X91788586Y-108324111D01*
X91720000Y-108221465D01*
X91720000Y-107571803D01*
X93271649Y-106020155D01*
X93392729Y-105996070D01*
X93562889Y-105925588D01*
X93716028Y-105823264D01*
X93846262Y-105693030D01*
X93948586Y-105539891D01*
X94019068Y-105369731D01*
X94055000Y-105189091D01*
X94055000Y-105004913D01*
X94045576Y-104957538D01*
X94050537Y-104951494D01*
X94109502Y-104841180D01*
X94145812Y-104721482D01*
X94158072Y-104597000D01*
X94158072Y-103484871D01*
X102193199Y-111519999D01*
X99892804Y-111519999D01*
X97273805Y-108901002D01*
X97250002Y-108871998D01*
X97134277Y-108777025D01*
X97002248Y-108706453D01*
X96858987Y-108662996D01*
X96747334Y-108651999D01*
X96747323Y-108651999D01*
X96710001Y-108648323D01*
X96672679Y-108651999D01*
X96147321Y-108651999D01*
X96109998Y-108648323D01*
X96072675Y-108651999D01*
X96072666Y-108651999D01*
X95961013Y-108662996D01*
X95817752Y-108706453D01*
X95685723Y-108777025D01*
X95569998Y-108871998D01*
X95546200Y-108900996D01*
X92308998Y-112138199D01*
X92280000Y-112161997D01*
X92256202Y-112190995D01*
X92256201Y-112190996D01*
X92185026Y-112277722D01*
X92114454Y-112409752D01*
X92100130Y-112456975D01*
X92074339Y-112542000D01*
X92070998Y-112553013D01*
X92056324Y-112701998D01*
X92060001Y-112739330D01*
X92060000Y-117101464D01*
X91991414Y-117204111D01*
X91920932Y-117374271D01*
X91885000Y-117554911D01*
X91885000Y-117739089D01*
X91920932Y-117919729D01*
X91991414Y-118089889D01*
X92093738Y-118243028D01*
X92223972Y-118373262D01*
X92377111Y-118475586D01*
X92547271Y-118546068D01*
X92727911Y-118582000D01*
X92912089Y-118582000D01*
X93092729Y-118546068D01*
X93262889Y-118475586D01*
X93416028Y-118373262D01*
X93546262Y-118243028D01*
X93648586Y-118089889D01*
X93719068Y-117919729D01*
X93755000Y-117739089D01*
X93755000Y-117554911D01*
X93719068Y-117374271D01*
X93648586Y-117204111D01*
X93580000Y-117101465D01*
X93580000Y-113016799D01*
X95709017Y-110887783D01*
X95727981Y-110923262D01*
X95775026Y-111011276D01*
X95825681Y-111072998D01*
X95870000Y-111127001D01*
X95898998Y-111150799D01*
X97210000Y-112461802D01*
X97210001Y-114281476D01*
X97112089Y-114262000D01*
X96927911Y-114262000D01*
X96747271Y-114297932D01*
X96577111Y-114368414D01*
X96423972Y-114470738D01*
X96293738Y-114600972D01*
X96191414Y-114754111D01*
X96120932Y-114924271D01*
X96085000Y-115104911D01*
X96085000Y-115289089D01*
X96120932Y-115469729D01*
X96191414Y-115639889D01*
X96293738Y-115793028D01*
X96297710Y-115797000D01*
X96293738Y-115800972D01*
X96191414Y-115954111D01*
X96120932Y-116124271D01*
X96085000Y-116304911D01*
X96085000Y-116489089D01*
X96120932Y-116669729D01*
X96191414Y-116839889D01*
X96293738Y-116993028D01*
X96423972Y-117123262D01*
X96577111Y-117225586D01*
X96747271Y-117296068D01*
X96868352Y-117320153D01*
X107381199Y-127833001D01*
X107404998Y-127862000D01*
X107520723Y-127956973D01*
X107652752Y-128027545D01*
X107796013Y-128071002D01*
X107907666Y-128081999D01*
X107907674Y-128081999D01*
X107944999Y-128085675D01*
X107982324Y-128081999D01*
X125560199Y-128081999D01*
X124935996Y-128706203D01*
X124861111Y-128683487D01*
X124642950Y-128662000D01*
X124497050Y-128662000D01*
X124278889Y-128683487D01*
X123998966Y-128768401D01*
X123740986Y-128906294D01*
X123514866Y-129091866D01*
X123490393Y-129121687D01*
X123469502Y-129052820D01*
X123410537Y-128942506D01*
X123331185Y-128845815D01*
X123234494Y-128766463D01*
X123124180Y-128707498D01*
X123004482Y-128671188D01*
X122880000Y-128658928D01*
X121180000Y-128658928D01*
X121055518Y-128671188D01*
X120935820Y-128707498D01*
X120825506Y-128766463D01*
X120728815Y-128845815D01*
X120649463Y-128942506D01*
X120590498Y-129052820D01*
X120554188Y-129172518D01*
X120541928Y-129297000D01*
X120541928Y-130587001D01*
X89997367Y-130587001D01*
X90028488Y-130555880D01*
X89913378Y-130440770D01*
X90203315Y-130314896D01*
X90369139Y-129982738D01*
X90466975Y-129624613D01*
X90493065Y-129254281D01*
X90446405Y-128885975D01*
X90328789Y-128533849D01*
X90203315Y-128299104D01*
X89913377Y-128173229D01*
X88779605Y-129307000D01*
X88793748Y-129321142D01*
X88614142Y-129500748D01*
X88600000Y-129486605D01*
X88585858Y-129500748D01*
X88406252Y-129321142D01*
X88420395Y-129307000D01*
X87286623Y-128173229D01*
X86996685Y-128299104D01*
X86830861Y-128631262D01*
X86733025Y-128989387D01*
X86706935Y-129359719D01*
X86753595Y-129728025D01*
X86871211Y-130080151D01*
X86996685Y-130314896D01*
X87286622Y-130440770D01*
X87171512Y-130555880D01*
X87202633Y-130587001D01*
X86175338Y-130587001D01*
X86253926Y-130508413D01*
X86460182Y-130199731D01*
X86602253Y-129856741D01*
X86674680Y-129492625D01*
X86674680Y-129121375D01*
X86602253Y-128757259D01*
X86460182Y-128414269D01*
X86253926Y-128105587D01*
X86141962Y-127993623D01*
X87466229Y-127993623D01*
X88600000Y-129127395D01*
X89733771Y-127993623D01*
X89607896Y-127703685D01*
X89275738Y-127537861D01*
X88917613Y-127440025D01*
X88547281Y-127413935D01*
X88178975Y-127460595D01*
X87826849Y-127578211D01*
X87592104Y-127703685D01*
X87466229Y-127993623D01*
X86141962Y-127993623D01*
X85991413Y-127843074D01*
X85682731Y-127636818D01*
X85339741Y-127494747D01*
X84975625Y-127422320D01*
X84604375Y-127422320D01*
X84240259Y-127494747D01*
X84166504Y-127525297D01*
X84909802Y-126782000D01*
X84981033Y-126782000D01*
X85296912Y-126719168D01*
X85594463Y-126595918D01*
X85862252Y-126416987D01*
X86089987Y-126189252D01*
X86268918Y-125921463D01*
X86392168Y-125623912D01*
X86455000Y-125308033D01*
X86455000Y-124985967D01*
X86392168Y-124670088D01*
X86268918Y-124372537D01*
X86089987Y-124104748D01*
X85862252Y-123877013D01*
X85594463Y-123698082D01*
X85296912Y-123574832D01*
X84981033Y-123512000D01*
X84658967Y-123512000D01*
X84343088Y-123574832D01*
X84045537Y-123698082D01*
X83777748Y-123877013D01*
X83550013Y-124104748D01*
X83371082Y-124372537D01*
X83247832Y-124670088D01*
X83185000Y-124985967D01*
X83185000Y-125308033D01*
X83247832Y-125623912D01*
X83371082Y-125921463D01*
X83471079Y-126071119D01*
X82704317Y-126837882D01*
X82675319Y-126861680D01*
X82651521Y-126890678D01*
X82651520Y-126890679D01*
X82580345Y-126977405D01*
X82509773Y-127109435D01*
X82487765Y-127181989D01*
X82466317Y-127252695D01*
X82459491Y-127321999D01*
X82451643Y-127401681D01*
X82455320Y-127439013D01*
X82455319Y-130025525D01*
X82451643Y-130062848D01*
X82455319Y-130100170D01*
X82455319Y-130100180D01*
X82466316Y-130211833D01*
X82509773Y-130355094D01*
X82580345Y-130487124D01*
X82597817Y-130508413D01*
X82675318Y-130602849D01*
X82704322Y-130626652D01*
X83747669Y-131670000D01*
X82030000Y-131670000D01*
X82030000Y-115569835D01*
X84585000Y-115569835D01*
X84585000Y-115744165D01*
X84619010Y-115915145D01*
X84685723Y-116076205D01*
X84782576Y-116221155D01*
X84905845Y-116344424D01*
X85050795Y-116441277D01*
X85211855Y-116507990D01*
X85382835Y-116542000D01*
X85557165Y-116542000D01*
X85728145Y-116507990D01*
X85889205Y-116441277D01*
X86034155Y-116344424D01*
X86157424Y-116221155D01*
X86254277Y-116076205D01*
X86320990Y-115915145D01*
X86355000Y-115744165D01*
X86355000Y-115569835D01*
X86320990Y-115398855D01*
X86254277Y-115237795D01*
X86157424Y-115092845D01*
X86034155Y-114969576D01*
X85889205Y-114872723D01*
X85728145Y-114806010D01*
X85557165Y-114772000D01*
X85382835Y-114772000D01*
X85211855Y-114806010D01*
X85050795Y-114872723D01*
X84905845Y-114969576D01*
X84782576Y-115092845D01*
X84685723Y-115237795D01*
X84619010Y-115398855D01*
X84585000Y-115569835D01*
X82030000Y-115569835D01*
X82030000Y-114764911D01*
X88305000Y-114764911D01*
X88305000Y-114949089D01*
X88340932Y-115129729D01*
X88411414Y-115299889D01*
X88513738Y-115453028D01*
X88643972Y-115583262D01*
X88797111Y-115685586D01*
X88967271Y-115756068D01*
X89147911Y-115792000D01*
X89332089Y-115792000D01*
X89512729Y-115756068D01*
X89682889Y-115685586D01*
X89785535Y-115617000D01*
X90026678Y-115617000D01*
X90064000Y-115620676D01*
X90101322Y-115617000D01*
X90101333Y-115617000D01*
X90212986Y-115606003D01*
X90356247Y-115562546D01*
X90488276Y-115491974D01*
X90604001Y-115397001D01*
X90627804Y-115367998D01*
X91157649Y-114838153D01*
X91278729Y-114814068D01*
X91448889Y-114743586D01*
X91602028Y-114641262D01*
X91732262Y-114511028D01*
X91834586Y-114357889D01*
X91905068Y-114187729D01*
X91941000Y-114007089D01*
X91941000Y-113822911D01*
X91905068Y-113642271D01*
X91834586Y-113472111D01*
X91732262Y-113318972D01*
X91602028Y-113188738D01*
X91448889Y-113086414D01*
X91278729Y-113015932D01*
X91098089Y-112980000D01*
X90913911Y-112980000D01*
X90733271Y-113015932D01*
X90563111Y-113086414D01*
X90409972Y-113188738D01*
X90279738Y-113318972D01*
X90177414Y-113472111D01*
X90106932Y-113642271D01*
X90082847Y-113763351D01*
X89763753Y-114082446D01*
X89682889Y-114028414D01*
X89512729Y-113957932D01*
X89332089Y-113922000D01*
X89147911Y-113922000D01*
X88967271Y-113957932D01*
X88797111Y-114028414D01*
X88643972Y-114130738D01*
X88513738Y-114260972D01*
X88411414Y-114414111D01*
X88340932Y-114584271D01*
X88305000Y-114764911D01*
X82030000Y-114764911D01*
X82030000Y-111569835D01*
X84585000Y-111569835D01*
X84585000Y-111744165D01*
X84619010Y-111915145D01*
X84685723Y-112076205D01*
X84782576Y-112221155D01*
X84905845Y-112344424D01*
X85050795Y-112441277D01*
X85211855Y-112507990D01*
X85382835Y-112542000D01*
X85557165Y-112542000D01*
X85728145Y-112507990D01*
X85889205Y-112441277D01*
X86034155Y-112344424D01*
X86157424Y-112221155D01*
X86254277Y-112076205D01*
X86320990Y-111915145D01*
X86355000Y-111744165D01*
X86355000Y-111569835D01*
X86320990Y-111398855D01*
X86254277Y-111237795D01*
X86157424Y-111092845D01*
X86034155Y-110969576D01*
X85889205Y-110872723D01*
X85728145Y-110806010D01*
X85557165Y-110772000D01*
X85382835Y-110772000D01*
X85211855Y-110806010D01*
X85050795Y-110872723D01*
X84905845Y-110969576D01*
X84782576Y-111092845D01*
X84685723Y-111237795D01*
X84619010Y-111398855D01*
X84585000Y-111569835D01*
X82030000Y-111569835D01*
X82030000Y-98461873D01*
X82035026Y-98471276D01*
G36*
X99014206Y-112791007D02*
G01*
X99038000Y-112820000D01*
X99066993Y-112843794D01*
X99066997Y-112843798D01*
X99077657Y-112852546D01*
X99153725Y-112914973D01*
X99285754Y-112985545D01*
X99429015Y-113029002D01*
X99540668Y-113039999D01*
X99540677Y-113039999D01*
X99578000Y-113043675D01*
X99615323Y-113039999D01*
X120906928Y-113039999D01*
X120906928Y-113545000D01*
X120518591Y-113545000D01*
X120440489Y-113492814D01*
X120270329Y-113422332D01*
X120089689Y-113386400D01*
X119905511Y-113386400D01*
X119724871Y-113422332D01*
X119554711Y-113492814D01*
X119401572Y-113595138D01*
X119271338Y-113725372D01*
X119169014Y-113878511D01*
X119098532Y-114048671D01*
X119062600Y-114229311D01*
X119062600Y-114413489D01*
X119098532Y-114594129D01*
X119169014Y-114764289D01*
X119271338Y-114917428D01*
X119401572Y-115047662D01*
X119554711Y-115149986D01*
X119724871Y-115220468D01*
X119905511Y-115256400D01*
X120089689Y-115256400D01*
X120270329Y-115220468D01*
X120440489Y-115149986D01*
X120567680Y-115065000D01*
X120906928Y-115065000D01*
X120906928Y-116005000D01*
X120919188Y-116129482D01*
X120955498Y-116249180D01*
X121014463Y-116359494D01*
X121093815Y-116456185D01*
X121190506Y-116535537D01*
X121300820Y-116594502D01*
X121420518Y-116630812D01*
X121545000Y-116643072D01*
X122845000Y-116643072D01*
X122969482Y-116630812D01*
X123089180Y-116594502D01*
X123199494Y-116535537D01*
X123296185Y-116456185D01*
X123375537Y-116359494D01*
X123434502Y-116249180D01*
X123470812Y-116129482D01*
X123483072Y-116005000D01*
X123483072Y-113039999D01*
X129606928Y-113039999D01*
X129606928Y-116005000D01*
X129619188Y-116129482D01*
X129655498Y-116249180D01*
X129714463Y-116359494D01*
X129793815Y-116456185D01*
X129890506Y-116535537D01*
X130000820Y-116594502D01*
X130120518Y-116630812D01*
X130245000Y-116643072D01*
X131545000Y-116643072D01*
X131669482Y-116630812D01*
X131789180Y-116594502D01*
X131899494Y-116535537D01*
X131996185Y-116456185D01*
X132075537Y-116359494D01*
X132134502Y-116249180D01*
X132170812Y-116129482D01*
X132183072Y-116005000D01*
X132183072Y-113039999D01*
X147138198Y-113039999D01*
X147896847Y-113798649D01*
X147920932Y-113919729D01*
X147991414Y-114089889D01*
X148093738Y-114243028D01*
X148223972Y-114373262D01*
X148377111Y-114475586D01*
X148547271Y-114546068D01*
X148727911Y-114582000D01*
X148912089Y-114582000D01*
X149040001Y-114556556D01*
X149040000Y-124602198D01*
X148255199Y-125387000D01*
X143884802Y-125387000D01*
X143608791Y-125110990D01*
X143584989Y-125081987D01*
X143469264Y-124987014D01*
X143337235Y-124916442D01*
X143193974Y-124872985D01*
X143082321Y-124861988D01*
X143082310Y-124861988D01*
X143044988Y-124858312D01*
X143007666Y-124861988D01*
X139132334Y-124861988D01*
X139095011Y-124858312D01*
X139057688Y-124861988D01*
X139057679Y-124861988D01*
X138946026Y-124872985D01*
X138802765Y-124916442D01*
X138670736Y-124987014D01*
X138670734Y-124987015D01*
X138670735Y-124987015D01*
X138584008Y-125058189D01*
X138584004Y-125058193D01*
X138555011Y-125081987D01*
X138531217Y-125110980D01*
X138005198Y-125637000D01*
X109671213Y-125637000D01*
X104631213Y-120597000D01*
X120881928Y-120597000D01*
X120881928Y-122597000D01*
X120894188Y-122721482D01*
X120930498Y-122841180D01*
X120989463Y-122951494D01*
X121068815Y-123048185D01*
X121165506Y-123127537D01*
X121275820Y-123186502D01*
X121395518Y-123222812D01*
X121520000Y-123235072D01*
X131520000Y-123235072D01*
X131644482Y-123222812D01*
X131764180Y-123186502D01*
X131874494Y-123127537D01*
X131971185Y-123048185D01*
X132050537Y-122951494D01*
X132109502Y-122841180D01*
X132145812Y-122721482D01*
X132158072Y-122597000D01*
X132158072Y-120597000D01*
X132145812Y-120472518D01*
X132109502Y-120352820D01*
X132050537Y-120242506D01*
X131971185Y-120145815D01*
X131874494Y-120066463D01*
X131764180Y-120007498D01*
X131644482Y-119971188D01*
X131520000Y-119958928D01*
X121520000Y-119958928D01*
X121395518Y-119971188D01*
X121275820Y-120007498D01*
X121165506Y-120066463D01*
X121068815Y-120145815D01*
X120989463Y-120242506D01*
X120930498Y-120352820D01*
X120894188Y-120472518D01*
X120881928Y-120597000D01*
X104631213Y-120597000D01*
X98730000Y-114695789D01*
X98730000Y-112506801D01*
X99014206Y-112791007D01*
X99014206Y-112791007D01*
G37*
X99014206Y-112791007D02*
X99038000Y-112820000D01*
X99066993Y-112843794D01*
X99066997Y-112843798D01*
X99077657Y-112852546D01*
X99153725Y-112914973D01*
X99285754Y-112985545D01*
X99429015Y-113029002D01*
X99540668Y-113039999D01*
X99540677Y-113039999D01*
X99578000Y-113043675D01*
X99615323Y-113039999D01*
X120906928Y-113039999D01*
X120906928Y-113545000D01*
X120518591Y-113545000D01*
X120440489Y-113492814D01*
X120270329Y-113422332D01*
X120089689Y-113386400D01*
X119905511Y-113386400D01*
X119724871Y-113422332D01*
X119554711Y-113492814D01*
X119401572Y-113595138D01*
X119271338Y-113725372D01*
X119169014Y-113878511D01*
X119098532Y-114048671D01*
X119062600Y-114229311D01*
X119062600Y-114413489D01*
X119098532Y-114594129D01*
X119169014Y-114764289D01*
X119271338Y-114917428D01*
X119401572Y-115047662D01*
X119554711Y-115149986D01*
X119724871Y-115220468D01*
X119905511Y-115256400D01*
X120089689Y-115256400D01*
X120270329Y-115220468D01*
X120440489Y-115149986D01*
X120567680Y-115065000D01*
X120906928Y-115065000D01*
X120906928Y-116005000D01*
X120919188Y-116129482D01*
X120955498Y-116249180D01*
X121014463Y-116359494D01*
X121093815Y-116456185D01*
X121190506Y-116535537D01*
X121300820Y-116594502D01*
X121420518Y-116630812D01*
X121545000Y-116643072D01*
X122845000Y-116643072D01*
X122969482Y-116630812D01*
X123089180Y-116594502D01*
X123199494Y-116535537D01*
X123296185Y-116456185D01*
X123375537Y-116359494D01*
X123434502Y-116249180D01*
X123470812Y-116129482D01*
X123483072Y-116005000D01*
X123483072Y-113039999D01*
X129606928Y-113039999D01*
X129606928Y-116005000D01*
X129619188Y-116129482D01*
X129655498Y-116249180D01*
X129714463Y-116359494D01*
X129793815Y-116456185D01*
X129890506Y-116535537D01*
X130000820Y-116594502D01*
X130120518Y-116630812D01*
X130245000Y-116643072D01*
X131545000Y-116643072D01*
X131669482Y-116630812D01*
X131789180Y-116594502D01*
X131899494Y-116535537D01*
X131996185Y-116456185D01*
X132075537Y-116359494D01*
X132134502Y-116249180D01*
X132170812Y-116129482D01*
X132183072Y-116005000D01*
X132183072Y-113039999D01*
X147138198Y-113039999D01*
X147896847Y-113798649D01*
X147920932Y-113919729D01*
X147991414Y-114089889D01*
X148093738Y-114243028D01*
X148223972Y-114373262D01*
X148377111Y-114475586D01*
X148547271Y-114546068D01*
X148727911Y-114582000D01*
X148912089Y-114582000D01*
X149040001Y-114556556D01*
X149040000Y-124602198D01*
X148255199Y-125387000D01*
X143884802Y-125387000D01*
X143608791Y-125110990D01*
X143584989Y-125081987D01*
X143469264Y-124987014D01*
X143337235Y-124916442D01*
X143193974Y-124872985D01*
X143082321Y-124861988D01*
X143082310Y-124861988D01*
X143044988Y-124858312D01*
X143007666Y-124861988D01*
X139132334Y-124861988D01*
X139095011Y-124858312D01*
X139057688Y-124861988D01*
X139057679Y-124861988D01*
X138946026Y-124872985D01*
X138802765Y-124916442D01*
X138670736Y-124987014D01*
X138670734Y-124987015D01*
X138670735Y-124987015D01*
X138584008Y-125058189D01*
X138584004Y-125058193D01*
X138555011Y-125081987D01*
X138531217Y-125110980D01*
X138005198Y-125637000D01*
X109671213Y-125637000D01*
X104631213Y-120597000D01*
X120881928Y-120597000D01*
X120881928Y-122597000D01*
X120894188Y-122721482D01*
X120930498Y-122841180D01*
X120989463Y-122951494D01*
X121068815Y-123048185D01*
X121165506Y-123127537D01*
X121275820Y-123186502D01*
X121395518Y-123222812D01*
X121520000Y-123235072D01*
X131520000Y-123235072D01*
X131644482Y-123222812D01*
X131764180Y-123186502D01*
X131874494Y-123127537D01*
X131971185Y-123048185D01*
X132050537Y-122951494D01*
X132109502Y-122841180D01*
X132145812Y-122721482D01*
X132158072Y-122597000D01*
X132158072Y-120597000D01*
X132145812Y-120472518D01*
X132109502Y-120352820D01*
X132050537Y-120242506D01*
X131971185Y-120145815D01*
X131874494Y-120066463D01*
X131764180Y-120007498D01*
X131644482Y-119971188D01*
X131520000Y-119958928D01*
X121520000Y-119958928D01*
X121395518Y-119971188D01*
X121275820Y-120007498D01*
X121165506Y-120066463D01*
X121068815Y-120145815D01*
X120989463Y-120242506D01*
X120930498Y-120352820D01*
X120894188Y-120472518D01*
X120881928Y-120597000D01*
X104631213Y-120597000D01*
X98730000Y-114695789D01*
X98730000Y-112506801D01*
X99014206Y-112791007D01*
M02*
