M48
; DRILL file {KiCad (5.99.0-9526-g5c17ff0595)} date Sat Jul 10 19:15:07 2021
; FORMAT={-:-/ absolute / inch / decimal}
; #@! TF.CreationDate,2021-07-10T19:15:07-05:00
; #@! TF.GenerationSoftware,Kicad,Pcbnew,(5.99.0-9526-g5c17ff0595)
; #@! TF.FileFunction,Plated,1,2,PTH
FMAT,2
INCH
T1C0.0276
T2C0.0394
%
G90
G05
T1
X5.8789Y-2.8189
X5.8789Y-2.9882
X6.0679Y-2.8189
X6.0679Y-2.9882
T2
X4.799Y-2.5846
X4.799Y-2.6846
X4.799Y-4.75
X4.799Y-4.85
X4.899Y-2.5846
X4.899Y-2.6846
X4.899Y-4.75
X4.899Y-4.85
X4.999Y-2.5846
X4.999Y-2.6846
X4.999Y-4.75
X4.999Y-4.85
X5.862Y-3.6476
X5.862Y-3.7476
X5.962Y-3.6476
X5.962Y-3.7476
X6.062Y-3.6476
X6.062Y-3.7476
X6.922Y-2.5846
X6.922Y-2.6846
X6.922Y-4.75
X6.922Y-4.85
X7.022Y-2.5846
X7.022Y-2.6846
X7.022Y-4.75
X7.022Y-4.85
X7.122Y-2.5846
X7.122Y-2.6846
X7.122Y-4.75
X7.122Y-4.85
T0
M30
