G04 #@! TF.GenerationSoftware,KiCad,Pcbnew,5.1.2*
G04 #@! TF.CreationDate,2019-06-25T21:59:29-05:00*
G04 #@! TF.ProjectId,STM32F030Minimal,53544d33-3246-4303-9330-4d696e696d61,rev?*
G04 #@! TF.SameCoordinates,Original*
G04 #@! TF.FileFunction,Soldermask,Bot*
G04 #@! TF.FilePolarity,Negative*
%FSLAX46Y46*%
G04 Gerber Fmt 4.6, Leading zero omitted, Abs format (unit mm)*
G04 Created by KiCad (PCBNEW 5.1.2) date 2019-06-25 21:59:29*
%MOMM*%
%LPD*%
G04 APERTURE LIST*
%ADD10C,0.100000*%
G04 APERTURE END LIST*
D10*
G36*
X163340442Y-89555518D02*
G01*
X163406627Y-89562037D01*
X163576466Y-89613557D01*
X163732991Y-89697222D01*
X163768729Y-89726552D01*
X163870186Y-89809814D01*
X163953448Y-89911271D01*
X163982778Y-89947009D01*
X164066443Y-90103534D01*
X164117963Y-90273373D01*
X164135359Y-90450000D01*
X164117963Y-90626627D01*
X164066443Y-90796466D01*
X163982778Y-90952991D01*
X163953448Y-90988729D01*
X163870186Y-91090186D01*
X163768729Y-91173448D01*
X163732991Y-91202778D01*
X163576466Y-91286443D01*
X163406627Y-91337963D01*
X163340442Y-91344482D01*
X163274260Y-91351000D01*
X163185740Y-91351000D01*
X163119558Y-91344482D01*
X163053373Y-91337963D01*
X162883534Y-91286443D01*
X162727009Y-91202778D01*
X162691271Y-91173448D01*
X162589814Y-91090186D01*
X162506552Y-90988729D01*
X162477222Y-90952991D01*
X162393557Y-90796466D01*
X162342037Y-90626627D01*
X162324641Y-90450000D01*
X162342037Y-90273373D01*
X162393557Y-90103534D01*
X162477222Y-89947009D01*
X162506552Y-89911271D01*
X162589814Y-89809814D01*
X162691271Y-89726552D01*
X162727009Y-89697222D01*
X162883534Y-89613557D01*
X163053373Y-89562037D01*
X163119558Y-89555518D01*
X163185740Y-89549000D01*
X163274260Y-89549000D01*
X163340442Y-89555518D01*
X163340442Y-89555518D01*
G37*
G36*
X163340443Y-87015519D02*
G01*
X163406627Y-87022037D01*
X163576466Y-87073557D01*
X163732991Y-87157222D01*
X163768729Y-87186552D01*
X163870186Y-87269814D01*
X163949951Y-87367009D01*
X163982778Y-87407009D01*
X164066443Y-87563534D01*
X164117963Y-87733373D01*
X164135359Y-87910000D01*
X164117963Y-88086627D01*
X164066443Y-88256466D01*
X163982778Y-88412991D01*
X163953448Y-88448729D01*
X163870186Y-88550186D01*
X163781731Y-88622778D01*
X163732991Y-88662778D01*
X163576466Y-88746443D01*
X163406627Y-88797963D01*
X163340443Y-88804481D01*
X163274260Y-88811000D01*
X163185740Y-88811000D01*
X163119557Y-88804481D01*
X163053373Y-88797963D01*
X162883534Y-88746443D01*
X162727009Y-88662778D01*
X162678269Y-88622778D01*
X162589814Y-88550186D01*
X162506552Y-88448729D01*
X162477222Y-88412991D01*
X162393557Y-88256466D01*
X162342037Y-88086627D01*
X162324641Y-87910000D01*
X162342037Y-87733373D01*
X162393557Y-87563534D01*
X162477222Y-87407009D01*
X162510049Y-87367009D01*
X162589814Y-87269814D01*
X162691271Y-87186552D01*
X162727009Y-87157222D01*
X162883534Y-87073557D01*
X163053373Y-87022037D01*
X163119557Y-87015519D01*
X163185740Y-87009000D01*
X163274260Y-87009000D01*
X163340443Y-87015519D01*
X163340443Y-87015519D01*
G37*
G36*
X156110443Y-86975519D02*
G01*
X156176627Y-86982037D01*
X156346466Y-87033557D01*
X156502991Y-87117222D01*
X156538729Y-87146552D01*
X156640186Y-87229814D01*
X156723448Y-87331271D01*
X156752778Y-87367009D01*
X156836443Y-87523534D01*
X156887963Y-87693373D01*
X156905359Y-87870000D01*
X156887963Y-88046627D01*
X156836443Y-88216466D01*
X156752778Y-88372991D01*
X156723448Y-88408729D01*
X156640186Y-88510186D01*
X156538729Y-88593448D01*
X156502991Y-88622778D01*
X156346466Y-88706443D01*
X156176627Y-88757963D01*
X156110442Y-88764482D01*
X156044260Y-88771000D01*
X155955740Y-88771000D01*
X155889558Y-88764482D01*
X155823373Y-88757963D01*
X155653534Y-88706443D01*
X155497009Y-88622778D01*
X155461271Y-88593448D01*
X155359814Y-88510186D01*
X155276552Y-88408729D01*
X155247222Y-88372991D01*
X155163557Y-88216466D01*
X155112037Y-88046627D01*
X155094641Y-87870000D01*
X155112037Y-87693373D01*
X155163557Y-87523534D01*
X155247222Y-87367009D01*
X155276552Y-87331271D01*
X155359814Y-87229814D01*
X155461271Y-87146552D01*
X155497009Y-87117222D01*
X155653534Y-87033557D01*
X155823373Y-86982037D01*
X155889557Y-86975519D01*
X155955740Y-86969000D01*
X156044260Y-86969000D01*
X156110443Y-86975519D01*
X156110443Y-86975519D01*
G37*
G36*
X163340443Y-84475519D02*
G01*
X163406627Y-84482037D01*
X163576466Y-84533557D01*
X163732991Y-84617222D01*
X163768729Y-84646552D01*
X163870186Y-84729814D01*
X163949951Y-84827009D01*
X163982778Y-84867009D01*
X164066443Y-85023534D01*
X164117963Y-85193373D01*
X164135359Y-85370000D01*
X164117963Y-85546627D01*
X164066443Y-85716466D01*
X163982778Y-85872991D01*
X163953448Y-85908729D01*
X163870186Y-86010186D01*
X163781731Y-86082778D01*
X163732991Y-86122778D01*
X163576466Y-86206443D01*
X163406627Y-86257963D01*
X163340442Y-86264482D01*
X163274260Y-86271000D01*
X163185740Y-86271000D01*
X163119558Y-86264482D01*
X163053373Y-86257963D01*
X162883534Y-86206443D01*
X162727009Y-86122778D01*
X162678269Y-86082778D01*
X162589814Y-86010186D01*
X162506552Y-85908729D01*
X162477222Y-85872991D01*
X162393557Y-85716466D01*
X162342037Y-85546627D01*
X162324641Y-85370000D01*
X162342037Y-85193373D01*
X162393557Y-85023534D01*
X162477222Y-84867009D01*
X162510049Y-84827009D01*
X162589814Y-84729814D01*
X162691271Y-84646552D01*
X162727009Y-84617222D01*
X162883534Y-84533557D01*
X163053373Y-84482037D01*
X163119557Y-84475519D01*
X163185740Y-84469000D01*
X163274260Y-84469000D01*
X163340443Y-84475519D01*
X163340443Y-84475519D01*
G37*
G36*
X156110442Y-84435518D02*
G01*
X156176627Y-84442037D01*
X156346466Y-84493557D01*
X156502991Y-84577222D01*
X156538729Y-84606552D01*
X156640186Y-84689814D01*
X156723448Y-84791271D01*
X156752778Y-84827009D01*
X156836443Y-84983534D01*
X156887963Y-85153373D01*
X156905359Y-85330000D01*
X156887963Y-85506627D01*
X156836443Y-85676466D01*
X156752778Y-85832991D01*
X156723448Y-85868729D01*
X156640186Y-85970186D01*
X156538729Y-86053448D01*
X156502991Y-86082778D01*
X156346466Y-86166443D01*
X156176627Y-86217963D01*
X156110443Y-86224481D01*
X156044260Y-86231000D01*
X155955740Y-86231000D01*
X155889557Y-86224481D01*
X155823373Y-86217963D01*
X155653534Y-86166443D01*
X155497009Y-86082778D01*
X155461271Y-86053448D01*
X155359814Y-85970186D01*
X155276552Y-85868729D01*
X155247222Y-85832991D01*
X155163557Y-85676466D01*
X155112037Y-85506627D01*
X155094641Y-85330000D01*
X155112037Y-85153373D01*
X155163557Y-84983534D01*
X155247222Y-84827009D01*
X155276552Y-84791271D01*
X155359814Y-84689814D01*
X155461271Y-84606552D01*
X155497009Y-84577222D01*
X155653534Y-84493557D01*
X155823373Y-84442037D01*
X155889558Y-84435518D01*
X155955740Y-84429000D01*
X156044260Y-84429000D01*
X156110442Y-84435518D01*
X156110442Y-84435518D01*
G37*
G36*
X163340442Y-81935518D02*
G01*
X163406627Y-81942037D01*
X163576466Y-81993557D01*
X163732991Y-82077222D01*
X163768729Y-82106552D01*
X163870186Y-82189814D01*
X163949951Y-82287009D01*
X163982778Y-82327009D01*
X164066443Y-82483534D01*
X164117963Y-82653373D01*
X164135359Y-82830000D01*
X164117963Y-83006627D01*
X164066443Y-83176466D01*
X163982778Y-83332991D01*
X163953448Y-83368729D01*
X163870186Y-83470186D01*
X163781731Y-83542778D01*
X163732991Y-83582778D01*
X163576466Y-83666443D01*
X163406627Y-83717963D01*
X163340443Y-83724481D01*
X163274260Y-83731000D01*
X163185740Y-83731000D01*
X163119557Y-83724481D01*
X163053373Y-83717963D01*
X162883534Y-83666443D01*
X162727009Y-83582778D01*
X162678269Y-83542778D01*
X162589814Y-83470186D01*
X162506552Y-83368729D01*
X162477222Y-83332991D01*
X162393557Y-83176466D01*
X162342037Y-83006627D01*
X162324641Y-82830000D01*
X162342037Y-82653373D01*
X162393557Y-82483534D01*
X162477222Y-82327009D01*
X162510049Y-82287009D01*
X162589814Y-82189814D01*
X162691271Y-82106552D01*
X162727009Y-82077222D01*
X162883534Y-81993557D01*
X163053373Y-81942037D01*
X163119558Y-81935518D01*
X163185740Y-81929000D01*
X163274260Y-81929000D01*
X163340442Y-81935518D01*
X163340442Y-81935518D01*
G37*
G36*
X156110443Y-81895519D02*
G01*
X156176627Y-81902037D01*
X156346466Y-81953557D01*
X156502991Y-82037222D01*
X156538729Y-82066552D01*
X156640186Y-82149814D01*
X156723448Y-82251271D01*
X156752778Y-82287009D01*
X156836443Y-82443534D01*
X156887963Y-82613373D01*
X156905359Y-82790000D01*
X156887963Y-82966627D01*
X156836443Y-83136466D01*
X156752778Y-83292991D01*
X156723448Y-83328729D01*
X156640186Y-83430186D01*
X156538729Y-83513448D01*
X156502991Y-83542778D01*
X156346466Y-83626443D01*
X156176627Y-83677963D01*
X156110443Y-83684481D01*
X156044260Y-83691000D01*
X155955740Y-83691000D01*
X155889557Y-83684481D01*
X155823373Y-83677963D01*
X155653534Y-83626443D01*
X155497009Y-83542778D01*
X155461271Y-83513448D01*
X155359814Y-83430186D01*
X155276552Y-83328729D01*
X155247222Y-83292991D01*
X155163557Y-83136466D01*
X155112037Y-82966627D01*
X155094641Y-82790000D01*
X155112037Y-82613373D01*
X155163557Y-82443534D01*
X155247222Y-82287009D01*
X155276552Y-82251271D01*
X155359814Y-82149814D01*
X155461271Y-82066552D01*
X155497009Y-82037222D01*
X155653534Y-81953557D01*
X155823373Y-81902037D01*
X155889557Y-81895519D01*
X155955740Y-81889000D01*
X156044260Y-81889000D01*
X156110443Y-81895519D01*
X156110443Y-81895519D01*
G37*
G36*
X163340442Y-79395518D02*
G01*
X163406627Y-79402037D01*
X163576466Y-79453557D01*
X163732991Y-79537222D01*
X163768729Y-79566552D01*
X163870186Y-79649814D01*
X163949951Y-79747009D01*
X163982778Y-79787009D01*
X164066443Y-79943534D01*
X164117963Y-80113373D01*
X164135359Y-80290000D01*
X164117963Y-80466627D01*
X164066443Y-80636466D01*
X163982778Y-80792991D01*
X163953448Y-80828729D01*
X163870186Y-80930186D01*
X163781731Y-81002778D01*
X163732991Y-81042778D01*
X163576466Y-81126443D01*
X163406627Y-81177963D01*
X163340442Y-81184482D01*
X163274260Y-81191000D01*
X163185740Y-81191000D01*
X163119558Y-81184482D01*
X163053373Y-81177963D01*
X162883534Y-81126443D01*
X162727009Y-81042778D01*
X162678269Y-81002778D01*
X162589814Y-80930186D01*
X162506552Y-80828729D01*
X162477222Y-80792991D01*
X162393557Y-80636466D01*
X162342037Y-80466627D01*
X162324641Y-80290000D01*
X162342037Y-80113373D01*
X162393557Y-79943534D01*
X162477222Y-79787009D01*
X162510049Y-79747009D01*
X162589814Y-79649814D01*
X162691271Y-79566552D01*
X162727009Y-79537222D01*
X162883534Y-79453557D01*
X163053373Y-79402037D01*
X163119558Y-79395518D01*
X163185740Y-79389000D01*
X163274260Y-79389000D01*
X163340442Y-79395518D01*
X163340442Y-79395518D01*
G37*
G36*
X156110443Y-79355519D02*
G01*
X156176627Y-79362037D01*
X156346466Y-79413557D01*
X156502991Y-79497222D01*
X156538729Y-79526552D01*
X156640186Y-79609814D01*
X156723448Y-79711271D01*
X156752778Y-79747009D01*
X156836443Y-79903534D01*
X156887963Y-80073373D01*
X156905359Y-80250000D01*
X156887963Y-80426627D01*
X156836443Y-80596466D01*
X156752778Y-80752991D01*
X156723448Y-80788729D01*
X156640186Y-80890186D01*
X156538729Y-80973448D01*
X156502991Y-81002778D01*
X156346466Y-81086443D01*
X156176627Y-81137963D01*
X156110442Y-81144482D01*
X156044260Y-81151000D01*
X155955740Y-81151000D01*
X155889558Y-81144482D01*
X155823373Y-81137963D01*
X155653534Y-81086443D01*
X155497009Y-81002778D01*
X155461271Y-80973448D01*
X155359814Y-80890186D01*
X155276552Y-80788729D01*
X155247222Y-80752991D01*
X155163557Y-80596466D01*
X155112037Y-80426627D01*
X155094641Y-80250000D01*
X155112037Y-80073373D01*
X155163557Y-79903534D01*
X155247222Y-79747009D01*
X155276552Y-79711271D01*
X155359814Y-79609814D01*
X155461271Y-79526552D01*
X155497009Y-79497222D01*
X155653534Y-79413557D01*
X155823373Y-79362037D01*
X155889557Y-79355519D01*
X155955740Y-79349000D01*
X156044260Y-79349000D01*
X156110443Y-79355519D01*
X156110443Y-79355519D01*
G37*
G36*
X164131000Y-78651000D02*
G01*
X162329000Y-78651000D01*
X162329000Y-76849000D01*
X164131000Y-76849000D01*
X164131000Y-78651000D01*
X164131000Y-78651000D01*
G37*
G36*
X156901000Y-78611000D02*
G01*
X155099000Y-78611000D01*
X155099000Y-76809000D01*
X156901000Y-76809000D01*
X156901000Y-78611000D01*
X156901000Y-78611000D01*
G37*
G36*
X144072740Y-70933626D02*
G01*
X144121136Y-70943253D01*
X144158902Y-70958896D01*
X144212311Y-70981019D01*
X144212312Y-70981020D01*
X144294369Y-71035848D01*
X144364152Y-71105631D01*
X144364153Y-71105633D01*
X144418981Y-71187689D01*
X144456747Y-71278865D01*
X144476000Y-71375655D01*
X144476000Y-71474345D01*
X144456747Y-71571135D01*
X144418981Y-71662311D01*
X144418980Y-71662312D01*
X144364152Y-71744369D01*
X144294369Y-71814152D01*
X144253062Y-71841752D01*
X144212311Y-71868981D01*
X144158902Y-71891104D01*
X144121136Y-71906747D01*
X144072740Y-71916373D01*
X144024345Y-71926000D01*
X143925655Y-71926000D01*
X143877260Y-71916373D01*
X143828864Y-71906747D01*
X143791098Y-71891104D01*
X143737689Y-71868981D01*
X143696938Y-71841752D01*
X143655631Y-71814152D01*
X143585848Y-71744369D01*
X143531020Y-71662312D01*
X143531019Y-71662311D01*
X143493253Y-71571135D01*
X143474000Y-71474345D01*
X143474000Y-71375655D01*
X143493253Y-71278865D01*
X143531019Y-71187689D01*
X143585847Y-71105633D01*
X143585848Y-71105631D01*
X143655631Y-71035848D01*
X143737688Y-70981020D01*
X143737689Y-70981019D01*
X143791098Y-70958896D01*
X143828864Y-70943253D01*
X143877260Y-70933626D01*
X143925655Y-70924000D01*
X144024345Y-70924000D01*
X144072740Y-70933626D01*
X144072740Y-70933626D01*
G37*
G36*
X144072740Y-67933627D02*
G01*
X144121136Y-67943253D01*
X144158902Y-67958896D01*
X144212311Y-67981019D01*
X144212312Y-67981020D01*
X144294369Y-68035848D01*
X144364152Y-68105631D01*
X144364153Y-68105633D01*
X144418981Y-68187689D01*
X144456747Y-68278865D01*
X144476000Y-68375655D01*
X144476000Y-68474345D01*
X144456747Y-68571135D01*
X144418981Y-68662311D01*
X144418980Y-68662312D01*
X144364152Y-68744369D01*
X144294369Y-68814152D01*
X144253062Y-68841752D01*
X144212311Y-68868981D01*
X144158902Y-68891104D01*
X144121136Y-68906747D01*
X144072740Y-68916373D01*
X144024345Y-68926000D01*
X143925655Y-68926000D01*
X143877260Y-68916373D01*
X143828864Y-68906747D01*
X143791098Y-68891104D01*
X143737689Y-68868981D01*
X143696938Y-68841752D01*
X143655631Y-68814152D01*
X143585848Y-68744369D01*
X143531020Y-68662312D01*
X143531019Y-68662311D01*
X143493253Y-68571135D01*
X143474000Y-68474345D01*
X143474000Y-68375655D01*
X143493253Y-68278865D01*
X143531019Y-68187689D01*
X143585847Y-68105633D01*
X143585848Y-68105631D01*
X143655631Y-68035848D01*
X143737688Y-67981020D01*
X143737689Y-67981019D01*
X143791098Y-67958896D01*
X143828864Y-67943253D01*
X143877260Y-67933627D01*
X143925655Y-67924000D01*
X144024345Y-67924000D01*
X144072740Y-67933627D01*
X144072740Y-67933627D01*
G37*
G36*
X174260443Y-63445519D02*
G01*
X174326627Y-63452037D01*
X174496466Y-63503557D01*
X174652991Y-63587222D01*
X174688729Y-63616552D01*
X174790186Y-63699814D01*
X174873448Y-63801271D01*
X174902778Y-63837009D01*
X174986443Y-63993534D01*
X175037963Y-64163373D01*
X175055359Y-64340000D01*
X175037963Y-64516627D01*
X174986443Y-64686466D01*
X174902778Y-64842991D01*
X174873448Y-64878729D01*
X174790186Y-64980186D01*
X174688729Y-65063448D01*
X174652991Y-65092778D01*
X174496466Y-65176443D01*
X174326627Y-65227963D01*
X174260443Y-65234481D01*
X174194260Y-65241000D01*
X174105740Y-65241000D01*
X174039557Y-65234481D01*
X173973373Y-65227963D01*
X173803534Y-65176443D01*
X173647009Y-65092778D01*
X173611271Y-65063448D01*
X173509814Y-64980186D01*
X173426552Y-64878729D01*
X173397222Y-64842991D01*
X173313557Y-64686466D01*
X173262037Y-64516627D01*
X173244641Y-64340000D01*
X173262037Y-64163373D01*
X173313557Y-63993534D01*
X173397222Y-63837009D01*
X173426552Y-63801271D01*
X173509814Y-63699814D01*
X173611271Y-63616552D01*
X173647009Y-63587222D01*
X173803534Y-63503557D01*
X173973373Y-63452037D01*
X174039557Y-63445519D01*
X174105740Y-63439000D01*
X174194260Y-63439000D01*
X174260443Y-63445519D01*
X174260443Y-63445519D01*
G37*
G36*
X144551000Y-64116000D02*
G01*
X142749000Y-64116000D01*
X142749000Y-62314000D01*
X144551000Y-62314000D01*
X144551000Y-64116000D01*
X144551000Y-64116000D01*
G37*
G36*
X174260442Y-60905518D02*
G01*
X174326627Y-60912037D01*
X174496466Y-60963557D01*
X174652991Y-61047222D01*
X174688729Y-61076552D01*
X174790186Y-61159814D01*
X174873448Y-61261271D01*
X174902778Y-61297009D01*
X174986443Y-61453534D01*
X175037963Y-61623373D01*
X175055359Y-61800000D01*
X175037963Y-61976627D01*
X174986443Y-62146466D01*
X174902778Y-62302991D01*
X174893743Y-62314000D01*
X174790186Y-62440186D01*
X174688729Y-62523448D01*
X174652991Y-62552778D01*
X174496466Y-62636443D01*
X174326627Y-62687963D01*
X174260442Y-62694482D01*
X174194260Y-62701000D01*
X174105740Y-62701000D01*
X174039558Y-62694482D01*
X173973373Y-62687963D01*
X173803534Y-62636443D01*
X173647009Y-62552778D01*
X173611271Y-62523448D01*
X173509814Y-62440186D01*
X173406257Y-62314000D01*
X173397222Y-62302991D01*
X173313557Y-62146466D01*
X173262037Y-61976627D01*
X173244641Y-61800000D01*
X173262037Y-61623373D01*
X173313557Y-61453534D01*
X173397222Y-61297009D01*
X173426552Y-61261271D01*
X173509814Y-61159814D01*
X173611271Y-61076552D01*
X173647009Y-61047222D01*
X173803534Y-60963557D01*
X173973373Y-60912037D01*
X174039558Y-60905518D01*
X174105740Y-60899000D01*
X174194260Y-60899000D01*
X174260442Y-60905518D01*
X174260442Y-60905518D01*
G37*
G36*
X143760442Y-59780518D02*
G01*
X143826627Y-59787037D01*
X143996466Y-59838557D01*
X144152991Y-59922222D01*
X144188729Y-59951552D01*
X144290186Y-60034814D01*
X144373448Y-60136271D01*
X144402778Y-60172009D01*
X144486443Y-60328534D01*
X144537963Y-60498373D01*
X144555359Y-60675000D01*
X144537963Y-60851627D01*
X144486443Y-61021466D01*
X144402778Y-61177991D01*
X144373448Y-61213729D01*
X144290186Y-61315186D01*
X144188729Y-61398448D01*
X144152991Y-61427778D01*
X143996466Y-61511443D01*
X143826627Y-61562963D01*
X143760443Y-61569481D01*
X143694260Y-61576000D01*
X143605740Y-61576000D01*
X143539557Y-61569481D01*
X143473373Y-61562963D01*
X143303534Y-61511443D01*
X143147009Y-61427778D01*
X143111271Y-61398448D01*
X143009814Y-61315186D01*
X142926552Y-61213729D01*
X142897222Y-61177991D01*
X142813557Y-61021466D01*
X142762037Y-60851627D01*
X142744641Y-60675000D01*
X142762037Y-60498373D01*
X142813557Y-60328534D01*
X142897222Y-60172009D01*
X142926552Y-60136271D01*
X143009814Y-60034814D01*
X143111271Y-59951552D01*
X143147009Y-59922222D01*
X143303534Y-59838557D01*
X143473373Y-59787037D01*
X143539558Y-59780518D01*
X143605740Y-59774000D01*
X143694260Y-59774000D01*
X143760442Y-59780518D01*
X143760442Y-59780518D01*
G37*
G36*
X174260442Y-58365518D02*
G01*
X174326627Y-58372037D01*
X174496466Y-58423557D01*
X174652991Y-58507222D01*
X174688729Y-58536552D01*
X174790186Y-58619814D01*
X174873448Y-58721271D01*
X174902778Y-58757009D01*
X174986443Y-58913534D01*
X175037963Y-59083373D01*
X175055359Y-59260000D01*
X175037963Y-59436627D01*
X174986443Y-59606466D01*
X174902778Y-59762991D01*
X174893743Y-59774000D01*
X174790186Y-59900186D01*
X174688729Y-59983448D01*
X174652991Y-60012778D01*
X174496466Y-60096443D01*
X174326627Y-60147963D01*
X174260442Y-60154482D01*
X174194260Y-60161000D01*
X174105740Y-60161000D01*
X174039558Y-60154482D01*
X173973373Y-60147963D01*
X173803534Y-60096443D01*
X173647009Y-60012778D01*
X173611271Y-59983448D01*
X173509814Y-59900186D01*
X173406257Y-59774000D01*
X173397222Y-59762991D01*
X173313557Y-59606466D01*
X173262037Y-59436627D01*
X173244641Y-59260000D01*
X173262037Y-59083373D01*
X173313557Y-58913534D01*
X173397222Y-58757009D01*
X173426552Y-58721271D01*
X173509814Y-58619814D01*
X173611271Y-58536552D01*
X173647009Y-58507222D01*
X173803534Y-58423557D01*
X173973373Y-58372037D01*
X174039558Y-58365518D01*
X174105740Y-58359000D01*
X174194260Y-58359000D01*
X174260442Y-58365518D01*
X174260442Y-58365518D01*
G37*
G36*
X175051000Y-57621000D02*
G01*
X173249000Y-57621000D01*
X173249000Y-55819000D01*
X175051000Y-55819000D01*
X175051000Y-57621000D01*
X175051000Y-57621000D01*
G37*
G36*
X163528015Y-41406973D02*
G01*
X163631879Y-41438479D01*
X163659055Y-41453005D01*
X163727600Y-41489643D01*
X163811501Y-41558499D01*
X163880357Y-41642400D01*
X163915390Y-41707942D01*
X163931521Y-41738121D01*
X163963027Y-41841985D01*
X163971000Y-41922933D01*
X163971000Y-43077067D01*
X163963027Y-43158015D01*
X163931521Y-43261879D01*
X163880356Y-43357600D01*
X163811501Y-43441501D01*
X163742645Y-43498009D01*
X163727599Y-43510357D01*
X163675907Y-43537987D01*
X163631878Y-43561521D01*
X163528014Y-43593027D01*
X163420000Y-43603666D01*
X163311985Y-43593027D01*
X163208121Y-43561521D01*
X163164093Y-43537987D01*
X163112401Y-43510357D01*
X163099643Y-43499887D01*
X163028499Y-43441501D01*
X162959644Y-43357600D01*
X162908479Y-43261878D01*
X162876973Y-43158014D01*
X162869000Y-43077066D01*
X162869001Y-41922933D01*
X162876974Y-41841985D01*
X162908480Y-41738121D01*
X162924611Y-41707942D01*
X162959644Y-41642400D01*
X163028500Y-41558499D01*
X163112401Y-41489643D01*
X163180946Y-41453005D01*
X163208122Y-41438479D01*
X163311986Y-41406973D01*
X163420000Y-41396334D01*
X163528015Y-41406973D01*
X163528015Y-41406973D01*
G37*
G36*
X154888015Y-41406973D02*
G01*
X154991879Y-41438479D01*
X155019055Y-41453005D01*
X155087600Y-41489643D01*
X155171501Y-41558499D01*
X155240357Y-41642400D01*
X155275390Y-41707942D01*
X155291521Y-41738121D01*
X155323027Y-41841985D01*
X155331000Y-41922933D01*
X155331000Y-43077067D01*
X155323027Y-43158015D01*
X155291521Y-43261879D01*
X155240356Y-43357600D01*
X155171501Y-43441501D01*
X155102645Y-43498009D01*
X155087599Y-43510357D01*
X155035907Y-43537987D01*
X154991878Y-43561521D01*
X154888014Y-43593027D01*
X154780000Y-43603666D01*
X154671985Y-43593027D01*
X154568121Y-43561521D01*
X154524093Y-43537987D01*
X154472401Y-43510357D01*
X154459643Y-43499887D01*
X154388499Y-43441501D01*
X154319644Y-43357600D01*
X154268479Y-43261878D01*
X154236973Y-43158014D01*
X154229000Y-43077066D01*
X154229001Y-41922933D01*
X154236974Y-41841985D01*
X154268480Y-41738121D01*
X154284611Y-41707942D01*
X154319644Y-41642400D01*
X154388500Y-41558499D01*
X154472401Y-41489643D01*
X154540946Y-41453005D01*
X154568122Y-41438479D01*
X154671986Y-41406973D01*
X154780000Y-41396334D01*
X154888015Y-41406973D01*
X154888015Y-41406973D01*
G37*
G36*
X124922740Y-41808626D02*
G01*
X124971136Y-41818253D01*
X125008902Y-41833896D01*
X125062311Y-41856019D01*
X125062312Y-41856020D01*
X125144369Y-41910848D01*
X125214152Y-41980631D01*
X125214153Y-41980633D01*
X125268981Y-42062689D01*
X125306747Y-42153865D01*
X125326000Y-42250655D01*
X125326000Y-42349345D01*
X125306747Y-42446135D01*
X125268981Y-42537311D01*
X125268980Y-42537312D01*
X125214152Y-42619369D01*
X125144369Y-42689152D01*
X125103062Y-42716752D01*
X125062311Y-42743981D01*
X125008902Y-42766104D01*
X124971136Y-42781747D01*
X124922740Y-42791374D01*
X124874345Y-42801000D01*
X124775655Y-42801000D01*
X124727260Y-42791374D01*
X124678864Y-42781747D01*
X124641098Y-42766104D01*
X124587689Y-42743981D01*
X124546938Y-42716752D01*
X124505631Y-42689152D01*
X124435848Y-42619369D01*
X124381020Y-42537312D01*
X124381019Y-42537311D01*
X124343253Y-42446135D01*
X124324000Y-42349345D01*
X124324000Y-42250655D01*
X124343253Y-42153865D01*
X124381019Y-42062689D01*
X124435847Y-41980633D01*
X124435848Y-41980631D01*
X124505631Y-41910848D01*
X124587688Y-41856020D01*
X124587689Y-41856019D01*
X124641098Y-41833896D01*
X124678864Y-41818253D01*
X124727260Y-41808626D01*
X124775655Y-41799000D01*
X124874345Y-41799000D01*
X124922740Y-41808626D01*
X124922740Y-41808626D01*
G37*
G36*
X156319672Y-41638449D02*
G01*
X156319674Y-41638450D01*
X156319675Y-41638450D01*
X156388103Y-41666793D01*
X156449686Y-41707942D01*
X156502058Y-41760314D01*
X156543207Y-41821897D01*
X156571550Y-41890325D01*
X156571551Y-41890328D01*
X156586000Y-41962966D01*
X156586000Y-42037034D01*
X156580897Y-42062689D01*
X156571550Y-42109675D01*
X156543207Y-42178103D01*
X156502058Y-42239686D01*
X156449686Y-42292058D01*
X156388103Y-42333207D01*
X156319675Y-42361550D01*
X156319674Y-42361550D01*
X156319672Y-42361551D01*
X156247034Y-42376000D01*
X156172966Y-42376000D01*
X156100328Y-42361551D01*
X156100326Y-42361550D01*
X156100325Y-42361550D01*
X156031897Y-42333207D01*
X155970314Y-42292058D01*
X155917942Y-42239686D01*
X155876793Y-42178103D01*
X155848450Y-42109675D01*
X155839104Y-42062689D01*
X155834000Y-42037034D01*
X155834000Y-41962966D01*
X155848449Y-41890328D01*
X155848450Y-41890325D01*
X155876793Y-41821897D01*
X155917942Y-41760314D01*
X155970314Y-41707942D01*
X156031897Y-41666793D01*
X156100325Y-41638450D01*
X156100326Y-41638450D01*
X156100328Y-41638449D01*
X156172966Y-41624000D01*
X156247034Y-41624000D01*
X156319672Y-41638449D01*
X156319672Y-41638449D01*
G37*
G36*
X162099672Y-41638449D02*
G01*
X162099674Y-41638450D01*
X162099675Y-41638450D01*
X162168103Y-41666793D01*
X162229686Y-41707942D01*
X162282058Y-41760314D01*
X162323207Y-41821897D01*
X162351550Y-41890325D01*
X162351551Y-41890328D01*
X162366000Y-41962966D01*
X162366000Y-42037034D01*
X162360897Y-42062689D01*
X162351550Y-42109675D01*
X162323207Y-42178103D01*
X162282058Y-42239686D01*
X162229686Y-42292058D01*
X162168103Y-42333207D01*
X162099675Y-42361550D01*
X162099674Y-42361550D01*
X162099672Y-42361551D01*
X162027034Y-42376000D01*
X161952966Y-42376000D01*
X161880328Y-42361551D01*
X161880326Y-42361550D01*
X161880325Y-42361550D01*
X161811897Y-42333207D01*
X161750314Y-42292058D01*
X161697942Y-42239686D01*
X161656793Y-42178103D01*
X161628450Y-42109675D01*
X161619104Y-42062689D01*
X161614000Y-42037034D01*
X161614000Y-41962966D01*
X161628449Y-41890328D01*
X161628450Y-41890325D01*
X161656793Y-41821897D01*
X161697942Y-41760314D01*
X161750314Y-41707942D01*
X161811897Y-41666793D01*
X161880325Y-41638450D01*
X161880326Y-41638450D01*
X161880328Y-41638449D01*
X161952966Y-41624000D01*
X162027034Y-41624000D01*
X162099672Y-41638449D01*
X162099672Y-41638449D01*
G37*
G36*
X124922740Y-38808627D02*
G01*
X124971136Y-38818253D01*
X125008902Y-38833896D01*
X125062311Y-38856019D01*
X125065298Y-38858015D01*
X125144369Y-38910848D01*
X125214152Y-38980631D01*
X125214153Y-38980633D01*
X125268981Y-39062689D01*
X125291104Y-39116098D01*
X125301626Y-39141500D01*
X125306747Y-39153865D01*
X125326000Y-39250655D01*
X125326000Y-39349345D01*
X125306747Y-39446135D01*
X125268981Y-39537311D01*
X125268980Y-39537312D01*
X125214152Y-39619369D01*
X125144369Y-39689152D01*
X125103062Y-39716752D01*
X125062311Y-39743981D01*
X125008902Y-39766104D01*
X124971136Y-39781747D01*
X124922740Y-39791374D01*
X124874345Y-39801000D01*
X124775655Y-39801000D01*
X124727260Y-39791373D01*
X124678864Y-39781747D01*
X124641098Y-39766104D01*
X124587689Y-39743981D01*
X124546938Y-39716752D01*
X124505631Y-39689152D01*
X124435848Y-39619369D01*
X124381020Y-39537312D01*
X124381019Y-39537311D01*
X124343253Y-39446135D01*
X124324000Y-39349345D01*
X124324000Y-39250655D01*
X124343253Y-39153865D01*
X124348375Y-39141500D01*
X124358896Y-39116098D01*
X124381019Y-39062689D01*
X124435847Y-38980633D01*
X124435848Y-38980631D01*
X124505631Y-38910848D01*
X124584702Y-38858015D01*
X124587689Y-38856019D01*
X124641098Y-38833896D01*
X124678864Y-38818253D01*
X124727260Y-38808627D01*
X124775655Y-38799000D01*
X124874345Y-38799000D01*
X124922740Y-38808627D01*
X124922740Y-38808627D01*
G37*
G36*
X181650442Y-37855518D02*
G01*
X181716627Y-37862037D01*
X181886466Y-37913557D01*
X182042991Y-37997222D01*
X182078729Y-38026552D01*
X182180186Y-38109814D01*
X182263448Y-38211271D01*
X182292778Y-38247009D01*
X182376443Y-38403534D01*
X182427963Y-38573373D01*
X182445359Y-38750000D01*
X182427963Y-38926627D01*
X182376443Y-39096466D01*
X182292778Y-39252991D01*
X182263448Y-39288729D01*
X182180186Y-39390186D01*
X182078729Y-39473448D01*
X182042991Y-39502778D01*
X181886466Y-39586443D01*
X181716627Y-39637963D01*
X181650442Y-39644482D01*
X181584260Y-39651000D01*
X181495740Y-39651000D01*
X181429558Y-39644482D01*
X181363373Y-39637963D01*
X181193534Y-39586443D01*
X181037009Y-39502778D01*
X181001271Y-39473448D01*
X180899814Y-39390186D01*
X180816552Y-39288729D01*
X180787222Y-39252991D01*
X180703557Y-39096466D01*
X180652037Y-38926627D01*
X180634641Y-38750000D01*
X180652037Y-38573373D01*
X180703557Y-38403534D01*
X180787222Y-38247009D01*
X180816552Y-38211271D01*
X180899814Y-38109814D01*
X181001271Y-38026552D01*
X181037009Y-37997222D01*
X181193534Y-37913557D01*
X181363373Y-37862037D01*
X181429558Y-37855518D01*
X181495740Y-37849000D01*
X181584260Y-37849000D01*
X181650442Y-37855518D01*
X181650442Y-37855518D01*
G37*
G36*
X179901000Y-39651000D02*
G01*
X178099000Y-39651000D01*
X178099000Y-37849000D01*
X179901000Y-37849000D01*
X179901000Y-39651000D01*
X179901000Y-39651000D01*
G37*
G36*
X163528015Y-37406973D02*
G01*
X163631879Y-37438479D01*
X163659055Y-37453005D01*
X163727600Y-37489643D01*
X163811501Y-37558499D01*
X163880357Y-37642400D01*
X163916995Y-37710945D01*
X163931521Y-37738121D01*
X163963027Y-37841985D01*
X163971000Y-37922933D01*
X163971000Y-38777067D01*
X163963027Y-38858015D01*
X163931521Y-38961879D01*
X163907987Y-39005907D01*
X163880357Y-39057599D01*
X163876180Y-39062689D01*
X163811501Y-39141501D01*
X163742645Y-39198009D01*
X163727599Y-39210357D01*
X163675907Y-39237987D01*
X163631878Y-39261521D01*
X163528014Y-39293027D01*
X163420000Y-39303666D01*
X163311985Y-39293027D01*
X163208121Y-39261521D01*
X163164093Y-39237987D01*
X163112401Y-39210357D01*
X163099643Y-39199887D01*
X163028499Y-39141501D01*
X162963820Y-39062689D01*
X162959643Y-39057599D01*
X162918503Y-38980631D01*
X162908479Y-38961878D01*
X162876973Y-38858014D01*
X162869000Y-38777066D01*
X162869000Y-37922933D01*
X162876973Y-37841985D01*
X162908480Y-37738121D01*
X162926302Y-37704779D01*
X162959644Y-37642400D01*
X163028500Y-37558499D01*
X163112401Y-37489643D01*
X163180946Y-37453005D01*
X163208122Y-37438479D01*
X163311986Y-37406973D01*
X163420000Y-37396334D01*
X163528015Y-37406973D01*
X163528015Y-37406973D01*
G37*
G36*
X154888015Y-37406973D02*
G01*
X154991879Y-37438479D01*
X155019055Y-37453005D01*
X155087600Y-37489643D01*
X155171501Y-37558499D01*
X155240357Y-37642400D01*
X155276995Y-37710945D01*
X155291521Y-37738121D01*
X155323027Y-37841985D01*
X155331000Y-37922933D01*
X155331000Y-38777067D01*
X155323027Y-38858015D01*
X155291521Y-38961879D01*
X155267987Y-39005907D01*
X155240357Y-39057599D01*
X155236180Y-39062689D01*
X155171501Y-39141501D01*
X155102645Y-39198009D01*
X155087599Y-39210357D01*
X155035907Y-39237987D01*
X154991878Y-39261521D01*
X154888014Y-39293027D01*
X154780000Y-39303666D01*
X154671985Y-39293027D01*
X154568121Y-39261521D01*
X154524093Y-39237987D01*
X154472401Y-39210357D01*
X154459643Y-39199887D01*
X154388499Y-39141501D01*
X154323820Y-39062689D01*
X154319643Y-39057599D01*
X154278503Y-38980631D01*
X154268479Y-38961878D01*
X154236973Y-38858014D01*
X154229000Y-38777066D01*
X154229000Y-37922933D01*
X154236973Y-37841985D01*
X154268480Y-37738121D01*
X154286302Y-37704779D01*
X154319644Y-37642400D01*
X154388500Y-37558499D01*
X154472401Y-37489643D01*
X154540946Y-37453005D01*
X154568122Y-37438479D01*
X154671986Y-37406973D01*
X154780000Y-37396334D01*
X154888015Y-37406973D01*
X154888015Y-37406973D01*
G37*
M02*
