G04 #@! TF.GenerationSoftware,KiCad,Pcbnew,5.1.2*
G04 #@! TF.CreationDate,2019-06-25T21:59:29-05:00*
G04 #@! TF.ProjectId,STM32F030Minimal,53544d33-3246-4303-9330-4d696e696d61,rev?*
G04 #@! TF.SameCoordinates,Original*
G04 #@! TF.FileFunction,Soldermask,Top*
G04 #@! TF.FilePolarity,Negative*
%FSLAX46Y46*%
G04 Gerber Fmt 4.6, Leading zero omitted, Abs format (unit mm)*
G04 Created by KiCad (PCBNEW 5.1.2) date 2019-06-25 21:59:29*
%MOMM*%
%LPD*%
G04 APERTURE LIST*
%ADD10C,0.100000*%
G04 APERTURE END LIST*
D10*
G36*
X163340442Y-89555518D02*
G01*
X163406627Y-89562037D01*
X163576466Y-89613557D01*
X163732991Y-89697222D01*
X163768729Y-89726552D01*
X163870186Y-89809814D01*
X163953448Y-89911271D01*
X163982778Y-89947009D01*
X164066443Y-90103534D01*
X164117963Y-90273373D01*
X164135359Y-90450000D01*
X164117963Y-90626627D01*
X164066443Y-90796466D01*
X163982778Y-90952991D01*
X163953448Y-90988729D01*
X163870186Y-91090186D01*
X163768729Y-91173448D01*
X163732991Y-91202778D01*
X163576466Y-91286443D01*
X163406627Y-91337963D01*
X163340442Y-91344482D01*
X163274260Y-91351000D01*
X163185740Y-91351000D01*
X163119558Y-91344482D01*
X163053373Y-91337963D01*
X162883534Y-91286443D01*
X162727009Y-91202778D01*
X162691271Y-91173448D01*
X162589814Y-91090186D01*
X162506552Y-90988729D01*
X162477222Y-90952991D01*
X162393557Y-90796466D01*
X162342037Y-90626627D01*
X162324641Y-90450000D01*
X162342037Y-90273373D01*
X162393557Y-90103534D01*
X162477222Y-89947009D01*
X162506552Y-89911271D01*
X162589814Y-89809814D01*
X162691271Y-89726552D01*
X162727009Y-89697222D01*
X162883534Y-89613557D01*
X163053373Y-89562037D01*
X163119558Y-89555518D01*
X163185740Y-89549000D01*
X163274260Y-89549000D01*
X163340442Y-89555518D01*
X163340442Y-89555518D01*
G37*
G36*
X163340443Y-87015519D02*
G01*
X163406627Y-87022037D01*
X163576466Y-87073557D01*
X163732991Y-87157222D01*
X163768729Y-87186552D01*
X163870186Y-87269814D01*
X163949951Y-87367009D01*
X163982778Y-87407009D01*
X164066443Y-87563534D01*
X164117963Y-87733373D01*
X164135359Y-87910000D01*
X164117963Y-88086627D01*
X164066443Y-88256466D01*
X163982778Y-88412991D01*
X163953448Y-88448729D01*
X163870186Y-88550186D01*
X163781731Y-88622778D01*
X163732991Y-88662778D01*
X163576466Y-88746443D01*
X163406627Y-88797963D01*
X163340443Y-88804481D01*
X163274260Y-88811000D01*
X163185740Y-88811000D01*
X163119557Y-88804481D01*
X163053373Y-88797963D01*
X162883534Y-88746443D01*
X162727009Y-88662778D01*
X162678269Y-88622778D01*
X162589814Y-88550186D01*
X162506552Y-88448729D01*
X162477222Y-88412991D01*
X162393557Y-88256466D01*
X162342037Y-88086627D01*
X162324641Y-87910000D01*
X162342037Y-87733373D01*
X162393557Y-87563534D01*
X162477222Y-87407009D01*
X162510049Y-87367009D01*
X162589814Y-87269814D01*
X162691271Y-87186552D01*
X162727009Y-87157222D01*
X162883534Y-87073557D01*
X163053373Y-87022037D01*
X163119557Y-87015519D01*
X163185740Y-87009000D01*
X163274260Y-87009000D01*
X163340443Y-87015519D01*
X163340443Y-87015519D01*
G37*
G36*
X156110443Y-86975519D02*
G01*
X156176627Y-86982037D01*
X156346466Y-87033557D01*
X156502991Y-87117222D01*
X156538729Y-87146552D01*
X156640186Y-87229814D01*
X156723448Y-87331271D01*
X156752778Y-87367009D01*
X156836443Y-87523534D01*
X156887963Y-87693373D01*
X156905359Y-87870000D01*
X156887963Y-88046627D01*
X156836443Y-88216466D01*
X156752778Y-88372991D01*
X156723448Y-88408729D01*
X156640186Y-88510186D01*
X156538729Y-88593448D01*
X156502991Y-88622778D01*
X156346466Y-88706443D01*
X156176627Y-88757963D01*
X156110442Y-88764482D01*
X156044260Y-88771000D01*
X155955740Y-88771000D01*
X155889558Y-88764482D01*
X155823373Y-88757963D01*
X155653534Y-88706443D01*
X155497009Y-88622778D01*
X155461271Y-88593448D01*
X155359814Y-88510186D01*
X155276552Y-88408729D01*
X155247222Y-88372991D01*
X155163557Y-88216466D01*
X155112037Y-88046627D01*
X155094641Y-87870000D01*
X155112037Y-87693373D01*
X155163557Y-87523534D01*
X155247222Y-87367009D01*
X155276552Y-87331271D01*
X155359814Y-87229814D01*
X155461271Y-87146552D01*
X155497009Y-87117222D01*
X155653534Y-87033557D01*
X155823373Y-86982037D01*
X155889557Y-86975519D01*
X155955740Y-86969000D01*
X156044260Y-86969000D01*
X156110443Y-86975519D01*
X156110443Y-86975519D01*
G37*
G36*
X163340443Y-84475519D02*
G01*
X163406627Y-84482037D01*
X163576466Y-84533557D01*
X163732991Y-84617222D01*
X163768729Y-84646552D01*
X163870186Y-84729814D01*
X163949951Y-84827009D01*
X163982778Y-84867009D01*
X164066443Y-85023534D01*
X164117963Y-85193373D01*
X164135359Y-85370000D01*
X164117963Y-85546627D01*
X164066443Y-85716466D01*
X163982778Y-85872991D01*
X163953448Y-85908729D01*
X163870186Y-86010186D01*
X163781731Y-86082778D01*
X163732991Y-86122778D01*
X163576466Y-86206443D01*
X163406627Y-86257963D01*
X163340442Y-86264482D01*
X163274260Y-86271000D01*
X163185740Y-86271000D01*
X163119558Y-86264482D01*
X163053373Y-86257963D01*
X162883534Y-86206443D01*
X162727009Y-86122778D01*
X162678269Y-86082778D01*
X162589814Y-86010186D01*
X162506552Y-85908729D01*
X162477222Y-85872991D01*
X162393557Y-85716466D01*
X162342037Y-85546627D01*
X162324641Y-85370000D01*
X162342037Y-85193373D01*
X162393557Y-85023534D01*
X162477222Y-84867009D01*
X162510049Y-84827009D01*
X162589814Y-84729814D01*
X162691271Y-84646552D01*
X162727009Y-84617222D01*
X162883534Y-84533557D01*
X163053373Y-84482037D01*
X163119557Y-84475519D01*
X163185740Y-84469000D01*
X163274260Y-84469000D01*
X163340443Y-84475519D01*
X163340443Y-84475519D01*
G37*
G36*
X156110442Y-84435518D02*
G01*
X156176627Y-84442037D01*
X156346466Y-84493557D01*
X156502991Y-84577222D01*
X156538729Y-84606552D01*
X156640186Y-84689814D01*
X156723448Y-84791271D01*
X156752778Y-84827009D01*
X156836443Y-84983534D01*
X156887963Y-85153373D01*
X156905359Y-85330000D01*
X156887963Y-85506627D01*
X156836443Y-85676466D01*
X156752778Y-85832991D01*
X156723448Y-85868729D01*
X156640186Y-85970186D01*
X156538729Y-86053448D01*
X156502991Y-86082778D01*
X156346466Y-86166443D01*
X156176627Y-86217963D01*
X156110443Y-86224481D01*
X156044260Y-86231000D01*
X155955740Y-86231000D01*
X155889557Y-86224481D01*
X155823373Y-86217963D01*
X155653534Y-86166443D01*
X155497009Y-86082778D01*
X155461271Y-86053448D01*
X155359814Y-85970186D01*
X155276552Y-85868729D01*
X155247222Y-85832991D01*
X155163557Y-85676466D01*
X155112037Y-85506627D01*
X155094641Y-85330000D01*
X155112037Y-85153373D01*
X155163557Y-84983534D01*
X155247222Y-84827009D01*
X155276552Y-84791271D01*
X155359814Y-84689814D01*
X155461271Y-84606552D01*
X155497009Y-84577222D01*
X155653534Y-84493557D01*
X155823373Y-84442037D01*
X155889558Y-84435518D01*
X155955740Y-84429000D01*
X156044260Y-84429000D01*
X156110442Y-84435518D01*
X156110442Y-84435518D01*
G37*
G36*
X163340442Y-81935518D02*
G01*
X163406627Y-81942037D01*
X163576466Y-81993557D01*
X163732991Y-82077222D01*
X163768729Y-82106552D01*
X163870186Y-82189814D01*
X163949951Y-82287009D01*
X163982778Y-82327009D01*
X164066443Y-82483534D01*
X164117963Y-82653373D01*
X164135359Y-82830000D01*
X164117963Y-83006627D01*
X164066443Y-83176466D01*
X163982778Y-83332991D01*
X163953448Y-83368729D01*
X163870186Y-83470186D01*
X163781731Y-83542778D01*
X163732991Y-83582778D01*
X163576466Y-83666443D01*
X163406627Y-83717963D01*
X163340443Y-83724481D01*
X163274260Y-83731000D01*
X163185740Y-83731000D01*
X163119557Y-83724481D01*
X163053373Y-83717963D01*
X162883534Y-83666443D01*
X162727009Y-83582778D01*
X162678269Y-83542778D01*
X162589814Y-83470186D01*
X162506552Y-83368729D01*
X162477222Y-83332991D01*
X162393557Y-83176466D01*
X162342037Y-83006627D01*
X162324641Y-82830000D01*
X162342037Y-82653373D01*
X162393557Y-82483534D01*
X162477222Y-82327009D01*
X162510049Y-82287009D01*
X162589814Y-82189814D01*
X162691271Y-82106552D01*
X162727009Y-82077222D01*
X162883534Y-81993557D01*
X163053373Y-81942037D01*
X163119558Y-81935518D01*
X163185740Y-81929000D01*
X163274260Y-81929000D01*
X163340442Y-81935518D01*
X163340442Y-81935518D01*
G37*
G36*
X156110443Y-81895519D02*
G01*
X156176627Y-81902037D01*
X156346466Y-81953557D01*
X156502991Y-82037222D01*
X156538729Y-82066552D01*
X156640186Y-82149814D01*
X156723448Y-82251271D01*
X156752778Y-82287009D01*
X156836443Y-82443534D01*
X156887963Y-82613373D01*
X156905359Y-82790000D01*
X156887963Y-82966627D01*
X156836443Y-83136466D01*
X156752778Y-83292991D01*
X156723448Y-83328729D01*
X156640186Y-83430186D01*
X156538729Y-83513448D01*
X156502991Y-83542778D01*
X156346466Y-83626443D01*
X156176627Y-83677963D01*
X156110443Y-83684481D01*
X156044260Y-83691000D01*
X155955740Y-83691000D01*
X155889557Y-83684481D01*
X155823373Y-83677963D01*
X155653534Y-83626443D01*
X155497009Y-83542778D01*
X155461271Y-83513448D01*
X155359814Y-83430186D01*
X155276552Y-83328729D01*
X155247222Y-83292991D01*
X155163557Y-83136466D01*
X155112037Y-82966627D01*
X155094641Y-82790000D01*
X155112037Y-82613373D01*
X155163557Y-82443534D01*
X155247222Y-82287009D01*
X155276552Y-82251271D01*
X155359814Y-82149814D01*
X155461271Y-82066552D01*
X155497009Y-82037222D01*
X155653534Y-81953557D01*
X155823373Y-81902037D01*
X155889557Y-81895519D01*
X155955740Y-81889000D01*
X156044260Y-81889000D01*
X156110443Y-81895519D01*
X156110443Y-81895519D01*
G37*
G36*
X163340442Y-79395518D02*
G01*
X163406627Y-79402037D01*
X163576466Y-79453557D01*
X163732991Y-79537222D01*
X163768729Y-79566552D01*
X163870186Y-79649814D01*
X163949951Y-79747009D01*
X163982778Y-79787009D01*
X164066443Y-79943534D01*
X164117963Y-80113373D01*
X164135359Y-80290000D01*
X164117963Y-80466627D01*
X164066443Y-80636466D01*
X163982778Y-80792991D01*
X163953448Y-80828729D01*
X163870186Y-80930186D01*
X163781731Y-81002778D01*
X163732991Y-81042778D01*
X163576466Y-81126443D01*
X163406627Y-81177963D01*
X163340442Y-81184482D01*
X163274260Y-81191000D01*
X163185740Y-81191000D01*
X163119558Y-81184482D01*
X163053373Y-81177963D01*
X162883534Y-81126443D01*
X162727009Y-81042778D01*
X162678269Y-81002778D01*
X162589814Y-80930186D01*
X162506552Y-80828729D01*
X162477222Y-80792991D01*
X162393557Y-80636466D01*
X162342037Y-80466627D01*
X162324641Y-80290000D01*
X162342037Y-80113373D01*
X162393557Y-79943534D01*
X162477222Y-79787009D01*
X162510049Y-79747009D01*
X162589814Y-79649814D01*
X162691271Y-79566552D01*
X162727009Y-79537222D01*
X162883534Y-79453557D01*
X163053373Y-79402037D01*
X163119558Y-79395518D01*
X163185740Y-79389000D01*
X163274260Y-79389000D01*
X163340442Y-79395518D01*
X163340442Y-79395518D01*
G37*
G36*
X156110443Y-79355519D02*
G01*
X156176627Y-79362037D01*
X156346466Y-79413557D01*
X156502991Y-79497222D01*
X156538729Y-79526552D01*
X156640186Y-79609814D01*
X156723448Y-79711271D01*
X156752778Y-79747009D01*
X156836443Y-79903534D01*
X156887963Y-80073373D01*
X156905359Y-80250000D01*
X156887963Y-80426627D01*
X156836443Y-80596466D01*
X156752778Y-80752991D01*
X156723448Y-80788729D01*
X156640186Y-80890186D01*
X156538729Y-80973448D01*
X156502991Y-81002778D01*
X156346466Y-81086443D01*
X156176627Y-81137963D01*
X156110442Y-81144482D01*
X156044260Y-81151000D01*
X155955740Y-81151000D01*
X155889558Y-81144482D01*
X155823373Y-81137963D01*
X155653534Y-81086443D01*
X155497009Y-81002778D01*
X155461271Y-80973448D01*
X155359814Y-80890186D01*
X155276552Y-80788729D01*
X155247222Y-80752991D01*
X155163557Y-80596466D01*
X155112037Y-80426627D01*
X155094641Y-80250000D01*
X155112037Y-80073373D01*
X155163557Y-79903534D01*
X155247222Y-79747009D01*
X155276552Y-79711271D01*
X155359814Y-79609814D01*
X155461271Y-79526552D01*
X155497009Y-79497222D01*
X155653534Y-79413557D01*
X155823373Y-79362037D01*
X155889557Y-79355519D01*
X155955740Y-79349000D01*
X156044260Y-79349000D01*
X156110443Y-79355519D01*
X156110443Y-79355519D01*
G37*
G36*
X164131000Y-78651000D02*
G01*
X162329000Y-78651000D01*
X162329000Y-76849000D01*
X164131000Y-76849000D01*
X164131000Y-78651000D01*
X164131000Y-78651000D01*
G37*
G36*
X156901000Y-78611000D02*
G01*
X155099000Y-78611000D01*
X155099000Y-76809000D01*
X156901000Y-76809000D01*
X156901000Y-78611000D01*
X156901000Y-78611000D01*
G37*
G36*
X145626000Y-74176000D02*
G01*
X144624000Y-74176000D01*
X144624000Y-73274000D01*
X145626000Y-73274000D01*
X145626000Y-74176000D01*
X145626000Y-74176000D01*
G37*
G36*
X143326000Y-74176000D02*
G01*
X142324000Y-74176000D01*
X142324000Y-73274000D01*
X143326000Y-73274000D01*
X143326000Y-74176000D01*
X143326000Y-74176000D01*
G37*
G36*
X146776000Y-72676000D02*
G01*
X145424000Y-72676000D01*
X145424000Y-71674000D01*
X146776000Y-71674000D01*
X146776000Y-72676000D01*
X146776000Y-72676000D01*
G37*
G36*
X144072740Y-70933626D02*
G01*
X144121136Y-70943253D01*
X144158902Y-70958896D01*
X144212311Y-70981019D01*
X144212312Y-70981020D01*
X144294369Y-71035848D01*
X144364152Y-71105631D01*
X144364153Y-71105633D01*
X144418981Y-71187689D01*
X144456747Y-71278865D01*
X144476000Y-71375655D01*
X144476000Y-71474345D01*
X144456747Y-71571135D01*
X144418981Y-71662311D01*
X144391752Y-71703062D01*
X144364152Y-71744369D01*
X144294369Y-71814152D01*
X144253062Y-71841752D01*
X144212311Y-71868981D01*
X144158902Y-71891104D01*
X144121136Y-71906747D01*
X144072740Y-71916373D01*
X144024345Y-71926000D01*
X143925655Y-71926000D01*
X143877260Y-71916373D01*
X143828864Y-71906747D01*
X143791098Y-71891104D01*
X143737689Y-71868981D01*
X143696938Y-71841752D01*
X143655631Y-71814152D01*
X143585848Y-71744369D01*
X143558248Y-71703062D01*
X143531019Y-71662311D01*
X143493253Y-71571135D01*
X143474000Y-71474345D01*
X143474000Y-71375655D01*
X143493253Y-71278865D01*
X143531019Y-71187689D01*
X143585847Y-71105633D01*
X143585848Y-71105631D01*
X143655631Y-71035848D01*
X143737688Y-70981020D01*
X143737689Y-70981019D01*
X143791098Y-70958896D01*
X143828864Y-70943253D01*
X143877260Y-70933626D01*
X143925655Y-70924000D01*
X144024345Y-70924000D01*
X144072740Y-70933626D01*
X144072740Y-70933626D01*
G37*
G36*
X146776000Y-71176000D02*
G01*
X145424000Y-71176000D01*
X145424000Y-70174000D01*
X146776000Y-70174000D01*
X146776000Y-71176000D01*
X146776000Y-71176000D01*
G37*
G36*
X153071968Y-69103565D02*
G01*
X153110638Y-69115296D01*
X153146277Y-69134346D01*
X153177517Y-69159983D01*
X153203154Y-69191223D01*
X153222204Y-69226862D01*
X153233935Y-69265532D01*
X153238500Y-69311888D01*
X153238500Y-70388112D01*
X153233935Y-70434468D01*
X153222204Y-70473138D01*
X153203154Y-70508777D01*
X153177517Y-70540017D01*
X153146277Y-70565654D01*
X153110638Y-70584704D01*
X153071968Y-70596435D01*
X153025612Y-70601000D01*
X152374388Y-70601000D01*
X152328032Y-70596435D01*
X152289362Y-70584704D01*
X152253723Y-70565654D01*
X152222483Y-70540017D01*
X152196846Y-70508777D01*
X152177796Y-70473138D01*
X152166065Y-70434468D01*
X152161500Y-70388112D01*
X152161500Y-69311888D01*
X152166065Y-69265532D01*
X152177796Y-69226862D01*
X152196846Y-69191223D01*
X152222483Y-69159983D01*
X152253723Y-69134346D01*
X152289362Y-69115296D01*
X152328032Y-69103565D01*
X152374388Y-69099000D01*
X153025612Y-69099000D01*
X153071968Y-69103565D01*
X153071968Y-69103565D01*
G37*
G36*
X154946968Y-69103565D02*
G01*
X154985638Y-69115296D01*
X155021277Y-69134346D01*
X155052517Y-69159983D01*
X155078154Y-69191223D01*
X155097204Y-69226862D01*
X155108935Y-69265532D01*
X155113500Y-69311888D01*
X155113500Y-70388112D01*
X155108935Y-70434468D01*
X155097204Y-70473138D01*
X155078154Y-70508777D01*
X155052517Y-70540017D01*
X155021277Y-70565654D01*
X154985638Y-70584704D01*
X154946968Y-70596435D01*
X154900612Y-70601000D01*
X154249388Y-70601000D01*
X154203032Y-70596435D01*
X154164362Y-70584704D01*
X154128723Y-70565654D01*
X154097483Y-70540017D01*
X154071846Y-70508777D01*
X154052796Y-70473138D01*
X154041065Y-70434468D01*
X154036500Y-70388112D01*
X154036500Y-69311888D01*
X154041065Y-69265532D01*
X154052796Y-69226862D01*
X154071846Y-69191223D01*
X154097483Y-69159983D01*
X154128723Y-69134346D01*
X154164362Y-69115296D01*
X154203032Y-69103565D01*
X154249388Y-69099000D01*
X154900612Y-69099000D01*
X154946968Y-69103565D01*
X154946968Y-69103565D01*
G37*
G36*
X157626000Y-69626000D02*
G01*
X156074000Y-69626000D01*
X156074000Y-63224000D01*
X157626000Y-63224000D01*
X157626000Y-69626000D01*
X157626000Y-69626000D01*
G37*
G36*
X163526000Y-69626000D02*
G01*
X161974000Y-69626000D01*
X161974000Y-63224000D01*
X163526000Y-63224000D01*
X163526000Y-69626000D01*
X163526000Y-69626000D01*
G37*
G36*
X168496968Y-67828565D02*
G01*
X168535638Y-67840296D01*
X168571277Y-67859346D01*
X168602517Y-67884983D01*
X168628154Y-67916223D01*
X168647204Y-67951862D01*
X168658935Y-67990532D01*
X168663500Y-68036888D01*
X168663500Y-69113112D01*
X168658935Y-69159468D01*
X168647204Y-69198138D01*
X168628154Y-69233777D01*
X168602517Y-69265017D01*
X168571277Y-69290654D01*
X168535638Y-69309704D01*
X168496968Y-69321435D01*
X168450612Y-69326000D01*
X167799388Y-69326000D01*
X167753032Y-69321435D01*
X167714362Y-69309704D01*
X167678723Y-69290654D01*
X167647483Y-69265017D01*
X167621846Y-69233777D01*
X167602796Y-69198138D01*
X167591065Y-69159468D01*
X167586500Y-69113112D01*
X167586500Y-68036888D01*
X167591065Y-67990532D01*
X167602796Y-67951862D01*
X167621846Y-67916223D01*
X167647483Y-67884983D01*
X167678723Y-67859346D01*
X167714362Y-67840296D01*
X167753032Y-67828565D01*
X167799388Y-67824000D01*
X168450612Y-67824000D01*
X168496968Y-67828565D01*
X168496968Y-67828565D01*
G37*
G36*
X166621968Y-67828565D02*
G01*
X166660638Y-67840296D01*
X166696277Y-67859346D01*
X166727517Y-67884983D01*
X166753154Y-67916223D01*
X166772204Y-67951862D01*
X166783935Y-67990532D01*
X166788500Y-68036888D01*
X166788500Y-69113112D01*
X166783935Y-69159468D01*
X166772204Y-69198138D01*
X166753154Y-69233777D01*
X166727517Y-69265017D01*
X166696277Y-69290654D01*
X166660638Y-69309704D01*
X166621968Y-69321435D01*
X166575612Y-69326000D01*
X165924388Y-69326000D01*
X165878032Y-69321435D01*
X165839362Y-69309704D01*
X165803723Y-69290654D01*
X165772483Y-69265017D01*
X165746846Y-69233777D01*
X165727796Y-69198138D01*
X165716065Y-69159468D01*
X165711500Y-69113112D01*
X165711500Y-68036888D01*
X165716065Y-67990532D01*
X165727796Y-67951862D01*
X165746846Y-67916223D01*
X165772483Y-67884983D01*
X165803723Y-67859346D01*
X165839362Y-67840296D01*
X165878032Y-67828565D01*
X165924388Y-67824000D01*
X166575612Y-67824000D01*
X166621968Y-67828565D01*
X166621968Y-67828565D01*
G37*
G36*
X144072740Y-67933627D02*
G01*
X144121136Y-67943253D01*
X144158902Y-67958896D01*
X144212311Y-67981019D01*
X144212312Y-67981020D01*
X144294369Y-68035848D01*
X144364152Y-68105631D01*
X144381328Y-68131337D01*
X144418981Y-68187689D01*
X144456747Y-68278865D01*
X144476000Y-68375655D01*
X144476000Y-68474345D01*
X144456747Y-68571135D01*
X144418981Y-68662311D01*
X144418980Y-68662312D01*
X144364152Y-68744369D01*
X144294369Y-68814152D01*
X144253062Y-68841752D01*
X144212311Y-68868981D01*
X144158902Y-68891104D01*
X144121136Y-68906747D01*
X144072740Y-68916373D01*
X144024345Y-68926000D01*
X143925655Y-68926000D01*
X143877260Y-68916373D01*
X143828864Y-68906747D01*
X143791098Y-68891104D01*
X143737689Y-68868981D01*
X143696938Y-68841752D01*
X143655631Y-68814152D01*
X143585848Y-68744369D01*
X143531020Y-68662312D01*
X143531019Y-68662311D01*
X143493253Y-68571135D01*
X143474000Y-68474345D01*
X143474000Y-68375655D01*
X143493253Y-68278865D01*
X143531019Y-68187689D01*
X143568672Y-68131337D01*
X143585848Y-68105631D01*
X143655631Y-68035848D01*
X143737688Y-67981020D01*
X143737689Y-67981019D01*
X143791098Y-67958896D01*
X143828864Y-67943253D01*
X143877260Y-67933627D01*
X143925655Y-67924000D01*
X144024345Y-67924000D01*
X144072740Y-67933627D01*
X144072740Y-67933627D01*
G37*
G36*
X149221968Y-66753565D02*
G01*
X149260638Y-66765296D01*
X149296277Y-66784346D01*
X149327517Y-66809983D01*
X149353154Y-66841223D01*
X149372204Y-66876862D01*
X149383935Y-66915532D01*
X149388500Y-66961888D01*
X149388500Y-68038112D01*
X149383935Y-68084468D01*
X149372204Y-68123138D01*
X149353154Y-68158777D01*
X149327517Y-68190017D01*
X149296277Y-68215654D01*
X149260638Y-68234704D01*
X149221968Y-68246435D01*
X149175612Y-68251000D01*
X148524388Y-68251000D01*
X148478032Y-68246435D01*
X148439362Y-68234704D01*
X148403723Y-68215654D01*
X148372483Y-68190017D01*
X148346846Y-68158777D01*
X148327796Y-68123138D01*
X148316065Y-68084468D01*
X148311500Y-68038112D01*
X148311500Y-66961888D01*
X148316065Y-66915532D01*
X148327796Y-66876862D01*
X148346846Y-66841223D01*
X148372483Y-66809983D01*
X148403723Y-66784346D01*
X148439362Y-66765296D01*
X148478032Y-66753565D01*
X148524388Y-66749000D01*
X149175612Y-66749000D01*
X149221968Y-66753565D01*
X149221968Y-66753565D01*
G37*
G36*
X151096968Y-66753565D02*
G01*
X151135638Y-66765296D01*
X151171277Y-66784346D01*
X151202517Y-66809983D01*
X151228154Y-66841223D01*
X151247204Y-66876862D01*
X151258935Y-66915532D01*
X151263500Y-66961888D01*
X151263500Y-68038112D01*
X151258935Y-68084468D01*
X151247204Y-68123138D01*
X151228154Y-68158777D01*
X151202517Y-68190017D01*
X151171277Y-68215654D01*
X151135638Y-68234704D01*
X151096968Y-68246435D01*
X151050612Y-68251000D01*
X150399388Y-68251000D01*
X150353032Y-68246435D01*
X150314362Y-68234704D01*
X150278723Y-68215654D01*
X150247483Y-68190017D01*
X150221846Y-68158777D01*
X150202796Y-68123138D01*
X150191065Y-68084468D01*
X150186500Y-68038112D01*
X150186500Y-66961888D01*
X150191065Y-66915532D01*
X150202796Y-66876862D01*
X150221846Y-66841223D01*
X150247483Y-66809983D01*
X150278723Y-66784346D01*
X150314362Y-66765296D01*
X150353032Y-66753565D01*
X150399388Y-66749000D01*
X151050612Y-66749000D01*
X151096968Y-66753565D01*
X151096968Y-66753565D01*
G37*
G36*
X146776000Y-68176000D02*
G01*
X145424000Y-68176000D01*
X145424000Y-67174000D01*
X146776000Y-67174000D01*
X146776000Y-68176000D01*
X146776000Y-68176000D01*
G37*
G36*
X152996968Y-65928565D02*
G01*
X153035638Y-65940296D01*
X153071277Y-65959346D01*
X153102517Y-65984983D01*
X153128154Y-66016223D01*
X153147204Y-66051862D01*
X153158935Y-66090532D01*
X153163500Y-66136888D01*
X153163500Y-67213112D01*
X153158935Y-67259468D01*
X153147204Y-67298138D01*
X153128154Y-67333777D01*
X153102517Y-67365017D01*
X153071277Y-67390654D01*
X153035638Y-67409704D01*
X152996968Y-67421435D01*
X152950612Y-67426000D01*
X152299388Y-67426000D01*
X152253032Y-67421435D01*
X152214362Y-67409704D01*
X152178723Y-67390654D01*
X152147483Y-67365017D01*
X152121846Y-67333777D01*
X152102796Y-67298138D01*
X152091065Y-67259468D01*
X152086500Y-67213112D01*
X152086500Y-66136888D01*
X152091065Y-66090532D01*
X152102796Y-66051862D01*
X152121846Y-66016223D01*
X152147483Y-65984983D01*
X152178723Y-65959346D01*
X152214362Y-65940296D01*
X152253032Y-65928565D01*
X152299388Y-65924000D01*
X152950612Y-65924000D01*
X152996968Y-65928565D01*
X152996968Y-65928565D01*
G37*
G36*
X154871968Y-65928565D02*
G01*
X154910638Y-65940296D01*
X154946277Y-65959346D01*
X154977517Y-65984983D01*
X155003154Y-66016223D01*
X155022204Y-66051862D01*
X155033935Y-66090532D01*
X155038500Y-66136888D01*
X155038500Y-67213112D01*
X155033935Y-67259468D01*
X155022204Y-67298138D01*
X155003154Y-67333777D01*
X154977517Y-67365017D01*
X154946277Y-67390654D01*
X154910638Y-67409704D01*
X154871968Y-67421435D01*
X154825612Y-67426000D01*
X154174388Y-67426000D01*
X154128032Y-67421435D01*
X154089362Y-67409704D01*
X154053723Y-67390654D01*
X154022483Y-67365017D01*
X153996846Y-67333777D01*
X153977796Y-67298138D01*
X153966065Y-67259468D01*
X153961500Y-67213112D01*
X153961500Y-66136888D01*
X153966065Y-66090532D01*
X153977796Y-66051862D01*
X153996846Y-66016223D01*
X154022483Y-65984983D01*
X154053723Y-65959346D01*
X154089362Y-65940296D01*
X154128032Y-65928565D01*
X154174388Y-65924000D01*
X154825612Y-65924000D01*
X154871968Y-65928565D01*
X154871968Y-65928565D01*
G37*
G36*
X143326000Y-66576000D02*
G01*
X142324000Y-66576000D01*
X142324000Y-65674000D01*
X143326000Y-65674000D01*
X143326000Y-66576000D01*
X143326000Y-66576000D01*
G37*
G36*
X145626000Y-66566000D02*
G01*
X144624000Y-66566000D01*
X144624000Y-65664000D01*
X145626000Y-65664000D01*
X145626000Y-66566000D01*
X145626000Y-66566000D01*
G37*
G36*
X166596968Y-64478565D02*
G01*
X166635638Y-64490296D01*
X166671277Y-64509346D01*
X166702517Y-64534983D01*
X166728154Y-64566223D01*
X166747204Y-64601862D01*
X166758935Y-64640532D01*
X166763500Y-64686888D01*
X166763500Y-65763112D01*
X166758935Y-65809468D01*
X166747204Y-65848138D01*
X166728154Y-65883777D01*
X166702517Y-65915017D01*
X166671277Y-65940654D01*
X166635638Y-65959704D01*
X166596968Y-65971435D01*
X166550612Y-65976000D01*
X165899388Y-65976000D01*
X165853032Y-65971435D01*
X165814362Y-65959704D01*
X165778723Y-65940654D01*
X165747483Y-65915017D01*
X165721846Y-65883777D01*
X165702796Y-65848138D01*
X165691065Y-65809468D01*
X165686500Y-65763112D01*
X165686500Y-64686888D01*
X165691065Y-64640532D01*
X165702796Y-64601862D01*
X165721846Y-64566223D01*
X165747483Y-64534983D01*
X165778723Y-64509346D01*
X165814362Y-64490296D01*
X165853032Y-64478565D01*
X165899388Y-64474000D01*
X166550612Y-64474000D01*
X166596968Y-64478565D01*
X166596968Y-64478565D01*
G37*
G36*
X168471968Y-64478565D02*
G01*
X168510638Y-64490296D01*
X168546277Y-64509346D01*
X168577517Y-64534983D01*
X168603154Y-64566223D01*
X168622204Y-64601862D01*
X168633935Y-64640532D01*
X168638500Y-64686888D01*
X168638500Y-65763112D01*
X168633935Y-65809468D01*
X168622204Y-65848138D01*
X168603154Y-65883777D01*
X168577517Y-65915017D01*
X168546277Y-65940654D01*
X168510638Y-65959704D01*
X168471968Y-65971435D01*
X168425612Y-65976000D01*
X167774388Y-65976000D01*
X167728032Y-65971435D01*
X167689362Y-65959704D01*
X167653723Y-65940654D01*
X167622483Y-65915017D01*
X167596846Y-65883777D01*
X167577796Y-65848138D01*
X167566065Y-65809468D01*
X167561500Y-65763112D01*
X167561500Y-64686888D01*
X167566065Y-64640532D01*
X167577796Y-64601862D01*
X167596846Y-64566223D01*
X167622483Y-64534983D01*
X167653723Y-64509346D01*
X167689362Y-64490296D01*
X167728032Y-64478565D01*
X167774388Y-64474000D01*
X168425612Y-64474000D01*
X168471968Y-64478565D01*
X168471968Y-64478565D01*
G37*
G36*
X174260443Y-63445519D02*
G01*
X174326627Y-63452037D01*
X174496466Y-63503557D01*
X174652991Y-63587222D01*
X174688729Y-63616552D01*
X174790186Y-63699814D01*
X174852709Y-63776000D01*
X174902778Y-63837009D01*
X174986443Y-63993534D01*
X175037963Y-64163373D01*
X175055359Y-64340000D01*
X175037963Y-64516627D01*
X174986443Y-64686466D01*
X174986442Y-64686468D01*
X174984168Y-64690722D01*
X174902778Y-64842991D01*
X174873448Y-64878729D01*
X174790186Y-64980186D01*
X174688729Y-65063448D01*
X174652991Y-65092778D01*
X174652989Y-65092779D01*
X174501037Y-65174000D01*
X174496466Y-65176443D01*
X174326627Y-65227963D01*
X174260443Y-65234481D01*
X174194260Y-65241000D01*
X174105740Y-65241000D01*
X174039557Y-65234481D01*
X173973373Y-65227963D01*
X173803534Y-65176443D01*
X173798964Y-65174000D01*
X173647011Y-65092779D01*
X173647009Y-65092778D01*
X173611271Y-65063448D01*
X173509814Y-64980186D01*
X173426552Y-64878729D01*
X173397222Y-64842991D01*
X173315832Y-64690722D01*
X173313558Y-64686468D01*
X173313557Y-64686466D01*
X173262037Y-64516627D01*
X173244641Y-64340000D01*
X173262037Y-64163373D01*
X173313557Y-63993534D01*
X173397222Y-63837009D01*
X173447291Y-63776000D01*
X173509814Y-63699814D01*
X173611271Y-63616552D01*
X173647009Y-63587222D01*
X173803534Y-63503557D01*
X173973373Y-63452037D01*
X174039557Y-63445519D01*
X174105740Y-63439000D01*
X174194260Y-63439000D01*
X174260443Y-63445519D01*
X174260443Y-63445519D01*
G37*
G36*
X152701000Y-65051000D02*
G01*
X150199000Y-65051000D01*
X150199000Y-62949000D01*
X152701000Y-62949000D01*
X152701000Y-65051000D01*
X152701000Y-65051000D01*
G37*
G36*
X148546968Y-62928565D02*
G01*
X148585638Y-62940296D01*
X148621277Y-62959346D01*
X148652517Y-62984983D01*
X148678154Y-63016223D01*
X148697204Y-63051862D01*
X148708935Y-63090532D01*
X148713500Y-63136888D01*
X148713500Y-64213112D01*
X148708935Y-64259468D01*
X148697204Y-64298138D01*
X148678154Y-64333777D01*
X148652517Y-64365017D01*
X148621277Y-64390654D01*
X148585638Y-64409704D01*
X148546968Y-64421435D01*
X148500612Y-64426000D01*
X147849388Y-64426000D01*
X147803032Y-64421435D01*
X147764362Y-64409704D01*
X147728723Y-64390654D01*
X147697483Y-64365017D01*
X147671846Y-64333777D01*
X147652796Y-64298138D01*
X147641065Y-64259468D01*
X147636500Y-64213112D01*
X147636500Y-63136888D01*
X147641065Y-63090532D01*
X147652796Y-63051862D01*
X147671846Y-63016223D01*
X147697483Y-62984983D01*
X147728723Y-62959346D01*
X147764362Y-62940296D01*
X147803032Y-62928565D01*
X147849388Y-62924000D01*
X148500612Y-62924000D01*
X148546968Y-62928565D01*
X148546968Y-62928565D01*
G37*
G36*
X146671968Y-62928565D02*
G01*
X146710638Y-62940296D01*
X146746277Y-62959346D01*
X146777517Y-62984983D01*
X146803154Y-63016223D01*
X146822204Y-63051862D01*
X146833935Y-63090532D01*
X146838500Y-63136888D01*
X146838500Y-64213112D01*
X146833935Y-64259468D01*
X146822204Y-64298138D01*
X146803154Y-64333777D01*
X146777517Y-64365017D01*
X146746277Y-64390654D01*
X146710638Y-64409704D01*
X146671968Y-64421435D01*
X146625612Y-64426000D01*
X145974388Y-64426000D01*
X145928032Y-64421435D01*
X145889362Y-64409704D01*
X145853723Y-64390654D01*
X145822483Y-64365017D01*
X145796846Y-64333777D01*
X145777796Y-64298138D01*
X145766065Y-64259468D01*
X145761500Y-64213112D01*
X145761500Y-63136888D01*
X145766065Y-63090532D01*
X145777796Y-63051862D01*
X145796846Y-63016223D01*
X145822483Y-62984983D01*
X145853723Y-62959346D01*
X145889362Y-62940296D01*
X145928032Y-62928565D01*
X145974388Y-62924000D01*
X146625612Y-62924000D01*
X146671968Y-62928565D01*
X146671968Y-62928565D01*
G37*
G36*
X144551000Y-64116000D02*
G01*
X142749000Y-64116000D01*
X142749000Y-62314000D01*
X144551000Y-62314000D01*
X144551000Y-64116000D01*
X144551000Y-64116000D01*
G37*
G36*
X174260442Y-60905518D02*
G01*
X174326627Y-60912037D01*
X174496466Y-60963557D01*
X174496468Y-60963558D01*
X174506019Y-60968663D01*
X174652991Y-61047222D01*
X174670861Y-61061888D01*
X174790186Y-61159814D01*
X174873448Y-61261271D01*
X174902778Y-61297009D01*
X174986443Y-61453534D01*
X175037963Y-61623373D01*
X175055359Y-61800000D01*
X175037963Y-61976627D01*
X174986443Y-62146466D01*
X174902778Y-62302991D01*
X174880198Y-62330505D01*
X174790186Y-62440186D01*
X174688729Y-62523448D01*
X174652991Y-62552778D01*
X174496466Y-62636443D01*
X174326627Y-62687963D01*
X174260442Y-62694482D01*
X174194260Y-62701000D01*
X174105740Y-62701000D01*
X174039558Y-62694482D01*
X173973373Y-62687963D01*
X173803534Y-62636443D01*
X173647009Y-62552778D01*
X173611271Y-62523448D01*
X173509814Y-62440186D01*
X173419802Y-62330505D01*
X173397222Y-62302991D01*
X173313557Y-62146466D01*
X173262037Y-61976627D01*
X173244641Y-61800000D01*
X173262037Y-61623373D01*
X173313557Y-61453534D01*
X173397222Y-61297009D01*
X173426552Y-61261271D01*
X173509814Y-61159814D01*
X173629139Y-61061888D01*
X173647009Y-61047222D01*
X173793981Y-60968663D01*
X173803532Y-60963558D01*
X173803534Y-60963557D01*
X173973373Y-60912037D01*
X174039558Y-60905518D01*
X174105740Y-60899000D01*
X174194260Y-60899000D01*
X174260442Y-60905518D01*
X174260442Y-60905518D01*
G37*
G36*
X168471968Y-60853565D02*
G01*
X168510638Y-60865296D01*
X168546277Y-60884346D01*
X168577517Y-60909983D01*
X168603154Y-60941223D01*
X168622204Y-60976862D01*
X168633935Y-61015532D01*
X168638500Y-61061888D01*
X168638500Y-62138112D01*
X168633935Y-62184468D01*
X168622204Y-62223138D01*
X168603154Y-62258777D01*
X168577517Y-62290017D01*
X168546277Y-62315654D01*
X168510638Y-62334704D01*
X168471968Y-62346435D01*
X168425612Y-62351000D01*
X167774388Y-62351000D01*
X167728032Y-62346435D01*
X167689362Y-62334704D01*
X167653723Y-62315654D01*
X167622483Y-62290017D01*
X167596846Y-62258777D01*
X167577796Y-62223138D01*
X167566065Y-62184468D01*
X167561500Y-62138112D01*
X167561500Y-61061888D01*
X167566065Y-61015532D01*
X167577796Y-60976862D01*
X167596846Y-60941223D01*
X167622483Y-60909983D01*
X167653723Y-60884346D01*
X167689362Y-60865296D01*
X167728032Y-60853565D01*
X167774388Y-60849000D01*
X168425612Y-60849000D01*
X168471968Y-60853565D01*
X168471968Y-60853565D01*
G37*
G36*
X166596968Y-60853565D02*
G01*
X166635638Y-60865296D01*
X166671277Y-60884346D01*
X166702517Y-60909983D01*
X166728154Y-60941223D01*
X166747204Y-60976862D01*
X166758935Y-61015532D01*
X166763500Y-61061888D01*
X166763500Y-62138112D01*
X166758935Y-62184468D01*
X166747204Y-62223138D01*
X166728154Y-62258777D01*
X166702517Y-62290017D01*
X166671277Y-62315654D01*
X166635638Y-62334704D01*
X166596968Y-62346435D01*
X166550612Y-62351000D01*
X165899388Y-62351000D01*
X165853032Y-62346435D01*
X165814362Y-62334704D01*
X165778723Y-62315654D01*
X165747483Y-62290017D01*
X165721846Y-62258777D01*
X165702796Y-62223138D01*
X165691065Y-62184468D01*
X165686500Y-62138112D01*
X165686500Y-61061888D01*
X165691065Y-61015532D01*
X165702796Y-60976862D01*
X165721846Y-60941223D01*
X165747483Y-60909983D01*
X165778723Y-60884346D01*
X165814362Y-60865296D01*
X165853032Y-60853565D01*
X165899388Y-60849000D01*
X166550612Y-60849000D01*
X166596968Y-60853565D01*
X166596968Y-60853565D01*
G37*
G36*
X143760442Y-59780518D02*
G01*
X143826627Y-59787037D01*
X143996466Y-59838557D01*
X144152991Y-59922222D01*
X144188729Y-59951552D01*
X144290186Y-60034814D01*
X144373448Y-60136271D01*
X144402778Y-60172009D01*
X144486443Y-60328534D01*
X144537963Y-60498373D01*
X144555359Y-60675000D01*
X144537963Y-60851627D01*
X144490011Y-61009704D01*
X144486442Y-61021468D01*
X144444610Y-61099729D01*
X144402778Y-61177991D01*
X144373448Y-61213729D01*
X144290186Y-61315186D01*
X144188729Y-61398448D01*
X144152991Y-61427778D01*
X143996466Y-61511443D01*
X143826627Y-61562963D01*
X143760443Y-61569481D01*
X143694260Y-61576000D01*
X143605740Y-61576000D01*
X143539557Y-61569481D01*
X143473373Y-61562963D01*
X143303534Y-61511443D01*
X143147009Y-61427778D01*
X143111271Y-61398448D01*
X143009814Y-61315186D01*
X142926552Y-61213729D01*
X142897222Y-61177991D01*
X142855390Y-61099729D01*
X142813558Y-61021468D01*
X142809989Y-61009704D01*
X142762037Y-60851627D01*
X142744641Y-60675000D01*
X142762037Y-60498373D01*
X142813557Y-60328534D01*
X142897222Y-60172009D01*
X142926552Y-60136271D01*
X143009814Y-60034814D01*
X143111271Y-59951552D01*
X143147009Y-59922222D01*
X143303534Y-59838557D01*
X143473373Y-59787037D01*
X143539558Y-59780518D01*
X143605740Y-59774000D01*
X143694260Y-59774000D01*
X143760442Y-59780518D01*
X143760442Y-59780518D01*
G37*
G36*
X152701000Y-61351000D02*
G01*
X150199000Y-61351000D01*
X150199000Y-59249000D01*
X152701000Y-59249000D01*
X152701000Y-61351000D01*
X152701000Y-61351000D01*
G37*
G36*
X148546968Y-59528565D02*
G01*
X148585638Y-59540296D01*
X148621277Y-59559346D01*
X148652517Y-59584983D01*
X148678154Y-59616223D01*
X148697204Y-59651862D01*
X148708935Y-59690532D01*
X148713500Y-59736888D01*
X148713500Y-60813112D01*
X148708935Y-60859468D01*
X148697204Y-60898138D01*
X148678154Y-60933777D01*
X148652517Y-60965017D01*
X148621277Y-60990654D01*
X148585638Y-61009704D01*
X148546968Y-61021435D01*
X148500612Y-61026000D01*
X147849388Y-61026000D01*
X147803032Y-61021435D01*
X147764362Y-61009704D01*
X147728723Y-60990654D01*
X147697483Y-60965017D01*
X147671846Y-60933777D01*
X147652796Y-60898138D01*
X147641065Y-60859468D01*
X147636500Y-60813112D01*
X147636500Y-59736888D01*
X147641065Y-59690532D01*
X147652796Y-59651862D01*
X147671846Y-59616223D01*
X147697483Y-59584983D01*
X147728723Y-59559346D01*
X147764362Y-59540296D01*
X147803032Y-59528565D01*
X147849388Y-59524000D01*
X148500612Y-59524000D01*
X148546968Y-59528565D01*
X148546968Y-59528565D01*
G37*
G36*
X146671968Y-59528565D02*
G01*
X146710638Y-59540296D01*
X146746277Y-59559346D01*
X146777517Y-59584983D01*
X146803154Y-59616223D01*
X146822204Y-59651862D01*
X146833935Y-59690532D01*
X146838500Y-59736888D01*
X146838500Y-60813112D01*
X146833935Y-60859468D01*
X146822204Y-60898138D01*
X146803154Y-60933777D01*
X146777517Y-60965017D01*
X146746277Y-60990654D01*
X146710638Y-61009704D01*
X146671968Y-61021435D01*
X146625612Y-61026000D01*
X145974388Y-61026000D01*
X145928032Y-61021435D01*
X145889362Y-61009704D01*
X145853723Y-60990654D01*
X145822483Y-60965017D01*
X145796846Y-60933777D01*
X145777796Y-60898138D01*
X145766065Y-60859468D01*
X145761500Y-60813112D01*
X145761500Y-59736888D01*
X145766065Y-59690532D01*
X145777796Y-59651862D01*
X145796846Y-59616223D01*
X145822483Y-59584983D01*
X145853723Y-59559346D01*
X145889362Y-59540296D01*
X145928032Y-59528565D01*
X145974388Y-59524000D01*
X146625612Y-59524000D01*
X146671968Y-59528565D01*
X146671968Y-59528565D01*
G37*
G36*
X174260442Y-58365518D02*
G01*
X174326627Y-58372037D01*
X174496466Y-58423557D01*
X174652991Y-58507222D01*
X174688729Y-58536552D01*
X174790186Y-58619814D01*
X174873448Y-58721271D01*
X174902778Y-58757009D01*
X174986443Y-58913534D01*
X175037963Y-59083373D01*
X175055359Y-59260000D01*
X175037963Y-59436627D01*
X174986443Y-59606466D01*
X174902778Y-59762991D01*
X174893743Y-59774000D01*
X174790186Y-59900186D01*
X174688729Y-59983448D01*
X174652991Y-60012778D01*
X174496466Y-60096443D01*
X174326627Y-60147963D01*
X174260442Y-60154482D01*
X174194260Y-60161000D01*
X174105740Y-60161000D01*
X174039558Y-60154482D01*
X173973373Y-60147963D01*
X173803534Y-60096443D01*
X173647009Y-60012778D01*
X173611271Y-59983448D01*
X173509814Y-59900186D01*
X173406257Y-59774000D01*
X173397222Y-59762991D01*
X173313557Y-59606466D01*
X173262037Y-59436627D01*
X173244641Y-59260000D01*
X173262037Y-59083373D01*
X173313557Y-58913534D01*
X173397222Y-58757009D01*
X173426552Y-58721271D01*
X173509814Y-58619814D01*
X173611271Y-58536552D01*
X173647009Y-58507222D01*
X173803534Y-58423557D01*
X173973373Y-58372037D01*
X174039558Y-58365518D01*
X174105740Y-58359000D01*
X174194260Y-58359000D01*
X174260442Y-58365518D01*
X174260442Y-58365518D01*
G37*
G36*
X158301000Y-58401000D02*
G01*
X155399000Y-58401000D01*
X155399000Y-57299000D01*
X158301000Y-57299000D01*
X158301000Y-58401000D01*
X158301000Y-58401000D01*
G37*
G36*
X164101000Y-58401000D02*
G01*
X161199000Y-58401000D01*
X161199000Y-57299000D01*
X164101000Y-57299000D01*
X164101000Y-58401000D01*
X164101000Y-58401000D01*
G37*
G36*
X175051000Y-57621000D02*
G01*
X173249000Y-57621000D01*
X173249000Y-55819000D01*
X175051000Y-55819000D01*
X175051000Y-57621000D01*
X175051000Y-57621000D01*
G37*
G36*
X164101000Y-54401000D02*
G01*
X161199000Y-54401000D01*
X161199000Y-53299000D01*
X164101000Y-53299000D01*
X164101000Y-54401000D01*
X164101000Y-54401000D01*
G37*
G36*
X158301000Y-54401000D02*
G01*
X155399000Y-54401000D01*
X155399000Y-53299000D01*
X158301000Y-53299000D01*
X158301000Y-54401000D01*
X158301000Y-54401000D01*
G37*
G36*
X175501000Y-50601000D02*
G01*
X170899000Y-50601000D01*
X170899000Y-44999000D01*
X175501000Y-44999000D01*
X175501000Y-50601000D01*
X175501000Y-50601000D01*
G37*
G36*
X145201000Y-50601000D02*
G01*
X140599000Y-50601000D01*
X140599000Y-44999000D01*
X145201000Y-44999000D01*
X145201000Y-50601000D01*
X145201000Y-50601000D01*
G37*
G36*
X132526000Y-49576000D02*
G01*
X126924000Y-49576000D01*
X126924000Y-45974000D01*
X132526000Y-45974000D01*
X132526000Y-49576000D01*
X132526000Y-49576000D01*
G37*
G36*
X189126000Y-49576000D02*
G01*
X183524000Y-49576000D01*
X183524000Y-45974000D01*
X189126000Y-45974000D01*
X189126000Y-49576000D01*
X189126000Y-49576000D01*
G37*
G36*
X126476000Y-45051000D02*
G01*
X125474000Y-45051000D01*
X125474000Y-44149000D01*
X126476000Y-44149000D01*
X126476000Y-45051000D01*
X126476000Y-45051000D01*
G37*
G36*
X124176000Y-45051000D02*
G01*
X123174000Y-45051000D01*
X123174000Y-44149000D01*
X124176000Y-44149000D01*
X124176000Y-45051000D01*
X124176000Y-45051000D01*
G37*
G36*
X156319672Y-41638449D02*
G01*
X156319674Y-41638450D01*
X156319675Y-41638450D01*
X156388103Y-41666793D01*
X156449686Y-41707942D01*
X156502058Y-41760314D01*
X156543207Y-41821897D01*
X156567089Y-41879555D01*
X156571551Y-41890328D01*
X156586000Y-41962966D01*
X156586000Y-42037034D01*
X156573674Y-42099000D01*
X156571550Y-42109675D01*
X156543207Y-42178103D01*
X156502058Y-42239686D01*
X156498859Y-42244473D01*
X156490585Y-42254555D01*
X156479034Y-42276166D01*
X156471921Y-42299615D01*
X156469519Y-42324001D01*
X156471921Y-42348387D01*
X156479034Y-42371836D01*
X156490585Y-42393447D01*
X156506130Y-42412389D01*
X156525072Y-42427934D01*
X156546683Y-42439485D01*
X156570132Y-42446598D01*
X156594518Y-42449000D01*
X161605482Y-42449000D01*
X161629868Y-42446598D01*
X161653317Y-42439485D01*
X161674928Y-42427934D01*
X161693870Y-42412389D01*
X161709415Y-42393447D01*
X161720966Y-42371836D01*
X161728079Y-42348387D01*
X161730481Y-42324001D01*
X161728079Y-42299615D01*
X161720966Y-42276166D01*
X161709415Y-42254555D01*
X161701141Y-42244473D01*
X161697942Y-42239686D01*
X161656793Y-42178103D01*
X161628450Y-42109675D01*
X161626327Y-42099000D01*
X161614000Y-42037034D01*
X161614000Y-41962966D01*
X161628449Y-41890328D01*
X161632911Y-41879555D01*
X161656793Y-41821897D01*
X161697942Y-41760314D01*
X161750314Y-41707942D01*
X161811897Y-41666793D01*
X161880325Y-41638450D01*
X161880326Y-41638450D01*
X161880328Y-41638449D01*
X161952966Y-41624000D01*
X162027034Y-41624000D01*
X162099672Y-41638449D01*
X162099674Y-41638450D01*
X162099675Y-41638450D01*
X162168103Y-41666793D01*
X162229686Y-41707942D01*
X162282058Y-41760314D01*
X162323207Y-41821897D01*
X162347089Y-41879555D01*
X162351551Y-41890328D01*
X162366000Y-41962966D01*
X162366000Y-42037034D01*
X162353674Y-42099000D01*
X162351550Y-42109675D01*
X162323207Y-42178103D01*
X162282058Y-42239686D01*
X162278859Y-42244473D01*
X162270585Y-42254555D01*
X162259034Y-42276166D01*
X162251921Y-42299615D01*
X162249519Y-42324001D01*
X162251921Y-42348387D01*
X162259034Y-42371836D01*
X162270585Y-42393447D01*
X162286130Y-42412389D01*
X162305072Y-42427934D01*
X162326683Y-42439485D01*
X162350132Y-42446598D01*
X162374518Y-42449000D01*
X162601000Y-42449000D01*
X162601000Y-43951000D01*
X155599000Y-43951000D01*
X155599000Y-42449000D01*
X155825482Y-42449000D01*
X155849868Y-42446598D01*
X155873317Y-42439485D01*
X155894928Y-42427934D01*
X155913870Y-42412389D01*
X155929415Y-42393447D01*
X155940966Y-42371836D01*
X155948079Y-42348387D01*
X155950481Y-42324001D01*
X155948079Y-42299615D01*
X155940966Y-42276166D01*
X155929415Y-42254555D01*
X155921141Y-42244473D01*
X155917942Y-42239686D01*
X155876793Y-42178103D01*
X155848450Y-42109675D01*
X155846327Y-42099000D01*
X155834000Y-42037034D01*
X155834000Y-41962966D01*
X155848449Y-41890328D01*
X155852911Y-41879555D01*
X155876793Y-41821897D01*
X155917942Y-41760314D01*
X155970314Y-41707942D01*
X156031897Y-41666793D01*
X156100325Y-41638450D01*
X156100326Y-41638450D01*
X156100328Y-41638449D01*
X156172966Y-41624000D01*
X156247034Y-41624000D01*
X156319672Y-41638449D01*
X156319672Y-41638449D01*
G37*
G36*
X151709928Y-43101764D02*
G01*
X151731009Y-43108160D01*
X151750445Y-43118548D01*
X151767476Y-43132524D01*
X151781452Y-43149555D01*
X151791840Y-43168991D01*
X151798236Y-43190072D01*
X151801000Y-43218140D01*
X151801000Y-43681860D01*
X151798236Y-43709928D01*
X151791840Y-43731009D01*
X151781452Y-43750445D01*
X151767476Y-43767476D01*
X151750445Y-43781452D01*
X151731009Y-43791840D01*
X151709928Y-43798236D01*
X151681860Y-43801000D01*
X150218140Y-43801000D01*
X150190072Y-43798236D01*
X150168991Y-43791840D01*
X150149555Y-43781452D01*
X150132524Y-43767476D01*
X150118548Y-43750445D01*
X150108160Y-43731009D01*
X150101764Y-43709928D01*
X150099000Y-43681860D01*
X150099000Y-43218140D01*
X150101764Y-43190072D01*
X150108160Y-43168991D01*
X150118548Y-43149555D01*
X150132524Y-43132524D01*
X150149555Y-43118548D01*
X150168991Y-43108160D01*
X150190072Y-43101764D01*
X150218140Y-43099000D01*
X151681860Y-43099000D01*
X151709928Y-43101764D01*
X151709928Y-43101764D01*
G37*
G36*
X146409928Y-43101764D02*
G01*
X146431009Y-43108160D01*
X146450445Y-43118548D01*
X146467476Y-43132524D01*
X146481452Y-43149555D01*
X146491840Y-43168991D01*
X146498236Y-43190072D01*
X146501000Y-43218140D01*
X146501000Y-43681860D01*
X146498236Y-43709928D01*
X146491840Y-43731009D01*
X146481452Y-43750445D01*
X146467476Y-43767476D01*
X146450445Y-43781452D01*
X146431009Y-43791840D01*
X146409928Y-43798236D01*
X146381860Y-43801000D01*
X144918140Y-43801000D01*
X144890072Y-43798236D01*
X144868991Y-43791840D01*
X144849555Y-43781452D01*
X144832524Y-43767476D01*
X144818548Y-43750445D01*
X144808160Y-43731009D01*
X144801764Y-43709928D01*
X144799000Y-43681860D01*
X144799000Y-43218140D01*
X144801764Y-43190072D01*
X144808160Y-43168991D01*
X144818548Y-43149555D01*
X144832524Y-43132524D01*
X144849555Y-43118548D01*
X144868991Y-43108160D01*
X144890072Y-43101764D01*
X144918140Y-43099000D01*
X146381860Y-43099000D01*
X146409928Y-43101764D01*
X146409928Y-43101764D01*
G37*
G36*
X142101000Y-43701000D02*
G01*
X139999000Y-43701000D01*
X139999000Y-42099000D01*
X142101000Y-42099000D01*
X142101000Y-43701000D01*
X142101000Y-43701000D01*
G37*
G36*
X154888015Y-41406973D02*
G01*
X154991879Y-41438479D01*
X155019055Y-41453005D01*
X155087600Y-41489643D01*
X155171501Y-41558499D01*
X155240357Y-41642400D01*
X155275390Y-41707942D01*
X155291521Y-41738121D01*
X155323027Y-41841985D01*
X155331000Y-41922933D01*
X155331000Y-43077067D01*
X155323027Y-43158015D01*
X155291521Y-43261879D01*
X155240356Y-43357600D01*
X155171501Y-43441501D01*
X155102645Y-43498009D01*
X155087599Y-43510357D01*
X155035907Y-43537987D01*
X154991878Y-43561521D01*
X154888014Y-43593027D01*
X154780000Y-43603666D01*
X154671985Y-43593027D01*
X154568121Y-43561521D01*
X154524093Y-43537987D01*
X154472401Y-43510357D01*
X154459643Y-43499887D01*
X154388499Y-43441501D01*
X154319644Y-43357600D01*
X154268479Y-43261878D01*
X154236973Y-43158014D01*
X154229000Y-43077066D01*
X154229001Y-41922933D01*
X154236974Y-41841985D01*
X154268480Y-41738121D01*
X154284611Y-41707942D01*
X154319644Y-41642400D01*
X154388500Y-41558499D01*
X154472401Y-41489643D01*
X154540946Y-41453005D01*
X154568122Y-41438479D01*
X154671986Y-41406973D01*
X154780000Y-41396334D01*
X154888015Y-41406973D01*
X154888015Y-41406973D01*
G37*
G36*
X163528015Y-41406973D02*
G01*
X163631879Y-41438479D01*
X163659055Y-41453005D01*
X163727600Y-41489643D01*
X163811501Y-41558499D01*
X163880357Y-41642400D01*
X163915390Y-41707942D01*
X163931521Y-41738121D01*
X163963027Y-41841985D01*
X163971000Y-41922933D01*
X163971000Y-43077067D01*
X163963027Y-43158015D01*
X163931521Y-43261879D01*
X163880356Y-43357600D01*
X163811501Y-43441501D01*
X163742645Y-43498009D01*
X163727599Y-43510357D01*
X163675907Y-43537987D01*
X163631878Y-43561521D01*
X163528014Y-43593027D01*
X163420000Y-43603666D01*
X163311985Y-43593027D01*
X163208121Y-43561521D01*
X163164093Y-43537987D01*
X163112401Y-43510357D01*
X163099643Y-43499887D01*
X163028499Y-43441501D01*
X162959644Y-43357600D01*
X162908479Y-43261878D01*
X162876973Y-43158014D01*
X162869000Y-43077066D01*
X162869001Y-41922933D01*
X162876974Y-41841985D01*
X162908480Y-41738121D01*
X162924611Y-41707942D01*
X162959644Y-41642400D01*
X163028500Y-41558499D01*
X163112401Y-41489643D01*
X163180946Y-41453005D01*
X163208122Y-41438479D01*
X163311986Y-41406973D01*
X163420000Y-41396334D01*
X163528015Y-41406973D01*
X163528015Y-41406973D01*
G37*
G36*
X127626000Y-43551000D02*
G01*
X126274000Y-43551000D01*
X126274000Y-42549000D01*
X127626000Y-42549000D01*
X127626000Y-43551000D01*
X127626000Y-43551000D01*
G37*
G36*
X149425877Y-39947696D02*
G01*
X149456062Y-39956853D01*
X149483883Y-39971723D01*
X149508266Y-39991734D01*
X149528277Y-40016117D01*
X149543147Y-40043938D01*
X149552304Y-40074123D01*
X149556000Y-40111652D01*
X149556000Y-42978348D01*
X149552304Y-43015877D01*
X149543147Y-43046062D01*
X149528277Y-43073883D01*
X149508266Y-43098266D01*
X149483883Y-43118277D01*
X149456062Y-43133147D01*
X149425877Y-43142304D01*
X149388348Y-43146000D01*
X147211652Y-43146000D01*
X147174123Y-43142304D01*
X147143938Y-43133147D01*
X147116117Y-43118277D01*
X147091734Y-43098266D01*
X147071723Y-43073883D01*
X147056853Y-43046062D01*
X147047696Y-43015877D01*
X147044000Y-42978348D01*
X147044000Y-40111652D01*
X147047696Y-40074123D01*
X147056853Y-40043938D01*
X147071723Y-40016117D01*
X147091734Y-39991734D01*
X147116117Y-39971723D01*
X147143938Y-39956853D01*
X147174123Y-39947696D01*
X147211652Y-39944000D01*
X149388348Y-39944000D01*
X149425877Y-39947696D01*
X149425877Y-39947696D01*
G37*
G36*
X130821968Y-41353565D02*
G01*
X130860638Y-41365296D01*
X130896277Y-41384346D01*
X130927517Y-41409983D01*
X130953154Y-41441223D01*
X130972204Y-41476862D01*
X130983935Y-41515532D01*
X130988500Y-41561888D01*
X130988500Y-42638112D01*
X130983935Y-42684468D01*
X130972204Y-42723138D01*
X130953154Y-42758777D01*
X130927517Y-42790017D01*
X130896277Y-42815654D01*
X130860638Y-42834704D01*
X130821968Y-42846435D01*
X130775612Y-42851000D01*
X130124388Y-42851000D01*
X130078032Y-42846435D01*
X130039362Y-42834704D01*
X130003723Y-42815654D01*
X129972483Y-42790017D01*
X129946846Y-42758777D01*
X129927796Y-42723138D01*
X129916065Y-42684468D01*
X129911500Y-42638112D01*
X129911500Y-41561888D01*
X129916065Y-41515532D01*
X129927796Y-41476862D01*
X129946846Y-41441223D01*
X129972483Y-41409983D01*
X130003723Y-41384346D01*
X130039362Y-41365296D01*
X130078032Y-41353565D01*
X130124388Y-41349000D01*
X130775612Y-41349000D01*
X130821968Y-41353565D01*
X130821968Y-41353565D01*
G37*
G36*
X132696968Y-41353565D02*
G01*
X132735638Y-41365296D01*
X132771277Y-41384346D01*
X132802517Y-41409983D01*
X132828154Y-41441223D01*
X132847204Y-41476862D01*
X132858935Y-41515532D01*
X132863500Y-41561888D01*
X132863500Y-42638112D01*
X132858935Y-42684468D01*
X132847204Y-42723138D01*
X132828154Y-42758777D01*
X132802517Y-42790017D01*
X132771277Y-42815654D01*
X132735638Y-42834704D01*
X132696968Y-42846435D01*
X132650612Y-42851000D01*
X131999388Y-42851000D01*
X131953032Y-42846435D01*
X131914362Y-42834704D01*
X131878723Y-42815654D01*
X131847483Y-42790017D01*
X131821846Y-42758777D01*
X131802796Y-42723138D01*
X131791065Y-42684468D01*
X131786500Y-42638112D01*
X131786500Y-41561888D01*
X131791065Y-41515532D01*
X131802796Y-41476862D01*
X131821846Y-41441223D01*
X131847483Y-41409983D01*
X131878723Y-41384346D01*
X131914362Y-41365296D01*
X131953032Y-41353565D01*
X131999388Y-41349000D01*
X132650612Y-41349000D01*
X132696968Y-41353565D01*
X132696968Y-41353565D01*
G37*
G36*
X124922740Y-41808626D02*
G01*
X124971136Y-41818253D01*
X124997081Y-41829000D01*
X125062311Y-41856019D01*
X125062312Y-41856020D01*
X125144369Y-41910848D01*
X125214152Y-41980631D01*
X125233420Y-42009468D01*
X125268981Y-42062689D01*
X125284021Y-42099000D01*
X125306747Y-42153864D01*
X125326000Y-42250656D01*
X125326000Y-42349344D01*
X125306747Y-42446136D01*
X125300586Y-42461009D01*
X125268981Y-42537311D01*
X125259834Y-42551000D01*
X125214152Y-42619369D01*
X125144369Y-42689152D01*
X125103062Y-42716752D01*
X125062311Y-42743981D01*
X125026590Y-42758777D01*
X124971136Y-42781747D01*
X124922740Y-42791374D01*
X124874345Y-42801000D01*
X124775655Y-42801000D01*
X124727260Y-42791374D01*
X124678864Y-42781747D01*
X124623410Y-42758777D01*
X124587689Y-42743981D01*
X124546938Y-42716752D01*
X124505631Y-42689152D01*
X124435848Y-42619369D01*
X124390166Y-42551000D01*
X124381019Y-42537311D01*
X124349414Y-42461009D01*
X124343253Y-42446136D01*
X124324000Y-42349344D01*
X124324000Y-42250656D01*
X124343253Y-42153864D01*
X124365979Y-42099000D01*
X124381019Y-42062689D01*
X124416580Y-42009468D01*
X124435848Y-41980631D01*
X124505631Y-41910848D01*
X124587688Y-41856020D01*
X124587689Y-41856019D01*
X124652919Y-41829000D01*
X124678864Y-41818253D01*
X124727260Y-41808626D01*
X124775655Y-41799000D01*
X124874345Y-41799000D01*
X124922740Y-41808626D01*
X124922740Y-41808626D01*
G37*
G36*
X135801000Y-42551000D02*
G01*
X133699000Y-42551000D01*
X133699000Y-38649000D01*
X135801000Y-38649000D01*
X135801000Y-42551000D01*
X135801000Y-42551000D01*
G37*
G36*
X151709928Y-41831764D02*
G01*
X151731009Y-41838160D01*
X151750445Y-41848548D01*
X151767476Y-41862524D01*
X151781452Y-41879555D01*
X151791840Y-41898991D01*
X151798236Y-41920072D01*
X151801000Y-41948140D01*
X151801000Y-42411860D01*
X151798236Y-42439928D01*
X151791840Y-42461009D01*
X151781452Y-42480445D01*
X151767476Y-42497476D01*
X151750445Y-42511452D01*
X151731009Y-42521840D01*
X151709928Y-42528236D01*
X151681860Y-42531000D01*
X150218140Y-42531000D01*
X150190072Y-42528236D01*
X150168991Y-42521840D01*
X150149555Y-42511452D01*
X150132524Y-42497476D01*
X150118548Y-42480445D01*
X150108160Y-42461009D01*
X150101764Y-42439928D01*
X150099000Y-42411860D01*
X150099000Y-41948140D01*
X150101764Y-41920072D01*
X150108160Y-41898991D01*
X150118548Y-41879555D01*
X150132524Y-41862524D01*
X150149555Y-41848548D01*
X150168991Y-41838160D01*
X150190072Y-41831764D01*
X150218140Y-41829000D01*
X151681860Y-41829000D01*
X151709928Y-41831764D01*
X151709928Y-41831764D01*
G37*
G36*
X146409928Y-41831764D02*
G01*
X146431009Y-41838160D01*
X146450445Y-41848548D01*
X146467476Y-41862524D01*
X146481452Y-41879555D01*
X146491840Y-41898991D01*
X146498236Y-41920072D01*
X146501000Y-41948140D01*
X146501000Y-42411860D01*
X146498236Y-42439928D01*
X146491840Y-42461009D01*
X146481452Y-42480445D01*
X146467476Y-42497476D01*
X146450445Y-42511452D01*
X146431009Y-42521840D01*
X146409928Y-42528236D01*
X146381860Y-42531000D01*
X144918140Y-42531000D01*
X144890072Y-42528236D01*
X144868991Y-42521840D01*
X144849555Y-42511452D01*
X144832524Y-42497476D01*
X144818548Y-42480445D01*
X144808160Y-42461009D01*
X144801764Y-42439928D01*
X144799000Y-42411860D01*
X144799000Y-41948140D01*
X144801764Y-41920072D01*
X144808160Y-41898991D01*
X144818548Y-41879555D01*
X144832524Y-41862524D01*
X144849555Y-41848548D01*
X144868991Y-41838160D01*
X144890072Y-41831764D01*
X144918140Y-41829000D01*
X146381860Y-41829000D01*
X146409928Y-41831764D01*
X146409928Y-41831764D01*
G37*
G36*
X171509468Y-40678565D02*
G01*
X171548138Y-40690296D01*
X171583777Y-40709346D01*
X171615017Y-40734983D01*
X171640654Y-40766223D01*
X171659704Y-40801862D01*
X171671435Y-40840532D01*
X171676000Y-40886888D01*
X171676000Y-41963112D01*
X171671435Y-42009468D01*
X171659704Y-42048138D01*
X171640654Y-42083777D01*
X171615017Y-42115017D01*
X171583777Y-42140654D01*
X171548138Y-42159704D01*
X171509468Y-42171435D01*
X171463112Y-42176000D01*
X170811888Y-42176000D01*
X170765532Y-42171435D01*
X170726862Y-42159704D01*
X170691223Y-42140654D01*
X170659983Y-42115017D01*
X170634346Y-42083777D01*
X170615296Y-42048138D01*
X170603565Y-42009468D01*
X170599000Y-41963112D01*
X170599000Y-40886888D01*
X170603565Y-40840532D01*
X170615296Y-40801862D01*
X170634346Y-40766223D01*
X170659983Y-40734983D01*
X170691223Y-40709346D01*
X170726862Y-40690296D01*
X170765532Y-40678565D01*
X170811888Y-40674000D01*
X171463112Y-40674000D01*
X171509468Y-40678565D01*
X171509468Y-40678565D01*
G37*
G36*
X173384468Y-40678565D02*
G01*
X173423138Y-40690296D01*
X173458777Y-40709346D01*
X173490017Y-40734983D01*
X173515654Y-40766223D01*
X173534704Y-40801862D01*
X173546435Y-40840532D01*
X173551000Y-40886888D01*
X173551000Y-41963112D01*
X173546435Y-42009468D01*
X173534704Y-42048138D01*
X173515654Y-42083777D01*
X173490017Y-42115017D01*
X173458777Y-42140654D01*
X173423138Y-42159704D01*
X173384468Y-42171435D01*
X173338112Y-42176000D01*
X172686888Y-42176000D01*
X172640532Y-42171435D01*
X172601862Y-42159704D01*
X172566223Y-42140654D01*
X172534983Y-42115017D01*
X172509346Y-42083777D01*
X172490296Y-42048138D01*
X172478565Y-42009468D01*
X172474000Y-41963112D01*
X172474000Y-40886888D01*
X172478565Y-40840532D01*
X172490296Y-40801862D01*
X172509346Y-40766223D01*
X172534983Y-40734983D01*
X172566223Y-40709346D01*
X172601862Y-40690296D01*
X172640532Y-40678565D01*
X172686888Y-40674000D01*
X173338112Y-40674000D01*
X173384468Y-40678565D01*
X173384468Y-40678565D01*
G37*
G36*
X169096968Y-40653565D02*
G01*
X169135638Y-40665296D01*
X169171277Y-40684346D01*
X169202517Y-40709983D01*
X169228154Y-40741223D01*
X169247204Y-40776862D01*
X169258935Y-40815532D01*
X169263500Y-40861888D01*
X169263500Y-41938112D01*
X169258935Y-41984468D01*
X169247204Y-42023138D01*
X169228154Y-42058777D01*
X169202517Y-42090017D01*
X169171277Y-42115654D01*
X169135638Y-42134704D01*
X169096968Y-42146435D01*
X169050612Y-42151000D01*
X168399388Y-42151000D01*
X168353032Y-42146435D01*
X168314362Y-42134704D01*
X168278723Y-42115654D01*
X168247483Y-42090017D01*
X168221846Y-42058777D01*
X168202796Y-42023138D01*
X168191065Y-41984468D01*
X168186500Y-41938112D01*
X168186500Y-40861888D01*
X168191065Y-40815532D01*
X168202796Y-40776862D01*
X168221846Y-40741223D01*
X168247483Y-40709983D01*
X168278723Y-40684346D01*
X168314362Y-40665296D01*
X168353032Y-40653565D01*
X168399388Y-40649000D01*
X169050612Y-40649000D01*
X169096968Y-40653565D01*
X169096968Y-40653565D01*
G37*
G36*
X167221968Y-40653565D02*
G01*
X167260638Y-40665296D01*
X167296277Y-40684346D01*
X167327517Y-40709983D01*
X167353154Y-40741223D01*
X167372204Y-40776862D01*
X167383935Y-40815532D01*
X167388500Y-40861888D01*
X167388500Y-41938112D01*
X167383935Y-41984468D01*
X167372204Y-42023138D01*
X167353154Y-42058777D01*
X167327517Y-42090017D01*
X167296277Y-42115654D01*
X167260638Y-42134704D01*
X167221968Y-42146435D01*
X167175612Y-42151000D01*
X166524388Y-42151000D01*
X166478032Y-42146435D01*
X166439362Y-42134704D01*
X166403723Y-42115654D01*
X166372483Y-42090017D01*
X166346846Y-42058777D01*
X166327796Y-42023138D01*
X166316065Y-41984468D01*
X166311500Y-41938112D01*
X166311500Y-40861888D01*
X166316065Y-40815532D01*
X166327796Y-40776862D01*
X166346846Y-40741223D01*
X166372483Y-40709983D01*
X166403723Y-40684346D01*
X166439362Y-40665296D01*
X166478032Y-40653565D01*
X166524388Y-40649000D01*
X167175612Y-40649000D01*
X167221968Y-40653565D01*
X167221968Y-40653565D01*
G37*
G36*
X127626000Y-42051000D02*
G01*
X126274000Y-42051000D01*
X126274000Y-41049000D01*
X127626000Y-41049000D01*
X127626000Y-42051000D01*
X127626000Y-42051000D01*
G37*
G36*
X142101000Y-41401000D02*
G01*
X139999000Y-41401000D01*
X139999000Y-39799000D01*
X142101000Y-39799000D01*
X142101000Y-41401000D01*
X142101000Y-41401000D01*
G37*
G36*
X151709928Y-40561764D02*
G01*
X151731009Y-40568160D01*
X151750445Y-40578548D01*
X151767476Y-40592524D01*
X151781452Y-40609555D01*
X151791840Y-40628991D01*
X151798236Y-40650072D01*
X151801000Y-40678140D01*
X151801000Y-41141860D01*
X151798236Y-41169928D01*
X151791840Y-41191009D01*
X151781452Y-41210445D01*
X151767476Y-41227476D01*
X151750445Y-41241452D01*
X151731009Y-41251840D01*
X151709928Y-41258236D01*
X151681860Y-41261000D01*
X150218140Y-41261000D01*
X150190072Y-41258236D01*
X150168991Y-41251840D01*
X150149555Y-41241452D01*
X150132524Y-41227476D01*
X150118548Y-41210445D01*
X150108160Y-41191009D01*
X150101764Y-41169928D01*
X150099000Y-41141860D01*
X150099000Y-40678140D01*
X150101764Y-40650072D01*
X150108160Y-40628991D01*
X150118548Y-40609555D01*
X150132524Y-40592524D01*
X150149555Y-40578548D01*
X150168991Y-40568160D01*
X150190072Y-40561764D01*
X150218140Y-40559000D01*
X151681860Y-40559000D01*
X151709928Y-40561764D01*
X151709928Y-40561764D01*
G37*
G36*
X146409928Y-40561764D02*
G01*
X146431009Y-40568160D01*
X146450445Y-40578548D01*
X146467476Y-40592524D01*
X146481452Y-40609555D01*
X146491840Y-40628991D01*
X146498236Y-40650072D01*
X146501000Y-40678140D01*
X146501000Y-41141860D01*
X146498236Y-41169928D01*
X146491840Y-41191009D01*
X146481452Y-41210445D01*
X146467476Y-41227476D01*
X146450445Y-41241452D01*
X146431009Y-41251840D01*
X146409928Y-41258236D01*
X146381860Y-41261000D01*
X144918140Y-41261000D01*
X144890072Y-41258236D01*
X144868991Y-41251840D01*
X144849555Y-41241452D01*
X144832524Y-41227476D01*
X144818548Y-41210445D01*
X144808160Y-41191009D01*
X144801764Y-41169928D01*
X144799000Y-41141860D01*
X144799000Y-40678140D01*
X144801764Y-40650072D01*
X144808160Y-40628991D01*
X144818548Y-40609555D01*
X144832524Y-40592524D01*
X144849555Y-40578548D01*
X144868991Y-40568160D01*
X144890072Y-40561764D01*
X144918140Y-40559000D01*
X146381860Y-40559000D01*
X146409928Y-40561764D01*
X146409928Y-40561764D01*
G37*
G36*
X151709928Y-39291764D02*
G01*
X151731009Y-39298160D01*
X151750445Y-39308548D01*
X151767476Y-39322524D01*
X151781452Y-39339555D01*
X151791840Y-39358991D01*
X151798236Y-39380072D01*
X151801000Y-39408140D01*
X151801000Y-39871860D01*
X151798236Y-39899928D01*
X151791840Y-39921009D01*
X151781452Y-39940445D01*
X151767476Y-39957476D01*
X151750445Y-39971452D01*
X151731009Y-39981840D01*
X151709928Y-39988236D01*
X151681860Y-39991000D01*
X150218140Y-39991000D01*
X150190072Y-39988236D01*
X150168991Y-39981840D01*
X150149555Y-39971452D01*
X150132524Y-39957476D01*
X150118548Y-39940445D01*
X150108160Y-39921009D01*
X150101764Y-39899928D01*
X150099000Y-39871860D01*
X150099000Y-39408140D01*
X150101764Y-39380072D01*
X150108160Y-39358991D01*
X150118548Y-39339555D01*
X150132524Y-39322524D01*
X150149555Y-39308548D01*
X150168991Y-39298160D01*
X150190072Y-39291764D01*
X150218140Y-39289000D01*
X151681860Y-39289000D01*
X151709928Y-39291764D01*
X151709928Y-39291764D01*
G37*
G36*
X146409928Y-39291764D02*
G01*
X146431009Y-39298160D01*
X146450445Y-39308548D01*
X146467476Y-39322524D01*
X146481452Y-39339555D01*
X146491840Y-39358991D01*
X146498236Y-39380072D01*
X146501000Y-39408140D01*
X146501000Y-39871860D01*
X146498236Y-39899928D01*
X146491840Y-39921009D01*
X146481452Y-39940445D01*
X146467476Y-39957476D01*
X146450445Y-39971452D01*
X146431009Y-39981840D01*
X146409928Y-39988236D01*
X146381860Y-39991000D01*
X144918140Y-39991000D01*
X144890072Y-39988236D01*
X144868991Y-39981840D01*
X144849555Y-39971452D01*
X144832524Y-39957476D01*
X144818548Y-39940445D01*
X144808160Y-39921009D01*
X144801764Y-39899928D01*
X144799000Y-39871860D01*
X144799000Y-39408140D01*
X144801764Y-39380072D01*
X144808160Y-39358991D01*
X144818548Y-39339555D01*
X144832524Y-39322524D01*
X144849555Y-39308548D01*
X144868991Y-39298160D01*
X144890072Y-39291764D01*
X144918140Y-39289000D01*
X146381860Y-39289000D01*
X146409928Y-39291764D01*
X146409928Y-39291764D01*
G37*
G36*
X124922740Y-38808627D02*
G01*
X124971136Y-38818253D01*
X124980517Y-38822139D01*
X125062311Y-38856019D01*
X125087931Y-38873138D01*
X125144369Y-38910848D01*
X125214152Y-38980631D01*
X125214153Y-38980633D01*
X125268981Y-39062689D01*
X125284850Y-39101000D01*
X125306747Y-39153864D01*
X125326000Y-39250656D01*
X125326000Y-39349344D01*
X125309905Y-39430262D01*
X125306747Y-39446135D01*
X125268981Y-39537311D01*
X125268980Y-39537312D01*
X125214152Y-39619369D01*
X125144369Y-39689152D01*
X125103062Y-39716752D01*
X125062311Y-39743981D01*
X125008902Y-39766104D01*
X124971136Y-39781747D01*
X124922740Y-39791374D01*
X124874345Y-39801000D01*
X124775655Y-39801000D01*
X124727260Y-39791373D01*
X124678864Y-39781747D01*
X124641098Y-39766104D01*
X124587689Y-39743981D01*
X124546938Y-39716752D01*
X124505631Y-39689152D01*
X124435848Y-39619369D01*
X124381020Y-39537312D01*
X124381019Y-39537311D01*
X124343253Y-39446135D01*
X124340096Y-39430262D01*
X124324000Y-39349344D01*
X124324000Y-39250656D01*
X124343253Y-39153864D01*
X124365150Y-39101000D01*
X124381019Y-39062689D01*
X124435847Y-38980633D01*
X124435848Y-38980631D01*
X124505631Y-38910848D01*
X124562069Y-38873138D01*
X124587689Y-38856019D01*
X124669483Y-38822139D01*
X124678864Y-38818253D01*
X124727260Y-38808627D01*
X124775655Y-38799000D01*
X124874345Y-38799000D01*
X124922740Y-38808627D01*
X124922740Y-38808627D01*
G37*
G36*
X179901000Y-39651000D02*
G01*
X178099000Y-39651000D01*
X178099000Y-37849000D01*
X179901000Y-37849000D01*
X179901000Y-39651000D01*
X179901000Y-39651000D01*
G37*
G36*
X181650442Y-37855518D02*
G01*
X181716627Y-37862037D01*
X181886466Y-37913557D01*
X181886468Y-37913558D01*
X181964729Y-37955390D01*
X182042991Y-37997222D01*
X182078729Y-38026552D01*
X182180186Y-38109814D01*
X182250773Y-38195826D01*
X182292778Y-38247009D01*
X182376443Y-38403534D01*
X182427963Y-38573373D01*
X182445359Y-38750000D01*
X182427963Y-38926627D01*
X182376443Y-39096466D01*
X182292778Y-39252991D01*
X182263448Y-39288729D01*
X182180186Y-39390186D01*
X182089633Y-39464500D01*
X182042991Y-39502778D01*
X181886466Y-39586443D01*
X181716627Y-39637963D01*
X181650442Y-39644482D01*
X181584260Y-39651000D01*
X181495740Y-39651000D01*
X181429558Y-39644482D01*
X181363373Y-39637963D01*
X181193534Y-39586443D01*
X181037009Y-39502778D01*
X180990367Y-39464500D01*
X180899814Y-39390186D01*
X180816552Y-39288729D01*
X180787222Y-39252991D01*
X180703557Y-39096466D01*
X180652037Y-38926627D01*
X180634641Y-38750000D01*
X180652037Y-38573373D01*
X180703557Y-38403534D01*
X180787222Y-38247009D01*
X180829227Y-38195826D01*
X180899814Y-38109814D01*
X181001271Y-38026552D01*
X181037009Y-37997222D01*
X181115272Y-37955389D01*
X181193532Y-37913558D01*
X181193534Y-37913557D01*
X181363373Y-37862037D01*
X181429558Y-37855518D01*
X181495740Y-37849000D01*
X181584260Y-37849000D01*
X181650442Y-37855518D01*
X181650442Y-37855518D01*
G37*
G36*
X154888015Y-37406973D02*
G01*
X154991879Y-37438479D01*
X154996595Y-37441000D01*
X155087600Y-37489643D01*
X155171501Y-37558499D01*
X155240357Y-37642400D01*
X155276995Y-37710945D01*
X155291521Y-37738121D01*
X155323027Y-37841985D01*
X155331000Y-37922933D01*
X155331000Y-38777067D01*
X155323027Y-38858015D01*
X155291521Y-38961879D01*
X155273050Y-38996435D01*
X155240357Y-39057599D01*
X155236180Y-39062689D01*
X155171501Y-39141501D01*
X155102645Y-39198009D01*
X155087599Y-39210357D01*
X155035907Y-39237987D01*
X154991878Y-39261521D01*
X154888014Y-39293027D01*
X154780000Y-39303666D01*
X154671985Y-39293027D01*
X154568121Y-39261521D01*
X154524093Y-39237987D01*
X154472401Y-39210357D01*
X154459643Y-39199887D01*
X154388499Y-39141501D01*
X154323820Y-39062689D01*
X154319643Y-39057599D01*
X154278503Y-38980631D01*
X154268479Y-38961878D01*
X154236973Y-38858014D01*
X154229000Y-38777066D01*
X154229000Y-37922933D01*
X154236973Y-37841985D01*
X154268480Y-37738121D01*
X154286302Y-37704779D01*
X154319644Y-37642400D01*
X154388500Y-37558499D01*
X154472401Y-37489643D01*
X154563406Y-37441000D01*
X154568122Y-37438479D01*
X154671986Y-37406973D01*
X154780000Y-37396334D01*
X154888015Y-37406973D01*
X154888015Y-37406973D01*
G37*
G36*
X163528015Y-37406973D02*
G01*
X163631879Y-37438479D01*
X163636595Y-37441000D01*
X163727600Y-37489643D01*
X163811501Y-37558499D01*
X163880357Y-37642400D01*
X163916995Y-37710945D01*
X163931521Y-37738121D01*
X163963027Y-37841985D01*
X163971000Y-37922933D01*
X163971000Y-38777067D01*
X163963027Y-38858015D01*
X163931521Y-38961879D01*
X163913050Y-38996435D01*
X163880357Y-39057599D01*
X163876180Y-39062689D01*
X163811501Y-39141501D01*
X163742645Y-39198009D01*
X163727599Y-39210357D01*
X163675907Y-39237987D01*
X163631878Y-39261521D01*
X163528014Y-39293027D01*
X163420000Y-39303666D01*
X163311985Y-39293027D01*
X163208121Y-39261521D01*
X163164093Y-39237987D01*
X163112401Y-39210357D01*
X163099643Y-39199887D01*
X163028499Y-39141501D01*
X162963820Y-39062689D01*
X162959643Y-39057599D01*
X162918503Y-38980631D01*
X162908479Y-38961878D01*
X162876973Y-38858014D01*
X162869000Y-38777066D01*
X162869000Y-37922933D01*
X162876973Y-37841985D01*
X162908480Y-37738121D01*
X162926302Y-37704779D01*
X162959644Y-37642400D01*
X163028500Y-37558499D01*
X163112401Y-37489643D01*
X163203406Y-37441000D01*
X163208122Y-37438479D01*
X163311986Y-37406973D01*
X163420000Y-37396334D01*
X163528015Y-37406973D01*
X163528015Y-37406973D01*
G37*
G36*
X142101000Y-39101000D02*
G01*
X139999000Y-39101000D01*
X139999000Y-37499000D01*
X142101000Y-37499000D01*
X142101000Y-39101000D01*
X142101000Y-39101000D01*
G37*
G36*
X127626000Y-39051000D02*
G01*
X126274000Y-39051000D01*
X126274000Y-38049000D01*
X127626000Y-38049000D01*
X127626000Y-39051000D01*
X127626000Y-39051000D01*
G37*
G36*
X132721968Y-37503565D02*
G01*
X132760638Y-37515296D01*
X132796277Y-37534346D01*
X132827517Y-37559983D01*
X132853154Y-37591223D01*
X132872204Y-37626862D01*
X132883935Y-37665532D01*
X132888500Y-37711888D01*
X132888500Y-38788112D01*
X132883935Y-38834468D01*
X132872204Y-38873138D01*
X132853154Y-38908777D01*
X132827517Y-38940017D01*
X132796277Y-38965654D01*
X132760638Y-38984704D01*
X132721968Y-38996435D01*
X132675612Y-39001000D01*
X132024388Y-39001000D01*
X131978032Y-38996435D01*
X131939362Y-38984704D01*
X131903723Y-38965654D01*
X131872483Y-38940017D01*
X131846846Y-38908777D01*
X131827796Y-38873138D01*
X131816065Y-38834468D01*
X131811500Y-38788112D01*
X131811500Y-37711888D01*
X131816065Y-37665532D01*
X131827796Y-37626862D01*
X131846846Y-37591223D01*
X131872483Y-37559983D01*
X131903723Y-37534346D01*
X131939362Y-37515296D01*
X131978032Y-37503565D01*
X132024388Y-37499000D01*
X132675612Y-37499000D01*
X132721968Y-37503565D01*
X132721968Y-37503565D01*
G37*
G36*
X130846968Y-37503565D02*
G01*
X130885638Y-37515296D01*
X130921277Y-37534346D01*
X130952517Y-37559983D01*
X130978154Y-37591223D01*
X130997204Y-37626862D01*
X131008935Y-37665532D01*
X131013500Y-37711888D01*
X131013500Y-38788112D01*
X131008935Y-38834468D01*
X130997204Y-38873138D01*
X130978154Y-38908777D01*
X130952517Y-38940017D01*
X130921277Y-38965654D01*
X130885638Y-38984704D01*
X130846968Y-38996435D01*
X130800612Y-39001000D01*
X130149388Y-39001000D01*
X130103032Y-38996435D01*
X130064362Y-38984704D01*
X130028723Y-38965654D01*
X129997483Y-38940017D01*
X129971846Y-38908777D01*
X129952796Y-38873138D01*
X129941065Y-38834468D01*
X129936500Y-38788112D01*
X129936500Y-37711888D01*
X129941065Y-37665532D01*
X129952796Y-37626862D01*
X129971846Y-37591223D01*
X129997483Y-37559983D01*
X130028723Y-37534346D01*
X130064362Y-37515296D01*
X130103032Y-37503565D01*
X130149388Y-37499000D01*
X130800612Y-37499000D01*
X130846968Y-37503565D01*
X130846968Y-37503565D01*
G37*
G36*
X169096968Y-37403565D02*
G01*
X169135638Y-37415296D01*
X169171277Y-37434346D01*
X169202517Y-37459983D01*
X169228154Y-37491223D01*
X169247204Y-37526862D01*
X169258935Y-37565532D01*
X169263500Y-37611888D01*
X169263500Y-38688112D01*
X169258935Y-38734468D01*
X169247204Y-38773138D01*
X169228154Y-38808777D01*
X169202517Y-38840017D01*
X169171277Y-38865654D01*
X169135638Y-38884704D01*
X169096968Y-38896435D01*
X169050612Y-38901000D01*
X168399388Y-38901000D01*
X168353032Y-38896435D01*
X168314362Y-38884704D01*
X168278723Y-38865654D01*
X168247483Y-38840017D01*
X168221846Y-38808777D01*
X168202796Y-38773138D01*
X168191065Y-38734468D01*
X168186500Y-38688112D01*
X168186500Y-37611888D01*
X168191065Y-37565532D01*
X168202796Y-37526862D01*
X168221846Y-37491223D01*
X168247483Y-37459983D01*
X168278723Y-37434346D01*
X168314362Y-37415296D01*
X168353032Y-37403565D01*
X168399388Y-37399000D01*
X169050612Y-37399000D01*
X169096968Y-37403565D01*
X169096968Y-37403565D01*
G37*
G36*
X167221968Y-37403565D02*
G01*
X167260638Y-37415296D01*
X167296277Y-37434346D01*
X167327517Y-37459983D01*
X167353154Y-37491223D01*
X167372204Y-37526862D01*
X167383935Y-37565532D01*
X167388500Y-37611888D01*
X167388500Y-38688112D01*
X167383935Y-38734468D01*
X167372204Y-38773138D01*
X167353154Y-38808777D01*
X167327517Y-38840017D01*
X167296277Y-38865654D01*
X167260638Y-38884704D01*
X167221968Y-38896435D01*
X167175612Y-38901000D01*
X166524388Y-38901000D01*
X166478032Y-38896435D01*
X166439362Y-38884704D01*
X166403723Y-38865654D01*
X166372483Y-38840017D01*
X166346846Y-38808777D01*
X166327796Y-38773138D01*
X166316065Y-38734468D01*
X166311500Y-38688112D01*
X166311500Y-37611888D01*
X166316065Y-37565532D01*
X166327796Y-37526862D01*
X166346846Y-37491223D01*
X166372483Y-37459983D01*
X166403723Y-37434346D01*
X166439362Y-37415296D01*
X166478032Y-37403565D01*
X166524388Y-37399000D01*
X167175612Y-37399000D01*
X167221968Y-37403565D01*
X167221968Y-37403565D01*
G37*
G36*
X145921968Y-36703565D02*
G01*
X145960638Y-36715296D01*
X145996277Y-36734346D01*
X146027517Y-36759983D01*
X146053154Y-36791223D01*
X146072204Y-36826862D01*
X146083935Y-36865532D01*
X146088500Y-36911888D01*
X146088500Y-37988112D01*
X146083935Y-38034468D01*
X146072204Y-38073138D01*
X146053154Y-38108777D01*
X146027517Y-38140017D01*
X145996277Y-38165654D01*
X145960638Y-38184704D01*
X145921968Y-38196435D01*
X145875612Y-38201000D01*
X145224388Y-38201000D01*
X145178032Y-38196435D01*
X145139362Y-38184704D01*
X145103723Y-38165654D01*
X145072483Y-38140017D01*
X145046846Y-38108777D01*
X145027796Y-38073138D01*
X145016065Y-38034468D01*
X145011500Y-37988112D01*
X145011500Y-36911888D01*
X145016065Y-36865532D01*
X145027796Y-36826862D01*
X145046846Y-36791223D01*
X145072483Y-36759983D01*
X145103723Y-36734346D01*
X145139362Y-36715296D01*
X145178032Y-36703565D01*
X145224388Y-36699000D01*
X145875612Y-36699000D01*
X145921968Y-36703565D01*
X145921968Y-36703565D01*
G37*
G36*
X153221968Y-36703565D02*
G01*
X153260638Y-36715296D01*
X153296277Y-36734346D01*
X153327517Y-36759983D01*
X153353154Y-36791223D01*
X153372204Y-36826862D01*
X153383935Y-36865532D01*
X153388500Y-36911888D01*
X153388500Y-37988112D01*
X153383935Y-38034468D01*
X153372204Y-38073138D01*
X153353154Y-38108777D01*
X153327517Y-38140017D01*
X153296277Y-38165654D01*
X153260638Y-38184704D01*
X153221968Y-38196435D01*
X153175612Y-38201000D01*
X152524388Y-38201000D01*
X152478032Y-38196435D01*
X152439362Y-38184704D01*
X152403723Y-38165654D01*
X152372483Y-38140017D01*
X152346846Y-38108777D01*
X152327796Y-38073138D01*
X152316065Y-38034468D01*
X152311500Y-37988112D01*
X152311500Y-36911888D01*
X152316065Y-36865532D01*
X152327796Y-36826862D01*
X152346846Y-36791223D01*
X152372483Y-36759983D01*
X152403723Y-36734346D01*
X152439362Y-36715296D01*
X152478032Y-36703565D01*
X152524388Y-36699000D01*
X153175612Y-36699000D01*
X153221968Y-36703565D01*
X153221968Y-36703565D01*
G37*
G36*
X151346968Y-36703565D02*
G01*
X151385638Y-36715296D01*
X151421277Y-36734346D01*
X151452517Y-36759983D01*
X151478154Y-36791223D01*
X151497204Y-36826862D01*
X151508935Y-36865532D01*
X151513500Y-36911888D01*
X151513500Y-37988112D01*
X151508935Y-38034468D01*
X151497204Y-38073138D01*
X151478154Y-38108777D01*
X151452517Y-38140017D01*
X151421277Y-38165654D01*
X151385638Y-38184704D01*
X151346968Y-38196435D01*
X151300612Y-38201000D01*
X150649388Y-38201000D01*
X150603032Y-38196435D01*
X150564362Y-38184704D01*
X150528723Y-38165654D01*
X150497483Y-38140017D01*
X150471846Y-38108777D01*
X150452796Y-38073138D01*
X150441065Y-38034468D01*
X150436500Y-37988112D01*
X150436500Y-36911888D01*
X150441065Y-36865532D01*
X150452796Y-36826862D01*
X150471846Y-36791223D01*
X150497483Y-36759983D01*
X150528723Y-36734346D01*
X150564362Y-36715296D01*
X150603032Y-36703565D01*
X150649388Y-36699000D01*
X151300612Y-36699000D01*
X151346968Y-36703565D01*
X151346968Y-36703565D01*
G37*
G36*
X144046968Y-36703565D02*
G01*
X144085638Y-36715296D01*
X144121277Y-36734346D01*
X144152517Y-36759983D01*
X144178154Y-36791223D01*
X144197204Y-36826862D01*
X144208935Y-36865532D01*
X144213500Y-36911888D01*
X144213500Y-37988112D01*
X144208935Y-38034468D01*
X144197204Y-38073138D01*
X144178154Y-38108777D01*
X144152517Y-38140017D01*
X144121277Y-38165654D01*
X144085638Y-38184704D01*
X144046968Y-38196435D01*
X144000612Y-38201000D01*
X143349388Y-38201000D01*
X143303032Y-38196435D01*
X143264362Y-38184704D01*
X143228723Y-38165654D01*
X143197483Y-38140017D01*
X143171846Y-38108777D01*
X143152796Y-38073138D01*
X143141065Y-38034468D01*
X143136500Y-37988112D01*
X143136500Y-36911888D01*
X143141065Y-36865532D01*
X143152796Y-36826862D01*
X143171846Y-36791223D01*
X143197483Y-36759983D01*
X143228723Y-36734346D01*
X143264362Y-36715296D01*
X143303032Y-36703565D01*
X143349388Y-36699000D01*
X144000612Y-36699000D01*
X144046968Y-36703565D01*
X144046968Y-36703565D01*
G37*
G36*
X147696968Y-36703565D02*
G01*
X147735638Y-36715296D01*
X147771277Y-36734346D01*
X147802517Y-36759983D01*
X147828154Y-36791223D01*
X147847204Y-36826862D01*
X147858935Y-36865532D01*
X147863500Y-36911888D01*
X147863500Y-37988112D01*
X147858935Y-38034468D01*
X147847204Y-38073138D01*
X147828154Y-38108777D01*
X147802517Y-38140017D01*
X147771277Y-38165654D01*
X147735638Y-38184704D01*
X147696968Y-38196435D01*
X147650612Y-38201000D01*
X146999388Y-38201000D01*
X146953032Y-38196435D01*
X146914362Y-38184704D01*
X146878723Y-38165654D01*
X146847483Y-38140017D01*
X146821846Y-38108777D01*
X146802796Y-38073138D01*
X146791065Y-38034468D01*
X146786500Y-37988112D01*
X146786500Y-36911888D01*
X146791065Y-36865532D01*
X146802796Y-36826862D01*
X146821846Y-36791223D01*
X146847483Y-36759983D01*
X146878723Y-36734346D01*
X146914362Y-36715296D01*
X146953032Y-36703565D01*
X146999388Y-36699000D01*
X147650612Y-36699000D01*
X147696968Y-36703565D01*
X147696968Y-36703565D01*
G37*
G36*
X149571968Y-36703565D02*
G01*
X149610638Y-36715296D01*
X149646277Y-36734346D01*
X149677517Y-36759983D01*
X149703154Y-36791223D01*
X149722204Y-36826862D01*
X149733935Y-36865532D01*
X149738500Y-36911888D01*
X149738500Y-37988112D01*
X149733935Y-38034468D01*
X149722204Y-38073138D01*
X149703154Y-38108777D01*
X149677517Y-38140017D01*
X149646277Y-38165654D01*
X149610638Y-38184704D01*
X149571968Y-38196435D01*
X149525612Y-38201000D01*
X148874388Y-38201000D01*
X148828032Y-38196435D01*
X148789362Y-38184704D01*
X148753723Y-38165654D01*
X148722483Y-38140017D01*
X148696846Y-38108777D01*
X148677796Y-38073138D01*
X148666065Y-38034468D01*
X148661500Y-37988112D01*
X148661500Y-36911888D01*
X148666065Y-36865532D01*
X148677796Y-36826862D01*
X148696846Y-36791223D01*
X148722483Y-36759983D01*
X148753723Y-36734346D01*
X148789362Y-36715296D01*
X148828032Y-36703565D01*
X148874388Y-36699000D01*
X149525612Y-36699000D01*
X149571968Y-36703565D01*
X149571968Y-36703565D01*
G37*
G36*
X124176000Y-37451000D02*
G01*
X123174000Y-37451000D01*
X123174000Y-36549000D01*
X124176000Y-36549000D01*
X124176000Y-37451000D01*
X124176000Y-37451000D01*
G37*
G36*
X126476000Y-37441000D02*
G01*
X125474000Y-37441000D01*
X125474000Y-36539000D01*
X126476000Y-36539000D01*
X126476000Y-37441000D01*
X126476000Y-37441000D01*
G37*
M02*
