G04 #@! TF.GenerationSoftware,KiCad,Pcbnew,5.1.2*
G04 #@! TF.CreationDate,2019-06-25T21:59:29-05:00*
G04 #@! TF.ProjectId,STM32F030Minimal,53544d33-3246-4303-9330-4d696e696d61,rev?*
G04 #@! TF.SameCoordinates,Original*
G04 #@! TF.FileFunction,Profile,NP*
%FSLAX46Y46*%
G04 Gerber Fmt 4.6, Leading zero omitted, Abs format (unit mm)*
G04 Created by KiCad (PCBNEW 5.1.2) date 2019-06-25 21:59:29*
%MOMM*%
%LPD*%
G04 APERTURE LIST*
%ADD10C,0.050000*%
G04 APERTURE END LIST*
D10*
X176750000Y-70250000D02*
G75*
G02X174750000Y-72250000I-2000000J0D01*
G01*
X165750000Y-92250000D02*
G75*
G02X163750000Y-94250000I-2000000J0D01*
G01*
X155000000Y-94250000D02*
G75*
G02X153250000Y-92500000I0J1750000D01*
G01*
X143750000Y-75000000D02*
G75*
G02X142250000Y-73500000I0J1500000D01*
G01*
X125000000Y-51750000D02*
G75*
G02X123250000Y-50000000I0J1750000D01*
G01*
X123250000Y-37500000D02*
G75*
G02X125000000Y-35750000I1750000J0D01*
G01*
X188250000Y-35750000D02*
G75*
G02X189750000Y-37250000I0J-1500000D01*
G01*
X189750000Y-50500000D02*
G75*
G02X188250000Y-52000000I-1500000J0D01*
G01*
X123250000Y-50000000D02*
X123250000Y-37500000D01*
X142250000Y-51750000D02*
X125000000Y-51750000D01*
X142250000Y-73500000D02*
X142250000Y-51750000D01*
X153250000Y-75000000D02*
X143750000Y-75000000D01*
X153250000Y-92500000D02*
X153250000Y-75000000D01*
X163750000Y-94250000D02*
X155000000Y-94250000D01*
X165750000Y-72250000D02*
X165750000Y-92250000D01*
X174750000Y-72250000D02*
X165750000Y-72250000D01*
X176750000Y-52000000D02*
X176750000Y-70250000D01*
X188250000Y-52000000D02*
X176750000Y-52000000D01*
X189750000Y-37250000D02*
X189750000Y-50500000D01*
X125000000Y-35750000D02*
X188250000Y-35750000D01*
M02*
