G04 #@! TF.GenerationSoftware,KiCad,Pcbnew,5.1.2*
G04 #@! TF.CreationDate,2019-05-10T12:40:58-05:00*
G04 #@! TF.ProjectId,BreadboardPwr,42726561-6462-46f6-9172-645077722e6b,rev?*
G04 #@! TF.SameCoordinates,Original*
G04 #@! TF.FileFunction,Paste,Bot*
G04 #@! TF.FilePolarity,Positive*
%FSLAX46Y46*%
G04 Gerber Fmt 4.6, Leading zero omitted, Abs format (unit mm)*
G04 Created by KiCad (PCBNEW 5.1.2) date 2019-05-10 12:40:58*
%MOMM*%
%LPD*%
G04 APERTURE LIST*
%ADD10C,0.100000*%
%ADD11C,0.875000*%
G04 APERTURE END LIST*
D10*
G36*
X133277691Y-108013553D02*
G01*
X133298926Y-108016703D01*
X133319750Y-108021919D01*
X133339962Y-108029151D01*
X133359368Y-108038330D01*
X133377781Y-108049366D01*
X133395024Y-108062154D01*
X133410930Y-108076570D01*
X133425346Y-108092476D01*
X133438134Y-108109719D01*
X133449170Y-108128132D01*
X133458349Y-108147538D01*
X133465581Y-108167750D01*
X133470797Y-108188574D01*
X133473947Y-108209809D01*
X133475000Y-108231250D01*
X133475000Y-108668750D01*
X133473947Y-108690191D01*
X133470797Y-108711426D01*
X133465581Y-108732250D01*
X133458349Y-108752462D01*
X133449170Y-108771868D01*
X133438134Y-108790281D01*
X133425346Y-108807524D01*
X133410930Y-108823430D01*
X133395024Y-108837846D01*
X133377781Y-108850634D01*
X133359368Y-108861670D01*
X133339962Y-108870849D01*
X133319750Y-108878081D01*
X133298926Y-108883297D01*
X133277691Y-108886447D01*
X133256250Y-108887500D01*
X132743750Y-108887500D01*
X132722309Y-108886447D01*
X132701074Y-108883297D01*
X132680250Y-108878081D01*
X132660038Y-108870849D01*
X132640632Y-108861670D01*
X132622219Y-108850634D01*
X132604976Y-108837846D01*
X132589070Y-108823430D01*
X132574654Y-108807524D01*
X132561866Y-108790281D01*
X132550830Y-108771868D01*
X132541651Y-108752462D01*
X132534419Y-108732250D01*
X132529203Y-108711426D01*
X132526053Y-108690191D01*
X132525000Y-108668750D01*
X132525000Y-108231250D01*
X132526053Y-108209809D01*
X132529203Y-108188574D01*
X132534419Y-108167750D01*
X132541651Y-108147538D01*
X132550830Y-108128132D01*
X132561866Y-108109719D01*
X132574654Y-108092476D01*
X132589070Y-108076570D01*
X132604976Y-108062154D01*
X132622219Y-108049366D01*
X132640632Y-108038330D01*
X132660038Y-108029151D01*
X132680250Y-108021919D01*
X132701074Y-108016703D01*
X132722309Y-108013553D01*
X132743750Y-108012500D01*
X133256250Y-108012500D01*
X133277691Y-108013553D01*
X133277691Y-108013553D01*
G37*
D11*
X133000000Y-108450000D03*
D10*
G36*
X133277691Y-109588553D02*
G01*
X133298926Y-109591703D01*
X133319750Y-109596919D01*
X133339962Y-109604151D01*
X133359368Y-109613330D01*
X133377781Y-109624366D01*
X133395024Y-109637154D01*
X133410930Y-109651570D01*
X133425346Y-109667476D01*
X133438134Y-109684719D01*
X133449170Y-109703132D01*
X133458349Y-109722538D01*
X133465581Y-109742750D01*
X133470797Y-109763574D01*
X133473947Y-109784809D01*
X133475000Y-109806250D01*
X133475000Y-110243750D01*
X133473947Y-110265191D01*
X133470797Y-110286426D01*
X133465581Y-110307250D01*
X133458349Y-110327462D01*
X133449170Y-110346868D01*
X133438134Y-110365281D01*
X133425346Y-110382524D01*
X133410930Y-110398430D01*
X133395024Y-110412846D01*
X133377781Y-110425634D01*
X133359368Y-110436670D01*
X133339962Y-110445849D01*
X133319750Y-110453081D01*
X133298926Y-110458297D01*
X133277691Y-110461447D01*
X133256250Y-110462500D01*
X132743750Y-110462500D01*
X132722309Y-110461447D01*
X132701074Y-110458297D01*
X132680250Y-110453081D01*
X132660038Y-110445849D01*
X132640632Y-110436670D01*
X132622219Y-110425634D01*
X132604976Y-110412846D01*
X132589070Y-110398430D01*
X132574654Y-110382524D01*
X132561866Y-110365281D01*
X132550830Y-110346868D01*
X132541651Y-110327462D01*
X132534419Y-110307250D01*
X132529203Y-110286426D01*
X132526053Y-110265191D01*
X132525000Y-110243750D01*
X132525000Y-109806250D01*
X132526053Y-109784809D01*
X132529203Y-109763574D01*
X132534419Y-109742750D01*
X132541651Y-109722538D01*
X132550830Y-109703132D01*
X132561866Y-109684719D01*
X132574654Y-109667476D01*
X132589070Y-109651570D01*
X132604976Y-109637154D01*
X132622219Y-109624366D01*
X132640632Y-109613330D01*
X132660038Y-109604151D01*
X132680250Y-109596919D01*
X132701074Y-109591703D01*
X132722309Y-109588553D01*
X132743750Y-109587500D01*
X133256250Y-109587500D01*
X133277691Y-109588553D01*
X133277691Y-109588553D01*
G37*
D11*
X133000000Y-110025000D03*
M02*
