G04 #@! TF.GenerationSoftware,KiCad,Pcbnew,5.1.0*
G04 #@! TF.CreationDate,2019-04-23T13:01:11-05:00*
G04 #@! TF.ProjectId,S4_20Badge,53345f32-3042-4616-9467-652e6b696361,rev?*
G04 #@! TF.SameCoordinates,Original*
G04 #@! TF.FileFunction,Copper,L1,Top*
G04 #@! TF.FilePolarity,Positive*
%FSLAX46Y46*%
G04 Gerber Fmt 4.6, Leading zero omitted, Abs format (unit mm)*
G04 Created by KiCad (PCBNEW 5.1.0) date 2019-04-23 13:01:11*
%MOMM*%
%LPD*%
G04 APERTURE LIST*
%ADD10R,4.000000X4.000000*%
%ADD11C,1.200000*%
%ADD12C,0.100000*%
%ADD13R,1.200000X1.200000*%
%ADD14R,1.700000X1.700000*%
%ADD15O,1.700000X1.700000*%
%ADD16R,1.300000X0.700000*%
%ADD17R,0.700000X1.300000*%
%ADD18C,0.800000*%
%ADD19C,0.250000*%
%ADD20C,0.254000*%
G04 APERTURE END LIST*
D10*
X116500000Y-120000000D03*
X185000000Y-120000000D03*
X150000000Y-147500000D03*
X150000000Y-120000000D03*
X185500000Y-147500000D03*
X115500000Y-148000000D03*
X185000000Y-86500000D03*
X150000000Y-114000000D03*
X185500000Y-114000000D03*
X150000000Y-86500000D03*
X116500000Y-86500000D03*
X115500000Y-114500000D03*
X115500000Y-81000000D03*
X185500000Y-80500000D03*
X150000000Y-80500000D03*
X116500000Y-53000000D03*
X150000000Y-53000000D03*
X185000000Y-53000000D03*
D11*
X122057351Y-78292934D03*
D12*
G36*
X122902650Y-78218980D02*
G01*
X122131305Y-79138233D01*
X121212052Y-78366888D01*
X121983397Y-77447635D01*
X122902650Y-78218980D01*
X122902650Y-78218980D01*
G37*
D11*
X123742649Y-79707066D03*
D12*
G36*
X124587948Y-79633112D02*
G01*
X123816603Y-80552365D01*
X122897350Y-79781020D01*
X123668695Y-78861767D01*
X124587948Y-79633112D01*
X124587948Y-79633112D01*
G37*
D11*
X157500000Y-76500000D03*
D12*
G36*
X156654701Y-76426046D02*
G01*
X157573954Y-75654701D01*
X158345299Y-76573954D01*
X157426046Y-77345299D01*
X156654701Y-76426046D01*
X156654701Y-76426046D01*
G37*
D11*
X158914132Y-78185298D03*
D12*
G36*
X158068833Y-78111344D02*
G01*
X158988086Y-77339999D01*
X159759431Y-78259252D01*
X158840178Y-79030597D01*
X158068833Y-78111344D01*
X158068833Y-78111344D01*
G37*
D11*
X117950000Y-61952628D03*
D12*
G36*
X117730385Y-61133013D02*
G01*
X118769615Y-61733013D01*
X118169615Y-62772243D01*
X117130385Y-62172243D01*
X117730385Y-61133013D01*
X117730385Y-61133013D01*
G37*
D11*
X119050000Y-60047372D03*
D12*
G36*
X118830385Y-59227757D02*
G01*
X119869615Y-59827757D01*
X119269615Y-60866987D01*
X118230385Y-60266987D01*
X118830385Y-59227757D01*
X118830385Y-59227757D01*
G37*
D13*
X155500000Y-64200000D03*
X155500000Y-62000000D03*
X132000000Y-53500000D03*
X129800000Y-53500000D03*
X170000000Y-53500000D03*
X167800000Y-53500000D03*
X144500000Y-62600000D03*
X144500000Y-60400000D03*
X182500000Y-62300000D03*
X182500000Y-64500000D03*
D11*
X141500000Y-78000000D03*
D12*
G36*
X141426046Y-77154701D02*
G01*
X142345299Y-77926046D01*
X141573954Y-78845299D01*
X140654701Y-78073954D01*
X141426046Y-77154701D01*
X141426046Y-77154701D01*
G37*
D11*
X140085868Y-79685298D03*
D12*
G36*
X140011914Y-78839999D02*
G01*
X140931167Y-79611344D01*
X140159822Y-80530597D01*
X139240569Y-79759252D01*
X140011914Y-78839999D01*
X140011914Y-78839999D01*
G37*
D11*
X179157351Y-77707066D03*
D12*
G36*
X179231305Y-76861767D02*
G01*
X180002650Y-77781020D01*
X179083397Y-78552365D01*
X178312052Y-77633112D01*
X179231305Y-76861767D01*
X179231305Y-76861767D01*
G37*
D11*
X180842649Y-76292934D03*
D12*
G36*
X180916603Y-75447635D02*
G01*
X181687948Y-76366888D01*
X180768695Y-77138233D01*
X179997350Y-76218980D01*
X180916603Y-75447635D01*
X180916603Y-75447635D01*
G37*
D14*
X111500000Y-79500000D03*
D15*
X111500000Y-76960000D03*
X111500000Y-74420000D03*
X111500000Y-71880000D03*
X111500000Y-69340000D03*
X111500000Y-66800000D03*
X111500000Y-64260000D03*
X111500000Y-61720000D03*
X111500000Y-59180000D03*
X111500000Y-56640000D03*
X111500000Y-54100000D03*
D16*
X119500000Y-75000000D03*
X119500000Y-76900000D03*
X161500000Y-80950000D03*
X161500000Y-79050000D03*
X117500000Y-66500000D03*
X117500000Y-68400000D03*
X156500000Y-60400000D03*
X156500000Y-58500000D03*
D17*
X125550000Y-54000000D03*
X127450000Y-54000000D03*
X172500000Y-54000000D03*
X174400000Y-54000000D03*
D16*
X146000000Y-64550000D03*
X146000000Y-66450000D03*
D17*
X182050000Y-69000000D03*
X183950000Y-69000000D03*
D16*
X144000000Y-74000000D03*
X144000000Y-75900000D03*
D17*
X177400000Y-80000000D03*
X175500000Y-80000000D03*
D18*
X117000000Y-61000000D03*
X131000000Y-55000000D03*
X121500000Y-74500000D03*
X126000000Y-69000000D03*
X158500000Y-59000000D03*
X144000000Y-70000000D03*
D19*
X120664417Y-76900000D02*
X119500000Y-76900000D01*
X122057351Y-78292934D02*
X120664417Y-76900000D01*
X122859405Y-79707066D02*
X123742649Y-79707066D01*
X121060528Y-78674999D02*
X122092595Y-79707066D01*
X122092595Y-79707066D02*
X122859405Y-79707066D01*
X112325001Y-78674999D02*
X121060528Y-78674999D01*
X111500000Y-79500000D02*
X112325001Y-78674999D01*
X156616756Y-76500000D02*
X157500000Y-76500000D01*
X149414998Y-76500000D02*
X156616756Y-76500000D01*
X145059391Y-80855607D02*
X149414998Y-76500000D01*
X139877289Y-80855607D02*
X145059391Y-80855607D01*
X134696683Y-75675001D02*
X139877289Y-80855607D01*
X111015999Y-75675001D02*
X134696683Y-75675001D01*
X109874990Y-68425010D02*
X109874990Y-74533992D01*
X109874990Y-74533992D02*
X111015999Y-75675001D01*
X111500000Y-66800000D02*
X109874990Y-68425010D01*
X117950000Y-66050000D02*
X117500000Y-66500000D01*
X117950000Y-61952628D02*
X117950000Y-66050000D01*
X127950000Y-53500000D02*
X127450000Y-54000000D01*
X129800000Y-53500000D02*
X127950000Y-53500000D01*
X117952628Y-60047372D02*
X119050000Y-60047372D01*
X117000000Y-61000000D02*
X117952628Y-60047372D01*
X154650000Y-64200000D02*
X155500000Y-64200000D01*
X149924999Y-59474999D02*
X154650000Y-64200000D01*
X143639999Y-59474999D02*
X149924999Y-59474999D01*
X135939997Y-67175001D02*
X143639999Y-59474999D01*
X114415001Y-67175001D02*
X135939997Y-67175001D01*
X111500000Y-64260000D02*
X114415001Y-67175001D01*
X145600000Y-64550000D02*
X146000000Y-64550000D01*
X144500000Y-63450000D02*
X145600000Y-64550000D01*
X144500000Y-62600000D02*
X144500000Y-63450000D01*
X131000000Y-54500000D02*
X132000000Y-53500000D01*
X131000000Y-55000000D02*
X131000000Y-54500000D01*
X144000000Y-76500000D02*
X144000000Y-75900000D01*
X144000000Y-76878888D02*
X144000000Y-76500000D01*
X141690184Y-79188704D02*
X144000000Y-76878888D01*
X140582462Y-79188704D02*
X141690184Y-79188704D01*
X140085868Y-79685298D02*
X140582462Y-79188704D01*
X159778834Y-79050000D02*
X161500000Y-79050000D01*
X158914132Y-78185298D02*
X159778834Y-79050000D01*
X166950000Y-53500000D02*
X167800000Y-53500000D01*
X162625001Y-57824999D02*
X166950000Y-53500000D01*
X115395001Y-57824999D02*
X162625001Y-57824999D01*
X111500000Y-61720000D02*
X115395001Y-57824999D01*
X155500000Y-61400000D02*
X156500000Y-60400000D01*
X155500000Y-62000000D02*
X155500000Y-61400000D01*
X133019999Y-71030001D02*
X143650000Y-60400000D01*
X143650000Y-60400000D02*
X144500000Y-60400000D01*
X112349999Y-71030001D02*
X133019999Y-71030001D01*
X111500000Y-71880000D02*
X112349999Y-71030001D01*
X112675001Y-58004999D02*
X111500000Y-59180000D01*
X109424980Y-56786020D02*
X110935999Y-55275001D01*
X109424980Y-76623982D02*
X109424980Y-56786020D01*
X182012958Y-76501513D02*
X181051228Y-77463243D01*
X181051228Y-75122625D02*
X182012958Y-76084355D01*
X181051228Y-62898772D02*
X181051228Y-75122625D01*
X181051228Y-77463243D02*
X180634070Y-77463243D01*
X182012958Y-76084355D02*
X182012958Y-76501513D01*
X181650000Y-62300000D02*
X181051228Y-62898772D01*
X110935999Y-55275001D02*
X111874003Y-55275001D01*
X112064001Y-78135001D02*
X110935999Y-78135001D01*
X182500000Y-62300000D02*
X181650000Y-62300000D01*
X141210273Y-82825001D02*
X134510283Y-76125011D01*
X114073991Y-76125011D02*
X112064001Y-78135001D01*
X112675001Y-56075999D02*
X112675001Y-58004999D01*
X180634070Y-77463243D02*
X179672340Y-76501513D01*
X134510283Y-76125011D02*
X114073991Y-76125011D01*
X179672340Y-76501513D02*
X158877375Y-76501513D01*
X111874003Y-55275001D02*
X112675001Y-56075999D01*
X158877375Y-76501513D02*
X152553887Y-82825001D01*
X152553887Y-82825001D02*
X141210273Y-82825001D01*
X110935999Y-78135001D02*
X109424980Y-76623982D01*
X172000000Y-53500000D02*
X172500000Y-54000000D01*
X170000000Y-53500000D02*
X172000000Y-53500000D01*
X136555001Y-73055001D02*
X141003406Y-77503406D01*
X110935999Y-73055001D02*
X136555001Y-73055001D01*
X110324999Y-72444001D02*
X110935999Y-73055001D01*
X110324999Y-70515001D02*
X110324999Y-72444001D01*
X141003406Y-77503406D02*
X141500000Y-78000000D01*
X111500000Y-69340000D02*
X110324999Y-70515001D01*
X183950000Y-68700000D02*
X183950000Y-69000000D01*
X183350000Y-68100000D02*
X183950000Y-68700000D01*
X183050000Y-68100000D02*
X183350000Y-68100000D01*
X182500000Y-67550000D02*
X183050000Y-68100000D01*
X182500000Y-64500000D02*
X182500000Y-67550000D01*
X177400000Y-79464417D02*
X177400000Y-80000000D01*
X179157351Y-77707066D02*
X177400000Y-79464417D01*
X167824714Y-63274999D02*
X180346055Y-75796340D01*
X154639999Y-63274999D02*
X167824714Y-63274999D01*
X150267747Y-58902747D02*
X154639999Y-63274999D01*
X116246253Y-58902747D02*
X150267747Y-58902747D01*
X112064001Y-63084999D02*
X116246253Y-58902747D01*
X111125997Y-63084999D02*
X112064001Y-63084999D01*
X110324999Y-62284001D02*
X111125997Y-63084999D01*
X180346055Y-75796340D02*
X180842649Y-76292934D01*
X110324999Y-57815001D02*
X110324999Y-62284001D01*
X111500000Y-56640000D02*
X110324999Y-57815001D01*
X158000000Y-58500000D02*
X158500000Y-59000000D01*
X156500000Y-58500000D02*
X158000000Y-58500000D01*
D20*
G36*
X113861928Y-55000000D02*
G01*
X113874188Y-55124482D01*
X113910498Y-55244180D01*
X113969463Y-55354494D01*
X114048815Y-55451185D01*
X114145506Y-55530537D01*
X114255820Y-55589502D01*
X114375518Y-55625812D01*
X114500000Y-55638072D01*
X118500000Y-55638072D01*
X118624482Y-55625812D01*
X118744180Y-55589502D01*
X118854494Y-55530537D01*
X118951185Y-55451185D01*
X119030537Y-55354494D01*
X119089502Y-55244180D01*
X119125812Y-55124482D01*
X119138072Y-55000000D01*
X119138072Y-54650000D01*
X124561928Y-54650000D01*
X124574188Y-54774482D01*
X124610498Y-54894180D01*
X124669463Y-55004494D01*
X124748815Y-55101185D01*
X124845506Y-55180537D01*
X124955820Y-55239502D01*
X125075518Y-55275812D01*
X125200000Y-55288072D01*
X125264250Y-55285000D01*
X125423000Y-55126250D01*
X125423000Y-54127000D01*
X124723750Y-54127000D01*
X124565000Y-54285750D01*
X124561928Y-54650000D01*
X119138072Y-54650000D01*
X119138072Y-53350000D01*
X124561928Y-53350000D01*
X124565000Y-53714250D01*
X124723750Y-53873000D01*
X125423000Y-53873000D01*
X125423000Y-52873750D01*
X125677000Y-52873750D01*
X125677000Y-53873000D01*
X125697000Y-53873000D01*
X125697000Y-54127000D01*
X125677000Y-54127000D01*
X125677000Y-55126250D01*
X125835750Y-55285000D01*
X125900000Y-55288072D01*
X126024482Y-55275812D01*
X126144180Y-55239502D01*
X126254494Y-55180537D01*
X126351185Y-55101185D01*
X126430537Y-55004494D01*
X126489502Y-54894180D01*
X126500000Y-54859573D01*
X126510498Y-54894180D01*
X126569463Y-55004494D01*
X126648815Y-55101185D01*
X126745506Y-55180537D01*
X126855820Y-55239502D01*
X126975518Y-55275812D01*
X127100000Y-55288072D01*
X127800000Y-55288072D01*
X127924482Y-55275812D01*
X128044180Y-55239502D01*
X128154494Y-55180537D01*
X128251185Y-55101185D01*
X128330537Y-55004494D01*
X128389502Y-54894180D01*
X128425812Y-54774482D01*
X128438072Y-54650000D01*
X128438072Y-54260000D01*
X128584962Y-54260000D01*
X128610498Y-54344180D01*
X128669463Y-54454494D01*
X128748815Y-54551185D01*
X128845506Y-54630537D01*
X128955820Y-54689502D01*
X129075518Y-54725812D01*
X129200000Y-54738072D01*
X129996824Y-54738072D01*
X129965000Y-54898061D01*
X129965000Y-55101939D01*
X130004774Y-55301898D01*
X130082795Y-55490256D01*
X130196063Y-55659774D01*
X130340226Y-55803937D01*
X130509744Y-55917205D01*
X130698102Y-55995226D01*
X130898061Y-56035000D01*
X131101939Y-56035000D01*
X131301898Y-55995226D01*
X131490256Y-55917205D01*
X131659774Y-55803937D01*
X131803937Y-55659774D01*
X131917205Y-55490256D01*
X131995226Y-55301898D01*
X132035000Y-55101939D01*
X132035000Y-54898061D01*
X132003176Y-54738072D01*
X132600000Y-54738072D01*
X132724482Y-54725812D01*
X132844180Y-54689502D01*
X132954494Y-54630537D01*
X133051185Y-54551185D01*
X133130537Y-54454494D01*
X133189502Y-54344180D01*
X133225812Y-54224482D01*
X133238072Y-54100000D01*
X133238072Y-52900000D01*
X133225812Y-52775518D01*
X133189502Y-52655820D01*
X133130537Y-52545506D01*
X133051185Y-52448815D01*
X132954494Y-52369463D01*
X132844180Y-52310498D01*
X132724482Y-52274188D01*
X132600000Y-52261928D01*
X131400000Y-52261928D01*
X131275518Y-52274188D01*
X131155820Y-52310498D01*
X131045506Y-52369463D01*
X130948815Y-52448815D01*
X130900000Y-52508296D01*
X130851185Y-52448815D01*
X130754494Y-52369463D01*
X130644180Y-52310498D01*
X130524482Y-52274188D01*
X130400000Y-52261928D01*
X129200000Y-52261928D01*
X129075518Y-52274188D01*
X128955820Y-52310498D01*
X128845506Y-52369463D01*
X128748815Y-52448815D01*
X128669463Y-52545506D01*
X128610498Y-52655820D01*
X128584962Y-52740000D01*
X127987325Y-52740000D01*
X127971455Y-52738437D01*
X127924482Y-52724188D01*
X127800000Y-52711928D01*
X127100000Y-52711928D01*
X126975518Y-52724188D01*
X126855820Y-52760498D01*
X126745506Y-52819463D01*
X126648815Y-52898815D01*
X126569463Y-52995506D01*
X126510498Y-53105820D01*
X126500000Y-53140427D01*
X126489502Y-53105820D01*
X126430537Y-52995506D01*
X126351185Y-52898815D01*
X126254494Y-52819463D01*
X126144180Y-52760498D01*
X126024482Y-52724188D01*
X125900000Y-52711928D01*
X125835750Y-52715000D01*
X125677000Y-52873750D01*
X125423000Y-52873750D01*
X125264250Y-52715000D01*
X125200000Y-52711928D01*
X125075518Y-52724188D01*
X124955820Y-52760498D01*
X124845506Y-52819463D01*
X124748815Y-52898815D01*
X124669463Y-52995506D01*
X124610498Y-53105820D01*
X124574188Y-53225518D01*
X124561928Y-53350000D01*
X119138072Y-53350000D01*
X119138072Y-51127000D01*
X147361928Y-51127000D01*
X147361928Y-55000000D01*
X147374188Y-55124482D01*
X147410498Y-55244180D01*
X147469463Y-55354494D01*
X147548815Y-55451185D01*
X147645506Y-55530537D01*
X147755820Y-55589502D01*
X147875518Y-55625812D01*
X148000000Y-55638072D01*
X152000000Y-55638072D01*
X152124482Y-55625812D01*
X152244180Y-55589502D01*
X152354494Y-55530537D01*
X152451185Y-55451185D01*
X152530537Y-55354494D01*
X152589502Y-55244180D01*
X152625812Y-55124482D01*
X152638072Y-55000000D01*
X152638072Y-51127000D01*
X182361928Y-51127000D01*
X182361928Y-55000000D01*
X182374188Y-55124482D01*
X182410498Y-55244180D01*
X182469463Y-55354494D01*
X182548815Y-55451185D01*
X182645506Y-55530537D01*
X182755820Y-55589502D01*
X182875518Y-55625812D01*
X183000000Y-55638072D01*
X186873000Y-55638072D01*
X186873000Y-77861928D01*
X183500000Y-77861928D01*
X183375518Y-77874188D01*
X183255820Y-77910498D01*
X183145506Y-77969463D01*
X183048815Y-78048815D01*
X182969463Y-78145506D01*
X182910498Y-78255820D01*
X182874188Y-78375518D01*
X182861928Y-78500000D01*
X182861928Y-82373000D01*
X154080689Y-82373000D01*
X155153689Y-81300000D01*
X160211928Y-81300000D01*
X160224188Y-81424482D01*
X160260498Y-81544180D01*
X160319463Y-81654494D01*
X160398815Y-81751185D01*
X160495506Y-81830537D01*
X160605820Y-81889502D01*
X160725518Y-81925812D01*
X160850000Y-81938072D01*
X161214250Y-81935000D01*
X161373000Y-81776250D01*
X161373000Y-81077000D01*
X161627000Y-81077000D01*
X161627000Y-81776250D01*
X161785750Y-81935000D01*
X162150000Y-81938072D01*
X162274482Y-81925812D01*
X162394180Y-81889502D01*
X162504494Y-81830537D01*
X162601185Y-81751185D01*
X162680537Y-81654494D01*
X162739502Y-81544180D01*
X162775812Y-81424482D01*
X162788072Y-81300000D01*
X162785000Y-81235750D01*
X162626250Y-81077000D01*
X161627000Y-81077000D01*
X161373000Y-81077000D01*
X160373750Y-81077000D01*
X160215000Y-81235750D01*
X160211928Y-81300000D01*
X155153689Y-81300000D01*
X157740717Y-78712974D01*
X158351387Y-79440742D01*
X158440794Y-79528219D01*
X158545549Y-79596574D01*
X158661627Y-79643178D01*
X158784566Y-79666241D01*
X158909643Y-79664877D01*
X159032050Y-79639137D01*
X159147084Y-79590012D01*
X159204658Y-79550626D01*
X159215035Y-79561003D01*
X159238833Y-79590001D01*
X159354558Y-79684974D01*
X159486587Y-79755546D01*
X159629848Y-79799003D01*
X159741501Y-79810000D01*
X159741510Y-79810000D01*
X159778833Y-79813676D01*
X159816156Y-79810000D01*
X160365015Y-79810000D01*
X160398815Y-79851185D01*
X160495506Y-79930537D01*
X160605820Y-79989502D01*
X160640427Y-80000000D01*
X160605820Y-80010498D01*
X160495506Y-80069463D01*
X160398815Y-80148815D01*
X160319463Y-80245506D01*
X160260498Y-80355820D01*
X160224188Y-80475518D01*
X160211928Y-80600000D01*
X160215000Y-80664250D01*
X160373750Y-80823000D01*
X161373000Y-80823000D01*
X161373000Y-80803000D01*
X161627000Y-80803000D01*
X161627000Y-80823000D01*
X162626250Y-80823000D01*
X162785000Y-80664250D01*
X162785681Y-80650000D01*
X174511928Y-80650000D01*
X174524188Y-80774482D01*
X174560498Y-80894180D01*
X174619463Y-81004494D01*
X174698815Y-81101185D01*
X174795506Y-81180537D01*
X174905820Y-81239502D01*
X175025518Y-81275812D01*
X175150000Y-81288072D01*
X175214250Y-81285000D01*
X175373000Y-81126250D01*
X175373000Y-80127000D01*
X174673750Y-80127000D01*
X174515000Y-80285750D01*
X174511928Y-80650000D01*
X162785681Y-80650000D01*
X162788072Y-80600000D01*
X162775812Y-80475518D01*
X162739502Y-80355820D01*
X162680537Y-80245506D01*
X162601185Y-80148815D01*
X162504494Y-80069463D01*
X162394180Y-80010498D01*
X162359573Y-80000000D01*
X162394180Y-79989502D01*
X162504494Y-79930537D01*
X162601185Y-79851185D01*
X162680537Y-79754494D01*
X162739502Y-79644180D01*
X162775812Y-79524482D01*
X162788072Y-79400000D01*
X162788072Y-79350000D01*
X174511928Y-79350000D01*
X174515000Y-79714250D01*
X174673750Y-79873000D01*
X175373000Y-79873000D01*
X175373000Y-78873750D01*
X175214250Y-78715000D01*
X175150000Y-78711928D01*
X175025518Y-78724188D01*
X174905820Y-78760498D01*
X174795506Y-78819463D01*
X174698815Y-78898815D01*
X174619463Y-78995506D01*
X174560498Y-79105820D01*
X174524188Y-79225518D01*
X174511928Y-79350000D01*
X162788072Y-79350000D01*
X162788072Y-78700000D01*
X162775812Y-78575518D01*
X162739502Y-78455820D01*
X162680537Y-78345506D01*
X162601185Y-78248815D01*
X162504494Y-78169463D01*
X162394180Y-78110498D01*
X162274482Y-78074188D01*
X162150000Y-78061928D01*
X160850000Y-78061928D01*
X160725518Y-78074188D01*
X160605820Y-78110498D01*
X160495506Y-78169463D01*
X160398815Y-78248815D01*
X160394413Y-78254179D01*
X160393711Y-78189787D01*
X160367971Y-78067380D01*
X160318846Y-77952346D01*
X160248222Y-77849107D01*
X159755172Y-77261513D01*
X177796300Y-77261513D01*
X177746075Y-77338483D01*
X177699471Y-77454561D01*
X177676408Y-77577500D01*
X177677772Y-77702577D01*
X177703512Y-77824984D01*
X177752637Y-77940018D01*
X177792023Y-77997593D01*
X177077688Y-78711928D01*
X177050000Y-78711928D01*
X176925518Y-78724188D01*
X176805820Y-78760498D01*
X176695506Y-78819463D01*
X176598815Y-78898815D01*
X176519463Y-78995506D01*
X176460498Y-79105820D01*
X176450000Y-79140427D01*
X176439502Y-79105820D01*
X176380537Y-78995506D01*
X176301185Y-78898815D01*
X176204494Y-78819463D01*
X176094180Y-78760498D01*
X175974482Y-78724188D01*
X175850000Y-78711928D01*
X175785750Y-78715000D01*
X175627000Y-78873750D01*
X175627000Y-79873000D01*
X175647000Y-79873000D01*
X175647000Y-80127000D01*
X175627000Y-80127000D01*
X175627000Y-81126250D01*
X175785750Y-81285000D01*
X175850000Y-81288072D01*
X175974482Y-81275812D01*
X176094180Y-81239502D01*
X176204494Y-81180537D01*
X176301185Y-81101185D01*
X176380537Y-81004494D01*
X176439502Y-80894180D01*
X176450000Y-80859573D01*
X176460498Y-80894180D01*
X176519463Y-81004494D01*
X176598815Y-81101185D01*
X176695506Y-81180537D01*
X176805820Y-81239502D01*
X176925518Y-81275812D01*
X177050000Y-81288072D01*
X177750000Y-81288072D01*
X177874482Y-81275812D01*
X177994180Y-81239502D01*
X178104494Y-81180537D01*
X178201185Y-81101185D01*
X178280537Y-81004494D01*
X178339502Y-80894180D01*
X178375812Y-80774482D01*
X178388072Y-80650000D01*
X178388072Y-79551146D01*
X178811678Y-79127540D01*
X178904846Y-79164946D01*
X179027785Y-79188009D01*
X179152862Y-79186645D01*
X179275269Y-79160905D01*
X179390303Y-79111780D01*
X179493542Y-79041156D01*
X180412795Y-78269811D01*
X180472772Y-78208511D01*
X180485084Y-78212246D01*
X180634070Y-78226920D01*
X180671403Y-78223243D01*
X181013906Y-78223243D01*
X181051228Y-78226919D01*
X181088550Y-78223243D01*
X181088561Y-78223243D01*
X181200214Y-78212246D01*
X181343475Y-78168789D01*
X181475504Y-78098217D01*
X181591229Y-78003244D01*
X181615032Y-77974241D01*
X182523961Y-77065312D01*
X182552959Y-77041514D01*
X182647932Y-76925789D01*
X182718504Y-76793760D01*
X182761961Y-76650499D01*
X182771859Y-76550000D01*
X182776635Y-76501513D01*
X182772958Y-76464180D01*
X182772958Y-76121688D01*
X182776635Y-76084355D01*
X182761961Y-75935369D01*
X182718504Y-75792108D01*
X182647932Y-75660079D01*
X182576757Y-75573352D01*
X182552959Y-75544354D01*
X182523962Y-75520557D01*
X181811228Y-74807824D01*
X181811228Y-70238022D01*
X181923000Y-70126250D01*
X181923000Y-69127000D01*
X181903000Y-69127000D01*
X181903000Y-68873000D01*
X181923000Y-68873000D01*
X181923000Y-68853000D01*
X182177000Y-68853000D01*
X182177000Y-68873000D01*
X182197000Y-68873000D01*
X182197000Y-69127000D01*
X182177000Y-69127000D01*
X182177000Y-70126250D01*
X182335750Y-70285000D01*
X182400000Y-70288072D01*
X182524482Y-70275812D01*
X182644180Y-70239502D01*
X182754494Y-70180537D01*
X182851185Y-70101185D01*
X182930537Y-70004494D01*
X182989502Y-69894180D01*
X183000000Y-69859573D01*
X183010498Y-69894180D01*
X183069463Y-70004494D01*
X183148815Y-70101185D01*
X183245506Y-70180537D01*
X183355820Y-70239502D01*
X183475518Y-70275812D01*
X183600000Y-70288072D01*
X184300000Y-70288072D01*
X184424482Y-70275812D01*
X184544180Y-70239502D01*
X184654494Y-70180537D01*
X184751185Y-70101185D01*
X184830537Y-70004494D01*
X184889502Y-69894180D01*
X184925812Y-69774482D01*
X184938072Y-69650000D01*
X184938072Y-68350000D01*
X184925812Y-68225518D01*
X184889502Y-68105820D01*
X184830537Y-67995506D01*
X184751185Y-67898815D01*
X184654494Y-67819463D01*
X184544180Y-67760498D01*
X184424482Y-67724188D01*
X184300000Y-67711928D01*
X184036729Y-67711928D01*
X183913803Y-67589002D01*
X183890001Y-67559999D01*
X183774276Y-67465026D01*
X183642247Y-67394454D01*
X183498986Y-67350997D01*
X183387333Y-67340000D01*
X183387322Y-67340000D01*
X183362342Y-67337540D01*
X183260000Y-67235198D01*
X183260000Y-65715038D01*
X183344180Y-65689502D01*
X183454494Y-65630537D01*
X183551185Y-65551185D01*
X183630537Y-65454494D01*
X183689502Y-65344180D01*
X183725812Y-65224482D01*
X183738072Y-65100000D01*
X183738072Y-63900000D01*
X183725812Y-63775518D01*
X183689502Y-63655820D01*
X183630537Y-63545506D01*
X183551185Y-63448815D01*
X183491704Y-63400000D01*
X183551185Y-63351185D01*
X183630537Y-63254494D01*
X183689502Y-63144180D01*
X183725812Y-63024482D01*
X183738072Y-62900000D01*
X183738072Y-61700000D01*
X183725812Y-61575518D01*
X183689502Y-61455820D01*
X183630537Y-61345506D01*
X183551185Y-61248815D01*
X183454494Y-61169463D01*
X183344180Y-61110498D01*
X183224482Y-61074188D01*
X183100000Y-61061928D01*
X181900000Y-61061928D01*
X181775518Y-61074188D01*
X181655820Y-61110498D01*
X181545506Y-61169463D01*
X181448815Y-61248815D01*
X181369463Y-61345506D01*
X181310498Y-61455820D01*
X181274188Y-61575518D01*
X181267576Y-61642655D01*
X181225724Y-61665026D01*
X181225722Y-61665027D01*
X181225723Y-61665027D01*
X181138996Y-61736201D01*
X181138992Y-61736205D01*
X181109999Y-61759999D01*
X181086205Y-61788992D01*
X180540230Y-62334969D01*
X180511227Y-62358771D01*
X180457470Y-62424275D01*
X180416254Y-62474496D01*
X180388726Y-62525997D01*
X180345682Y-62606526D01*
X180302225Y-62749787D01*
X180291228Y-62861440D01*
X180291228Y-62861450D01*
X180287552Y-62898772D01*
X180291228Y-62936094D01*
X180291229Y-74666712D01*
X168388518Y-62764002D01*
X168364715Y-62734998D01*
X168248990Y-62640025D01*
X168116961Y-62569453D01*
X167973700Y-62525996D01*
X167862047Y-62514999D01*
X167862036Y-62514999D01*
X167824714Y-62511323D01*
X167787392Y-62514999D01*
X156738072Y-62514999D01*
X156738072Y-61400000D01*
X156736897Y-61388072D01*
X157150000Y-61388072D01*
X157274482Y-61375812D01*
X157394180Y-61339502D01*
X157504494Y-61280537D01*
X157601185Y-61201185D01*
X157680537Y-61104494D01*
X157739502Y-60994180D01*
X157775812Y-60874482D01*
X157788072Y-60750000D01*
X157788072Y-60050000D01*
X157775812Y-59925518D01*
X157739502Y-59805820D01*
X157680537Y-59695506D01*
X157601185Y-59598815D01*
X157504494Y-59519463D01*
X157394180Y-59460498D01*
X157359573Y-59450000D01*
X157394180Y-59439502D01*
X157504494Y-59380537D01*
X157601185Y-59301185D01*
X157680537Y-59204494D01*
X157739502Y-59094180D01*
X157775812Y-58974482D01*
X157788072Y-58850000D01*
X157785000Y-58785750D01*
X157626252Y-58627002D01*
X157785000Y-58627002D01*
X157785000Y-58584999D01*
X162587679Y-58584999D01*
X162625001Y-58588675D01*
X162662323Y-58584999D01*
X162662334Y-58584999D01*
X162773987Y-58574002D01*
X162917248Y-58530545D01*
X163049277Y-58459973D01*
X163165002Y-58365000D01*
X163188805Y-58335996D01*
X166877281Y-54647521D01*
X166955820Y-54689502D01*
X167075518Y-54725812D01*
X167200000Y-54738072D01*
X168400000Y-54738072D01*
X168524482Y-54725812D01*
X168644180Y-54689502D01*
X168754494Y-54630537D01*
X168851185Y-54551185D01*
X168900000Y-54491704D01*
X168948815Y-54551185D01*
X169045506Y-54630537D01*
X169155820Y-54689502D01*
X169275518Y-54725812D01*
X169400000Y-54738072D01*
X170600000Y-54738072D01*
X170724482Y-54725812D01*
X170844180Y-54689502D01*
X170954494Y-54630537D01*
X171051185Y-54551185D01*
X171130537Y-54454494D01*
X171189502Y-54344180D01*
X171215038Y-54260000D01*
X171511928Y-54260000D01*
X171511928Y-54650000D01*
X171524188Y-54774482D01*
X171560498Y-54894180D01*
X171619463Y-55004494D01*
X171698815Y-55101185D01*
X171795506Y-55180537D01*
X171905820Y-55239502D01*
X172025518Y-55275812D01*
X172150000Y-55288072D01*
X172850000Y-55288072D01*
X172974482Y-55275812D01*
X173094180Y-55239502D01*
X173204494Y-55180537D01*
X173301185Y-55101185D01*
X173380537Y-55004494D01*
X173439502Y-54894180D01*
X173450000Y-54859573D01*
X173460498Y-54894180D01*
X173519463Y-55004494D01*
X173598815Y-55101185D01*
X173695506Y-55180537D01*
X173805820Y-55239502D01*
X173925518Y-55275812D01*
X174050000Y-55288072D01*
X174114250Y-55285000D01*
X174273000Y-55126250D01*
X174273000Y-54127000D01*
X174527000Y-54127000D01*
X174527000Y-55126250D01*
X174685750Y-55285000D01*
X174750000Y-55288072D01*
X174874482Y-55275812D01*
X174994180Y-55239502D01*
X175104494Y-55180537D01*
X175201185Y-55101185D01*
X175280537Y-55004494D01*
X175339502Y-54894180D01*
X175375812Y-54774482D01*
X175388072Y-54650000D01*
X175385000Y-54285750D01*
X175226250Y-54127000D01*
X174527000Y-54127000D01*
X174273000Y-54127000D01*
X174253000Y-54127000D01*
X174253000Y-53873000D01*
X174273000Y-53873000D01*
X174273000Y-52873750D01*
X174527000Y-52873750D01*
X174527000Y-53873000D01*
X175226250Y-53873000D01*
X175385000Y-53714250D01*
X175388072Y-53350000D01*
X175375812Y-53225518D01*
X175339502Y-53105820D01*
X175280537Y-52995506D01*
X175201185Y-52898815D01*
X175104494Y-52819463D01*
X174994180Y-52760498D01*
X174874482Y-52724188D01*
X174750000Y-52711928D01*
X174685750Y-52715000D01*
X174527000Y-52873750D01*
X174273000Y-52873750D01*
X174114250Y-52715000D01*
X174050000Y-52711928D01*
X173925518Y-52724188D01*
X173805820Y-52760498D01*
X173695506Y-52819463D01*
X173598815Y-52898815D01*
X173519463Y-52995506D01*
X173460498Y-53105820D01*
X173450000Y-53140427D01*
X173439502Y-53105820D01*
X173380537Y-52995506D01*
X173301185Y-52898815D01*
X173204494Y-52819463D01*
X173094180Y-52760498D01*
X172974482Y-52724188D01*
X172850000Y-52711928D01*
X172150000Y-52711928D01*
X172025518Y-52724188D01*
X171978545Y-52738437D01*
X171962678Y-52740000D01*
X171215038Y-52740000D01*
X171189502Y-52655820D01*
X171130537Y-52545506D01*
X171051185Y-52448815D01*
X170954494Y-52369463D01*
X170844180Y-52310498D01*
X170724482Y-52274188D01*
X170600000Y-52261928D01*
X169400000Y-52261928D01*
X169275518Y-52274188D01*
X169155820Y-52310498D01*
X169045506Y-52369463D01*
X168948815Y-52448815D01*
X168900000Y-52508296D01*
X168851185Y-52448815D01*
X168754494Y-52369463D01*
X168644180Y-52310498D01*
X168524482Y-52274188D01*
X168400000Y-52261928D01*
X167200000Y-52261928D01*
X167075518Y-52274188D01*
X166955820Y-52310498D01*
X166845506Y-52369463D01*
X166748815Y-52448815D01*
X166669463Y-52545506D01*
X166610498Y-52655820D01*
X166574188Y-52775518D01*
X166567576Y-52842655D01*
X166525724Y-52865026D01*
X166409999Y-52959999D01*
X166386201Y-52988997D01*
X162310200Y-57064999D01*
X115432323Y-57064999D01*
X115395000Y-57061323D01*
X115357677Y-57064999D01*
X115357668Y-57064999D01*
X115246015Y-57075996D01*
X115102754Y-57119453D01*
X114970725Y-57190025D01*
X114855000Y-57284998D01*
X114831202Y-57313996D01*
X112989765Y-59155433D01*
X112963513Y-58888889D01*
X112940797Y-58814005D01*
X113186004Y-58568798D01*
X113215002Y-58545000D01*
X113309975Y-58429275D01*
X113380547Y-58297246D01*
X113424004Y-58153985D01*
X113435001Y-58042332D01*
X113435001Y-58042323D01*
X113438677Y-58005000D01*
X113435001Y-57967677D01*
X113435001Y-56113321D01*
X113438677Y-56075998D01*
X113435001Y-56038675D01*
X113435001Y-56038666D01*
X113424004Y-55927013D01*
X113380547Y-55783752D01*
X113309975Y-55651723D01*
X113215002Y-55535998D01*
X113186005Y-55512201D01*
X112672987Y-54999183D01*
X112771641Y-54866920D01*
X112896825Y-54604099D01*
X112941476Y-54456890D01*
X112820155Y-54227000D01*
X111627000Y-54227000D01*
X111627000Y-54247000D01*
X111373000Y-54247000D01*
X111373000Y-54227000D01*
X110179845Y-54227000D01*
X110058524Y-54456890D01*
X110103175Y-54604099D01*
X110228359Y-54866920D01*
X110245841Y-54890357D01*
X109627000Y-55509198D01*
X109627000Y-53743110D01*
X110058524Y-53743110D01*
X110179845Y-53973000D01*
X111373000Y-53973000D01*
X111373000Y-52779186D01*
X111627000Y-52779186D01*
X111627000Y-53973000D01*
X112820155Y-53973000D01*
X112941476Y-53743110D01*
X112896825Y-53595901D01*
X112771641Y-53333080D01*
X112597588Y-53099731D01*
X112381355Y-52904822D01*
X112131252Y-52755843D01*
X111856891Y-52658519D01*
X111627000Y-52779186D01*
X111373000Y-52779186D01*
X111143109Y-52658519D01*
X110868748Y-52755843D01*
X110618645Y-52904822D01*
X110402412Y-53099731D01*
X110228359Y-53333080D01*
X110103175Y-53595901D01*
X110058524Y-53743110D01*
X109627000Y-53743110D01*
X109627000Y-51127000D01*
X113861928Y-51127000D01*
X113861928Y-55000000D01*
X113861928Y-55000000D01*
G37*
X113861928Y-55000000D02*
X113874188Y-55124482D01*
X113910498Y-55244180D01*
X113969463Y-55354494D01*
X114048815Y-55451185D01*
X114145506Y-55530537D01*
X114255820Y-55589502D01*
X114375518Y-55625812D01*
X114500000Y-55638072D01*
X118500000Y-55638072D01*
X118624482Y-55625812D01*
X118744180Y-55589502D01*
X118854494Y-55530537D01*
X118951185Y-55451185D01*
X119030537Y-55354494D01*
X119089502Y-55244180D01*
X119125812Y-55124482D01*
X119138072Y-55000000D01*
X119138072Y-54650000D01*
X124561928Y-54650000D01*
X124574188Y-54774482D01*
X124610498Y-54894180D01*
X124669463Y-55004494D01*
X124748815Y-55101185D01*
X124845506Y-55180537D01*
X124955820Y-55239502D01*
X125075518Y-55275812D01*
X125200000Y-55288072D01*
X125264250Y-55285000D01*
X125423000Y-55126250D01*
X125423000Y-54127000D01*
X124723750Y-54127000D01*
X124565000Y-54285750D01*
X124561928Y-54650000D01*
X119138072Y-54650000D01*
X119138072Y-53350000D01*
X124561928Y-53350000D01*
X124565000Y-53714250D01*
X124723750Y-53873000D01*
X125423000Y-53873000D01*
X125423000Y-52873750D01*
X125677000Y-52873750D01*
X125677000Y-53873000D01*
X125697000Y-53873000D01*
X125697000Y-54127000D01*
X125677000Y-54127000D01*
X125677000Y-55126250D01*
X125835750Y-55285000D01*
X125900000Y-55288072D01*
X126024482Y-55275812D01*
X126144180Y-55239502D01*
X126254494Y-55180537D01*
X126351185Y-55101185D01*
X126430537Y-55004494D01*
X126489502Y-54894180D01*
X126500000Y-54859573D01*
X126510498Y-54894180D01*
X126569463Y-55004494D01*
X126648815Y-55101185D01*
X126745506Y-55180537D01*
X126855820Y-55239502D01*
X126975518Y-55275812D01*
X127100000Y-55288072D01*
X127800000Y-55288072D01*
X127924482Y-55275812D01*
X128044180Y-55239502D01*
X128154494Y-55180537D01*
X128251185Y-55101185D01*
X128330537Y-55004494D01*
X128389502Y-54894180D01*
X128425812Y-54774482D01*
X128438072Y-54650000D01*
X128438072Y-54260000D01*
X128584962Y-54260000D01*
X128610498Y-54344180D01*
X128669463Y-54454494D01*
X128748815Y-54551185D01*
X128845506Y-54630537D01*
X128955820Y-54689502D01*
X129075518Y-54725812D01*
X129200000Y-54738072D01*
X129996824Y-54738072D01*
X129965000Y-54898061D01*
X129965000Y-55101939D01*
X130004774Y-55301898D01*
X130082795Y-55490256D01*
X130196063Y-55659774D01*
X130340226Y-55803937D01*
X130509744Y-55917205D01*
X130698102Y-55995226D01*
X130898061Y-56035000D01*
X131101939Y-56035000D01*
X131301898Y-55995226D01*
X131490256Y-55917205D01*
X131659774Y-55803937D01*
X131803937Y-55659774D01*
X131917205Y-55490256D01*
X131995226Y-55301898D01*
X132035000Y-55101939D01*
X132035000Y-54898061D01*
X132003176Y-54738072D01*
X132600000Y-54738072D01*
X132724482Y-54725812D01*
X132844180Y-54689502D01*
X132954494Y-54630537D01*
X133051185Y-54551185D01*
X133130537Y-54454494D01*
X133189502Y-54344180D01*
X133225812Y-54224482D01*
X133238072Y-54100000D01*
X133238072Y-52900000D01*
X133225812Y-52775518D01*
X133189502Y-52655820D01*
X133130537Y-52545506D01*
X133051185Y-52448815D01*
X132954494Y-52369463D01*
X132844180Y-52310498D01*
X132724482Y-52274188D01*
X132600000Y-52261928D01*
X131400000Y-52261928D01*
X131275518Y-52274188D01*
X131155820Y-52310498D01*
X131045506Y-52369463D01*
X130948815Y-52448815D01*
X130900000Y-52508296D01*
X130851185Y-52448815D01*
X130754494Y-52369463D01*
X130644180Y-52310498D01*
X130524482Y-52274188D01*
X130400000Y-52261928D01*
X129200000Y-52261928D01*
X129075518Y-52274188D01*
X128955820Y-52310498D01*
X128845506Y-52369463D01*
X128748815Y-52448815D01*
X128669463Y-52545506D01*
X128610498Y-52655820D01*
X128584962Y-52740000D01*
X127987325Y-52740000D01*
X127971455Y-52738437D01*
X127924482Y-52724188D01*
X127800000Y-52711928D01*
X127100000Y-52711928D01*
X126975518Y-52724188D01*
X126855820Y-52760498D01*
X126745506Y-52819463D01*
X126648815Y-52898815D01*
X126569463Y-52995506D01*
X126510498Y-53105820D01*
X126500000Y-53140427D01*
X126489502Y-53105820D01*
X126430537Y-52995506D01*
X126351185Y-52898815D01*
X126254494Y-52819463D01*
X126144180Y-52760498D01*
X126024482Y-52724188D01*
X125900000Y-52711928D01*
X125835750Y-52715000D01*
X125677000Y-52873750D01*
X125423000Y-52873750D01*
X125264250Y-52715000D01*
X125200000Y-52711928D01*
X125075518Y-52724188D01*
X124955820Y-52760498D01*
X124845506Y-52819463D01*
X124748815Y-52898815D01*
X124669463Y-52995506D01*
X124610498Y-53105820D01*
X124574188Y-53225518D01*
X124561928Y-53350000D01*
X119138072Y-53350000D01*
X119138072Y-51127000D01*
X147361928Y-51127000D01*
X147361928Y-55000000D01*
X147374188Y-55124482D01*
X147410498Y-55244180D01*
X147469463Y-55354494D01*
X147548815Y-55451185D01*
X147645506Y-55530537D01*
X147755820Y-55589502D01*
X147875518Y-55625812D01*
X148000000Y-55638072D01*
X152000000Y-55638072D01*
X152124482Y-55625812D01*
X152244180Y-55589502D01*
X152354494Y-55530537D01*
X152451185Y-55451185D01*
X152530537Y-55354494D01*
X152589502Y-55244180D01*
X152625812Y-55124482D01*
X152638072Y-55000000D01*
X152638072Y-51127000D01*
X182361928Y-51127000D01*
X182361928Y-55000000D01*
X182374188Y-55124482D01*
X182410498Y-55244180D01*
X182469463Y-55354494D01*
X182548815Y-55451185D01*
X182645506Y-55530537D01*
X182755820Y-55589502D01*
X182875518Y-55625812D01*
X183000000Y-55638072D01*
X186873000Y-55638072D01*
X186873000Y-77861928D01*
X183500000Y-77861928D01*
X183375518Y-77874188D01*
X183255820Y-77910498D01*
X183145506Y-77969463D01*
X183048815Y-78048815D01*
X182969463Y-78145506D01*
X182910498Y-78255820D01*
X182874188Y-78375518D01*
X182861928Y-78500000D01*
X182861928Y-82373000D01*
X154080689Y-82373000D01*
X155153689Y-81300000D01*
X160211928Y-81300000D01*
X160224188Y-81424482D01*
X160260498Y-81544180D01*
X160319463Y-81654494D01*
X160398815Y-81751185D01*
X160495506Y-81830537D01*
X160605820Y-81889502D01*
X160725518Y-81925812D01*
X160850000Y-81938072D01*
X161214250Y-81935000D01*
X161373000Y-81776250D01*
X161373000Y-81077000D01*
X161627000Y-81077000D01*
X161627000Y-81776250D01*
X161785750Y-81935000D01*
X162150000Y-81938072D01*
X162274482Y-81925812D01*
X162394180Y-81889502D01*
X162504494Y-81830537D01*
X162601185Y-81751185D01*
X162680537Y-81654494D01*
X162739502Y-81544180D01*
X162775812Y-81424482D01*
X162788072Y-81300000D01*
X162785000Y-81235750D01*
X162626250Y-81077000D01*
X161627000Y-81077000D01*
X161373000Y-81077000D01*
X160373750Y-81077000D01*
X160215000Y-81235750D01*
X160211928Y-81300000D01*
X155153689Y-81300000D01*
X157740717Y-78712974D01*
X158351387Y-79440742D01*
X158440794Y-79528219D01*
X158545549Y-79596574D01*
X158661627Y-79643178D01*
X158784566Y-79666241D01*
X158909643Y-79664877D01*
X159032050Y-79639137D01*
X159147084Y-79590012D01*
X159204658Y-79550626D01*
X159215035Y-79561003D01*
X159238833Y-79590001D01*
X159354558Y-79684974D01*
X159486587Y-79755546D01*
X159629848Y-79799003D01*
X159741501Y-79810000D01*
X159741510Y-79810000D01*
X159778833Y-79813676D01*
X159816156Y-79810000D01*
X160365015Y-79810000D01*
X160398815Y-79851185D01*
X160495506Y-79930537D01*
X160605820Y-79989502D01*
X160640427Y-80000000D01*
X160605820Y-80010498D01*
X160495506Y-80069463D01*
X160398815Y-80148815D01*
X160319463Y-80245506D01*
X160260498Y-80355820D01*
X160224188Y-80475518D01*
X160211928Y-80600000D01*
X160215000Y-80664250D01*
X160373750Y-80823000D01*
X161373000Y-80823000D01*
X161373000Y-80803000D01*
X161627000Y-80803000D01*
X161627000Y-80823000D01*
X162626250Y-80823000D01*
X162785000Y-80664250D01*
X162785681Y-80650000D01*
X174511928Y-80650000D01*
X174524188Y-80774482D01*
X174560498Y-80894180D01*
X174619463Y-81004494D01*
X174698815Y-81101185D01*
X174795506Y-81180537D01*
X174905820Y-81239502D01*
X175025518Y-81275812D01*
X175150000Y-81288072D01*
X175214250Y-81285000D01*
X175373000Y-81126250D01*
X175373000Y-80127000D01*
X174673750Y-80127000D01*
X174515000Y-80285750D01*
X174511928Y-80650000D01*
X162785681Y-80650000D01*
X162788072Y-80600000D01*
X162775812Y-80475518D01*
X162739502Y-80355820D01*
X162680537Y-80245506D01*
X162601185Y-80148815D01*
X162504494Y-80069463D01*
X162394180Y-80010498D01*
X162359573Y-80000000D01*
X162394180Y-79989502D01*
X162504494Y-79930537D01*
X162601185Y-79851185D01*
X162680537Y-79754494D01*
X162739502Y-79644180D01*
X162775812Y-79524482D01*
X162788072Y-79400000D01*
X162788072Y-79350000D01*
X174511928Y-79350000D01*
X174515000Y-79714250D01*
X174673750Y-79873000D01*
X175373000Y-79873000D01*
X175373000Y-78873750D01*
X175214250Y-78715000D01*
X175150000Y-78711928D01*
X175025518Y-78724188D01*
X174905820Y-78760498D01*
X174795506Y-78819463D01*
X174698815Y-78898815D01*
X174619463Y-78995506D01*
X174560498Y-79105820D01*
X174524188Y-79225518D01*
X174511928Y-79350000D01*
X162788072Y-79350000D01*
X162788072Y-78700000D01*
X162775812Y-78575518D01*
X162739502Y-78455820D01*
X162680537Y-78345506D01*
X162601185Y-78248815D01*
X162504494Y-78169463D01*
X162394180Y-78110498D01*
X162274482Y-78074188D01*
X162150000Y-78061928D01*
X160850000Y-78061928D01*
X160725518Y-78074188D01*
X160605820Y-78110498D01*
X160495506Y-78169463D01*
X160398815Y-78248815D01*
X160394413Y-78254179D01*
X160393711Y-78189787D01*
X160367971Y-78067380D01*
X160318846Y-77952346D01*
X160248222Y-77849107D01*
X159755172Y-77261513D01*
X177796300Y-77261513D01*
X177746075Y-77338483D01*
X177699471Y-77454561D01*
X177676408Y-77577500D01*
X177677772Y-77702577D01*
X177703512Y-77824984D01*
X177752637Y-77940018D01*
X177792023Y-77997593D01*
X177077688Y-78711928D01*
X177050000Y-78711928D01*
X176925518Y-78724188D01*
X176805820Y-78760498D01*
X176695506Y-78819463D01*
X176598815Y-78898815D01*
X176519463Y-78995506D01*
X176460498Y-79105820D01*
X176450000Y-79140427D01*
X176439502Y-79105820D01*
X176380537Y-78995506D01*
X176301185Y-78898815D01*
X176204494Y-78819463D01*
X176094180Y-78760498D01*
X175974482Y-78724188D01*
X175850000Y-78711928D01*
X175785750Y-78715000D01*
X175627000Y-78873750D01*
X175627000Y-79873000D01*
X175647000Y-79873000D01*
X175647000Y-80127000D01*
X175627000Y-80127000D01*
X175627000Y-81126250D01*
X175785750Y-81285000D01*
X175850000Y-81288072D01*
X175974482Y-81275812D01*
X176094180Y-81239502D01*
X176204494Y-81180537D01*
X176301185Y-81101185D01*
X176380537Y-81004494D01*
X176439502Y-80894180D01*
X176450000Y-80859573D01*
X176460498Y-80894180D01*
X176519463Y-81004494D01*
X176598815Y-81101185D01*
X176695506Y-81180537D01*
X176805820Y-81239502D01*
X176925518Y-81275812D01*
X177050000Y-81288072D01*
X177750000Y-81288072D01*
X177874482Y-81275812D01*
X177994180Y-81239502D01*
X178104494Y-81180537D01*
X178201185Y-81101185D01*
X178280537Y-81004494D01*
X178339502Y-80894180D01*
X178375812Y-80774482D01*
X178388072Y-80650000D01*
X178388072Y-79551146D01*
X178811678Y-79127540D01*
X178904846Y-79164946D01*
X179027785Y-79188009D01*
X179152862Y-79186645D01*
X179275269Y-79160905D01*
X179390303Y-79111780D01*
X179493542Y-79041156D01*
X180412795Y-78269811D01*
X180472772Y-78208511D01*
X180485084Y-78212246D01*
X180634070Y-78226920D01*
X180671403Y-78223243D01*
X181013906Y-78223243D01*
X181051228Y-78226919D01*
X181088550Y-78223243D01*
X181088561Y-78223243D01*
X181200214Y-78212246D01*
X181343475Y-78168789D01*
X181475504Y-78098217D01*
X181591229Y-78003244D01*
X181615032Y-77974241D01*
X182523961Y-77065312D01*
X182552959Y-77041514D01*
X182647932Y-76925789D01*
X182718504Y-76793760D01*
X182761961Y-76650499D01*
X182771859Y-76550000D01*
X182776635Y-76501513D01*
X182772958Y-76464180D01*
X182772958Y-76121688D01*
X182776635Y-76084355D01*
X182761961Y-75935369D01*
X182718504Y-75792108D01*
X182647932Y-75660079D01*
X182576757Y-75573352D01*
X182552959Y-75544354D01*
X182523962Y-75520557D01*
X181811228Y-74807824D01*
X181811228Y-70238022D01*
X181923000Y-70126250D01*
X181923000Y-69127000D01*
X181903000Y-69127000D01*
X181903000Y-68873000D01*
X181923000Y-68873000D01*
X181923000Y-68853000D01*
X182177000Y-68853000D01*
X182177000Y-68873000D01*
X182197000Y-68873000D01*
X182197000Y-69127000D01*
X182177000Y-69127000D01*
X182177000Y-70126250D01*
X182335750Y-70285000D01*
X182400000Y-70288072D01*
X182524482Y-70275812D01*
X182644180Y-70239502D01*
X182754494Y-70180537D01*
X182851185Y-70101185D01*
X182930537Y-70004494D01*
X182989502Y-69894180D01*
X183000000Y-69859573D01*
X183010498Y-69894180D01*
X183069463Y-70004494D01*
X183148815Y-70101185D01*
X183245506Y-70180537D01*
X183355820Y-70239502D01*
X183475518Y-70275812D01*
X183600000Y-70288072D01*
X184300000Y-70288072D01*
X184424482Y-70275812D01*
X184544180Y-70239502D01*
X184654494Y-70180537D01*
X184751185Y-70101185D01*
X184830537Y-70004494D01*
X184889502Y-69894180D01*
X184925812Y-69774482D01*
X184938072Y-69650000D01*
X184938072Y-68350000D01*
X184925812Y-68225518D01*
X184889502Y-68105820D01*
X184830537Y-67995506D01*
X184751185Y-67898815D01*
X184654494Y-67819463D01*
X184544180Y-67760498D01*
X184424482Y-67724188D01*
X184300000Y-67711928D01*
X184036729Y-67711928D01*
X183913803Y-67589002D01*
X183890001Y-67559999D01*
X183774276Y-67465026D01*
X183642247Y-67394454D01*
X183498986Y-67350997D01*
X183387333Y-67340000D01*
X183387322Y-67340000D01*
X183362342Y-67337540D01*
X183260000Y-67235198D01*
X183260000Y-65715038D01*
X183344180Y-65689502D01*
X183454494Y-65630537D01*
X183551185Y-65551185D01*
X183630537Y-65454494D01*
X183689502Y-65344180D01*
X183725812Y-65224482D01*
X183738072Y-65100000D01*
X183738072Y-63900000D01*
X183725812Y-63775518D01*
X183689502Y-63655820D01*
X183630537Y-63545506D01*
X183551185Y-63448815D01*
X183491704Y-63400000D01*
X183551185Y-63351185D01*
X183630537Y-63254494D01*
X183689502Y-63144180D01*
X183725812Y-63024482D01*
X183738072Y-62900000D01*
X183738072Y-61700000D01*
X183725812Y-61575518D01*
X183689502Y-61455820D01*
X183630537Y-61345506D01*
X183551185Y-61248815D01*
X183454494Y-61169463D01*
X183344180Y-61110498D01*
X183224482Y-61074188D01*
X183100000Y-61061928D01*
X181900000Y-61061928D01*
X181775518Y-61074188D01*
X181655820Y-61110498D01*
X181545506Y-61169463D01*
X181448815Y-61248815D01*
X181369463Y-61345506D01*
X181310498Y-61455820D01*
X181274188Y-61575518D01*
X181267576Y-61642655D01*
X181225724Y-61665026D01*
X181225722Y-61665027D01*
X181225723Y-61665027D01*
X181138996Y-61736201D01*
X181138992Y-61736205D01*
X181109999Y-61759999D01*
X181086205Y-61788992D01*
X180540230Y-62334969D01*
X180511227Y-62358771D01*
X180457470Y-62424275D01*
X180416254Y-62474496D01*
X180388726Y-62525997D01*
X180345682Y-62606526D01*
X180302225Y-62749787D01*
X180291228Y-62861440D01*
X180291228Y-62861450D01*
X180287552Y-62898772D01*
X180291228Y-62936094D01*
X180291229Y-74666712D01*
X168388518Y-62764002D01*
X168364715Y-62734998D01*
X168248990Y-62640025D01*
X168116961Y-62569453D01*
X167973700Y-62525996D01*
X167862047Y-62514999D01*
X167862036Y-62514999D01*
X167824714Y-62511323D01*
X167787392Y-62514999D01*
X156738072Y-62514999D01*
X156738072Y-61400000D01*
X156736897Y-61388072D01*
X157150000Y-61388072D01*
X157274482Y-61375812D01*
X157394180Y-61339502D01*
X157504494Y-61280537D01*
X157601185Y-61201185D01*
X157680537Y-61104494D01*
X157739502Y-60994180D01*
X157775812Y-60874482D01*
X157788072Y-60750000D01*
X157788072Y-60050000D01*
X157775812Y-59925518D01*
X157739502Y-59805820D01*
X157680537Y-59695506D01*
X157601185Y-59598815D01*
X157504494Y-59519463D01*
X157394180Y-59460498D01*
X157359573Y-59450000D01*
X157394180Y-59439502D01*
X157504494Y-59380537D01*
X157601185Y-59301185D01*
X157680537Y-59204494D01*
X157739502Y-59094180D01*
X157775812Y-58974482D01*
X157788072Y-58850000D01*
X157785000Y-58785750D01*
X157626252Y-58627002D01*
X157785000Y-58627002D01*
X157785000Y-58584999D01*
X162587679Y-58584999D01*
X162625001Y-58588675D01*
X162662323Y-58584999D01*
X162662334Y-58584999D01*
X162773987Y-58574002D01*
X162917248Y-58530545D01*
X163049277Y-58459973D01*
X163165002Y-58365000D01*
X163188805Y-58335996D01*
X166877281Y-54647521D01*
X166955820Y-54689502D01*
X167075518Y-54725812D01*
X167200000Y-54738072D01*
X168400000Y-54738072D01*
X168524482Y-54725812D01*
X168644180Y-54689502D01*
X168754494Y-54630537D01*
X168851185Y-54551185D01*
X168900000Y-54491704D01*
X168948815Y-54551185D01*
X169045506Y-54630537D01*
X169155820Y-54689502D01*
X169275518Y-54725812D01*
X169400000Y-54738072D01*
X170600000Y-54738072D01*
X170724482Y-54725812D01*
X170844180Y-54689502D01*
X170954494Y-54630537D01*
X171051185Y-54551185D01*
X171130537Y-54454494D01*
X171189502Y-54344180D01*
X171215038Y-54260000D01*
X171511928Y-54260000D01*
X171511928Y-54650000D01*
X171524188Y-54774482D01*
X171560498Y-54894180D01*
X171619463Y-55004494D01*
X171698815Y-55101185D01*
X171795506Y-55180537D01*
X171905820Y-55239502D01*
X172025518Y-55275812D01*
X172150000Y-55288072D01*
X172850000Y-55288072D01*
X172974482Y-55275812D01*
X173094180Y-55239502D01*
X173204494Y-55180537D01*
X173301185Y-55101185D01*
X173380537Y-55004494D01*
X173439502Y-54894180D01*
X173450000Y-54859573D01*
X173460498Y-54894180D01*
X173519463Y-55004494D01*
X173598815Y-55101185D01*
X173695506Y-55180537D01*
X173805820Y-55239502D01*
X173925518Y-55275812D01*
X174050000Y-55288072D01*
X174114250Y-55285000D01*
X174273000Y-55126250D01*
X174273000Y-54127000D01*
X174527000Y-54127000D01*
X174527000Y-55126250D01*
X174685750Y-55285000D01*
X174750000Y-55288072D01*
X174874482Y-55275812D01*
X174994180Y-55239502D01*
X175104494Y-55180537D01*
X175201185Y-55101185D01*
X175280537Y-55004494D01*
X175339502Y-54894180D01*
X175375812Y-54774482D01*
X175388072Y-54650000D01*
X175385000Y-54285750D01*
X175226250Y-54127000D01*
X174527000Y-54127000D01*
X174273000Y-54127000D01*
X174253000Y-54127000D01*
X174253000Y-53873000D01*
X174273000Y-53873000D01*
X174273000Y-52873750D01*
X174527000Y-52873750D01*
X174527000Y-53873000D01*
X175226250Y-53873000D01*
X175385000Y-53714250D01*
X175388072Y-53350000D01*
X175375812Y-53225518D01*
X175339502Y-53105820D01*
X175280537Y-52995506D01*
X175201185Y-52898815D01*
X175104494Y-52819463D01*
X174994180Y-52760498D01*
X174874482Y-52724188D01*
X174750000Y-52711928D01*
X174685750Y-52715000D01*
X174527000Y-52873750D01*
X174273000Y-52873750D01*
X174114250Y-52715000D01*
X174050000Y-52711928D01*
X173925518Y-52724188D01*
X173805820Y-52760498D01*
X173695506Y-52819463D01*
X173598815Y-52898815D01*
X173519463Y-52995506D01*
X173460498Y-53105820D01*
X173450000Y-53140427D01*
X173439502Y-53105820D01*
X173380537Y-52995506D01*
X173301185Y-52898815D01*
X173204494Y-52819463D01*
X173094180Y-52760498D01*
X172974482Y-52724188D01*
X172850000Y-52711928D01*
X172150000Y-52711928D01*
X172025518Y-52724188D01*
X171978545Y-52738437D01*
X171962678Y-52740000D01*
X171215038Y-52740000D01*
X171189502Y-52655820D01*
X171130537Y-52545506D01*
X171051185Y-52448815D01*
X170954494Y-52369463D01*
X170844180Y-52310498D01*
X170724482Y-52274188D01*
X170600000Y-52261928D01*
X169400000Y-52261928D01*
X169275518Y-52274188D01*
X169155820Y-52310498D01*
X169045506Y-52369463D01*
X168948815Y-52448815D01*
X168900000Y-52508296D01*
X168851185Y-52448815D01*
X168754494Y-52369463D01*
X168644180Y-52310498D01*
X168524482Y-52274188D01*
X168400000Y-52261928D01*
X167200000Y-52261928D01*
X167075518Y-52274188D01*
X166955820Y-52310498D01*
X166845506Y-52369463D01*
X166748815Y-52448815D01*
X166669463Y-52545506D01*
X166610498Y-52655820D01*
X166574188Y-52775518D01*
X166567576Y-52842655D01*
X166525724Y-52865026D01*
X166409999Y-52959999D01*
X166386201Y-52988997D01*
X162310200Y-57064999D01*
X115432323Y-57064999D01*
X115395000Y-57061323D01*
X115357677Y-57064999D01*
X115357668Y-57064999D01*
X115246015Y-57075996D01*
X115102754Y-57119453D01*
X114970725Y-57190025D01*
X114855000Y-57284998D01*
X114831202Y-57313996D01*
X112989765Y-59155433D01*
X112963513Y-58888889D01*
X112940797Y-58814005D01*
X113186004Y-58568798D01*
X113215002Y-58545000D01*
X113309975Y-58429275D01*
X113380547Y-58297246D01*
X113424004Y-58153985D01*
X113435001Y-58042332D01*
X113435001Y-58042323D01*
X113438677Y-58005000D01*
X113435001Y-57967677D01*
X113435001Y-56113321D01*
X113438677Y-56075998D01*
X113435001Y-56038675D01*
X113435001Y-56038666D01*
X113424004Y-55927013D01*
X113380547Y-55783752D01*
X113309975Y-55651723D01*
X113215002Y-55535998D01*
X113186005Y-55512201D01*
X112672987Y-54999183D01*
X112771641Y-54866920D01*
X112896825Y-54604099D01*
X112941476Y-54456890D01*
X112820155Y-54227000D01*
X111627000Y-54227000D01*
X111627000Y-54247000D01*
X111373000Y-54247000D01*
X111373000Y-54227000D01*
X110179845Y-54227000D01*
X110058524Y-54456890D01*
X110103175Y-54604099D01*
X110228359Y-54866920D01*
X110245841Y-54890357D01*
X109627000Y-55509198D01*
X109627000Y-53743110D01*
X110058524Y-53743110D01*
X110179845Y-53973000D01*
X111373000Y-53973000D01*
X111373000Y-52779186D01*
X111627000Y-52779186D01*
X111627000Y-53973000D01*
X112820155Y-53973000D01*
X112941476Y-53743110D01*
X112896825Y-53595901D01*
X112771641Y-53333080D01*
X112597588Y-53099731D01*
X112381355Y-52904822D01*
X112131252Y-52755843D01*
X111856891Y-52658519D01*
X111627000Y-52779186D01*
X111373000Y-52779186D01*
X111143109Y-52658519D01*
X110868748Y-52755843D01*
X110618645Y-52904822D01*
X110402412Y-53099731D01*
X110228359Y-53333080D01*
X110103175Y-53595901D01*
X110058524Y-53743110D01*
X109627000Y-53743110D01*
X109627000Y-51127000D01*
X113861928Y-51127000D01*
X113861928Y-55000000D01*
G36*
X154086205Y-64711008D02*
G01*
X154109999Y-64740001D01*
X154138992Y-64763795D01*
X154138996Y-64763799D01*
X154183108Y-64800000D01*
X154225724Y-64834974D01*
X154267576Y-64857345D01*
X154274188Y-64924482D01*
X154310498Y-65044180D01*
X154369463Y-65154494D01*
X154448815Y-65251185D01*
X154545506Y-65330537D01*
X154655820Y-65389502D01*
X154775518Y-65425812D01*
X154900000Y-65438072D01*
X156100000Y-65438072D01*
X156224482Y-65425812D01*
X156344180Y-65389502D01*
X156454494Y-65330537D01*
X156551185Y-65251185D01*
X156630537Y-65154494D01*
X156689502Y-65044180D01*
X156725812Y-64924482D01*
X156738072Y-64800000D01*
X156738072Y-64034999D01*
X167509913Y-64034999D01*
X179216426Y-75741513D01*
X158914697Y-75741513D01*
X158877374Y-75737837D01*
X158840051Y-75741513D01*
X158840042Y-75741513D01*
X158728389Y-75752510D01*
X158585128Y-75795967D01*
X158543917Y-75817995D01*
X158062745Y-75244556D01*
X157973338Y-75157079D01*
X157868583Y-75088724D01*
X157752505Y-75042120D01*
X157629566Y-75019057D01*
X157504489Y-75020421D01*
X157382082Y-75046161D01*
X157267048Y-75095286D01*
X157163809Y-75165910D01*
X156479635Y-75740000D01*
X149452320Y-75740000D01*
X149414997Y-75736324D01*
X149377674Y-75740000D01*
X149377665Y-75740000D01*
X149266012Y-75750997D01*
X149122751Y-75794454D01*
X148990722Y-75865026D01*
X148978593Y-75874980D01*
X148903994Y-75936201D01*
X148903990Y-75936205D01*
X148874997Y-75959999D01*
X148851203Y-75988992D01*
X144744590Y-80095607D01*
X141357766Y-80095607D01*
X141419958Y-80021489D01*
X141469749Y-79948704D01*
X141652862Y-79948704D01*
X141690184Y-79952380D01*
X141727506Y-79948704D01*
X141727517Y-79948704D01*
X141839170Y-79937707D01*
X141982431Y-79894250D01*
X142114460Y-79823678D01*
X142230185Y-79728705D01*
X142253988Y-79699701D01*
X144511004Y-77442686D01*
X144540001Y-77418889D01*
X144576445Y-77374482D01*
X144634974Y-77303165D01*
X144705546Y-77171135D01*
X144713680Y-77144321D01*
X144749003Y-77027874D01*
X144760000Y-76916221D01*
X144760000Y-76916212D01*
X144763676Y-76878889D01*
X144763480Y-76876896D01*
X144774482Y-76875812D01*
X144894180Y-76839502D01*
X145004494Y-76780537D01*
X145101185Y-76701185D01*
X145180537Y-76604494D01*
X145239502Y-76494180D01*
X145275812Y-76374482D01*
X145288072Y-76250000D01*
X145288072Y-75550000D01*
X145275812Y-75425518D01*
X145239502Y-75305820D01*
X145180537Y-75195506D01*
X145101185Y-75098815D01*
X145004494Y-75019463D01*
X144894180Y-74960498D01*
X144859573Y-74950000D01*
X144894180Y-74939502D01*
X145004494Y-74880537D01*
X145101185Y-74801185D01*
X145180537Y-74704494D01*
X145239502Y-74594180D01*
X145275812Y-74474482D01*
X145288072Y-74350000D01*
X145285000Y-74285750D01*
X145126250Y-74127000D01*
X144127000Y-74127000D01*
X144127000Y-74147000D01*
X143873000Y-74147000D01*
X143873000Y-74127000D01*
X142873750Y-74127000D01*
X142715000Y-74285750D01*
X142711928Y-74350000D01*
X142724188Y-74474482D01*
X142760498Y-74594180D01*
X142819463Y-74704494D01*
X142898815Y-74801185D01*
X142995506Y-74880537D01*
X143105820Y-74939502D01*
X143140427Y-74950000D01*
X143105820Y-74960498D01*
X142995506Y-75019463D01*
X142898815Y-75098815D01*
X142819463Y-75195506D01*
X142760498Y-75305820D01*
X142724188Y-75425518D01*
X142711928Y-75550000D01*
X142711928Y-76250000D01*
X142724188Y-76374482D01*
X142760498Y-76494180D01*
X142819463Y-76604494D01*
X142898815Y-76701185D01*
X142995506Y-76780537D01*
X143013781Y-76790305D01*
X142544138Y-77259948D01*
X141836191Y-76665910D01*
X141732952Y-76595286D01*
X141617918Y-76546161D01*
X141495511Y-76520421D01*
X141370434Y-76519057D01*
X141247495Y-76542120D01*
X141154328Y-76579526D01*
X138224802Y-73650000D01*
X142711928Y-73650000D01*
X142715000Y-73714250D01*
X142873750Y-73873000D01*
X143873000Y-73873000D01*
X143873000Y-73173750D01*
X144127000Y-73173750D01*
X144127000Y-73873000D01*
X145126250Y-73873000D01*
X145285000Y-73714250D01*
X145288072Y-73650000D01*
X145275812Y-73525518D01*
X145239502Y-73405820D01*
X145180537Y-73295506D01*
X145101185Y-73198815D01*
X145004494Y-73119463D01*
X144894180Y-73060498D01*
X144774482Y-73024188D01*
X144650000Y-73011928D01*
X144285750Y-73015000D01*
X144127000Y-73173750D01*
X143873000Y-73173750D01*
X143714250Y-73015000D01*
X143350000Y-73011928D01*
X143225518Y-73024188D01*
X143105820Y-73060498D01*
X142995506Y-73119463D01*
X142898815Y-73198815D01*
X142819463Y-73295506D01*
X142760498Y-73405820D01*
X142724188Y-73525518D01*
X142711928Y-73650000D01*
X138224802Y-73650000D01*
X137118805Y-72544004D01*
X137095002Y-72515000D01*
X136979277Y-72420027D01*
X136847248Y-72349455D01*
X136703987Y-72305998D01*
X136592334Y-72295001D01*
X136592323Y-72295001D01*
X136555001Y-72291325D01*
X136517679Y-72295001D01*
X112925931Y-72295001D01*
X112963513Y-72171111D01*
X112992185Y-71880000D01*
X112983321Y-71790001D01*
X132982677Y-71790001D01*
X133019999Y-71793677D01*
X133057321Y-71790001D01*
X133057332Y-71790001D01*
X133168985Y-71779004D01*
X133312246Y-71735547D01*
X133444275Y-71664975D01*
X133560000Y-71570002D01*
X133583803Y-71540998D01*
X138324801Y-66800000D01*
X144711928Y-66800000D01*
X144724188Y-66924482D01*
X144760498Y-67044180D01*
X144819463Y-67154494D01*
X144898815Y-67251185D01*
X144995506Y-67330537D01*
X145105820Y-67389502D01*
X145225518Y-67425812D01*
X145350000Y-67438072D01*
X145714250Y-67435000D01*
X145873000Y-67276250D01*
X145873000Y-66577000D01*
X146127000Y-66577000D01*
X146127000Y-67276250D01*
X146285750Y-67435000D01*
X146650000Y-67438072D01*
X146774482Y-67425812D01*
X146894180Y-67389502D01*
X147004494Y-67330537D01*
X147101185Y-67251185D01*
X147180537Y-67154494D01*
X147239502Y-67044180D01*
X147275812Y-66924482D01*
X147288072Y-66800000D01*
X147285000Y-66735750D01*
X147126250Y-66577000D01*
X146127000Y-66577000D01*
X145873000Y-66577000D01*
X144873750Y-66577000D01*
X144715000Y-66735750D01*
X144711928Y-66800000D01*
X138324801Y-66800000D01*
X143285032Y-61839770D01*
X143274188Y-61875518D01*
X143261928Y-62000000D01*
X143261928Y-63200000D01*
X143274188Y-63324482D01*
X143310498Y-63444180D01*
X143369463Y-63554494D01*
X143448815Y-63651185D01*
X143545506Y-63730537D01*
X143655820Y-63789502D01*
X143775518Y-63825812D01*
X143842656Y-63832424D01*
X143865026Y-63874276D01*
X143931948Y-63955820D01*
X143960000Y-63990001D01*
X143988998Y-64013799D01*
X144711928Y-64736730D01*
X144711928Y-64900000D01*
X144724188Y-65024482D01*
X144760498Y-65144180D01*
X144819463Y-65254494D01*
X144898815Y-65351185D01*
X144995506Y-65430537D01*
X145105820Y-65489502D01*
X145140427Y-65500000D01*
X145105820Y-65510498D01*
X144995506Y-65569463D01*
X144898815Y-65648815D01*
X144819463Y-65745506D01*
X144760498Y-65855820D01*
X144724188Y-65975518D01*
X144711928Y-66100000D01*
X144715000Y-66164250D01*
X144873750Y-66323000D01*
X145873000Y-66323000D01*
X145873000Y-66303000D01*
X146127000Y-66303000D01*
X146127000Y-66323000D01*
X147126250Y-66323000D01*
X147285000Y-66164250D01*
X147288072Y-66100000D01*
X147275812Y-65975518D01*
X147239502Y-65855820D01*
X147180537Y-65745506D01*
X147101185Y-65648815D01*
X147004494Y-65569463D01*
X146894180Y-65510498D01*
X146859573Y-65500000D01*
X146894180Y-65489502D01*
X147004494Y-65430537D01*
X147101185Y-65351185D01*
X147180537Y-65254494D01*
X147239502Y-65144180D01*
X147275812Y-65024482D01*
X147288072Y-64900000D01*
X147288072Y-64200000D01*
X147275812Y-64075518D01*
X147239502Y-63955820D01*
X147180537Y-63845506D01*
X147101185Y-63748815D01*
X147004494Y-63669463D01*
X146894180Y-63610498D01*
X146774482Y-63574188D01*
X146650000Y-63561928D01*
X145686730Y-63561928D01*
X145647521Y-63522720D01*
X145689502Y-63444180D01*
X145725812Y-63324482D01*
X145738072Y-63200000D01*
X145738072Y-62000000D01*
X145725812Y-61875518D01*
X145689502Y-61755820D01*
X145630537Y-61645506D01*
X145551185Y-61548815D01*
X145491704Y-61500000D01*
X145551185Y-61451185D01*
X145630537Y-61354494D01*
X145689502Y-61244180D01*
X145725812Y-61124482D01*
X145738072Y-61000000D01*
X145738072Y-60234999D01*
X149610198Y-60234999D01*
X154086205Y-64711008D01*
X154086205Y-64711008D01*
G37*
X154086205Y-64711008D02*
X154109999Y-64740001D01*
X154138992Y-64763795D01*
X154138996Y-64763799D01*
X154183108Y-64800000D01*
X154225724Y-64834974D01*
X154267576Y-64857345D01*
X154274188Y-64924482D01*
X154310498Y-65044180D01*
X154369463Y-65154494D01*
X154448815Y-65251185D01*
X154545506Y-65330537D01*
X154655820Y-65389502D01*
X154775518Y-65425812D01*
X154900000Y-65438072D01*
X156100000Y-65438072D01*
X156224482Y-65425812D01*
X156344180Y-65389502D01*
X156454494Y-65330537D01*
X156551185Y-65251185D01*
X156630537Y-65154494D01*
X156689502Y-65044180D01*
X156725812Y-64924482D01*
X156738072Y-64800000D01*
X156738072Y-64034999D01*
X167509913Y-64034999D01*
X179216426Y-75741513D01*
X158914697Y-75741513D01*
X158877374Y-75737837D01*
X158840051Y-75741513D01*
X158840042Y-75741513D01*
X158728389Y-75752510D01*
X158585128Y-75795967D01*
X158543917Y-75817995D01*
X158062745Y-75244556D01*
X157973338Y-75157079D01*
X157868583Y-75088724D01*
X157752505Y-75042120D01*
X157629566Y-75019057D01*
X157504489Y-75020421D01*
X157382082Y-75046161D01*
X157267048Y-75095286D01*
X157163809Y-75165910D01*
X156479635Y-75740000D01*
X149452320Y-75740000D01*
X149414997Y-75736324D01*
X149377674Y-75740000D01*
X149377665Y-75740000D01*
X149266012Y-75750997D01*
X149122751Y-75794454D01*
X148990722Y-75865026D01*
X148978593Y-75874980D01*
X148903994Y-75936201D01*
X148903990Y-75936205D01*
X148874997Y-75959999D01*
X148851203Y-75988992D01*
X144744590Y-80095607D01*
X141357766Y-80095607D01*
X141419958Y-80021489D01*
X141469749Y-79948704D01*
X141652862Y-79948704D01*
X141690184Y-79952380D01*
X141727506Y-79948704D01*
X141727517Y-79948704D01*
X141839170Y-79937707D01*
X141982431Y-79894250D01*
X142114460Y-79823678D01*
X142230185Y-79728705D01*
X142253988Y-79699701D01*
X144511004Y-77442686D01*
X144540001Y-77418889D01*
X144576445Y-77374482D01*
X144634974Y-77303165D01*
X144705546Y-77171135D01*
X144713680Y-77144321D01*
X144749003Y-77027874D01*
X144760000Y-76916221D01*
X144760000Y-76916212D01*
X144763676Y-76878889D01*
X144763480Y-76876896D01*
X144774482Y-76875812D01*
X144894180Y-76839502D01*
X145004494Y-76780537D01*
X145101185Y-76701185D01*
X145180537Y-76604494D01*
X145239502Y-76494180D01*
X145275812Y-76374482D01*
X145288072Y-76250000D01*
X145288072Y-75550000D01*
X145275812Y-75425518D01*
X145239502Y-75305820D01*
X145180537Y-75195506D01*
X145101185Y-75098815D01*
X145004494Y-75019463D01*
X144894180Y-74960498D01*
X144859573Y-74950000D01*
X144894180Y-74939502D01*
X145004494Y-74880537D01*
X145101185Y-74801185D01*
X145180537Y-74704494D01*
X145239502Y-74594180D01*
X145275812Y-74474482D01*
X145288072Y-74350000D01*
X145285000Y-74285750D01*
X145126250Y-74127000D01*
X144127000Y-74127000D01*
X144127000Y-74147000D01*
X143873000Y-74147000D01*
X143873000Y-74127000D01*
X142873750Y-74127000D01*
X142715000Y-74285750D01*
X142711928Y-74350000D01*
X142724188Y-74474482D01*
X142760498Y-74594180D01*
X142819463Y-74704494D01*
X142898815Y-74801185D01*
X142995506Y-74880537D01*
X143105820Y-74939502D01*
X143140427Y-74950000D01*
X143105820Y-74960498D01*
X142995506Y-75019463D01*
X142898815Y-75098815D01*
X142819463Y-75195506D01*
X142760498Y-75305820D01*
X142724188Y-75425518D01*
X142711928Y-75550000D01*
X142711928Y-76250000D01*
X142724188Y-76374482D01*
X142760498Y-76494180D01*
X142819463Y-76604494D01*
X142898815Y-76701185D01*
X142995506Y-76780537D01*
X143013781Y-76790305D01*
X142544138Y-77259948D01*
X141836191Y-76665910D01*
X141732952Y-76595286D01*
X141617918Y-76546161D01*
X141495511Y-76520421D01*
X141370434Y-76519057D01*
X141247495Y-76542120D01*
X141154328Y-76579526D01*
X138224802Y-73650000D01*
X142711928Y-73650000D01*
X142715000Y-73714250D01*
X142873750Y-73873000D01*
X143873000Y-73873000D01*
X143873000Y-73173750D01*
X144127000Y-73173750D01*
X144127000Y-73873000D01*
X145126250Y-73873000D01*
X145285000Y-73714250D01*
X145288072Y-73650000D01*
X145275812Y-73525518D01*
X145239502Y-73405820D01*
X145180537Y-73295506D01*
X145101185Y-73198815D01*
X145004494Y-73119463D01*
X144894180Y-73060498D01*
X144774482Y-73024188D01*
X144650000Y-73011928D01*
X144285750Y-73015000D01*
X144127000Y-73173750D01*
X143873000Y-73173750D01*
X143714250Y-73015000D01*
X143350000Y-73011928D01*
X143225518Y-73024188D01*
X143105820Y-73060498D01*
X142995506Y-73119463D01*
X142898815Y-73198815D01*
X142819463Y-73295506D01*
X142760498Y-73405820D01*
X142724188Y-73525518D01*
X142711928Y-73650000D01*
X138224802Y-73650000D01*
X137118805Y-72544004D01*
X137095002Y-72515000D01*
X136979277Y-72420027D01*
X136847248Y-72349455D01*
X136703987Y-72305998D01*
X136592334Y-72295001D01*
X136592323Y-72295001D01*
X136555001Y-72291325D01*
X136517679Y-72295001D01*
X112925931Y-72295001D01*
X112963513Y-72171111D01*
X112992185Y-71880000D01*
X112983321Y-71790001D01*
X132982677Y-71790001D01*
X133019999Y-71793677D01*
X133057321Y-71790001D01*
X133057332Y-71790001D01*
X133168985Y-71779004D01*
X133312246Y-71735547D01*
X133444275Y-71664975D01*
X133560000Y-71570002D01*
X133583803Y-71540998D01*
X138324801Y-66800000D01*
X144711928Y-66800000D01*
X144724188Y-66924482D01*
X144760498Y-67044180D01*
X144819463Y-67154494D01*
X144898815Y-67251185D01*
X144995506Y-67330537D01*
X145105820Y-67389502D01*
X145225518Y-67425812D01*
X145350000Y-67438072D01*
X145714250Y-67435000D01*
X145873000Y-67276250D01*
X145873000Y-66577000D01*
X146127000Y-66577000D01*
X146127000Y-67276250D01*
X146285750Y-67435000D01*
X146650000Y-67438072D01*
X146774482Y-67425812D01*
X146894180Y-67389502D01*
X147004494Y-67330537D01*
X147101185Y-67251185D01*
X147180537Y-67154494D01*
X147239502Y-67044180D01*
X147275812Y-66924482D01*
X147288072Y-66800000D01*
X147285000Y-66735750D01*
X147126250Y-66577000D01*
X146127000Y-66577000D01*
X145873000Y-66577000D01*
X144873750Y-66577000D01*
X144715000Y-66735750D01*
X144711928Y-66800000D01*
X138324801Y-66800000D01*
X143285032Y-61839770D01*
X143274188Y-61875518D01*
X143261928Y-62000000D01*
X143261928Y-63200000D01*
X143274188Y-63324482D01*
X143310498Y-63444180D01*
X143369463Y-63554494D01*
X143448815Y-63651185D01*
X143545506Y-63730537D01*
X143655820Y-63789502D01*
X143775518Y-63825812D01*
X143842656Y-63832424D01*
X143865026Y-63874276D01*
X143931948Y-63955820D01*
X143960000Y-63990001D01*
X143988998Y-64013799D01*
X144711928Y-64736730D01*
X144711928Y-64900000D01*
X144724188Y-65024482D01*
X144760498Y-65144180D01*
X144819463Y-65254494D01*
X144898815Y-65351185D01*
X144995506Y-65430537D01*
X145105820Y-65489502D01*
X145140427Y-65500000D01*
X145105820Y-65510498D01*
X144995506Y-65569463D01*
X144898815Y-65648815D01*
X144819463Y-65745506D01*
X144760498Y-65855820D01*
X144724188Y-65975518D01*
X144711928Y-66100000D01*
X144715000Y-66164250D01*
X144873750Y-66323000D01*
X145873000Y-66323000D01*
X145873000Y-66303000D01*
X146127000Y-66303000D01*
X146127000Y-66323000D01*
X147126250Y-66323000D01*
X147285000Y-66164250D01*
X147288072Y-66100000D01*
X147275812Y-65975518D01*
X147239502Y-65855820D01*
X147180537Y-65745506D01*
X147101185Y-65648815D01*
X147004494Y-65569463D01*
X146894180Y-65510498D01*
X146859573Y-65500000D01*
X146894180Y-65489502D01*
X147004494Y-65430537D01*
X147101185Y-65351185D01*
X147180537Y-65254494D01*
X147239502Y-65144180D01*
X147275812Y-65024482D01*
X147288072Y-64900000D01*
X147288072Y-64200000D01*
X147275812Y-64075518D01*
X147239502Y-63955820D01*
X147180537Y-63845506D01*
X147101185Y-63748815D01*
X147004494Y-63669463D01*
X146894180Y-63610498D01*
X146774482Y-63574188D01*
X146650000Y-63561928D01*
X145686730Y-63561928D01*
X145647521Y-63522720D01*
X145689502Y-63444180D01*
X145725812Y-63324482D01*
X145738072Y-63200000D01*
X145738072Y-62000000D01*
X145725812Y-61875518D01*
X145689502Y-61755820D01*
X145630537Y-61645506D01*
X145551185Y-61548815D01*
X145491704Y-61500000D01*
X145551185Y-61451185D01*
X145630537Y-61354494D01*
X145689502Y-61244180D01*
X145725812Y-61124482D01*
X145738072Y-61000000D01*
X145738072Y-60234999D01*
X149610198Y-60234999D01*
X154086205Y-64711008D01*
G36*
X140134672Y-77709474D02*
G01*
X140095286Y-77767048D01*
X140046161Y-77882082D01*
X140020421Y-78004489D01*
X140019057Y-78129566D01*
X140033245Y-78205194D01*
X139956302Y-78204355D01*
X139833363Y-78227418D01*
X139717285Y-78274022D01*
X139612530Y-78342377D01*
X139523123Y-78429854D01*
X139068334Y-78971850D01*
X135260487Y-75164004D01*
X135236684Y-75135000D01*
X135120959Y-75040027D01*
X134988930Y-74969455D01*
X134845669Y-74925998D01*
X134734016Y-74915001D01*
X134734005Y-74915001D01*
X134696683Y-74911325D01*
X134659361Y-74915001D01*
X120785000Y-74915001D01*
X120785000Y-74872998D01*
X120626252Y-74872998D01*
X120785000Y-74714250D01*
X120788072Y-74650000D01*
X120775812Y-74525518D01*
X120739502Y-74405820D01*
X120680537Y-74295506D01*
X120601185Y-74198815D01*
X120504494Y-74119463D01*
X120394180Y-74060498D01*
X120274482Y-74024188D01*
X120150000Y-74011928D01*
X119785750Y-74015000D01*
X119627000Y-74173750D01*
X119627000Y-74873000D01*
X119647000Y-74873000D01*
X119647000Y-74915001D01*
X119353000Y-74915001D01*
X119353000Y-74873000D01*
X119373000Y-74873000D01*
X119373000Y-74173750D01*
X119214250Y-74015000D01*
X118850000Y-74011928D01*
X118725518Y-74024188D01*
X118605820Y-74060498D01*
X118495506Y-74119463D01*
X118398815Y-74198815D01*
X118319463Y-74295506D01*
X118260498Y-74405820D01*
X118224188Y-74525518D01*
X118211928Y-74650000D01*
X118215000Y-74714250D01*
X118373748Y-74872998D01*
X118215000Y-74872998D01*
X118215000Y-74915001D01*
X112901663Y-74915001D01*
X112963513Y-74711111D01*
X112992185Y-74420000D01*
X112963513Y-74128889D01*
X112878599Y-73848966D01*
X112860444Y-73815001D01*
X136240200Y-73815001D01*
X140134672Y-77709474D01*
X140134672Y-77709474D01*
G37*
X140134672Y-77709474D02*
X140095286Y-77767048D01*
X140046161Y-77882082D01*
X140020421Y-78004489D01*
X140019057Y-78129566D01*
X140033245Y-78205194D01*
X139956302Y-78204355D01*
X139833363Y-78227418D01*
X139717285Y-78274022D01*
X139612530Y-78342377D01*
X139523123Y-78429854D01*
X139068334Y-78971850D01*
X135260487Y-75164004D01*
X135236684Y-75135000D01*
X135120959Y-75040027D01*
X134988930Y-74969455D01*
X134845669Y-74925998D01*
X134734016Y-74915001D01*
X134734005Y-74915001D01*
X134696683Y-74911325D01*
X134659361Y-74915001D01*
X120785000Y-74915001D01*
X120785000Y-74872998D01*
X120626252Y-74872998D01*
X120785000Y-74714250D01*
X120788072Y-74650000D01*
X120775812Y-74525518D01*
X120739502Y-74405820D01*
X120680537Y-74295506D01*
X120601185Y-74198815D01*
X120504494Y-74119463D01*
X120394180Y-74060498D01*
X120274482Y-74024188D01*
X120150000Y-74011928D01*
X119785750Y-74015000D01*
X119627000Y-74173750D01*
X119627000Y-74873000D01*
X119647000Y-74873000D01*
X119647000Y-74915001D01*
X119353000Y-74915001D01*
X119353000Y-74873000D01*
X119373000Y-74873000D01*
X119373000Y-74173750D01*
X119214250Y-74015000D01*
X118850000Y-74011928D01*
X118725518Y-74024188D01*
X118605820Y-74060498D01*
X118495506Y-74119463D01*
X118398815Y-74198815D01*
X118319463Y-74295506D01*
X118260498Y-74405820D01*
X118224188Y-74525518D01*
X118211928Y-74650000D01*
X118215000Y-74714250D01*
X118373748Y-74872998D01*
X118215000Y-74872998D01*
X118215000Y-74915001D01*
X112901663Y-74915001D01*
X112963513Y-74711111D01*
X112992185Y-74420000D01*
X112963513Y-74128889D01*
X112878599Y-73848966D01*
X112860444Y-73815001D01*
X136240200Y-73815001D01*
X140134672Y-77709474D01*
G36*
X113851202Y-67686004D02*
G01*
X113875000Y-67715002D01*
X113903998Y-67738800D01*
X113990724Y-67809975D01*
X114075210Y-67855134D01*
X114122754Y-67880547D01*
X114266015Y-67924004D01*
X114377668Y-67935001D01*
X114377678Y-67935001D01*
X114415001Y-67938677D01*
X114452324Y-67935001D01*
X116223254Y-67935001D01*
X116211928Y-68050000D01*
X116215000Y-68114250D01*
X116373750Y-68273000D01*
X117373000Y-68273000D01*
X117373000Y-68253000D01*
X117627000Y-68253000D01*
X117627000Y-68273000D01*
X118626250Y-68273000D01*
X118785000Y-68114250D01*
X118788072Y-68050000D01*
X118776746Y-67935001D01*
X135040198Y-67935001D01*
X132705198Y-70270001D01*
X112657828Y-70270001D01*
X112740706Y-70169014D01*
X112878599Y-69911034D01*
X112963513Y-69631111D01*
X112992185Y-69340000D01*
X112963513Y-69048889D01*
X112878599Y-68768966D01*
X112868462Y-68750000D01*
X116211928Y-68750000D01*
X116224188Y-68874482D01*
X116260498Y-68994180D01*
X116319463Y-69104494D01*
X116398815Y-69201185D01*
X116495506Y-69280537D01*
X116605820Y-69339502D01*
X116725518Y-69375812D01*
X116850000Y-69388072D01*
X117214250Y-69385000D01*
X117373000Y-69226250D01*
X117373000Y-68527000D01*
X117627000Y-68527000D01*
X117627000Y-69226250D01*
X117785750Y-69385000D01*
X118150000Y-69388072D01*
X118274482Y-69375812D01*
X118394180Y-69339502D01*
X118504494Y-69280537D01*
X118601185Y-69201185D01*
X118680537Y-69104494D01*
X118739502Y-68994180D01*
X118775812Y-68874482D01*
X118788072Y-68750000D01*
X118785000Y-68685750D01*
X118626250Y-68527000D01*
X117627000Y-68527000D01*
X117373000Y-68527000D01*
X116373750Y-68527000D01*
X116215000Y-68685750D01*
X116211928Y-68750000D01*
X112868462Y-68750000D01*
X112740706Y-68510986D01*
X112555134Y-68284866D01*
X112329014Y-68099294D01*
X112274209Y-68070000D01*
X112329014Y-68040706D01*
X112555134Y-67855134D01*
X112740706Y-67629014D01*
X112878599Y-67371034D01*
X112963513Y-67091111D01*
X112989765Y-66824567D01*
X113851202Y-67686004D01*
X113851202Y-67686004D01*
G37*
X113851202Y-67686004D02*
X113875000Y-67715002D01*
X113903998Y-67738800D01*
X113990724Y-67809975D01*
X114075210Y-67855134D01*
X114122754Y-67880547D01*
X114266015Y-67924004D01*
X114377668Y-67935001D01*
X114377678Y-67935001D01*
X114415001Y-67938677D01*
X114452324Y-67935001D01*
X116223254Y-67935001D01*
X116211928Y-68050000D01*
X116215000Y-68114250D01*
X116373750Y-68273000D01*
X117373000Y-68273000D01*
X117373000Y-68253000D01*
X117627000Y-68253000D01*
X117627000Y-68273000D01*
X118626250Y-68273000D01*
X118785000Y-68114250D01*
X118788072Y-68050000D01*
X118776746Y-67935001D01*
X135040198Y-67935001D01*
X132705198Y-70270001D01*
X112657828Y-70270001D01*
X112740706Y-70169014D01*
X112878599Y-69911034D01*
X112963513Y-69631111D01*
X112992185Y-69340000D01*
X112963513Y-69048889D01*
X112878599Y-68768966D01*
X112868462Y-68750000D01*
X116211928Y-68750000D01*
X116224188Y-68874482D01*
X116260498Y-68994180D01*
X116319463Y-69104494D01*
X116398815Y-69201185D01*
X116495506Y-69280537D01*
X116605820Y-69339502D01*
X116725518Y-69375812D01*
X116850000Y-69388072D01*
X117214250Y-69385000D01*
X117373000Y-69226250D01*
X117373000Y-68527000D01*
X117627000Y-68527000D01*
X117627000Y-69226250D01*
X117785750Y-69385000D01*
X118150000Y-69388072D01*
X118274482Y-69375812D01*
X118394180Y-69339502D01*
X118504494Y-69280537D01*
X118601185Y-69201185D01*
X118680537Y-69104494D01*
X118739502Y-68994180D01*
X118775812Y-68874482D01*
X118788072Y-68750000D01*
X118785000Y-68685750D01*
X118626250Y-68527000D01*
X117627000Y-68527000D01*
X117373000Y-68527000D01*
X116373750Y-68527000D01*
X116215000Y-68685750D01*
X116211928Y-68750000D01*
X112868462Y-68750000D01*
X112740706Y-68510986D01*
X112555134Y-68284866D01*
X112329014Y-68099294D01*
X112274209Y-68070000D01*
X112329014Y-68040706D01*
X112555134Y-67855134D01*
X112740706Y-67629014D01*
X112878599Y-67371034D01*
X112963513Y-67091111D01*
X112989765Y-66824567D01*
X113851202Y-67686004D01*
G36*
X156647000Y-58627000D02*
G01*
X156627000Y-58627000D01*
X156627000Y-58647000D01*
X156373000Y-58647000D01*
X156373000Y-58627000D01*
X156353000Y-58627000D01*
X156353000Y-58584999D01*
X156647000Y-58584999D01*
X156647000Y-58627000D01*
X156647000Y-58627000D01*
G37*
X156647000Y-58627000D02*
X156627000Y-58627000D01*
X156627000Y-58647000D01*
X156373000Y-58647000D01*
X156373000Y-58627000D01*
X156353000Y-58627000D01*
X156353000Y-58584999D01*
X156647000Y-58584999D01*
X156647000Y-58627000D01*
M02*
