G04 #@! TF.GenerationSoftware,KiCad,Pcbnew,5.1.2*
G04 #@! TF.CreationDate,2019-07-11T13:19:42-05:00*
G04 #@! TF.ProjectId,Camera,43616d65-7261-42e6-9b69-6361645f7063,rev?*
G04 #@! TF.SameCoordinates,Original*
G04 #@! TF.FileFunction,Paste,Bot*
G04 #@! TF.FilePolarity,Positive*
%FSLAX46Y46*%
G04 Gerber Fmt 4.6, Leading zero omitted, Abs format (unit mm)*
G04 Created by KiCad (PCBNEW 5.1.2) date 2019-07-11 13:19:42*
%MOMM*%
%LPD*%
G04 APERTURE LIST*
%ADD10C,0.100000*%
%ADD11C,0.975000*%
%ADD12R,1.000000X3.150000*%
%ADD13C,0.800000*%
%ADD14C,0.900000*%
%ADD15R,0.900000X0.800000*%
G04 APERTURE END LIST*
D10*
G36*
X136649174Y-113454544D02*
G01*
X136672708Y-113458827D01*
X136695709Y-113465395D01*
X136717955Y-113474186D01*
X136739233Y-113485115D01*
X136759337Y-113498078D01*
X136778074Y-113512948D01*
X136795262Y-113529583D01*
X136810738Y-113547824D01*
X136824351Y-113567493D01*
X136835971Y-113588401D01*
X136845485Y-113610348D01*
X136852802Y-113633122D01*
X137088975Y-114514530D01*
X137094025Y-114537911D01*
X137096759Y-114561675D01*
X137097150Y-114585592D01*
X137095196Y-114609433D01*
X137090914Y-114632967D01*
X137084345Y-114655968D01*
X137075554Y-114678214D01*
X137064625Y-114699492D01*
X137051662Y-114719596D01*
X137036792Y-114738332D01*
X137020157Y-114755521D01*
X137001917Y-114770997D01*
X136982248Y-114784610D01*
X136961339Y-114796230D01*
X136939392Y-114805744D01*
X136916618Y-114813061D01*
X136445729Y-114939235D01*
X136422348Y-114944285D01*
X136398584Y-114947019D01*
X136374667Y-114947410D01*
X136350826Y-114945456D01*
X136327292Y-114941173D01*
X136304291Y-114934605D01*
X136282045Y-114925814D01*
X136260767Y-114914885D01*
X136240663Y-114901922D01*
X136221926Y-114887052D01*
X136204738Y-114870417D01*
X136189262Y-114852176D01*
X136175649Y-114832507D01*
X136164029Y-114811599D01*
X136154515Y-114789652D01*
X136147198Y-114766878D01*
X135911025Y-113885470D01*
X135905975Y-113862089D01*
X135903241Y-113838325D01*
X135902850Y-113814408D01*
X135904804Y-113790567D01*
X135909086Y-113767033D01*
X135915655Y-113744032D01*
X135924446Y-113721786D01*
X135935375Y-113700508D01*
X135948338Y-113680404D01*
X135963208Y-113661668D01*
X135979843Y-113644479D01*
X135998083Y-113629003D01*
X136017752Y-113615390D01*
X136038661Y-113603770D01*
X136060608Y-113594256D01*
X136083382Y-113586939D01*
X136554271Y-113460765D01*
X136577652Y-113455715D01*
X136601416Y-113452981D01*
X136625333Y-113452590D01*
X136649174Y-113454544D01*
X136649174Y-113454544D01*
G37*
D11*
X136500000Y-114200000D03*
D10*
G36*
X138460284Y-112969258D02*
G01*
X138483818Y-112973541D01*
X138506819Y-112980109D01*
X138529065Y-112988900D01*
X138550343Y-112999829D01*
X138570447Y-113012792D01*
X138589184Y-113027662D01*
X138606372Y-113044297D01*
X138621848Y-113062538D01*
X138635461Y-113082207D01*
X138647081Y-113103115D01*
X138656595Y-113125062D01*
X138663912Y-113147836D01*
X138900085Y-114029244D01*
X138905135Y-114052625D01*
X138907869Y-114076389D01*
X138908260Y-114100306D01*
X138906306Y-114124147D01*
X138902024Y-114147681D01*
X138895455Y-114170682D01*
X138886664Y-114192928D01*
X138875735Y-114214206D01*
X138862772Y-114234310D01*
X138847902Y-114253046D01*
X138831267Y-114270235D01*
X138813027Y-114285711D01*
X138793358Y-114299324D01*
X138772449Y-114310944D01*
X138750502Y-114320458D01*
X138727728Y-114327775D01*
X138256839Y-114453949D01*
X138233458Y-114458999D01*
X138209694Y-114461733D01*
X138185777Y-114462124D01*
X138161936Y-114460170D01*
X138138402Y-114455887D01*
X138115401Y-114449319D01*
X138093155Y-114440528D01*
X138071877Y-114429599D01*
X138051773Y-114416636D01*
X138033036Y-114401766D01*
X138015848Y-114385131D01*
X138000372Y-114366890D01*
X137986759Y-114347221D01*
X137975139Y-114326313D01*
X137965625Y-114304366D01*
X137958308Y-114281592D01*
X137722135Y-113400184D01*
X137717085Y-113376803D01*
X137714351Y-113353039D01*
X137713960Y-113329122D01*
X137715914Y-113305281D01*
X137720196Y-113281747D01*
X137726765Y-113258746D01*
X137735556Y-113236500D01*
X137746485Y-113215222D01*
X137759448Y-113195118D01*
X137774318Y-113176382D01*
X137790953Y-113159193D01*
X137809193Y-113143717D01*
X137828862Y-113130104D01*
X137849771Y-113118484D01*
X137871718Y-113108970D01*
X137894492Y-113101653D01*
X138365381Y-112975479D01*
X138388762Y-112970429D01*
X138412526Y-112967695D01*
X138436443Y-112967304D01*
X138460284Y-112969258D01*
X138460284Y-112969258D01*
G37*
D11*
X138311110Y-113714714D03*
D12*
X160060000Y-112600000D03*
X160060000Y-117650000D03*
X162600000Y-112600000D03*
X162600000Y-117650000D03*
X165140000Y-112600000D03*
X165140000Y-117650000D03*
D13*
X159262897Y-105852626D03*
D10*
G36*
X159829972Y-106054927D02*
G01*
X158995507Y-106392073D01*
X158695822Y-105650325D01*
X159530287Y-105313179D01*
X159829972Y-106054927D01*
X159829972Y-106054927D01*
G37*
D13*
X156415887Y-98806029D03*
D10*
G36*
X156982962Y-99008330D02*
G01*
X156148497Y-99345476D01*
X155848812Y-98603728D01*
X156683277Y-98266582D01*
X156982962Y-99008330D01*
X156982962Y-99008330D01*
G37*
D13*
X154279618Y-99658352D03*
D10*
G36*
X154846693Y-99860653D02*
G01*
X154012228Y-100197799D01*
X153712543Y-99456051D01*
X154547008Y-99118905D01*
X154846693Y-99860653D01*
X154846693Y-99860653D01*
G37*
D13*
X157130375Y-106714221D03*
D10*
G36*
X157697450Y-106916522D02*
G01*
X156862985Y-107253668D01*
X156563300Y-106511920D01*
X157397765Y-106174774D01*
X157697450Y-106916522D01*
X157697450Y-106916522D01*
G37*
D14*
X155645730Y-105642328D03*
D10*
G36*
X156393793Y-105825432D02*
G01*
X155234813Y-106293690D01*
X154897667Y-105459224D01*
X156056647Y-104990966D01*
X156393793Y-105825432D01*
X156393793Y-105825432D01*
G37*
D14*
X155083820Y-104251552D03*
D10*
G36*
X155831883Y-104434656D02*
G01*
X154672903Y-104902914D01*
X154335757Y-104068448D01*
X155494737Y-103600190D01*
X155831883Y-104434656D01*
X155831883Y-104434656D01*
G37*
D14*
X153960000Y-101470000D03*
D10*
G36*
X154708063Y-101653104D02*
G01*
X153549083Y-102121362D01*
X153211937Y-101286896D01*
X154370917Y-100818638D01*
X154708063Y-101653104D01*
X154708063Y-101653104D01*
G37*
D15*
X144700000Y-105350000D03*
X144700000Y-103450000D03*
X146700000Y-104400000D03*
X148800000Y-104400000D03*
X150800000Y-105350000D03*
X150800000Y-103450000D03*
D10*
G36*
X142154729Y-111911901D02*
G01*
X142178263Y-111916184D01*
X142201264Y-111922752D01*
X142223510Y-111931543D01*
X142244788Y-111942472D01*
X142264892Y-111955435D01*
X142283629Y-111970305D01*
X142300817Y-111986940D01*
X142316293Y-112005181D01*
X142329906Y-112024850D01*
X142341526Y-112045758D01*
X142351040Y-112067705D01*
X142358357Y-112090479D01*
X142594530Y-112971887D01*
X142599580Y-112995268D01*
X142602314Y-113019032D01*
X142602705Y-113042949D01*
X142600751Y-113066790D01*
X142596469Y-113090324D01*
X142589900Y-113113325D01*
X142581109Y-113135571D01*
X142570180Y-113156849D01*
X142557217Y-113176953D01*
X142542347Y-113195689D01*
X142525712Y-113212878D01*
X142507472Y-113228354D01*
X142487803Y-113241967D01*
X142466894Y-113253587D01*
X142444947Y-113263101D01*
X142422173Y-113270418D01*
X141951284Y-113396592D01*
X141927903Y-113401642D01*
X141904139Y-113404376D01*
X141880222Y-113404767D01*
X141856381Y-113402813D01*
X141832847Y-113398530D01*
X141809846Y-113391962D01*
X141787600Y-113383171D01*
X141766322Y-113372242D01*
X141746218Y-113359279D01*
X141727481Y-113344409D01*
X141710293Y-113327774D01*
X141694817Y-113309533D01*
X141681204Y-113289864D01*
X141669584Y-113268956D01*
X141660070Y-113247009D01*
X141652753Y-113224235D01*
X141416580Y-112342827D01*
X141411530Y-112319446D01*
X141408796Y-112295682D01*
X141408405Y-112271765D01*
X141410359Y-112247924D01*
X141414641Y-112224390D01*
X141421210Y-112201389D01*
X141430001Y-112179143D01*
X141440930Y-112157865D01*
X141453893Y-112137761D01*
X141468763Y-112119025D01*
X141485398Y-112101836D01*
X141503638Y-112086360D01*
X141523307Y-112072747D01*
X141544216Y-112061127D01*
X141566163Y-112051613D01*
X141588937Y-112044296D01*
X142059826Y-111918122D01*
X142083207Y-111913072D01*
X142106971Y-111910338D01*
X142130888Y-111909947D01*
X142154729Y-111911901D01*
X142154729Y-111911901D01*
G37*
D11*
X142005555Y-112657357D03*
D10*
G36*
X140343619Y-112397187D02*
G01*
X140367153Y-112401470D01*
X140390154Y-112408038D01*
X140412400Y-112416829D01*
X140433678Y-112427758D01*
X140453782Y-112440721D01*
X140472519Y-112455591D01*
X140489707Y-112472226D01*
X140505183Y-112490467D01*
X140518796Y-112510136D01*
X140530416Y-112531044D01*
X140539930Y-112552991D01*
X140547247Y-112575765D01*
X140783420Y-113457173D01*
X140788470Y-113480554D01*
X140791204Y-113504318D01*
X140791595Y-113528235D01*
X140789641Y-113552076D01*
X140785359Y-113575610D01*
X140778790Y-113598611D01*
X140769999Y-113620857D01*
X140759070Y-113642135D01*
X140746107Y-113662239D01*
X140731237Y-113680975D01*
X140714602Y-113698164D01*
X140696362Y-113713640D01*
X140676693Y-113727253D01*
X140655784Y-113738873D01*
X140633837Y-113748387D01*
X140611063Y-113755704D01*
X140140174Y-113881878D01*
X140116793Y-113886928D01*
X140093029Y-113889662D01*
X140069112Y-113890053D01*
X140045271Y-113888099D01*
X140021737Y-113883816D01*
X139998736Y-113877248D01*
X139976490Y-113868457D01*
X139955212Y-113857528D01*
X139935108Y-113844565D01*
X139916371Y-113829695D01*
X139899183Y-113813060D01*
X139883707Y-113794819D01*
X139870094Y-113775150D01*
X139858474Y-113754242D01*
X139848960Y-113732295D01*
X139841643Y-113709521D01*
X139605470Y-112828113D01*
X139600420Y-112804732D01*
X139597686Y-112780968D01*
X139597295Y-112757051D01*
X139599249Y-112733210D01*
X139603531Y-112709676D01*
X139610100Y-112686675D01*
X139618891Y-112664429D01*
X139629820Y-112643151D01*
X139642783Y-112623047D01*
X139657653Y-112604311D01*
X139674288Y-112587122D01*
X139692528Y-112571646D01*
X139712197Y-112558033D01*
X139733106Y-112546413D01*
X139755053Y-112536899D01*
X139777827Y-112529582D01*
X140248716Y-112403408D01*
X140272097Y-112398358D01*
X140295861Y-112395624D01*
X140319778Y-112395233D01*
X140343619Y-112397187D01*
X140343619Y-112397187D01*
G37*
D11*
X140194445Y-113142643D03*
D10*
G36*
X153480142Y-103013674D02*
G01*
X153503803Y-103017184D01*
X153527007Y-103022996D01*
X153549529Y-103031054D01*
X153571153Y-103041282D01*
X153591670Y-103053579D01*
X153610883Y-103067829D01*
X153628607Y-103083893D01*
X153644671Y-103101617D01*
X153658921Y-103120830D01*
X153671218Y-103141347D01*
X153681446Y-103162971D01*
X153689504Y-103185493D01*
X153695316Y-103208697D01*
X153698826Y-103232358D01*
X153700000Y-103256250D01*
X153700000Y-103743750D01*
X153698826Y-103767642D01*
X153695316Y-103791303D01*
X153689504Y-103814507D01*
X153681446Y-103837029D01*
X153671218Y-103858653D01*
X153658921Y-103879170D01*
X153644671Y-103898383D01*
X153628607Y-103916107D01*
X153610883Y-103932171D01*
X153591670Y-103946421D01*
X153571153Y-103958718D01*
X153549529Y-103968946D01*
X153527007Y-103977004D01*
X153503803Y-103982816D01*
X153480142Y-103986326D01*
X153456250Y-103987500D01*
X152543750Y-103987500D01*
X152519858Y-103986326D01*
X152496197Y-103982816D01*
X152472993Y-103977004D01*
X152450471Y-103968946D01*
X152428847Y-103958718D01*
X152408330Y-103946421D01*
X152389117Y-103932171D01*
X152371393Y-103916107D01*
X152355329Y-103898383D01*
X152341079Y-103879170D01*
X152328782Y-103858653D01*
X152318554Y-103837029D01*
X152310496Y-103814507D01*
X152304684Y-103791303D01*
X152301174Y-103767642D01*
X152300000Y-103743750D01*
X152300000Y-103256250D01*
X152301174Y-103232358D01*
X152304684Y-103208697D01*
X152310496Y-103185493D01*
X152318554Y-103162971D01*
X152328782Y-103141347D01*
X152341079Y-103120830D01*
X152355329Y-103101617D01*
X152371393Y-103083893D01*
X152389117Y-103067829D01*
X152408330Y-103053579D01*
X152428847Y-103041282D01*
X152450471Y-103031054D01*
X152472993Y-103022996D01*
X152496197Y-103017184D01*
X152519858Y-103013674D01*
X152543750Y-103012500D01*
X153456250Y-103012500D01*
X153480142Y-103013674D01*
X153480142Y-103013674D01*
G37*
D11*
X153000000Y-103500000D03*
D10*
G36*
X153480142Y-104888674D02*
G01*
X153503803Y-104892184D01*
X153527007Y-104897996D01*
X153549529Y-104906054D01*
X153571153Y-104916282D01*
X153591670Y-104928579D01*
X153610883Y-104942829D01*
X153628607Y-104958893D01*
X153644671Y-104976617D01*
X153658921Y-104995830D01*
X153671218Y-105016347D01*
X153681446Y-105037971D01*
X153689504Y-105060493D01*
X153695316Y-105083697D01*
X153698826Y-105107358D01*
X153700000Y-105131250D01*
X153700000Y-105618750D01*
X153698826Y-105642642D01*
X153695316Y-105666303D01*
X153689504Y-105689507D01*
X153681446Y-105712029D01*
X153671218Y-105733653D01*
X153658921Y-105754170D01*
X153644671Y-105773383D01*
X153628607Y-105791107D01*
X153610883Y-105807171D01*
X153591670Y-105821421D01*
X153571153Y-105833718D01*
X153549529Y-105843946D01*
X153527007Y-105852004D01*
X153503803Y-105857816D01*
X153480142Y-105861326D01*
X153456250Y-105862500D01*
X152543750Y-105862500D01*
X152519858Y-105861326D01*
X152496197Y-105857816D01*
X152472993Y-105852004D01*
X152450471Y-105843946D01*
X152428847Y-105833718D01*
X152408330Y-105821421D01*
X152389117Y-105807171D01*
X152371393Y-105791107D01*
X152355329Y-105773383D01*
X152341079Y-105754170D01*
X152328782Y-105733653D01*
X152318554Y-105712029D01*
X152310496Y-105689507D01*
X152304684Y-105666303D01*
X152301174Y-105642642D01*
X152300000Y-105618750D01*
X152300000Y-105131250D01*
X152301174Y-105107358D01*
X152304684Y-105083697D01*
X152310496Y-105060493D01*
X152318554Y-105037971D01*
X152328782Y-105016347D01*
X152341079Y-104995830D01*
X152355329Y-104976617D01*
X152371393Y-104958893D01*
X152389117Y-104942829D01*
X152408330Y-104928579D01*
X152428847Y-104916282D01*
X152450471Y-104906054D01*
X152472993Y-104897996D01*
X152496197Y-104892184D01*
X152519858Y-104888674D01*
X152543750Y-104887500D01*
X153456250Y-104887500D01*
X153480142Y-104888674D01*
X153480142Y-104888674D01*
G37*
D11*
X153000000Y-105375000D03*
D10*
G36*
X149692642Y-109401174D02*
G01*
X149716303Y-109404684D01*
X149739507Y-109410496D01*
X149762029Y-109418554D01*
X149783653Y-109428782D01*
X149804170Y-109441079D01*
X149823383Y-109455329D01*
X149841107Y-109471393D01*
X149857171Y-109489117D01*
X149871421Y-109508330D01*
X149883718Y-109528847D01*
X149893946Y-109550471D01*
X149902004Y-109572993D01*
X149907816Y-109596197D01*
X149911326Y-109619858D01*
X149912500Y-109643750D01*
X149912500Y-110556250D01*
X149911326Y-110580142D01*
X149907816Y-110603803D01*
X149902004Y-110627007D01*
X149893946Y-110649529D01*
X149883718Y-110671153D01*
X149871421Y-110691670D01*
X149857171Y-110710883D01*
X149841107Y-110728607D01*
X149823383Y-110744671D01*
X149804170Y-110758921D01*
X149783653Y-110771218D01*
X149762029Y-110781446D01*
X149739507Y-110789504D01*
X149716303Y-110795316D01*
X149692642Y-110798826D01*
X149668750Y-110800000D01*
X149181250Y-110800000D01*
X149157358Y-110798826D01*
X149133697Y-110795316D01*
X149110493Y-110789504D01*
X149087971Y-110781446D01*
X149066347Y-110771218D01*
X149045830Y-110758921D01*
X149026617Y-110744671D01*
X149008893Y-110728607D01*
X148992829Y-110710883D01*
X148978579Y-110691670D01*
X148966282Y-110671153D01*
X148956054Y-110649529D01*
X148947996Y-110627007D01*
X148942184Y-110603803D01*
X148938674Y-110580142D01*
X148937500Y-110556250D01*
X148937500Y-109643750D01*
X148938674Y-109619858D01*
X148942184Y-109596197D01*
X148947996Y-109572993D01*
X148956054Y-109550471D01*
X148966282Y-109528847D01*
X148978579Y-109508330D01*
X148992829Y-109489117D01*
X149008893Y-109471393D01*
X149026617Y-109455329D01*
X149045830Y-109441079D01*
X149066347Y-109428782D01*
X149087971Y-109418554D01*
X149110493Y-109410496D01*
X149133697Y-109404684D01*
X149157358Y-109401174D01*
X149181250Y-109400000D01*
X149668750Y-109400000D01*
X149692642Y-109401174D01*
X149692642Y-109401174D01*
G37*
D11*
X149425000Y-110100000D03*
D10*
G36*
X151567642Y-109401174D02*
G01*
X151591303Y-109404684D01*
X151614507Y-109410496D01*
X151637029Y-109418554D01*
X151658653Y-109428782D01*
X151679170Y-109441079D01*
X151698383Y-109455329D01*
X151716107Y-109471393D01*
X151732171Y-109489117D01*
X151746421Y-109508330D01*
X151758718Y-109528847D01*
X151768946Y-109550471D01*
X151777004Y-109572993D01*
X151782816Y-109596197D01*
X151786326Y-109619858D01*
X151787500Y-109643750D01*
X151787500Y-110556250D01*
X151786326Y-110580142D01*
X151782816Y-110603803D01*
X151777004Y-110627007D01*
X151768946Y-110649529D01*
X151758718Y-110671153D01*
X151746421Y-110691670D01*
X151732171Y-110710883D01*
X151716107Y-110728607D01*
X151698383Y-110744671D01*
X151679170Y-110758921D01*
X151658653Y-110771218D01*
X151637029Y-110781446D01*
X151614507Y-110789504D01*
X151591303Y-110795316D01*
X151567642Y-110798826D01*
X151543750Y-110800000D01*
X151056250Y-110800000D01*
X151032358Y-110798826D01*
X151008697Y-110795316D01*
X150985493Y-110789504D01*
X150962971Y-110781446D01*
X150941347Y-110771218D01*
X150920830Y-110758921D01*
X150901617Y-110744671D01*
X150883893Y-110728607D01*
X150867829Y-110710883D01*
X150853579Y-110691670D01*
X150841282Y-110671153D01*
X150831054Y-110649529D01*
X150822996Y-110627007D01*
X150817184Y-110603803D01*
X150813674Y-110580142D01*
X150812500Y-110556250D01*
X150812500Y-109643750D01*
X150813674Y-109619858D01*
X150817184Y-109596197D01*
X150822996Y-109572993D01*
X150831054Y-109550471D01*
X150841282Y-109528847D01*
X150853579Y-109508330D01*
X150867829Y-109489117D01*
X150883893Y-109471393D01*
X150901617Y-109455329D01*
X150920830Y-109441079D01*
X150941347Y-109428782D01*
X150962971Y-109418554D01*
X150985493Y-109410496D01*
X151008697Y-109404684D01*
X151032358Y-109401174D01*
X151056250Y-109400000D01*
X151543750Y-109400000D01*
X151567642Y-109401174D01*
X151567642Y-109401174D01*
G37*
D11*
X151300000Y-110100000D03*
D10*
G36*
X145567642Y-109401174D02*
G01*
X145591303Y-109404684D01*
X145614507Y-109410496D01*
X145637029Y-109418554D01*
X145658653Y-109428782D01*
X145679170Y-109441079D01*
X145698383Y-109455329D01*
X145716107Y-109471393D01*
X145732171Y-109489117D01*
X145746421Y-109508330D01*
X145758718Y-109528847D01*
X145768946Y-109550471D01*
X145777004Y-109572993D01*
X145782816Y-109596197D01*
X145786326Y-109619858D01*
X145787500Y-109643750D01*
X145787500Y-110556250D01*
X145786326Y-110580142D01*
X145782816Y-110603803D01*
X145777004Y-110627007D01*
X145768946Y-110649529D01*
X145758718Y-110671153D01*
X145746421Y-110691670D01*
X145732171Y-110710883D01*
X145716107Y-110728607D01*
X145698383Y-110744671D01*
X145679170Y-110758921D01*
X145658653Y-110771218D01*
X145637029Y-110781446D01*
X145614507Y-110789504D01*
X145591303Y-110795316D01*
X145567642Y-110798826D01*
X145543750Y-110800000D01*
X145056250Y-110800000D01*
X145032358Y-110798826D01*
X145008697Y-110795316D01*
X144985493Y-110789504D01*
X144962971Y-110781446D01*
X144941347Y-110771218D01*
X144920830Y-110758921D01*
X144901617Y-110744671D01*
X144883893Y-110728607D01*
X144867829Y-110710883D01*
X144853579Y-110691670D01*
X144841282Y-110671153D01*
X144831054Y-110649529D01*
X144822996Y-110627007D01*
X144817184Y-110603803D01*
X144813674Y-110580142D01*
X144812500Y-110556250D01*
X144812500Y-109643750D01*
X144813674Y-109619858D01*
X144817184Y-109596197D01*
X144822996Y-109572993D01*
X144831054Y-109550471D01*
X144841282Y-109528847D01*
X144853579Y-109508330D01*
X144867829Y-109489117D01*
X144883893Y-109471393D01*
X144901617Y-109455329D01*
X144920830Y-109441079D01*
X144941347Y-109428782D01*
X144962971Y-109418554D01*
X144985493Y-109410496D01*
X145008697Y-109404684D01*
X145032358Y-109401174D01*
X145056250Y-109400000D01*
X145543750Y-109400000D01*
X145567642Y-109401174D01*
X145567642Y-109401174D01*
G37*
D11*
X145300000Y-110100000D03*
D10*
G36*
X147442642Y-109401174D02*
G01*
X147466303Y-109404684D01*
X147489507Y-109410496D01*
X147512029Y-109418554D01*
X147533653Y-109428782D01*
X147554170Y-109441079D01*
X147573383Y-109455329D01*
X147591107Y-109471393D01*
X147607171Y-109489117D01*
X147621421Y-109508330D01*
X147633718Y-109528847D01*
X147643946Y-109550471D01*
X147652004Y-109572993D01*
X147657816Y-109596197D01*
X147661326Y-109619858D01*
X147662500Y-109643750D01*
X147662500Y-110556250D01*
X147661326Y-110580142D01*
X147657816Y-110603803D01*
X147652004Y-110627007D01*
X147643946Y-110649529D01*
X147633718Y-110671153D01*
X147621421Y-110691670D01*
X147607171Y-110710883D01*
X147591107Y-110728607D01*
X147573383Y-110744671D01*
X147554170Y-110758921D01*
X147533653Y-110771218D01*
X147512029Y-110781446D01*
X147489507Y-110789504D01*
X147466303Y-110795316D01*
X147442642Y-110798826D01*
X147418750Y-110800000D01*
X146931250Y-110800000D01*
X146907358Y-110798826D01*
X146883697Y-110795316D01*
X146860493Y-110789504D01*
X146837971Y-110781446D01*
X146816347Y-110771218D01*
X146795830Y-110758921D01*
X146776617Y-110744671D01*
X146758893Y-110728607D01*
X146742829Y-110710883D01*
X146728579Y-110691670D01*
X146716282Y-110671153D01*
X146706054Y-110649529D01*
X146697996Y-110627007D01*
X146692184Y-110603803D01*
X146688674Y-110580142D01*
X146687500Y-110556250D01*
X146687500Y-109643750D01*
X146688674Y-109619858D01*
X146692184Y-109596197D01*
X146697996Y-109572993D01*
X146706054Y-109550471D01*
X146716282Y-109528847D01*
X146728579Y-109508330D01*
X146742829Y-109489117D01*
X146758893Y-109471393D01*
X146776617Y-109455329D01*
X146795830Y-109441079D01*
X146816347Y-109428782D01*
X146837971Y-109418554D01*
X146860493Y-109410496D01*
X146883697Y-109404684D01*
X146907358Y-109401174D01*
X146931250Y-109400000D01*
X147418750Y-109400000D01*
X147442642Y-109401174D01*
X147442642Y-109401174D01*
G37*
D11*
X147175000Y-110100000D03*
D10*
G36*
X145387642Y-107031174D02*
G01*
X145411303Y-107034684D01*
X145434507Y-107040496D01*
X145457029Y-107048554D01*
X145478653Y-107058782D01*
X145499170Y-107071079D01*
X145518383Y-107085329D01*
X145536107Y-107101393D01*
X145552171Y-107119117D01*
X145566421Y-107138330D01*
X145578718Y-107158847D01*
X145588946Y-107180471D01*
X145597004Y-107202993D01*
X145602816Y-107226197D01*
X145606326Y-107249858D01*
X145607500Y-107273750D01*
X145607500Y-108186250D01*
X145606326Y-108210142D01*
X145602816Y-108233803D01*
X145597004Y-108257007D01*
X145588946Y-108279529D01*
X145578718Y-108301153D01*
X145566421Y-108321670D01*
X145552171Y-108340883D01*
X145536107Y-108358607D01*
X145518383Y-108374671D01*
X145499170Y-108388921D01*
X145478653Y-108401218D01*
X145457029Y-108411446D01*
X145434507Y-108419504D01*
X145411303Y-108425316D01*
X145387642Y-108428826D01*
X145363750Y-108430000D01*
X144876250Y-108430000D01*
X144852358Y-108428826D01*
X144828697Y-108425316D01*
X144805493Y-108419504D01*
X144782971Y-108411446D01*
X144761347Y-108401218D01*
X144740830Y-108388921D01*
X144721617Y-108374671D01*
X144703893Y-108358607D01*
X144687829Y-108340883D01*
X144673579Y-108321670D01*
X144661282Y-108301153D01*
X144651054Y-108279529D01*
X144642996Y-108257007D01*
X144637184Y-108233803D01*
X144633674Y-108210142D01*
X144632500Y-108186250D01*
X144632500Y-107273750D01*
X144633674Y-107249858D01*
X144637184Y-107226197D01*
X144642996Y-107202993D01*
X144651054Y-107180471D01*
X144661282Y-107158847D01*
X144673579Y-107138330D01*
X144687829Y-107119117D01*
X144703893Y-107101393D01*
X144721617Y-107085329D01*
X144740830Y-107071079D01*
X144761347Y-107058782D01*
X144782971Y-107048554D01*
X144805493Y-107040496D01*
X144828697Y-107034684D01*
X144852358Y-107031174D01*
X144876250Y-107030000D01*
X145363750Y-107030000D01*
X145387642Y-107031174D01*
X145387642Y-107031174D01*
G37*
D11*
X145120000Y-107730000D03*
D10*
G36*
X147262642Y-107031174D02*
G01*
X147286303Y-107034684D01*
X147309507Y-107040496D01*
X147332029Y-107048554D01*
X147353653Y-107058782D01*
X147374170Y-107071079D01*
X147393383Y-107085329D01*
X147411107Y-107101393D01*
X147427171Y-107119117D01*
X147441421Y-107138330D01*
X147453718Y-107158847D01*
X147463946Y-107180471D01*
X147472004Y-107202993D01*
X147477816Y-107226197D01*
X147481326Y-107249858D01*
X147482500Y-107273750D01*
X147482500Y-108186250D01*
X147481326Y-108210142D01*
X147477816Y-108233803D01*
X147472004Y-108257007D01*
X147463946Y-108279529D01*
X147453718Y-108301153D01*
X147441421Y-108321670D01*
X147427171Y-108340883D01*
X147411107Y-108358607D01*
X147393383Y-108374671D01*
X147374170Y-108388921D01*
X147353653Y-108401218D01*
X147332029Y-108411446D01*
X147309507Y-108419504D01*
X147286303Y-108425316D01*
X147262642Y-108428826D01*
X147238750Y-108430000D01*
X146751250Y-108430000D01*
X146727358Y-108428826D01*
X146703697Y-108425316D01*
X146680493Y-108419504D01*
X146657971Y-108411446D01*
X146636347Y-108401218D01*
X146615830Y-108388921D01*
X146596617Y-108374671D01*
X146578893Y-108358607D01*
X146562829Y-108340883D01*
X146548579Y-108321670D01*
X146536282Y-108301153D01*
X146526054Y-108279529D01*
X146517996Y-108257007D01*
X146512184Y-108233803D01*
X146508674Y-108210142D01*
X146507500Y-108186250D01*
X146507500Y-107273750D01*
X146508674Y-107249858D01*
X146512184Y-107226197D01*
X146517996Y-107202993D01*
X146526054Y-107180471D01*
X146536282Y-107158847D01*
X146548579Y-107138330D01*
X146562829Y-107119117D01*
X146578893Y-107101393D01*
X146596617Y-107085329D01*
X146615830Y-107071079D01*
X146636347Y-107058782D01*
X146657971Y-107048554D01*
X146680493Y-107040496D01*
X146703697Y-107034684D01*
X146727358Y-107031174D01*
X146751250Y-107030000D01*
X147238750Y-107030000D01*
X147262642Y-107031174D01*
X147262642Y-107031174D01*
G37*
D11*
X146995000Y-107730000D03*
D10*
G36*
X149687643Y-107051174D02*
G01*
X149711304Y-107054684D01*
X149734508Y-107060496D01*
X149757030Y-107068554D01*
X149778654Y-107078782D01*
X149799171Y-107091079D01*
X149818384Y-107105329D01*
X149836108Y-107121393D01*
X149852172Y-107139117D01*
X149866422Y-107158330D01*
X149878719Y-107178847D01*
X149888947Y-107200471D01*
X149897005Y-107222993D01*
X149902817Y-107246197D01*
X149906327Y-107269858D01*
X149907501Y-107293750D01*
X149907501Y-108206250D01*
X149906327Y-108230142D01*
X149902817Y-108253803D01*
X149897005Y-108277007D01*
X149888947Y-108299529D01*
X149878719Y-108321153D01*
X149866422Y-108341670D01*
X149852172Y-108360883D01*
X149836108Y-108378607D01*
X149818384Y-108394671D01*
X149799171Y-108408921D01*
X149778654Y-108421218D01*
X149757030Y-108431446D01*
X149734508Y-108439504D01*
X149711304Y-108445316D01*
X149687643Y-108448826D01*
X149663751Y-108450000D01*
X149176251Y-108450000D01*
X149152359Y-108448826D01*
X149128698Y-108445316D01*
X149105494Y-108439504D01*
X149082972Y-108431446D01*
X149061348Y-108421218D01*
X149040831Y-108408921D01*
X149021618Y-108394671D01*
X149003894Y-108378607D01*
X148987830Y-108360883D01*
X148973580Y-108341670D01*
X148961283Y-108321153D01*
X148951055Y-108299529D01*
X148942997Y-108277007D01*
X148937185Y-108253803D01*
X148933675Y-108230142D01*
X148932501Y-108206250D01*
X148932501Y-107293750D01*
X148933675Y-107269858D01*
X148937185Y-107246197D01*
X148942997Y-107222993D01*
X148951055Y-107200471D01*
X148961283Y-107178847D01*
X148973580Y-107158330D01*
X148987830Y-107139117D01*
X149003894Y-107121393D01*
X149021618Y-107105329D01*
X149040831Y-107091079D01*
X149061348Y-107078782D01*
X149082972Y-107068554D01*
X149105494Y-107060496D01*
X149128698Y-107054684D01*
X149152359Y-107051174D01*
X149176251Y-107050000D01*
X149663751Y-107050000D01*
X149687643Y-107051174D01*
X149687643Y-107051174D01*
G37*
D11*
X149420001Y-107750000D03*
D10*
G36*
X151562643Y-107051174D02*
G01*
X151586304Y-107054684D01*
X151609508Y-107060496D01*
X151632030Y-107068554D01*
X151653654Y-107078782D01*
X151674171Y-107091079D01*
X151693384Y-107105329D01*
X151711108Y-107121393D01*
X151727172Y-107139117D01*
X151741422Y-107158330D01*
X151753719Y-107178847D01*
X151763947Y-107200471D01*
X151772005Y-107222993D01*
X151777817Y-107246197D01*
X151781327Y-107269858D01*
X151782501Y-107293750D01*
X151782501Y-108206250D01*
X151781327Y-108230142D01*
X151777817Y-108253803D01*
X151772005Y-108277007D01*
X151763947Y-108299529D01*
X151753719Y-108321153D01*
X151741422Y-108341670D01*
X151727172Y-108360883D01*
X151711108Y-108378607D01*
X151693384Y-108394671D01*
X151674171Y-108408921D01*
X151653654Y-108421218D01*
X151632030Y-108431446D01*
X151609508Y-108439504D01*
X151586304Y-108445316D01*
X151562643Y-108448826D01*
X151538751Y-108450000D01*
X151051251Y-108450000D01*
X151027359Y-108448826D01*
X151003698Y-108445316D01*
X150980494Y-108439504D01*
X150957972Y-108431446D01*
X150936348Y-108421218D01*
X150915831Y-108408921D01*
X150896618Y-108394671D01*
X150878894Y-108378607D01*
X150862830Y-108360883D01*
X150848580Y-108341670D01*
X150836283Y-108321153D01*
X150826055Y-108299529D01*
X150817997Y-108277007D01*
X150812185Y-108253803D01*
X150808675Y-108230142D01*
X150807501Y-108206250D01*
X150807501Y-107293750D01*
X150808675Y-107269858D01*
X150812185Y-107246197D01*
X150817997Y-107222993D01*
X150826055Y-107200471D01*
X150836283Y-107178847D01*
X150848580Y-107158330D01*
X150862830Y-107139117D01*
X150878894Y-107121393D01*
X150896618Y-107105329D01*
X150915831Y-107091079D01*
X150936348Y-107078782D01*
X150957972Y-107068554D01*
X150980494Y-107060496D01*
X151003698Y-107054684D01*
X151027359Y-107051174D01*
X151051251Y-107050000D01*
X151538751Y-107050000D01*
X151562643Y-107051174D01*
X151562643Y-107051174D01*
G37*
D11*
X151295001Y-107750000D03*
M02*
