G04 #@! TF.GenerationSoftware,KiCad,Pcbnew,5.1.2*
G04 #@! TF.CreationDate,2019-07-11T13:19:42-05:00*
G04 #@! TF.ProjectId,Camera,43616d65-7261-42e6-9b69-6361645f7063,rev?*
G04 #@! TF.SameCoordinates,Original*
G04 #@! TF.FileFunction,Legend,Bot*
G04 #@! TF.FilePolarity,Positive*
%FSLAX46Y46*%
G04 Gerber Fmt 4.6, Leading zero omitted, Abs format (unit mm)*
G04 Created by KiCad (PCBNEW 5.1.2) date 2019-07-11 13:19:42*
%MOMM*%
%LPD*%
G04 APERTURE LIST*
%ADD10C,0.150000*%
%ADD11C,0.120000*%
G04 APERTURE END LIST*
D10*
X165371428Y-114871428D02*
X165371428Y-115300000D01*
X165400000Y-115385714D01*
X165457142Y-115442857D01*
X165542857Y-115471428D01*
X165600000Y-115471428D01*
X164800000Y-115471428D02*
X165085714Y-115471428D01*
X165085714Y-114871428D01*
X164257142Y-115414285D02*
X164285714Y-115442857D01*
X164371428Y-115471428D01*
X164428571Y-115471428D01*
X164514285Y-115442857D01*
X164571428Y-115385714D01*
X164600000Y-115328571D01*
X164628571Y-115214285D01*
X164628571Y-115128571D01*
X164600000Y-115014285D01*
X164571428Y-114957142D01*
X164514285Y-114900000D01*
X164428571Y-114871428D01*
X164371428Y-114871428D01*
X164285714Y-114900000D01*
X164257142Y-114928571D01*
X163828571Y-114871428D02*
X163828571Y-115300000D01*
X163857142Y-115385714D01*
X163914285Y-115442857D01*
X164000000Y-115471428D01*
X164057142Y-115471428D01*
X163257142Y-115471428D02*
X163542857Y-115471428D01*
X163542857Y-114871428D01*
X162714285Y-115414285D02*
X162742857Y-115442857D01*
X162828571Y-115471428D01*
X162885714Y-115471428D01*
X162971428Y-115442857D01*
X163028571Y-115385714D01*
X163057142Y-115328571D01*
X163085714Y-115214285D01*
X163085714Y-115128571D01*
X163057142Y-115014285D01*
X163028571Y-114957142D01*
X162971428Y-114900000D01*
X162885714Y-114871428D01*
X162828571Y-114871428D01*
X162742857Y-114900000D01*
X162714285Y-114928571D01*
X162285714Y-114871428D02*
X162285714Y-115300000D01*
X162314285Y-115385714D01*
X162371428Y-115442857D01*
X162457142Y-115471428D01*
X162514285Y-115471428D01*
X161714285Y-115471428D02*
X162000000Y-115471428D01*
X162000000Y-114871428D01*
X161171428Y-115414285D02*
X161200000Y-115442857D01*
X161285714Y-115471428D01*
X161342857Y-115471428D01*
X161428571Y-115442857D01*
X161485714Y-115385714D01*
X161514285Y-115328571D01*
X161542857Y-115214285D01*
X161542857Y-115128571D01*
X161514285Y-115014285D01*
X161485714Y-114957142D01*
X161428571Y-114900000D01*
X161342857Y-114871428D01*
X161285714Y-114871428D01*
X161200000Y-114900000D01*
X161171428Y-114928571D01*
X160742857Y-114871428D02*
X160742857Y-115300000D01*
X160771428Y-115385714D01*
X160828571Y-115442857D01*
X160914285Y-115471428D01*
X160971428Y-115471428D01*
X160171428Y-115471428D02*
X160457142Y-115471428D01*
X160457142Y-114871428D01*
X159628571Y-115414285D02*
X159657142Y-115442857D01*
X159742857Y-115471428D01*
X159800000Y-115471428D01*
X159885714Y-115442857D01*
X159942857Y-115385714D01*
X159971428Y-115328571D01*
X160000000Y-115214285D01*
X160000000Y-115128571D01*
X159971428Y-115014285D01*
X159942857Y-114957142D01*
X159885714Y-114900000D01*
X159800000Y-114871428D01*
X159742857Y-114871428D01*
X159657142Y-114900000D01*
X159628571Y-114928571D01*
D11*
X138619947Y-114625827D02*
X136026436Y-115320756D01*
X136026436Y-115320756D02*
X135529504Y-113466178D01*
X135529504Y-113466178D02*
X138123015Y-112771249D01*
X158730000Y-112525000D02*
X158730000Y-117725000D01*
X166470000Y-112525000D02*
X166470000Y-117725000D01*
X159300000Y-111085000D02*
X159300000Y-112525000D01*
X158730000Y-112525000D02*
X159300000Y-112525000D01*
X158730000Y-117725000D02*
X159300000Y-117725000D01*
X165900000Y-112525000D02*
X166470000Y-112525000D01*
X165900000Y-117725000D02*
X166470000Y-117725000D01*
X160820000Y-112525000D02*
X161840000Y-112525000D01*
X160820000Y-117725000D02*
X161840000Y-117725000D01*
X163360000Y-112525000D02*
X164380000Y-112525000D01*
X163360000Y-117725000D02*
X164380000Y-117725000D01*
X146460000Y-102820000D02*
X146460000Y-103750000D01*
X146460000Y-105980000D02*
X146460000Y-105050000D01*
X146460000Y-105980000D02*
X144300000Y-105980000D01*
X146460000Y-102820000D02*
X145000000Y-102820000D01*
X149040000Y-105980000D02*
X150500000Y-105980000D01*
X149040000Y-102820000D02*
X151200000Y-102820000D01*
X149040000Y-102820000D02*
X149040000Y-103750000D01*
X149040000Y-105980000D02*
X149040000Y-105050000D01*
X141166006Y-112147268D02*
X140666471Y-112281118D01*
X141533529Y-113518882D02*
X141033994Y-113652732D01*
X152290000Y-104696078D02*
X152290000Y-104178922D01*
X153710000Y-104696078D02*
X153710000Y-104178922D01*
X150103922Y-110810000D02*
X150621078Y-110810000D01*
X150103922Y-109390000D02*
X150621078Y-109390000D01*
X146496078Y-110810000D02*
X145978922Y-110810000D01*
X146496078Y-109390000D02*
X145978922Y-109390000D01*
X145798922Y-108440000D02*
X146316078Y-108440000D01*
X145798922Y-107020000D02*
X146316078Y-107020000D01*
X150616079Y-108460000D02*
X150098923Y-108460000D01*
X150616079Y-107040000D02*
X150098923Y-107040000D01*
D10*
X137830031Y-112545933D02*
X137571212Y-111580007D01*
X137341229Y-111641631D01*
X137215564Y-111724601D01*
X137148221Y-111841244D01*
X137126874Y-111945561D01*
X137130176Y-112141872D01*
X137167150Y-112279861D01*
X137262446Y-112451522D01*
X137333092Y-112531191D01*
X137449734Y-112598534D01*
X137600048Y-112607556D01*
X137830031Y-112545933D01*
X136358144Y-112940324D02*
X136910101Y-112792427D01*
X136634122Y-112866375D02*
X136375303Y-111900450D01*
X136504270Y-112013790D01*
X136620913Y-112081133D01*
X136725230Y-112102480D01*
X157182380Y-114791666D02*
X157896666Y-114791666D01*
X158039523Y-114744047D01*
X158134761Y-114648809D01*
X158182380Y-114505952D01*
X158182380Y-114410714D01*
X158182380Y-115791666D02*
X158182380Y-115220238D01*
X158182380Y-115505952D02*
X157182380Y-115505952D01*
X157325238Y-115410714D01*
X157420476Y-115315476D01*
X157468095Y-115220238D01*
X154824186Y-107787871D02*
X154726519Y-107673255D01*
X154637327Y-107452497D01*
X154645802Y-107346355D01*
X154672115Y-107284365D01*
X154742580Y-107204537D01*
X154830883Y-107168860D01*
X154937025Y-107177335D01*
X154999015Y-107203648D01*
X155078843Y-107274113D01*
X155194349Y-107432881D01*
X155274177Y-107503345D01*
X155336167Y-107529659D01*
X155442309Y-107538133D01*
X155530612Y-107502457D01*
X155601077Y-107422628D01*
X155627390Y-107360638D01*
X155635865Y-107254496D01*
X155546673Y-107033738D01*
X155449006Y-106919122D01*
X155368289Y-106592222D02*
X154351913Y-106746071D01*
X154942833Y-106301888D01*
X154209206Y-106392858D01*
X155047197Y-105797493D01*
X153781084Y-105333219D02*
X153995145Y-105863039D01*
X153888114Y-105598129D02*
X154815298Y-105223522D01*
X154718520Y-105365341D01*
X154665894Y-105489321D01*
X154657419Y-105595462D01*
X142895238Y-104947619D02*
X142990476Y-104900000D01*
X143085714Y-104804761D01*
X143228571Y-104661904D01*
X143323809Y-104614285D01*
X143419047Y-104614285D01*
X143371428Y-104852380D02*
X143466666Y-104804761D01*
X143561904Y-104709523D01*
X143609523Y-104519047D01*
X143609523Y-104185714D01*
X143561904Y-103995238D01*
X143466666Y-103900000D01*
X143371428Y-103852380D01*
X143180952Y-103852380D01*
X143085714Y-103900000D01*
X142990476Y-103995238D01*
X142942857Y-104185714D01*
X142942857Y-104519047D01*
X142990476Y-104709523D01*
X143085714Y-104804761D01*
X143180952Y-104852380D01*
X143371428Y-104852380D01*
X141990476Y-104852380D02*
X142561904Y-104852380D01*
X142276190Y-104852380D02*
X142276190Y-103852380D01*
X142371428Y-103995238D01*
X142466666Y-104090476D01*
X142561904Y-104138095D01*
X149895238Y-102447619D02*
X149990476Y-102400000D01*
X150085714Y-102304761D01*
X150228571Y-102161904D01*
X150323809Y-102114285D01*
X150419047Y-102114285D01*
X150371428Y-102352380D02*
X150466666Y-102304761D01*
X150561904Y-102209523D01*
X150609523Y-102019047D01*
X150609523Y-101685714D01*
X150561904Y-101495238D01*
X150466666Y-101400000D01*
X150371428Y-101352380D01*
X150180952Y-101352380D01*
X150085714Y-101400000D01*
X149990476Y-101495238D01*
X149942857Y-101685714D01*
X149942857Y-102019047D01*
X149990476Y-102209523D01*
X150085714Y-102304761D01*
X150180952Y-102352380D01*
X150371428Y-102352380D01*
X149561904Y-101447619D02*
X149514285Y-101400000D01*
X149419047Y-101352380D01*
X149180952Y-101352380D01*
X149085714Y-101400000D01*
X149038095Y-101447619D01*
X148990476Y-101542857D01*
X148990476Y-101638095D01*
X149038095Y-101780952D01*
X149609523Y-102352380D01*
X148990476Y-102352380D01*
X140951021Y-111700051D02*
X141149749Y-111153814D01*
X141502979Y-111552155D02*
X141244160Y-110586229D01*
X140876188Y-110684827D01*
X140796520Y-110755473D01*
X140762848Y-110813794D01*
X140741501Y-110918111D01*
X140778475Y-111056101D01*
X140849121Y-111135769D01*
X140907442Y-111169441D01*
X141011760Y-111190788D01*
X141379731Y-111092190D01*
X140031092Y-111946546D02*
X140583049Y-111798649D01*
X140307070Y-111872597D02*
X140048251Y-110906672D01*
X140177218Y-111020012D01*
X140293861Y-111087355D01*
X140398178Y-111108702D01*
X153252380Y-101533333D02*
X152776190Y-101200000D01*
X153252380Y-100961904D02*
X152252380Y-100961904D01*
X152252380Y-101342857D01*
X152300000Y-101438095D01*
X152347619Y-101485714D01*
X152442857Y-101533333D01*
X152585714Y-101533333D01*
X152680952Y-101485714D01*
X152728571Y-101438095D01*
X152776190Y-101342857D01*
X152776190Y-100961904D01*
X152347619Y-101914285D02*
X152300000Y-101961904D01*
X152252380Y-102057142D01*
X152252380Y-102295238D01*
X152300000Y-102390476D01*
X152347619Y-102438095D01*
X152442857Y-102485714D01*
X152538095Y-102485714D01*
X152680952Y-102438095D01*
X153252380Y-101866666D01*
X153252380Y-102485714D01*
X151566666Y-112202380D02*
X151900000Y-111726190D01*
X152138095Y-112202380D02*
X152138095Y-111202380D01*
X151757142Y-111202380D01*
X151661904Y-111250000D01*
X151614285Y-111297619D01*
X151566666Y-111392857D01*
X151566666Y-111535714D01*
X151614285Y-111630952D01*
X151661904Y-111678571D01*
X151757142Y-111726190D01*
X152138095Y-111726190D01*
X151233333Y-111202380D02*
X150614285Y-111202380D01*
X150947619Y-111583333D01*
X150804761Y-111583333D01*
X150709523Y-111630952D01*
X150661904Y-111678571D01*
X150614285Y-111773809D01*
X150614285Y-112011904D01*
X150661904Y-112107142D01*
X150709523Y-112154761D01*
X150804761Y-112202380D01*
X151090476Y-112202380D01*
X151185714Y-112154761D01*
X151233333Y-112107142D01*
X143766666Y-110552380D02*
X144100000Y-110076190D01*
X144338095Y-110552380D02*
X144338095Y-109552380D01*
X143957142Y-109552380D01*
X143861904Y-109600000D01*
X143814285Y-109647619D01*
X143766666Y-109742857D01*
X143766666Y-109885714D01*
X143814285Y-109980952D01*
X143861904Y-110028571D01*
X143957142Y-110076190D01*
X144338095Y-110076190D01*
X142909523Y-109885714D02*
X142909523Y-110552380D01*
X143147619Y-109504761D02*
X143385714Y-110219047D01*
X142766666Y-110219047D01*
X146224166Y-109737142D02*
X146271785Y-109784761D01*
X146414642Y-109832380D01*
X146509880Y-109832380D01*
X146652738Y-109784761D01*
X146747976Y-109689523D01*
X146795595Y-109594285D01*
X146843214Y-109403809D01*
X146843214Y-109260952D01*
X146795595Y-109070476D01*
X146747976Y-108975238D01*
X146652738Y-108880000D01*
X146509880Y-108832380D01*
X146414642Y-108832380D01*
X146271785Y-108880000D01*
X146224166Y-108927619D01*
X145271785Y-109832380D02*
X145843214Y-109832380D01*
X145557500Y-109832380D02*
X145557500Y-108832380D01*
X145652738Y-108975238D01*
X145747976Y-109070476D01*
X145843214Y-109118095D01*
X150524167Y-106457142D02*
X150571786Y-106504761D01*
X150714643Y-106552380D01*
X150809881Y-106552380D01*
X150952739Y-106504761D01*
X151047977Y-106409523D01*
X151095596Y-106314285D01*
X151143215Y-106123809D01*
X151143215Y-105980952D01*
X151095596Y-105790476D01*
X151047977Y-105695238D01*
X150952739Y-105600000D01*
X150809881Y-105552380D01*
X150714643Y-105552380D01*
X150571786Y-105600000D01*
X150524167Y-105647619D01*
X150143215Y-105647619D02*
X150095596Y-105600000D01*
X150000358Y-105552380D01*
X149762262Y-105552380D01*
X149667024Y-105600000D01*
X149619405Y-105647619D01*
X149571786Y-105742857D01*
X149571786Y-105838095D01*
X149619405Y-105980952D01*
X150190834Y-106552380D01*
X149571786Y-106552380D01*
M02*
