M48
; DRILL file {KiCad 5.1.2} date Sun 30 Jun 2019 09:34:48 PM CDT
; FORMAT={-:-/ absolute / inch / decimal}
; #@! TF.CreationDate,2019-06-30T21:34:48-05:00
; #@! TF.GenerationSoftware,Kicad,Pcbnew,5.1.2
; #@! TF.FileFunction,Plated,1,2,PTH
FMAT,2
INCH
T1C0.0079
T2C0.0157
T3C0.0394
%
G90
G05
T1
X5.765Y-4.1877
X5.8012Y-4.1515
X5.8181Y-4.2408
X5.8374Y-4.1153
X5.8543Y-4.2047
X5.8905Y-4.1685
T2
X5.0744Y-3.6354
T3
X5.3269Y-3.8262
X5.3976Y-3.7555
X5.3976Y-3.8969
X5.4683Y-3.6848
X5.4683Y-3.8262
X5.5391Y-3.7555
X6.8187Y-5.2757
X6.8894Y-5.205
X6.8894Y-5.3465
X6.9601Y-5.1343
X6.9601Y-5.2757
X7.0308Y-5.205
X6.1294Y-4.613
X6.2002Y-4.5423
X6.2002Y-4.6837
X6.2709Y-4.4716
X6.2709Y-4.613
X6.3416Y-4.5423
X4.5393Y-3.0701
X4.61Y-2.9994
X4.61Y-3.1408
X4.6807Y-2.9287
X4.6807Y-3.0701
X4.7514Y-2.9994
T0
M30
