M48
; DRILL file {KiCad 5.1.2} date Sun 14 Jul 2019 12:04:41 PM CDT
; FORMAT={-:-/ absolute / inch / decimal}
; #@! TF.CreationDate,2019-07-14T12:04:41-05:00
; #@! TF.GenerationSoftware,Kicad,Pcbnew,5.1.2
; #@! TF.FileFunction,Plated,1,2,PTH
FMAT,2
INCH
T1C0.0079
T2C0.0157
T3C0.0394
%
G90
G05
T1
X5.765Y-4.1877
X5.8012Y-4.1515
X5.8181Y-4.2408
X5.8374Y-4.1153
X5.8543Y-4.2047
X5.8905Y-4.1685
T2
X5.0744Y-3.6354
T3
X6.8633Y-5.3189
X6.934Y-5.2482
X6.934Y-5.3896
X7.0047Y-5.1775
X7.0047Y-5.3189
X7.0754Y-5.2482
X6.1697Y-4.5118
X6.1697Y-4.6118
X6.2697Y-4.5118
X6.2697Y-4.6118
X6.3697Y-4.5118
X6.3697Y-4.6118
X5.3681Y-3.7262
X5.3681Y-3.8262
X5.3681Y-3.9262
X5.4681Y-3.7262
X5.4681Y-3.8262
X5.4681Y-3.9262
X4.5147Y-3.042
X4.5854Y-2.9713
X4.5854Y-3.1127
X4.6561Y-2.9005
X4.6561Y-3.042
X4.7269Y-2.9713
T0
M30
