G04 #@! TF.GenerationSoftware,KiCad,Pcbnew,5.1.2*
G04 #@! TF.CreationDate,2019-07-14T12:04:39-05:00*
G04 #@! TF.ProjectId,Wrench,5772656e-6368-42e6-9b69-6361645f7063,rev?*
G04 #@! TF.SameCoordinates,Original*
G04 #@! TF.FileFunction,Paste,Bot*
G04 #@! TF.FilePolarity,Positive*
%FSLAX46Y46*%
G04 Gerber Fmt 4.6, Leading zero omitted, Abs format (unit mm)*
G04 Created by KiCad (PCBNEW 5.1.2) date 2019-07-14 12:04:39*
%MOMM*%
%LPD*%
G04 APERTURE LIST*
%ADD10C,5.500000*%
%ADD11C,0.100000*%
%ADD12C,0.975000*%
%ADD13R,1.100000X1.000000*%
%ADD14R,1.350000X1.500000*%
%ADD15R,0.400000X1.800000*%
%ADD16R,1.500000X1.400000*%
%ADD17C,0.800000*%
%ADD18C,0.900000*%
%ADD19C,0.970000*%
%ADD20C,0.600000*%
%ADD21C,2.000000*%
%ADD22C,1.500000*%
G04 APERTURE END LIST*
D10*
X102200000Y-78920000D03*
D11*
G36*
X103758094Y-82679633D02*
G01*
X98589785Y-80798522D01*
X100641906Y-75160367D01*
X105810215Y-77041478D01*
X103758094Y-82679633D01*
X103758094Y-82679633D01*
G37*
D10*
X112665816Y-50165406D03*
D11*
G36*
X114223910Y-53925039D02*
G01*
X109055601Y-52043928D01*
X111107722Y-46405773D01*
X116276031Y-48286884D01*
X114223910Y-53925039D01*
X114223910Y-53925039D01*
G37*
G36*
X147074152Y-111962449D02*
G01*
X147097813Y-111965959D01*
X147121017Y-111971771D01*
X147143539Y-111979829D01*
X147165163Y-111990057D01*
X147185680Y-112002354D01*
X147204893Y-112016604D01*
X147222617Y-112032668D01*
X147567332Y-112377383D01*
X147583396Y-112395107D01*
X147597646Y-112414320D01*
X147609943Y-112434837D01*
X147620171Y-112456461D01*
X147628229Y-112478983D01*
X147634041Y-112502187D01*
X147637551Y-112525848D01*
X147638725Y-112549740D01*
X147637551Y-112573632D01*
X147634041Y-112597293D01*
X147628229Y-112620497D01*
X147620171Y-112643019D01*
X147609943Y-112664643D01*
X147597646Y-112685160D01*
X147583396Y-112704373D01*
X147567332Y-112722097D01*
X146922097Y-113367332D01*
X146904373Y-113383396D01*
X146885160Y-113397646D01*
X146864643Y-113409943D01*
X146843019Y-113420171D01*
X146820497Y-113428229D01*
X146797293Y-113434041D01*
X146773632Y-113437551D01*
X146749740Y-113438725D01*
X146725848Y-113437551D01*
X146702187Y-113434041D01*
X146678983Y-113428229D01*
X146656461Y-113420171D01*
X146634837Y-113409943D01*
X146614320Y-113397646D01*
X146595107Y-113383396D01*
X146577383Y-113367332D01*
X146232668Y-113022617D01*
X146216604Y-113004893D01*
X146202354Y-112985680D01*
X146190057Y-112965163D01*
X146179829Y-112943539D01*
X146171771Y-112921017D01*
X146165959Y-112897813D01*
X146162449Y-112874152D01*
X146161275Y-112850260D01*
X146162449Y-112826368D01*
X146165959Y-112802707D01*
X146171771Y-112779503D01*
X146179829Y-112756981D01*
X146190057Y-112735357D01*
X146202354Y-112714840D01*
X146216604Y-112695627D01*
X146232668Y-112677903D01*
X146877903Y-112032668D01*
X146895627Y-112016604D01*
X146914840Y-112002354D01*
X146935357Y-111990057D01*
X146956981Y-111979829D01*
X146979503Y-111971771D01*
X147002707Y-111965959D01*
X147026368Y-111962449D01*
X147050260Y-111961275D01*
X147074152Y-111962449D01*
X147074152Y-111962449D01*
G37*
D12*
X146900000Y-112700000D03*
D11*
G36*
X145748326Y-110636623D02*
G01*
X145771987Y-110640133D01*
X145795191Y-110645945D01*
X145817713Y-110654003D01*
X145839337Y-110664231D01*
X145859854Y-110676528D01*
X145879067Y-110690778D01*
X145896791Y-110706842D01*
X146241506Y-111051557D01*
X146257570Y-111069281D01*
X146271820Y-111088494D01*
X146284117Y-111109011D01*
X146294345Y-111130635D01*
X146302403Y-111153157D01*
X146308215Y-111176361D01*
X146311725Y-111200022D01*
X146312899Y-111223914D01*
X146311725Y-111247806D01*
X146308215Y-111271467D01*
X146302403Y-111294671D01*
X146294345Y-111317193D01*
X146284117Y-111338817D01*
X146271820Y-111359334D01*
X146257570Y-111378547D01*
X146241506Y-111396271D01*
X145596271Y-112041506D01*
X145578547Y-112057570D01*
X145559334Y-112071820D01*
X145538817Y-112084117D01*
X145517193Y-112094345D01*
X145494671Y-112102403D01*
X145471467Y-112108215D01*
X145447806Y-112111725D01*
X145423914Y-112112899D01*
X145400022Y-112111725D01*
X145376361Y-112108215D01*
X145353157Y-112102403D01*
X145330635Y-112094345D01*
X145309011Y-112084117D01*
X145288494Y-112071820D01*
X145269281Y-112057570D01*
X145251557Y-112041506D01*
X144906842Y-111696791D01*
X144890778Y-111679067D01*
X144876528Y-111659854D01*
X144864231Y-111639337D01*
X144854003Y-111617713D01*
X144845945Y-111595191D01*
X144840133Y-111571987D01*
X144836623Y-111548326D01*
X144835449Y-111524434D01*
X144836623Y-111500542D01*
X144840133Y-111476881D01*
X144845945Y-111453677D01*
X144854003Y-111431155D01*
X144864231Y-111409531D01*
X144876528Y-111389014D01*
X144890778Y-111369801D01*
X144906842Y-111352077D01*
X145552077Y-110706842D01*
X145569801Y-110690778D01*
X145589014Y-110676528D01*
X145609531Y-110664231D01*
X145631155Y-110654003D01*
X145653677Y-110645945D01*
X145676881Y-110640133D01*
X145700542Y-110636623D01*
X145724434Y-110635449D01*
X145748326Y-110636623D01*
X145748326Y-110636623D01*
G37*
D12*
X145574174Y-111374174D03*
D11*
G36*
X131647806Y-90488275D02*
G01*
X131671467Y-90491785D01*
X131694671Y-90497597D01*
X131717193Y-90505655D01*
X131738817Y-90515883D01*
X131759334Y-90528180D01*
X131778547Y-90542430D01*
X131796271Y-90558494D01*
X132441506Y-91203729D01*
X132457570Y-91221453D01*
X132471820Y-91240666D01*
X132484117Y-91261183D01*
X132494345Y-91282807D01*
X132502403Y-91305329D01*
X132508215Y-91328533D01*
X132511725Y-91352194D01*
X132512899Y-91376086D01*
X132511725Y-91399978D01*
X132508215Y-91423639D01*
X132502403Y-91446843D01*
X132494345Y-91469365D01*
X132484117Y-91490989D01*
X132471820Y-91511506D01*
X132457570Y-91530719D01*
X132441506Y-91548443D01*
X132096791Y-91893158D01*
X132079067Y-91909222D01*
X132059854Y-91923472D01*
X132039337Y-91935769D01*
X132017713Y-91945997D01*
X131995191Y-91954055D01*
X131971987Y-91959867D01*
X131948326Y-91963377D01*
X131924434Y-91964551D01*
X131900542Y-91963377D01*
X131876881Y-91959867D01*
X131853677Y-91954055D01*
X131831155Y-91945997D01*
X131809531Y-91935769D01*
X131789014Y-91923472D01*
X131769801Y-91909222D01*
X131752077Y-91893158D01*
X131106842Y-91247923D01*
X131090778Y-91230199D01*
X131076528Y-91210986D01*
X131064231Y-91190469D01*
X131054003Y-91168845D01*
X131045945Y-91146323D01*
X131040133Y-91123119D01*
X131036623Y-91099458D01*
X131035449Y-91075566D01*
X131036623Y-91051674D01*
X131040133Y-91028013D01*
X131045945Y-91004809D01*
X131054003Y-90982287D01*
X131064231Y-90960663D01*
X131076528Y-90940146D01*
X131090778Y-90920933D01*
X131106842Y-90903209D01*
X131451557Y-90558494D01*
X131469281Y-90542430D01*
X131488494Y-90528180D01*
X131509011Y-90515883D01*
X131530635Y-90505655D01*
X131553157Y-90497597D01*
X131576361Y-90491785D01*
X131600022Y-90488275D01*
X131623914Y-90487101D01*
X131647806Y-90488275D01*
X131647806Y-90488275D01*
G37*
D12*
X131774174Y-91225826D03*
D11*
G36*
X132973632Y-89162449D02*
G01*
X132997293Y-89165959D01*
X133020497Y-89171771D01*
X133043019Y-89179829D01*
X133064643Y-89190057D01*
X133085160Y-89202354D01*
X133104373Y-89216604D01*
X133122097Y-89232668D01*
X133767332Y-89877903D01*
X133783396Y-89895627D01*
X133797646Y-89914840D01*
X133809943Y-89935357D01*
X133820171Y-89956981D01*
X133828229Y-89979503D01*
X133834041Y-90002707D01*
X133837551Y-90026368D01*
X133838725Y-90050260D01*
X133837551Y-90074152D01*
X133834041Y-90097813D01*
X133828229Y-90121017D01*
X133820171Y-90143539D01*
X133809943Y-90165163D01*
X133797646Y-90185680D01*
X133783396Y-90204893D01*
X133767332Y-90222617D01*
X133422617Y-90567332D01*
X133404893Y-90583396D01*
X133385680Y-90597646D01*
X133365163Y-90609943D01*
X133343539Y-90620171D01*
X133321017Y-90628229D01*
X133297813Y-90634041D01*
X133274152Y-90637551D01*
X133250260Y-90638725D01*
X133226368Y-90637551D01*
X133202707Y-90634041D01*
X133179503Y-90628229D01*
X133156981Y-90620171D01*
X133135357Y-90609943D01*
X133114840Y-90597646D01*
X133095627Y-90583396D01*
X133077903Y-90567332D01*
X132432668Y-89922097D01*
X132416604Y-89904373D01*
X132402354Y-89885160D01*
X132390057Y-89864643D01*
X132379829Y-89843019D01*
X132371771Y-89820497D01*
X132365959Y-89797293D01*
X132362449Y-89773632D01*
X132361275Y-89749740D01*
X132362449Y-89725848D01*
X132365959Y-89702187D01*
X132371771Y-89678983D01*
X132379829Y-89656461D01*
X132390057Y-89634837D01*
X132402354Y-89614320D01*
X132416604Y-89595107D01*
X132432668Y-89577383D01*
X132777383Y-89232668D01*
X132795107Y-89216604D01*
X132814320Y-89202354D01*
X132834837Y-89190057D01*
X132856461Y-89179829D01*
X132878983Y-89171771D01*
X132902187Y-89165959D01*
X132925848Y-89162449D01*
X132949740Y-89161275D01*
X132973632Y-89162449D01*
X132973632Y-89162449D01*
G37*
D12*
X133100000Y-89900000D03*
D11*
G36*
X140211239Y-104999536D02*
G01*
X140234900Y-105003046D01*
X140258104Y-105008858D01*
X140280626Y-105016916D01*
X140302250Y-105027144D01*
X140322767Y-105039441D01*
X140341980Y-105053691D01*
X140359704Y-105069755D01*
X140704419Y-105414470D01*
X140720483Y-105432194D01*
X140734733Y-105451407D01*
X140747030Y-105471924D01*
X140757258Y-105493548D01*
X140765316Y-105516070D01*
X140771128Y-105539274D01*
X140774638Y-105562935D01*
X140775812Y-105586827D01*
X140774638Y-105610719D01*
X140771128Y-105634380D01*
X140765316Y-105657584D01*
X140757258Y-105680106D01*
X140747030Y-105701730D01*
X140734733Y-105722247D01*
X140720483Y-105741460D01*
X140704419Y-105759184D01*
X140059184Y-106404419D01*
X140041460Y-106420483D01*
X140022247Y-106434733D01*
X140001730Y-106447030D01*
X139980106Y-106457258D01*
X139957584Y-106465316D01*
X139934380Y-106471128D01*
X139910719Y-106474638D01*
X139886827Y-106475812D01*
X139862935Y-106474638D01*
X139839274Y-106471128D01*
X139816070Y-106465316D01*
X139793548Y-106457258D01*
X139771924Y-106447030D01*
X139751407Y-106434733D01*
X139732194Y-106420483D01*
X139714470Y-106404419D01*
X139369755Y-106059704D01*
X139353691Y-106041980D01*
X139339441Y-106022767D01*
X139327144Y-106002250D01*
X139316916Y-105980626D01*
X139308858Y-105958104D01*
X139303046Y-105934900D01*
X139299536Y-105911239D01*
X139298362Y-105887347D01*
X139299536Y-105863455D01*
X139303046Y-105839794D01*
X139308858Y-105816590D01*
X139316916Y-105794068D01*
X139327144Y-105772444D01*
X139339441Y-105751927D01*
X139353691Y-105732714D01*
X139369755Y-105714990D01*
X140014990Y-105069755D01*
X140032714Y-105053691D01*
X140051927Y-105039441D01*
X140072444Y-105027144D01*
X140094068Y-105016916D01*
X140116590Y-105008858D01*
X140139794Y-105003046D01*
X140163455Y-104999536D01*
X140187347Y-104998362D01*
X140211239Y-104999536D01*
X140211239Y-104999536D01*
G37*
D12*
X140037087Y-105737087D03*
D11*
G36*
X141537065Y-106325362D02*
G01*
X141560726Y-106328872D01*
X141583930Y-106334684D01*
X141606452Y-106342742D01*
X141628076Y-106352970D01*
X141648593Y-106365267D01*
X141667806Y-106379517D01*
X141685530Y-106395581D01*
X142030245Y-106740296D01*
X142046309Y-106758020D01*
X142060559Y-106777233D01*
X142072856Y-106797750D01*
X142083084Y-106819374D01*
X142091142Y-106841896D01*
X142096954Y-106865100D01*
X142100464Y-106888761D01*
X142101638Y-106912653D01*
X142100464Y-106936545D01*
X142096954Y-106960206D01*
X142091142Y-106983410D01*
X142083084Y-107005932D01*
X142072856Y-107027556D01*
X142060559Y-107048073D01*
X142046309Y-107067286D01*
X142030245Y-107085010D01*
X141385010Y-107730245D01*
X141367286Y-107746309D01*
X141348073Y-107760559D01*
X141327556Y-107772856D01*
X141305932Y-107783084D01*
X141283410Y-107791142D01*
X141260206Y-107796954D01*
X141236545Y-107800464D01*
X141212653Y-107801638D01*
X141188761Y-107800464D01*
X141165100Y-107796954D01*
X141141896Y-107791142D01*
X141119374Y-107783084D01*
X141097750Y-107772856D01*
X141077233Y-107760559D01*
X141058020Y-107746309D01*
X141040296Y-107730245D01*
X140695581Y-107385530D01*
X140679517Y-107367806D01*
X140665267Y-107348593D01*
X140652970Y-107328076D01*
X140642742Y-107306452D01*
X140634684Y-107283930D01*
X140628872Y-107260726D01*
X140625362Y-107237065D01*
X140624188Y-107213173D01*
X140625362Y-107189281D01*
X140628872Y-107165620D01*
X140634684Y-107142416D01*
X140642742Y-107119894D01*
X140652970Y-107098270D01*
X140665267Y-107077753D01*
X140679517Y-107058540D01*
X140695581Y-107040816D01*
X141340816Y-106395581D01*
X141358540Y-106379517D01*
X141377753Y-106365267D01*
X141398270Y-106352970D01*
X141419894Y-106342742D01*
X141442416Y-106334684D01*
X141465620Y-106328872D01*
X141489281Y-106325362D01*
X141513173Y-106324188D01*
X141537065Y-106325362D01*
X141537065Y-106325362D01*
G37*
D12*
X141362913Y-107062913D03*
D11*
G36*
X135973632Y-86162449D02*
G01*
X135997293Y-86165959D01*
X136020497Y-86171771D01*
X136043019Y-86179829D01*
X136064643Y-86190057D01*
X136085160Y-86202354D01*
X136104373Y-86216604D01*
X136122097Y-86232668D01*
X136767332Y-86877903D01*
X136783396Y-86895627D01*
X136797646Y-86914840D01*
X136809943Y-86935357D01*
X136820171Y-86956981D01*
X136828229Y-86979503D01*
X136834041Y-87002707D01*
X136837551Y-87026368D01*
X136838725Y-87050260D01*
X136837551Y-87074152D01*
X136834041Y-87097813D01*
X136828229Y-87121017D01*
X136820171Y-87143539D01*
X136809943Y-87165163D01*
X136797646Y-87185680D01*
X136783396Y-87204893D01*
X136767332Y-87222617D01*
X136422617Y-87567332D01*
X136404893Y-87583396D01*
X136385680Y-87597646D01*
X136365163Y-87609943D01*
X136343539Y-87620171D01*
X136321017Y-87628229D01*
X136297813Y-87634041D01*
X136274152Y-87637551D01*
X136250260Y-87638725D01*
X136226368Y-87637551D01*
X136202707Y-87634041D01*
X136179503Y-87628229D01*
X136156981Y-87620171D01*
X136135357Y-87609943D01*
X136114840Y-87597646D01*
X136095627Y-87583396D01*
X136077903Y-87567332D01*
X135432668Y-86922097D01*
X135416604Y-86904373D01*
X135402354Y-86885160D01*
X135390057Y-86864643D01*
X135379829Y-86843019D01*
X135371771Y-86820497D01*
X135365959Y-86797293D01*
X135362449Y-86773632D01*
X135361275Y-86749740D01*
X135362449Y-86725848D01*
X135365959Y-86702187D01*
X135371771Y-86678983D01*
X135379829Y-86656461D01*
X135390057Y-86634837D01*
X135402354Y-86614320D01*
X135416604Y-86595107D01*
X135432668Y-86577383D01*
X135777383Y-86232668D01*
X135795107Y-86216604D01*
X135814320Y-86202354D01*
X135834837Y-86190057D01*
X135856461Y-86179829D01*
X135878983Y-86171771D01*
X135902187Y-86165959D01*
X135925848Y-86162449D01*
X135949740Y-86161275D01*
X135973632Y-86162449D01*
X135973632Y-86162449D01*
G37*
D12*
X136100000Y-86900000D03*
D11*
G36*
X134647806Y-87488275D02*
G01*
X134671467Y-87491785D01*
X134694671Y-87497597D01*
X134717193Y-87505655D01*
X134738817Y-87515883D01*
X134759334Y-87528180D01*
X134778547Y-87542430D01*
X134796271Y-87558494D01*
X135441506Y-88203729D01*
X135457570Y-88221453D01*
X135471820Y-88240666D01*
X135484117Y-88261183D01*
X135494345Y-88282807D01*
X135502403Y-88305329D01*
X135508215Y-88328533D01*
X135511725Y-88352194D01*
X135512899Y-88376086D01*
X135511725Y-88399978D01*
X135508215Y-88423639D01*
X135502403Y-88446843D01*
X135494345Y-88469365D01*
X135484117Y-88490989D01*
X135471820Y-88511506D01*
X135457570Y-88530719D01*
X135441506Y-88548443D01*
X135096791Y-88893158D01*
X135079067Y-88909222D01*
X135059854Y-88923472D01*
X135039337Y-88935769D01*
X135017713Y-88945997D01*
X134995191Y-88954055D01*
X134971987Y-88959867D01*
X134948326Y-88963377D01*
X134924434Y-88964551D01*
X134900542Y-88963377D01*
X134876881Y-88959867D01*
X134853677Y-88954055D01*
X134831155Y-88945997D01*
X134809531Y-88935769D01*
X134789014Y-88923472D01*
X134769801Y-88909222D01*
X134752077Y-88893158D01*
X134106842Y-88247923D01*
X134090778Y-88230199D01*
X134076528Y-88210986D01*
X134064231Y-88190469D01*
X134054003Y-88168845D01*
X134045945Y-88146323D01*
X134040133Y-88123119D01*
X134036623Y-88099458D01*
X134035449Y-88075566D01*
X134036623Y-88051674D01*
X134040133Y-88028013D01*
X134045945Y-88004809D01*
X134054003Y-87982287D01*
X134064231Y-87960663D01*
X134076528Y-87940146D01*
X134090778Y-87920933D01*
X134106842Y-87903209D01*
X134451557Y-87558494D01*
X134469281Y-87542430D01*
X134488494Y-87528180D01*
X134509011Y-87515883D01*
X134530635Y-87505655D01*
X134553157Y-87497597D01*
X134576361Y-87491785D01*
X134600022Y-87488275D01*
X134623914Y-87487101D01*
X134647806Y-87488275D01*
X134647806Y-87488275D01*
G37*
D12*
X134774174Y-88225826D03*
D13*
X177900000Y-144250000D03*
X180900000Y-144250000D03*
D14*
X175325000Y-143070000D03*
X183475000Y-143070000D03*
D15*
X178100000Y-140200000D03*
X180700000Y-140200000D03*
X178750000Y-140200000D03*
X180050000Y-140200000D03*
X179400000Y-140200000D03*
D16*
X176150000Y-140400000D03*
X182650000Y-140400000D03*
D11*
G36*
X148648326Y-113636623D02*
G01*
X148671987Y-113640133D01*
X148695191Y-113645945D01*
X148717713Y-113654003D01*
X148739337Y-113664231D01*
X148759854Y-113676528D01*
X148779067Y-113690778D01*
X148796791Y-113706842D01*
X149141506Y-114051557D01*
X149157570Y-114069281D01*
X149171820Y-114088494D01*
X149184117Y-114109011D01*
X149194345Y-114130635D01*
X149202403Y-114153157D01*
X149208215Y-114176361D01*
X149211725Y-114200022D01*
X149212899Y-114223914D01*
X149211725Y-114247806D01*
X149208215Y-114271467D01*
X149202403Y-114294671D01*
X149194345Y-114317193D01*
X149184117Y-114338817D01*
X149171820Y-114359334D01*
X149157570Y-114378547D01*
X149141506Y-114396271D01*
X148496271Y-115041506D01*
X148478547Y-115057570D01*
X148459334Y-115071820D01*
X148438817Y-115084117D01*
X148417193Y-115094345D01*
X148394671Y-115102403D01*
X148371467Y-115108215D01*
X148347806Y-115111725D01*
X148323914Y-115112899D01*
X148300022Y-115111725D01*
X148276361Y-115108215D01*
X148253157Y-115102403D01*
X148230635Y-115094345D01*
X148209011Y-115084117D01*
X148188494Y-115071820D01*
X148169281Y-115057570D01*
X148151557Y-115041506D01*
X147806842Y-114696791D01*
X147790778Y-114679067D01*
X147776528Y-114659854D01*
X147764231Y-114639337D01*
X147754003Y-114617713D01*
X147745945Y-114595191D01*
X147740133Y-114571987D01*
X147736623Y-114548326D01*
X147735449Y-114524434D01*
X147736623Y-114500542D01*
X147740133Y-114476881D01*
X147745945Y-114453677D01*
X147754003Y-114431155D01*
X147764231Y-114409531D01*
X147776528Y-114389014D01*
X147790778Y-114369801D01*
X147806842Y-114352077D01*
X148452077Y-113706842D01*
X148469801Y-113690778D01*
X148489014Y-113676528D01*
X148509531Y-113664231D01*
X148531155Y-113654003D01*
X148553677Y-113645945D01*
X148576881Y-113640133D01*
X148600542Y-113636623D01*
X148624434Y-113635449D01*
X148648326Y-113636623D01*
X148648326Y-113636623D01*
G37*
D12*
X148474174Y-114374174D03*
D11*
G36*
X149974152Y-114962449D02*
G01*
X149997813Y-114965959D01*
X150021017Y-114971771D01*
X150043539Y-114979829D01*
X150065163Y-114990057D01*
X150085680Y-115002354D01*
X150104893Y-115016604D01*
X150122617Y-115032668D01*
X150467332Y-115377383D01*
X150483396Y-115395107D01*
X150497646Y-115414320D01*
X150509943Y-115434837D01*
X150520171Y-115456461D01*
X150528229Y-115478983D01*
X150534041Y-115502187D01*
X150537551Y-115525848D01*
X150538725Y-115549740D01*
X150537551Y-115573632D01*
X150534041Y-115597293D01*
X150528229Y-115620497D01*
X150520171Y-115643019D01*
X150509943Y-115664643D01*
X150497646Y-115685160D01*
X150483396Y-115704373D01*
X150467332Y-115722097D01*
X149822097Y-116367332D01*
X149804373Y-116383396D01*
X149785160Y-116397646D01*
X149764643Y-116409943D01*
X149743019Y-116420171D01*
X149720497Y-116428229D01*
X149697293Y-116434041D01*
X149673632Y-116437551D01*
X149649740Y-116438725D01*
X149625848Y-116437551D01*
X149602187Y-116434041D01*
X149578983Y-116428229D01*
X149556461Y-116420171D01*
X149534837Y-116409943D01*
X149514320Y-116397646D01*
X149495107Y-116383396D01*
X149477383Y-116367332D01*
X149132668Y-116022617D01*
X149116604Y-116004893D01*
X149102354Y-115985680D01*
X149090057Y-115965163D01*
X149079829Y-115943539D01*
X149071771Y-115921017D01*
X149065959Y-115897813D01*
X149062449Y-115874152D01*
X149061275Y-115850260D01*
X149062449Y-115826368D01*
X149065959Y-115802707D01*
X149071771Y-115779503D01*
X149079829Y-115756981D01*
X149090057Y-115735357D01*
X149102354Y-115714840D01*
X149116604Y-115695627D01*
X149132668Y-115677903D01*
X149777903Y-115032668D01*
X149795627Y-115016604D01*
X149814840Y-115002354D01*
X149835357Y-114990057D01*
X149856981Y-114979829D01*
X149879503Y-114971771D01*
X149902707Y-114965959D01*
X149926368Y-114962449D01*
X149950260Y-114961275D01*
X149974152Y-114962449D01*
X149974152Y-114962449D01*
G37*
D12*
X149800000Y-115700000D03*
D11*
G36*
X144399978Y-109188275D02*
G01*
X144423639Y-109191785D01*
X144446843Y-109197597D01*
X144469365Y-109205655D01*
X144490989Y-109215883D01*
X144511506Y-109228180D01*
X144530719Y-109242430D01*
X144548443Y-109258494D01*
X144893158Y-109603209D01*
X144909222Y-109620933D01*
X144923472Y-109640146D01*
X144935769Y-109660663D01*
X144945997Y-109682287D01*
X144954055Y-109704809D01*
X144959867Y-109728013D01*
X144963377Y-109751674D01*
X144964551Y-109775566D01*
X144963377Y-109799458D01*
X144959867Y-109823119D01*
X144954055Y-109846323D01*
X144945997Y-109868845D01*
X144935769Y-109890469D01*
X144923472Y-109910986D01*
X144909222Y-109930199D01*
X144893158Y-109947923D01*
X144247923Y-110593158D01*
X144230199Y-110609222D01*
X144210986Y-110623472D01*
X144190469Y-110635769D01*
X144168845Y-110645997D01*
X144146323Y-110654055D01*
X144123119Y-110659867D01*
X144099458Y-110663377D01*
X144075566Y-110664551D01*
X144051674Y-110663377D01*
X144028013Y-110659867D01*
X144004809Y-110654055D01*
X143982287Y-110645997D01*
X143960663Y-110635769D01*
X143940146Y-110623472D01*
X143920933Y-110609222D01*
X143903209Y-110593158D01*
X143558494Y-110248443D01*
X143542430Y-110230719D01*
X143528180Y-110211506D01*
X143515883Y-110190989D01*
X143505655Y-110169365D01*
X143497597Y-110146843D01*
X143491785Y-110123639D01*
X143488275Y-110099978D01*
X143487101Y-110076086D01*
X143488275Y-110052194D01*
X143491785Y-110028533D01*
X143497597Y-110005329D01*
X143505655Y-109982807D01*
X143515883Y-109961183D01*
X143528180Y-109940666D01*
X143542430Y-109921453D01*
X143558494Y-109903729D01*
X144203729Y-109258494D01*
X144221453Y-109242430D01*
X144240666Y-109228180D01*
X144261183Y-109215883D01*
X144282807Y-109205655D01*
X144305329Y-109197597D01*
X144328533Y-109191785D01*
X144352194Y-109188275D01*
X144376086Y-109187101D01*
X144399978Y-109188275D01*
X144399978Y-109188275D01*
G37*
D12*
X144225826Y-109925826D03*
D11*
G36*
X143074152Y-107862449D02*
G01*
X143097813Y-107865959D01*
X143121017Y-107871771D01*
X143143539Y-107879829D01*
X143165163Y-107890057D01*
X143185680Y-107902354D01*
X143204893Y-107916604D01*
X143222617Y-107932668D01*
X143567332Y-108277383D01*
X143583396Y-108295107D01*
X143597646Y-108314320D01*
X143609943Y-108334837D01*
X143620171Y-108356461D01*
X143628229Y-108378983D01*
X143634041Y-108402187D01*
X143637551Y-108425848D01*
X143638725Y-108449740D01*
X143637551Y-108473632D01*
X143634041Y-108497293D01*
X143628229Y-108520497D01*
X143620171Y-108543019D01*
X143609943Y-108564643D01*
X143597646Y-108585160D01*
X143583396Y-108604373D01*
X143567332Y-108622097D01*
X142922097Y-109267332D01*
X142904373Y-109283396D01*
X142885160Y-109297646D01*
X142864643Y-109309943D01*
X142843019Y-109320171D01*
X142820497Y-109328229D01*
X142797293Y-109334041D01*
X142773632Y-109337551D01*
X142749740Y-109338725D01*
X142725848Y-109337551D01*
X142702187Y-109334041D01*
X142678983Y-109328229D01*
X142656461Y-109320171D01*
X142634837Y-109309943D01*
X142614320Y-109297646D01*
X142595107Y-109283396D01*
X142577383Y-109267332D01*
X142232668Y-108922617D01*
X142216604Y-108904893D01*
X142202354Y-108885680D01*
X142190057Y-108865163D01*
X142179829Y-108843539D01*
X142171771Y-108821017D01*
X142165959Y-108797813D01*
X142162449Y-108774152D01*
X142161275Y-108750260D01*
X142162449Y-108726368D01*
X142165959Y-108702707D01*
X142171771Y-108679503D01*
X142179829Y-108656981D01*
X142190057Y-108635357D01*
X142202354Y-108614840D01*
X142216604Y-108595627D01*
X142232668Y-108577903D01*
X142877903Y-107932668D01*
X142895627Y-107916604D01*
X142914840Y-107902354D01*
X142935357Y-107890057D01*
X142956981Y-107879829D01*
X142979503Y-107871771D01*
X143002707Y-107865959D01*
X143026368Y-107862449D01*
X143050260Y-107861275D01*
X143074152Y-107862449D01*
X143074152Y-107862449D01*
G37*
D12*
X142900000Y-108600000D03*
D17*
X119439161Y-89265507D03*
D11*
G36*
X118838120Y-89300862D02*
G01*
X119474516Y-88664466D01*
X120040202Y-89230152D01*
X119403806Y-89866548D01*
X118838120Y-89300862D01*
X118838120Y-89300862D01*
G37*
D17*
X124813173Y-94639519D03*
D11*
G36*
X124212132Y-94674874D02*
G01*
X124848528Y-94038478D01*
X125414214Y-94604164D01*
X124777818Y-95240560D01*
X124212132Y-94674874D01*
X124212132Y-94674874D01*
G37*
D17*
X126446590Y-93020244D03*
D11*
G36*
X125845549Y-93055599D02*
G01*
X126481945Y-92419203D01*
X127047631Y-92984889D01*
X126411235Y-93621285D01*
X125845549Y-93055599D01*
X125845549Y-93055599D01*
G37*
D17*
X121065507Y-87639161D03*
D11*
G36*
X120464466Y-87674516D02*
G01*
X121100862Y-87038120D01*
X121666548Y-87603806D01*
X121030152Y-88240202D01*
X120464466Y-87674516D01*
X120464466Y-87674516D01*
G37*
D18*
X122850952Y-88045748D03*
D11*
G36*
X122090812Y-88169492D02*
G01*
X122974696Y-87285608D01*
X123611092Y-87922004D01*
X122727208Y-88805888D01*
X122090812Y-88169492D01*
X122090812Y-88169492D01*
G37*
D18*
X123911612Y-89106408D03*
D11*
G36*
X123151472Y-89230152D02*
G01*
X124035356Y-88346268D01*
X124671752Y-88982664D01*
X123787868Y-89866548D01*
X123151472Y-89230152D01*
X123151472Y-89230152D01*
G37*
D18*
X126032932Y-91227728D03*
D11*
G36*
X125272792Y-91351472D02*
G01*
X126156676Y-90467588D01*
X126793072Y-91103984D01*
X125909188Y-91987868D01*
X125272792Y-91351472D01*
X125272792Y-91351472D01*
G37*
G36*
X149119856Y-105315828D02*
G01*
X149143396Y-105319320D01*
X149166481Y-105325102D01*
X149188888Y-105333119D01*
X149210401Y-105343294D01*
X149230813Y-105355529D01*
X149249927Y-105369705D01*
X149267560Y-105385687D01*
X149610507Y-105728634D01*
X149626489Y-105746267D01*
X149640665Y-105765381D01*
X149652900Y-105785793D01*
X149663075Y-105807306D01*
X149671092Y-105829713D01*
X149676874Y-105852798D01*
X149680366Y-105876338D01*
X149681534Y-105900107D01*
X149680366Y-105923876D01*
X149676874Y-105947416D01*
X149671092Y-105970501D01*
X149663075Y-105992908D01*
X149652900Y-106014421D01*
X149640665Y-106034833D01*
X149626489Y-106053947D01*
X149610507Y-106071580D01*
X149069570Y-106612517D01*
X149051937Y-106628499D01*
X149032823Y-106642675D01*
X149012411Y-106654910D01*
X148990898Y-106665085D01*
X148968491Y-106673102D01*
X148945406Y-106678884D01*
X148921866Y-106682376D01*
X148898097Y-106683544D01*
X148874328Y-106682376D01*
X148850788Y-106678884D01*
X148827703Y-106673102D01*
X148805296Y-106665085D01*
X148783783Y-106654910D01*
X148763371Y-106642675D01*
X148744257Y-106628499D01*
X148726624Y-106612517D01*
X148383677Y-106269570D01*
X148367695Y-106251937D01*
X148353519Y-106232823D01*
X148341284Y-106212411D01*
X148331109Y-106190898D01*
X148323092Y-106168491D01*
X148317310Y-106145406D01*
X148313818Y-106121866D01*
X148312650Y-106098097D01*
X148313818Y-106074328D01*
X148317310Y-106050788D01*
X148323092Y-106027703D01*
X148331109Y-106005296D01*
X148341284Y-105983783D01*
X148353519Y-105963371D01*
X148367695Y-105944257D01*
X148383677Y-105926624D01*
X148924614Y-105385687D01*
X148942247Y-105369705D01*
X148961361Y-105355529D01*
X148981773Y-105343294D01*
X149003286Y-105333119D01*
X149025693Y-105325102D01*
X149048778Y-105319320D01*
X149072318Y-105315828D01*
X149096087Y-105314660D01*
X149119856Y-105315828D01*
X149119856Y-105315828D01*
G37*
D19*
X148997092Y-105999102D03*
D11*
G36*
X148023840Y-106411844D02*
G01*
X148047380Y-106415336D01*
X148070465Y-106421118D01*
X148092872Y-106429135D01*
X148114385Y-106439310D01*
X148134797Y-106451545D01*
X148153911Y-106465721D01*
X148171544Y-106481703D01*
X148514491Y-106824650D01*
X148530473Y-106842283D01*
X148544649Y-106861397D01*
X148556884Y-106881809D01*
X148567059Y-106903322D01*
X148575076Y-106925729D01*
X148580858Y-106948814D01*
X148584350Y-106972354D01*
X148585518Y-106996123D01*
X148584350Y-107019892D01*
X148580858Y-107043432D01*
X148575076Y-107066517D01*
X148567059Y-107088924D01*
X148556884Y-107110437D01*
X148544649Y-107130849D01*
X148530473Y-107149963D01*
X148514491Y-107167596D01*
X147973554Y-107708533D01*
X147955921Y-107724515D01*
X147936807Y-107738691D01*
X147916395Y-107750926D01*
X147894882Y-107761101D01*
X147872475Y-107769118D01*
X147849390Y-107774900D01*
X147825850Y-107778392D01*
X147802081Y-107779560D01*
X147778312Y-107778392D01*
X147754772Y-107774900D01*
X147731687Y-107769118D01*
X147709280Y-107761101D01*
X147687767Y-107750926D01*
X147667355Y-107738691D01*
X147648241Y-107724515D01*
X147630608Y-107708533D01*
X147287661Y-107365586D01*
X147271679Y-107347953D01*
X147257503Y-107328839D01*
X147245268Y-107308427D01*
X147235093Y-107286914D01*
X147227076Y-107264507D01*
X147221294Y-107241422D01*
X147217802Y-107217882D01*
X147216634Y-107194113D01*
X147217802Y-107170344D01*
X147221294Y-107146804D01*
X147227076Y-107123719D01*
X147235093Y-107101312D01*
X147245268Y-107079799D01*
X147257503Y-107059387D01*
X147271679Y-107040273D01*
X147287661Y-107022640D01*
X147828598Y-106481703D01*
X147846231Y-106465721D01*
X147865345Y-106451545D01*
X147885757Y-106439310D01*
X147907270Y-106429135D01*
X147929677Y-106421118D01*
X147952762Y-106415336D01*
X147976302Y-106411844D01*
X148000071Y-106410676D01*
X148023840Y-106411844D01*
X148023840Y-106411844D01*
G37*
D19*
X147901076Y-107095118D03*
D11*
G36*
X148271328Y-104467300D02*
G01*
X148294868Y-104470792D01*
X148317953Y-104476574D01*
X148340360Y-104484591D01*
X148361873Y-104494766D01*
X148382285Y-104507001D01*
X148401399Y-104521177D01*
X148419032Y-104537159D01*
X148761979Y-104880106D01*
X148777961Y-104897739D01*
X148792137Y-104916853D01*
X148804372Y-104937265D01*
X148814547Y-104958778D01*
X148822564Y-104981185D01*
X148828346Y-105004270D01*
X148831838Y-105027810D01*
X148833006Y-105051579D01*
X148831838Y-105075348D01*
X148828346Y-105098888D01*
X148822564Y-105121973D01*
X148814547Y-105144380D01*
X148804372Y-105165893D01*
X148792137Y-105186305D01*
X148777961Y-105205419D01*
X148761979Y-105223052D01*
X148221042Y-105763989D01*
X148203409Y-105779971D01*
X148184295Y-105794147D01*
X148163883Y-105806382D01*
X148142370Y-105816557D01*
X148119963Y-105824574D01*
X148096878Y-105830356D01*
X148073338Y-105833848D01*
X148049569Y-105835016D01*
X148025800Y-105833848D01*
X148002260Y-105830356D01*
X147979175Y-105824574D01*
X147956768Y-105816557D01*
X147935255Y-105806382D01*
X147914843Y-105794147D01*
X147895729Y-105779971D01*
X147878096Y-105763989D01*
X147535149Y-105421042D01*
X147519167Y-105403409D01*
X147504991Y-105384295D01*
X147492756Y-105363883D01*
X147482581Y-105342370D01*
X147474564Y-105319963D01*
X147468782Y-105296878D01*
X147465290Y-105273338D01*
X147464122Y-105249569D01*
X147465290Y-105225800D01*
X147468782Y-105202260D01*
X147474564Y-105179175D01*
X147482581Y-105156768D01*
X147492756Y-105135255D01*
X147504991Y-105114843D01*
X147519167Y-105095729D01*
X147535149Y-105078096D01*
X148076086Y-104537159D01*
X148093719Y-104521177D01*
X148112833Y-104507001D01*
X148133245Y-104494766D01*
X148154758Y-104484591D01*
X148177165Y-104476574D01*
X148200250Y-104470792D01*
X148223790Y-104467300D01*
X148247559Y-104466132D01*
X148271328Y-104467300D01*
X148271328Y-104467300D01*
G37*
D19*
X148148564Y-105150574D03*
D11*
G36*
X147175312Y-105563316D02*
G01*
X147198852Y-105566808D01*
X147221937Y-105572590D01*
X147244344Y-105580607D01*
X147265857Y-105590782D01*
X147286269Y-105603017D01*
X147305383Y-105617193D01*
X147323016Y-105633175D01*
X147665963Y-105976122D01*
X147681945Y-105993755D01*
X147696121Y-106012869D01*
X147708356Y-106033281D01*
X147718531Y-106054794D01*
X147726548Y-106077201D01*
X147732330Y-106100286D01*
X147735822Y-106123826D01*
X147736990Y-106147595D01*
X147735822Y-106171364D01*
X147732330Y-106194904D01*
X147726548Y-106217989D01*
X147718531Y-106240396D01*
X147708356Y-106261909D01*
X147696121Y-106282321D01*
X147681945Y-106301435D01*
X147665963Y-106319068D01*
X147125026Y-106860005D01*
X147107393Y-106875987D01*
X147088279Y-106890163D01*
X147067867Y-106902398D01*
X147046354Y-106912573D01*
X147023947Y-106920590D01*
X147000862Y-106926372D01*
X146977322Y-106929864D01*
X146953553Y-106931032D01*
X146929784Y-106929864D01*
X146906244Y-106926372D01*
X146883159Y-106920590D01*
X146860752Y-106912573D01*
X146839239Y-106902398D01*
X146818827Y-106890163D01*
X146799713Y-106875987D01*
X146782080Y-106860005D01*
X146439133Y-106517058D01*
X146423151Y-106499425D01*
X146408975Y-106480311D01*
X146396740Y-106459899D01*
X146386565Y-106438386D01*
X146378548Y-106415979D01*
X146372766Y-106392894D01*
X146369274Y-106369354D01*
X146368106Y-106345585D01*
X146369274Y-106321816D01*
X146372766Y-106298276D01*
X146378548Y-106275191D01*
X146386565Y-106252784D01*
X146396740Y-106231271D01*
X146408975Y-106210859D01*
X146423151Y-106191745D01*
X146439133Y-106174112D01*
X146980070Y-105633175D01*
X146997703Y-105617193D01*
X147016817Y-105603017D01*
X147037229Y-105590782D01*
X147058742Y-105580607D01*
X147081149Y-105572590D01*
X147104234Y-105566808D01*
X147127774Y-105563316D01*
X147151543Y-105562148D01*
X147175312Y-105563316D01*
X147175312Y-105563316D01*
G37*
D19*
X147052548Y-106246590D03*
D11*
G36*
X150906841Y-105934678D02*
G01*
X150921402Y-105936838D01*
X150935681Y-105940415D01*
X150949541Y-105945374D01*
X150962848Y-105951668D01*
X150975474Y-105959236D01*
X150987297Y-105968004D01*
X150998204Y-105977890D01*
X151917442Y-106897128D01*
X151927328Y-106908035D01*
X151936096Y-106919858D01*
X151943664Y-106932484D01*
X151949958Y-106945791D01*
X151954917Y-106959651D01*
X151958494Y-106973930D01*
X151960654Y-106988491D01*
X151961376Y-107003194D01*
X151960654Y-107017897D01*
X151958494Y-107032458D01*
X151954917Y-107046737D01*
X151949958Y-107060597D01*
X151943664Y-107073904D01*
X151936096Y-107086530D01*
X151927328Y-107098353D01*
X151917442Y-107109260D01*
X151705310Y-107321392D01*
X151694403Y-107331278D01*
X151682580Y-107340046D01*
X151669954Y-107347614D01*
X151656647Y-107353908D01*
X151642787Y-107358867D01*
X151628508Y-107362444D01*
X151613947Y-107364604D01*
X151599244Y-107365326D01*
X151584541Y-107364604D01*
X151569980Y-107362444D01*
X151555701Y-107358867D01*
X151541841Y-107353908D01*
X151528534Y-107347614D01*
X151515908Y-107340046D01*
X151504085Y-107331278D01*
X151493178Y-107321392D01*
X150573940Y-106402154D01*
X150564054Y-106391247D01*
X150555286Y-106379424D01*
X150547718Y-106366798D01*
X150541424Y-106353491D01*
X150536465Y-106339631D01*
X150532888Y-106325352D01*
X150530728Y-106310791D01*
X150530006Y-106296088D01*
X150530728Y-106281385D01*
X150532888Y-106266824D01*
X150536465Y-106252545D01*
X150541424Y-106238685D01*
X150547718Y-106225378D01*
X150555286Y-106212752D01*
X150564054Y-106200929D01*
X150573940Y-106190022D01*
X150786072Y-105977890D01*
X150796979Y-105968004D01*
X150808802Y-105959236D01*
X150821428Y-105951668D01*
X150834735Y-105945374D01*
X150848595Y-105940415D01*
X150862874Y-105936838D01*
X150877435Y-105934678D01*
X150892138Y-105933956D01*
X150906841Y-105934678D01*
X150906841Y-105934678D01*
G37*
D20*
X151245691Y-106649641D03*
D11*
G36*
X150008816Y-106832703D02*
G01*
X150023377Y-106834863D01*
X150037656Y-106838440D01*
X150051516Y-106843399D01*
X150064823Y-106849693D01*
X150077449Y-106857261D01*
X150089272Y-106866029D01*
X150100179Y-106875915D01*
X151019417Y-107795153D01*
X151029303Y-107806060D01*
X151038071Y-107817883D01*
X151045639Y-107830509D01*
X151051933Y-107843816D01*
X151056892Y-107857676D01*
X151060469Y-107871955D01*
X151062629Y-107886516D01*
X151063351Y-107901219D01*
X151062629Y-107915922D01*
X151060469Y-107930483D01*
X151056892Y-107944762D01*
X151051933Y-107958622D01*
X151045639Y-107971929D01*
X151038071Y-107984555D01*
X151029303Y-107996378D01*
X151019417Y-108007285D01*
X150807285Y-108219417D01*
X150796378Y-108229303D01*
X150784555Y-108238071D01*
X150771929Y-108245639D01*
X150758622Y-108251933D01*
X150744762Y-108256892D01*
X150730483Y-108260469D01*
X150715922Y-108262629D01*
X150701219Y-108263351D01*
X150686516Y-108262629D01*
X150671955Y-108260469D01*
X150657676Y-108256892D01*
X150643816Y-108251933D01*
X150630509Y-108245639D01*
X150617883Y-108238071D01*
X150606060Y-108229303D01*
X150595153Y-108219417D01*
X149675915Y-107300179D01*
X149666029Y-107289272D01*
X149657261Y-107277449D01*
X149649693Y-107264823D01*
X149643399Y-107251516D01*
X149638440Y-107237656D01*
X149634863Y-107223377D01*
X149632703Y-107208816D01*
X149631981Y-107194113D01*
X149632703Y-107179410D01*
X149634863Y-107164849D01*
X149638440Y-107150570D01*
X149643399Y-107136710D01*
X149649693Y-107123403D01*
X149657261Y-107110777D01*
X149666029Y-107098954D01*
X149675915Y-107088047D01*
X149888047Y-106875915D01*
X149898954Y-106866029D01*
X149910777Y-106857261D01*
X149923403Y-106849693D01*
X149936710Y-106843399D01*
X149950570Y-106838440D01*
X149964849Y-106834863D01*
X149979410Y-106832703D01*
X149994113Y-106831981D01*
X150008816Y-106832703D01*
X150008816Y-106832703D01*
G37*
D20*
X150347666Y-107547666D03*
D11*
G36*
X149110790Y-107730729D02*
G01*
X149125351Y-107732889D01*
X149139630Y-107736466D01*
X149153490Y-107741425D01*
X149166797Y-107747719D01*
X149179423Y-107755287D01*
X149191246Y-107764055D01*
X149202153Y-107773941D01*
X150121391Y-108693179D01*
X150131277Y-108704086D01*
X150140045Y-108715909D01*
X150147613Y-108728535D01*
X150153907Y-108741842D01*
X150158866Y-108755702D01*
X150162443Y-108769981D01*
X150164603Y-108784542D01*
X150165325Y-108799245D01*
X150164603Y-108813948D01*
X150162443Y-108828509D01*
X150158866Y-108842788D01*
X150153907Y-108856648D01*
X150147613Y-108869955D01*
X150140045Y-108882581D01*
X150131277Y-108894404D01*
X150121391Y-108905311D01*
X149909259Y-109117443D01*
X149898352Y-109127329D01*
X149886529Y-109136097D01*
X149873903Y-109143665D01*
X149860596Y-109149959D01*
X149846736Y-109154918D01*
X149832457Y-109158495D01*
X149817896Y-109160655D01*
X149803193Y-109161377D01*
X149788490Y-109160655D01*
X149773929Y-109158495D01*
X149759650Y-109154918D01*
X149745790Y-109149959D01*
X149732483Y-109143665D01*
X149719857Y-109136097D01*
X149708034Y-109127329D01*
X149697127Y-109117443D01*
X148777889Y-108198205D01*
X148768003Y-108187298D01*
X148759235Y-108175475D01*
X148751667Y-108162849D01*
X148745373Y-108149542D01*
X148740414Y-108135682D01*
X148736837Y-108121403D01*
X148734677Y-108106842D01*
X148733955Y-108092139D01*
X148734677Y-108077436D01*
X148736837Y-108062875D01*
X148740414Y-108048596D01*
X148745373Y-108034736D01*
X148751667Y-108021429D01*
X148759235Y-108008803D01*
X148768003Y-107996980D01*
X148777889Y-107986073D01*
X148990021Y-107773941D01*
X149000928Y-107764055D01*
X149012751Y-107755287D01*
X149025377Y-107747719D01*
X149038684Y-107741425D01*
X149052544Y-107736466D01*
X149066823Y-107732889D01*
X149081384Y-107730729D01*
X149096087Y-107730007D01*
X149110790Y-107730729D01*
X149110790Y-107730729D01*
G37*
D20*
X149449640Y-108445692D03*
D11*
G36*
X148212765Y-108628754D02*
G01*
X148227326Y-108630914D01*
X148241605Y-108634491D01*
X148255465Y-108639450D01*
X148268772Y-108645744D01*
X148281398Y-108653312D01*
X148293221Y-108662080D01*
X148304128Y-108671966D01*
X149223366Y-109591204D01*
X149233252Y-109602111D01*
X149242020Y-109613934D01*
X149249588Y-109626560D01*
X149255882Y-109639867D01*
X149260841Y-109653727D01*
X149264418Y-109668006D01*
X149266578Y-109682567D01*
X149267300Y-109697270D01*
X149266578Y-109711973D01*
X149264418Y-109726534D01*
X149260841Y-109740813D01*
X149255882Y-109754673D01*
X149249588Y-109767980D01*
X149242020Y-109780606D01*
X149233252Y-109792429D01*
X149223366Y-109803336D01*
X149011234Y-110015468D01*
X149000327Y-110025354D01*
X148988504Y-110034122D01*
X148975878Y-110041690D01*
X148962571Y-110047984D01*
X148948711Y-110052943D01*
X148934432Y-110056520D01*
X148919871Y-110058680D01*
X148905168Y-110059402D01*
X148890465Y-110058680D01*
X148875904Y-110056520D01*
X148861625Y-110052943D01*
X148847765Y-110047984D01*
X148834458Y-110041690D01*
X148821832Y-110034122D01*
X148810009Y-110025354D01*
X148799102Y-110015468D01*
X147879864Y-109096230D01*
X147869978Y-109085323D01*
X147861210Y-109073500D01*
X147853642Y-109060874D01*
X147847348Y-109047567D01*
X147842389Y-109033707D01*
X147838812Y-109019428D01*
X147836652Y-109004867D01*
X147835930Y-108990164D01*
X147836652Y-108975461D01*
X147838812Y-108960900D01*
X147842389Y-108946621D01*
X147847348Y-108932761D01*
X147853642Y-108919454D01*
X147861210Y-108906828D01*
X147869978Y-108895005D01*
X147879864Y-108884098D01*
X148091996Y-108671966D01*
X148102903Y-108662080D01*
X148114726Y-108653312D01*
X148127352Y-108645744D01*
X148140659Y-108639450D01*
X148154519Y-108634491D01*
X148168798Y-108630914D01*
X148183359Y-108628754D01*
X148198062Y-108628032D01*
X148212765Y-108628754D01*
X148212765Y-108628754D01*
G37*
D20*
X148551615Y-109343717D03*
D11*
G36*
X144465099Y-104881088D02*
G01*
X144479660Y-104883248D01*
X144493939Y-104886825D01*
X144507799Y-104891784D01*
X144521106Y-104898078D01*
X144533732Y-104905646D01*
X144545555Y-104914414D01*
X144556462Y-104924300D01*
X145475700Y-105843538D01*
X145485586Y-105854445D01*
X145494354Y-105866268D01*
X145501922Y-105878894D01*
X145508216Y-105892201D01*
X145513175Y-105906061D01*
X145516752Y-105920340D01*
X145518912Y-105934901D01*
X145519634Y-105949604D01*
X145518912Y-105964307D01*
X145516752Y-105978868D01*
X145513175Y-105993147D01*
X145508216Y-106007007D01*
X145501922Y-106020314D01*
X145494354Y-106032940D01*
X145485586Y-106044763D01*
X145475700Y-106055670D01*
X145263568Y-106267802D01*
X145252661Y-106277688D01*
X145240838Y-106286456D01*
X145228212Y-106294024D01*
X145214905Y-106300318D01*
X145201045Y-106305277D01*
X145186766Y-106308854D01*
X145172205Y-106311014D01*
X145157502Y-106311736D01*
X145142799Y-106311014D01*
X145128238Y-106308854D01*
X145113959Y-106305277D01*
X145100099Y-106300318D01*
X145086792Y-106294024D01*
X145074166Y-106286456D01*
X145062343Y-106277688D01*
X145051436Y-106267802D01*
X144132198Y-105348564D01*
X144122312Y-105337657D01*
X144113544Y-105325834D01*
X144105976Y-105313208D01*
X144099682Y-105299901D01*
X144094723Y-105286041D01*
X144091146Y-105271762D01*
X144088986Y-105257201D01*
X144088264Y-105242498D01*
X144088986Y-105227795D01*
X144091146Y-105213234D01*
X144094723Y-105198955D01*
X144099682Y-105185095D01*
X144105976Y-105171788D01*
X144113544Y-105159162D01*
X144122312Y-105147339D01*
X144132198Y-105136432D01*
X144344330Y-104924300D01*
X144355237Y-104914414D01*
X144367060Y-104905646D01*
X144379686Y-104898078D01*
X144392993Y-104891784D01*
X144406853Y-104886825D01*
X144421132Y-104883248D01*
X144435693Y-104881088D01*
X144450396Y-104880366D01*
X144465099Y-104881088D01*
X144465099Y-104881088D01*
G37*
D20*
X144803949Y-105596051D03*
D11*
G36*
X145363124Y-103983063D02*
G01*
X145377685Y-103985223D01*
X145391964Y-103988800D01*
X145405824Y-103993759D01*
X145419131Y-104000053D01*
X145431757Y-104007621D01*
X145443580Y-104016389D01*
X145454487Y-104026275D01*
X146373725Y-104945513D01*
X146383611Y-104956420D01*
X146392379Y-104968243D01*
X146399947Y-104980869D01*
X146406241Y-104994176D01*
X146411200Y-105008036D01*
X146414777Y-105022315D01*
X146416937Y-105036876D01*
X146417659Y-105051579D01*
X146416937Y-105066282D01*
X146414777Y-105080843D01*
X146411200Y-105095122D01*
X146406241Y-105108982D01*
X146399947Y-105122289D01*
X146392379Y-105134915D01*
X146383611Y-105146738D01*
X146373725Y-105157645D01*
X146161593Y-105369777D01*
X146150686Y-105379663D01*
X146138863Y-105388431D01*
X146126237Y-105395999D01*
X146112930Y-105402293D01*
X146099070Y-105407252D01*
X146084791Y-105410829D01*
X146070230Y-105412989D01*
X146055527Y-105413711D01*
X146040824Y-105412989D01*
X146026263Y-105410829D01*
X146011984Y-105407252D01*
X145998124Y-105402293D01*
X145984817Y-105395999D01*
X145972191Y-105388431D01*
X145960368Y-105379663D01*
X145949461Y-105369777D01*
X145030223Y-104450539D01*
X145020337Y-104439632D01*
X145011569Y-104427809D01*
X145004001Y-104415183D01*
X144997707Y-104401876D01*
X144992748Y-104388016D01*
X144989171Y-104373737D01*
X144987011Y-104359176D01*
X144986289Y-104344473D01*
X144987011Y-104329770D01*
X144989171Y-104315209D01*
X144992748Y-104300930D01*
X144997707Y-104287070D01*
X145004001Y-104273763D01*
X145011569Y-104261137D01*
X145020337Y-104249314D01*
X145030223Y-104238407D01*
X145242355Y-104026275D01*
X145253262Y-104016389D01*
X145265085Y-104007621D01*
X145277711Y-104000053D01*
X145291018Y-103993759D01*
X145304878Y-103988800D01*
X145319157Y-103985223D01*
X145333718Y-103983063D01*
X145348421Y-103982341D01*
X145363124Y-103983063D01*
X145363124Y-103983063D01*
G37*
D20*
X145701974Y-104698026D03*
D11*
G36*
X146261150Y-103085037D02*
G01*
X146275711Y-103087197D01*
X146289990Y-103090774D01*
X146303850Y-103095733D01*
X146317157Y-103102027D01*
X146329783Y-103109595D01*
X146341606Y-103118363D01*
X146352513Y-103128249D01*
X147271751Y-104047487D01*
X147281637Y-104058394D01*
X147290405Y-104070217D01*
X147297973Y-104082843D01*
X147304267Y-104096150D01*
X147309226Y-104110010D01*
X147312803Y-104124289D01*
X147314963Y-104138850D01*
X147315685Y-104153553D01*
X147314963Y-104168256D01*
X147312803Y-104182817D01*
X147309226Y-104197096D01*
X147304267Y-104210956D01*
X147297973Y-104224263D01*
X147290405Y-104236889D01*
X147281637Y-104248712D01*
X147271751Y-104259619D01*
X147059619Y-104471751D01*
X147048712Y-104481637D01*
X147036889Y-104490405D01*
X147024263Y-104497973D01*
X147010956Y-104504267D01*
X146997096Y-104509226D01*
X146982817Y-104512803D01*
X146968256Y-104514963D01*
X146953553Y-104515685D01*
X146938850Y-104514963D01*
X146924289Y-104512803D01*
X146910010Y-104509226D01*
X146896150Y-104504267D01*
X146882843Y-104497973D01*
X146870217Y-104490405D01*
X146858394Y-104481637D01*
X146847487Y-104471751D01*
X145928249Y-103552513D01*
X145918363Y-103541606D01*
X145909595Y-103529783D01*
X145902027Y-103517157D01*
X145895733Y-103503850D01*
X145890774Y-103489990D01*
X145887197Y-103475711D01*
X145885037Y-103461150D01*
X145884315Y-103446447D01*
X145885037Y-103431744D01*
X145887197Y-103417183D01*
X145890774Y-103402904D01*
X145895733Y-103389044D01*
X145902027Y-103375737D01*
X145909595Y-103363111D01*
X145918363Y-103351288D01*
X145928249Y-103340381D01*
X146140381Y-103128249D01*
X146151288Y-103118363D01*
X146163111Y-103109595D01*
X146175737Y-103102027D01*
X146189044Y-103095733D01*
X146202904Y-103090774D01*
X146217183Y-103087197D01*
X146231744Y-103085037D01*
X146246447Y-103084315D01*
X146261150Y-103085037D01*
X146261150Y-103085037D01*
G37*
D20*
X146600000Y-103800000D03*
D11*
G36*
X147159175Y-102187012D02*
G01*
X147173736Y-102189172D01*
X147188015Y-102192749D01*
X147201875Y-102197708D01*
X147215182Y-102204002D01*
X147227808Y-102211570D01*
X147239631Y-102220338D01*
X147250538Y-102230224D01*
X148169776Y-103149462D01*
X148179662Y-103160369D01*
X148188430Y-103172192D01*
X148195998Y-103184818D01*
X148202292Y-103198125D01*
X148207251Y-103211985D01*
X148210828Y-103226264D01*
X148212988Y-103240825D01*
X148213710Y-103255528D01*
X148212988Y-103270231D01*
X148210828Y-103284792D01*
X148207251Y-103299071D01*
X148202292Y-103312931D01*
X148195998Y-103326238D01*
X148188430Y-103338864D01*
X148179662Y-103350687D01*
X148169776Y-103361594D01*
X147957644Y-103573726D01*
X147946737Y-103583612D01*
X147934914Y-103592380D01*
X147922288Y-103599948D01*
X147908981Y-103606242D01*
X147895121Y-103611201D01*
X147880842Y-103614778D01*
X147866281Y-103616938D01*
X147851578Y-103617660D01*
X147836875Y-103616938D01*
X147822314Y-103614778D01*
X147808035Y-103611201D01*
X147794175Y-103606242D01*
X147780868Y-103599948D01*
X147768242Y-103592380D01*
X147756419Y-103583612D01*
X147745512Y-103573726D01*
X146826274Y-102654488D01*
X146816388Y-102643581D01*
X146807620Y-102631758D01*
X146800052Y-102619132D01*
X146793758Y-102605825D01*
X146788799Y-102591965D01*
X146785222Y-102577686D01*
X146783062Y-102563125D01*
X146782340Y-102548422D01*
X146783062Y-102533719D01*
X146785222Y-102519158D01*
X146788799Y-102504879D01*
X146793758Y-102491019D01*
X146800052Y-102477712D01*
X146807620Y-102465086D01*
X146816388Y-102453263D01*
X146826274Y-102442356D01*
X147038406Y-102230224D01*
X147049313Y-102220338D01*
X147061136Y-102211570D01*
X147073762Y-102204002D01*
X147087069Y-102197708D01*
X147100929Y-102192749D01*
X147115208Y-102189172D01*
X147129769Y-102187012D01*
X147144472Y-102186290D01*
X147159175Y-102187012D01*
X147159175Y-102187012D01*
G37*
D20*
X147498025Y-102901975D03*
D21*
X127372614Y-81672614D03*
D11*
G36*
X129423224Y-81036218D02*
G01*
X126736218Y-83723224D01*
X125322004Y-82309010D01*
X128009010Y-79622004D01*
X129423224Y-81036218D01*
X129423224Y-81036218D01*
G37*
D22*
X131827386Y-86127386D03*
D11*
G36*
X133064823Y-86304163D02*
G01*
X132004163Y-87364823D01*
X130589949Y-85950609D01*
X131650609Y-84889949D01*
X133064823Y-86304163D01*
X133064823Y-86304163D01*
G37*
D22*
X130201041Y-87753732D03*
D11*
G36*
X131438478Y-87930509D02*
G01*
X130377818Y-88991169D01*
X128963604Y-87576955D01*
X130024264Y-86516295D01*
X131438478Y-87930509D01*
X131438478Y-87930509D01*
G37*
D22*
X133453732Y-84501041D03*
D11*
G36*
X134691169Y-84677818D02*
G01*
X133630509Y-85738478D01*
X132216295Y-84324264D01*
X133276955Y-83263604D01*
X134691169Y-84677818D01*
X134691169Y-84677818D01*
G37*
M02*
