G04 #@! TF.GenerationSoftware,KiCad,Pcbnew,5.1.2*
G04 #@! TF.CreationDate,2019-08-18T11:58:05-05:00*
G04 #@! TF.ProjectId,WordClockMiddle,576f7264-436c-46f6-936b-4d6964646c65,rev?*
G04 #@! TF.SameCoordinates,Original*
G04 #@! TF.FileFunction,Profile,NP*
%FSLAX46Y46*%
G04 Gerber Fmt 4.6, Leading zero omitted, Abs format (unit mm)*
G04 Created by KiCad (PCBNEW 5.1.2) date 2019-08-18 11:58:05*
%MOMM*%
%LPD*%
G04 APERTURE LIST*
%ADD10C,0.150000*%
%ADD11C,0.100000*%
G04 APERTURE END LIST*
D10*
X106157609Y-133000000D02*
G75*
G02X99820001Y-126650051I32391J6369948D01*
G01*
X197740000Y-126659838D02*
G75*
G02X191429787Y-132999999I-6370212J29838D01*
G01*
X191378430Y-56380000D02*
G75*
G02X197769999Y-62689990I41570J-6349989D01*
G01*
X99820000Y-62379773D02*
G75*
G02X105926948Y-56420001I6156947J-200227D01*
G01*
X99820001Y-126650051D02*
X99820000Y-62379773D01*
X191429787Y-132999999D02*
X106157609Y-133000000D01*
X197769999Y-62689990D02*
X197740000Y-126659838D01*
X105926948Y-56420001D02*
X191378430Y-56380000D01*
D11*
X110307778Y-60890777D02*
X110126279Y-60892947D01*
X110126279Y-60892947D02*
X109945887Y-60899424D01*
X109945887Y-60899424D02*
X109766652Y-60910158D01*
X109766652Y-60910158D02*
X109588621Y-60925102D01*
X109588621Y-60925102D02*
X109411845Y-60944205D01*
X109411845Y-60944205D02*
X109236372Y-60967419D01*
X109236372Y-60967419D02*
X109062250Y-60994694D01*
X109062250Y-60994694D02*
X108889529Y-61025982D01*
X108889529Y-61025982D02*
X108718258Y-61061234D01*
X108718258Y-61061234D02*
X108548486Y-61100400D01*
X108548486Y-61100400D02*
X108380262Y-61143431D01*
X108380262Y-61143431D02*
X108213634Y-61190278D01*
X108213634Y-61190278D02*
X108048652Y-61240893D01*
X108048652Y-61240893D02*
X107885364Y-61295226D01*
X107885364Y-61295226D02*
X107723819Y-61353228D01*
X107723819Y-61353228D02*
X107564067Y-61414850D01*
X107564067Y-61414850D02*
X107406156Y-61480043D01*
X107406156Y-61480043D02*
X107250136Y-61548758D01*
X107250136Y-61548758D02*
X106943961Y-61696557D01*
X106943961Y-61696557D02*
X106645935Y-61857855D01*
X106645935Y-61857855D02*
X106356448Y-62032259D01*
X106356448Y-62032259D02*
X106075893Y-62219376D01*
X106075893Y-62219376D02*
X105804661Y-62418815D01*
X105804661Y-62418815D02*
X105543143Y-62630183D01*
X105543143Y-62630183D02*
X105291730Y-62853086D01*
X105291730Y-62853086D02*
X105050815Y-63087133D01*
X105050815Y-63087133D02*
X104820789Y-63331931D01*
X104820789Y-63331931D02*
X104602044Y-63587088D01*
X104602044Y-63587088D02*
X104394970Y-63852210D01*
X104394970Y-63852210D02*
X104199960Y-64126906D01*
X104199960Y-64126906D02*
X104017404Y-64410783D01*
X104017404Y-64410783D02*
X103847695Y-64703448D01*
X103847695Y-64703448D02*
X103691224Y-65004509D01*
X103691224Y-65004509D02*
X103548383Y-65313573D01*
X103548383Y-65313573D02*
X103482196Y-65470984D01*
X103482196Y-65470984D02*
X103419563Y-65630248D01*
X103419563Y-65630248D02*
X103360533Y-65791317D01*
X103360533Y-65791317D02*
X103305155Y-65954141D01*
X103305155Y-65954141D02*
X103253478Y-66118672D01*
X103253478Y-66118672D02*
X103205551Y-66284860D01*
X103205551Y-66284860D02*
X103161423Y-66452657D01*
X103161423Y-66452657D02*
X103121143Y-66622012D01*
X103121143Y-66622012D02*
X103084760Y-66792878D01*
X103084760Y-66792878D02*
X103052322Y-66965205D01*
X103052322Y-66965205D02*
X103023879Y-67138944D01*
X103023879Y-67138944D02*
X102999479Y-67314046D01*
X102999479Y-67314046D02*
X102979172Y-67490462D01*
X102979172Y-67490462D02*
X102963007Y-67668142D01*
X102963007Y-67668142D02*
X134720759Y-67668142D01*
X134720759Y-67668142D02*
X134720759Y-60890777D01*
X134720759Y-60890777D02*
X110307778Y-60890777D01*
X110307778Y-60890777D02*
X110307778Y-60890777D01*
X136558372Y-60890777D02*
X136558372Y-67668142D01*
X136558372Y-67668142D02*
X163352085Y-67668142D01*
X163352085Y-67668142D02*
X163352085Y-60890777D01*
X163352085Y-60890777D02*
X136558372Y-60890777D01*
X136558372Y-60890777D02*
X136558372Y-60890777D01*
X165523529Y-60890777D02*
X165523529Y-67668142D01*
X165523529Y-67668142D02*
X194403418Y-67668142D01*
X194403418Y-67668142D02*
X194387252Y-67490462D01*
X194387252Y-67490462D02*
X194366945Y-67314047D01*
X194366945Y-67314047D02*
X194342545Y-67138945D01*
X194342545Y-67138945D02*
X194314102Y-66965207D01*
X194314102Y-66965207D02*
X194281664Y-66792880D01*
X194281664Y-66792880D02*
X194245280Y-66622015D01*
X194245280Y-66622015D02*
X194204999Y-66452659D01*
X194204999Y-66452659D02*
X194160871Y-66284863D01*
X194160871Y-66284863D02*
X194112944Y-66118675D01*
X194112944Y-66118675D02*
X194061266Y-65954145D01*
X194061266Y-65954145D02*
X194005888Y-65791321D01*
X194005888Y-65791321D02*
X193946858Y-65630252D01*
X193946858Y-65630252D02*
X193884225Y-65470988D01*
X193884225Y-65470988D02*
X193818037Y-65313577D01*
X193818037Y-65313577D02*
X193675195Y-65004513D01*
X193675195Y-65004513D02*
X193518724Y-64703452D01*
X193518724Y-64703452D02*
X193349015Y-64410787D01*
X193349015Y-64410787D02*
X193166459Y-64126911D01*
X193166459Y-64126911D02*
X192971449Y-63852215D01*
X192971449Y-63852215D02*
X192764375Y-63587092D01*
X192764375Y-63587092D02*
X192545629Y-63331935D01*
X192545629Y-63331935D02*
X192315603Y-63087137D01*
X192315603Y-63087137D02*
X192074688Y-62853090D01*
X192074688Y-62853090D02*
X191823276Y-62630186D01*
X191823276Y-62630186D02*
X191561758Y-62418819D01*
X191561758Y-62418819D02*
X191290526Y-62219379D01*
X191290526Y-62219379D02*
X191009971Y-62032262D01*
X191009971Y-62032262D02*
X190720485Y-61857857D01*
X190720485Y-61857857D02*
X190422459Y-61696559D01*
X190422459Y-61696559D02*
X190116285Y-61548760D01*
X190116285Y-61548760D02*
X189960265Y-61480045D01*
X189960265Y-61480045D02*
X189802354Y-61414852D01*
X189802354Y-61414852D02*
X189642602Y-61353229D01*
X189642602Y-61353229D02*
X189481058Y-61295227D01*
X189481058Y-61295227D02*
X189317770Y-61240894D01*
X189317770Y-61240894D02*
X189152788Y-61190279D01*
X189152788Y-61190279D02*
X188986161Y-61143432D01*
X188986161Y-61143432D02*
X188817937Y-61100400D01*
X188817937Y-61100400D02*
X188648165Y-61061234D01*
X188648165Y-61061234D02*
X188476894Y-61025983D01*
X188476894Y-61025983D02*
X188304174Y-60994695D01*
X188304174Y-60994695D02*
X188130053Y-60967419D01*
X188130053Y-60967419D02*
X187954580Y-60944205D01*
X187954580Y-60944205D02*
X187777804Y-60925102D01*
X187777804Y-60925102D02*
X187599773Y-60910158D01*
X187599773Y-60910158D02*
X187420538Y-60899424D01*
X187420538Y-60899424D02*
X187240147Y-60892947D01*
X187240147Y-60892947D02*
X187058649Y-60890777D01*
X187058649Y-60890777D02*
X165523529Y-60890777D01*
X165523529Y-60890777D02*
X165523529Y-60890777D01*
X102937169Y-69468547D02*
X102944920Y-76564757D01*
X102944920Y-76564757D02*
X149487297Y-76588527D01*
X149487297Y-76588527D02*
X149487297Y-69468547D01*
X149487297Y-69468547D02*
X102937169Y-69468547D01*
X102937169Y-69468547D02*
X102937169Y-69468547D01*
X151759512Y-69468547D02*
X151759512Y-76590078D01*
X151759512Y-76590078D02*
X194429258Y-76611781D01*
X194429258Y-76611781D02*
X194429258Y-69468547D01*
X194429258Y-69468547D02*
X151759512Y-69468547D01*
X151759512Y-69468547D02*
X151759512Y-69468547D01*
X194429258Y-78462314D02*
X174276998Y-78465931D01*
X174276998Y-78465931D02*
X174276998Y-85688230D01*
X174276998Y-85688230D02*
X174535898Y-85687196D01*
X174535898Y-85687196D02*
X194429258Y-85695983D01*
X194429258Y-85695983D02*
X194429258Y-78462314D01*
X194429258Y-78462314D02*
X194429258Y-78462314D01*
X172071966Y-78466450D02*
X126508341Y-78475234D01*
X126508341Y-78475234D02*
X126234971Y-78472133D01*
X126234971Y-78472133D02*
X126234971Y-85688230D01*
X126234971Y-85688230D02*
X126443227Y-85691847D01*
X126443227Y-85691847D02*
X171654419Y-85687196D01*
X171654419Y-85687196D02*
X172071966Y-85688230D01*
X172071966Y-85688230D02*
X172071966Y-78466450D01*
X172071966Y-78466450D02*
X172071966Y-78466450D01*
X102941819Y-78467481D02*
X102940786Y-85695983D01*
X102940786Y-85695983D02*
X124184450Y-85691847D01*
X124184450Y-85691847D02*
X124464538Y-85688230D01*
X124464538Y-85688230D02*
X124464538Y-78472133D01*
X124464538Y-78472133D02*
X124205122Y-78472133D01*
X124205122Y-78472133D02*
X102941819Y-78467481D01*
X102941819Y-78467481D02*
X102941819Y-78467481D01*
X102940786Y-87495872D02*
X102934585Y-94321293D01*
X102934585Y-94321293D02*
X130594912Y-94325945D01*
X130594912Y-94325945D02*
X130993854Y-94323878D01*
X130993854Y-94323878D02*
X130993854Y-87495872D01*
X130993854Y-87495872D02*
X102940786Y-87495872D01*
X102940786Y-87495872D02*
X102940786Y-87495872D01*
X132387568Y-87495872D02*
X132387568Y-94323878D01*
X132387568Y-94323878D02*
X133031455Y-94332147D01*
X133031455Y-94332147D02*
X156699778Y-94332663D01*
X156699778Y-94332663D02*
X157179851Y-94324394D01*
X157179851Y-94324394D02*
X157179851Y-87495872D01*
X157179851Y-87495872D02*
X132387568Y-87495872D01*
X132387568Y-87495872D02*
X132387568Y-87495872D01*
X158975607Y-87495872D02*
X158975607Y-94324394D01*
X158975607Y-94324394D02*
X159539397Y-94324394D01*
X159539397Y-94324394D02*
X194426157Y-94316126D01*
X194426157Y-94316126D02*
X194429258Y-87495872D01*
X194429258Y-87495872D02*
X158975607Y-87495872D01*
X158975607Y-87495872D02*
X158975607Y-87495872D01*
X162359898Y-95905177D02*
X133802985Y-95913445D01*
X133802985Y-95913445D02*
X133785414Y-102827235D01*
X133785414Y-102827235D02*
X134360057Y-102831886D01*
X134360057Y-102831886D02*
X162750571Y-102837053D01*
X162750571Y-102837053D02*
X162750571Y-95911378D01*
X162750571Y-95911378D02*
X162359898Y-95905177D01*
X162359898Y-95905177D02*
X162359898Y-95905177D01*
X194417372Y-95907762D02*
X164826931Y-95913445D01*
X164826931Y-95913445D02*
X164487934Y-95911378D01*
X164487934Y-95911378D02*
X164487934Y-102837569D01*
X164487934Y-102837569D02*
X194429258Y-102842739D01*
X194429258Y-102842739D02*
X194417372Y-95907762D01*
X194417372Y-95907762D02*
X194417372Y-95907762D01*
X131947801Y-95913963D02*
X102931484Y-95916546D01*
X102931484Y-95916546D02*
X102939236Y-102842739D01*
X102939236Y-102842739D02*
X131451707Y-102829304D01*
X131451707Y-102829304D02*
X131947801Y-102827235D01*
X131947801Y-102827235D02*
X131947801Y-95913963D01*
X131947801Y-95913963D02*
X131947801Y-95913963D01*
X102938719Y-104229733D02*
X102922699Y-111008649D01*
X102922699Y-111008649D02*
X122960752Y-111002447D01*
X122960752Y-111002447D02*
X122960752Y-104229733D01*
X122960752Y-104229733D02*
X102938719Y-104229733D01*
X102938719Y-104229733D02*
X102938719Y-104229733D01*
X124965280Y-104229733D02*
X124965280Y-111001931D01*
X124965280Y-111001931D02*
X158173589Y-110991594D01*
X158173589Y-110991594D02*
X158173589Y-104229733D01*
X158173589Y-104229733D02*
X124965280Y-104229733D01*
X124965280Y-104229733D02*
X124965280Y-104229733D01*
X160378624Y-104229733D02*
X160378624Y-110991078D01*
X160378624Y-110991078D02*
X194429258Y-110980227D01*
X194429258Y-110980227D02*
X194429258Y-104229733D01*
X194429258Y-104229733D02*
X160378624Y-104229733D01*
X160378624Y-104229733D02*
X160378624Y-104229733D01*
X102935102Y-112462307D02*
X102936652Y-119312533D01*
X102936652Y-119312533D02*
X129242024Y-119312533D01*
X129242024Y-119312533D02*
X129242024Y-112468508D01*
X129242024Y-112468508D02*
X102935102Y-112462307D01*
X102935102Y-112462307D02*
X102935102Y-112462307D01*
X131112710Y-112469024D02*
X131112710Y-119312533D01*
X131112710Y-119312533D02*
X152026678Y-119312533D01*
X152026678Y-119312533D02*
X152026678Y-112474192D01*
X152026678Y-112474192D02*
X131112710Y-112469024D01*
X131112710Y-112469024D02*
X131112710Y-112469024D01*
X154031206Y-112474192D02*
X154031206Y-119312533D01*
X154031206Y-119312533D02*
X194429258Y-119312533D01*
X194429258Y-119312533D02*
X194429258Y-112484010D01*
X194429258Y-112484010D02*
X154031206Y-112474192D01*
X154031206Y-112474192D02*
X154031206Y-112474192D01*
X102940786Y-120749654D02*
X102946998Y-120937007D01*
X102946998Y-120937007D02*
X102957799Y-121123123D01*
X102957799Y-121123123D02*
X102973134Y-121307948D01*
X102973134Y-121307948D02*
X102992949Y-121491428D01*
X102992949Y-121491428D02*
X103017188Y-121673508D01*
X103017188Y-121673508D02*
X103045798Y-121854131D01*
X103045798Y-121854131D02*
X103078723Y-122033245D01*
X103078723Y-122033245D02*
X103115908Y-122210793D01*
X103115908Y-122210793D02*
X103157299Y-122386722D01*
X103157299Y-122386722D02*
X103202841Y-122560976D01*
X103202841Y-122560976D02*
X103252479Y-122733499D01*
X103252479Y-122733499D02*
X103306159Y-122904239D01*
X103306159Y-122904239D02*
X103363825Y-123073139D01*
X103363825Y-123073139D02*
X103425423Y-123240144D01*
X103425423Y-123240144D02*
X103490897Y-123405200D01*
X103490897Y-123405200D02*
X103560194Y-123568253D01*
X103560194Y-123568253D02*
X103633259Y-123729246D01*
X103633259Y-123729246D02*
X103710036Y-123888125D01*
X103710036Y-123888125D02*
X103790471Y-124044836D01*
X103790471Y-124044836D02*
X103874509Y-124199324D01*
X103874509Y-124199324D02*
X103962096Y-124351533D01*
X103962096Y-124351533D02*
X104053176Y-124501409D01*
X104053176Y-124501409D02*
X104147695Y-124648896D01*
X104147695Y-124648896D02*
X104245598Y-124793941D01*
X104245598Y-124793941D02*
X104346830Y-124936488D01*
X104346830Y-124936488D02*
X104451337Y-125076482D01*
X104451337Y-125076482D02*
X104559064Y-125213869D01*
X104559064Y-125213869D02*
X104669955Y-125348593D01*
X104669955Y-125348593D02*
X104783956Y-125480600D01*
X104783956Y-125480600D02*
X104901013Y-125609835D01*
X104901013Y-125609835D02*
X105021071Y-125736242D01*
X105021071Y-125736242D02*
X105144074Y-125859768D01*
X105144074Y-125859768D02*
X105269968Y-125980357D01*
X105269968Y-125980357D02*
X105398699Y-126097955D01*
X105398699Y-126097955D02*
X105530211Y-126212506D01*
X105530211Y-126212506D02*
X105664449Y-126323956D01*
X105664449Y-126323956D02*
X105801360Y-126432249D01*
X105801360Y-126432249D02*
X105940888Y-126537331D01*
X105940888Y-126537331D02*
X106082978Y-126639148D01*
X106082978Y-126639148D02*
X106227576Y-126737644D01*
X106227576Y-126737644D02*
X106374626Y-126832764D01*
X106374626Y-126832764D02*
X106524075Y-126924453D01*
X106524075Y-126924453D02*
X106675867Y-127012657D01*
X106675867Y-127012657D02*
X106829947Y-127097321D01*
X106829947Y-127097321D02*
X106986261Y-127178390D01*
X106986261Y-127178390D02*
X107144754Y-127255808D01*
X107144754Y-127255808D02*
X107305371Y-127329522D01*
X107305371Y-127329522D02*
X107468058Y-127399476D01*
X107468058Y-127399476D02*
X107632759Y-127465616D01*
X107632759Y-127465616D02*
X107799420Y-127527886D01*
X107799420Y-127527886D02*
X107967986Y-127586232D01*
X107967986Y-127586232D02*
X108138402Y-127640598D01*
X108138402Y-127640598D02*
X108310613Y-127690931D01*
X108310613Y-127690931D02*
X108484566Y-127737174D01*
X108484566Y-127737174D02*
X108660204Y-127779274D01*
X108660204Y-127779274D02*
X108837474Y-127817176D01*
X108837474Y-127817176D02*
X109016320Y-127850823D01*
X109016320Y-127850823D02*
X109196687Y-127880163D01*
X109196687Y-127880163D02*
X109378521Y-127905139D01*
X109378521Y-127905139D02*
X109561768Y-127925697D01*
X109561768Y-127925697D02*
X109746371Y-127941782D01*
X109746371Y-127941782D02*
X109932277Y-127953339D01*
X109932277Y-127953339D02*
X110119431Y-127960314D01*
X110119431Y-127960314D02*
X110307778Y-127962651D01*
X110307778Y-127962651D02*
X145478241Y-127962651D01*
X145478241Y-127962651D02*
X145478241Y-120749654D01*
X145478241Y-120749654D02*
X102940786Y-120749654D01*
X102940786Y-120749654D02*
X102940786Y-120749654D01*
X147683273Y-120749654D02*
X147683273Y-127962651D01*
X147683273Y-127962651D02*
X187058649Y-127962651D01*
X187058649Y-127962651D02*
X187246995Y-127960314D01*
X187246995Y-127960314D02*
X187434148Y-127953339D01*
X187434148Y-127953339D02*
X187620052Y-127941782D01*
X187620052Y-127941782D02*
X187804654Y-127925697D01*
X187804654Y-127925697D02*
X187987897Y-127905139D01*
X187987897Y-127905139D02*
X188169728Y-127880163D01*
X188169728Y-127880163D02*
X188350092Y-127850823D01*
X188350092Y-127850823D02*
X188528934Y-127817176D01*
X188528934Y-127817176D02*
X188706199Y-127779274D01*
X188706199Y-127779274D02*
X188881833Y-127737174D01*
X188881833Y-127737174D02*
X189055780Y-127690931D01*
X189055780Y-127690931D02*
X189227986Y-127640598D01*
X189227986Y-127640598D02*
X189398396Y-127586232D01*
X189398396Y-127586232D02*
X189566956Y-127527886D01*
X189566956Y-127527886D02*
X189733611Y-127465616D01*
X189733611Y-127465616D02*
X189898306Y-127399476D01*
X189898306Y-127399476D02*
X190060985Y-127329522D01*
X190060985Y-127329522D02*
X190221596Y-127255808D01*
X190221596Y-127255808D02*
X190380082Y-127178390D01*
X190380082Y-127178390D02*
X190536389Y-127097321D01*
X190536389Y-127097321D02*
X190690462Y-127012657D01*
X190690462Y-127012657D02*
X190842247Y-126924453D01*
X190842247Y-126924453D02*
X190991689Y-126832764D01*
X190991689Y-126832764D02*
X191138732Y-126737644D01*
X191138732Y-126737644D02*
X191283323Y-126639148D01*
X191283323Y-126639148D02*
X191425407Y-126537331D01*
X191425407Y-126537331D02*
X191564928Y-126432249D01*
X191564928Y-126432249D02*
X191701832Y-126323956D01*
X191701832Y-126323956D02*
X191836065Y-126212506D01*
X191836065Y-126212506D02*
X191967571Y-126097955D01*
X191967571Y-126097955D02*
X192096296Y-125980357D01*
X192096296Y-125980357D02*
X192222185Y-125859768D01*
X192222185Y-125859768D02*
X192345183Y-125736242D01*
X192345183Y-125736242D02*
X192465236Y-125609835D01*
X192465236Y-125609835D02*
X192582288Y-125480600D01*
X192582288Y-125480600D02*
X192696286Y-125348593D01*
X192696286Y-125348593D02*
X192807174Y-125213869D01*
X192807174Y-125213869D02*
X192914897Y-125076482D01*
X192914897Y-125076482D02*
X193019402Y-124936488D01*
X193019402Y-124936488D02*
X193120632Y-124793941D01*
X193120632Y-124793941D02*
X193218534Y-124648896D01*
X193218534Y-124648896D02*
X193313052Y-124501409D01*
X193313052Y-124501409D02*
X193404132Y-124351533D01*
X193404132Y-124351533D02*
X193491719Y-124199324D01*
X193491719Y-124199324D02*
X193575759Y-124044836D01*
X193575759Y-124044836D02*
X193656196Y-123888125D01*
X193656196Y-123888125D02*
X193732976Y-123729246D01*
X193732976Y-123729246D02*
X193806044Y-123568253D01*
X193806044Y-123568253D02*
X193875345Y-123405200D01*
X193875345Y-123405200D02*
X193940825Y-123240144D01*
X193940825Y-123240144D02*
X194002429Y-123073139D01*
X194002429Y-123073139D02*
X194060102Y-122904239D01*
X194060102Y-122904239D02*
X194113789Y-122733499D01*
X194113789Y-122733499D02*
X194163436Y-122560976D01*
X194163436Y-122560976D02*
X194208988Y-122386722D01*
X194208988Y-122386722D02*
X194250390Y-122210793D01*
X194250390Y-122210793D02*
X194287588Y-122033245D01*
X194287588Y-122033245D02*
X194320525Y-121854131D01*
X194320525Y-121854131D02*
X194349149Y-121673508D01*
X194349149Y-121673508D02*
X194373404Y-121491428D01*
X194373404Y-121491428D02*
X194393236Y-121307948D01*
X194393236Y-121307948D02*
X194408589Y-121123123D01*
X194408589Y-121123123D02*
X194419409Y-120937007D01*
X194419409Y-120937007D02*
X194425641Y-120749654D01*
X194425641Y-120749654D02*
X147683273Y-120749654D01*
X147683273Y-120749654D02*
X147683273Y-120749654D01*
M02*
