<?xml version="1.0" encoding="UTF-8" standalone="no"?>
<!-- Created with Inkscape (http://www.inkscape.org/) -->

<svg
   version="1.1"
   id="svg2"
   width="40.0mm"
   height="40.0mm"
   viewBox="0 0 40.0 40.0"
   sodipodi:docname="SecDSMTrain.svg"
   inkscape:version="1.1 (c4e8f9ed74, 2021-05-24)"
   xmlns:inkscape="http://www.inkscape.org/namespaces/inkscape"
   xmlns:sodipodi="http://sodipodi.sourceforge.net/DTD/sodipodi-0.dtd"
   xmlns="http://www.w3.org/2000/svg"
   xmlns:svg="http://www.w3.org/2000/svg">
  <defs
     id="defs6" />
  <sodipodi:namedview
     id="namedview4"
     pagecolor="#ffffff"
     bordercolor="#666666"
     borderopacity="1.0"
     inkscape:pageshadow="2"
     inkscape:pageopacity="0.0"
     inkscape:pagecheckerboard="0"
     showgrid="false"
     inkscape:zoom="4.9660371"
     inkscape:cx="64.437699"
     inkscape:cy="61.517866"
     inkscape:window-width="1920"
     inkscape:window-height="1021"
     inkscape:window-x="1920"
     inkscape:window-y="0"
     inkscape:window-maximized="1"
     inkscape:current-layer="g849"
     inkscape:document-units="mm"
     borderlayer="true"
     objecttolerance="1" />
  <g
     inkscape:groupmode="layer"
     inkscape:label="Image"
     id="g8" />
  <g
     inkscape:label="[fixed] BG"
     inkscape:groupmode="layer"
     sodipodi:insensitive="true"
     id="g847">
    <rect
       x="0"
       y="0"
       width="40.0"
       height="40.0"
       style="fill:#FFFFFF;fill-opacity:1;stroke:none"
       id="rect845" />
  </g>
  <g
     inkscape:label="Edge.Cuts"
     inkscape:groupmode="layer"
     id="g849"
     style="display:inline">
    <path
       style="display:inline;color:#000000;fill:none;stroke:#fd0000;stroke-width:0.132292;stroke-miterlimit:4;stroke-dasharray:none;stroke-opacity:1"
       d="m 7.447874,17.171168 h 1.434404 v -0.503017 -0.503017 l 0.467896,0.0085 0.467897,0.0085 -0.0084,-1.142113 -0.0084,-1.142114 1.394857,-0.0031 1.394858,-0.0031 0.0031,-1.461984 0.0031,-1.461987 h 0.881645 0.881644 l 0.01191,-0.05823 c 0.0065,-0.03203 0.03556,-0.194777 0.06447,-0.361665 l 0.05256,-0.30343 h 1.193186 1.193185 v 0.490393 0.490393 h 0.415037 c 0.22827,0 0.448928,0.0035 0.490347,0.0079 l 0.07531,0.0079 0.0031,1.503154 0.0031,1.503154 0.52411,0.0032 0.524108,0.0032 6.61e-4,-2.853609 6.62e-4,-2.8536083 0.232729,-0.196158 c 0.128004,-0.107886 0.244205,-0.208229 0.258229,-0.222983 l 0.0255,-0.02683 -0.04568,-0.319706 c -0.03671,-0.256981 -0.0427,-0.323294 -0.0305,-0.337994 0.0083,-0.01006 0.360882,-0.299035 0.78341,-0.642171 0.422529,-0.343136 0.77558,-0.632734 0.784558,-0.643552 0.009,-0.01082 0.02189,-0.01967 0.02868,-0.01967 0.01986,0 0.194275,0.131317 0.85353,0.642646 0.341384,0.264782 0.660694,0.510548 0.70958,0.546146 0.04889,0.0356 0.08887,0.06818 0.08884,0.07241 0,0.0042 -0.01926,0.153887 -0.04275,0.332574 -0.02349,0.178687 -0.04278,0.3344 -0.04286,0.346029 -1.22e-4,0.01285 0.096,0.09831 0.245038,0.217924 l 0.245198,0.19678 0.0018,0.824163 c 0.001,0.453289 0.0051,2.2916653 0.0092,4.0852803 l 0.0074,3.261116 0.46894,0.0032 c 0.257917,0.0018 0.469062,0.0018 0.469214,0 0.0019,-0.02268 0.06065,-6.8418703 0.06081,-7.0618133 l 1.93e-4,-0.30343 h 0.478135 0.478134 v -0.533305 -0.533303 h 1.207597 1.207596 v 0.551693 0.551693 h 1.275027 1.275027 l -2.65e-4,0.487329 c -1.59e-4,0.2680323 -0.0083,1.5603713 -0.0181,2.8718673 -0.0098,1.311496 -0.01794,2.451256 -0.0181,2.532799 l -2.64e-4,0.148261 0.29117,0.008 c 0.160145,0.0044 0.440608,0.01163 0.623255,0.01607 l 0.332084,0.0081 0.008,0.882777 c 0.0044,0.485527 0.0113,0.886034 0.01529,0.890015 0.004,0.004 0.724833,0.0056 1.60189,0.0072 l 1.595687,0.003 c 0.09604,-0.432454 0.395892,-0.83803 1.116044,-0.872387 0.589251,-0.0532 1.335597,0.304435 1.439096,1.36996 l 2.986549,3.71e-4 0.006,14.386425 L 0.08136415,32.07646 0.09398174,17.606184 3.5009252,17.583064 c 0.016806,-1.010601 0.7766103,-1.259401 1.280049,-1.276769 0.5347925,-0.0086 0.9515456,0.151028 1.322224,0.856745 0.012644,-0.0044 0.2833588,0.0081 1.3446758,0.0081 z"
       id="path1764"
       sodipodi:nodetypes="sccccccccccccccscccccsccccccccsscccscssscscscccccccccccccccccccsccsccsssccccccccccs" />
  </g>
  <g
     inkscape:label="B.Cu"
     inkscape:groupmode="layer"
     id="g851" />
  <g
     inkscape:label="B.Mask"
     inkscape:groupmode="layer"
     id="g853" />
  <g
     inkscape:label="B.SilkS"
     inkscape:groupmode="layer"
     id="g855" />
  <g
     inkscape:label="F.Cu"
     inkscape:groupmode="layer"
     id="g857"
     style="display:inline">
    <path
       style="fill:#000000;stroke-width:0.0122599"
       d="M 2.2455335,30.492856 C 2.0391301,30.449056 1.880358,30.332961 1.7977873,30.165471 1.7019893,29.971151 1.7062203,30.045383 1.7061563,28.557624 l -5.69e-5,-1.324063 0.7447867,-0.0032 0.7447867,-0.0032 v 1.017662 1.017661 H 4.1151625 5.0346523 V 28.278498 27.29443 L 3.5185088,25.860245 C 2.68463,25.071442 1.9760382,24.394452 1.9438606,24.355821 1.8718176,24.269331 1.8100349,24.159055 1.7702852,24.046003 c -0.065351,-0.185864 -0.064186,-0.157159 -0.064186,-1.581519 0,-1.4813 -0.00371,-1.413678 0.087698,-1.599909 0.080454,-0.163919 0.2160398,-0.269197 0.4210862,-0.326958 0.07561,-0.0213 0.1728776,-0.02245 1.9002787,-0.02245 2.0324614,0 1.8785818,-0.0064 2.0675605,0.08598 0.1526175,0.0746 0.2655595,0.22465 0.3190605,0.423889 0.019191,0.07147 0.021495,0.19413 0.025372,1.350566 l 0.00426,1.271958 H 5.783036 5.0346524 V 22.703551 21.759543 H 4.1151626 3.1956729 l 3.653e-4,0.910293 3.654e-4,0.910293 1.4721332,1.385362 c 0.8096733,0.761949 1.5185193,1.434006 1.5752134,1.493462 0.08471,0.08884 0.1138519,0.130349 0.1635222,0.232937 0.033243,0.06866 0.068951,0.158469 0.07935,0.199576 0.041738,0.164977 0.045087,0.301033 0.041014,1.666158 l -0.00402,1.348582 -0.027471,0.09808 c -0.039709,0.141769 -0.084129,0.222692 -0.16999,0.309684 -0.089674,0.09086 -0.2070731,0.151245 -0.3500369,0.180056 -0.1391362,0.02804 -3.5980578,0.02696 -3.7305802,-0.0012 z m 6.3996486,2.45e-4 C 8.5095483,30.464698 8.3913909,30.402695 8.3038232,30.313973 8.2160112,30.225003 8.1722353,30.143847 8.1334737,29.998158 L 8.1057477,29.89395 v -2.599086 c 0,-2.48438 10e-4,-2.603415 0.022659,-2.697165 0.050171,-0.217165 0.1576488,-0.362407 0.3312364,-0.44762 0.183799,-0.09023 0.107379,-0.08665 1.7733019,-0.0829 l 1.489463,0.0033 0.09808,0.03438 c 0.176599,0.0619 0.296069,0.162134 0.368174,0.308899 0.09014,0.183476 0.08457,0.08743 0.08857,1.52635 l 0.0036,1.293413 -0.199591,0.199161 -0.19959,0.199161 -1.189133,0.0031 -1.1891337,0.0031 -0.00314,0.904163 -0.00314,0.904163 h 0.6927617 0.692761 v -0.539433 -0.539433 h 0.699401 0.699402 l -0.0041,0.781565 c -0.0046,0.866634 -0.002,0.837683 -0.08871,1.015244 -0.08135,0.166678 -0.255167,0.290286 -0.46453,0.330344 -0.141474,0.02707 -2.9489076,0.02556 -3.078864,-0.0017 z m 2.2344519,-4.586664 0.0032,-0.775435 H 10.190016 9.4972426 v 0.770327 c 0,0.42368 0.00372,0.77405 0.00828,0.778601 0.00455,0.0046 0.3148792,0.0069 0.6896174,0.0051 l 0.681342,-0.0032 0.0032,-0.775434 z m 3.466384,4.586921 c -0.26792,-0.05529 -0.443342,-0.22552 -0.51663,-0.501333 -0.02189,-0.08239 -0.0228,-0.190423 -0.0228,-2.703295 0,-2.464236 0.0013,-2.622427 0.0217,-2.702063 0.0536,-0.208888 0.164048,-0.354051 0.332191,-0.436591 0.183799,-0.09023 0.107378,-0.08665 1.773302,-0.0829 l 1.489462,0.0034 0.09808,0.03454 c 0.121705,0.04287 0.193899,0.08837 0.273152,0.17217 0.07118,0.07526 0.113469,0.153018 0.152026,0.279528 0.0271,0.08892 0.02747,0.100131 0.0316,0.963484 l 0.0042,0.873513 H 17.270599 16.558923 V 25.835939 25.278117 H 15.90302 15.247118 v 2.010613 2.010614 h 0.655902 0.655903 V 28.686352 28.07336 h 0.711645 0.711644 l -0.0041,0.928683 c -0.0041,0.926229 -0.0042,0.928925 -0.03209,1.020544 -0.06086,0.19981 -0.168701,0.331945 -0.335604,0.411205 -0.171657,0.08152 -0.12444,0.07938 -1.729921,0.07828 -1.212372,-8.34e-4 -1.462647,-0.0039 -1.534469,-0.01871 z"
       id="path917"
       sodipodi:nodetypes="csscccccccccssssssscsscccccccccssssscssscccsscsssccssscccccccccccccccsccccccscccccssscscccssccccccccccccccccccssss" />
    <path
       id="path11984"
       style="display:inline;fill:#000000;stroke-width:0.0122599"
       d="m 79.251953,23.609375 c -0.02566,0 -0.07536,0.03333 -0.109375,0.07422 -0.03393,0.04089 -1.367884,1.134748 -2.964844,2.43164 -1.596956,1.296893 -2.929567,2.389713 -2.960937,2.427735 -0.04611,0.05556 -0.02351,0.306077 0.115234,1.277343 l 0.171875,1.208985 -0.0957,0.101562 c -0.053,0.05576 -0.492768,0.434041 -0.976562,0.841797 l -0.878907,0.742188 -0.002,10.785156 -0.0039,10.785156 -1.980469,-0.01172 -1.980468,-0.01367 -0.01172,-5.679688 -0.01172,-5.68164 -0.285156,-0.0293 c -0.156545,-0.01663 -0.990763,-0.03125 -1.853516,-0.03125 h -1.568359 v -1.853516 -1.853516 h -4.509766 -4.509765 l -0.199219,1.146485 c -0.109266,0.630758 -0.217621,1.246129 -0.242188,1.367187 l -0.04492,0.220703 H 51.01754 47.685509 l -0.01172,5.525391 -0.01172,5.525391 -5.273437,0.01172 -5.271484,0.01172 0.03125,4.316406 0.0332,4.316407 -1.769532,-0.03125 -1.767578,-0.03125 v 1.90039 1.900391 h -5.421875 c -4.011277,0 -5.421875,-0.01384 -5.421875,-0.05273 0,-0.09976 -0.405579,-0.908128 -0.591797,-1.179687 -0.456979,-0.666361 -1.091754,-1.210098 -1.832031,-1.568359 -0.373432,-0.180728 -0.760145,-0.297892 -1.152344,-0.375 v 2.572265 c 0.595677,0.25664 1.095295,0.748956 1.28125,1.462891 0.278388,1.068791 -0.288687,2.163497 -1.28125,2.603516 v 2.570312 c 1.603982,-0.316108 2.998229,-1.475329 3.560547,-3.111328 l 0.152344,-0.441406 6.582031,-0.01172 6.580078,-0.01172 V 65.882812 64 l 1.767579,0.02539 1.769531,0.02344 -0.0332,-4.40039 -0.03125,-4.400391 1.078125,0.02734 c 0.593355,0.01493 2.246663,0.03755 3.673828,0.05078 1.427164,0.01308 3.320036,0.03686 4.207031,0.05273 l 1.613281,0.0293 -0.0078,-5.554687 -0.0078,-5.554688 3.126953,0.01563 c 1.837849,0.0098 3.137226,0.0011 3.152344,-0.02344 0.01425,-0.02308 0.121494,-0.595064 0.238281,-1.269532 0.116788,-0.674471 0.223479,-1.272742 0.236328,-1.330078 l 0.02344,-0.103515 h 2.246094 2.248047 v 1.851562 1.853516 h 1.845703 1.845703 l 0.03125,5.685547 c 0.0172,3.126398 0.0419,5.696197 0.05664,5.710937 0.01462,0.01482 2.008639,0.0327 4.429687,0.04102 l 4.402344,0.01563 -0.01367,-11.433594 -0.01172,-11.435547 1.074219,-0.917969 c 0.912646,-0.780223 1.07201,-0.933534 1.052734,-1.021484 -0.01259,-0.05696 -0.08654,-0.562376 -0.164062,-1.123047 -0.07752,-0.560669 -0.150393,-1.063556 -0.16211,-1.117187 -0.01788,-0.08152 0.274733,-0.335336 1.785157,-1.546875 l 1.804687,-1.447266 0.314453,0.25 c 0.172173,0.137579 0.961227,0.765439 1.753906,1.396484 1.207699,0.961459 1.437813,1.164281 1.423829,1.25 -0.05367,0.325985 -0.292969,2.251419 -0.292969,2.355469 0,0.106412 0.143859,0.238587 0.996094,0.919922 l 0.996093,0.796875 v 16.105469 16.105468 l 4.244141,-0.0293 c 2.334947,-0.0158 4.251388,-0.03346 4.257812,-0.04102 0.0064,-0.0076 0.05533,-5.404308 0.109376,-11.992188 0.05405,-6.587874 0.112654,-12.837415 0.128906,-13.888671 l 0.0293,-1.91211 h 1.800781 1.800781 V 36.003905 33.98828 h 2.109375 2.107422 v 2.054688 2.054687 l 1.95313,0.0293 c 1.07453,0.01663 3.24441,0.03125 4.82031,0.03125 h 2.86523 v 0.521485 c 4.2e-4,0.286706 -0.0324,5.397179 -0.0742,11.355468 -0.0416,5.958293 -0.0656,10.842619 -0.0527,10.855469 0.0128,0.01281 1.07102,0.05394 2.35156,0.08984 1.28054,0.03602 2.34155,0.07788 2.35742,0.09375 0.0157,0.01582 0.0338,1.539211 0.041,3.384765 l 0.0137,3.355469 h 3.97461 c 2.18657,0 5.44901,0.01229 7.24805,0.0293 l 3.26953,0.03125 0.10351,0.320312 c 0.22726,0.706772 0.67897,1.415738 1.23828,1.94336 0.59356,0.559933 1.23272,0.915856 2.04883,1.140625 0.11904,0.03272 0.2155,0.05447 0.31055,0.07227 v -2.554687 c -0.99307,-0.435266 -1.57592,-1.542339 -1.30664,-2.576172 0.18793,-0.721519 0.66494,-1.27499 1.30664,-1.544922 v -2.552734 c -0.55519,0.105246 -1.09772,0.310972 -1.60156,0.625 -0.90784,0.565829 -1.63036,1.454786 -1.95313,2.402344 l -0.0781,0.230468 h -6.02735 c -3.31486,0 -6.03957,-0.01223 -6.05468,-0.02734 -0.0151,-0.01505 -0.04,-1.528219 -0.0566,-3.363282 l -0.0312,-3.335937 -1.25586,-0.03125 c -0.69032,-0.01678 -1.7502,-0.04392 -2.35547,-0.06055 l -1.09961,-0.03125 v -0.560547 c 6e-4,-0.308194 0.0313,-4.615431 0.0684,-9.572265 0.037,-4.956836 0.0678,-9.840484 0.0684,-10.853516 l 0.002,-1.841797 h -4.81836 -4.82031 v -2.085937 -2.083985 h -4.564455 -4.5625 v 2.015625 2.015625 h -1.806641 -1.808593 v 1.146485 c -6.05e-4,0.831278 -0.223288,26.603733 -0.230469,26.689453 -5.75e-4,0.0068 -0.798633,0.0068 -1.773438,0 L 87.09375,63.388672 87.066406,51.0625 C 87.05091,44.283483 87.03503,37.336265 87.03125,35.623047 l -0.0078,-3.115235 -0.925782,-0.74414 c -0.563293,-0.452085 -0.926242,-0.773695 -0.925781,-0.822266 3.02e-4,-0.04395 0.07333,-0.633241 0.162109,-1.308594 0.08878,-0.675351 0.160157,-1.241938 0.160157,-1.257812 1.13e-4,-0.01599 -0.151157,-0.138886 -0.335938,-0.273438 -0.184766,-0.134543 -1.39137,-1.063702 -2.681641,-2.064453 -2.491671,-1.932582 -3.149547,-2.427734 -3.224609,-2.427734 z m 56.199217,38.53125 v 2.578125 c 0.6408,0.31153 1.12945,0.928537 1.25195,1.693359 0.15191,0.948206 -0.38155,1.924432 -1.25195,2.34375 v 2.576172 c 0.0211,-0.0044 0.0434,-0.0088 0.0645,-0.01367 1.71884,-0.397651 3.07045,-1.713923 3.52735,-3.435547 0.16524,-0.623273 0.179,-1.596402 0.0293,-2.201171 -0.21319,-0.861192 -0.65509,-1.646434 -1.27149,-2.263672 -0.66438,-0.66528 -1.48409,-1.09478 -2.34961,-1.277344 z m -118.052732,0.01172 c -0.406398,0.08548 -0.807532,0.209692 -1.19336,0.40625 -0.468196,0.238526 -0.693441,0.402555 -1.134766,0.826172 -1.703481,1.635106 -1.903064,4.280117 -0.46875,6.183593 0.677216,0.898726 1.67584,1.516118 2.796876,1.753907 v -2.56836 c -0.446299,-0.211905 -0.825909,-0.569967 -1.054688,-1.039062 -0.276699,-0.567383 -0.314642,-1.121897 -0.115234,-1.705078 0.127544,-0.373025 0.275021,-0.598129 0.58789,-0.896485 0.178406,-0.170137 0.37641,-0.294503 0.582032,-0.392578 z"
       transform="scale(0.26458333)" />
  </g>
  <g
     inkscape:label="F.Mask"
     inkscape:groupmode="layer"
     id="g859"
     style="display:inline">
    <path
       id="path11665"
       style="fill:#000000;stroke-width:0.0122599"
       d="m 79.251953,23.609375 c -0.02566,0 -0.07536,0.03333 -0.109375,0.07422 -0.03393,0.04089 -1.367884,1.134748 -2.964844,2.43164 -1.596956,1.296893 -2.929567,2.389713 -2.960937,2.427735 -0.04611,0.05556 -0.02351,0.306077 0.115234,1.277343 l 0.171875,1.208985 -0.0957,0.101562 c -0.053,0.05576 -0.492768,0.434041 -0.976562,0.841797 l -0.878907,0.742188 -0.002,10.785156 -0.0039,10.785156 -1.980469,-0.01172 -1.980468,-0.01367 -0.01172,-5.679688 -0.01172,-5.68164 -0.285156,-0.0293 c -0.156545,-0.01663 -0.990763,-0.03125 -1.853516,-0.03125 h -1.568359 v -1.853516 -1.853516 h -4.509766 -4.509765 l -0.199219,1.146485 c -0.109266,0.630758 -0.217621,1.246129 -0.242188,1.367187 l -0.04492,0.220703 H 51.01754 47.685509 l -0.01172,5.525391 -0.01172,5.525391 -5.273437,0.01172 -5.271484,0.01172 0.03125,4.316406 0.0332,4.316407 -1.769532,-0.03125 -1.767578,-0.03125 v 1.90039 1.900391 h -5.421875 c -4.011277,0 -5.421875,-0.01384 -5.421875,-0.05273 0,-0.09976 -0.405579,-0.908128 -0.591797,-1.179687 -0.456979,-0.666361 -1.091754,-1.210098 -1.832031,-1.568359 -0.373432,-0.180728 -0.760145,-0.297892 -1.152344,-0.375 v 2.572265 c 0.595677,0.25664 1.095295,0.748956 1.28125,1.462891 0.278388,1.068791 -0.288687,2.163497 -1.28125,2.603516 v 2.570312 c 1.603982,-0.316108 2.998229,-1.475329 3.560547,-3.111328 l 0.152344,-0.441406 6.582031,-0.01172 6.580078,-0.01172 V 65.882812 64 l 1.767579,0.02539 1.769531,0.02344 -0.0332,-4.40039 -0.03125,-4.400391 1.078125,0.02734 c 0.593355,0.01493 2.246663,0.03755 3.673828,0.05078 1.427164,0.01308 3.320036,0.03686 4.207031,0.05273 l 1.613281,0.0293 -0.0078,-5.554687 -0.0078,-5.554688 3.126953,0.01563 c 1.837849,0.0098 3.137226,0.0011 3.152344,-0.02344 0.01425,-0.02308 0.121494,-0.595064 0.238281,-1.269532 0.116788,-0.674471 0.223479,-1.272742 0.236328,-1.330078 l 0.02344,-0.103515 h 2.246094 2.248047 v 1.851562 1.853516 h 1.845703 1.845703 l 0.03125,5.685547 c 0.0172,3.126398 0.0419,5.696197 0.05664,5.710937 0.01462,0.01482 2.008639,0.0327 4.429687,0.04102 l 4.402344,0.01563 -0.01367,-11.433594 -0.01172,-11.435547 1.074219,-0.917969 c 0.912646,-0.780223 1.07201,-0.933534 1.052734,-1.021484 -0.01259,-0.05696 -0.08654,-0.562376 -0.164062,-1.123047 -0.07752,-0.560669 -0.150393,-1.063556 -0.16211,-1.117187 -0.01788,-0.08152 0.274733,-0.335336 1.785157,-1.546875 l 1.804687,-1.447266 0.314453,0.25 c 0.172173,0.137579 0.961227,0.765439 1.753906,1.396484 1.207699,0.961459 1.437813,1.164281 1.423829,1.25 -0.05367,0.325985 -0.292969,2.251419 -0.292969,2.355469 0,0.106412 0.143859,0.238587 0.996094,0.919922 l 0.996093,0.796875 v 16.105469 16.105468 l 4.244141,-0.0293 c 2.334947,-0.0158 4.251388,-0.03346 4.257812,-0.04102 0.0064,-0.0076 0.05533,-5.404308 0.109376,-11.992188 0.05405,-6.587874 0.112654,-12.837415 0.128906,-13.888671 l 0.0293,-1.91211 h 1.800781 1.800781 V 36.003905 33.98828 h 2.109375 2.107422 v 2.054688 2.054687 l 1.95313,0.0293 c 1.07453,0.01663 3.24441,0.03125 4.82031,0.03125 h 2.86523 v 0.521485 c 4.2e-4,0.286706 -0.0324,5.397179 -0.0742,11.355468 -0.0416,5.958293 -0.0656,10.842619 -0.0527,10.855469 0.0128,0.01281 1.07102,0.05394 2.35156,0.08984 1.28054,0.03602 2.34155,0.07788 2.35742,0.09375 0.0157,0.01582 0.0338,1.539211 0.041,3.384765 l 0.0137,3.355469 h 3.97461 c 2.18657,0 5.44901,0.01229 7.24805,0.0293 l 3.26953,0.03125 0.10351,0.320312 c 0.22726,0.706772 0.67897,1.415738 1.23828,1.94336 0.59356,0.559933 1.23272,0.915856 2.04883,1.140625 0.11904,0.03272 0.2155,0.05447 0.31055,0.07227 v -2.554687 c -0.99307,-0.435266 -1.57592,-1.542339 -1.30664,-2.576172 0.18793,-0.721519 0.66494,-1.27499 1.30664,-1.544922 v -2.552734 c -0.55519,0.105246 -1.09772,0.310972 -1.60156,0.625 -0.90784,0.565829 -1.63036,1.454786 -1.95313,2.402344 l -0.0781,0.230468 h -6.02735 c -3.31486,0 -6.03957,-0.01223 -6.05468,-0.02734 -0.0151,-0.01505 -0.04,-1.528219 -0.0566,-3.363282 l -0.0312,-3.335937 -1.25586,-0.03125 c -0.69032,-0.01678 -1.7502,-0.04392 -2.35547,-0.06055 l -1.09961,-0.03125 v -0.560547 c 6e-4,-0.308194 0.0313,-4.615431 0.0684,-9.572265 0.037,-4.956836 0.0678,-9.840484 0.0684,-10.853516 l 0.002,-1.841797 h -4.81836 -4.82031 v -2.085937 -2.083985 h -4.564455 -4.5625 v 2.015625 2.015625 h -1.806641 -1.808593 v 1.146485 c -6.05e-4,0.831278 -0.223288,26.603733 -0.230469,26.689453 -5.75e-4,0.0068 -0.798633,0.0068 -1.773438,0 L 87.09375,63.388672 87.066406,51.0625 C 87.05091,44.283483 87.03503,37.336265 87.03125,35.623047 l -0.0078,-3.115235 -0.925782,-0.74414 c -0.563293,-0.452085 -0.926242,-0.773695 -0.925781,-0.822266 3.02e-4,-0.04395 0.07333,-0.633241 0.162109,-1.308594 0.08878,-0.675351 0.160157,-1.241938 0.160157,-1.257812 1.13e-4,-0.01599 -0.151157,-0.138886 -0.335938,-0.273438 -0.184766,-0.134543 -1.39137,-1.063702 -2.681641,-2.064453 -2.491671,-1.932582 -3.149547,-2.427734 -3.224609,-2.427734 z m 56.199217,38.53125 v 2.578125 c 0.6408,0.31153 1.12945,0.928537 1.25195,1.693359 0.15191,0.948206 -0.38155,1.924432 -1.25195,2.34375 v 2.576172 c 0.0211,-0.0044 0.0434,-0.0088 0.0645,-0.01367 1.71884,-0.397651 3.07045,-1.713923 3.52735,-3.435547 0.16524,-0.623273 0.179,-1.596402 0.0293,-2.201171 -0.21319,-0.861192 -0.65509,-1.646434 -1.27149,-2.263672 -0.66438,-0.66528 -1.48409,-1.09478 -2.34961,-1.277344 z m -118.052732,0.01172 c -0.406398,0.08548 -0.807532,0.209692 -1.19336,0.40625 -0.468196,0.238526 -0.693441,0.402555 -1.134766,0.826172 -1.703481,1.635106 -1.903064,4.280117 -0.46875,6.183593 0.677216,0.898726 1.67584,1.516118 2.796876,1.753907 v -2.56836 c -0.446299,-0.211905 -0.825909,-0.569967 -1.054688,-1.039062 -0.276699,-0.567383 -0.314642,-1.121897 -0.115234,-1.705078 0.127544,-0.373025 0.275021,-0.598129 0.58789,-0.896485 0.178406,-0.170137 0.37641,-0.294503 0.582032,-0.392578 z"
       transform="scale(0.26458333)" />
    <path
       style="fill:#000000;stroke-width:0.0122599"
       d="M 2.2455335,30.492856 C 2.0391301,30.449056 1.880358,30.332961 1.7977873,30.165471 1.7019893,29.971151 1.7062203,30.045383 1.7061563,28.557624 l -5.69e-5,-1.324063 0.7447867,-0.0032 0.7447867,-0.0032 v 1.017662 1.017661 H 4.1151625 5.0346523 V 28.278498 27.29443 L 3.5185088,25.860245 C 2.68463,25.071442 1.9760382,24.394452 1.9438606,24.355821 1.8718176,24.269331 1.8100349,24.159055 1.7702852,24.046003 c -0.065351,-0.185864 -0.064186,-0.157159 -0.064186,-1.581519 0,-1.4813 -0.00371,-1.413678 0.087698,-1.599909 0.080454,-0.163919 0.2160398,-0.269197 0.4210862,-0.326958 0.07561,-0.0213 0.1728776,-0.02245 1.9002787,-0.02245 2.0324614,0 1.8785818,-0.0064 2.0675605,0.08598 0.1526175,0.0746 0.2655595,0.22465 0.3190605,0.423889 0.019191,0.07147 0.021495,0.19413 0.025372,1.350566 l 0.00426,1.271958 H 5.783036 5.0346524 V 22.703551 21.759543 H 4.1151626 3.1956729 l 3.653e-4,0.910293 3.654e-4,0.910293 1.4721332,1.385362 c 0.8096733,0.761949 1.5185193,1.434006 1.5752134,1.493462 0.08471,0.08884 0.1138519,0.130349 0.1635222,0.232937 0.033243,0.06866 0.068951,0.158469 0.07935,0.199576 0.041738,0.164977 0.045087,0.301033 0.041014,1.666158 l -0.00402,1.348582 -0.027471,0.09808 c -0.039709,0.141769 -0.084129,0.222692 -0.16999,0.309684 -0.089674,0.09086 -0.2070731,0.151245 -0.3500369,0.180056 -0.1391362,0.02804 -3.5980578,0.02696 -3.7305802,-0.0012 z m 6.3996486,2.45e-4 C 8.5095483,30.464698 8.3913909,30.402695 8.3038232,30.313973 8.2160112,30.225003 8.1722353,30.143847 8.1334737,29.998158 L 8.1057477,29.89395 v -2.599086 c 0,-2.48438 10e-4,-2.603415 0.022659,-2.697165 0.050171,-0.217165 0.1576488,-0.362407 0.3312364,-0.44762 0.183799,-0.09023 0.107379,-0.08665 1.7733019,-0.0829 l 1.489463,0.0033 0.09808,0.03438 c 0.176599,0.0619 0.296069,0.162134 0.368174,0.308899 0.09014,0.183476 0.08457,0.08743 0.08857,1.52635 l 0.0036,1.293413 -0.199591,0.199161 -0.19959,0.199161 -1.189133,0.0031 -1.1891337,0.0031 -0.00314,0.904163 -0.00314,0.904163 h 0.6927617 0.692761 v -0.539433 -0.539433 h 0.699401 0.699402 l -0.0041,0.781565 c -0.0046,0.866634 -0.002,0.837683 -0.08871,1.015244 -0.08135,0.166678 -0.255167,0.290286 -0.46453,0.330344 -0.141474,0.02707 -2.9489076,0.02556 -3.078864,-0.0017 z m 2.2344519,-4.586664 0.0032,-0.775435 H 10.190016 9.4972426 v 0.770327 c 0,0.42368 0.00372,0.77405 0.00828,0.778601 0.00455,0.0046 0.3148792,0.0069 0.6896174,0.0051 l 0.681342,-0.0032 0.0032,-0.775434 z m 3.466384,4.586921 c -0.26792,-0.05529 -0.443342,-0.22552 -0.51663,-0.501333 -0.02189,-0.08239 -0.0228,-0.190423 -0.0228,-2.703295 0,-2.464236 0.0013,-2.622427 0.0217,-2.702063 0.0536,-0.208888 0.164048,-0.354051 0.332191,-0.436591 0.183799,-0.09023 0.107378,-0.08665 1.773302,-0.0829 l 1.489462,0.0034 0.09808,0.03454 c 0.121705,0.04287 0.193899,0.08837 0.273152,0.17217 0.07118,0.07526 0.113469,0.153018 0.152026,0.279528 0.0271,0.08892 0.02747,0.100131 0.0316,0.963484 l 0.0042,0.873513 H 17.270599 16.558923 V 25.835939 25.278117 H 15.90302 15.247118 v 2.010613 2.010614 h 0.655902 0.655903 V 28.686352 28.07336 h 0.711645 0.711644 l -0.0041,0.928683 c -0.0041,0.926229 -0.0042,0.928925 -0.03209,1.020544 -0.06086,0.19981 -0.168701,0.331945 -0.335604,0.411205 -0.171657,0.08152 -0.12444,0.07938 -1.729921,0.07828 -1.212372,-8.34e-4 -1.462647,-0.0039 -1.534469,-0.01871 z"
       id="path11757"
       sodipodi:nodetypes="csscccccccccssssssscsscccccccccssssscssscccsscsssccssscccccccccccccccsccccccscccccssscscccssccccccccccccccccccssss" />
  </g>
  <g
     inkscape:label="F.SilkS"
     inkscape:groupmode="layer"
     id="g861">
    <path
       d="m 19.406923,25.511707 v -5.002383 h 1.612655 c 1.059916,0 1.65346,0.0045 1.731706,0.01308 0.661885,0.07272 1.178213,0.411577 1.446498,0.949317 0.0993,0.199037 0.162594,0.441088 0.185935,0.711071 0.01755,0.203045 0.01755,6.466307 0,6.669351 -0.05226,0.604464 -0.299001,1.045368 -0.757805,1.354111 -0.17205,0.115773 -0.402881,0.207901 -0.669758,0.267306 l -0.147119,0.03275 -1.701056,0.0039 -1.701056,0.0039 z m 2.908698,3.686705 c 0.158395,-0.04272 0.25551,-0.09565 0.353842,-0.192839 0.09129,-0.09023 0.143239,-0.181996 0.185419,-0.32753 l 0.02771,-0.09562 v -3.07722 -3.07722 l -0.02771,-0.09562 c -0.06212,-0.214342 -0.174748,-0.35798 -0.346213,-0.441545 -0.197854,-0.09642 -0.317002,-0.108221 -1.048219,-0.103777 l -0.563953,0.0034 -0.0031,3.724865 -0.0031,3.724866 0.652859,-0.0048 0.652857,-0.0048 z m 4.239645,1.301596 c -0.163695,-0.03211 -0.313773,-0.110812 -0.397437,-0.208417 -0.0255,-0.02975 -0.0651,-0.0927 -0.08802,-0.139904 -0.08111,-0.167098 -0.07934,-0.131585 -0.07934,-1.599393 v -1.324578 h 0.741721 0.741722 v 1.017566 1.017566 h 0.919491 0.919488 V 28.27812 27.293391 L 27.775209,25.83864 c -1.675238,-1.584888 -1.622042,-1.530441 -1.709422,-1.749642 -0.07747,-0.194335 -0.07532,-0.14831 -0.07532,-1.61197 0,-1.479093 -0.0022,-1.434827 0.08147,-1.609992 0.07751,-0.162181 0.218135,-0.272091 0.421183,-0.329178 0.07555,-0.02124 0.174218,-0.0224 1.900278,-0.0224 1.709057,0 1.825474,0.0013 1.90028,0.02187 0.127875,0.03509 0.228134,0.08828 0.305506,0.162084 0.08379,0.07992 0.138073,0.175268 0.175768,0.308722 0.027,0.09558 0.02707,0.09868 0.03078,1.367757 l 0.0037,1.271959 H 30.06118 29.312899 v -0.944014 -0.944009 h -0.919491 -0.91949 l 5.29e-4,0.910293 5.29e-4,0.910293 1.453023,1.366973 c 0.799161,0.751834 1.497177,1.410179 1.551146,1.462989 0.155848,0.152498 0.239612,0.299837 0.295881,0.520444 l 0.02726,0.106868 v 1.434401 c 0,1.332333 -0.0016,1.440421 -0.0217,1.518989 -0.05369,0.209232 -0.164285,0.354454 -0.332189,0.436174 -0.18607,0.09056 -0.08124,0.08626 -2.063842,0.08476 -0.976323,-7.94e-4 -1.799582,-0.0061 -1.829461,-0.01199 z m 5.908413,-4.98867 v -5.002014 h 0.704363 0.704366 l 0.01146,0.03984 c 0.0063,0.02191 0.365128,1.276909 0.797391,2.788877 0.739764,2.587547 0.786413,2.756428 0.794105,2.874932 0.0097,0.149299 0.02582,0.221351 0.02817,0.1259 0.0051,-0.207609 0.02016,-0.263659 0.822589,-3.067907 l 0.790176,-2.761411 0.708009,-1.23e-4 0.708006,-1.22e-4 v 5.002014 5.002014 h -0.72373 -0.723734 l 0.0042,-2.63893 c 0.0045,-2.831301 0.0013,-2.666222 0.06448,-3.18313 0.01024,-0.08354 0.0168,-0.153677 0.01463,-0.155867 -0.0021,-0.0022 -0.293442,1.136443 -0.647227,2.530292 l -0.643244,2.534277 -0.372954,0.0032 c -0.205124,0.0019 -0.37709,-0.0011 -0.382146,-0.0061 -0.0051,-0.0052 -0.296624,-1.137589 -0.64793,-2.516515 -0.549733,-2.157789 -0.687432,-2.688093 -0.655783,-2.525527 0.0033,0.01686 0.02085,0.165815 0.03904,0.331016 l 0.03307,0.300365 0.0039,2.663451 0.0039,2.663449 H 33.18122 32.463672 v -5.001981 z"
       style="display:inline;fill:#000000;stroke-width:0.00324377"
       id="path11473" />
  </g>
  <g
     inkscape:label="Dwgs.User"
     inkscape:groupmode="layer"
     id="g863" />
  <g
     inkscape:label="Drill"
     inkscape:groupmode="layer"
     id="g865" />
</svg>
