G04 #@! TF.GenerationSoftware,KiCad,Pcbnew,5.1.0*
G04 #@! TF.CreationDate,2019-04-23T22:24:47-05:00*
G04 #@! TF.ProjectId,LedMatrix,4c65644d-6174-4726-9978-2e6b69636164,rev?*
G04 #@! TF.SameCoordinates,Original*
G04 #@! TF.FileFunction,Copper,L1,Top*
G04 #@! TF.FilePolarity,Positive*
%FSLAX46Y46*%
G04 Gerber Fmt 4.6, Leading zero omitted, Abs format (unit mm)*
G04 Created by KiCad (PCBNEW 5.1.0) date 2019-04-23 22:24:47*
%MOMM*%
%LPD*%
G04 APERTURE LIST*
%ADD10C,0.010000*%
%ADD11R,1.700000X1.700000*%
%ADD12O,1.700000X1.700000*%
%ADD13R,0.400000X0.900000*%
%ADD14C,0.800000*%
%ADD15C,0.100000*%
%ADD16C,0.250000*%
G04 APERTURE END LIST*
D10*
G36*
X117119413Y-48579101D02*
G01*
X117302476Y-48671441D01*
X117438408Y-48805243D01*
X117445789Y-48816445D01*
X117484296Y-48886560D01*
X117505787Y-48961161D01*
X117512260Y-49061906D01*
X117505713Y-49210454D01*
X117494912Y-49349000D01*
X117481318Y-49557176D01*
X117470127Y-49815106D01*
X117462606Y-50087886D01*
X117460038Y-50309064D01*
X117460779Y-50541042D01*
X117465613Y-50705025D01*
X117476695Y-50817664D01*
X117496180Y-50895610D01*
X117526225Y-50955512D01*
X117547732Y-50986397D01*
X117633602Y-51071274D01*
X117747178Y-51111004D01*
X117820016Y-51119227D01*
X118067890Y-51100096D01*
X118295719Y-51002890D01*
X118509344Y-50824818D01*
X118564224Y-50763825D01*
X118668892Y-50650241D01*
X118759066Y-50568178D01*
X118816141Y-50534453D01*
X118818112Y-50534334D01*
X118873755Y-50567452D01*
X118947182Y-50651096D01*
X118979505Y-50698393D01*
X119126869Y-50889127D01*
X119276913Y-51003226D01*
X119424284Y-51039020D01*
X119563631Y-50994837D01*
X119657971Y-50910223D01*
X119738653Y-50801415D01*
X119808934Y-50673458D01*
X119876082Y-50509221D01*
X119947364Y-50291574D01*
X120005985Y-50089834D01*
X120065450Y-49879010D01*
X120127683Y-49659557D01*
X120181333Y-49471471D01*
X120192246Y-49433442D01*
X120271416Y-49158050D01*
X120699565Y-48994582D01*
X120917567Y-48915972D01*
X121065998Y-48873703D01*
X121151001Y-48866227D01*
X121172145Y-48875545D01*
X121202677Y-48934474D01*
X121169740Y-48994145D01*
X121067286Y-49059634D01*
X120889270Y-49136021D01*
X120839887Y-49154600D01*
X120680263Y-49216840D01*
X120549296Y-49273866D01*
X120469270Y-49315783D01*
X120458527Y-49323933D01*
X120430315Y-49380037D01*
X120386526Y-49501746D01*
X120332553Y-49672637D01*
X120273790Y-49876288D01*
X120257251Y-49936804D01*
X120146737Y-50318610D01*
X120040651Y-50623568D01*
X119934846Y-50859062D01*
X119825173Y-51032475D01*
X119707485Y-51151190D01*
X119577635Y-51222591D01*
X119526069Y-51238398D01*
X119352379Y-51241191D01*
X119168574Y-51174646D01*
X118996259Y-51047924D01*
X118942569Y-50990944D01*
X118791511Y-50814467D01*
X118621542Y-50991355D01*
X118437034Y-51157866D01*
X118253712Y-51260737D01*
X118040918Y-51314778D01*
X117926413Y-51327186D01*
X117768971Y-51333485D01*
X117659906Y-51317957D01*
X117564244Y-51273620D01*
X117522334Y-51246552D01*
X117394087Y-51118677D01*
X117302698Y-50931493D01*
X117247655Y-50681317D01*
X117228449Y-50364461D01*
X117244569Y-49977242D01*
X117289182Y-49563076D01*
X117317945Y-49311873D01*
X117325189Y-49128459D01*
X117307137Y-48997833D01*
X117260009Y-48904997D01*
X117180027Y-48834951D01*
X117093702Y-48787122D01*
X116948658Y-48742101D01*
X116810297Y-48760585D01*
X116662541Y-48847350D01*
X116546579Y-48949650D01*
X116451116Y-49035110D01*
X116388509Y-49065811D01*
X116336292Y-49051090D01*
X116323527Y-49042361D01*
X116276073Y-48997661D01*
X116282352Y-48948669D01*
X116320525Y-48889482D01*
X116429960Y-48776072D01*
X116582501Y-48669287D01*
X116747405Y-48586782D01*
X116893928Y-48546212D01*
X116920974Y-48544667D01*
X117119413Y-48579101D01*
X117119413Y-48579101D01*
G37*
X117119413Y-48579101D02*
X117302476Y-48671441D01*
X117438408Y-48805243D01*
X117445789Y-48816445D01*
X117484296Y-48886560D01*
X117505787Y-48961161D01*
X117512260Y-49061906D01*
X117505713Y-49210454D01*
X117494912Y-49349000D01*
X117481318Y-49557176D01*
X117470127Y-49815106D01*
X117462606Y-50087886D01*
X117460038Y-50309064D01*
X117460779Y-50541042D01*
X117465613Y-50705025D01*
X117476695Y-50817664D01*
X117496180Y-50895610D01*
X117526225Y-50955512D01*
X117547732Y-50986397D01*
X117633602Y-51071274D01*
X117747178Y-51111004D01*
X117820016Y-51119227D01*
X118067890Y-51100096D01*
X118295719Y-51002890D01*
X118509344Y-50824818D01*
X118564224Y-50763825D01*
X118668892Y-50650241D01*
X118759066Y-50568178D01*
X118816141Y-50534453D01*
X118818112Y-50534334D01*
X118873755Y-50567452D01*
X118947182Y-50651096D01*
X118979505Y-50698393D01*
X119126869Y-50889127D01*
X119276913Y-51003226D01*
X119424284Y-51039020D01*
X119563631Y-50994837D01*
X119657971Y-50910223D01*
X119738653Y-50801415D01*
X119808934Y-50673458D01*
X119876082Y-50509221D01*
X119947364Y-50291574D01*
X120005985Y-50089834D01*
X120065450Y-49879010D01*
X120127683Y-49659557D01*
X120181333Y-49471471D01*
X120192246Y-49433442D01*
X120271416Y-49158050D01*
X120699565Y-48994582D01*
X120917567Y-48915972D01*
X121065998Y-48873703D01*
X121151001Y-48866227D01*
X121172145Y-48875545D01*
X121202677Y-48934474D01*
X121169740Y-48994145D01*
X121067286Y-49059634D01*
X120889270Y-49136021D01*
X120839887Y-49154600D01*
X120680263Y-49216840D01*
X120549296Y-49273866D01*
X120469270Y-49315783D01*
X120458527Y-49323933D01*
X120430315Y-49380037D01*
X120386526Y-49501746D01*
X120332553Y-49672637D01*
X120273790Y-49876288D01*
X120257251Y-49936804D01*
X120146737Y-50318610D01*
X120040651Y-50623568D01*
X119934846Y-50859062D01*
X119825173Y-51032475D01*
X119707485Y-51151190D01*
X119577635Y-51222591D01*
X119526069Y-51238398D01*
X119352379Y-51241191D01*
X119168574Y-51174646D01*
X118996259Y-51047924D01*
X118942569Y-50990944D01*
X118791511Y-50814467D01*
X118621542Y-50991355D01*
X118437034Y-51157866D01*
X118253712Y-51260737D01*
X118040918Y-51314778D01*
X117926413Y-51327186D01*
X117768971Y-51333485D01*
X117659906Y-51317957D01*
X117564244Y-51273620D01*
X117522334Y-51246552D01*
X117394087Y-51118677D01*
X117302698Y-50931493D01*
X117247655Y-50681317D01*
X117228449Y-50364461D01*
X117244569Y-49977242D01*
X117289182Y-49563076D01*
X117317945Y-49311873D01*
X117325189Y-49128459D01*
X117307137Y-48997833D01*
X117260009Y-48904997D01*
X117180027Y-48834951D01*
X117093702Y-48787122D01*
X116948658Y-48742101D01*
X116810297Y-48760585D01*
X116662541Y-48847350D01*
X116546579Y-48949650D01*
X116451116Y-49035110D01*
X116388509Y-49065811D01*
X116336292Y-49051090D01*
X116323527Y-49042361D01*
X116276073Y-48997661D01*
X116282352Y-48948669D01*
X116320525Y-48889482D01*
X116429960Y-48776072D01*
X116582501Y-48669287D01*
X116747405Y-48586782D01*
X116893928Y-48546212D01*
X116920974Y-48544667D01*
X117119413Y-48579101D01*
D11*
X132610000Y-45750000D03*
D12*
X130070000Y-45750000D03*
X127530000Y-45750000D03*
X124990000Y-45750000D03*
X122450000Y-45750000D03*
X119910000Y-45750000D03*
X117370000Y-45750000D03*
X114830000Y-45750000D03*
X112290000Y-45750000D03*
X109750000Y-45750000D03*
X107210000Y-45750000D03*
X104670000Y-45750000D03*
X102130000Y-45750000D03*
X99590000Y-45750000D03*
X97050000Y-45750000D03*
X94510000Y-45750000D03*
X91970000Y-45750000D03*
X89430000Y-45750000D03*
D13*
X136350000Y-50850000D03*
X137150000Y-50850000D03*
X135550000Y-50850000D03*
X137950000Y-50850000D03*
X135550000Y-49150000D03*
X136350000Y-49150000D03*
X137150000Y-49150000D03*
X137950000Y-49150000D03*
X110350000Y-50850000D03*
X111150000Y-50850000D03*
X109550000Y-50850000D03*
X111950000Y-50850000D03*
X109550000Y-49150000D03*
X110350000Y-49150000D03*
X111150000Y-49150000D03*
X111950000Y-49150000D03*
X126700000Y-49150000D03*
X125900000Y-49150000D03*
X125100000Y-49150000D03*
X124300000Y-49150000D03*
X126700000Y-50850000D03*
X124300000Y-50850000D03*
X125900000Y-50850000D03*
X125100000Y-50850000D03*
D14*
X103934315Y-55815685D03*
D15*
G36*
X103934315Y-55250000D02*
G01*
X104500000Y-55815685D01*
X103934315Y-56381370D01*
X103368630Y-55815685D01*
X103934315Y-55250000D01*
X103934315Y-55250000D01*
G37*
D14*
X105065685Y-54684315D03*
D15*
G36*
X105065685Y-54118630D02*
G01*
X105631370Y-54684315D01*
X105065685Y-55250000D01*
X104500000Y-54684315D01*
X105065685Y-54118630D01*
X105065685Y-54118630D01*
G37*
D14*
X108865685Y-54684315D03*
D15*
G36*
X108865685Y-54118630D02*
G01*
X109431370Y-54684315D01*
X108865685Y-55250000D01*
X108300000Y-54684315D01*
X108865685Y-54118630D01*
X108865685Y-54118630D01*
G37*
D14*
X107734315Y-55815685D03*
D15*
G36*
X107734315Y-55250000D02*
G01*
X108300000Y-55815685D01*
X107734315Y-56381370D01*
X107168630Y-55815685D01*
X107734315Y-55250000D01*
X107734315Y-55250000D01*
G37*
D14*
X111484315Y-55815685D03*
D15*
G36*
X111484315Y-55250000D02*
G01*
X112050000Y-55815685D01*
X111484315Y-56381370D01*
X110918630Y-55815685D01*
X111484315Y-55250000D01*
X111484315Y-55250000D01*
G37*
D14*
X112615685Y-54684315D03*
D15*
G36*
X112615685Y-54118630D02*
G01*
X113181370Y-54684315D01*
X112615685Y-55250000D01*
X112050000Y-54684315D01*
X112615685Y-54118630D01*
X112615685Y-54118630D01*
G37*
D14*
X115234315Y-55815685D03*
D15*
G36*
X115234315Y-55250000D02*
G01*
X115800000Y-55815685D01*
X115234315Y-56381370D01*
X114668630Y-55815685D01*
X115234315Y-55250000D01*
X115234315Y-55250000D01*
G37*
D14*
X116365685Y-54684315D03*
D15*
G36*
X116365685Y-54118630D02*
G01*
X116931370Y-54684315D01*
X116365685Y-55250000D01*
X115800000Y-54684315D01*
X116365685Y-54118630D01*
X116365685Y-54118630D01*
G37*
D14*
X118984315Y-55815685D03*
D15*
G36*
X118984315Y-55250000D02*
G01*
X119550000Y-55815685D01*
X118984315Y-56381370D01*
X118418630Y-55815685D01*
X118984315Y-55250000D01*
X118984315Y-55250000D01*
G37*
D14*
X120115685Y-54684315D03*
D15*
G36*
X120115685Y-54118630D02*
G01*
X120681370Y-54684315D01*
X120115685Y-55250000D01*
X119550000Y-54684315D01*
X120115685Y-54118630D01*
X120115685Y-54118630D01*
G37*
D14*
X122634315Y-55815685D03*
D15*
G36*
X122634315Y-55250000D02*
G01*
X123200000Y-55815685D01*
X122634315Y-56381370D01*
X122068630Y-55815685D01*
X122634315Y-55250000D01*
X122634315Y-55250000D01*
G37*
D14*
X123765685Y-54684315D03*
D15*
G36*
X123765685Y-54118630D02*
G01*
X124331370Y-54684315D01*
X123765685Y-55250000D01*
X123200000Y-54684315D01*
X123765685Y-54118630D01*
X123765685Y-54118630D01*
G37*
D14*
X126384315Y-55815685D03*
D15*
G36*
X126384315Y-55250000D02*
G01*
X126950000Y-55815685D01*
X126384315Y-56381370D01*
X125818630Y-55815685D01*
X126384315Y-55250000D01*
X126384315Y-55250000D01*
G37*
D14*
X127515685Y-54684315D03*
D15*
G36*
X127515685Y-54118630D02*
G01*
X128081370Y-54684315D01*
X127515685Y-55250000D01*
X126950000Y-54684315D01*
X127515685Y-54118630D01*
X127515685Y-54118630D01*
G37*
D14*
X130134315Y-55815685D03*
D15*
G36*
X130134315Y-55250000D02*
G01*
X130700000Y-55815685D01*
X130134315Y-56381370D01*
X129568630Y-55815685D01*
X130134315Y-55250000D01*
X130134315Y-55250000D01*
G37*
D14*
X131265685Y-54684315D03*
D15*
G36*
X131265685Y-54118630D02*
G01*
X131831370Y-54684315D01*
X131265685Y-55250000D01*
X130700000Y-54684315D01*
X131265685Y-54118630D01*
X131265685Y-54118630D01*
G37*
D14*
X133934315Y-55815685D03*
D15*
G36*
X133934315Y-55250000D02*
G01*
X134500000Y-55815685D01*
X133934315Y-56381370D01*
X133368630Y-55815685D01*
X133934315Y-55250000D01*
X133934315Y-55250000D01*
G37*
D14*
X135065685Y-54684315D03*
D15*
G36*
X135065685Y-54118630D02*
G01*
X135631370Y-54684315D01*
X135065685Y-55250000D01*
X134500000Y-54684315D01*
X135065685Y-54118630D01*
X135065685Y-54118630D01*
G37*
D14*
X137684315Y-55815685D03*
D15*
G36*
X137684315Y-55250000D02*
G01*
X138250000Y-55815685D01*
X137684315Y-56381370D01*
X137118630Y-55815685D01*
X137684315Y-55250000D01*
X137684315Y-55250000D01*
G37*
D14*
X138815685Y-54684315D03*
D15*
G36*
X138815685Y-54118630D02*
G01*
X139381370Y-54684315D01*
X138815685Y-55250000D01*
X138250000Y-54684315D01*
X138815685Y-54118630D01*
X138815685Y-54118630D01*
G37*
D14*
X105065685Y-57684315D03*
D15*
G36*
X105065685Y-57118630D02*
G01*
X105631370Y-57684315D01*
X105065685Y-58250000D01*
X104500000Y-57684315D01*
X105065685Y-57118630D01*
X105065685Y-57118630D01*
G37*
D14*
X103934315Y-58815685D03*
D15*
G36*
X103934315Y-58250000D02*
G01*
X104500000Y-58815685D01*
X103934315Y-59381370D01*
X103368630Y-58815685D01*
X103934315Y-58250000D01*
X103934315Y-58250000D01*
G37*
D14*
X108815685Y-57684315D03*
D15*
G36*
X108815685Y-57118630D02*
G01*
X109381370Y-57684315D01*
X108815685Y-58250000D01*
X108250000Y-57684315D01*
X108815685Y-57118630D01*
X108815685Y-57118630D01*
G37*
D14*
X107684315Y-58815685D03*
D15*
G36*
X107684315Y-58250000D02*
G01*
X108250000Y-58815685D01*
X107684315Y-59381370D01*
X107118630Y-58815685D01*
X107684315Y-58250000D01*
X107684315Y-58250000D01*
G37*
D14*
X112565685Y-57684315D03*
D15*
G36*
X112565685Y-57118630D02*
G01*
X113131370Y-57684315D01*
X112565685Y-58250000D01*
X112000000Y-57684315D01*
X112565685Y-57118630D01*
X112565685Y-57118630D01*
G37*
D14*
X111434315Y-58815685D03*
D15*
G36*
X111434315Y-58250000D02*
G01*
X112000000Y-58815685D01*
X111434315Y-59381370D01*
X110868630Y-58815685D01*
X111434315Y-58250000D01*
X111434315Y-58250000D01*
G37*
D14*
X116315685Y-57684315D03*
D15*
G36*
X116315685Y-57118630D02*
G01*
X116881370Y-57684315D01*
X116315685Y-58250000D01*
X115750000Y-57684315D01*
X116315685Y-57118630D01*
X116315685Y-57118630D01*
G37*
D14*
X115184315Y-58815685D03*
D15*
G36*
X115184315Y-58250000D02*
G01*
X115750000Y-58815685D01*
X115184315Y-59381370D01*
X114618630Y-58815685D01*
X115184315Y-58250000D01*
X115184315Y-58250000D01*
G37*
D14*
X120065685Y-57684315D03*
D15*
G36*
X120065685Y-57118630D02*
G01*
X120631370Y-57684315D01*
X120065685Y-58250000D01*
X119500000Y-57684315D01*
X120065685Y-57118630D01*
X120065685Y-57118630D01*
G37*
D14*
X118934315Y-58815685D03*
D15*
G36*
X118934315Y-58250000D02*
G01*
X119500000Y-58815685D01*
X118934315Y-59381370D01*
X118368630Y-58815685D01*
X118934315Y-58250000D01*
X118934315Y-58250000D01*
G37*
D14*
X123765685Y-57684315D03*
D15*
G36*
X123765685Y-57118630D02*
G01*
X124331370Y-57684315D01*
X123765685Y-58250000D01*
X123200000Y-57684315D01*
X123765685Y-57118630D01*
X123765685Y-57118630D01*
G37*
D14*
X122634315Y-58815685D03*
D15*
G36*
X122634315Y-58250000D02*
G01*
X123200000Y-58815685D01*
X122634315Y-59381370D01*
X122068630Y-58815685D01*
X122634315Y-58250000D01*
X122634315Y-58250000D01*
G37*
D14*
X127565685Y-57684315D03*
D15*
G36*
X127565685Y-57118630D02*
G01*
X128131370Y-57684315D01*
X127565685Y-58250000D01*
X127000000Y-57684315D01*
X127565685Y-57118630D01*
X127565685Y-57118630D01*
G37*
D14*
X126434315Y-58815685D03*
D15*
G36*
X126434315Y-58250000D02*
G01*
X127000000Y-58815685D01*
X126434315Y-59381370D01*
X125868630Y-58815685D01*
X126434315Y-58250000D01*
X126434315Y-58250000D01*
G37*
D14*
X131315685Y-57684315D03*
D15*
G36*
X131315685Y-57118630D02*
G01*
X131881370Y-57684315D01*
X131315685Y-58250000D01*
X130750000Y-57684315D01*
X131315685Y-57118630D01*
X131315685Y-57118630D01*
G37*
D14*
X130184315Y-58815685D03*
D15*
G36*
X130184315Y-58250000D02*
G01*
X130750000Y-58815685D01*
X130184315Y-59381370D01*
X129618630Y-58815685D01*
X130184315Y-58250000D01*
X130184315Y-58250000D01*
G37*
D14*
X135015685Y-57684315D03*
D15*
G36*
X135015685Y-57118630D02*
G01*
X135581370Y-57684315D01*
X135015685Y-58250000D01*
X134450000Y-57684315D01*
X135015685Y-57118630D01*
X135015685Y-57118630D01*
G37*
D14*
X133884315Y-58815685D03*
D15*
G36*
X133884315Y-58250000D02*
G01*
X134450000Y-58815685D01*
X133884315Y-59381370D01*
X133318630Y-58815685D01*
X133884315Y-58250000D01*
X133884315Y-58250000D01*
G37*
D14*
X138765685Y-57684315D03*
D15*
G36*
X138765685Y-57118630D02*
G01*
X139331370Y-57684315D01*
X138765685Y-58250000D01*
X138200000Y-57684315D01*
X138765685Y-57118630D01*
X138765685Y-57118630D01*
G37*
D14*
X137634315Y-58815685D03*
D15*
G36*
X137634315Y-58250000D02*
G01*
X138200000Y-58815685D01*
X137634315Y-59381370D01*
X137068630Y-58815685D01*
X137634315Y-58250000D01*
X137634315Y-58250000D01*
G37*
D14*
X105065685Y-60684315D03*
D15*
G36*
X105065685Y-60118630D02*
G01*
X105631370Y-60684315D01*
X105065685Y-61250000D01*
X104500000Y-60684315D01*
X105065685Y-60118630D01*
X105065685Y-60118630D01*
G37*
D14*
X103934315Y-61815685D03*
D15*
G36*
X103934315Y-61250000D02*
G01*
X104500000Y-61815685D01*
X103934315Y-62381370D01*
X103368630Y-61815685D01*
X103934315Y-61250000D01*
X103934315Y-61250000D01*
G37*
D14*
X107684315Y-61815685D03*
D15*
G36*
X107684315Y-61250000D02*
G01*
X108250000Y-61815685D01*
X107684315Y-62381370D01*
X107118630Y-61815685D01*
X107684315Y-61250000D01*
X107684315Y-61250000D01*
G37*
D14*
X108815685Y-60684315D03*
D15*
G36*
X108815685Y-60118630D02*
G01*
X109381370Y-60684315D01*
X108815685Y-61250000D01*
X108250000Y-60684315D01*
X108815685Y-60118630D01*
X108815685Y-60118630D01*
G37*
D14*
X111434315Y-61815685D03*
D15*
G36*
X111434315Y-61250000D02*
G01*
X112000000Y-61815685D01*
X111434315Y-62381370D01*
X110868630Y-61815685D01*
X111434315Y-61250000D01*
X111434315Y-61250000D01*
G37*
D14*
X112565685Y-60684315D03*
D15*
G36*
X112565685Y-60118630D02*
G01*
X113131370Y-60684315D01*
X112565685Y-61250000D01*
X112000000Y-60684315D01*
X112565685Y-60118630D01*
X112565685Y-60118630D01*
G37*
D14*
X115234315Y-61815685D03*
D15*
G36*
X115234315Y-61250000D02*
G01*
X115800000Y-61815685D01*
X115234315Y-62381370D01*
X114668630Y-61815685D01*
X115234315Y-61250000D01*
X115234315Y-61250000D01*
G37*
D14*
X116365685Y-60684315D03*
D15*
G36*
X116365685Y-60118630D02*
G01*
X116931370Y-60684315D01*
X116365685Y-61250000D01*
X115800000Y-60684315D01*
X116365685Y-60118630D01*
X116365685Y-60118630D01*
G37*
D14*
X120065685Y-60684315D03*
D15*
G36*
X120065685Y-60118630D02*
G01*
X120631370Y-60684315D01*
X120065685Y-61250000D01*
X119500000Y-60684315D01*
X120065685Y-60118630D01*
X120065685Y-60118630D01*
G37*
D14*
X118934315Y-61815685D03*
D15*
G36*
X118934315Y-61250000D02*
G01*
X119500000Y-61815685D01*
X118934315Y-62381370D01*
X118368630Y-61815685D01*
X118934315Y-61250000D01*
X118934315Y-61250000D01*
G37*
D14*
X122684315Y-61815685D03*
D15*
G36*
X122684315Y-61250000D02*
G01*
X123250000Y-61815685D01*
X122684315Y-62381370D01*
X122118630Y-61815685D01*
X122684315Y-61250000D01*
X122684315Y-61250000D01*
G37*
D14*
X123815685Y-60684315D03*
D15*
G36*
X123815685Y-60118630D02*
G01*
X124381370Y-60684315D01*
X123815685Y-61250000D01*
X123250000Y-60684315D01*
X123815685Y-60118630D01*
X123815685Y-60118630D01*
G37*
D14*
X126434315Y-61815685D03*
D15*
G36*
X126434315Y-61250000D02*
G01*
X127000000Y-61815685D01*
X126434315Y-62381370D01*
X125868630Y-61815685D01*
X126434315Y-61250000D01*
X126434315Y-61250000D01*
G37*
D14*
X127565685Y-60684315D03*
D15*
G36*
X127565685Y-60118630D02*
G01*
X128131370Y-60684315D01*
X127565685Y-61250000D01*
X127000000Y-60684315D01*
X127565685Y-60118630D01*
X127565685Y-60118630D01*
G37*
D14*
X130134315Y-61815685D03*
D15*
G36*
X130134315Y-61250000D02*
G01*
X130700000Y-61815685D01*
X130134315Y-62381370D01*
X129568630Y-61815685D01*
X130134315Y-61250000D01*
X130134315Y-61250000D01*
G37*
D14*
X131265685Y-60684315D03*
D15*
G36*
X131265685Y-60118630D02*
G01*
X131831370Y-60684315D01*
X131265685Y-61250000D01*
X130700000Y-60684315D01*
X131265685Y-60118630D01*
X131265685Y-60118630D01*
G37*
D14*
X133884315Y-61815685D03*
D15*
G36*
X133884315Y-61250000D02*
G01*
X134450000Y-61815685D01*
X133884315Y-62381370D01*
X133318630Y-61815685D01*
X133884315Y-61250000D01*
X133884315Y-61250000D01*
G37*
D14*
X135015685Y-60684315D03*
D15*
G36*
X135015685Y-60118630D02*
G01*
X135581370Y-60684315D01*
X135015685Y-61250000D01*
X134450000Y-60684315D01*
X135015685Y-60118630D01*
X135015685Y-60118630D01*
G37*
D14*
X137659315Y-61815685D03*
D15*
G36*
X137659315Y-61250000D02*
G01*
X138225000Y-61815685D01*
X137659315Y-62381370D01*
X137093630Y-61815685D01*
X137659315Y-61250000D01*
X137659315Y-61250000D01*
G37*
D14*
X138790685Y-60684315D03*
D15*
G36*
X138790685Y-60118630D02*
G01*
X139356370Y-60684315D01*
X138790685Y-61250000D01*
X138225000Y-60684315D01*
X138790685Y-60118630D01*
X138790685Y-60118630D01*
G37*
D14*
X105015685Y-63684315D03*
D15*
G36*
X105015685Y-63118630D02*
G01*
X105581370Y-63684315D01*
X105015685Y-64250000D01*
X104450000Y-63684315D01*
X105015685Y-63118630D01*
X105015685Y-63118630D01*
G37*
D14*
X103884315Y-64815685D03*
D15*
G36*
X103884315Y-64250000D02*
G01*
X104450000Y-64815685D01*
X103884315Y-65381370D01*
X103318630Y-64815685D01*
X103884315Y-64250000D01*
X103884315Y-64250000D01*
G37*
D14*
X108865685Y-63684315D03*
D15*
G36*
X108865685Y-63118630D02*
G01*
X109431370Y-63684315D01*
X108865685Y-64250000D01*
X108300000Y-63684315D01*
X108865685Y-63118630D01*
X108865685Y-63118630D01*
G37*
D14*
X107734315Y-64815685D03*
D15*
G36*
X107734315Y-64250000D02*
G01*
X108300000Y-64815685D01*
X107734315Y-65381370D01*
X107168630Y-64815685D01*
X107734315Y-64250000D01*
X107734315Y-64250000D01*
G37*
D14*
X112565685Y-63684315D03*
D15*
G36*
X112565685Y-63118630D02*
G01*
X113131370Y-63684315D01*
X112565685Y-64250000D01*
X112000000Y-63684315D01*
X112565685Y-63118630D01*
X112565685Y-63118630D01*
G37*
D14*
X111434315Y-64815685D03*
D15*
G36*
X111434315Y-64250000D02*
G01*
X112000000Y-64815685D01*
X111434315Y-65381370D01*
X110868630Y-64815685D01*
X111434315Y-64250000D01*
X111434315Y-64250000D01*
G37*
D14*
X116315685Y-63684315D03*
D15*
G36*
X116315685Y-63118630D02*
G01*
X116881370Y-63684315D01*
X116315685Y-64250000D01*
X115750000Y-63684315D01*
X116315685Y-63118630D01*
X116315685Y-63118630D01*
G37*
D14*
X115184315Y-64815685D03*
D15*
G36*
X115184315Y-64250000D02*
G01*
X115750000Y-64815685D01*
X115184315Y-65381370D01*
X114618630Y-64815685D01*
X115184315Y-64250000D01*
X115184315Y-64250000D01*
G37*
D14*
X118934315Y-64815685D03*
D15*
G36*
X118934315Y-64250000D02*
G01*
X119500000Y-64815685D01*
X118934315Y-65381370D01*
X118368630Y-64815685D01*
X118934315Y-64250000D01*
X118934315Y-64250000D01*
G37*
D14*
X120065685Y-63684315D03*
D15*
G36*
X120065685Y-63118630D02*
G01*
X120631370Y-63684315D01*
X120065685Y-64250000D01*
X119500000Y-63684315D01*
X120065685Y-63118630D01*
X120065685Y-63118630D01*
G37*
D14*
X123815685Y-63684315D03*
D15*
G36*
X123815685Y-63118630D02*
G01*
X124381370Y-63684315D01*
X123815685Y-64250000D01*
X123250000Y-63684315D01*
X123815685Y-63118630D01*
X123815685Y-63118630D01*
G37*
D14*
X122684315Y-64815685D03*
D15*
G36*
X122684315Y-64250000D02*
G01*
X123250000Y-64815685D01*
X122684315Y-65381370D01*
X122118630Y-64815685D01*
X122684315Y-64250000D01*
X122684315Y-64250000D01*
G37*
D14*
X127565685Y-63684315D03*
D15*
G36*
X127565685Y-63118630D02*
G01*
X128131370Y-63684315D01*
X127565685Y-64250000D01*
X127000000Y-63684315D01*
X127565685Y-63118630D01*
X127565685Y-63118630D01*
G37*
D14*
X126434315Y-64815685D03*
D15*
G36*
X126434315Y-64250000D02*
G01*
X127000000Y-64815685D01*
X126434315Y-65381370D01*
X125868630Y-64815685D01*
X126434315Y-64250000D01*
X126434315Y-64250000D01*
G37*
D14*
X131365685Y-63684315D03*
D15*
G36*
X131365685Y-63118630D02*
G01*
X131931370Y-63684315D01*
X131365685Y-64250000D01*
X130800000Y-63684315D01*
X131365685Y-63118630D01*
X131365685Y-63118630D01*
G37*
D14*
X130234315Y-64815685D03*
D15*
G36*
X130234315Y-64250000D02*
G01*
X130800000Y-64815685D01*
X130234315Y-65381370D01*
X129668630Y-64815685D01*
X130234315Y-64250000D01*
X130234315Y-64250000D01*
G37*
D14*
X135065685Y-63684315D03*
D15*
G36*
X135065685Y-63118630D02*
G01*
X135631370Y-63684315D01*
X135065685Y-64250000D01*
X134500000Y-63684315D01*
X135065685Y-63118630D01*
X135065685Y-63118630D01*
G37*
D14*
X133934315Y-64815685D03*
D15*
G36*
X133934315Y-64250000D02*
G01*
X134500000Y-64815685D01*
X133934315Y-65381370D01*
X133368630Y-64815685D01*
X133934315Y-64250000D01*
X133934315Y-64250000D01*
G37*
D14*
X138815685Y-63684315D03*
D15*
G36*
X138815685Y-63118630D02*
G01*
X139381370Y-63684315D01*
X138815685Y-64250000D01*
X138250000Y-63684315D01*
X138815685Y-63118630D01*
X138815685Y-63118630D01*
G37*
D14*
X137684315Y-64815685D03*
D15*
G36*
X137684315Y-64250000D02*
G01*
X138250000Y-64815685D01*
X137684315Y-65381370D01*
X137118630Y-64815685D01*
X137684315Y-64250000D01*
X137684315Y-64250000D01*
G37*
D14*
X103934315Y-67815685D03*
D15*
G36*
X103934315Y-67250000D02*
G01*
X104500000Y-67815685D01*
X103934315Y-68381370D01*
X103368630Y-67815685D01*
X103934315Y-67250000D01*
X103934315Y-67250000D01*
G37*
D14*
X105065685Y-66684315D03*
D15*
G36*
X105065685Y-66118630D02*
G01*
X105631370Y-66684315D01*
X105065685Y-67250000D01*
X104500000Y-66684315D01*
X105065685Y-66118630D01*
X105065685Y-66118630D01*
G37*
D14*
X107684315Y-67815685D03*
D15*
G36*
X107684315Y-67250000D02*
G01*
X108250000Y-67815685D01*
X107684315Y-68381370D01*
X107118630Y-67815685D01*
X107684315Y-67250000D01*
X107684315Y-67250000D01*
G37*
D14*
X108815685Y-66684315D03*
D15*
G36*
X108815685Y-66118630D02*
G01*
X109381370Y-66684315D01*
X108815685Y-67250000D01*
X108250000Y-66684315D01*
X108815685Y-66118630D01*
X108815685Y-66118630D01*
G37*
D14*
X111484315Y-67815685D03*
D15*
G36*
X111484315Y-67250000D02*
G01*
X112050000Y-67815685D01*
X111484315Y-68381370D01*
X110918630Y-67815685D01*
X111484315Y-67250000D01*
X111484315Y-67250000D01*
G37*
D14*
X112615685Y-66684315D03*
D15*
G36*
X112615685Y-66118630D02*
G01*
X113181370Y-66684315D01*
X112615685Y-67250000D01*
X112050000Y-66684315D01*
X112615685Y-66118630D01*
X112615685Y-66118630D01*
G37*
D14*
X115234315Y-67815685D03*
D15*
G36*
X115234315Y-67250000D02*
G01*
X115800000Y-67815685D01*
X115234315Y-68381370D01*
X114668630Y-67815685D01*
X115234315Y-67250000D01*
X115234315Y-67250000D01*
G37*
D14*
X116365685Y-66684315D03*
D15*
G36*
X116365685Y-66118630D02*
G01*
X116931370Y-66684315D01*
X116365685Y-67250000D01*
X115800000Y-66684315D01*
X116365685Y-66118630D01*
X116365685Y-66118630D01*
G37*
D14*
X118984315Y-67815685D03*
D15*
G36*
X118984315Y-67250000D02*
G01*
X119550000Y-67815685D01*
X118984315Y-68381370D01*
X118418630Y-67815685D01*
X118984315Y-67250000D01*
X118984315Y-67250000D01*
G37*
D14*
X120115685Y-66684315D03*
D15*
G36*
X120115685Y-66118630D02*
G01*
X120681370Y-66684315D01*
X120115685Y-67250000D01*
X119550000Y-66684315D01*
X120115685Y-66118630D01*
X120115685Y-66118630D01*
G37*
D14*
X122684315Y-67815685D03*
D15*
G36*
X122684315Y-67250000D02*
G01*
X123250000Y-67815685D01*
X122684315Y-68381370D01*
X122118630Y-67815685D01*
X122684315Y-67250000D01*
X122684315Y-67250000D01*
G37*
D14*
X123815685Y-66684315D03*
D15*
G36*
X123815685Y-66118630D02*
G01*
X124381370Y-66684315D01*
X123815685Y-67250000D01*
X123250000Y-66684315D01*
X123815685Y-66118630D01*
X123815685Y-66118630D01*
G37*
D14*
X127565685Y-66684315D03*
D15*
G36*
X127565685Y-66118630D02*
G01*
X128131370Y-66684315D01*
X127565685Y-67250000D01*
X127000000Y-66684315D01*
X127565685Y-66118630D01*
X127565685Y-66118630D01*
G37*
D14*
X126434315Y-67815685D03*
D15*
G36*
X126434315Y-67250000D02*
G01*
X127000000Y-67815685D01*
X126434315Y-68381370D01*
X125868630Y-67815685D01*
X126434315Y-67250000D01*
X126434315Y-67250000D01*
G37*
D14*
X130184315Y-67815685D03*
D15*
G36*
X130184315Y-67250000D02*
G01*
X130750000Y-67815685D01*
X130184315Y-68381370D01*
X129618630Y-67815685D01*
X130184315Y-67250000D01*
X130184315Y-67250000D01*
G37*
D14*
X131315685Y-66684315D03*
D15*
G36*
X131315685Y-66118630D02*
G01*
X131881370Y-66684315D01*
X131315685Y-67250000D01*
X130750000Y-66684315D01*
X131315685Y-66118630D01*
X131315685Y-66118630D01*
G37*
D14*
X133934315Y-67815685D03*
D15*
G36*
X133934315Y-67250000D02*
G01*
X134500000Y-67815685D01*
X133934315Y-68381370D01*
X133368630Y-67815685D01*
X133934315Y-67250000D01*
X133934315Y-67250000D01*
G37*
D14*
X135065685Y-66684315D03*
D15*
G36*
X135065685Y-66118630D02*
G01*
X135631370Y-66684315D01*
X135065685Y-67250000D01*
X134500000Y-66684315D01*
X135065685Y-66118630D01*
X135065685Y-66118630D01*
G37*
D14*
X137684315Y-67815685D03*
D15*
G36*
X137684315Y-67250000D02*
G01*
X138250000Y-67815685D01*
X137684315Y-68381370D01*
X137118630Y-67815685D01*
X137684315Y-67250000D01*
X137684315Y-67250000D01*
G37*
D14*
X138815685Y-66684315D03*
D15*
G36*
X138815685Y-66118630D02*
G01*
X139381370Y-66684315D01*
X138815685Y-67250000D01*
X138250000Y-66684315D01*
X138815685Y-66118630D01*
X138815685Y-66118630D01*
G37*
D14*
X105065685Y-69684315D03*
D15*
G36*
X105065685Y-69118630D02*
G01*
X105631370Y-69684315D01*
X105065685Y-70250000D01*
X104500000Y-69684315D01*
X105065685Y-69118630D01*
X105065685Y-69118630D01*
G37*
D14*
X103934315Y-70815685D03*
D15*
G36*
X103934315Y-70250000D02*
G01*
X104500000Y-70815685D01*
X103934315Y-71381370D01*
X103368630Y-70815685D01*
X103934315Y-70250000D01*
X103934315Y-70250000D01*
G37*
D14*
X108815685Y-69684315D03*
D15*
G36*
X108815685Y-69118630D02*
G01*
X109381370Y-69684315D01*
X108815685Y-70250000D01*
X108250000Y-69684315D01*
X108815685Y-69118630D01*
X108815685Y-69118630D01*
G37*
D14*
X107684315Y-70815685D03*
D15*
G36*
X107684315Y-70250000D02*
G01*
X108250000Y-70815685D01*
X107684315Y-71381370D01*
X107118630Y-70815685D01*
X107684315Y-70250000D01*
X107684315Y-70250000D01*
G37*
D14*
X112565685Y-69684315D03*
D15*
G36*
X112565685Y-69118630D02*
G01*
X113131370Y-69684315D01*
X112565685Y-70250000D01*
X112000000Y-69684315D01*
X112565685Y-69118630D01*
X112565685Y-69118630D01*
G37*
D14*
X111434315Y-70815685D03*
D15*
G36*
X111434315Y-70250000D02*
G01*
X112000000Y-70815685D01*
X111434315Y-71381370D01*
X110868630Y-70815685D01*
X111434315Y-70250000D01*
X111434315Y-70250000D01*
G37*
D14*
X115184315Y-70815685D03*
D15*
G36*
X115184315Y-70250000D02*
G01*
X115750000Y-70815685D01*
X115184315Y-71381370D01*
X114618630Y-70815685D01*
X115184315Y-70250000D01*
X115184315Y-70250000D01*
G37*
D14*
X116315685Y-69684315D03*
D15*
G36*
X116315685Y-69118630D02*
G01*
X116881370Y-69684315D01*
X116315685Y-70250000D01*
X115750000Y-69684315D01*
X116315685Y-69118630D01*
X116315685Y-69118630D01*
G37*
D14*
X120065685Y-69684315D03*
D15*
G36*
X120065685Y-69118630D02*
G01*
X120631370Y-69684315D01*
X120065685Y-70250000D01*
X119500000Y-69684315D01*
X120065685Y-69118630D01*
X120065685Y-69118630D01*
G37*
D14*
X118934315Y-70815685D03*
D15*
G36*
X118934315Y-70250000D02*
G01*
X119500000Y-70815685D01*
X118934315Y-71381370D01*
X118368630Y-70815685D01*
X118934315Y-70250000D01*
X118934315Y-70250000D01*
G37*
D14*
X123815685Y-69684315D03*
D15*
G36*
X123815685Y-69118630D02*
G01*
X124381370Y-69684315D01*
X123815685Y-70250000D01*
X123250000Y-69684315D01*
X123815685Y-69118630D01*
X123815685Y-69118630D01*
G37*
D14*
X122684315Y-70815685D03*
D15*
G36*
X122684315Y-70250000D02*
G01*
X123250000Y-70815685D01*
X122684315Y-71381370D01*
X122118630Y-70815685D01*
X122684315Y-70250000D01*
X122684315Y-70250000D01*
G37*
D14*
X126434315Y-70815685D03*
D15*
G36*
X126434315Y-70250000D02*
G01*
X127000000Y-70815685D01*
X126434315Y-71381370D01*
X125868630Y-70815685D01*
X126434315Y-70250000D01*
X126434315Y-70250000D01*
G37*
D14*
X127565685Y-69684315D03*
D15*
G36*
X127565685Y-69118630D02*
G01*
X128131370Y-69684315D01*
X127565685Y-70250000D01*
X127000000Y-69684315D01*
X127565685Y-69118630D01*
X127565685Y-69118630D01*
G37*
D14*
X131315685Y-69684315D03*
D15*
G36*
X131315685Y-69118630D02*
G01*
X131881370Y-69684315D01*
X131315685Y-70250000D01*
X130750000Y-69684315D01*
X131315685Y-69118630D01*
X131315685Y-69118630D01*
G37*
D14*
X130184315Y-70815685D03*
D15*
G36*
X130184315Y-70250000D02*
G01*
X130750000Y-70815685D01*
X130184315Y-71381370D01*
X129618630Y-70815685D01*
X130184315Y-70250000D01*
X130184315Y-70250000D01*
G37*
D14*
X135065685Y-69684315D03*
D15*
G36*
X135065685Y-69118630D02*
G01*
X135631370Y-69684315D01*
X135065685Y-70250000D01*
X134500000Y-69684315D01*
X135065685Y-69118630D01*
X135065685Y-69118630D01*
G37*
D14*
X133934315Y-70815685D03*
D15*
G36*
X133934315Y-70250000D02*
G01*
X134500000Y-70815685D01*
X133934315Y-71381370D01*
X133368630Y-70815685D01*
X133934315Y-70250000D01*
X133934315Y-70250000D01*
G37*
D14*
X138815685Y-69684315D03*
D15*
G36*
X138815685Y-69118630D02*
G01*
X139381370Y-69684315D01*
X138815685Y-70250000D01*
X138250000Y-69684315D01*
X138815685Y-69118630D01*
X138815685Y-69118630D01*
G37*
D14*
X137684315Y-70815685D03*
D15*
G36*
X137684315Y-70250000D02*
G01*
X138250000Y-70815685D01*
X137684315Y-71381370D01*
X137118630Y-70815685D01*
X137684315Y-70250000D01*
X137684315Y-70250000D01*
G37*
D14*
X103934315Y-73815685D03*
D15*
G36*
X103934315Y-73250000D02*
G01*
X104500000Y-73815685D01*
X103934315Y-74381370D01*
X103368630Y-73815685D01*
X103934315Y-73250000D01*
X103934315Y-73250000D01*
G37*
D14*
X105065685Y-72684315D03*
D15*
G36*
X105065685Y-72118630D02*
G01*
X105631370Y-72684315D01*
X105065685Y-73250000D01*
X104500000Y-72684315D01*
X105065685Y-72118630D01*
X105065685Y-72118630D01*
G37*
D14*
X107684315Y-73815685D03*
D15*
G36*
X107684315Y-73250000D02*
G01*
X108250000Y-73815685D01*
X107684315Y-74381370D01*
X107118630Y-73815685D01*
X107684315Y-73250000D01*
X107684315Y-73250000D01*
G37*
D14*
X108815685Y-72684315D03*
D15*
G36*
X108815685Y-72118630D02*
G01*
X109381370Y-72684315D01*
X108815685Y-73250000D01*
X108250000Y-72684315D01*
X108815685Y-72118630D01*
X108815685Y-72118630D01*
G37*
D14*
X111434315Y-73815685D03*
D15*
G36*
X111434315Y-73250000D02*
G01*
X112000000Y-73815685D01*
X111434315Y-74381370D01*
X110868630Y-73815685D01*
X111434315Y-73250000D01*
X111434315Y-73250000D01*
G37*
D14*
X112565685Y-72684315D03*
D15*
G36*
X112565685Y-72118630D02*
G01*
X113131370Y-72684315D01*
X112565685Y-73250000D01*
X112000000Y-72684315D01*
X112565685Y-72118630D01*
X112565685Y-72118630D01*
G37*
D14*
X115184315Y-73815685D03*
D15*
G36*
X115184315Y-73250000D02*
G01*
X115750000Y-73815685D01*
X115184315Y-74381370D01*
X114618630Y-73815685D01*
X115184315Y-73250000D01*
X115184315Y-73250000D01*
G37*
D14*
X116315685Y-72684315D03*
D15*
G36*
X116315685Y-72118630D02*
G01*
X116881370Y-72684315D01*
X116315685Y-73250000D01*
X115750000Y-72684315D01*
X116315685Y-72118630D01*
X116315685Y-72118630D01*
G37*
D14*
X118934315Y-73815685D03*
D15*
G36*
X118934315Y-73250000D02*
G01*
X119500000Y-73815685D01*
X118934315Y-74381370D01*
X118368630Y-73815685D01*
X118934315Y-73250000D01*
X118934315Y-73250000D01*
G37*
D14*
X120065685Y-72684315D03*
D15*
G36*
X120065685Y-72118630D02*
G01*
X120631370Y-72684315D01*
X120065685Y-73250000D01*
X119500000Y-72684315D01*
X120065685Y-72118630D01*
X120065685Y-72118630D01*
G37*
D14*
X122684315Y-73815685D03*
D15*
G36*
X122684315Y-73250000D02*
G01*
X123250000Y-73815685D01*
X122684315Y-74381370D01*
X122118630Y-73815685D01*
X122684315Y-73250000D01*
X122684315Y-73250000D01*
G37*
D14*
X123815685Y-72684315D03*
D15*
G36*
X123815685Y-72118630D02*
G01*
X124381370Y-72684315D01*
X123815685Y-73250000D01*
X123250000Y-72684315D01*
X123815685Y-72118630D01*
X123815685Y-72118630D01*
G37*
D14*
X126434315Y-73815685D03*
D15*
G36*
X126434315Y-73250000D02*
G01*
X127000000Y-73815685D01*
X126434315Y-74381370D01*
X125868630Y-73815685D01*
X126434315Y-73250000D01*
X126434315Y-73250000D01*
G37*
D14*
X127565685Y-72684315D03*
D15*
G36*
X127565685Y-72118630D02*
G01*
X128131370Y-72684315D01*
X127565685Y-73250000D01*
X127000000Y-72684315D01*
X127565685Y-72118630D01*
X127565685Y-72118630D01*
G37*
D14*
X130184315Y-73815685D03*
D15*
G36*
X130184315Y-73250000D02*
G01*
X130750000Y-73815685D01*
X130184315Y-74381370D01*
X129618630Y-73815685D01*
X130184315Y-73250000D01*
X130184315Y-73250000D01*
G37*
D14*
X131315685Y-72684315D03*
D15*
G36*
X131315685Y-72118630D02*
G01*
X131881370Y-72684315D01*
X131315685Y-73250000D01*
X130750000Y-72684315D01*
X131315685Y-72118630D01*
X131315685Y-72118630D01*
G37*
D14*
X133934315Y-73815685D03*
D15*
G36*
X133934315Y-73250000D02*
G01*
X134500000Y-73815685D01*
X133934315Y-74381370D01*
X133368630Y-73815685D01*
X133934315Y-73250000D01*
X133934315Y-73250000D01*
G37*
D14*
X135065685Y-72684315D03*
D15*
G36*
X135065685Y-72118630D02*
G01*
X135631370Y-72684315D01*
X135065685Y-73250000D01*
X134500000Y-72684315D01*
X135065685Y-72118630D01*
X135065685Y-72118630D01*
G37*
D14*
X137684315Y-73815685D03*
D15*
G36*
X137684315Y-73250000D02*
G01*
X138250000Y-73815685D01*
X137684315Y-74381370D01*
X137118630Y-73815685D01*
X137684315Y-73250000D01*
X137684315Y-73250000D01*
G37*
D14*
X138815685Y-72684315D03*
D15*
G36*
X138815685Y-72118630D02*
G01*
X139381370Y-72684315D01*
X138815685Y-73250000D01*
X138250000Y-72684315D01*
X138815685Y-72118630D01*
X138815685Y-72118630D01*
G37*
D14*
X105065685Y-75684315D03*
D15*
G36*
X105065685Y-75118630D02*
G01*
X105631370Y-75684315D01*
X105065685Y-76250000D01*
X104500000Y-75684315D01*
X105065685Y-75118630D01*
X105065685Y-75118630D01*
G37*
D14*
X103934315Y-76815685D03*
D15*
G36*
X103934315Y-76250000D02*
G01*
X104500000Y-76815685D01*
X103934315Y-77381370D01*
X103368630Y-76815685D01*
X103934315Y-76250000D01*
X103934315Y-76250000D01*
G37*
D14*
X108815685Y-75684315D03*
D15*
G36*
X108815685Y-75118630D02*
G01*
X109381370Y-75684315D01*
X108815685Y-76250000D01*
X108250000Y-75684315D01*
X108815685Y-75118630D01*
X108815685Y-75118630D01*
G37*
D14*
X107684315Y-76815685D03*
D15*
G36*
X107684315Y-76250000D02*
G01*
X108250000Y-76815685D01*
X107684315Y-77381370D01*
X107118630Y-76815685D01*
X107684315Y-76250000D01*
X107684315Y-76250000D01*
G37*
D14*
X111434315Y-76815685D03*
D15*
G36*
X111434315Y-76250000D02*
G01*
X112000000Y-76815685D01*
X111434315Y-77381370D01*
X110868630Y-76815685D01*
X111434315Y-76250000D01*
X111434315Y-76250000D01*
G37*
D14*
X112565685Y-75684315D03*
D15*
G36*
X112565685Y-75118630D02*
G01*
X113131370Y-75684315D01*
X112565685Y-76250000D01*
X112000000Y-75684315D01*
X112565685Y-75118630D01*
X112565685Y-75118630D01*
G37*
D14*
X116315685Y-75684315D03*
D15*
G36*
X116315685Y-75118630D02*
G01*
X116881370Y-75684315D01*
X116315685Y-76250000D01*
X115750000Y-75684315D01*
X116315685Y-75118630D01*
X116315685Y-75118630D01*
G37*
D14*
X115184315Y-76815685D03*
D15*
G36*
X115184315Y-76250000D02*
G01*
X115750000Y-76815685D01*
X115184315Y-77381370D01*
X114618630Y-76815685D01*
X115184315Y-76250000D01*
X115184315Y-76250000D01*
G37*
D14*
X120065685Y-75684315D03*
D15*
G36*
X120065685Y-75118630D02*
G01*
X120631370Y-75684315D01*
X120065685Y-76250000D01*
X119500000Y-75684315D01*
X120065685Y-75118630D01*
X120065685Y-75118630D01*
G37*
D14*
X118934315Y-76815685D03*
D15*
G36*
X118934315Y-76250000D02*
G01*
X119500000Y-76815685D01*
X118934315Y-77381370D01*
X118368630Y-76815685D01*
X118934315Y-76250000D01*
X118934315Y-76250000D01*
G37*
D14*
X123815685Y-75684315D03*
D15*
G36*
X123815685Y-75118630D02*
G01*
X124381370Y-75684315D01*
X123815685Y-76250000D01*
X123250000Y-75684315D01*
X123815685Y-75118630D01*
X123815685Y-75118630D01*
G37*
D14*
X122684315Y-76815685D03*
D15*
G36*
X122684315Y-76250000D02*
G01*
X123250000Y-76815685D01*
X122684315Y-77381370D01*
X122118630Y-76815685D01*
X122684315Y-76250000D01*
X122684315Y-76250000D01*
G37*
D14*
X127565685Y-75684315D03*
D15*
G36*
X127565685Y-75118630D02*
G01*
X128131370Y-75684315D01*
X127565685Y-76250000D01*
X127000000Y-75684315D01*
X127565685Y-75118630D01*
X127565685Y-75118630D01*
G37*
D14*
X126434315Y-76815685D03*
D15*
G36*
X126434315Y-76250000D02*
G01*
X127000000Y-76815685D01*
X126434315Y-77381370D01*
X125868630Y-76815685D01*
X126434315Y-76250000D01*
X126434315Y-76250000D01*
G37*
D14*
X131315685Y-75684315D03*
D15*
G36*
X131315685Y-75118630D02*
G01*
X131881370Y-75684315D01*
X131315685Y-76250000D01*
X130750000Y-75684315D01*
X131315685Y-75118630D01*
X131315685Y-75118630D01*
G37*
D14*
X130184315Y-76815685D03*
D15*
G36*
X130184315Y-76250000D02*
G01*
X130750000Y-76815685D01*
X130184315Y-77381370D01*
X129618630Y-76815685D01*
X130184315Y-76250000D01*
X130184315Y-76250000D01*
G37*
D14*
X135065685Y-75684315D03*
D15*
G36*
X135065685Y-75118630D02*
G01*
X135631370Y-75684315D01*
X135065685Y-76250000D01*
X134500000Y-75684315D01*
X135065685Y-75118630D01*
X135065685Y-75118630D01*
G37*
D14*
X133934315Y-76815685D03*
D15*
G36*
X133934315Y-76250000D02*
G01*
X134500000Y-76815685D01*
X133934315Y-77381370D01*
X133368630Y-76815685D01*
X133934315Y-76250000D01*
X133934315Y-76250000D01*
G37*
D14*
X137684315Y-76815685D03*
D15*
G36*
X137684315Y-76250000D02*
G01*
X138250000Y-76815685D01*
X137684315Y-77381370D01*
X137118630Y-76815685D01*
X137684315Y-76250000D01*
X137684315Y-76250000D01*
G37*
D14*
X138815685Y-75684315D03*
D15*
G36*
X138815685Y-75118630D02*
G01*
X139381370Y-75684315D01*
X138815685Y-76250000D01*
X138250000Y-75684315D01*
X138815685Y-75118630D01*
X138815685Y-75118630D01*
G37*
D14*
X105750000Y-74750000D03*
X105750000Y-53250000D03*
X105750000Y-66000000D03*
X105750000Y-63000000D03*
X105750000Y-69000000D03*
X105750000Y-72000000D03*
X105750000Y-59750000D03*
X105750000Y-57000000D03*
X109250000Y-74750000D03*
X109750000Y-53250000D03*
X109750000Y-71750000D03*
X109750000Y-68750000D03*
X109750000Y-59750000D03*
X109750000Y-57000000D03*
X109750000Y-63000000D03*
X109750000Y-66000000D03*
X113250000Y-74750000D03*
X113250000Y-53250000D03*
X113250000Y-71750000D03*
X113250000Y-68750000D03*
X113250000Y-57250000D03*
X113250000Y-60000000D03*
X113250000Y-66000000D03*
X113250000Y-63000000D03*
X117000000Y-74750000D03*
X117000000Y-53000000D03*
X117000000Y-69000000D03*
X117000000Y-65750000D03*
X117000000Y-63000000D03*
X117000000Y-59750000D03*
X117000000Y-71750000D03*
X117000000Y-57000000D03*
X120750000Y-74750000D03*
X120750000Y-53000000D03*
X120750000Y-68750000D03*
X120750000Y-65750000D03*
X120750000Y-62750000D03*
X120750000Y-60000000D03*
X120750000Y-71750000D03*
X120750000Y-57000000D03*
X124250000Y-74750000D03*
X124250000Y-53250000D03*
X124250000Y-59750000D03*
X124250000Y-63000000D03*
X124250000Y-65750000D03*
X124250000Y-68750000D03*
X124250000Y-71750000D03*
X124250000Y-57000000D03*
X128000000Y-74750000D03*
X128000000Y-53250000D03*
X128000000Y-68750000D03*
X128000000Y-59750000D03*
X128000000Y-65750000D03*
X128000000Y-71750000D03*
X128000000Y-57000000D03*
X128000000Y-63000000D03*
X131750000Y-74750000D03*
X131750000Y-53000000D03*
X131750000Y-56750000D03*
X131750000Y-59750000D03*
X131750000Y-63000000D03*
X131750000Y-66000000D03*
X131750000Y-69000000D03*
X131750000Y-72000000D03*
X135500000Y-74750000D03*
X135750000Y-72250000D03*
X135750000Y-68750000D03*
X135750000Y-65750000D03*
X135750000Y-62750000D03*
X135750000Y-59750000D03*
X135750000Y-56750000D03*
X135750000Y-53500000D03*
D16*
X107380763Y-56169237D02*
X107734315Y-55815685D01*
X104287867Y-56169237D02*
X107380763Y-56169237D01*
X103934315Y-55815685D02*
X104287867Y-56169237D01*
X111130763Y-56169237D02*
X111484315Y-55815685D01*
X108087867Y-56169237D02*
X111130763Y-56169237D01*
X107734315Y-55815685D02*
X108087867Y-56169237D01*
X114880763Y-56169237D02*
X115234315Y-55815685D01*
X111837867Y-56169237D02*
X114880763Y-56169237D01*
X111484315Y-55815685D02*
X111837867Y-56169237D01*
X118630763Y-56169237D02*
X118984315Y-55815685D01*
X115587867Y-56169237D02*
X118630763Y-56169237D01*
X115234315Y-55815685D02*
X115587867Y-56169237D01*
X122280763Y-56169237D02*
X122634315Y-55815685D01*
X119337867Y-56169237D02*
X122280763Y-56169237D01*
X118984315Y-55815685D02*
X119337867Y-56169237D01*
X126030763Y-56169237D02*
X126384315Y-55815685D01*
X122987867Y-56169237D02*
X126030763Y-56169237D01*
X122634315Y-55815685D02*
X122987867Y-56169237D01*
X129780763Y-56169237D02*
X130134315Y-55815685D01*
X126737867Y-56169237D02*
X129780763Y-56169237D01*
X126384315Y-55815685D02*
X126737867Y-56169237D01*
X130134315Y-55815685D02*
X133934315Y-55815685D01*
X133934315Y-55815685D02*
X137684315Y-55815685D01*
X103934315Y-49025685D02*
X103934315Y-55815685D01*
X107210000Y-45750000D02*
X103934315Y-49025685D01*
X105065685Y-75684315D02*
X105065685Y-75434315D01*
X105065685Y-75434315D02*
X105750000Y-74750000D01*
X109550000Y-51100000D02*
X109550000Y-50850000D01*
X107400000Y-53250000D02*
X109550000Y-51100000D01*
X105750000Y-53250000D02*
X107400000Y-53250000D01*
X105750000Y-54000000D02*
X105065685Y-54684315D01*
X105750000Y-53250000D02*
X105750000Y-54000000D01*
X105750000Y-57000000D02*
X105065685Y-57684315D01*
X105750000Y-60000000D02*
X105065685Y-60684315D01*
X105750000Y-59750000D02*
X105750000Y-60000000D01*
X105700000Y-63000000D02*
X105015685Y-63684315D01*
X105750000Y-63000000D02*
X105700000Y-63000000D01*
X105750000Y-66000000D02*
X105065685Y-66684315D01*
X105750000Y-69000000D02*
X105065685Y-69684315D01*
X105750000Y-72000000D02*
X105065685Y-72684315D01*
X108815685Y-75684315D02*
X108815685Y-75184315D01*
X108815685Y-75184315D02*
X109250000Y-74750000D01*
X110350000Y-52650000D02*
X110350000Y-50850000D01*
X109750000Y-53250000D02*
X110350000Y-52650000D01*
X109750000Y-53800000D02*
X108865685Y-54684315D01*
X109750000Y-53250000D02*
X109750000Y-53800000D01*
X109550000Y-63000000D02*
X108865685Y-63684315D01*
X109750000Y-63000000D02*
X109550000Y-63000000D01*
X109750000Y-59750000D02*
X108815685Y-60684315D01*
X109500000Y-57000000D02*
X108815685Y-57684315D01*
X109750000Y-57000000D02*
X109500000Y-57000000D01*
X109500000Y-66000000D02*
X108815685Y-66684315D01*
X109750000Y-66000000D02*
X109500000Y-66000000D01*
X109750000Y-68750000D02*
X108815685Y-69684315D01*
X109750000Y-71750000D02*
X108815685Y-72684315D01*
X112565685Y-75684315D02*
X112565685Y-75434315D01*
X112565685Y-75434315D02*
X113250000Y-74750000D01*
X111150000Y-51550000D02*
X111150000Y-50850000D01*
X112450001Y-52850001D02*
X111150000Y-51550000D01*
X112850001Y-52850001D02*
X112450001Y-52850001D01*
X113250000Y-53250000D02*
X112850001Y-52850001D01*
X113250000Y-54050000D02*
X112615685Y-54684315D01*
X113250000Y-53250000D02*
X113250000Y-54050000D01*
X113000000Y-57250000D02*
X112565685Y-57684315D01*
X113250000Y-57250000D02*
X113000000Y-57250000D01*
X113250000Y-60000000D02*
X112565685Y-60684315D01*
X113250000Y-63000000D02*
X112565685Y-63684315D01*
X113250000Y-66050000D02*
X112615685Y-66684315D01*
X113250000Y-66000000D02*
X113250000Y-66050000D01*
X113250000Y-69000000D02*
X112565685Y-69684315D01*
X113250000Y-68750000D02*
X113250000Y-69000000D01*
X113250000Y-72000000D02*
X112565685Y-72684315D01*
X113250000Y-71750000D02*
X113250000Y-72000000D01*
X116315685Y-75684315D02*
X116315685Y-75434315D01*
X116315685Y-75434315D02*
X117000000Y-74750000D01*
X114850000Y-50850000D02*
X111950000Y-50850000D01*
X117000000Y-53000000D02*
X114850000Y-50850000D01*
X117000000Y-54050000D02*
X116365685Y-54684315D01*
X117000000Y-53000000D02*
X117000000Y-54050000D01*
X117000000Y-63000000D02*
X116315685Y-63684315D01*
X117000000Y-60050000D02*
X116365685Y-60684315D01*
X117000000Y-59750000D02*
X117000000Y-60050000D01*
X117000000Y-57000000D02*
X116315685Y-57684315D01*
X117000000Y-66050000D02*
X116365685Y-66684315D01*
X117000000Y-65750000D02*
X117000000Y-66050000D01*
X117000000Y-69000000D02*
X116315685Y-69684315D01*
X117000000Y-72000000D02*
X116315685Y-72684315D01*
X117000000Y-71750000D02*
X117000000Y-72000000D01*
X120065685Y-75684315D02*
X120065685Y-75434315D01*
X120065685Y-75434315D02*
X120750000Y-74750000D01*
X122900000Y-50850000D02*
X124300000Y-50850000D01*
X120750000Y-53000000D02*
X122900000Y-50850000D01*
X120750000Y-54050000D02*
X120115685Y-54684315D01*
X120750000Y-53000000D02*
X120750000Y-54050000D01*
X120750000Y-57000000D02*
X120065685Y-57684315D01*
X120750000Y-60000000D02*
X120065685Y-60684315D01*
X120750000Y-63000000D02*
X120065685Y-63684315D01*
X120750000Y-62750000D02*
X120750000Y-63000000D01*
X120750000Y-66050000D02*
X120115685Y-66684315D01*
X120750000Y-65750000D02*
X120750000Y-66050000D01*
X120750000Y-69000000D02*
X120065685Y-69684315D01*
X120750000Y-68750000D02*
X120750000Y-69000000D01*
X120750000Y-72000000D02*
X120065685Y-72684315D01*
X120750000Y-71750000D02*
X120750000Y-72000000D01*
X123815685Y-75684315D02*
X123815685Y-75184315D01*
X123815685Y-75184315D02*
X124250000Y-74750000D01*
X125100000Y-52400000D02*
X125100000Y-50850000D01*
X124250000Y-53250000D02*
X125100000Y-52400000D01*
X124250000Y-54200000D02*
X123765685Y-54684315D01*
X124250000Y-53250000D02*
X124250000Y-54200000D01*
X124250000Y-63250000D02*
X123815685Y-63684315D01*
X124250000Y-63000000D02*
X124250000Y-63250000D01*
X124250000Y-60250000D02*
X123815685Y-60684315D01*
X124250000Y-59750000D02*
X124250000Y-60250000D01*
X124250000Y-57200000D02*
X123765685Y-57684315D01*
X124250000Y-57000000D02*
X124250000Y-57200000D01*
X124250000Y-66250000D02*
X123815685Y-66684315D01*
X124250000Y-65750000D02*
X124250000Y-66250000D01*
X124250000Y-69250000D02*
X123815685Y-69684315D01*
X124250000Y-68750000D02*
X124250000Y-69250000D01*
X124250000Y-72250000D02*
X123815685Y-72684315D01*
X124250000Y-71750000D02*
X124250000Y-72250000D01*
X127565685Y-75684315D02*
X127565685Y-75184315D01*
X127565685Y-75184315D02*
X128000000Y-74750000D01*
X125900000Y-51550000D02*
X125900000Y-50850000D01*
X127200001Y-52850001D02*
X125900000Y-51550000D01*
X128000000Y-53250000D02*
X127600001Y-52850001D01*
X127600001Y-52850001D02*
X127200001Y-52850001D01*
X128000000Y-54200000D02*
X127515685Y-54684315D01*
X128000000Y-53250000D02*
X128000000Y-54200000D01*
X128000000Y-57250000D02*
X127565685Y-57684315D01*
X128000000Y-57000000D02*
X128000000Y-57250000D01*
X128000000Y-60250000D02*
X127565685Y-60684315D01*
X128000000Y-59750000D02*
X128000000Y-60250000D01*
X128000000Y-63250000D02*
X127565685Y-63684315D01*
X128000000Y-63000000D02*
X128000000Y-63250000D01*
X128000000Y-66250000D02*
X127565685Y-66684315D01*
X128000000Y-65750000D02*
X128000000Y-66250000D01*
X128000000Y-69250000D02*
X127565685Y-69684315D01*
X128000000Y-68750000D02*
X128000000Y-69250000D01*
X128000000Y-72250000D02*
X127565685Y-72684315D01*
X128000000Y-71750000D02*
X128000000Y-72250000D01*
X131315685Y-75684315D02*
X131315685Y-75184315D01*
X131315685Y-75184315D02*
X131750000Y-74750000D01*
X129600000Y-50850000D02*
X126700000Y-50850000D01*
X131750000Y-53000000D02*
X129600000Y-50850000D01*
X131750000Y-54200000D02*
X131265685Y-54684315D01*
X131750000Y-53000000D02*
X131750000Y-54200000D01*
X131750000Y-72250000D02*
X131315685Y-72684315D01*
X131750000Y-72000000D02*
X131750000Y-72250000D01*
X131750000Y-69250000D02*
X131315685Y-69684315D01*
X131750000Y-69000000D02*
X131750000Y-69250000D01*
X131750000Y-66250000D02*
X131315685Y-66684315D01*
X131750000Y-66000000D02*
X131750000Y-66250000D01*
X131750000Y-63300000D02*
X131365685Y-63684315D01*
X131750000Y-63000000D02*
X131750000Y-63300000D01*
X131750000Y-60200000D02*
X131265685Y-60684315D01*
X131750000Y-59750000D02*
X131750000Y-60200000D01*
X131750000Y-57250000D02*
X131315685Y-57684315D01*
X131750000Y-56750000D02*
X131750000Y-57250000D01*
X135065685Y-75684315D02*
X135065685Y-75184315D01*
X135065685Y-75184315D02*
X135500000Y-74750000D01*
X135500000Y-72250000D02*
X135065685Y-72684315D01*
X135750000Y-72250000D02*
X135500000Y-72250000D01*
X135750000Y-69000000D02*
X135065685Y-69684315D01*
X135750000Y-68750000D02*
X135750000Y-69000000D01*
X135750000Y-66000000D02*
X135065685Y-66684315D01*
X135750000Y-65750000D02*
X135750000Y-66000000D01*
X135750000Y-63000000D02*
X135065685Y-63684315D01*
X135750000Y-62750000D02*
X135750000Y-63000000D01*
X135750000Y-56950000D02*
X135015685Y-57684315D01*
X135750000Y-56750000D02*
X135750000Y-56950000D01*
X135750000Y-59950000D02*
X135015685Y-60684315D01*
X135750000Y-59750000D02*
X135750000Y-59950000D01*
X135750000Y-51050000D02*
X135550000Y-50850000D01*
X135750000Y-53500000D02*
X135750000Y-51050000D01*
X135750000Y-54000000D02*
X135065685Y-54684315D01*
X135750000Y-53500000D02*
X135750000Y-54000000D01*
X136350000Y-51285002D02*
X136350000Y-50850000D01*
X138815685Y-53750687D02*
X136350000Y-51285002D01*
X138815685Y-75684315D02*
X138815685Y-53750687D01*
X137634315Y-58815685D02*
X133884315Y-58815685D01*
X133884315Y-58815685D02*
X130184315Y-58815685D01*
X130184315Y-58815685D02*
X126434315Y-58815685D01*
X125768630Y-58815685D02*
X122634315Y-58815685D01*
X126434315Y-58815685D02*
X125768630Y-58815685D01*
X122280763Y-59169237D02*
X119287867Y-59169237D01*
X119287867Y-59169237D02*
X118934315Y-58815685D01*
X122634315Y-58815685D02*
X122280763Y-59169237D01*
X118268630Y-58815685D02*
X115184315Y-58815685D01*
X118934315Y-58815685D02*
X118268630Y-58815685D01*
X114518630Y-58815685D02*
X111434315Y-58815685D01*
X115184315Y-58815685D02*
X114518630Y-58815685D01*
X110768630Y-58815685D02*
X107684315Y-58815685D01*
X111434315Y-58815685D02*
X110768630Y-58815685D01*
X107018630Y-58815685D02*
X103934315Y-58815685D01*
X107684315Y-58815685D02*
X107018630Y-58815685D01*
X103580763Y-58462133D02*
X103934315Y-58815685D01*
X103043620Y-57924990D02*
X103580763Y-58462133D01*
X103043620Y-49279970D02*
X103043620Y-57924990D01*
X104670000Y-47653590D02*
X103043620Y-49279970D01*
X104670000Y-45750000D02*
X104670000Y-47653590D01*
X107330763Y-62169237D02*
X107684315Y-61815685D01*
X104287867Y-62169237D02*
X107330763Y-62169237D01*
X103934315Y-61815685D02*
X104287867Y-62169237D01*
X107684315Y-61815685D02*
X111434315Y-61815685D01*
X114880763Y-62169237D02*
X115234315Y-61815685D01*
X111787867Y-62169237D02*
X114880763Y-62169237D01*
X111434315Y-61815685D02*
X111787867Y-62169237D01*
X115587867Y-62169237D02*
X118580763Y-62169237D01*
X118580763Y-62169237D02*
X118934315Y-61815685D01*
X115234315Y-61815685D02*
X115587867Y-62169237D01*
X118934315Y-61815685D02*
X122684315Y-61815685D01*
X126080763Y-62169237D02*
X126434315Y-61815685D01*
X123037867Y-62169237D02*
X126080763Y-62169237D01*
X122684315Y-61815685D02*
X123037867Y-62169237D01*
X129780763Y-62169237D02*
X130134315Y-61815685D01*
X126787867Y-62169237D02*
X129780763Y-62169237D01*
X126434315Y-61815685D02*
X126787867Y-62169237D01*
X133530763Y-62169237D02*
X133884315Y-61815685D01*
X130487867Y-62169237D02*
X133530763Y-62169237D01*
X130134315Y-61815685D02*
X130487867Y-62169237D01*
X133884315Y-61815685D02*
X137659315Y-61815685D01*
X102130000Y-60011370D02*
X103934315Y-61815685D01*
X102130000Y-45750000D02*
X102130000Y-60011370D01*
X137684315Y-64815685D02*
X133934315Y-64815685D01*
X133934315Y-64815685D02*
X130234315Y-64815685D01*
X129568630Y-64815685D02*
X126434315Y-64815685D01*
X130234315Y-64815685D02*
X129568630Y-64815685D01*
X126434315Y-64815685D02*
X122684315Y-64815685D01*
X122684315Y-64815685D02*
X118934315Y-64815685D01*
X118934315Y-64815685D02*
X115434315Y-64815685D01*
X115434315Y-64815685D02*
X115184315Y-64815685D01*
X114518630Y-64815685D02*
X111434315Y-64815685D01*
X115184315Y-64815685D02*
X114518630Y-64815685D01*
X110768630Y-64815685D02*
X107734315Y-64815685D01*
X111434315Y-64815685D02*
X110768630Y-64815685D01*
X107068630Y-64815685D02*
X103884315Y-64815685D01*
X107734315Y-64815685D02*
X107068630Y-64815685D01*
X99590000Y-60521370D02*
X99590000Y-45750000D01*
X103884315Y-64815685D02*
X99590000Y-60521370D01*
X137018630Y-67815685D02*
X133934315Y-67815685D01*
X137684315Y-67815685D02*
X137018630Y-67815685D01*
X133934315Y-67815685D02*
X130184315Y-67815685D01*
X130184315Y-67815685D02*
X126434315Y-67815685D01*
X126434315Y-67815685D02*
X122684315Y-67815685D01*
X122684315Y-67815685D02*
X118984315Y-67815685D01*
X116471735Y-67815685D02*
X115234315Y-67815685D01*
X118984315Y-67815685D02*
X116471735Y-67815685D01*
X112721735Y-67815685D02*
X111484315Y-67815685D01*
X115234315Y-67815685D02*
X112721735Y-67815685D01*
X111484315Y-67815685D02*
X107684315Y-67815685D01*
X107684315Y-67815685D02*
X103934315Y-67815685D01*
X97050000Y-60931370D02*
X103934315Y-67815685D01*
X97050000Y-45750000D02*
X97050000Y-60931370D01*
X137018630Y-70815685D02*
X133934315Y-70815685D01*
X137684315Y-70815685D02*
X137018630Y-70815685D01*
X133268630Y-70815685D02*
X130184315Y-70815685D01*
X133934315Y-70815685D02*
X133268630Y-70815685D01*
X130184315Y-70815685D02*
X126434315Y-70815685D01*
X126434315Y-70815685D02*
X122684315Y-70815685D01*
X122684315Y-70815685D02*
X118934315Y-70815685D01*
X118934315Y-70815685D02*
X115184315Y-70815685D01*
X114518630Y-70815685D02*
X111434315Y-70815685D01*
X115184315Y-70815685D02*
X114518630Y-70815685D01*
X110768630Y-70815685D02*
X107684315Y-70815685D01*
X111434315Y-70815685D02*
X110768630Y-70815685D01*
X107684315Y-70815685D02*
X103934315Y-70815685D01*
X96599990Y-63481360D02*
X103580763Y-70462133D01*
X96599990Y-47839990D02*
X96599990Y-63481360D01*
X103580763Y-70462133D02*
X103934315Y-70815685D01*
X94510000Y-45750000D02*
X96599990Y-47839990D01*
X137684315Y-73815685D02*
X133934315Y-73815685D01*
X133934315Y-73815685D02*
X130184315Y-73815685D01*
X130184315Y-73815685D02*
X126434315Y-73815685D01*
X126434315Y-73815685D02*
X122684315Y-73815685D01*
X122684315Y-73815685D02*
X118934315Y-73815685D01*
X118268630Y-73815685D02*
X115184315Y-73815685D01*
X118934315Y-73815685D02*
X118268630Y-73815685D01*
X115184315Y-73815685D02*
X111434315Y-73815685D01*
X110768630Y-73815685D02*
X107684315Y-73815685D01*
X111434315Y-73815685D02*
X110768630Y-73815685D01*
X107684315Y-73815685D02*
X103934315Y-73815685D01*
X103580763Y-73462133D02*
X103934315Y-73815685D01*
X96149980Y-66031350D02*
X103580763Y-73462133D01*
X96149980Y-49929980D02*
X96149980Y-66031350D01*
X91970000Y-45750000D02*
X96149980Y-49929980D01*
X137684315Y-76815685D02*
X133934315Y-76815685D01*
X133934315Y-76815685D02*
X129815685Y-76815685D01*
X129815685Y-76815685D02*
X126434315Y-76815685D01*
X125768630Y-76815685D02*
X125702945Y-76750000D01*
X126434315Y-76815685D02*
X125768630Y-76815685D01*
X125637260Y-76815685D02*
X103934315Y-76815685D01*
X125702945Y-76750000D02*
X125637260Y-76815685D01*
X103580763Y-76462133D02*
X103934315Y-76815685D01*
X95699970Y-68581340D02*
X103580763Y-76462133D01*
X95699970Y-52019970D02*
X95699970Y-68581340D01*
X89430000Y-45750000D02*
X95699970Y-52019970D01*
X109750000Y-48950000D02*
X109550000Y-49150000D01*
X109750000Y-45750000D02*
X109750000Y-48950000D01*
X110350000Y-47690000D02*
X110350000Y-49150000D01*
X112290000Y-45750000D02*
X110350000Y-47690000D01*
X111150000Y-48714998D02*
X111150000Y-49150000D01*
X113264999Y-46599999D02*
X111150000Y-48714998D01*
X113980001Y-46599999D02*
X113264999Y-46599999D01*
X114830000Y-45750000D02*
X113980001Y-46599999D01*
X113970000Y-49150000D02*
X111950000Y-49150000D01*
X117370000Y-45750000D02*
X113970000Y-49150000D01*
X123310000Y-49150000D02*
X124300000Y-49150000D01*
X119910000Y-45750000D02*
X123310000Y-49150000D01*
X125100000Y-48400000D02*
X125100000Y-49150000D01*
X122450000Y-45750000D02*
X125100000Y-48400000D01*
X125900000Y-48450000D02*
X125900000Y-49150000D01*
X124990000Y-46952081D02*
X125900000Y-47862081D01*
X125900000Y-47862081D02*
X125900000Y-48450000D01*
X124990000Y-45750000D02*
X124990000Y-46952081D01*
X127150000Y-49150000D02*
X126700000Y-49150000D01*
X127530000Y-48770000D02*
X127150000Y-49150000D01*
X127530000Y-45750000D02*
X127530000Y-48770000D01*
X135100000Y-49150000D02*
X135550000Y-49150000D01*
X132267919Y-49150000D02*
X135100000Y-49150000D01*
X130070000Y-46952081D02*
X132267919Y-49150000D01*
X130070000Y-45750000D02*
X130070000Y-46952081D01*
X136350000Y-48450000D02*
X136350000Y-49150000D01*
X136350000Y-48390000D02*
X136350000Y-48450000D01*
X133710000Y-45750000D02*
X136350000Y-48390000D01*
X132610000Y-45750000D02*
X133710000Y-45750000D01*
M02*
