G04 #@! TF.GenerationSoftware,KiCad,Pcbnew,5.1.5*
G04 #@! TF.CreationDate,2020-03-28T16:39:13-05:00*
G04 #@! TF.ProjectId,Python,50797468-6f6e-42e6-9b69-6361645f7063,rev?*
G04 #@! TF.SameCoordinates,Original*
G04 #@! TF.FileFunction,Soldermask,Top*
G04 #@! TF.FilePolarity,Negative*
%FSLAX46Y46*%
G04 Gerber Fmt 4.6, Leading zero omitted, Abs format (unit mm)*
G04 Created by KiCad (PCBNEW 5.1.5) date 2020-03-28 16:39:13*
%MOMM*%
%LPD*%
G04 APERTURE LIST*
%ADD10C,0.010000*%
G04 APERTURE END LIST*
D10*
G36*
X137511942Y-100299564D02*
G01*
X137987110Y-100305855D01*
X138386436Y-100312723D01*
X138718742Y-100321100D01*
X138992853Y-100331916D01*
X139217591Y-100346105D01*
X139401779Y-100364597D01*
X139554241Y-100388326D01*
X139683801Y-100418221D01*
X139799281Y-100455215D01*
X139909504Y-100500240D01*
X140023295Y-100554228D01*
X140050061Y-100567590D01*
X140410005Y-100774996D01*
X140736202Y-101021244D01*
X141031485Y-101311452D01*
X141298689Y-101650737D01*
X141540648Y-102044216D01*
X141760197Y-102497006D01*
X141960170Y-103014223D01*
X142143401Y-103600987D01*
X142312724Y-104262412D01*
X142450814Y-104902000D01*
X142528119Y-105298446D01*
X142589708Y-105645029D01*
X142637272Y-105960083D01*
X142672497Y-106261940D01*
X142697074Y-106568933D01*
X142712690Y-106899395D01*
X142721034Y-107271659D01*
X142723795Y-107704058D01*
X142723766Y-107865334D01*
X142722090Y-108258032D01*
X142717862Y-108578485D01*
X142710505Y-108839090D01*
X142699443Y-109052245D01*
X142684101Y-109230347D01*
X142663905Y-109385795D01*
X142649099Y-109474000D01*
X142522264Y-110085389D01*
X142364514Y-110702133D01*
X142181324Y-111308160D01*
X141978170Y-111887399D01*
X141760528Y-112423777D01*
X141533873Y-112901225D01*
X141395540Y-113153222D01*
X141148969Y-113523312D01*
X140862725Y-113864102D01*
X140549046Y-114165095D01*
X140220168Y-114415795D01*
X139888327Y-114605705D01*
X139565759Y-114724328D01*
X139563353Y-114724935D01*
X139512022Y-114732481D01*
X139419323Y-114739178D01*
X139282001Y-114745045D01*
X139096801Y-114750101D01*
X138860467Y-114754365D01*
X138569744Y-114757856D01*
X138221377Y-114760593D01*
X137812110Y-114762595D01*
X137338687Y-114763881D01*
X136797855Y-114764469D01*
X136186356Y-114764380D01*
X135500935Y-114763630D01*
X134738338Y-114762241D01*
X133895309Y-114760230D01*
X133626103Y-114759508D01*
X127889000Y-114743769D01*
X127889000Y-115485334D01*
X135056970Y-115485334D01*
X135030737Y-117107139D01*
X135024165Y-117471852D01*
X135016753Y-117811655D01*
X135008808Y-118116843D01*
X135000640Y-118377710D01*
X134992557Y-118584550D01*
X134984867Y-118727659D01*
X134977881Y-118797329D01*
X134976872Y-118800952D01*
X134970605Y-118851984D01*
X135022251Y-118844944D01*
X135065642Y-118836983D01*
X135080149Y-118870718D01*
X135070553Y-118964161D01*
X135064241Y-119003213D01*
X134957583Y-119389580D01*
X134770339Y-119764189D01*
X134506094Y-120124418D01*
X134168437Y-120467645D01*
X133760952Y-120791246D01*
X133287228Y-121092599D01*
X132750849Y-121369080D01*
X132155402Y-121618068D01*
X131504474Y-121836938D01*
X131000500Y-121975146D01*
X130294297Y-122130549D01*
X129551760Y-122255183D01*
X128820334Y-122341263D01*
X128527123Y-122360877D01*
X128173653Y-122373467D01*
X127781708Y-122379197D01*
X127373072Y-122378232D01*
X126969533Y-122370734D01*
X126592874Y-122356869D01*
X126264881Y-122336799D01*
X126089834Y-122320695D01*
X125359766Y-122216316D01*
X124652465Y-122067010D01*
X123984319Y-121877087D01*
X123371712Y-121650855D01*
X123124067Y-121540959D01*
X122583817Y-121251520D01*
X122105794Y-120921573D01*
X121693963Y-120555177D01*
X121352291Y-120156387D01*
X121084743Y-119729261D01*
X120895286Y-119277855D01*
X120887397Y-119253000D01*
X120806869Y-118974731D01*
X120762606Y-118771050D01*
X120757256Y-118685952D01*
X130594266Y-118685952D01*
X130600083Y-118969740D01*
X130645627Y-119233289D01*
X130702558Y-119391798D01*
X130857203Y-119631293D01*
X131073591Y-119847818D01*
X131328919Y-120022864D01*
X131600380Y-120137924D01*
X131632877Y-120146801D01*
X131864276Y-120174654D01*
X132127199Y-120156861D01*
X132384671Y-120097538D01*
X132509597Y-120049147D01*
X132797979Y-119873469D01*
X133026926Y-119646534D01*
X133193582Y-119380067D01*
X133295092Y-119085799D01*
X133328598Y-118775457D01*
X133291245Y-118460768D01*
X133180177Y-118153463D01*
X133029961Y-117912408D01*
X132818514Y-117701671D01*
X132556265Y-117544130D01*
X132261182Y-117443597D01*
X131951234Y-117403882D01*
X131644387Y-117428794D01*
X131358612Y-117522144D01*
X131309006Y-117547481D01*
X131089774Y-117701282D01*
X130887295Y-117905104D01*
X130730755Y-118128335D01*
X130701879Y-118184301D01*
X130628192Y-118413586D01*
X130594266Y-118685952D01*
X120757256Y-118685952D01*
X120754376Y-118640148D01*
X120781947Y-118580217D01*
X120800820Y-118575667D01*
X120815733Y-118569640D01*
X120828036Y-118547116D01*
X120837847Y-118501428D01*
X120845281Y-118425912D01*
X120850453Y-118313902D01*
X120853482Y-118158732D01*
X120854481Y-117953735D01*
X120853568Y-117692248D01*
X120850858Y-117367603D01*
X120846468Y-116973136D01*
X120840514Y-116502180D01*
X120838970Y-116384917D01*
X120831639Y-115625864D01*
X120829323Y-114854715D01*
X120829980Y-114661593D01*
X139119022Y-114661593D01*
X139172209Y-114668235D01*
X139234334Y-114669470D01*
X139325894Y-114666168D01*
X139351029Y-114657724D01*
X139329584Y-114651124D01*
X139206225Y-114644120D01*
X139139084Y-114651124D01*
X139119022Y-114661593D01*
X120829980Y-114661593D01*
X120830130Y-114617500D01*
X139530667Y-114617500D01*
X139551834Y-114638667D01*
X139573000Y-114617500D01*
X139551834Y-114596334D01*
X139530667Y-114617500D01*
X120830130Y-114617500D01*
X120831916Y-114093220D01*
X120839313Y-113363129D01*
X120851409Y-112686191D01*
X120858247Y-112408768D01*
X120906528Y-110623369D01*
X121070690Y-110270935D01*
X121346641Y-109758031D01*
X121666405Y-109306400D01*
X122025569Y-108919924D01*
X122419719Y-108602490D01*
X122844440Y-108357982D01*
X123295320Y-108190285D01*
X123486334Y-108144711D01*
X123626353Y-108119383D01*
X123783942Y-108096747D01*
X123964573Y-108076609D01*
X124173720Y-108058772D01*
X124416859Y-108043042D01*
X124699461Y-108029224D01*
X125027001Y-108017122D01*
X125404954Y-108006541D01*
X125838792Y-107997288D01*
X126333989Y-107989165D01*
X126896021Y-107981978D01*
X127530359Y-107975533D01*
X128242479Y-107969634D01*
X128439334Y-107968177D01*
X129097992Y-107963299D01*
X129678132Y-107958508D01*
X130185899Y-107953364D01*
X130627438Y-107947431D01*
X131008896Y-107940268D01*
X131336419Y-107931438D01*
X131616152Y-107920501D01*
X131854241Y-107907020D01*
X132056833Y-107890555D01*
X132230073Y-107870668D01*
X132380107Y-107846920D01*
X132513081Y-107818873D01*
X132635142Y-107786087D01*
X132752434Y-107748126D01*
X132871104Y-107704548D01*
X132997298Y-107654917D01*
X133033825Y-107640274D01*
X133485023Y-107427269D01*
X133923639Y-107159710D01*
X134336838Y-106848868D01*
X134711784Y-106506013D01*
X135035642Y-106142414D01*
X135295575Y-105769340D01*
X135412637Y-105551697D01*
X135471673Y-105427640D01*
X135521787Y-105317967D01*
X135563759Y-105214737D01*
X135598373Y-105110011D01*
X135626412Y-104995846D01*
X135648656Y-104864304D01*
X135665890Y-104707443D01*
X135678896Y-104517323D01*
X135688455Y-104286004D01*
X135695350Y-104005545D01*
X135700364Y-103668006D01*
X135704279Y-103265446D01*
X135707877Y-102789926D01*
X135709696Y-102536941D01*
X135726050Y-100277716D01*
X137511942Y-100299564D01*
G37*
X137511942Y-100299564D02*
X137987110Y-100305855D01*
X138386436Y-100312723D01*
X138718742Y-100321100D01*
X138992853Y-100331916D01*
X139217591Y-100346105D01*
X139401779Y-100364597D01*
X139554241Y-100388326D01*
X139683801Y-100418221D01*
X139799281Y-100455215D01*
X139909504Y-100500240D01*
X140023295Y-100554228D01*
X140050061Y-100567590D01*
X140410005Y-100774996D01*
X140736202Y-101021244D01*
X141031485Y-101311452D01*
X141298689Y-101650737D01*
X141540648Y-102044216D01*
X141760197Y-102497006D01*
X141960170Y-103014223D01*
X142143401Y-103600987D01*
X142312724Y-104262412D01*
X142450814Y-104902000D01*
X142528119Y-105298446D01*
X142589708Y-105645029D01*
X142637272Y-105960083D01*
X142672497Y-106261940D01*
X142697074Y-106568933D01*
X142712690Y-106899395D01*
X142721034Y-107271659D01*
X142723795Y-107704058D01*
X142723766Y-107865334D01*
X142722090Y-108258032D01*
X142717862Y-108578485D01*
X142710505Y-108839090D01*
X142699443Y-109052245D01*
X142684101Y-109230347D01*
X142663905Y-109385795D01*
X142649099Y-109474000D01*
X142522264Y-110085389D01*
X142364514Y-110702133D01*
X142181324Y-111308160D01*
X141978170Y-111887399D01*
X141760528Y-112423777D01*
X141533873Y-112901225D01*
X141395540Y-113153222D01*
X141148969Y-113523312D01*
X140862725Y-113864102D01*
X140549046Y-114165095D01*
X140220168Y-114415795D01*
X139888327Y-114605705D01*
X139565759Y-114724328D01*
X139563353Y-114724935D01*
X139512022Y-114732481D01*
X139419323Y-114739178D01*
X139282001Y-114745045D01*
X139096801Y-114750101D01*
X138860467Y-114754365D01*
X138569744Y-114757856D01*
X138221377Y-114760593D01*
X137812110Y-114762595D01*
X137338687Y-114763881D01*
X136797855Y-114764469D01*
X136186356Y-114764380D01*
X135500935Y-114763630D01*
X134738338Y-114762241D01*
X133895309Y-114760230D01*
X133626103Y-114759508D01*
X127889000Y-114743769D01*
X127889000Y-115485334D01*
X135056970Y-115485334D01*
X135030737Y-117107139D01*
X135024165Y-117471852D01*
X135016753Y-117811655D01*
X135008808Y-118116843D01*
X135000640Y-118377710D01*
X134992557Y-118584550D01*
X134984867Y-118727659D01*
X134977881Y-118797329D01*
X134976872Y-118800952D01*
X134970605Y-118851984D01*
X135022251Y-118844944D01*
X135065642Y-118836983D01*
X135080149Y-118870718D01*
X135070553Y-118964161D01*
X135064241Y-119003213D01*
X134957583Y-119389580D01*
X134770339Y-119764189D01*
X134506094Y-120124418D01*
X134168437Y-120467645D01*
X133760952Y-120791246D01*
X133287228Y-121092599D01*
X132750849Y-121369080D01*
X132155402Y-121618068D01*
X131504474Y-121836938D01*
X131000500Y-121975146D01*
X130294297Y-122130549D01*
X129551760Y-122255183D01*
X128820334Y-122341263D01*
X128527123Y-122360877D01*
X128173653Y-122373467D01*
X127781708Y-122379197D01*
X127373072Y-122378232D01*
X126969533Y-122370734D01*
X126592874Y-122356869D01*
X126264881Y-122336799D01*
X126089834Y-122320695D01*
X125359766Y-122216316D01*
X124652465Y-122067010D01*
X123984319Y-121877087D01*
X123371712Y-121650855D01*
X123124067Y-121540959D01*
X122583817Y-121251520D01*
X122105794Y-120921573D01*
X121693963Y-120555177D01*
X121352291Y-120156387D01*
X121084743Y-119729261D01*
X120895286Y-119277855D01*
X120887397Y-119253000D01*
X120806869Y-118974731D01*
X120762606Y-118771050D01*
X120757256Y-118685952D01*
X130594266Y-118685952D01*
X130600083Y-118969740D01*
X130645627Y-119233289D01*
X130702558Y-119391798D01*
X130857203Y-119631293D01*
X131073591Y-119847818D01*
X131328919Y-120022864D01*
X131600380Y-120137924D01*
X131632877Y-120146801D01*
X131864276Y-120174654D01*
X132127199Y-120156861D01*
X132384671Y-120097538D01*
X132509597Y-120049147D01*
X132797979Y-119873469D01*
X133026926Y-119646534D01*
X133193582Y-119380067D01*
X133295092Y-119085799D01*
X133328598Y-118775457D01*
X133291245Y-118460768D01*
X133180177Y-118153463D01*
X133029961Y-117912408D01*
X132818514Y-117701671D01*
X132556265Y-117544130D01*
X132261182Y-117443597D01*
X131951234Y-117403882D01*
X131644387Y-117428794D01*
X131358612Y-117522144D01*
X131309006Y-117547481D01*
X131089774Y-117701282D01*
X130887295Y-117905104D01*
X130730755Y-118128335D01*
X130701879Y-118184301D01*
X130628192Y-118413586D01*
X130594266Y-118685952D01*
X120757256Y-118685952D01*
X120754376Y-118640148D01*
X120781947Y-118580217D01*
X120800820Y-118575667D01*
X120815733Y-118569640D01*
X120828036Y-118547116D01*
X120837847Y-118501428D01*
X120845281Y-118425912D01*
X120850453Y-118313902D01*
X120853482Y-118158732D01*
X120854481Y-117953735D01*
X120853568Y-117692248D01*
X120850858Y-117367603D01*
X120846468Y-116973136D01*
X120840514Y-116502180D01*
X120838970Y-116384917D01*
X120831639Y-115625864D01*
X120829323Y-114854715D01*
X120829980Y-114661593D01*
X139119022Y-114661593D01*
X139172209Y-114668235D01*
X139234334Y-114669470D01*
X139325894Y-114666168D01*
X139351029Y-114657724D01*
X139329584Y-114651124D01*
X139206225Y-114644120D01*
X139139084Y-114651124D01*
X139119022Y-114661593D01*
X120829980Y-114661593D01*
X120830130Y-114617500D01*
X139530667Y-114617500D01*
X139551834Y-114638667D01*
X139573000Y-114617500D01*
X139551834Y-114596334D01*
X139530667Y-114617500D01*
X120830130Y-114617500D01*
X120831916Y-114093220D01*
X120839313Y-113363129D01*
X120851409Y-112686191D01*
X120858247Y-112408768D01*
X120906528Y-110623369D01*
X121070690Y-110270935D01*
X121346641Y-109758031D01*
X121666405Y-109306400D01*
X122025569Y-108919924D01*
X122419719Y-108602490D01*
X122844440Y-108357982D01*
X123295320Y-108190285D01*
X123486334Y-108144711D01*
X123626353Y-108119383D01*
X123783942Y-108096747D01*
X123964573Y-108076609D01*
X124173720Y-108058772D01*
X124416859Y-108043042D01*
X124699461Y-108029224D01*
X125027001Y-108017122D01*
X125404954Y-108006541D01*
X125838792Y-107997288D01*
X126333989Y-107989165D01*
X126896021Y-107981978D01*
X127530359Y-107975533D01*
X128242479Y-107969634D01*
X128439334Y-107968177D01*
X129097992Y-107963299D01*
X129678132Y-107958508D01*
X130185899Y-107953364D01*
X130627438Y-107947431D01*
X131008896Y-107940268D01*
X131336419Y-107931438D01*
X131616152Y-107920501D01*
X131854241Y-107907020D01*
X132056833Y-107890555D01*
X132230073Y-107870668D01*
X132380107Y-107846920D01*
X132513081Y-107818873D01*
X132635142Y-107786087D01*
X132752434Y-107748126D01*
X132871104Y-107704548D01*
X132997298Y-107654917D01*
X133033825Y-107640274D01*
X133485023Y-107427269D01*
X133923639Y-107159710D01*
X134336838Y-106848868D01*
X134711784Y-106506013D01*
X135035642Y-106142414D01*
X135295575Y-105769340D01*
X135412637Y-105551697D01*
X135471673Y-105427640D01*
X135521787Y-105317967D01*
X135563759Y-105214737D01*
X135598373Y-105110011D01*
X135626412Y-104995846D01*
X135648656Y-104864304D01*
X135665890Y-104707443D01*
X135678896Y-104517323D01*
X135688455Y-104286004D01*
X135695350Y-104005545D01*
X135700364Y-103668006D01*
X135704279Y-103265446D01*
X135707877Y-102789926D01*
X135709696Y-102536941D01*
X135726050Y-100277716D01*
X137511942Y-100299564D01*
M02*
