G04 #@! TF.GenerationSoftware,KiCad,Pcbnew,5.1.5*
G04 #@! TF.CreationDate,2020-03-28T16:39:13-05:00*
G04 #@! TF.ProjectId,Python,50797468-6f6e-42e6-9b69-6361645f7063,rev?*
G04 #@! TF.SameCoordinates,Original*
G04 #@! TF.FileFunction,Profile,NP*
%FSLAX46Y46*%
G04 Gerber Fmt 4.6, Leading zero omitted, Abs format (unit mm)*
G04 Created by KiCad (PCBNEW 5.1.5) date 2020-03-28 16:39:13*
%MOMM*%
%LPD*%
G04 APERTURE LIST*
%ADD10C,0.100000*%
G04 APERTURE END LIST*
D10*
X120056778Y-99460233D02*
X118915810Y-99464301D01*
X118915810Y-99464301D02*
X118293224Y-99485722D01*
X118293224Y-99485722D02*
X117650838Y-99540916D01*
X117650838Y-99540916D02*
X116999849Y-99645523D01*
X116999849Y-99645523D02*
X116674629Y-99721242D01*
X116674629Y-99721242D02*
X116351459Y-99815179D01*
X116351459Y-99815179D02*
X116031738Y-99929287D01*
X116031738Y-99929287D02*
X115716867Y-100065522D01*
X115716867Y-100065522D02*
X115408245Y-100225838D01*
X115408245Y-100225838D02*
X115107273Y-100412189D01*
X115107273Y-100412189D02*
X114815350Y-100626531D01*
X114815350Y-100626531D02*
X114533876Y-100870819D01*
X114533876Y-100870819D02*
X114264252Y-101147006D01*
X114264252Y-101147006D02*
X114007877Y-101457048D01*
X114007877Y-101457048D02*
X113766152Y-101802899D01*
X113766152Y-101802899D02*
X113540475Y-102186514D01*
X113540475Y-102186514D02*
X113332248Y-102609848D01*
X113332248Y-102609848D02*
X113142870Y-103074855D01*
X113142870Y-103074855D02*
X112973742Y-103583491D01*
X112973742Y-103583491D02*
X112826262Y-104137709D01*
X112826262Y-104137709D02*
X112701831Y-104739465D01*
X112701831Y-104739465D02*
X112601850Y-105390712D01*
X112601850Y-105390712D02*
X112527718Y-106093407D01*
X112527718Y-106093407D02*
X112480835Y-106849503D01*
X112480835Y-106849503D02*
X112462600Y-107660956D01*
X112462600Y-107660956D02*
X112474415Y-108529719D01*
X112474415Y-108529719D02*
X112536675Y-109179685D01*
X112536675Y-109179685D02*
X112638494Y-109825112D01*
X112638494Y-109825112D02*
X112810939Y-110676015D01*
X112810939Y-110676015D02*
X113003446Y-111500296D01*
X113003446Y-111500296D02*
X113165449Y-112065856D01*
X113165449Y-112065856D02*
X113378039Y-112595897D01*
X113378039Y-112595897D02*
X113615379Y-113079860D01*
X113615379Y-113079860D02*
X113877441Y-113517713D01*
X113877441Y-113517713D02*
X114164199Y-113909424D01*
X114164199Y-113909424D02*
X114475628Y-114254962D01*
X114475628Y-114254962D02*
X114811701Y-114554294D01*
X114811701Y-114554294D02*
X115172393Y-114807389D01*
X115172393Y-114807389D02*
X115557676Y-115014214D01*
X115557676Y-115014214D02*
X115824861Y-115132922D01*
X115824861Y-115132922D02*
X116066762Y-115225365D01*
X116066762Y-115225365D02*
X116308098Y-115295242D01*
X116308098Y-115295242D02*
X116573583Y-115346256D01*
X116573583Y-115346256D02*
X116887935Y-115382109D01*
X116887935Y-115382109D02*
X117275868Y-115406503D01*
X117275868Y-115406503D02*
X118371348Y-115435716D01*
X118371348Y-115435716D02*
X120036768Y-115464646D01*
X120036768Y-115464646D02*
X120042068Y-116091433D01*
X120042068Y-116091433D02*
X120058825Y-117242405D01*
X120058825Y-117242405D02*
X120086519Y-118163355D01*
X120086519Y-118163355D02*
X120123868Y-118822952D01*
X120123868Y-118822952D02*
X120169587Y-119189865D01*
X120169587Y-119189865D02*
X120231819Y-119417022D01*
X120231819Y-119417022D02*
X120310523Y-119640550D01*
X120310523Y-119640550D02*
X120405311Y-119860031D01*
X120405311Y-119860031D02*
X120515793Y-120075045D01*
X120515793Y-120075045D02*
X120641580Y-120285174D01*
X120641580Y-120285174D02*
X120782283Y-120489998D01*
X120782283Y-120489998D02*
X121106877Y-120882058D01*
X121106877Y-120882058D02*
X121486464Y-121247872D01*
X121486464Y-121247872D02*
X121917927Y-121584090D01*
X121917927Y-121584090D02*
X122398155Y-121887360D01*
X122398155Y-121887360D02*
X122924031Y-122154329D01*
X122924031Y-122154329D02*
X123296904Y-122309474D01*
X123296904Y-122309474D02*
X123715706Y-122459697D01*
X123715706Y-122459697D02*
X124170311Y-122602380D01*
X124170311Y-122602380D02*
X124650593Y-122734906D01*
X124650593Y-122734906D02*
X125146426Y-122854659D01*
X125146426Y-122854659D02*
X125647684Y-122959021D01*
X125647684Y-122959021D02*
X126144241Y-123045374D01*
X126144241Y-123045374D02*
X126625972Y-123111103D01*
X126625972Y-123111103D02*
X126625705Y-123111039D01*
X126625705Y-123111039D02*
X127242380Y-123160170D01*
X127242380Y-123160170D02*
X127896949Y-123170812D01*
X127896949Y-123170812D02*
X128578295Y-123144234D01*
X128578295Y-123144234D02*
X129275302Y-123081706D01*
X129275302Y-123081706D02*
X129976853Y-122984498D01*
X129976853Y-122984498D02*
X130671831Y-122853879D01*
X130671831Y-122853879D02*
X131349120Y-122691120D01*
X131349120Y-122691120D02*
X131997601Y-122497490D01*
X131997601Y-122497490D02*
X132373622Y-122365249D01*
X132373622Y-122365249D02*
X132729706Y-122224031D01*
X132729706Y-122224031D02*
X133065872Y-122073820D01*
X133065872Y-122073820D02*
X133382137Y-121914599D01*
X133382137Y-121914599D02*
X133678521Y-121746351D01*
X133678521Y-121746351D02*
X133955043Y-121569060D01*
X133955043Y-121569060D02*
X134211721Y-121382710D01*
X134211721Y-121382710D02*
X134448574Y-121187283D01*
X134448574Y-121187283D02*
X134665622Y-120982764D01*
X134665622Y-120982764D02*
X134862881Y-120769135D01*
X134862881Y-120769135D02*
X135040373Y-120546380D01*
X135040373Y-120546380D02*
X135198114Y-120314483D01*
X135198114Y-120314483D02*
X135336124Y-120073428D01*
X135336124Y-120073428D02*
X135454422Y-119823197D01*
X135454422Y-119823197D02*
X135553026Y-119563774D01*
X135553026Y-119563774D02*
X135631955Y-119295142D01*
X135631955Y-119295142D02*
X135688750Y-118880454D01*
X135688750Y-118880454D02*
X135734874Y-118159201D01*
X135734874Y-118159201D02*
X135767623Y-117189450D01*
X135767623Y-117189450D02*
X135784293Y-116029262D01*
X135784293Y-116029262D02*
X135788193Y-115463953D01*
X135788193Y-115463953D02*
X137578130Y-115435103D01*
X137578130Y-115435103D02*
X138530791Y-115415896D01*
X138530791Y-115415896D02*
X139124507Y-115390209D01*
X139124507Y-115390209D02*
X139485908Y-115349200D01*
X139485908Y-115349200D02*
X139741621Y-115284028D01*
X139741621Y-115284028D02*
X140157092Y-115124318D01*
X140157092Y-115124318D02*
X140540937Y-114926541D01*
X140540937Y-114926541D02*
X140895312Y-114688624D01*
X140895312Y-114688624D02*
X141222372Y-114408495D01*
X141222372Y-114408495D02*
X141524273Y-114084080D01*
X141524273Y-114084080D02*
X141803172Y-113713308D01*
X141803172Y-113713308D02*
X142061224Y-113294107D01*
X142061224Y-113294107D02*
X142300585Y-112824403D01*
X142300585Y-112824403D02*
X142558067Y-112201439D01*
X142558067Y-112201439D02*
X142819573Y-111448883D01*
X142819573Y-111448883D02*
X143055588Y-110658270D01*
X143055588Y-110658270D02*
X143236600Y-109921134D01*
X143236600Y-109921134D02*
X143329190Y-109446454D01*
X143329190Y-109446454D02*
X143379259Y-109032863D01*
X143379259Y-109032863D02*
X143398594Y-108522735D01*
X143398594Y-108522735D02*
X143398984Y-107758445D01*
X143398984Y-107758445D02*
X143368325Y-106750561D01*
X143368325Y-106750561D02*
X143342246Y-106400545D01*
X143342246Y-106400545D02*
X143315684Y-106214220D01*
X143315684Y-106214220D02*
X143206706Y-105529486D01*
X143206706Y-105529486D02*
X143090341Y-104900476D01*
X143090341Y-104900476D02*
X142967015Y-104324352D01*
X142967015Y-104324352D02*
X142837152Y-103798277D01*
X142837152Y-103798277D02*
X142701176Y-103319415D01*
X142701176Y-103319415D02*
X142559512Y-102884928D01*
X142559512Y-102884928D02*
X142412584Y-102491980D01*
X142412584Y-102491980D02*
X142260817Y-102137732D01*
X142260817Y-102137732D02*
X142104636Y-101819348D01*
X142104636Y-101819348D02*
X141944464Y-101533991D01*
X141944464Y-101533991D02*
X141780727Y-101278825D01*
X141780727Y-101278825D02*
X141613849Y-101051010D01*
X141613849Y-101051010D02*
X141444254Y-100847712D01*
X141444254Y-100847712D02*
X141272367Y-100666092D01*
X141272367Y-100666092D02*
X140923414Y-100356540D01*
X140923414Y-100356540D02*
X140923373Y-100356541D01*
X140923373Y-100356541D02*
X140620254Y-100137035D01*
X140620254Y-100137035D02*
X140339971Y-99973021D01*
X140339971Y-99973021D02*
X140077147Y-99855988D01*
X140077147Y-99855988D02*
X139826404Y-99777424D01*
X139826404Y-99777424D02*
X139582364Y-99728821D01*
X139582364Y-99728821D02*
X139339649Y-99701666D01*
X139339649Y-99701666D02*
X138836685Y-99677660D01*
X138836685Y-99677660D02*
X135719626Y-99660480D01*
X135719626Y-99660480D02*
X135711026Y-96360599D01*
X135711026Y-96360599D02*
X135695756Y-95837962D01*
X135695756Y-95837962D02*
X135661159Y-95612224D01*
X135661159Y-95612224D02*
X135610463Y-95413122D01*
X135610463Y-95413122D02*
X135546929Y-95237262D01*
X135546929Y-95237262D02*
X135473817Y-95081248D01*
X135473817Y-95081248D02*
X135311903Y-94815173D01*
X135311903Y-94815173D02*
X135150806Y-94587728D01*
X135150806Y-94587728D02*
X134998452Y-94370546D01*
X134998452Y-94370546D02*
X134815046Y-94144428D01*
X134815046Y-94144428D02*
X134590463Y-93910133D01*
X134590463Y-93910133D02*
X134314577Y-93668418D01*
X134314577Y-93668418D02*
X133977262Y-93420040D01*
X133977262Y-93420040D02*
X133568394Y-93165758D01*
X133568394Y-93165758D02*
X133077847Y-92906328D01*
X133077847Y-92906328D02*
X132495495Y-92642509D01*
X132495495Y-92642509D02*
X132148379Y-92535853D01*
X132148379Y-92535853D02*
X131700620Y-92444693D01*
X131700620Y-92444693D02*
X131165234Y-92369388D01*
X131165234Y-92369388D02*
X130555240Y-92310292D01*
X130555240Y-92310292D02*
X129883655Y-92267764D01*
X129883655Y-92267764D02*
X129163497Y-92242158D01*
X129163497Y-92242158D02*
X128407784Y-92233832D01*
X128407784Y-92233832D02*
X127629532Y-92243142D01*
X127629532Y-92243142D02*
X126841760Y-92270444D01*
X126841760Y-92270444D02*
X126057486Y-92316096D01*
X126057486Y-92316096D02*
X125289727Y-92380453D01*
X125289727Y-92380453D02*
X124551501Y-92463871D01*
X124551501Y-92463871D02*
X123855825Y-92566708D01*
X123855825Y-92566708D02*
X123215717Y-92689320D01*
X123215717Y-92689320D02*
X122644195Y-92832064D01*
X122644195Y-92832064D02*
X122154276Y-92995295D01*
X122154276Y-92995295D02*
X121908879Y-93111559D01*
X121908879Y-93111559D02*
X121682816Y-93235383D01*
X121682816Y-93235383D02*
X121475314Y-93366566D01*
X121475314Y-93366566D02*
X121285601Y-93504904D01*
X121285601Y-93504904D02*
X121112904Y-93650194D01*
X121112904Y-93650194D02*
X120956448Y-93802234D01*
X120956448Y-93802234D02*
X120815462Y-93960821D01*
X120815462Y-93960821D02*
X120689171Y-94125753D01*
X120689171Y-94125753D02*
X120477585Y-94473837D01*
X120477585Y-94473837D02*
X120315504Y-94844866D01*
X120315504Y-94844866D02*
X120196744Y-95237217D01*
X120196744Y-95237217D02*
X120115120Y-95649267D01*
X120115120Y-95649267D02*
X120064447Y-96079396D01*
X120064447Y-96079396D02*
X120038539Y-96525981D01*
X120038539Y-96525981D02*
X120036280Y-97462031D01*
X120036280Y-97462031D02*
X120058863Y-98444440D01*
X120058863Y-98444440D02*
X120056808Y-99460234D01*
X120056808Y-99460234D02*
X120056778Y-99460233D01*
M02*
