%TF.GenerationSoftware,KiCad,Pcbnew,(6.0.9)*%
%TF.CreationDate,2022-11-12T13:39:38-06:00*%
%TF.ProjectId,ZoeBirthdayRing,5a6f6542-6972-4746-9864-617952696e67,rev?*%
%TF.SameCoordinates,Original*%
%TF.FileFunction,Legend,Bot*%
%TF.FilePolarity,Positive*%
%FSLAX46Y46*%
G04 Gerber Fmt 4.6, Leading zero omitted, Abs format (unit mm)*
G04 Created by KiCad (PCBNEW (6.0.9)) date 2022-11-12 13:39:38*
%MOMM*%
%LPD*%
G01*
G04 APERTURE LIST*
%ADD10C,0.120000*%
G04 APERTURE END LIST*
%TO.C,kibuzzard-636FCE78*%
G36*
X151395469Y-103417284D02*
G01*
X151266977Y-103398224D01*
X151140973Y-103366661D01*
X151018668Y-103322900D01*
X150901242Y-103267362D01*
X150789825Y-103200581D01*
X150685491Y-103123201D01*
X150589243Y-103035967D01*
X150502009Y-102939719D01*
X150424629Y-102835385D01*
X150357848Y-102723968D01*
X150302310Y-102606542D01*
X150258549Y-102484237D01*
X150238412Y-102403847D01*
X151922085Y-102403847D01*
X151924942Y-102471475D01*
X151943040Y-102523863D01*
X151994713Y-102565296D01*
X152088772Y-102579108D01*
X152184499Y-102569821D01*
X152241172Y-102541960D01*
X152269033Y-102487429D01*
X152278320Y-102398133D01*
X152259270Y-102286690D01*
X152201168Y-102236208D01*
X152101155Y-102225269D01*
X152079248Y-102222873D01*
X151959233Y-102259068D01*
X151922085Y-102373367D01*
X151922085Y-102403847D01*
X150238412Y-102403847D01*
X150226986Y-102358233D01*
X150207926Y-102229741D01*
X150201552Y-102100000D01*
X150207926Y-101970259D01*
X150213972Y-101929503D01*
X151931610Y-101929503D01*
X151934467Y-101988557D01*
X151952565Y-102031420D01*
X152004000Y-102064758D01*
X152101155Y-102074283D01*
X152198310Y-102064758D01*
X152248793Y-102030468D01*
X152265937Y-101986652D01*
X152268795Y-101927597D01*
X152268795Y-101704712D01*
X152383095Y-101704712D01*
X152398335Y-101769483D01*
X152413575Y-101801867D01*
X152912685Y-102918198D01*
X152938403Y-102973443D01*
X152971740Y-103009638D01*
X153028890Y-103026783D01*
X153129855Y-102998208D01*
X153214151Y-102943915D01*
X153242250Y-102880098D01*
X153230820Y-102835687D01*
X153196530Y-102748176D01*
X153139380Y-102617565D01*
X153059370Y-102443853D01*
X153080871Y-102407658D01*
X153581340Y-102407658D01*
X153584198Y-102473380D01*
X153600390Y-102523863D01*
X153646348Y-102561010D01*
X153730882Y-102573393D01*
X153869948Y-102547675D01*
X153910905Y-102472428D01*
X154004964Y-102548151D01*
X154146172Y-102573393D01*
X154253382Y-102556671D01*
X154355299Y-102506506D01*
X154451925Y-102422898D01*
X154530242Y-102317170D01*
X154577232Y-102200648D01*
X154592895Y-102073330D01*
X154577126Y-101946118D01*
X154545932Y-101869495D01*
X154688145Y-101869495D01*
X154700944Y-102009572D01*
X154739342Y-102139291D01*
X154803338Y-102258651D01*
X154892933Y-102367653D01*
X155000744Y-102458497D01*
X155119389Y-102523386D01*
X155248870Y-102562320D01*
X155389185Y-102575298D01*
X155737800Y-102575298D01*
X155832098Y-102563391D01*
X155882580Y-102527673D01*
X155905440Y-102405753D01*
X155905440Y-102161913D01*
X156029265Y-102161913D01*
X156039743Y-102248590D01*
X156073080Y-102295263D01*
X156168330Y-102312408D01*
X156621720Y-102312408D01*
X156706969Y-102296215D01*
X156749355Y-102247637D01*
X156758880Y-102160008D01*
X156754562Y-102127622D01*
X156854130Y-102127622D01*
X156870323Y-102247743D01*
X156913820Y-102354106D01*
X156984623Y-102446710D01*
X157075110Y-102518148D01*
X157177663Y-102561010D01*
X157292280Y-102575298D01*
X157793295Y-102575298D01*
X157899023Y-102557200D01*
X157949505Y-102502908D01*
X157960935Y-102403847D01*
X157960935Y-101704712D01*
X158547675Y-101704712D01*
X158562915Y-101769483D01*
X158578155Y-101801867D01*
X159077265Y-102918198D01*
X159102983Y-102973443D01*
X159136320Y-103009638D01*
X159193470Y-103026783D01*
X159294435Y-102998208D01*
X159378731Y-102943915D01*
X159406830Y-102880098D01*
X159395400Y-102835687D01*
X159361110Y-102748176D01*
X159303960Y-102617565D01*
X159223950Y-102443853D01*
X159450276Y-102062852D01*
X159717345Y-102062852D01*
X159732691Y-102187101D01*
X159778728Y-102300766D01*
X159855458Y-102403847D01*
X159949543Y-102485339D01*
X160047651Y-102534234D01*
X160149780Y-102550533D01*
X160284559Y-102528625D01*
X160376475Y-102462902D01*
X160376475Y-102847713D01*
X160379333Y-102912483D01*
X160396478Y-102961060D01*
X160445055Y-103000113D01*
X160538400Y-103011543D01*
X160632698Y-103000113D01*
X160682228Y-102962013D01*
X160699373Y-102914388D01*
X160702230Y-102849617D01*
X160702230Y-102062852D01*
X160826055Y-102062852D01*
X160841401Y-102187101D01*
X160887438Y-102300766D01*
X160964168Y-102403847D01*
X161058253Y-102485339D01*
X161156361Y-102534234D01*
X161258490Y-102550533D01*
X161393269Y-102528625D01*
X161485185Y-102462902D01*
X161485185Y-102847713D01*
X161488043Y-102912483D01*
X161505188Y-102961060D01*
X161553765Y-103000113D01*
X161647110Y-103011543D01*
X161741408Y-103000113D01*
X161790938Y-102962013D01*
X161808083Y-102914388D01*
X161810940Y-102849617D01*
X161810940Y-102407658D01*
X161963340Y-102407658D01*
X161966198Y-102473380D01*
X161982390Y-102523863D01*
X162028348Y-102561010D01*
X162112883Y-102573393D01*
X162251948Y-102547675D01*
X162292905Y-102472428D01*
X162386964Y-102548151D01*
X162528173Y-102573393D01*
X162635382Y-102556671D01*
X162737299Y-102506506D01*
X162833925Y-102422898D01*
X162845214Y-102407658D01*
X163098720Y-102407658D01*
X163101578Y-102473380D01*
X163119675Y-102523863D01*
X163170158Y-102562439D01*
X163268265Y-102575298D01*
X163373993Y-102557676D01*
X163424475Y-102504813D01*
X163435905Y-102405753D01*
X163435905Y-102019038D01*
X163940730Y-102019038D01*
X163940730Y-102407658D01*
X163943588Y-102473380D01*
X163961685Y-102523863D01*
X164012168Y-102562439D01*
X164110275Y-102575298D01*
X164216003Y-102557676D01*
X164266485Y-102504813D01*
X164277915Y-102405753D01*
X164277915Y-101348477D01*
X164275058Y-101282755D01*
X164256960Y-101232273D01*
X164206478Y-101193696D01*
X164108370Y-101180838D01*
X164002166Y-101198459D01*
X163950255Y-101251322D01*
X163940730Y-101350383D01*
X163940730Y-101739002D01*
X163435905Y-101739002D01*
X163435905Y-101348477D01*
X163433048Y-101282755D01*
X163414950Y-101232273D01*
X163363515Y-101192267D01*
X163272075Y-101180838D01*
X163184445Y-101190362D01*
X163134915Y-101213222D01*
X163108245Y-101251322D01*
X163098720Y-101350383D01*
X163098720Y-102407658D01*
X162845214Y-102407658D01*
X162912242Y-102317170D01*
X162959232Y-102200648D01*
X162974895Y-102073330D01*
X162959126Y-101946118D01*
X162911818Y-101829913D01*
X162832973Y-101724715D01*
X162735288Y-101641636D01*
X162631466Y-101591788D01*
X162521505Y-101575172D01*
X162403395Y-101598032D01*
X162329100Y-101640895D01*
X162294810Y-101679947D01*
X162251471Y-101599938D01*
X162144315Y-101573268D01*
X162033825Y-101584698D01*
X161983343Y-101624702D01*
X161966198Y-101675185D01*
X161963340Y-101740908D01*
X161963340Y-102407658D01*
X161810940Y-102407658D01*
X161810940Y-101737098D01*
X161808083Y-101672327D01*
X161791890Y-101624702D01*
X161746646Y-101586126D01*
X161664255Y-101573268D01*
X161528048Y-101598985D01*
X161487090Y-101674233D01*
X161393983Y-101599937D01*
X161259443Y-101575172D01*
X161157737Y-101591471D01*
X161059629Y-101640366D01*
X160965120Y-101721858D01*
X160887862Y-101824939D01*
X160841507Y-101938604D01*
X160826055Y-102062852D01*
X160702230Y-102062852D01*
X160702230Y-101737098D01*
X160699373Y-101672327D01*
X160683180Y-101624702D01*
X160637936Y-101586126D01*
X160555545Y-101573268D01*
X160419338Y-101598985D01*
X160378380Y-101674233D01*
X160285273Y-101599937D01*
X160150733Y-101575172D01*
X160049027Y-101591471D01*
X159950919Y-101640366D01*
X159856410Y-101721858D01*
X159779152Y-101824939D01*
X159732797Y-101938604D01*
X159717345Y-102062852D01*
X159450276Y-102062852D01*
X159603045Y-101805677D01*
X159641145Y-101712332D01*
X159615428Y-101651372D01*
X159538275Y-101590412D01*
X159437310Y-101552312D01*
X159378255Y-101567552D01*
X159344918Y-101598985D01*
X159313485Y-101651372D01*
X159240143Y-101776150D01*
X159178230Y-101881031D01*
X159118223Y-101981043D01*
X159060120Y-102076187D01*
X159029640Y-102002131D01*
X158957250Y-101840920D01*
X158885574Y-101683996D01*
X158857238Y-101622797D01*
X158835330Y-101590412D01*
X158765798Y-101558027D01*
X158660070Y-101584698D01*
X158575774Y-101639466D01*
X158547675Y-101704712D01*
X157960935Y-101704712D01*
X157960935Y-101346573D01*
X157958078Y-101279897D01*
X157939980Y-101230368D01*
X157889498Y-101191791D01*
X157791390Y-101178933D01*
X157311330Y-101178933D01*
X157200840Y-101192479D01*
X157103050Y-101233119D01*
X157017960Y-101300852D01*
X156949168Y-101388906D01*
X156907893Y-101487966D01*
X156894135Y-101598032D01*
X156912233Y-101718524D01*
X156966525Y-101828537D01*
X156904083Y-101921036D01*
X156866618Y-102020731D01*
X156854130Y-102127622D01*
X156754562Y-102127622D01*
X156747450Y-102074283D01*
X156711255Y-102028563D01*
X156619815Y-102011418D01*
X156166425Y-102011418D01*
X156081652Y-102027134D01*
X156040695Y-102074283D01*
X156029265Y-102161913D01*
X155905440Y-102161913D01*
X155905440Y-101346573D01*
X155902583Y-101279897D01*
X155884485Y-101230368D01*
X155834003Y-101191791D01*
X155735895Y-101178933D01*
X155383470Y-101180838D01*
X155249525Y-101193280D01*
X155123914Y-101230606D01*
X155006637Y-101292816D01*
X154897695Y-101379910D01*
X154806017Y-101485161D01*
X154740532Y-101601842D01*
X154701242Y-101729954D01*
X154688145Y-101869495D01*
X154545932Y-101869495D01*
X154529818Y-101829913D01*
X154450973Y-101724715D01*
X154353288Y-101641636D01*
X154249466Y-101591788D01*
X154139505Y-101575172D01*
X154021395Y-101598032D01*
X153947100Y-101640895D01*
X153912810Y-101679947D01*
X153869471Y-101599938D01*
X153762315Y-101573268D01*
X153651825Y-101584698D01*
X153601342Y-101624702D01*
X153584198Y-101675185D01*
X153581340Y-101740908D01*
X153581340Y-102407658D01*
X153080871Y-102407658D01*
X153438465Y-101805677D01*
X153476565Y-101712332D01*
X153450847Y-101651372D01*
X153373695Y-101590412D01*
X153272730Y-101552312D01*
X153213675Y-101567552D01*
X153180337Y-101598985D01*
X153148905Y-101651372D01*
X153075563Y-101776150D01*
X153013650Y-101881031D01*
X152953642Y-101981043D01*
X152895540Y-102076187D01*
X152865060Y-102002131D01*
X152792670Y-101840920D01*
X152720994Y-101683996D01*
X152692658Y-101622797D01*
X152670750Y-101590412D01*
X152601217Y-101558027D01*
X152495490Y-101584698D01*
X152411194Y-101639466D01*
X152383095Y-101704712D01*
X152268795Y-101704712D01*
X152268795Y-101323713D01*
X152265937Y-101263705D01*
X152247840Y-101218937D01*
X152196405Y-101183695D01*
X152099250Y-101173218D01*
X152002095Y-101183695D01*
X151951613Y-101219890D01*
X151934467Y-101265610D01*
X151931610Y-101325617D01*
X151931610Y-101929503D01*
X150213972Y-101929503D01*
X150226986Y-101841767D01*
X150258549Y-101715763D01*
X150302310Y-101593458D01*
X150357848Y-101476032D01*
X150424629Y-101364615D01*
X150502009Y-101260281D01*
X150589243Y-101164033D01*
X150685491Y-101076799D01*
X150789825Y-100999419D01*
X150901242Y-100932638D01*
X151018668Y-100877100D01*
X151140973Y-100833339D01*
X151266977Y-100801776D01*
X151395469Y-100782716D01*
X151525210Y-100776342D01*
X164674790Y-100776342D01*
X164804531Y-100782716D01*
X164933023Y-100801776D01*
X165059027Y-100833339D01*
X165181332Y-100877100D01*
X165298758Y-100932638D01*
X165410175Y-100999419D01*
X165514509Y-101076799D01*
X165610757Y-101164033D01*
X165697991Y-101260281D01*
X165775371Y-101364615D01*
X165842152Y-101476032D01*
X165897690Y-101593458D01*
X165941451Y-101715763D01*
X165973014Y-101841767D01*
X165992074Y-101970259D01*
X165998448Y-102100000D01*
X165992074Y-102229741D01*
X165973014Y-102358233D01*
X165941451Y-102484237D01*
X165897690Y-102606542D01*
X165842152Y-102723968D01*
X165775371Y-102835385D01*
X165697991Y-102939719D01*
X165610757Y-103035967D01*
X165514509Y-103123201D01*
X165410175Y-103200581D01*
X165298758Y-103267362D01*
X165181332Y-103322900D01*
X165059027Y-103366661D01*
X164933023Y-103398224D01*
X164804531Y-103417284D01*
X164674790Y-103423658D01*
X151525210Y-103423658D01*
X151395469Y-103417284D01*
G37*
G36*
X155568255Y-102238113D02*
G01*
X155383470Y-102238113D01*
X155252978Y-102212633D01*
X155135820Y-102136195D01*
X155052953Y-102021181D01*
X155025330Y-101879972D01*
X155052238Y-101738288D01*
X155132963Y-101621845D01*
X155249882Y-101543978D01*
X155385375Y-101518023D01*
X155568255Y-101518023D01*
X155568255Y-102238113D01*
G37*
G36*
X157623750Y-102238113D02*
G01*
X157311330Y-102238113D01*
X157221319Y-102205728D01*
X157191315Y-102108573D01*
X157201793Y-102036183D01*
X157237035Y-101998083D01*
X157343715Y-101982843D01*
X157446585Y-101956173D01*
X157480875Y-101846635D01*
X157445633Y-101737098D01*
X157328475Y-101710427D01*
X157237035Y-101670423D01*
X157231320Y-101601842D01*
X157262753Y-101535167D01*
X157357050Y-101516117D01*
X157623750Y-101516117D01*
X157623750Y-102238113D01*
G37*
G36*
X154212848Y-101959983D02*
G01*
X154259520Y-102076187D01*
X154209990Y-102189535D01*
X154089975Y-102240017D01*
X153972817Y-102188582D01*
X153926145Y-102075235D01*
X153970912Y-101959983D01*
X154090928Y-101906642D01*
X154212848Y-101959983D01*
G37*
G36*
X162594848Y-101959983D02*
G01*
X162641520Y-102076187D01*
X162591990Y-102189535D01*
X162471975Y-102240017D01*
X162354818Y-102188582D01*
X162308145Y-102075235D01*
X162352913Y-101959983D01*
X162472928Y-101906642D01*
X162594848Y-101959983D01*
G37*
G36*
X160325040Y-101952363D02*
G01*
X160368855Y-102064758D01*
X160324088Y-102176200D01*
X160209788Y-102226683D01*
X160091678Y-102177153D01*
X160043100Y-102064758D01*
X160088820Y-101951410D01*
X160207883Y-101900928D01*
X160325040Y-101952363D01*
G37*
G36*
X161433750Y-101952363D02*
G01*
X161477565Y-102064758D01*
X161432798Y-102176200D01*
X161318498Y-102226683D01*
X161200388Y-102177153D01*
X161151810Y-102064758D01*
X161197530Y-101951410D01*
X161316593Y-101900928D01*
X161433750Y-101952363D01*
G37*
D10*
%TO.C,BT1*%
X168319965Y-96429278D02*
X167789635Y-96959608D01*
X160011461Y-104737783D02*
X157006257Y-101732579D01*
X157006257Y-101732579D02*
X157015244Y-100772301D01*
X162839888Y-101202249D02*
X163193441Y-101555802D01*
X168319965Y-91479531D02*
X158420470Y-81580036D01*
X168319965Y-96429278D02*
X168319965Y-91479531D01*
X153470723Y-81580036D02*
X152940393Y-82110366D01*
X148344199Y-86706560D02*
X145162218Y-89888540D01*
X167436082Y-96606055D02*
X162839888Y-101202249D01*
X163193441Y-101555802D02*
X160011461Y-104737783D01*
X148255810Y-92982133D02*
X145162218Y-89888540D01*
X167789635Y-96959608D02*
X167436082Y-96606055D01*
X153470723Y-81580036D02*
X158420470Y-81580036D01*
X153293946Y-82463919D02*
X148697752Y-87060113D01*
X152940393Y-82110366D02*
X153293946Y-82463919D01*
X148697752Y-87060113D02*
X148344199Y-86706560D01*
X148255810Y-92982133D02*
X149139694Y-92982133D01*
X149139694Y-92982133D02*
G75*
G03*
X157015244Y-100772301I8927223J1149049D01*
G01*
%TD*%
M02*
