M48
; DRILL file {KiCad 5.1.5} date Sat 28 Mar 2020 04:17:51 PM CDT
; FORMAT={-:-/ absolute / inch / decimal}
; #@! TF.CreationDate,2020-03-28T16:17:51-05:00
; #@! TF.GenerationSoftware,Kicad,Pcbnew,5.1.5
; #@! TF.FileFunction,Plated,1,2,PTH
FMAT,2
INCH
T1C0.0157
T2C0.0394
T3C0.0472
%
G90
G05
T1
X4.7047Y-4.0354
X4.7047Y-4.4685
X4.7047Y-4.8425
T2
X4.1024Y-3.872
X4.1024Y-3.972
X4.1024Y-4.072
X4.1024Y-4.172
X4.1024Y-4.272
X4.1024Y-4.372
X4.8724Y-4.2264
X4.8724Y-4.315
X4.8724Y-4.4035
X4.8724Y-4.4921
X4.8724Y-4.5807
X4.9724Y-4.1821
X4.9724Y-4.2707
X4.9724Y-4.3593
X4.9724Y-4.4478
X4.9724Y-4.5364
X5.0724Y-4.2264
X5.0724Y-4.315
X5.0724Y-4.4035
X5.0724Y-4.4921
X5.0724Y-4.5807
X4.1024Y-5.9717
X4.1024Y-6.0717
X4.1024Y-6.1717
X4.1024Y-6.2717
X4.1024Y-6.3717
X4.1024Y-5.2719
X4.1024Y-5.3719
X4.1024Y-5.4719
X4.1024Y-5.5719
X4.1024Y-5.6719
X4.1024Y-5.7719
X4.1024Y-4.572
X4.1024Y-4.672
X4.1024Y-4.772
X4.1024Y-4.872
X4.1024Y-4.972
X4.1024Y-5.072
T3
G00X4.9724Y-3.9508
M15
G01X4.9724Y-3.872
M16
G05
G00X4.9724Y-4.935
M15
G01X4.9724Y-4.8563
M16
G05
T0
M30
