G04 #@! TF.GenerationSoftware,KiCad,Pcbnew,5.1.5*
G04 #@! TF.CreationDate,2020-03-28T16:17:50-05:00*
G04 #@! TF.ProjectId,CavemanDAC,43617665-6d61-46e4-9441-432e6b696361,rev?*
G04 #@! TF.SameCoordinates,Original*
G04 #@! TF.FileFunction,Legend,Bot*
G04 #@! TF.FilePolarity,Positive*
%FSLAX46Y46*%
G04 Gerber Fmt 4.6, Leading zero omitted, Abs format (unit mm)*
G04 Created by KiCad (PCBNEW 5.1.5) date 2020-03-28 16:17:50*
%MOMM*%
%LPD*%
G04 APERTURE LIST*
%ADD10C,0.150000*%
G04 APERTURE END LIST*
D10*
X127636676Y-134312815D02*
X127636676Y-134211800D01*
X127687184Y-134060277D01*
X127788199Y-133959262D01*
X127939722Y-133908754D01*
X128040737Y-133908754D01*
X128192260Y-133959262D01*
X128293275Y-134060277D01*
X128343783Y-134211800D01*
X128343783Y-134312815D01*
X128293275Y-134464338D01*
X128192260Y-134565353D01*
X128040737Y-134615861D01*
X127939722Y-134615861D01*
X127535661Y-134211800D02*
X127939722Y-134615861D01*
X127939722Y-134716876D01*
X127889214Y-134767384D01*
X127737691Y-134817891D01*
X127586169Y-134767384D01*
X127333630Y-134514846D01*
X127283123Y-134262308D01*
X127333630Y-134009769D01*
X127485153Y-133757231D01*
X127737691Y-133605708D01*
X127990230Y-133555201D01*
X128242768Y-133605708D01*
X128495306Y-133757231D01*
X128646829Y-134009769D01*
X128697336Y-134262308D01*
X128646829Y-134514846D01*
X128495306Y-134767384D01*
X128242768Y-134918907D01*
X127990230Y-134969414D01*
X126828554Y-136131090D02*
X126677031Y-135272460D01*
X127434646Y-135524998D02*
X126373986Y-134464338D01*
X125969925Y-134868399D01*
X125919417Y-135019922D01*
X125919417Y-135120937D01*
X125969925Y-135272460D01*
X126121447Y-135423983D01*
X126272970Y-135474491D01*
X126373986Y-135474491D01*
X126525508Y-135423983D01*
X126929569Y-135019922D01*
X126373986Y-136585658D02*
X125313325Y-135524998D01*
X125717386Y-136636166D01*
X124606219Y-136232105D01*
X125666879Y-137292765D01*
X124909264Y-137444288D02*
X124404188Y-137949364D01*
X125313325Y-137646319D02*
X123899112Y-136939212D01*
X124606219Y-138353425D01*
X124606219Y-138555456D02*
X123798097Y-139363578D01*
X122888959Y-138959517D02*
X122535406Y-139313070D01*
X122939467Y-140020177D02*
X123444543Y-139515101D01*
X122383883Y-138454441D01*
X121878807Y-138959517D01*
X122333375Y-140626269D02*
X122383883Y-140474746D01*
X122333375Y-140323223D01*
X121424238Y-139414086D01*
X121474746Y-141383883D02*
X121626269Y-141333375D01*
X121828299Y-141131345D01*
X121878807Y-140979822D01*
X121828299Y-140828299D01*
X121424238Y-140424238D01*
X121272715Y-140373730D01*
X121121192Y-140424238D01*
X120919162Y-140626269D01*
X120868654Y-140777791D01*
X120919162Y-140929314D01*
X121020177Y-141030330D01*
X121626269Y-140626269D01*
X120515101Y-142343528D02*
X120666624Y-142293020D01*
X120868654Y-142090990D01*
X120919162Y-141939467D01*
X120919162Y-141838452D01*
X120868654Y-141686929D01*
X120565608Y-141383883D01*
X120414086Y-141333375D01*
X120313070Y-141333375D01*
X120161547Y-141383883D01*
X119959517Y-141585913D01*
X119909009Y-141737436D01*
X119555456Y-141989975D02*
X119151395Y-142394036D01*
X119050380Y-141787944D02*
X119959517Y-142697081D01*
X120010024Y-142848604D01*
X119959517Y-143000127D01*
X119858502Y-143101142D01*
X119504948Y-143454696D02*
X118797841Y-142747589D01*
X118999872Y-142949619D02*
X118848349Y-142899112D01*
X118747334Y-142899112D01*
X118595811Y-142949619D01*
X118494796Y-143050635D01*
X118696826Y-144262818D02*
X118747334Y-144111295D01*
X118747334Y-144010280D01*
X118696826Y-143858757D01*
X118393780Y-143555711D01*
X118242258Y-143505203D01*
X118141242Y-143505203D01*
X117989719Y-143555711D01*
X117838197Y-143707234D01*
X117787689Y-143858757D01*
X117787689Y-143959772D01*
X117838197Y-144111295D01*
X118141242Y-144414341D01*
X118292765Y-144464848D01*
X118393780Y-144464848D01*
X118545303Y-144414341D01*
X118696826Y-144262818D01*
X117181597Y-144363833D02*
X117888704Y-145070940D01*
X117282613Y-144464848D02*
X117181597Y-144464848D01*
X117030074Y-144515356D01*
X116878552Y-144666879D01*
X116828044Y-144818402D01*
X116878552Y-144969925D01*
X117434136Y-145525508D01*
X116929059Y-146030585D02*
X116221952Y-145323478D01*
X115868399Y-144969925D02*
X115969414Y-144969925D01*
X115969414Y-145070940D01*
X115868399Y-145070940D01*
X115868399Y-144969925D01*
X115969414Y-145070940D01*
X115918907Y-146939722D02*
X116070430Y-146889214D01*
X116272460Y-146687184D01*
X116322968Y-146535661D01*
X116322968Y-146434646D01*
X116272460Y-146283123D01*
X115969414Y-145980077D01*
X115817891Y-145929569D01*
X115716876Y-145929569D01*
X115565353Y-145980077D01*
X115363323Y-146182108D01*
X115312815Y-146333630D01*
X115514846Y-147343783D02*
X115464338Y-147495306D01*
X115262308Y-147697336D01*
X115110785Y-147747844D01*
X114959262Y-147697336D01*
X114908754Y-147646829D01*
X114858247Y-147495306D01*
X114908754Y-147343783D01*
X115060277Y-147192260D01*
X115110785Y-147040737D01*
X115060277Y-146889214D01*
X115009769Y-146838707D01*
X114858247Y-146788199D01*
X114706724Y-146838707D01*
X114555201Y-146990230D01*
X114504693Y-147141752D01*
M02*
