G04 #@! TF.GenerationSoftware,KiCad,Pcbnew,5.1.5*
G04 #@! TF.CreationDate,2020-03-28T16:17:50-05:00*
G04 #@! TF.ProjectId,CavemanDAC,43617665-6d61-46e4-9441-432e6b696361,rev?*
G04 #@! TF.SameCoordinates,Original*
G04 #@! TF.FileFunction,Copper,L2,Bot*
G04 #@! TF.FilePolarity,Positive*
%FSLAX46Y46*%
G04 Gerber Fmt 4.6, Leading zero omitted, Abs format (unit mm)*
G04 Created by KiCad (PCBNEW 5.1.5) date 2020-03-28 16:17:50*
%MOMM*%
%LPD*%
G04 APERTURE LIST*
%ADD10R,1.700000X1.700000*%
%ADD11O,1.700000X1.700000*%
%ADD12R,2.200000X4.000000*%
%ADD13C,1.600000*%
%ADD14C,0.800000*%
%ADD15C,0.254000*%
G04 APERTURE END LIST*
D10*
X104200000Y-98350000D03*
D11*
X104200000Y-100890000D03*
X104200000Y-103430000D03*
X104200000Y-105970000D03*
X104200000Y-108510000D03*
X104200000Y-111050000D03*
D10*
X104200000Y-116130000D03*
D11*
X104200000Y-118670000D03*
X104200000Y-121210000D03*
X104200000Y-123750000D03*
X104200000Y-126290000D03*
X104200000Y-128830000D03*
X104200000Y-146605000D03*
X104200000Y-144065000D03*
X104200000Y-141525000D03*
X104200000Y-138985000D03*
X104200000Y-136445000D03*
D10*
X104200000Y-133905000D03*
D12*
X126300000Y-124350000D03*
X126300000Y-99350000D03*
D13*
X126300000Y-110725000D03*
X126300000Y-112975000D03*
X126300000Y-106225000D03*
X126300000Y-108475000D03*
X126300000Y-115225000D03*
X128840000Y-114100000D03*
X128840000Y-109600000D03*
X128840000Y-116350000D03*
X128840000Y-107350000D03*
X128840000Y-111850000D03*
X123760000Y-109600000D03*
X123760000Y-107350000D03*
X123760000Y-114100000D03*
X123760000Y-111850000D03*
X123760000Y-116350000D03*
D10*
X104200000Y-151680000D03*
D11*
X104200000Y-154220000D03*
X104200000Y-156760000D03*
X104200000Y-159300000D03*
X104200000Y-161840000D03*
D14*
X119500000Y-113500000D03*
X119500000Y-123000000D03*
X119500000Y-102500000D03*
D15*
G36*
X135334130Y-96716626D02*
G01*
X135373000Y-96756737D01*
X135373000Y-127447394D01*
X109410197Y-153410197D01*
X109394403Y-153429443D01*
X109382667Y-153451399D01*
X109375440Y-153475224D01*
X109373000Y-153500000D01*
X109373000Y-163606151D01*
X109211803Y-163693310D01*
X108869344Y-163799319D01*
X108482288Y-163840000D01*
X104532279Y-163840000D01*
X104143224Y-163801853D01*
X104127000Y-163796955D01*
X104127000Y-161967000D01*
X104327000Y-161967000D01*
X104327000Y-163160814D01*
X104556891Y-163281481D01*
X104831252Y-163184157D01*
X105081355Y-163035178D01*
X105297588Y-162840269D01*
X105471641Y-162606920D01*
X105596825Y-162344099D01*
X105641476Y-162196890D01*
X105520155Y-161967000D01*
X104327000Y-161967000D01*
X104127000Y-161967000D01*
X104127000Y-161693000D01*
X104327000Y-161693000D01*
X104327000Y-161713000D01*
X105520155Y-161713000D01*
X105641476Y-161483110D01*
X105596825Y-161335901D01*
X105471641Y-161073080D01*
X105297588Y-160839731D01*
X105081355Y-160644822D01*
X104964466Y-160575195D01*
X105146632Y-160453475D01*
X105353475Y-160246632D01*
X105515990Y-160003411D01*
X105627932Y-159733158D01*
X105685000Y-159446260D01*
X105685000Y-159153740D01*
X105627932Y-158866842D01*
X105515990Y-158596589D01*
X105353475Y-158353368D01*
X105146632Y-158146525D01*
X104972240Y-158030000D01*
X105146632Y-157913475D01*
X105353475Y-157706632D01*
X105515990Y-157463411D01*
X105627932Y-157193158D01*
X105685000Y-156906260D01*
X105685000Y-156613740D01*
X105627932Y-156326842D01*
X105515990Y-156056589D01*
X105353475Y-155813368D01*
X105146632Y-155606525D01*
X104972240Y-155490000D01*
X105146632Y-155373475D01*
X105353475Y-155166632D01*
X105515990Y-154923411D01*
X105627932Y-154653158D01*
X105685000Y-154366260D01*
X105685000Y-154073740D01*
X105627932Y-153786842D01*
X105515990Y-153516589D01*
X105353475Y-153273368D01*
X105221620Y-153141513D01*
X105294180Y-153119502D01*
X105404494Y-153060537D01*
X105501185Y-152981185D01*
X105580537Y-152884494D01*
X105639502Y-152774180D01*
X105675812Y-152654482D01*
X105688072Y-152530000D01*
X105688072Y-150830000D01*
X105675812Y-150705518D01*
X105639502Y-150585820D01*
X105580537Y-150475506D01*
X105501185Y-150378815D01*
X105404494Y-150299463D01*
X105294180Y-150240498D01*
X105174482Y-150204188D01*
X105050000Y-150191928D01*
X104127000Y-150191928D01*
X104127000Y-148090000D01*
X104346260Y-148090000D01*
X104633158Y-148032932D01*
X104903411Y-147920990D01*
X105146632Y-147758475D01*
X105353475Y-147551632D01*
X105515990Y-147308411D01*
X105627932Y-147038158D01*
X105685000Y-146751260D01*
X105685000Y-146458740D01*
X105627932Y-146171842D01*
X105515990Y-145901589D01*
X105353475Y-145658368D01*
X105146632Y-145451525D01*
X104972240Y-145335000D01*
X105146632Y-145218475D01*
X105353475Y-145011632D01*
X105515990Y-144768411D01*
X105627932Y-144498158D01*
X105685000Y-144211260D01*
X105685000Y-143918740D01*
X105627932Y-143631842D01*
X105515990Y-143361589D01*
X105353475Y-143118368D01*
X105146632Y-142911525D01*
X104972240Y-142795000D01*
X105146632Y-142678475D01*
X105353475Y-142471632D01*
X105515990Y-142228411D01*
X105627932Y-141958158D01*
X105685000Y-141671260D01*
X105685000Y-141378740D01*
X105627932Y-141091842D01*
X105515990Y-140821589D01*
X105353475Y-140578368D01*
X105146632Y-140371525D01*
X104972240Y-140255000D01*
X105146632Y-140138475D01*
X105353475Y-139931632D01*
X105515990Y-139688411D01*
X105627932Y-139418158D01*
X105685000Y-139131260D01*
X105685000Y-138838740D01*
X105627932Y-138551842D01*
X105515990Y-138281589D01*
X105353475Y-138038368D01*
X105146632Y-137831525D01*
X104972240Y-137715000D01*
X105146632Y-137598475D01*
X105353475Y-137391632D01*
X105515990Y-137148411D01*
X105627932Y-136878158D01*
X105685000Y-136591260D01*
X105685000Y-136298740D01*
X105627932Y-136011842D01*
X105515990Y-135741589D01*
X105353475Y-135498368D01*
X105221620Y-135366513D01*
X105294180Y-135344502D01*
X105404494Y-135285537D01*
X105501185Y-135206185D01*
X105580537Y-135109494D01*
X105639502Y-134999180D01*
X105675812Y-134879482D01*
X105688072Y-134755000D01*
X105688072Y-133055000D01*
X105675812Y-132930518D01*
X105639502Y-132810820D01*
X105580537Y-132700506D01*
X105501185Y-132603815D01*
X105404494Y-132524463D01*
X105294180Y-132465498D01*
X105174482Y-132429188D01*
X105050000Y-132416928D01*
X104127000Y-132416928D01*
X104127000Y-130315000D01*
X104346260Y-130315000D01*
X104633158Y-130257932D01*
X104903411Y-130145990D01*
X105146632Y-129983475D01*
X105353475Y-129776632D01*
X105515990Y-129533411D01*
X105627932Y-129263158D01*
X105685000Y-128976260D01*
X105685000Y-128683740D01*
X105627932Y-128396842D01*
X105515990Y-128126589D01*
X105353475Y-127883368D01*
X105146632Y-127676525D01*
X104972240Y-127560000D01*
X105146632Y-127443475D01*
X105353475Y-127236632D01*
X105515990Y-126993411D01*
X105627932Y-126723158D01*
X105685000Y-126436260D01*
X105685000Y-126143740D01*
X105627932Y-125856842D01*
X105515990Y-125586589D01*
X105353475Y-125343368D01*
X105146632Y-125136525D01*
X104972240Y-125020000D01*
X105146632Y-124903475D01*
X105353475Y-124696632D01*
X105515990Y-124453411D01*
X105627932Y-124183158D01*
X105685000Y-123896260D01*
X105685000Y-123603740D01*
X105627932Y-123316842D01*
X105515990Y-123046589D01*
X105353475Y-122803368D01*
X105146632Y-122596525D01*
X104972240Y-122480000D01*
X105146632Y-122363475D01*
X105160107Y-122350000D01*
X124561928Y-122350000D01*
X124561928Y-126350000D01*
X124574188Y-126474482D01*
X124610498Y-126594180D01*
X124669463Y-126704494D01*
X124748815Y-126801185D01*
X124845506Y-126880537D01*
X124955820Y-126939502D01*
X125075518Y-126975812D01*
X125200000Y-126988072D01*
X127400000Y-126988072D01*
X127524482Y-126975812D01*
X127644180Y-126939502D01*
X127754494Y-126880537D01*
X127851185Y-126801185D01*
X127930537Y-126704494D01*
X127989502Y-126594180D01*
X128025812Y-126474482D01*
X128038072Y-126350000D01*
X128038072Y-122350000D01*
X128025812Y-122225518D01*
X127989502Y-122105820D01*
X127930537Y-121995506D01*
X127851185Y-121898815D01*
X127754494Y-121819463D01*
X127644180Y-121760498D01*
X127524482Y-121724188D01*
X127400000Y-121711928D01*
X125200000Y-121711928D01*
X125075518Y-121724188D01*
X124955820Y-121760498D01*
X124845506Y-121819463D01*
X124748815Y-121898815D01*
X124669463Y-121995506D01*
X124610498Y-122105820D01*
X124574188Y-122225518D01*
X124561928Y-122350000D01*
X105160107Y-122350000D01*
X105353475Y-122156632D01*
X105515990Y-121913411D01*
X105627932Y-121643158D01*
X105685000Y-121356260D01*
X105685000Y-121063740D01*
X105627932Y-120776842D01*
X105515990Y-120506589D01*
X105353475Y-120263368D01*
X105146632Y-120056525D01*
X104972240Y-119940000D01*
X105146632Y-119823475D01*
X105353475Y-119616632D01*
X105515990Y-119373411D01*
X105627932Y-119103158D01*
X105685000Y-118816260D01*
X105685000Y-118523740D01*
X105627932Y-118236842D01*
X105515990Y-117966589D01*
X105353475Y-117723368D01*
X105221620Y-117591513D01*
X105294180Y-117569502D01*
X105404494Y-117510537D01*
X105501185Y-117431185D01*
X105573800Y-117342702D01*
X122946903Y-117342702D01*
X123018486Y-117586671D01*
X123273996Y-117707571D01*
X123548184Y-117776300D01*
X123830512Y-117790217D01*
X124110130Y-117748787D01*
X124376292Y-117653603D01*
X124501514Y-117586671D01*
X124573097Y-117342702D01*
X123760000Y-116529605D01*
X122946903Y-117342702D01*
X105573800Y-117342702D01*
X105580537Y-117334494D01*
X105639502Y-117224180D01*
X105675812Y-117104482D01*
X105688072Y-116980000D01*
X105688072Y-116420512D01*
X122319783Y-116420512D01*
X122361213Y-116700130D01*
X122456397Y-116966292D01*
X122523329Y-117091514D01*
X122767298Y-117163097D01*
X123580395Y-116350000D01*
X122767298Y-115536903D01*
X122523329Y-115608486D01*
X122402429Y-115863996D01*
X122333700Y-116138184D01*
X122319783Y-116420512D01*
X105688072Y-116420512D01*
X105688072Y-115280000D01*
X105675812Y-115155518D01*
X105639502Y-115035820D01*
X105580537Y-114925506D01*
X105501185Y-114828815D01*
X105404494Y-114749463D01*
X105294180Y-114690498D01*
X105174482Y-114654188D01*
X105050000Y-114641928D01*
X104127000Y-114641928D01*
X104127000Y-112535000D01*
X104346260Y-112535000D01*
X104633158Y-112477932D01*
X104903411Y-112365990D01*
X105146632Y-112203475D01*
X105353475Y-111996632D01*
X105515990Y-111753411D01*
X105627932Y-111483158D01*
X105685000Y-111196260D01*
X105685000Y-110903740D01*
X105627932Y-110616842D01*
X105515990Y-110346589D01*
X105353475Y-110103368D01*
X105146632Y-109896525D01*
X104972240Y-109780000D01*
X105146632Y-109663475D01*
X105353475Y-109456632D01*
X105515990Y-109213411D01*
X105627932Y-108943158D01*
X105685000Y-108656260D01*
X105685000Y-108363740D01*
X105627932Y-108076842D01*
X105515990Y-107806589D01*
X105353475Y-107563368D01*
X105146632Y-107356525D01*
X104972240Y-107240000D01*
X105019136Y-107208665D01*
X122325000Y-107208665D01*
X122325000Y-107491335D01*
X122380147Y-107768574D01*
X122488320Y-108029727D01*
X122645363Y-108264759D01*
X122845241Y-108464637D01*
X122860750Y-108475000D01*
X122845241Y-108485363D01*
X122645363Y-108685241D01*
X122488320Y-108920273D01*
X122380147Y-109181426D01*
X122325000Y-109458665D01*
X122325000Y-109741335D01*
X122380147Y-110018574D01*
X122488320Y-110279727D01*
X122645363Y-110514759D01*
X122845241Y-110714637D01*
X122860750Y-110725000D01*
X122845241Y-110735363D01*
X122645363Y-110935241D01*
X122488320Y-111170273D01*
X122380147Y-111431426D01*
X122325000Y-111708665D01*
X122325000Y-111991335D01*
X122380147Y-112268574D01*
X122488320Y-112529727D01*
X122645363Y-112764759D01*
X122845241Y-112964637D01*
X122860750Y-112975000D01*
X122845241Y-112985363D01*
X122645363Y-113185241D01*
X122488320Y-113420273D01*
X122380147Y-113681426D01*
X122325000Y-113958665D01*
X122325000Y-114241335D01*
X122380147Y-114518574D01*
X122488320Y-114779727D01*
X122645363Y-115014759D01*
X122845241Y-115214637D01*
X122965236Y-115294815D01*
X122946903Y-115357298D01*
X123760000Y-116170395D01*
X124573097Y-115357298D01*
X124554764Y-115294815D01*
X124674759Y-115214637D01*
X124873570Y-115015826D01*
X124859783Y-115295512D01*
X124901213Y-115575130D01*
X124903350Y-115581105D01*
X124752702Y-115536903D01*
X123939605Y-116350000D01*
X124752702Y-117163097D01*
X124996671Y-117091514D01*
X125117571Y-116836004D01*
X125186300Y-116561816D01*
X125200217Y-116279488D01*
X125191063Y-116217702D01*
X125486903Y-116217702D01*
X125558486Y-116461671D01*
X125813996Y-116582571D01*
X126088184Y-116651300D01*
X126370512Y-116665217D01*
X126650130Y-116623787D01*
X126916292Y-116528603D01*
X127041514Y-116461671D01*
X127113097Y-116217702D01*
X126300000Y-115404605D01*
X125486903Y-116217702D01*
X125191063Y-116217702D01*
X125158787Y-115999870D01*
X125156650Y-115993895D01*
X125307298Y-116038097D01*
X126120395Y-115225000D01*
X125307298Y-114411903D01*
X125152008Y-114457467D01*
X125195000Y-114241335D01*
X125195000Y-113958665D01*
X125179569Y-113881087D01*
X125185363Y-113889759D01*
X125385241Y-114089637D01*
X125505236Y-114169815D01*
X125486903Y-114232298D01*
X126300000Y-115045395D01*
X127113097Y-114232298D01*
X127094764Y-114169815D01*
X127214759Y-114089637D01*
X127414637Y-113889759D01*
X127420431Y-113881087D01*
X127405000Y-113958665D01*
X127405000Y-114241335D01*
X127447992Y-114457467D01*
X127292702Y-114411903D01*
X126479605Y-115225000D01*
X127292702Y-116038097D01*
X127447992Y-115992533D01*
X127405000Y-116208665D01*
X127405000Y-116491335D01*
X127460147Y-116768574D01*
X127568320Y-117029727D01*
X127725363Y-117264759D01*
X127925241Y-117464637D01*
X128160273Y-117621680D01*
X128421426Y-117729853D01*
X128698665Y-117785000D01*
X128981335Y-117785000D01*
X129258574Y-117729853D01*
X129519727Y-117621680D01*
X129754759Y-117464637D01*
X129954637Y-117264759D01*
X130111680Y-117029727D01*
X130219853Y-116768574D01*
X130275000Y-116491335D01*
X130275000Y-116208665D01*
X130219853Y-115931426D01*
X130111680Y-115670273D01*
X129954637Y-115435241D01*
X129754759Y-115235363D01*
X129739250Y-115225000D01*
X129754759Y-115214637D01*
X129954637Y-115014759D01*
X130111680Y-114779727D01*
X130219853Y-114518574D01*
X130275000Y-114241335D01*
X130275000Y-113958665D01*
X130219853Y-113681426D01*
X130111680Y-113420273D01*
X129954637Y-113185241D01*
X129754759Y-112985363D01*
X129739250Y-112975000D01*
X129754759Y-112964637D01*
X129954637Y-112764759D01*
X130111680Y-112529727D01*
X130219853Y-112268574D01*
X130275000Y-111991335D01*
X130275000Y-111708665D01*
X130219853Y-111431426D01*
X130111680Y-111170273D01*
X129954637Y-110935241D01*
X129754759Y-110735363D01*
X129739250Y-110725000D01*
X129754759Y-110714637D01*
X129954637Y-110514759D01*
X130111680Y-110279727D01*
X130219853Y-110018574D01*
X130275000Y-109741335D01*
X130275000Y-109458665D01*
X130219853Y-109181426D01*
X130111680Y-108920273D01*
X129954637Y-108685241D01*
X129754759Y-108485363D01*
X129739250Y-108475000D01*
X129754759Y-108464637D01*
X129954637Y-108264759D01*
X130111680Y-108029727D01*
X130219853Y-107768574D01*
X130275000Y-107491335D01*
X130275000Y-107208665D01*
X130219853Y-106931426D01*
X130111680Y-106670273D01*
X129954637Y-106435241D01*
X129754759Y-106235363D01*
X129519727Y-106078320D01*
X129258574Y-105970147D01*
X128981335Y-105915000D01*
X128698665Y-105915000D01*
X128421426Y-105970147D01*
X128160273Y-106078320D01*
X127925241Y-106235363D01*
X127726430Y-106434174D01*
X127740217Y-106154488D01*
X127698787Y-105874870D01*
X127603603Y-105608708D01*
X127536671Y-105483486D01*
X127292702Y-105411903D01*
X126479605Y-106225000D01*
X127292702Y-107038097D01*
X127447992Y-106992533D01*
X127405000Y-107208665D01*
X127405000Y-107491335D01*
X127447992Y-107707467D01*
X127292702Y-107661903D01*
X126479605Y-108475000D01*
X127292702Y-109288097D01*
X127447992Y-109242533D01*
X127405000Y-109458665D01*
X127405000Y-109741335D01*
X127447992Y-109957467D01*
X127292702Y-109911903D01*
X126479605Y-110725000D01*
X127292702Y-111538097D01*
X127447992Y-111492533D01*
X127405000Y-111708665D01*
X127405000Y-111991335D01*
X127420431Y-112068913D01*
X127414637Y-112060241D01*
X127214759Y-111860363D01*
X127094764Y-111780185D01*
X127113097Y-111717702D01*
X126300000Y-110904605D01*
X125486903Y-111717702D01*
X125505236Y-111780185D01*
X125385241Y-111860363D01*
X125185363Y-112060241D01*
X125179569Y-112068913D01*
X125195000Y-111991335D01*
X125195000Y-111708665D01*
X125152008Y-111492533D01*
X125307298Y-111538097D01*
X126120395Y-110725000D01*
X125307298Y-109911903D01*
X125152008Y-109957467D01*
X125195000Y-109741335D01*
X125195000Y-109467702D01*
X125486903Y-109467702D01*
X125525721Y-109600000D01*
X125486903Y-109732298D01*
X126300000Y-110545395D01*
X127113097Y-109732298D01*
X127074279Y-109600000D01*
X127113097Y-109467702D01*
X126300000Y-108654605D01*
X125486903Y-109467702D01*
X125195000Y-109467702D01*
X125195000Y-109458665D01*
X125152008Y-109242533D01*
X125307298Y-109288097D01*
X126120395Y-108475000D01*
X125307298Y-107661903D01*
X125152008Y-107707467D01*
X125195000Y-107491335D01*
X125195000Y-107217702D01*
X125486903Y-107217702D01*
X125525721Y-107350000D01*
X125486903Y-107482298D01*
X126300000Y-108295395D01*
X127113097Y-107482298D01*
X127074279Y-107350000D01*
X127113097Y-107217702D01*
X126300000Y-106404605D01*
X125486903Y-107217702D01*
X125195000Y-107217702D01*
X125195000Y-107208665D01*
X125152008Y-106992533D01*
X125307298Y-107038097D01*
X126120395Y-106225000D01*
X125307298Y-105411903D01*
X125063329Y-105483486D01*
X124942429Y-105738996D01*
X124873700Y-106013184D01*
X124859783Y-106295512D01*
X124882153Y-106446489D01*
X124874637Y-106435241D01*
X124674759Y-106235363D01*
X124439727Y-106078320D01*
X124178574Y-105970147D01*
X123901335Y-105915000D01*
X123618665Y-105915000D01*
X123341426Y-105970147D01*
X123080273Y-106078320D01*
X122845241Y-106235363D01*
X122645363Y-106435241D01*
X122488320Y-106670273D01*
X122380147Y-106931426D01*
X122325000Y-107208665D01*
X105019136Y-107208665D01*
X105146632Y-107123475D01*
X105353475Y-106916632D01*
X105515990Y-106673411D01*
X105627932Y-106403158D01*
X105685000Y-106116260D01*
X105685000Y-105823740D01*
X105627932Y-105536842D01*
X105515990Y-105266589D01*
X105493078Y-105232298D01*
X125486903Y-105232298D01*
X126300000Y-106045395D01*
X127113097Y-105232298D01*
X127041514Y-104988329D01*
X126786004Y-104867429D01*
X126511816Y-104798700D01*
X126229488Y-104784783D01*
X125949870Y-104826213D01*
X125683708Y-104921397D01*
X125558486Y-104988329D01*
X125486903Y-105232298D01*
X105493078Y-105232298D01*
X105353475Y-105023368D01*
X105146632Y-104816525D01*
X104972240Y-104700000D01*
X105146632Y-104583475D01*
X105353475Y-104376632D01*
X105515990Y-104133411D01*
X105627932Y-103863158D01*
X105685000Y-103576260D01*
X105685000Y-103283740D01*
X105627932Y-102996842D01*
X105515990Y-102726589D01*
X105353475Y-102483368D01*
X105146632Y-102276525D01*
X104972240Y-102160000D01*
X105146632Y-102043475D01*
X105353475Y-101836632D01*
X105515990Y-101593411D01*
X105627932Y-101323158D01*
X105685000Y-101036260D01*
X105685000Y-100743740D01*
X105627932Y-100456842D01*
X105515990Y-100186589D01*
X105353475Y-99943368D01*
X105221620Y-99811513D01*
X105294180Y-99789502D01*
X105404494Y-99730537D01*
X105501185Y-99651185D01*
X105580537Y-99554494D01*
X105639502Y-99444180D01*
X105675812Y-99324482D01*
X105688072Y-99200000D01*
X105688072Y-97500000D01*
X105675812Y-97375518D01*
X105668072Y-97350000D01*
X124561928Y-97350000D01*
X124561928Y-101350000D01*
X124574188Y-101474482D01*
X124610498Y-101594180D01*
X124669463Y-101704494D01*
X124748815Y-101801185D01*
X124845506Y-101880537D01*
X124955820Y-101939502D01*
X125075518Y-101975812D01*
X125200000Y-101988072D01*
X127400000Y-101988072D01*
X127524482Y-101975812D01*
X127644180Y-101939502D01*
X127754494Y-101880537D01*
X127851185Y-101801185D01*
X127930537Y-101704494D01*
X127989502Y-101594180D01*
X128025812Y-101474482D01*
X128038072Y-101350000D01*
X128038072Y-97350000D01*
X128025812Y-97225518D01*
X127989502Y-97105820D01*
X127930537Y-96995506D01*
X127851185Y-96898815D01*
X127754494Y-96819463D01*
X127644180Y-96760498D01*
X127524482Y-96724188D01*
X127400000Y-96711928D01*
X125200000Y-96711928D01*
X125075518Y-96724188D01*
X124955820Y-96760498D01*
X124845506Y-96819463D01*
X124748815Y-96898815D01*
X124669463Y-96995506D01*
X124610498Y-97105820D01*
X124574188Y-97225518D01*
X124561928Y-97350000D01*
X105668072Y-97350000D01*
X105639502Y-97255820D01*
X105580537Y-97145506D01*
X105501185Y-97048815D01*
X105404494Y-96969463D01*
X105294180Y-96910498D01*
X105174482Y-96874188D01*
X105050000Y-96861928D01*
X104127000Y-96861928D01*
X104127000Y-96768190D01*
X104270403Y-96629223D01*
X104273711Y-96627000D01*
X135209402Y-96627000D01*
X135334130Y-96716626D01*
G37*
X135334130Y-96716626D02*
X135373000Y-96756737D01*
X135373000Y-127447394D01*
X109410197Y-153410197D01*
X109394403Y-153429443D01*
X109382667Y-153451399D01*
X109375440Y-153475224D01*
X109373000Y-153500000D01*
X109373000Y-163606151D01*
X109211803Y-163693310D01*
X108869344Y-163799319D01*
X108482288Y-163840000D01*
X104532279Y-163840000D01*
X104143224Y-163801853D01*
X104127000Y-163796955D01*
X104127000Y-161967000D01*
X104327000Y-161967000D01*
X104327000Y-163160814D01*
X104556891Y-163281481D01*
X104831252Y-163184157D01*
X105081355Y-163035178D01*
X105297588Y-162840269D01*
X105471641Y-162606920D01*
X105596825Y-162344099D01*
X105641476Y-162196890D01*
X105520155Y-161967000D01*
X104327000Y-161967000D01*
X104127000Y-161967000D01*
X104127000Y-161693000D01*
X104327000Y-161693000D01*
X104327000Y-161713000D01*
X105520155Y-161713000D01*
X105641476Y-161483110D01*
X105596825Y-161335901D01*
X105471641Y-161073080D01*
X105297588Y-160839731D01*
X105081355Y-160644822D01*
X104964466Y-160575195D01*
X105146632Y-160453475D01*
X105353475Y-160246632D01*
X105515990Y-160003411D01*
X105627932Y-159733158D01*
X105685000Y-159446260D01*
X105685000Y-159153740D01*
X105627932Y-158866842D01*
X105515990Y-158596589D01*
X105353475Y-158353368D01*
X105146632Y-158146525D01*
X104972240Y-158030000D01*
X105146632Y-157913475D01*
X105353475Y-157706632D01*
X105515990Y-157463411D01*
X105627932Y-157193158D01*
X105685000Y-156906260D01*
X105685000Y-156613740D01*
X105627932Y-156326842D01*
X105515990Y-156056589D01*
X105353475Y-155813368D01*
X105146632Y-155606525D01*
X104972240Y-155490000D01*
X105146632Y-155373475D01*
X105353475Y-155166632D01*
X105515990Y-154923411D01*
X105627932Y-154653158D01*
X105685000Y-154366260D01*
X105685000Y-154073740D01*
X105627932Y-153786842D01*
X105515990Y-153516589D01*
X105353475Y-153273368D01*
X105221620Y-153141513D01*
X105294180Y-153119502D01*
X105404494Y-153060537D01*
X105501185Y-152981185D01*
X105580537Y-152884494D01*
X105639502Y-152774180D01*
X105675812Y-152654482D01*
X105688072Y-152530000D01*
X105688072Y-150830000D01*
X105675812Y-150705518D01*
X105639502Y-150585820D01*
X105580537Y-150475506D01*
X105501185Y-150378815D01*
X105404494Y-150299463D01*
X105294180Y-150240498D01*
X105174482Y-150204188D01*
X105050000Y-150191928D01*
X104127000Y-150191928D01*
X104127000Y-148090000D01*
X104346260Y-148090000D01*
X104633158Y-148032932D01*
X104903411Y-147920990D01*
X105146632Y-147758475D01*
X105353475Y-147551632D01*
X105515990Y-147308411D01*
X105627932Y-147038158D01*
X105685000Y-146751260D01*
X105685000Y-146458740D01*
X105627932Y-146171842D01*
X105515990Y-145901589D01*
X105353475Y-145658368D01*
X105146632Y-145451525D01*
X104972240Y-145335000D01*
X105146632Y-145218475D01*
X105353475Y-145011632D01*
X105515990Y-144768411D01*
X105627932Y-144498158D01*
X105685000Y-144211260D01*
X105685000Y-143918740D01*
X105627932Y-143631842D01*
X105515990Y-143361589D01*
X105353475Y-143118368D01*
X105146632Y-142911525D01*
X104972240Y-142795000D01*
X105146632Y-142678475D01*
X105353475Y-142471632D01*
X105515990Y-142228411D01*
X105627932Y-141958158D01*
X105685000Y-141671260D01*
X105685000Y-141378740D01*
X105627932Y-141091842D01*
X105515990Y-140821589D01*
X105353475Y-140578368D01*
X105146632Y-140371525D01*
X104972240Y-140255000D01*
X105146632Y-140138475D01*
X105353475Y-139931632D01*
X105515990Y-139688411D01*
X105627932Y-139418158D01*
X105685000Y-139131260D01*
X105685000Y-138838740D01*
X105627932Y-138551842D01*
X105515990Y-138281589D01*
X105353475Y-138038368D01*
X105146632Y-137831525D01*
X104972240Y-137715000D01*
X105146632Y-137598475D01*
X105353475Y-137391632D01*
X105515990Y-137148411D01*
X105627932Y-136878158D01*
X105685000Y-136591260D01*
X105685000Y-136298740D01*
X105627932Y-136011842D01*
X105515990Y-135741589D01*
X105353475Y-135498368D01*
X105221620Y-135366513D01*
X105294180Y-135344502D01*
X105404494Y-135285537D01*
X105501185Y-135206185D01*
X105580537Y-135109494D01*
X105639502Y-134999180D01*
X105675812Y-134879482D01*
X105688072Y-134755000D01*
X105688072Y-133055000D01*
X105675812Y-132930518D01*
X105639502Y-132810820D01*
X105580537Y-132700506D01*
X105501185Y-132603815D01*
X105404494Y-132524463D01*
X105294180Y-132465498D01*
X105174482Y-132429188D01*
X105050000Y-132416928D01*
X104127000Y-132416928D01*
X104127000Y-130315000D01*
X104346260Y-130315000D01*
X104633158Y-130257932D01*
X104903411Y-130145990D01*
X105146632Y-129983475D01*
X105353475Y-129776632D01*
X105515990Y-129533411D01*
X105627932Y-129263158D01*
X105685000Y-128976260D01*
X105685000Y-128683740D01*
X105627932Y-128396842D01*
X105515990Y-128126589D01*
X105353475Y-127883368D01*
X105146632Y-127676525D01*
X104972240Y-127560000D01*
X105146632Y-127443475D01*
X105353475Y-127236632D01*
X105515990Y-126993411D01*
X105627932Y-126723158D01*
X105685000Y-126436260D01*
X105685000Y-126143740D01*
X105627932Y-125856842D01*
X105515990Y-125586589D01*
X105353475Y-125343368D01*
X105146632Y-125136525D01*
X104972240Y-125020000D01*
X105146632Y-124903475D01*
X105353475Y-124696632D01*
X105515990Y-124453411D01*
X105627932Y-124183158D01*
X105685000Y-123896260D01*
X105685000Y-123603740D01*
X105627932Y-123316842D01*
X105515990Y-123046589D01*
X105353475Y-122803368D01*
X105146632Y-122596525D01*
X104972240Y-122480000D01*
X105146632Y-122363475D01*
X105160107Y-122350000D01*
X124561928Y-122350000D01*
X124561928Y-126350000D01*
X124574188Y-126474482D01*
X124610498Y-126594180D01*
X124669463Y-126704494D01*
X124748815Y-126801185D01*
X124845506Y-126880537D01*
X124955820Y-126939502D01*
X125075518Y-126975812D01*
X125200000Y-126988072D01*
X127400000Y-126988072D01*
X127524482Y-126975812D01*
X127644180Y-126939502D01*
X127754494Y-126880537D01*
X127851185Y-126801185D01*
X127930537Y-126704494D01*
X127989502Y-126594180D01*
X128025812Y-126474482D01*
X128038072Y-126350000D01*
X128038072Y-122350000D01*
X128025812Y-122225518D01*
X127989502Y-122105820D01*
X127930537Y-121995506D01*
X127851185Y-121898815D01*
X127754494Y-121819463D01*
X127644180Y-121760498D01*
X127524482Y-121724188D01*
X127400000Y-121711928D01*
X125200000Y-121711928D01*
X125075518Y-121724188D01*
X124955820Y-121760498D01*
X124845506Y-121819463D01*
X124748815Y-121898815D01*
X124669463Y-121995506D01*
X124610498Y-122105820D01*
X124574188Y-122225518D01*
X124561928Y-122350000D01*
X105160107Y-122350000D01*
X105353475Y-122156632D01*
X105515990Y-121913411D01*
X105627932Y-121643158D01*
X105685000Y-121356260D01*
X105685000Y-121063740D01*
X105627932Y-120776842D01*
X105515990Y-120506589D01*
X105353475Y-120263368D01*
X105146632Y-120056525D01*
X104972240Y-119940000D01*
X105146632Y-119823475D01*
X105353475Y-119616632D01*
X105515990Y-119373411D01*
X105627932Y-119103158D01*
X105685000Y-118816260D01*
X105685000Y-118523740D01*
X105627932Y-118236842D01*
X105515990Y-117966589D01*
X105353475Y-117723368D01*
X105221620Y-117591513D01*
X105294180Y-117569502D01*
X105404494Y-117510537D01*
X105501185Y-117431185D01*
X105573800Y-117342702D01*
X122946903Y-117342702D01*
X123018486Y-117586671D01*
X123273996Y-117707571D01*
X123548184Y-117776300D01*
X123830512Y-117790217D01*
X124110130Y-117748787D01*
X124376292Y-117653603D01*
X124501514Y-117586671D01*
X124573097Y-117342702D01*
X123760000Y-116529605D01*
X122946903Y-117342702D01*
X105573800Y-117342702D01*
X105580537Y-117334494D01*
X105639502Y-117224180D01*
X105675812Y-117104482D01*
X105688072Y-116980000D01*
X105688072Y-116420512D01*
X122319783Y-116420512D01*
X122361213Y-116700130D01*
X122456397Y-116966292D01*
X122523329Y-117091514D01*
X122767298Y-117163097D01*
X123580395Y-116350000D01*
X122767298Y-115536903D01*
X122523329Y-115608486D01*
X122402429Y-115863996D01*
X122333700Y-116138184D01*
X122319783Y-116420512D01*
X105688072Y-116420512D01*
X105688072Y-115280000D01*
X105675812Y-115155518D01*
X105639502Y-115035820D01*
X105580537Y-114925506D01*
X105501185Y-114828815D01*
X105404494Y-114749463D01*
X105294180Y-114690498D01*
X105174482Y-114654188D01*
X105050000Y-114641928D01*
X104127000Y-114641928D01*
X104127000Y-112535000D01*
X104346260Y-112535000D01*
X104633158Y-112477932D01*
X104903411Y-112365990D01*
X105146632Y-112203475D01*
X105353475Y-111996632D01*
X105515990Y-111753411D01*
X105627932Y-111483158D01*
X105685000Y-111196260D01*
X105685000Y-110903740D01*
X105627932Y-110616842D01*
X105515990Y-110346589D01*
X105353475Y-110103368D01*
X105146632Y-109896525D01*
X104972240Y-109780000D01*
X105146632Y-109663475D01*
X105353475Y-109456632D01*
X105515990Y-109213411D01*
X105627932Y-108943158D01*
X105685000Y-108656260D01*
X105685000Y-108363740D01*
X105627932Y-108076842D01*
X105515990Y-107806589D01*
X105353475Y-107563368D01*
X105146632Y-107356525D01*
X104972240Y-107240000D01*
X105019136Y-107208665D01*
X122325000Y-107208665D01*
X122325000Y-107491335D01*
X122380147Y-107768574D01*
X122488320Y-108029727D01*
X122645363Y-108264759D01*
X122845241Y-108464637D01*
X122860750Y-108475000D01*
X122845241Y-108485363D01*
X122645363Y-108685241D01*
X122488320Y-108920273D01*
X122380147Y-109181426D01*
X122325000Y-109458665D01*
X122325000Y-109741335D01*
X122380147Y-110018574D01*
X122488320Y-110279727D01*
X122645363Y-110514759D01*
X122845241Y-110714637D01*
X122860750Y-110725000D01*
X122845241Y-110735363D01*
X122645363Y-110935241D01*
X122488320Y-111170273D01*
X122380147Y-111431426D01*
X122325000Y-111708665D01*
X122325000Y-111991335D01*
X122380147Y-112268574D01*
X122488320Y-112529727D01*
X122645363Y-112764759D01*
X122845241Y-112964637D01*
X122860750Y-112975000D01*
X122845241Y-112985363D01*
X122645363Y-113185241D01*
X122488320Y-113420273D01*
X122380147Y-113681426D01*
X122325000Y-113958665D01*
X122325000Y-114241335D01*
X122380147Y-114518574D01*
X122488320Y-114779727D01*
X122645363Y-115014759D01*
X122845241Y-115214637D01*
X122965236Y-115294815D01*
X122946903Y-115357298D01*
X123760000Y-116170395D01*
X124573097Y-115357298D01*
X124554764Y-115294815D01*
X124674759Y-115214637D01*
X124873570Y-115015826D01*
X124859783Y-115295512D01*
X124901213Y-115575130D01*
X124903350Y-115581105D01*
X124752702Y-115536903D01*
X123939605Y-116350000D01*
X124752702Y-117163097D01*
X124996671Y-117091514D01*
X125117571Y-116836004D01*
X125186300Y-116561816D01*
X125200217Y-116279488D01*
X125191063Y-116217702D01*
X125486903Y-116217702D01*
X125558486Y-116461671D01*
X125813996Y-116582571D01*
X126088184Y-116651300D01*
X126370512Y-116665217D01*
X126650130Y-116623787D01*
X126916292Y-116528603D01*
X127041514Y-116461671D01*
X127113097Y-116217702D01*
X126300000Y-115404605D01*
X125486903Y-116217702D01*
X125191063Y-116217702D01*
X125158787Y-115999870D01*
X125156650Y-115993895D01*
X125307298Y-116038097D01*
X126120395Y-115225000D01*
X125307298Y-114411903D01*
X125152008Y-114457467D01*
X125195000Y-114241335D01*
X125195000Y-113958665D01*
X125179569Y-113881087D01*
X125185363Y-113889759D01*
X125385241Y-114089637D01*
X125505236Y-114169815D01*
X125486903Y-114232298D01*
X126300000Y-115045395D01*
X127113097Y-114232298D01*
X127094764Y-114169815D01*
X127214759Y-114089637D01*
X127414637Y-113889759D01*
X127420431Y-113881087D01*
X127405000Y-113958665D01*
X127405000Y-114241335D01*
X127447992Y-114457467D01*
X127292702Y-114411903D01*
X126479605Y-115225000D01*
X127292702Y-116038097D01*
X127447992Y-115992533D01*
X127405000Y-116208665D01*
X127405000Y-116491335D01*
X127460147Y-116768574D01*
X127568320Y-117029727D01*
X127725363Y-117264759D01*
X127925241Y-117464637D01*
X128160273Y-117621680D01*
X128421426Y-117729853D01*
X128698665Y-117785000D01*
X128981335Y-117785000D01*
X129258574Y-117729853D01*
X129519727Y-117621680D01*
X129754759Y-117464637D01*
X129954637Y-117264759D01*
X130111680Y-117029727D01*
X130219853Y-116768574D01*
X130275000Y-116491335D01*
X130275000Y-116208665D01*
X130219853Y-115931426D01*
X130111680Y-115670273D01*
X129954637Y-115435241D01*
X129754759Y-115235363D01*
X129739250Y-115225000D01*
X129754759Y-115214637D01*
X129954637Y-115014759D01*
X130111680Y-114779727D01*
X130219853Y-114518574D01*
X130275000Y-114241335D01*
X130275000Y-113958665D01*
X130219853Y-113681426D01*
X130111680Y-113420273D01*
X129954637Y-113185241D01*
X129754759Y-112985363D01*
X129739250Y-112975000D01*
X129754759Y-112964637D01*
X129954637Y-112764759D01*
X130111680Y-112529727D01*
X130219853Y-112268574D01*
X130275000Y-111991335D01*
X130275000Y-111708665D01*
X130219853Y-111431426D01*
X130111680Y-111170273D01*
X129954637Y-110935241D01*
X129754759Y-110735363D01*
X129739250Y-110725000D01*
X129754759Y-110714637D01*
X129954637Y-110514759D01*
X130111680Y-110279727D01*
X130219853Y-110018574D01*
X130275000Y-109741335D01*
X130275000Y-109458665D01*
X130219853Y-109181426D01*
X130111680Y-108920273D01*
X129954637Y-108685241D01*
X129754759Y-108485363D01*
X129739250Y-108475000D01*
X129754759Y-108464637D01*
X129954637Y-108264759D01*
X130111680Y-108029727D01*
X130219853Y-107768574D01*
X130275000Y-107491335D01*
X130275000Y-107208665D01*
X130219853Y-106931426D01*
X130111680Y-106670273D01*
X129954637Y-106435241D01*
X129754759Y-106235363D01*
X129519727Y-106078320D01*
X129258574Y-105970147D01*
X128981335Y-105915000D01*
X128698665Y-105915000D01*
X128421426Y-105970147D01*
X128160273Y-106078320D01*
X127925241Y-106235363D01*
X127726430Y-106434174D01*
X127740217Y-106154488D01*
X127698787Y-105874870D01*
X127603603Y-105608708D01*
X127536671Y-105483486D01*
X127292702Y-105411903D01*
X126479605Y-106225000D01*
X127292702Y-107038097D01*
X127447992Y-106992533D01*
X127405000Y-107208665D01*
X127405000Y-107491335D01*
X127447992Y-107707467D01*
X127292702Y-107661903D01*
X126479605Y-108475000D01*
X127292702Y-109288097D01*
X127447992Y-109242533D01*
X127405000Y-109458665D01*
X127405000Y-109741335D01*
X127447992Y-109957467D01*
X127292702Y-109911903D01*
X126479605Y-110725000D01*
X127292702Y-111538097D01*
X127447992Y-111492533D01*
X127405000Y-111708665D01*
X127405000Y-111991335D01*
X127420431Y-112068913D01*
X127414637Y-112060241D01*
X127214759Y-111860363D01*
X127094764Y-111780185D01*
X127113097Y-111717702D01*
X126300000Y-110904605D01*
X125486903Y-111717702D01*
X125505236Y-111780185D01*
X125385241Y-111860363D01*
X125185363Y-112060241D01*
X125179569Y-112068913D01*
X125195000Y-111991335D01*
X125195000Y-111708665D01*
X125152008Y-111492533D01*
X125307298Y-111538097D01*
X126120395Y-110725000D01*
X125307298Y-109911903D01*
X125152008Y-109957467D01*
X125195000Y-109741335D01*
X125195000Y-109467702D01*
X125486903Y-109467702D01*
X125525721Y-109600000D01*
X125486903Y-109732298D01*
X126300000Y-110545395D01*
X127113097Y-109732298D01*
X127074279Y-109600000D01*
X127113097Y-109467702D01*
X126300000Y-108654605D01*
X125486903Y-109467702D01*
X125195000Y-109467702D01*
X125195000Y-109458665D01*
X125152008Y-109242533D01*
X125307298Y-109288097D01*
X126120395Y-108475000D01*
X125307298Y-107661903D01*
X125152008Y-107707467D01*
X125195000Y-107491335D01*
X125195000Y-107217702D01*
X125486903Y-107217702D01*
X125525721Y-107350000D01*
X125486903Y-107482298D01*
X126300000Y-108295395D01*
X127113097Y-107482298D01*
X127074279Y-107350000D01*
X127113097Y-107217702D01*
X126300000Y-106404605D01*
X125486903Y-107217702D01*
X125195000Y-107217702D01*
X125195000Y-107208665D01*
X125152008Y-106992533D01*
X125307298Y-107038097D01*
X126120395Y-106225000D01*
X125307298Y-105411903D01*
X125063329Y-105483486D01*
X124942429Y-105738996D01*
X124873700Y-106013184D01*
X124859783Y-106295512D01*
X124882153Y-106446489D01*
X124874637Y-106435241D01*
X124674759Y-106235363D01*
X124439727Y-106078320D01*
X124178574Y-105970147D01*
X123901335Y-105915000D01*
X123618665Y-105915000D01*
X123341426Y-105970147D01*
X123080273Y-106078320D01*
X122845241Y-106235363D01*
X122645363Y-106435241D01*
X122488320Y-106670273D01*
X122380147Y-106931426D01*
X122325000Y-107208665D01*
X105019136Y-107208665D01*
X105146632Y-107123475D01*
X105353475Y-106916632D01*
X105515990Y-106673411D01*
X105627932Y-106403158D01*
X105685000Y-106116260D01*
X105685000Y-105823740D01*
X105627932Y-105536842D01*
X105515990Y-105266589D01*
X105493078Y-105232298D01*
X125486903Y-105232298D01*
X126300000Y-106045395D01*
X127113097Y-105232298D01*
X127041514Y-104988329D01*
X126786004Y-104867429D01*
X126511816Y-104798700D01*
X126229488Y-104784783D01*
X125949870Y-104826213D01*
X125683708Y-104921397D01*
X125558486Y-104988329D01*
X125486903Y-105232298D01*
X105493078Y-105232298D01*
X105353475Y-105023368D01*
X105146632Y-104816525D01*
X104972240Y-104700000D01*
X105146632Y-104583475D01*
X105353475Y-104376632D01*
X105515990Y-104133411D01*
X105627932Y-103863158D01*
X105685000Y-103576260D01*
X105685000Y-103283740D01*
X105627932Y-102996842D01*
X105515990Y-102726589D01*
X105353475Y-102483368D01*
X105146632Y-102276525D01*
X104972240Y-102160000D01*
X105146632Y-102043475D01*
X105353475Y-101836632D01*
X105515990Y-101593411D01*
X105627932Y-101323158D01*
X105685000Y-101036260D01*
X105685000Y-100743740D01*
X105627932Y-100456842D01*
X105515990Y-100186589D01*
X105353475Y-99943368D01*
X105221620Y-99811513D01*
X105294180Y-99789502D01*
X105404494Y-99730537D01*
X105501185Y-99651185D01*
X105580537Y-99554494D01*
X105639502Y-99444180D01*
X105675812Y-99324482D01*
X105688072Y-99200000D01*
X105688072Y-97500000D01*
X105675812Y-97375518D01*
X105668072Y-97350000D01*
X124561928Y-97350000D01*
X124561928Y-101350000D01*
X124574188Y-101474482D01*
X124610498Y-101594180D01*
X124669463Y-101704494D01*
X124748815Y-101801185D01*
X124845506Y-101880537D01*
X124955820Y-101939502D01*
X125075518Y-101975812D01*
X125200000Y-101988072D01*
X127400000Y-101988072D01*
X127524482Y-101975812D01*
X127644180Y-101939502D01*
X127754494Y-101880537D01*
X127851185Y-101801185D01*
X127930537Y-101704494D01*
X127989502Y-101594180D01*
X128025812Y-101474482D01*
X128038072Y-101350000D01*
X128038072Y-97350000D01*
X128025812Y-97225518D01*
X127989502Y-97105820D01*
X127930537Y-96995506D01*
X127851185Y-96898815D01*
X127754494Y-96819463D01*
X127644180Y-96760498D01*
X127524482Y-96724188D01*
X127400000Y-96711928D01*
X125200000Y-96711928D01*
X125075518Y-96724188D01*
X124955820Y-96760498D01*
X124845506Y-96819463D01*
X124748815Y-96898815D01*
X124669463Y-96995506D01*
X124610498Y-97105820D01*
X124574188Y-97225518D01*
X124561928Y-97350000D01*
X105668072Y-97350000D01*
X105639502Y-97255820D01*
X105580537Y-97145506D01*
X105501185Y-97048815D01*
X105404494Y-96969463D01*
X105294180Y-96910498D01*
X105174482Y-96874188D01*
X105050000Y-96861928D01*
X104127000Y-96861928D01*
X104127000Y-96768190D01*
X104270403Y-96629223D01*
X104273711Y-96627000D01*
X135209402Y-96627000D01*
X135334130Y-96716626D01*
M02*
