G04 #@! TF.GenerationSoftware,KiCad,Pcbnew,5.1.5*
G04 #@! TF.CreationDate,2020-03-28T16:17:50-05:00*
G04 #@! TF.ProjectId,CavemanDAC,43617665-6d61-46e4-9441-432e6b696361,rev?*
G04 #@! TF.SameCoordinates,Original*
G04 #@! TF.FileFunction,Legend,Top*
G04 #@! TF.FilePolarity,Positive*
%FSLAX46Y46*%
G04 Gerber Fmt 4.6, Leading zero omitted, Abs format (unit mm)*
G04 Created by KiCad (PCBNEW 5.1.5) date 2020-03-28 16:17:50*
%MOMM*%
%LPD*%
G04 APERTURE LIST*
%ADD10C,0.400000*%
%ADD11C,0.300000*%
%ADD12C,0.150000*%
%ADD13C,0.120000*%
G04 APERTURE END LIST*
D10*
X113216749Y-150798479D02*
X113216749Y-151000510D01*
X113014718Y-151404571D01*
X112812688Y-151606601D01*
X112408627Y-151808632D01*
X112004566Y-151808632D01*
X111701520Y-151707616D01*
X111196444Y-151404571D01*
X110893398Y-151101525D01*
X110590352Y-150596449D01*
X110489337Y-150293403D01*
X110489337Y-149889342D01*
X110691367Y-149485281D01*
X110893398Y-149283250D01*
X111297459Y-149081220D01*
X111499489Y-149081220D01*
X115237054Y-149182235D02*
X114125886Y-148071067D01*
X113822840Y-147970052D01*
X113519794Y-148071067D01*
X113115733Y-148475128D01*
X113014718Y-148778174D01*
X115136038Y-149081220D02*
X115035023Y-149384266D01*
X114529947Y-149889342D01*
X114226901Y-149990357D01*
X113923855Y-149889342D01*
X113721825Y-149687311D01*
X113620810Y-149384266D01*
X113721825Y-149081220D01*
X114226901Y-148576144D01*
X114327916Y-148273098D01*
X114630962Y-146959900D02*
X116550252Y-147869037D01*
X115641115Y-145949747D01*
X118570557Y-145646701D02*
X118469542Y-145949747D01*
X118065481Y-146353808D01*
X117762435Y-146454823D01*
X117459389Y-146353808D01*
X116651267Y-145545686D01*
X116550252Y-145242640D01*
X116651267Y-144939594D01*
X117055328Y-144535533D01*
X117358374Y-144434518D01*
X117661420Y-144535533D01*
X117863450Y-144737564D01*
X117055328Y-145949747D01*
X119681725Y-144737564D02*
X118267511Y-143323350D01*
X118469542Y-143525381D02*
X118469542Y-143323350D01*
X118570557Y-143020305D01*
X118873603Y-142717259D01*
X119176649Y-142616244D01*
X119479694Y-142717259D01*
X120590862Y-143828427D01*
X119479694Y-142717259D02*
X119378679Y-142414213D01*
X119479694Y-142111167D01*
X119782740Y-141808122D01*
X120085786Y-141707106D01*
X120388832Y-141808122D01*
X121500000Y-142919289D01*
X123419289Y-141000000D02*
X122308122Y-139888832D01*
X122005076Y-139787816D01*
X121702030Y-139888832D01*
X121297969Y-140292893D01*
X121196954Y-140595938D01*
X123318274Y-140898984D02*
X123217259Y-141202030D01*
X122712183Y-141707106D01*
X122409137Y-141808122D01*
X122106091Y-141707106D01*
X121904061Y-141505076D01*
X121803045Y-141202030D01*
X121904061Y-140898984D01*
X122409137Y-140393908D01*
X122510152Y-140090862D01*
X123015228Y-138575633D02*
X124429442Y-139989847D01*
X123217259Y-138777664D02*
X123217259Y-138575633D01*
X123318274Y-138272588D01*
X123621320Y-137969542D01*
X123924366Y-137868527D01*
X124227411Y-137969542D01*
X125338579Y-139080710D01*
X125540610Y-134636038D02*
X128369037Y-136050252D01*
X126954823Y-133221825D01*
X128874113Y-131504566D02*
X128571067Y-131605581D01*
X128268022Y-131908627D01*
X128065991Y-132312688D01*
X128065991Y-132716749D01*
X128167006Y-133019794D01*
X128470052Y-133524871D01*
X128773098Y-133827916D01*
X129278174Y-134130962D01*
X129581220Y-134231977D01*
X129985281Y-134231977D01*
X130389342Y-134029947D01*
X130591372Y-133827916D01*
X130793403Y-133423855D01*
X130793403Y-133221825D01*
X130086296Y-132514718D01*
X129682235Y-132918779D01*
X131197464Y-132009642D02*
X132207616Y-130999489D01*
X131601525Y-132817764D02*
X130187311Y-129989337D01*
X133015739Y-131403550D01*
D11*
X116030952Y-107757142D02*
X114840476Y-108590476D01*
X116030952Y-109185714D02*
X113530952Y-109185714D01*
X113530952Y-108233333D01*
X113650000Y-107995238D01*
X113769047Y-107876190D01*
X114007142Y-107757142D01*
X114364285Y-107757142D01*
X114602380Y-107876190D01*
X114721428Y-107995238D01*
X114840476Y-108233333D01*
X114840476Y-109185714D01*
X114721428Y-106685714D02*
X114721428Y-105852380D01*
X116030952Y-105495238D02*
X116030952Y-106685714D01*
X113530952Y-106685714D01*
X113530952Y-105495238D01*
X116030952Y-104423809D02*
X113530952Y-104423809D01*
X113530952Y-103828571D01*
X113650000Y-103471428D01*
X113888095Y-103233333D01*
X114126190Y-103114285D01*
X114602380Y-102995238D01*
X114959523Y-102995238D01*
X115435714Y-103114285D01*
X115673809Y-103233333D01*
X115911904Y-103471428D01*
X116030952Y-103828571D01*
X116030952Y-104423809D01*
X113650000Y-128416666D02*
X113530952Y-128654761D01*
X113530952Y-129011904D01*
X113650000Y-129369047D01*
X113888095Y-129607142D01*
X114126190Y-129726190D01*
X114602380Y-129845238D01*
X114959523Y-129845238D01*
X115435714Y-129726190D01*
X115673809Y-129607142D01*
X115911904Y-129369047D01*
X116030952Y-129011904D01*
X116030952Y-128773809D01*
X115911904Y-128416666D01*
X115792857Y-128297619D01*
X114959523Y-128297619D01*
X114959523Y-128773809D01*
X116030952Y-125797619D02*
X114840476Y-126630952D01*
X116030952Y-127226190D02*
X113530952Y-127226190D01*
X113530952Y-126273809D01*
X113650000Y-126035714D01*
X113769047Y-125916666D01*
X114007142Y-125797619D01*
X114364285Y-125797619D01*
X114602380Y-125916666D01*
X114721428Y-126035714D01*
X114840476Y-126273809D01*
X114840476Y-127226190D01*
X114721428Y-124726190D02*
X114721428Y-123892857D01*
X116030952Y-123535714D02*
X116030952Y-124726190D01*
X113530952Y-124726190D01*
X113530952Y-123535714D01*
X114721428Y-122464285D02*
X114721428Y-121630952D01*
X116030952Y-121273809D02*
X116030952Y-122464285D01*
X113530952Y-122464285D01*
X113530952Y-121273809D01*
X116030952Y-120202380D02*
X113530952Y-120202380D01*
X116030952Y-118773809D01*
X113530952Y-118773809D01*
X114721428Y-143773809D02*
X114840476Y-143416666D01*
X114959523Y-143297619D01*
X115197619Y-143178571D01*
X115554761Y-143178571D01*
X115792857Y-143297619D01*
X115911904Y-143416666D01*
X116030952Y-143654761D01*
X116030952Y-144607142D01*
X113530952Y-144607142D01*
X113530952Y-143773809D01*
X113650000Y-143535714D01*
X113769047Y-143416666D01*
X114007142Y-143297619D01*
X114245238Y-143297619D01*
X114483333Y-143416666D01*
X114602380Y-143535714D01*
X114721428Y-143773809D01*
X114721428Y-144607142D01*
X116030952Y-140916666D02*
X116030952Y-142107142D01*
X113530952Y-142107142D01*
X113530952Y-140083333D02*
X115554761Y-140083333D01*
X115792857Y-139964285D01*
X115911904Y-139845238D01*
X116030952Y-139607142D01*
X116030952Y-139130952D01*
X115911904Y-138892857D01*
X115792857Y-138773809D01*
X115554761Y-138654761D01*
X113530952Y-138654761D01*
X114721428Y-137464285D02*
X114721428Y-136630952D01*
X116030952Y-136273809D02*
X116030952Y-137464285D01*
X113530952Y-137464285D01*
X113530952Y-136273809D01*
D12*
X105787976Y-152138095D02*
X105930833Y-152219047D01*
X106168928Y-152219047D01*
X106264166Y-152138095D01*
X106311785Y-152057142D01*
X106359404Y-151895238D01*
X106359404Y-151733333D01*
X106311785Y-151571428D01*
X106264166Y-151490476D01*
X106168928Y-151409523D01*
X105978452Y-151328571D01*
X105883214Y-151247619D01*
X105835595Y-151166666D01*
X105787976Y-151004761D01*
X105787976Y-150842857D01*
X105835595Y-150680952D01*
X105883214Y-150600000D01*
X105978452Y-150519047D01*
X106216547Y-150519047D01*
X106359404Y-150600000D01*
X107359404Y-152057142D02*
X107311785Y-152138095D01*
X107168928Y-152219047D01*
X107073690Y-152219047D01*
X106930833Y-152138095D01*
X106835595Y-151976190D01*
X106787976Y-151814285D01*
X106740357Y-151490476D01*
X106740357Y-151247619D01*
X106787976Y-150923809D01*
X106835595Y-150761904D01*
X106930833Y-150600000D01*
X107073690Y-150519047D01*
X107168928Y-150519047D01*
X107311785Y-150600000D01*
X107359404Y-150680952D01*
X108264166Y-152219047D02*
X107787976Y-152219047D01*
X107787976Y-150519047D01*
X105692738Y-153219047D02*
X106026071Y-154919047D01*
X106359404Y-153219047D01*
X106645119Y-154838095D02*
X106787976Y-154919047D01*
X107026071Y-154919047D01*
X107121309Y-154838095D01*
X107168928Y-154757142D01*
X107216547Y-154595238D01*
X107216547Y-154433333D01*
X107168928Y-154271428D01*
X107121309Y-154190476D01*
X107026071Y-154109523D01*
X106835595Y-154028571D01*
X106740357Y-153947619D01*
X106692738Y-153866666D01*
X106645119Y-153704761D01*
X106645119Y-153542857D01*
X106692738Y-153380952D01*
X106740357Y-153300000D01*
X106835595Y-153219047D01*
X107073690Y-153219047D01*
X107216547Y-153300000D01*
X107549880Y-153785714D02*
X107787976Y-154919047D01*
X108026071Y-153785714D02*
X107787976Y-154919047D01*
X107692738Y-155323809D01*
X107645119Y-155404761D01*
X107549880Y-155485714D01*
X108407023Y-153785714D02*
X108407023Y-154919047D01*
X108407023Y-153947619D02*
X108454642Y-153866666D01*
X108549880Y-153785714D01*
X108692738Y-153785714D01*
X108787976Y-153866666D01*
X108835595Y-154028571D01*
X108835595Y-154919047D01*
X109740357Y-154838095D02*
X109645119Y-154919047D01*
X109454642Y-154919047D01*
X109359404Y-154838095D01*
X109311785Y-154757142D01*
X109264166Y-154595238D01*
X109264166Y-154109523D01*
X109311785Y-153947619D01*
X109359404Y-153866666D01*
X109454642Y-153785714D01*
X109645119Y-153785714D01*
X109740357Y-153866666D01*
X105835595Y-157619047D02*
X105835595Y-155919047D01*
X105835595Y-156728571D02*
X106407023Y-156728571D01*
X106407023Y-157619047D02*
X106407023Y-155919047D01*
X106835595Y-157538095D02*
X106978452Y-157619047D01*
X107216547Y-157619047D01*
X107311785Y-157538095D01*
X107359404Y-157457142D01*
X107407023Y-157295238D01*
X107407023Y-157133333D01*
X107359404Y-156971428D01*
X107311785Y-156890476D01*
X107216547Y-156809523D01*
X107026071Y-156728571D01*
X106930833Y-156647619D01*
X106883214Y-156566666D01*
X106835595Y-156404761D01*
X106835595Y-156242857D01*
X106883214Y-156080952D01*
X106930833Y-156000000D01*
X107026071Y-155919047D01*
X107264166Y-155919047D01*
X107407023Y-156000000D01*
X107740357Y-156485714D02*
X107978452Y-157619047D01*
X108216547Y-156485714D02*
X107978452Y-157619047D01*
X107883214Y-158023809D01*
X107835595Y-158104761D01*
X107740357Y-158185714D01*
X108597500Y-156485714D02*
X108597500Y-157619047D01*
X108597500Y-156647619D02*
X108645119Y-156566666D01*
X108740357Y-156485714D01*
X108883214Y-156485714D01*
X108978452Y-156566666D01*
X109026071Y-156728571D01*
X109026071Y-157619047D01*
X109930833Y-157538095D02*
X109835595Y-157619047D01*
X109645119Y-157619047D01*
X109549880Y-157538095D01*
X109502261Y-157457142D01*
X109454642Y-157295238D01*
X109454642Y-156809523D01*
X109502261Y-156647619D01*
X109549880Y-156566666D01*
X109645119Y-156485714D01*
X109835595Y-156485714D01*
X109930833Y-156566666D01*
X105787976Y-160238095D02*
X105930833Y-160319047D01*
X106168928Y-160319047D01*
X106264166Y-160238095D01*
X106311785Y-160157142D01*
X106359404Y-159995238D01*
X106359404Y-159833333D01*
X106311785Y-159671428D01*
X106264166Y-159590476D01*
X106168928Y-159509523D01*
X105978452Y-159428571D01*
X105883214Y-159347619D01*
X105835595Y-159266666D01*
X105787976Y-159104761D01*
X105787976Y-158942857D01*
X105835595Y-158780952D01*
X105883214Y-158700000D01*
X105978452Y-158619047D01*
X106216547Y-158619047D01*
X106359404Y-158700000D01*
X106787976Y-160319047D02*
X106787976Y-158619047D01*
X107026071Y-158619047D01*
X107168928Y-158700000D01*
X107264166Y-158861904D01*
X107311785Y-159023809D01*
X107359404Y-159347619D01*
X107359404Y-159590476D01*
X107311785Y-159914285D01*
X107264166Y-160076190D01*
X107168928Y-160238095D01*
X107026071Y-160319047D01*
X106787976Y-160319047D01*
X107740357Y-159833333D02*
X108216547Y-159833333D01*
X107645119Y-160319047D02*
X107978452Y-158619047D01*
X108311785Y-160319047D01*
X105692738Y-161319047D02*
X106026071Y-163019047D01*
X106359404Y-161319047D01*
X106645119Y-162938095D02*
X106787976Y-163019047D01*
X107026071Y-163019047D01*
X107121309Y-162938095D01*
X107168928Y-162857142D01*
X107216547Y-162695238D01*
X107216547Y-162533333D01*
X107168928Y-162371428D01*
X107121309Y-162290476D01*
X107026071Y-162209523D01*
X106835595Y-162128571D01*
X106740357Y-162047619D01*
X106692738Y-161966666D01*
X106645119Y-161804761D01*
X106645119Y-161642857D01*
X106692738Y-161480952D01*
X106740357Y-161400000D01*
X106835595Y-161319047D01*
X107073690Y-161319047D01*
X107216547Y-161400000D01*
X107597500Y-162938095D02*
X107740357Y-163019047D01*
X107978452Y-163019047D01*
X108073690Y-162938095D01*
X108121309Y-162857142D01*
X108168928Y-162695238D01*
X108168928Y-162533333D01*
X108121309Y-162371428D01*
X108073690Y-162290476D01*
X107978452Y-162209523D01*
X107787976Y-162128571D01*
X107692738Y-162047619D01*
X107645119Y-161966666D01*
X107597500Y-161804761D01*
X107597500Y-161642857D01*
X107645119Y-161480952D01*
X107692738Y-161400000D01*
X107787976Y-161319047D01*
X108026071Y-161319047D01*
X108168928Y-161400000D01*
D13*
X102870000Y-112380000D02*
X105530000Y-112380000D01*
X102870000Y-99620000D02*
X102870000Y-112380000D01*
X105530000Y-99620000D02*
X105530000Y-112380000D01*
X102870000Y-99620000D02*
X105530000Y-99620000D01*
X102870000Y-98350000D02*
X102870000Y-97020000D01*
X102870000Y-97020000D02*
X104200000Y-97020000D01*
X102870000Y-130160000D02*
X105530000Y-130160000D01*
X102870000Y-117400000D02*
X102870000Y-130160000D01*
X105530000Y-117400000D02*
X105530000Y-130160000D01*
X102870000Y-117400000D02*
X105530000Y-117400000D01*
X102870000Y-116130000D02*
X102870000Y-114800000D01*
X102870000Y-114800000D02*
X104200000Y-114800000D01*
X102870000Y-132575000D02*
X104200000Y-132575000D01*
X102870000Y-133905000D02*
X102870000Y-132575000D01*
X102870000Y-135175000D02*
X105530000Y-135175000D01*
X105530000Y-135175000D02*
X105530000Y-147935000D01*
X102870000Y-135175000D02*
X102870000Y-147935000D01*
X102870000Y-147935000D02*
X105530000Y-147935000D01*
X108346078Y-111760000D02*
X107828922Y-111760000D01*
X108346078Y-110340000D02*
X107828922Y-110340000D01*
X108396078Y-109210000D02*
X107878922Y-109210000D01*
X108396078Y-107790000D02*
X107878922Y-107790000D01*
X108421078Y-105240000D02*
X107903922Y-105240000D01*
X108421078Y-106660000D02*
X107903922Y-106660000D01*
X108446078Y-104160000D02*
X107928922Y-104160000D01*
X108446078Y-102740000D02*
X107928922Y-102740000D01*
X108446078Y-100240000D02*
X107928922Y-100240000D01*
X108446078Y-101660000D02*
X107928922Y-101660000D01*
X108496078Y-99060000D02*
X107978922Y-99060000D01*
X108496078Y-97640000D02*
X107978922Y-97640000D01*
X115596078Y-97640000D02*
X115078922Y-97640000D01*
X115596078Y-99060000D02*
X115078922Y-99060000D01*
X108396078Y-129560000D02*
X107878922Y-129560000D01*
X108396078Y-128140000D02*
X107878922Y-128140000D01*
X108396078Y-125590000D02*
X107878922Y-125590000D01*
X108396078Y-127010000D02*
X107878922Y-127010000D01*
X108396078Y-124460000D02*
X107878922Y-124460000D01*
X108396078Y-123040000D02*
X107878922Y-123040000D01*
X108396078Y-120490000D02*
X107878922Y-120490000D01*
X108396078Y-121910000D02*
X107878922Y-121910000D01*
X108396078Y-119410000D02*
X107878922Y-119410000D01*
X108396078Y-117990000D02*
X107878922Y-117990000D01*
X108396078Y-115440000D02*
X107878922Y-115440000D01*
X108396078Y-116860000D02*
X107878922Y-116860000D01*
X115546078Y-116860000D02*
X115028922Y-116860000D01*
X115546078Y-115440000D02*
X115028922Y-115440000D01*
X108396078Y-145915000D02*
X107878922Y-145915000D01*
X108396078Y-147335000D02*
X107878922Y-147335000D01*
X108446078Y-144760000D02*
X107928922Y-144760000D01*
X108446078Y-143340000D02*
X107928922Y-143340000D01*
X108446078Y-140840000D02*
X107928922Y-140840000D01*
X108446078Y-142260000D02*
X107928922Y-142260000D01*
X108446078Y-139660000D02*
X107928922Y-139660000D01*
X108446078Y-138240000D02*
X107928922Y-138240000D01*
X108446078Y-135690000D02*
X107928922Y-135690000D01*
X108446078Y-137110000D02*
X107928922Y-137110000D01*
X108396078Y-134610000D02*
X107878922Y-134610000D01*
X108396078Y-133190000D02*
X107878922Y-133190000D01*
X115546078Y-133190000D02*
X115028922Y-133190000D01*
X115546078Y-134610000D02*
X115028922Y-134610000D01*
X137350000Y-96350000D02*
X137350000Y-127350000D01*
X121300000Y-96350000D02*
X121300000Y-127350000D01*
X121300000Y-127350000D02*
X137350000Y-127350000D01*
X137350000Y-127350000D02*
X137300000Y-127350000D01*
X137300000Y-127350000D02*
X137350000Y-127350000D01*
X137350000Y-96350000D02*
X121300000Y-96350000D01*
X102870000Y-163170000D02*
X105530000Y-163170000D01*
X102870000Y-152950000D02*
X102870000Y-163170000D01*
X105530000Y-152950000D02*
X105530000Y-163170000D01*
X102870000Y-152950000D02*
X105530000Y-152950000D01*
X102870000Y-151680000D02*
X102870000Y-150350000D01*
X102870000Y-150350000D02*
X104200000Y-150350000D01*
D12*
X105166666Y-95952380D02*
X105166666Y-96666666D01*
X105119047Y-96809523D01*
X105023809Y-96904761D01*
X104880952Y-96952380D01*
X104785714Y-96952380D01*
X106166666Y-96952380D02*
X105595238Y-96952380D01*
X105880952Y-96952380D02*
X105880952Y-95952380D01*
X105785714Y-96095238D01*
X105690476Y-96190476D01*
X105595238Y-96238095D01*
X103866666Y-113252380D02*
X103866666Y-113966666D01*
X103819047Y-114109523D01*
X103723809Y-114204761D01*
X103580952Y-114252380D01*
X103485714Y-114252380D01*
X104295238Y-113347619D02*
X104342857Y-113300000D01*
X104438095Y-113252380D01*
X104676190Y-113252380D01*
X104771428Y-113300000D01*
X104819047Y-113347619D01*
X104866666Y-113442857D01*
X104866666Y-113538095D01*
X104819047Y-113680952D01*
X104247619Y-114252380D01*
X104866666Y-114252380D01*
X103866666Y-131027380D02*
X103866666Y-131741666D01*
X103819047Y-131884523D01*
X103723809Y-131979761D01*
X103580952Y-132027380D01*
X103485714Y-132027380D01*
X104247619Y-131027380D02*
X104866666Y-131027380D01*
X104533333Y-131408333D01*
X104676190Y-131408333D01*
X104771428Y-131455952D01*
X104819047Y-131503571D01*
X104866666Y-131598809D01*
X104866666Y-131836904D01*
X104819047Y-131932142D01*
X104771428Y-131979761D01*
X104676190Y-132027380D01*
X104390476Y-132027380D01*
X104295238Y-131979761D01*
X104247619Y-131932142D01*
X110733333Y-111502380D02*
X110400000Y-111026190D01*
X110161904Y-111502380D02*
X110161904Y-110502380D01*
X110542857Y-110502380D01*
X110638095Y-110550000D01*
X110685714Y-110597619D01*
X110733333Y-110692857D01*
X110733333Y-110835714D01*
X110685714Y-110930952D01*
X110638095Y-110978571D01*
X110542857Y-111026190D01*
X110161904Y-111026190D01*
X111685714Y-111502380D02*
X111114285Y-111502380D01*
X111400000Y-111502380D02*
X111400000Y-110502380D01*
X111304761Y-110645238D01*
X111209523Y-110740476D01*
X111114285Y-110788095D01*
X110733333Y-108952380D02*
X110400000Y-108476190D01*
X110161904Y-108952380D02*
X110161904Y-107952380D01*
X110542857Y-107952380D01*
X110638095Y-108000000D01*
X110685714Y-108047619D01*
X110733333Y-108142857D01*
X110733333Y-108285714D01*
X110685714Y-108380952D01*
X110638095Y-108428571D01*
X110542857Y-108476190D01*
X110161904Y-108476190D01*
X111114285Y-108047619D02*
X111161904Y-108000000D01*
X111257142Y-107952380D01*
X111495238Y-107952380D01*
X111590476Y-108000000D01*
X111638095Y-108047619D01*
X111685714Y-108142857D01*
X111685714Y-108238095D01*
X111638095Y-108380952D01*
X111066666Y-108952380D01*
X111685714Y-108952380D01*
X110733333Y-106402380D02*
X110400000Y-105926190D01*
X110161904Y-106402380D02*
X110161904Y-105402380D01*
X110542857Y-105402380D01*
X110638095Y-105450000D01*
X110685714Y-105497619D01*
X110733333Y-105592857D01*
X110733333Y-105735714D01*
X110685714Y-105830952D01*
X110638095Y-105878571D01*
X110542857Y-105926190D01*
X110161904Y-105926190D01*
X111066666Y-105402380D02*
X111685714Y-105402380D01*
X111352380Y-105783333D01*
X111495238Y-105783333D01*
X111590476Y-105830952D01*
X111638095Y-105878571D01*
X111685714Y-105973809D01*
X111685714Y-106211904D01*
X111638095Y-106307142D01*
X111590476Y-106354761D01*
X111495238Y-106402380D01*
X111209523Y-106402380D01*
X111114285Y-106354761D01*
X111066666Y-106307142D01*
X110733333Y-103902380D02*
X110400000Y-103426190D01*
X110161904Y-103902380D02*
X110161904Y-102902380D01*
X110542857Y-102902380D01*
X110638095Y-102950000D01*
X110685714Y-102997619D01*
X110733333Y-103092857D01*
X110733333Y-103235714D01*
X110685714Y-103330952D01*
X110638095Y-103378571D01*
X110542857Y-103426190D01*
X110161904Y-103426190D01*
X111590476Y-103235714D02*
X111590476Y-103902380D01*
X111352380Y-102854761D02*
X111114285Y-103569047D01*
X111733333Y-103569047D01*
X110733333Y-101402380D02*
X110400000Y-100926190D01*
X110161904Y-101402380D02*
X110161904Y-100402380D01*
X110542857Y-100402380D01*
X110638095Y-100450000D01*
X110685714Y-100497619D01*
X110733333Y-100592857D01*
X110733333Y-100735714D01*
X110685714Y-100830952D01*
X110638095Y-100878571D01*
X110542857Y-100926190D01*
X110161904Y-100926190D01*
X111638095Y-100402380D02*
X111161904Y-100402380D01*
X111114285Y-100878571D01*
X111161904Y-100830952D01*
X111257142Y-100783333D01*
X111495238Y-100783333D01*
X111590476Y-100830952D01*
X111638095Y-100878571D01*
X111685714Y-100973809D01*
X111685714Y-101211904D01*
X111638095Y-101307142D01*
X111590476Y-101354761D01*
X111495238Y-101402380D01*
X111257142Y-101402380D01*
X111161904Y-101354761D01*
X111114285Y-101307142D01*
X110733333Y-98802380D02*
X110400000Y-98326190D01*
X110161904Y-98802380D02*
X110161904Y-97802380D01*
X110542857Y-97802380D01*
X110638095Y-97850000D01*
X110685714Y-97897619D01*
X110733333Y-97992857D01*
X110733333Y-98135714D01*
X110685714Y-98230952D01*
X110638095Y-98278571D01*
X110542857Y-98326190D01*
X110161904Y-98326190D01*
X111590476Y-97802380D02*
X111400000Y-97802380D01*
X111304761Y-97850000D01*
X111257142Y-97897619D01*
X111161904Y-98040476D01*
X111114285Y-98230952D01*
X111114285Y-98611904D01*
X111161904Y-98707142D01*
X111209523Y-98754761D01*
X111304761Y-98802380D01*
X111495238Y-98802380D01*
X111590476Y-98754761D01*
X111638095Y-98707142D01*
X111685714Y-98611904D01*
X111685714Y-98373809D01*
X111638095Y-98278571D01*
X111590476Y-98230952D01*
X111495238Y-98183333D01*
X111304761Y-98183333D01*
X111209523Y-98230952D01*
X111161904Y-98278571D01*
X111114285Y-98373809D01*
X115170833Y-100452380D02*
X114837500Y-99976190D01*
X114599404Y-100452380D02*
X114599404Y-99452380D01*
X114980357Y-99452380D01*
X115075595Y-99500000D01*
X115123214Y-99547619D01*
X115170833Y-99642857D01*
X115170833Y-99785714D01*
X115123214Y-99880952D01*
X115075595Y-99928571D01*
X114980357Y-99976190D01*
X114599404Y-99976190D01*
X115504166Y-99452380D02*
X116170833Y-99452380D01*
X115742261Y-100452380D01*
X110733333Y-129352380D02*
X110400000Y-128876190D01*
X110161904Y-129352380D02*
X110161904Y-128352380D01*
X110542857Y-128352380D01*
X110638095Y-128400000D01*
X110685714Y-128447619D01*
X110733333Y-128542857D01*
X110733333Y-128685714D01*
X110685714Y-128780952D01*
X110638095Y-128828571D01*
X110542857Y-128876190D01*
X110161904Y-128876190D01*
X111304761Y-128780952D02*
X111209523Y-128733333D01*
X111161904Y-128685714D01*
X111114285Y-128590476D01*
X111114285Y-128542857D01*
X111161904Y-128447619D01*
X111209523Y-128400000D01*
X111304761Y-128352380D01*
X111495238Y-128352380D01*
X111590476Y-128400000D01*
X111638095Y-128447619D01*
X111685714Y-128542857D01*
X111685714Y-128590476D01*
X111638095Y-128685714D01*
X111590476Y-128733333D01*
X111495238Y-128780952D01*
X111304761Y-128780952D01*
X111209523Y-128828571D01*
X111161904Y-128876190D01*
X111114285Y-128971428D01*
X111114285Y-129161904D01*
X111161904Y-129257142D01*
X111209523Y-129304761D01*
X111304761Y-129352380D01*
X111495238Y-129352380D01*
X111590476Y-129304761D01*
X111638095Y-129257142D01*
X111685714Y-129161904D01*
X111685714Y-128971428D01*
X111638095Y-128876190D01*
X111590476Y-128828571D01*
X111495238Y-128780952D01*
X110733333Y-126752380D02*
X110400000Y-126276190D01*
X110161904Y-126752380D02*
X110161904Y-125752380D01*
X110542857Y-125752380D01*
X110638095Y-125800000D01*
X110685714Y-125847619D01*
X110733333Y-125942857D01*
X110733333Y-126085714D01*
X110685714Y-126180952D01*
X110638095Y-126228571D01*
X110542857Y-126276190D01*
X110161904Y-126276190D01*
X111209523Y-126752380D02*
X111400000Y-126752380D01*
X111495238Y-126704761D01*
X111542857Y-126657142D01*
X111638095Y-126514285D01*
X111685714Y-126323809D01*
X111685714Y-125942857D01*
X111638095Y-125847619D01*
X111590476Y-125800000D01*
X111495238Y-125752380D01*
X111304761Y-125752380D01*
X111209523Y-125800000D01*
X111161904Y-125847619D01*
X111114285Y-125942857D01*
X111114285Y-126180952D01*
X111161904Y-126276190D01*
X111209523Y-126323809D01*
X111304761Y-126371428D01*
X111495238Y-126371428D01*
X111590476Y-126323809D01*
X111638095Y-126276190D01*
X111685714Y-126180952D01*
X110707142Y-124202380D02*
X110373809Y-123726190D01*
X110135714Y-124202380D02*
X110135714Y-123202380D01*
X110516666Y-123202380D01*
X110611904Y-123250000D01*
X110659523Y-123297619D01*
X110707142Y-123392857D01*
X110707142Y-123535714D01*
X110659523Y-123630952D01*
X110611904Y-123678571D01*
X110516666Y-123726190D01*
X110135714Y-123726190D01*
X111659523Y-124202380D02*
X111088095Y-124202380D01*
X111373809Y-124202380D02*
X111373809Y-123202380D01*
X111278571Y-123345238D01*
X111183333Y-123440476D01*
X111088095Y-123488095D01*
X112278571Y-123202380D02*
X112373809Y-123202380D01*
X112469047Y-123250000D01*
X112516666Y-123297619D01*
X112564285Y-123392857D01*
X112611904Y-123583333D01*
X112611904Y-123821428D01*
X112564285Y-124011904D01*
X112516666Y-124107142D01*
X112469047Y-124154761D01*
X112373809Y-124202380D01*
X112278571Y-124202380D01*
X112183333Y-124154761D01*
X112135714Y-124107142D01*
X112088095Y-124011904D01*
X112040476Y-123821428D01*
X112040476Y-123583333D01*
X112088095Y-123392857D01*
X112135714Y-123297619D01*
X112183333Y-123250000D01*
X112278571Y-123202380D01*
X110707142Y-121652380D02*
X110373809Y-121176190D01*
X110135714Y-121652380D02*
X110135714Y-120652380D01*
X110516666Y-120652380D01*
X110611904Y-120700000D01*
X110659523Y-120747619D01*
X110707142Y-120842857D01*
X110707142Y-120985714D01*
X110659523Y-121080952D01*
X110611904Y-121128571D01*
X110516666Y-121176190D01*
X110135714Y-121176190D01*
X111659523Y-121652380D02*
X111088095Y-121652380D01*
X111373809Y-121652380D02*
X111373809Y-120652380D01*
X111278571Y-120795238D01*
X111183333Y-120890476D01*
X111088095Y-120938095D01*
X112611904Y-121652380D02*
X112040476Y-121652380D01*
X112326190Y-121652380D02*
X112326190Y-120652380D01*
X112230952Y-120795238D01*
X112135714Y-120890476D01*
X112040476Y-120938095D01*
X110707142Y-119152380D02*
X110373809Y-118676190D01*
X110135714Y-119152380D02*
X110135714Y-118152380D01*
X110516666Y-118152380D01*
X110611904Y-118200000D01*
X110659523Y-118247619D01*
X110707142Y-118342857D01*
X110707142Y-118485714D01*
X110659523Y-118580952D01*
X110611904Y-118628571D01*
X110516666Y-118676190D01*
X110135714Y-118676190D01*
X111659523Y-119152380D02*
X111088095Y-119152380D01*
X111373809Y-119152380D02*
X111373809Y-118152380D01*
X111278571Y-118295238D01*
X111183333Y-118390476D01*
X111088095Y-118438095D01*
X112040476Y-118247619D02*
X112088095Y-118200000D01*
X112183333Y-118152380D01*
X112421428Y-118152380D01*
X112516666Y-118200000D01*
X112564285Y-118247619D01*
X112611904Y-118342857D01*
X112611904Y-118438095D01*
X112564285Y-118580952D01*
X111992857Y-119152380D01*
X112611904Y-119152380D01*
X110707142Y-116602380D02*
X110373809Y-116126190D01*
X110135714Y-116602380D02*
X110135714Y-115602380D01*
X110516666Y-115602380D01*
X110611904Y-115650000D01*
X110659523Y-115697619D01*
X110707142Y-115792857D01*
X110707142Y-115935714D01*
X110659523Y-116030952D01*
X110611904Y-116078571D01*
X110516666Y-116126190D01*
X110135714Y-116126190D01*
X111659523Y-116602380D02*
X111088095Y-116602380D01*
X111373809Y-116602380D02*
X111373809Y-115602380D01*
X111278571Y-115745238D01*
X111183333Y-115840476D01*
X111088095Y-115888095D01*
X111992857Y-115602380D02*
X112611904Y-115602380D01*
X112278571Y-115983333D01*
X112421428Y-115983333D01*
X112516666Y-116030952D01*
X112564285Y-116078571D01*
X112611904Y-116173809D01*
X112611904Y-116411904D01*
X112564285Y-116507142D01*
X112516666Y-116554761D01*
X112421428Y-116602380D01*
X112135714Y-116602380D01*
X112040476Y-116554761D01*
X111992857Y-116507142D01*
X114644642Y-118252380D02*
X114311309Y-117776190D01*
X114073214Y-118252380D02*
X114073214Y-117252380D01*
X114454166Y-117252380D01*
X114549404Y-117300000D01*
X114597023Y-117347619D01*
X114644642Y-117442857D01*
X114644642Y-117585714D01*
X114597023Y-117680952D01*
X114549404Y-117728571D01*
X114454166Y-117776190D01*
X114073214Y-117776190D01*
X115597023Y-118252380D02*
X115025595Y-118252380D01*
X115311309Y-118252380D02*
X115311309Y-117252380D01*
X115216071Y-117395238D01*
X115120833Y-117490476D01*
X115025595Y-117538095D01*
X116454166Y-117585714D02*
X116454166Y-118252380D01*
X116216071Y-117204761D02*
X115977976Y-117919047D01*
X116597023Y-117919047D01*
X110682142Y-147077380D02*
X110348809Y-146601190D01*
X110110714Y-147077380D02*
X110110714Y-146077380D01*
X110491666Y-146077380D01*
X110586904Y-146125000D01*
X110634523Y-146172619D01*
X110682142Y-146267857D01*
X110682142Y-146410714D01*
X110634523Y-146505952D01*
X110586904Y-146553571D01*
X110491666Y-146601190D01*
X110110714Y-146601190D01*
X111634523Y-147077380D02*
X111063095Y-147077380D01*
X111348809Y-147077380D02*
X111348809Y-146077380D01*
X111253571Y-146220238D01*
X111158333Y-146315476D01*
X111063095Y-146363095D01*
X112539285Y-146077380D02*
X112063095Y-146077380D01*
X112015476Y-146553571D01*
X112063095Y-146505952D01*
X112158333Y-146458333D01*
X112396428Y-146458333D01*
X112491666Y-146505952D01*
X112539285Y-146553571D01*
X112586904Y-146648809D01*
X112586904Y-146886904D01*
X112539285Y-146982142D01*
X112491666Y-147029761D01*
X112396428Y-147077380D01*
X112158333Y-147077380D01*
X112063095Y-147029761D01*
X112015476Y-146982142D01*
X110757142Y-144502380D02*
X110423809Y-144026190D01*
X110185714Y-144502380D02*
X110185714Y-143502380D01*
X110566666Y-143502380D01*
X110661904Y-143550000D01*
X110709523Y-143597619D01*
X110757142Y-143692857D01*
X110757142Y-143835714D01*
X110709523Y-143930952D01*
X110661904Y-143978571D01*
X110566666Y-144026190D01*
X110185714Y-144026190D01*
X111709523Y-144502380D02*
X111138095Y-144502380D01*
X111423809Y-144502380D02*
X111423809Y-143502380D01*
X111328571Y-143645238D01*
X111233333Y-143740476D01*
X111138095Y-143788095D01*
X112566666Y-143502380D02*
X112376190Y-143502380D01*
X112280952Y-143550000D01*
X112233333Y-143597619D01*
X112138095Y-143740476D01*
X112090476Y-143930952D01*
X112090476Y-144311904D01*
X112138095Y-144407142D01*
X112185714Y-144454761D01*
X112280952Y-144502380D01*
X112471428Y-144502380D01*
X112566666Y-144454761D01*
X112614285Y-144407142D01*
X112661904Y-144311904D01*
X112661904Y-144073809D01*
X112614285Y-143978571D01*
X112566666Y-143930952D01*
X112471428Y-143883333D01*
X112280952Y-143883333D01*
X112185714Y-143930952D01*
X112138095Y-143978571D01*
X112090476Y-144073809D01*
X110757142Y-142002380D02*
X110423809Y-141526190D01*
X110185714Y-142002380D02*
X110185714Y-141002380D01*
X110566666Y-141002380D01*
X110661904Y-141050000D01*
X110709523Y-141097619D01*
X110757142Y-141192857D01*
X110757142Y-141335714D01*
X110709523Y-141430952D01*
X110661904Y-141478571D01*
X110566666Y-141526190D01*
X110185714Y-141526190D01*
X111709523Y-142002380D02*
X111138095Y-142002380D01*
X111423809Y-142002380D02*
X111423809Y-141002380D01*
X111328571Y-141145238D01*
X111233333Y-141240476D01*
X111138095Y-141288095D01*
X112042857Y-141002380D02*
X112709523Y-141002380D01*
X112280952Y-142002380D01*
X110757142Y-139402380D02*
X110423809Y-138926190D01*
X110185714Y-139402380D02*
X110185714Y-138402380D01*
X110566666Y-138402380D01*
X110661904Y-138450000D01*
X110709523Y-138497619D01*
X110757142Y-138592857D01*
X110757142Y-138735714D01*
X110709523Y-138830952D01*
X110661904Y-138878571D01*
X110566666Y-138926190D01*
X110185714Y-138926190D01*
X111709523Y-139402380D02*
X111138095Y-139402380D01*
X111423809Y-139402380D02*
X111423809Y-138402380D01*
X111328571Y-138545238D01*
X111233333Y-138640476D01*
X111138095Y-138688095D01*
X112280952Y-138830952D02*
X112185714Y-138783333D01*
X112138095Y-138735714D01*
X112090476Y-138640476D01*
X112090476Y-138592857D01*
X112138095Y-138497619D01*
X112185714Y-138450000D01*
X112280952Y-138402380D01*
X112471428Y-138402380D01*
X112566666Y-138450000D01*
X112614285Y-138497619D01*
X112661904Y-138592857D01*
X112661904Y-138640476D01*
X112614285Y-138735714D01*
X112566666Y-138783333D01*
X112471428Y-138830952D01*
X112280952Y-138830952D01*
X112185714Y-138878571D01*
X112138095Y-138926190D01*
X112090476Y-139021428D01*
X112090476Y-139211904D01*
X112138095Y-139307142D01*
X112185714Y-139354761D01*
X112280952Y-139402380D01*
X112471428Y-139402380D01*
X112566666Y-139354761D01*
X112614285Y-139307142D01*
X112661904Y-139211904D01*
X112661904Y-139021428D01*
X112614285Y-138926190D01*
X112566666Y-138878571D01*
X112471428Y-138830952D01*
X110757142Y-136852380D02*
X110423809Y-136376190D01*
X110185714Y-136852380D02*
X110185714Y-135852380D01*
X110566666Y-135852380D01*
X110661904Y-135900000D01*
X110709523Y-135947619D01*
X110757142Y-136042857D01*
X110757142Y-136185714D01*
X110709523Y-136280952D01*
X110661904Y-136328571D01*
X110566666Y-136376190D01*
X110185714Y-136376190D01*
X111709523Y-136852380D02*
X111138095Y-136852380D01*
X111423809Y-136852380D02*
X111423809Y-135852380D01*
X111328571Y-135995238D01*
X111233333Y-136090476D01*
X111138095Y-136138095D01*
X112185714Y-136852380D02*
X112376190Y-136852380D01*
X112471428Y-136804761D01*
X112519047Y-136757142D01*
X112614285Y-136614285D01*
X112661904Y-136423809D01*
X112661904Y-136042857D01*
X112614285Y-135947619D01*
X112566666Y-135900000D01*
X112471428Y-135852380D01*
X112280952Y-135852380D01*
X112185714Y-135900000D01*
X112138095Y-135947619D01*
X112090476Y-136042857D01*
X112090476Y-136280952D01*
X112138095Y-136376190D01*
X112185714Y-136423809D01*
X112280952Y-136471428D01*
X112471428Y-136471428D01*
X112566666Y-136423809D01*
X112614285Y-136376190D01*
X112661904Y-136280952D01*
X110757142Y-134352380D02*
X110423809Y-133876190D01*
X110185714Y-134352380D02*
X110185714Y-133352380D01*
X110566666Y-133352380D01*
X110661904Y-133400000D01*
X110709523Y-133447619D01*
X110757142Y-133542857D01*
X110757142Y-133685714D01*
X110709523Y-133780952D01*
X110661904Y-133828571D01*
X110566666Y-133876190D01*
X110185714Y-133876190D01*
X111138095Y-133447619D02*
X111185714Y-133400000D01*
X111280952Y-133352380D01*
X111519047Y-133352380D01*
X111614285Y-133400000D01*
X111661904Y-133447619D01*
X111709523Y-133542857D01*
X111709523Y-133638095D01*
X111661904Y-133780952D01*
X111090476Y-134352380D01*
X111709523Y-134352380D01*
X112328571Y-133352380D02*
X112423809Y-133352380D01*
X112519047Y-133400000D01*
X112566666Y-133447619D01*
X112614285Y-133542857D01*
X112661904Y-133733333D01*
X112661904Y-133971428D01*
X112614285Y-134161904D01*
X112566666Y-134257142D01*
X112519047Y-134304761D01*
X112423809Y-134352380D01*
X112328571Y-134352380D01*
X112233333Y-134304761D01*
X112185714Y-134257142D01*
X112138095Y-134161904D01*
X112090476Y-133971428D01*
X112090476Y-133733333D01*
X112138095Y-133542857D01*
X112185714Y-133447619D01*
X112233333Y-133400000D01*
X112328571Y-133352380D01*
X114644642Y-136002380D02*
X114311309Y-135526190D01*
X114073214Y-136002380D02*
X114073214Y-135002380D01*
X114454166Y-135002380D01*
X114549404Y-135050000D01*
X114597023Y-135097619D01*
X114644642Y-135192857D01*
X114644642Y-135335714D01*
X114597023Y-135430952D01*
X114549404Y-135478571D01*
X114454166Y-135526190D01*
X114073214Y-135526190D01*
X115025595Y-135097619D02*
X115073214Y-135050000D01*
X115168452Y-135002380D01*
X115406547Y-135002380D01*
X115501785Y-135050000D01*
X115549404Y-135097619D01*
X115597023Y-135192857D01*
X115597023Y-135288095D01*
X115549404Y-135430952D01*
X114977976Y-136002380D01*
X115597023Y-136002380D01*
X116549404Y-136002380D02*
X115977976Y-136002380D01*
X116263690Y-136002380D02*
X116263690Y-135002380D01*
X116168452Y-135145238D01*
X116073214Y-135240476D01*
X115977976Y-135288095D01*
X119752380Y-126111904D02*
X120561904Y-126111904D01*
X120657142Y-126064285D01*
X120704761Y-126016666D01*
X120752380Y-125921428D01*
X120752380Y-125730952D01*
X120704761Y-125635714D01*
X120657142Y-125588095D01*
X120561904Y-125540476D01*
X119752380Y-125540476D01*
X120752380Y-124540476D02*
X120752380Y-125111904D01*
X120752380Y-124826190D02*
X119752380Y-124826190D01*
X119895238Y-124921428D01*
X119990476Y-125016666D01*
X120038095Y-125111904D01*
X103866666Y-148802380D02*
X103866666Y-149516666D01*
X103819047Y-149659523D01*
X103723809Y-149754761D01*
X103580952Y-149802380D01*
X103485714Y-149802380D01*
X104771428Y-149135714D02*
X104771428Y-149802380D01*
X104533333Y-148754761D02*
X104295238Y-149469047D01*
X104914285Y-149469047D01*
M02*
