G04 #@! TF.GenerationSoftware,KiCad,Pcbnew,5.1.0*
G04 #@! TF.CreationDate,2019-04-23T13:01:11-05:00*
G04 #@! TF.ProjectId,S4_20Badge,53345f32-3042-4616-9467-652e6b696361,rev?*
G04 #@! TF.SameCoordinates,Original*
G04 #@! TF.FileFunction,Soldermask,Top*
G04 #@! TF.FilePolarity,Negative*
%FSLAX46Y46*%
G04 Gerber Fmt 4.6, Leading zero omitted, Abs format (unit mm)*
G04 Created by KiCad (PCBNEW 5.1.0) date 2019-04-23 13:01:11*
%MOMM*%
%LPD*%
G04 APERTURE LIST*
%ADD10C,0.100000*%
G04 APERTURE END LIST*
D10*
G36*
X171249308Y-118034330D02*
G01*
X173351655Y-118453430D01*
X175358958Y-119123190D01*
X177853734Y-120379260D01*
X180098463Y-122016570D01*
X181590044Y-123472600D01*
X182482160Y-124543260D01*
X183285702Y-125688530D01*
X184500000Y-128000000D01*
X185106967Y-129526070D01*
X185649074Y-131636490D01*
X185855894Y-133062370D01*
X185935244Y-135190030D01*
X185746934Y-137284320D01*
X185477960Y-138650860D01*
X185097923Y-139985900D01*
X184609976Y-141282790D01*
X183682627Y-143142000D01*
X182530226Y-144877870D01*
X181642187Y-145955500D01*
X180662011Y-146961640D01*
X179025892Y-148322270D01*
X177243313Y-149431565D01*
X176907380Y-149381577D01*
X175969114Y-149153235D01*
X174916055Y-148687104D01*
X174145376Y-148069556D01*
X173718315Y-147336982D01*
X173747398Y-146378280D01*
X174204511Y-145669743D01*
X175007796Y-145062737D01*
X175815517Y-144701653D01*
X177212764Y-143470930D01*
X178427575Y-142003466D01*
X179952468Y-139065541D01*
X180612792Y-136291511D01*
X180701920Y-134371928D01*
X180497376Y-132436317D01*
X180144643Y-130994796D01*
X179423166Y-129166725D01*
X178450694Y-127514086D01*
X177573533Y-126402563D01*
X176582856Y-125410715D01*
X175490521Y-124547540D01*
X173896434Y-123612349D01*
X172613010Y-123084402D01*
X170807178Y-122628840D01*
X169000000Y-122500000D01*
X168000000Y-122500000D01*
X166118091Y-122839435D01*
X164000000Y-123500000D01*
X162360774Y-124593006D01*
X161273948Y-125463728D01*
X159986289Y-126822178D01*
X158908776Y-128386601D01*
X158069382Y-130135474D01*
X157499396Y-132033241D01*
X157232014Y-133969375D01*
X157226578Y-135417136D01*
X157575147Y-137778875D01*
X158351807Y-140018485D01*
X159534697Y-142068889D01*
X160758806Y-143527908D01*
X162217720Y-144788562D01*
X163209812Y-145259305D01*
X163951477Y-145894683D01*
X164274699Y-146435514D01*
X164380200Y-147009644D01*
X164041702Y-147965568D01*
X163131176Y-148765651D01*
X162073238Y-149237197D01*
X160789925Y-149518461D01*
X160518038Y-149373830D01*
X159290608Y-148605740D01*
X158147076Y-147747280D01*
X157090505Y-146805160D01*
X155675407Y-145249800D01*
X154473211Y-143543930D01*
X153494260Y-141710170D01*
X152748896Y-139771160D01*
X152136311Y-137061200D01*
X151976201Y-134964600D01*
X152084171Y-132838180D01*
X152310170Y-131415180D01*
X152500000Y-131000000D01*
X153127677Y-128637270D01*
X154027930Y-126704880D01*
X155151536Y-124922660D01*
X156478741Y-123305870D01*
X158530912Y-121433850D01*
X160863094Y-119919220D01*
X162767821Y-119039530D01*
X164783960Y-118396490D01*
X166891760Y-118005330D01*
X169071466Y-117881330D01*
X171249308Y-118034330D01*
G37*
X171249308Y-118034330D02*
X173351655Y-118453430D01*
X175358958Y-119123190D01*
X177853734Y-120379260D01*
X180098463Y-122016570D01*
X181590044Y-123472600D01*
X182482160Y-124543260D01*
X183285702Y-125688530D01*
X184500000Y-128000000D01*
X185106967Y-129526070D01*
X185649074Y-131636490D01*
X185855894Y-133062370D01*
X185935244Y-135190030D01*
X185746934Y-137284320D01*
X185477960Y-138650860D01*
X185097923Y-139985900D01*
X184609976Y-141282790D01*
X183682627Y-143142000D01*
X182530226Y-144877870D01*
X181642187Y-145955500D01*
X180662011Y-146961640D01*
X179025892Y-148322270D01*
X177243313Y-149431565D01*
X176907380Y-149381577D01*
X175969114Y-149153235D01*
X174916055Y-148687104D01*
X174145376Y-148069556D01*
X173718315Y-147336982D01*
X173747398Y-146378280D01*
X174204511Y-145669743D01*
X175007796Y-145062737D01*
X175815517Y-144701653D01*
X177212764Y-143470930D01*
X178427575Y-142003466D01*
X179952468Y-139065541D01*
X180612792Y-136291511D01*
X180701920Y-134371928D01*
X180497376Y-132436317D01*
X180144643Y-130994796D01*
X179423166Y-129166725D01*
X178450694Y-127514086D01*
X177573533Y-126402563D01*
X176582856Y-125410715D01*
X175490521Y-124547540D01*
X173896434Y-123612349D01*
X172613010Y-123084402D01*
X170807178Y-122628840D01*
X169000000Y-122500000D01*
X168000000Y-122500000D01*
X166118091Y-122839435D01*
X164000000Y-123500000D01*
X162360774Y-124593006D01*
X161273948Y-125463728D01*
X159986289Y-126822178D01*
X158908776Y-128386601D01*
X158069382Y-130135474D01*
X157499396Y-132033241D01*
X157232014Y-133969375D01*
X157226578Y-135417136D01*
X157575147Y-137778875D01*
X158351807Y-140018485D01*
X159534697Y-142068889D01*
X160758806Y-143527908D01*
X162217720Y-144788562D01*
X163209812Y-145259305D01*
X163951477Y-145894683D01*
X164274699Y-146435514D01*
X164380200Y-147009644D01*
X164041702Y-147965568D01*
X163131176Y-148765651D01*
X162073238Y-149237197D01*
X160789925Y-149518461D01*
X160518038Y-149373830D01*
X159290608Y-148605740D01*
X158147076Y-147747280D01*
X157090505Y-146805160D01*
X155675407Y-145249800D01*
X154473211Y-143543930D01*
X153494260Y-141710170D01*
X152748896Y-139771160D01*
X152136311Y-137061200D01*
X151976201Y-134964600D01*
X152084171Y-132838180D01*
X152310170Y-131415180D01*
X152500000Y-131000000D01*
X153127677Y-128637270D01*
X154027930Y-126704880D01*
X155151536Y-124922660D01*
X156478741Y-123305870D01*
X158530912Y-121433850D01*
X160863094Y-119919220D01*
X162767821Y-119039530D01*
X164783960Y-118396490D01*
X166891760Y-118005330D01*
X169071466Y-117881330D01*
X171249308Y-118034330D01*
G36*
X133749308Y-118034330D02*
G01*
X135851655Y-118453430D01*
X137858958Y-119123190D01*
X140353734Y-120379260D01*
X142598463Y-122016570D01*
X144090044Y-123472600D01*
X144982160Y-124543260D01*
X145785702Y-125688530D01*
X147000000Y-128000000D01*
X147606967Y-129526070D01*
X148149074Y-131636490D01*
X148355894Y-133062370D01*
X148435244Y-135190030D01*
X148246934Y-137284320D01*
X147977960Y-138650860D01*
X147597923Y-139985900D01*
X147109976Y-141282790D01*
X146182627Y-143142000D01*
X145030226Y-144877870D01*
X144142187Y-145955500D01*
X143162011Y-146961640D01*
X141525892Y-148322270D01*
X139743313Y-149431565D01*
X139407380Y-149381577D01*
X138469114Y-149153235D01*
X137416055Y-148687104D01*
X136645376Y-148069556D01*
X136218315Y-147336982D01*
X136247398Y-146378280D01*
X136704511Y-145669743D01*
X137507796Y-145062737D01*
X138315517Y-144701653D01*
X139712764Y-143470930D01*
X140927575Y-142003466D01*
X142452468Y-139065541D01*
X143112792Y-136291511D01*
X143201920Y-134371928D01*
X142997376Y-132436317D01*
X142644643Y-130994796D01*
X141923166Y-129166725D01*
X140950694Y-127514086D01*
X140073533Y-126402563D01*
X139082856Y-125410715D01*
X137990521Y-124547540D01*
X136396434Y-123612349D01*
X135113010Y-123084402D01*
X133307178Y-122628840D01*
X131500000Y-122500000D01*
X130500000Y-122500000D01*
X128618091Y-122839435D01*
X126500000Y-123500000D01*
X124860774Y-124593006D01*
X123773948Y-125463728D01*
X122486289Y-126822178D01*
X121408776Y-128386601D01*
X120569382Y-130135474D01*
X119999396Y-132033241D01*
X119732014Y-133969375D01*
X119726578Y-135417136D01*
X120075147Y-137778875D01*
X120851807Y-140018485D01*
X122034697Y-142068889D01*
X123258806Y-143527908D01*
X124717720Y-144788562D01*
X125709812Y-145259305D01*
X126451477Y-145894683D01*
X126774699Y-146435514D01*
X126880200Y-147009644D01*
X126541702Y-147965568D01*
X125631176Y-148765651D01*
X124573238Y-149237197D01*
X123289925Y-149518461D01*
X123018038Y-149373830D01*
X121790608Y-148605740D01*
X120647076Y-147747280D01*
X119590505Y-146805160D01*
X118175407Y-145249800D01*
X116973211Y-143543930D01*
X115994260Y-141710170D01*
X115248896Y-139771160D01*
X114636311Y-137061200D01*
X114476201Y-134964600D01*
X114584171Y-132838180D01*
X114810170Y-131415180D01*
X115000000Y-131000000D01*
X115627677Y-128637270D01*
X116527930Y-126704880D01*
X117651536Y-124922660D01*
X118978741Y-123305870D01*
X121030912Y-121433850D01*
X123363094Y-119919220D01*
X125267821Y-119039530D01*
X127283960Y-118396490D01*
X129391760Y-118005330D01*
X131571466Y-117881330D01*
X133749308Y-118034330D01*
G37*
X133749308Y-118034330D02*
X135851655Y-118453430D01*
X137858958Y-119123190D01*
X140353734Y-120379260D01*
X142598463Y-122016570D01*
X144090044Y-123472600D01*
X144982160Y-124543260D01*
X145785702Y-125688530D01*
X147000000Y-128000000D01*
X147606967Y-129526070D01*
X148149074Y-131636490D01*
X148355894Y-133062370D01*
X148435244Y-135190030D01*
X148246934Y-137284320D01*
X147977960Y-138650860D01*
X147597923Y-139985900D01*
X147109976Y-141282790D01*
X146182627Y-143142000D01*
X145030226Y-144877870D01*
X144142187Y-145955500D01*
X143162011Y-146961640D01*
X141525892Y-148322270D01*
X139743313Y-149431565D01*
X139407380Y-149381577D01*
X138469114Y-149153235D01*
X137416055Y-148687104D01*
X136645376Y-148069556D01*
X136218315Y-147336982D01*
X136247398Y-146378280D01*
X136704511Y-145669743D01*
X137507796Y-145062737D01*
X138315517Y-144701653D01*
X139712764Y-143470930D01*
X140927575Y-142003466D01*
X142452468Y-139065541D01*
X143112792Y-136291511D01*
X143201920Y-134371928D01*
X142997376Y-132436317D01*
X142644643Y-130994796D01*
X141923166Y-129166725D01*
X140950694Y-127514086D01*
X140073533Y-126402563D01*
X139082856Y-125410715D01*
X137990521Y-124547540D01*
X136396434Y-123612349D01*
X135113010Y-123084402D01*
X133307178Y-122628840D01*
X131500000Y-122500000D01*
X130500000Y-122500000D01*
X128618091Y-122839435D01*
X126500000Y-123500000D01*
X124860774Y-124593006D01*
X123773948Y-125463728D01*
X122486289Y-126822178D01*
X121408776Y-128386601D01*
X120569382Y-130135474D01*
X119999396Y-132033241D01*
X119732014Y-133969375D01*
X119726578Y-135417136D01*
X120075147Y-137778875D01*
X120851807Y-140018485D01*
X122034697Y-142068889D01*
X123258806Y-143527908D01*
X124717720Y-144788562D01*
X125709812Y-145259305D01*
X126451477Y-145894683D01*
X126774699Y-146435514D01*
X126880200Y-147009644D01*
X126541702Y-147965568D01*
X125631176Y-148765651D01*
X124573238Y-149237197D01*
X123289925Y-149518461D01*
X123018038Y-149373830D01*
X121790608Y-148605740D01*
X120647076Y-147747280D01*
X119590505Y-146805160D01*
X118175407Y-145249800D01*
X116973211Y-143543930D01*
X115994260Y-141710170D01*
X115248896Y-139771160D01*
X114636311Y-137061200D01*
X114476201Y-134964600D01*
X114584171Y-132838180D01*
X114810170Y-131415180D01*
X115000000Y-131000000D01*
X115627677Y-128637270D01*
X116527930Y-126704880D01*
X117651536Y-124922660D01*
X118978741Y-123305870D01*
X121030912Y-121433850D01*
X123363094Y-119919220D01*
X125267821Y-119039530D01*
X127283960Y-118396490D01*
X129391760Y-118005330D01*
X131571466Y-117881330D01*
X133749308Y-118034330D01*
X143201920Y-67371928D02*
X143206741Y-67854671D01*
X143178745Y-66888183D02*
X143201920Y-67371928D01*
X139407380Y-149381577D02*
X139743313Y-149431562D01*
X139082398Y-149318148D02*
X139407380Y-149381577D01*
X138769324Y-149241845D02*
X139082398Y-149318148D01*
X138469114Y-149153235D02*
X138769324Y-149241845D01*
X138182725Y-149052888D02*
X138469114Y-149153235D01*
X137911115Y-148941371D02*
X138182725Y-149052888D01*
X137655239Y-148819253D02*
X137911115Y-148941371D01*
X137416055Y-148687104D02*
X137655239Y-148819253D01*
X137194520Y-148545491D02*
X137416055Y-148687104D01*
X136991591Y-148394983D02*
X137194520Y-148545491D01*
X136808224Y-148236148D02*
X136991591Y-148394983D01*
X136645376Y-148069556D02*
X136808224Y-148236148D01*
X136504004Y-147895775D02*
X136645376Y-148069556D01*
X136385066Y-147715373D02*
X136504004Y-147895775D01*
X136289517Y-147528919D02*
X136385066Y-147715373D01*
X136218315Y-147336982D02*
X136289517Y-147528919D01*
X136172890Y-147142565D02*
X136218315Y-147336982D01*
X136153655Y-146948772D02*
X136172890Y-147142565D01*
X136160041Y-146756316D02*
X136153655Y-146948772D01*
X136191478Y-146565914D02*
X136160041Y-146756316D01*
X136247398Y-146378280D02*
X136191478Y-146565914D01*
X136327230Y-146194131D02*
X136247398Y-146378280D01*
X136430406Y-146014182D02*
X136327230Y-146194131D01*
X136556356Y-145839147D02*
X136430406Y-146014182D01*
X136704511Y-145669743D02*
X136556356Y-145839147D01*
X136874302Y-145506685D02*
X136704511Y-145669743D01*
X137065159Y-145350687D02*
X136874302Y-145506685D01*
X137276514Y-145202466D02*
X137065159Y-145350687D01*
X137507796Y-145062737D02*
X137276514Y-145202466D01*
X137758437Y-144932215D02*
X137507796Y-145062737D01*
X138027867Y-144811615D02*
X137758437Y-144932215D01*
X138315517Y-144701653D02*
X138027867Y-144811615D01*
X123628473Y-149468027D02*
X123289925Y-149518461D01*
X123955857Y-149403950D02*
X123628473Y-149468027D01*
X124271103Y-149326811D02*
X123955857Y-149403950D01*
X124573238Y-149237197D02*
X124271103Y-149326811D01*
X124861286Y-149135689D02*
X124573238Y-149237197D01*
X125134275Y-149022873D02*
X124861286Y-149135689D01*
X125391230Y-148899332D02*
X125134275Y-149022873D01*
X125631176Y-148765651D02*
X125391230Y-148899332D01*
X125853141Y-148622412D02*
X125631176Y-148765651D01*
X126056150Y-148470201D02*
X125853141Y-148622412D01*
X126239229Y-148309601D02*
X126056150Y-148470201D01*
X126401405Y-148141195D02*
X126239229Y-148309601D01*
X126541702Y-147965568D02*
X126401405Y-148141195D01*
X126659148Y-147783304D02*
X126541702Y-147965568D01*
X126752767Y-147594987D02*
X126659148Y-147783304D01*
X126821587Y-147401200D02*
X126752767Y-147594987D01*
X126864188Y-147205026D02*
X126821587Y-147401200D01*
X126880200Y-147009644D02*
X126864188Y-147205026D01*
X126870223Y-146815779D02*
X126880200Y-147009644D01*
X126834856Y-146624160D02*
X126870223Y-146815779D01*
X126774699Y-146435514D02*
X126834856Y-146624160D01*
X126690350Y-146250568D02*
X126774699Y-146435514D01*
X126582410Y-146070048D02*
X126690350Y-146250568D01*
X126451477Y-145894683D02*
X126582410Y-146070048D01*
X126298152Y-145725199D02*
X126451477Y-145894683D01*
X126123033Y-145562323D02*
X126298152Y-145725199D01*
X125926720Y-145406783D02*
X126123033Y-145562323D01*
X125709812Y-145259305D02*
X125926720Y-145406783D01*
X125472909Y-145120618D02*
X125709812Y-145259305D01*
X125216610Y-144991447D02*
X125472909Y-145120618D01*
X124941514Y-144872521D02*
X125216610Y-144991447D01*
X124648221Y-144764566D02*
X124941514Y-144872521D01*
X139975830Y-149350955D02*
X139743313Y-149431565D01*
X140329175Y-149120570D02*
X139975830Y-149350955D01*
X140937867Y-148732860D02*
X140329175Y-149120570D01*
X141525892Y-148322270D02*
X140937867Y-148732860D01*
X142092853Y-147889650D02*
X141525892Y-148322270D01*
X142638358Y-147435830D02*
X142092853Y-147889650D01*
X143162011Y-146961640D02*
X142638358Y-147435830D01*
X143663419Y-146467920D02*
X143162011Y-146961640D01*
X144142187Y-145955500D02*
X143663419Y-146467920D01*
X144597921Y-145425200D02*
X144142187Y-145955500D01*
X145030226Y-144877870D02*
X144597921Y-145425200D01*
X145438708Y-144314340D02*
X145030226Y-144877870D01*
X145822973Y-143735440D02*
X145438708Y-144314340D01*
X146182627Y-143142000D02*
X145822973Y-143735440D01*
X146517275Y-142534860D02*
X146182627Y-143142000D01*
X146826522Y-141914840D02*
X146517275Y-142534860D01*
X147109976Y-141282790D02*
X146826522Y-141914840D01*
X147367241Y-140639530D02*
X147109976Y-141282790D01*
X147597923Y-139985900D02*
X147367241Y-140639530D01*
X147801627Y-139322730D02*
X147597923Y-139985900D01*
X147977960Y-138650860D02*
X147801627Y-139322730D01*
X148126527Y-137971110D02*
X147977960Y-138650860D01*
X148246934Y-137284320D02*
X148126527Y-137971110D01*
X148338784Y-136591320D02*
X148246934Y-137284320D01*
X148401684Y-135892950D02*
X148338784Y-136591320D01*
X148435244Y-135190030D02*
X148401684Y-135892950D01*
X148439044Y-134483410D02*
X148435244Y-135190030D01*
X148412734Y-133773910D02*
X148439044Y-134483410D01*
X148355894Y-133062370D02*
X148412734Y-133773910D01*
X148268144Y-132349620D02*
X148355894Y-133062370D01*
X148149074Y-131636490D02*
X148268144Y-132349620D01*
X147998296Y-130923820D02*
X148149074Y-131636490D01*
X147816961Y-130218200D02*
X147998296Y-130923820D01*
X147606967Y-129526070D02*
X147816961Y-130218200D01*
X147369037Y-128847990D02*
X147606967Y-129526070D01*
X147103897Y-128184530D02*
X147369037Y-128847990D01*
X146812269Y-127536290D02*
X147103897Y-128184530D01*
X146494878Y-126903820D02*
X146812269Y-127536290D01*
X146152448Y-126287710D02*
X146494878Y-126903820D01*
X145785702Y-125688530D02*
X146152448Y-126287710D01*
X145395365Y-125106860D02*
X145785702Y-125688530D01*
X144982160Y-124543260D02*
X145395365Y-125106860D01*
X144546812Y-123998310D02*
X144982160Y-124543260D01*
X144090044Y-123472600D02*
X144546812Y-123998310D01*
X143612581Y-122966690D02*
X144090044Y-123472600D01*
X143115146Y-122481150D02*
X143612581Y-122966690D01*
X142598463Y-122016570D02*
X143115146Y-122481150D01*
X142063257Y-121573510D02*
X142598463Y-122016570D01*
X141510251Y-121152560D02*
X142063257Y-121573510D01*
X140940168Y-120754290D02*
X141510251Y-121152560D01*
X140353734Y-120379260D02*
X140940168Y-120754290D01*
X139751672Y-120028070D02*
X140353734Y-120379260D01*
X139134706Y-119701270D02*
X139751672Y-120028070D01*
X138503560Y-119399450D02*
X139134706Y-119701270D01*
X137858958Y-119123190D02*
X138503560Y-119399450D01*
X137201624Y-118873040D02*
X137858958Y-119123190D01*
X136532281Y-118649600D02*
X137201624Y-118873040D01*
X135851655Y-118453430D02*
X136532281Y-118649600D01*
X135160468Y-118285110D02*
X135851655Y-118453430D01*
X134459444Y-118145220D02*
X135160468Y-118285110D01*
X133749308Y-118034330D02*
X134459444Y-118145220D01*
X133030784Y-117953030D02*
X133749308Y-118034330D01*
X132304595Y-117901830D02*
X133030784Y-117953030D01*
X131571466Y-117881330D02*
X132304595Y-117901830D01*
X130838127Y-117892030D02*
X131571466Y-117881330D01*
X130111315Y-117933530D02*
X130838127Y-117892030D01*
X129391760Y-118005330D02*
X130111315Y-117933530D01*
X128680195Y-118106790D02*
X129391760Y-118005330D01*
X127977351Y-118237360D02*
X128680195Y-118106790D01*
X127283960Y-118396490D02*
X127977351Y-118237360D01*
X126600754Y-118583600D02*
X127283960Y-118396490D01*
X125928463Y-118798140D02*
X126600754Y-118583600D01*
X125267821Y-119039530D02*
X125928463Y-118798140D01*
X124619557Y-119307220D02*
X125267821Y-119039530D01*
X123984404Y-119600640D02*
X124619557Y-119307220D01*
X123363094Y-119919220D02*
X123984404Y-119600640D01*
X122756358Y-120262390D02*
X123363094Y-119919220D01*
X122164928Y-120629600D02*
X122756358Y-120262390D01*
X121589536Y-121020270D02*
X122164928Y-120629600D01*
X121030912Y-121433850D02*
X121589536Y-121020270D01*
X120489789Y-121869760D02*
X121030912Y-121433850D01*
X119966899Y-122327450D02*
X120489789Y-121869760D01*
X119462972Y-122806340D02*
X119966899Y-122327450D01*
X118978741Y-123305870D02*
X119462972Y-122806340D01*
X118514936Y-123825480D02*
X118978741Y-123305870D01*
X118072291Y-124364600D02*
X118514936Y-123825480D01*
X117651536Y-124922660D02*
X118072291Y-124364600D01*
X117253404Y-125499110D02*
X117651536Y-124922660D01*
X116878624Y-126093370D02*
X117253404Y-125499110D01*
X116527930Y-126704880D02*
X116878624Y-126093370D01*
X116202054Y-127333080D02*
X116527930Y-126704880D01*
X115901725Y-127977400D02*
X116202054Y-127333080D01*
X115627677Y-128637270D02*
X115901725Y-127977400D01*
X115380640Y-129312130D02*
X115627677Y-128637270D01*
X115161347Y-130001420D02*
X115380640Y-129312130D01*
X114970529Y-130704570D02*
X115161347Y-130001420D01*
X114810170Y-131415180D02*
X114970529Y-130704570D01*
X114681511Y-132126660D02*
X114810170Y-131415180D01*
X114584171Y-132838180D02*
X114681511Y-132126660D01*
X114517761Y-133548910D02*
X114584171Y-132838180D01*
X114481901Y-134257990D02*
X114517761Y-133548910D01*
X114476201Y-134964600D02*
X114481901Y-134257990D01*
X114500291Y-135667900D02*
X114476201Y-134964600D01*
X114553791Y-136367050D02*
X114500291Y-135667900D01*
X114636311Y-137061200D02*
X114553791Y-136367050D01*
X114747462Y-137749530D02*
X114636311Y-137061200D01*
X114886865Y-138431190D02*
X114747462Y-137749530D01*
X115054137Y-139105350D02*
X114886865Y-138431190D01*
X115248896Y-139771160D02*
X115054137Y-139105350D01*
X115470758Y-140427800D02*
X115248896Y-139771160D01*
X115719340Y-141074410D02*
X115470758Y-140427800D01*
X115994260Y-141710170D02*
X115719340Y-141074410D01*
X116295134Y-142334240D02*
X115994260Y-141710170D01*
X116621578Y-142945770D02*
X116295134Y-142334240D01*
X116973211Y-143543930D02*
X116621578Y-142945770D01*
X117349649Y-144127880D02*
X116973211Y-143543930D01*
X117750509Y-144696780D02*
X117349649Y-144127880D01*
X118175407Y-145249800D02*
X117750509Y-144696780D01*
X118623961Y-145786100D02*
X118175407Y-145249800D01*
X119095788Y-146304830D02*
X118623961Y-145786100D01*
X119590505Y-146805160D02*
X119095788Y-146304830D01*
X120107729Y-147286260D02*
X119590505Y-146805160D01*
X120647076Y-147747280D02*
X120107729Y-147286260D01*
X121208163Y-148187380D02*
X120647076Y-147747280D01*
X121790608Y-148605740D02*
X121208163Y-148187380D01*
X122394027Y-149001500D02*
X121790608Y-148605740D01*
X123018038Y-149373830D02*
X122394027Y-149001500D01*
X123289925Y-149518461D02*
X123018038Y-149373830D01*
X138646140Y-144444304D02*
X138261892Y-144741660D01*
X139016150Y-144133038D02*
X138646140Y-144444304D01*
X139371748Y-143808401D02*
X139016150Y-144133038D01*
X139712764Y-143470930D02*
X139371748Y-143808401D01*
X140039026Y-143121163D02*
X139712764Y-143470930D01*
X140350363Y-142759638D02*
X140039026Y-143121163D01*
X140646603Y-142386893D02*
X140350363Y-142759638D01*
X140927575Y-142003466D02*
X140646603Y-142386893D01*
X141193108Y-141609893D02*
X140927575Y-142003466D01*
X141443029Y-141206714D02*
X141193108Y-141609893D01*
X141677168Y-140794466D02*
X141443029Y-141206714D01*
X141895352Y-140373687D02*
X141677168Y-140794466D01*
X142097412Y-139944915D02*
X141895352Y-140373687D01*
X142283174Y-139508687D02*
X142097412Y-139944915D01*
X142452468Y-139065541D02*
X142283174Y-139508687D01*
X142605122Y-138616015D02*
X142452468Y-139065541D01*
X142740964Y-138160647D02*
X142605122Y-138616015D01*
X142859824Y-137699975D02*
X142740964Y-138160647D01*
X142961530Y-137234537D02*
X142859824Y-137699975D01*
X143045909Y-136764869D02*
X142961530Y-137234537D01*
X143112792Y-136291511D02*
X143045909Y-136764869D01*
X143162006Y-135815001D02*
X143112792Y-136291511D01*
X143193379Y-135335874D02*
X143162006Y-135815001D01*
X143206741Y-134854671D02*
X143193379Y-135335874D01*
X143201920Y-134371928D02*
X143206741Y-134854671D01*
X143178745Y-133888183D02*
X143201920Y-134371928D01*
X143137043Y-133403974D02*
X143178745Y-133888183D01*
X143076644Y-132919840D02*
X143137043Y-133403974D01*
X142997376Y-132436317D02*
X143076644Y-132919840D01*
X142899067Y-131953943D02*
X142997376Y-132436317D01*
X142781547Y-131473257D02*
X142899067Y-131953943D01*
X142644643Y-130994796D02*
X142781547Y-131473257D01*
X142489342Y-130522498D02*
X142644643Y-130994796D01*
X142317035Y-130060165D02*
X142489342Y-130522498D01*
X142128164Y-129608130D02*
X142317035Y-130060165D01*
X141923166Y-129166725D02*
X142128164Y-129608130D01*
X141702481Y-128736286D02*
X141923166Y-129166725D01*
X141466548Y-128317144D02*
X141702481Y-128736286D01*
X141215806Y-127909633D02*
X141466548Y-128317144D01*
X140950694Y-127514086D02*
X141215806Y-127909633D01*
X140671652Y-127130836D02*
X140950694Y-127514086D01*
X140379119Y-126760218D02*
X140671652Y-127130836D01*
X140073533Y-126402563D02*
X140379119Y-126760218D01*
X139755335Y-126058205D02*
X140073533Y-126402563D01*
X139424963Y-125727478D02*
X139755335Y-126058205D01*
X139082856Y-125410715D02*
X139424963Y-125727478D01*
X138729454Y-125108249D02*
X139082856Y-125410715D01*
X138365196Y-124820412D02*
X138729454Y-125108249D01*
X137990521Y-124547540D02*
X138365196Y-124820412D01*
X137605868Y-124289964D02*
X137990521Y-124547540D01*
X137211676Y-124048018D02*
X137605868Y-124289964D01*
X136808385Y-123822035D02*
X137211676Y-124048018D01*
X136396434Y-123612349D02*
X136808385Y-123822035D01*
X135976262Y-123419292D02*
X136396434Y-123612349D01*
X135548307Y-123243199D02*
X135976262Y-123419292D01*
X135113010Y-123084402D02*
X135548307Y-123243199D01*
X134670809Y-122943234D02*
X135113010Y-123084402D01*
X134222144Y-122820029D02*
X134670809Y-122943234D01*
X133767454Y-122715120D02*
X134222144Y-122820029D01*
X133307178Y-122628840D02*
X133767454Y-122715120D01*
X132841755Y-122561523D02*
X133307178Y-122628840D01*
X132371624Y-122513502D02*
X132841755Y-122561523D01*
X131897225Y-122485110D02*
X132371624Y-122513502D01*
X131418996Y-122476680D02*
X131897225Y-122485110D01*
X130940832Y-122488422D02*
X131418996Y-122476680D01*
X130466623Y-122520099D02*
X130940832Y-122488422D01*
X129996808Y-122571375D02*
X130466623Y-122520099D01*
X129531823Y-122641914D02*
X129996808Y-122571375D01*
X129072105Y-122731380D02*
X129531823Y-122641914D01*
X128618091Y-122839435D02*
X129072105Y-122731380D01*
X128170219Y-122965745D02*
X128618091Y-122839435D01*
X127728925Y-123109972D02*
X128170219Y-122965745D01*
X127294647Y-123271780D02*
X127728925Y-123109972D01*
X126867821Y-123450834D02*
X127294647Y-123271780D01*
X126448884Y-123646796D02*
X126867821Y-123450834D01*
X126038274Y-123859331D02*
X126448884Y-123646796D01*
X125636428Y-124088102D02*
X126038274Y-123859331D01*
X125243782Y-124332772D02*
X125636428Y-124088102D01*
X124860774Y-124593006D02*
X125243782Y-124332772D01*
X124487841Y-124868468D02*
X124860774Y-124593006D01*
X124125420Y-125158821D02*
X124487841Y-124868468D01*
X123773948Y-125463728D02*
X124125420Y-125158821D01*
X123433861Y-125782853D02*
X123773948Y-125463728D01*
X123105598Y-126115861D02*
X123433861Y-125782853D01*
X122789595Y-126462415D02*
X123105598Y-126115861D01*
X122486289Y-126822178D02*
X122789595Y-126462415D01*
X122196117Y-127194815D02*
X122486289Y-126822178D01*
X121919516Y-127579988D02*
X122196117Y-127194815D01*
X121656923Y-127977362D02*
X121919516Y-127579988D01*
X121408776Y-128386601D02*
X121656923Y-127977362D01*
X121175511Y-128807368D02*
X121408776Y-128386601D01*
X120957566Y-129239326D02*
X121175511Y-128807368D01*
X120755377Y-129682140D02*
X120957566Y-129239326D01*
X120569382Y-130135474D02*
X120755377Y-129682140D01*
X120400017Y-130598990D02*
X120569382Y-130135474D01*
X120247720Y-131072353D02*
X120400017Y-130598990D01*
X120113859Y-131551752D02*
X120247720Y-131072353D01*
X119999396Y-132033241D02*
X120113859Y-131551752D01*
X119904154Y-132516285D02*
X119999396Y-132033241D01*
X119827960Y-133000346D02*
X119904154Y-132516285D01*
X119770639Y-133484889D02*
X119827960Y-133000346D01*
X119732014Y-133969375D02*
X119770639Y-133484889D01*
X119711913Y-134453270D02*
X119732014Y-133969375D01*
X119710159Y-134936036D02*
X119711913Y-134453270D01*
X119726578Y-135417136D02*
X119710159Y-134936036D01*
X119760996Y-135896035D02*
X119726578Y-135417136D01*
X119813236Y-136372194D02*
X119760996Y-135896035D01*
X119883125Y-136845079D02*
X119813236Y-136372194D01*
X119970487Y-137314151D02*
X119883125Y-136845079D01*
X120075147Y-137778875D02*
X119970487Y-137314151D01*
X120196931Y-138238714D02*
X120075147Y-137778875D01*
X120335664Y-138693131D02*
X120196931Y-138238714D01*
X120491171Y-139141590D02*
X120335664Y-138693131D01*
X120663277Y-139583553D02*
X120491171Y-139141590D01*
X120851807Y-140018485D02*
X120663277Y-139583553D01*
X121056586Y-140445849D02*
X120851807Y-140018485D01*
X121277440Y-140865108D02*
X121056586Y-140445849D01*
X121514193Y-141275725D02*
X121277440Y-140865108D01*
X121766670Y-141677165D02*
X121514193Y-141275725D01*
X122034697Y-142068889D02*
X121766670Y-141677165D01*
X122318100Y-142450363D02*
X122034697Y-142068889D01*
X122616702Y-142821048D02*
X122318100Y-142450363D01*
X122930329Y-143180409D02*
X122616702Y-142821048D01*
X123258806Y-143527908D02*
X122930329Y-143180409D01*
X123601959Y-143863010D02*
X123258806Y-143527908D01*
X123959612Y-144185177D02*
X123601959Y-143863010D01*
X124331591Y-144493873D02*
X123959612Y-144185177D01*
X124717720Y-144788562D02*
X124331591Y-144493873D01*
G36*
X117551000Y-150051000D02*
G01*
X113449000Y-150051000D01*
X113449000Y-145949000D01*
X117551000Y-145949000D01*
X117551000Y-150051000D01*
X117551000Y-150051000D01*
G37*
G36*
X187551000Y-149551000D02*
G01*
X183449000Y-149551000D01*
X183449000Y-145449000D01*
X187551000Y-145449000D01*
X187551000Y-149551000D01*
X187551000Y-149551000D01*
G37*
G36*
X152051000Y-149551000D02*
G01*
X147949000Y-149551000D01*
X147949000Y-145449000D01*
X152051000Y-145449000D01*
X152051000Y-149551000D01*
X152051000Y-149551000D01*
G37*
G36*
X118551000Y-122051000D02*
G01*
X114449000Y-122051000D01*
X114449000Y-117949000D01*
X118551000Y-117949000D01*
X118551000Y-122051000D01*
X118551000Y-122051000D01*
G37*
G36*
X187051000Y-122051000D02*
G01*
X182949000Y-122051000D01*
X182949000Y-117949000D01*
X187051000Y-117949000D01*
X187051000Y-122051000D01*
X187051000Y-122051000D01*
G37*
G36*
X152051000Y-122051000D02*
G01*
X147949000Y-122051000D01*
X147949000Y-117949000D01*
X152051000Y-117949000D01*
X152051000Y-122051000D01*
X152051000Y-122051000D01*
G37*
G36*
X117551000Y-116551000D02*
G01*
X113449000Y-116551000D01*
X113449000Y-112449000D01*
X117551000Y-112449000D01*
X117551000Y-116551000D01*
X117551000Y-116551000D01*
G37*
G36*
X187551000Y-116051000D02*
G01*
X183449000Y-116051000D01*
X183449000Y-111949000D01*
X187551000Y-111949000D01*
X187551000Y-116051000D01*
X187551000Y-116051000D01*
G37*
G36*
X152051000Y-116051000D02*
G01*
X147949000Y-116051000D01*
X147949000Y-111949000D01*
X152051000Y-111949000D01*
X152051000Y-116051000D01*
X152051000Y-116051000D01*
G37*
G36*
X152051000Y-88551000D02*
G01*
X147949000Y-88551000D01*
X147949000Y-84449000D01*
X152051000Y-84449000D01*
X152051000Y-88551000D01*
X152051000Y-88551000D01*
G37*
G36*
X118551000Y-88551000D02*
G01*
X114449000Y-88551000D01*
X114449000Y-84449000D01*
X118551000Y-84449000D01*
X118551000Y-88551000D01*
X118551000Y-88551000D01*
G37*
G36*
X187051000Y-88551000D02*
G01*
X182949000Y-88551000D01*
X182949000Y-84449000D01*
X187051000Y-84449000D01*
X187051000Y-88551000D01*
X187051000Y-88551000D01*
G37*
G36*
X117551000Y-83051000D02*
G01*
X113449000Y-83051000D01*
X113449000Y-78949000D01*
X117551000Y-78949000D01*
X117551000Y-83051000D01*
X117551000Y-83051000D01*
G37*
G36*
X152051000Y-82551000D02*
G01*
X147949000Y-82551000D01*
X147949000Y-78449000D01*
X152051000Y-78449000D01*
X152051000Y-82551000D01*
X152051000Y-82551000D01*
G37*
G36*
X187551000Y-82551000D02*
G01*
X183449000Y-82551000D01*
X183449000Y-78449000D01*
X187551000Y-78449000D01*
X187551000Y-82551000D01*
X187551000Y-82551000D01*
G37*
G36*
X162201000Y-81351000D02*
G01*
X160799000Y-81351000D01*
X160799000Y-80549000D01*
X162201000Y-80549000D01*
X162201000Y-81351000D01*
X162201000Y-81351000D01*
G37*
G36*
X175901000Y-80701000D02*
G01*
X175099000Y-80701000D01*
X175099000Y-79299000D01*
X175901000Y-79299000D01*
X175901000Y-80701000D01*
X175901000Y-80701000D01*
G37*
G36*
X177801000Y-80701000D02*
G01*
X176999000Y-80701000D01*
X176999000Y-79299000D01*
X177801000Y-79299000D01*
X177801000Y-80701000D01*
X177801000Y-80701000D01*
G37*
G36*
X124659799Y-79626826D02*
G01*
X123822889Y-80624216D01*
X122825499Y-79787306D01*
X123662409Y-78789916D01*
X124659799Y-79626826D01*
X124659799Y-79626826D01*
G37*
G36*
X141003018Y-79605058D02*
G01*
X140166108Y-80602448D01*
X139168718Y-79765538D01*
X140005628Y-78768148D01*
X141003018Y-79605058D01*
X141003018Y-79605058D01*
G37*
G36*
X112401000Y-80401000D02*
G01*
X110599000Y-80401000D01*
X110599000Y-78599000D01*
X112401000Y-78599000D01*
X112401000Y-80401000D01*
X112401000Y-80401000D01*
G37*
G36*
X162201000Y-79451000D02*
G01*
X160799000Y-79451000D01*
X160799000Y-78649000D01*
X162201000Y-78649000D01*
X162201000Y-79451000D01*
X162201000Y-79451000D01*
G37*
G36*
X122974501Y-78212694D02*
G01*
X122137591Y-79210084D01*
X121140201Y-78373174D01*
X121977111Y-77375784D01*
X122974501Y-78212694D01*
X122974501Y-78212694D01*
G37*
G36*
X159831282Y-78265538D02*
G01*
X158833892Y-79102448D01*
X157996982Y-78105058D01*
X158994372Y-77268148D01*
X159831282Y-78265538D01*
X159831282Y-78265538D01*
G37*
G36*
X142417150Y-77919760D02*
G01*
X141580240Y-78917150D01*
X140582850Y-78080240D01*
X141419760Y-77082850D01*
X142417150Y-77919760D01*
X142417150Y-77919760D01*
G37*
G36*
X180074501Y-77787306D02*
G01*
X179077111Y-78624216D01*
X178240201Y-77626826D01*
X179237591Y-76789916D01*
X180074501Y-77787306D01*
X180074501Y-77787306D01*
G37*
G36*
X111610443Y-76065519D02*
G01*
X111676627Y-76072037D01*
X111846466Y-76123557D01*
X112002991Y-76207222D01*
X112038729Y-76236552D01*
X112140186Y-76319814D01*
X112222208Y-76419760D01*
X112252778Y-76457009D01*
X112336443Y-76613534D01*
X112387963Y-76783373D01*
X112405359Y-76960000D01*
X112387963Y-77136627D01*
X112336443Y-77306466D01*
X112252778Y-77462991D01*
X112223448Y-77498729D01*
X112140186Y-77600186D01*
X112038729Y-77683448D01*
X112002991Y-77712778D01*
X111846466Y-77796443D01*
X111676627Y-77847963D01*
X111610443Y-77854481D01*
X111544260Y-77861000D01*
X111455740Y-77861000D01*
X111389557Y-77854481D01*
X111323373Y-77847963D01*
X111153534Y-77796443D01*
X110997009Y-77712778D01*
X110961271Y-77683448D01*
X110859814Y-77600186D01*
X110776552Y-77498729D01*
X110747222Y-77462991D01*
X110663557Y-77306466D01*
X110612037Y-77136627D01*
X110594641Y-76960000D01*
X110612037Y-76783373D01*
X110663557Y-76613534D01*
X110747222Y-76457009D01*
X110777792Y-76419760D01*
X110859814Y-76319814D01*
X110961271Y-76236552D01*
X110997009Y-76207222D01*
X111153534Y-76123557D01*
X111323373Y-76072037D01*
X111389557Y-76065519D01*
X111455740Y-76059000D01*
X111544260Y-76059000D01*
X111610443Y-76065519D01*
X111610443Y-76065519D01*
G37*
G36*
X158417150Y-76580240D02*
G01*
X157419760Y-77417150D01*
X156582850Y-76419760D01*
X157580240Y-75582850D01*
X158417150Y-76580240D01*
X158417150Y-76580240D01*
G37*
G36*
X120201000Y-77301000D02*
G01*
X118799000Y-77301000D01*
X118799000Y-76499000D01*
X120201000Y-76499000D01*
X120201000Y-77301000D01*
X120201000Y-77301000D01*
G37*
G36*
X181759799Y-76373174D02*
G01*
X180762409Y-77210084D01*
X179925499Y-76212694D01*
X180922889Y-75375784D01*
X181759799Y-76373174D01*
X181759799Y-76373174D01*
G37*
G36*
X144701000Y-76301000D02*
G01*
X143299000Y-76301000D01*
X143299000Y-75499000D01*
X144701000Y-75499000D01*
X144701000Y-76301000D01*
X144701000Y-76301000D01*
G37*
G36*
X120201000Y-75401000D02*
G01*
X118799000Y-75401000D01*
X118799000Y-74599000D01*
X120201000Y-74599000D01*
X120201000Y-75401000D01*
X120201000Y-75401000D01*
G37*
G36*
X111610442Y-73525518D02*
G01*
X111676627Y-73532037D01*
X111846466Y-73583557D01*
X112002991Y-73667222D01*
X112038729Y-73696552D01*
X112140186Y-73779814D01*
X112223448Y-73881271D01*
X112252778Y-73917009D01*
X112336443Y-74073534D01*
X112387963Y-74243373D01*
X112405359Y-74420000D01*
X112387963Y-74596627D01*
X112336443Y-74766466D01*
X112252778Y-74922991D01*
X112223448Y-74958729D01*
X112140186Y-75060186D01*
X112038729Y-75143448D01*
X112002991Y-75172778D01*
X111846466Y-75256443D01*
X111676627Y-75307963D01*
X111610442Y-75314482D01*
X111544260Y-75321000D01*
X111455740Y-75321000D01*
X111389558Y-75314482D01*
X111323373Y-75307963D01*
X111153534Y-75256443D01*
X110997009Y-75172778D01*
X110961271Y-75143448D01*
X110859814Y-75060186D01*
X110776552Y-74958729D01*
X110747222Y-74922991D01*
X110663557Y-74766466D01*
X110612037Y-74596627D01*
X110594641Y-74420000D01*
X110612037Y-74243373D01*
X110663557Y-74073534D01*
X110747222Y-73917009D01*
X110776552Y-73881271D01*
X110859814Y-73779814D01*
X110961271Y-73696552D01*
X110997009Y-73667222D01*
X111153534Y-73583557D01*
X111323373Y-73532037D01*
X111389558Y-73525518D01*
X111455740Y-73519000D01*
X111544260Y-73519000D01*
X111610442Y-73525518D01*
X111610442Y-73525518D01*
G37*
G36*
X144701000Y-74401000D02*
G01*
X143299000Y-74401000D01*
X143299000Y-73599000D01*
X144701000Y-73599000D01*
X144701000Y-74401000D01*
X144701000Y-74401000D01*
G37*
G36*
X111610443Y-70985519D02*
G01*
X111676627Y-70992037D01*
X111846466Y-71043557D01*
X112002991Y-71127222D01*
X112038729Y-71156552D01*
X112140186Y-71239814D01*
X112223448Y-71341271D01*
X112252778Y-71377009D01*
X112336443Y-71533534D01*
X112387963Y-71703373D01*
X112405359Y-71880000D01*
X112387963Y-72056627D01*
X112336443Y-72226466D01*
X112252778Y-72382991D01*
X112223448Y-72418729D01*
X112140186Y-72520186D01*
X112038729Y-72603448D01*
X112002991Y-72632778D01*
X111846466Y-72716443D01*
X111676627Y-72767963D01*
X111610443Y-72774481D01*
X111544260Y-72781000D01*
X111455740Y-72781000D01*
X111389557Y-72774481D01*
X111323373Y-72767963D01*
X111153534Y-72716443D01*
X110997009Y-72632778D01*
X110961271Y-72603448D01*
X110859814Y-72520186D01*
X110776552Y-72418729D01*
X110747222Y-72382991D01*
X110663557Y-72226466D01*
X110612037Y-72056627D01*
X110594641Y-71880000D01*
X110612037Y-71703373D01*
X110663557Y-71533534D01*
X110747222Y-71377009D01*
X110776552Y-71341271D01*
X110859814Y-71239814D01*
X110961271Y-71156552D01*
X110997009Y-71127222D01*
X111153534Y-71043557D01*
X111323373Y-70992037D01*
X111389557Y-70985519D01*
X111455740Y-70979000D01*
X111544260Y-70979000D01*
X111610443Y-70985519D01*
X111610443Y-70985519D01*
G37*
G36*
X111610442Y-68445518D02*
G01*
X111676627Y-68452037D01*
X111846466Y-68503557D01*
X112002991Y-68587222D01*
X112038729Y-68616552D01*
X112140186Y-68699814D01*
X112223226Y-68801000D01*
X112252778Y-68837009D01*
X112336443Y-68993534D01*
X112387963Y-69163373D01*
X112405359Y-69340000D01*
X112387963Y-69516627D01*
X112336443Y-69686466D01*
X112252778Y-69842991D01*
X112223448Y-69878729D01*
X112140186Y-69980186D01*
X112038729Y-70063448D01*
X112002991Y-70092778D01*
X111846466Y-70176443D01*
X111676627Y-70227963D01*
X111610443Y-70234481D01*
X111544260Y-70241000D01*
X111455740Y-70241000D01*
X111389557Y-70234481D01*
X111323373Y-70227963D01*
X111153534Y-70176443D01*
X110997009Y-70092778D01*
X110961271Y-70063448D01*
X110859814Y-69980186D01*
X110776552Y-69878729D01*
X110747222Y-69842991D01*
X110663557Y-69686466D01*
X110612037Y-69516627D01*
X110594641Y-69340000D01*
X110612037Y-69163373D01*
X110663557Y-68993534D01*
X110747222Y-68837009D01*
X110776774Y-68801000D01*
X110859814Y-68699814D01*
X110961271Y-68616552D01*
X110997009Y-68587222D01*
X111153534Y-68503557D01*
X111323373Y-68452037D01*
X111389558Y-68445518D01*
X111455740Y-68439000D01*
X111544260Y-68439000D01*
X111610442Y-68445518D01*
X111610442Y-68445518D01*
G37*
G36*
X182451000Y-69701000D02*
G01*
X181649000Y-69701000D01*
X181649000Y-68299000D01*
X182451000Y-68299000D01*
X182451000Y-69701000D01*
X182451000Y-69701000D01*
G37*
G36*
X184351000Y-69701000D02*
G01*
X183549000Y-69701000D01*
X183549000Y-68299000D01*
X184351000Y-68299000D01*
X184351000Y-69701000D01*
X184351000Y-69701000D01*
G37*
G36*
X118201000Y-68801000D02*
G01*
X116799000Y-68801000D01*
X116799000Y-67999000D01*
X118201000Y-67999000D01*
X118201000Y-68801000D01*
X118201000Y-68801000D01*
G37*
G36*
X111610443Y-65905519D02*
G01*
X111676627Y-65912037D01*
X111846466Y-65963557D01*
X112002991Y-66047222D01*
X112005157Y-66049000D01*
X112140186Y-66159814D01*
X112223448Y-66261271D01*
X112252778Y-66297009D01*
X112336443Y-66453534D01*
X112387963Y-66623373D01*
X112405359Y-66800000D01*
X112387963Y-66976627D01*
X112336443Y-67146466D01*
X112252778Y-67302991D01*
X112223448Y-67338729D01*
X112140186Y-67440186D01*
X112038729Y-67523448D01*
X112002991Y-67552778D01*
X111846466Y-67636443D01*
X111676627Y-67687963D01*
X111610443Y-67694481D01*
X111544260Y-67701000D01*
X111455740Y-67701000D01*
X111389557Y-67694481D01*
X111323373Y-67687963D01*
X111153534Y-67636443D01*
X110997009Y-67552778D01*
X110961271Y-67523448D01*
X110859814Y-67440186D01*
X110776552Y-67338729D01*
X110747222Y-67302991D01*
X110663557Y-67146466D01*
X110612037Y-66976627D01*
X110594641Y-66800000D01*
X110612037Y-66623373D01*
X110663557Y-66453534D01*
X110747222Y-66297009D01*
X110776552Y-66261271D01*
X110859814Y-66159814D01*
X110994843Y-66049000D01*
X110997009Y-66047222D01*
X111153534Y-65963557D01*
X111323373Y-65912037D01*
X111389557Y-65905519D01*
X111455740Y-65899000D01*
X111544260Y-65899000D01*
X111610443Y-65905519D01*
X111610443Y-65905519D01*
G37*
G36*
X118201000Y-66901000D02*
G01*
X116799000Y-66901000D01*
X116799000Y-66099000D01*
X118201000Y-66099000D01*
X118201000Y-66901000D01*
X118201000Y-66901000D01*
G37*
G36*
X146701000Y-66851000D02*
G01*
X145299000Y-66851000D01*
X145299000Y-66049000D01*
X146701000Y-66049000D01*
X146701000Y-66851000D01*
X146701000Y-66851000D01*
G37*
G36*
X111610442Y-63365518D02*
G01*
X111676627Y-63372037D01*
X111846466Y-63423557D01*
X112002991Y-63507222D01*
X112038729Y-63536552D01*
X112140186Y-63619814D01*
X112223448Y-63721271D01*
X112252778Y-63757009D01*
X112336443Y-63913534D01*
X112387963Y-64083373D01*
X112405359Y-64260000D01*
X112387963Y-64436627D01*
X112336443Y-64606466D01*
X112252778Y-64762991D01*
X112223448Y-64798729D01*
X112140186Y-64900186D01*
X112038729Y-64983448D01*
X112002991Y-65012778D01*
X111846466Y-65096443D01*
X111676627Y-65147963D01*
X111610442Y-65154482D01*
X111544260Y-65161000D01*
X111455740Y-65161000D01*
X111389558Y-65154482D01*
X111323373Y-65147963D01*
X111153534Y-65096443D01*
X110997009Y-65012778D01*
X110961271Y-64983448D01*
X110859814Y-64900186D01*
X110776552Y-64798729D01*
X110747222Y-64762991D01*
X110663557Y-64606466D01*
X110612037Y-64436627D01*
X110594641Y-64260000D01*
X110612037Y-64083373D01*
X110663557Y-63913534D01*
X110747222Y-63757009D01*
X110776552Y-63721271D01*
X110859814Y-63619814D01*
X110961271Y-63536552D01*
X110997009Y-63507222D01*
X111153534Y-63423557D01*
X111323373Y-63372037D01*
X111389558Y-63365518D01*
X111455740Y-63359000D01*
X111544260Y-63359000D01*
X111610442Y-63365518D01*
X111610442Y-63365518D01*
G37*
G36*
X183151000Y-65151000D02*
G01*
X181849000Y-65151000D01*
X181849000Y-63849000D01*
X183151000Y-63849000D01*
X183151000Y-65151000D01*
X183151000Y-65151000D01*
G37*
G36*
X146701000Y-64951000D02*
G01*
X145299000Y-64951000D01*
X145299000Y-64149000D01*
X146701000Y-64149000D01*
X146701000Y-64951000D01*
X146701000Y-64951000D01*
G37*
G36*
X156151000Y-64851000D02*
G01*
X154849000Y-64851000D01*
X154849000Y-63549000D01*
X156151000Y-63549000D01*
X156151000Y-64851000D01*
X156151000Y-64851000D01*
G37*
G36*
X145151000Y-63251000D02*
G01*
X143849000Y-63251000D01*
X143849000Y-61949000D01*
X145151000Y-61949000D01*
X145151000Y-63251000D01*
X145151000Y-63251000D01*
G37*
G36*
X183151000Y-62951000D02*
G01*
X181849000Y-62951000D01*
X181849000Y-61649000D01*
X183151000Y-61649000D01*
X183151000Y-62951000D01*
X183151000Y-62951000D01*
G37*
G36*
X118839283Y-61714345D02*
G01*
X118188283Y-62841911D01*
X117060717Y-62190911D01*
X117711717Y-61063345D01*
X118839283Y-61714345D01*
X118839283Y-61714345D01*
G37*
G36*
X156151000Y-62651000D02*
G01*
X154849000Y-62651000D01*
X154849000Y-61349000D01*
X156151000Y-61349000D01*
X156151000Y-62651000D01*
X156151000Y-62651000D01*
G37*
G36*
X111610443Y-60825519D02*
G01*
X111676627Y-60832037D01*
X111846466Y-60883557D01*
X112002991Y-60967222D01*
X112038729Y-60996552D01*
X112140186Y-61079814D01*
X112223448Y-61181271D01*
X112252778Y-61217009D01*
X112336443Y-61373534D01*
X112387963Y-61543373D01*
X112405359Y-61720000D01*
X112387963Y-61896627D01*
X112336443Y-62066466D01*
X112252778Y-62222991D01*
X112223448Y-62258729D01*
X112140186Y-62360186D01*
X112038729Y-62443448D01*
X112002991Y-62472778D01*
X111846466Y-62556443D01*
X111676627Y-62607963D01*
X111610442Y-62614482D01*
X111544260Y-62621000D01*
X111455740Y-62621000D01*
X111389558Y-62614482D01*
X111323373Y-62607963D01*
X111153534Y-62556443D01*
X110997009Y-62472778D01*
X110961271Y-62443448D01*
X110859814Y-62360186D01*
X110776552Y-62258729D01*
X110747222Y-62222991D01*
X110663557Y-62066466D01*
X110612037Y-61896627D01*
X110594641Y-61720000D01*
X110612037Y-61543373D01*
X110663557Y-61373534D01*
X110747222Y-61217009D01*
X110776552Y-61181271D01*
X110859814Y-61079814D01*
X110961271Y-60996552D01*
X110997009Y-60967222D01*
X111153534Y-60883557D01*
X111323373Y-60832037D01*
X111389557Y-60825519D01*
X111455740Y-60819000D01*
X111544260Y-60819000D01*
X111610443Y-60825519D01*
X111610443Y-60825519D01*
G37*
G36*
X145151000Y-61051000D02*
G01*
X143849000Y-61051000D01*
X143849000Y-59749000D01*
X145151000Y-59749000D01*
X145151000Y-61051000D01*
X145151000Y-61051000D01*
G37*
G36*
X119939283Y-59809089D02*
G01*
X119288283Y-60936655D01*
X118160717Y-60285655D01*
X118811717Y-59158089D01*
X119939283Y-59809089D01*
X119939283Y-59809089D01*
G37*
G36*
X157201000Y-60801000D02*
G01*
X155799000Y-60801000D01*
X155799000Y-59999000D01*
X157201000Y-59999000D01*
X157201000Y-60801000D01*
X157201000Y-60801000D01*
G37*
G36*
X111610442Y-58285518D02*
G01*
X111676627Y-58292037D01*
X111846466Y-58343557D01*
X112002991Y-58427222D01*
X112038729Y-58456552D01*
X112140186Y-58539814D01*
X112223448Y-58641271D01*
X112252778Y-58677009D01*
X112336443Y-58833534D01*
X112387963Y-59003373D01*
X112405359Y-59180000D01*
X112387963Y-59356627D01*
X112336443Y-59526466D01*
X112252778Y-59682991D01*
X112223448Y-59718729D01*
X112140186Y-59820186D01*
X112038729Y-59903448D01*
X112002991Y-59932778D01*
X111846466Y-60016443D01*
X111676627Y-60067963D01*
X111610443Y-60074481D01*
X111544260Y-60081000D01*
X111455740Y-60081000D01*
X111389557Y-60074481D01*
X111323373Y-60067963D01*
X111153534Y-60016443D01*
X110997009Y-59932778D01*
X110961271Y-59903448D01*
X110859814Y-59820186D01*
X110776552Y-59718729D01*
X110747222Y-59682991D01*
X110663557Y-59526466D01*
X110612037Y-59356627D01*
X110594641Y-59180000D01*
X110612037Y-59003373D01*
X110663557Y-58833534D01*
X110747222Y-58677009D01*
X110776552Y-58641271D01*
X110859814Y-58539814D01*
X110961271Y-58456552D01*
X110997009Y-58427222D01*
X111153534Y-58343557D01*
X111323373Y-58292037D01*
X111389558Y-58285518D01*
X111455740Y-58279000D01*
X111544260Y-58279000D01*
X111610442Y-58285518D01*
X111610442Y-58285518D01*
G37*
G36*
X157201000Y-58901000D02*
G01*
X155799000Y-58901000D01*
X155799000Y-58099000D01*
X157201000Y-58099000D01*
X157201000Y-58901000D01*
X157201000Y-58901000D01*
G37*
G36*
X111610443Y-55745519D02*
G01*
X111676627Y-55752037D01*
X111846466Y-55803557D01*
X112002991Y-55887222D01*
X112038729Y-55916552D01*
X112140186Y-55999814D01*
X112223448Y-56101271D01*
X112252778Y-56137009D01*
X112336443Y-56293534D01*
X112387963Y-56463373D01*
X112405359Y-56640000D01*
X112387963Y-56816627D01*
X112336443Y-56986466D01*
X112252778Y-57142991D01*
X112223448Y-57178729D01*
X112140186Y-57280186D01*
X112038729Y-57363448D01*
X112002991Y-57392778D01*
X111846466Y-57476443D01*
X111676627Y-57527963D01*
X111610442Y-57534482D01*
X111544260Y-57541000D01*
X111455740Y-57541000D01*
X111389558Y-57534482D01*
X111323373Y-57527963D01*
X111153534Y-57476443D01*
X110997009Y-57392778D01*
X110961271Y-57363448D01*
X110859814Y-57280186D01*
X110776552Y-57178729D01*
X110747222Y-57142991D01*
X110663557Y-56986466D01*
X110612037Y-56816627D01*
X110594641Y-56640000D01*
X110612037Y-56463373D01*
X110663557Y-56293534D01*
X110747222Y-56137009D01*
X110776552Y-56101271D01*
X110859814Y-55999814D01*
X110961271Y-55916552D01*
X110997009Y-55887222D01*
X111153534Y-55803557D01*
X111323373Y-55752037D01*
X111389557Y-55745519D01*
X111455740Y-55739000D01*
X111544260Y-55739000D01*
X111610443Y-55745519D01*
X111610443Y-55745519D01*
G37*
G36*
X118551000Y-55051000D02*
G01*
X114449000Y-55051000D01*
X114449000Y-50949000D01*
X118551000Y-50949000D01*
X118551000Y-55051000D01*
X118551000Y-55051000D01*
G37*
G36*
X152051000Y-55051000D02*
G01*
X147949000Y-55051000D01*
X147949000Y-50949000D01*
X152051000Y-50949000D01*
X152051000Y-55051000D01*
X152051000Y-55051000D01*
G37*
G36*
X187051000Y-55051000D02*
G01*
X182949000Y-55051000D01*
X182949000Y-50949000D01*
X187051000Y-50949000D01*
X187051000Y-55051000D01*
X187051000Y-55051000D01*
G37*
G36*
X111610442Y-53205518D02*
G01*
X111676627Y-53212037D01*
X111846466Y-53263557D01*
X112002991Y-53347222D01*
X112038729Y-53376552D01*
X112140186Y-53459814D01*
X112223448Y-53561271D01*
X112252778Y-53597009D01*
X112336443Y-53753534D01*
X112387963Y-53923373D01*
X112405359Y-54100000D01*
X112387963Y-54276627D01*
X112336443Y-54446466D01*
X112252778Y-54602991D01*
X112223448Y-54638729D01*
X112140186Y-54740186D01*
X112038729Y-54823448D01*
X112002991Y-54852778D01*
X111846466Y-54936443D01*
X111676627Y-54987963D01*
X111610442Y-54994482D01*
X111544260Y-55001000D01*
X111455740Y-55001000D01*
X111389558Y-54994482D01*
X111323373Y-54987963D01*
X111153534Y-54936443D01*
X110997009Y-54852778D01*
X110961271Y-54823448D01*
X110859814Y-54740186D01*
X110776552Y-54638729D01*
X110747222Y-54602991D01*
X110663557Y-54446466D01*
X110612037Y-54276627D01*
X110594641Y-54100000D01*
X110612037Y-53923373D01*
X110663557Y-53753534D01*
X110747222Y-53597009D01*
X110776552Y-53561271D01*
X110859814Y-53459814D01*
X110961271Y-53376552D01*
X110997009Y-53347222D01*
X111153534Y-53263557D01*
X111323373Y-53212037D01*
X111389558Y-53205518D01*
X111455740Y-53199000D01*
X111544260Y-53199000D01*
X111610442Y-53205518D01*
X111610442Y-53205518D01*
G37*
G36*
X174801000Y-54701000D02*
G01*
X173999000Y-54701000D01*
X173999000Y-53299000D01*
X174801000Y-53299000D01*
X174801000Y-54701000D01*
X174801000Y-54701000D01*
G37*
G36*
X125951000Y-54701000D02*
G01*
X125149000Y-54701000D01*
X125149000Y-53299000D01*
X125951000Y-53299000D01*
X125951000Y-54701000D01*
X125951000Y-54701000D01*
G37*
G36*
X172901000Y-54701000D02*
G01*
X172099000Y-54701000D01*
X172099000Y-53299000D01*
X172901000Y-53299000D01*
X172901000Y-54701000D01*
X172901000Y-54701000D01*
G37*
G36*
X127851000Y-54701000D02*
G01*
X127049000Y-54701000D01*
X127049000Y-53299000D01*
X127851000Y-53299000D01*
X127851000Y-54701000D01*
X127851000Y-54701000D01*
G37*
G36*
X130451000Y-54151000D02*
G01*
X129149000Y-54151000D01*
X129149000Y-52849000D01*
X130451000Y-52849000D01*
X130451000Y-54151000D01*
X130451000Y-54151000D01*
G37*
G36*
X170651000Y-54151000D02*
G01*
X169349000Y-54151000D01*
X169349000Y-52849000D01*
X170651000Y-52849000D01*
X170651000Y-54151000D01*
X170651000Y-54151000D01*
G37*
G36*
X168451000Y-54151000D02*
G01*
X167149000Y-54151000D01*
X167149000Y-52849000D01*
X168451000Y-52849000D01*
X168451000Y-54151000D01*
X168451000Y-54151000D01*
G37*
G36*
X132651000Y-54151000D02*
G01*
X131349000Y-54151000D01*
X131349000Y-52849000D01*
X132651000Y-52849000D01*
X132651000Y-54151000D01*
X132651000Y-54151000D01*
G37*
M02*
