G04 #@! TF.GenerationSoftware,KiCad,Pcbnew,5.1.2*
G04 #@! TF.CreationDate,2019-07-05T15:03:06-05:00*
G04 #@! TF.ProjectId,KokiriEmerald,4b6f6b69-7269-4456-9d65-72616c642e6b,rev?*
G04 #@! TF.SameCoordinates,Original*
G04 #@! TF.FileFunction,Soldermask,Bot*
G04 #@! TF.FilePolarity,Negative*
%FSLAX46Y46*%
G04 Gerber Fmt 4.6, Leading zero omitted, Abs format (unit mm)*
G04 Created by KiCad (PCBNEW 5.1.2) date 2019-07-05 15:03:06*
%MOMM*%
%LPD*%
G04 APERTURE LIST*
%ADD10C,0.010000*%
%ADD11C,0.900000*%
%ADD12C,0.100000*%
%ADD13C,0.800000*%
%ADD14C,1.275000*%
%ADD15R,1.400000X3.550000*%
G04 APERTURE END LIST*
D10*
G36*
X154568349Y-79608500D02*
G01*
X156765274Y-83999703D01*
X158962200Y-88390906D01*
X158843470Y-88452304D01*
X158724740Y-88513701D01*
X155323356Y-84431517D01*
X154898411Y-83921772D01*
X154488355Y-83430382D01*
X154096455Y-82961239D01*
X153725979Y-82518234D01*
X153380196Y-82105257D01*
X153062371Y-81726198D01*
X152775774Y-81384949D01*
X152523672Y-81085400D01*
X152309332Y-80831443D01*
X152136022Y-80626967D01*
X152007010Y-80475864D01*
X151925564Y-80382024D01*
X151894950Y-80349338D01*
X151894903Y-80349333D01*
X151858250Y-80375399D01*
X151762326Y-80450267D01*
X151613241Y-80568946D01*
X151417107Y-80726445D01*
X151180032Y-80917773D01*
X150908126Y-81137936D01*
X150607500Y-81381944D01*
X150284263Y-81644805D01*
X149944526Y-81921527D01*
X149594398Y-82207119D01*
X149239990Y-82496588D01*
X148887411Y-82784944D01*
X148542771Y-83067195D01*
X148212181Y-83338349D01*
X147901750Y-83593414D01*
X147617588Y-83827398D01*
X147365806Y-84035311D01*
X147152512Y-84212159D01*
X146983818Y-84352953D01*
X146865833Y-84452699D01*
X146804667Y-84506407D01*
X146797631Y-84513652D01*
X146806912Y-84562650D01*
X146848856Y-84688383D01*
X146922994Y-84889670D01*
X147028860Y-85165331D01*
X147165985Y-85514184D01*
X147333902Y-85935050D01*
X147532143Y-86426747D01*
X147760240Y-86988095D01*
X148017725Y-87617913D01*
X148294566Y-88291787D01*
X149828369Y-92017548D01*
X150422069Y-92238445D01*
X150630425Y-92314393D01*
X150809286Y-92376605D01*
X150944421Y-92420365D01*
X151021599Y-92440958D01*
X151033923Y-92441188D01*
X151030249Y-92397621D01*
X151014334Y-92276418D01*
X150987080Y-92083584D01*
X150949388Y-91825125D01*
X150902160Y-91507046D01*
X150846298Y-91135350D01*
X150782704Y-90716044D01*
X150712281Y-90255131D01*
X150635930Y-89758618D01*
X150554554Y-89232508D01*
X150477871Y-88739361D01*
X150392435Y-88190589D01*
X150310841Y-87665194D01*
X150234026Y-87169274D01*
X150162925Y-86708926D01*
X150098473Y-86290249D01*
X150041604Y-85919339D01*
X149993255Y-85602296D01*
X149954361Y-85345216D01*
X149925855Y-85154198D01*
X149908675Y-85035339D01*
X149903667Y-84995236D01*
X149935056Y-84965453D01*
X150031645Y-84920447D01*
X150197068Y-84858922D01*
X150434959Y-84779581D01*
X150748950Y-84681126D01*
X150981301Y-84610559D01*
X151271225Y-84524009D01*
X151536305Y-84446168D01*
X151765212Y-84380258D01*
X151946615Y-84329505D01*
X152069184Y-84297130D01*
X152120905Y-84286333D01*
X152159459Y-84316539D01*
X152250788Y-84403830D01*
X152390087Y-84543218D01*
X152572554Y-84729713D01*
X152793385Y-84958326D01*
X153047776Y-85224066D01*
X153330925Y-85521947D01*
X153638029Y-85846977D01*
X153964283Y-86194167D01*
X154193540Y-86439209D01*
X156204206Y-88592085D01*
X155147320Y-91953126D01*
X154977978Y-92489783D01*
X154816402Y-92998159D01*
X154664439Y-93472648D01*
X154523931Y-93907645D01*
X154396724Y-94297542D01*
X154284662Y-94636734D01*
X154189588Y-94919615D01*
X154113348Y-95140579D01*
X154057785Y-95294019D01*
X154024743Y-95374329D01*
X154018467Y-95384515D01*
X153977474Y-95415076D01*
X153872318Y-95490322D01*
X153708309Y-95606543D01*
X153490756Y-95760027D01*
X153224970Y-95947066D01*
X152916259Y-96163948D01*
X152569933Y-96406963D01*
X152191301Y-96672401D01*
X151785673Y-96956551D01*
X151358358Y-97255704D01*
X150914667Y-97566149D01*
X150459907Y-97884176D01*
X149999389Y-98206073D01*
X149538423Y-98528132D01*
X149082317Y-98846641D01*
X148636382Y-99157891D01*
X148205926Y-99458171D01*
X147796259Y-99743770D01*
X147412691Y-100010979D01*
X147060531Y-100256086D01*
X146745088Y-100475382D01*
X146471673Y-100665157D01*
X146245594Y-100821700D01*
X146072161Y-100941300D01*
X145956684Y-101020248D01*
X145904472Y-101054833D01*
X145903167Y-101055583D01*
X145859674Y-101041721D01*
X145743919Y-100995330D01*
X145560865Y-100918583D01*
X145315479Y-100813650D01*
X145012726Y-100682705D01*
X144657571Y-100527918D01*
X144254979Y-100351463D01*
X143809917Y-100155512D01*
X143327349Y-99942235D01*
X142812240Y-99713806D01*
X142269557Y-99472396D01*
X141704265Y-99220178D01*
X141564000Y-99157482D01*
X140993449Y-98902103D01*
X140444250Y-98655772D01*
X139921386Y-98420753D01*
X139429843Y-98199307D01*
X138974603Y-97993697D01*
X138560651Y-97806185D01*
X138192970Y-97639033D01*
X137876545Y-97494504D01*
X137616359Y-97374861D01*
X137417396Y-97282366D01*
X137284640Y-97219280D01*
X137223076Y-97187867D01*
X137219491Y-97185340D01*
X137197098Y-97138874D01*
X137146576Y-97019555D01*
X137070254Y-96833350D01*
X136970464Y-96586225D01*
X136849536Y-96284144D01*
X136709801Y-95933075D01*
X136553591Y-95538981D01*
X136383235Y-95107830D01*
X136201065Y-94645586D01*
X136009412Y-94158216D01*
X135810606Y-93651684D01*
X135606978Y-93131958D01*
X135400859Y-92605001D01*
X135194579Y-92076781D01*
X134990470Y-91553262D01*
X134790862Y-91040411D01*
X134598087Y-90544192D01*
X134414474Y-90070573D01*
X134242355Y-89625517D01*
X134084061Y-89214992D01*
X133941922Y-88844962D01*
X133818269Y-88521394D01*
X133715433Y-88250253D01*
X133635745Y-88037504D01*
X133581536Y-87889114D01*
X133555135Y-87811047D01*
X133552893Y-87800734D01*
X133571478Y-87752695D01*
X133623190Y-87634143D01*
X133705192Y-87451178D01*
X133814642Y-87209900D01*
X133948704Y-86916409D01*
X134104539Y-86576804D01*
X134279307Y-86197185D01*
X134470170Y-85783652D01*
X134674289Y-85342305D01*
X134888826Y-84879244D01*
X135110941Y-84400568D01*
X135337797Y-83912377D01*
X135566554Y-83420771D01*
X135794374Y-82931850D01*
X136018418Y-82451713D01*
X136235847Y-81986460D01*
X136443823Y-81542192D01*
X136639507Y-81125007D01*
X136820060Y-80741006D01*
X136982643Y-80396289D01*
X137124418Y-80096955D01*
X137242547Y-79849104D01*
X137334189Y-79658835D01*
X137396507Y-79532249D01*
X137426662Y-79475446D01*
X137428340Y-79473214D01*
X137473429Y-79450035D01*
X137591291Y-79395994D01*
X137776766Y-79313324D01*
X138024698Y-79204261D01*
X138329929Y-79071038D01*
X138687302Y-78915891D01*
X139091658Y-78741054D01*
X139537840Y-78548762D01*
X140020691Y-78341249D01*
X140535053Y-78120750D01*
X141075768Y-77889499D01*
X141596917Y-77667107D01*
X145715001Y-75911620D01*
X154568349Y-79608500D01*
X154568349Y-79608500D01*
G37*
X154568349Y-79608500D02*
X156765274Y-83999703D01*
X158962200Y-88390906D01*
X158843470Y-88452304D01*
X158724740Y-88513701D01*
X155323356Y-84431517D01*
X154898411Y-83921772D01*
X154488355Y-83430382D01*
X154096455Y-82961239D01*
X153725979Y-82518234D01*
X153380196Y-82105257D01*
X153062371Y-81726198D01*
X152775774Y-81384949D01*
X152523672Y-81085400D01*
X152309332Y-80831443D01*
X152136022Y-80626967D01*
X152007010Y-80475864D01*
X151925564Y-80382024D01*
X151894950Y-80349338D01*
X151894903Y-80349333D01*
X151858250Y-80375399D01*
X151762326Y-80450267D01*
X151613241Y-80568946D01*
X151417107Y-80726445D01*
X151180032Y-80917773D01*
X150908126Y-81137936D01*
X150607500Y-81381944D01*
X150284263Y-81644805D01*
X149944526Y-81921527D01*
X149594398Y-82207119D01*
X149239990Y-82496588D01*
X148887411Y-82784944D01*
X148542771Y-83067195D01*
X148212181Y-83338349D01*
X147901750Y-83593414D01*
X147617588Y-83827398D01*
X147365806Y-84035311D01*
X147152512Y-84212159D01*
X146983818Y-84352953D01*
X146865833Y-84452699D01*
X146804667Y-84506407D01*
X146797631Y-84513652D01*
X146806912Y-84562650D01*
X146848856Y-84688383D01*
X146922994Y-84889670D01*
X147028860Y-85165331D01*
X147165985Y-85514184D01*
X147333902Y-85935050D01*
X147532143Y-86426747D01*
X147760240Y-86988095D01*
X148017725Y-87617913D01*
X148294566Y-88291787D01*
X149828369Y-92017548D01*
X150422069Y-92238445D01*
X150630425Y-92314393D01*
X150809286Y-92376605D01*
X150944421Y-92420365D01*
X151021599Y-92440958D01*
X151033923Y-92441188D01*
X151030249Y-92397621D01*
X151014334Y-92276418D01*
X150987080Y-92083584D01*
X150949388Y-91825125D01*
X150902160Y-91507046D01*
X150846298Y-91135350D01*
X150782704Y-90716044D01*
X150712281Y-90255131D01*
X150635930Y-89758618D01*
X150554554Y-89232508D01*
X150477871Y-88739361D01*
X150392435Y-88190589D01*
X150310841Y-87665194D01*
X150234026Y-87169274D01*
X150162925Y-86708926D01*
X150098473Y-86290249D01*
X150041604Y-85919339D01*
X149993255Y-85602296D01*
X149954361Y-85345216D01*
X149925855Y-85154198D01*
X149908675Y-85035339D01*
X149903667Y-84995236D01*
X149935056Y-84965453D01*
X150031645Y-84920447D01*
X150197068Y-84858922D01*
X150434959Y-84779581D01*
X150748950Y-84681126D01*
X150981301Y-84610559D01*
X151271225Y-84524009D01*
X151536305Y-84446168D01*
X151765212Y-84380258D01*
X151946615Y-84329505D01*
X152069184Y-84297130D01*
X152120905Y-84286333D01*
X152159459Y-84316539D01*
X152250788Y-84403830D01*
X152390087Y-84543218D01*
X152572554Y-84729713D01*
X152793385Y-84958326D01*
X153047776Y-85224066D01*
X153330925Y-85521947D01*
X153638029Y-85846977D01*
X153964283Y-86194167D01*
X154193540Y-86439209D01*
X156204206Y-88592085D01*
X155147320Y-91953126D01*
X154977978Y-92489783D01*
X154816402Y-92998159D01*
X154664439Y-93472648D01*
X154523931Y-93907645D01*
X154396724Y-94297542D01*
X154284662Y-94636734D01*
X154189588Y-94919615D01*
X154113348Y-95140579D01*
X154057785Y-95294019D01*
X154024743Y-95374329D01*
X154018467Y-95384515D01*
X153977474Y-95415076D01*
X153872318Y-95490322D01*
X153708309Y-95606543D01*
X153490756Y-95760027D01*
X153224970Y-95947066D01*
X152916259Y-96163948D01*
X152569933Y-96406963D01*
X152191301Y-96672401D01*
X151785673Y-96956551D01*
X151358358Y-97255704D01*
X150914667Y-97566149D01*
X150459907Y-97884176D01*
X149999389Y-98206073D01*
X149538423Y-98528132D01*
X149082317Y-98846641D01*
X148636382Y-99157891D01*
X148205926Y-99458171D01*
X147796259Y-99743770D01*
X147412691Y-100010979D01*
X147060531Y-100256086D01*
X146745088Y-100475382D01*
X146471673Y-100665157D01*
X146245594Y-100821700D01*
X146072161Y-100941300D01*
X145956684Y-101020248D01*
X145904472Y-101054833D01*
X145903167Y-101055583D01*
X145859674Y-101041721D01*
X145743919Y-100995330D01*
X145560865Y-100918583D01*
X145315479Y-100813650D01*
X145012726Y-100682705D01*
X144657571Y-100527918D01*
X144254979Y-100351463D01*
X143809917Y-100155512D01*
X143327349Y-99942235D01*
X142812240Y-99713806D01*
X142269557Y-99472396D01*
X141704265Y-99220178D01*
X141564000Y-99157482D01*
X140993449Y-98902103D01*
X140444250Y-98655772D01*
X139921386Y-98420753D01*
X139429843Y-98199307D01*
X138974603Y-97993697D01*
X138560651Y-97806185D01*
X138192970Y-97639033D01*
X137876545Y-97494504D01*
X137616359Y-97374861D01*
X137417396Y-97282366D01*
X137284640Y-97219280D01*
X137223076Y-97187867D01*
X137219491Y-97185340D01*
X137197098Y-97138874D01*
X137146576Y-97019555D01*
X137070254Y-96833350D01*
X136970464Y-96586225D01*
X136849536Y-96284144D01*
X136709801Y-95933075D01*
X136553591Y-95538981D01*
X136383235Y-95107830D01*
X136201065Y-94645586D01*
X136009412Y-94158216D01*
X135810606Y-93651684D01*
X135606978Y-93131958D01*
X135400859Y-92605001D01*
X135194579Y-92076781D01*
X134990470Y-91553262D01*
X134790862Y-91040411D01*
X134598087Y-90544192D01*
X134414474Y-90070573D01*
X134242355Y-89625517D01*
X134084061Y-89214992D01*
X133941922Y-88844962D01*
X133818269Y-88521394D01*
X133715433Y-88250253D01*
X133635745Y-88037504D01*
X133581536Y-87889114D01*
X133555135Y-87811047D01*
X133552893Y-87800734D01*
X133571478Y-87752695D01*
X133623190Y-87634143D01*
X133705192Y-87451178D01*
X133814642Y-87209900D01*
X133948704Y-86916409D01*
X134104539Y-86576804D01*
X134279307Y-86197185D01*
X134470170Y-85783652D01*
X134674289Y-85342305D01*
X134888826Y-84879244D01*
X135110941Y-84400568D01*
X135337797Y-83912377D01*
X135566554Y-83420771D01*
X135794374Y-82931850D01*
X136018418Y-82451713D01*
X136235847Y-81986460D01*
X136443823Y-81542192D01*
X136639507Y-81125007D01*
X136820060Y-80741006D01*
X136982643Y-80396289D01*
X137124418Y-80096955D01*
X137242547Y-79849104D01*
X137334189Y-79658835D01*
X137396507Y-79532249D01*
X137426662Y-79475446D01*
X137428340Y-79473214D01*
X137473429Y-79450035D01*
X137591291Y-79395994D01*
X137776766Y-79313324D01*
X138024698Y-79204261D01*
X138329929Y-79071038D01*
X138687302Y-78915891D01*
X139091658Y-78741054D01*
X139537840Y-78548762D01*
X140020691Y-78341249D01*
X140535053Y-78120750D01*
X141075768Y-77889499D01*
X141596917Y-77667107D01*
X145715001Y-75911620D01*
X154568349Y-79608500D01*
D11*
X136666764Y-100575529D03*
D12*
G36*
X136642291Y-99825928D02*
G01*
X137379528Y-100342147D01*
X136691237Y-101325130D01*
X135954000Y-100808911D01*
X136642291Y-99825928D01*
X136642291Y-99825928D01*
G37*
D13*
X136011442Y-100116667D03*
D12*
G36*
X136027927Y-99395745D02*
G01*
X136683249Y-99854606D01*
X135994957Y-100837589D01*
X135339635Y-100378728D01*
X136027927Y-99395745D01*
X136027927Y-99395745D01*
G37*
D11*
X134700799Y-99198945D03*
D12*
G36*
X134676326Y-98449344D02*
G01*
X135413563Y-98965563D01*
X134725272Y-99948546D01*
X133988035Y-99432327D01*
X134676326Y-98449344D01*
X134676326Y-98449344D01*
G37*
D13*
X135356120Y-99657806D03*
D12*
G36*
X135372605Y-98936884D02*
G01*
X136027927Y-99395745D01*
X135339635Y-100378728D01*
X134684313Y-99919867D01*
X135372605Y-98936884D01*
X135372605Y-98936884D01*
G37*
D11*
X137699201Y-99101055D03*
D12*
G36*
X137674728Y-98351454D02*
G01*
X138411965Y-98867673D01*
X137723674Y-99850656D01*
X136986437Y-99334437D01*
X137674728Y-98351454D01*
X137674728Y-98351454D01*
G37*
D13*
X136388558Y-98183333D03*
D12*
G36*
X136405043Y-97462411D02*
G01*
X137060365Y-97921272D01*
X136372073Y-98904255D01*
X135716751Y-98445394D01*
X136405043Y-97462411D01*
X136405043Y-97462411D01*
G37*
D13*
X137043880Y-98642194D03*
D12*
G36*
X137060365Y-97921272D02*
G01*
X137715687Y-98380133D01*
X137027395Y-99363116D01*
X136372073Y-98904255D01*
X137060365Y-97921272D01*
X137060365Y-97921272D01*
G37*
D11*
X135733236Y-97724471D03*
D12*
G36*
X135708763Y-96974870D02*
G01*
X136446000Y-97491089D01*
X135757709Y-98474072D01*
X135020472Y-97957853D01*
X135708763Y-96974870D01*
X135708763Y-96974870D01*
G37*
G36*
X139556722Y-97976868D02*
G01*
X139587434Y-97982803D01*
X139617417Y-97991719D01*
X139646382Y-98003532D01*
X140224153Y-98272951D01*
X140251820Y-98287546D01*
X140277923Y-98304783D01*
X140302211Y-98324495D01*
X140324450Y-98346493D01*
X140344426Y-98370564D01*
X140361946Y-98396478D01*
X140376842Y-98423984D01*
X140388970Y-98452818D01*
X140398213Y-98482702D01*
X140404483Y-98513348D01*
X140407719Y-98544460D01*
X140407890Y-98575741D01*
X140404993Y-98606887D01*
X140399058Y-98637599D01*
X140390141Y-98667582D01*
X140378329Y-98696546D01*
X140077214Y-99342291D01*
X140062619Y-99369958D01*
X140045382Y-99396062D01*
X140025670Y-99420350D01*
X140003673Y-99442589D01*
X139979601Y-99462565D01*
X139953687Y-99480085D01*
X139926181Y-99494981D01*
X139897347Y-99507109D01*
X139867464Y-99516352D01*
X139836818Y-99522622D01*
X139805705Y-99525858D01*
X139774425Y-99526029D01*
X139743278Y-99523132D01*
X139712566Y-99517197D01*
X139682583Y-99508281D01*
X139653618Y-99496468D01*
X139075847Y-99227049D01*
X139048180Y-99212454D01*
X139022077Y-99195217D01*
X138997789Y-99175505D01*
X138975550Y-99153507D01*
X138955574Y-99129436D01*
X138938054Y-99103522D01*
X138923158Y-99076016D01*
X138911030Y-99047182D01*
X138901787Y-99017298D01*
X138895517Y-98986652D01*
X138892281Y-98955540D01*
X138892110Y-98924259D01*
X138895007Y-98893113D01*
X138900942Y-98862401D01*
X138909859Y-98832418D01*
X138921671Y-98803454D01*
X139222786Y-98157709D01*
X139237381Y-98130042D01*
X139254618Y-98103938D01*
X139274330Y-98079650D01*
X139296327Y-98057411D01*
X139320399Y-98037435D01*
X139346313Y-98019915D01*
X139373819Y-98005019D01*
X139402653Y-97992891D01*
X139432536Y-97983648D01*
X139463182Y-97977378D01*
X139494295Y-97974142D01*
X139525575Y-97973971D01*
X139556722Y-97976868D01*
X139556722Y-97976868D01*
G37*
D14*
X139650000Y-98750000D03*
D12*
G36*
X140984156Y-98642492D02*
G01*
X141014868Y-98648427D01*
X141044851Y-98657343D01*
X141073816Y-98669156D01*
X141651587Y-98938575D01*
X141679254Y-98953170D01*
X141705357Y-98970407D01*
X141729645Y-98990119D01*
X141751884Y-99012117D01*
X141771860Y-99036188D01*
X141789380Y-99062102D01*
X141804276Y-99089608D01*
X141816404Y-99118442D01*
X141825647Y-99148326D01*
X141831917Y-99178972D01*
X141835153Y-99210084D01*
X141835324Y-99241365D01*
X141832427Y-99272511D01*
X141826492Y-99303223D01*
X141817575Y-99333206D01*
X141805763Y-99362170D01*
X141504648Y-100007915D01*
X141490053Y-100035582D01*
X141472816Y-100061686D01*
X141453104Y-100085974D01*
X141431107Y-100108213D01*
X141407035Y-100128189D01*
X141381121Y-100145709D01*
X141353615Y-100160605D01*
X141324781Y-100172733D01*
X141294898Y-100181976D01*
X141264252Y-100188246D01*
X141233139Y-100191482D01*
X141201859Y-100191653D01*
X141170712Y-100188756D01*
X141140000Y-100182821D01*
X141110017Y-100173905D01*
X141081052Y-100162092D01*
X140503281Y-99892673D01*
X140475614Y-99878078D01*
X140449511Y-99860841D01*
X140425223Y-99841129D01*
X140402984Y-99819131D01*
X140383008Y-99795060D01*
X140365488Y-99769146D01*
X140350592Y-99741640D01*
X140338464Y-99712806D01*
X140329221Y-99682922D01*
X140322951Y-99652276D01*
X140319715Y-99621164D01*
X140319544Y-99589883D01*
X140322441Y-99558737D01*
X140328376Y-99528025D01*
X140337293Y-99498042D01*
X140349105Y-99469078D01*
X140650220Y-98823333D01*
X140664815Y-98795666D01*
X140682052Y-98769562D01*
X140701764Y-98745274D01*
X140723761Y-98723035D01*
X140747833Y-98703059D01*
X140773747Y-98685539D01*
X140801253Y-98670643D01*
X140830087Y-98658515D01*
X140859970Y-98649272D01*
X140890616Y-98643002D01*
X140921729Y-98639766D01*
X140953009Y-98639595D01*
X140984156Y-98642492D01*
X140984156Y-98642492D01*
G37*
D14*
X141077434Y-99415624D03*
D12*
G36*
X134682115Y-91183062D02*
G01*
X134712827Y-91188997D01*
X134742810Y-91197914D01*
X134771774Y-91209726D01*
X134799441Y-91224321D01*
X134825545Y-91241558D01*
X134849833Y-91261270D01*
X134872072Y-91283267D01*
X134892048Y-91307339D01*
X134909568Y-91333253D01*
X134924464Y-91360759D01*
X134936592Y-91389593D01*
X135154629Y-91988647D01*
X135163873Y-92018531D01*
X135170142Y-92049177D01*
X135173378Y-92080290D01*
X135173549Y-92111570D01*
X135170652Y-92142716D01*
X135164717Y-92173429D01*
X135155800Y-92203412D01*
X135143987Y-92232376D01*
X135129392Y-92260043D01*
X135112156Y-92286146D01*
X135092444Y-92310434D01*
X135070446Y-92332673D01*
X135046374Y-92352649D01*
X135020461Y-92370169D01*
X134992954Y-92385065D01*
X134964121Y-92397193D01*
X134294590Y-92640883D01*
X134264706Y-92650126D01*
X134234061Y-92656396D01*
X134202948Y-92659632D01*
X134171668Y-92659803D01*
X134140521Y-92656906D01*
X134109809Y-92650971D01*
X134079826Y-92642054D01*
X134050862Y-92630242D01*
X134023195Y-92615647D01*
X133997091Y-92598410D01*
X133972803Y-92578698D01*
X133950564Y-92556701D01*
X133930588Y-92532629D01*
X133913068Y-92506715D01*
X133898172Y-92479209D01*
X133886044Y-92450375D01*
X133668007Y-91851321D01*
X133658763Y-91821437D01*
X133652494Y-91790791D01*
X133649258Y-91759678D01*
X133649087Y-91728398D01*
X133651984Y-91697252D01*
X133657919Y-91666539D01*
X133666836Y-91636556D01*
X133678649Y-91607592D01*
X133693244Y-91579925D01*
X133710480Y-91553822D01*
X133730192Y-91529534D01*
X133752190Y-91507295D01*
X133776262Y-91487319D01*
X133802175Y-91469799D01*
X133829682Y-91454903D01*
X133858515Y-91442775D01*
X134528046Y-91199085D01*
X134557930Y-91189842D01*
X134588575Y-91183572D01*
X134619688Y-91180336D01*
X134650968Y-91180165D01*
X134682115Y-91183062D01*
X134682115Y-91183062D01*
G37*
D14*
X134411318Y-91919984D03*
D12*
G36*
X135220797Y-92663078D02*
G01*
X135251509Y-92669013D01*
X135281492Y-92677930D01*
X135310456Y-92689742D01*
X135338123Y-92704337D01*
X135364227Y-92721574D01*
X135388515Y-92741286D01*
X135410754Y-92763283D01*
X135430730Y-92787355D01*
X135448250Y-92813269D01*
X135463146Y-92840775D01*
X135475274Y-92869609D01*
X135693311Y-93468663D01*
X135702555Y-93498547D01*
X135708824Y-93529193D01*
X135712060Y-93560306D01*
X135712231Y-93591586D01*
X135709334Y-93622732D01*
X135703399Y-93653445D01*
X135694482Y-93683428D01*
X135682669Y-93712392D01*
X135668074Y-93740059D01*
X135650838Y-93766162D01*
X135631126Y-93790450D01*
X135609128Y-93812689D01*
X135585056Y-93832665D01*
X135559143Y-93850185D01*
X135531636Y-93865081D01*
X135502803Y-93877209D01*
X134833272Y-94120899D01*
X134803388Y-94130142D01*
X134772743Y-94136412D01*
X134741630Y-94139648D01*
X134710350Y-94139819D01*
X134679203Y-94136922D01*
X134648491Y-94130987D01*
X134618508Y-94122070D01*
X134589544Y-94110258D01*
X134561877Y-94095663D01*
X134535773Y-94078426D01*
X134511485Y-94058714D01*
X134489246Y-94036717D01*
X134469270Y-94012645D01*
X134451750Y-93986731D01*
X134436854Y-93959225D01*
X134424726Y-93930391D01*
X134206689Y-93331337D01*
X134197445Y-93301453D01*
X134191176Y-93270807D01*
X134187940Y-93239694D01*
X134187769Y-93208414D01*
X134190666Y-93177268D01*
X134196601Y-93146555D01*
X134205518Y-93116572D01*
X134217331Y-93087608D01*
X134231926Y-93059941D01*
X134249162Y-93033838D01*
X134268874Y-93009550D01*
X134290872Y-92987311D01*
X134314944Y-92967335D01*
X134340857Y-92949815D01*
X134368364Y-92934919D01*
X134397197Y-92922791D01*
X135066728Y-92679101D01*
X135096612Y-92669858D01*
X135127257Y-92663588D01*
X135158370Y-92660352D01*
X135189650Y-92660181D01*
X135220797Y-92663078D01*
X135220797Y-92663078D01*
G37*
D14*
X134950000Y-93400000D03*
D12*
G36*
X152442965Y-96604671D02*
G01*
X152473955Y-96608923D01*
X152504380Y-96616192D01*
X152533945Y-96626408D01*
X152562367Y-96639473D01*
X152589371Y-96655261D01*
X152614697Y-96673620D01*
X152638102Y-96694373D01*
X152659361Y-96717320D01*
X153117347Y-97263127D01*
X153136254Y-97288047D01*
X153152627Y-97314700D01*
X153166309Y-97342830D01*
X153177167Y-97372165D01*
X153185098Y-97402424D01*
X153190025Y-97433314D01*
X153191901Y-97464538D01*
X153190707Y-97495796D01*
X153186455Y-97526786D01*
X153179186Y-97557211D01*
X153168970Y-97586776D01*
X153155905Y-97615198D01*
X153140117Y-97642202D01*
X153121758Y-97667528D01*
X153101005Y-97690933D01*
X153078058Y-97712192D01*
X152589704Y-98121969D01*
X152564784Y-98140876D01*
X152538131Y-98157249D01*
X152510001Y-98170931D01*
X152480666Y-98181789D01*
X152450407Y-98189720D01*
X152419517Y-98194647D01*
X152388293Y-98196523D01*
X152357035Y-98195329D01*
X152326045Y-98191077D01*
X152295620Y-98183808D01*
X152266055Y-98173592D01*
X152237633Y-98160527D01*
X152210629Y-98144739D01*
X152185303Y-98126380D01*
X152161898Y-98105627D01*
X152140639Y-98082680D01*
X151682653Y-97536873D01*
X151663746Y-97511953D01*
X151647373Y-97485300D01*
X151633691Y-97457170D01*
X151622833Y-97427835D01*
X151614902Y-97397576D01*
X151609975Y-97366686D01*
X151608099Y-97335462D01*
X151609293Y-97304204D01*
X151613545Y-97273214D01*
X151620814Y-97242789D01*
X151631030Y-97213224D01*
X151644095Y-97184802D01*
X151659883Y-97157798D01*
X151678242Y-97132472D01*
X151698995Y-97109067D01*
X151721942Y-97087808D01*
X152210296Y-96678031D01*
X152235216Y-96659124D01*
X152261869Y-96642751D01*
X152289999Y-96629069D01*
X152319334Y-96618211D01*
X152349593Y-96610280D01*
X152380483Y-96605353D01*
X152411707Y-96603477D01*
X152442965Y-96604671D01*
X152442965Y-96604671D01*
G37*
D14*
X152400000Y-97400000D03*
D12*
G36*
X153649485Y-95592281D02*
G01*
X153680475Y-95596533D01*
X153710900Y-95603802D01*
X153740465Y-95614018D01*
X153768887Y-95627083D01*
X153795891Y-95642871D01*
X153821217Y-95661230D01*
X153844622Y-95681983D01*
X153865881Y-95704930D01*
X154323867Y-96250737D01*
X154342774Y-96275657D01*
X154359147Y-96302310D01*
X154372829Y-96330440D01*
X154383687Y-96359775D01*
X154391618Y-96390034D01*
X154396545Y-96420924D01*
X154398421Y-96452148D01*
X154397227Y-96483406D01*
X154392975Y-96514396D01*
X154385706Y-96544821D01*
X154375490Y-96574386D01*
X154362425Y-96602808D01*
X154346637Y-96629812D01*
X154328278Y-96655138D01*
X154307525Y-96678543D01*
X154284578Y-96699802D01*
X153796224Y-97109579D01*
X153771304Y-97128486D01*
X153744651Y-97144859D01*
X153716521Y-97158541D01*
X153687186Y-97169399D01*
X153656927Y-97177330D01*
X153626037Y-97182257D01*
X153594813Y-97184133D01*
X153563555Y-97182939D01*
X153532565Y-97178687D01*
X153502140Y-97171418D01*
X153472575Y-97161202D01*
X153444153Y-97148137D01*
X153417149Y-97132349D01*
X153391823Y-97113990D01*
X153368418Y-97093237D01*
X153347159Y-97070290D01*
X152889173Y-96524483D01*
X152870266Y-96499563D01*
X152853893Y-96472910D01*
X152840211Y-96444780D01*
X152829353Y-96415445D01*
X152821422Y-96385186D01*
X152816495Y-96354296D01*
X152814619Y-96323072D01*
X152815813Y-96291814D01*
X152820065Y-96260824D01*
X152827334Y-96230399D01*
X152837550Y-96200834D01*
X152850615Y-96172412D01*
X152866403Y-96145408D01*
X152884762Y-96120082D01*
X152905515Y-96096677D01*
X152928462Y-96075418D01*
X153416816Y-95665641D01*
X153441736Y-95646734D01*
X153468389Y-95630361D01*
X153496519Y-95616679D01*
X153525854Y-95605821D01*
X153556113Y-95597890D01*
X153587003Y-95592963D01*
X153618227Y-95591087D01*
X153649485Y-95592281D01*
X153649485Y-95592281D01*
G37*
D14*
X153606520Y-96387610D03*
D15*
X142370000Y-101600000D03*
X142370000Y-106650000D03*
X144910000Y-101600000D03*
X144910000Y-106650000D03*
X147450000Y-101600000D03*
X147450000Y-106650000D03*
M02*
