<?xml version="1.0" encoding="UTF-8" standalone="no"?>
<!-- Created with Inkscape (http://www.inkscape.org/) -->

<svg
   xmlns:dc="http://purl.org/dc/elements/1.1/"
   xmlns:cc="http://creativecommons.org/ns#"
   xmlns:rdf="http://www.w3.org/1999/02/22-rdf-syntax-ns#"
   xmlns:svg="http://www.w3.org/2000/svg"
   xmlns="http://www.w3.org/2000/svg"
   xmlns:sodipodi="http://sodipodi.sourceforge.net/DTD/sodipodi-0.dtd"
   xmlns:inkscape="http://www.inkscape.org/namespaces/inkscape"
   width="110.0mm"
   height="110.0mm"
   viewBox="0 0 110.0 110.0"
   version="1.1"
   id="svg8"
   inkscape:version="0.92.4 5da689c313, 2019-01-14"
   sodipodi:docname="WordClockBottom.svg">
  <defs
     id="defs2" />
  <sodipodi:namedview
     id="base"
     pagecolor="#ffffff"
     bordercolor="#666666"
     borderopacity="1.0"
     inkscape:pageopacity="0.0"
     inkscape:pageshadow="2"
     inkscape:zoom="1"
     inkscape:cx="120.14223"
     inkscape:cy="189.41622"
     inkscape:document-units="mm"
     inkscape:current-layer="g836"
     showgrid="false"
     inkscape:window-width="1920"
     inkscape:window-height="1019"
     inkscape:window-x="0"
     inkscape:window-y="0"
     inkscape:window-maximized="1"
     borderlayer="true"
     objecttolerance="8">
    <inkscape:grid
       spacingx="2.54"
       spacingy="2.54"
       empspacing="1"
       type="xygrid"
       units="mm"
       id="grid816" />
  </sodipodi:namedview>
  <metadata
     id="metadata5">
    <rdf:RDF>
      <cc:Work
         rdf:about="">
        <dc:format>image/svg+xml</dc:format>
        <dc:type
           rdf:resource="http://purl.org/dc/dcmitype/StillImage" />
        <dc:title />
      </cc:Work>
    </rdf:RDF>
  </metadata>
  <g
     id="g822"
     sodipodi:insensitive="true"
     inkscape:groupmode="layer"
     inkscape:label="[fixed] BG">
    <rect
       id="rect820"
       style="stroke:none;fill-opacity:1;fill:#FFFFFF"
       height="110.0"
       width="110.0"
       y="0"
       x="0" />
  </g>
  <g
     id="g824"
     inkscape:groupmode="layer"
     inkscape:label="Edge.Cuts">
    <g
       aria-label="IT IS HALF TEN"
       transform="matrix(0.26458333,0,0,0.26458333,8.521748,-8.9656478e-6)"
       style="font-style:normal;font-weight:normal;font-size:40px;line-height:1.25;font-family:sans-serif;letter-spacing:0px;word-spacing:0px;fill:#000000;fill-opacity:1;stroke:none"
       id="flowRoot855" />
    <text
       xml:space="preserve"
       style="font-style:normal;font-weight:normal;font-size:10.58333302px;line-height:1.25;font-family:sans-serif;letter-spacing:0px;word-spacing:0px;fill:#000000;fill-opacity:1;stroke:none;stroke-width:0.26458332"
       x="11.339286"
       y="35.349701"
       id="text865"><tspan
         sodipodi:role="line"
         id="tspan863"
         x="11.339286"
         y="35.349701"
         style="stroke-width:0.26458332"> </tspan></text>
    <g
       aria-label="QUARTER TWENTY"
       style="font-style:normal;font-weight:normal;font-size:10.58333302px;line-height:1.25;font-family:sans-serif;letter-spacing:0px;word-spacing:0px;fill:#000000;fill-opacity:1;stroke:none;stroke-width:0.26458332"
       id="text869" />
    <g
       aria-label="FIVE MINUTES TILL"
       style="font-style:normal;font-weight:normal;font-size:10.58333302px;line-height:1.25;font-family:sans-serif;letter-spacing:0px;word-spacing:0px;fill:#000000;fill-opacity:1;stroke:none;stroke-width:0.26458332"
       id="text873" />
    <g
       aria-label="PAST TWO THREE"
       style="font-style:normal;font-weight:normal;font-size:10.58333302px;line-height:1.25;font-family:sans-serif;letter-spacing:0px;word-spacing:0px;fill:#000000;fill-opacity:1;stroke:none;stroke-width:0.26458332"
       id="text877" />
    <g
       aria-label="ONE FOUR FIVE"
       style="font-style:normal;font-weight:normal;font-size:10.58333302px;line-height:1.25;font-family:sans-serif;letter-spacing:0px;word-spacing:0px;fill:#000000;fill-opacity:1;stroke:none;stroke-width:0.26458332"
       id="text881" />
    <g
       aria-label="SIX SEVEN EIGHT"
       style="font-style:normal;font-weight:normal;font-size:10.58333302px;line-height:1.25;font-family:sans-serif;letter-spacing:0px;word-spacing:0px;fill:#000000;fill-opacity:1;stroke:none;stroke-width:0.26458332"
       id="text885" />
    <g
       aria-label="NINE TEN ELEVEN"
       style="font-style:normal;font-weight:normal;font-size:10.58333302px;line-height:1.25;font-family:sans-serif;letter-spacing:0px;word-spacing:0px;fill:#000000;fill-opacity:1;stroke:none;stroke-width:0.26458332"
       id="text889" />
    <ellipse
       style="display:inline;fill:none;fill-opacity:1;stroke:#000000;stroke-width:0.41;stroke-miterlimit:4;stroke-dasharray:none;stroke-opacity:1"
       id="path2099"
       cx="55.816883"
       cy="20.337757"
       rx="3.5079124"
       ry="3.6950011" />
    <path
       sodipodi:nodetypes="scsscscsssssssscs"
       inkscape:connector-curvature="0"
       id="path2089"
       d="M47.510929 24.764057L47.734960864 24.5424242295L47.946198459 24.3112533047L48.1444079768 24.0710433682L48.3293556094 23.8222935625L48.5008075486 23.5655030303L48.6585299863 23.3011709141L48.8022891145 23.0297963564L48.931851125 22.7518785L49.0469822097 22.4679164873L49.1474485605 22.1784094609L49.2330163694 21.8838565635L49.3034518281 21.5847569375L49.3585211287 21.2816097256L49.3979904629 20.9749140703L49.4216260227 20.6651691143L49.429194 20.352874L49.4410794434 19.9410323096L49.4810023125 19.5357509453L49.548274916 19.1379463428L49.6422095625 18.7485349375L49.7621185605 18.368433165L49.9073142187 17.9985574609L50.0771088457 17.6398242607L50.27081475 17.29315L50.4877442402 16.9594511143L50.727209625 16.6396440391L50.9885232129 16.33464521L51.2709973125 16.0453710625L51.5739442324 15.7727380322L51.8966762812 15.5176625547L52.2385057676 15.2810610654L52.598745 15.06385L52.9731586824 14.8694817273L53.3570751152 14.7008007246L53.7491520022 14.5578121526L54.1480470469 14.4405211719L54.5524179529 14.3489329431L54.9609224238 14.283052627L55.3722181633 14.242885384L55.784962875 14.228436375L56.1978142625 14.2397107605L56.6094300293 14.2767137012L57.0184678792 14.3394503577L57.4235855156 14.4279258906L57.8234406423 14.5421454607L58.2166909629 14.6821142285L58.6019941809 14.8478373547L58.978008 15.03932L59.339978031 15.2544420037L59.6835943418 15.4903466699L60.0081813215 15.7459343567L60.3130633594 16.0201054219L60.5975648445 16.3117602234L60.861010166 16.6197991191L61.1027237131 16.943122467L61.322029875 17.280630625L61.5182530408 17.6312239509L61.6907175996 17.9938028027L61.8387479407 18.3672675383L61.9616684531 18.7505185156L62.0588035261 19.1424560925L62.1294775488 19.541980627L62.1730149104 19.9479924768L62.18874 20.359392L62.1967377922 20.6711217119L62.2207866348 20.9804244297L62.2606558513 21.2867902764L62.3161147656 21.589709375L62.3869327014 21.8886718486L62.4728789824 22.1831678203L62.5737229324 22.4726874131L62.689233875 22.75672075L62.819181134 23.0347579541L62.9633340332 23.3062891484L63.1214618962 23.5708044561L63.2933340469 23.827794L63.4787198088 24.0767479033L63.6773885059 24.3171562891L63.8891094617 24.5485092803L64.113652 24.770297L64.3495444409 24.9809105696L64.595244043 25.1789415723L64.8504135376 25.3641802615L65.1147156562 25.5364168906L65.3878131304 25.6954417131L65.6693686914 25.8410449824L65.9590450708 25.9730169519L66.256505 26.091147875L66.5614112104 26.1952280051L66.8734264336 26.2850475957L67.1922134009 26.3603969001L67.5174348438 26.4210661719L67.8487534937 26.4668456643L68.185832082 26.4975256309L68.5283333403 26.512896325L68.87592 26.512748L97.687453 26.489168L98.067852111 26.4984322737L98.4431308997 26.5265385298L98.8128332058 26.5730287953L99.1765028691 26.6374450977L99.5336837295 26.7193294639L99.8839196267 26.8182239214L100.2267544 26.9336704973L100.561731891 27.0652112188L100.888395937 27.2123881131L101.206290379 27.3747432075L101.514959057 27.5518185292L101.813945811 27.7431561055L102.102794479 27.9482979634L102.381048903 28.1667861304L102.648252922 28.3981626335L102.903950375 28.6419695L103.147685103 28.8977487571L103.379000945 29.1650424321L103.59744174 29.4433925522L103.80255133 29.7323411445L103.993873553 30.0314302364L104.17095225 30.340201855L104.333331259 30.6581980275L104.480554422 30.9849607812L104.612165577 31.3200321434L104.727708565 31.6629541411L104.826727225 32.0132688017L104.908765396 32.3705181523L104.97336692 32.7342442203L105.020075635 33.1039890327L105.048435382 33.4792946169L105.05799 33.859703L105.05799 96.308063L105.048435382 96.6884620201L105.020075635 97.0637407236L104.97336692 97.4334429501L104.908765396 97.7971125391L104.826727225 98.1542933302L104.727708565 98.5045291631L104.612165577 98.8473638773L104.480554422 99.1823413125L104.333331259 99.5090053082L104.17095225 99.8268997041L103.993873553 100.13556834L103.80255133 100.434555055L103.59744174 100.723403689L103.379000945 101.001658081L103.147685103 101.268862072L102.903950375 101.5245595L102.648252922 101.768294206L102.381048903 101.999610028L102.102794479 102.218050807L101.813945811 102.423160383L101.514959057 102.614482594L101.206290379 102.79156128L100.888395937 102.953940282L100.561731891 103.101163438L100.2267544 103.232774588L99.8839196267 103.348317571L99.5336837295 103.447336228L99.1765028691 103.529374398L98.8128332058 103.593975921L98.4431308997 103.640684636L98.067852111 103.669044382L97.687453 103.678599L13.946309 103.678599L13.56590991 103.669044382L13.1906311468 103.640684636L12.8209288701 103.593975921L12.4572592398 103.529374398L12.100078416 103.447336228L11.7498425583 103.348317571L11.4070078268 103.232774588L11.0720303813 103.101163438L10.7453663816 102.953940282L10.4274719878 102.79156128L10.1188033596 102.614482594L9.81981665703 102.423160383L9.53096803988 102.218050807L9.25271366807 101.999610028L8.98550970148 101.768294206L8.7298123 101.5245595L8.48607762352 101.268862072L8.25476183193 101.001658081L8.03632108512 100.723403689L7.83121154297 100.434555055L7.63988936537 100.13556834L7.46281071221 99.8268997041L7.30043174337 99.5090053082L7.15320861875 99.1823413125L7.02159749823 98.8473638773L6.9060545417 98.5045291631L6.80703590905 98.1542933302L6.72499776016 97.7971125391L6.66039625492 97.4334429501L6.61368755322 97.0637407236L6.58532781495 96.6884620201L6.5757732 96.308063L6.5757732 33.859703L6.58532781581 33.479299612L6.61368755652 33.1040083687L6.66039626209 32.7342862759L6.72499777246 32.3705903398L6.80703592758 32.0133775663L6.90605456741 31.6631049614L7.02159753188 31.3202295311L7.15320866094 30.9852082813L7.30043179454 30.658498218L7.46281077263 30.3405563472L7.63988943516 30.0318396749L7.83121162207 29.732805207L8.03632117331 29.4439099496L8.25476192883 29.1656109087L8.48607772858 28.8983650901L8.7298124125 28.6426295L8.98550982054 28.3988611442L9.25271379265 28.1675170288L9.53096816878 27.9490541597L9.81981678887 27.743929543L10.1188034929 27.5526001845L10.4274721207 27.3755230903L10.7453665124 27.2131552664L11.0720305078 27.0659537188L11.4070079469 26.9343754533L11.7498426697 26.8188774761L12.1000785161 26.719916793L12.457259326 26.6379504102L12.8209289394 26.5734353334L13.1906311962 26.5268285688L13.5659099364 26.4985871224L13.946309 26.489168L42.805081 26.500048L43.1438125498 26.5014080781L43.4784822578 26.4870718281L43.8086857744 26.4572638984L44.13401875 26.4122089375L44.454076835 26.3521315938L44.7684556797 26.2772565156L45.0767509346 26.1878083516L45.37855825 26.08401175L45.6734732764 25.9660913594L45.9610916641 25.8342718281L46.2410090635 25.6887778047L46.512821125 25.5298339375L46.776123499 25.357664875L47.0305118359 25.1724952656L47.2755817861 24.9745497578L47.510929 24.764053L47.510929 24.764057"
       style="display:inline;fill:none;fill-opacity:1;stroke:#000000;stroke-width:0.41;stroke-miterlimit:4;stroke-dasharray:none;stroke-opacity:1" />
  </g>
  <g
     id="g826"
     inkscape:groupmode="layer"
     inkscape:label="B.Cu"
     style="display:inline" />
  <g
     id="g828"
     inkscape:groupmode="layer"
     inkscape:label="B.Mask"
     style="display:inline" />
  <g
     id="g830"
     inkscape:groupmode="layer"
     inkscape:label="B.Silk" />
  <g
     id="g832"
     inkscape:groupmode="layer"
     inkscape:label="F.Cu"
     style="display:none">
    <g
       style="display:inline"
       id="g1977">
      <g
         transform="translate(-0.10926914)"
         id="g1969">
        <rect
           style="fill:#000000;fill-opacity:1;stroke:none;stroke-width:0.45246041;stroke-miterlimit:4;stroke-dasharray:none;stroke-opacity:1"
           id="rect1965"
           width="11.54754"
           height="1.5475396"
           x="11.999654"
           y="28.644466"
           rx="0"
           ry="0" />
        <rect
           ry="0"
           rx="0"
           y="28.644466"
           x="88.305107"
           height="1.5475396"
           width="11.54754"
           id="rect1967"
           style="fill:#000000;fill-opacity:1;stroke:none;stroke-width:0.45246041;stroke-miterlimit:4;stroke-dasharray:none;stroke-opacity:1" />
      </g>
      <g
         transform="translate(-0.10926914,71.494597)"
         id="g1975">
        <rect
           ry="0"
           rx="0"
           y="28.644466"
           x="11.999654"
           height="1.5475396"
           width="11.54754"
           id="rect1971"
           style="fill:#000000;fill-opacity:1;stroke:none;stroke-width:0.45246041;stroke-miterlimit:4;stroke-dasharray:none;stroke-opacity:1" />
        <rect
           style="fill:#000000;fill-opacity:1;stroke:none;stroke-width:0.45246041;stroke-miterlimit:4;stroke-dasharray:none;stroke-opacity:1"
           id="rect1973"
           width="11.54754"
           height="1.5475396"
           x="88.305107"
           y="28.644466"
           rx="0"
           ry="0" />
      </g>
    </g>
  </g>
  <g
     id="g834"
     inkscape:groupmode="layer"
     inkscape:label="F.Mask"
     style="display:inline">
    <g
       id="g1998"
       style="display:inline">
      <g
         id="g1990"
         transform="translate(-0.10926914)">
        <rect
           ry="0"
           rx="0"
           y="28.644466"
           x="11.999654"
           height="1.5475396"
           width="11.54754"
           id="rect1986"
           style="fill:#000000;fill-opacity:1;stroke:none;stroke-width:0.45246041;stroke-miterlimit:4;stroke-dasharray:none;stroke-opacity:1" />
        <rect
           style="fill:#000000;fill-opacity:1;stroke:none;stroke-width:0.45246041;stroke-miterlimit:4;stroke-dasharray:none;stroke-opacity:1"
           id="rect1988"
           width="11.54754"
           height="1.5475396"
           x="88.305107"
           y="28.644466"
           rx="0"
           ry="0" />
      </g>
      <g
         id="g1996"
         transform="translate(-0.10926914,71.494597)">
        <rect
           style="fill:#000000;fill-opacity:1;stroke:none;stroke-width:0.45246041;stroke-miterlimit:4;stroke-dasharray:none;stroke-opacity:1"
           id="rect1992"
           width="11.54754"
           height="1.5475396"
           x="11.999654"
           y="28.644466"
           rx="0"
           ry="0" />
        <rect
           ry="0"
           rx="0"
           y="28.644466"
           x="88.305107"
           height="1.5475396"
           width="11.54754"
           id="rect1994"
           style="fill:#000000;fill-opacity:1;stroke:none;stroke-width:0.45246041;stroke-miterlimit:4;stroke-dasharray:none;stroke-opacity:1" />
      </g>
    </g>
  </g>
  <g
     id="g836"
     inkscape:groupmode="layer"
     inkscape:label="F.Silk"
     style="display:inline">
    <g
       id="g1129"
       style="font-style:normal;font-weight:normal;font-size:10.58333302px;line-height:1.25;font-family:sans-serif;letter-spacing:0px;word-spacing:0px;display:inline;fill:#000000;fill-opacity:1;stroke:none;stroke-width:0.26458332"
       aria-label="TWELVE O'CLOCK">
      <path
         d="m 92.07866,91.475345 h 1.657953 v 2.346971 l 2.390035,-2.346971 h 1.924947 l -3.09628,3.044603 3.414951,3.384807 h -2.07567 l -2.557983,-2.532146 v 2.532146 H 92.07866 Z m -1.378034,6.076287 q -0.456475,0.236851 -0.951708,0.357429 -0.495232,0.120578 -1.033529,0.120578 -1.606275,0 -2.545064,-0.895724 -0.938788,-0.900032 -0.938788,-2.437406 0,-1.54168 0.938788,-2.437405 0.938789,-0.900031 2.545064,-0.900031 0.538297,0 1.033529,0.120578 0.495233,0.120579 0.951708,0.357429 v 1.330668 q -0.460782,-0.314365 -0.908644,-0.460781 -0.447863,-0.146417 -0.943095,-0.146417 -0.887112,0 -1.395264,0.568441 -0.508151,0.568441 -0.508151,1.567518 0,0.994772 0.508151,1.563213 0.508152,0.56844 1.395264,0.56844 0.495232,0 0.943095,-0.146416 0.447862,-0.146417 0.908644,-0.460782 z M 81.045748,92.56055 q -0.757921,0 -1.175639,0.559828 -0.417718,0.559828 -0.417718,1.576131 0,1.011997 0.417718,1.571825 0.417718,0.559828 1.175639,0.559828 0.762228,0 1.179945,-0.559828 0.417718,-0.559828 0.417718,-1.571825 0,-1.016303 -0.417718,-1.576131 -0.417717,-0.559828 -1.179945,-0.559828 z m 0,-1.201477 q 1.550293,0 2.428793,0.887112 0.878499,0.887112 0.878499,2.450324 0,1.558906 -0.878499,2.446018 -0.8785,0.887112 -2.428793,0.887112 -1.545986,0 -2.428792,-0.887112 -0.8785,-0.887112 -0.8785,-2.446018 0,-1.563212 0.8785,-2.450324 0.882806,-0.887112 2.428792,-0.887112 z m -8.242394,0.116272 h 1.657952 v 5.176256 h 2.911106 v 1.253154 h -4.569058 z m -1.378039,6.076287 q -0.456475,0.236851 -0.951707,0.357429 -0.495233,0.120578 -1.033529,0.120578 -1.606276,0 -2.545064,-0.895724 -0.938789,-0.900032 -0.938789,-2.437406 0,-1.54168 0.938789,-2.437405 0.938788,-0.900031 2.545064,-0.900031 0.538296,0 1.033529,0.120578 0.495232,0.120579 0.951707,0.357429 v 1.330668 q -0.460781,-0.314365 -0.908644,-0.460781 -0.447862,-0.146417 -0.943095,-0.146417 -0.887112,0 -1.395263,0.568441 -0.508152,0.568441 -0.508152,1.567518 0,0.994772 0.508152,1.563213 0.508151,0.56844 1.395263,0.56844 0.495233,0 0.943095,-0.146416 0.447863,-0.146417 0.908644,-0.460782 z m -6.752386,-6.076287 v 2.390035 h -1.02061 v -2.390035 z m -5.606894,1.085205 q -0.757921,0 -1.175639,0.559828 -0.417718,0.559828 -0.417718,1.576131 0,1.011997 0.417718,1.571825 0.417718,0.559828 1.175639,0.559828 0.762227,0 1.179945,-0.559828 0.417718,-0.559828 0.417718,-1.571825 0,-1.016303 -0.417718,-1.576131 -0.417718,-0.559828 -1.179945,-0.559828 z m 0,-1.201477 q 1.550293,0 2.428792,0.887112 0.878499,0.887112 0.878499,2.450324 0,1.558906 -0.878499,2.446018 -0.878499,0.887112 -2.428792,0.887112 -1.545987,0 -2.428793,-0.887112 -0.878499,-0.887112 -0.878499,-2.446018 0,-1.563212 0.878499,-2.450324 0.882806,-0.887112 2.428793,-0.887112 z M 47.03404,91.475345 h 4.474318 v 1.253154 h -2.816366 v 1.19717 h 2.648417 v 1.253154 h -2.648417 v 1.472778 h 2.911106 v 1.253154 H 47.03404 Z m -7.587825,0 h 1.666565 l 1.705322,4.745619 1.701016,-4.745619 h 1.666565 l -2.381422,6.42941 h -1.976623 z m -3.643187,0 h 1.657952 v 5.176256 h 2.911106 v 1.253154 h -4.569058 z m -6.028918,0 h 4.474318 v 1.253154 h -2.816365 v 1.19717 h 2.648417 v 1.253154 h -2.648417 v 1.472778 h 2.911105 v 1.253154 H 29.77411 Z m -10.279304,0 h 1.58905 l 1.111043,4.672411 1.102431,-4.672411 h 1.597663 l 1.102431,4.672411 1.111043,-4.672411 h 1.576131 l -1.515842,6.42941 h -1.912028 l -1.167026,-4.88773 -1.154107,4.88773 h -1.912028 z m -6.231317,0 h 5.925565 v 1.253154 h -2.131653 v 5.176256 h -1.657952 v -5.176256 h -2.13596 z m 79.764729,-8.287147 h 1.851739 l 2.338358,4.409722 v -4.409722 h 1.571825 v 6.429409 h -1.851739 l -2.338358,-4.409722 v 4.409722 h -1.571825 z m -6.028916,0 h 4.474318 v 1.253153 h -2.816365 v 1.197171 h 2.648417 v 1.253153 h -2.648417 v 1.472779 h 2.911105 v 1.253153 h -4.569058 z m -7.587822,0 h 1.666565 l 1.705322,4.745619 1.701016,-4.745619 h 1.666565 l -2.381423,6.429409 h -1.976623 z m -5.262386,0 h 4.474318 v 1.253153 h -2.816366 v 1.197171 h 2.648418 v 1.253153 h -2.648418 v 1.472779 h 2.911106 v 1.253153 h -4.569058 z m -5.615505,0 h 1.657952 v 5.176256 h 2.911106 v 1.253153 h -4.569058 z m -6.028919,0 h 4.474318 v 1.253153 h -2.816366 v 1.197171 h 2.648417 v 1.253153 h -2.648417 v 1.472779 h 2.911106 v 1.253153 H 62.50467 Z m -10.455864,0 h 1.851739 l 2.338358,4.409722 v -4.409722 h 1.571825 v 6.429409 h -1.851739 l -2.338358,-4.409722 v 4.409722 h -1.571825 z m -6.02892,0 h 4.474318 v 1.253153 h -2.816365 v 1.197171 h 2.648417 v 1.253153 h -2.648417 v 1.472779 h 2.911105 v 1.253153 h -4.569058 z m -6.778223,0 h 5.925564 v 1.253153 h -2.131653 v 5.176256 h -1.657952 v -5.176256 h -2.135959 z m -8.328519,0 h 4.474317 v 1.253153 h -2.816365 v 1.197171 h 2.648417 v 1.253153 h -2.648417 v 1.472779 h 2.911106 v 1.253153 h -4.569058 z m -7.389731,0 h 1.851739 l 2.338359,4.409722 v -4.409722 h 1.571824 v 6.429409 h -1.851738 l -2.338359,-4.409722 v 4.409722 h -1.571825 z m -3.290066,0 h 1.657952 v 6.429409 h -1.657952 z m -7.38973,0 h 1.851739 l 2.338358,4.409722 v -4.409722 h 1.571825 v 6.429409 H 16.7538 l -2.338358,-4.409722 v 4.409722 h -1.571825 z m 79.291027,-8.295762 h 5.925564 v 1.253154 h -2.131652 v 5.176256 H 94.270603 V 76.14559 h -2.135959 z m -6.623199,0 h 1.657953 v 2.450325 h 2.446018 v -2.450325 h 1.657952 v 6.42941 h -1.657952 v -2.725932 h -2.446018 v 2.725932 h -1.657953 z m -1.455547,5.951403 q -0.620117,0.301446 -1.287605,0.452169 -0.667487,0.150723 -1.378038,0.150723 -1.606276,0 -2.545064,-0.895725 -0.938789,-0.900031 -0.938789,-2.437405 0,-1.5546 0.956014,-2.446018 0.956014,-0.891419 2.618273,-0.891419 0.641649,0 1.227315,0.120579 0.589973,0.120578 1.111044,0.357428 v 1.330669 q -0.538297,-0.305753 -1.072286,-0.456476 -0.529684,-0.150722 -1.063674,-0.150722 -0.990465,0 -1.528761,0.555521 -0.53399,0.551215 -0.53399,1.580438 0,1.020609 0.516765,1.576131 0.516764,0.555522 1.468472,0.555522 0.258382,0 0.478007,-0.03015 0.223931,-0.03445 0.400492,-0.103353 v -1.248847 h -1.011997 v -1.111043 h 2.583822 z M 74.98668,74.892436 h 1.657953 v 6.42941 H 74.98668 Z m -6.028915,0 h 4.474318 v 1.253154 h -2.816366 v 1.197171 h 2.648418 v 1.253153 h -2.648418 v 1.472778 h 2.911106 v 1.253154 h -4.569058 z m -10.455864,0 h 1.851739 l 2.338359,4.409723 v -4.409723 h 1.571824 v 6.42941 h -1.851738 l -2.338359,-4.409722 v 4.409722 h -1.571825 z m -6.028919,0 H 56.9473 v 1.253154 h -2.816366 v 1.197171 h 2.648417 v 1.253153 h -2.648417 v 1.472778 h 2.911106 v 1.253154 h -4.569058 z m -7.587823,0 h 1.666565 l 1.705322,4.74562 1.701016,-4.74562 h 1.666565 l -2.381422,6.42941 h -1.976624 z m -5.262383,0 h 4.474317 v 1.253154 h -2.816365 v 1.197171 h 2.648417 v 1.253153 h -2.648417 v 1.472778 h 2.911106 v 1.253154 h -4.569058 z m -1.881884,0.2024 v 1.360813 q -0.529683,-0.236851 -1.033528,-0.357429 -0.503846,-0.120578 -0.951708,-0.120578 -0.594279,0 -0.878499,0.163642 -0.284221,0.163642 -0.284221,0.508151 0,0.258382 0.18948,0.404799 0.193787,0.14211 0.697632,0.245463 l 0.706245,0.14211 q 1.072286,0.215319 1.524455,0.654568 0.452168,0.43925 0.452168,1.248847 0,1.063674 -0.633036,1.584744 -0.62873,0.516765 -1.924947,0.516765 -0.611504,0 -1.227315,-0.116272 -0.615811,-0.116272 -1.231622,-0.34451 v -1.39957 q 0.615811,0.327284 1.188558,0.495233 0.577053,0.163642 1.111043,0.163642 0.542603,0 0.83113,-0.180868 0.288526,-0.180867 0.288526,-0.516764 0,-0.301446 -0.198093,-0.465088 -0.193786,-0.163642 -0.779453,-0.292833 l -0.641649,-0.14211 q -0.964626,-0.206706 -1.412489,-0.658875 -0.443556,-0.452169 -0.443556,-1.218703 0,-0.96032 0.620117,-1.477084 0.620118,-0.516765 1.782837,-0.516765 0.529684,0 1.089512,0.08182 0.559828,0.07752 1.158413,0.236851 z m -10.761617,2.945556 2.230699,3.281454 H 27.48312 l -1.502923,-2.196248 -1.490004,2.196248 h -1.735467 l 2.230699,-3.281454 -2.144572,-3.147956 h 1.731161 l 1.408183,2.071364 1.403876,-2.071364 h 1.739774 z m -6.872966,-3.147956 h 1.657953 v 6.42941 h -1.657953 z m -1.881883,0.2024 v 1.360813 q -0.529683,-0.236851 -1.033529,-0.357429 -0.503845,-0.120578 -0.951707,-0.120578 -0.594279,0 -0.8785,0.163642 -0.28422,0.163642 -0.28422,0.508151 0,0.258382 0.18948,0.404799 0.193787,0.14211 0.697632,0.245463 l 0.706245,0.14211 q 1.072286,0.215319 1.524454,0.654568 0.452169,0.43925 0.452169,1.248847 0,1.063674 -0.633036,1.584744 -0.62873,0.516765 -1.924947,0.516765 -0.611505,0 -1.227315,-0.116272 -0.615811,-0.116272 -1.231622,-0.34451 v -1.39957 q 0.615811,0.327284 1.188558,0.495233 0.577053,0.163642 1.111043,0.163642 0.542603,0 0.831129,-0.180868 0.288527,-0.180867 0.288527,-0.516764 0,-0.301446 -0.198093,-0.465088 -0.193786,-0.163642 -0.779453,-0.292833 l -0.641649,-0.14211 q -0.964626,-0.206706 -1.412489,-0.658875 -0.443556,-0.452169 -0.443556,-1.218703 0,-0.96032 0.620117,-1.477084 0.620117,-0.516765 1.782837,-0.516765 0.529684,0 1.089512,0.08182 0.559828,0.07752 1.158413,0.236851 z m 70.822552,-8.614433 h 4.474318 v 1.253154 h -2.816365 v 1.197171 h 2.648417 v 1.253153 h -2.648417 v 1.472778 h 2.911105 v 1.253154 h -4.569058 z m -7.587826,0 h 1.666565 l 1.705322,4.745619 1.701016,-4.745619 h 1.666565 l -2.381422,6.42941 h -1.976624 z m -2.523532,0 h 1.657952 v 6.42941 H 78.93562 Z m -6.028916,0 h 4.474318 v 1.253154 h -2.816365 v 1.197171 h 2.648417 v 1.253153 h -2.648417 v 2.725932 h -1.657953 z m -7.497389,2.850817 q 0.52107,0 0.745001,-0.193787 0.228238,-0.193786 0.228238,-0.637342 0,-0.43925 -0.228238,-0.62873 -0.223931,-0.189481 -0.745001,-0.189481 h -0.697632 v 1.64934 z m -0.697632,1.145494 v 2.433099 H 63.05373 v -6.42941 h 2.532146 q 1.270379,0 1.860351,0.426331 0.594279,0.42633 0.594279,1.347894 0,0.637342 -0.310058,1.046447 -0.305753,0.409105 -0.92587,0.602892 0.340203,0.07752 0.607198,0.353122 0.271302,0.271302 0.546909,0.826823 l 0.900031,1.825901 H 67.093105 L 66.309346,71.31215 q -0.236851,-0.482314 -0.482314,-0.658875 -0.241156,-0.176561 -0.645955,-0.176561 z m -8.823751,-3.996311 h 1.657953 v 3.854201 q 0,0.796678 0.258382,1.141188 0.262688,0.340203 0.852661,0.340203 0.594279,0 0.852661,-0.340203 0.262689,-0.34451 0.262689,-1.141188 v -3.854201 h 1.657952 v 3.854201 q 0,1.365119 -0.684713,2.032606 -0.684713,0.667488 -2.088589,0.667488 -1.39957,0 -2.084283,-0.667488 -0.684713,-0.667487 -0.684713,-2.032606 z m -4.55614,1.085205 q -0.757921,0 -1.175639,0.559828 -0.417717,0.559828 -0.417717,1.576132 0,1.011997 0.417717,1.571825 0.417718,0.559828 1.175639,0.559828 0.762228,0 1.179946,-0.559828 0.417717,-0.559828 0.417717,-1.571825 0,-1.016304 -0.417717,-1.576132 -0.417718,-0.559828 -1.179946,-0.559828 z m 0,-1.201477 q 1.550293,0 2.428793,0.887112 0.878499,0.887113 0.878499,2.450325 0,1.558905 -0.878499,2.446018 -0.8785,0.887112 -2.428793,0.887112 -1.545986,0 -2.428792,-0.887112 -0.878499,-0.887113 -0.878499,-2.446018 0,-1.563212 0.878499,-2.450325 0.882806,-0.887112 2.428792,-0.887112 z m -8.965861,0.116272 h 4.474318 v 1.253154 h -2.816366 v 1.197171 H 46.6723 v 1.253153 h -2.648417 v 2.725932 h -1.657952 z m -9.095053,0 h 4.474318 v 1.253154 h -2.816365 v 1.197171 h 2.648417 v 1.253153 h -2.648417 v 1.472778 h 2.911105 v 1.253154 h -4.569058 z m -7.389729,0 h 1.851739 l 2.338358,4.409723 v -4.409723 h 1.571825 v 6.42941 h -1.851739 l -2.338358,-4.409722 v 4.409722 h -1.571825 z m -4.556139,1.085205 q -0.757921,0 -1.175639,0.559828 -0.417718,0.559828 -0.417718,1.576132 0,1.011997 0.417718,1.571825 0.417718,0.559828 1.175639,0.559828 0.762227,0 1.179945,-0.559828 0.417718,-0.559828 0.417718,-1.571825 0,-1.016304 -0.417718,-1.576132 -0.417718,-0.559828 -1.179945,-0.559828 z m 0,-1.201477 q 1.550293,0 2.428792,0.887112 0.8785,0.887113 0.8785,2.450325 0,1.558905 -0.8785,2.446018 -0.878499,0.887112 -2.428792,0.887112 -1.545987,0 -2.428793,-0.887112 -0.878499,-0.887113 -0.878499,-2.446018 0,-1.563212 0.878499,-2.450325 0.882806,-0.887112 2.428793,-0.887112 z M 93.745226,58.06837 h 4.474318 v 1.253154 h -2.816365 v 1.19717 h 2.648417 v 1.253154 h -2.648417 v 1.472778 h 2.911105 v 1.253154 h -4.569058 z m -6.028923,0 h 4.474318 v 1.253154 h -2.816365 v 1.19717 h 2.648417 v 1.253154 h -2.648417 v 1.472778 h 2.911105 v 1.253154 h -4.569058 z m -4.43125,2.850817 q 0.52107,0 0.745002,-0.193787 0.228237,-0.193786 0.228237,-0.637342 0,-0.43925 -0.228237,-0.62873 -0.223932,-0.189481 -0.745002,-0.189481 h -0.697632 v 1.64934 z m -0.697632,1.145494 v 2.433099 h -1.657952 v -6.42941 h 2.532145 q 1.270379,0 1.860351,0.426331 0.594279,0.42633 0.594279,1.347893 0,0.637343 -0.310058,1.046448 -0.305752,0.409105 -0.92587,0.602892 0.340204,0.07751 0.607198,0.353122 0.271302,0.271302 0.546909,0.826823 l 0.900032,1.825901 h -1.765612 l -0.783759,-1.597663 q -0.23685,-0.482314 -0.482313,-0.658875 -0.241157,-0.176561 -0.645956,-0.176561 z M 73.539736,58.06837 h 1.657952 v 2.450324 h 2.446018 V 58.06837 h 1.657953 v 6.42941 h -1.657953 v -2.725932 h -2.446018 v 2.725932 h -1.657952 z m -6.778222,0 h 5.925565 v 1.253154 h -2.131653 v 5.176256 h -1.657953 v -5.176256 h -2.135959 z m -6.855741,1.085205 q -0.757921,0 -1.175639,0.559828 -0.417718,0.559828 -0.417718,1.576132 0,1.011996 0.417718,1.571824 0.417718,0.559828 1.175639,0.559828 0.762227,0 1.179945,-0.559828 0.417718,-0.559828 0.417718,-1.571824 0,-1.016304 -0.417718,-1.576132 Q 60.668,59.153575 59.905773,59.153575 Z m 0,-1.201477 q 1.550293,0 2.428792,0.887112 0.878499,0.887112 0.878499,2.450325 0,1.558905 -0.878499,2.446017 -0.878499,0.887113 -2.428792,0.887113 -1.545987,0 -2.428793,-0.887113 -0.878499,-0.887112 -0.878499,-2.446017 0,-1.563213 0.878499,-2.450325 0.882806,-0.887112 2.428793,-0.887112 z M 46.689525,58.06837 h 1.58905 l 1.111043,4.672411 1.102431,-4.672411 h 1.597663 l 1.10243,4.672411 1.111044,-4.672411 h 1.576131 l -1.515842,6.42941 h -1.912028 l -1.167026,-4.887729 -1.154107,4.887729 h -1.912028 z m -6.231317,0 h 5.925564 v 1.253154 h -2.131653 v 5.176256 h -1.657952 v -5.176256 h -2.135959 z m -9.077828,0 h 5.925565 v 1.253154 H 35.174292 V 64.49778 H 33.516339 V 59.321524 H 31.38038 Z m -1.115348,0.2024 v 1.360812 q -0.529684,-0.23685 -1.033529,-0.357428 -0.503845,-0.120579 -0.951708,-0.120579 -0.594279,0 -0.878499,0.163642 -0.28422,0.163642 -0.28422,0.508152 0,0.258382 0.18948,0.404799 0.193786,0.14211 0.697632,0.245463 l 0.706244,0.14211 q 1.072286,0.215318 1.524455,0.654568 0.452169,0.43925 0.452169,1.248847 0,1.063674 -0.633036,1.584744 -0.62873,0.516765 -1.924948,0.516765 -0.611504,0 -1.227315,-0.116272 -0.615811,-0.116272 -1.231622,-0.34451 v -1.39957 q 0.615811,0.327284 1.188558,0.495232 0.577054,0.163642 1.111044,0.163642 0.542602,0 0.831129,-0.180867 0.288527,-0.180868 0.288527,-0.516764 0,-0.301446 -0.198093,-0.465088 -0.193787,-0.163642 -0.779453,-0.292833 l -0.641649,-0.142111 q -0.964627,-0.206705 -1.412489,-0.658874 -0.443556,-0.452169 -0.443556,-1.218703 0,-0.96032 0.620117,-1.477084 0.620117,-0.516765 1.782837,-0.516765 0.529683,0 1.089511,0.08182 0.559828,0.07752 1.158414,0.236852 z m -7.394037,5.055677 h -2.592434 l -0.409105,1.171333 h -1.666565 l 2.381422,-6.42941 h 1.976624 l 2.381422,6.42941 h -1.666565 z m -2.179023,-1.192864 h 1.761306 L 21.574778,59.5756 Z M 13.319468,58.06837 h 2.75177 q 1.227315,0 1.881884,0.546909 0.658874,0.542603 0.658874,1.550293 0,1.011997 -0.658874,1.558906 -0.654569,0.542602 -1.881884,0.542602 H 14.97742 v 2.2307 h -1.657952 z m 1.657952,1.201477 v 1.795756 h 0.917257 q 0.482313,0 0.745002,-0.232544 0.262688,-0.23685 0.262688,-0.667487 0,-0.430637 -0.262688,-0.663181 -0.262689,-0.232544 -0.745002,-0.232544 z m 82.67799,-9.613514 h 1.657952 v 5.176256 h 2.911108 v 1.253154 h -4.56906 z m -5.615509,0 h 1.657952 v 5.176256 h 2.911106 v 1.253154 h -4.569058 z m -3.290062,0 h 1.657953 v 6.42941 h -1.657953 z m -6.778229,0 h 5.925564 v 1.253154 h -2.131653 v 5.176256 H 84.107569 V 50.909487 H 81.97161 Z m -4.181481,0.2024 v 1.360812 q -0.529684,-0.23685 -1.033529,-0.357428 -0.503845,-0.120579 -0.951708,-0.120579 -0.594279,0 -0.878499,0.163642 -0.284221,0.163643 -0.284221,0.508152 0,0.258382 0.189481,0.404799 0.193786,0.14211 0.697632,0.245463 l 0.706244,0.14211 q 1.072286,0.215319 1.524455,0.654568 0.452169,0.43925 0.452169,1.248847 0,1.063674 -0.633037,1.584744 -0.62873,0.516765 -1.924947,0.516765 -0.611504,0 -1.227315,-0.116272 -0.615811,-0.116272 -1.231622,-0.34451 v -1.39957 q 0.615811,0.327284 1.188558,0.495233 0.577054,0.163642 1.111044,0.163642 0.542602,0 0.831129,-0.180868 0.288527,-0.180867 0.288527,-0.516764 0,-0.301446 -0.198093,-0.465088 -0.193787,-0.163642 -0.779453,-0.292833 l -0.641649,-0.14211 q -0.964627,-0.206706 -1.412489,-0.658875 -0.443557,-0.452169 -0.443557,-1.218703 0,-0.96032 0.620118,-1.477084 0.620117,-0.516765 1.782837,-0.516765 0.529683,0 1.089511,0.08182 0.559828,0.07751 1.158414,0.236852 z m -10.503238,-0.2024 h 4.474318 v 1.253154 h -2.816365 v 1.197171 h 2.648417 v 1.253153 h -2.648417 v 1.472778 h 2.911105 v 1.253154 h -4.569058 z m -6.778225,0 h 5.925564 v 1.253154 h -2.131653 v 5.176256 h -1.657952 v -5.176256 h -2.135959 z m -6.399265,0 h 1.657952 v 3.854201 q 0,0.796678 0.258383,1.141188 0.262688,0.340203 0.852661,0.340203 0.594279,0 0.852661,-0.340203 0.262688,-0.34451 0.262688,-1.141188 v -3.854201 h 1.657953 v 3.854201 q 0,1.365119 -0.684713,2.032606 -0.684713,0.667488 -2.088589,0.667488 -1.39957,0 -2.084283,-0.667488 -0.684713,-0.667487 -0.684713,-2.032606 z m -7.389728,0 h 1.851739 l 2.338358,4.409723 v -4.409723 h 1.571825 v 6.42941 h -1.851739 l -2.338359,-4.409722 v 4.409722 h -1.571824 z m -3.290066,0 h 1.657952 v 6.42941 h -1.657952 z m -8.784996,0 h 2.110121 l 1.464166,3.44079 1.472778,-3.44079 h 2.105815 v 6.42941 h -1.567519 v -4.702556 l -1.481391,3.466628 h -1.050754 l -1.481391,-3.466628 v 4.702556 h -1.571825 z m -9.095053,0 h 4.474318 v 1.253154 H 27.20751 v 1.197171 h 2.648418 v 1.253153 H 27.20751 v 1.472778 h 2.911106 v 1.253154 h -4.569058 z m -7.587823,0 H 19.6283 l 1.705323,4.745619 1.701016,-4.745619 h 1.666565 l -2.381423,6.42941 h -1.976623 z m -2.523532,0 h 1.657953 v 6.42941 h -1.657953 z m -6.028917,0 h 4.474318 v 1.253154 h -2.816366 v 1.197171 h 2.648417 v 1.253153 h -2.648417 v 2.725932 H 9.409286 Z m 85.197215,-9.574756 h 1.812981 l 1.464166,2.290988 1.464165,-2.290988 h 1.817287 l -2.450323,3.720703 v 2.708706 H 97.056825 V 43.80228 Z m -5.882498,0 h 5.925565 v 1.253153 h -2.131653 v 5.176256 H 90.859963 V 41.33473 h -2.13596 z m -6.623198,0 h 1.851739 l 2.338358,4.409722 v -4.409722 h 1.571825 v 6.429409 H 86.010988 L 83.67263,42.101264 v 4.409722 h -1.571825 z m -6.028916,0 h 4.474318 v 1.253153 h -2.816365 v 1.197171 h 2.648417 v 1.253153 h -2.648417 v 1.472779 h 2.911105 v 1.253153 h -4.569058 z m -10.279308,0 h 1.589051 l 1.111043,4.672411 1.102431,-4.672411 h 1.597663 l 1.10243,4.672411 1.111044,-4.672411 h 1.576131 l -1.515842,6.429409 h -1.912028 l -1.167026,-4.887729 -1.154107,4.887729 h -1.912028 z m -6.231316,0 h 5.925564 v 1.253153 h -2.131653 v 5.176256 H 61.697224 V 41.33473 h -2.135959 z m -6.730853,2.850816 q 0.521071,0 0.745002,-0.193786 0.228238,-0.193787 0.228238,-0.637343 0,-0.43925 -0.228238,-0.62873 -0.223931,-0.18948 -0.745002,-0.18948 H 52.13278 v 1.649339 z m -0.697632,1.145495 v 2.433098 h -1.657952 v -6.429409 h 2.532145 q 1.270379,0 1.860352,0.42633 0.594279,0.426331 0.594279,1.347894 0,0.637343 -0.310059,1.046448 -0.305752,0.409105 -0.925869,0.602891 0.340203,0.07752 0.607198,0.353123 0.271301,0.271301 0.546909,0.826823 l 0.900031,1.8259 H 54.514203 L 53.730444,44.913323 Q 53.493593,44.43101 53.24813,44.254449 53.006973,44.077888 52.602175,44.077888 Z m -7.686871,-3.996311 h 4.474318 v 1.253153 h -2.816366 v 1.197171 h 2.648417 v 1.253153 h -2.648417 v 1.472779 h 2.911106 v 1.253153 h -4.569058 z m -6.778226,0 h 5.925565 v 1.253153 h -2.131653 v 5.176256 H 39.803642 V 41.33473 h -2.135959 z m -3.268534,2.850816 q 0.521071,0 0.745002,-0.193786 0.228238,-0.193787 0.228238,-0.637343 0,-0.43925 -0.228238,-0.62873 -0.223931,-0.18948 -0.745002,-0.18948 h -0.697632 v 1.649339 z m -0.697632,1.145495 v 2.433098 h -1.657952 v -6.429409 h 2.532145 q 1.270379,0 1.860352,0.42633 0.594279,0.426331 0.594279,1.347894 0,0.637343 -0.310059,1.046448 -0.305752,0.409105 -0.925869,0.602891 0.340203,0.07752 0.607198,0.353123 0.271301,0.271301 0.546909,0.826823 l 0.900031,1.8259 H 36.08294 L 35.299181,44.913323 Q 35.06233,44.43101 34.816867,44.254449 34.57571,44.077888 34.170912,44.077888 Z m -4.57767,1.261766 h -2.592435 l -0.409105,1.171332 h -1.666565 l 2.381423,-6.429409 h 1.976623 l 2.381423,6.429409 h -1.666565 z m -2.179023,-1.192865 h 1.761305 L 27.82763,41.588806 Z m -8.612739,-4.065212 h 1.657952 v 3.8542 q 0,0.796679 0.258383,1.141188 0.262688,0.340203 0.852661,0.340203 0.594279,0 0.852661,-0.340203 0.262688,-0.344509 0.262688,-1.141188 v -3.8542 h 1.657953 v 3.8542 q 0,1.36512 -0.684713,2.032607 -0.684713,0.667487 -2.088589,0.667487 -1.39957,0 -2.084283,-0.667487 -0.684713,-0.667487 -0.684713,-2.032607 z m -4.379578,6.545681 h -0.129191 q -1.58905,0 -2.471856,-0.878499 -0.882806,-0.878499 -0.882806,-2.446018 0,-1.563212 0.8785,-2.450324 0.882805,-0.887112 2.428792,-0.887112 1.563212,0 2.433099,0.878499 0.874193,0.878499 0.874193,2.458937 0,1.085205 -0.465088,1.868964 -0.460782,0.78376 -1.330668,1.179946 l 1.296217,1.44694 h -1.580438 z m -0.176561,-5.460476 q -0.757921,0 -1.175639,0.559828 -0.417718,0.559828 -0.417718,1.576131 0,1.033529 0.409105,1.584744 0.409106,0.546909 1.184252,0.546909 0.762227,0 1.179945,-0.559828 0.417718,-0.559828 0.417718,-1.571825 0,-1.016303 -0.417718,-1.576131 -0.417718,-0.559828 -1.179945,-0.559828 z m 72.181209,-9.497235 h 1.851737 l 2.338358,4.409723 v -4.409723 h 1.571827 v 6.429409 h -1.85174 l -2.338358,-4.40972 v 4.40972 h -1.571824 z m -6.028917,0 h 4.474318 v 1.253154 h -2.816365 v 1.19717 h 2.648416 v 1.253154 h -2.648416 v 1.47278 h 2.911105 v 1.253151 h -4.569058 z m -6.778225,0 h 5.925563 v 1.253154 h -2.131653 v 5.176255 H 75.28597 v -5.176255 h -2.135957 z m -8.328515,0 h 4.474316 v 1.253154 h -2.816365 v 1.19717 h 2.648418 v 1.253154 h -2.648418 v 2.725931 h -1.657951 z m -5.615508,0 h 1.657953 v 5.176258 h 2.911104 v 1.253151 H 59.20599 Z m -2.919717,5.258077 h -2.592435 l -0.409104,1.171332 h -1.666566 l 2.381422,-6.429409 h 1.976626 l 2.381421,6.429409 h -1.666565 z m -2.179024,-1.192863 h 1.761305 l -0.878499,-2.557984 z m -9.112276,-4.065214 h 1.657953 v 2.450324 h 2.446017 v -2.450324 h 1.657951 v 6.429409 h -1.657951 v -2.725931 h -2.446017 v 2.725931 h -1.657953 z m -4.948018,0.202401 v 1.360813 q -0.529683,-0.23685 -1.033529,-0.357429 -0.503846,-0.120578 -0.951709,-0.120578 -0.594278,0 -0.878498,0.163642 -0.284221,0.163642 -0.284221,0.508151 0,0.258381 0.189481,0.404799 0.193787,0.14211 0.697633,0.245462 l 0.706244,0.14211 q 1.072285,0.215318 1.524455,0.654569 0.452168,0.43925 0.452168,1.248846 0,1.063673 -0.633037,1.584743 -0.62873,0.516766 -1.924947,0.516766 -0.611502,0 -1.227315,-0.116271 -0.61581,-0.116274 -1.231622,-0.344511 v -1.39957 q 0.615812,0.327285 1.188559,0.495232 0.577053,0.163642 1.111043,0.163642 0.542602,0 0.83113,-0.180867 0.288526,-0.180866 0.288526,-0.516765 0,-0.301445 -0.198094,-0.465088 -0.193786,-0.163642 -0.779451,-0.292832 l -0.641649,-0.142111 q -0.964626,-0.206706 -1.412489,-0.658873 -0.443556,-0.45217 -0.443556,-1.218703 0,-0.960321 0.620118,-1.477084 0.620117,-0.516765 1.782836,-0.516765 0.529683,0 1.089509,0.08182 0.55983,0.07751 1.158415,0.23685 z m -7.764384,-0.202401 h 1.657952 v 6.429409 h -1.657952 z m -9.84436,0 h 5.925564 v 1.253154 h -2.131653 v 5.176255 H 24.57417 v -5.176255 h -2.135959 z m -2.523532,0 h 1.657952 v 6.429409 h -1.657952 z"
         style="font-style:normal;font-variant:normal;font-weight:bold;font-stretch:normal;font-size:8.81944466px;font-family:sans-serif;-inkscape-font-specification:'sans-serif, Bold';font-variant-ligatures:normal;font-variant-caps:normal;font-variant-numeric:normal;font-feature-settings:normal;text-align:start;writing-mode:lr-tb;text-anchor:start;stroke-width:0.26458332"
         id="path1127"
         inkscape:connector-curvature="0" />
    </g>
    <g
       aria-label="TWELVE O'CLOCK"
       style="font-style:normal;font-weight:normal;font-size:10.58333302px;line-height:1.25;font-family:sans-serif;letter-spacing:0px;word-spacing:0px;display:inline;fill:#000000;fill-opacity:1;stroke:none;stroke-width:0.26458332"
       id="text893">
      <path
         id="path1121"
         style="font-style:normal;font-variant:normal;font-weight:bold;font-stretch:normal;font-size:8.81944466px;font-family:sans-serif;-inkscape-font-specification:'sans-serif, Bold';font-variant-ligatures:normal;font-variant-caps:normal;font-variant-numeric:normal;font-feature-settings:normal;text-align:start;writing-mode:lr-tb;text-anchor:start;stroke-width:0.26458332"
         d="m 92.07866,91.475345 h 1.657953 v 2.346971 l 2.390035,-2.346971 h 1.924947 l -3.09628,3.044603 3.414951,3.384807 h -2.07567 l -2.557983,-2.532146 v 2.532146 H 92.07866 Z m -1.378034,6.076287 q -0.456475,0.236851 -0.951708,0.357429 -0.495232,0.120578 -1.033529,0.120578 -1.606275,0 -2.545064,-0.895724 -0.938788,-0.900032 -0.938788,-2.437406 0,-1.54168 0.938788,-2.437405 0.938789,-0.900031 2.545064,-0.900031 0.538297,0 1.033529,0.120578 0.495233,0.120579 0.951708,0.357429 v 1.330668 q -0.460782,-0.314365 -0.908644,-0.460781 -0.447863,-0.146417 -0.943095,-0.146417 -0.887112,0 -1.395264,0.568441 -0.508151,0.568441 -0.508151,1.567518 0,0.994772 0.508151,1.563213 0.508152,0.56844 1.395264,0.56844 0.495232,0 0.943095,-0.146416 0.447862,-0.146417 0.908644,-0.460782 z M 81.045748,92.56055 q -0.757921,0 -1.175639,0.559828 -0.417718,0.559828 -0.417718,1.576131 0,1.011997 0.417718,1.571825 0.417718,0.559828 1.175639,0.559828 0.762228,0 1.179945,-0.559828 0.417718,-0.559828 0.417718,-1.571825 0,-1.016303 -0.417718,-1.576131 -0.417717,-0.559828 -1.179945,-0.559828 z m 0,-1.201477 q 1.550293,0 2.428793,0.887112 0.878499,0.887112 0.878499,2.450324 0,1.558906 -0.878499,2.446018 -0.8785,0.887112 -2.428793,0.887112 -1.545986,0 -2.428792,-0.887112 -0.8785,-0.887112 -0.8785,-2.446018 0,-1.563212 0.8785,-2.450324 0.882806,-0.887112 2.428792,-0.887112 z m -8.242394,0.116272 h 1.657952 v 5.176256 h 2.911106 v 1.253154 h -4.569058 z m -1.378039,6.076287 q -0.456475,0.236851 -0.951707,0.357429 -0.495233,0.120578 -1.033529,0.120578 -1.606276,0 -2.545064,-0.895724 -0.938789,-0.900032 -0.938789,-2.437406 0,-1.54168 0.938789,-2.437405 0.938788,-0.900031 2.545064,-0.900031 0.538296,0 1.033529,0.120578 0.495232,0.120579 0.951707,0.357429 v 1.330668 q -0.460781,-0.314365 -0.908644,-0.460781 -0.447862,-0.146417 -0.943095,-0.146417 -0.887112,0 -1.395263,0.568441 -0.508152,0.568441 -0.508152,1.567518 0,0.994772 0.508152,1.563213 0.508151,0.56844 1.395263,0.56844 0.495233,0 0.943095,-0.146416 0.447863,-0.146417 0.908644,-0.460782 z m -6.752386,-6.076287 v 2.390035 h -1.02061 v -2.390035 z m -5.606894,1.085205 q -0.757921,0 -1.175639,0.559828 -0.417718,0.559828 -0.417718,1.576131 0,1.011997 0.417718,1.571825 0.417718,0.559828 1.175639,0.559828 0.762227,0 1.179945,-0.559828 0.417718,-0.559828 0.417718,-1.571825 0,-1.016303 -0.417718,-1.576131 -0.417718,-0.559828 -1.179945,-0.559828 z m 0,-1.201477 q 1.550293,0 2.428792,0.887112 0.878499,0.887112 0.878499,2.450324 0,1.558906 -0.878499,2.446018 -0.878499,0.887112 -2.428792,0.887112 -1.545987,0 -2.428793,-0.887112 -0.878499,-0.887112 -0.878499,-2.446018 0,-1.563212 0.878499,-2.450324 0.882806,-0.887112 2.428793,-0.887112 z M 47.03404,91.475345 h 4.474318 v 1.253154 h -2.816366 v 1.19717 h 2.648417 v 1.253154 h -2.648417 v 1.472778 h 2.911106 v 1.253154 H 47.03404 Z m -7.587825,0 h 1.666565 l 1.705322,4.745619 1.701016,-4.745619 h 1.666565 l -2.381422,6.42941 h -1.976623 z m -3.643187,0 h 1.657952 v 5.176256 h 2.911106 v 1.253154 h -4.569058 z m -6.028918,0 h 4.474318 v 1.253154 h -2.816365 v 1.19717 h 2.648417 v 1.253154 h -2.648417 v 1.472778 h 2.911105 v 1.253154 H 29.77411 Z m -10.279304,0 h 1.58905 l 1.111043,4.672411 1.102431,-4.672411 h 1.597663 l 1.102431,4.672411 1.111043,-4.672411 h 1.576131 l -1.515842,6.42941 h -1.912028 l -1.167026,-4.88773 -1.154107,4.88773 h -1.912028 z m -6.231317,0 h 5.925565 v 1.253154 h -2.131653 v 5.176256 h -1.657952 v -5.176256 h -2.13596 z m 79.764729,-8.287147 h 1.851739 l 2.338358,4.409722 v -4.409722 h 1.571825 v 6.429409 h -1.851739 l -2.338358,-4.409722 v 4.409722 h -1.571825 z m -6.028916,0 h 4.474318 v 1.253153 h -2.816365 v 1.197171 h 2.648417 v 1.253153 h -2.648417 v 1.472779 h 2.911105 v 1.253153 h -4.569058 z m -7.587822,0 h 1.666565 l 1.705322,4.745619 1.701016,-4.745619 h 1.666565 l -2.381423,6.429409 h -1.976623 z m -5.262386,0 h 4.474318 v 1.253153 h -2.816366 v 1.197171 h 2.648418 v 1.253153 h -2.648418 v 1.472779 h 2.911106 v 1.253153 h -4.569058 z m -5.615505,0 h 1.657952 v 5.176256 h 2.911106 v 1.253153 h -4.569058 z m -6.028919,0 h 4.474318 v 1.253153 h -2.816366 v 1.197171 h 2.648417 v 1.253153 h -2.648417 v 1.472779 h 2.911106 v 1.253153 H 62.50467 Z m -10.455864,0 h 1.851739 l 2.338358,4.409722 v -4.409722 h 1.571825 v 6.429409 h -1.851739 l -2.338358,-4.409722 v 4.409722 h -1.571825 z m -6.02892,0 h 4.474318 v 1.253153 h -2.816365 v 1.197171 h 2.648417 v 1.253153 h -2.648417 v 1.472779 h 2.911105 v 1.253153 h -4.569058 z m -6.778223,0 h 5.925564 v 1.253153 h -2.131653 v 5.176256 h -1.657952 v -5.176256 h -2.135959 z m -8.328519,0 h 4.474317 v 1.253153 h -2.816365 v 1.197171 h 2.648417 v 1.253153 h -2.648417 v 1.472779 h 2.911106 v 1.253153 h -4.569058 z m -7.389731,0 h 1.851739 l 2.338359,4.409722 v -4.409722 h 1.571824 v 6.429409 h -1.851738 l -2.338359,-4.409722 v 4.409722 h -1.571825 z m -3.290066,0 h 1.657952 v 6.429409 h -1.657952 z m -7.38973,0 h 1.851739 l 2.338358,4.409722 v -4.409722 h 1.571825 v 6.429409 H 16.7538 l -2.338358,-4.409722 v 4.409722 h -1.571825 z m 79.291027,-8.295762 h 5.925564 v 1.253154 h -2.131652 v 5.176256 H 94.270603 V 76.14559 h -2.135959 z m -6.623199,0 h 1.657953 v 2.450325 h 2.446018 v -2.450325 h 1.657952 v 6.42941 h -1.657952 v -2.725932 h -2.446018 v 2.725932 h -1.657953 z m -1.455547,5.951403 q -0.620117,0.301446 -1.287605,0.452169 -0.667487,0.150723 -1.378038,0.150723 -1.606276,0 -2.545064,-0.895725 -0.938789,-0.900031 -0.938789,-2.437405 0,-1.5546 0.956014,-2.446018 0.956014,-0.891419 2.618273,-0.891419 0.641649,0 1.227315,0.120579 0.589973,0.120578 1.111044,0.357428 v 1.330669 q -0.538297,-0.305753 -1.072286,-0.456476 -0.529684,-0.150722 -1.063674,-0.150722 -0.990465,0 -1.528761,0.555521 -0.53399,0.551215 -0.53399,1.580438 0,1.020609 0.516765,1.576131 0.516764,0.555522 1.468472,0.555522 0.258382,0 0.478007,-0.03015 0.223931,-0.03445 0.400492,-0.103353 v -1.248847 h -1.011997 v -1.111043 h 2.583822 z M 74.98668,74.892436 h 1.657953 v 6.42941 H 74.98668 Z m -6.028915,0 h 4.474318 v 1.253154 h -2.816366 v 1.197171 h 2.648418 v 1.253153 h -2.648418 v 1.472778 h 2.911106 v 1.253154 h -4.569058 z m -10.455864,0 h 1.851739 l 2.338359,4.409723 v -4.409723 h 1.571824 v 6.42941 h -1.851738 l -2.338359,-4.409722 v 4.409722 h -1.571825 z m -6.028919,0 H 56.9473 v 1.253154 h -2.816366 v 1.197171 h 2.648417 v 1.253153 h -2.648417 v 1.472778 h 2.911106 v 1.253154 h -4.569058 z m -7.587823,0 h 1.666565 l 1.705322,4.74562 1.701016,-4.74562 h 1.666565 l -2.381422,6.42941 h -1.976624 z m -5.262383,0 h 4.474317 v 1.253154 h -2.816365 v 1.197171 h 2.648417 v 1.253153 h -2.648417 v 1.472778 h 2.911106 v 1.253154 h -4.569058 z m -1.881884,0.2024 v 1.360813 q -0.529683,-0.236851 -1.033528,-0.357429 -0.503846,-0.120578 -0.951708,-0.120578 -0.594279,0 -0.878499,0.163642 -0.284221,0.163642 -0.284221,0.508151 0,0.258382 0.18948,0.404799 0.193787,0.14211 0.697632,0.245463 l 0.706245,0.14211 q 1.072286,0.215319 1.524455,0.654568 0.452168,0.43925 0.452168,1.248847 0,1.063674 -0.633036,1.584744 -0.62873,0.516765 -1.924947,0.516765 -0.611504,0 -1.227315,-0.116272 -0.615811,-0.116272 -1.231622,-0.34451 v -1.39957 q 0.615811,0.327284 1.188558,0.495233 0.577053,0.163642 1.111043,0.163642 0.542603,0 0.83113,-0.180868 0.288526,-0.180867 0.288526,-0.516764 0,-0.301446 -0.198093,-0.465088 -0.193786,-0.163642 -0.779453,-0.292833 l -0.641649,-0.14211 q -0.964626,-0.206706 -1.412489,-0.658875 -0.443556,-0.452169 -0.443556,-1.218703 0,-0.96032 0.620117,-1.477084 0.620118,-0.516765 1.782837,-0.516765 0.529684,0 1.089512,0.08182 0.559828,0.07752 1.158413,0.236851 z m -10.761617,2.945556 2.230699,3.281454 H 27.48312 l -1.502923,-2.196248 -1.490004,2.196248 h -1.735467 l 2.230699,-3.281454 -2.144572,-3.147956 h 1.731161 l 1.408183,2.071364 1.403876,-2.071364 h 1.739774 z m -6.872966,-3.147956 h 1.657953 v 6.42941 h -1.657953 z m -1.881883,0.2024 v 1.360813 q -0.529683,-0.236851 -1.033529,-0.357429 -0.503845,-0.120578 -0.951707,-0.120578 -0.594279,0 -0.8785,0.163642 -0.28422,0.163642 -0.28422,0.508151 0,0.258382 0.18948,0.404799 0.193787,0.14211 0.697632,0.245463 l 0.706245,0.14211 q 1.072286,0.215319 1.524454,0.654568 0.452169,0.43925 0.452169,1.248847 0,1.063674 -0.633036,1.584744 -0.62873,0.516765 -1.924947,0.516765 -0.611505,0 -1.227315,-0.116272 -0.615811,-0.116272 -1.231622,-0.34451 v -1.39957 q 0.615811,0.327284 1.188558,0.495233 0.577053,0.163642 1.111043,0.163642 0.542603,0 0.831129,-0.180868 0.288527,-0.180867 0.288527,-0.516764 0,-0.301446 -0.198093,-0.465088 -0.193786,-0.163642 -0.779453,-0.292833 l -0.641649,-0.14211 q -0.964626,-0.206706 -1.412489,-0.658875 -0.443556,-0.452169 -0.443556,-1.218703 0,-0.96032 0.620117,-1.477084 0.620117,-0.516765 1.782837,-0.516765 0.529684,0 1.089512,0.08182 0.559828,0.07752 1.158413,0.236851 z m 70.822552,-8.614433 h 4.474318 v 1.253154 h -2.816365 v 1.197171 h 2.648417 v 1.253153 h -2.648417 v 1.472778 h 2.911105 v 1.253154 h -4.569058 z m -7.587826,0 h 1.666565 l 1.705322,4.745619 1.701016,-4.745619 h 1.666565 l -2.381422,6.42941 h -1.976624 z m -2.523532,0 h 1.657952 v 6.42941 H 78.93562 Z m -6.028916,0 h 4.474318 v 1.253154 h -2.816365 v 1.197171 h 2.648417 v 1.253153 h -2.648417 v 2.725932 h -1.657953 z m -7.497389,2.850817 q 0.52107,0 0.745001,-0.193787 0.228238,-0.193786 0.228238,-0.637342 0,-0.43925 -0.228238,-0.62873 -0.223931,-0.189481 -0.745001,-0.189481 h -0.697632 v 1.64934 z m -0.697632,1.145494 v 2.433099 H 63.05373 v -6.42941 h 2.532146 q 1.270379,0 1.860351,0.426331 0.594279,0.42633 0.594279,1.347894 0,0.637342 -0.310058,1.046447 -0.305753,0.409105 -0.92587,0.602892 0.340203,0.07752 0.607198,0.353122 0.271302,0.271302 0.546909,0.826823 l 0.900031,1.825901 H 67.093105 L 66.309346,71.31215 q -0.236851,-0.482314 -0.482314,-0.658875 -0.241156,-0.176561 -0.645955,-0.176561 z m -8.823751,-3.996311 h 1.657953 v 3.854201 q 0,0.796678 0.258382,1.141188 0.262688,0.340203 0.852661,0.340203 0.594279,0 0.852661,-0.340203 0.262689,-0.34451 0.262689,-1.141188 v -3.854201 h 1.657952 v 3.854201 q 0,1.365119 -0.684713,2.032606 -0.684713,0.667488 -2.088589,0.667488 -1.39957,0 -2.084283,-0.667488 -0.684713,-0.667487 -0.684713,-2.032606 z m -4.55614,1.085205 q -0.757921,0 -1.175639,0.559828 -0.417717,0.559828 -0.417717,1.576132 0,1.011997 0.417717,1.571825 0.417718,0.559828 1.175639,0.559828 0.762228,0 1.179946,-0.559828 0.417717,-0.559828 0.417717,-1.571825 0,-1.016304 -0.417717,-1.576132 -0.417718,-0.559828 -1.179946,-0.559828 z m 0,-1.201477 q 1.550293,0 2.428793,0.887112 0.878499,0.887113 0.878499,2.450325 0,1.558905 -0.878499,2.446018 -0.8785,0.887112 -2.428793,0.887112 -1.545986,0 -2.428792,-0.887112 -0.878499,-0.887113 -0.878499,-2.446018 0,-1.563212 0.878499,-2.450325 0.882806,-0.887112 2.428792,-0.887112 z m -8.965861,0.116272 h 4.474318 v 1.253154 h -2.816366 v 1.197171 H 46.6723 v 1.253153 h -2.648417 v 2.725932 h -1.657952 z m -9.095053,0 h 4.474318 v 1.253154 h -2.816365 v 1.197171 h 2.648417 v 1.253153 h -2.648417 v 1.472778 h 2.911105 v 1.253154 h -4.569058 z m -7.389729,0 h 1.851739 l 2.338358,4.409723 v -4.409723 h 1.571825 v 6.42941 h -1.851739 l -2.338358,-4.409722 v 4.409722 h -1.571825 z m -4.556139,1.085205 q -0.757921,0 -1.175639,0.559828 -0.417718,0.559828 -0.417718,1.576132 0,1.011997 0.417718,1.571825 0.417718,0.559828 1.175639,0.559828 0.762227,0 1.179945,-0.559828 0.417718,-0.559828 0.417718,-1.571825 0,-1.016304 -0.417718,-1.576132 -0.417718,-0.559828 -1.179945,-0.559828 z m 0,-1.201477 q 1.550293,0 2.428792,0.887112 0.8785,0.887113 0.8785,2.450325 0,1.558905 -0.8785,2.446018 -0.878499,0.887112 -2.428792,0.887112 -1.545987,0 -2.428793,-0.887112 -0.878499,-0.887113 -0.878499,-2.446018 0,-1.563212 0.878499,-2.450325 0.882806,-0.887112 2.428793,-0.887112 z M 93.745226,58.06837 h 4.474318 v 1.253154 h -2.816365 v 1.19717 h 2.648417 v 1.253154 h -2.648417 v 1.472778 h 2.911105 v 1.253154 h -4.569058 z m -6.028923,0 h 4.474318 v 1.253154 h -2.816365 v 1.19717 h 2.648417 v 1.253154 h -2.648417 v 1.472778 h 2.911105 v 1.253154 h -4.569058 z m -4.43125,2.850817 q 0.52107,0 0.745002,-0.193787 0.228237,-0.193786 0.228237,-0.637342 0,-0.43925 -0.228237,-0.62873 -0.223932,-0.189481 -0.745002,-0.189481 h -0.697632 v 1.64934 z m -0.697632,1.145494 v 2.433099 h -1.657952 v -6.42941 h 2.532145 q 1.270379,0 1.860351,0.426331 0.594279,0.42633 0.594279,1.347893 0,0.637343 -0.310058,1.046448 -0.305752,0.409105 -0.92587,0.602892 0.340204,0.07751 0.607198,0.353122 0.271302,0.271302 0.546909,0.826823 l 0.900032,1.825901 h -1.765612 l -0.783759,-1.597663 q -0.23685,-0.482314 -0.482313,-0.658875 -0.241157,-0.176561 -0.645956,-0.176561 z M 73.539736,58.06837 h 1.657952 v 2.450324 h 2.446018 V 58.06837 h 1.657953 v 6.42941 h -1.657953 v -2.725932 h -2.446018 v 2.725932 h -1.657952 z m -6.778222,0 h 5.925565 v 1.253154 h -2.131653 v 5.176256 h -1.657953 v -5.176256 h -2.135959 z m -6.855741,1.085205 q -0.757921,0 -1.175639,0.559828 -0.417718,0.559828 -0.417718,1.576132 0,1.011996 0.417718,1.571824 0.417718,0.559828 1.175639,0.559828 0.762227,0 1.179945,-0.559828 0.417718,-0.559828 0.417718,-1.571824 0,-1.016304 -0.417718,-1.576132 Q 60.668,59.153575 59.905773,59.153575 Z m 0,-1.201477 q 1.550293,0 2.428792,0.887112 0.878499,0.887112 0.878499,2.450325 0,1.558905 -0.878499,2.446017 -0.878499,0.887113 -2.428792,0.887113 -1.545987,0 -2.428793,-0.887113 -0.878499,-0.887112 -0.878499,-2.446017 0,-1.563213 0.878499,-2.450325 0.882806,-0.887112 2.428793,-0.887112 z M 46.689525,58.06837 h 1.58905 l 1.111043,4.672411 1.102431,-4.672411 h 1.597663 l 1.10243,4.672411 1.111044,-4.672411 h 1.576131 l -1.515842,6.42941 h -1.912028 l -1.167026,-4.887729 -1.154107,4.887729 h -1.912028 z m -6.231317,0 h 5.925564 v 1.253154 h -2.131653 v 5.176256 h -1.657952 v -5.176256 h -2.135959 z m -9.077828,0 h 5.925565 v 1.253154 H 35.174292 V 64.49778 H 33.516339 V 59.321524 H 31.38038 Z m -1.115348,0.2024 v 1.360812 q -0.529684,-0.23685 -1.033529,-0.357428 -0.503845,-0.120579 -0.951708,-0.120579 -0.594279,0 -0.878499,0.163642 -0.28422,0.163642 -0.28422,0.508152 0,0.258382 0.18948,0.404799 0.193786,0.14211 0.697632,0.245463 l 0.706244,0.14211 q 1.072286,0.215318 1.524455,0.654568 0.452169,0.43925 0.452169,1.248847 0,1.063674 -0.633036,1.584744 -0.62873,0.516765 -1.924948,0.516765 -0.611504,0 -1.227315,-0.116272 -0.615811,-0.116272 -1.231622,-0.34451 v -1.39957 q 0.615811,0.327284 1.188558,0.495232 0.577054,0.163642 1.111044,0.163642 0.542602,0 0.831129,-0.180867 0.288527,-0.180868 0.288527,-0.516764 0,-0.301446 -0.198093,-0.465088 -0.193787,-0.163642 -0.779453,-0.292833 l -0.641649,-0.142111 q -0.964627,-0.206705 -1.412489,-0.658874 -0.443556,-0.452169 -0.443556,-1.218703 0,-0.96032 0.620117,-1.477084 0.620117,-0.516765 1.782837,-0.516765 0.529683,0 1.089511,0.08182 0.559828,0.07752 1.158414,0.236852 z m -7.394037,5.055677 h -2.592434 l -0.409105,1.171333 h -1.666565 l 2.381422,-6.42941 h 1.976624 l 2.381422,6.42941 h -1.666565 z m -2.179023,-1.192864 h 1.761306 L 21.574778,59.5756 Z M 13.319468,58.06837 h 2.75177 q 1.227315,0 1.881884,0.546909 0.658874,0.542603 0.658874,1.550293 0,1.011997 -0.658874,1.558906 -0.654569,0.542602 -1.881884,0.542602 H 14.97742 v 2.2307 h -1.657952 z m 1.657952,1.201477 v 1.795756 h 0.917257 q 0.482313,0 0.745002,-0.232544 0.262688,-0.23685 0.262688,-0.667487 0,-0.430637 -0.262688,-0.663181 -0.262689,-0.232544 -0.745002,-0.232544 z m 82.67799,-9.613514 h 1.657952 v 5.176256 h 2.911108 v 1.253154 h -4.56906 z m -5.615509,0 h 1.657952 v 5.176256 h 2.911106 v 1.253154 h -4.569058 z m -3.290062,0 h 1.657953 v 6.42941 h -1.657953 z m -6.778229,0 h 5.925564 v 1.253154 h -2.131653 v 5.176256 H 84.107569 V 50.909487 H 81.97161 Z m -4.181481,0.2024 v 1.360812 q -0.529684,-0.23685 -1.033529,-0.357428 -0.503845,-0.120579 -0.951708,-0.120579 -0.594279,0 -0.878499,0.163642 -0.284221,0.163643 -0.284221,0.508152 0,0.258382 0.189481,0.404799 0.193786,0.14211 0.697632,0.245463 l 0.706244,0.14211 q 1.072286,0.215319 1.524455,0.654568 0.452169,0.43925 0.452169,1.248847 0,1.063674 -0.633037,1.584744 -0.62873,0.516765 -1.924947,0.516765 -0.611504,0 -1.227315,-0.116272 -0.615811,-0.116272 -1.231622,-0.34451 v -1.39957 q 0.615811,0.327284 1.188558,0.495233 0.577054,0.163642 1.111044,0.163642 0.542602,0 0.831129,-0.180868 0.288527,-0.180867 0.288527,-0.516764 0,-0.301446 -0.198093,-0.465088 -0.193787,-0.163642 -0.779453,-0.292833 l -0.641649,-0.14211 q -0.964627,-0.206706 -1.412489,-0.658875 -0.443557,-0.452169 -0.443557,-1.218703 0,-0.96032 0.620118,-1.477084 0.620117,-0.516765 1.782837,-0.516765 0.529683,0 1.089511,0.08182 0.559828,0.07751 1.158414,0.236852 z m -10.503238,-0.2024 h 4.474318 v 1.253154 h -2.816365 v 1.197171 h 2.648417 v 1.253153 h -2.648417 v 1.472778 h 2.911105 v 1.253154 h -4.569058 z m -6.778225,0 h 5.925564 v 1.253154 h -2.131653 v 5.176256 h -1.657952 v -5.176256 h -2.135959 z m -6.399265,0 h 1.657952 v 3.854201 q 0,0.796678 0.258383,1.141188 0.262688,0.340203 0.852661,0.340203 0.594279,0 0.852661,-0.340203 0.262688,-0.34451 0.262688,-1.141188 v -3.854201 h 1.657953 v 3.854201 q 0,1.365119 -0.684713,2.032606 -0.684713,0.667488 -2.088589,0.667488 -1.39957,0 -2.084283,-0.667488 -0.684713,-0.667487 -0.684713,-2.032606 z m -7.389728,0 h 1.851739 l 2.338358,4.409723 v -4.409723 h 1.571825 v 6.42941 h -1.851739 l -2.338359,-4.409722 v 4.409722 h -1.571824 z m -3.290066,0 h 1.657952 v 6.42941 h -1.657952 z m -8.784996,0 h 2.110121 l 1.464166,3.44079 1.472778,-3.44079 h 2.105815 v 6.42941 h -1.567519 v -4.702556 l -1.481391,3.466628 h -1.050754 l -1.481391,-3.466628 v 4.702556 h -1.571825 z m -9.095053,0 h 4.474318 v 1.253154 H 27.20751 v 1.197171 h 2.648418 v 1.253153 H 27.20751 v 1.472778 h 2.911106 v 1.253154 h -4.569058 z m -7.587823,0 H 19.6283 l 1.705323,4.745619 1.701016,-4.745619 h 1.666565 l -2.381423,6.42941 h -1.976623 z m -2.523532,0 h 1.657953 v 6.42941 h -1.657953 z m -6.028917,0 h 4.474318 v 1.253154 h -2.816366 v 1.197171 h 2.648417 v 1.253153 h -2.648417 v 2.725932 H 9.409286 Z m 85.197215,-9.574756 h 1.812981 l 1.464166,2.290988 1.464165,-2.290988 h 1.817287 l -2.450323,3.720703 v 2.708706 H 97.056825 V 43.80228 Z m -5.882498,0 h 5.925565 v 1.253153 h -2.131653 v 5.176256 H 90.859963 V 41.33473 h -2.13596 z m -6.623198,0 h 1.851739 l 2.338358,4.409722 v -4.409722 h 1.571825 v 6.429409 H 86.010988 L 83.67263,42.101264 v 4.409722 h -1.571825 z m -6.028916,0 h 4.474318 v 1.253153 h -2.816365 v 1.197171 h 2.648417 v 1.253153 h -2.648417 v 1.472779 h 2.911105 v 1.253153 h -4.569058 z m -10.279308,0 h 1.589051 l 1.111043,4.672411 1.102431,-4.672411 h 1.597663 l 1.10243,4.672411 1.111044,-4.672411 h 1.576131 l -1.515842,6.429409 h -1.912028 l -1.167026,-4.887729 -1.154107,4.887729 h -1.912028 z m -6.231316,0 h 5.925564 v 1.253153 h -2.131653 v 5.176256 H 61.697224 V 41.33473 h -2.135959 z m -6.730853,2.850816 q 0.521071,0 0.745002,-0.193786 0.228238,-0.193787 0.228238,-0.637343 0,-0.43925 -0.228238,-0.62873 -0.223931,-0.18948 -0.745002,-0.18948 H 52.13278 v 1.649339 z m -0.697632,1.145495 v 2.433098 h -1.657952 v -6.429409 h 2.532145 q 1.270379,0 1.860352,0.42633 0.594279,0.426331 0.594279,1.347894 0,0.637343 -0.310059,1.046448 -0.305752,0.409105 -0.925869,0.602891 0.340203,0.07752 0.607198,0.353123 0.271301,0.271301 0.546909,0.826823 l 0.900031,1.8259 H 54.514203 L 53.730444,44.913323 Q 53.493593,44.43101 53.24813,44.254449 53.006973,44.077888 52.602175,44.077888 Z m -7.686871,-3.996311 h 4.474318 v 1.253153 h -2.816366 v 1.197171 h 2.648417 v 1.253153 h -2.648417 v 1.472779 h 2.911106 v 1.253153 h -4.569058 z m -6.778226,0 h 5.925565 v 1.253153 h -2.131653 v 5.176256 H 39.803642 V 41.33473 h -2.135959 z m -3.268534,2.850816 q 0.521071,0 0.745002,-0.193786 0.228238,-0.193787 0.228238,-0.637343 0,-0.43925 -0.228238,-0.62873 -0.223931,-0.18948 -0.745002,-0.18948 h -0.697632 v 1.649339 z m -0.697632,1.145495 v 2.433098 h -1.657952 v -6.429409 h 2.532145 q 1.270379,0 1.860352,0.42633 0.594279,0.426331 0.594279,1.347894 0,0.637343 -0.310059,1.046448 -0.305752,0.409105 -0.925869,0.602891 0.340203,0.07752 0.607198,0.353123 0.271301,0.271301 0.546909,0.826823 l 0.900031,1.8259 H 36.08294 L 35.299181,44.913323 Q 35.06233,44.43101 34.816867,44.254449 34.57571,44.077888 34.170912,44.077888 Z m -4.57767,1.261766 h -2.592435 l -0.409105,1.171332 h -1.666565 l 2.381423,-6.429409 h 1.976623 l 2.381423,6.429409 h -1.666565 z m -2.179023,-1.192865 h 1.761305 L 27.82763,41.588806 Z m -8.612739,-4.065212 h 1.657952 v 3.8542 q 0,0.796679 0.258383,1.141188 0.262688,0.340203 0.852661,0.340203 0.594279,0 0.852661,-0.340203 0.262688,-0.344509 0.262688,-1.141188 v -3.8542 h 1.657953 v 3.8542 q 0,1.36512 -0.684713,2.032607 -0.684713,0.667487 -2.088589,0.667487 -1.39957,0 -2.084283,-0.667487 -0.684713,-0.667487 -0.684713,-2.032607 z m -4.379578,6.545681 h -0.129191 q -1.58905,0 -2.471856,-0.878499 -0.882806,-0.878499 -0.882806,-2.446018 0,-1.563212 0.8785,-2.450324 0.882805,-0.887112 2.428792,-0.887112 1.563212,0 2.433099,0.878499 0.874193,0.878499 0.874193,2.458937 0,1.085205 -0.465088,1.868964 -0.460782,0.78376 -1.330668,1.179946 l 1.296217,1.44694 h -1.580438 z m -0.176561,-5.460476 q -0.757921,0 -1.175639,0.559828 -0.417718,0.559828 -0.417718,1.576131 0,1.033529 0.409105,1.584744 0.409106,0.546909 1.184252,0.546909 0.762227,0 1.179945,-0.559828 0.417718,-0.559828 0.417718,-1.571825 0,-1.016303 -0.417718,-1.576131 -0.417718,-0.559828 -1.179945,-0.559828 z m 72.181209,-9.497235 h 1.851737 l 2.338358,4.409723 v -4.409723 h 1.571827 v 6.429409 h -1.85174 l -2.338358,-4.40972 v 4.40972 h -1.571824 z m -6.028917,0 h 4.474318 v 1.253154 h -2.816365 v 1.19717 h 2.648416 v 1.253154 h -2.648416 v 1.47278 h 2.911105 v 1.253151 h -4.569058 z m -6.778225,0 h 5.925563 v 1.253154 h -2.131653 v 5.176255 H 75.28597 v -5.176255 h -2.135957 z m -8.328515,0 h 4.474316 v 1.253154 h -2.816365 v 1.19717 h 2.648418 v 1.253154 h -2.648418 v 2.725931 h -1.657951 z m -5.615508,0 h 1.657953 v 5.176258 h 2.911104 v 1.253151 H 59.20599 Z m -2.919717,5.258077 h -2.592435 l -0.409104,1.171332 h -1.666566 l 2.381422,-6.429409 h 1.976626 l 2.381421,6.429409 h -1.666565 z m -2.179024,-1.192863 h 1.761305 l -0.878499,-2.557984 z m -9.112276,-4.065214 h 1.657953 v 2.450324 h 2.446017 v -2.450324 h 1.657951 v 6.429409 h -1.657951 v -2.725931 h -2.446017 v 2.725931 h -1.657953 z m -4.948018,0.202401 v 1.360813 q -0.529683,-0.23685 -1.033529,-0.357429 -0.503846,-0.120578 -0.951709,-0.120578 -0.594278,0 -0.878498,0.163642 -0.284221,0.163642 -0.284221,0.508151 0,0.258381 0.189481,0.404799 0.193787,0.14211 0.697633,0.245462 l 0.706244,0.14211 q 1.072285,0.215318 1.524455,0.654569 0.452168,0.43925 0.452168,1.248846 0,1.063673 -0.633037,1.584743 -0.62873,0.516766 -1.924947,0.516766 -0.611502,0 -1.227315,-0.116271 -0.61581,-0.116274 -1.231622,-0.344511 v -1.39957 q 0.615812,0.327285 1.188559,0.495232 0.577053,0.163642 1.111043,0.163642 0.542602,0 0.83113,-0.180867 0.288526,-0.180866 0.288526,-0.516765 0,-0.301445 -0.198094,-0.465088 -0.193786,-0.163642 -0.779451,-0.292832 l -0.641649,-0.142111 q -0.964626,-0.206706 -1.412489,-0.658873 -0.443556,-0.45217 -0.443556,-1.218703 0,-0.960321 0.620118,-1.477084 0.620117,-0.516765 1.782836,-0.516765 0.529683,0 1.089509,0.08182 0.55983,0.07751 1.158415,0.23685 z m -7.764384,-0.202401 h 1.657952 v 6.429409 h -1.657952 z m -9.84436,0 h 5.925564 v 1.253154 h -2.131653 v 5.176255 H 24.57417 v -5.176255 h -2.135959 z m -2.523532,0 h 1.657952 v 6.429409 h -1.657952 z"
         inkscape:connector-curvature="0" />
    </g>
    <rect
       style="display:inline;fill:none;fill-opacity:1;stroke:#000000;stroke-width:0.41043812;stroke-miterlimit:4;stroke-dasharray:none;stroke-opacity:1"
       id="rect2009"
       width="91.49189"
       height="67.07196"
       x="9.9773436"
       y="31.280634"
       ry="7.3705354"
       rx="7.3705359" />
  </g>
  <g
     id="g838"
     inkscape:groupmode="layer"
     inkscape:label="Drill" />
</svg>
