<?xml version="1.0" encoding="UTF-8" standalone="no"?>
<!-- Created with Inkscape (http://www.inkscape.org/) -->

<svg
   width="250.0mm"
   height="100.0mm"
   viewBox="0 0 250.0 100.0"
   version="1.1"
   id="svg5"
   sodipodi:docname="DesktopHolder.svg"
   inkscape:version="1.1 (c4e8f9ed74, 2021-05-24)"
   xmlns:inkscape="http://www.inkscape.org/namespaces/inkscape"
   xmlns:sodipodi="http://sodipodi.sourceforge.net/DTD/sodipodi-0.dtd"
   xmlns="http://www.w3.org/2000/svg"
   xmlns:svg="http://www.w3.org/2000/svg">
  <sodipodi:namedview
     id="namedview7"
     pagecolor="#ffffff"
     bordercolor="#666666"
     borderopacity="1.0"
     inkscape:pageshadow="2"
     inkscape:pageopacity="0.0"
     inkscape:pagecheckerboard="0"
     inkscape:document-units="mm"
     showgrid="false"
     inkscape:zoom="0.5"
     inkscape:cx="724"
     inkscape:cy="-107"
     inkscape:window-width="1920"
     inkscape:window-height="1021"
     inkscape:window-x="1920"
     inkscape:window-y="0"
     inkscape:window-maximized="1"
     inkscape:current-layer="g834"
     borderlayer="true"
     objecttolerance="9" />
  <defs
     id="defs2" />
  <g
     inkscape:label="[fixed] BG"
     inkscape:groupmode="layer"
     sodipodi:insensitive="true"
     id="g832">
    <rect
       x="0"
       y="0"
       width="250.0"
       height="100.0"
       style="fill:#FFFFFF;fill-opacity:1;stroke:none"
       id="rect830" />
  </g>
  <g
     inkscape:label="Edge.Cuts"
     inkscape:groupmode="layer"
     id="g834">
    <g
       id="g3048" />
    <g
       id="g7695"
       transform="translate(-89.805849,120.48856)">
      <g
         id="g3062"
         transform="matrix(0.75,0,0,0.75,33.358597,-16.657893)"
         style="stroke-width:0.190667;stroke-miterlimit:4;stroke-dasharray:none" />
    </g>
    <g
       id="g7713"
       transform="matrix(-1,0,0,1,336.32891,120.48856)">
      <g
         id="g7709"
         transform="matrix(0.75,0,0,0.75,33.358597,-16.657893)"
         style="stroke-width:0.190667;stroke-miterlimit:4;stroke-dasharray:none" />
    </g>
    <path
       id="path15035"
       style="fill:none;stroke:#00ff00;stroke-width:0.4;stroke-miterlimit:4;stroke-dasharray:none;stroke-opacity:1"
       d="m 64.889847,75.370444 0.485,0.1136 0.491,0.0603 0.492,0.0078 0.489,-0.0441 0.479,-0.0952 0.466,-0.1455 0.446,-0.1952 0.422,-0.2441 0.387,-0.2877 0.344,-0.3236 0.297,-0.3555 0.248,-0.3831 0.198,-0.4068 0.144,-0.4261 0.089,-0.4414 0.031,-0.4526 m 156.907493,-19.4682 0.295,-0.2012 0.277,-0.2196 0.26,-0.2366 0.241,-0.2527 0.222,-0.2675 0.202,-0.2812 0.182,-0.2938 0.161,-0.3052 0.14,-0.3155 0.118,-0.3247 0.096,-0.3327 0.072,-0.3396 0.05,-0.345397 0.025,-0.35 0.001,-0.3535 -0.025,-0.3558 -0.05,-0.3532 -0.073,-0.3458 -0.097,-0.3372 -0.12,-0.3278 -0.141,-0.3172 -0.163,-0.3058 -0.183,-0.2934 -0.202,-0.2798 -0.221,-0.2654 -0.239,-0.2499 -0.256,-0.2334 -0.272,-0.216 -0.288,-0.1975 -0.303,-0.1781 -0.317,-0.1576 -0.33,-0.1361 m -206.564493,8.969197 -0.2948,-0.2012 -0.2775,-0.2196 -0.2594,-0.2366 -0.2409,-0.2527 -0.2219,-0.2675 -0.2022,-0.2812 -0.182,-0.2938 -0.1612,-0.3052 -0.14,-0.3155 -0.1181,-0.3247 -0.0957,-0.3327 -0.0728,-0.3396 -0.0493,-0.345397 -0.0252,-0.35 -6e-4,-0.3535 0.0245,-0.3558 0.0496,-0.3532 0.0737,-0.3458 0.0971,-0.3372 0.1197,-0.3278 0.1414,-0.3172 0.1625,-0.3058 0.1827,-0.2934 0.2022,-0.2798 0.2209,-0.2654 0.2389,-0.2499 0.256,-0.2334 0.2723,-0.216 0.288,-0.1975 0.3028,-0.1781 0.3169,-0.1576 0.3301,-0.1361 m 161.447793,-22.033802 -0.485,-0.1136 -0.492,-0.0603 -0.492,-0.008 -0.488,0.0441 -0.48,0.0952 -0.465,0.1455 -0.447,0.1952 -0.422,0.2441 -0.387,0.2876 -0.343,0.3237 -0.298,0.3554 -0.248,0.3832 -0.198,0.4067 -0.144,0.4262 -0.089,0.4414 -0.031,0.4525 m -16.743,40.273099 h 0.678 l 0.117,0.0117 0.108,0.0336 0.098,0.0531 0.086,0.0705 0.07,0.0855 0.054,0.0982 0.033,0.1087 0.012,0.1168 v 15.6779 l -0.012,0.1168 -0.033,0.1086 -0.054,0.0983 -0.07,0.0854 -0.086,0.0705 -0.098,0.0532 -0.108,0.0336 -0.117,0.0117 h -0.678 l -0.117,-0.0117 -0.109,-0.0336 -0.098,-0.0532 -0.085,-0.0705 -0.071,-0.0854 -0.053,-0.0983 -0.033,-0.1086 -0.012,-0.1168 v -15.6779 l 0.012,-0.1168 0.033,-0.1087 0.053,-0.0982 0.071,-0.0855 0.085,-0.0705 0.098,-0.0531 0.109,-0.0336 0.117,-0.0117 v 0 m 0,-39.999999 h 0.678 l 0.117,0.0117 0.108,0.0336 0.098,0.0531 0.086,0.0705 0.07,0.0855 0.054,0.0982 0.033,0.1087 0.012,0.1167 v 15.678 l -0.012,0.1168 -0.033,0.1086 -0.054,0.0983 -0.07,0.0854 -0.086,0.0705 -0.098,0.0532 -0.108,0.0336 -0.117,0.0117 h -0.678 l -0.117,-0.0117 -0.109,-0.0336 -0.098,-0.0532 -0.085,-0.0705 -0.071,-0.0854 -0.053,-0.0983 -0.033,-0.1086 -0.012,-0.1168 v -15.678 l 0.012,-0.1167 0.033,-0.1087 0.053,-0.0982 0.071,-0.0855 0.085,-0.0705 0.098,-0.0531 0.109,-0.0336 0.117,-0.0117 v 0 M 86.236247,65.172044 h 0.678 l 0.1167,0.0117 0.1087,0.0336 0.0982,0.0531 0.0855,0.0705 0.0705,0.0855 0.0531,0.0982 0.0336,0.1087 0.0117,0.1168 v 15.6779 l -0.0117,0.1168 -0.0336,0.1086 -0.0531,0.0983 -0.0705,0.0854 -0.0855,0.0705 -0.0982,0.0532 -0.1087,0.0336 -0.1167,0.0117 h -0.678 l -0.1168,-0.0117 -0.1086,-0.0336 -0.0982,-0.0532 -0.0855,-0.0705 -0.0705,-0.0854 -0.0532,-0.0983 -0.0336,-0.1086 -0.0117,-0.1168 v -15.6779 l 0.0117,-0.1168 0.0336,-0.1087 0.0532,-0.0982 0.0705,-0.0855 0.0855,-0.0705 0.0982,-0.0531 0.1086,-0.0336 0.1168,-0.0117 v 0 m 0,-39.999999 h 0.678 l 0.1167,0.0117 0.1087,0.0336 0.0982,0.0531 0.0855,0.0705 0.0705,0.0855 0.0531,0.0982 0.0336,0.1087 0.0117,0.1167 v 15.678 l -0.0117,0.1168 -0.0336,0.1086 -0.0531,0.0983 -0.0705,0.0854 -0.0855,0.0705 -0.0982,0.0532 -0.1087,0.0336 -0.1167,0.0117 h -0.678 l -0.1168,-0.0117 -0.1086,-0.0336 -0.0982,-0.0532 -0.0855,-0.0705 -0.0705,-0.0854 -0.0532,-0.0983 -0.0336,-0.1086 -0.0117,-0.1168 v -15.678 l 0.0117,-0.1167 0.0336,-0.1087 0.0532,-0.0982 0.0705,-0.0855 0.0855,-0.0705 0.0982,-0.0531 0.1086,-0.0336 0.1168,-0.0117 v 0 m 149.108093,28.505499 0.393,-0.2684 0.37,-0.2927 0.346,-0.3155 0.321,-0.3369 0.296,-0.3567 0.269,-0.3749 0.243,-0.3917 0.215,-0.407 0.187,-0.4207 0.157,-0.4329 0.128,-0.4436 0.097,-0.4528 0.066,-0.4605 0.033,-0.466697 0.001,-0.4713 -0.033,-0.4744 -0.066,-0.471 -0.098,-0.4609 -0.129,-0.4497 -0.16,-0.437 -0.189,-0.4231 -0.216,-0.4077 -0.244,-0.3911 -0.269,-0.3731 -0.295,-0.3539 -0.318,-0.3332 -0.342,-0.3112 -0.363,-0.288 -0.384,-0.2633 -0.404,-0.2375 -0.422,-0.210102 -0.44,-0.1815 m -58.866,42.742199 -0.322,0.0846 -0.325,0.0668 -0.327,0.0491 -0.328,0.0313 -0.328,0.0139 -0.328,-0.0035 -0.327,-0.0208 -0.325,-0.038 -0.321,-0.055 -0.318,-0.0719 -0.313,-0.0887 -0.308,-0.1053 -0.301,-0.1219 -0.294,-0.1384 -0.286,-0.1546 -0.277,-0.1708 -0.265,-0.1855 -0.251,-0.1981 -0.236,-0.2101 -0.222,-0.2214 -0.206,-0.232 -0.19,-0.242 -0.174,-0.2511 -0.157,-0.2597 -0.141,-0.2676 -0.123,-0.2747 -0.105,-0.2812 -0.087,-0.287 -0.069,-0.2921 -0.05,-0.2965 -0.03,-0.3002 -0.011,-0.3032 m 7.346,-67.898799 -0.321,-0.084 -0.325,-0.067 -0.327,-0.049 -0.328,-0.032 -0.329,-0.013 -0.328,0.003 -0.326,0.021 -0.325,0.038 -0.321,0.055 -0.318,0.072 -0.313,0.088 -0.308,0.106 -0.301,0.122 -0.294,0.138 -0.286,0.155 -0.277,0.171 -0.265,0.185 -0.251,0.198 -0.236,0.21 -0.222,0.222 -0.206,0.232 -0.19,0.242 -0.174,0.251 -0.157,0.259 -0.141,0.268 -0.123,0.2747 -0.105,0.2812 -0.088,0.287 -0.068,0.2921 -0.05,0.2965 -0.03,0.3002 -0.011,0.3032 m 0,0 -0.014,8.4561 -0.137,7e-4 h -1.62 v -5.7175 l -0.019,-0.2831 -0.054,-0.2634 -0.085,-0.2381 -0.113,-0.2073 -0.138,-0.1708 -0.157,-0.1289 -0.175,-0.0815 -0.188,-0.0283 -0.187,0.0283 -0.175,0.0815 -0.157,0.1289 -0.138,0.1708 -0.113,0.2073 -0.085,0.2381 -0.054,0.2634 -0.019,0.2831 v 12.0546 l 0.022,0.2781 0.061,0.2501 0.097,0.2193 0.126,0.1856 0.15,0.1493 0.169,0.1101 0.182,0.0681 0.191,0.0233 0.859,-10e-4 h 1.62 m 66.36,9.0798 -58.864,-29.9822 m 60.114,41.941199 -60.116,30.7832 m -7.339,-4.8239 -0.017,-6.9962 -0.156,-7e-4 -1.602,-0.0011 -0.859,0.0013 -0.191,-0.0233 -0.182,-0.0681 -0.169,-0.1101 -0.15,-0.1493 -0.126,-0.1857 -0.097,-0.2193 -0.061,-0.2501 -0.022,-0.2781 v -12.0545 l 0.019,-0.2832 0.054,-0.2634 0.085,-0.2381 0.113,-0.2072 0.137,-0.1709 0.158,-0.1289 0.175,-0.0814 0.187,-0.0284 0.188,0.0284 0.175,0.0814 0.157,0.1289 0.138,0.1709 0.113,0.2072 0.085,0.2381 0.054,0.2634 0.019,0.2832 v 5.7175 h 1.62 l 0.148,-0.0034 -0.044,-14.6716 -4.859,0.0056 -0.034,29.2024 -0.027,0.5279 -0.078,0.5124 -0.127,0.4943 -0.173,0.4736 -0.216,0.4503 -0.257,0.4246 -0.296,0.3962 -0.332,0.3654 -0.365,0.3319 -0.396,0.2959 -0.425,0.2574 -0.45,0.2163 -0.473,0.1727 -0.494,0.1265 -0.513,0.0778 -0.528,0.0265 H 89.092247 l -0.528,-0.0265 -0.512,-0.0778 -0.494,-0.1265 -0.474,-0.1727 -0.45,-0.2163 -0.425,-0.2574 -0.396,-0.2959 -0.365,-0.3319 -0.332,-0.3654 -0.296,-0.3962 -0.257,-0.4246 -0.217,-0.4503 -0.172,-0.4736 -0.127,-0.4943 -0.078,-0.5124 -0.026,-0.5279 v -29.101 m 0,-6.696597 V 10.849645 l 0.026,-0.528 0.078,-0.5129998 0.127,-0.494 0.172,-0.473 0.217,-0.451 0.257,-0.424 0.296,-0.397 0.332,-0.365 0.365,-0.332 0.396,-0.296 0.425,-0.257 0.45,-0.216 0.474,-0.173 0.494,-0.127 0.512,-0.077 0.528,-0.027 h 68.703093 l 0.528,0.027 0.513,0.077 0.494,0.127 0.473,0.173 0.45,0.216 0.425,0.257 0.396,0.296 0.365,0.332 0.331,0.365 0.296,0.397 0.258,0.424 0.216,0.451 0.173,0.473 0.127,0.494 0.078,0.5129998 0.027,0.528 0.043,32.933102 4.856,0.0767 0.04,-11.221802 -0.15,0.002 m 14.483,42.731399 -0.485,0.1136 -0.491,0.0603 -0.492,0.0078 -0.489,-0.0441 -0.479,-0.0952 -0.466,-0.1455 -0.446,-0.1952 -0.422,-0.2441 -0.387,-0.2877 -0.344,-0.3236 -0.297,-0.3555 -0.248,-0.3831 -0.198,-0.4068 -0.144,-0.4261 -0.089,-0.4414 -0.031,-0.4526 m 0.001,-47.304599 -0.001,47.304599 m 49.659,-28.437397 -44.181,-22.033802 m 45.118,31.002999 -45.087,23.0874 m -170.454793,-21.6927 -0.393,-0.2684 -0.37,-0.2927 -0.346,-0.3155 -0.3212,-0.3369 -0.29585,-0.3567 -0.2694996,-0.3749 -0.2427001,-0.3917 -0.215,-0.407 -0.1866,-0.4207 -0.1575,-0.4329 -0.1277,-0.4436 -0.097,-0.4528 -0.0657,-0.4605 -0.0336,-0.466697 -9e-4,-0.4713 0.0327,-0.4744 0.0662,-0.471 0.0983,-0.4609 0.1294,-0.4497 0.1596,-0.437 0.1886,-0.4231 0.2166,-0.4077 0.2436001,-0.3911 0.2695996,-0.3731 0.29465,-0.3539 0.318,-0.3332 0.342,-0.3112 0.363,-0.288 0.384,-0.2633 0.404,-0.2375 0.422,-0.210102 0.44,-0.1815 m 58.866,42.742199 0.322,0.0846 0.325,0.0668 0.327,0.0491 0.328,0.0313 0.328,0.0139 0.328,-0.0035 0.327,-0.0208 0.325,-0.038 0.321,-0.055 0.318,-0.0719 0.313,-0.0887 0.308,-0.1053 0.301,-0.1219 0.294,-0.1384 0.286,-0.1546 0.277,-0.1708 0.265,-0.1855 0.251,-0.1981 0.236,-0.2101 0.222,-0.2214 0.206,-0.232 0.19,-0.242 0.174,-0.2511 0.157,-0.2597 0.141,-0.2676 0.123,-0.2747 0.105,-0.2812 0.087,-0.287 0.069,-0.2921 0.05,-0.2965 0.03,-0.3002 0.011,-0.3032 m -7.346,-67.898799 0.321,-0.084 0.325,-0.067 0.327,-0.049 0.328,-0.032 0.329,-0.013 0.328,0.003 0.326,0.021 0.325,0.038 0.321,0.055 0.318,0.072 0.313,0.088 0.308,0.106 0.301,0.122 0.294,0.138 0.286,0.155 0.277,0.171 0.265,0.185 0.251,0.198 0.236,0.21 0.222,0.222 0.206,0.232 0.19,0.242 0.174,0.251 0.157,0.259 0.141,0.268 0.123,0.2747 0.105,0.2812 0.088,0.287 0.068,0.2921 0.05,0.2965 0.03,0.3002 0.011,0.3032 m 0,0 0.014,8.4561 0.137,7e-4 h 1.62 v -5.7175 l 0.019,-0.2831 0.054,-0.2634 0.085,-0.2381 0.113,-0.2073 0.138,-0.1708 0.157,-0.1289 0.175,-0.0815 0.188,-0.0283 0.187,0.0283 0.175,0.0815 0.157,0.1289 0.138,0.1708 0.113,0.2073 0.085,0.2381 0.054,0.2634 0.019,0.2831 v 12.0546 l -0.022,0.2781 -0.061,0.2501 -0.097,0.2193 -0.126,0.1856 -0.15,0.1493 -0.169,0.1101 -0.182,0.0681 -0.191,0.0233 -0.859,-10e-4 h -1.62 m -66.36,9.0798 58.864,-29.9822 m -60.114,41.941199 60.116,30.7832 m 7.339,-4.8239 0.017,-6.9962 0.156,-7e-4 1.602,-0.0011 0.859,0.0013 0.191,-0.0233 0.182,-0.0681 0.169,-0.1101 0.15,-0.1493 0.126,-0.1857 0.097,-0.2193 0.061,-0.2501 0.022,-0.2781 v -12.0545 l -0.019,-0.2832 -0.054,-0.2634 -0.085,-0.2381 -0.113,-0.2072 -0.137,-0.1709 -0.158,-0.1289 -0.175,-0.0814 -0.187,-0.0284 -0.188,0.0284 -0.175,0.0814 -0.157,0.1289 -0.138,0.1709 -0.113,0.2072 -0.085,0.2381 -0.054,0.2634 -0.019,0.2832 v 5.7175 h -1.62 l -0.148,-0.0034 -0.012,-14.6137 4.764,-0.0572 m -4.604,-17.705999 -0.15,-0.002 -0.01,11.166102 4.763,0.0563 m -64.1737,8.423097 -0.2948,-0.2012 -0.2775,-0.2196 -0.2594,-0.2366 -0.2409,-0.2527 -0.2219,-0.2675 -0.2022,-0.2812 -0.182,-0.2938 -0.1612,-0.3052 -0.14,-0.3155 -0.1181,-0.3247 -0.0957,-0.3327 -0.0728,-0.3396 -0.0493,-0.345397 -0.0252,-0.35 -6e-4,-0.3535 0.0245,-0.3558 0.0496,-0.3532 0.0737,-0.3458 0.0971,-0.3372 0.1197,-0.3278 0.1414,-0.3172 0.1625,-0.3058 0.1827,-0.2934 0.2022,-0.2798 0.2209,-0.2654 0.2389,-0.2499 0.256,-0.2334 0.2723,-0.216 0.288,-0.1975 0.3028,-0.1781 0.3169,-0.1576 0.3301,-0.1361 m 44.1483,-22.486402 0.4849,-0.1136 0.4912,-0.0603 0.4924,-0.008 0.4884,0.0441 0.4795,0.0952 0.4655,0.1455 0.4463,0.1952 0.4222,0.2441 0.3872,0.2876 0.3433,0.3237 0.2971,0.3554 0.2485,0.3832 0.1977,0.4067 0.1444,0.4262 0.0889,0.4414 0.0309,0.4525 m -2e-4,10e-5 0.0015,47.304599 m -49.6582,-28.437397 44.1487,-22.486702 m -45.0862,31.455899 45.087,23.0874" />
  </g>
  <g
     inkscape:label="B.Cu"
     inkscape:groupmode="layer"
     id="g836" />
  <g
     inkscape:label="B.Mask"
     inkscape:groupmode="layer"
     id="g838" />
  <g
     inkscape:label="B.SilkS"
     inkscape:groupmode="layer"
     id="g840" />
  <g
     inkscape:label="F.Cu"
     inkscape:groupmode="layer"
     id="g842" />
  <g
     inkscape:label="F.Mask"
     inkscape:groupmode="layer"
     id="g844" />
  <g
     inkscape:label="F.SilkS"
     inkscape:groupmode="layer"
     id="g846" />
  <g
     inkscape:label="Dwgs.User"
     inkscape:groupmode="layer"
     id="g848" />
  <g
     inkscape:label="Drill"
     inkscape:groupmode="layer"
     id="g850" />
</svg>
