<?xml version="1.0" encoding="UTF-8" standalone="no"?>
<!-- Created with Inkscape (http://www.inkscape.org/) -->

<svg
   width="75.100502mm"
   height="75.150299mm"
   viewBox="0 0 75.100502 75.150299"
   version="1.1"
   id="svg16652"
   xml:space="preserve"
   inkscape:version="1.2.2 (b0a8486541, 2022-12-01)"
   sodipodi:docname="PCB.svg"
   xmlns:inkscape="http://www.inkscape.org/namespaces/inkscape"
   xmlns:sodipodi="http://sodipodi.sourceforge.net/DTD/sodipodi-0.dtd"
   xmlns="http://www.w3.org/2000/svg"
   xmlns:svg="http://www.w3.org/2000/svg"><sodipodi:namedview
     id="namedview16654"
     pagecolor="#ffffff"
     bordercolor="#000000"
     borderopacity="0.25"
     inkscape:showpageshadow="2"
     inkscape:pageopacity="0.0"
     inkscape:pagecheckerboard="0"
     inkscape:deskcolor="#d1d1d1"
     inkscape:document-units="mm"
     showgrid="false"
     inkscape:zoom="2.4623952"
     inkscape:cx="213.61315"
     inkscape:cy="134.21891"
     inkscape:window-width="1920"
     inkscape:window-height="1011"
     inkscape:window-x="0"
     inkscape:window-y="0"
     inkscape:window-maximized="1"
     inkscape:current-layer="layer1" /><defs
     id="defs16649" /><g
     inkscape:label="Layer 1"
     inkscape:groupmode="layer"
     id="layer1"
     transform="translate(3.7726133,-86.172852)"><g
       id="g22618"
       transform="translate(-3.7726133,84.530352)"><g
         style="fill:#000000;fill-opacity:1;stroke:#000000;stroke-linecap:round;stroke-linejoin:round;stroke-opacity:1"
         id="g22411" /><g
         style="fill:#000000;fill-opacity:0;stroke:#000000;stroke-width:0;stroke-linecap:round;stroke-linejoin:round;stroke-opacity:1"
         id="g22413" /><g
         style="fill:#f2eda1;fill-opacity:0;stroke:#f2eda1;stroke-width:0;stroke-linecap:round;stroke-linejoin:round;stroke-opacity:1"
         id="g22415" /><g
         style="fill:#f2eda1;fill-opacity:0;stroke:#f2eda1;stroke-width:0.15;stroke-linecap:round;stroke-linejoin:round;stroke-opacity:1"
         id="g22433"><path
           d="m 9.5902,41.7026 a 1.4001,1.4001 0 0 0 1.4,1.4"
           id="path22417" /><path
           d="m 65.5103,36.6925 a 1.4,1.4 0 0 0 -1.4,-1.4"
           id="path22419" /><path
           d="M 64.1103,35.2925 H 10.9902"
           id="path22421" /><path
           d="m 9.5902,36.6925 v 5.0101"
           id="path22423" /><path
           d="m 64.1003,43.0925 a 1.4,1.4 0 0 0 1.4,-1.4"
           id="path22425" /><path
           d="M 10.9902,43.1026 64.1003,43.0925"
           id="path22427" /><path
           d="m 65.5003,41.6925 0.01,-5"
           id="path22429" /><path
           d="m 10.9902,35.2924 a 1.4001,1.4001 0 0 0 -1.4,1.4001"
           id="path22431" /></g><g
         style="fill:#f2eda1;fill-opacity:1;stroke:#f2eda1;stroke-width:0;stroke-linecap:round;stroke-linejoin:round;stroke-opacity:1"
         id="g22467"><path
           style="fill:#f2eda1;fill-opacity:1;fill-rule:evenodd;stroke:#f2eda1;stroke-width:0;stroke-linecap:round;stroke-linejoin:round;stroke-opacity:1"
           d="m 14.4402,55.5829 0.112,0.2882 -0.1167,0.2833 -0.2929,0.1286 -0.3001,-0.1262 -0.1238,-0.2834 0.1167,-0.2905 0.3048,-0.1333 z"
           id="path22435" /><path
           style="fill:#f2eda1;fill-opacity:1;fill-rule:evenodd;stroke:#f2eda1;stroke-width:0;stroke-linecap:round;stroke-linejoin:round;stroke-opacity:1"
           d="m 59.8031,55.3829 0.0833,0.1762 -0.181,0.1524 h -0.6001 l 0.1524,-0.2691 0.3072,-0.1262 z"
           id="path22437" /><path
           style="fill:#f2eda1;fill-opacity:1;fill-rule:evenodd;stroke:#f2eda1;stroke-width:0;stroke-linecap:round;stroke-linejoin:round;stroke-opacity:1"
           d="M 59.5721,59.1993 H 57.4813 54.5333 51.3615 47.2039 43.9511 40.8293 36.2168 33.4879 29.1159 27.149 24.2629 20.7506 19.048 15.0403 11.3756 10.1087 9.1166 7.1325 l 0.8513,-2.8377 h 2.1249 l 0.1239,0.2738 0.0428,0.0524 0.1381,0.1453 0.2144,0.15 0.3238,0.1357 0.206,0.0411 0.2179,0.0137 0.2863,-0.028 0.2746,-0.0842 0.263,-0.1402 0.181,-0.1554 0.1428,-0.2089 0.0929,-0.2542 0.031,-0.2911 -0.0155,-0.1453 h 0.2536 l 0.0391,0.3183 0.1175,0.2913 0.1958,0.2643 0.2416,0.209 0.2548,0.1255 0.268,0.0418 0.353,-0.0631 0.2352,-0.1894 0.1024,0.1882 0.3476,0.0643 0.2114,-0.031 0.1148,-0.0929 0.0405,-0.1262 0.007,-0.1595 h 0.3812 l 0.0071,0.1667 0.0405,0.1238 0.125,0.0964 0.2417,0.0322 0.2429,-0.031 0.1286,-0.0928 0.0452,-0.1262 0.0072,-0.1644 v -0.8429 l 0.0714,-0.3108 0.2143,-0.1036 0.2215,0.1036 0.0738,0.3108 v 0.8334 l 0.0071,0.1643 0.0405,0.1262 0.125,0.1 0.2417,0.0334 0.2453,-0.0322 0.1262,-0.0964 0.0453,-0.1238 0.0071,-0.1667 v -0.8335 l 0.0595,-0.3095 0.2262,-0.1096 0.2215,0.1036 0.0738,0.3108 v 0.8334 l 0.0072,0.1643 0.0404,0.1262 0.1251,0.1 0.2417,0.0334 0.244,-0.0322 0.1227,-0.0964 0.0452,-0.1262 0.0065,-0.15 h 0.3102 l 0.0905,0.1809 0.2866,0.1482 0.2944,0.0889 0.3025,0.0296 0.2891,-0.0164 0.2548,-0.0492 0.2204,-0.082 0.2596,-0.2595 0.0696,-0.1923 0.0233,-0.2292 -0.0233,-0.2268 -0.0696,-0.1852 -0.0643,-0.0643 h 0.4667 l 0.0352,0.3315 0.1056,0.2961 0.1759,0.2606 0.2294,0.2024 0.2659,0.1215 0.3024,0.0405 0.3525,-0.1048 0.1286,-0.1048 0.0857,-0.0952 0.0476,0.1952 0.1226,0.0857 0.2346,0.0286 0.2393,-0.0309 0.1274,-0.0929 0.0453,-0.1214 0.0071,-0.1596 v -0.0143 h 0.381 l 0.0071,0.1643 0.0405,0.1262 0.125,0.0965 0.2417,0.0321 0.2441,-0.0321 0.1226,-0.0965 0.0453,-0.1214 0.0071,-0.1643 v -0.843 l 0.1167,-0.3 0.3048,-0.1143 0.3001,0.1095 0.1119,0.3048 v 0.8382 l 0.0285,0.2429 0.1239,0.1322 0.2667,0.044 0.2452,-0.0321 0.1262,-0.0965 0.0405,-0.1214 0.0072,-0.1643 v -0.8382 l -0.0036,-0.0334 h 0.3131 l 0.0384,0.3104 0.1151,0.2834 0.1918,0.2564 0.2358,0.2024 0.2468,0.1214 0.258,0.0405 0.3417,-0.0595 0.2345,-0.1786 v 0.1428 l -0.1143,0.3429 -0.2952,0.1429 -0.2572,-0.044 -0.2381,-0.1322 -0.1381,-0.0572 -0.1167,0.0381 -0.1405,0.1382 -0.1429,0.3286 0.0822,0.1512 0.2464,0.1679 0.337,0.1321 0.3536,0.0441 0.3069,-0.0373 0.2858,-0.112 0.2645,-0.1865 0.2117,-0.2474 0.127,-0.2944 0.0423,-0.3416 v -1.9717 l -0.0071,-0.1619 -0.0429,-0.1215 -0.1214,-0.0976 -0.2715,-0.0286 -0.2691,0.0691 -0.0976,0.2024 -0.0786,-0.0929 -0.1833,-0.1095 -0.2953,-0.0596 -0.2688,0.0408 -0.254,0.1222 -0.2392,0.2038 -0.1931,0.2577 -0.1159,0.2841 -0.0387,0.3106 h -0.3131 l -0.0316,-0.2981 -0.1056,-0.2961 -0.1759,-0.2606 -0.2289,-0.2024 -0.2643,-0.1215 -0.2998,-0.0405 -0.3572,0.1096 -0.1286,0.1 -0.0857,0.0952 -0.0476,-0.1952 -0.1227,-0.0822 -0.2345,-0.0274 -0.2417,0.0298 -0.125,0.0893 -0.0453,0.1215 -0.0071,0.1595 v 1.6859 h -0.381 v -1.6716 l -0.0071,-0.1643 -0.0405,-0.1262 -0.125,-0.0965 -0.2417,-0.0321 -0.2441,0.0309 -0.1227,0.0929 -0.0452,0.1262 -0.0071,0.1643 v 0.843 l -0.1167,0.3 -0.3048,0.1143 -0.3001,-0.1095 -0.1119,-0.3048 v -0.8335 l -0.0286,-0.2428 -0.1262,-0.1358 -0.2643,-0.0452 -0.2452,0.0321 -0.1263,0.0965 -0.0404,0.1238 -0.0072,0.1667 v 0.8334 h -0.4667 l -0.1667,-0.1667 -0.3,-0.119 -0.3096,-0.0619 -0.2429,-0.0679 -0.0809,-0.1179 0.2809,-0.1048 0.3358,0.0715 0.2119,0.0714 0.2143,-0.1667 0.1048,-0.281 -0.1667,-0.1905 -0.3524,-0.1214 -0.3429,-0.0405 -0.372,0.0301 -0.2894,0.0903 -0.2067,0.1505 -0.124,0.2107 -0.0414,0.2709 0.0227,0.2351 0.0678,0.2007 0.2286,0.269 0.2965,0.1465 0.2988,0.0774 0.2394,0.0548 0.0797,0.0785 -0.0726,0.0858 -0.2179,0.0285 -0.3619,-0.1166 -0.3167,-0.1167 -0.1691,0.0809 -0.1357,0.2203 -0.0453,0.156 h -0.3102 l 7e-4,-0.0143 v -0.8335 l -0.0286,-0.4082 -0.0857,-0.3231 -0.1429,-0.2378 -0.2881,-0.2197 -0.3501,-0.0732 -0.3334,0.0929 -0.2357,0.1714 -0.1262,0.15 -0.1863,-0.2302 -0.2413,-0.1381 -0.2963,-0.046 -0.2917,0.0845 -0.2465,0.2536 -0.0809,-0.2476 -0.3477,-0.0858 -0.2179,0.0322 -0.1202,0.0964 -0.0453,0.1215 -0.0071,0.1643 v 1.6764 H 15.414 l 2e-4,-0.0048 v -1.6669 l -0.0072,-0.1643 -0.0428,-0.1262 -0.1262,-0.1 -0.2763,-0.0286 -0.2679,0.0667 -0.1083,0.2 -0.0857,-0.0976 -0.1858,-0.1071 -0.2952,-0.0572 -0.2749,0.0416 -0.2596,0.1246 -0.2442,0.2077 -0.1971,0.263 -0.1183,0.2905 -0.0394,0.318 h -0.2536 l -0.0149,-0.1399 -0.0911,-0.2363 -0.1363,-0.1804 -0.1661,-0.1173 -0.1893,-0.0792 -0.206,-0.066 -0.206,-0.0518 -0.1893,-0.0364 -0.3024,-0.1095 -0.1214,-0.2119 0.1024,-0.2048 0.2571,-0.0738 0.2548,0.0619 0.0738,0.0619 0.0548,0.0476 0.2477,0.0953 0.169,-0.0596 0.1643,-0.1786 0.1143,-0.2619 -0.0964,-0.1524 H 31.821 l 0.0238,0.2 0.0952,0.112 0.2239,0.0357 h 0.9144 v 2.3907 l 0.0071,0.1644 0.0429,0.1238 0.1238,0.0976 0.2358,0.0286 0.2381,-0.0286 0.1262,-0.0976 0.0429,-0.1215 0.0071,-0.1619 v -2.3955 h 0.9096 l 0.2429,-0.0429 0.081,-0.1024 0.014,-0.1167 h 0.1527 l 0.0285,0.2382 0.1143,0.1381 0.2763,0.0476 h 1.0858 l -0.1048,0.2167 -0.1154,0.1703 -0.137,0.2012 -0.1476,0.2268 -0.1476,0.247 -0.137,0.2745 -0.1155,0.3089 -0.0785,0.3221 -0.0262,0.3137 0.0071,0.1596 0.0453,0.1071 0.1262,0.0762 0.2405,0.0191 0.2405,-0.0191 0.1262,-0.0738 0.0476,-0.1048 0.0095,-0.1547 0.0262,-0.2239 0.0786,-0.2572 0.131,-0.2905 0.1833,-0.3238 0.1196,-0.1905 h 2.1188 l 0.0241,0.3107 0.0723,0.2941 0.1206,0.2774 0.1688,0.2608 0.2137,0.2238 0.2697,0.1762 0.3143,0.1143 0.3477,0.0381 0.3482,-0.0375 0.3161,-0.1125 0.2727,-0.1732 0.2179,-0.2197 0.1708,-0.2643 0.0063,-0.0143 h 0.5229 l 0.1239,0.2738 0.0428,0.0524 0.1381,0.1453 0.2144,0.15 0.3238,0.1357 0.206,0.0411 0.2179,0.0137 0.2863,-0.028 0.2746,-0.0842 0.263,-0.1402 0.181,-0.1554 0.05,-0.0732 h 0.5262 l 0.0286,0.2476 0.1262,0.1358 0.2643,0.0452 h 1.2526 l 0.2865,-0.0357 0.2564,-0.1072 0.2262,-0.1785 0.177,-0.2316 0.1088,-0.2659 0.0404,-0.3003 -0.0312,-0.2672 -0.0936,-0.2492 -0.1562,-0.2313 0.1358,-0.275 0.0452,-0.3012 -0.0344,-0.2752 -0.1032,-0.2477 -0.1422,-0.182 h 1.7752 l 0.0239,0.2 0.0952,0.112 0.2238,0.0357 h 0.9144 v 2.3907 l 0.0072,0.1644 0.0429,0.1238 0.1238,0.0976 0.2357,0.0286 0.2381,-0.0286 0.1263,-0.0976 0.0428,-0.1215 0.0072,-0.1619 v -0.843 h 1.4478 l 0.0506,0.3614 0.1518,0.3221 0.2256,0.2655 0.272,0.1917 0.3001,0.1161 0.3095,0.0386 0.309,-0.0363 0.2983,-0.1089 0.2708,-0.1857 0.2268,-0.2667 0.1536,-0.3293 0.0512,-0.3732 -0.0439,-0.3585 -0.1317,-0.3136 -0.0814,-0.0994 h 0.4475 l 0.0691,0.2762 0.1738,0.0809 0.1953,-0.0142 v 0.7048 l 0.0286,0.3212 0.0857,0.2524 0.1429,0.1836 0.1979,0.1244 0.2508,0.0746 0.3037,0.0249 0.1596,-0.0072 0.1262,-0.0404 0.1,-0.1251 0.0333,-0.2417 -0.1095,-0.319 -0.1262,-0.0453 -0.1715,-0.0071 -0.1524,-0.0572 -0.0404,-0.1857 V 55.883 h 0.9191 l 0.0334,0.3074 0.1,0.2874 0.1667,0.2672 0.1827,0.1804 0.2435,0.1411 0.2935,0.091 0.3328,0.0304 0.4438,-0.0265 0.317,-0.0795 0.1902,-0.1324 0.0634,-0.1855 -0.0162,-0.0571 h 0.4496 l 0.0071,0.1667 0.0405,0.1238 0.125,0.0964 0.2417,0.0322 0.2429,-0.031 0.1286,-0.0928 0.0452,-0.1262 0.0072,-0.1644 v -0.8429 l 0.0714,-0.3108 0.2143,-0.1036 0.2215,0.1036 0.0738,0.3108 v 0.8334 l 0.0071,0.1643 0.0405,0.1262 0.125,0.1 0.2417,0.0334 0.2453,-0.0322 0.1262,-0.0964 0.0453,-0.1238 0.0071,-0.1667 v -0.8335 l 0.0595,-0.3095 0.2262,-0.1096 0.2215,0.1036 0.0738,0.3108 v 0.8334 l 0.0072,0.1643 0.0404,0.1262 0.1251,0.1 0.2417,0.0334 0.244,-0.0322 0.1227,-0.0964 0.0452,-0.1262 0.0072,-0.1643 v -0.8335 l -0.0286,-0.4082 -0.0857,-0.3231 -0.1429,-0.2378 -0.2881,-0.2197 -0.3501,-0.0732 -0.3334,0.0929 -0.2357,0.1714 -0.1262,0.15 -0.1863,-0.2302 -0.2413,-0.1381 -0.2963,-0.046 -0.2917,0.0845 -0.2465,0.2536 -0.0809,-0.2476 -0.3477,-0.0858 -0.2179,0.0322 -0.1202,0.0964 -0.0453,0.1215 -0.0071,0.1643 v 1.6764 h -0.4496 l -0.0457,-0.1619 -0.262,-0.2144 -0.1905,0.0524 -0.0524,0.0191 -0.1869,0.0428 -0.2464,0.0143 -0.3144,-0.0905 -0.1571,-0.2238 h 1.1287 l 0.3215,-0.1405 0.1089,-0.1786 0.0363,-0.2548 -0.0405,-0.2816 -0.1214,-0.2589 -0.1768,-0.2042 -0.2209,-0.1459 -0.2649,-0.0875 -0.309,-0.0291 -0.3659,0.0399 -0.323,0.1199 -0.2802,0.1997 -0.2157,0.2665 -0.1294,0.3198 -0.0431,0.3734 h -0.9191 v -0.4429 l 0.3095,0.019 0.1643,-0.0071 0.1262,-0.0405 0.0965,-0.125 0.0321,-0.2417 -0.0309,-0.2441 -0.0929,-0.1226 -0.1262,-0.0453 -0.1619,-0.0071 -0.3167,0.019 V 54.178 l -0.0239,-0.2429 -0.1274,-0.1321 -0.2583,-0.0441 -0.2441,0.0298 -0.1226,0.0893 -0.0453,0.1143 -0.0071,0.1619 v 0.4905 l -0.1572,-0.019 -0.1905,0.0619 -0.0667,0.1262 -0.0238,0.2834 H 55.586 L 55.4477,54.9281 55.171,54.723 54.8678,54.6 l -0.3297,-0.041 -0.3302,0.0413 -0.3048,0.1238 -0.2794,0.2064 -0.2222,0.2699 -0.1334,0.3143 -0.0444,0.3587 h -1.4478 v -1.5525 h 0.9096 l 0.2429,-0.0429 0.0809,-0.1024 0.0239,-0.1976 -0.0239,-0.2001 -0.0952,-0.1119 -0.2238,-0.0357 h -2.648 l -0.2429,0.0429 -0.0809,0.1024 -0.0239,0.1976 h -1.7752 l -0.0297,-0.0381 -0.2128,-0.1693 -0.2444,-0.1016 -0.2763,-0.0339 h -1.2001 l -0.2453,0.0322 -0.1262,0.0964 -0.0452,0.1238 -0.0072,0.1667 v 2.6432 H 45.006 l 0.0928,-0.1357 0.0929,-0.2542 0.031,-0.2911 -0.0304,-0.2852 -0.0911,-0.2363 -0.1363,-0.1804 -0.1661,-0.1173 -0.1893,-0.0792 -0.206,-0.066 -0.206,-0.0518 -0.1893,-0.0364 -0.3024,-0.1095 -0.1214,-0.2119 0.1024,-0.2048 0.2571,-0.0738 0.2548,0.0619 0.0738,0.0619 0.0548,0.0476 0.2477,0.0953 0.169,-0.0596 0.1643,-0.1786 0.1143,-0.2619 -0.1476,-0.2334 -0.1191,-0.0904 -0.3262,-0.1501 -0.2482,-0.0553 -0.2733,-0.0185 -0.3336,0.0347 -0.2834,0.104 -0.2331,0.1733 -0.1733,0.2198 -0.104,0.2437 -0.0346,0.2675 0.0303,0.2828 0.0911,0.2387 0.1363,0.1875 0.1661,0.1292 0.1881,0.0935 0.2024,0.0803 0.2025,0.0637 0.1881,0.0435 0.3024,0.1072 0.1214,0.1833 -0.0492,0.2011 -0.1476,0.1206 -0.2461,0.0403 -0.2286,-0.0739 -0.1905,-0.1547 -0.2119,-0.1786 -0.1596,-0.0596 -0.2524,0.1143 -0.1536,0.1804 -0.0512,0.1411 h -0.5229 l 0.1158,-0.2643 0.0732,-0.2929 0.0244,-0.3072 v -1.4383 l -0.0286,-0.2476 -0.0619,-0.1 -0.1238,-0.0572 -0.2167,-0.0238 -0.2262,0.0286 -0.1382,0.1048 -0.0476,0.2619 v 1.4573 l -0.0428,0.3179 -0.1286,0.2774 -0.2155,0.1929 -0.3036,0.0643 -0.3382,-0.081 -0.2143,-0.2143 -0.1071,-0.269 -0.0358,-0.2834 v -1.4288 l -0.0571,-0.3 -0.1238,-0.1 -0.2429,-0.0286 -0.2429,0.0286 -0.1286,0.1 -0.0452,0.1262 -0.0072,0.1691 v 1.4335 h -2.1188 l 0.0561,-0.0893 0.1744,-0.2774 0.1613,-0.278 0.1363,-0.2816 0.0929,-0.2602 0.031,-0.2137 -0.0286,-0.2667 -0.1262,-0.1357 -0.2643,-0.0453 h -1.7145 l -0.2763,0.0572 -0.0905,0.1238 -0.0285,0.2381 H 35.1497 L 35.1595,53.978 35.1357,53.7779 35.0404,53.666 34.8166,53.6303 h -2.648 l -0.2428,0.0429 -0.081,0.1024 -0.0238,0.1976 H 12.3507 l -0.0512,-0.081 -0.1191,-0.0904 -0.3262,-0.1501 -0.2482,-0.0553 -0.2733,-0.0185 -0.3336,0.0347 -0.2834,0.104 -0.2331,0.1733 -0.1733,0.2198 -0.104,0.2437 -0.0346,0.2675 0.0303,0.2828 0.0911,0.2387 0.1363,0.1875 0.1661,0.1292 0.1881,0.0935 0.2024,0.0803 0.2025,0.0637 0.1881,0.0435 0.3024,0.1072 0.1214,0.1833 -0.0492,0.2011 -0.1476,0.1206 -0.2461,0.0403 -0.2286,-0.0739 -0.1905,-0.1547 -0.2119,-0.1786 -0.1596,-0.0596 -0.2524,0.1143 -0.1536,0.1804 -0.0512,0.1411 H 7.9838 l 1.1328,-3.7759 h 0.9921 v 0 h 54.5831 0.9921 1.9841 l -1.9841,6.6136 h -0.9921 -0.4191 z"
           id="path22439" /><path
           style="fill:#f2eda1;fill-opacity:1;fill-rule:evenodd;stroke:#f2eda1;stroke-width:0;stroke-linecap:round;stroke-linejoin:round;stroke-opacity:1"
           d="m 47.2777,54.5209 0.0786,0.1667 -0.0143,0.1714 -0.2286,0.1 -0.2929,0.0667 -0.0881,0.2739 0.0857,0.2738 0.2572,0.0667 0.2667,0.0381 0.0881,0.0952 0.0262,0.181 -0.075,0.2429 -0.2251,0.081 h -0.781 v -1.805 h 0.6667 z"
           id="path22441" /><path
           style="fill:#f2eda1;fill-opacity:1;fill-rule:evenodd;stroke:#f2eda1;stroke-width:0;stroke-linecap:round;stroke-linejoin:round;stroke-opacity:1"
           d="m 54.8524,55.5115 0.1108,0.1441 0.0369,0.2036 -0.0393,0.2047 -0.1179,0.1477 -0.3143,0.119 -0.3096,-0.1166 -0.1143,-0.1453 -0.0381,-0.2024 0.0369,-0.203 0.1108,-0.147 0.319,-0.1191 z"
           id="path22443" /><path
           style="fill:#f2eda1;fill-opacity:1;fill-rule:evenodd;stroke:#f2eda1;stroke-width:0;stroke-linecap:round;stroke-linejoin:round;stroke-opacity:1"
           d="m 29.4016,55.5567 0.1096,0.281 -0.1143,0.2763 -0.2882,0.1262 -0.2952,-0.1239 -0.1215,-0.2786 0.1143,-0.2833 0.3001,-0.1286 z"
           id="path22445" /><g
           id="g22447" /><g
           id="g22449" /><g
           id="g22451" /><g
           id="g22453" /><g
           id="g22455" /><g
           id="g22457" /><g
           id="g22459" /><g
           id="g22461" /><g
           id="g22463" /><g
           id="g22465" /></g><g
         style="fill:#000000;fill-opacity:1;stroke:#000000;stroke-width:0;stroke-linecap:round;stroke-linejoin:round;stroke-opacity:1"
         id="g22469" /><g
         style="fill:#ff26e2;fill-opacity:1;stroke:#ff26e2;stroke-width:0;stroke-linecap:round;stroke-linejoin:round;stroke-opacity:1"
         id="g22471" /><g
         style="fill:#ff26e2;fill-opacity:0;stroke:#ff26e2;stroke-width:0.05;stroke-linecap:round;stroke-linejoin:round;stroke-opacity:1"
         id="g22501"><path
           id="circle22473"
           d="m 71.450298,8.7924995 a 3.45,3.45 0 0 1 -3.45,3.4500005 3.45,3.45 0 0 1 -3.450001,-3.4500005 3.45,3.45 0 0 1 3.450001,-3.45 3.45,3.45 0 0 1 3.45,3.45 z" /><path
           id="circle22475"
           d="M 10.1503,8.7924995 A 3.45,3.45 0 0 1 6.7003002,12.2425 a 3.45,3.45 0 0 1 -3.45,-3.4500005 3.45,3.45 0 0 1 3.45,-3.45 3.45,3.45 0 0 1 3.4499998,3.45 z" /><path
           id="circle22477"
           d="m 71.450298,70.192497 a 3.45,3.45 0 0 1 -3.45,3.45 3.45,3.45 0 0 1 -3.450001,-3.45 3.45,3.45 0 0 1 3.450001,-3.45 3.45,3.45 0 0 1 3.45,3.45 z" /><path
           id="circle22479"
           d="m 10.1503,70.192497 a 3.45,3.45 0 0 1 -3.4499998,3.45 3.45,3.45 0 0 1 -3.45,-3.45 3.45,3.45 0 0 1 3.45,-3.45 3.45,3.45 0 0 1 3.4499998,3.45 z" /><g
           id="g22481" /><g
           id="g22483" /><g
           id="g22485" /><g
           id="g22487" /><g
           id="g22489" /><g
           id="g22491" /><g
           id="g22493" /><g
           id="g22495" /><g
           id="g22497" /><g
           id="g22499" /></g><g
         style="fill:#000000;fill-opacity:0;stroke:#000000;stroke-width:0.05;stroke-linecap:round;stroke-linejoin:round;stroke-opacity:1"
         id="g22503" /><g
         style="fill:#d0d2cd;fill-opacity:0;stroke:#d0d2cd;stroke-width:0.05;stroke-linecap:round;stroke-linejoin:round;stroke-opacity:1"
         id="g22505" /><g
         style="fill:#d0d2cd;fill-opacity:0;stroke:#d0d2cd;stroke-width:0.1;stroke-linecap:round;stroke-linejoin:round;stroke-opacity:1"
         id="g22543"><path
           d="M 75.0505,69.7428 75.0003,8.6925"
           id="path22507" /><path
           d="m 75.0003,8.6925 a 7,7 0 0 0 -7,-7"
           id="path22509" /><path
           d="M 0.05,8.7422 V 69.7428"
           id="path22511" /><path
           d="m 0.05,69.7428 a 7,7 0 0 0 7,7"
           id="path22513" /><path
           d="m 68.0505,76.7428 a 7,7 0 0 0 7,-7"
           id="path22515" /><path
           d="M 68.0003,1.6925 7.05,1.7422"
           id="path22517" /><path
           d="m 7.05,1.7422 a 7,7 0 0 0 -7,7"
           id="path22519" /><path
           d="M 7.05,76.7428 H 68.0505"
           id="path22521" /><g
           id="g22523" /><g
           id="g22525" /><g
           id="g22527" /><g
           id="g22529" /><g
           id="g22531" /><g
           id="g22533" /><g
           id="g22535" /><g
           id="g22537" /><g
           id="g22539" /><g
           id="g22541" /></g></g></g></svg>
