G04 #@! TF.GenerationSoftware,KiCad,Pcbnew,5.1.4*
G04 #@! TF.CreationDate,2019-10-18T21:44:40-05:00*
G04 #@! TF.ProjectId,dragos,64726167-6f73-42e6-9b69-6361645f7063,rev?*
G04 #@! TF.SameCoordinates,Original*
G04 #@! TF.FileFunction,Legend,Top*
G04 #@! TF.FilePolarity,Positive*
%FSLAX46Y46*%
G04 Gerber Fmt 4.6, Leading zero omitted, Abs format (unit mm)*
G04 Created by KiCad (PCBNEW 5.1.4) date 2019-10-18 21:44:40*
%MOMM*%
%LPD*%
G04 APERTURE LIST*
%ADD10C,0.150000*%
%ADD11C,0.120000*%
%ADD12C,0.010000*%
%ADD13C,0.050000*%
%ADD14C,0.100000*%
G04 APERTURE END LIST*
D10*
X188761904Y-127166666D02*
X189238095Y-127166666D01*
X188666666Y-127452380D02*
X189000000Y-126452380D01*
X189333333Y-127452380D01*
D11*
X160651000Y-44250000D02*
G75*
G03X160651000Y-44250000I-1251000J0D01*
G01*
D12*
G36*
X155881089Y-38122555D02*
G01*
X156468643Y-38125201D01*
X157012295Y-38129397D01*
X157502155Y-38135190D01*
X157928334Y-38142628D01*
X158255666Y-38150964D01*
X159460456Y-38192158D01*
X160602232Y-38239939D01*
X161694822Y-38295508D01*
X162752050Y-38360065D01*
X163787744Y-38434811D01*
X164815730Y-38520947D01*
X165849833Y-38619674D01*
X166903880Y-38732193D01*
X167991697Y-38859704D01*
X169127110Y-39003408D01*
X170323945Y-39164506D01*
X170976833Y-39255785D01*
X171458426Y-39323801D01*
X171974267Y-39396499D01*
X172506096Y-39471315D01*
X173035655Y-39545688D01*
X173544686Y-39617053D01*
X174014929Y-39682847D01*
X174428127Y-39740507D01*
X174596333Y-39763915D01*
X175385130Y-39873730D01*
X176097472Y-39973284D01*
X176740805Y-40063679D01*
X177322572Y-40146018D01*
X177850220Y-40221404D01*
X178331194Y-40290940D01*
X178772939Y-40355727D01*
X179182901Y-40416869D01*
X179568525Y-40475467D01*
X179937256Y-40532625D01*
X180296540Y-40589445D01*
X180653821Y-40647029D01*
X181016546Y-40706481D01*
X181392159Y-40768902D01*
X181463603Y-40780854D01*
X181751422Y-40828251D01*
X182017013Y-40870478D01*
X182247142Y-40905551D01*
X182428572Y-40931487D01*
X182548070Y-40946301D01*
X182585436Y-40949031D01*
X182686605Y-40958347D01*
X182859818Y-40984814D01*
X183094687Y-41026257D01*
X183380825Y-41080499D01*
X183707845Y-41145367D01*
X184065360Y-41218685D01*
X184442981Y-41298278D01*
X184830321Y-41381971D01*
X185216993Y-41467589D01*
X185592610Y-41552957D01*
X185946783Y-41635899D01*
X186269125Y-41714242D01*
X186413604Y-41750623D01*
X186728124Y-41833210D01*
X187054248Y-41922928D01*
X187381810Y-42016589D01*
X187700646Y-42111005D01*
X188000588Y-42202990D01*
X188271473Y-42289355D01*
X188503132Y-42366914D01*
X188685402Y-42432479D01*
X188808117Y-42482862D01*
X188861110Y-42514876D01*
X188862460Y-42518452D01*
X188823650Y-42521989D01*
X188718308Y-42512929D01*
X188563333Y-42493091D01*
X188407583Y-42469496D01*
X187416411Y-42345128D01*
X186370856Y-42281885D01*
X185275166Y-42279817D01*
X184133590Y-42338968D01*
X183338166Y-42413645D01*
X183112052Y-42437623D01*
X182906233Y-42457718D01*
X182740302Y-42472138D01*
X182633854Y-42479093D01*
X182618500Y-42479456D01*
X182460226Y-42489475D01*
X182230544Y-42517239D01*
X181940360Y-42560670D01*
X181600579Y-42617692D01*
X181222106Y-42686225D01*
X180815848Y-42764192D01*
X180392710Y-42849516D01*
X179963597Y-42940119D01*
X179539414Y-43033923D01*
X179131069Y-43128850D01*
X178850833Y-43197265D01*
X177171401Y-43652233D01*
X175467305Y-44183156D01*
X173744332Y-44786987D01*
X172008268Y-45460681D01*
X170264901Y-46201190D01*
X168520017Y-47005469D01*
X166779405Y-47870471D01*
X165048851Y-48793151D01*
X163334141Y-49770461D01*
X161641064Y-50799356D01*
X159975407Y-51876790D01*
X158342956Y-52999715D01*
X156749498Y-54165087D01*
X155200821Y-55369858D01*
X154255166Y-56144036D01*
X153383887Y-56890602D01*
X152505439Y-57679672D01*
X151632437Y-58498763D01*
X150777495Y-59335395D01*
X149953229Y-60177084D01*
X149172251Y-61011349D01*
X148447178Y-61825708D01*
X148091808Y-62242666D01*
X147177510Y-63377827D01*
X146332469Y-64518567D01*
X145558156Y-65662067D01*
X144856043Y-66805508D01*
X144227600Y-67946072D01*
X143674300Y-69080940D01*
X143197613Y-70207293D01*
X142799010Y-71322314D01*
X142479962Y-72423182D01*
X142258420Y-73418666D01*
X142192113Y-73779678D01*
X142139329Y-74097604D01*
X142098592Y-74390012D01*
X142068429Y-74674467D01*
X142047365Y-74968535D01*
X142033926Y-75289783D01*
X142026638Y-75655776D01*
X142024027Y-76084082D01*
X142023932Y-76212666D01*
X142024646Y-76598691D01*
X142027186Y-76914265D01*
X142032266Y-77173599D01*
X142040602Y-77390903D01*
X142052909Y-77580385D01*
X142069902Y-77756256D01*
X142092297Y-77932725D01*
X142119818Y-78117666D01*
X142320652Y-79168861D01*
X142590000Y-80179565D01*
X142930584Y-81156066D01*
X143345128Y-82104654D01*
X143836354Y-83031616D01*
X144406983Y-83943242D01*
X144996950Y-84764000D01*
X145589745Y-85500713D01*
X146214215Y-86196253D01*
X146876811Y-86855685D01*
X147583985Y-87484076D01*
X148342188Y-88086492D01*
X149157872Y-88667997D01*
X150037488Y-89233658D01*
X150987488Y-89788542D01*
X152014323Y-90337713D01*
X152244333Y-90454812D01*
X152504081Y-90583960D01*
X152797501Y-90726440D01*
X153115230Y-90878005D01*
X153447907Y-91034411D01*
X153786169Y-91191414D01*
X154120655Y-91344768D01*
X154442002Y-91490230D01*
X154740850Y-91623554D01*
X155007837Y-91740496D01*
X155233600Y-91836811D01*
X155408778Y-91908254D01*
X155524008Y-91950581D01*
X155565564Y-91960666D01*
X155560685Y-91926488D01*
X155524295Y-91837049D01*
X155466693Y-91716624D01*
X155303086Y-91370111D01*
X155128459Y-90960507D01*
X154950007Y-90507403D01*
X154774925Y-90030394D01*
X154610409Y-89549071D01*
X154463655Y-89083026D01*
X154343648Y-88658666D01*
X154133951Y-87779079D01*
X153968363Y-86895044D01*
X153845051Y-85991171D01*
X153762187Y-85052072D01*
X153717937Y-84062359D01*
X153708957Y-83324666D01*
X153717983Y-82568620D01*
X153746707Y-81874934D01*
X153797522Y-81223092D01*
X153872820Y-80592575D01*
X153974993Y-79962866D01*
X154106432Y-79313446D01*
X154246009Y-78718250D01*
X154302191Y-78484252D01*
X154347675Y-78281509D01*
X154379797Y-78123053D01*
X154395899Y-78021915D01*
X154394554Y-77990666D01*
X154342799Y-78005261D01*
X154233939Y-78043929D01*
X154089360Y-78098999D01*
X154055185Y-78112434D01*
X153710945Y-78240128D01*
X153289583Y-78381871D01*
X152797135Y-78535791D01*
X152239637Y-78700020D01*
X151623122Y-78872688D01*
X151440000Y-78922494D01*
X150867754Y-79078834D01*
X150368895Y-79219057D01*
X149934341Y-79346213D01*
X149555008Y-79463350D01*
X149221815Y-79573518D01*
X148925678Y-79679765D01*
X148657517Y-79785142D01*
X148408248Y-79892696D01*
X148168788Y-80005478D01*
X148074500Y-80052343D01*
X147564031Y-80341226D01*
X147131270Y-80655043D01*
X146772077Y-80997056D01*
X146581177Y-81229166D01*
X146532223Y-81289964D01*
X146511904Y-81300361D01*
X146521993Y-81255366D01*
X146564262Y-81149990D01*
X146640481Y-80979241D01*
X146752423Y-80738128D01*
X146764985Y-80711370D01*
X147154001Y-79973013D01*
X147617555Y-79256273D01*
X148156895Y-78559908D01*
X148773274Y-77882676D01*
X149467941Y-77223333D01*
X150242147Y-76580639D01*
X151097144Y-75953351D01*
X152034182Y-75340226D01*
X152392500Y-75122336D01*
X152920575Y-74819425D01*
X153465466Y-74529615D01*
X154014269Y-74258658D01*
X154554086Y-74012306D01*
X155072013Y-73796309D01*
X155555150Y-73616419D01*
X155990596Y-73478387D01*
X156206503Y-73422060D01*
X156344609Y-73380738D01*
X156427592Y-73326572D01*
X156484709Y-73239775D01*
X156488919Y-73231078D01*
X156562508Y-73091657D01*
X156674781Y-72897629D01*
X156816230Y-72664005D01*
X156977350Y-72405793D01*
X157148636Y-72138002D01*
X157320581Y-71875643D01*
X157483680Y-71633723D01*
X157628426Y-71427252D01*
X157651501Y-71395418D01*
X157996235Y-70936960D01*
X158353796Y-70487539D01*
X158705961Y-70069474D01*
X159011555Y-69729561D01*
X159136494Y-69593403D01*
X159236310Y-69479912D01*
X159298854Y-69403192D01*
X159314000Y-69378392D01*
X159277677Y-69365972D01*
X159188969Y-69372252D01*
X159176416Y-69374277D01*
X159008964Y-69398061D01*
X158768878Y-69425443D01*
X158468067Y-69455475D01*
X158118444Y-69487212D01*
X157731918Y-69519709D01*
X157320399Y-69552019D01*
X156895799Y-69583198D01*
X156470027Y-69612300D01*
X156054994Y-69638379D01*
X155662611Y-69660489D01*
X155419333Y-69672565D01*
X155090172Y-69680985D01*
X154729418Y-69676432D01*
X154327613Y-69658294D01*
X153875299Y-69625958D01*
X153363018Y-69578810D01*
X152781313Y-69516239D01*
X152498333Y-69483356D01*
X152034699Y-69428669D01*
X151644089Y-69383405D01*
X151315488Y-69346681D01*
X151037882Y-69317614D01*
X150800258Y-69295322D01*
X150591601Y-69278923D01*
X150400898Y-69267533D01*
X150217134Y-69260271D01*
X150029296Y-69256254D01*
X149826369Y-69254599D01*
X149640833Y-69254385D01*
X149237058Y-69258188D01*
X148895767Y-69270574D01*
X148595009Y-69293838D01*
X148312837Y-69330272D01*
X148027299Y-69382170D01*
X147716448Y-69451825D01*
X147689843Y-69458230D01*
X147514209Y-69499652D01*
X147372854Y-69531026D01*
X147283501Y-69548534D01*
X147261374Y-69550485D01*
X147293625Y-69530132D01*
X147392428Y-69482194D01*
X147546198Y-69411698D01*
X147743352Y-69323668D01*
X147972307Y-69223132D01*
X148221479Y-69115114D01*
X148479285Y-69004642D01*
X148734142Y-68896741D01*
X148974466Y-68796436D01*
X149188673Y-68708755D01*
X149341480Y-68647937D01*
X150539468Y-68209239D01*
X151708392Y-67841735D01*
X152858577Y-67544144D01*
X154000345Y-67315185D01*
X155144019Y-67153577D01*
X156299925Y-67058038D01*
X157478383Y-67027288D01*
X158689719Y-67060046D01*
X159944256Y-67155030D01*
X160698829Y-67238505D01*
X160935814Y-67266989D01*
X161147472Y-67291349D01*
X161317664Y-67309812D01*
X161430254Y-67320604D01*
X161464517Y-67322666D01*
X161529151Y-67297502D01*
X161641532Y-67229495D01*
X161784253Y-67129873D01*
X161900021Y-67041726D01*
X162544329Y-66555783D01*
X163253680Y-66061240D01*
X164010713Y-65568929D01*
X164798064Y-65089680D01*
X165598369Y-64634324D01*
X166394265Y-64213693D01*
X166595333Y-64112841D01*
X167336166Y-63745500D01*
X166785833Y-63713293D01*
X166525162Y-63696744D01*
X166209352Y-63674592D01*
X165850536Y-63647859D01*
X165460846Y-63617570D01*
X165052416Y-63584750D01*
X164637379Y-63550423D01*
X164227867Y-63515613D01*
X163836014Y-63481345D01*
X163473952Y-63448643D01*
X163153815Y-63418532D01*
X162887735Y-63392036D01*
X162687845Y-63370178D01*
X162616000Y-63361241D01*
X162330276Y-63319084D01*
X162026180Y-63265659D01*
X161693787Y-63198724D01*
X161323170Y-63116037D01*
X160904404Y-63015356D01*
X160427563Y-62894440D01*
X159882722Y-62751046D01*
X159712214Y-62705376D01*
X159089243Y-62540185D01*
X158537508Y-62399128D01*
X158047620Y-62280484D01*
X157610189Y-62182535D01*
X157215830Y-62103561D01*
X156855152Y-62041843D01*
X156518769Y-61995660D01*
X156197291Y-61963294D01*
X155881331Y-61943024D01*
X155561501Y-61933132D01*
X155490789Y-61932189D01*
X154821412Y-61925166D01*
X155935289Y-61703377D01*
X156861391Y-61524564D01*
X157722301Y-61370345D01*
X158533096Y-61238378D01*
X159308852Y-61126321D01*
X160064646Y-61031833D01*
X160689833Y-60964851D01*
X160967138Y-60943701D01*
X161310498Y-60927631D01*
X161704258Y-60916556D01*
X162132763Y-60910388D01*
X162580358Y-60909042D01*
X163031389Y-60912429D01*
X163470201Y-60920465D01*
X163881138Y-60933062D01*
X164248546Y-60950133D01*
X164556770Y-60971593D01*
X164711500Y-60987090D01*
X165447681Y-61083711D01*
X166183871Y-61201629D01*
X166932781Y-61343607D01*
X167707121Y-61512409D01*
X168519603Y-61710800D01*
X169382938Y-61941542D01*
X170272032Y-62196250D01*
X171133565Y-62450109D01*
X171647866Y-62328238D01*
X172615620Y-62117155D01*
X173609478Y-61934958D01*
X174605802Y-61785131D01*
X175580952Y-61671162D01*
X176511289Y-61596534D01*
X176670666Y-61587626D01*
X176979952Y-61571509D01*
X177205978Y-61557060D01*
X177349970Y-61540377D01*
X177413150Y-61517560D01*
X177396744Y-61484708D01*
X177301975Y-61437922D01*
X177130068Y-61373300D01*
X176882246Y-61286943D01*
X176776500Y-61250410D01*
X176515176Y-61159086D01*
X176272711Y-61072010D01*
X176037937Y-60984652D01*
X175799686Y-60892486D01*
X175546789Y-60790983D01*
X175268078Y-60675617D01*
X174952384Y-60541858D01*
X174588540Y-60385180D01*
X174165377Y-60201054D01*
X173876666Y-60074778D01*
X173199217Y-59781932D01*
X172586990Y-59525966D01*
X172030639Y-59303662D01*
X171520818Y-59111801D01*
X171048178Y-58947165D01*
X170603373Y-58806536D01*
X170177057Y-58686696D01*
X169759883Y-58584427D01*
X169342503Y-58496510D01*
X169230947Y-58475260D01*
X168817833Y-58398207D01*
X169833833Y-58415147D01*
X170133355Y-58420012D01*
X170497516Y-58425717D01*
X170906292Y-58431961D01*
X171339664Y-58438444D01*
X171777609Y-58444863D01*
X172200106Y-58450918D01*
X172373833Y-58453359D01*
X173330769Y-58473387D01*
X174214088Y-58506957D01*
X175034045Y-58556057D01*
X175800898Y-58622671D01*
X176524902Y-58708785D01*
X177216313Y-58816386D01*
X177885389Y-58947457D01*
X178542385Y-59103987D01*
X179197559Y-59287959D01*
X179861165Y-59501359D01*
X180543462Y-59746174D01*
X181254704Y-60024389D01*
X181920000Y-60301544D01*
X182158769Y-60403231D01*
X182382598Y-60498133D01*
X182574885Y-60579244D01*
X182719027Y-60639556D01*
X182787833Y-60667845D01*
X182884239Y-60710919D01*
X183043642Y-60787073D01*
X183253978Y-60890217D01*
X183503183Y-61014266D01*
X183779190Y-61153130D01*
X184069935Y-61300724D01*
X184363353Y-61450958D01*
X184647379Y-61597746D01*
X184909948Y-61735000D01*
X185056218Y-61812398D01*
X185242898Y-61910093D01*
X185396565Y-61984186D01*
X185538045Y-62041687D01*
X185688163Y-62089606D01*
X185867746Y-62134952D01*
X186097619Y-62184737D01*
X186262718Y-62218514D01*
X186899473Y-62352483D01*
X187543267Y-62497228D01*
X188180129Y-62649172D01*
X188796085Y-62804734D01*
X189377166Y-62960336D01*
X189909398Y-63112398D01*
X190378810Y-63257341D01*
X190584584Y-63325680D01*
X190810374Y-63399992D01*
X190960062Y-63442279D01*
X191035829Y-63452771D01*
X191039858Y-63431694D01*
X190974328Y-63379277D01*
X190951465Y-63364001D01*
X190881964Y-63313635D01*
X190759624Y-63220071D01*
X190597392Y-63093409D01*
X190408212Y-62943748D01*
X190225130Y-62797350D01*
X190018355Y-62631241D01*
X189822995Y-62474440D01*
X189653209Y-62338301D01*
X189523156Y-62234177D01*
X189454229Y-62179166D01*
X189341919Y-62088008D01*
X189181276Y-61955183D01*
X188988251Y-61794122D01*
X188778798Y-61618255D01*
X188568869Y-61441013D01*
X188374416Y-61275826D01*
X188211392Y-61136125D01*
X188098338Y-61037636D01*
X187980658Y-60933529D01*
X187824703Y-60795741D01*
X187655719Y-60646571D01*
X187569483Y-60570500D01*
X187451345Y-60463084D01*
X187279073Y-60301834D01*
X187058626Y-60092556D01*
X186795961Y-59841060D01*
X186497037Y-59553153D01*
X186167812Y-59234645D01*
X185814244Y-58891344D01*
X185442291Y-58529058D01*
X185057912Y-58153596D01*
X184667065Y-57770765D01*
X184275709Y-57386375D01*
X183889800Y-57006234D01*
X183515298Y-56636150D01*
X183158161Y-56281932D01*
X182824346Y-55949388D01*
X182639773Y-55764728D01*
X182371118Y-55506846D01*
X182086876Y-55253957D01*
X181807760Y-55023562D01*
X181554479Y-54833160D01*
X181464916Y-54772036D01*
X181362652Y-54702365D01*
X181297473Y-54653277D01*
X181285000Y-54640094D01*
X181320773Y-54648823D01*
X181415754Y-54684149D01*
X181551429Y-54739077D01*
X181591916Y-54756056D01*
X181794012Y-54841398D01*
X182016111Y-54935175D01*
X182189726Y-55008472D01*
X182350048Y-55072319D01*
X182495151Y-55123507D01*
X182594620Y-55151337D01*
X182597333Y-55151833D01*
X182705683Y-55182487D01*
X182880013Y-55246428D01*
X183110275Y-55339681D01*
X183386423Y-55458270D01*
X183507500Y-55511918D01*
X183637685Y-55568754D01*
X183806362Y-55640672D01*
X183952000Y-55701682D01*
X184273329Y-55838575D01*
X184640787Y-56001239D01*
X185038915Y-56182338D01*
X185452255Y-56374537D01*
X185865348Y-56570502D01*
X186262736Y-56762897D01*
X186628960Y-56944388D01*
X186948563Y-57107639D01*
X187206085Y-57245315D01*
X187211666Y-57248406D01*
X187815348Y-57593955D01*
X188406830Y-57953505D01*
X188970444Y-58316871D01*
X189490524Y-58673864D01*
X189951404Y-59014298D01*
X190069166Y-59106423D01*
X190405290Y-59383014D01*
X190778952Y-59707452D01*
X191172566Y-60063324D01*
X191568542Y-60434214D01*
X191949293Y-60803709D01*
X192297231Y-61155395D01*
X192537370Y-61409878D01*
X192665636Y-61544528D01*
X192745301Y-61615603D01*
X192780133Y-61626058D01*
X192780208Y-61600378D01*
X192764321Y-61527456D01*
X192734619Y-61387486D01*
X192694439Y-61196332D01*
X192647117Y-60969856D01*
X192608076Y-60782166D01*
X192551267Y-60511813D01*
X192493162Y-60242693D01*
X192430592Y-59960880D01*
X192360387Y-59652449D01*
X192279377Y-59303473D01*
X192184394Y-58900026D01*
X192073337Y-58432666D01*
X191916793Y-57765552D01*
X191774663Y-57138534D01*
X191648440Y-56558780D01*
X191539618Y-56033454D01*
X191449690Y-55569724D01*
X191380151Y-55174754D01*
X191341278Y-54920837D01*
X191311249Y-54667095D01*
X191290481Y-54411998D01*
X191279364Y-54172028D01*
X191278287Y-53963666D01*
X191287638Y-53803395D01*
X191307808Y-53707698D01*
X191312433Y-53698891D01*
X191344148Y-53700380D01*
X191411147Y-53755535D01*
X191517012Y-53868155D01*
X191665322Y-54042038D01*
X191851167Y-54270391D01*
X192009640Y-54467626D01*
X192150013Y-54641687D01*
X192263678Y-54781956D01*
X192342030Y-54877813D01*
X192376463Y-54918639D01*
X192376828Y-54919000D01*
X192409064Y-54957246D01*
X192485500Y-55051149D01*
X192597604Y-55190129D01*
X192736842Y-55363603D01*
X192894681Y-55560991D01*
X192905995Y-55575166D01*
X193064767Y-55773801D01*
X193205480Y-55949251D01*
X193319611Y-56090938D01*
X193398637Y-56188281D01*
X193434032Y-56230701D01*
X193434648Y-56231333D01*
X193466780Y-56269532D01*
X193543228Y-56363300D01*
X193655448Y-56502069D01*
X193794895Y-56675270D01*
X193953025Y-56872336D01*
X193964182Y-56886263D01*
X194127532Y-57090019D01*
X194276774Y-57275851D01*
X194402235Y-57431741D01*
X194494246Y-57545675D01*
X194543135Y-57605635D01*
X194543380Y-57605929D01*
X194594421Y-57668285D01*
X194687242Y-57782684D01*
X194810565Y-57935190D01*
X194953111Y-58111865D01*
X195023980Y-58199833D01*
X195183467Y-58397851D01*
X195379256Y-58640864D01*
X195594496Y-58907964D01*
X195812338Y-59178241D01*
X196010766Y-59424378D01*
X196220777Y-59684853D01*
X196450056Y-59969234D01*
X196680078Y-60254543D01*
X196892316Y-60517801D01*
X197054166Y-60718564D01*
X197250302Y-60961748D01*
X197469688Y-61233575D01*
X197689486Y-61505755D01*
X197886856Y-61750003D01*
X197945356Y-61822352D01*
X198103800Y-62018580D01*
X198299577Y-62261537D01*
X198517108Y-62531858D01*
X198740812Y-62810180D01*
X198955106Y-63077137D01*
X198998837Y-63131666D01*
X199186391Y-63365278D01*
X199365705Y-63588072D01*
X199526857Y-63787765D01*
X199659924Y-63952069D01*
X199754985Y-64068700D01*
X199785191Y-64105333D01*
X199870498Y-64209064D01*
X199993828Y-64360497D01*
X200140267Y-64541255D01*
X200294902Y-64732963D01*
X200334877Y-64782666D01*
X200488248Y-64973307D01*
X200678438Y-65209439D01*
X200889041Y-65470709D01*
X201103652Y-65736764D01*
X201303167Y-65983912D01*
X201476206Y-66198328D01*
X201690214Y-66463774D01*
X201933133Y-66765278D01*
X202192903Y-67087867D01*
X202457466Y-67416570D01*
X202714762Y-67736412D01*
X202815257Y-67861389D01*
X203750348Y-69024453D01*
X203907740Y-69729309D01*
X203972120Y-70015945D01*
X204041977Y-70324172D01*
X204110280Y-70623139D01*
X204169998Y-70881996D01*
X204188956Y-70963333D01*
X204234520Y-71159173D01*
X204296343Y-71426584D01*
X204371912Y-71754579D01*
X204458713Y-72132168D01*
X204554230Y-72548364D01*
X204655949Y-72992180D01*
X204761355Y-73452628D01*
X204867935Y-73918719D01*
X204973174Y-74379465D01*
X205074556Y-74823879D01*
X205169569Y-75240973D01*
X205255697Y-75619759D01*
X205330425Y-75949249D01*
X205370842Y-76128000D01*
X205439953Y-76433462D01*
X205509933Y-76741550D01*
X205576242Y-77032363D01*
X205634338Y-77285999D01*
X205679682Y-77482555D01*
X205689556Y-77525000D01*
X205752772Y-77797094D01*
X205831200Y-78136418D01*
X205921327Y-78527631D01*
X206019638Y-78955393D01*
X206122620Y-79404362D01*
X206226760Y-79859198D01*
X206328544Y-80304561D01*
X206424458Y-80725110D01*
X206510988Y-81105505D01*
X206584621Y-81430405D01*
X206620400Y-81589000D01*
X206683182Y-81867307D01*
X206743741Y-82134587D01*
X206798149Y-82373590D01*
X206842475Y-82567061D01*
X206872793Y-82697750D01*
X206875880Y-82710833D01*
X206904419Y-82832661D01*
X206947689Y-83019060D01*
X207001538Y-83252064D01*
X207061813Y-83513709D01*
X207124364Y-83786032D01*
X207125351Y-83790333D01*
X207187880Y-84062942D01*
X207264321Y-84396114D01*
X207349635Y-84767891D01*
X207438782Y-85156318D01*
X207526725Y-85539437D01*
X207592496Y-85825921D01*
X207663266Y-86136437D01*
X207727389Y-86422179D01*
X207782481Y-86672168D01*
X207826157Y-86875424D01*
X207856031Y-87020966D01*
X207869719Y-87097815D01*
X207870333Y-87105086D01*
X207867937Y-87125493D01*
X207855646Y-87133792D01*
X207825807Y-87125057D01*
X207770767Y-87094360D01*
X207682873Y-87036774D01*
X207554470Y-86947370D01*
X207377907Y-86821222D01*
X207145529Y-86653403D01*
X206960166Y-86519087D01*
X206787895Y-86394595D01*
X206624982Y-86277568D01*
X206493273Y-86183663D01*
X206431000Y-86139833D01*
X206333182Y-86070772D01*
X206189541Y-85968092D01*
X206022704Y-85848005D01*
X205916012Y-85770813D01*
X205768595Y-85664105D01*
X205569289Y-85520099D01*
X205334929Y-85350945D01*
X205082352Y-85168794D01*
X204828392Y-84985796D01*
X204773012Y-84945913D01*
X204501331Y-84750221D01*
X204184377Y-84521823D01*
X203845523Y-84277571D01*
X203508144Y-84034313D01*
X203195616Y-83808900D01*
X203107833Y-83745568D01*
X202833842Y-83547931D01*
X202551942Y-83344678D01*
X202278969Y-83147941D01*
X202031759Y-82969855D01*
X201827147Y-82822550D01*
X201739248Y-82759321D01*
X201512983Y-82596527D01*
X201250494Y-82407497D01*
X200984188Y-82215579D01*
X200746472Y-82044119D01*
X200744414Y-82042634D01*
X200510057Y-81873579D01*
X200310491Y-81729868D01*
X200124277Y-81596120D01*
X199929973Y-81456954D01*
X199706136Y-81296987D01*
X199479695Y-81135351D01*
X199323318Y-81023240D01*
X199127519Y-80882111D01*
X198921259Y-80732867D01*
X198788550Y-80636500D01*
X198615656Y-80510948D01*
X198456473Y-80395756D01*
X198330022Y-80304664D01*
X198261135Y-80255500D01*
X198185937Y-80201829D01*
X198057120Y-80109213D01*
X197889611Y-79988411D01*
X197698334Y-79850180D01*
X197585709Y-79768666D01*
X197354028Y-79601176D01*
X197105360Y-79421882D01*
X196865832Y-79249594D01*
X196661570Y-79103120D01*
X196615476Y-79070166D01*
X196444696Y-78947940D01*
X196215889Y-78783817D01*
X195939687Y-78585443D01*
X195626719Y-78360465D01*
X195287616Y-78116531D01*
X194933008Y-77861288D01*
X194573526Y-77602383D01*
X194219800Y-77347463D01*
X193882460Y-77104176D01*
X193858000Y-77086527D01*
X193612342Y-76909303D01*
X193332159Y-76707221D01*
X193051580Y-76504892D01*
X192804731Y-76326930D01*
X192799666Y-76323279D01*
X192588003Y-76170399D01*
X192374628Y-76015743D01*
X192180979Y-75874883D01*
X192028491Y-75763391D01*
X191995333Y-75738998D01*
X191861348Y-75644110D01*
X191750700Y-75572853D01*
X191682798Y-75537524D01*
X191674492Y-75535740D01*
X191625805Y-75553824D01*
X191511860Y-75605008D01*
X191343040Y-75684351D01*
X191129726Y-75786911D01*
X190882302Y-75907747D01*
X190616159Y-76039424D01*
X190010454Y-76330959D01*
X189454159Y-76576335D01*
X188930097Y-76781692D01*
X188421093Y-76953167D01*
X187909973Y-77096901D01*
X187379561Y-77219031D01*
X187232833Y-77248701D01*
X187021591Y-77287494D01*
X186816165Y-77320332D01*
X186631470Y-77345443D01*
X186482423Y-77361051D01*
X186383942Y-77365383D01*
X186350942Y-77356664D01*
X186353394Y-77353305D01*
X186405058Y-77330151D01*
X186520516Y-77289852D01*
X186682088Y-77238296D01*
X186851833Y-77187281D01*
X187328780Y-77033571D01*
X187818676Y-76849721D01*
X188301932Y-76644508D01*
X188758958Y-76426710D01*
X189170164Y-76205105D01*
X189494478Y-76003164D01*
X190071728Y-75567973D01*
X190605764Y-75085158D01*
X190930695Y-74766192D01*
X190924968Y-74103013D01*
X190925186Y-73846330D01*
X190929688Y-73593269D01*
X190937763Y-73367879D01*
X190948695Y-73194216D01*
X190953305Y-73148030D01*
X190987368Y-72856227D01*
X190803434Y-72886015D01*
X190502757Y-72932475D01*
X190156506Y-72982260D01*
X189781163Y-73033325D01*
X189393210Y-73083625D01*
X189009130Y-73131112D01*
X188645407Y-73173743D01*
X188318523Y-73209470D01*
X188044960Y-73236248D01*
X187867833Y-73250369D01*
X187361586Y-73268136D01*
X186803849Y-73260436D01*
X186223412Y-73228693D01*
X185649067Y-73174333D01*
X185246534Y-73120632D01*
X185041435Y-73088274D01*
X184868482Y-73058855D01*
X184743896Y-73035291D01*
X184683903Y-73020499D01*
X184681195Y-73018973D01*
X184716154Y-73013902D01*
X184824221Y-73009700D01*
X184993839Y-73006543D01*
X185213451Y-73004609D01*
X185471501Y-73004074D01*
X185630327Y-73004459D01*
X186275081Y-72996599D01*
X186853016Y-72965694D01*
X187379524Y-72908933D01*
X187869998Y-72823510D01*
X188339831Y-72706616D01*
X188804416Y-72555442D01*
X189279145Y-72367179D01*
X189391833Y-72318139D01*
X189670877Y-72188410D01*
X189960799Y-72042170D01*
X190251086Y-71885846D01*
X190531227Y-71725865D01*
X190790708Y-71568654D01*
X191019018Y-71420640D01*
X191205644Y-71288249D01*
X191340075Y-71177908D01*
X191411798Y-71096045D01*
X191419365Y-71078557D01*
X191444003Y-70939138D01*
X195830658Y-70939138D01*
X195833897Y-70970585D01*
X195847666Y-70976489D01*
X196268877Y-71127251D01*
X196658820Y-71306798D01*
X197031375Y-71524223D01*
X197400421Y-71788621D01*
X197779839Y-72109085D01*
X198183509Y-72494709D01*
X198218333Y-72529722D01*
X198493260Y-72802591D01*
X198729022Y-73024811D01*
X198941942Y-73209683D01*
X199148341Y-73370509D01*
X199364543Y-73520589D01*
X199606871Y-73673225D01*
X199663645Y-73707471D01*
X199802675Y-73787343D01*
X199979362Y-73883756D01*
X200178785Y-73989158D01*
X200386023Y-74095993D01*
X200586155Y-74196706D01*
X200764258Y-74283745D01*
X200905413Y-74349553D01*
X200994698Y-74386576D01*
X201015591Y-74391944D01*
X201015484Y-74352594D01*
X201001033Y-74242557D01*
X200974232Y-74074220D01*
X200937078Y-73859970D01*
X200891565Y-73612196D01*
X200880977Y-73556250D01*
X200794393Y-73118088D01*
X200713713Y-72749926D01*
X200634863Y-72437688D01*
X200553763Y-72167297D01*
X200466338Y-71924676D01*
X200368511Y-71695749D01*
X200301712Y-71556264D01*
X200206934Y-71374778D01*
X200114013Y-71223155D01*
X200006859Y-71079957D01*
X199869382Y-70923746D01*
X199685492Y-70733084D01*
X199678833Y-70726347D01*
X199431055Y-70482705D01*
X199211133Y-70284861D01*
X198994905Y-70114216D01*
X198758210Y-69952169D01*
X198476886Y-69780121D01*
X198365503Y-69715307D01*
X197925966Y-69458865D01*
X197543920Y-69229701D01*
X197226376Y-69032060D01*
X197075333Y-68934084D01*
X196913367Y-68826770D01*
X196810892Y-68762349D01*
X196755757Y-68738594D01*
X196735810Y-68753279D01*
X196738900Y-68804176D01*
X196750616Y-68874575D01*
X196776063Y-68990315D01*
X196821330Y-69157355D01*
X196878437Y-69347021D01*
X196905230Y-69430166D01*
X196960331Y-69601655D01*
X197003497Y-69744154D01*
X197028817Y-69837713D01*
X197033000Y-69861440D01*
X197017922Y-69892028D01*
X196966211Y-69900209D01*
X196868148Y-69884118D01*
X196714016Y-69841887D01*
X196494095Y-69771652D01*
X196398000Y-69739507D01*
X196210237Y-69676921D01*
X196054775Y-69626480D01*
X195947328Y-69593187D01*
X195903611Y-69582040D01*
X195903399Y-69582134D01*
X195933134Y-69605597D01*
X196019148Y-69662320D01*
X196145267Y-69741759D01*
X196199733Y-69775334D01*
X196473326Y-69951622D01*
X196676532Y-70104370D01*
X196817306Y-70242144D01*
X196903605Y-70373505D01*
X196943388Y-70507016D01*
X196948333Y-70580973D01*
X196933399Y-70638677D01*
X196873535Y-70663367D01*
X196789583Y-70667625D01*
X196649717Y-70678375D01*
X196486454Y-70706457D01*
X196314407Y-70747080D01*
X196148191Y-70795451D01*
X196002419Y-70846779D01*
X195891703Y-70896272D01*
X195830658Y-70939138D01*
X191444003Y-70939138D01*
X191461566Y-70839757D01*
X191474537Y-70560758D01*
X191457995Y-70280930D01*
X191426498Y-70096105D01*
X191348039Y-69848750D01*
X191227195Y-69570641D01*
X191213636Y-69545166D01*
X195805333Y-69545166D01*
X195826500Y-69566333D01*
X195847666Y-69545166D01*
X195826500Y-69524000D01*
X195805333Y-69545166D01*
X191213636Y-69545166D01*
X191191102Y-69502833D01*
X195720666Y-69502833D01*
X195741833Y-69524000D01*
X195763000Y-69502833D01*
X195741833Y-69481666D01*
X195720666Y-69502833D01*
X191191102Y-69502833D01*
X191079362Y-69292913D01*
X190919936Y-69046697D01*
X190883617Y-68998275D01*
X190774982Y-68867846D01*
X190621158Y-68696187D01*
X190438303Y-68500420D01*
X190242574Y-68297665D01*
X190050130Y-68105045D01*
X189942166Y-68000703D01*
X189145730Y-67300911D01*
X188288822Y-66655973D01*
X187378560Y-66069749D01*
X186422061Y-65546100D01*
X185426442Y-65088888D01*
X184398821Y-64701973D01*
X183346314Y-64389217D01*
X183230752Y-64359863D01*
X183025102Y-64306931D01*
X182845209Y-64257728D01*
X182709331Y-64217450D01*
X182635726Y-64191289D01*
X182632560Y-64189685D01*
X182544936Y-64158641D01*
X182386296Y-64119138D01*
X182169582Y-64073642D01*
X181907737Y-64024620D01*
X181613702Y-63974537D01*
X181300420Y-63925859D01*
X181090291Y-63895823D01*
X179915716Y-63766266D01*
X178736064Y-63699166D01*
X177563942Y-63694217D01*
X176411959Y-63751114D01*
X175292720Y-63869554D01*
X174218833Y-64049231D01*
X174148690Y-64063477D01*
X172987816Y-64340867D01*
X171874615Y-64687051D01*
X170804650Y-65104094D01*
X169773482Y-65594061D01*
X168776671Y-66159017D01*
X167809781Y-66801027D01*
X167078235Y-67352865D01*
X166834710Y-67557086D01*
X166552334Y-67811457D01*
X166246220Y-68100889D01*
X165931482Y-68410291D01*
X165623232Y-68724572D01*
X165336584Y-69028643D01*
X165086651Y-69307413D01*
X164913405Y-69514403D01*
X164229986Y-70429270D01*
X163624247Y-71368048D01*
X163094776Y-72334403D01*
X162640166Y-73331997D01*
X162259004Y-74364497D01*
X161949882Y-75435564D01*
X161711389Y-76548864D01*
X161542116Y-77708061D01*
X161470561Y-78461200D01*
X161453357Y-78763333D01*
X161442191Y-79126910D01*
X161436786Y-79535566D01*
X161436865Y-79972938D01*
X161442153Y-80422660D01*
X161452372Y-80868368D01*
X161467247Y-81293697D01*
X161486501Y-81682283D01*
X161509857Y-82017762D01*
X161534842Y-82266333D01*
X161680752Y-83242369D01*
X161871447Y-84160869D01*
X162111299Y-85038693D01*
X162404680Y-85892702D01*
X162604005Y-86390692D01*
X163000622Y-87260447D01*
X163438267Y-88078409D01*
X163923526Y-88853231D01*
X164462987Y-89593566D01*
X165063238Y-90308069D01*
X165730865Y-91005392D01*
X166472456Y-91694189D01*
X166955166Y-92106570D01*
X167439797Y-92502348D01*
X167924465Y-92884507D01*
X168415122Y-93256820D01*
X168917716Y-93623065D01*
X169438197Y-93987017D01*
X169982515Y-94352450D01*
X170556618Y-94723141D01*
X171166457Y-95102865D01*
X171817981Y-95495396D01*
X172517140Y-95904512D01*
X173269882Y-96333986D01*
X174082158Y-96787595D01*
X174959917Y-97269113D01*
X175845166Y-97747944D01*
X176191680Y-97933680D01*
X176573808Y-98137425D01*
X176985449Y-98355998D01*
X177420500Y-98586218D01*
X177872860Y-98824904D01*
X178336428Y-99068873D01*
X178805102Y-99314945D01*
X179272779Y-99559939D01*
X179733359Y-99800672D01*
X180180740Y-100033964D01*
X180608819Y-100256632D01*
X181011496Y-100465497D01*
X181382669Y-100657376D01*
X181716236Y-100829087D01*
X182006095Y-100977450D01*
X182246145Y-101099284D01*
X182430284Y-101191406D01*
X182552411Y-101250635D01*
X182606423Y-101273790D01*
X182607873Y-101274000D01*
X182661439Y-101293762D01*
X182778637Y-101349452D01*
X182949202Y-101435677D01*
X183162869Y-101547044D01*
X183409371Y-101678158D01*
X183678444Y-101823625D01*
X183959822Y-101978054D01*
X184163666Y-102091425D01*
X184372817Y-102208303D01*
X184572899Y-102319880D01*
X184743778Y-102414946D01*
X184865325Y-102482289D01*
X184883333Y-102492209D01*
X185366085Y-102763189D01*
X185899986Y-103072682D01*
X186470660Y-103411747D01*
X187063734Y-103771440D01*
X187664832Y-104142821D01*
X188259579Y-104516947D01*
X188833599Y-104884876D01*
X189372518Y-105237666D01*
X189861960Y-105566374D01*
X190190763Y-105793715D01*
X190397026Y-105938558D01*
X190741096Y-105802292D01*
X190986319Y-105708750D01*
X191282256Y-105601554D01*
X191612141Y-105486262D01*
X191959212Y-105368430D01*
X192306705Y-105253616D01*
X192637858Y-105147377D01*
X192935905Y-105055269D01*
X193184085Y-104982850D01*
X193329043Y-104944396D01*
X193975652Y-104801293D01*
X194608977Y-104695811D01*
X195253410Y-104625161D01*
X195933344Y-104586559D01*
X196546166Y-104576860D01*
X197643212Y-104616264D01*
X198712225Y-104735007D01*
X199756361Y-104933719D01*
X200778779Y-105213028D01*
X201782635Y-105573563D01*
X201995383Y-105661342D01*
X202204712Y-105752566D01*
X202345917Y-105820125D01*
X202417099Y-105862253D01*
X202416360Y-105877183D01*
X202341803Y-105863147D01*
X202191528Y-105818378D01*
X202149299Y-105804619D01*
X201689620Y-105691293D01*
X201200062Y-105645703D01*
X200676319Y-105668150D01*
X200114080Y-105758935D01*
X199509036Y-105918359D01*
X199234333Y-106008192D01*
X199082656Y-106062769D01*
X198871229Y-106142045D01*
X198618739Y-106238848D01*
X198343873Y-106346004D01*
X198065319Y-106456339D01*
X198027833Y-106471334D01*
X197646435Y-106622288D01*
X197304088Y-106752660D01*
X196989753Y-106864877D01*
X196692390Y-106961368D01*
X196400957Y-107044562D01*
X196104416Y-107116887D01*
X195791724Y-107180772D01*
X195451844Y-107238646D01*
X195073733Y-107292936D01*
X194646352Y-107346073D01*
X194158661Y-107400483D01*
X193599619Y-107458596D01*
X193488739Y-107469821D01*
X192590311Y-107560500D01*
X192891415Y-107793333D01*
X193042333Y-107911138D01*
X193207785Y-108042067D01*
X193372848Y-108174092D01*
X193522601Y-108295187D01*
X193642119Y-108393323D01*
X193716482Y-108456474D01*
X193731000Y-108470024D01*
X193770198Y-108504295D01*
X193860918Y-108580935D01*
X193989407Y-108688390D01*
X194133166Y-108807859D01*
X194538291Y-109147336D01*
X194888832Y-109450110D01*
X195198668Y-109729292D01*
X195481678Y-109997991D01*
X195751741Y-110269316D01*
X196022737Y-110556377D01*
X196253475Y-110810570D01*
X196510082Y-111097306D01*
X196824457Y-111030729D01*
X197469030Y-110911086D01*
X198129293Y-110820063D01*
X198784717Y-110759331D01*
X199414772Y-110730560D01*
X199998929Y-110735422D01*
X200264329Y-110750752D01*
X201047719Y-110834184D01*
X201835902Y-110962568D01*
X202615007Y-111132008D01*
X203371167Y-111338608D01*
X204090511Y-111578470D01*
X204759171Y-111847698D01*
X205363277Y-112142396D01*
X205512459Y-112225220D01*
X205820254Y-112408874D01*
X206128731Y-112607132D01*
X206424391Y-112810211D01*
X206693733Y-113008330D01*
X206923257Y-113191708D01*
X207099462Y-113350564D01*
X207171833Y-113427517D01*
X207256500Y-113526618D01*
X207150666Y-113455231D01*
X207056450Y-113391584D01*
X206926313Y-113303557D01*
X206833166Y-113240500D01*
X206593251Y-113102266D01*
X206308378Y-112975036D01*
X206018095Y-112875048D01*
X205833741Y-112830129D01*
X205599054Y-112801552D01*
X205310137Y-112790622D01*
X204995463Y-112796839D01*
X204683502Y-112819706D01*
X204424682Y-112854790D01*
X204269414Y-112885007D01*
X204050638Y-112931818D01*
X203786920Y-112991031D01*
X203496827Y-113058454D01*
X203198925Y-113129895D01*
X203112348Y-113151104D01*
X202680672Y-113254395D01*
X202313195Y-113334192D01*
X201993260Y-113392109D01*
X201704207Y-113429760D01*
X201429378Y-113448759D01*
X201152114Y-113450720D01*
X200855758Y-113437257D01*
X200523651Y-113409985D01*
X200481822Y-113405979D01*
X200194014Y-113376337D01*
X199866275Y-113339669D01*
X199516486Y-113298240D01*
X199162526Y-113254317D01*
X198822273Y-113210164D01*
X198513606Y-113168047D01*
X198254405Y-113130232D01*
X198071240Y-113100527D01*
X197902981Y-113070835D01*
X197984492Y-113194334D01*
X198089935Y-113366708D01*
X198220325Y-113599593D01*
X198366844Y-113875859D01*
X198520672Y-114178375D01*
X198672990Y-114490011D01*
X198814982Y-114793635D01*
X198865279Y-114905333D01*
X198953633Y-115114324D01*
X199054906Y-115369874D01*
X199156069Y-115637950D01*
X199244094Y-115884517D01*
X199272800Y-115969783D01*
X199365263Y-116251067D01*
X199818381Y-116407396D01*
X200731899Y-116745435D01*
X201572799Y-117105579D01*
X202351533Y-117493560D01*
X203078552Y-117915110D01*
X203764306Y-118375965D01*
X204419248Y-118881856D01*
X204589500Y-119024646D01*
X205362566Y-119717565D01*
X206052314Y-120407367D01*
X206659947Y-121095861D01*
X207186669Y-121784856D01*
X207633686Y-122476163D01*
X208002200Y-123171592D01*
X208293417Y-123872952D01*
X208508540Y-124582053D01*
X208612035Y-125069933D01*
X208641256Y-125252364D01*
X208660186Y-125402761D01*
X208668937Y-125512295D01*
X208667623Y-125572137D01*
X208656360Y-125573458D01*
X208635261Y-125507429D01*
X208607985Y-125383264D01*
X208504971Y-124991641D01*
X208356062Y-124650429D01*
X208148494Y-124335503D01*
X207909959Y-124063810D01*
X207731475Y-123894532D01*
X207533253Y-123736541D01*
X207307344Y-123585965D01*
X207045796Y-123438936D01*
X206740660Y-123291583D01*
X206383986Y-123140037D01*
X205967822Y-122980429D01*
X205484219Y-122808889D01*
X204991666Y-122643381D01*
X204509557Y-122482353D01*
X204098908Y-122339948D01*
X203749593Y-122212158D01*
X203451489Y-122094971D01*
X203194471Y-121984377D01*
X202968412Y-121876365D01*
X202763189Y-121766926D01*
X202726833Y-121746280D01*
X202500059Y-121604016D01*
X202215091Y-121404120D01*
X201874135Y-121148289D01*
X201479401Y-120838221D01*
X201033094Y-120475612D01*
X200555446Y-120077354D01*
X200355385Y-119911012D01*
X200211730Y-119797452D01*
X200118289Y-119732444D01*
X200068873Y-119711760D01*
X200057291Y-119731171D01*
X200058589Y-119737944D01*
X200083126Y-119873791D01*
X200110085Y-120077843D01*
X200137993Y-120333726D01*
X200165374Y-120625068D01*
X200190755Y-120935494D01*
X200212661Y-121248634D01*
X200229618Y-121548112D01*
X200236973Y-121719018D01*
X200264090Y-122457871D01*
X200519005Y-122692685D01*
X200671937Y-122837547D01*
X200855458Y-123017572D01*
X201055475Y-123218288D01*
X201257895Y-123425223D01*
X201448627Y-123623908D01*
X201613578Y-123799870D01*
X201738656Y-123938639D01*
X201781349Y-123988956D01*
X201896838Y-124130259D01*
X202023392Y-124285383D01*
X202070666Y-124343415D01*
X202189671Y-124496873D01*
X202342648Y-124704993D01*
X202517990Y-124951084D01*
X202704090Y-125218458D01*
X202889340Y-125490424D01*
X203062134Y-125750293D01*
X203210863Y-125981375D01*
X203220464Y-125996666D01*
X203617795Y-126668827D01*
X203988905Y-127371921D01*
X204325242Y-128087164D01*
X204618260Y-128795774D01*
X204859407Y-129478967D01*
X204964244Y-129827833D01*
X205076010Y-130266633D01*
X205174192Y-130730837D01*
X205255620Y-131199807D01*
X205317123Y-131652905D01*
X205355531Y-132069494D01*
X205367675Y-132428936D01*
X205367445Y-132452500D01*
X205362960Y-132791166D01*
X205307599Y-132452500D01*
X205235379Y-132084462D01*
X205142893Y-131768626D01*
X205018251Y-131475201D01*
X204849564Y-131174394D01*
X204714549Y-130966539D01*
X204559419Y-130753143D01*
X204378783Y-130536663D01*
X204166274Y-130311326D01*
X203915527Y-130071362D01*
X203620177Y-129811000D01*
X203273858Y-129524469D01*
X202870206Y-129205998D01*
X202402854Y-128849817D01*
X202269640Y-128749960D01*
X201857734Y-128436134D01*
X201475836Y-128133346D01*
X201131144Y-127847817D01*
X200830854Y-127585771D01*
X200582161Y-127353427D01*
X200392262Y-127157008D01*
X200300867Y-127047769D01*
X200188962Y-126898755D01*
X200072176Y-126739580D01*
X200032622Y-126684583D01*
X199954756Y-126583002D01*
X199894306Y-126517765D01*
X199873411Y-126504666D01*
X199850042Y-126542784D01*
X199815456Y-126644011D01*
X199776131Y-126788658D01*
X199765506Y-126832750D01*
X199699267Y-127092438D01*
X199610260Y-127408646D01*
X199505496Y-127758639D01*
X199391982Y-128119677D01*
X199276730Y-128469025D01*
X199166748Y-128783945D01*
X199148867Y-128833000D01*
X198710690Y-129923707D01*
X198208333Y-130987931D01*
X197647719Y-132015547D01*
X197034776Y-132996432D01*
X196375428Y-133920461D01*
X195675602Y-134777510D01*
X195657239Y-134798445D01*
X194973605Y-135542193D01*
X194221353Y-136297922D01*
X193413342Y-137054590D01*
X192562428Y-137801149D01*
X191681471Y-138526555D01*
X190783326Y-139219761D01*
X189880852Y-139869724D01*
X189286000Y-140271679D01*
X188828292Y-140569895D01*
X188421705Y-140828418D01*
X188048913Y-141057383D01*
X187692585Y-141266928D01*
X187335393Y-141467190D01*
X186960010Y-141668304D01*
X186549107Y-141880408D01*
X186449666Y-141930844D01*
X185195912Y-142523745D01*
X183917443Y-143045785D01*
X182608650Y-143498567D01*
X181263921Y-143883694D01*
X179877646Y-144202771D01*
X178444216Y-144457400D01*
X176958019Y-144649183D01*
X176924666Y-144652710D01*
X176628584Y-144677470D01*
X176263460Y-144697674D01*
X175843362Y-144713325D01*
X175382354Y-144724424D01*
X174894503Y-144730974D01*
X174393875Y-144732977D01*
X173894537Y-144730437D01*
X173410553Y-144723355D01*
X172955990Y-144711733D01*
X172544915Y-144695574D01*
X172191392Y-144674881D01*
X171929333Y-144651868D01*
X170704417Y-144503773D01*
X169553289Y-144334114D01*
X168467238Y-144140371D01*
X167437554Y-143920021D01*
X166455528Y-143670542D01*
X165512450Y-143389414D01*
X164599609Y-143074115D01*
X163708295Y-142722123D01*
X162829798Y-142330917D01*
X161955408Y-141897975D01*
X161409500Y-141606371D01*
X160826619Y-141273257D01*
X160225134Y-140904960D01*
X159630076Y-140517733D01*
X159066478Y-140127831D01*
X158594333Y-139778472D01*
X158030205Y-139323484D01*
X157437620Y-138805752D01*
X156828373Y-138237018D01*
X156214261Y-137629023D01*
X155607081Y-136993508D01*
X155018629Y-136342215D01*
X154460702Y-135686884D01*
X154360029Y-135564000D01*
X154252688Y-135433455D01*
X154156263Y-135318459D01*
X154093919Y-135246500D01*
X154009631Y-135146632D01*
X153894159Y-135000427D01*
X153755645Y-134819129D01*
X153602230Y-134613981D01*
X153442056Y-134396229D01*
X153283266Y-134177117D01*
X153134000Y-133967890D01*
X153002401Y-133779792D01*
X152896611Y-133624067D01*
X152824770Y-133511961D01*
X152795021Y-133454718D01*
X152794666Y-133452104D01*
X152773042Y-133406077D01*
X152712806Y-133300316D01*
X152620911Y-133146446D01*
X152504312Y-132956094D01*
X152369961Y-132740883D01*
X152356291Y-132719194D01*
X151927757Y-132030084D01*
X151463880Y-131265511D01*
X150965339Y-130426633D01*
X150432808Y-129514609D01*
X149866964Y-128530601D01*
X149268484Y-127475765D01*
X148638045Y-126351262D01*
X148581981Y-126250666D01*
X147912308Y-125067934D01*
X147262732Y-123961202D01*
X146629462Y-122925244D01*
X146008708Y-121954833D01*
X145396678Y-121044742D01*
X144789583Y-120189745D01*
X144183631Y-119384614D01*
X143575033Y-118624123D01*
X142959996Y-117903046D01*
X142334732Y-117216155D01*
X141695448Y-116558224D01*
X141210043Y-116085900D01*
X140424073Y-115382220D01*
X139624865Y-114754336D01*
X138800487Y-114193388D01*
X138111527Y-113785024D01*
X137201487Y-113320241D01*
X136226572Y-112900849D01*
X135194577Y-112528788D01*
X134113293Y-112206000D01*
X132990515Y-111934426D01*
X131834036Y-111716007D01*
X130651649Y-111552683D01*
X129451147Y-111446397D01*
X128558833Y-111405692D01*
X127573529Y-111403741D01*
X126584797Y-111450098D01*
X125604132Y-111542832D01*
X124643030Y-111680015D01*
X123712985Y-111859715D01*
X122825493Y-112080002D01*
X121992049Y-112338947D01*
X121224147Y-112634619D01*
X121214000Y-112638974D01*
X120470366Y-112993199D01*
X119737610Y-113409278D01*
X119025285Y-113879135D01*
X118342947Y-114394694D01*
X117700148Y-114947879D01*
X117106443Y-115530613D01*
X116571387Y-116134821D01*
X116104533Y-116752427D01*
X115814863Y-117202766D01*
X115361944Y-118044741D01*
X114972806Y-118939165D01*
X114648686Y-119881419D01*
X114390819Y-120866884D01*
X114200444Y-121890941D01*
X114078797Y-122948972D01*
X114030481Y-123866570D01*
X114023144Y-124419918D01*
X114031523Y-124913042D01*
X114057085Y-125369180D01*
X114101298Y-125811567D01*
X114165629Y-126263438D01*
X114191765Y-126420000D01*
X114382267Y-127334032D01*
X114640632Y-128255563D01*
X114968659Y-129188958D01*
X115368143Y-130138584D01*
X115840883Y-131108808D01*
X116388674Y-132103996D01*
X116839055Y-132852077D01*
X116957880Y-133037987D01*
X117072679Y-133209114D01*
X117169991Y-133345891D01*
X117233960Y-133426166D01*
X117309834Y-133518908D01*
X117413565Y-133658700D01*
X117527388Y-133821270D01*
X117574810Y-133891833D01*
X117715759Y-134097334D01*
X117899574Y-134354388D01*
X118115690Y-134648870D01*
X118353540Y-134966657D01*
X118602558Y-135293623D01*
X118852178Y-135615646D01*
X119079087Y-135902666D01*
X119835321Y-136805651D01*
X120660870Y-137712073D01*
X121542048Y-138608645D01*
X122465172Y-139482082D01*
X123416556Y-140319099D01*
X124382516Y-141106410D01*
X124660091Y-141320996D01*
X124987922Y-141565773D01*
X125362051Y-141835714D01*
X125766205Y-142119759D01*
X126184112Y-142406847D01*
X126599498Y-142685917D01*
X126996091Y-142945908D01*
X127357619Y-143175760D01*
X127656561Y-143357778D01*
X127854957Y-143474966D01*
X127836642Y-143191900D01*
X127830082Y-143072504D01*
X127821118Y-142883296D01*
X127810387Y-142639076D01*
X127798522Y-142354645D01*
X127786158Y-142044803D01*
X127775480Y-141765833D01*
X127762818Y-141432717D01*
X127749857Y-141100054D01*
X127737309Y-140785526D01*
X127725886Y-140506816D01*
X127716301Y-140281604D01*
X127710687Y-140157166D01*
X127695070Y-139813224D01*
X127677565Y-139406433D01*
X127659034Y-138958563D01*
X127640340Y-138491387D01*
X127622346Y-138026677D01*
X127605914Y-137586205D01*
X127591906Y-137191742D01*
X127584894Y-136982166D01*
X127575688Y-136726513D01*
X127565522Y-136491294D01*
X127555252Y-136293269D01*
X127545731Y-136149200D01*
X127539006Y-136082583D01*
X127533269Y-135978898D01*
X127558179Y-135952646D01*
X127611103Y-136003408D01*
X127674625Y-136104099D01*
X127718967Y-136179962D01*
X127800951Y-136317627D01*
X127914236Y-136506549D01*
X128052481Y-136736182D01*
X128209346Y-136995983D01*
X128378490Y-137275407D01*
X128431700Y-137363166D01*
X128641267Y-137708942D01*
X128874776Y-138094687D01*
X129117820Y-138496571D01*
X129355994Y-138890765D01*
X129574891Y-139253440D01*
X129711366Y-139479833D01*
X129909823Y-139809044D01*
X130137385Y-140186157D01*
X130379257Y-140586678D01*
X130620644Y-140986114D01*
X130846750Y-141359969D01*
X130977111Y-141575333D01*
X131154200Y-141867818D01*
X131327681Y-142154427D01*
X131489691Y-142422161D01*
X131632365Y-142658022D01*
X131747839Y-142849009D01*
X131828247Y-142982125D01*
X131835110Y-142993500D01*
X131898958Y-143099288D01*
X132001181Y-143268592D01*
X132136369Y-143492460D01*
X132299118Y-143761937D01*
X132484019Y-144068073D01*
X132685665Y-144401913D01*
X132898650Y-144754506D01*
X133087926Y-145067833D01*
X133326649Y-145463038D01*
X133575608Y-145875252D01*
X133826487Y-146290699D01*
X134070967Y-146695603D01*
X134300731Y-147076186D01*
X134507460Y-147418674D01*
X134682838Y-147709289D01*
X134755470Y-147829678D01*
X134919785Y-148102002D01*
X135073309Y-148356319D01*
X135209580Y-148581935D01*
X135322137Y-148768154D01*
X135404516Y-148904282D01*
X135450257Y-148979625D01*
X135452480Y-148983261D01*
X135530460Y-149110666D01*
X135410146Y-149106555D01*
X135356882Y-149100231D01*
X135223827Y-149082460D01*
X135014999Y-149053810D01*
X134734417Y-149014850D01*
X134386100Y-148966149D01*
X133974066Y-148908276D01*
X133502334Y-148841798D01*
X132974922Y-148767286D01*
X132395848Y-148685306D01*
X131769133Y-148596429D01*
X131098793Y-148501222D01*
X130388847Y-148400254D01*
X129643315Y-148294095D01*
X128866215Y-148183311D01*
X128061565Y-148068473D01*
X127233383Y-147950149D01*
X126809029Y-147889472D01*
X125972842Y-147769699D01*
X125159507Y-147652853D01*
X124372947Y-147539513D01*
X123617089Y-147430255D01*
X122895857Y-147325659D01*
X122213176Y-147226302D01*
X121572971Y-147132763D01*
X120979168Y-147045621D01*
X120435690Y-146965453D01*
X119946464Y-146892837D01*
X119515415Y-146828353D01*
X119146466Y-146772577D01*
X118843544Y-146726089D01*
X118610573Y-146689466D01*
X118451479Y-146663287D01*
X118370186Y-146648131D01*
X118360001Y-146644750D01*
X118421415Y-146622184D01*
X118522305Y-146612934D01*
X118675162Y-146601012D01*
X118901358Y-146566612D01*
X119193143Y-146511609D01*
X119542769Y-146437880D01*
X119942485Y-146347300D01*
X120384543Y-146241745D01*
X120861194Y-146123092D01*
X121364687Y-145993215D01*
X121887273Y-145853991D01*
X122421204Y-145707296D01*
X122958730Y-145555006D01*
X123288333Y-145459207D01*
X123920194Y-145272995D01*
X124490811Y-145103385D01*
X124997794Y-144951120D01*
X125438752Y-144816943D01*
X125811295Y-144701600D01*
X126113033Y-144605834D01*
X126341576Y-144530388D01*
X126494533Y-144476006D01*
X126569515Y-144443432D01*
X126577114Y-144435782D01*
X126538700Y-144399524D01*
X126435792Y-144332104D01*
X126265878Y-144232065D01*
X126026442Y-144097950D01*
X125714972Y-143928302D01*
X125532000Y-143829998D01*
X124916164Y-143486659D01*
X124257378Y-143094208D01*
X123572462Y-142663501D01*
X122878234Y-142205391D01*
X122191513Y-141730736D01*
X121529118Y-141250391D01*
X121489166Y-141220619D01*
X121284008Y-141067469D01*
X121109438Y-140936728D01*
X120956954Y-140821463D01*
X120818052Y-140714738D01*
X120684228Y-140609620D01*
X120546979Y-140499174D01*
X120397802Y-140376466D01*
X120228192Y-140234562D01*
X120029648Y-140066526D01*
X119793664Y-139865426D01*
X119511739Y-139624326D01*
X119175368Y-139336292D01*
X119113861Y-139283618D01*
X118629714Y-138867856D01*
X118204148Y-138499431D01*
X117830443Y-138171793D01*
X117501878Y-137878390D01*
X117211732Y-137612669D01*
X116953285Y-137368079D01*
X116719816Y-137138068D01*
X116504604Y-136916085D01*
X116300930Y-136695578D01*
X116102071Y-136469994D01*
X115901308Y-136232783D01*
X115691920Y-135977392D01*
X115580326Y-135838880D01*
X115369776Y-135571908D01*
X115145670Y-135279930D01*
X114915942Y-134973974D01*
X114688531Y-134665068D01*
X114471371Y-134364241D01*
X114272399Y-134082520D01*
X114099552Y-133830933D01*
X113960766Y-133620508D01*
X113863977Y-133462275D01*
X113844170Y-133426355D01*
X113785472Y-133321023D01*
X113692075Y-133159846D01*
X113573591Y-132959125D01*
X113439632Y-132735162D01*
X113319850Y-132537166D01*
X113104309Y-132170508D01*
X112888063Y-131779961D01*
X112679432Y-131382146D01*
X112486733Y-130993682D01*
X112318287Y-130631188D01*
X112182411Y-130311285D01*
X112112029Y-130124166D01*
X111931489Y-129529879D01*
X111778420Y-128864198D01*
X111654053Y-128136227D01*
X111559619Y-127355069D01*
X111496347Y-126529829D01*
X111465470Y-125669610D01*
X111462466Y-125319333D01*
X111495375Y-124036037D01*
X111595618Y-122778262D01*
X111762038Y-121550474D01*
X111993478Y-120357139D01*
X112288779Y-119202724D01*
X112646785Y-118091695D01*
X113066337Y-117028518D01*
X113546277Y-116017659D01*
X114085447Y-115063585D01*
X114146437Y-114965306D01*
X114478252Y-114455661D01*
X114816555Y-113979418D01*
X115174716Y-113520065D01*
X115566103Y-113061094D01*
X116004083Y-112585992D01*
X116408257Y-112171905D01*
X117292442Y-111332976D01*
X118198841Y-110569685D01*
X119137352Y-109875323D01*
X120117875Y-109243182D01*
X121150307Y-108666552D01*
X122244546Y-108138724D01*
X122568666Y-107996481D01*
X123593887Y-107591992D01*
X124679878Y-107231502D01*
X125813749Y-106917266D01*
X126982610Y-106651540D01*
X128173572Y-106436578D01*
X129373743Y-106274637D01*
X130570234Y-106167970D01*
X131750154Y-106118832D01*
X132900615Y-106129480D01*
X133173166Y-106141295D01*
X134613110Y-106243021D01*
X136010967Y-106400742D01*
X137364009Y-106613575D01*
X138669504Y-106880642D01*
X139924724Y-107201061D01*
X141126937Y-107573954D01*
X142273414Y-107998438D01*
X143361426Y-108473634D01*
X144388240Y-108998662D01*
X145351129Y-109572642D01*
X146247362Y-110194692D01*
X146606968Y-110473052D01*
X147023768Y-110823303D01*
X147478670Y-111236388D01*
X147963846Y-111704011D01*
X148471472Y-112217878D01*
X148993722Y-112769694D01*
X149522769Y-113351165D01*
X150050790Y-113953996D01*
X150569957Y-114569892D01*
X151072445Y-115190559D01*
X151148080Y-115286333D01*
X151575493Y-115836472D01*
X151988955Y-116383780D01*
X152393015Y-116935227D01*
X152792222Y-117497782D01*
X153191123Y-118078415D01*
X153594269Y-118684096D01*
X154006207Y-119321794D01*
X154431485Y-119998479D01*
X154874652Y-120721120D01*
X155340257Y-121496688D01*
X155832848Y-122332153D01*
X156356973Y-123234482D01*
X156521560Y-123520166D01*
X157083738Y-124494114D01*
X157609397Y-125397145D01*
X158101193Y-126233400D01*
X158561783Y-127007021D01*
X158993824Y-127722147D01*
X159399973Y-128382921D01*
X159782887Y-128993482D01*
X160145222Y-129557972D01*
X160489636Y-130080531D01*
X160818786Y-130565301D01*
X161135328Y-131016422D01*
X161441919Y-131438035D01*
X161741217Y-131834281D01*
X162035878Y-132209302D01*
X162319466Y-132556328D01*
X162503063Y-132768049D01*
X162735150Y-133022225D01*
X163003656Y-133306727D01*
X163296506Y-133609422D01*
X163601628Y-133918181D01*
X163906947Y-134220872D01*
X164200390Y-134505364D01*
X164469884Y-134759527D01*
X164703355Y-134971228D01*
X164838360Y-135087222D01*
X165093416Y-135298522D01*
X165300460Y-135467652D01*
X165476138Y-135607105D01*
X165637097Y-135729371D01*
X165799983Y-135846943D01*
X165981441Y-135972310D01*
X166198119Y-136117966D01*
X166320166Y-136199183D01*
X167270191Y-136781153D01*
X168280506Y-137305421D01*
X169348629Y-137771100D01*
X170472076Y-138177305D01*
X171648365Y-138523150D01*
X172875013Y-138807749D01*
X174149538Y-139030215D01*
X174321166Y-139054883D01*
X175746751Y-139224682D01*
X177125119Y-139327181D01*
X178460625Y-139362223D01*
X179757627Y-139329654D01*
X181020480Y-139229320D01*
X182253542Y-139061064D01*
X183461168Y-138824733D01*
X183930833Y-138712916D01*
X184419012Y-138587490D01*
X184838317Y-138470672D01*
X185203153Y-138355803D01*
X185527924Y-138236229D01*
X185827037Y-138105292D01*
X186114894Y-137956336D01*
X186405903Y-137782705D01*
X186714467Y-137577742D01*
X187054992Y-137334790D01*
X187291316Y-137160052D01*
X187797769Y-136771195D01*
X188242472Y-136405133D01*
X188640227Y-136048494D01*
X189005837Y-135687906D01*
X189354104Y-135309998D01*
X189409669Y-135246500D01*
X189828382Y-134744467D01*
X190188908Y-134265542D01*
X190505284Y-133788650D01*
X190791550Y-133292720D01*
X191045342Y-132791166D01*
X191472023Y-131825023D01*
X191823442Y-130867775D01*
X192104759Y-129901852D01*
X192321135Y-128909683D01*
X192469109Y-127944000D01*
X192488541Y-127731167D01*
X192503651Y-127450120D01*
X192514441Y-127117203D01*
X192520911Y-126748758D01*
X192523063Y-126361127D01*
X192520898Y-125970653D01*
X192514417Y-125593679D01*
X192503620Y-125246548D01*
X192488509Y-124945601D01*
X192469085Y-124707183D01*
X192468904Y-124705500D01*
X192310098Y-123560347D01*
X192085171Y-122467087D01*
X191793410Y-121423851D01*
X191434102Y-120428770D01*
X191006534Y-119479975D01*
X190509992Y-118575597D01*
X189943763Y-117713767D01*
X189649854Y-117318333D01*
X189104154Y-116657416D01*
X188477428Y-115982323D01*
X187771792Y-115294879D01*
X186989359Y-114596911D01*
X186132245Y-113890246D01*
X185202564Y-113176712D01*
X184202431Y-112458134D01*
X183363435Y-111887782D01*
X183143263Y-111740296D01*
X182943946Y-111604360D01*
X182777618Y-111488442D01*
X182656411Y-111401011D01*
X182592460Y-111350537D01*
X182589277Y-111347435D01*
X182533850Y-111305003D01*
X182417067Y-111225901D01*
X182250016Y-111117281D01*
X182043786Y-110986295D01*
X181809465Y-110840093D01*
X181657943Y-110746782D01*
X180885155Y-110281690D01*
X180062744Y-109802263D01*
X179212891Y-109320842D01*
X178357775Y-108849769D01*
X177519576Y-108401385D01*
X176720474Y-107988031D01*
X176501333Y-107877535D01*
X175146311Y-107195987D01*
X173862876Y-106545079D01*
X172651491Y-105925061D01*
X171512619Y-105336184D01*
X170446721Y-104778700D01*
X169454262Y-104252858D01*
X168535703Y-103758909D01*
X167691507Y-103297105D01*
X166922136Y-102867696D01*
X166228054Y-102470932D01*
X165609723Y-102107065D01*
X165067606Y-101776346D01*
X164602164Y-101479024D01*
X164224666Y-101222968D01*
X164066509Y-101114539D01*
X163918566Y-101021223D01*
X163765552Y-100935373D01*
X163592180Y-100849337D01*
X163383165Y-100755468D01*
X163123219Y-100646114D01*
X162848833Y-100534482D01*
X161512616Y-99991281D01*
X160253620Y-99470154D01*
X159067878Y-98969151D01*
X157951424Y-98486324D01*
X156900291Y-98019722D01*
X155910513Y-97567399D01*
X154978123Y-97127403D01*
X154099155Y-96697785D01*
X153269643Y-96276598D01*
X152485620Y-95861891D01*
X151743119Y-95451715D01*
X151038175Y-95044121D01*
X150366820Y-94637161D01*
X149725089Y-94228884D01*
X149109014Y-93817342D01*
X148933471Y-93696333D01*
X148591850Y-93454376D01*
X148246774Y-93199777D01*
X147888257Y-92924627D01*
X147506312Y-92621014D01*
X147090954Y-92281027D01*
X146632196Y-91896756D01*
X146233000Y-91557074D01*
X145407241Y-90844226D01*
X144646868Y-90174440D01*
X143947287Y-89543116D01*
X143303906Y-88945652D01*
X142712134Y-88377449D01*
X142167377Y-87833907D01*
X141665045Y-87310425D01*
X141200544Y-86802402D01*
X140769282Y-86305239D01*
X140366668Y-85814335D01*
X139988108Y-85325089D01*
X139916833Y-85229666D01*
X139276070Y-84313216D01*
X138717934Y-83399502D01*
X138240669Y-82484380D01*
X137842515Y-81563701D01*
X137521715Y-80633320D01*
X137276510Y-79689091D01*
X137105143Y-78726866D01*
X137080702Y-78541000D01*
X137059354Y-78307733D01*
X137043310Y-78004902D01*
X137032479Y-77647438D01*
X137026769Y-77250271D01*
X137026089Y-76828330D01*
X137030346Y-76396547D01*
X137039449Y-75969852D01*
X137053306Y-75563175D01*
X137071825Y-75191447D01*
X137094914Y-74869598D01*
X137103874Y-74773333D01*
X137309659Y-73081049D01*
X137588919Y-71372647D01*
X137938196Y-69662876D01*
X138354029Y-67966487D01*
X138832958Y-66298229D01*
X139371525Y-64672852D01*
X139653702Y-63902989D01*
X139750366Y-63652366D01*
X139857077Y-63383660D01*
X139968889Y-63108511D01*
X140080857Y-62838557D01*
X140188035Y-62585435D01*
X140285479Y-62360783D01*
X140368242Y-62176241D01*
X140431380Y-62043446D01*
X140469948Y-61974036D01*
X140476293Y-61967112D01*
X140533053Y-61968900D01*
X140632207Y-61998859D01*
X140657833Y-62009079D01*
X140942186Y-62094761D01*
X141262287Y-62137324D01*
X141578705Y-62132597D01*
X141687273Y-62117972D01*
X141983032Y-62047438D01*
X142247924Y-61938990D01*
X142501030Y-61781750D01*
X142761427Y-61564839D01*
X142910171Y-61420699D01*
X143133896Y-61183094D01*
X143303069Y-60970975D01*
X143432443Y-60761194D01*
X143536771Y-60530605D01*
X143609651Y-60323277D01*
X143702801Y-60033721D01*
X143870745Y-60196277D01*
X143984401Y-60319950D01*
X144083357Y-60450442D01*
X144117973Y-60507000D01*
X144168553Y-60592471D01*
X144193149Y-60605711D01*
X144199129Y-60567600D01*
X144184141Y-60450017D01*
X144140869Y-60287434D01*
X144077506Y-60100404D01*
X144002245Y-59909478D01*
X143923280Y-59735209D01*
X143848803Y-59598149D01*
X143787008Y-59518850D01*
X143778614Y-59512752D01*
X143747787Y-59455246D01*
X143735333Y-59357738D01*
X143735333Y-59229473D01*
X143867986Y-59341093D01*
X143994673Y-59434038D01*
X144141917Y-59524097D01*
X144174759Y-59541543D01*
X144292424Y-59610344D01*
X144381362Y-59677757D01*
X144400593Y-59698269D01*
X144440959Y-59741949D01*
X144452444Y-59715550D01*
X144452723Y-59702666D01*
X144422777Y-59572217D01*
X144341585Y-59409045D01*
X144224239Y-59233040D01*
X144085827Y-59064094D01*
X143941437Y-58922097D01*
X143806160Y-58826942D01*
X143778648Y-58814073D01*
X143673297Y-58737368D01*
X143599909Y-58598787D01*
X143595925Y-58587355D01*
X143535991Y-58411500D01*
X143752079Y-58404074D01*
X143924966Y-58396741D01*
X144099803Y-58387244D01*
X144151633Y-58383869D01*
X144335099Y-58371090D01*
X144221111Y-58280199D01*
X144018940Y-58168225D01*
X143763163Y-58105628D01*
X143580636Y-58094000D01*
X143456382Y-58088589D01*
X143371378Y-58061297D01*
X143293115Y-57995537D01*
X143217262Y-57908569D01*
X143062261Y-57723139D01*
X143231013Y-57696155D01*
X143385364Y-57656088D01*
X143539890Y-57593752D01*
X143556338Y-57585252D01*
X143676359Y-57531175D01*
X143779274Y-57501470D01*
X143798206Y-57499638D01*
X143842544Y-57491806D01*
X143819151Y-57465153D01*
X143756500Y-57428658D01*
X143604063Y-57379105D01*
X143408196Y-57360028D01*
X143204375Y-57371209D01*
X143028076Y-57412429D01*
X142980337Y-57433441D01*
X142839174Y-57507209D01*
X142620504Y-57333083D01*
X142492367Y-57234583D01*
X142320218Y-57107039D01*
X142129818Y-56969367D01*
X141999666Y-56877234D01*
X141629169Y-56613662D01*
X141323554Y-56386379D01*
X141075007Y-56188269D01*
X140875716Y-56012215D01*
X140717870Y-55851099D01*
X140593655Y-55697806D01*
X140495259Y-55545217D01*
X140454797Y-55469919D01*
X140349546Y-55206849D01*
X140271024Y-54900132D01*
X140228157Y-54588895D01*
X140222867Y-54453333D01*
X140223532Y-54302286D01*
X140230442Y-54179253D01*
X140250385Y-54072870D01*
X140290149Y-53971772D01*
X140356523Y-53864593D01*
X140456294Y-53739970D01*
X140596250Y-53586537D01*
X140783180Y-53392929D01*
X140969757Y-53202851D01*
X141665725Y-52494766D01*
X141883047Y-52520504D01*
X142095141Y-52567394D01*
X142300820Y-52651499D01*
X142490354Y-52763326D01*
X142654016Y-52893375D01*
X142782075Y-53032152D01*
X142864804Y-53170160D01*
X142892473Y-53297901D01*
X142855353Y-53405881D01*
X142823624Y-53438613D01*
X142748036Y-53482975D01*
X142624911Y-53538087D01*
X142537874Y-53571393D01*
X142317166Y-53650193D01*
X142581750Y-53632444D01*
X142846333Y-53614695D01*
X142846333Y-53731119D01*
X142818919Y-53846783D01*
X142729355Y-53948951D01*
X142571072Y-54047974D01*
X142495856Y-54092088D01*
X142493760Y-54111349D01*
X142528833Y-54114247D01*
X142620299Y-54092840D01*
X142734565Y-54040150D01*
X142752106Y-54029841D01*
X142851867Y-53974916D01*
X142922484Y-53946441D01*
X142930768Y-53945333D01*
X142971608Y-53973328D01*
X143064332Y-54051849D01*
X143199835Y-54172699D01*
X143369008Y-54327683D01*
X143562744Y-54508603D01*
X143681162Y-54620655D01*
X143882729Y-54810520D01*
X144063053Y-54976998D01*
X144213501Y-55112397D01*
X144325441Y-55209026D01*
X144390239Y-55259191D01*
X144402899Y-55263791D01*
X144399019Y-55214927D01*
X144382150Y-55094237D01*
X144354119Y-54913253D01*
X144316756Y-54683508D01*
X144271889Y-54416536D01*
X144230141Y-54174250D01*
X144045985Y-53116895D01*
X143513774Y-52250531D01*
X142981563Y-51384166D01*
X143130904Y-51257166D01*
X143399698Y-51042549D01*
X143726994Y-50803685D01*
X144094671Y-50552348D01*
X144484607Y-50300308D01*
X144878680Y-50059338D01*
X145258769Y-49841209D01*
X145546082Y-49688264D01*
X145706458Y-49604708D01*
X145832469Y-49535539D01*
X145909076Y-49489237D01*
X145925037Y-49474592D01*
X145881621Y-49480598D01*
X145767795Y-49505502D01*
X145594960Y-49546404D01*
X145374520Y-49600404D01*
X145117877Y-49664602D01*
X144836432Y-49736097D01*
X144541589Y-49811990D01*
X144244748Y-49889380D01*
X143957313Y-49965367D01*
X143690685Y-50037051D01*
X143456268Y-50101532D01*
X143417833Y-50112302D01*
X143102225Y-50202715D01*
X142737599Y-50309949D01*
X142342736Y-50428249D01*
X141936420Y-50551864D01*
X141537434Y-50675038D01*
X141164558Y-50792019D01*
X140836577Y-50897051D01*
X140584639Y-50980204D01*
X140392291Y-51043369D01*
X140230842Y-51093102D01*
X140116057Y-51124783D01*
X140063699Y-51133796D01*
X140062408Y-51133186D01*
X140083848Y-51099833D01*
X140160544Y-51028824D01*
X140278407Y-50931082D01*
X140423352Y-50817532D01*
X140581290Y-50699099D01*
X140738135Y-50586705D01*
X140879799Y-50491275D01*
X140934070Y-50457245D01*
X141281132Y-50266059D01*
X141624864Y-50113533D01*
X141950907Y-50004419D01*
X142244903Y-49943469D01*
X142492494Y-49935432D01*
X142506705Y-49936862D01*
X142617667Y-49946630D01*
X142656623Y-49940141D01*
X142635303Y-49913636D01*
X142618603Y-49900996D01*
X142537500Y-49864198D01*
X142383967Y-49815883D01*
X142169034Y-49758767D01*
X141903734Y-49695565D01*
X141599095Y-49628995D01*
X141266151Y-49561773D01*
X141153000Y-49540108D01*
X140752411Y-49481771D01*
X140286038Y-49443171D01*
X139770275Y-49423660D01*
X139221512Y-49422591D01*
X138656144Y-49439316D01*
X138090561Y-49473187D01*
X137541157Y-49523558D01*
X137024324Y-49589780D01*
X136556455Y-49671207D01*
X136284666Y-49732406D01*
X135665757Y-49922348D01*
X135084798Y-50170149D01*
X134549212Y-50470727D01*
X134066421Y-50818999D01*
X133643848Y-51209881D01*
X133288915Y-51638291D01*
X133117198Y-51901576D01*
X133024091Y-52048237D01*
X132944222Y-52139686D01*
X132855033Y-52197435D01*
X132772682Y-52230123D01*
X132391558Y-52403176D01*
X132019470Y-52652213D01*
X131663931Y-52968563D01*
X131332456Y-53343557D01*
X131032558Y-53768525D01*
X130771751Y-54234798D01*
X130557548Y-54733706D01*
X130525743Y-54822773D01*
X130390401Y-55213380D01*
X129199450Y-55821906D01*
X128560569Y-56151315D01*
X127881268Y-56506996D01*
X127177475Y-56880332D01*
X126465119Y-57262710D01*
X125760129Y-57645513D01*
X125078433Y-58020125D01*
X124435960Y-58377932D01*
X123848639Y-58710318D01*
X123672920Y-58811071D01*
X123452127Y-58935372D01*
X123293850Y-59017425D01*
X123189542Y-59061011D01*
X123130656Y-59069909D01*
X123112664Y-59058844D01*
X123071241Y-58969377D01*
X123016860Y-58818449D01*
X122955902Y-58627024D01*
X122894750Y-58416069D01*
X122839785Y-58206549D01*
X122799638Y-58030500D01*
X122758988Y-57770404D01*
X122728715Y-57451455D01*
X122709649Y-57098925D01*
X122702619Y-56738089D01*
X122708452Y-56394218D01*
X122727978Y-56092587D01*
X122734185Y-56034477D01*
X122834284Y-55436099D01*
X122988140Y-54889911D01*
X123193618Y-54399675D01*
X123448580Y-53969149D01*
X123750892Y-53602092D01*
X124098418Y-53302264D01*
X124388088Y-53123438D01*
X124740164Y-52967054D01*
X125110752Y-52861738D01*
X125519459Y-52803224D01*
X125934166Y-52787050D01*
X126252740Y-52793251D01*
X126505348Y-52813105D01*
X126709827Y-52848204D01*
X126759666Y-52860652D01*
X127033002Y-52952164D01*
X127339838Y-53084598D01*
X127650032Y-53243032D01*
X127933446Y-53412544D01*
X128078231Y-53513459D01*
X128359629Y-53724267D01*
X128382311Y-53610859D01*
X128394274Y-53522607D01*
X128408858Y-53372815D01*
X128423992Y-53184480D01*
X128434540Y-53030490D01*
X128464088Y-52563529D01*
X128257461Y-52476469D01*
X127712255Y-52282961D01*
X127131565Y-52142880D01*
X126533591Y-52057839D01*
X125936534Y-52029448D01*
X125358594Y-52059319D01*
X124817973Y-52149063D01*
X124748833Y-52165855D01*
X124247727Y-52335302D01*
X123780711Y-52579017D01*
X123351427Y-52892265D01*
X122963520Y-53270311D01*
X122620635Y-53708419D01*
X122326416Y-54201854D01*
X122084507Y-54745881D01*
X121898552Y-55335765D01*
X121772197Y-55966769D01*
X121760751Y-56048478D01*
X121739236Y-56290124D01*
X121728833Y-56601901D01*
X121729853Y-56969965D01*
X121735154Y-57183833D01*
X121757590Y-57638326D01*
X121796582Y-58035571D01*
X121856636Y-58402121D01*
X121942257Y-58764532D01*
X122057950Y-59149360D01*
X122079902Y-59215833D01*
X122137305Y-59389999D01*
X122182264Y-59530605D01*
X122209481Y-59620805D01*
X122215015Y-59645306D01*
X122168678Y-59676318D01*
X122062738Y-59740016D01*
X121909441Y-59829499D01*
X121721032Y-59937865D01*
X121509758Y-60058215D01*
X121287863Y-60183647D01*
X121067594Y-60307260D01*
X120861197Y-60422154D01*
X120680917Y-60521428D01*
X120538999Y-60598180D01*
X120447690Y-60645511D01*
X120418982Y-60657426D01*
X120401950Y-60614323D01*
X120361394Y-60499395D01*
X120300175Y-60321266D01*
X120221155Y-60088561D01*
X120127197Y-59809903D01*
X120021162Y-59493918D01*
X119905912Y-59149230D01*
X119784309Y-58784463D01*
X119659215Y-58408242D01*
X119533492Y-58029192D01*
X119410002Y-57655936D01*
X119291607Y-57297100D01*
X119181170Y-56961307D01*
X119081551Y-56657183D01*
X118995613Y-56393352D01*
X118926217Y-56178437D01*
X118876227Y-56021065D01*
X118848504Y-55929858D01*
X118843748Y-55910495D01*
X118876820Y-55874138D01*
X118971838Y-55793109D01*
X119122173Y-55672389D01*
X119321193Y-55516960D01*
X119562269Y-55331802D01*
X119838769Y-55121899D01*
X120144063Y-54892230D01*
X120471520Y-54647779D01*
X120814509Y-54393527D01*
X121166400Y-54134454D01*
X121520562Y-53875544D01*
X121870365Y-53621776D01*
X122209178Y-53378134D01*
X122315081Y-53302488D01*
X124031069Y-52105738D01*
X125736329Y-50969881D01*
X127426798Y-49897337D01*
X129098416Y-48890530D01*
X130747119Y-47951881D01*
X132368845Y-47083810D01*
X133959534Y-46288741D01*
X134549000Y-46009068D01*
X135115875Y-45747270D01*
X135674518Y-45495301D01*
X136218873Y-45255561D01*
X136742886Y-45030454D01*
X137240504Y-44822383D01*
X137705672Y-44633749D01*
X138132336Y-44466955D01*
X138514442Y-44324404D01*
X138845936Y-44208498D01*
X139120762Y-44121638D01*
X139332868Y-44066229D01*
X139476200Y-44044671D01*
X139499123Y-44044771D01*
X139571916Y-44038200D01*
X139673885Y-44009352D01*
X139814644Y-43954227D01*
X140003809Y-43868827D01*
X140250998Y-43749153D01*
X140454500Y-43647484D01*
X140698761Y-43523393D01*
X140921329Y-43408392D01*
X141109589Y-43309152D01*
X141250927Y-43232347D01*
X141332728Y-43184650D01*
X141343500Y-43177225D01*
X141402272Y-43129834D01*
X141393893Y-43120447D01*
X141343500Y-43130199D01*
X141250147Y-43146526D01*
X141078484Y-43172779D01*
X140834193Y-43208201D01*
X140522954Y-43252035D01*
X140150447Y-43303527D01*
X139722353Y-43361918D01*
X139244353Y-43426454D01*
X138722127Y-43496377D01*
X138161356Y-43570932D01*
X137567721Y-43649363D01*
X136946903Y-43730912D01*
X136304581Y-43814824D01*
X135646437Y-43900342D01*
X134978152Y-43986710D01*
X134305405Y-44073173D01*
X133633878Y-44158973D01*
X133236666Y-44209470D01*
X131912467Y-44377837D01*
X130668022Y-44536830D01*
X129499010Y-44687070D01*
X128401113Y-44829177D01*
X127370008Y-44963769D01*
X126401376Y-45091467D01*
X125490895Y-45212889D01*
X124634246Y-45328655D01*
X123827108Y-45439384D01*
X123065160Y-45545696D01*
X122344081Y-45648210D01*
X121659552Y-45747546D01*
X121007252Y-45844323D01*
X120382860Y-45939160D01*
X119782056Y-46032677D01*
X119200519Y-46125493D01*
X118633929Y-46218228D01*
X118077965Y-46311501D01*
X117528306Y-46405932D01*
X116980633Y-46502140D01*
X116430624Y-46600743D01*
X115964666Y-46685689D01*
X113696643Y-47122864D01*
X111505352Y-47588101D01*
X109387140Y-48082881D01*
X107338353Y-48608686D01*
X105355338Y-49166996D01*
X103434440Y-49759294D01*
X101572008Y-50387061D01*
X99764386Y-51051778D01*
X98007922Y-51754925D01*
X96298961Y-52497986D01*
X94633850Y-53282440D01*
X93008936Y-54109770D01*
X91420565Y-54981457D01*
X89865083Y-55898981D01*
X88338837Y-56863825D01*
X86838173Y-57877469D01*
X85359437Y-58941395D01*
X84913223Y-59275375D01*
X84027361Y-59958222D01*
X83157837Y-60657164D01*
X82293193Y-61382108D01*
X81421970Y-62142964D01*
X80532709Y-62949639D01*
X79613951Y-63812043D01*
X79137707Y-64269388D01*
X78103582Y-65269500D01*
X78724957Y-64433416D01*
X78948562Y-64132511D01*
X79202746Y-63790392D01*
X79467652Y-63433792D01*
X79723419Y-63089446D01*
X79950188Y-62784087D01*
X79967145Y-62761250D01*
X80656530Y-61839652D01*
X81307081Y-60984752D01*
X81923852Y-60190844D01*
X82511893Y-59452220D01*
X83076258Y-58763172D01*
X83621996Y-58117993D01*
X84154161Y-57510976D01*
X84677803Y-56936413D01*
X85197975Y-56388598D01*
X85719728Y-55861822D01*
X86248114Y-55350379D01*
X86788185Y-54848560D01*
X87344993Y-54350660D01*
X87635385Y-54097825D01*
X88989811Y-52978468D01*
X90419246Y-51893673D01*
X91920657Y-50845172D01*
X93491012Y-49834695D01*
X95127277Y-48863974D01*
X96826420Y-47934739D01*
X98585408Y-47048722D01*
X100401208Y-46207654D01*
X102270787Y-45413266D01*
X104094889Y-44703057D01*
X106218953Y-43944253D01*
X108363075Y-43243716D01*
X110533645Y-42599920D01*
X112737052Y-42011338D01*
X114979685Y-41476444D01*
X117267934Y-40993713D01*
X119608187Y-40561618D01*
X122006835Y-40178633D01*
X124410166Y-39850758D01*
X125235440Y-39749489D01*
X126057243Y-39653415D01*
X126881652Y-39562051D01*
X127714746Y-39474915D01*
X128562601Y-39391523D01*
X129431297Y-39311392D01*
X130326911Y-39234039D01*
X131255520Y-39158981D01*
X132223203Y-39085734D01*
X133236037Y-39013815D01*
X134300101Y-38942740D01*
X135421471Y-38872028D01*
X136606226Y-38801194D01*
X137860444Y-38729755D01*
X139190203Y-38657228D01*
X139883000Y-38620526D01*
X140146008Y-38607028D01*
X140484728Y-38590138D01*
X140890289Y-38570272D01*
X141353822Y-38547843D01*
X141866456Y-38523264D01*
X142419323Y-38496951D01*
X143003552Y-38469316D01*
X143610274Y-38440775D01*
X144230618Y-38411740D01*
X144855714Y-38382626D01*
X145476694Y-38353848D01*
X146084687Y-38325818D01*
X146670823Y-38298950D01*
X147226232Y-38273660D01*
X147742045Y-38250361D01*
X148209392Y-38229466D01*
X148619403Y-38211390D01*
X148963209Y-38196547D01*
X149005833Y-38194738D01*
X149348833Y-38182425D01*
X149766606Y-38171100D01*
X150249261Y-38160812D01*
X150786909Y-38151606D01*
X151369660Y-38143530D01*
X151987625Y-38136630D01*
X152630914Y-38130953D01*
X153289637Y-38126546D01*
X153953906Y-38123457D01*
X154613831Y-38121730D01*
X155259522Y-38121414D01*
X155881089Y-38122555D01*
X155881089Y-38122555D01*
G37*
X155881089Y-38122555D02*
X156468643Y-38125201D01*
X157012295Y-38129397D01*
X157502155Y-38135190D01*
X157928334Y-38142628D01*
X158255666Y-38150964D01*
X159460456Y-38192158D01*
X160602232Y-38239939D01*
X161694822Y-38295508D01*
X162752050Y-38360065D01*
X163787744Y-38434811D01*
X164815730Y-38520947D01*
X165849833Y-38619674D01*
X166903880Y-38732193D01*
X167991697Y-38859704D01*
X169127110Y-39003408D01*
X170323945Y-39164506D01*
X170976833Y-39255785D01*
X171458426Y-39323801D01*
X171974267Y-39396499D01*
X172506096Y-39471315D01*
X173035655Y-39545688D01*
X173544686Y-39617053D01*
X174014929Y-39682847D01*
X174428127Y-39740507D01*
X174596333Y-39763915D01*
X175385130Y-39873730D01*
X176097472Y-39973284D01*
X176740805Y-40063679D01*
X177322572Y-40146018D01*
X177850220Y-40221404D01*
X178331194Y-40290940D01*
X178772939Y-40355727D01*
X179182901Y-40416869D01*
X179568525Y-40475467D01*
X179937256Y-40532625D01*
X180296540Y-40589445D01*
X180653821Y-40647029D01*
X181016546Y-40706481D01*
X181392159Y-40768902D01*
X181463603Y-40780854D01*
X181751422Y-40828251D01*
X182017013Y-40870478D01*
X182247142Y-40905551D01*
X182428572Y-40931487D01*
X182548070Y-40946301D01*
X182585436Y-40949031D01*
X182686605Y-40958347D01*
X182859818Y-40984814D01*
X183094687Y-41026257D01*
X183380825Y-41080499D01*
X183707845Y-41145367D01*
X184065360Y-41218685D01*
X184442981Y-41298278D01*
X184830321Y-41381971D01*
X185216993Y-41467589D01*
X185592610Y-41552957D01*
X185946783Y-41635899D01*
X186269125Y-41714242D01*
X186413604Y-41750623D01*
X186728124Y-41833210D01*
X187054248Y-41922928D01*
X187381810Y-42016589D01*
X187700646Y-42111005D01*
X188000588Y-42202990D01*
X188271473Y-42289355D01*
X188503132Y-42366914D01*
X188685402Y-42432479D01*
X188808117Y-42482862D01*
X188861110Y-42514876D01*
X188862460Y-42518452D01*
X188823650Y-42521989D01*
X188718308Y-42512929D01*
X188563333Y-42493091D01*
X188407583Y-42469496D01*
X187416411Y-42345128D01*
X186370856Y-42281885D01*
X185275166Y-42279817D01*
X184133590Y-42338968D01*
X183338166Y-42413645D01*
X183112052Y-42437623D01*
X182906233Y-42457718D01*
X182740302Y-42472138D01*
X182633854Y-42479093D01*
X182618500Y-42479456D01*
X182460226Y-42489475D01*
X182230544Y-42517239D01*
X181940360Y-42560670D01*
X181600579Y-42617692D01*
X181222106Y-42686225D01*
X180815848Y-42764192D01*
X180392710Y-42849516D01*
X179963597Y-42940119D01*
X179539414Y-43033923D01*
X179131069Y-43128850D01*
X178850833Y-43197265D01*
X177171401Y-43652233D01*
X175467305Y-44183156D01*
X173744332Y-44786987D01*
X172008268Y-45460681D01*
X170264901Y-46201190D01*
X168520017Y-47005469D01*
X166779405Y-47870471D01*
X165048851Y-48793151D01*
X163334141Y-49770461D01*
X161641064Y-50799356D01*
X159975407Y-51876790D01*
X158342956Y-52999715D01*
X156749498Y-54165087D01*
X155200821Y-55369858D01*
X154255166Y-56144036D01*
X153383887Y-56890602D01*
X152505439Y-57679672D01*
X151632437Y-58498763D01*
X150777495Y-59335395D01*
X149953229Y-60177084D01*
X149172251Y-61011349D01*
X148447178Y-61825708D01*
X148091808Y-62242666D01*
X147177510Y-63377827D01*
X146332469Y-64518567D01*
X145558156Y-65662067D01*
X144856043Y-66805508D01*
X144227600Y-67946072D01*
X143674300Y-69080940D01*
X143197613Y-70207293D01*
X142799010Y-71322314D01*
X142479962Y-72423182D01*
X142258420Y-73418666D01*
X142192113Y-73779678D01*
X142139329Y-74097604D01*
X142098592Y-74390012D01*
X142068429Y-74674467D01*
X142047365Y-74968535D01*
X142033926Y-75289783D01*
X142026638Y-75655776D01*
X142024027Y-76084082D01*
X142023932Y-76212666D01*
X142024646Y-76598691D01*
X142027186Y-76914265D01*
X142032266Y-77173599D01*
X142040602Y-77390903D01*
X142052909Y-77580385D01*
X142069902Y-77756256D01*
X142092297Y-77932725D01*
X142119818Y-78117666D01*
X142320652Y-79168861D01*
X142590000Y-80179565D01*
X142930584Y-81156066D01*
X143345128Y-82104654D01*
X143836354Y-83031616D01*
X144406983Y-83943242D01*
X144996950Y-84764000D01*
X145589745Y-85500713D01*
X146214215Y-86196253D01*
X146876811Y-86855685D01*
X147583985Y-87484076D01*
X148342188Y-88086492D01*
X149157872Y-88667997D01*
X150037488Y-89233658D01*
X150987488Y-89788542D01*
X152014323Y-90337713D01*
X152244333Y-90454812D01*
X152504081Y-90583960D01*
X152797501Y-90726440D01*
X153115230Y-90878005D01*
X153447907Y-91034411D01*
X153786169Y-91191414D01*
X154120655Y-91344768D01*
X154442002Y-91490230D01*
X154740850Y-91623554D01*
X155007837Y-91740496D01*
X155233600Y-91836811D01*
X155408778Y-91908254D01*
X155524008Y-91950581D01*
X155565564Y-91960666D01*
X155560685Y-91926488D01*
X155524295Y-91837049D01*
X155466693Y-91716624D01*
X155303086Y-91370111D01*
X155128459Y-90960507D01*
X154950007Y-90507403D01*
X154774925Y-90030394D01*
X154610409Y-89549071D01*
X154463655Y-89083026D01*
X154343648Y-88658666D01*
X154133951Y-87779079D01*
X153968363Y-86895044D01*
X153845051Y-85991171D01*
X153762187Y-85052072D01*
X153717937Y-84062359D01*
X153708957Y-83324666D01*
X153717983Y-82568620D01*
X153746707Y-81874934D01*
X153797522Y-81223092D01*
X153872820Y-80592575D01*
X153974993Y-79962866D01*
X154106432Y-79313446D01*
X154246009Y-78718250D01*
X154302191Y-78484252D01*
X154347675Y-78281509D01*
X154379797Y-78123053D01*
X154395899Y-78021915D01*
X154394554Y-77990666D01*
X154342799Y-78005261D01*
X154233939Y-78043929D01*
X154089360Y-78098999D01*
X154055185Y-78112434D01*
X153710945Y-78240128D01*
X153289583Y-78381871D01*
X152797135Y-78535791D01*
X152239637Y-78700020D01*
X151623122Y-78872688D01*
X151440000Y-78922494D01*
X150867754Y-79078834D01*
X150368895Y-79219057D01*
X149934341Y-79346213D01*
X149555008Y-79463350D01*
X149221815Y-79573518D01*
X148925678Y-79679765D01*
X148657517Y-79785142D01*
X148408248Y-79892696D01*
X148168788Y-80005478D01*
X148074500Y-80052343D01*
X147564031Y-80341226D01*
X147131270Y-80655043D01*
X146772077Y-80997056D01*
X146581177Y-81229166D01*
X146532223Y-81289964D01*
X146511904Y-81300361D01*
X146521993Y-81255366D01*
X146564262Y-81149990D01*
X146640481Y-80979241D01*
X146752423Y-80738128D01*
X146764985Y-80711370D01*
X147154001Y-79973013D01*
X147617555Y-79256273D01*
X148156895Y-78559908D01*
X148773274Y-77882676D01*
X149467941Y-77223333D01*
X150242147Y-76580639D01*
X151097144Y-75953351D01*
X152034182Y-75340226D01*
X152392500Y-75122336D01*
X152920575Y-74819425D01*
X153465466Y-74529615D01*
X154014269Y-74258658D01*
X154554086Y-74012306D01*
X155072013Y-73796309D01*
X155555150Y-73616419D01*
X155990596Y-73478387D01*
X156206503Y-73422060D01*
X156344609Y-73380738D01*
X156427592Y-73326572D01*
X156484709Y-73239775D01*
X156488919Y-73231078D01*
X156562508Y-73091657D01*
X156674781Y-72897629D01*
X156816230Y-72664005D01*
X156977350Y-72405793D01*
X157148636Y-72138002D01*
X157320581Y-71875643D01*
X157483680Y-71633723D01*
X157628426Y-71427252D01*
X157651501Y-71395418D01*
X157996235Y-70936960D01*
X158353796Y-70487539D01*
X158705961Y-70069474D01*
X159011555Y-69729561D01*
X159136494Y-69593403D01*
X159236310Y-69479912D01*
X159298854Y-69403192D01*
X159314000Y-69378392D01*
X159277677Y-69365972D01*
X159188969Y-69372252D01*
X159176416Y-69374277D01*
X159008964Y-69398061D01*
X158768878Y-69425443D01*
X158468067Y-69455475D01*
X158118444Y-69487212D01*
X157731918Y-69519709D01*
X157320399Y-69552019D01*
X156895799Y-69583198D01*
X156470027Y-69612300D01*
X156054994Y-69638379D01*
X155662611Y-69660489D01*
X155419333Y-69672565D01*
X155090172Y-69680985D01*
X154729418Y-69676432D01*
X154327613Y-69658294D01*
X153875299Y-69625958D01*
X153363018Y-69578810D01*
X152781313Y-69516239D01*
X152498333Y-69483356D01*
X152034699Y-69428669D01*
X151644089Y-69383405D01*
X151315488Y-69346681D01*
X151037882Y-69317614D01*
X150800258Y-69295322D01*
X150591601Y-69278923D01*
X150400898Y-69267533D01*
X150217134Y-69260271D01*
X150029296Y-69256254D01*
X149826369Y-69254599D01*
X149640833Y-69254385D01*
X149237058Y-69258188D01*
X148895767Y-69270574D01*
X148595009Y-69293838D01*
X148312837Y-69330272D01*
X148027299Y-69382170D01*
X147716448Y-69451825D01*
X147689843Y-69458230D01*
X147514209Y-69499652D01*
X147372854Y-69531026D01*
X147283501Y-69548534D01*
X147261374Y-69550485D01*
X147293625Y-69530132D01*
X147392428Y-69482194D01*
X147546198Y-69411698D01*
X147743352Y-69323668D01*
X147972307Y-69223132D01*
X148221479Y-69115114D01*
X148479285Y-69004642D01*
X148734142Y-68896741D01*
X148974466Y-68796436D01*
X149188673Y-68708755D01*
X149341480Y-68647937D01*
X150539468Y-68209239D01*
X151708392Y-67841735D01*
X152858577Y-67544144D01*
X154000345Y-67315185D01*
X155144019Y-67153577D01*
X156299925Y-67058038D01*
X157478383Y-67027288D01*
X158689719Y-67060046D01*
X159944256Y-67155030D01*
X160698829Y-67238505D01*
X160935814Y-67266989D01*
X161147472Y-67291349D01*
X161317664Y-67309812D01*
X161430254Y-67320604D01*
X161464517Y-67322666D01*
X161529151Y-67297502D01*
X161641532Y-67229495D01*
X161784253Y-67129873D01*
X161900021Y-67041726D01*
X162544329Y-66555783D01*
X163253680Y-66061240D01*
X164010713Y-65568929D01*
X164798064Y-65089680D01*
X165598369Y-64634324D01*
X166394265Y-64213693D01*
X166595333Y-64112841D01*
X167336166Y-63745500D01*
X166785833Y-63713293D01*
X166525162Y-63696744D01*
X166209352Y-63674592D01*
X165850536Y-63647859D01*
X165460846Y-63617570D01*
X165052416Y-63584750D01*
X164637379Y-63550423D01*
X164227867Y-63515613D01*
X163836014Y-63481345D01*
X163473952Y-63448643D01*
X163153815Y-63418532D01*
X162887735Y-63392036D01*
X162687845Y-63370178D01*
X162616000Y-63361241D01*
X162330276Y-63319084D01*
X162026180Y-63265659D01*
X161693787Y-63198724D01*
X161323170Y-63116037D01*
X160904404Y-63015356D01*
X160427563Y-62894440D01*
X159882722Y-62751046D01*
X159712214Y-62705376D01*
X159089243Y-62540185D01*
X158537508Y-62399128D01*
X158047620Y-62280484D01*
X157610189Y-62182535D01*
X157215830Y-62103561D01*
X156855152Y-62041843D01*
X156518769Y-61995660D01*
X156197291Y-61963294D01*
X155881331Y-61943024D01*
X155561501Y-61933132D01*
X155490789Y-61932189D01*
X154821412Y-61925166D01*
X155935289Y-61703377D01*
X156861391Y-61524564D01*
X157722301Y-61370345D01*
X158533096Y-61238378D01*
X159308852Y-61126321D01*
X160064646Y-61031833D01*
X160689833Y-60964851D01*
X160967138Y-60943701D01*
X161310498Y-60927631D01*
X161704258Y-60916556D01*
X162132763Y-60910388D01*
X162580358Y-60909042D01*
X163031389Y-60912429D01*
X163470201Y-60920465D01*
X163881138Y-60933062D01*
X164248546Y-60950133D01*
X164556770Y-60971593D01*
X164711500Y-60987090D01*
X165447681Y-61083711D01*
X166183871Y-61201629D01*
X166932781Y-61343607D01*
X167707121Y-61512409D01*
X168519603Y-61710800D01*
X169382938Y-61941542D01*
X170272032Y-62196250D01*
X171133565Y-62450109D01*
X171647866Y-62328238D01*
X172615620Y-62117155D01*
X173609478Y-61934958D01*
X174605802Y-61785131D01*
X175580952Y-61671162D01*
X176511289Y-61596534D01*
X176670666Y-61587626D01*
X176979952Y-61571509D01*
X177205978Y-61557060D01*
X177349970Y-61540377D01*
X177413150Y-61517560D01*
X177396744Y-61484708D01*
X177301975Y-61437922D01*
X177130068Y-61373300D01*
X176882246Y-61286943D01*
X176776500Y-61250410D01*
X176515176Y-61159086D01*
X176272711Y-61072010D01*
X176037937Y-60984652D01*
X175799686Y-60892486D01*
X175546789Y-60790983D01*
X175268078Y-60675617D01*
X174952384Y-60541858D01*
X174588540Y-60385180D01*
X174165377Y-60201054D01*
X173876666Y-60074778D01*
X173199217Y-59781932D01*
X172586990Y-59525966D01*
X172030639Y-59303662D01*
X171520818Y-59111801D01*
X171048178Y-58947165D01*
X170603373Y-58806536D01*
X170177057Y-58686696D01*
X169759883Y-58584427D01*
X169342503Y-58496510D01*
X169230947Y-58475260D01*
X168817833Y-58398207D01*
X169833833Y-58415147D01*
X170133355Y-58420012D01*
X170497516Y-58425717D01*
X170906292Y-58431961D01*
X171339664Y-58438444D01*
X171777609Y-58444863D01*
X172200106Y-58450918D01*
X172373833Y-58453359D01*
X173330769Y-58473387D01*
X174214088Y-58506957D01*
X175034045Y-58556057D01*
X175800898Y-58622671D01*
X176524902Y-58708785D01*
X177216313Y-58816386D01*
X177885389Y-58947457D01*
X178542385Y-59103987D01*
X179197559Y-59287959D01*
X179861165Y-59501359D01*
X180543462Y-59746174D01*
X181254704Y-60024389D01*
X181920000Y-60301544D01*
X182158769Y-60403231D01*
X182382598Y-60498133D01*
X182574885Y-60579244D01*
X182719027Y-60639556D01*
X182787833Y-60667845D01*
X182884239Y-60710919D01*
X183043642Y-60787073D01*
X183253978Y-60890217D01*
X183503183Y-61014266D01*
X183779190Y-61153130D01*
X184069935Y-61300724D01*
X184363353Y-61450958D01*
X184647379Y-61597746D01*
X184909948Y-61735000D01*
X185056218Y-61812398D01*
X185242898Y-61910093D01*
X185396565Y-61984186D01*
X185538045Y-62041687D01*
X185688163Y-62089606D01*
X185867746Y-62134952D01*
X186097619Y-62184737D01*
X186262718Y-62218514D01*
X186899473Y-62352483D01*
X187543267Y-62497228D01*
X188180129Y-62649172D01*
X188796085Y-62804734D01*
X189377166Y-62960336D01*
X189909398Y-63112398D01*
X190378810Y-63257341D01*
X190584584Y-63325680D01*
X190810374Y-63399992D01*
X190960062Y-63442279D01*
X191035829Y-63452771D01*
X191039858Y-63431694D01*
X190974328Y-63379277D01*
X190951465Y-63364001D01*
X190881964Y-63313635D01*
X190759624Y-63220071D01*
X190597392Y-63093409D01*
X190408212Y-62943748D01*
X190225130Y-62797350D01*
X190018355Y-62631241D01*
X189822995Y-62474440D01*
X189653209Y-62338301D01*
X189523156Y-62234177D01*
X189454229Y-62179166D01*
X189341919Y-62088008D01*
X189181276Y-61955183D01*
X188988251Y-61794122D01*
X188778798Y-61618255D01*
X188568869Y-61441013D01*
X188374416Y-61275826D01*
X188211392Y-61136125D01*
X188098338Y-61037636D01*
X187980658Y-60933529D01*
X187824703Y-60795741D01*
X187655719Y-60646571D01*
X187569483Y-60570500D01*
X187451345Y-60463084D01*
X187279073Y-60301834D01*
X187058626Y-60092556D01*
X186795961Y-59841060D01*
X186497037Y-59553153D01*
X186167812Y-59234645D01*
X185814244Y-58891344D01*
X185442291Y-58529058D01*
X185057912Y-58153596D01*
X184667065Y-57770765D01*
X184275709Y-57386375D01*
X183889800Y-57006234D01*
X183515298Y-56636150D01*
X183158161Y-56281932D01*
X182824346Y-55949388D01*
X182639773Y-55764728D01*
X182371118Y-55506846D01*
X182086876Y-55253957D01*
X181807760Y-55023562D01*
X181554479Y-54833160D01*
X181464916Y-54772036D01*
X181362652Y-54702365D01*
X181297473Y-54653277D01*
X181285000Y-54640094D01*
X181320773Y-54648823D01*
X181415754Y-54684149D01*
X181551429Y-54739077D01*
X181591916Y-54756056D01*
X181794012Y-54841398D01*
X182016111Y-54935175D01*
X182189726Y-55008472D01*
X182350048Y-55072319D01*
X182495151Y-55123507D01*
X182594620Y-55151337D01*
X182597333Y-55151833D01*
X182705683Y-55182487D01*
X182880013Y-55246428D01*
X183110275Y-55339681D01*
X183386423Y-55458270D01*
X183507500Y-55511918D01*
X183637685Y-55568754D01*
X183806362Y-55640672D01*
X183952000Y-55701682D01*
X184273329Y-55838575D01*
X184640787Y-56001239D01*
X185038915Y-56182338D01*
X185452255Y-56374537D01*
X185865348Y-56570502D01*
X186262736Y-56762897D01*
X186628960Y-56944388D01*
X186948563Y-57107639D01*
X187206085Y-57245315D01*
X187211666Y-57248406D01*
X187815348Y-57593955D01*
X188406830Y-57953505D01*
X188970444Y-58316871D01*
X189490524Y-58673864D01*
X189951404Y-59014298D01*
X190069166Y-59106423D01*
X190405290Y-59383014D01*
X190778952Y-59707452D01*
X191172566Y-60063324D01*
X191568542Y-60434214D01*
X191949293Y-60803709D01*
X192297231Y-61155395D01*
X192537370Y-61409878D01*
X192665636Y-61544528D01*
X192745301Y-61615603D01*
X192780133Y-61626058D01*
X192780208Y-61600378D01*
X192764321Y-61527456D01*
X192734619Y-61387486D01*
X192694439Y-61196332D01*
X192647117Y-60969856D01*
X192608076Y-60782166D01*
X192551267Y-60511813D01*
X192493162Y-60242693D01*
X192430592Y-59960880D01*
X192360387Y-59652449D01*
X192279377Y-59303473D01*
X192184394Y-58900026D01*
X192073337Y-58432666D01*
X191916793Y-57765552D01*
X191774663Y-57138534D01*
X191648440Y-56558780D01*
X191539618Y-56033454D01*
X191449690Y-55569724D01*
X191380151Y-55174754D01*
X191341278Y-54920837D01*
X191311249Y-54667095D01*
X191290481Y-54411998D01*
X191279364Y-54172028D01*
X191278287Y-53963666D01*
X191287638Y-53803395D01*
X191307808Y-53707698D01*
X191312433Y-53698891D01*
X191344148Y-53700380D01*
X191411147Y-53755535D01*
X191517012Y-53868155D01*
X191665322Y-54042038D01*
X191851167Y-54270391D01*
X192009640Y-54467626D01*
X192150013Y-54641687D01*
X192263678Y-54781956D01*
X192342030Y-54877813D01*
X192376463Y-54918639D01*
X192376828Y-54919000D01*
X192409064Y-54957246D01*
X192485500Y-55051149D01*
X192597604Y-55190129D01*
X192736842Y-55363603D01*
X192894681Y-55560991D01*
X192905995Y-55575166D01*
X193064767Y-55773801D01*
X193205480Y-55949251D01*
X193319611Y-56090938D01*
X193398637Y-56188281D01*
X193434032Y-56230701D01*
X193434648Y-56231333D01*
X193466780Y-56269532D01*
X193543228Y-56363300D01*
X193655448Y-56502069D01*
X193794895Y-56675270D01*
X193953025Y-56872336D01*
X193964182Y-56886263D01*
X194127532Y-57090019D01*
X194276774Y-57275851D01*
X194402235Y-57431741D01*
X194494246Y-57545675D01*
X194543135Y-57605635D01*
X194543380Y-57605929D01*
X194594421Y-57668285D01*
X194687242Y-57782684D01*
X194810565Y-57935190D01*
X194953111Y-58111865D01*
X195023980Y-58199833D01*
X195183467Y-58397851D01*
X195379256Y-58640864D01*
X195594496Y-58907964D01*
X195812338Y-59178241D01*
X196010766Y-59424378D01*
X196220777Y-59684853D01*
X196450056Y-59969234D01*
X196680078Y-60254543D01*
X196892316Y-60517801D01*
X197054166Y-60718564D01*
X197250302Y-60961748D01*
X197469688Y-61233575D01*
X197689486Y-61505755D01*
X197886856Y-61750003D01*
X197945356Y-61822352D01*
X198103800Y-62018580D01*
X198299577Y-62261537D01*
X198517108Y-62531858D01*
X198740812Y-62810180D01*
X198955106Y-63077137D01*
X198998837Y-63131666D01*
X199186391Y-63365278D01*
X199365705Y-63588072D01*
X199526857Y-63787765D01*
X199659924Y-63952069D01*
X199754985Y-64068700D01*
X199785191Y-64105333D01*
X199870498Y-64209064D01*
X199993828Y-64360497D01*
X200140267Y-64541255D01*
X200294902Y-64732963D01*
X200334877Y-64782666D01*
X200488248Y-64973307D01*
X200678438Y-65209439D01*
X200889041Y-65470709D01*
X201103652Y-65736764D01*
X201303167Y-65983912D01*
X201476206Y-66198328D01*
X201690214Y-66463774D01*
X201933133Y-66765278D01*
X202192903Y-67087867D01*
X202457466Y-67416570D01*
X202714762Y-67736412D01*
X202815257Y-67861389D01*
X203750348Y-69024453D01*
X203907740Y-69729309D01*
X203972120Y-70015945D01*
X204041977Y-70324172D01*
X204110280Y-70623139D01*
X204169998Y-70881996D01*
X204188956Y-70963333D01*
X204234520Y-71159173D01*
X204296343Y-71426584D01*
X204371912Y-71754579D01*
X204458713Y-72132168D01*
X204554230Y-72548364D01*
X204655949Y-72992180D01*
X204761355Y-73452628D01*
X204867935Y-73918719D01*
X204973174Y-74379465D01*
X205074556Y-74823879D01*
X205169569Y-75240973D01*
X205255697Y-75619759D01*
X205330425Y-75949249D01*
X205370842Y-76128000D01*
X205439953Y-76433462D01*
X205509933Y-76741550D01*
X205576242Y-77032363D01*
X205634338Y-77285999D01*
X205679682Y-77482555D01*
X205689556Y-77525000D01*
X205752772Y-77797094D01*
X205831200Y-78136418D01*
X205921327Y-78527631D01*
X206019638Y-78955393D01*
X206122620Y-79404362D01*
X206226760Y-79859198D01*
X206328544Y-80304561D01*
X206424458Y-80725110D01*
X206510988Y-81105505D01*
X206584621Y-81430405D01*
X206620400Y-81589000D01*
X206683182Y-81867307D01*
X206743741Y-82134587D01*
X206798149Y-82373590D01*
X206842475Y-82567061D01*
X206872793Y-82697750D01*
X206875880Y-82710833D01*
X206904419Y-82832661D01*
X206947689Y-83019060D01*
X207001538Y-83252064D01*
X207061813Y-83513709D01*
X207124364Y-83786032D01*
X207125351Y-83790333D01*
X207187880Y-84062942D01*
X207264321Y-84396114D01*
X207349635Y-84767891D01*
X207438782Y-85156318D01*
X207526725Y-85539437D01*
X207592496Y-85825921D01*
X207663266Y-86136437D01*
X207727389Y-86422179D01*
X207782481Y-86672168D01*
X207826157Y-86875424D01*
X207856031Y-87020966D01*
X207869719Y-87097815D01*
X207870333Y-87105086D01*
X207867937Y-87125493D01*
X207855646Y-87133792D01*
X207825807Y-87125057D01*
X207770767Y-87094360D01*
X207682873Y-87036774D01*
X207554470Y-86947370D01*
X207377907Y-86821222D01*
X207145529Y-86653403D01*
X206960166Y-86519087D01*
X206787895Y-86394595D01*
X206624982Y-86277568D01*
X206493273Y-86183663D01*
X206431000Y-86139833D01*
X206333182Y-86070772D01*
X206189541Y-85968092D01*
X206022704Y-85848005D01*
X205916012Y-85770813D01*
X205768595Y-85664105D01*
X205569289Y-85520099D01*
X205334929Y-85350945D01*
X205082352Y-85168794D01*
X204828392Y-84985796D01*
X204773012Y-84945913D01*
X204501331Y-84750221D01*
X204184377Y-84521823D01*
X203845523Y-84277571D01*
X203508144Y-84034313D01*
X203195616Y-83808900D01*
X203107833Y-83745568D01*
X202833842Y-83547931D01*
X202551942Y-83344678D01*
X202278969Y-83147941D01*
X202031759Y-82969855D01*
X201827147Y-82822550D01*
X201739248Y-82759321D01*
X201512983Y-82596527D01*
X201250494Y-82407497D01*
X200984188Y-82215579D01*
X200746472Y-82044119D01*
X200744414Y-82042634D01*
X200510057Y-81873579D01*
X200310491Y-81729868D01*
X200124277Y-81596120D01*
X199929973Y-81456954D01*
X199706136Y-81296987D01*
X199479695Y-81135351D01*
X199323318Y-81023240D01*
X199127519Y-80882111D01*
X198921259Y-80732867D01*
X198788550Y-80636500D01*
X198615656Y-80510948D01*
X198456473Y-80395756D01*
X198330022Y-80304664D01*
X198261135Y-80255500D01*
X198185937Y-80201829D01*
X198057120Y-80109213D01*
X197889611Y-79988411D01*
X197698334Y-79850180D01*
X197585709Y-79768666D01*
X197354028Y-79601176D01*
X197105360Y-79421882D01*
X196865832Y-79249594D01*
X196661570Y-79103120D01*
X196615476Y-79070166D01*
X196444696Y-78947940D01*
X196215889Y-78783817D01*
X195939687Y-78585443D01*
X195626719Y-78360465D01*
X195287616Y-78116531D01*
X194933008Y-77861288D01*
X194573526Y-77602383D01*
X194219800Y-77347463D01*
X193882460Y-77104176D01*
X193858000Y-77086527D01*
X193612342Y-76909303D01*
X193332159Y-76707221D01*
X193051580Y-76504892D01*
X192804731Y-76326930D01*
X192799666Y-76323279D01*
X192588003Y-76170399D01*
X192374628Y-76015743D01*
X192180979Y-75874883D01*
X192028491Y-75763391D01*
X191995333Y-75738998D01*
X191861348Y-75644110D01*
X191750700Y-75572853D01*
X191682798Y-75537524D01*
X191674492Y-75535740D01*
X191625805Y-75553824D01*
X191511860Y-75605008D01*
X191343040Y-75684351D01*
X191129726Y-75786911D01*
X190882302Y-75907747D01*
X190616159Y-76039424D01*
X190010454Y-76330959D01*
X189454159Y-76576335D01*
X188930097Y-76781692D01*
X188421093Y-76953167D01*
X187909973Y-77096901D01*
X187379561Y-77219031D01*
X187232833Y-77248701D01*
X187021591Y-77287494D01*
X186816165Y-77320332D01*
X186631470Y-77345443D01*
X186482423Y-77361051D01*
X186383942Y-77365383D01*
X186350942Y-77356664D01*
X186353394Y-77353305D01*
X186405058Y-77330151D01*
X186520516Y-77289852D01*
X186682088Y-77238296D01*
X186851833Y-77187281D01*
X187328780Y-77033571D01*
X187818676Y-76849721D01*
X188301932Y-76644508D01*
X188758958Y-76426710D01*
X189170164Y-76205105D01*
X189494478Y-76003164D01*
X190071728Y-75567973D01*
X190605764Y-75085158D01*
X190930695Y-74766192D01*
X190924968Y-74103013D01*
X190925186Y-73846330D01*
X190929688Y-73593269D01*
X190937763Y-73367879D01*
X190948695Y-73194216D01*
X190953305Y-73148030D01*
X190987368Y-72856227D01*
X190803434Y-72886015D01*
X190502757Y-72932475D01*
X190156506Y-72982260D01*
X189781163Y-73033325D01*
X189393210Y-73083625D01*
X189009130Y-73131112D01*
X188645407Y-73173743D01*
X188318523Y-73209470D01*
X188044960Y-73236248D01*
X187867833Y-73250369D01*
X187361586Y-73268136D01*
X186803849Y-73260436D01*
X186223412Y-73228693D01*
X185649067Y-73174333D01*
X185246534Y-73120632D01*
X185041435Y-73088274D01*
X184868482Y-73058855D01*
X184743896Y-73035291D01*
X184683903Y-73020499D01*
X184681195Y-73018973D01*
X184716154Y-73013902D01*
X184824221Y-73009700D01*
X184993839Y-73006543D01*
X185213451Y-73004609D01*
X185471501Y-73004074D01*
X185630327Y-73004459D01*
X186275081Y-72996599D01*
X186853016Y-72965694D01*
X187379524Y-72908933D01*
X187869998Y-72823510D01*
X188339831Y-72706616D01*
X188804416Y-72555442D01*
X189279145Y-72367179D01*
X189391833Y-72318139D01*
X189670877Y-72188410D01*
X189960799Y-72042170D01*
X190251086Y-71885846D01*
X190531227Y-71725865D01*
X190790708Y-71568654D01*
X191019018Y-71420640D01*
X191205644Y-71288249D01*
X191340075Y-71177908D01*
X191411798Y-71096045D01*
X191419365Y-71078557D01*
X191444003Y-70939138D01*
X195830658Y-70939138D01*
X195833897Y-70970585D01*
X195847666Y-70976489D01*
X196268877Y-71127251D01*
X196658820Y-71306798D01*
X197031375Y-71524223D01*
X197400421Y-71788621D01*
X197779839Y-72109085D01*
X198183509Y-72494709D01*
X198218333Y-72529722D01*
X198493260Y-72802591D01*
X198729022Y-73024811D01*
X198941942Y-73209683D01*
X199148341Y-73370509D01*
X199364543Y-73520589D01*
X199606871Y-73673225D01*
X199663645Y-73707471D01*
X199802675Y-73787343D01*
X199979362Y-73883756D01*
X200178785Y-73989158D01*
X200386023Y-74095993D01*
X200586155Y-74196706D01*
X200764258Y-74283745D01*
X200905413Y-74349553D01*
X200994698Y-74386576D01*
X201015591Y-74391944D01*
X201015484Y-74352594D01*
X201001033Y-74242557D01*
X200974232Y-74074220D01*
X200937078Y-73859970D01*
X200891565Y-73612196D01*
X200880977Y-73556250D01*
X200794393Y-73118088D01*
X200713713Y-72749926D01*
X200634863Y-72437688D01*
X200553763Y-72167297D01*
X200466338Y-71924676D01*
X200368511Y-71695749D01*
X200301712Y-71556264D01*
X200206934Y-71374778D01*
X200114013Y-71223155D01*
X200006859Y-71079957D01*
X199869382Y-70923746D01*
X199685492Y-70733084D01*
X199678833Y-70726347D01*
X199431055Y-70482705D01*
X199211133Y-70284861D01*
X198994905Y-70114216D01*
X198758210Y-69952169D01*
X198476886Y-69780121D01*
X198365503Y-69715307D01*
X197925966Y-69458865D01*
X197543920Y-69229701D01*
X197226376Y-69032060D01*
X197075333Y-68934084D01*
X196913367Y-68826770D01*
X196810892Y-68762349D01*
X196755757Y-68738594D01*
X196735810Y-68753279D01*
X196738900Y-68804176D01*
X196750616Y-68874575D01*
X196776063Y-68990315D01*
X196821330Y-69157355D01*
X196878437Y-69347021D01*
X196905230Y-69430166D01*
X196960331Y-69601655D01*
X197003497Y-69744154D01*
X197028817Y-69837713D01*
X197033000Y-69861440D01*
X197017922Y-69892028D01*
X196966211Y-69900209D01*
X196868148Y-69884118D01*
X196714016Y-69841887D01*
X196494095Y-69771652D01*
X196398000Y-69739507D01*
X196210237Y-69676921D01*
X196054775Y-69626480D01*
X195947328Y-69593187D01*
X195903611Y-69582040D01*
X195903399Y-69582134D01*
X195933134Y-69605597D01*
X196019148Y-69662320D01*
X196145267Y-69741759D01*
X196199733Y-69775334D01*
X196473326Y-69951622D01*
X196676532Y-70104370D01*
X196817306Y-70242144D01*
X196903605Y-70373505D01*
X196943388Y-70507016D01*
X196948333Y-70580973D01*
X196933399Y-70638677D01*
X196873535Y-70663367D01*
X196789583Y-70667625D01*
X196649717Y-70678375D01*
X196486454Y-70706457D01*
X196314407Y-70747080D01*
X196148191Y-70795451D01*
X196002419Y-70846779D01*
X195891703Y-70896272D01*
X195830658Y-70939138D01*
X191444003Y-70939138D01*
X191461566Y-70839757D01*
X191474537Y-70560758D01*
X191457995Y-70280930D01*
X191426498Y-70096105D01*
X191348039Y-69848750D01*
X191227195Y-69570641D01*
X191213636Y-69545166D01*
X195805333Y-69545166D01*
X195826500Y-69566333D01*
X195847666Y-69545166D01*
X195826500Y-69524000D01*
X195805333Y-69545166D01*
X191213636Y-69545166D01*
X191191102Y-69502833D01*
X195720666Y-69502833D01*
X195741833Y-69524000D01*
X195763000Y-69502833D01*
X195741833Y-69481666D01*
X195720666Y-69502833D01*
X191191102Y-69502833D01*
X191079362Y-69292913D01*
X190919936Y-69046697D01*
X190883617Y-68998275D01*
X190774982Y-68867846D01*
X190621158Y-68696187D01*
X190438303Y-68500420D01*
X190242574Y-68297665D01*
X190050130Y-68105045D01*
X189942166Y-68000703D01*
X189145730Y-67300911D01*
X188288822Y-66655973D01*
X187378560Y-66069749D01*
X186422061Y-65546100D01*
X185426442Y-65088888D01*
X184398821Y-64701973D01*
X183346314Y-64389217D01*
X183230752Y-64359863D01*
X183025102Y-64306931D01*
X182845209Y-64257728D01*
X182709331Y-64217450D01*
X182635726Y-64191289D01*
X182632560Y-64189685D01*
X182544936Y-64158641D01*
X182386296Y-64119138D01*
X182169582Y-64073642D01*
X181907737Y-64024620D01*
X181613702Y-63974537D01*
X181300420Y-63925859D01*
X181090291Y-63895823D01*
X179915716Y-63766266D01*
X178736064Y-63699166D01*
X177563942Y-63694217D01*
X176411959Y-63751114D01*
X175292720Y-63869554D01*
X174218833Y-64049231D01*
X174148690Y-64063477D01*
X172987816Y-64340867D01*
X171874615Y-64687051D01*
X170804650Y-65104094D01*
X169773482Y-65594061D01*
X168776671Y-66159017D01*
X167809781Y-66801027D01*
X167078235Y-67352865D01*
X166834710Y-67557086D01*
X166552334Y-67811457D01*
X166246220Y-68100889D01*
X165931482Y-68410291D01*
X165623232Y-68724572D01*
X165336584Y-69028643D01*
X165086651Y-69307413D01*
X164913405Y-69514403D01*
X164229986Y-70429270D01*
X163624247Y-71368048D01*
X163094776Y-72334403D01*
X162640166Y-73331997D01*
X162259004Y-74364497D01*
X161949882Y-75435564D01*
X161711389Y-76548864D01*
X161542116Y-77708061D01*
X161470561Y-78461200D01*
X161453357Y-78763333D01*
X161442191Y-79126910D01*
X161436786Y-79535566D01*
X161436865Y-79972938D01*
X161442153Y-80422660D01*
X161452372Y-80868368D01*
X161467247Y-81293697D01*
X161486501Y-81682283D01*
X161509857Y-82017762D01*
X161534842Y-82266333D01*
X161680752Y-83242369D01*
X161871447Y-84160869D01*
X162111299Y-85038693D01*
X162404680Y-85892702D01*
X162604005Y-86390692D01*
X163000622Y-87260447D01*
X163438267Y-88078409D01*
X163923526Y-88853231D01*
X164462987Y-89593566D01*
X165063238Y-90308069D01*
X165730865Y-91005392D01*
X166472456Y-91694189D01*
X166955166Y-92106570D01*
X167439797Y-92502348D01*
X167924465Y-92884507D01*
X168415122Y-93256820D01*
X168917716Y-93623065D01*
X169438197Y-93987017D01*
X169982515Y-94352450D01*
X170556618Y-94723141D01*
X171166457Y-95102865D01*
X171817981Y-95495396D01*
X172517140Y-95904512D01*
X173269882Y-96333986D01*
X174082158Y-96787595D01*
X174959917Y-97269113D01*
X175845166Y-97747944D01*
X176191680Y-97933680D01*
X176573808Y-98137425D01*
X176985449Y-98355998D01*
X177420500Y-98586218D01*
X177872860Y-98824904D01*
X178336428Y-99068873D01*
X178805102Y-99314945D01*
X179272779Y-99559939D01*
X179733359Y-99800672D01*
X180180740Y-100033964D01*
X180608819Y-100256632D01*
X181011496Y-100465497D01*
X181382669Y-100657376D01*
X181716236Y-100829087D01*
X182006095Y-100977450D01*
X182246145Y-101099284D01*
X182430284Y-101191406D01*
X182552411Y-101250635D01*
X182606423Y-101273790D01*
X182607873Y-101274000D01*
X182661439Y-101293762D01*
X182778637Y-101349452D01*
X182949202Y-101435677D01*
X183162869Y-101547044D01*
X183409371Y-101678158D01*
X183678444Y-101823625D01*
X183959822Y-101978054D01*
X184163666Y-102091425D01*
X184372817Y-102208303D01*
X184572899Y-102319880D01*
X184743778Y-102414946D01*
X184865325Y-102482289D01*
X184883333Y-102492209D01*
X185366085Y-102763189D01*
X185899986Y-103072682D01*
X186470660Y-103411747D01*
X187063734Y-103771440D01*
X187664832Y-104142821D01*
X188259579Y-104516947D01*
X188833599Y-104884876D01*
X189372518Y-105237666D01*
X189861960Y-105566374D01*
X190190763Y-105793715D01*
X190397026Y-105938558D01*
X190741096Y-105802292D01*
X190986319Y-105708750D01*
X191282256Y-105601554D01*
X191612141Y-105486262D01*
X191959212Y-105368430D01*
X192306705Y-105253616D01*
X192637858Y-105147377D01*
X192935905Y-105055269D01*
X193184085Y-104982850D01*
X193329043Y-104944396D01*
X193975652Y-104801293D01*
X194608977Y-104695811D01*
X195253410Y-104625161D01*
X195933344Y-104586559D01*
X196546166Y-104576860D01*
X197643212Y-104616264D01*
X198712225Y-104735007D01*
X199756361Y-104933719D01*
X200778779Y-105213028D01*
X201782635Y-105573563D01*
X201995383Y-105661342D01*
X202204712Y-105752566D01*
X202345917Y-105820125D01*
X202417099Y-105862253D01*
X202416360Y-105877183D01*
X202341803Y-105863147D01*
X202191528Y-105818378D01*
X202149299Y-105804619D01*
X201689620Y-105691293D01*
X201200062Y-105645703D01*
X200676319Y-105668150D01*
X200114080Y-105758935D01*
X199509036Y-105918359D01*
X199234333Y-106008192D01*
X199082656Y-106062769D01*
X198871229Y-106142045D01*
X198618739Y-106238848D01*
X198343873Y-106346004D01*
X198065319Y-106456339D01*
X198027833Y-106471334D01*
X197646435Y-106622288D01*
X197304088Y-106752660D01*
X196989753Y-106864877D01*
X196692390Y-106961368D01*
X196400957Y-107044562D01*
X196104416Y-107116887D01*
X195791724Y-107180772D01*
X195451844Y-107238646D01*
X195073733Y-107292936D01*
X194646352Y-107346073D01*
X194158661Y-107400483D01*
X193599619Y-107458596D01*
X193488739Y-107469821D01*
X192590311Y-107560500D01*
X192891415Y-107793333D01*
X193042333Y-107911138D01*
X193207785Y-108042067D01*
X193372848Y-108174092D01*
X193522601Y-108295187D01*
X193642119Y-108393323D01*
X193716482Y-108456474D01*
X193731000Y-108470024D01*
X193770198Y-108504295D01*
X193860918Y-108580935D01*
X193989407Y-108688390D01*
X194133166Y-108807859D01*
X194538291Y-109147336D01*
X194888832Y-109450110D01*
X195198668Y-109729292D01*
X195481678Y-109997991D01*
X195751741Y-110269316D01*
X196022737Y-110556377D01*
X196253475Y-110810570D01*
X196510082Y-111097306D01*
X196824457Y-111030729D01*
X197469030Y-110911086D01*
X198129293Y-110820063D01*
X198784717Y-110759331D01*
X199414772Y-110730560D01*
X199998929Y-110735422D01*
X200264329Y-110750752D01*
X201047719Y-110834184D01*
X201835902Y-110962568D01*
X202615007Y-111132008D01*
X203371167Y-111338608D01*
X204090511Y-111578470D01*
X204759171Y-111847698D01*
X205363277Y-112142396D01*
X205512459Y-112225220D01*
X205820254Y-112408874D01*
X206128731Y-112607132D01*
X206424391Y-112810211D01*
X206693733Y-113008330D01*
X206923257Y-113191708D01*
X207099462Y-113350564D01*
X207171833Y-113427517D01*
X207256500Y-113526618D01*
X207150666Y-113455231D01*
X207056450Y-113391584D01*
X206926313Y-113303557D01*
X206833166Y-113240500D01*
X206593251Y-113102266D01*
X206308378Y-112975036D01*
X206018095Y-112875048D01*
X205833741Y-112830129D01*
X205599054Y-112801552D01*
X205310137Y-112790622D01*
X204995463Y-112796839D01*
X204683502Y-112819706D01*
X204424682Y-112854790D01*
X204269414Y-112885007D01*
X204050638Y-112931818D01*
X203786920Y-112991031D01*
X203496827Y-113058454D01*
X203198925Y-113129895D01*
X203112348Y-113151104D01*
X202680672Y-113254395D01*
X202313195Y-113334192D01*
X201993260Y-113392109D01*
X201704207Y-113429760D01*
X201429378Y-113448759D01*
X201152114Y-113450720D01*
X200855758Y-113437257D01*
X200523651Y-113409985D01*
X200481822Y-113405979D01*
X200194014Y-113376337D01*
X199866275Y-113339669D01*
X199516486Y-113298240D01*
X199162526Y-113254317D01*
X198822273Y-113210164D01*
X198513606Y-113168047D01*
X198254405Y-113130232D01*
X198071240Y-113100527D01*
X197902981Y-113070835D01*
X197984492Y-113194334D01*
X198089935Y-113366708D01*
X198220325Y-113599593D01*
X198366844Y-113875859D01*
X198520672Y-114178375D01*
X198672990Y-114490011D01*
X198814982Y-114793635D01*
X198865279Y-114905333D01*
X198953633Y-115114324D01*
X199054906Y-115369874D01*
X199156069Y-115637950D01*
X199244094Y-115884517D01*
X199272800Y-115969783D01*
X199365263Y-116251067D01*
X199818381Y-116407396D01*
X200731899Y-116745435D01*
X201572799Y-117105579D01*
X202351533Y-117493560D01*
X203078552Y-117915110D01*
X203764306Y-118375965D01*
X204419248Y-118881856D01*
X204589500Y-119024646D01*
X205362566Y-119717565D01*
X206052314Y-120407367D01*
X206659947Y-121095861D01*
X207186669Y-121784856D01*
X207633686Y-122476163D01*
X208002200Y-123171592D01*
X208293417Y-123872952D01*
X208508540Y-124582053D01*
X208612035Y-125069933D01*
X208641256Y-125252364D01*
X208660186Y-125402761D01*
X208668937Y-125512295D01*
X208667623Y-125572137D01*
X208656360Y-125573458D01*
X208635261Y-125507429D01*
X208607985Y-125383264D01*
X208504971Y-124991641D01*
X208356062Y-124650429D01*
X208148494Y-124335503D01*
X207909959Y-124063810D01*
X207731475Y-123894532D01*
X207533253Y-123736541D01*
X207307344Y-123585965D01*
X207045796Y-123438936D01*
X206740660Y-123291583D01*
X206383986Y-123140037D01*
X205967822Y-122980429D01*
X205484219Y-122808889D01*
X204991666Y-122643381D01*
X204509557Y-122482353D01*
X204098908Y-122339948D01*
X203749593Y-122212158D01*
X203451489Y-122094971D01*
X203194471Y-121984377D01*
X202968412Y-121876365D01*
X202763189Y-121766926D01*
X202726833Y-121746280D01*
X202500059Y-121604016D01*
X202215091Y-121404120D01*
X201874135Y-121148289D01*
X201479401Y-120838221D01*
X201033094Y-120475612D01*
X200555446Y-120077354D01*
X200355385Y-119911012D01*
X200211730Y-119797452D01*
X200118289Y-119732444D01*
X200068873Y-119711760D01*
X200057291Y-119731171D01*
X200058589Y-119737944D01*
X200083126Y-119873791D01*
X200110085Y-120077843D01*
X200137993Y-120333726D01*
X200165374Y-120625068D01*
X200190755Y-120935494D01*
X200212661Y-121248634D01*
X200229618Y-121548112D01*
X200236973Y-121719018D01*
X200264090Y-122457871D01*
X200519005Y-122692685D01*
X200671937Y-122837547D01*
X200855458Y-123017572D01*
X201055475Y-123218288D01*
X201257895Y-123425223D01*
X201448627Y-123623908D01*
X201613578Y-123799870D01*
X201738656Y-123938639D01*
X201781349Y-123988956D01*
X201896838Y-124130259D01*
X202023392Y-124285383D01*
X202070666Y-124343415D01*
X202189671Y-124496873D01*
X202342648Y-124704993D01*
X202517990Y-124951084D01*
X202704090Y-125218458D01*
X202889340Y-125490424D01*
X203062134Y-125750293D01*
X203210863Y-125981375D01*
X203220464Y-125996666D01*
X203617795Y-126668827D01*
X203988905Y-127371921D01*
X204325242Y-128087164D01*
X204618260Y-128795774D01*
X204859407Y-129478967D01*
X204964244Y-129827833D01*
X205076010Y-130266633D01*
X205174192Y-130730837D01*
X205255620Y-131199807D01*
X205317123Y-131652905D01*
X205355531Y-132069494D01*
X205367675Y-132428936D01*
X205367445Y-132452500D01*
X205362960Y-132791166D01*
X205307599Y-132452500D01*
X205235379Y-132084462D01*
X205142893Y-131768626D01*
X205018251Y-131475201D01*
X204849564Y-131174394D01*
X204714549Y-130966539D01*
X204559419Y-130753143D01*
X204378783Y-130536663D01*
X204166274Y-130311326D01*
X203915527Y-130071362D01*
X203620177Y-129811000D01*
X203273858Y-129524469D01*
X202870206Y-129205998D01*
X202402854Y-128849817D01*
X202269640Y-128749960D01*
X201857734Y-128436134D01*
X201475836Y-128133346D01*
X201131144Y-127847817D01*
X200830854Y-127585771D01*
X200582161Y-127353427D01*
X200392262Y-127157008D01*
X200300867Y-127047769D01*
X200188962Y-126898755D01*
X200072176Y-126739580D01*
X200032622Y-126684583D01*
X199954756Y-126583002D01*
X199894306Y-126517765D01*
X199873411Y-126504666D01*
X199850042Y-126542784D01*
X199815456Y-126644011D01*
X199776131Y-126788658D01*
X199765506Y-126832750D01*
X199699267Y-127092438D01*
X199610260Y-127408646D01*
X199505496Y-127758639D01*
X199391982Y-128119677D01*
X199276730Y-128469025D01*
X199166748Y-128783945D01*
X199148867Y-128833000D01*
X198710690Y-129923707D01*
X198208333Y-130987931D01*
X197647719Y-132015547D01*
X197034776Y-132996432D01*
X196375428Y-133920461D01*
X195675602Y-134777510D01*
X195657239Y-134798445D01*
X194973605Y-135542193D01*
X194221353Y-136297922D01*
X193413342Y-137054590D01*
X192562428Y-137801149D01*
X191681471Y-138526555D01*
X190783326Y-139219761D01*
X189880852Y-139869724D01*
X189286000Y-140271679D01*
X188828292Y-140569895D01*
X188421705Y-140828418D01*
X188048913Y-141057383D01*
X187692585Y-141266928D01*
X187335393Y-141467190D01*
X186960010Y-141668304D01*
X186549107Y-141880408D01*
X186449666Y-141930844D01*
X185195912Y-142523745D01*
X183917443Y-143045785D01*
X182608650Y-143498567D01*
X181263921Y-143883694D01*
X179877646Y-144202771D01*
X178444216Y-144457400D01*
X176958019Y-144649183D01*
X176924666Y-144652710D01*
X176628584Y-144677470D01*
X176263460Y-144697674D01*
X175843362Y-144713325D01*
X175382354Y-144724424D01*
X174894503Y-144730974D01*
X174393875Y-144732977D01*
X173894537Y-144730437D01*
X173410553Y-144723355D01*
X172955990Y-144711733D01*
X172544915Y-144695574D01*
X172191392Y-144674881D01*
X171929333Y-144651868D01*
X170704417Y-144503773D01*
X169553289Y-144334114D01*
X168467238Y-144140371D01*
X167437554Y-143920021D01*
X166455528Y-143670542D01*
X165512450Y-143389414D01*
X164599609Y-143074115D01*
X163708295Y-142722123D01*
X162829798Y-142330917D01*
X161955408Y-141897975D01*
X161409500Y-141606371D01*
X160826619Y-141273257D01*
X160225134Y-140904960D01*
X159630076Y-140517733D01*
X159066478Y-140127831D01*
X158594333Y-139778472D01*
X158030205Y-139323484D01*
X157437620Y-138805752D01*
X156828373Y-138237018D01*
X156214261Y-137629023D01*
X155607081Y-136993508D01*
X155018629Y-136342215D01*
X154460702Y-135686884D01*
X154360029Y-135564000D01*
X154252688Y-135433455D01*
X154156263Y-135318459D01*
X154093919Y-135246500D01*
X154009631Y-135146632D01*
X153894159Y-135000427D01*
X153755645Y-134819129D01*
X153602230Y-134613981D01*
X153442056Y-134396229D01*
X153283266Y-134177117D01*
X153134000Y-133967890D01*
X153002401Y-133779792D01*
X152896611Y-133624067D01*
X152824770Y-133511961D01*
X152795021Y-133454718D01*
X152794666Y-133452104D01*
X152773042Y-133406077D01*
X152712806Y-133300316D01*
X152620911Y-133146446D01*
X152504312Y-132956094D01*
X152369961Y-132740883D01*
X152356291Y-132719194D01*
X151927757Y-132030084D01*
X151463880Y-131265511D01*
X150965339Y-130426633D01*
X150432808Y-129514609D01*
X149866964Y-128530601D01*
X149268484Y-127475765D01*
X148638045Y-126351262D01*
X148581981Y-126250666D01*
X147912308Y-125067934D01*
X147262732Y-123961202D01*
X146629462Y-122925244D01*
X146008708Y-121954833D01*
X145396678Y-121044742D01*
X144789583Y-120189745D01*
X144183631Y-119384614D01*
X143575033Y-118624123D01*
X142959996Y-117903046D01*
X142334732Y-117216155D01*
X141695448Y-116558224D01*
X141210043Y-116085900D01*
X140424073Y-115382220D01*
X139624865Y-114754336D01*
X138800487Y-114193388D01*
X138111527Y-113785024D01*
X137201487Y-113320241D01*
X136226572Y-112900849D01*
X135194577Y-112528788D01*
X134113293Y-112206000D01*
X132990515Y-111934426D01*
X131834036Y-111716007D01*
X130651649Y-111552683D01*
X129451147Y-111446397D01*
X128558833Y-111405692D01*
X127573529Y-111403741D01*
X126584797Y-111450098D01*
X125604132Y-111542832D01*
X124643030Y-111680015D01*
X123712985Y-111859715D01*
X122825493Y-112080002D01*
X121992049Y-112338947D01*
X121224147Y-112634619D01*
X121214000Y-112638974D01*
X120470366Y-112993199D01*
X119737610Y-113409278D01*
X119025285Y-113879135D01*
X118342947Y-114394694D01*
X117700148Y-114947879D01*
X117106443Y-115530613D01*
X116571387Y-116134821D01*
X116104533Y-116752427D01*
X115814863Y-117202766D01*
X115361944Y-118044741D01*
X114972806Y-118939165D01*
X114648686Y-119881419D01*
X114390819Y-120866884D01*
X114200444Y-121890941D01*
X114078797Y-122948972D01*
X114030481Y-123866570D01*
X114023144Y-124419918D01*
X114031523Y-124913042D01*
X114057085Y-125369180D01*
X114101298Y-125811567D01*
X114165629Y-126263438D01*
X114191765Y-126420000D01*
X114382267Y-127334032D01*
X114640632Y-128255563D01*
X114968659Y-129188958D01*
X115368143Y-130138584D01*
X115840883Y-131108808D01*
X116388674Y-132103996D01*
X116839055Y-132852077D01*
X116957880Y-133037987D01*
X117072679Y-133209114D01*
X117169991Y-133345891D01*
X117233960Y-133426166D01*
X117309834Y-133518908D01*
X117413565Y-133658700D01*
X117527388Y-133821270D01*
X117574810Y-133891833D01*
X117715759Y-134097334D01*
X117899574Y-134354388D01*
X118115690Y-134648870D01*
X118353540Y-134966657D01*
X118602558Y-135293623D01*
X118852178Y-135615646D01*
X119079087Y-135902666D01*
X119835321Y-136805651D01*
X120660870Y-137712073D01*
X121542048Y-138608645D01*
X122465172Y-139482082D01*
X123416556Y-140319099D01*
X124382516Y-141106410D01*
X124660091Y-141320996D01*
X124987922Y-141565773D01*
X125362051Y-141835714D01*
X125766205Y-142119759D01*
X126184112Y-142406847D01*
X126599498Y-142685917D01*
X126996091Y-142945908D01*
X127357619Y-143175760D01*
X127656561Y-143357778D01*
X127854957Y-143474966D01*
X127836642Y-143191900D01*
X127830082Y-143072504D01*
X127821118Y-142883296D01*
X127810387Y-142639076D01*
X127798522Y-142354645D01*
X127786158Y-142044803D01*
X127775480Y-141765833D01*
X127762818Y-141432717D01*
X127749857Y-141100054D01*
X127737309Y-140785526D01*
X127725886Y-140506816D01*
X127716301Y-140281604D01*
X127710687Y-140157166D01*
X127695070Y-139813224D01*
X127677565Y-139406433D01*
X127659034Y-138958563D01*
X127640340Y-138491387D01*
X127622346Y-138026677D01*
X127605914Y-137586205D01*
X127591906Y-137191742D01*
X127584894Y-136982166D01*
X127575688Y-136726513D01*
X127565522Y-136491294D01*
X127555252Y-136293269D01*
X127545731Y-136149200D01*
X127539006Y-136082583D01*
X127533269Y-135978898D01*
X127558179Y-135952646D01*
X127611103Y-136003408D01*
X127674625Y-136104099D01*
X127718967Y-136179962D01*
X127800951Y-136317627D01*
X127914236Y-136506549D01*
X128052481Y-136736182D01*
X128209346Y-136995983D01*
X128378490Y-137275407D01*
X128431700Y-137363166D01*
X128641267Y-137708942D01*
X128874776Y-138094687D01*
X129117820Y-138496571D01*
X129355994Y-138890765D01*
X129574891Y-139253440D01*
X129711366Y-139479833D01*
X129909823Y-139809044D01*
X130137385Y-140186157D01*
X130379257Y-140586678D01*
X130620644Y-140986114D01*
X130846750Y-141359969D01*
X130977111Y-141575333D01*
X131154200Y-141867818D01*
X131327681Y-142154427D01*
X131489691Y-142422161D01*
X131632365Y-142658022D01*
X131747839Y-142849009D01*
X131828247Y-142982125D01*
X131835110Y-142993500D01*
X131898958Y-143099288D01*
X132001181Y-143268592D01*
X132136369Y-143492460D01*
X132299118Y-143761937D01*
X132484019Y-144068073D01*
X132685665Y-144401913D01*
X132898650Y-144754506D01*
X133087926Y-145067833D01*
X133326649Y-145463038D01*
X133575608Y-145875252D01*
X133826487Y-146290699D01*
X134070967Y-146695603D01*
X134300731Y-147076186D01*
X134507460Y-147418674D01*
X134682838Y-147709289D01*
X134755470Y-147829678D01*
X134919785Y-148102002D01*
X135073309Y-148356319D01*
X135209580Y-148581935D01*
X135322137Y-148768154D01*
X135404516Y-148904282D01*
X135450257Y-148979625D01*
X135452480Y-148983261D01*
X135530460Y-149110666D01*
X135410146Y-149106555D01*
X135356882Y-149100231D01*
X135223827Y-149082460D01*
X135014999Y-149053810D01*
X134734417Y-149014850D01*
X134386100Y-148966149D01*
X133974066Y-148908276D01*
X133502334Y-148841798D01*
X132974922Y-148767286D01*
X132395848Y-148685306D01*
X131769133Y-148596429D01*
X131098793Y-148501222D01*
X130388847Y-148400254D01*
X129643315Y-148294095D01*
X128866215Y-148183311D01*
X128061565Y-148068473D01*
X127233383Y-147950149D01*
X126809029Y-147889472D01*
X125972842Y-147769699D01*
X125159507Y-147652853D01*
X124372947Y-147539513D01*
X123617089Y-147430255D01*
X122895857Y-147325659D01*
X122213176Y-147226302D01*
X121572971Y-147132763D01*
X120979168Y-147045621D01*
X120435690Y-146965453D01*
X119946464Y-146892837D01*
X119515415Y-146828353D01*
X119146466Y-146772577D01*
X118843544Y-146726089D01*
X118610573Y-146689466D01*
X118451479Y-146663287D01*
X118370186Y-146648131D01*
X118360001Y-146644750D01*
X118421415Y-146622184D01*
X118522305Y-146612934D01*
X118675162Y-146601012D01*
X118901358Y-146566612D01*
X119193143Y-146511609D01*
X119542769Y-146437880D01*
X119942485Y-146347300D01*
X120384543Y-146241745D01*
X120861194Y-146123092D01*
X121364687Y-145993215D01*
X121887273Y-145853991D01*
X122421204Y-145707296D01*
X122958730Y-145555006D01*
X123288333Y-145459207D01*
X123920194Y-145272995D01*
X124490811Y-145103385D01*
X124997794Y-144951120D01*
X125438752Y-144816943D01*
X125811295Y-144701600D01*
X126113033Y-144605834D01*
X126341576Y-144530388D01*
X126494533Y-144476006D01*
X126569515Y-144443432D01*
X126577114Y-144435782D01*
X126538700Y-144399524D01*
X126435792Y-144332104D01*
X126265878Y-144232065D01*
X126026442Y-144097950D01*
X125714972Y-143928302D01*
X125532000Y-143829998D01*
X124916164Y-143486659D01*
X124257378Y-143094208D01*
X123572462Y-142663501D01*
X122878234Y-142205391D01*
X122191513Y-141730736D01*
X121529118Y-141250391D01*
X121489166Y-141220619D01*
X121284008Y-141067469D01*
X121109438Y-140936728D01*
X120956954Y-140821463D01*
X120818052Y-140714738D01*
X120684228Y-140609620D01*
X120546979Y-140499174D01*
X120397802Y-140376466D01*
X120228192Y-140234562D01*
X120029648Y-140066526D01*
X119793664Y-139865426D01*
X119511739Y-139624326D01*
X119175368Y-139336292D01*
X119113861Y-139283618D01*
X118629714Y-138867856D01*
X118204148Y-138499431D01*
X117830443Y-138171793D01*
X117501878Y-137878390D01*
X117211732Y-137612669D01*
X116953285Y-137368079D01*
X116719816Y-137138068D01*
X116504604Y-136916085D01*
X116300930Y-136695578D01*
X116102071Y-136469994D01*
X115901308Y-136232783D01*
X115691920Y-135977392D01*
X115580326Y-135838880D01*
X115369776Y-135571908D01*
X115145670Y-135279930D01*
X114915942Y-134973974D01*
X114688531Y-134665068D01*
X114471371Y-134364241D01*
X114272399Y-134082520D01*
X114099552Y-133830933D01*
X113960766Y-133620508D01*
X113863977Y-133462275D01*
X113844170Y-133426355D01*
X113785472Y-133321023D01*
X113692075Y-133159846D01*
X113573591Y-132959125D01*
X113439632Y-132735162D01*
X113319850Y-132537166D01*
X113104309Y-132170508D01*
X112888063Y-131779961D01*
X112679432Y-131382146D01*
X112486733Y-130993682D01*
X112318287Y-130631188D01*
X112182411Y-130311285D01*
X112112029Y-130124166D01*
X111931489Y-129529879D01*
X111778420Y-128864198D01*
X111654053Y-128136227D01*
X111559619Y-127355069D01*
X111496347Y-126529829D01*
X111465470Y-125669610D01*
X111462466Y-125319333D01*
X111495375Y-124036037D01*
X111595618Y-122778262D01*
X111762038Y-121550474D01*
X111993478Y-120357139D01*
X112288779Y-119202724D01*
X112646785Y-118091695D01*
X113066337Y-117028518D01*
X113546277Y-116017659D01*
X114085447Y-115063585D01*
X114146437Y-114965306D01*
X114478252Y-114455661D01*
X114816555Y-113979418D01*
X115174716Y-113520065D01*
X115566103Y-113061094D01*
X116004083Y-112585992D01*
X116408257Y-112171905D01*
X117292442Y-111332976D01*
X118198841Y-110569685D01*
X119137352Y-109875323D01*
X120117875Y-109243182D01*
X121150307Y-108666552D01*
X122244546Y-108138724D01*
X122568666Y-107996481D01*
X123593887Y-107591992D01*
X124679878Y-107231502D01*
X125813749Y-106917266D01*
X126982610Y-106651540D01*
X128173572Y-106436578D01*
X129373743Y-106274637D01*
X130570234Y-106167970D01*
X131750154Y-106118832D01*
X132900615Y-106129480D01*
X133173166Y-106141295D01*
X134613110Y-106243021D01*
X136010967Y-106400742D01*
X137364009Y-106613575D01*
X138669504Y-106880642D01*
X139924724Y-107201061D01*
X141126937Y-107573954D01*
X142273414Y-107998438D01*
X143361426Y-108473634D01*
X144388240Y-108998662D01*
X145351129Y-109572642D01*
X146247362Y-110194692D01*
X146606968Y-110473052D01*
X147023768Y-110823303D01*
X147478670Y-111236388D01*
X147963846Y-111704011D01*
X148471472Y-112217878D01*
X148993722Y-112769694D01*
X149522769Y-113351165D01*
X150050790Y-113953996D01*
X150569957Y-114569892D01*
X151072445Y-115190559D01*
X151148080Y-115286333D01*
X151575493Y-115836472D01*
X151988955Y-116383780D01*
X152393015Y-116935227D01*
X152792222Y-117497782D01*
X153191123Y-118078415D01*
X153594269Y-118684096D01*
X154006207Y-119321794D01*
X154431485Y-119998479D01*
X154874652Y-120721120D01*
X155340257Y-121496688D01*
X155832848Y-122332153D01*
X156356973Y-123234482D01*
X156521560Y-123520166D01*
X157083738Y-124494114D01*
X157609397Y-125397145D01*
X158101193Y-126233400D01*
X158561783Y-127007021D01*
X158993824Y-127722147D01*
X159399973Y-128382921D01*
X159782887Y-128993482D01*
X160145222Y-129557972D01*
X160489636Y-130080531D01*
X160818786Y-130565301D01*
X161135328Y-131016422D01*
X161441919Y-131438035D01*
X161741217Y-131834281D01*
X162035878Y-132209302D01*
X162319466Y-132556328D01*
X162503063Y-132768049D01*
X162735150Y-133022225D01*
X163003656Y-133306727D01*
X163296506Y-133609422D01*
X163601628Y-133918181D01*
X163906947Y-134220872D01*
X164200390Y-134505364D01*
X164469884Y-134759527D01*
X164703355Y-134971228D01*
X164838360Y-135087222D01*
X165093416Y-135298522D01*
X165300460Y-135467652D01*
X165476138Y-135607105D01*
X165637097Y-135729371D01*
X165799983Y-135846943D01*
X165981441Y-135972310D01*
X166198119Y-136117966D01*
X166320166Y-136199183D01*
X167270191Y-136781153D01*
X168280506Y-137305421D01*
X169348629Y-137771100D01*
X170472076Y-138177305D01*
X171648365Y-138523150D01*
X172875013Y-138807749D01*
X174149538Y-139030215D01*
X174321166Y-139054883D01*
X175746751Y-139224682D01*
X177125119Y-139327181D01*
X178460625Y-139362223D01*
X179757627Y-139329654D01*
X181020480Y-139229320D01*
X182253542Y-139061064D01*
X183461168Y-138824733D01*
X183930833Y-138712916D01*
X184419012Y-138587490D01*
X184838317Y-138470672D01*
X185203153Y-138355803D01*
X185527924Y-138236229D01*
X185827037Y-138105292D01*
X186114894Y-137956336D01*
X186405903Y-137782705D01*
X186714467Y-137577742D01*
X187054992Y-137334790D01*
X187291316Y-137160052D01*
X187797769Y-136771195D01*
X188242472Y-136405133D01*
X188640227Y-136048494D01*
X189005837Y-135687906D01*
X189354104Y-135309998D01*
X189409669Y-135246500D01*
X189828382Y-134744467D01*
X190188908Y-134265542D01*
X190505284Y-133788650D01*
X190791550Y-133292720D01*
X191045342Y-132791166D01*
X191472023Y-131825023D01*
X191823442Y-130867775D01*
X192104759Y-129901852D01*
X192321135Y-128909683D01*
X192469109Y-127944000D01*
X192488541Y-127731167D01*
X192503651Y-127450120D01*
X192514441Y-127117203D01*
X192520911Y-126748758D01*
X192523063Y-126361127D01*
X192520898Y-125970653D01*
X192514417Y-125593679D01*
X192503620Y-125246548D01*
X192488509Y-124945601D01*
X192469085Y-124707183D01*
X192468904Y-124705500D01*
X192310098Y-123560347D01*
X192085171Y-122467087D01*
X191793410Y-121423851D01*
X191434102Y-120428770D01*
X191006534Y-119479975D01*
X190509992Y-118575597D01*
X189943763Y-117713767D01*
X189649854Y-117318333D01*
X189104154Y-116657416D01*
X188477428Y-115982323D01*
X187771792Y-115294879D01*
X186989359Y-114596911D01*
X186132245Y-113890246D01*
X185202564Y-113176712D01*
X184202431Y-112458134D01*
X183363435Y-111887782D01*
X183143263Y-111740296D01*
X182943946Y-111604360D01*
X182777618Y-111488442D01*
X182656411Y-111401011D01*
X182592460Y-111350537D01*
X182589277Y-111347435D01*
X182533850Y-111305003D01*
X182417067Y-111225901D01*
X182250016Y-111117281D01*
X182043786Y-110986295D01*
X181809465Y-110840093D01*
X181657943Y-110746782D01*
X180885155Y-110281690D01*
X180062744Y-109802263D01*
X179212891Y-109320842D01*
X178357775Y-108849769D01*
X177519576Y-108401385D01*
X176720474Y-107988031D01*
X176501333Y-107877535D01*
X175146311Y-107195987D01*
X173862876Y-106545079D01*
X172651491Y-105925061D01*
X171512619Y-105336184D01*
X170446721Y-104778700D01*
X169454262Y-104252858D01*
X168535703Y-103758909D01*
X167691507Y-103297105D01*
X166922136Y-102867696D01*
X166228054Y-102470932D01*
X165609723Y-102107065D01*
X165067606Y-101776346D01*
X164602164Y-101479024D01*
X164224666Y-101222968D01*
X164066509Y-101114539D01*
X163918566Y-101021223D01*
X163765552Y-100935373D01*
X163592180Y-100849337D01*
X163383165Y-100755468D01*
X163123219Y-100646114D01*
X162848833Y-100534482D01*
X161512616Y-99991281D01*
X160253620Y-99470154D01*
X159067878Y-98969151D01*
X157951424Y-98486324D01*
X156900291Y-98019722D01*
X155910513Y-97567399D01*
X154978123Y-97127403D01*
X154099155Y-96697785D01*
X153269643Y-96276598D01*
X152485620Y-95861891D01*
X151743119Y-95451715D01*
X151038175Y-95044121D01*
X150366820Y-94637161D01*
X149725089Y-94228884D01*
X149109014Y-93817342D01*
X148933471Y-93696333D01*
X148591850Y-93454376D01*
X148246774Y-93199777D01*
X147888257Y-92924627D01*
X147506312Y-92621014D01*
X147090954Y-92281027D01*
X146632196Y-91896756D01*
X146233000Y-91557074D01*
X145407241Y-90844226D01*
X144646868Y-90174440D01*
X143947287Y-89543116D01*
X143303906Y-88945652D01*
X142712134Y-88377449D01*
X142167377Y-87833907D01*
X141665045Y-87310425D01*
X141200544Y-86802402D01*
X140769282Y-86305239D01*
X140366668Y-85814335D01*
X139988108Y-85325089D01*
X139916833Y-85229666D01*
X139276070Y-84313216D01*
X138717934Y-83399502D01*
X138240669Y-82484380D01*
X137842515Y-81563701D01*
X137521715Y-80633320D01*
X137276510Y-79689091D01*
X137105143Y-78726866D01*
X137080702Y-78541000D01*
X137059354Y-78307733D01*
X137043310Y-78004902D01*
X137032479Y-77647438D01*
X137026769Y-77250271D01*
X137026089Y-76828330D01*
X137030346Y-76396547D01*
X137039449Y-75969852D01*
X137053306Y-75563175D01*
X137071825Y-75191447D01*
X137094914Y-74869598D01*
X137103874Y-74773333D01*
X137309659Y-73081049D01*
X137588919Y-71372647D01*
X137938196Y-69662876D01*
X138354029Y-67966487D01*
X138832958Y-66298229D01*
X139371525Y-64672852D01*
X139653702Y-63902989D01*
X139750366Y-63652366D01*
X139857077Y-63383660D01*
X139968889Y-63108511D01*
X140080857Y-62838557D01*
X140188035Y-62585435D01*
X140285479Y-62360783D01*
X140368242Y-62176241D01*
X140431380Y-62043446D01*
X140469948Y-61974036D01*
X140476293Y-61967112D01*
X140533053Y-61968900D01*
X140632207Y-61998859D01*
X140657833Y-62009079D01*
X140942186Y-62094761D01*
X141262287Y-62137324D01*
X141578705Y-62132597D01*
X141687273Y-62117972D01*
X141983032Y-62047438D01*
X142247924Y-61938990D01*
X142501030Y-61781750D01*
X142761427Y-61564839D01*
X142910171Y-61420699D01*
X143133896Y-61183094D01*
X143303069Y-60970975D01*
X143432443Y-60761194D01*
X143536771Y-60530605D01*
X143609651Y-60323277D01*
X143702801Y-60033721D01*
X143870745Y-60196277D01*
X143984401Y-60319950D01*
X144083357Y-60450442D01*
X144117973Y-60507000D01*
X144168553Y-60592471D01*
X144193149Y-60605711D01*
X144199129Y-60567600D01*
X144184141Y-60450017D01*
X144140869Y-60287434D01*
X144077506Y-60100404D01*
X144002245Y-59909478D01*
X143923280Y-59735209D01*
X143848803Y-59598149D01*
X143787008Y-59518850D01*
X143778614Y-59512752D01*
X143747787Y-59455246D01*
X143735333Y-59357738D01*
X143735333Y-59229473D01*
X143867986Y-59341093D01*
X143994673Y-59434038D01*
X144141917Y-59524097D01*
X144174759Y-59541543D01*
X144292424Y-59610344D01*
X144381362Y-59677757D01*
X144400593Y-59698269D01*
X144440959Y-59741949D01*
X144452444Y-59715550D01*
X144452723Y-59702666D01*
X144422777Y-59572217D01*
X144341585Y-59409045D01*
X144224239Y-59233040D01*
X144085827Y-59064094D01*
X143941437Y-58922097D01*
X143806160Y-58826942D01*
X143778648Y-58814073D01*
X143673297Y-58737368D01*
X143599909Y-58598787D01*
X143595925Y-58587355D01*
X143535991Y-58411500D01*
X143752079Y-58404074D01*
X143924966Y-58396741D01*
X144099803Y-58387244D01*
X144151633Y-58383869D01*
X144335099Y-58371090D01*
X144221111Y-58280199D01*
X144018940Y-58168225D01*
X143763163Y-58105628D01*
X143580636Y-58094000D01*
X143456382Y-58088589D01*
X143371378Y-58061297D01*
X143293115Y-57995537D01*
X143217262Y-57908569D01*
X143062261Y-57723139D01*
X143231013Y-57696155D01*
X143385364Y-57656088D01*
X143539890Y-57593752D01*
X143556338Y-57585252D01*
X143676359Y-57531175D01*
X143779274Y-57501470D01*
X143798206Y-57499638D01*
X143842544Y-57491806D01*
X143819151Y-57465153D01*
X143756500Y-57428658D01*
X143604063Y-57379105D01*
X143408196Y-57360028D01*
X143204375Y-57371209D01*
X143028076Y-57412429D01*
X142980337Y-57433441D01*
X142839174Y-57507209D01*
X142620504Y-57333083D01*
X142492367Y-57234583D01*
X142320218Y-57107039D01*
X142129818Y-56969367D01*
X141999666Y-56877234D01*
X141629169Y-56613662D01*
X141323554Y-56386379D01*
X141075007Y-56188269D01*
X140875716Y-56012215D01*
X140717870Y-55851099D01*
X140593655Y-55697806D01*
X140495259Y-55545217D01*
X140454797Y-55469919D01*
X140349546Y-55206849D01*
X140271024Y-54900132D01*
X140228157Y-54588895D01*
X140222867Y-54453333D01*
X140223532Y-54302286D01*
X140230442Y-54179253D01*
X140250385Y-54072870D01*
X140290149Y-53971772D01*
X140356523Y-53864593D01*
X140456294Y-53739970D01*
X140596250Y-53586537D01*
X140783180Y-53392929D01*
X140969757Y-53202851D01*
X141665725Y-52494766D01*
X141883047Y-52520504D01*
X142095141Y-52567394D01*
X142300820Y-52651499D01*
X142490354Y-52763326D01*
X142654016Y-52893375D01*
X142782075Y-53032152D01*
X142864804Y-53170160D01*
X142892473Y-53297901D01*
X142855353Y-53405881D01*
X142823624Y-53438613D01*
X142748036Y-53482975D01*
X142624911Y-53538087D01*
X142537874Y-53571393D01*
X142317166Y-53650193D01*
X142581750Y-53632444D01*
X142846333Y-53614695D01*
X142846333Y-53731119D01*
X142818919Y-53846783D01*
X142729355Y-53948951D01*
X142571072Y-54047974D01*
X142495856Y-54092088D01*
X142493760Y-54111349D01*
X142528833Y-54114247D01*
X142620299Y-54092840D01*
X142734565Y-54040150D01*
X142752106Y-54029841D01*
X142851867Y-53974916D01*
X142922484Y-53946441D01*
X142930768Y-53945333D01*
X142971608Y-53973328D01*
X143064332Y-54051849D01*
X143199835Y-54172699D01*
X143369008Y-54327683D01*
X143562744Y-54508603D01*
X143681162Y-54620655D01*
X143882729Y-54810520D01*
X144063053Y-54976998D01*
X144213501Y-55112397D01*
X144325441Y-55209026D01*
X144390239Y-55259191D01*
X144402899Y-55263791D01*
X144399019Y-55214927D01*
X144382150Y-55094237D01*
X144354119Y-54913253D01*
X144316756Y-54683508D01*
X144271889Y-54416536D01*
X144230141Y-54174250D01*
X144045985Y-53116895D01*
X143513774Y-52250531D01*
X142981563Y-51384166D01*
X143130904Y-51257166D01*
X143399698Y-51042549D01*
X143726994Y-50803685D01*
X144094671Y-50552348D01*
X144484607Y-50300308D01*
X144878680Y-50059338D01*
X145258769Y-49841209D01*
X145546082Y-49688264D01*
X145706458Y-49604708D01*
X145832469Y-49535539D01*
X145909076Y-49489237D01*
X145925037Y-49474592D01*
X145881621Y-49480598D01*
X145767795Y-49505502D01*
X145594960Y-49546404D01*
X145374520Y-49600404D01*
X145117877Y-49664602D01*
X144836432Y-49736097D01*
X144541589Y-49811990D01*
X144244748Y-49889380D01*
X143957313Y-49965367D01*
X143690685Y-50037051D01*
X143456268Y-50101532D01*
X143417833Y-50112302D01*
X143102225Y-50202715D01*
X142737599Y-50309949D01*
X142342736Y-50428249D01*
X141936420Y-50551864D01*
X141537434Y-50675038D01*
X141164558Y-50792019D01*
X140836577Y-50897051D01*
X140584639Y-50980204D01*
X140392291Y-51043369D01*
X140230842Y-51093102D01*
X140116057Y-51124783D01*
X140063699Y-51133796D01*
X140062408Y-51133186D01*
X140083848Y-51099833D01*
X140160544Y-51028824D01*
X140278407Y-50931082D01*
X140423352Y-50817532D01*
X140581290Y-50699099D01*
X140738135Y-50586705D01*
X140879799Y-50491275D01*
X140934070Y-50457245D01*
X141281132Y-50266059D01*
X141624864Y-50113533D01*
X141950907Y-50004419D01*
X142244903Y-49943469D01*
X142492494Y-49935432D01*
X142506705Y-49936862D01*
X142617667Y-49946630D01*
X142656623Y-49940141D01*
X142635303Y-49913636D01*
X142618603Y-49900996D01*
X142537500Y-49864198D01*
X142383967Y-49815883D01*
X142169034Y-49758767D01*
X141903734Y-49695565D01*
X141599095Y-49628995D01*
X141266151Y-49561773D01*
X141153000Y-49540108D01*
X140752411Y-49481771D01*
X140286038Y-49443171D01*
X139770275Y-49423660D01*
X139221512Y-49422591D01*
X138656144Y-49439316D01*
X138090561Y-49473187D01*
X137541157Y-49523558D01*
X137024324Y-49589780D01*
X136556455Y-49671207D01*
X136284666Y-49732406D01*
X135665757Y-49922348D01*
X135084798Y-50170149D01*
X134549212Y-50470727D01*
X134066421Y-50818999D01*
X133643848Y-51209881D01*
X133288915Y-51638291D01*
X133117198Y-51901576D01*
X133024091Y-52048237D01*
X132944222Y-52139686D01*
X132855033Y-52197435D01*
X132772682Y-52230123D01*
X132391558Y-52403176D01*
X132019470Y-52652213D01*
X131663931Y-52968563D01*
X131332456Y-53343557D01*
X131032558Y-53768525D01*
X130771751Y-54234798D01*
X130557548Y-54733706D01*
X130525743Y-54822773D01*
X130390401Y-55213380D01*
X129199450Y-55821906D01*
X128560569Y-56151315D01*
X127881268Y-56506996D01*
X127177475Y-56880332D01*
X126465119Y-57262710D01*
X125760129Y-57645513D01*
X125078433Y-58020125D01*
X124435960Y-58377932D01*
X123848639Y-58710318D01*
X123672920Y-58811071D01*
X123452127Y-58935372D01*
X123293850Y-59017425D01*
X123189542Y-59061011D01*
X123130656Y-59069909D01*
X123112664Y-59058844D01*
X123071241Y-58969377D01*
X123016860Y-58818449D01*
X122955902Y-58627024D01*
X122894750Y-58416069D01*
X122839785Y-58206549D01*
X122799638Y-58030500D01*
X122758988Y-57770404D01*
X122728715Y-57451455D01*
X122709649Y-57098925D01*
X122702619Y-56738089D01*
X122708452Y-56394218D01*
X122727978Y-56092587D01*
X122734185Y-56034477D01*
X122834284Y-55436099D01*
X122988140Y-54889911D01*
X123193618Y-54399675D01*
X123448580Y-53969149D01*
X123750892Y-53602092D01*
X124098418Y-53302264D01*
X124388088Y-53123438D01*
X124740164Y-52967054D01*
X125110752Y-52861738D01*
X125519459Y-52803224D01*
X125934166Y-52787050D01*
X126252740Y-52793251D01*
X126505348Y-52813105D01*
X126709827Y-52848204D01*
X126759666Y-52860652D01*
X127033002Y-52952164D01*
X127339838Y-53084598D01*
X127650032Y-53243032D01*
X127933446Y-53412544D01*
X128078231Y-53513459D01*
X128359629Y-53724267D01*
X128382311Y-53610859D01*
X128394274Y-53522607D01*
X128408858Y-53372815D01*
X128423992Y-53184480D01*
X128434540Y-53030490D01*
X128464088Y-52563529D01*
X128257461Y-52476469D01*
X127712255Y-52282961D01*
X127131565Y-52142880D01*
X126533591Y-52057839D01*
X125936534Y-52029448D01*
X125358594Y-52059319D01*
X124817973Y-52149063D01*
X124748833Y-52165855D01*
X124247727Y-52335302D01*
X123780711Y-52579017D01*
X123351427Y-52892265D01*
X122963520Y-53270311D01*
X122620635Y-53708419D01*
X122326416Y-54201854D01*
X122084507Y-54745881D01*
X121898552Y-55335765D01*
X121772197Y-55966769D01*
X121760751Y-56048478D01*
X121739236Y-56290124D01*
X121728833Y-56601901D01*
X121729853Y-56969965D01*
X121735154Y-57183833D01*
X121757590Y-57638326D01*
X121796582Y-58035571D01*
X121856636Y-58402121D01*
X121942257Y-58764532D01*
X122057950Y-59149360D01*
X122079902Y-59215833D01*
X122137305Y-59389999D01*
X122182264Y-59530605D01*
X122209481Y-59620805D01*
X122215015Y-59645306D01*
X122168678Y-59676318D01*
X122062738Y-59740016D01*
X121909441Y-59829499D01*
X121721032Y-59937865D01*
X121509758Y-60058215D01*
X121287863Y-60183647D01*
X121067594Y-60307260D01*
X120861197Y-60422154D01*
X120680917Y-60521428D01*
X120538999Y-60598180D01*
X120447690Y-60645511D01*
X120418982Y-60657426D01*
X120401950Y-60614323D01*
X120361394Y-60499395D01*
X120300175Y-60321266D01*
X120221155Y-60088561D01*
X120127197Y-59809903D01*
X120021162Y-59493918D01*
X119905912Y-59149230D01*
X119784309Y-58784463D01*
X119659215Y-58408242D01*
X119533492Y-58029192D01*
X119410002Y-57655936D01*
X119291607Y-57297100D01*
X119181170Y-56961307D01*
X119081551Y-56657183D01*
X118995613Y-56393352D01*
X118926217Y-56178437D01*
X118876227Y-56021065D01*
X118848504Y-55929858D01*
X118843748Y-55910495D01*
X118876820Y-55874138D01*
X118971838Y-55793109D01*
X119122173Y-55672389D01*
X119321193Y-55516960D01*
X119562269Y-55331802D01*
X119838769Y-55121899D01*
X120144063Y-54892230D01*
X120471520Y-54647779D01*
X120814509Y-54393527D01*
X121166400Y-54134454D01*
X121520562Y-53875544D01*
X121870365Y-53621776D01*
X122209178Y-53378134D01*
X122315081Y-53302488D01*
X124031069Y-52105738D01*
X125736329Y-50969881D01*
X127426798Y-49897337D01*
X129098416Y-48890530D01*
X130747119Y-47951881D01*
X132368845Y-47083810D01*
X133959534Y-46288741D01*
X134549000Y-46009068D01*
X135115875Y-45747270D01*
X135674518Y-45495301D01*
X136218873Y-45255561D01*
X136742886Y-45030454D01*
X137240504Y-44822383D01*
X137705672Y-44633749D01*
X138132336Y-44466955D01*
X138514442Y-44324404D01*
X138845936Y-44208498D01*
X139120762Y-44121638D01*
X139332868Y-44066229D01*
X139476200Y-44044671D01*
X139499123Y-44044771D01*
X139571916Y-44038200D01*
X139673885Y-44009352D01*
X139814644Y-43954227D01*
X140003809Y-43868827D01*
X140250998Y-43749153D01*
X140454500Y-43647484D01*
X140698761Y-43523393D01*
X140921329Y-43408392D01*
X141109589Y-43309152D01*
X141250927Y-43232347D01*
X141332728Y-43184650D01*
X141343500Y-43177225D01*
X141402272Y-43129834D01*
X141393893Y-43120447D01*
X141343500Y-43130199D01*
X141250147Y-43146526D01*
X141078484Y-43172779D01*
X140834193Y-43208201D01*
X140522954Y-43252035D01*
X140150447Y-43303527D01*
X139722353Y-43361918D01*
X139244353Y-43426454D01*
X138722127Y-43496377D01*
X138161356Y-43570932D01*
X137567721Y-43649363D01*
X136946903Y-43730912D01*
X136304581Y-43814824D01*
X135646437Y-43900342D01*
X134978152Y-43986710D01*
X134305405Y-44073173D01*
X133633878Y-44158973D01*
X133236666Y-44209470D01*
X131912467Y-44377837D01*
X130668022Y-44536830D01*
X129499010Y-44687070D01*
X128401113Y-44829177D01*
X127370008Y-44963769D01*
X126401376Y-45091467D01*
X125490895Y-45212889D01*
X124634246Y-45328655D01*
X123827108Y-45439384D01*
X123065160Y-45545696D01*
X122344081Y-45648210D01*
X121659552Y-45747546D01*
X121007252Y-45844323D01*
X120382860Y-45939160D01*
X119782056Y-46032677D01*
X119200519Y-46125493D01*
X118633929Y-46218228D01*
X118077965Y-46311501D01*
X117528306Y-46405932D01*
X116980633Y-46502140D01*
X116430624Y-46600743D01*
X115964666Y-46685689D01*
X113696643Y-47122864D01*
X111505352Y-47588101D01*
X109387140Y-48082881D01*
X107338353Y-48608686D01*
X105355338Y-49166996D01*
X103434440Y-49759294D01*
X101572008Y-50387061D01*
X99764386Y-51051778D01*
X98007922Y-51754925D01*
X96298961Y-52497986D01*
X94633850Y-53282440D01*
X93008936Y-54109770D01*
X91420565Y-54981457D01*
X89865083Y-55898981D01*
X88338837Y-56863825D01*
X86838173Y-57877469D01*
X85359437Y-58941395D01*
X84913223Y-59275375D01*
X84027361Y-59958222D01*
X83157837Y-60657164D01*
X82293193Y-61382108D01*
X81421970Y-62142964D01*
X80532709Y-62949639D01*
X79613951Y-63812043D01*
X79137707Y-64269388D01*
X78103582Y-65269500D01*
X78724957Y-64433416D01*
X78948562Y-64132511D01*
X79202746Y-63790392D01*
X79467652Y-63433792D01*
X79723419Y-63089446D01*
X79950188Y-62784087D01*
X79967145Y-62761250D01*
X80656530Y-61839652D01*
X81307081Y-60984752D01*
X81923852Y-60190844D01*
X82511893Y-59452220D01*
X83076258Y-58763172D01*
X83621996Y-58117993D01*
X84154161Y-57510976D01*
X84677803Y-56936413D01*
X85197975Y-56388598D01*
X85719728Y-55861822D01*
X86248114Y-55350379D01*
X86788185Y-54848560D01*
X87344993Y-54350660D01*
X87635385Y-54097825D01*
X88989811Y-52978468D01*
X90419246Y-51893673D01*
X91920657Y-50845172D01*
X93491012Y-49834695D01*
X95127277Y-48863974D01*
X96826420Y-47934739D01*
X98585408Y-47048722D01*
X100401208Y-46207654D01*
X102270787Y-45413266D01*
X104094889Y-44703057D01*
X106218953Y-43944253D01*
X108363075Y-43243716D01*
X110533645Y-42599920D01*
X112737052Y-42011338D01*
X114979685Y-41476444D01*
X117267934Y-40993713D01*
X119608187Y-40561618D01*
X122006835Y-40178633D01*
X124410166Y-39850758D01*
X125235440Y-39749489D01*
X126057243Y-39653415D01*
X126881652Y-39562051D01*
X127714746Y-39474915D01*
X128562601Y-39391523D01*
X129431297Y-39311392D01*
X130326911Y-39234039D01*
X131255520Y-39158981D01*
X132223203Y-39085734D01*
X133236037Y-39013815D01*
X134300101Y-38942740D01*
X135421471Y-38872028D01*
X136606226Y-38801194D01*
X137860444Y-38729755D01*
X139190203Y-38657228D01*
X139883000Y-38620526D01*
X140146008Y-38607028D01*
X140484728Y-38590138D01*
X140890289Y-38570272D01*
X141353822Y-38547843D01*
X141866456Y-38523264D01*
X142419323Y-38496951D01*
X143003552Y-38469316D01*
X143610274Y-38440775D01*
X144230618Y-38411740D01*
X144855714Y-38382626D01*
X145476694Y-38353848D01*
X146084687Y-38325818D01*
X146670823Y-38298950D01*
X147226232Y-38273660D01*
X147742045Y-38250361D01*
X148209392Y-38229466D01*
X148619403Y-38211390D01*
X148963209Y-38196547D01*
X149005833Y-38194738D01*
X149348833Y-38182425D01*
X149766606Y-38171100D01*
X150249261Y-38160812D01*
X150786909Y-38151606D01*
X151369660Y-38143530D01*
X151987625Y-38136630D01*
X152630914Y-38130953D01*
X153289637Y-38126546D01*
X153953906Y-38123457D01*
X154613831Y-38121730D01*
X155259522Y-38121414D01*
X155881089Y-38122555D01*
G36*
X205372666Y-132833500D02*
G01*
X205351500Y-132854666D01*
X205330333Y-132833500D01*
X205351500Y-132812333D01*
X205372666Y-132833500D01*
X205372666Y-132833500D01*
G37*
X205372666Y-132833500D02*
X205351500Y-132854666D01*
X205330333Y-132833500D01*
X205351500Y-132812333D01*
X205372666Y-132833500D01*
G36*
X207320000Y-113529500D02*
G01*
X207298833Y-113550666D01*
X207277666Y-113529500D01*
X207298833Y-113508333D01*
X207320000Y-113529500D01*
X207320000Y-113529500D01*
G37*
X207320000Y-113529500D02*
X207298833Y-113550666D01*
X207277666Y-113529500D01*
X207298833Y-113508333D01*
X207320000Y-113529500D01*
G36*
X146487000Y-81398500D02*
G01*
X146465833Y-81419666D01*
X146444666Y-81398500D01*
X146465833Y-81377333D01*
X146487000Y-81398500D01*
X146487000Y-81398500D01*
G37*
X146487000Y-81398500D02*
X146465833Y-81419666D01*
X146444666Y-81398500D01*
X146465833Y-81377333D01*
X146487000Y-81398500D01*
G36*
X127352333Y-78816166D02*
G01*
X127331166Y-78837333D01*
X127310000Y-78816166D01*
X127331166Y-78795000D01*
X127352333Y-78816166D01*
X127352333Y-78816166D01*
G37*
X127352333Y-78816166D02*
X127331166Y-78837333D01*
X127310000Y-78816166D01*
X127331166Y-78795000D01*
X127352333Y-78816166D01*
G36*
X127435703Y-78604500D02*
G01*
X127414625Y-78674069D01*
X127394666Y-78710333D01*
X127361122Y-78744217D01*
X127353629Y-78731500D01*
X127374707Y-78661930D01*
X127394666Y-78625666D01*
X127428210Y-78591782D01*
X127435703Y-78604500D01*
X127435703Y-78604500D01*
G37*
X127435703Y-78604500D02*
X127414625Y-78674069D01*
X127394666Y-78710333D01*
X127361122Y-78744217D01*
X127353629Y-78731500D01*
X127374707Y-78661930D01*
X127394666Y-78625666D01*
X127428210Y-78591782D01*
X127435703Y-78604500D01*
G36*
X137319490Y-58191016D02*
G01*
X137336471Y-58192812D01*
X137603262Y-58238099D01*
X137841237Y-58318403D01*
X138056929Y-58440458D01*
X138256875Y-58611001D01*
X138447607Y-58836765D01*
X138635660Y-59124487D01*
X138827568Y-59480900D01*
X139029867Y-59912740D01*
X139050571Y-59959540D01*
X139200426Y-60296258D01*
X139324654Y-60566625D01*
X139429343Y-60782797D01*
X139520579Y-60956926D01*
X139604447Y-61101166D01*
X139681772Y-61220023D01*
X139807822Y-61403879D01*
X139662008Y-61558689D01*
X138933905Y-62342998D01*
X138181710Y-63174581D01*
X137416353Y-64040534D01*
X136648764Y-64927951D01*
X135889872Y-65823927D01*
X135150609Y-66715555D01*
X134441903Y-67589931D01*
X133774685Y-68434149D01*
X133159885Y-69235304D01*
X133155144Y-69241589D01*
X132304852Y-70390976D01*
X131517083Y-71502725D01*
X130784977Y-72587723D01*
X130101674Y-73656853D01*
X129460313Y-74721002D01*
X128854034Y-75791055D01*
X128275978Y-76877895D01*
X128001308Y-77419166D01*
X127860055Y-77701100D01*
X127732839Y-77953669D01*
X127624027Y-78168304D01*
X127537992Y-78336439D01*
X127479101Y-78449507D01*
X127451726Y-78498941D01*
X127450678Y-78498666D01*
X127496851Y-78357269D01*
X127566599Y-78144850D01*
X127656834Y-77870746D01*
X127764468Y-77544292D01*
X127886412Y-77174825D01*
X128019578Y-76771682D01*
X128160877Y-76344199D01*
X128307220Y-75901712D01*
X128455518Y-75453558D01*
X128602685Y-75009074D01*
X128745630Y-74577594D01*
X128881266Y-74168457D01*
X129006503Y-73790998D01*
X129118254Y-73454553D01*
X129213429Y-73168460D01*
X129278213Y-72974166D01*
X129566114Y-72124374D01*
X129840141Y-71343487D01*
X130106147Y-70618077D01*
X130369986Y-69934712D01*
X130637508Y-69279963D01*
X130914568Y-68640399D01*
X131207017Y-68002589D01*
X131520708Y-67353104D01*
X131861494Y-66678512D01*
X132235227Y-65965385D01*
X132647761Y-65200290D01*
X132737184Y-65036666D01*
X132883685Y-64770721D01*
X133050178Y-64471161D01*
X133230447Y-64148938D01*
X133418273Y-63815005D01*
X133607441Y-63480313D01*
X133791732Y-63155814D01*
X133964930Y-62852460D01*
X134120817Y-62581202D01*
X134253176Y-62352993D01*
X134355791Y-62178784D01*
X134413795Y-62083242D01*
X134469784Y-62046121D01*
X134583345Y-62001539D01*
X134720393Y-61961686D01*
X135063469Y-61851231D01*
X135422086Y-61692200D01*
X135758823Y-61502074D01*
X135881991Y-61419106D01*
X136149006Y-61228568D01*
X136350600Y-61464536D01*
X136495110Y-61620986D01*
X136665667Y-61787655D01*
X136796873Y-61904128D01*
X137041552Y-62107752D01*
X136745354Y-62217543D01*
X136591498Y-62271254D01*
X136462365Y-62310378D01*
X136383724Y-62327178D01*
X136379611Y-62327333D01*
X136337737Y-62342541D01*
X136350283Y-62364472D01*
X136400566Y-62382118D01*
X136516549Y-62410727D01*
X136682068Y-62447177D01*
X136880956Y-62488347D01*
X137097047Y-62531112D01*
X137314176Y-62572351D01*
X137516176Y-62608940D01*
X137686881Y-62637757D01*
X137810125Y-62655679D01*
X137869743Y-62659583D01*
X137872511Y-62658516D01*
X137860833Y-62617138D01*
X137819080Y-62513570D01*
X137753759Y-62361977D01*
X137671374Y-62176528D01*
X137578431Y-61971387D01*
X137481436Y-61760722D01*
X137386894Y-61558698D01*
X137301311Y-61379483D01*
X137231192Y-61237243D01*
X137183043Y-61146144D01*
X137166376Y-61120833D01*
X137147254Y-61133727D01*
X137140021Y-61223125D01*
X137144575Y-61391897D01*
X137152292Y-61523000D01*
X137181754Y-61967500D01*
X136941004Y-61734666D01*
X136611233Y-61363284D01*
X136339301Y-60947934D01*
X136132914Y-60503569D01*
X135999777Y-60045142D01*
X135966438Y-59843237D01*
X135938876Y-59623975D01*
X136410840Y-58922607D01*
X136580983Y-58670999D01*
X136714247Y-58481486D01*
X136820991Y-58345900D01*
X136911574Y-58256074D01*
X136996356Y-58203841D01*
X137085696Y-58181032D01*
X137189954Y-58179480D01*
X137319490Y-58191016D01*
X137319490Y-58191016D01*
G37*
X137319490Y-58191016D02*
X137336471Y-58192812D01*
X137603262Y-58238099D01*
X137841237Y-58318403D01*
X138056929Y-58440458D01*
X138256875Y-58611001D01*
X138447607Y-58836765D01*
X138635660Y-59124487D01*
X138827568Y-59480900D01*
X139029867Y-59912740D01*
X139050571Y-59959540D01*
X139200426Y-60296258D01*
X139324654Y-60566625D01*
X139429343Y-60782797D01*
X139520579Y-60956926D01*
X139604447Y-61101166D01*
X139681772Y-61220023D01*
X139807822Y-61403879D01*
X139662008Y-61558689D01*
X138933905Y-62342998D01*
X138181710Y-63174581D01*
X137416353Y-64040534D01*
X136648764Y-64927951D01*
X135889872Y-65823927D01*
X135150609Y-66715555D01*
X134441903Y-67589931D01*
X133774685Y-68434149D01*
X133159885Y-69235304D01*
X133155144Y-69241589D01*
X132304852Y-70390976D01*
X131517083Y-71502725D01*
X130784977Y-72587723D01*
X130101674Y-73656853D01*
X129460313Y-74721002D01*
X128854034Y-75791055D01*
X128275978Y-76877895D01*
X128001308Y-77419166D01*
X127860055Y-77701100D01*
X127732839Y-77953669D01*
X127624027Y-78168304D01*
X127537992Y-78336439D01*
X127479101Y-78449507D01*
X127451726Y-78498941D01*
X127450678Y-78498666D01*
X127496851Y-78357269D01*
X127566599Y-78144850D01*
X127656834Y-77870746D01*
X127764468Y-77544292D01*
X127886412Y-77174825D01*
X128019578Y-76771682D01*
X128160877Y-76344199D01*
X128307220Y-75901712D01*
X128455518Y-75453558D01*
X128602685Y-75009074D01*
X128745630Y-74577594D01*
X128881266Y-74168457D01*
X129006503Y-73790998D01*
X129118254Y-73454553D01*
X129213429Y-73168460D01*
X129278213Y-72974166D01*
X129566114Y-72124374D01*
X129840141Y-71343487D01*
X130106147Y-70618077D01*
X130369986Y-69934712D01*
X130637508Y-69279963D01*
X130914568Y-68640399D01*
X131207017Y-68002589D01*
X131520708Y-67353104D01*
X131861494Y-66678512D01*
X132235227Y-65965385D01*
X132647761Y-65200290D01*
X132737184Y-65036666D01*
X132883685Y-64770721D01*
X133050178Y-64471161D01*
X133230447Y-64148938D01*
X133418273Y-63815005D01*
X133607441Y-63480313D01*
X133791732Y-63155814D01*
X133964930Y-62852460D01*
X134120817Y-62581202D01*
X134253176Y-62352993D01*
X134355791Y-62178784D01*
X134413795Y-62083242D01*
X134469784Y-62046121D01*
X134583345Y-62001539D01*
X134720393Y-61961686D01*
X135063469Y-61851231D01*
X135422086Y-61692200D01*
X135758823Y-61502074D01*
X135881991Y-61419106D01*
X136149006Y-61228568D01*
X136350600Y-61464536D01*
X136495110Y-61620986D01*
X136665667Y-61787655D01*
X136796873Y-61904128D01*
X137041552Y-62107752D01*
X136745354Y-62217543D01*
X136591498Y-62271254D01*
X136462365Y-62310378D01*
X136383724Y-62327178D01*
X136379611Y-62327333D01*
X136337737Y-62342541D01*
X136350283Y-62364472D01*
X136400566Y-62382118D01*
X136516549Y-62410727D01*
X136682068Y-62447177D01*
X136880956Y-62488347D01*
X137097047Y-62531112D01*
X137314176Y-62572351D01*
X137516176Y-62608940D01*
X137686881Y-62637757D01*
X137810125Y-62655679D01*
X137869743Y-62659583D01*
X137872511Y-62658516D01*
X137860833Y-62617138D01*
X137819080Y-62513570D01*
X137753759Y-62361977D01*
X137671374Y-62176528D01*
X137578431Y-61971387D01*
X137481436Y-61760722D01*
X137386894Y-61558698D01*
X137301311Y-61379483D01*
X137231192Y-61237243D01*
X137183043Y-61146144D01*
X137166376Y-61120833D01*
X137147254Y-61133727D01*
X137140021Y-61223125D01*
X137144575Y-61391897D01*
X137152292Y-61523000D01*
X137181754Y-61967500D01*
X136941004Y-61734666D01*
X136611233Y-61363284D01*
X136339301Y-60947934D01*
X136132914Y-60503569D01*
X135999777Y-60045142D01*
X135966438Y-59843237D01*
X135938876Y-59623975D01*
X136410840Y-58922607D01*
X136580983Y-58670999D01*
X136714247Y-58481486D01*
X136820991Y-58345900D01*
X136911574Y-58256074D01*
X136996356Y-58203841D01*
X137085696Y-58181032D01*
X137189954Y-58179480D01*
X137319490Y-58191016D01*
G36*
X118149513Y-56522503D02*
G01*
X118189922Y-56640203D01*
X118246940Y-56816480D01*
X118316954Y-57040002D01*
X118396351Y-57299436D01*
X118463385Y-57522500D01*
X118557647Y-57837902D01*
X118669778Y-58211866D01*
X118793022Y-58621943D01*
X118920628Y-59045687D01*
X119045841Y-59460651D01*
X119161909Y-59844387D01*
X119163694Y-59850282D01*
X119277647Y-60229324D01*
X119367336Y-60534776D01*
X119434535Y-60773612D01*
X119481016Y-60952807D01*
X119508554Y-61079334D01*
X119518920Y-61160168D01*
X119513889Y-61202282D01*
X119509122Y-61208898D01*
X119461313Y-61241405D01*
X119349861Y-61311832D01*
X119183786Y-61414646D01*
X118972110Y-61544310D01*
X118723852Y-61695289D01*
X118448034Y-61862048D01*
X118271833Y-61968117D01*
X116266477Y-63191084D01*
X114303984Y-64423501D01*
X112388421Y-65662493D01*
X110523856Y-66905187D01*
X108714359Y-68148707D01*
X106963996Y-69390179D01*
X105276838Y-70626728D01*
X103656951Y-71855479D01*
X102108405Y-73073557D01*
X100635267Y-74278088D01*
X99560500Y-75189705D01*
X99382395Y-75343290D01*
X99216581Y-75486217D01*
X99078797Y-75604924D01*
X98984779Y-75685850D01*
X98967833Y-75700413D01*
X98931119Y-75726720D01*
X98948389Y-75698054D01*
X99015340Y-75620854D01*
X99036009Y-75598322D01*
X99208450Y-75406884D01*
X99391259Y-75193817D01*
X99588692Y-74953538D01*
X99805005Y-74680459D01*
X100044455Y-74368995D01*
X100311298Y-74013561D01*
X100609790Y-73608570D01*
X100944188Y-73148437D01*
X101318748Y-72627576D01*
X101603696Y-72228648D01*
X102095605Y-71545776D01*
X102562521Y-70914157D01*
X103013761Y-70322865D01*
X103458642Y-69760973D01*
X103906480Y-69217552D01*
X104366594Y-68681676D01*
X104848299Y-68142418D01*
X105360913Y-67588850D01*
X105913752Y-67010045D01*
X106516134Y-66395077D01*
X106943547Y-65965901D01*
X107603407Y-65312738D01*
X108232372Y-64702789D01*
X108846198Y-64121581D01*
X109460645Y-63554644D01*
X110091470Y-62987503D01*
X110754431Y-62405688D01*
X111465285Y-61794725D01*
X111731333Y-61568769D01*
X112345166Y-61048883D01*
X112417809Y-61148358D01*
X112587560Y-61379255D01*
X112717748Y-61551413D01*
X112817606Y-61675287D01*
X112896364Y-61761332D01*
X112963252Y-61820003D01*
X113027501Y-61861753D01*
X113064833Y-61881182D01*
X113245879Y-61941901D01*
X113467163Y-61976430D01*
X113691633Y-61981841D01*
X113882240Y-61955209D01*
X113907312Y-61947715D01*
X114019789Y-61900904D01*
X114053994Y-61853802D01*
X114015510Y-61794451D01*
X113989579Y-61771600D01*
X113922139Y-61703143D01*
X113821704Y-61585652D01*
X113698449Y-61432687D01*
X113562548Y-61257807D01*
X113424175Y-61074574D01*
X113293503Y-60896546D01*
X113180706Y-60737285D01*
X113095959Y-60610351D01*
X113049435Y-60529304D01*
X113043666Y-60510852D01*
X113075225Y-60475659D01*
X113164005Y-60394821D01*
X113301160Y-60275638D01*
X113477847Y-60125417D01*
X113685218Y-59951459D01*
X113914430Y-59761069D01*
X114156638Y-59561550D01*
X114402995Y-59360205D01*
X114644657Y-59164339D01*
X114872780Y-58981254D01*
X115078517Y-58818254D01*
X115253023Y-58682643D01*
X115313166Y-58636900D01*
X115311294Y-58667871D01*
X115286140Y-58771186D01*
X115240124Y-58938519D01*
X115175666Y-59161542D01*
X115095187Y-59431930D01*
X115001107Y-59741356D01*
X114895847Y-60081493D01*
X114858834Y-60199810D01*
X114748544Y-60552677D01*
X114646614Y-60881191D01*
X114555769Y-61176380D01*
X114478740Y-61429272D01*
X114418253Y-61630896D01*
X114377037Y-61772278D01*
X114357819Y-61844448D01*
X114356751Y-61851083D01*
X114382189Y-61877305D01*
X114465857Y-61893995D01*
X114617444Y-61902392D01*
X114770374Y-61904000D01*
X115184748Y-61904000D01*
X115471817Y-60813916D01*
X115617527Y-60260542D01*
X115743291Y-59783178D01*
X115850810Y-59375983D01*
X115941786Y-59033113D01*
X116017920Y-58748727D01*
X116080914Y-58516983D01*
X116132469Y-58332038D01*
X116174287Y-58188051D01*
X116208068Y-58079178D01*
X116235514Y-57999579D01*
X116258327Y-57943410D01*
X116278208Y-57904829D01*
X116296858Y-57877995D01*
X116315980Y-57857065D01*
X116337273Y-57836197D01*
X116339720Y-57833756D01*
X116423946Y-57757097D01*
X116555374Y-57646971D01*
X116723379Y-57511445D01*
X116917337Y-57358588D01*
X117126623Y-57196468D01*
X117340614Y-57033153D01*
X117548683Y-56876713D01*
X117740208Y-56735215D01*
X117904564Y-56616727D01*
X118031125Y-56529318D01*
X118109269Y-56481056D01*
X118129327Y-56474714D01*
X118149513Y-56522503D01*
X118149513Y-56522503D01*
G37*
X118149513Y-56522503D02*
X118189922Y-56640203D01*
X118246940Y-56816480D01*
X118316954Y-57040002D01*
X118396351Y-57299436D01*
X118463385Y-57522500D01*
X118557647Y-57837902D01*
X118669778Y-58211866D01*
X118793022Y-58621943D01*
X118920628Y-59045687D01*
X119045841Y-59460651D01*
X119161909Y-59844387D01*
X119163694Y-59850282D01*
X119277647Y-60229324D01*
X119367336Y-60534776D01*
X119434535Y-60773612D01*
X119481016Y-60952807D01*
X119508554Y-61079334D01*
X119518920Y-61160168D01*
X119513889Y-61202282D01*
X119509122Y-61208898D01*
X119461313Y-61241405D01*
X119349861Y-61311832D01*
X119183786Y-61414646D01*
X118972110Y-61544310D01*
X118723852Y-61695289D01*
X118448034Y-61862048D01*
X118271833Y-61968117D01*
X116266477Y-63191084D01*
X114303984Y-64423501D01*
X112388421Y-65662493D01*
X110523856Y-66905187D01*
X108714359Y-68148707D01*
X106963996Y-69390179D01*
X105276838Y-70626728D01*
X103656951Y-71855479D01*
X102108405Y-73073557D01*
X100635267Y-74278088D01*
X99560500Y-75189705D01*
X99382395Y-75343290D01*
X99216581Y-75486217D01*
X99078797Y-75604924D01*
X98984779Y-75685850D01*
X98967833Y-75700413D01*
X98931119Y-75726720D01*
X98948389Y-75698054D01*
X99015340Y-75620854D01*
X99036009Y-75598322D01*
X99208450Y-75406884D01*
X99391259Y-75193817D01*
X99588692Y-74953538D01*
X99805005Y-74680459D01*
X100044455Y-74368995D01*
X100311298Y-74013561D01*
X100609790Y-73608570D01*
X100944188Y-73148437D01*
X101318748Y-72627576D01*
X101603696Y-72228648D01*
X102095605Y-71545776D01*
X102562521Y-70914157D01*
X103013761Y-70322865D01*
X103458642Y-69760973D01*
X103906480Y-69217552D01*
X104366594Y-68681676D01*
X104848299Y-68142418D01*
X105360913Y-67588850D01*
X105913752Y-67010045D01*
X106516134Y-66395077D01*
X106943547Y-65965901D01*
X107603407Y-65312738D01*
X108232372Y-64702789D01*
X108846198Y-64121581D01*
X109460645Y-63554644D01*
X110091470Y-62987503D01*
X110754431Y-62405688D01*
X111465285Y-61794725D01*
X111731333Y-61568769D01*
X112345166Y-61048883D01*
X112417809Y-61148358D01*
X112587560Y-61379255D01*
X112717748Y-61551413D01*
X112817606Y-61675287D01*
X112896364Y-61761332D01*
X112963252Y-61820003D01*
X113027501Y-61861753D01*
X113064833Y-61881182D01*
X113245879Y-61941901D01*
X113467163Y-61976430D01*
X113691633Y-61981841D01*
X113882240Y-61955209D01*
X113907312Y-61947715D01*
X114019789Y-61900904D01*
X114053994Y-61853802D01*
X114015510Y-61794451D01*
X113989579Y-61771600D01*
X113922139Y-61703143D01*
X113821704Y-61585652D01*
X113698449Y-61432687D01*
X113562548Y-61257807D01*
X113424175Y-61074574D01*
X113293503Y-60896546D01*
X113180706Y-60737285D01*
X113095959Y-60610351D01*
X113049435Y-60529304D01*
X113043666Y-60510852D01*
X113075225Y-60475659D01*
X113164005Y-60394821D01*
X113301160Y-60275638D01*
X113477847Y-60125417D01*
X113685218Y-59951459D01*
X113914430Y-59761069D01*
X114156638Y-59561550D01*
X114402995Y-59360205D01*
X114644657Y-59164339D01*
X114872780Y-58981254D01*
X115078517Y-58818254D01*
X115253023Y-58682643D01*
X115313166Y-58636900D01*
X115311294Y-58667871D01*
X115286140Y-58771186D01*
X115240124Y-58938519D01*
X115175666Y-59161542D01*
X115095187Y-59431930D01*
X115001107Y-59741356D01*
X114895847Y-60081493D01*
X114858834Y-60199810D01*
X114748544Y-60552677D01*
X114646614Y-60881191D01*
X114555769Y-61176380D01*
X114478740Y-61429272D01*
X114418253Y-61630896D01*
X114377037Y-61772278D01*
X114357819Y-61844448D01*
X114356751Y-61851083D01*
X114382189Y-61877305D01*
X114465857Y-61893995D01*
X114617444Y-61902392D01*
X114770374Y-61904000D01*
X115184748Y-61904000D01*
X115471817Y-60813916D01*
X115617527Y-60260542D01*
X115743291Y-59783178D01*
X115850810Y-59375983D01*
X115941786Y-59033113D01*
X116017920Y-58748727D01*
X116080914Y-58516983D01*
X116132469Y-58332038D01*
X116174287Y-58188051D01*
X116208068Y-58079178D01*
X116235514Y-57999579D01*
X116258327Y-57943410D01*
X116278208Y-57904829D01*
X116296858Y-57877995D01*
X116315980Y-57857065D01*
X116337273Y-57836197D01*
X116339720Y-57833756D01*
X116423946Y-57757097D01*
X116555374Y-57646971D01*
X116723379Y-57511445D01*
X116917337Y-57358588D01*
X117126623Y-57196468D01*
X117340614Y-57033153D01*
X117548683Y-56876713D01*
X117740208Y-56735215D01*
X117904564Y-56616727D01*
X118031125Y-56529318D01*
X118109269Y-56481056D01*
X118129327Y-56474714D01*
X118149513Y-56522503D01*
G36*
X147206666Y-69587500D02*
G01*
X147185500Y-69608666D01*
X147164333Y-69587500D01*
X147185500Y-69566333D01*
X147206666Y-69587500D01*
X147206666Y-69587500D01*
G37*
X147206666Y-69587500D02*
X147185500Y-69608666D01*
X147164333Y-69587500D01*
X147185500Y-69566333D01*
X147206666Y-69587500D01*
G36*
X138791823Y-55750535D02*
G01*
X138844845Y-55821732D01*
X138850981Y-55831081D01*
X138949097Y-55945294D01*
X139107425Y-56087892D01*
X139311272Y-56247789D01*
X139545945Y-56413899D01*
X139796754Y-56575136D01*
X139977417Y-56681054D01*
X140164639Y-56789423D01*
X140337533Y-56895543D01*
X140474828Y-56986012D01*
X140546508Y-57039613D01*
X140623894Y-57099855D01*
X140757579Y-57197743D01*
X140933768Y-57323433D01*
X141138666Y-57467081D01*
X141350841Y-57613610D01*
X141777213Y-57919119D01*
X142128303Y-58200342D01*
X142408556Y-58461488D01*
X142622417Y-58706770D01*
X142774330Y-58940400D01*
X142796304Y-58983304D01*
X142918104Y-59299743D01*
X142986221Y-59630856D01*
X143003728Y-59965330D01*
X142973697Y-60291853D01*
X142899202Y-60599114D01*
X142783315Y-60875798D01*
X142629108Y-61110596D01*
X142439655Y-61292193D01*
X142218027Y-61409278D01*
X142130775Y-61433497D01*
X141848785Y-61470454D01*
X141554664Y-61469449D01*
X141311092Y-61434605D01*
X141167235Y-61389511D01*
X141012223Y-61325259D01*
X140980693Y-61309816D01*
X140809702Y-61222583D01*
X141009822Y-60854208D01*
X141221504Y-60473903D01*
X141437176Y-60103586D01*
X141646155Y-59760874D01*
X141837757Y-59463383D01*
X141967373Y-59275315D01*
X142077318Y-59120648D01*
X142155748Y-59005806D01*
X142199904Y-58933151D01*
X142207024Y-58905050D01*
X142174347Y-58923864D01*
X142099111Y-58991959D01*
X141978557Y-59111697D01*
X141809921Y-59285444D01*
X141590444Y-59515562D01*
X141317365Y-59804416D01*
X141183891Y-59946083D01*
X140978539Y-60163285D01*
X140792173Y-60358676D01*
X140632617Y-60524195D01*
X140507694Y-60651777D01*
X140425227Y-60733362D01*
X140393231Y-60760924D01*
X140348777Y-60722286D01*
X140275745Y-60609830D01*
X140176731Y-60428455D01*
X140054332Y-60183061D01*
X139911143Y-59878550D01*
X139823350Y-59685156D01*
X139611622Y-59228499D01*
X139418247Y-58845629D01*
X139237889Y-58529046D01*
X139065213Y-58271253D01*
X138894884Y-58064751D01*
X138721567Y-57902041D01*
X138539926Y-57775625D01*
X138418939Y-57711300D01*
X138244535Y-57639534D01*
X138063364Y-57582895D01*
X137936134Y-57556997D01*
X137724000Y-57531873D01*
X137724000Y-57042270D01*
X138172568Y-56456885D01*
X138324680Y-56259521D01*
X138463854Y-56081066D01*
X138579927Y-55934387D01*
X138662739Y-55832350D01*
X138697421Y-55792322D01*
X138752324Y-55743165D01*
X138791823Y-55750535D01*
X138791823Y-55750535D01*
G37*
X138791823Y-55750535D02*
X138844845Y-55821732D01*
X138850981Y-55831081D01*
X138949097Y-55945294D01*
X139107425Y-56087892D01*
X139311272Y-56247789D01*
X139545945Y-56413899D01*
X139796754Y-56575136D01*
X139977417Y-56681054D01*
X140164639Y-56789423D01*
X140337533Y-56895543D01*
X140474828Y-56986012D01*
X140546508Y-57039613D01*
X140623894Y-57099855D01*
X140757579Y-57197743D01*
X140933768Y-57323433D01*
X141138666Y-57467081D01*
X141350841Y-57613610D01*
X141777213Y-57919119D01*
X142128303Y-58200342D01*
X142408556Y-58461488D01*
X142622417Y-58706770D01*
X142774330Y-58940400D01*
X142796304Y-58983304D01*
X142918104Y-59299743D01*
X142986221Y-59630856D01*
X143003728Y-59965330D01*
X142973697Y-60291853D01*
X142899202Y-60599114D01*
X142783315Y-60875798D01*
X142629108Y-61110596D01*
X142439655Y-61292193D01*
X142218027Y-61409278D01*
X142130775Y-61433497D01*
X141848785Y-61470454D01*
X141554664Y-61469449D01*
X141311092Y-61434605D01*
X141167235Y-61389511D01*
X141012223Y-61325259D01*
X140980693Y-61309816D01*
X140809702Y-61222583D01*
X141009822Y-60854208D01*
X141221504Y-60473903D01*
X141437176Y-60103586D01*
X141646155Y-59760874D01*
X141837757Y-59463383D01*
X141967373Y-59275315D01*
X142077318Y-59120648D01*
X142155748Y-59005806D01*
X142199904Y-58933151D01*
X142207024Y-58905050D01*
X142174347Y-58923864D01*
X142099111Y-58991959D01*
X141978557Y-59111697D01*
X141809921Y-59285444D01*
X141590444Y-59515562D01*
X141317365Y-59804416D01*
X141183891Y-59946083D01*
X140978539Y-60163285D01*
X140792173Y-60358676D01*
X140632617Y-60524195D01*
X140507694Y-60651777D01*
X140425227Y-60733362D01*
X140393231Y-60760924D01*
X140348777Y-60722286D01*
X140275745Y-60609830D01*
X140176731Y-60428455D01*
X140054332Y-60183061D01*
X139911143Y-59878550D01*
X139823350Y-59685156D01*
X139611622Y-59228499D01*
X139418247Y-58845629D01*
X139237889Y-58529046D01*
X139065213Y-58271253D01*
X138894884Y-58064751D01*
X138721567Y-57902041D01*
X138539926Y-57775625D01*
X138418939Y-57711300D01*
X138244535Y-57639534D01*
X138063364Y-57582895D01*
X137936134Y-57556997D01*
X137724000Y-57531873D01*
X137724000Y-57042270D01*
X138172568Y-56456885D01*
X138324680Y-56259521D01*
X138463854Y-56081066D01*
X138579927Y-55934387D01*
X138662739Y-55832350D01*
X138697421Y-55792322D01*
X138752324Y-55743165D01*
X138791823Y-55750535D01*
G36*
X135721902Y-60284738D02*
G01*
X135749748Y-60421499D01*
X135769051Y-60523935D01*
X135774819Y-60562303D01*
X135744069Y-60617721D01*
X135658632Y-60706117D01*
X135534295Y-60813538D01*
X135386845Y-60926037D01*
X135281283Y-60998415D01*
X135144017Y-61085668D01*
X135062699Y-61130070D01*
X135024026Y-61137474D01*
X135014666Y-61115749D01*
X135035982Y-61072413D01*
X135094620Y-60970900D01*
X135182617Y-60824568D01*
X135292008Y-60646776D01*
X135342750Y-60565404D01*
X135670833Y-60041310D01*
X135721902Y-60284738D01*
X135721902Y-60284738D01*
G37*
X135721902Y-60284738D02*
X135749748Y-60421499D01*
X135769051Y-60523935D01*
X135774819Y-60562303D01*
X135744069Y-60617721D01*
X135658632Y-60706117D01*
X135534295Y-60813538D01*
X135386845Y-60926037D01*
X135281283Y-60998415D01*
X135144017Y-61085668D01*
X135062699Y-61130070D01*
X135024026Y-61137474D01*
X135014666Y-61115749D01*
X135035982Y-61072413D01*
X135094620Y-60970900D01*
X135182617Y-60824568D01*
X135292008Y-60646776D01*
X135342750Y-60565404D01*
X135670833Y-60041310D01*
X135721902Y-60284738D01*
G36*
X139513046Y-55116389D02*
G01*
X139539429Y-55302815D01*
X139574798Y-55489383D01*
X139603660Y-55606916D01*
X139636019Y-55721808D01*
X139654395Y-55793956D01*
X139656113Y-55806678D01*
X139620210Y-55785789D01*
X139537223Y-55734952D01*
X139499325Y-55711428D01*
X139366627Y-55621289D01*
X139226259Y-55515259D01*
X139195868Y-55490500D01*
X139043252Y-55363500D01*
X139262042Y-55095222D01*
X139480833Y-54826945D01*
X139513046Y-55116389D01*
X139513046Y-55116389D01*
G37*
X139513046Y-55116389D02*
X139539429Y-55302815D01*
X139574798Y-55489383D01*
X139603660Y-55606916D01*
X139636019Y-55721808D01*
X139654395Y-55793956D01*
X139656113Y-55806678D01*
X139620210Y-55785789D01*
X139537223Y-55734952D01*
X139499325Y-55711428D01*
X139366627Y-55621289D01*
X139226259Y-55515259D01*
X139195868Y-55490500D01*
X139043252Y-55363500D01*
X139262042Y-55095222D01*
X139480833Y-54826945D01*
X139513046Y-55116389D01*
G36*
X134016468Y-52746637D02*
G01*
X134113887Y-52758329D01*
X134344966Y-52802340D01*
X134575542Y-52865563D01*
X134779376Y-52939488D01*
X134930224Y-53015605D01*
X134951029Y-53029831D01*
X135002899Y-53074567D01*
X134984026Y-53100713D01*
X134927330Y-53120475D01*
X134850242Y-53150075D01*
X134707178Y-53210095D01*
X134509111Y-53295632D01*
X134267012Y-53401784D01*
X133991852Y-53523649D01*
X133694603Y-53656324D01*
X133386237Y-53794906D01*
X133077724Y-53934494D01*
X132780036Y-54070184D01*
X132504145Y-54197074D01*
X132261023Y-54310262D01*
X132193271Y-54342157D01*
X131937589Y-54462536D01*
X131748465Y-54550372D01*
X131616122Y-54609750D01*
X131530785Y-54644756D01*
X131482677Y-54659477D01*
X131462025Y-54657999D01*
X131458666Y-54649214D01*
X131479060Y-54580904D01*
X131533728Y-54459206D01*
X131612899Y-54303040D01*
X131706799Y-54131325D01*
X131805659Y-53962982D01*
X131848532Y-53894351D01*
X132130533Y-53520541D01*
X132451853Y-53215935D01*
X132806799Y-52983386D01*
X133189678Y-52825751D01*
X133594798Y-52745883D01*
X134016468Y-52746637D01*
X134016468Y-52746637D01*
G37*
X134016468Y-52746637D02*
X134113887Y-52758329D01*
X134344966Y-52802340D01*
X134575542Y-52865563D01*
X134779376Y-52939488D01*
X134930224Y-53015605D01*
X134951029Y-53029831D01*
X135002899Y-53074567D01*
X134984026Y-53100713D01*
X134927330Y-53120475D01*
X134850242Y-53150075D01*
X134707178Y-53210095D01*
X134509111Y-53295632D01*
X134267012Y-53401784D01*
X133991852Y-53523649D01*
X133694603Y-53656324D01*
X133386237Y-53794906D01*
X133077724Y-53934494D01*
X132780036Y-54070184D01*
X132504145Y-54197074D01*
X132261023Y-54310262D01*
X132193271Y-54342157D01*
X131937589Y-54462536D01*
X131748465Y-54550372D01*
X131616122Y-54609750D01*
X131530785Y-54644756D01*
X131482677Y-54659477D01*
X131462025Y-54657999D01*
X131458666Y-54649214D01*
X131479060Y-54580904D01*
X131533728Y-54459206D01*
X131612899Y-54303040D01*
X131706799Y-54131325D01*
X131805659Y-53962982D01*
X131848532Y-53894351D01*
X132130533Y-53520541D01*
X132451853Y-53215935D01*
X132806799Y-52983386D01*
X133189678Y-52825751D01*
X133594798Y-52745883D01*
X134016468Y-52746637D01*
G36*
X143528490Y-53208203D02*
G01*
X143583061Y-53263715D01*
X143645285Y-53350651D01*
X143704244Y-53467436D01*
X143749290Y-53586873D01*
X143769776Y-53681766D01*
X143762103Y-53721007D01*
X143729409Y-53699319D01*
X143655493Y-53631970D01*
X143574529Y-53551857D01*
X143467318Y-53430083D01*
X143419318Y-53338362D01*
X143417091Y-53271850D01*
X143438779Y-53185379D01*
X143469874Y-53164460D01*
X143528490Y-53208203D01*
X143528490Y-53208203D01*
G37*
X143528490Y-53208203D02*
X143583061Y-53263715D01*
X143645285Y-53350651D01*
X143704244Y-53467436D01*
X143749290Y-53586873D01*
X143769776Y-53681766D01*
X143762103Y-53721007D01*
X143729409Y-53699319D01*
X143655493Y-53631970D01*
X143574529Y-53551857D01*
X143467318Y-53430083D01*
X143419318Y-53338362D01*
X143417091Y-53271850D01*
X143438779Y-53185379D01*
X143469874Y-53164460D01*
X143528490Y-53208203D01*
G36*
X138635979Y-50878421D02*
G01*
X138593363Y-50933278D01*
X138523809Y-51008996D01*
X138315617Y-51263430D01*
X138120873Y-51559138D01*
X138027835Y-51728380D01*
X137981942Y-51809598D01*
X137929032Y-51870840D01*
X137851451Y-51923817D01*
X137731544Y-51980241D01*
X137551660Y-52051822D01*
X137524625Y-52062208D01*
X137319486Y-52141533D01*
X137067753Y-52239852D01*
X136801411Y-52344625D01*
X136553607Y-52442853D01*
X136350428Y-52520677D01*
X136173839Y-52582482D01*
X136039250Y-52623311D01*
X135962071Y-52638210D01*
X135951554Y-52636432D01*
X135966138Y-52601915D01*
X136039718Y-52526182D01*
X136162346Y-52417165D01*
X136324075Y-52282798D01*
X136514960Y-52131011D01*
X136725052Y-51969737D01*
X136944406Y-51806907D01*
X137163074Y-51650453D01*
X137341388Y-51528128D01*
X137567591Y-51384040D01*
X137813469Y-51239878D01*
X138059749Y-51105864D01*
X138287157Y-50992217D01*
X138476421Y-50909160D01*
X138570666Y-50876184D01*
X138627014Y-50863357D01*
X138635979Y-50878421D01*
X138635979Y-50878421D01*
G37*
X138635979Y-50878421D02*
X138593363Y-50933278D01*
X138523809Y-51008996D01*
X138315617Y-51263430D01*
X138120873Y-51559138D01*
X138027835Y-51728380D01*
X137981942Y-51809598D01*
X137929032Y-51870840D01*
X137851451Y-51923817D01*
X137731544Y-51980241D01*
X137551660Y-52051822D01*
X137524625Y-52062208D01*
X137319486Y-52141533D01*
X137067753Y-52239852D01*
X136801411Y-52344625D01*
X136553607Y-52442853D01*
X136350428Y-52520677D01*
X136173839Y-52582482D01*
X136039250Y-52623311D01*
X135962071Y-52638210D01*
X135951554Y-52636432D01*
X135966138Y-52601915D01*
X136039718Y-52526182D01*
X136162346Y-52417165D01*
X136324075Y-52282798D01*
X136514960Y-52131011D01*
X136725052Y-51969737D01*
X136944406Y-51806907D01*
X137163074Y-51650453D01*
X137341388Y-51528128D01*
X137567591Y-51384040D01*
X137813469Y-51239878D01*
X138059749Y-51105864D01*
X138287157Y-50992217D01*
X138476421Y-50909160D01*
X138570666Y-50876184D01*
X138627014Y-50863357D01*
X138635979Y-50878421D01*
G36*
X142584422Y-52148274D02*
G01*
X142685011Y-52271903D01*
X142758991Y-52365504D01*
X142794751Y-52414272D01*
X142795972Y-52417991D01*
X142751885Y-52403308D01*
X142654701Y-52369776D01*
X142592333Y-52348036D01*
X142441312Y-52285228D01*
X142298401Y-52210326D01*
X142265008Y-52189238D01*
X142128184Y-52097053D01*
X142243957Y-51986134D01*
X142359731Y-51875216D01*
X142584422Y-52148274D01*
X142584422Y-52148274D01*
G37*
X142584422Y-52148274D02*
X142685011Y-52271903D01*
X142758991Y-52365504D01*
X142794751Y-52414272D01*
X142795972Y-52417991D01*
X142751885Y-52403308D01*
X142654701Y-52369776D01*
X142592333Y-52348036D01*
X142441312Y-52285228D01*
X142298401Y-52210326D01*
X142265008Y-52189238D01*
X142128184Y-52097053D01*
X142243957Y-51986134D01*
X142359731Y-51875216D01*
X142584422Y-52148274D01*
G36*
X138263163Y-50072941D02*
G01*
X138209119Y-50109014D01*
X138102664Y-50167654D01*
X138096961Y-50170630D01*
X137708096Y-50401169D01*
X137293925Y-50698572D01*
X136865832Y-51053399D01*
X136435205Y-51456212D01*
X136013430Y-51897572D01*
X136012671Y-51898412D01*
X135862672Y-52062946D01*
X135732890Y-52202590D01*
X135633696Y-52306399D01*
X135575460Y-52363425D01*
X135565000Y-52370974D01*
X135517988Y-52356147D01*
X135415858Y-52316765D01*
X135289833Y-52265137D01*
X135100190Y-52195454D01*
X134886136Y-52130932D01*
X134760666Y-52100227D01*
X134579556Y-52073549D01*
X134343019Y-52055173D01*
X134077456Y-52045482D01*
X133809269Y-52044858D01*
X133564860Y-52053685D01*
X133370631Y-52072346D01*
X133328519Y-52079447D01*
X133145205Y-52114873D01*
X133286186Y-51968700D01*
X133456372Y-51811920D01*
X133683340Y-51631333D01*
X133950756Y-51437442D01*
X134242288Y-51240751D01*
X134541603Y-51051764D01*
X134832369Y-50880985D01*
X135098252Y-50738918D01*
X135322921Y-50636067D01*
X135405825Y-50605508D01*
X135650657Y-50531084D01*
X135920255Y-50462116D01*
X136227684Y-50395918D01*
X136586008Y-50329802D01*
X137008294Y-50261082D01*
X137279500Y-50220177D01*
X137548779Y-50180041D01*
X137793417Y-50142759D01*
X137999644Y-50110496D01*
X138153689Y-50085416D01*
X138241781Y-50069683D01*
X138253166Y-50067142D01*
X138263163Y-50072941D01*
X138263163Y-50072941D01*
G37*
X138263163Y-50072941D02*
X138209119Y-50109014D01*
X138102664Y-50167654D01*
X138096961Y-50170630D01*
X137708096Y-50401169D01*
X137293925Y-50698572D01*
X136865832Y-51053399D01*
X136435205Y-51456212D01*
X136013430Y-51897572D01*
X136012671Y-51898412D01*
X135862672Y-52062946D01*
X135732890Y-52202590D01*
X135633696Y-52306399D01*
X135575460Y-52363425D01*
X135565000Y-52370974D01*
X135517988Y-52356147D01*
X135415858Y-52316765D01*
X135289833Y-52265137D01*
X135100190Y-52195454D01*
X134886136Y-52130932D01*
X134760666Y-52100227D01*
X134579556Y-52073549D01*
X134343019Y-52055173D01*
X134077456Y-52045482D01*
X133809269Y-52044858D01*
X133564860Y-52053685D01*
X133370631Y-52072346D01*
X133328519Y-52079447D01*
X133145205Y-52114873D01*
X133286186Y-51968700D01*
X133456372Y-51811920D01*
X133683340Y-51631333D01*
X133950756Y-51437442D01*
X134242288Y-51240751D01*
X134541603Y-51051764D01*
X134832369Y-50880985D01*
X135098252Y-50738918D01*
X135322921Y-50636067D01*
X135405825Y-50605508D01*
X135650657Y-50531084D01*
X135920255Y-50462116D01*
X136227684Y-50395918D01*
X136586008Y-50329802D01*
X137008294Y-50261082D01*
X137279500Y-50220177D01*
X137548779Y-50180041D01*
X137793417Y-50142759D01*
X137999644Y-50110496D01*
X138153689Y-50085416D01*
X138241781Y-50069683D01*
X138253166Y-50067142D01*
X138263163Y-50072941D01*
G36*
X142906258Y-51498242D02*
G01*
X142921068Y-51566173D01*
X142941420Y-51682234D01*
X142963627Y-51821943D01*
X142984004Y-51960817D01*
X142998863Y-52074374D01*
X143004519Y-52138132D01*
X143003517Y-52144204D01*
X142971965Y-52117236D01*
X142897046Y-52044257D01*
X142794101Y-51940261D01*
X142779439Y-51925224D01*
X142564378Y-51704282D01*
X142726952Y-51573633D01*
X142835541Y-51496995D01*
X142894246Y-51482934D01*
X142906258Y-51498242D01*
X142906258Y-51498242D01*
G37*
X142906258Y-51498242D02*
X142921068Y-51566173D01*
X142941420Y-51682234D01*
X142963627Y-51821943D01*
X142984004Y-51960817D01*
X142998863Y-52074374D01*
X143004519Y-52138132D01*
X143003517Y-52144204D01*
X142971965Y-52117236D01*
X142897046Y-52044257D01*
X142794101Y-51940261D01*
X142779439Y-51925224D01*
X142564378Y-51704282D01*
X142726952Y-51573633D01*
X142835541Y-51496995D01*
X142894246Y-51482934D01*
X142906258Y-51498242D01*
D11*
X139065000Y-96500000D02*
X139065000Y-98785000D01*
X139065000Y-98785000D02*
X140535000Y-98785000D01*
X140535000Y-98785000D02*
X140535000Y-96500000D01*
X173000000Y-101730000D02*
X173000000Y-99070000D01*
X165320000Y-101730000D02*
X173000000Y-101730000D01*
X165320000Y-99070000D02*
X173000000Y-99070000D01*
X165320000Y-101730000D02*
X165320000Y-99070000D01*
X164050000Y-101730000D02*
X162720000Y-101730000D01*
X162720000Y-101730000D02*
X162720000Y-100400000D01*
D13*
X150050000Y-98450000D02*
X185550000Y-98450000D01*
X185550000Y-98450000D02*
X185550000Y-131950000D01*
X150050000Y-98450000D02*
X150050000Y-131950000D01*
X150050000Y-131950000D02*
X185550000Y-131950000D01*
X136736827Y-104977029D02*
X136630761Y-104093146D01*
X136630761Y-104093146D02*
X136312563Y-104128501D01*
X136312563Y-104128501D02*
X136736827Y-103562816D01*
X136736827Y-103562816D02*
X137125736Y-104022435D01*
X137125736Y-104022435D02*
X136878249Y-104057790D01*
X136878249Y-104057790D02*
X136984315Y-104941674D01*
X136984315Y-104941674D02*
X136736827Y-104977029D01*
D14*
G36*
X136736827Y-104977029D02*
G01*
X136630761Y-104093146D01*
X136312563Y-104128501D01*
X136736827Y-103562816D01*
X137125736Y-104022435D01*
X136913604Y-104022435D01*
X136878249Y-104057790D01*
X136984315Y-104941674D01*
X136736827Y-104977029D01*
G37*
X136736827Y-104977029D02*
X136630761Y-104093146D01*
X136312563Y-104128501D01*
X136736827Y-103562816D01*
X137125736Y-104022435D01*
X136913604Y-104022435D01*
X136878249Y-104057790D01*
X136984315Y-104941674D01*
X136736827Y-104977029D01*
D11*
X119400000Y-49980000D02*
X119400000Y-44780000D01*
X111720000Y-49980000D02*
X119400000Y-49980000D01*
X109120000Y-44780000D02*
X119400000Y-44780000D01*
X111720000Y-49980000D02*
X111720000Y-47380000D01*
X111720000Y-47380000D02*
X109120000Y-47380000D01*
X109120000Y-47380000D02*
X109120000Y-44780000D01*
X110450000Y-49980000D02*
X109120000Y-49980000D01*
X109120000Y-49980000D02*
X109120000Y-48650000D01*
X132920000Y-104180000D02*
X135580000Y-104180000D01*
X132920000Y-101580000D02*
X132920000Y-104180000D01*
X135580000Y-101580000D02*
X135580000Y-104180000D01*
X132920000Y-101580000D02*
X135580000Y-101580000D01*
X132920000Y-100310000D02*
X132920000Y-98980000D01*
X132920000Y-98980000D02*
X134250000Y-98980000D01*
D10*
X158066666Y-46952380D02*
X157733333Y-46476190D01*
X157495238Y-46952380D02*
X157495238Y-45952380D01*
X157876190Y-45952380D01*
X157971428Y-46000000D01*
X158019047Y-46047619D01*
X158066666Y-46142857D01*
X158066666Y-46285714D01*
X158019047Y-46380952D01*
X157971428Y-46428571D01*
X157876190Y-46476190D01*
X157495238Y-46476190D01*
X158495238Y-46428571D02*
X158828571Y-46428571D01*
X158971428Y-46952380D02*
X158495238Y-46952380D01*
X158495238Y-45952380D01*
X158971428Y-45952380D01*
X159733333Y-46428571D02*
X159400000Y-46428571D01*
X159400000Y-46952380D02*
X159400000Y-45952380D01*
X159876190Y-45952380D01*
X160400000Y-45952380D02*
X160400000Y-46190476D01*
X160161904Y-46095238D02*
X160400000Y-46190476D01*
X160638095Y-46095238D01*
X160257142Y-46380952D02*
X160400000Y-46190476D01*
X160542857Y-46380952D01*
X161161904Y-45952380D02*
X161161904Y-46190476D01*
X160923809Y-46095238D02*
X161161904Y-46190476D01*
X161400000Y-46095238D01*
X161019047Y-46380952D02*
X161161904Y-46190476D01*
X161304761Y-46380952D01*
X138822380Y-98038095D02*
X137822380Y-98038095D01*
X137822380Y-97800000D01*
X137870000Y-97657142D01*
X137965238Y-97561904D01*
X138060476Y-97514285D01*
X138250952Y-97466666D01*
X138393809Y-97466666D01*
X138584285Y-97514285D01*
X138679523Y-97561904D01*
X138774761Y-97657142D01*
X138822380Y-97800000D01*
X138822380Y-98038095D01*
X137917619Y-97085714D02*
X137870000Y-97038095D01*
X137822380Y-96942857D01*
X137822380Y-96704761D01*
X137870000Y-96609523D01*
X137917619Y-96561904D01*
X138012857Y-96514285D01*
X138108095Y-96514285D01*
X138250952Y-96561904D01*
X138822380Y-97133333D01*
X138822380Y-96514285D01*
X161172380Y-100733333D02*
X161886666Y-100733333D01*
X162029523Y-100780952D01*
X162124761Y-100876190D01*
X162172380Y-101019047D01*
X162172380Y-101114285D01*
X161267619Y-100304761D02*
X161220000Y-100257142D01*
X161172380Y-100161904D01*
X161172380Y-99923809D01*
X161220000Y-99828571D01*
X161267619Y-99780952D01*
X161362857Y-99733333D01*
X161458095Y-99733333D01*
X161600952Y-99780952D01*
X162172380Y-100352380D01*
X162172380Y-99733333D01*
X197254761Y-121633333D02*
X197302380Y-121490476D01*
X197302380Y-121252380D01*
X197254761Y-121157142D01*
X197207142Y-121109523D01*
X197111904Y-121061904D01*
X197016666Y-121061904D01*
X196921428Y-121109523D01*
X196873809Y-121157142D01*
X196826190Y-121252380D01*
X196778571Y-121442857D01*
X196730952Y-121538095D01*
X196683333Y-121585714D01*
X196588095Y-121633333D01*
X196492857Y-121633333D01*
X196397619Y-121585714D01*
X196350000Y-121538095D01*
X196302380Y-121442857D01*
X196302380Y-121204761D01*
X196350000Y-121061904D01*
X196302380Y-120728571D02*
X197302380Y-120490476D01*
X196588095Y-120300000D01*
X197302380Y-120109523D01*
X196302380Y-119871428D01*
X196397619Y-119538095D02*
X196350000Y-119490476D01*
X196302380Y-119395238D01*
X196302380Y-119157142D01*
X196350000Y-119061904D01*
X196397619Y-119014285D01*
X196492857Y-118966666D01*
X196588095Y-118966666D01*
X196730952Y-119014285D01*
X197302380Y-119585714D01*
X197302380Y-118966666D01*
X129765090Y-103254718D02*
X130337510Y-103827138D01*
X130438525Y-103860810D01*
X130505869Y-103860810D01*
X130606884Y-103827138D01*
X130741571Y-103692451D01*
X130775243Y-103591436D01*
X130775243Y-103524092D01*
X130741571Y-103423077D01*
X130169151Y-102850657D01*
X130842586Y-102177222D02*
X130505869Y-102513940D01*
X130808915Y-102884329D01*
X130808915Y-102816986D01*
X130842586Y-102715970D01*
X131010945Y-102547612D01*
X131111960Y-102513940D01*
X131179304Y-102513940D01*
X131280319Y-102547612D01*
X131448678Y-102715970D01*
X131482350Y-102816986D01*
X131482350Y-102884329D01*
X131448678Y-102985344D01*
X131280319Y-103153703D01*
X131179304Y-103187375D01*
X131111960Y-103187375D01*
X128161904Y-149452380D02*
X128161904Y-148452380D01*
X128400000Y-148452380D01*
X128542857Y-148500000D01*
X128638095Y-148595238D01*
X128685714Y-148690476D01*
X128733333Y-148880952D01*
X128733333Y-149023809D01*
X128685714Y-149214285D01*
X128638095Y-149309523D01*
X128542857Y-149404761D01*
X128400000Y-149452380D01*
X128161904Y-149452380D01*
X129685714Y-149452380D02*
X129114285Y-149452380D01*
X129400000Y-149452380D02*
X129400000Y-148452380D01*
X129304761Y-148595238D01*
X129209523Y-148690476D01*
X129114285Y-148738095D01*
X107572380Y-47713333D02*
X108286666Y-47713333D01*
X108429523Y-47760952D01*
X108524761Y-47856190D01*
X108572380Y-47999047D01*
X108572380Y-48094285D01*
X107905714Y-46808571D02*
X108572380Y-46808571D01*
X107524761Y-47046666D02*
X108239047Y-47284761D01*
X108239047Y-46665714D01*
X133916666Y-97432380D02*
X133916666Y-98146666D01*
X133869047Y-98289523D01*
X133773809Y-98384761D01*
X133630952Y-98432380D01*
X133535714Y-98432380D01*
X134916666Y-98432380D02*
X134345238Y-98432380D01*
X134630952Y-98432380D02*
X134630952Y-97432380D01*
X134535714Y-97575238D01*
X134440476Y-97670476D01*
X134345238Y-97718095D01*
M02*
