M48
; DRILL file {KiCad 5.1.4} date Fri 18 Oct 2019 09:44:42 PM CDT
; FORMAT={-:-/ absolute / inch / decimal}
; #@! TF.CreationDate,2019-10-18T21:44:42-05:00
; #@! TF.GenerationSoftware,Kicad,Pcbnew,5.1.4
; #@! TF.FileFunction,Plated,1,2,PTH
FMAT,2
INCH
T1C0.0157
T2C0.0236
T3C0.0394
T4C0.2362
%
G90
G05
T1
X4.5236Y-2.502
X4.6496Y-2.6811
X4.6988Y-2.7402
X4.7638Y-2.7421
X4.8012Y-2.7402
X4.8287Y-2.5335
X4.8534Y-1.984
X4.8622Y-1.939
X4.872Y-2.0098
X4.8996Y-2.0374
X4.9508Y-5.7362
X5.0256Y-2.0177
X5.0709Y-2.189
X5.0807Y-2.0551
X5.0925Y-2.5906
X5.1083Y-2.7795
X5.1427Y-2.2018
X5.1437Y-2.6457
X5.1909Y-2.498
X5.2343Y-2.2795
X5.2362Y-2.5
X5.2717Y-2.3209
X5.2756Y-2.6299
X5.2776Y-2.4685
X5.3169Y-2.3858
X5.3209Y-2.3484
X5.3504Y-3.0118
X5.376Y-4.3563
X5.3819Y-3.8642
X5.3819Y-3.0394
X5.3839Y-2.5768
X5.4635Y-2.5899
X5.4783Y-2.8543
X5.4797Y-2.6922
X5.498Y-2.5906
X5.5059Y-2.876
X5.5107Y-2.6978
X5.5344Y-2.5906
X5.5571Y-1.8268
X5.5659Y-2.5571
X5.5945Y-2.5059
X5.7323Y-2.4528
X5.9016Y-4.3209
X6.0787Y-4.4252
X6.1732Y-4.3189
X6.1732Y-4.6083
X6.2028Y-3.372
X6.2441Y-3.7067
X6.3287Y-3.7539
X6.4744Y-3.689
X6.4803Y-4.6102
X6.4902Y-4.9114
X6.563Y-5.2362
X6.6004Y-5.4094
X6.6122Y-3.7618
X6.7815Y-5.315
X6.7992Y-5.4606
X7.0832Y-5.4598
X7.435Y-4.5197
X7.4409Y-4.9449
X7.5689Y-2.7126
X7.6791Y-4.9429
X7.6811Y-4.5197
T3
X4.3484Y-1.8154
X4.3484Y-1.9154
X4.4484Y-1.8154
X4.4484Y-1.9154
X4.5484Y-1.8154
X4.5484Y-1.9154
X4.6484Y-1.8154
X4.6484Y-1.9154
X5.9724Y-4.8272
X5.9724Y-4.9272
X6.4587Y-3.9528
X6.5587Y-3.9528
X6.6587Y-3.9528
X6.7587Y-3.9528
X5.2854Y-3.9492
X5.2854Y-4.0492
T4
X6.2756Y-1.7421
T2
G00X6.6705Y-5.4528
M15
G01X6.6705Y-5.4094
M16
G05
G00X6.6705Y-5.6102
M15
G01X6.6705Y-5.5787
M16
G05
G00X7.0106Y-5.4528
M15
G01X7.0106Y-5.4094
M16
G05
G00X7.0106Y-5.6102
M15
G01X7.0106Y-5.5787
M16
G05
T0
M30
