G04 #@! TF.GenerationSoftware,KiCad,Pcbnew,5.1.2*
G04 #@! TF.CreationDate,2019-05-17T11:59:17-05:00*
G04 #@! TF.ProjectId,STM32F411Minimal,53544d33-3246-4343-9131-4d696e696d61,rev?*
G04 #@! TF.SameCoordinates,Original*
G04 #@! TF.FileFunction,Profile,NP*
%FSLAX46Y46*%
G04 Gerber Fmt 4.6, Leading zero omitted, Abs format (unit mm)*
G04 Created by KiCad (PCBNEW 5.1.2) date 2019-05-17 11:59:17*
%MOMM*%
%LPD*%
G04 APERTURE LIST*
%ADD10C,0.050000*%
G04 APERTURE END LIST*
D10*
X108600000Y-122050000D02*
X112250000Y-117650000D01*
X108600000Y-131150000D02*
X108600000Y-122050000D01*
X118600000Y-131150000D02*
X108600000Y-131150000D01*
X118600000Y-122500000D02*
X118600000Y-131150000D01*
X131250000Y-159250000D02*
G75*
G02X130000000Y-158000000I0J1250000D01*
G01*
X141250000Y-158000000D02*
G75*
G02X140000000Y-159250000I-1250000J0D01*
G01*
X159250000Y-116500000D02*
G75*
G02X158000000Y-117750000I-1250000J0D01*
G01*
X158000000Y-78750000D02*
G75*
G02X159250000Y-80000000I0J-1250000D01*
G01*
X112250000Y-80000000D02*
G75*
G02X113500000Y-78750000I1250000J0D01*
G01*
X112250000Y-117650000D02*
X112250000Y-80000000D01*
X127000000Y-122500000D02*
X118600000Y-122500000D01*
X127000000Y-137000000D02*
X127000000Y-122500000D01*
X130000000Y-140250000D02*
X127000000Y-137000000D01*
X130000000Y-158000000D02*
X130000000Y-140250000D01*
X140000000Y-159250000D02*
X131250000Y-159250000D01*
X141250000Y-138500000D02*
X141250000Y-158000000D01*
X144000000Y-135250000D02*
X141250000Y-138500000D01*
X144000000Y-117750000D02*
X144000000Y-135250000D01*
X158000000Y-117750000D02*
X144000000Y-117750000D01*
X159250000Y-80000000D02*
X159250000Y-116500000D01*
X113500000Y-78750000D02*
X158000000Y-78750000D01*
M02*
