G04 #@! TF.GenerationSoftware,KiCad,Pcbnew,5.1.2*
G04 #@! TF.CreationDate,2019-05-17T11:59:17-05:00*
G04 #@! TF.ProjectId,STM32F411Minimal,53544d33-3246-4343-9131-4d696e696d61,rev?*
G04 #@! TF.SameCoordinates,Original*
G04 #@! TF.FileFunction,Copper,L2,Bot*
G04 #@! TF.FilePolarity,Positive*
%FSLAX46Y46*%
G04 Gerber Fmt 4.6, Leading zero omitted, Abs format (unit mm)*
G04 Created by KiCad (PCBNEW 5.1.2) date 2019-05-17 11:59:17*
%MOMM*%
%LPD*%
G04 APERTURE LIST*
%ADD10R,1.700000X1.700000*%
%ADD11O,1.700000X1.700000*%
%ADD12C,0.800000*%
%ADD13C,0.250000*%
%ADD14C,0.254000*%
G04 APERTURE END LIST*
D10*
X156500000Y-96340000D03*
D11*
X156500000Y-98880000D03*
X156500000Y-101420000D03*
X156500000Y-103960000D03*
X156500000Y-106500000D03*
X156500000Y-109040000D03*
X156500000Y-111580000D03*
X156500000Y-114120000D03*
D10*
X116000000Y-119000000D03*
D11*
X116000000Y-116460000D03*
X116000000Y-113920000D03*
X116000000Y-111380000D03*
X116000000Y-108840000D03*
X116000000Y-106300000D03*
X116000000Y-103760000D03*
X116000000Y-101220000D03*
X116000000Y-98680000D03*
X116000000Y-96140000D03*
X116000000Y-93600000D03*
D10*
X132000000Y-123420000D03*
D11*
X132000000Y-125960000D03*
X132000000Y-128500000D03*
X132000000Y-131040000D03*
X132000000Y-133580000D03*
X132000000Y-136120000D03*
X132000000Y-138660000D03*
X132000000Y-141200000D03*
X132000000Y-143740000D03*
X132000000Y-146280000D03*
X132000000Y-148820000D03*
X132000000Y-151360000D03*
X132000000Y-153900000D03*
X132000000Y-156440000D03*
D10*
X139500000Y-153900000D03*
D11*
X139500000Y-151360000D03*
X139500000Y-148820000D03*
X139500000Y-146280000D03*
X139500000Y-143740000D03*
X139500000Y-141200000D03*
X139500000Y-138660000D03*
X139500000Y-136120000D03*
X139500000Y-133580000D03*
X139500000Y-131040000D03*
X139500000Y-128500000D03*
X139500000Y-125960000D03*
X139500000Y-123420000D03*
D10*
X144120000Y-81500000D03*
D11*
X141580000Y-81500000D03*
X139040000Y-81500000D03*
X136500000Y-81500000D03*
X133960000Y-81500000D03*
X131420000Y-81500000D03*
D10*
X111450000Y-128500000D03*
D11*
X113990000Y-128500000D03*
D12*
X131750000Y-110500000D03*
X127250000Y-109250000D03*
X134875000Y-117875000D03*
X148750000Y-112750000D03*
X145000000Y-116250000D03*
X135747652Y-112595960D03*
X122550000Y-118950000D03*
X136000000Y-117750000D03*
X146500000Y-100250000D03*
X150000000Y-99250000D03*
X153250000Y-97250000D03*
X140000000Y-96500000D03*
X143750000Y-103250000D03*
X138000000Y-101750000D03*
X140046663Y-104046663D03*
X130750000Y-91500000D03*
X123000000Y-102250000D03*
X134250000Y-101750000D03*
X147500000Y-113000000D03*
X150250000Y-113250000D03*
X127500000Y-107250000D03*
X144250000Y-113000000D03*
X118250000Y-102250000D03*
X129500000Y-86500000D03*
X122750000Y-89750000D03*
X114250000Y-117500000D03*
X117750000Y-117500000D03*
X133000000Y-111750000D03*
X144750000Y-93750000D03*
X141000000Y-104750000D03*
X137500000Y-96500000D03*
X136750000Y-100250000D03*
X136478464Y-106978464D03*
X135750000Y-108500000D03*
X136500000Y-109500000D03*
X137500000Y-111750000D03*
X138250000Y-113000000D03*
X132000000Y-109250000D03*
X133500000Y-109000000D03*
X134311226Y-107500000D03*
X135000000Y-106250000D03*
X135500000Y-105000000D03*
X133750000Y-113250000D03*
X134750000Y-114250000D03*
X136500000Y-115250000D03*
X140012653Y-112305000D03*
X145000000Y-103250000D03*
X139750000Y-108250000D03*
X140500000Y-109000000D03*
X149750000Y-106500000D03*
D13*
X131750000Y-110500000D02*
X128500000Y-110500000D01*
X128500000Y-110500000D02*
X127250000Y-109250000D01*
X134875000Y-115625000D02*
X134875000Y-117875000D01*
X135500000Y-115000000D02*
X134875000Y-115625000D01*
X148350001Y-113149999D02*
X148350001Y-113774999D01*
X148750000Y-112750000D02*
X148350001Y-113149999D01*
X145875000Y-116250000D02*
X148350001Y-113774999D01*
X145000000Y-116250000D02*
X145875000Y-116250000D01*
X135747652Y-113161645D02*
X135500000Y-113409297D01*
X135500000Y-113409297D02*
X135500000Y-115000000D01*
X135747652Y-112595960D02*
X135747652Y-113161645D01*
X122550000Y-111626998D02*
X122550000Y-118950000D01*
X128500000Y-110500000D02*
X123676998Y-110500000D01*
X123676998Y-110500000D02*
X122550000Y-111626998D01*
X116564001Y-102395001D02*
X113895001Y-102395001D01*
X123000000Y-102250000D02*
X118250000Y-102250000D01*
X116709002Y-102250000D02*
X116564001Y-102395001D01*
X113895001Y-102395001D02*
X113750000Y-102250000D01*
X118250000Y-102250000D02*
X116709002Y-102250000D01*
X114815685Y-117500000D02*
X114250000Y-117500000D01*
X114950686Y-117635001D02*
X114815685Y-117500000D01*
X116564001Y-117635001D02*
X114950686Y-117635001D01*
X116699002Y-117500000D02*
X116564001Y-117635001D01*
X117750000Y-117500000D02*
X116699002Y-117500000D01*
X144750000Y-93750000D02*
X141000000Y-97500000D01*
X141000000Y-97500000D02*
X141000000Y-104750000D01*
X137500000Y-96500000D02*
X136750000Y-97250000D01*
X136750000Y-97250000D02*
X136750000Y-100250000D01*
X154874989Y-103846009D02*
X154874989Y-106852191D01*
X156500000Y-101420000D02*
X156500000Y-102220998D01*
X156500000Y-102220998D02*
X154874989Y-103846009D01*
X154874989Y-106852191D02*
X151988590Y-109738590D01*
X151975001Y-109725001D02*
X139475001Y-109725001D01*
X151988590Y-109738590D02*
X151975001Y-109725001D01*
X139475001Y-109725001D02*
X136728464Y-106978464D01*
X136728464Y-106978464D02*
X136478464Y-106978464D01*
X155650001Y-104809999D02*
X156500000Y-103960000D01*
X136573002Y-108500000D02*
X138302972Y-110229970D01*
X138302972Y-110229970D02*
X152133620Y-110229970D01*
X152133620Y-110229970D02*
X155324999Y-107038591D01*
X155324999Y-107038591D02*
X155324999Y-105135001D01*
X135750000Y-108500000D02*
X136573002Y-108500000D01*
X155324999Y-105135001D02*
X155650001Y-104809999D01*
X156500000Y-106500000D02*
X152320020Y-110679980D01*
X137679980Y-110679980D02*
X136500000Y-109500000D01*
X152320020Y-110679980D02*
X137679980Y-110679980D01*
X138120010Y-111129990D02*
X152620010Y-111129990D01*
X137500000Y-111750000D02*
X138120010Y-111129990D01*
X154710000Y-109040000D02*
X156500000Y-109040000D01*
X152620010Y-111129990D02*
X154710000Y-109040000D01*
X139670000Y-111580000D02*
X156500000Y-111580000D01*
X138250000Y-113000000D02*
X139670000Y-111580000D01*
X126510000Y-103760000D02*
X116000000Y-103760000D01*
X132000000Y-109250000D02*
X126510000Y-103760000D01*
X117202081Y-101220000D02*
X116000000Y-101220000D01*
X126285685Y-101220000D02*
X117202081Y-101220000D01*
X133500000Y-108434315D02*
X126285685Y-101220000D01*
X133500000Y-109000000D02*
X133500000Y-108434315D01*
X125491226Y-98680000D02*
X116000000Y-98680000D01*
X134311226Y-107500000D02*
X125491226Y-98680000D01*
X124890000Y-96140000D02*
X116000000Y-96140000D01*
X135250000Y-106500000D02*
X124890000Y-96140000D01*
X123850000Y-93600000D02*
X116000000Y-93600000D01*
X135500000Y-105250000D02*
X123850000Y-93600000D01*
X132000000Y-123420000D02*
X132000000Y-115000000D01*
X132000000Y-115000000D02*
X133750000Y-113250000D01*
X125593225Y-99855001D02*
X133994112Y-108255888D01*
X134225001Y-108486777D02*
X133994112Y-108255888D01*
X134750000Y-111250000D02*
X134225001Y-110725001D01*
X134225001Y-110725001D02*
X134225001Y-108486777D01*
X134750000Y-114250000D02*
X134750000Y-111250000D01*
X114824999Y-93035999D02*
X114824999Y-99244001D01*
X115435999Y-92424999D02*
X114824999Y-93035999D01*
X136500000Y-81500000D02*
X125575001Y-92424999D01*
X115435999Y-99855001D02*
X125593225Y-99855001D01*
X114824999Y-99244001D02*
X115435999Y-99855001D01*
X125575001Y-92424999D02*
X115435999Y-92424999D01*
X136500000Y-112323002D02*
X136500000Y-115250000D01*
X139040000Y-81500000D02*
X139040000Y-103343926D01*
X135753463Y-106630463D02*
X135753463Y-107423535D01*
X135753463Y-107423535D02*
X135024999Y-108151999D01*
X135024999Y-108151999D02*
X135024999Y-110848001D01*
X139040000Y-103343926D02*
X135753463Y-106630463D01*
X135024999Y-110848001D02*
X136500000Y-112323002D01*
X140730001Y-80650001D02*
X141580000Y-81500000D01*
X140404999Y-80324999D02*
X140730001Y-80650001D01*
X126899589Y-80324999D02*
X140404999Y-80324999D01*
X113299991Y-93924597D02*
X126899589Y-80324999D01*
X113299991Y-118584993D02*
X113299991Y-93924597D01*
X114889999Y-120175001D02*
X113299991Y-118584993D01*
X125169989Y-120175001D02*
X114889999Y-120175001D01*
X129589989Y-124595001D02*
X125169989Y-120175001D01*
X133110001Y-124595001D02*
X129589989Y-124595001D01*
X140012653Y-117692349D02*
X133110001Y-124595001D01*
X140012653Y-112305000D02*
X140012653Y-117692349D01*
X145000000Y-103250000D02*
X140000000Y-108250000D01*
X140000000Y-108250000D02*
X139750000Y-108250000D01*
X140500000Y-109000000D02*
X147250000Y-109000000D01*
X147250000Y-109000000D02*
X149750000Y-106500000D01*
D14*
G36*
X114326199Y-120686003D02*
G01*
X114349998Y-120715002D01*
X114378996Y-120738800D01*
X114465722Y-120809975D01*
X114597752Y-120880547D01*
X114741013Y-120924004D01*
X114852666Y-120935001D01*
X114852676Y-120935001D01*
X114889999Y-120938677D01*
X114927322Y-120935001D01*
X124855188Y-120935001D01*
X125543187Y-121623000D01*
X112877000Y-121623000D01*
X112877000Y-119236803D01*
X114326199Y-120686003D01*
X114326199Y-120686003D01*
G37*
X114326199Y-120686003D02*
X114349998Y-120715002D01*
X114378996Y-120738800D01*
X114465722Y-120809975D01*
X114597752Y-120880547D01*
X114741013Y-120924004D01*
X114852666Y-120935001D01*
X114852676Y-120935001D01*
X114889999Y-120938677D01*
X114927322Y-120935001D01*
X124855188Y-120935001D01*
X125543187Y-121623000D01*
X112877000Y-121623000D01*
X112877000Y-119236803D01*
X114326199Y-120686003D01*
G36*
X147754774Y-112448102D02*
G01*
X147715000Y-112648061D01*
X147715000Y-112725774D01*
X147648057Y-112851015D01*
X147644455Y-112857753D01*
X147600998Y-113001014D01*
X147590001Y-113112667D01*
X147590001Y-113112677D01*
X147586325Y-113149999D01*
X147590001Y-113187321D01*
X147590001Y-113460197D01*
X145626421Y-115423778D01*
X145490256Y-115332795D01*
X145301898Y-115254774D01*
X145101939Y-115215000D01*
X144898061Y-115215000D01*
X144698102Y-115254774D01*
X144509744Y-115332795D01*
X144340226Y-115446063D01*
X144196063Y-115590226D01*
X144082795Y-115759744D01*
X144004774Y-115948102D01*
X143965000Y-116148061D01*
X143965000Y-116351939D01*
X144004774Y-116551898D01*
X144082795Y-116740256D01*
X144196063Y-116909774D01*
X144340226Y-117053937D01*
X144394198Y-117090000D01*
X144032419Y-117090000D01*
X144000000Y-117086807D01*
X143967581Y-117090000D01*
X143870617Y-117099550D01*
X143795892Y-117122218D01*
X143747884Y-117123018D01*
X143723151Y-117125870D01*
X143699451Y-117133493D01*
X143677693Y-117145594D01*
X143658713Y-117161706D01*
X143643242Y-117181212D01*
X143635382Y-117196527D01*
X143631550Y-117198575D01*
X143531052Y-117281052D01*
X143448575Y-117381550D01*
X143387290Y-117496207D01*
X143349550Y-117620617D01*
X143336807Y-117750000D01*
X143340000Y-117782419D01*
X143340000Y-121623000D01*
X137156804Y-121623000D01*
X140523656Y-118256148D01*
X140552654Y-118232350D01*
X140606083Y-118167247D01*
X140647627Y-118116626D01*
X140718199Y-117984596D01*
X140720522Y-117976939D01*
X140761656Y-117841335D01*
X140772653Y-117729682D01*
X140772653Y-117729673D01*
X140776329Y-117692350D01*
X140772653Y-117655027D01*
X140772653Y-113008711D01*
X140816590Y-112964774D01*
X140929858Y-112795256D01*
X141007879Y-112606898D01*
X141047653Y-112406939D01*
X141047653Y-112340000D01*
X147799552Y-112340000D01*
X147754774Y-112448102D01*
X147754774Y-112448102D01*
G37*
X147754774Y-112448102D02*
X147715000Y-112648061D01*
X147715000Y-112725774D01*
X147648057Y-112851015D01*
X147644455Y-112857753D01*
X147600998Y-113001014D01*
X147590001Y-113112667D01*
X147590001Y-113112677D01*
X147586325Y-113149999D01*
X147590001Y-113187321D01*
X147590001Y-113460197D01*
X145626421Y-115423778D01*
X145490256Y-115332795D01*
X145301898Y-115254774D01*
X145101939Y-115215000D01*
X144898061Y-115215000D01*
X144698102Y-115254774D01*
X144509744Y-115332795D01*
X144340226Y-115446063D01*
X144196063Y-115590226D01*
X144082795Y-115759744D01*
X144004774Y-115948102D01*
X143965000Y-116148061D01*
X143965000Y-116351939D01*
X144004774Y-116551898D01*
X144082795Y-116740256D01*
X144196063Y-116909774D01*
X144340226Y-117053937D01*
X144394198Y-117090000D01*
X144032419Y-117090000D01*
X144000000Y-117086807D01*
X143967581Y-117090000D01*
X143870617Y-117099550D01*
X143795892Y-117122218D01*
X143747884Y-117123018D01*
X143723151Y-117125870D01*
X143699451Y-117133493D01*
X143677693Y-117145594D01*
X143658713Y-117161706D01*
X143643242Y-117181212D01*
X143635382Y-117196527D01*
X143631550Y-117198575D01*
X143531052Y-117281052D01*
X143448575Y-117381550D01*
X143387290Y-117496207D01*
X143349550Y-117620617D01*
X143336807Y-117750000D01*
X143340000Y-117782419D01*
X143340000Y-121623000D01*
X137156804Y-121623000D01*
X140523656Y-118256148D01*
X140552654Y-118232350D01*
X140606083Y-118167247D01*
X140647627Y-118116626D01*
X140718199Y-117984596D01*
X140720522Y-117976939D01*
X140761656Y-117841335D01*
X140772653Y-117729682D01*
X140772653Y-117729673D01*
X140776329Y-117692350D01*
X140772653Y-117655027D01*
X140772653Y-113008711D01*
X140816590Y-112964774D01*
X140929858Y-112795256D01*
X141007879Y-112606898D01*
X141047653Y-112406939D01*
X141047653Y-112340000D01*
X147799552Y-112340000D01*
X147754774Y-112448102D01*
G36*
X139252654Y-117377546D02*
G01*
X135007201Y-121623000D01*
X132760000Y-121623000D01*
X132760000Y-115314801D01*
X133716304Y-114358497D01*
X133754774Y-114551898D01*
X133832795Y-114740256D01*
X133946063Y-114909774D01*
X134090226Y-115053937D01*
X134259744Y-115167205D01*
X134265558Y-115169613D01*
X134240026Y-115200724D01*
X134194979Y-115285000D01*
X134169454Y-115332754D01*
X134125997Y-115476015D01*
X134115000Y-115587668D01*
X134115000Y-115587678D01*
X134111324Y-115625000D01*
X134115000Y-115662323D01*
X134115001Y-117171288D01*
X134071063Y-117215226D01*
X133957795Y-117384744D01*
X133879774Y-117573102D01*
X133840000Y-117773061D01*
X133840000Y-117976939D01*
X133879774Y-118176898D01*
X133957795Y-118365256D01*
X134071063Y-118534774D01*
X134215226Y-118678937D01*
X134384744Y-118792205D01*
X134573102Y-118870226D01*
X134773061Y-118910000D01*
X134976939Y-118910000D01*
X135176898Y-118870226D01*
X135365256Y-118792205D01*
X135534774Y-118678937D01*
X135678937Y-118534774D01*
X135792205Y-118365256D01*
X135870226Y-118176898D01*
X135910000Y-117976939D01*
X135910000Y-117773061D01*
X135870226Y-117573102D01*
X135792205Y-117384744D01*
X135678937Y-117215226D01*
X135635000Y-117171289D01*
X135635000Y-115939802D01*
X135683632Y-115891170D01*
X135696063Y-115909774D01*
X135840226Y-116053937D01*
X136009744Y-116167205D01*
X136198102Y-116245226D01*
X136398061Y-116285000D01*
X136601939Y-116285000D01*
X136801898Y-116245226D01*
X136990256Y-116167205D01*
X137159774Y-116053937D01*
X137303937Y-115909774D01*
X137417205Y-115740256D01*
X137495226Y-115551898D01*
X137535000Y-115351939D01*
X137535000Y-115148061D01*
X137495226Y-114948102D01*
X137417205Y-114759744D01*
X137303937Y-114590226D01*
X137260000Y-114546289D01*
X137260000Y-113314515D01*
X137332795Y-113490256D01*
X137446063Y-113659774D01*
X137590226Y-113803937D01*
X137759744Y-113917205D01*
X137948102Y-113995226D01*
X138148061Y-114035000D01*
X138351939Y-114035000D01*
X138551898Y-113995226D01*
X138740256Y-113917205D01*
X138909774Y-113803937D01*
X139053937Y-113659774D01*
X139167205Y-113490256D01*
X139245226Y-113301898D01*
X139252653Y-113264559D01*
X139252654Y-117377546D01*
X139252654Y-117377546D01*
G37*
X139252654Y-117377546D02*
X135007201Y-121623000D01*
X132760000Y-121623000D01*
X132760000Y-115314801D01*
X133716304Y-114358497D01*
X133754774Y-114551898D01*
X133832795Y-114740256D01*
X133946063Y-114909774D01*
X134090226Y-115053937D01*
X134259744Y-115167205D01*
X134265558Y-115169613D01*
X134240026Y-115200724D01*
X134194979Y-115285000D01*
X134169454Y-115332754D01*
X134125997Y-115476015D01*
X134115000Y-115587668D01*
X134115000Y-115587678D01*
X134111324Y-115625000D01*
X134115000Y-115662323D01*
X134115001Y-117171288D01*
X134071063Y-117215226D01*
X133957795Y-117384744D01*
X133879774Y-117573102D01*
X133840000Y-117773061D01*
X133840000Y-117976939D01*
X133879774Y-118176898D01*
X133957795Y-118365256D01*
X134071063Y-118534774D01*
X134215226Y-118678937D01*
X134384744Y-118792205D01*
X134573102Y-118870226D01*
X134773061Y-118910000D01*
X134976939Y-118910000D01*
X135176898Y-118870226D01*
X135365256Y-118792205D01*
X135534774Y-118678937D01*
X135678937Y-118534774D01*
X135792205Y-118365256D01*
X135870226Y-118176898D01*
X135910000Y-117976939D01*
X135910000Y-117773061D01*
X135870226Y-117573102D01*
X135792205Y-117384744D01*
X135678937Y-117215226D01*
X135635000Y-117171289D01*
X135635000Y-115939802D01*
X135683632Y-115891170D01*
X135696063Y-115909774D01*
X135840226Y-116053937D01*
X136009744Y-116167205D01*
X136198102Y-116245226D01*
X136398061Y-116285000D01*
X136601939Y-116285000D01*
X136801898Y-116245226D01*
X136990256Y-116167205D01*
X137159774Y-116053937D01*
X137303937Y-115909774D01*
X137417205Y-115740256D01*
X137495226Y-115551898D01*
X137535000Y-115351939D01*
X137535000Y-115148061D01*
X137495226Y-114948102D01*
X137417205Y-114759744D01*
X137303937Y-114590226D01*
X137260000Y-114546289D01*
X137260000Y-113314515D01*
X137332795Y-113490256D01*
X137446063Y-113659774D01*
X137590226Y-113803937D01*
X137759744Y-113917205D01*
X137948102Y-113995226D01*
X138148061Y-114035000D01*
X138351939Y-114035000D01*
X138551898Y-113995226D01*
X138740256Y-113917205D01*
X138909774Y-113803937D01*
X139053937Y-113659774D01*
X139167205Y-113490256D01*
X139245226Y-113301898D01*
X139252653Y-113264559D01*
X139252654Y-117377546D01*
G36*
X133009744Y-109917205D02*
G01*
X133198102Y-109995226D01*
X133398061Y-110035000D01*
X133465001Y-110035000D01*
X133465001Y-110687678D01*
X133461325Y-110725001D01*
X133465001Y-110762323D01*
X133465001Y-110762333D01*
X133475998Y-110873986D01*
X133511181Y-110989970D01*
X133519455Y-111017247D01*
X133590027Y-111149277D01*
X133598642Y-111159774D01*
X133685000Y-111265002D01*
X133714003Y-111288804D01*
X133990001Y-111564802D01*
X133990001Y-112242462D01*
X133851939Y-112215000D01*
X133648061Y-112215000D01*
X133448102Y-112254774D01*
X133259744Y-112332795D01*
X133090226Y-112446063D01*
X132946063Y-112590226D01*
X132832795Y-112759744D01*
X132754774Y-112948102D01*
X132715000Y-113148061D01*
X132715000Y-113210198D01*
X131488998Y-114436201D01*
X131460000Y-114459999D01*
X131436202Y-114488997D01*
X131436201Y-114488998D01*
X131365026Y-114575724D01*
X131294454Y-114707754D01*
X131250998Y-114851015D01*
X131236324Y-115000000D01*
X131240001Y-115037332D01*
X131240000Y-121623000D01*
X127692789Y-121623000D01*
X125733793Y-119664004D01*
X125709990Y-119635000D01*
X125594265Y-119540027D01*
X125462236Y-119469455D01*
X125318975Y-119425998D01*
X125207322Y-119415001D01*
X125207311Y-119415001D01*
X125169989Y-119411325D01*
X125132667Y-119415001D01*
X123477666Y-119415001D01*
X123545226Y-119251898D01*
X123585000Y-119051939D01*
X123585000Y-118848061D01*
X123545226Y-118648102D01*
X123467205Y-118459744D01*
X123353937Y-118290226D01*
X123310000Y-118246289D01*
X123310000Y-111941799D01*
X123991800Y-111260000D01*
X128462677Y-111260000D01*
X128500000Y-111263676D01*
X128537323Y-111260000D01*
X131046289Y-111260000D01*
X131090226Y-111303937D01*
X131259744Y-111417205D01*
X131448102Y-111495226D01*
X131648061Y-111535000D01*
X131851939Y-111535000D01*
X132051898Y-111495226D01*
X132240256Y-111417205D01*
X132409774Y-111303937D01*
X132553937Y-111159774D01*
X132667205Y-110990256D01*
X132745226Y-110801898D01*
X132785000Y-110601939D01*
X132785000Y-110398061D01*
X132745226Y-110198102D01*
X132677972Y-110035739D01*
X132803937Y-109909774D01*
X132864028Y-109819841D01*
X133009744Y-109917205D01*
X133009744Y-109917205D01*
G37*
X133009744Y-109917205D02*
X133198102Y-109995226D01*
X133398061Y-110035000D01*
X133465001Y-110035000D01*
X133465001Y-110687678D01*
X133461325Y-110725001D01*
X133465001Y-110762323D01*
X133465001Y-110762333D01*
X133475998Y-110873986D01*
X133511181Y-110989970D01*
X133519455Y-111017247D01*
X133590027Y-111149277D01*
X133598642Y-111159774D01*
X133685000Y-111265002D01*
X133714003Y-111288804D01*
X133990001Y-111564802D01*
X133990001Y-112242462D01*
X133851939Y-112215000D01*
X133648061Y-112215000D01*
X133448102Y-112254774D01*
X133259744Y-112332795D01*
X133090226Y-112446063D01*
X132946063Y-112590226D01*
X132832795Y-112759744D01*
X132754774Y-112948102D01*
X132715000Y-113148061D01*
X132715000Y-113210198D01*
X131488998Y-114436201D01*
X131460000Y-114459999D01*
X131436202Y-114488997D01*
X131436201Y-114488998D01*
X131365026Y-114575724D01*
X131294454Y-114707754D01*
X131250998Y-114851015D01*
X131236324Y-115000000D01*
X131240001Y-115037332D01*
X131240000Y-121623000D01*
X127692789Y-121623000D01*
X125733793Y-119664004D01*
X125709990Y-119635000D01*
X125594265Y-119540027D01*
X125462236Y-119469455D01*
X125318975Y-119425998D01*
X125207322Y-119415001D01*
X125207311Y-119415001D01*
X125169989Y-119411325D01*
X125132667Y-119415001D01*
X123477666Y-119415001D01*
X123545226Y-119251898D01*
X123585000Y-119051939D01*
X123585000Y-118848061D01*
X123545226Y-118648102D01*
X123467205Y-118459744D01*
X123353937Y-118290226D01*
X123310000Y-118246289D01*
X123310000Y-111941799D01*
X123991800Y-111260000D01*
X128462677Y-111260000D01*
X128500000Y-111263676D01*
X128537323Y-111260000D01*
X131046289Y-111260000D01*
X131090226Y-111303937D01*
X131259744Y-111417205D01*
X131448102Y-111495226D01*
X131648061Y-111535000D01*
X131851939Y-111535000D01*
X132051898Y-111495226D01*
X132240256Y-111417205D01*
X132409774Y-111303937D01*
X132553937Y-111159774D01*
X132667205Y-110990256D01*
X132745226Y-110801898D01*
X132785000Y-110601939D01*
X132785000Y-110398061D01*
X132745226Y-110198102D01*
X132677972Y-110035739D01*
X132803937Y-109909774D01*
X132864028Y-109819841D01*
X133009744Y-109917205D01*
G36*
X130965000Y-109289803D02*
G01*
X130965000Y-109351939D01*
X131004774Y-109551898D01*
X131072028Y-109714261D01*
X131046289Y-109740000D01*
X128814802Y-109740000D01*
X128285000Y-109210199D01*
X128285000Y-109148061D01*
X128245226Y-108948102D01*
X128167205Y-108759744D01*
X128053937Y-108590226D01*
X127909774Y-108446063D01*
X127740256Y-108332795D01*
X127551898Y-108254774D01*
X127351939Y-108215000D01*
X127148061Y-108215000D01*
X126948102Y-108254774D01*
X126759744Y-108332795D01*
X126590226Y-108446063D01*
X126446063Y-108590226D01*
X126332795Y-108759744D01*
X126254774Y-108948102D01*
X126215000Y-109148061D01*
X126215000Y-109351939D01*
X126254774Y-109551898D01*
X126332689Y-109740000D01*
X123714321Y-109740000D01*
X123676998Y-109736324D01*
X123639675Y-109740000D01*
X123639665Y-109740000D01*
X123528012Y-109750997D01*
X123384751Y-109794454D01*
X123252722Y-109865026D01*
X123136997Y-109959999D01*
X123113199Y-109988997D01*
X122039002Y-111063194D01*
X122009999Y-111086997D01*
X121958888Y-111149276D01*
X121915026Y-111202722D01*
X121860925Y-111303937D01*
X121844454Y-111334752D01*
X121800997Y-111478013D01*
X121790000Y-111589666D01*
X121790000Y-111589676D01*
X121786324Y-111626998D01*
X121790000Y-111664320D01*
X121790001Y-118246288D01*
X121746063Y-118290226D01*
X121632795Y-118459744D01*
X121554774Y-118648102D01*
X121515000Y-118848061D01*
X121515000Y-119051939D01*
X121554774Y-119251898D01*
X121622334Y-119415001D01*
X117488072Y-119415001D01*
X117488072Y-118150000D01*
X117475812Y-118025518D01*
X117439502Y-117905820D01*
X117380537Y-117795506D01*
X117301185Y-117698815D01*
X117204494Y-117619463D01*
X117094180Y-117560498D01*
X117025313Y-117539607D01*
X117055134Y-117515134D01*
X117240706Y-117289014D01*
X117378599Y-117031034D01*
X117463513Y-116751111D01*
X117492185Y-116460000D01*
X117463513Y-116168889D01*
X117378599Y-115888966D01*
X117240706Y-115630986D01*
X117055134Y-115404866D01*
X116829014Y-115219294D01*
X116774209Y-115190000D01*
X116829014Y-115160706D01*
X117055134Y-114975134D01*
X117240706Y-114749014D01*
X117378599Y-114491034D01*
X117463513Y-114211111D01*
X117492185Y-113920000D01*
X117463513Y-113628889D01*
X117378599Y-113348966D01*
X117240706Y-113090986D01*
X117055134Y-112864866D01*
X116829014Y-112679294D01*
X116774209Y-112650000D01*
X116829014Y-112620706D01*
X117055134Y-112435134D01*
X117240706Y-112209014D01*
X117378599Y-111951034D01*
X117463513Y-111671111D01*
X117492185Y-111380000D01*
X117463513Y-111088889D01*
X117378599Y-110808966D01*
X117240706Y-110550986D01*
X117055134Y-110324866D01*
X116829014Y-110139294D01*
X116774209Y-110110000D01*
X116829014Y-110080706D01*
X117055134Y-109895134D01*
X117240706Y-109669014D01*
X117378599Y-109411034D01*
X117463513Y-109131111D01*
X117492185Y-108840000D01*
X117463513Y-108548889D01*
X117378599Y-108268966D01*
X117240706Y-108010986D01*
X117055134Y-107784866D01*
X116829014Y-107599294D01*
X116774209Y-107570000D01*
X116829014Y-107540706D01*
X117055134Y-107355134D01*
X117240706Y-107129014D01*
X117378599Y-106871034D01*
X117463513Y-106591111D01*
X117492185Y-106300000D01*
X117463513Y-106008889D01*
X117378599Y-105728966D01*
X117240706Y-105470986D01*
X117055134Y-105244866D01*
X116829014Y-105059294D01*
X116774209Y-105030000D01*
X116829014Y-105000706D01*
X117055134Y-104815134D01*
X117240706Y-104589014D01*
X117277595Y-104520000D01*
X126195199Y-104520000D01*
X130965000Y-109289803D01*
X130965000Y-109289803D01*
G37*
X130965000Y-109289803D02*
X130965000Y-109351939D01*
X131004774Y-109551898D01*
X131072028Y-109714261D01*
X131046289Y-109740000D01*
X128814802Y-109740000D01*
X128285000Y-109210199D01*
X128285000Y-109148061D01*
X128245226Y-108948102D01*
X128167205Y-108759744D01*
X128053937Y-108590226D01*
X127909774Y-108446063D01*
X127740256Y-108332795D01*
X127551898Y-108254774D01*
X127351939Y-108215000D01*
X127148061Y-108215000D01*
X126948102Y-108254774D01*
X126759744Y-108332795D01*
X126590226Y-108446063D01*
X126446063Y-108590226D01*
X126332795Y-108759744D01*
X126254774Y-108948102D01*
X126215000Y-109148061D01*
X126215000Y-109351939D01*
X126254774Y-109551898D01*
X126332689Y-109740000D01*
X123714321Y-109740000D01*
X123676998Y-109736324D01*
X123639675Y-109740000D01*
X123639665Y-109740000D01*
X123528012Y-109750997D01*
X123384751Y-109794454D01*
X123252722Y-109865026D01*
X123136997Y-109959999D01*
X123113199Y-109988997D01*
X122039002Y-111063194D01*
X122009999Y-111086997D01*
X121958888Y-111149276D01*
X121915026Y-111202722D01*
X121860925Y-111303937D01*
X121844454Y-111334752D01*
X121800997Y-111478013D01*
X121790000Y-111589666D01*
X121790000Y-111589676D01*
X121786324Y-111626998D01*
X121790000Y-111664320D01*
X121790001Y-118246288D01*
X121746063Y-118290226D01*
X121632795Y-118459744D01*
X121554774Y-118648102D01*
X121515000Y-118848061D01*
X121515000Y-119051939D01*
X121554774Y-119251898D01*
X121622334Y-119415001D01*
X117488072Y-119415001D01*
X117488072Y-118150000D01*
X117475812Y-118025518D01*
X117439502Y-117905820D01*
X117380537Y-117795506D01*
X117301185Y-117698815D01*
X117204494Y-117619463D01*
X117094180Y-117560498D01*
X117025313Y-117539607D01*
X117055134Y-117515134D01*
X117240706Y-117289014D01*
X117378599Y-117031034D01*
X117463513Y-116751111D01*
X117492185Y-116460000D01*
X117463513Y-116168889D01*
X117378599Y-115888966D01*
X117240706Y-115630986D01*
X117055134Y-115404866D01*
X116829014Y-115219294D01*
X116774209Y-115190000D01*
X116829014Y-115160706D01*
X117055134Y-114975134D01*
X117240706Y-114749014D01*
X117378599Y-114491034D01*
X117463513Y-114211111D01*
X117492185Y-113920000D01*
X117463513Y-113628889D01*
X117378599Y-113348966D01*
X117240706Y-113090986D01*
X117055134Y-112864866D01*
X116829014Y-112679294D01*
X116774209Y-112650000D01*
X116829014Y-112620706D01*
X117055134Y-112435134D01*
X117240706Y-112209014D01*
X117378599Y-111951034D01*
X117463513Y-111671111D01*
X117492185Y-111380000D01*
X117463513Y-111088889D01*
X117378599Y-110808966D01*
X117240706Y-110550986D01*
X117055134Y-110324866D01*
X116829014Y-110139294D01*
X116774209Y-110110000D01*
X116829014Y-110080706D01*
X117055134Y-109895134D01*
X117240706Y-109669014D01*
X117378599Y-109411034D01*
X117463513Y-109131111D01*
X117492185Y-108840000D01*
X117463513Y-108548889D01*
X117378599Y-108268966D01*
X117240706Y-108010986D01*
X117055134Y-107784866D01*
X116829014Y-107599294D01*
X116774209Y-107570000D01*
X116829014Y-107540706D01*
X117055134Y-107355134D01*
X117240706Y-107129014D01*
X117378599Y-106871034D01*
X117463513Y-106591111D01*
X117492185Y-106300000D01*
X117463513Y-106008889D01*
X117378599Y-105728966D01*
X117240706Y-105470986D01*
X117055134Y-105244866D01*
X116829014Y-105059294D01*
X116774209Y-105030000D01*
X116829014Y-105000706D01*
X117055134Y-104815134D01*
X117240706Y-104589014D01*
X117277595Y-104520000D01*
X126195199Y-104520000D01*
X130965000Y-109289803D01*
G36*
X114065000Y-99206669D02*
G01*
X114061323Y-99244001D01*
X114065000Y-99281334D01*
X114075997Y-99392987D01*
X114089179Y-99436443D01*
X114119453Y-99536247D01*
X114190025Y-99668277D01*
X114244784Y-99735000D01*
X114284999Y-99784002D01*
X114313996Y-99807799D01*
X114821447Y-100315252D01*
X114759294Y-100390986D01*
X114621401Y-100648966D01*
X114536487Y-100928889D01*
X114507815Y-101220000D01*
X114536487Y-101511111D01*
X114621401Y-101791034D01*
X114759294Y-102049014D01*
X114944866Y-102275134D01*
X115170986Y-102460706D01*
X115225791Y-102490000D01*
X115170986Y-102519294D01*
X114944866Y-102704866D01*
X114759294Y-102930986D01*
X114621401Y-103188966D01*
X114536487Y-103468889D01*
X114507815Y-103760000D01*
X114536487Y-104051111D01*
X114621401Y-104331034D01*
X114759294Y-104589014D01*
X114944866Y-104815134D01*
X115170986Y-105000706D01*
X115225791Y-105030000D01*
X115170986Y-105059294D01*
X114944866Y-105244866D01*
X114759294Y-105470986D01*
X114621401Y-105728966D01*
X114536487Y-106008889D01*
X114507815Y-106300000D01*
X114536487Y-106591111D01*
X114621401Y-106871034D01*
X114759294Y-107129014D01*
X114944866Y-107355134D01*
X115170986Y-107540706D01*
X115225791Y-107570000D01*
X115170986Y-107599294D01*
X114944866Y-107784866D01*
X114759294Y-108010986D01*
X114621401Y-108268966D01*
X114536487Y-108548889D01*
X114507815Y-108840000D01*
X114536487Y-109131111D01*
X114621401Y-109411034D01*
X114759294Y-109669014D01*
X114944866Y-109895134D01*
X115170986Y-110080706D01*
X115225791Y-110110000D01*
X115170986Y-110139294D01*
X114944866Y-110324866D01*
X114759294Y-110550986D01*
X114621401Y-110808966D01*
X114536487Y-111088889D01*
X114507815Y-111380000D01*
X114536487Y-111671111D01*
X114621401Y-111951034D01*
X114759294Y-112209014D01*
X114944866Y-112435134D01*
X115170986Y-112620706D01*
X115225791Y-112650000D01*
X115170986Y-112679294D01*
X114944866Y-112864866D01*
X114759294Y-113090986D01*
X114621401Y-113348966D01*
X114536487Y-113628889D01*
X114507815Y-113920000D01*
X114536487Y-114211111D01*
X114621401Y-114491034D01*
X114759294Y-114749014D01*
X114944866Y-114975134D01*
X115170986Y-115160706D01*
X115225791Y-115190000D01*
X115170986Y-115219294D01*
X114944866Y-115404866D01*
X114759294Y-115630986D01*
X114621401Y-115888966D01*
X114536487Y-116168889D01*
X114507815Y-116460000D01*
X114536487Y-116751111D01*
X114621401Y-117031034D01*
X114759294Y-117289014D01*
X114944866Y-117515134D01*
X114974687Y-117539607D01*
X114905820Y-117560498D01*
X114795506Y-117619463D01*
X114698815Y-117698815D01*
X114619463Y-117795506D01*
X114560498Y-117905820D01*
X114524188Y-118025518D01*
X114511928Y-118150000D01*
X114511928Y-118722129D01*
X114059991Y-118270192D01*
X114059991Y-94239398D01*
X114064999Y-94234390D01*
X114065000Y-99206669D01*
X114065000Y-99206669D01*
G37*
X114065000Y-99206669D02*
X114061323Y-99244001D01*
X114065000Y-99281334D01*
X114075997Y-99392987D01*
X114089179Y-99436443D01*
X114119453Y-99536247D01*
X114190025Y-99668277D01*
X114244784Y-99735000D01*
X114284999Y-99784002D01*
X114313996Y-99807799D01*
X114821447Y-100315252D01*
X114759294Y-100390986D01*
X114621401Y-100648966D01*
X114536487Y-100928889D01*
X114507815Y-101220000D01*
X114536487Y-101511111D01*
X114621401Y-101791034D01*
X114759294Y-102049014D01*
X114944866Y-102275134D01*
X115170986Y-102460706D01*
X115225791Y-102490000D01*
X115170986Y-102519294D01*
X114944866Y-102704866D01*
X114759294Y-102930986D01*
X114621401Y-103188966D01*
X114536487Y-103468889D01*
X114507815Y-103760000D01*
X114536487Y-104051111D01*
X114621401Y-104331034D01*
X114759294Y-104589014D01*
X114944866Y-104815134D01*
X115170986Y-105000706D01*
X115225791Y-105030000D01*
X115170986Y-105059294D01*
X114944866Y-105244866D01*
X114759294Y-105470986D01*
X114621401Y-105728966D01*
X114536487Y-106008889D01*
X114507815Y-106300000D01*
X114536487Y-106591111D01*
X114621401Y-106871034D01*
X114759294Y-107129014D01*
X114944866Y-107355134D01*
X115170986Y-107540706D01*
X115225791Y-107570000D01*
X115170986Y-107599294D01*
X114944866Y-107784866D01*
X114759294Y-108010986D01*
X114621401Y-108268966D01*
X114536487Y-108548889D01*
X114507815Y-108840000D01*
X114536487Y-109131111D01*
X114621401Y-109411034D01*
X114759294Y-109669014D01*
X114944866Y-109895134D01*
X115170986Y-110080706D01*
X115225791Y-110110000D01*
X115170986Y-110139294D01*
X114944866Y-110324866D01*
X114759294Y-110550986D01*
X114621401Y-110808966D01*
X114536487Y-111088889D01*
X114507815Y-111380000D01*
X114536487Y-111671111D01*
X114621401Y-111951034D01*
X114759294Y-112209014D01*
X114944866Y-112435134D01*
X115170986Y-112620706D01*
X115225791Y-112650000D01*
X115170986Y-112679294D01*
X114944866Y-112864866D01*
X114759294Y-113090986D01*
X114621401Y-113348966D01*
X114536487Y-113628889D01*
X114507815Y-113920000D01*
X114536487Y-114211111D01*
X114621401Y-114491034D01*
X114759294Y-114749014D01*
X114944866Y-114975134D01*
X115170986Y-115160706D01*
X115225791Y-115190000D01*
X115170986Y-115219294D01*
X114944866Y-115404866D01*
X114759294Y-115630986D01*
X114621401Y-115888966D01*
X114536487Y-116168889D01*
X114507815Y-116460000D01*
X114536487Y-116751111D01*
X114621401Y-117031034D01*
X114759294Y-117289014D01*
X114944866Y-117515134D01*
X114974687Y-117539607D01*
X114905820Y-117560498D01*
X114795506Y-117619463D01*
X114698815Y-117698815D01*
X114619463Y-117795506D01*
X114560498Y-117905820D01*
X114524188Y-118025518D01*
X114511928Y-118150000D01*
X114511928Y-118722129D01*
X114059991Y-118270192D01*
X114059991Y-94239398D01*
X114064999Y-94234390D01*
X114065000Y-99206669D01*
G36*
X158113985Y-79424341D02*
G01*
X158223625Y-79457443D01*
X158324748Y-79511212D01*
X158413503Y-79583599D01*
X158486509Y-79671848D01*
X158540981Y-79772591D01*
X158574850Y-79882004D01*
X158590000Y-80026145D01*
X158590001Y-116467712D01*
X158575659Y-116613985D01*
X158542557Y-116723625D01*
X158488788Y-116824748D01*
X158445307Y-116878061D01*
X145728961Y-117090000D01*
X145605802Y-117090000D01*
X145659774Y-117053937D01*
X145703711Y-117010000D01*
X145837678Y-117010000D01*
X145875000Y-117013676D01*
X145912322Y-117010000D01*
X145912333Y-117010000D01*
X146023986Y-116999003D01*
X146167247Y-116955546D01*
X146299276Y-116884974D01*
X146415001Y-116790001D01*
X146438804Y-116760997D01*
X148861004Y-114338798D01*
X148890002Y-114315000D01*
X148972070Y-114215000D01*
X148984975Y-114199276D01*
X149055547Y-114067246D01*
X149062516Y-114044271D01*
X149099004Y-113923985D01*
X149110001Y-113812332D01*
X149110001Y-113812322D01*
X149113677Y-113774999D01*
X149110001Y-113737677D01*
X149110001Y-113721159D01*
X149240256Y-113667205D01*
X149409774Y-113553937D01*
X149553937Y-113409774D01*
X149667205Y-113240256D01*
X149745226Y-113051898D01*
X149785000Y-112851939D01*
X149785000Y-112648061D01*
X149745226Y-112448102D01*
X149700448Y-112340000D01*
X155222405Y-112340000D01*
X155259294Y-112409014D01*
X155444866Y-112635134D01*
X155670986Y-112820706D01*
X155725791Y-112850000D01*
X155670986Y-112879294D01*
X155444866Y-113064866D01*
X155259294Y-113290986D01*
X155121401Y-113548966D01*
X155036487Y-113828889D01*
X155007815Y-114120000D01*
X155036487Y-114411111D01*
X155121401Y-114691034D01*
X155259294Y-114949014D01*
X155444866Y-115175134D01*
X155670986Y-115360706D01*
X155928966Y-115498599D01*
X156208889Y-115583513D01*
X156427050Y-115605000D01*
X156572950Y-115605000D01*
X156791111Y-115583513D01*
X157071034Y-115498599D01*
X157329014Y-115360706D01*
X157555134Y-115175134D01*
X157740706Y-114949014D01*
X157878599Y-114691034D01*
X157963513Y-114411111D01*
X157992185Y-114120000D01*
X157963513Y-113828889D01*
X157878599Y-113548966D01*
X157740706Y-113290986D01*
X157555134Y-113064866D01*
X157329014Y-112879294D01*
X157274209Y-112850000D01*
X157329014Y-112820706D01*
X157555134Y-112635134D01*
X157740706Y-112409014D01*
X157878599Y-112151034D01*
X157963513Y-111871111D01*
X157992185Y-111580000D01*
X157963513Y-111288889D01*
X157878599Y-111008966D01*
X157740706Y-110750986D01*
X157555134Y-110524866D01*
X157329014Y-110339294D01*
X157274209Y-110310000D01*
X157329014Y-110280706D01*
X157555134Y-110095134D01*
X157740706Y-109869014D01*
X157878599Y-109611034D01*
X157963513Y-109331111D01*
X157992185Y-109040000D01*
X157963513Y-108748889D01*
X157878599Y-108468966D01*
X157740706Y-108210986D01*
X157555134Y-107984866D01*
X157329014Y-107799294D01*
X157274209Y-107770000D01*
X157329014Y-107740706D01*
X157555134Y-107555134D01*
X157740706Y-107329014D01*
X157878599Y-107071034D01*
X157963513Y-106791111D01*
X157992185Y-106500000D01*
X157963513Y-106208889D01*
X157878599Y-105928966D01*
X157740706Y-105670986D01*
X157555134Y-105444866D01*
X157329014Y-105259294D01*
X157274209Y-105230000D01*
X157329014Y-105200706D01*
X157555134Y-105015134D01*
X157740706Y-104789014D01*
X157878599Y-104531034D01*
X157963513Y-104251111D01*
X157992185Y-103960000D01*
X157963513Y-103668889D01*
X157878599Y-103388966D01*
X157740706Y-103130986D01*
X157555134Y-102904866D01*
X157329014Y-102719294D01*
X157274209Y-102690000D01*
X157329014Y-102660706D01*
X157555134Y-102475134D01*
X157740706Y-102249014D01*
X157878599Y-101991034D01*
X157963513Y-101711111D01*
X157992185Y-101420000D01*
X157963513Y-101128889D01*
X157878599Y-100848966D01*
X157740706Y-100590986D01*
X157555134Y-100364866D01*
X157329014Y-100179294D01*
X157274209Y-100150000D01*
X157329014Y-100120706D01*
X157555134Y-99935134D01*
X157740706Y-99709014D01*
X157878599Y-99451034D01*
X157963513Y-99171111D01*
X157992185Y-98880000D01*
X157963513Y-98588889D01*
X157878599Y-98308966D01*
X157740706Y-98050986D01*
X157555134Y-97824866D01*
X157525313Y-97800393D01*
X157594180Y-97779502D01*
X157704494Y-97720537D01*
X157801185Y-97641185D01*
X157880537Y-97544494D01*
X157939502Y-97434180D01*
X157975812Y-97314482D01*
X157988072Y-97190000D01*
X157988072Y-95490000D01*
X157975812Y-95365518D01*
X157939502Y-95245820D01*
X157880537Y-95135506D01*
X157801185Y-95038815D01*
X157704494Y-94959463D01*
X157594180Y-94900498D01*
X157474482Y-94864188D01*
X157350000Y-94851928D01*
X155650000Y-94851928D01*
X155525518Y-94864188D01*
X155405820Y-94900498D01*
X155295506Y-94959463D01*
X155198815Y-95038815D01*
X155119463Y-95135506D01*
X155060498Y-95245820D01*
X155024188Y-95365518D01*
X155011928Y-95490000D01*
X155011928Y-97190000D01*
X155024188Y-97314482D01*
X155060498Y-97434180D01*
X155119463Y-97544494D01*
X155198815Y-97641185D01*
X155295506Y-97720537D01*
X155405820Y-97779502D01*
X155474687Y-97800393D01*
X155444866Y-97824866D01*
X155259294Y-98050986D01*
X155121401Y-98308966D01*
X155036487Y-98588889D01*
X155007815Y-98880000D01*
X155036487Y-99171111D01*
X155121401Y-99451034D01*
X155259294Y-99709014D01*
X155444866Y-99935134D01*
X155670986Y-100120706D01*
X155725791Y-100150000D01*
X155670986Y-100179294D01*
X155444866Y-100364866D01*
X155259294Y-100590986D01*
X155121401Y-100848966D01*
X155036487Y-101128889D01*
X155007815Y-101420000D01*
X155036487Y-101711111D01*
X155121401Y-101991034D01*
X155259294Y-102249014D01*
X155321448Y-102324749D01*
X154363992Y-103282205D01*
X154334988Y-103306008D01*
X154303869Y-103343927D01*
X154240015Y-103421733D01*
X154170440Y-103551898D01*
X154169443Y-103553763D01*
X154125986Y-103697024D01*
X154114989Y-103808677D01*
X154114989Y-103808687D01*
X154111313Y-103846009D01*
X154114989Y-103883332D01*
X154114990Y-106537388D01*
X151687378Y-108965001D01*
X148359800Y-108965001D01*
X149789802Y-107535000D01*
X149851939Y-107535000D01*
X150051898Y-107495226D01*
X150240256Y-107417205D01*
X150409774Y-107303937D01*
X150553937Y-107159774D01*
X150667205Y-106990256D01*
X150745226Y-106801898D01*
X150785000Y-106601939D01*
X150785000Y-106398061D01*
X150745226Y-106198102D01*
X150667205Y-106009744D01*
X150553937Y-105840226D01*
X150409774Y-105696063D01*
X150240256Y-105582795D01*
X150051898Y-105504774D01*
X149851939Y-105465000D01*
X149648061Y-105465000D01*
X149448102Y-105504774D01*
X149259744Y-105582795D01*
X149090226Y-105696063D01*
X148946063Y-105840226D01*
X148832795Y-106009744D01*
X148754774Y-106198102D01*
X148715000Y-106398061D01*
X148715000Y-106460198D01*
X146935199Y-108240000D01*
X141203711Y-108240000D01*
X141159774Y-108196063D01*
X141141169Y-108183632D01*
X145039802Y-104285000D01*
X145101939Y-104285000D01*
X145301898Y-104245226D01*
X145490256Y-104167205D01*
X145659774Y-104053937D01*
X145803937Y-103909774D01*
X145917205Y-103740256D01*
X145995226Y-103551898D01*
X146035000Y-103351939D01*
X146035000Y-103148061D01*
X145995226Y-102948102D01*
X145917205Y-102759744D01*
X145803937Y-102590226D01*
X145659774Y-102446063D01*
X145490256Y-102332795D01*
X145301898Y-102254774D01*
X145101939Y-102215000D01*
X144898061Y-102215000D01*
X144698102Y-102254774D01*
X144509744Y-102332795D01*
X144340226Y-102446063D01*
X144196063Y-102590226D01*
X144082795Y-102759744D01*
X144004774Y-102948102D01*
X143965000Y-103148061D01*
X143965000Y-103210198D01*
X141881488Y-105293711D01*
X141917205Y-105240256D01*
X141995226Y-105051898D01*
X142035000Y-104851939D01*
X142035000Y-104648061D01*
X141995226Y-104448102D01*
X141917205Y-104259744D01*
X141803937Y-104090226D01*
X141760000Y-104046289D01*
X141760000Y-97814801D01*
X144789802Y-94785000D01*
X144851939Y-94785000D01*
X145051898Y-94745226D01*
X145240256Y-94667205D01*
X145409774Y-94553937D01*
X145553937Y-94409774D01*
X145667205Y-94240256D01*
X145745226Y-94051898D01*
X145785000Y-93851939D01*
X145785000Y-93648061D01*
X145745226Y-93448102D01*
X145667205Y-93259744D01*
X145553937Y-93090226D01*
X145409774Y-92946063D01*
X145240256Y-92832795D01*
X145051898Y-92754774D01*
X144851939Y-92715000D01*
X144648061Y-92715000D01*
X144448102Y-92754774D01*
X144259744Y-92832795D01*
X144090226Y-92946063D01*
X143946063Y-93090226D01*
X143832795Y-93259744D01*
X143754774Y-93448102D01*
X143715000Y-93648061D01*
X143715000Y-93710198D01*
X140489003Y-96936196D01*
X140459999Y-96959999D01*
X140404871Y-97027174D01*
X140365026Y-97075724D01*
X140351508Y-97101015D01*
X140294454Y-97207754D01*
X140250997Y-97351015D01*
X140240000Y-97462668D01*
X140240000Y-97462678D01*
X140236324Y-97500000D01*
X140240000Y-97537323D01*
X140240001Y-104046288D01*
X140196063Y-104090226D01*
X140082795Y-104259744D01*
X140004774Y-104448102D01*
X139965000Y-104648061D01*
X139965000Y-104851939D01*
X140004774Y-105051898D01*
X140082795Y-105240256D01*
X140196063Y-105409774D01*
X140340226Y-105553937D01*
X140509744Y-105667205D01*
X140698102Y-105745226D01*
X140898061Y-105785000D01*
X141101939Y-105785000D01*
X141301898Y-105745226D01*
X141490256Y-105667205D01*
X141543711Y-105631488D01*
X139942238Y-107232961D01*
X139851939Y-107215000D01*
X139648061Y-107215000D01*
X139448102Y-107254774D01*
X139259744Y-107332795D01*
X139090226Y-107446063D01*
X138946063Y-107590226D01*
X138832795Y-107759744D01*
X138760084Y-107935283D01*
X137454119Y-106629318D01*
X137395669Y-106488208D01*
X137282401Y-106318690D01*
X137211219Y-106247508D01*
X139551003Y-103907725D01*
X139580001Y-103883927D01*
X139674974Y-103768202D01*
X139745546Y-103636173D01*
X139789003Y-103492912D01*
X139800000Y-103381259D01*
X139800000Y-103381250D01*
X139803676Y-103343927D01*
X139800000Y-103306604D01*
X139800000Y-82777595D01*
X139869014Y-82740706D01*
X140095134Y-82555134D01*
X140280706Y-82329014D01*
X140310000Y-82274209D01*
X140339294Y-82329014D01*
X140524866Y-82555134D01*
X140750986Y-82740706D01*
X141008966Y-82878599D01*
X141288889Y-82963513D01*
X141507050Y-82985000D01*
X141652950Y-82985000D01*
X141871111Y-82963513D01*
X142151034Y-82878599D01*
X142409014Y-82740706D01*
X142635134Y-82555134D01*
X142659607Y-82525313D01*
X142680498Y-82594180D01*
X142739463Y-82704494D01*
X142818815Y-82801185D01*
X142915506Y-82880537D01*
X143025820Y-82939502D01*
X143145518Y-82975812D01*
X143270000Y-82988072D01*
X144970000Y-82988072D01*
X145094482Y-82975812D01*
X145214180Y-82939502D01*
X145324494Y-82880537D01*
X145421185Y-82801185D01*
X145500537Y-82704494D01*
X145559502Y-82594180D01*
X145595812Y-82474482D01*
X145608072Y-82350000D01*
X145608072Y-80650000D01*
X145595812Y-80525518D01*
X145559502Y-80405820D01*
X145500537Y-80295506D01*
X145421185Y-80198815D01*
X145324494Y-80119463D01*
X145214180Y-80060498D01*
X145094482Y-80024188D01*
X144970000Y-80011928D01*
X143270000Y-80011928D01*
X143145518Y-80024188D01*
X143025820Y-80060498D01*
X142915506Y-80119463D01*
X142818815Y-80198815D01*
X142739463Y-80295506D01*
X142680498Y-80405820D01*
X142659607Y-80474687D01*
X142635134Y-80444866D01*
X142409014Y-80259294D01*
X142151034Y-80121401D01*
X141871111Y-80036487D01*
X141652950Y-80015000D01*
X141507050Y-80015000D01*
X141288889Y-80036487D01*
X141214004Y-80059203D01*
X140968803Y-79814002D01*
X140945000Y-79784998D01*
X140829275Y-79690025D01*
X140697246Y-79619453D01*
X140553985Y-79575996D01*
X140442332Y-79564999D01*
X140442321Y-79564999D01*
X140404999Y-79561323D01*
X140367677Y-79564999D01*
X126936912Y-79564999D01*
X126899589Y-79561323D01*
X126862266Y-79564999D01*
X126862256Y-79564999D01*
X126750603Y-79575996D01*
X126607342Y-79619453D01*
X126475312Y-79690025D01*
X126406855Y-79746207D01*
X126359588Y-79784998D01*
X126335790Y-79813996D01*
X112910000Y-93239787D01*
X112910000Y-80032279D01*
X112924341Y-79886015D01*
X112957443Y-79776375D01*
X113011212Y-79675252D01*
X113083599Y-79586497D01*
X113171848Y-79513491D01*
X113272591Y-79459019D01*
X113382004Y-79425150D01*
X113526145Y-79410000D01*
X157967721Y-79410000D01*
X158113985Y-79424341D01*
X158113985Y-79424341D01*
G37*
X158113985Y-79424341D02*
X158223625Y-79457443D01*
X158324748Y-79511212D01*
X158413503Y-79583599D01*
X158486509Y-79671848D01*
X158540981Y-79772591D01*
X158574850Y-79882004D01*
X158590000Y-80026145D01*
X158590001Y-116467712D01*
X158575659Y-116613985D01*
X158542557Y-116723625D01*
X158488788Y-116824748D01*
X158445307Y-116878061D01*
X145728961Y-117090000D01*
X145605802Y-117090000D01*
X145659774Y-117053937D01*
X145703711Y-117010000D01*
X145837678Y-117010000D01*
X145875000Y-117013676D01*
X145912322Y-117010000D01*
X145912333Y-117010000D01*
X146023986Y-116999003D01*
X146167247Y-116955546D01*
X146299276Y-116884974D01*
X146415001Y-116790001D01*
X146438804Y-116760997D01*
X148861004Y-114338798D01*
X148890002Y-114315000D01*
X148972070Y-114215000D01*
X148984975Y-114199276D01*
X149055547Y-114067246D01*
X149062516Y-114044271D01*
X149099004Y-113923985D01*
X149110001Y-113812332D01*
X149110001Y-113812322D01*
X149113677Y-113774999D01*
X149110001Y-113737677D01*
X149110001Y-113721159D01*
X149240256Y-113667205D01*
X149409774Y-113553937D01*
X149553937Y-113409774D01*
X149667205Y-113240256D01*
X149745226Y-113051898D01*
X149785000Y-112851939D01*
X149785000Y-112648061D01*
X149745226Y-112448102D01*
X149700448Y-112340000D01*
X155222405Y-112340000D01*
X155259294Y-112409014D01*
X155444866Y-112635134D01*
X155670986Y-112820706D01*
X155725791Y-112850000D01*
X155670986Y-112879294D01*
X155444866Y-113064866D01*
X155259294Y-113290986D01*
X155121401Y-113548966D01*
X155036487Y-113828889D01*
X155007815Y-114120000D01*
X155036487Y-114411111D01*
X155121401Y-114691034D01*
X155259294Y-114949014D01*
X155444866Y-115175134D01*
X155670986Y-115360706D01*
X155928966Y-115498599D01*
X156208889Y-115583513D01*
X156427050Y-115605000D01*
X156572950Y-115605000D01*
X156791111Y-115583513D01*
X157071034Y-115498599D01*
X157329014Y-115360706D01*
X157555134Y-115175134D01*
X157740706Y-114949014D01*
X157878599Y-114691034D01*
X157963513Y-114411111D01*
X157992185Y-114120000D01*
X157963513Y-113828889D01*
X157878599Y-113548966D01*
X157740706Y-113290986D01*
X157555134Y-113064866D01*
X157329014Y-112879294D01*
X157274209Y-112850000D01*
X157329014Y-112820706D01*
X157555134Y-112635134D01*
X157740706Y-112409014D01*
X157878599Y-112151034D01*
X157963513Y-111871111D01*
X157992185Y-111580000D01*
X157963513Y-111288889D01*
X157878599Y-111008966D01*
X157740706Y-110750986D01*
X157555134Y-110524866D01*
X157329014Y-110339294D01*
X157274209Y-110310000D01*
X157329014Y-110280706D01*
X157555134Y-110095134D01*
X157740706Y-109869014D01*
X157878599Y-109611034D01*
X157963513Y-109331111D01*
X157992185Y-109040000D01*
X157963513Y-108748889D01*
X157878599Y-108468966D01*
X157740706Y-108210986D01*
X157555134Y-107984866D01*
X157329014Y-107799294D01*
X157274209Y-107770000D01*
X157329014Y-107740706D01*
X157555134Y-107555134D01*
X157740706Y-107329014D01*
X157878599Y-107071034D01*
X157963513Y-106791111D01*
X157992185Y-106500000D01*
X157963513Y-106208889D01*
X157878599Y-105928966D01*
X157740706Y-105670986D01*
X157555134Y-105444866D01*
X157329014Y-105259294D01*
X157274209Y-105230000D01*
X157329014Y-105200706D01*
X157555134Y-105015134D01*
X157740706Y-104789014D01*
X157878599Y-104531034D01*
X157963513Y-104251111D01*
X157992185Y-103960000D01*
X157963513Y-103668889D01*
X157878599Y-103388966D01*
X157740706Y-103130986D01*
X157555134Y-102904866D01*
X157329014Y-102719294D01*
X157274209Y-102690000D01*
X157329014Y-102660706D01*
X157555134Y-102475134D01*
X157740706Y-102249014D01*
X157878599Y-101991034D01*
X157963513Y-101711111D01*
X157992185Y-101420000D01*
X157963513Y-101128889D01*
X157878599Y-100848966D01*
X157740706Y-100590986D01*
X157555134Y-100364866D01*
X157329014Y-100179294D01*
X157274209Y-100150000D01*
X157329014Y-100120706D01*
X157555134Y-99935134D01*
X157740706Y-99709014D01*
X157878599Y-99451034D01*
X157963513Y-99171111D01*
X157992185Y-98880000D01*
X157963513Y-98588889D01*
X157878599Y-98308966D01*
X157740706Y-98050986D01*
X157555134Y-97824866D01*
X157525313Y-97800393D01*
X157594180Y-97779502D01*
X157704494Y-97720537D01*
X157801185Y-97641185D01*
X157880537Y-97544494D01*
X157939502Y-97434180D01*
X157975812Y-97314482D01*
X157988072Y-97190000D01*
X157988072Y-95490000D01*
X157975812Y-95365518D01*
X157939502Y-95245820D01*
X157880537Y-95135506D01*
X157801185Y-95038815D01*
X157704494Y-94959463D01*
X157594180Y-94900498D01*
X157474482Y-94864188D01*
X157350000Y-94851928D01*
X155650000Y-94851928D01*
X155525518Y-94864188D01*
X155405820Y-94900498D01*
X155295506Y-94959463D01*
X155198815Y-95038815D01*
X155119463Y-95135506D01*
X155060498Y-95245820D01*
X155024188Y-95365518D01*
X155011928Y-95490000D01*
X155011928Y-97190000D01*
X155024188Y-97314482D01*
X155060498Y-97434180D01*
X155119463Y-97544494D01*
X155198815Y-97641185D01*
X155295506Y-97720537D01*
X155405820Y-97779502D01*
X155474687Y-97800393D01*
X155444866Y-97824866D01*
X155259294Y-98050986D01*
X155121401Y-98308966D01*
X155036487Y-98588889D01*
X155007815Y-98880000D01*
X155036487Y-99171111D01*
X155121401Y-99451034D01*
X155259294Y-99709014D01*
X155444866Y-99935134D01*
X155670986Y-100120706D01*
X155725791Y-100150000D01*
X155670986Y-100179294D01*
X155444866Y-100364866D01*
X155259294Y-100590986D01*
X155121401Y-100848966D01*
X155036487Y-101128889D01*
X155007815Y-101420000D01*
X155036487Y-101711111D01*
X155121401Y-101991034D01*
X155259294Y-102249014D01*
X155321448Y-102324749D01*
X154363992Y-103282205D01*
X154334988Y-103306008D01*
X154303869Y-103343927D01*
X154240015Y-103421733D01*
X154170440Y-103551898D01*
X154169443Y-103553763D01*
X154125986Y-103697024D01*
X154114989Y-103808677D01*
X154114989Y-103808687D01*
X154111313Y-103846009D01*
X154114989Y-103883332D01*
X154114990Y-106537388D01*
X151687378Y-108965001D01*
X148359800Y-108965001D01*
X149789802Y-107535000D01*
X149851939Y-107535000D01*
X150051898Y-107495226D01*
X150240256Y-107417205D01*
X150409774Y-107303937D01*
X150553937Y-107159774D01*
X150667205Y-106990256D01*
X150745226Y-106801898D01*
X150785000Y-106601939D01*
X150785000Y-106398061D01*
X150745226Y-106198102D01*
X150667205Y-106009744D01*
X150553937Y-105840226D01*
X150409774Y-105696063D01*
X150240256Y-105582795D01*
X150051898Y-105504774D01*
X149851939Y-105465000D01*
X149648061Y-105465000D01*
X149448102Y-105504774D01*
X149259744Y-105582795D01*
X149090226Y-105696063D01*
X148946063Y-105840226D01*
X148832795Y-106009744D01*
X148754774Y-106198102D01*
X148715000Y-106398061D01*
X148715000Y-106460198D01*
X146935199Y-108240000D01*
X141203711Y-108240000D01*
X141159774Y-108196063D01*
X141141169Y-108183632D01*
X145039802Y-104285000D01*
X145101939Y-104285000D01*
X145301898Y-104245226D01*
X145490256Y-104167205D01*
X145659774Y-104053937D01*
X145803937Y-103909774D01*
X145917205Y-103740256D01*
X145995226Y-103551898D01*
X146035000Y-103351939D01*
X146035000Y-103148061D01*
X145995226Y-102948102D01*
X145917205Y-102759744D01*
X145803937Y-102590226D01*
X145659774Y-102446063D01*
X145490256Y-102332795D01*
X145301898Y-102254774D01*
X145101939Y-102215000D01*
X144898061Y-102215000D01*
X144698102Y-102254774D01*
X144509744Y-102332795D01*
X144340226Y-102446063D01*
X144196063Y-102590226D01*
X144082795Y-102759744D01*
X144004774Y-102948102D01*
X143965000Y-103148061D01*
X143965000Y-103210198D01*
X141881488Y-105293711D01*
X141917205Y-105240256D01*
X141995226Y-105051898D01*
X142035000Y-104851939D01*
X142035000Y-104648061D01*
X141995226Y-104448102D01*
X141917205Y-104259744D01*
X141803937Y-104090226D01*
X141760000Y-104046289D01*
X141760000Y-97814801D01*
X144789802Y-94785000D01*
X144851939Y-94785000D01*
X145051898Y-94745226D01*
X145240256Y-94667205D01*
X145409774Y-94553937D01*
X145553937Y-94409774D01*
X145667205Y-94240256D01*
X145745226Y-94051898D01*
X145785000Y-93851939D01*
X145785000Y-93648061D01*
X145745226Y-93448102D01*
X145667205Y-93259744D01*
X145553937Y-93090226D01*
X145409774Y-92946063D01*
X145240256Y-92832795D01*
X145051898Y-92754774D01*
X144851939Y-92715000D01*
X144648061Y-92715000D01*
X144448102Y-92754774D01*
X144259744Y-92832795D01*
X144090226Y-92946063D01*
X143946063Y-93090226D01*
X143832795Y-93259744D01*
X143754774Y-93448102D01*
X143715000Y-93648061D01*
X143715000Y-93710198D01*
X140489003Y-96936196D01*
X140459999Y-96959999D01*
X140404871Y-97027174D01*
X140365026Y-97075724D01*
X140351508Y-97101015D01*
X140294454Y-97207754D01*
X140250997Y-97351015D01*
X140240000Y-97462668D01*
X140240000Y-97462678D01*
X140236324Y-97500000D01*
X140240000Y-97537323D01*
X140240001Y-104046288D01*
X140196063Y-104090226D01*
X140082795Y-104259744D01*
X140004774Y-104448102D01*
X139965000Y-104648061D01*
X139965000Y-104851939D01*
X140004774Y-105051898D01*
X140082795Y-105240256D01*
X140196063Y-105409774D01*
X140340226Y-105553937D01*
X140509744Y-105667205D01*
X140698102Y-105745226D01*
X140898061Y-105785000D01*
X141101939Y-105785000D01*
X141301898Y-105745226D01*
X141490256Y-105667205D01*
X141543711Y-105631488D01*
X139942238Y-107232961D01*
X139851939Y-107215000D01*
X139648061Y-107215000D01*
X139448102Y-107254774D01*
X139259744Y-107332795D01*
X139090226Y-107446063D01*
X138946063Y-107590226D01*
X138832795Y-107759744D01*
X138760084Y-107935283D01*
X137454119Y-106629318D01*
X137395669Y-106488208D01*
X137282401Y-106318690D01*
X137211219Y-106247508D01*
X139551003Y-103907725D01*
X139580001Y-103883927D01*
X139674974Y-103768202D01*
X139745546Y-103636173D01*
X139789003Y-103492912D01*
X139800000Y-103381259D01*
X139800000Y-103381250D01*
X139803676Y-103343927D01*
X139800000Y-103306604D01*
X139800000Y-82777595D01*
X139869014Y-82740706D01*
X140095134Y-82555134D01*
X140280706Y-82329014D01*
X140310000Y-82274209D01*
X140339294Y-82329014D01*
X140524866Y-82555134D01*
X140750986Y-82740706D01*
X141008966Y-82878599D01*
X141288889Y-82963513D01*
X141507050Y-82985000D01*
X141652950Y-82985000D01*
X141871111Y-82963513D01*
X142151034Y-82878599D01*
X142409014Y-82740706D01*
X142635134Y-82555134D01*
X142659607Y-82525313D01*
X142680498Y-82594180D01*
X142739463Y-82704494D01*
X142818815Y-82801185D01*
X142915506Y-82880537D01*
X143025820Y-82939502D01*
X143145518Y-82975812D01*
X143270000Y-82988072D01*
X144970000Y-82988072D01*
X145094482Y-82975812D01*
X145214180Y-82939502D01*
X145324494Y-82880537D01*
X145421185Y-82801185D01*
X145500537Y-82704494D01*
X145559502Y-82594180D01*
X145595812Y-82474482D01*
X145608072Y-82350000D01*
X145608072Y-80650000D01*
X145595812Y-80525518D01*
X145559502Y-80405820D01*
X145500537Y-80295506D01*
X145421185Y-80198815D01*
X145324494Y-80119463D01*
X145214180Y-80060498D01*
X145094482Y-80024188D01*
X144970000Y-80011928D01*
X143270000Y-80011928D01*
X143145518Y-80024188D01*
X143025820Y-80060498D01*
X142915506Y-80119463D01*
X142818815Y-80198815D01*
X142739463Y-80295506D01*
X142680498Y-80405820D01*
X142659607Y-80474687D01*
X142635134Y-80444866D01*
X142409014Y-80259294D01*
X142151034Y-80121401D01*
X141871111Y-80036487D01*
X141652950Y-80015000D01*
X141507050Y-80015000D01*
X141288889Y-80036487D01*
X141214004Y-80059203D01*
X140968803Y-79814002D01*
X140945000Y-79784998D01*
X140829275Y-79690025D01*
X140697246Y-79619453D01*
X140553985Y-79575996D01*
X140442332Y-79564999D01*
X140442321Y-79564999D01*
X140404999Y-79561323D01*
X140367677Y-79564999D01*
X126936912Y-79564999D01*
X126899589Y-79561323D01*
X126862266Y-79564999D01*
X126862256Y-79564999D01*
X126750603Y-79575996D01*
X126607342Y-79619453D01*
X126475312Y-79690025D01*
X126406855Y-79746207D01*
X126359588Y-79784998D01*
X126335790Y-79813996D01*
X112910000Y-93239787D01*
X112910000Y-80032279D01*
X112924341Y-79886015D01*
X112957443Y-79776375D01*
X113011212Y-79675252D01*
X113083599Y-79586497D01*
X113171848Y-79513491D01*
X113272591Y-79459019D01*
X113382004Y-79425150D01*
X113526145Y-79410000D01*
X157967721Y-79410000D01*
X158113985Y-79424341D01*
G36*
X132231692Y-108240809D02*
G01*
X132101939Y-108215000D01*
X132039803Y-108215000D01*
X127073804Y-103249003D01*
X127050001Y-103219999D01*
X126934276Y-103125026D01*
X126802247Y-103054454D01*
X126658986Y-103010997D01*
X126547333Y-103000000D01*
X126547322Y-103000000D01*
X126510000Y-102996324D01*
X126472678Y-103000000D01*
X117277595Y-103000000D01*
X117240706Y-102930986D01*
X117055134Y-102704866D01*
X116829014Y-102519294D01*
X116774209Y-102490000D01*
X116829014Y-102460706D01*
X117055134Y-102275134D01*
X117240706Y-102049014D01*
X117277595Y-101980000D01*
X125970884Y-101980000D01*
X132231692Y-108240809D01*
X132231692Y-108240809D01*
G37*
X132231692Y-108240809D02*
X132101939Y-108215000D01*
X132039803Y-108215000D01*
X127073804Y-103249003D01*
X127050001Y-103219999D01*
X126934276Y-103125026D01*
X126802247Y-103054454D01*
X126658986Y-103010997D01*
X126547333Y-103000000D01*
X126547322Y-103000000D01*
X126510000Y-102996324D01*
X126472678Y-103000000D01*
X117277595Y-103000000D01*
X117240706Y-102930986D01*
X117055134Y-102704866D01*
X116829014Y-102519294D01*
X116774209Y-102490000D01*
X116829014Y-102460706D01*
X117055134Y-102275134D01*
X117240706Y-102049014D01*
X117277595Y-101980000D01*
X125970884Y-101980000D01*
X132231692Y-108240809D01*
G36*
X137799294Y-82329014D02*
G01*
X137984866Y-82555134D01*
X138210986Y-82740706D01*
X138280000Y-82777595D01*
X138280001Y-95816290D01*
X138159774Y-95696063D01*
X137990256Y-95582795D01*
X137801898Y-95504774D01*
X137601939Y-95465000D01*
X137398061Y-95465000D01*
X137198102Y-95504774D01*
X137009744Y-95582795D01*
X136840226Y-95696063D01*
X136696063Y-95840226D01*
X136582795Y-96009744D01*
X136504774Y-96198102D01*
X136465000Y-96398061D01*
X136465000Y-96460199D01*
X136239002Y-96686197D01*
X136209999Y-96709999D01*
X136156676Y-96774974D01*
X136115026Y-96825724D01*
X136062348Y-96924277D01*
X136044454Y-96957754D01*
X136000997Y-97101015D01*
X135990000Y-97212668D01*
X135990000Y-97212678D01*
X135986324Y-97250000D01*
X135990000Y-97287323D01*
X135990001Y-99546288D01*
X135946063Y-99590226D01*
X135832795Y-99759744D01*
X135754774Y-99948102D01*
X135715000Y-100148061D01*
X135715000Y-100351939D01*
X135754774Y-100551898D01*
X135832795Y-100740256D01*
X135946063Y-100909774D01*
X136090226Y-101053937D01*
X136259744Y-101167205D01*
X136448102Y-101245226D01*
X136648061Y-101285000D01*
X136851939Y-101285000D01*
X137051898Y-101245226D01*
X137240256Y-101167205D01*
X137409774Y-101053937D01*
X137553937Y-100909774D01*
X137667205Y-100740256D01*
X137745226Y-100551898D01*
X137785000Y-100351939D01*
X137785000Y-100148061D01*
X137745226Y-99948102D01*
X137667205Y-99759744D01*
X137553937Y-99590226D01*
X137510000Y-99546289D01*
X137510000Y-97564801D01*
X137539801Y-97535000D01*
X137601939Y-97535000D01*
X137801898Y-97495226D01*
X137990256Y-97417205D01*
X138159774Y-97303937D01*
X138280001Y-97183710D01*
X138280001Y-103029123D01*
X136514438Y-104794687D01*
X136495226Y-104698102D01*
X136417205Y-104509744D01*
X136303937Y-104340226D01*
X136159774Y-104196063D01*
X135990256Y-104082795D01*
X135801898Y-104004774D01*
X135601939Y-103965000D01*
X135398061Y-103965000D01*
X135307763Y-103982961D01*
X124509800Y-93184999D01*
X125537679Y-93184999D01*
X125575001Y-93188675D01*
X125612323Y-93184999D01*
X125612334Y-93184999D01*
X125723987Y-93174002D01*
X125867248Y-93130545D01*
X125999277Y-93059973D01*
X126115002Y-92965000D01*
X126138805Y-92935996D01*
X136134005Y-82940797D01*
X136208889Y-82963513D01*
X136427050Y-82985000D01*
X136572950Y-82985000D01*
X136791111Y-82963513D01*
X137071034Y-82878599D01*
X137329014Y-82740706D01*
X137555134Y-82555134D01*
X137740706Y-82329014D01*
X137770000Y-82274209D01*
X137799294Y-82329014D01*
X137799294Y-82329014D01*
G37*
X137799294Y-82329014D02*
X137984866Y-82555134D01*
X138210986Y-82740706D01*
X138280000Y-82777595D01*
X138280001Y-95816290D01*
X138159774Y-95696063D01*
X137990256Y-95582795D01*
X137801898Y-95504774D01*
X137601939Y-95465000D01*
X137398061Y-95465000D01*
X137198102Y-95504774D01*
X137009744Y-95582795D01*
X136840226Y-95696063D01*
X136696063Y-95840226D01*
X136582795Y-96009744D01*
X136504774Y-96198102D01*
X136465000Y-96398061D01*
X136465000Y-96460199D01*
X136239002Y-96686197D01*
X136209999Y-96709999D01*
X136156676Y-96774974D01*
X136115026Y-96825724D01*
X136062348Y-96924277D01*
X136044454Y-96957754D01*
X136000997Y-97101015D01*
X135990000Y-97212668D01*
X135990000Y-97212678D01*
X135986324Y-97250000D01*
X135990000Y-97287323D01*
X135990001Y-99546288D01*
X135946063Y-99590226D01*
X135832795Y-99759744D01*
X135754774Y-99948102D01*
X135715000Y-100148061D01*
X135715000Y-100351939D01*
X135754774Y-100551898D01*
X135832795Y-100740256D01*
X135946063Y-100909774D01*
X136090226Y-101053937D01*
X136259744Y-101167205D01*
X136448102Y-101245226D01*
X136648061Y-101285000D01*
X136851939Y-101285000D01*
X137051898Y-101245226D01*
X137240256Y-101167205D01*
X137409774Y-101053937D01*
X137553937Y-100909774D01*
X137667205Y-100740256D01*
X137745226Y-100551898D01*
X137785000Y-100351939D01*
X137785000Y-100148061D01*
X137745226Y-99948102D01*
X137667205Y-99759744D01*
X137553937Y-99590226D01*
X137510000Y-99546289D01*
X137510000Y-97564801D01*
X137539801Y-97535000D01*
X137601939Y-97535000D01*
X137801898Y-97495226D01*
X137990256Y-97417205D01*
X138159774Y-97303937D01*
X138280001Y-97183710D01*
X138280001Y-103029123D01*
X136514438Y-104794687D01*
X136495226Y-104698102D01*
X136417205Y-104509744D01*
X136303937Y-104340226D01*
X136159774Y-104196063D01*
X135990256Y-104082795D01*
X135801898Y-104004774D01*
X135601939Y-103965000D01*
X135398061Y-103965000D01*
X135307763Y-103982961D01*
X124509800Y-93184999D01*
X125537679Y-93184999D01*
X125575001Y-93188675D01*
X125612323Y-93184999D01*
X125612334Y-93184999D01*
X125723987Y-93174002D01*
X125867248Y-93130545D01*
X125999277Y-93059973D01*
X126115002Y-92965000D01*
X126138805Y-92935996D01*
X136134005Y-82940797D01*
X136208889Y-82963513D01*
X136427050Y-82985000D01*
X136572950Y-82985000D01*
X136791111Y-82963513D01*
X137071034Y-82878599D01*
X137329014Y-82740706D01*
X137555134Y-82555134D01*
X137740706Y-82329014D01*
X137770000Y-82274209D01*
X137799294Y-82329014D01*
G36*
X129956487Y-81208889D02*
G01*
X129927815Y-81500000D01*
X129956487Y-81791111D01*
X130041401Y-82071034D01*
X130179294Y-82329014D01*
X130364866Y-82555134D01*
X130590986Y-82740706D01*
X130848966Y-82878599D01*
X131128889Y-82963513D01*
X131347050Y-82985000D01*
X131492950Y-82985000D01*
X131711111Y-82963513D01*
X131991034Y-82878599D01*
X132249014Y-82740706D01*
X132475134Y-82555134D01*
X132660706Y-82329014D01*
X132695201Y-82264477D01*
X132764822Y-82381355D01*
X132959731Y-82597588D01*
X133193080Y-82771641D01*
X133455901Y-82896825D01*
X133603110Y-82941476D01*
X133832998Y-82820156D01*
X133832998Y-82985000D01*
X133940198Y-82985000D01*
X125260200Y-91664999D01*
X116634390Y-91664999D01*
X118651328Y-89648061D01*
X121715000Y-89648061D01*
X121715000Y-89851939D01*
X121754774Y-90051898D01*
X121832795Y-90240256D01*
X121946063Y-90409774D01*
X122090226Y-90553937D01*
X122259744Y-90667205D01*
X122448102Y-90745226D01*
X122648061Y-90785000D01*
X122851939Y-90785000D01*
X123051898Y-90745226D01*
X123240256Y-90667205D01*
X123409774Y-90553937D01*
X123553937Y-90409774D01*
X123667205Y-90240256D01*
X123745226Y-90051898D01*
X123785000Y-89851939D01*
X123785000Y-89648061D01*
X123745226Y-89448102D01*
X123667205Y-89259744D01*
X123553937Y-89090226D01*
X123409774Y-88946063D01*
X123240256Y-88832795D01*
X123051898Y-88754774D01*
X122851939Y-88715000D01*
X122648061Y-88715000D01*
X122448102Y-88754774D01*
X122259744Y-88832795D01*
X122090226Y-88946063D01*
X121946063Y-89090226D01*
X121832795Y-89259744D01*
X121754774Y-89448102D01*
X121715000Y-89648061D01*
X118651328Y-89648061D01*
X127214391Y-81084999D01*
X129994069Y-81084999D01*
X129956487Y-81208889D01*
X129956487Y-81208889D01*
G37*
X129956487Y-81208889D02*
X129927815Y-81500000D01*
X129956487Y-81791111D01*
X130041401Y-82071034D01*
X130179294Y-82329014D01*
X130364866Y-82555134D01*
X130590986Y-82740706D01*
X130848966Y-82878599D01*
X131128889Y-82963513D01*
X131347050Y-82985000D01*
X131492950Y-82985000D01*
X131711111Y-82963513D01*
X131991034Y-82878599D01*
X132249014Y-82740706D01*
X132475134Y-82555134D01*
X132660706Y-82329014D01*
X132695201Y-82264477D01*
X132764822Y-82381355D01*
X132959731Y-82597588D01*
X133193080Y-82771641D01*
X133455901Y-82896825D01*
X133603110Y-82941476D01*
X133832998Y-82820156D01*
X133832998Y-82985000D01*
X133940198Y-82985000D01*
X125260200Y-91664999D01*
X116634390Y-91664999D01*
X118651328Y-89648061D01*
X121715000Y-89648061D01*
X121715000Y-89851939D01*
X121754774Y-90051898D01*
X121832795Y-90240256D01*
X121946063Y-90409774D01*
X122090226Y-90553937D01*
X122259744Y-90667205D01*
X122448102Y-90745226D01*
X122648061Y-90785000D01*
X122851939Y-90785000D01*
X123051898Y-90745226D01*
X123240256Y-90667205D01*
X123409774Y-90553937D01*
X123553937Y-90409774D01*
X123667205Y-90240256D01*
X123745226Y-90051898D01*
X123785000Y-89851939D01*
X123785000Y-89648061D01*
X123745226Y-89448102D01*
X123667205Y-89259744D01*
X123553937Y-89090226D01*
X123409774Y-88946063D01*
X123240256Y-88832795D01*
X123051898Y-88754774D01*
X122851939Y-88715000D01*
X122648061Y-88715000D01*
X122448102Y-88754774D01*
X122259744Y-88832795D01*
X122090226Y-88946063D01*
X121946063Y-89090226D01*
X121832795Y-89259744D01*
X121754774Y-89448102D01*
X121715000Y-89648061D01*
X118651328Y-89648061D01*
X127214391Y-81084999D01*
X129994069Y-81084999D01*
X129956487Y-81208889D01*
G36*
X134087000Y-81373000D02*
G01*
X134107000Y-81373000D01*
X134107000Y-81627000D01*
X134087000Y-81627000D01*
X134087000Y-81647000D01*
X133833000Y-81647000D01*
X133833000Y-81627000D01*
X133813000Y-81627000D01*
X133813000Y-81373000D01*
X133833000Y-81373000D01*
X133833000Y-81353000D01*
X134087000Y-81353000D01*
X134087000Y-81373000D01*
X134087000Y-81373000D01*
G37*
X134087000Y-81373000D02*
X134107000Y-81373000D01*
X134107000Y-81627000D01*
X134087000Y-81627000D01*
X134087000Y-81647000D01*
X133833000Y-81647000D01*
X133833000Y-81627000D01*
X133813000Y-81627000D01*
X133813000Y-81373000D01*
X133833000Y-81373000D01*
X133833000Y-81353000D01*
X134087000Y-81353000D01*
X134087000Y-81373000D01*
G36*
X112539991Y-118547671D02*
G01*
X112536315Y-118584993D01*
X112539991Y-118622315D01*
X112539991Y-118622325D01*
X112550988Y-118733978D01*
X112594445Y-118877239D01*
X112665017Y-119009269D01*
X112704862Y-119057819D01*
X112759990Y-119124994D01*
X112788994Y-119148797D01*
X114326200Y-120686004D01*
X114349998Y-120715002D01*
X114378996Y-120738800D01*
X114465722Y-120809975D01*
X114597752Y-120880547D01*
X114741013Y-120924004D01*
X114852666Y-120935001D01*
X114852676Y-120935001D01*
X114889999Y-120938677D01*
X114927322Y-120935001D01*
X116633526Y-120935001D01*
X117723000Y-121810853D01*
X117723000Y-130273000D01*
X109277000Y-130273000D01*
X109277000Y-127650000D01*
X109961928Y-127650000D01*
X109961928Y-129350000D01*
X109974188Y-129474482D01*
X110010498Y-129594180D01*
X110069463Y-129704494D01*
X110148815Y-129801185D01*
X110245506Y-129880537D01*
X110355820Y-129939502D01*
X110475518Y-129975812D01*
X110600000Y-129988072D01*
X112300000Y-129988072D01*
X112424482Y-129975812D01*
X112544180Y-129939502D01*
X112654494Y-129880537D01*
X112751185Y-129801185D01*
X112830537Y-129704494D01*
X112889502Y-129594180D01*
X112913966Y-129513534D01*
X112989731Y-129597588D01*
X113223080Y-129771641D01*
X113485901Y-129896825D01*
X113633110Y-129941476D01*
X113863000Y-129820155D01*
X113863000Y-128627000D01*
X114117000Y-128627000D01*
X114117000Y-129820155D01*
X114346890Y-129941476D01*
X114494099Y-129896825D01*
X114756920Y-129771641D01*
X114990269Y-129597588D01*
X115185178Y-129381355D01*
X115334157Y-129131252D01*
X115431481Y-128856891D01*
X115310814Y-128627000D01*
X114117000Y-128627000D01*
X113863000Y-128627000D01*
X113843000Y-128627000D01*
X113843000Y-128373000D01*
X113863000Y-128373000D01*
X113863000Y-127179845D01*
X114117000Y-127179845D01*
X114117000Y-128373000D01*
X115310814Y-128373000D01*
X115431481Y-128143109D01*
X115334157Y-127868748D01*
X115185178Y-127618645D01*
X114990269Y-127402412D01*
X114756920Y-127228359D01*
X114494099Y-127103175D01*
X114346890Y-127058524D01*
X114117000Y-127179845D01*
X113863000Y-127179845D01*
X113633110Y-127058524D01*
X113485901Y-127103175D01*
X113223080Y-127228359D01*
X112989731Y-127402412D01*
X112913966Y-127486466D01*
X112889502Y-127405820D01*
X112830537Y-127295506D01*
X112751185Y-127198815D01*
X112654494Y-127119463D01*
X112544180Y-127060498D01*
X112424482Y-127024188D01*
X112300000Y-127011928D01*
X110600000Y-127011928D01*
X110475518Y-127024188D01*
X110355820Y-127060498D01*
X110245506Y-127119463D01*
X110148815Y-127198815D01*
X110069463Y-127295506D01*
X110010498Y-127405820D01*
X109974188Y-127525518D01*
X109961928Y-127650000D01*
X109277000Y-127650000D01*
X109277000Y-122267623D01*
X112539991Y-118334155D01*
X112539991Y-118547671D01*
X112539991Y-118547671D01*
G37*
X112539991Y-118547671D02*
X112536315Y-118584993D01*
X112539991Y-118622315D01*
X112539991Y-118622325D01*
X112550988Y-118733978D01*
X112594445Y-118877239D01*
X112665017Y-119009269D01*
X112704862Y-119057819D01*
X112759990Y-119124994D01*
X112788994Y-119148797D01*
X114326200Y-120686004D01*
X114349998Y-120715002D01*
X114378996Y-120738800D01*
X114465722Y-120809975D01*
X114597752Y-120880547D01*
X114741013Y-120924004D01*
X114852666Y-120935001D01*
X114852676Y-120935001D01*
X114889999Y-120938677D01*
X114927322Y-120935001D01*
X116633526Y-120935001D01*
X117723000Y-121810853D01*
X117723000Y-130273000D01*
X109277000Y-130273000D01*
X109277000Y-127650000D01*
X109961928Y-127650000D01*
X109961928Y-129350000D01*
X109974188Y-129474482D01*
X110010498Y-129594180D01*
X110069463Y-129704494D01*
X110148815Y-129801185D01*
X110245506Y-129880537D01*
X110355820Y-129939502D01*
X110475518Y-129975812D01*
X110600000Y-129988072D01*
X112300000Y-129988072D01*
X112424482Y-129975812D01*
X112544180Y-129939502D01*
X112654494Y-129880537D01*
X112751185Y-129801185D01*
X112830537Y-129704494D01*
X112889502Y-129594180D01*
X112913966Y-129513534D01*
X112989731Y-129597588D01*
X113223080Y-129771641D01*
X113485901Y-129896825D01*
X113633110Y-129941476D01*
X113863000Y-129820155D01*
X113863000Y-128627000D01*
X114117000Y-128627000D01*
X114117000Y-129820155D01*
X114346890Y-129941476D01*
X114494099Y-129896825D01*
X114756920Y-129771641D01*
X114990269Y-129597588D01*
X115185178Y-129381355D01*
X115334157Y-129131252D01*
X115431481Y-128856891D01*
X115310814Y-128627000D01*
X114117000Y-128627000D01*
X113863000Y-128627000D01*
X113843000Y-128627000D01*
X113843000Y-128373000D01*
X113863000Y-128373000D01*
X113863000Y-127179845D01*
X114117000Y-127179845D01*
X114117000Y-128373000D01*
X115310814Y-128373000D01*
X115431481Y-128143109D01*
X115334157Y-127868748D01*
X115185178Y-127618645D01*
X114990269Y-127402412D01*
X114756920Y-127228359D01*
X114494099Y-127103175D01*
X114346890Y-127058524D01*
X114117000Y-127179845D01*
X113863000Y-127179845D01*
X113633110Y-127058524D01*
X113485901Y-127103175D01*
X113223080Y-127228359D01*
X112989731Y-127402412D01*
X112913966Y-127486466D01*
X112889502Y-127405820D01*
X112830537Y-127295506D01*
X112751185Y-127198815D01*
X112654494Y-127119463D01*
X112544180Y-127060498D01*
X112424482Y-127024188D01*
X112300000Y-127011928D01*
X110600000Y-127011928D01*
X110475518Y-127024188D01*
X110355820Y-127060498D01*
X110245506Y-127119463D01*
X110148815Y-127198815D01*
X110069463Y-127295506D01*
X110010498Y-127405820D01*
X109974188Y-127525518D01*
X109961928Y-127650000D01*
X109277000Y-127650000D01*
X109277000Y-122267623D01*
X112539991Y-118334155D01*
X112539991Y-118547671D01*
M02*
