%TF.GenerationSoftware,KiCad,Pcbnew,(6.0.7)*%
%TF.CreationDate,2022-09-26T17:50:27-05:00*%
%TF.ProjectId,T7Totem,5437546f-7465-46d2-9e6b-696361645f70,rev?*%
%TF.SameCoordinates,Original*%
%TF.FileFunction,Copper,L1,Top*%
%TF.FilePolarity,Positive*%
%FSLAX46Y46*%
G04 Gerber Fmt 4.6, Leading zero omitted, Abs format (unit mm)*
G04 Created by KiCad (PCBNEW (6.0.7)) date 2022-09-26 17:50:27*
%MOMM*%
%LPD*%
G01*
G04 APERTURE LIST*
G04 Aperture macros list*
%AMRoundRect*
0 Rectangle with rounded corners*
0 $1 Rounding radius*
0 $2 $3 $4 $5 $6 $7 $8 $9 X,Y pos of 4 corners*
0 Add a 4 corners polygon primitive as box body*
4,1,4,$2,$3,$4,$5,$6,$7,$8,$9,$2,$3,0*
0 Add four circle primitives for the rounded corners*
1,1,$1+$1,$2,$3*
1,1,$1+$1,$4,$5*
1,1,$1+$1,$6,$7*
1,1,$1+$1,$8,$9*
0 Add four rect primitives between the rounded corners*
20,1,$1+$1,$2,$3,$4,$5,0*
20,1,$1+$1,$4,$5,$6,$7,0*
20,1,$1+$1,$6,$7,$8,$9,0*
20,1,$1+$1,$8,$9,$2,$3,0*%
G04 Aperture macros list end*
%TA.AperFunction,SMDPad,CuDef*%
%ADD10R,0.300000X0.900000*%
%TD*%
%TA.AperFunction,ComponentPad*%
%ADD11C,0.600000*%
%TD*%
%TA.AperFunction,ComponentPad*%
%ADD12O,0.800000X1.400000*%
%TD*%
%TA.AperFunction,SMDPad,CuDef*%
%ADD13R,0.280000X1.200000*%
%TD*%
%TA.AperFunction,ComponentPad*%
%ADD14RoundRect,0.275000X-0.400000X-0.275000X0.400000X-0.275000X0.400000X0.275000X-0.400000X0.275000X0*%
%TD*%
%TA.AperFunction,ViaPad*%
%ADD15C,0.800000*%
%TD*%
%TA.AperFunction,ViaPad*%
%ADD16C,0.600000*%
%TD*%
%TA.AperFunction,Conductor*%
%ADD17C,0.250000*%
%TD*%
%TA.AperFunction,Conductor*%
%ADD18C,0.200000*%
%TD*%
%TA.AperFunction,Conductor*%
%ADD19C,0.180000*%
%TD*%
G04 APERTURE END LIST*
D10*
%TO.P,J2,A1,GND*%
%TO.N,VSS*%
X171900000Y-71605000D03*
%TO.P,J2,A2,TX1+*%
%TO.N,TX1+*%
X171400000Y-71605000D03*
%TO.P,J2,A3,TX1-*%
%TO.N,TX1-*%
X170900000Y-71605000D03*
%TO.P,J2,A4,VBUS*%
%TO.N,VBUS*%
X170400000Y-71605000D03*
%TO.P,J2,A5,CC1*%
%TO.N,CC1*%
X169900000Y-71605000D03*
%TO.P,J2,A6,D+*%
%TO.N,D+*%
X169400000Y-71605000D03*
%TO.P,J2,A7,D-*%
%TO.N,D-*%
X168900000Y-71605000D03*
%TO.P,J2,A8,SBU1*%
%TO.N,SBU1*%
X168400000Y-71605000D03*
%TO.P,J2,A9,VBUS*%
%TO.N,VBUS*%
X167900000Y-71605000D03*
%TO.P,J2,A10,RX2-*%
%TO.N,RX2-*%
X167400000Y-71595000D03*
%TO.P,J2,A11,RX2+*%
%TO.N,RX2+*%
X166900000Y-71595000D03*
%TO.P,J2,A12,GND*%
%TO.N,VSS*%
X166400000Y-71605000D03*
D11*
%TO.P,J2,B1,GND*%
X166350000Y-70395000D03*
%TO.P,J2,B2,TX2+*%
%TO.N,TX2+*%
X166750000Y-69695000D03*
%TO.P,J2,B3,TX2-*%
%TO.N,TX2-*%
X167550000Y-69695000D03*
%TO.P,J2,B4,VBUS*%
%TO.N,VBUS*%
X167950000Y-70395000D03*
%TO.P,J2,B5,CC2*%
%TO.N,CC2*%
X168350000Y-69695000D03*
%TO.P,J2,B6,D+*%
%TO.N,D+*%
X168750000Y-70395000D03*
%TO.P,J2,B7,D-*%
%TO.N,D-*%
X169550000Y-70395000D03*
%TO.P,J2,B8,SBU2*%
%TO.N,SBU2*%
X169950000Y-69695000D03*
%TO.P,J2,B9,VBUS*%
%TO.N,VBUS*%
X170350000Y-70395000D03*
%TO.P,J2,B10,RX1-*%
%TO.N,RX1-*%
X170750000Y-69695000D03*
%TO.P,J2,B11,RX1+*%
%TO.N,RX1+*%
X171550000Y-69695000D03*
%TO.P,J2,B12,GND*%
%TO.N,VSS*%
X171950000Y-70395000D03*
D12*
%TO.P,J2,S1,SHIELD*%
X173640000Y-65405000D03*
X165020000Y-69795000D03*
X173280000Y-69795000D03*
X164660000Y-65405000D03*
%TD*%
D13*
%TO.P,J1,A1,GND*%
%TO.N,VSS*%
X171900000Y-99300000D03*
%TO.P,J1,A2,TX1+*%
%TO.N,TX1+*%
X171400000Y-99300000D03*
%TO.P,J1,A3,TX1-*%
%TO.N,TX1-*%
X170900000Y-99300000D03*
%TO.P,J1,A4,VBUS*%
%TO.N,VBUS*%
X170400000Y-99300000D03*
%TO.P,J1,A5,CC1*%
%TO.N,CC1*%
X169900000Y-99300000D03*
%TO.P,J1,A6,D+*%
%TO.N,D+*%
X169400000Y-99300000D03*
%TO.P,J1,A7,D-*%
%TO.N,D-*%
X168900000Y-99300000D03*
%TO.P,J1,A8,SBU1*%
%TO.N,SBU1*%
X168400000Y-99300000D03*
%TO.P,J1,A9,VBUS*%
%TO.N,VBUS*%
X167900000Y-99300000D03*
%TO.P,J1,A10,RX2-*%
%TO.N,RX2-*%
X167400000Y-99300000D03*
%TO.P,J1,A11,RX2+*%
%TO.N,RX2+*%
X166900000Y-99300000D03*
%TO.P,J1,A12,GND*%
%TO.N,VSS*%
X166400000Y-99300000D03*
%TO.P,J1,B1,GND*%
X166400000Y-101400000D03*
%TO.P,J1,B2,TX2+*%
%TO.N,TX2+*%
X166900000Y-101400000D03*
%TO.P,J1,B3,TX2-*%
%TO.N,TX2-*%
X167400000Y-101400000D03*
%TO.P,J1,B4,VBUS*%
%TO.N,VBUS*%
X167900000Y-101400000D03*
%TO.P,J1,B5,CC2*%
%TO.N,CC2*%
X168400000Y-101400000D03*
%TO.P,J1,B6,D+*%
%TO.N,D+*%
X168900000Y-101400000D03*
%TO.P,J1,B7,D-*%
%TO.N,D-*%
X169400000Y-101400000D03*
%TO.P,J1,B8,SBU2*%
%TO.N,SBU2*%
X169900000Y-101400000D03*
%TO.P,J1,B9,VBUS*%
%TO.N,VBUS*%
X170400000Y-101400000D03*
%TO.P,J1,B10,RX1-*%
%TO.N,RX1-*%
X170900000Y-101400000D03*
%TO.P,J1,B11,RX1+*%
%TO.N,RX1+*%
X171400000Y-101400000D03*
%TO.P,J1,B12,GND*%
%TO.N,VSS*%
X171900000Y-101400000D03*
D14*
%TO.P,J1,S1,SHIELD*%
X165145000Y-100350000D03*
X173155000Y-100350000D03*
%TD*%
D15*
%TO.N,CC2*%
X168400000Y-103600000D03*
%TO.N,SBU2*%
X169920360Y-102905421D03*
D16*
%TO.N,D-*%
X168700000Y-73400000D03*
%TO.N,RX1+*%
X171500800Y-103100000D03*
%TO.N,RX1-*%
X170799200Y-103100000D03*
%TO.N,TX2+*%
X166799200Y-103100000D03*
%TO.N,TX2-*%
X167500800Y-103100000D03*
%TO.N,D+*%
X169555653Y-97822425D03*
X169024500Y-102812038D03*
%TD*%
D17*
%TO.N,VSS*%
X166400000Y-101400000D02*
X166400000Y-100400000D01*
X166400000Y-100400000D02*
X166400000Y-99300000D01*
X165145000Y-100350000D02*
X166350000Y-100350000D01*
X166350000Y-100350000D02*
X166400000Y-100400000D01*
X171900000Y-101400000D02*
X171900000Y-100400000D01*
X171900000Y-100400000D02*
X171900000Y-99300000D01*
X173155000Y-100350000D02*
X171950000Y-100350000D01*
X171950000Y-100350000D02*
X171900000Y-100400000D01*
D18*
%TO.N,D+*%
X168900000Y-102687538D02*
X169024500Y-102812038D01*
D17*
%TO.N,SBU2*%
X169900000Y-101400000D02*
X169900000Y-102885061D01*
D18*
%TO.N,D+*%
X168900000Y-101400000D02*
X168900000Y-102687538D01*
D17*
%TO.N,SBU2*%
X169900000Y-102885061D02*
X169920360Y-102905421D01*
%TO.N,CC2*%
X168400000Y-101400000D02*
X168400000Y-103600000D01*
D19*
%TO.N,VBUS*%
X167900000Y-99300000D02*
X167900000Y-96800000D01*
X167900000Y-96800000D02*
X167700000Y-96600000D01*
X167900000Y-72321545D02*
X167900000Y-71605000D01*
X167700000Y-96600000D02*
X167700000Y-72521545D01*
X167700000Y-72521545D02*
X167900000Y-72321545D01*
X170400000Y-71605000D02*
X170400000Y-97063305D01*
X170579501Y-97242806D02*
X170579501Y-98168954D01*
X170400000Y-97063305D02*
X170579501Y-97242806D01*
X170579501Y-98168954D02*
X170400000Y-98348455D01*
X170400000Y-98348455D02*
X170400000Y-99300000D01*
%TO.N,CC1*%
X169960000Y-72345000D02*
X169960000Y-71665000D01*
X170000000Y-97200000D02*
X170000000Y-72345000D01*
X170000000Y-72345000D02*
X169960000Y-72345000D01*
X170200000Y-97400000D02*
X170000000Y-97200000D01*
X170200000Y-98011759D02*
X170200000Y-97400000D01*
X169900000Y-98311759D02*
X170200000Y-98011759D01*
X169900000Y-99300000D02*
X169900000Y-98311759D01*
D18*
%TO.N,D+*%
X169300800Y-97399200D02*
X169300800Y-97567572D01*
X169300800Y-97567572D02*
X169555653Y-97822425D01*
D19*
%TO.N,CC1*%
X169960000Y-71665000D02*
X169900000Y-71605000D01*
%TO.N,SBU1*%
X168400000Y-71605000D02*
X168400000Y-72865613D01*
X168400000Y-72865613D02*
X168110000Y-73155613D01*
X168110000Y-73155613D02*
X168110000Y-73644387D01*
X168110000Y-73644387D02*
X168400000Y-73934387D01*
X168400000Y-73934387D02*
X168400000Y-99300000D01*
D18*
%TO.N,D-*%
X168899200Y-73200800D02*
X168700000Y-73400000D01*
X168999200Y-73200800D02*
X168899200Y-73200800D01*
X168999200Y-98300799D02*
X168900000Y-98399999D01*
X168900000Y-98399999D02*
X168900000Y-99300000D01*
X168999200Y-73200800D02*
X168999200Y-98300799D01*
%TO.N,D+*%
X169400000Y-72280001D02*
X169300800Y-72379201D01*
X169400000Y-71605000D02*
X169400000Y-72280001D01*
X169300800Y-72379201D02*
X169300800Y-97399200D01*
%TO.N,D-*%
X168999200Y-72379201D02*
X168999200Y-73200800D01*
X168900000Y-72280001D02*
X168999200Y-72379201D01*
X168900000Y-71605000D02*
X168900000Y-72280001D01*
D19*
%TO.N,VBUS*%
X167900000Y-101400000D02*
X167900000Y-99300000D01*
X170400000Y-101400000D02*
X170400000Y-99300000D01*
X170400000Y-71605000D02*
X170400000Y-70445000D01*
X170400000Y-70445000D02*
X170350000Y-70395000D01*
D17*
%TO.N,VSS*%
X171950000Y-70395000D02*
X172445000Y-69900000D01*
X172445000Y-69900000D02*
X173175000Y-69900000D01*
X173175000Y-69900000D02*
X173280000Y-69795000D01*
X171900000Y-71605000D02*
X171900000Y-70445000D01*
X171900000Y-70445000D02*
X171950000Y-70395000D01*
X166350000Y-70395000D02*
X165750000Y-69795000D01*
X165750000Y-69795000D02*
X165020000Y-69795000D01*
X166400000Y-71605000D02*
X166400000Y-70445000D01*
X166400000Y-70445000D02*
X166350000Y-70395000D01*
D19*
%TO.N,VBUS*%
X167900000Y-71605000D02*
X167900000Y-70445000D01*
X167900000Y-70445000D02*
X167950000Y-70395000D01*
D18*
%TO.N,D+*%
X169050000Y-70750000D02*
X169400000Y-71100000D01*
X169050000Y-70695000D02*
X169050000Y-70750000D01*
X168750000Y-70395000D02*
X169050000Y-70695000D01*
X169400000Y-71100000D02*
X169400000Y-71605000D01*
%TO.N,RX1+*%
X171400000Y-101400000D02*
X171400000Y-102300001D01*
X171400000Y-102300001D02*
X171300800Y-102399201D01*
%TO.N,RX1-*%
X170999200Y-102900000D02*
X170799200Y-103100000D01*
%TO.N,RX1+*%
X171300800Y-102399201D02*
X171300800Y-102900000D01*
X171300800Y-102900000D02*
X171500800Y-103100000D01*
%TO.N,RX1-*%
X170900000Y-101400000D02*
X170900000Y-102300001D01*
X170900000Y-102300001D02*
X170999200Y-102399201D01*
X170999200Y-102399201D02*
X170999200Y-102900000D01*
%TO.N,TX2+*%
X166900000Y-101400000D02*
X166900000Y-102300001D01*
X166999200Y-102399201D02*
X166999200Y-102900000D01*
X166900000Y-102300001D02*
X166999200Y-102399201D01*
%TO.N,TX2-*%
X167400000Y-102300001D02*
X167300800Y-102399201D01*
%TO.N,TX2+*%
X166999200Y-102900000D02*
X166799200Y-103100000D01*
%TO.N,TX2-*%
X167400000Y-101400000D02*
X167400000Y-102300001D01*
X167300800Y-102399201D02*
X167300800Y-102900000D01*
X167300800Y-102900000D02*
X167500800Y-103100000D01*
%TO.N,D+*%
X169300800Y-97399200D02*
X169300800Y-98300799D01*
%TO.N,D-*%
X168900000Y-99300000D02*
X168900000Y-100100000D01*
X168900000Y-100100000D02*
X169400000Y-100600000D01*
X169400000Y-100600000D02*
X169400000Y-101400000D01*
%TO.N,TX1+*%
X171400000Y-99300000D02*
X171400000Y-98399999D01*
%TO.N,TX1-*%
X170999200Y-98300799D02*
X170999200Y-72379201D01*
%TO.N,TX1+*%
X171400000Y-98399999D02*
X171300800Y-98300799D01*
X171300800Y-72379201D02*
X171400000Y-72280001D01*
%TO.N,TX1-*%
X170900000Y-99300000D02*
X170900000Y-98399999D01*
%TO.N,TX1+*%
X171300800Y-98300799D02*
X171300800Y-72379201D01*
X171400000Y-72280001D02*
X171400000Y-71605000D01*
%TO.N,TX1-*%
X170900000Y-98399999D02*
X170999200Y-98300799D01*
X170999200Y-72379201D02*
X170900000Y-72280001D01*
X170900000Y-72280001D02*
X170900000Y-71605000D01*
%TO.N,D+*%
X169300800Y-98300799D02*
X169400000Y-98399999D01*
X169400000Y-98399999D02*
X169400000Y-99300000D01*
%TO.N,RX2+*%
X166900000Y-71595000D02*
X166900000Y-72270001D01*
X166999200Y-72369201D02*
X166999200Y-98300799D01*
X166900000Y-72270001D02*
X166999200Y-72369201D01*
%TO.N,RX2-*%
X167400000Y-72270001D02*
X167300800Y-72369201D01*
%TO.N,RX2+*%
X166999200Y-98300799D02*
X166900000Y-98399999D01*
%TO.N,RX2-*%
X167400000Y-71595000D02*
X167400000Y-72270001D01*
X167400000Y-98399999D02*
X167400000Y-99300000D01*
%TO.N,RX2+*%
X166900000Y-98399999D02*
X166900000Y-99300000D01*
%TO.N,RX2-*%
X167300800Y-72369201D02*
X167300800Y-98300799D01*
X167300800Y-98300799D02*
X167400000Y-98399999D01*
%TD*%
M02*
