<?xml version="1.0" encoding="UTF-8" standalone="no"?>
<!-- Created with Inkscape (http://www.inkscape.org/) -->

<svg
   xmlns:dc="http://purl.org/dc/elements/1.1/"
   xmlns:cc="http://creativecommons.org/ns#"
   xmlns:rdf="http://www.w3.org/1999/02/22-rdf-syntax-ns#"
   xmlns:svg="http://www.w3.org/2000/svg"
   xmlns="http://www.w3.org/2000/svg"
   xmlns:sodipodi="http://sodipodi.sourceforge.net/DTD/sodipodi-0.dtd"
   xmlns:inkscape="http://www.inkscape.org/namespaces/inkscape"
   width="110.0mm"
   height="110.0mm"
   viewBox="0 0 110.0 110.0"
   version="1.1"
   id="svg8"
   inkscape:version="0.92.4 5da689c313, 2019-01-14"
   sodipodi:docname="WordClockMiddle.svg">
  <defs
     id="defs2" />
  <sodipodi:namedview
     id="base"
     pagecolor="#ffffff"
     bordercolor="#666666"
     borderopacity="1.0"
     inkscape:pageopacity="0.0"
     inkscape:pageshadow="2"
     inkscape:zoom="1.4"
     inkscape:cx="112.71269"
     inkscape:cy="215.15679"
     inkscape:document-units="mm"
     inkscape:current-layer="g836"
     showgrid="false"
     inkscape:window-width="1920"
     inkscape:window-height="1019"
     inkscape:window-x="0"
     inkscape:window-y="0"
     inkscape:window-maximized="1"
     borderlayer="true"
     objecttolerance="8">
    <inkscape:grid
       spacingx="2.54"
       spacingy="2.54"
       empspacing="1"
       type="xygrid"
       units="mm"
       id="grid816" />
  </sodipodi:namedview>
  <metadata
     id="metadata5">
    <rdf:RDF>
      <cc:Work
         rdf:about="">
        <dc:format>image/svg+xml</dc:format>
        <dc:type
           rdf:resource="http://purl.org/dc/dcmitype/StillImage" />
        <dc:title />
      </cc:Work>
    </rdf:RDF>
  </metadata>
  <g
     id="g822"
     sodipodi:insensitive="true"
     inkscape:groupmode="layer"
     inkscape:label="[fixed] BG">
    <rect
       id="rect820"
       style="stroke:none;fill-opacity:1;fill:#FFFFFF"
       height="110.0"
       width="110.0"
       y="0"
       x="0" />
  </g>
  <g
     id="g824"
     inkscape:groupmode="layer"
     inkscape:label="Edge.Cuts">
    <g
       aria-label="IT IS HALF TEN"
       transform="matrix(0.26458333,0,0,0.26458333,8.521748,-8.9656478e-6)"
       style="font-style:normal;font-weight:normal;font-size:40px;line-height:1.25;font-family:sans-serif;letter-spacing:0px;word-spacing:0px;fill:#000000;fill-opacity:1;stroke:none"
       id="flowRoot855" />
    <text
       xml:space="preserve"
       style="font-style:normal;font-weight:normal;font-size:10.58333302px;line-height:1.25;font-family:sans-serif;letter-spacing:0px;word-spacing:0px;fill:#000000;fill-opacity:1;stroke:none;stroke-width:0.26458332"
       x="11.339286"
       y="35.349701"
       id="text865"><tspan
         sodipodi:role="line"
         id="tspan863"
         x="11.339286"
         y="35.349701"
         style="stroke-width:0.26458332"> </tspan></text>
    <g
       aria-label="QUARTER TWENTY"
       style="font-style:normal;font-weight:normal;font-size:10.58333302px;line-height:1.25;font-family:sans-serif;letter-spacing:0px;word-spacing:0px;fill:#000000;fill-opacity:1;stroke:none;stroke-width:0.26458332"
       id="text869" />
    <g
       aria-label="FIVE MINUTES TILL"
       style="font-style:normal;font-weight:normal;font-size:10.58333302px;line-height:1.25;font-family:sans-serif;letter-spacing:0px;word-spacing:0px;fill:#000000;fill-opacity:1;stroke:none;stroke-width:0.26458332"
       id="text873" />
    <g
       aria-label="PAST TWO THREE"
       style="font-style:normal;font-weight:normal;font-size:10.58333302px;line-height:1.25;font-family:sans-serif;letter-spacing:0px;word-spacing:0px;fill:#000000;fill-opacity:1;stroke:none;stroke-width:0.26458332"
       id="text877" />
    <g
       aria-label="ONE FOUR FIVE"
       style="font-style:normal;font-weight:normal;font-size:10.58333302px;line-height:1.25;font-family:sans-serif;letter-spacing:0px;word-spacing:0px;fill:#000000;fill-opacity:1;stroke:none;stroke-width:0.26458332"
       id="text881" />
    <g
       aria-label="SIX SEVEN EIGHT"
       style="font-style:normal;font-weight:normal;font-size:10.58333302px;line-height:1.25;font-family:sans-serif;letter-spacing:0px;word-spacing:0px;fill:#000000;fill-opacity:1;stroke:none;stroke-width:0.26458332"
       id="text885" />
    <g
       aria-label="NINE TEN ELEVEN"
       style="font-style:normal;font-weight:normal;font-size:10.58333302px;line-height:1.25;font-family:sans-serif;letter-spacing:0px;word-spacing:0px;fill:#000000;fill-opacity:1;stroke:none;stroke-width:0.26458332"
       id="text889" />
    <path
       id="rect2009"
       transform="scale(0.26458333)"
       d="M65.566406 118.22656L64.8804259412 118.234760921L64.1986306088 118.259240051L63.5212049718 118.299811943L62.8483339993 118.35629115L62.1802026603 118.428492223L61.5169959238 118.516229716L60.858898759 118.61931818L60.2060961348 118.737572168L59.5587730203 118.870806232L58.9171143846 119.018834925L58.2813051966 119.181472799L57.6515304255 119.358534407L57.0279750403 119.5498343L56.4108240101 119.755187032L55.8002623038 119.974407154L55.1964748906 120.207309219L54.5996467395 120.453707779L54.0099628195 120.713417387L52.8527675491 121.272027957L51.7263688318 121.881657345L50.6322464199 122.540821973L49.5718800659 123.248038258L48.5467495222 124.00182262L47.5583345411 124.800691477L46.608114875 125.64316125L45.6975702763 126.527748357L44.8281804973 127.452969216L44.0014252905 128.417340248L43.2187844082 129.419377871L42.4817376028 130.457598504L41.7917646267 131.530518567L41.1503452323 132.636654478L40.5589591719 133.774522656L40.0190861979 134.942639521L39.768929541 135.537577592L39.5322060627 136.139521492L39.3091007323 136.748285773L39.0997985188 137.363684987L38.9044843911 137.985533687L38.7233433184 138.613646426L38.5565602696 139.247837755L38.4043202139 139.887922227L38.2668081203 140.533714395L38.1442089578 141.185028811L38.0367076954 141.841680027L37.9444893023 142.503482596L37.8677387475 143.170251069L37.806641 143.8418L157.83594 143.8418L157.83594 118.22656L65.566406 118.22656L65.566406 118.22656M164.78125 118.22656L164.78125 143.8418L266.04883 143.8418L266.04883 118.22656L164.78125 118.22656L164.78125 118.22656M274.25586 118.22656L274.25586 143.8418L383.4082 143.8418L383.347100415 143.170252886L383.270348099 142.503486115L383.178128019 141.841685137L383.070625144 141.185035403L382.948024442 140.533722363L382.810510882 139.887931467L382.658269431 139.247848166L382.491485059 138.61365791L382.310342733 137.98554615L382.115027422 137.363698335L381.905724094 136.748299917L381.682617717 136.139536345L381.445893261 135.53759307L381.195735692 134.942655543L380.655861094 133.774539531L380.064473668 132.636671913L379.423053162 131.530536292L378.733079322 130.457616269L377.996031895 129.419395449L377.213390627 128.417357434L376.386635266 127.452985828L375.517245558 126.527764232L374.60670125 125.64317625L373.656482088 124.800705485L372.66806782 124.00183554L371.642938191 123.248050017L370.582572949 122.54083252L369.488451841 121.881666651L368.362054612 121.272036013L367.20486101 120.71342421L366.61517799 120.453713997L366.018350781 120.207314844L365.414564353 119.974412201L364.804003673 119.755191518L364.186853709 119.549838246L363.563299431 119.358537834L362.933525806 119.181475735L362.297717803 119.018837397L361.65606039 118.870808272L361.008738535 118.737573809L360.355937207 118.619319459L359.697841374 118.516230672L359.034636005 118.428492899L358.366506067 118.356291589L357.693636529 118.299812195L357.01621236 118.259240164L356.334418527 118.23476095L355.64844 118.22656L274.25586 118.22656L274.25586 118.22656M37.708984 150.64648L37.738281 177.4668L213.64648 177.55664L213.64648 150.64648L37.708984 150.64648L37.708984 150.64648M222.23438 150.64648L222.23438 177.5625L383.50586 177.64453L383.50586 150.64648L222.23438 150.64648L222.23438 150.64648M383.50586 184.63867L307.33984 184.65234L307.33984 211.94922L308.31836 211.94531L383.50586 211.97852L383.50586 184.63867L383.50586 184.63867M299.00586 184.6543L126.79688 184.6875L125.76367 184.67578L125.76367 211.94922L126.55078 211.96289L297.42773 211.94531L299.00586 211.94922L299.00586 184.6543L299.00586 184.6543M37.726562 184.6582L37.722656 211.97852L118.01367 211.96289L119.07227 211.94922L119.07227 184.67578L118.0918 184.67578L37.726562 184.6582L37.726562 184.6582M37.722656 218.78125L37.699219 244.57812L142.24219 244.5957L143.75 244.58789L143.75 218.78125L37.722656 218.78125L37.722656 218.78125M149.01758 218.78125L149.01758 244.58789L151.45117 244.61914L240.90625 244.62109L242.7207 244.58984L242.7207 218.78125L149.01758 218.78125L149.01758 218.78125M249.50781 218.78125L249.50781 244.58984L251.63867 244.58984L383.49414 244.55859L383.50586 218.78125L249.50781 218.78125L249.50781 218.78125M262.29883 250.56445L154.36719 250.5957L154.30078 276.72656L156.47266 276.74414L263.77539 276.76367L263.77539 250.58789L262.29883 250.56445L262.29883 250.56445M383.46094 250.57422L271.62305 250.5957L270.3418 250.58789L270.3418 276.76562L383.50586 276.78516L383.46094 250.57422L383.46094 250.57422M147.35547 250.59766L37.6875 250.60742L37.716797 276.78516L145.48047 276.73438L147.35547 276.72656L147.35547 250.59766L147.35547 250.59766M37.714844 282.02734L37.654297 307.64844L113.38867 307.625L113.38867 282.02734L37.714844 282.02734L37.714844 282.02734M120.96484 282.02734L120.96484 307.62305L246.47656 307.58398L246.47656 282.02734L120.96484 282.02734L120.96484 282.02734M254.81055 282.02734L254.81055 307.58203L383.50586 307.54102L383.50586 282.02734L254.81055 282.02734L254.81055 282.02734M37.701172 313.14258L37.707031 339.0332L137.12891 339.0332L137.12891 313.16602L37.701172 313.14258L37.701172 313.14258M144.19922 313.16797L144.19922 339.0332L223.24414 339.0332L223.24414 313.1875L144.19922 313.16797L144.19922 313.16797M230.82031 313.1875L230.82031 339.0332L383.50586 339.0332L383.50586 313.22461L230.82031 313.1875L230.82031 313.1875M37.722656 344.46484L37.7461336966 345.172943003L37.7869561091 345.876374709L37.8449162056 346.574927754L37.9198069546 347.268394778L38.0114213242 347.956568417L38.1195522828 348.639241311L38.2439927986 349.316206096L38.3845358398 349.98725541L38.5409743749 350.652181892L38.713101372 351.310778179L38.9007097994 351.962836909L39.1035926255 352.60815072L39.3215428184 353.24651225L39.5543533465 353.877714137L39.801817178 354.501549018L40.0637272812 355.117809531L40.3398766245 355.726288315L40.630058176 356.326778007L40.934064904 356.919071245L41.2516897769 357.502960667L41.5827257628 358.07823891L41.9269658301 358.644698613L42.2842029471 359.202132413L42.654230082 359.750332949L43.0368402031 360.289092858L43.4318262787 360.818204778L43.8389812771 361.337461347L44.2580981665 361.846655203L44.6889699152 362.345578983L45.1313894915 362.834025326L45.5851498637 363.311786869L46.050044 363.77865625L46.5258648687 364.234426107L47.0124054382 364.678889079L47.5094586766 365.111837802L48.0168175522 365.533064915L48.5342750334 365.942363055L49.0616240884 366.339524861L49.5986576855 366.724342969L50.145168793 367.09661002L50.7009503791 367.456118649L51.265795412 367.802661494L51.8394968602 368.136031195L52.4218476919 368.456020388L53.0126408753 368.762421712L53.6116693787 369.055027804L54.2187261704 369.333631302L54.8336042187 369.598024844L55.4560964919 369.848001068L56.0859959582 370.083352611L56.7230955859 370.303872113L57.3671883433 370.509352209L58.0180671986 370.69958554L58.6755251202 370.874364741L59.3393550763 371.033482451L60.0093500352 371.176731309L60.6853029651 371.303903951L61.3670068344 371.414793015L62.0542546113 371.509191141L62.7468392642 371.586890964L63.4445537612 371.647685124L64.1471910706 371.691366258L64.8545441608 371.717727004L65.566406 371.72656L198.49414 371.72656L198.49414 344.46484L37.722656 344.46484L37.722656 344.46484M206.82812 344.46484L206.82812 371.72656L355.64844 371.72656L356.360300306 371.717727004L357.067649531 371.691366258L357.770280758 371.647685124L358.46798707 371.586890964L359.160561552 371.509191141L359.847797285 371.414793015L360.529487355 371.303903951L361.205424844 371.176731309L361.875402836 371.033482451L362.539214414 370.874364741L363.196652662 370.69958554L363.847510664 370.509352209L364.491581503 370.303872113L365.128658262 370.083352611L365.758534025 369.848001068L366.381001875 369.598024844L366.995854896 369.333631302L367.602886172 369.055027804L368.201888785 368.762421712L368.79265582 368.456020388L369.37498036 368.136031195L369.948655488 367.802661494L370.513474288 367.456118649L371.069229844 367.09661002L371.615715238 366.724342969L372.152723555 366.339524861L372.680047877 365.942363055L373.197481289 365.533064915L373.704816874 365.111837802L374.201847715 364.678889079L374.688366896 364.234426107L375.1641675 363.77865625L375.629042611 363.311786869L376.082785312 362.834025326L376.525188688 362.345578983L376.95604582 361.846655203L377.375149794 361.337461347L377.782293691 360.818204778L378.177270597 360.289092858L378.559873594 359.750332949L378.929895765 359.202132413L379.287130195 358.644698613L379.631369967 358.07823891L379.962408164 357.502960667L380.28003787 356.919071245L380.584052168 356.326778007L380.874244142 355.726288315L381.150406875 355.117809531L381.412333451 354.501549018L381.659816953 353.877714137L381.892650465 353.24651225L382.11062707 352.60815072L382.313539852 351.962836909L382.501181895 351.310778179L382.673346281 350.652181892L382.829826094 349.98725541L382.970414418 349.316206096L383.094904336 348.639241311L383.203088932 347.956568417L383.294761289 347.268394778L383.369714491 346.574927754L383.427741621 345.876374709L383.468635763 345.172943003L383.49219 344.46484L206.82812 344.46484L206.82812 344.46484"
       style="fill:none;fill-opacity:1;stroke:#000000;stroke-width:1.54960632;stroke-miterlimit:4;stroke-dasharray:none;stroke-opacity:1" />
  </g>
  <g
     id="g826"
     inkscape:groupmode="layer"
     inkscape:label="B.Cu"
     style="display:inline">
    <g
       id="g1886">
      <g
         transform="translate(-0.10926914)"
         id="g1859">
        <rect
           style="fill:#000000;fill-opacity:1;stroke:none;stroke-width:0.45246041;stroke-miterlimit:4;stroke-dasharray:none;stroke-opacity:1"
           id="rect1853"
           width="11.54754"
           height="1.5475396"
           x="11.999654"
           y="28.644466"
           rx="0"
           ry="0" />
        <rect
           ry="0"
           rx="0"
           y="28.644466"
           x="88.305107"
           height="1.5475396"
           width="11.54754"
           id="rect1855"
           style="fill:#000000;fill-opacity:1;stroke:none;stroke-width:0.45246041;stroke-miterlimit:4;stroke-dasharray:none;stroke-opacity:1" />
      </g>
      <g
         transform="translate(-0.10926914,71.494597)"
         id="g1875">
        <rect
           ry="0"
           rx="0"
           y="28.644466"
           x="11.999654"
           height="1.5475396"
           width="11.54754"
           id="rect1871"
           style="fill:#000000;fill-opacity:1;stroke:none;stroke-width:0.45246041;stroke-miterlimit:4;stroke-dasharray:none;stroke-opacity:1" />
        <rect
           style="fill:#000000;fill-opacity:1;stroke:none;stroke-width:0.45246041;stroke-miterlimit:4;stroke-dasharray:none;stroke-opacity:1"
           id="rect1873"
           width="11.54754"
           height="1.5475396"
           x="88.305107"
           y="28.644466"
           rx="0"
           ry="0" />
      </g>
    </g>
  </g>
  <g
     id="g828"
     inkscape:groupmode="layer"
     inkscape:label="B.Mask"
     style="display:inline">
    <g
       id="g1900">
      <g
         id="g1892"
         transform="translate(-0.10926914)">
        <rect
           ry="0"
           rx="0"
           y="28.644466"
           x="11.999654"
           height="1.5475396"
           width="11.54754"
           id="rect1888"
           style="fill:#000000;fill-opacity:1;stroke:none;stroke-width:0.45246041;stroke-miterlimit:4;stroke-dasharray:none;stroke-opacity:1" />
        <rect
           style="fill:#000000;fill-opacity:1;stroke:none;stroke-width:0.45246041;stroke-miterlimit:4;stroke-dasharray:none;stroke-opacity:1"
           id="rect1890"
           width="11.54754"
           height="1.5475396"
           x="88.305107"
           y="28.644466"
           rx="0"
           ry="0" />
      </g>
      <g
         id="g1898"
         transform="translate(-0.10926914,71.494597)">
        <rect
           style="fill:#000000;fill-opacity:1;stroke:none;stroke-width:0.45246041;stroke-miterlimit:4;stroke-dasharray:none;stroke-opacity:1"
           id="rect1894"
           width="11.54754"
           height="1.5475396"
           x="11.999654"
           y="28.644466"
           rx="0"
           ry="0" />
        <rect
           ry="0"
           rx="0"
           y="28.644466"
           x="88.305107"
           height="1.5475396"
           width="11.54754"
           id="rect1896"
           style="fill:#000000;fill-opacity:1;stroke:none;stroke-width:0.45246041;stroke-miterlimit:4;stroke-dasharray:none;stroke-opacity:1" />
      </g>
    </g>
  </g>
  <g
     id="g830"
     inkscape:groupmode="layer"
     inkscape:label="B.Silk" />
  <g
     id="g832"
     inkscape:groupmode="layer"
     inkscape:label="F.Cu"
     style="display:inline">
    <g
       style="display:inline"
       id="g1977">
      <g
         transform="translate(-0.10926914)"
         id="g1969">
        <rect
           style="fill:#000000;fill-opacity:1;stroke:none;stroke-width:0.45246041;stroke-miterlimit:4;stroke-dasharray:none;stroke-opacity:1"
           id="rect1965"
           width="11.54754"
           height="1.5475396"
           x="11.999654"
           y="28.644466"
           rx="0"
           ry="0" />
        <rect
           ry="0"
           rx="0"
           y="28.644466"
           x="88.305107"
           height="1.5475396"
           width="11.54754"
           id="rect1967"
           style="fill:#000000;fill-opacity:1;stroke:none;stroke-width:0.45246041;stroke-miterlimit:4;stroke-dasharray:none;stroke-opacity:1" />
      </g>
      <g
         transform="translate(-0.10926914,71.494597)"
         id="g1975">
        <rect
           ry="0"
           rx="0"
           y="28.644466"
           x="11.999654"
           height="1.5475396"
           width="11.54754"
           id="rect1971"
           style="fill:#000000;fill-opacity:1;stroke:none;stroke-width:0.45246041;stroke-miterlimit:4;stroke-dasharray:none;stroke-opacity:1" />
        <rect
           style="fill:#000000;fill-opacity:1;stroke:none;stroke-width:0.45246041;stroke-miterlimit:4;stroke-dasharray:none;stroke-opacity:1"
           id="rect1973"
           width="11.54754"
           height="1.5475396"
           x="88.305107"
           y="28.644466"
           rx="0"
           ry="0" />
      </g>
    </g>
  </g>
  <g
     id="g834"
     inkscape:groupmode="layer"
     inkscape:label="F.Mask"
     style="display:inline">
    <g
       aria-label="TWELVE O'CLOCK"
       style="font-style:normal;font-weight:normal;font-size:10.58333302px;line-height:1.25;font-family:sans-serif;letter-spacing:0px;word-spacing:0px;fill:#000000;fill-opacity:1;stroke:none;stroke-width:0.26458332"
       id="text893">
      <path
         id="path1121"
         style="font-style:normal;font-variant:normal;font-weight:bold;font-stretch:normal;font-size:8.81944466px;font-family:sans-serif;-inkscape-font-specification:'sans-serif, Bold';font-variant-ligatures:normal;font-variant-caps:normal;font-variant-numeric:normal;font-feature-settings:normal;text-align:start;writing-mode:lr-tb;text-anchor:start;stroke-width:0.26458332"
         d="m 92.07866,91.475345 h 1.657953 v 2.346971 l 2.390035,-2.346971 h 1.924947 l -3.09628,3.044603 3.414951,3.384807 h -2.07567 l -2.557983,-2.532146 v 2.532146 H 92.07866 Z m -1.378034,6.076287 q -0.456475,0.236851 -0.951708,0.357429 -0.495232,0.120578 -1.033529,0.120578 -1.606275,0 -2.545064,-0.895724 -0.938788,-0.900032 -0.938788,-2.437406 0,-1.54168 0.938788,-2.437405 0.938789,-0.900031 2.545064,-0.900031 0.538297,0 1.033529,0.120578 0.495233,0.120579 0.951708,0.357429 v 1.330668 q -0.460782,-0.314365 -0.908644,-0.460781 -0.447863,-0.146417 -0.943095,-0.146417 -0.887112,0 -1.395264,0.568441 -0.508151,0.568441 -0.508151,1.567518 0,0.994772 0.508151,1.563213 0.508152,0.56844 1.395264,0.56844 0.495232,0 0.943095,-0.146416 0.447862,-0.146417 0.908644,-0.460782 z M 81.045748,92.56055 q -0.757921,0 -1.175639,0.559828 -0.417718,0.559828 -0.417718,1.576131 0,1.011997 0.417718,1.571825 0.417718,0.559828 1.175639,0.559828 0.762228,0 1.179945,-0.559828 0.417718,-0.559828 0.417718,-1.571825 0,-1.016303 -0.417718,-1.576131 -0.417717,-0.559828 -1.179945,-0.559828 z m 0,-1.201477 q 1.550293,0 2.428793,0.887112 0.878499,0.887112 0.878499,2.450324 0,1.558906 -0.878499,2.446018 -0.8785,0.887112 -2.428793,0.887112 -1.545986,0 -2.428792,-0.887112 -0.8785,-0.887112 -0.8785,-2.446018 0,-1.563212 0.8785,-2.450324 0.882806,-0.887112 2.428792,-0.887112 z m -8.242394,0.116272 h 1.657952 v 5.176256 h 2.911106 v 1.253154 h -4.569058 z m -1.378039,6.076287 q -0.456475,0.236851 -0.951707,0.357429 -0.495233,0.120578 -1.033529,0.120578 -1.606276,0 -2.545064,-0.895724 -0.938789,-0.900032 -0.938789,-2.437406 0,-1.54168 0.938789,-2.437405 0.938788,-0.900031 2.545064,-0.900031 0.538296,0 1.033529,0.120578 0.495232,0.120579 0.951707,0.357429 v 1.330668 q -0.460781,-0.314365 -0.908644,-0.460781 -0.447862,-0.146417 -0.943095,-0.146417 -0.887112,0 -1.395263,0.568441 -0.508152,0.568441 -0.508152,1.567518 0,0.994772 0.508152,1.563213 0.508151,0.56844 1.395263,0.56844 0.495233,0 0.943095,-0.146416 0.447863,-0.146417 0.908644,-0.460782 z m -6.752386,-6.076287 v 2.390035 h -1.02061 v -2.390035 z m -5.606894,1.085205 q -0.757921,0 -1.175639,0.559828 -0.417718,0.559828 -0.417718,1.576131 0,1.011997 0.417718,1.571825 0.417718,0.559828 1.175639,0.559828 0.762227,0 1.179945,-0.559828 0.417718,-0.559828 0.417718,-1.571825 0,-1.016303 -0.417718,-1.576131 -0.417718,-0.559828 -1.179945,-0.559828 z m 0,-1.201477 q 1.550293,0 2.428792,0.887112 0.878499,0.887112 0.878499,2.450324 0,1.558906 -0.878499,2.446018 -0.878499,0.887112 -2.428792,0.887112 -1.545987,0 -2.428793,-0.887112 -0.878499,-0.887112 -0.878499,-2.446018 0,-1.563212 0.878499,-2.450324 0.882806,-0.887112 2.428793,-0.887112 z M 47.03404,91.475345 h 4.474318 v 1.253154 h -2.816366 v 1.19717 h 2.648417 v 1.253154 h -2.648417 v 1.472778 h 2.911106 v 1.253154 H 47.03404 Z m -7.587825,0 h 1.666565 l 1.705322,4.745619 1.701016,-4.745619 h 1.666565 l -2.381422,6.42941 h -1.976623 z m -3.643187,0 h 1.657952 v 5.176256 h 2.911106 v 1.253154 h -4.569058 z m -6.028918,0 h 4.474318 v 1.253154 h -2.816365 v 1.19717 h 2.648417 v 1.253154 h -2.648417 v 1.472778 h 2.911105 v 1.253154 H 29.77411 Z m -10.279304,0 h 1.58905 l 1.111043,4.672411 1.102431,-4.672411 h 1.597663 l 1.102431,4.672411 1.111043,-4.672411 h 1.576131 l -1.515842,6.42941 h -1.912028 l -1.167026,-4.88773 -1.154107,4.88773 h -1.912028 z m -6.231317,0 h 5.925565 v 1.253154 h -2.131653 v 5.176256 h -1.657952 v -5.176256 h -2.13596 z m 79.764729,-8.287147 h 1.851739 l 2.338358,4.409722 v -4.409722 h 1.571825 v 6.429409 h -1.851739 l -2.338358,-4.409722 v 4.409722 h -1.571825 z m -6.028916,0 h 4.474318 v 1.253153 h -2.816365 v 1.197171 h 2.648417 v 1.253153 h -2.648417 v 1.472779 h 2.911105 v 1.253153 h -4.569058 z m -7.587822,0 h 1.666565 l 1.705322,4.745619 1.701016,-4.745619 h 1.666565 l -2.381423,6.429409 h -1.976623 z m -5.262386,0 h 4.474318 v 1.253153 h -2.816366 v 1.197171 h 2.648418 v 1.253153 h -2.648418 v 1.472779 h 2.911106 v 1.253153 h -4.569058 z m -5.615505,0 h 1.657952 v 5.176256 h 2.911106 v 1.253153 h -4.569058 z m -6.028919,0 h 4.474318 v 1.253153 h -2.816366 v 1.197171 h 2.648417 v 1.253153 h -2.648417 v 1.472779 h 2.911106 v 1.253153 H 62.50467 Z m -10.455864,0 h 1.851739 l 2.338358,4.409722 v -4.409722 h 1.571825 v 6.429409 h -1.851739 l -2.338358,-4.409722 v 4.409722 h -1.571825 z m -6.02892,0 h 4.474318 v 1.253153 h -2.816365 v 1.197171 h 2.648417 v 1.253153 h -2.648417 v 1.472779 h 2.911105 v 1.253153 h -4.569058 z m -6.778223,0 h 5.925564 v 1.253153 h -2.131653 v 5.176256 h -1.657952 v -5.176256 h -2.135959 z m -8.328519,0 h 4.474317 v 1.253153 h -2.816365 v 1.197171 h 2.648417 v 1.253153 h -2.648417 v 1.472779 h 2.911106 v 1.253153 h -4.569058 z m -7.389731,0 h 1.851739 l 2.338359,4.409722 v -4.409722 h 1.571824 v 6.429409 h -1.851738 l -2.338359,-4.409722 v 4.409722 h -1.571825 z m -3.290066,0 h 1.657952 v 6.429409 h -1.657952 z m -7.38973,0 h 1.851739 l 2.338358,4.409722 v -4.409722 h 1.571825 v 6.429409 H 16.7538 l -2.338358,-4.409722 v 4.409722 h -1.571825 z m 79.291027,-8.295762 h 5.925564 v 1.253154 h -2.131652 v 5.176256 H 94.270603 V 76.14559 h -2.135959 z m -6.623199,0 h 1.657953 v 2.450325 h 2.446018 v -2.450325 h 1.657952 v 6.42941 h -1.657952 v -2.725932 h -2.446018 v 2.725932 h -1.657953 z m -1.455547,5.951403 q -0.620117,0.301446 -1.287605,0.452169 -0.667487,0.150723 -1.378038,0.150723 -1.606276,0 -2.545064,-0.895725 -0.938789,-0.900031 -0.938789,-2.437405 0,-1.5546 0.956014,-2.446018 0.956014,-0.891419 2.618273,-0.891419 0.641649,0 1.227315,0.120579 0.589973,0.120578 1.111044,0.357428 v 1.330669 q -0.538297,-0.305753 -1.072286,-0.456476 -0.529684,-0.150722 -1.063674,-0.150722 -0.990465,0 -1.528761,0.555521 -0.53399,0.551215 -0.53399,1.580438 0,1.020609 0.516765,1.576131 0.516764,0.555522 1.468472,0.555522 0.258382,0 0.478007,-0.03015 0.223931,-0.03445 0.400492,-0.103353 v -1.248847 h -1.011997 v -1.111043 h 2.583822 z M 74.98668,74.892436 h 1.657953 v 6.42941 H 74.98668 Z m -6.028915,0 h 4.474318 v 1.253154 h -2.816366 v 1.197171 h 2.648418 v 1.253153 h -2.648418 v 1.472778 h 2.911106 v 1.253154 h -4.569058 z m -10.455864,0 h 1.851739 l 2.338359,4.409723 v -4.409723 h 1.571824 v 6.42941 h -1.851738 l -2.338359,-4.409722 v 4.409722 h -1.571825 z m -6.028919,0 H 56.9473 v 1.253154 h -2.816366 v 1.197171 h 2.648417 v 1.253153 h -2.648417 v 1.472778 h 2.911106 v 1.253154 h -4.569058 z m -7.587823,0 h 1.666565 l 1.705322,4.74562 1.701016,-4.74562 h 1.666565 l -2.381422,6.42941 h -1.976624 z m -5.262383,0 h 4.474317 v 1.253154 h -2.816365 v 1.197171 h 2.648417 v 1.253153 h -2.648417 v 1.472778 h 2.911106 v 1.253154 h -4.569058 z m -1.881884,0.2024 v 1.360813 q -0.529683,-0.236851 -1.033528,-0.357429 -0.503846,-0.120578 -0.951708,-0.120578 -0.594279,0 -0.878499,0.163642 -0.284221,0.163642 -0.284221,0.508151 0,0.258382 0.18948,0.404799 0.193787,0.14211 0.697632,0.245463 l 0.706245,0.14211 q 1.072286,0.215319 1.524455,0.654568 0.452168,0.43925 0.452168,1.248847 0,1.063674 -0.633036,1.584744 -0.62873,0.516765 -1.924947,0.516765 -0.611504,0 -1.227315,-0.116272 -0.615811,-0.116272 -1.231622,-0.34451 v -1.39957 q 0.615811,0.327284 1.188558,0.495233 0.577053,0.163642 1.111043,0.163642 0.542603,0 0.83113,-0.180868 0.288526,-0.180867 0.288526,-0.516764 0,-0.301446 -0.198093,-0.465088 -0.193786,-0.163642 -0.779453,-0.292833 l -0.641649,-0.14211 q -0.964626,-0.206706 -1.412489,-0.658875 -0.443556,-0.452169 -0.443556,-1.218703 0,-0.96032 0.620117,-1.477084 0.620118,-0.516765 1.782837,-0.516765 0.529684,0 1.089512,0.08182 0.559828,0.07752 1.158413,0.236851 z m -10.761617,2.945556 2.230699,3.281454 H 27.48312 l -1.502923,-2.196248 -1.490004,2.196248 h -1.735467 l 2.230699,-3.281454 -2.144572,-3.147956 h 1.731161 l 1.408183,2.071364 1.403876,-2.071364 h 1.739774 z m -6.872966,-3.147956 h 1.657953 v 6.42941 h -1.657953 z m -1.881883,0.2024 v 1.360813 q -0.529683,-0.236851 -1.033529,-0.357429 -0.503845,-0.120578 -0.951707,-0.120578 -0.594279,0 -0.8785,0.163642 -0.28422,0.163642 -0.28422,0.508151 0,0.258382 0.18948,0.404799 0.193787,0.14211 0.697632,0.245463 l 0.706245,0.14211 q 1.072286,0.215319 1.524454,0.654568 0.452169,0.43925 0.452169,1.248847 0,1.063674 -0.633036,1.584744 -0.62873,0.516765 -1.924947,0.516765 -0.611505,0 -1.227315,-0.116272 -0.615811,-0.116272 -1.231622,-0.34451 v -1.39957 q 0.615811,0.327284 1.188558,0.495233 0.577053,0.163642 1.111043,0.163642 0.542603,0 0.831129,-0.180868 0.288527,-0.180867 0.288527,-0.516764 0,-0.301446 -0.198093,-0.465088 -0.193786,-0.163642 -0.779453,-0.292833 l -0.641649,-0.14211 q -0.964626,-0.206706 -1.412489,-0.658875 -0.443556,-0.452169 -0.443556,-1.218703 0,-0.96032 0.620117,-1.477084 0.620117,-0.516765 1.782837,-0.516765 0.529684,0 1.089512,0.08182 0.559828,0.07752 1.158413,0.236851 z m 70.822552,-8.614433 h 4.474318 v 1.253154 h -2.816365 v 1.197171 h 2.648417 v 1.253153 h -2.648417 v 1.472778 h 2.911105 v 1.253154 h -4.569058 z m -7.587826,0 h 1.666565 l 1.705322,4.745619 1.701016,-4.745619 h 1.666565 l -2.381422,6.42941 h -1.976624 z m -2.523532,0 h 1.657952 v 6.42941 H 78.93562 Z m -6.028916,0 h 4.474318 v 1.253154 h -2.816365 v 1.197171 h 2.648417 v 1.253153 h -2.648417 v 2.725932 h -1.657953 z m -7.497389,2.850817 q 0.52107,0 0.745001,-0.193787 0.228238,-0.193786 0.228238,-0.637342 0,-0.43925 -0.228238,-0.62873 -0.223931,-0.189481 -0.745001,-0.189481 h -0.697632 v 1.64934 z m -0.697632,1.145494 v 2.433099 H 63.05373 v -6.42941 h 2.532146 q 1.270379,0 1.860351,0.426331 0.594279,0.42633 0.594279,1.347894 0,0.637342 -0.310058,1.046447 -0.305753,0.409105 -0.92587,0.602892 0.340203,0.07752 0.607198,0.353122 0.271302,0.271302 0.546909,0.826823 l 0.900031,1.825901 H 67.093105 L 66.309346,71.31215 q -0.236851,-0.482314 -0.482314,-0.658875 -0.241156,-0.176561 -0.645955,-0.176561 z m -8.823751,-3.996311 h 1.657953 v 3.854201 q 0,0.796678 0.258382,1.141188 0.262688,0.340203 0.852661,0.340203 0.594279,0 0.852661,-0.340203 0.262689,-0.34451 0.262689,-1.141188 v -3.854201 h 1.657952 v 3.854201 q 0,1.365119 -0.684713,2.032606 -0.684713,0.667488 -2.088589,0.667488 -1.39957,0 -2.084283,-0.667488 -0.684713,-0.667487 -0.684713,-2.032606 z m -4.55614,1.085205 q -0.757921,0 -1.175639,0.559828 -0.417717,0.559828 -0.417717,1.576132 0,1.011997 0.417717,1.571825 0.417718,0.559828 1.175639,0.559828 0.762228,0 1.179946,-0.559828 0.417717,-0.559828 0.417717,-1.571825 0,-1.016304 -0.417717,-1.576132 -0.417718,-0.559828 -1.179946,-0.559828 z m 0,-1.201477 q 1.550293,0 2.428793,0.887112 0.878499,0.887113 0.878499,2.450325 0,1.558905 -0.878499,2.446018 -0.8785,0.887112 -2.428793,0.887112 -1.545986,0 -2.428792,-0.887112 -0.878499,-0.887113 -0.878499,-2.446018 0,-1.563212 0.878499,-2.450325 0.882806,-0.887112 2.428792,-0.887112 z m -8.965861,0.116272 h 4.474318 v 1.253154 h -2.816366 v 1.197171 H 46.6723 v 1.253153 h -2.648417 v 2.725932 h -1.657952 z m -9.095053,0 h 4.474318 v 1.253154 h -2.816365 v 1.197171 h 2.648417 v 1.253153 h -2.648417 v 1.472778 h 2.911105 v 1.253154 h -4.569058 z m -7.389729,0 h 1.851739 l 2.338358,4.409723 v -4.409723 h 1.571825 v 6.42941 h -1.851739 l -2.338358,-4.409722 v 4.409722 h -1.571825 z m -4.556139,1.085205 q -0.757921,0 -1.175639,0.559828 -0.417718,0.559828 -0.417718,1.576132 0,1.011997 0.417718,1.571825 0.417718,0.559828 1.175639,0.559828 0.762227,0 1.179945,-0.559828 0.417718,-0.559828 0.417718,-1.571825 0,-1.016304 -0.417718,-1.576132 -0.417718,-0.559828 -1.179945,-0.559828 z m 0,-1.201477 q 1.550293,0 2.428792,0.887112 0.8785,0.887113 0.8785,2.450325 0,1.558905 -0.8785,2.446018 -0.878499,0.887112 -2.428792,0.887112 -1.545987,0 -2.428793,-0.887112 -0.878499,-0.887113 -0.878499,-2.446018 0,-1.563212 0.878499,-2.450325 0.882806,-0.887112 2.428793,-0.887112 z M 93.745226,58.06837 h 4.474318 v 1.253154 h -2.816365 v 1.19717 h 2.648417 v 1.253154 h -2.648417 v 1.472778 h 2.911105 v 1.253154 h -4.569058 z m -6.028923,0 h 4.474318 v 1.253154 h -2.816365 v 1.19717 h 2.648417 v 1.253154 h -2.648417 v 1.472778 h 2.911105 v 1.253154 h -4.569058 z m -4.43125,2.850817 q 0.52107,0 0.745002,-0.193787 0.228237,-0.193786 0.228237,-0.637342 0,-0.43925 -0.228237,-0.62873 -0.223932,-0.189481 -0.745002,-0.189481 h -0.697632 v 1.64934 z m -0.697632,1.145494 v 2.433099 h -1.657952 v -6.42941 h 2.532145 q 1.270379,0 1.860351,0.426331 0.594279,0.42633 0.594279,1.347893 0,0.637343 -0.310058,1.046448 -0.305752,0.409105 -0.92587,0.602892 0.340204,0.07751 0.607198,0.353122 0.271302,0.271302 0.546909,0.826823 l 0.900032,1.825901 h -1.765612 l -0.783759,-1.597663 q -0.23685,-0.482314 -0.482313,-0.658875 -0.241157,-0.176561 -0.645956,-0.176561 z M 73.539736,58.06837 h 1.657952 v 2.450324 h 2.446018 V 58.06837 h 1.657953 v 6.42941 h -1.657953 v -2.725932 h -2.446018 v 2.725932 h -1.657952 z m -6.778222,0 h 5.925565 v 1.253154 h -2.131653 v 5.176256 h -1.657953 v -5.176256 h -2.135959 z m -6.855741,1.085205 q -0.757921,0 -1.175639,0.559828 -0.417718,0.559828 -0.417718,1.576132 0,1.011996 0.417718,1.571824 0.417718,0.559828 1.175639,0.559828 0.762227,0 1.179945,-0.559828 0.417718,-0.559828 0.417718,-1.571824 0,-1.016304 -0.417718,-1.576132 Q 60.668,59.153575 59.905773,59.153575 Z m 0,-1.201477 q 1.550293,0 2.428792,0.887112 0.878499,0.887112 0.878499,2.450325 0,1.558905 -0.878499,2.446017 -0.878499,0.887113 -2.428792,0.887113 -1.545987,0 -2.428793,-0.887113 -0.878499,-0.887112 -0.878499,-2.446017 0,-1.563213 0.878499,-2.450325 0.882806,-0.887112 2.428793,-0.887112 z M 46.689525,58.06837 h 1.58905 l 1.111043,4.672411 1.102431,-4.672411 h 1.597663 l 1.10243,4.672411 1.111044,-4.672411 h 1.576131 l -1.515842,6.42941 h -1.912028 l -1.167026,-4.887729 -1.154107,4.887729 h -1.912028 z m -6.231317,0 h 5.925564 v 1.253154 h -2.131653 v 5.176256 h -1.657952 v -5.176256 h -2.135959 z m -9.077828,0 h 5.925565 v 1.253154 H 35.174292 V 64.49778 H 33.516339 V 59.321524 H 31.38038 Z m -1.115348,0.2024 v 1.360812 q -0.529684,-0.23685 -1.033529,-0.357428 -0.503845,-0.120579 -0.951708,-0.120579 -0.594279,0 -0.878499,0.163642 -0.28422,0.163642 -0.28422,0.508152 0,0.258382 0.18948,0.404799 0.193786,0.14211 0.697632,0.245463 l 0.706244,0.14211 q 1.072286,0.215318 1.524455,0.654568 0.452169,0.43925 0.452169,1.248847 0,1.063674 -0.633036,1.584744 -0.62873,0.516765 -1.924948,0.516765 -0.611504,0 -1.227315,-0.116272 -0.615811,-0.116272 -1.231622,-0.34451 v -1.39957 q 0.615811,0.327284 1.188558,0.495232 0.577054,0.163642 1.111044,0.163642 0.542602,0 0.831129,-0.180867 0.288527,-0.180868 0.288527,-0.516764 0,-0.301446 -0.198093,-0.465088 -0.193787,-0.163642 -0.779453,-0.292833 l -0.641649,-0.142111 q -0.964627,-0.206705 -1.412489,-0.658874 -0.443556,-0.452169 -0.443556,-1.218703 0,-0.96032 0.620117,-1.477084 0.620117,-0.516765 1.782837,-0.516765 0.529683,0 1.089511,0.08182 0.559828,0.07752 1.158414,0.236852 z m -7.394037,5.055677 h -2.592434 l -0.409105,1.171333 h -1.666565 l 2.381422,-6.42941 h 1.976624 l 2.381422,6.42941 h -1.666565 z m -2.179023,-1.192864 h 1.761306 L 21.574778,59.5756 Z M 13.319468,58.06837 h 2.75177 q 1.227315,0 1.881884,0.546909 0.658874,0.542603 0.658874,1.550293 0,1.011997 -0.658874,1.558906 -0.654569,0.542602 -1.881884,0.542602 H 14.97742 v 2.2307 h -1.657952 z m 1.657952,1.201477 v 1.795756 h 0.917257 q 0.482313,0 0.745002,-0.232544 0.262688,-0.23685 0.262688,-0.667487 0,-0.430637 -0.262688,-0.663181 -0.262689,-0.232544 -0.745002,-0.232544 z m 82.67799,-9.613514 h 1.657952 v 5.176256 h 2.911108 v 1.253154 h -4.56906 z m -5.615509,0 h 1.657952 v 5.176256 h 2.911106 v 1.253154 h -4.569058 z m -3.290062,0 h 1.657953 v 6.42941 h -1.657953 z m -6.778229,0 h 5.925564 v 1.253154 h -2.131653 v 5.176256 H 84.107569 V 50.909487 H 81.97161 Z m -4.181481,0.2024 v 1.360812 q -0.529684,-0.23685 -1.033529,-0.357428 -0.503845,-0.120579 -0.951708,-0.120579 -0.594279,0 -0.878499,0.163642 -0.284221,0.163643 -0.284221,0.508152 0,0.258382 0.189481,0.404799 0.193786,0.14211 0.697632,0.245463 l 0.706244,0.14211 q 1.072286,0.215319 1.524455,0.654568 0.452169,0.43925 0.452169,1.248847 0,1.063674 -0.633037,1.584744 -0.62873,0.516765 -1.924947,0.516765 -0.611504,0 -1.227315,-0.116272 -0.615811,-0.116272 -1.231622,-0.34451 v -1.39957 q 0.615811,0.327284 1.188558,0.495233 0.577054,0.163642 1.111044,0.163642 0.542602,0 0.831129,-0.180868 0.288527,-0.180867 0.288527,-0.516764 0,-0.301446 -0.198093,-0.465088 -0.193787,-0.163642 -0.779453,-0.292833 l -0.641649,-0.14211 q -0.964627,-0.206706 -1.412489,-0.658875 -0.443557,-0.452169 -0.443557,-1.218703 0,-0.96032 0.620118,-1.477084 0.620117,-0.516765 1.782837,-0.516765 0.529683,0 1.089511,0.08182 0.559828,0.07751 1.158414,0.236852 z m -10.503238,-0.2024 h 4.474318 v 1.253154 h -2.816365 v 1.197171 h 2.648417 v 1.253153 h -2.648417 v 1.472778 h 2.911105 v 1.253154 h -4.569058 z m -6.778225,0 h 5.925564 v 1.253154 h -2.131653 v 5.176256 h -1.657952 v -5.176256 h -2.135959 z m -6.399265,0 h 1.657952 v 3.854201 q 0,0.796678 0.258383,1.141188 0.262688,0.340203 0.852661,0.340203 0.594279,0 0.852661,-0.340203 0.262688,-0.34451 0.262688,-1.141188 v -3.854201 h 1.657953 v 3.854201 q 0,1.365119 -0.684713,2.032606 -0.684713,0.667488 -2.088589,0.667488 -1.39957,0 -2.084283,-0.667488 -0.684713,-0.667487 -0.684713,-2.032606 z m -7.389728,0 h 1.851739 l 2.338358,4.409723 v -4.409723 h 1.571825 v 6.42941 h -1.851739 l -2.338359,-4.409722 v 4.409722 h -1.571824 z m -3.290066,0 h 1.657952 v 6.42941 h -1.657952 z m -8.784996,0 h 2.110121 l 1.464166,3.44079 1.472778,-3.44079 h 2.105815 v 6.42941 h -1.567519 v -4.702556 l -1.481391,3.466628 h -1.050754 l -1.481391,-3.466628 v 4.702556 h -1.571825 z m -9.095053,0 h 4.474318 v 1.253154 H 27.20751 v 1.197171 h 2.648418 v 1.253153 H 27.20751 v 1.472778 h 2.911106 v 1.253154 h -4.569058 z m -7.587823,0 H 19.6283 l 1.705323,4.745619 1.701016,-4.745619 h 1.666565 l -2.381423,6.42941 h -1.976623 z m -2.523532,0 h 1.657953 v 6.42941 h -1.657953 z m -6.028917,0 h 4.474318 v 1.253154 h -2.816366 v 1.197171 h 2.648417 v 1.253153 h -2.648417 v 2.725932 H 9.409286 Z m 85.197215,-9.574756 h 1.812981 l 1.464166,2.290988 1.464165,-2.290988 h 1.817287 l -2.450323,3.720703 v 2.708706 H 97.056825 V 43.80228 Z m -5.882498,0 h 5.925565 v 1.253153 h -2.131653 v 5.176256 H 90.859963 V 41.33473 h -2.13596 z m -6.623198,0 h 1.851739 l 2.338358,4.409722 v -4.409722 h 1.571825 v 6.429409 H 86.010988 L 83.67263,42.101264 v 4.409722 h -1.571825 z m -6.028916,0 h 4.474318 v 1.253153 h -2.816365 v 1.197171 h 2.648417 v 1.253153 h -2.648417 v 1.472779 h 2.911105 v 1.253153 h -4.569058 z m -10.279308,0 h 1.589051 l 1.111043,4.672411 1.102431,-4.672411 h 1.597663 l 1.10243,4.672411 1.111044,-4.672411 h 1.576131 l -1.515842,6.429409 h -1.912028 l -1.167026,-4.887729 -1.154107,4.887729 h -1.912028 z m -6.231316,0 h 5.925564 v 1.253153 h -2.131653 v 5.176256 H 61.697224 V 41.33473 h -2.135959 z m -6.730853,2.850816 q 0.521071,0 0.745002,-0.193786 0.228238,-0.193787 0.228238,-0.637343 0,-0.43925 -0.228238,-0.62873 -0.223931,-0.18948 -0.745002,-0.18948 H 52.13278 v 1.649339 z m -0.697632,1.145495 v 2.433098 h -1.657952 v -6.429409 h 2.532145 q 1.270379,0 1.860352,0.42633 0.594279,0.426331 0.594279,1.347894 0,0.637343 -0.310059,1.046448 -0.305752,0.409105 -0.925869,0.602891 0.340203,0.07752 0.607198,0.353123 0.271301,0.271301 0.546909,0.826823 l 0.900031,1.8259 H 54.514203 L 53.730444,44.913323 Q 53.493593,44.43101 53.24813,44.254449 53.006973,44.077888 52.602175,44.077888 Z m -7.686871,-3.996311 h 4.474318 v 1.253153 h -2.816366 v 1.197171 h 2.648417 v 1.253153 h -2.648417 v 1.472779 h 2.911106 v 1.253153 h -4.569058 z m -6.778226,0 h 5.925565 v 1.253153 h -2.131653 v 5.176256 H 39.803642 V 41.33473 h -2.135959 z m -3.268534,2.850816 q 0.521071,0 0.745002,-0.193786 0.228238,-0.193787 0.228238,-0.637343 0,-0.43925 -0.228238,-0.62873 -0.223931,-0.18948 -0.745002,-0.18948 h -0.697632 v 1.649339 z m -0.697632,1.145495 v 2.433098 h -1.657952 v -6.429409 h 2.532145 q 1.270379,0 1.860352,0.42633 0.594279,0.426331 0.594279,1.347894 0,0.637343 -0.310059,1.046448 -0.305752,0.409105 -0.925869,0.602891 0.340203,0.07752 0.607198,0.353123 0.271301,0.271301 0.546909,0.826823 l 0.900031,1.8259 H 36.08294 L 35.299181,44.913323 Q 35.06233,44.43101 34.816867,44.254449 34.57571,44.077888 34.170912,44.077888 Z m -4.57767,1.261766 h -2.592435 l -0.409105,1.171332 h -1.666565 l 2.381423,-6.429409 h 1.976623 l 2.381423,6.429409 h -1.666565 z m -2.179023,-1.192865 h 1.761305 L 27.82763,41.588806 Z m -8.612739,-4.065212 h 1.657952 v 3.8542 q 0,0.796679 0.258383,1.141188 0.262688,0.340203 0.852661,0.340203 0.594279,0 0.852661,-0.340203 0.262688,-0.344509 0.262688,-1.141188 v -3.8542 h 1.657953 v 3.8542 q 0,1.36512 -0.684713,2.032607 -0.684713,0.667487 -2.088589,0.667487 -1.39957,0 -2.084283,-0.667487 -0.684713,-0.667487 -0.684713,-2.032607 z m -4.379578,6.545681 h -0.129191 q -1.58905,0 -2.471856,-0.878499 -0.882806,-0.878499 -0.882806,-2.446018 0,-1.563212 0.8785,-2.450324 0.882805,-0.887112 2.428792,-0.887112 1.563212,0 2.433099,0.878499 0.874193,0.878499 0.874193,2.458937 0,1.085205 -0.465088,1.868964 -0.460782,0.78376 -1.330668,1.179946 l 1.296217,1.44694 h -1.580438 z m -0.176561,-5.460476 q -0.757921,0 -1.175639,0.559828 -0.417718,0.559828 -0.417718,1.576131 0,1.033529 0.409105,1.584744 0.409106,0.546909 1.184252,0.546909 0.762227,0 1.179945,-0.559828 0.417718,-0.559828 0.417718,-1.571825 0,-1.016303 -0.417718,-1.576131 -0.417718,-0.559828 -1.179945,-0.559828 z m 72.181209,-9.497235 h 1.851737 l 2.338358,4.409723 v -4.409723 h 1.571827 v 6.429409 h -1.85174 l -2.338358,-4.40972 v 4.40972 h -1.571824 z m -6.028917,0 h 4.474318 v 1.253154 h -2.816365 v 1.19717 h 2.648416 v 1.253154 h -2.648416 v 1.47278 h 2.911105 v 1.253151 h -4.569058 z m -6.778225,0 h 5.925563 v 1.253154 h -2.131653 v 5.176255 H 75.28597 v -5.176255 h -2.135957 z m -8.328515,0 h 4.474316 v 1.253154 h -2.816365 v 1.19717 h 2.648418 v 1.253154 h -2.648418 v 2.725931 h -1.657951 z m -5.615508,0 h 1.657953 v 5.176258 h 2.911104 v 1.253151 H 59.20599 Z m -2.919717,5.258077 h -2.592435 l -0.409104,1.171332 h -1.666566 l 2.381422,-6.429409 h 1.976626 l 2.381421,6.429409 h -1.666565 z m -2.179024,-1.192863 h 1.761305 l -0.878499,-2.557984 z m -9.112276,-4.065214 h 1.657953 v 2.450324 h 2.446017 v -2.450324 h 1.657951 v 6.429409 h -1.657951 v -2.725931 h -2.446017 v 2.725931 h -1.657953 z m -4.948018,0.202401 v 1.360813 q -0.529683,-0.23685 -1.033529,-0.357429 -0.503846,-0.120578 -0.951709,-0.120578 -0.594278,0 -0.878498,0.163642 -0.284221,0.163642 -0.284221,0.508151 0,0.258381 0.189481,0.404799 0.193787,0.14211 0.697633,0.245462 l 0.706244,0.14211 q 1.072285,0.215318 1.524455,0.654569 0.452168,0.43925 0.452168,1.248846 0,1.063673 -0.633037,1.584743 -0.62873,0.516766 -1.924947,0.516766 -0.611502,0 -1.227315,-0.116271 -0.61581,-0.116274 -1.231622,-0.344511 v -1.39957 q 0.615812,0.327285 1.188559,0.495232 0.577053,0.163642 1.111043,0.163642 0.542602,0 0.83113,-0.180867 0.288526,-0.180866 0.288526,-0.516765 0,-0.301445 -0.198094,-0.465088 -0.193786,-0.163642 -0.779451,-0.292832 l -0.641649,-0.142111 q -0.964626,-0.206706 -1.412489,-0.658873 -0.443556,-0.45217 -0.443556,-1.218703 0,-0.960321 0.620118,-1.477084 0.620117,-0.516765 1.782836,-0.516765 0.529683,0 1.089509,0.08182 0.55983,0.07751 1.158415,0.23685 z m -7.764384,-0.202401 h 1.657952 v 6.429409 h -1.657952 z m -9.84436,0 h 5.925564 v 1.253154 h -2.131653 v 5.176255 H 24.57417 v -5.176255 h -2.135959 z m -2.523532,0 h 1.657952 v 6.429409 h -1.657952 z"
         inkscape:connector-curvature="0" />
    </g>
    <g
       id="g1998"
       style="display:inline">
      <g
         id="g1990"
         transform="translate(-0.10926914)">
        <rect
           ry="0"
           rx="0"
           y="28.644466"
           x="11.999654"
           height="1.5475396"
           width="11.54754"
           id="rect1986"
           style="fill:#000000;fill-opacity:1;stroke:none;stroke-width:0.45246041;stroke-miterlimit:4;stroke-dasharray:none;stroke-opacity:1" />
        <rect
           style="fill:#000000;fill-opacity:1;stroke:none;stroke-width:0.45246041;stroke-miterlimit:4;stroke-dasharray:none;stroke-opacity:1"
           id="rect1988"
           width="11.54754"
           height="1.5475396"
           x="88.305107"
           y="28.644466"
           rx="0"
           ry="0" />
      </g>
      <g
         id="g1996"
         transform="translate(-0.10926914,71.494597)">
        <rect
           style="fill:#000000;fill-opacity:1;stroke:none;stroke-width:0.45246041;stroke-miterlimit:4;stroke-dasharray:none;stroke-opacity:1"
           id="rect1992"
           width="11.54754"
           height="1.5475396"
           x="11.999654"
           y="28.644466"
           rx="0"
           ry="0" />
        <rect
           ry="0"
           rx="0"
           y="28.644466"
           x="88.305107"
           height="1.5475396"
           width="11.54754"
           id="rect1994"
           style="fill:#000000;fill-opacity:1;stroke:none;stroke-width:0.45246041;stroke-miterlimit:4;stroke-dasharray:none;stroke-opacity:1" />
      </g>
    </g>
  </g>
  <g
     id="g836"
     inkscape:groupmode="layer"
     inkscape:label="F.Silk">
    <g
       id="g1129"
       style="display:inline;font-style:normal;font-weight:normal;font-size:10.58333302px;line-height:1.25;font-family:sans-serif;letter-spacing:0px;word-spacing:0px;fill:#000000;fill-opacity:1;stroke:none;stroke-width:0.26458332"
       aria-label="TWELVE O'CLOCK">
      <path
         d="m 92.07866,91.475345 h 1.657953 v 2.346971 l 2.390035,-2.346971 h 1.924947 l -3.09628,3.044603 3.414951,3.384807 h -2.07567 l -2.557983,-2.532146 v 2.532146 H 92.07866 Z m -1.378034,6.076287 q -0.456475,0.236851 -0.951708,0.357429 -0.495232,0.120578 -1.033529,0.120578 -1.606275,0 -2.545064,-0.895724 -0.938788,-0.900032 -0.938788,-2.437406 0,-1.54168 0.938788,-2.437405 0.938789,-0.900031 2.545064,-0.900031 0.538297,0 1.033529,0.120578 0.495233,0.120579 0.951708,0.357429 v 1.330668 q -0.460782,-0.314365 -0.908644,-0.460781 -0.447863,-0.146417 -0.943095,-0.146417 -0.887112,0 -1.395264,0.568441 -0.508151,0.568441 -0.508151,1.567518 0,0.994772 0.508151,1.563213 0.508152,0.56844 1.395264,0.56844 0.495232,0 0.943095,-0.146416 0.447862,-0.146417 0.908644,-0.460782 z M 81.045748,92.56055 q -0.757921,0 -1.175639,0.559828 -0.417718,0.559828 -0.417718,1.576131 0,1.011997 0.417718,1.571825 0.417718,0.559828 1.175639,0.559828 0.762228,0 1.179945,-0.559828 0.417718,-0.559828 0.417718,-1.571825 0,-1.016303 -0.417718,-1.576131 -0.417717,-0.559828 -1.179945,-0.559828 z m 0,-1.201477 q 1.550293,0 2.428793,0.887112 0.878499,0.887112 0.878499,2.450324 0,1.558906 -0.878499,2.446018 -0.8785,0.887112 -2.428793,0.887112 -1.545986,0 -2.428792,-0.887112 -0.8785,-0.887112 -0.8785,-2.446018 0,-1.563212 0.8785,-2.450324 0.882806,-0.887112 2.428792,-0.887112 z m -8.242394,0.116272 h 1.657952 v 5.176256 h 2.911106 v 1.253154 h -4.569058 z m -1.378039,6.076287 q -0.456475,0.236851 -0.951707,0.357429 -0.495233,0.120578 -1.033529,0.120578 -1.606276,0 -2.545064,-0.895724 -0.938789,-0.900032 -0.938789,-2.437406 0,-1.54168 0.938789,-2.437405 0.938788,-0.900031 2.545064,-0.900031 0.538296,0 1.033529,0.120578 0.495232,0.120579 0.951707,0.357429 v 1.330668 q -0.460781,-0.314365 -0.908644,-0.460781 -0.447862,-0.146417 -0.943095,-0.146417 -0.887112,0 -1.395263,0.568441 -0.508152,0.568441 -0.508152,1.567518 0,0.994772 0.508152,1.563213 0.508151,0.56844 1.395263,0.56844 0.495233,0 0.943095,-0.146416 0.447863,-0.146417 0.908644,-0.460782 z m -6.752386,-6.076287 v 2.390035 h -1.02061 v -2.390035 z m -5.606894,1.085205 q -0.757921,0 -1.175639,0.559828 -0.417718,0.559828 -0.417718,1.576131 0,1.011997 0.417718,1.571825 0.417718,0.559828 1.175639,0.559828 0.762227,0 1.179945,-0.559828 0.417718,-0.559828 0.417718,-1.571825 0,-1.016303 -0.417718,-1.576131 -0.417718,-0.559828 -1.179945,-0.559828 z m 0,-1.201477 q 1.550293,0 2.428792,0.887112 0.878499,0.887112 0.878499,2.450324 0,1.558906 -0.878499,2.446018 -0.878499,0.887112 -2.428792,0.887112 -1.545987,0 -2.428793,-0.887112 -0.878499,-0.887112 -0.878499,-2.446018 0,-1.563212 0.878499,-2.450324 0.882806,-0.887112 2.428793,-0.887112 z M 47.03404,91.475345 h 4.474318 v 1.253154 h -2.816366 v 1.19717 h 2.648417 v 1.253154 h -2.648417 v 1.472778 h 2.911106 v 1.253154 H 47.03404 Z m -7.587825,0 h 1.666565 l 1.705322,4.745619 1.701016,-4.745619 h 1.666565 l -2.381422,6.42941 h -1.976623 z m -3.643187,0 h 1.657952 v 5.176256 h 2.911106 v 1.253154 h -4.569058 z m -6.028918,0 h 4.474318 v 1.253154 h -2.816365 v 1.19717 h 2.648417 v 1.253154 h -2.648417 v 1.472778 h 2.911105 v 1.253154 H 29.77411 Z m -10.279304,0 h 1.58905 l 1.111043,4.672411 1.102431,-4.672411 h 1.597663 l 1.102431,4.672411 1.111043,-4.672411 h 1.576131 l -1.515842,6.42941 h -1.912028 l -1.167026,-4.88773 -1.154107,4.88773 h -1.912028 z m -6.231317,0 h 5.925565 v 1.253154 h -2.131653 v 5.176256 h -1.657952 v -5.176256 h -2.13596 z m 79.764729,-8.287147 h 1.851739 l 2.338358,4.409722 v -4.409722 h 1.571825 v 6.429409 h -1.851739 l -2.338358,-4.409722 v 4.409722 h -1.571825 z m -6.028916,0 h 4.474318 v 1.253153 h -2.816365 v 1.197171 h 2.648417 v 1.253153 h -2.648417 v 1.472779 h 2.911105 v 1.253153 h -4.569058 z m -7.587822,0 h 1.666565 l 1.705322,4.745619 1.701016,-4.745619 h 1.666565 l -2.381423,6.429409 h -1.976623 z m -5.262386,0 h 4.474318 v 1.253153 h -2.816366 v 1.197171 h 2.648418 v 1.253153 h -2.648418 v 1.472779 h 2.911106 v 1.253153 h -4.569058 z m -5.615505,0 h 1.657952 v 5.176256 h 2.911106 v 1.253153 h -4.569058 z m -6.028919,0 h 4.474318 v 1.253153 h -2.816366 v 1.197171 h 2.648417 v 1.253153 h -2.648417 v 1.472779 h 2.911106 v 1.253153 H 62.50467 Z m -10.455864,0 h 1.851739 l 2.338358,4.409722 v -4.409722 h 1.571825 v 6.429409 h -1.851739 l -2.338358,-4.409722 v 4.409722 h -1.571825 z m -6.02892,0 h 4.474318 v 1.253153 h -2.816365 v 1.197171 h 2.648417 v 1.253153 h -2.648417 v 1.472779 h 2.911105 v 1.253153 h -4.569058 z m -6.778223,0 h 5.925564 v 1.253153 h -2.131653 v 5.176256 h -1.657952 v -5.176256 h -2.135959 z m -8.328519,0 h 4.474317 v 1.253153 h -2.816365 v 1.197171 h 2.648417 v 1.253153 h -2.648417 v 1.472779 h 2.911106 v 1.253153 h -4.569058 z m -7.389731,0 h 1.851739 l 2.338359,4.409722 v -4.409722 h 1.571824 v 6.429409 h -1.851738 l -2.338359,-4.409722 v 4.409722 h -1.571825 z m -3.290066,0 h 1.657952 v 6.429409 h -1.657952 z m -7.38973,0 h 1.851739 l 2.338358,4.409722 v -4.409722 h 1.571825 v 6.429409 H 16.7538 l -2.338358,-4.409722 v 4.409722 h -1.571825 z m 79.291027,-8.295762 h 5.925564 v 1.253154 h -2.131652 v 5.176256 H 94.270603 V 76.14559 h -2.135959 z m -6.623199,0 h 1.657953 v 2.450325 h 2.446018 v -2.450325 h 1.657952 v 6.42941 h -1.657952 v -2.725932 h -2.446018 v 2.725932 h -1.657953 z m -1.455547,5.951403 q -0.620117,0.301446 -1.287605,0.452169 -0.667487,0.150723 -1.378038,0.150723 -1.606276,0 -2.545064,-0.895725 -0.938789,-0.900031 -0.938789,-2.437405 0,-1.5546 0.956014,-2.446018 0.956014,-0.891419 2.618273,-0.891419 0.641649,0 1.227315,0.120579 0.589973,0.120578 1.111044,0.357428 v 1.330669 q -0.538297,-0.305753 -1.072286,-0.456476 -0.529684,-0.150722 -1.063674,-0.150722 -0.990465,0 -1.528761,0.555521 -0.53399,0.551215 -0.53399,1.580438 0,1.020609 0.516765,1.576131 0.516764,0.555522 1.468472,0.555522 0.258382,0 0.478007,-0.03015 0.223931,-0.03445 0.400492,-0.103353 v -1.248847 h -1.011997 v -1.111043 h 2.583822 z M 74.98668,74.892436 h 1.657953 v 6.42941 H 74.98668 Z m -6.028915,0 h 4.474318 v 1.253154 h -2.816366 v 1.197171 h 2.648418 v 1.253153 h -2.648418 v 1.472778 h 2.911106 v 1.253154 h -4.569058 z m -10.455864,0 h 1.851739 l 2.338359,4.409723 v -4.409723 h 1.571824 v 6.42941 h -1.851738 l -2.338359,-4.409722 v 4.409722 h -1.571825 z m -6.028919,0 H 56.9473 v 1.253154 h -2.816366 v 1.197171 h 2.648417 v 1.253153 h -2.648417 v 1.472778 h 2.911106 v 1.253154 h -4.569058 z m -7.587823,0 h 1.666565 l 1.705322,4.74562 1.701016,-4.74562 h 1.666565 l -2.381422,6.42941 h -1.976624 z m -5.262383,0 h 4.474317 v 1.253154 h -2.816365 v 1.197171 h 2.648417 v 1.253153 h -2.648417 v 1.472778 h 2.911106 v 1.253154 h -4.569058 z m -1.881884,0.2024 v 1.360813 q -0.529683,-0.236851 -1.033528,-0.357429 -0.503846,-0.120578 -0.951708,-0.120578 -0.594279,0 -0.878499,0.163642 -0.284221,0.163642 -0.284221,0.508151 0,0.258382 0.18948,0.404799 0.193787,0.14211 0.697632,0.245463 l 0.706245,0.14211 q 1.072286,0.215319 1.524455,0.654568 0.452168,0.43925 0.452168,1.248847 0,1.063674 -0.633036,1.584744 -0.62873,0.516765 -1.924947,0.516765 -0.611504,0 -1.227315,-0.116272 -0.615811,-0.116272 -1.231622,-0.34451 v -1.39957 q 0.615811,0.327284 1.188558,0.495233 0.577053,0.163642 1.111043,0.163642 0.542603,0 0.83113,-0.180868 0.288526,-0.180867 0.288526,-0.516764 0,-0.301446 -0.198093,-0.465088 -0.193786,-0.163642 -0.779453,-0.292833 l -0.641649,-0.14211 q -0.964626,-0.206706 -1.412489,-0.658875 -0.443556,-0.452169 -0.443556,-1.218703 0,-0.96032 0.620117,-1.477084 0.620118,-0.516765 1.782837,-0.516765 0.529684,0 1.089512,0.08182 0.559828,0.07752 1.158413,0.236851 z m -10.761617,2.945556 2.230699,3.281454 H 27.48312 l -1.502923,-2.196248 -1.490004,2.196248 h -1.735467 l 2.230699,-3.281454 -2.144572,-3.147956 h 1.731161 l 1.408183,2.071364 1.403876,-2.071364 h 1.739774 z m -6.872966,-3.147956 h 1.657953 v 6.42941 h -1.657953 z m -1.881883,0.2024 v 1.360813 q -0.529683,-0.236851 -1.033529,-0.357429 -0.503845,-0.120578 -0.951707,-0.120578 -0.594279,0 -0.8785,0.163642 -0.28422,0.163642 -0.28422,0.508151 0,0.258382 0.18948,0.404799 0.193787,0.14211 0.697632,0.245463 l 0.706245,0.14211 q 1.072286,0.215319 1.524454,0.654568 0.452169,0.43925 0.452169,1.248847 0,1.063674 -0.633036,1.584744 -0.62873,0.516765 -1.924947,0.516765 -0.611505,0 -1.227315,-0.116272 -0.615811,-0.116272 -1.231622,-0.34451 v -1.39957 q 0.615811,0.327284 1.188558,0.495233 0.577053,0.163642 1.111043,0.163642 0.542603,0 0.831129,-0.180868 0.288527,-0.180867 0.288527,-0.516764 0,-0.301446 -0.198093,-0.465088 -0.193786,-0.163642 -0.779453,-0.292833 l -0.641649,-0.14211 q -0.964626,-0.206706 -1.412489,-0.658875 -0.443556,-0.452169 -0.443556,-1.218703 0,-0.96032 0.620117,-1.477084 0.620117,-0.516765 1.782837,-0.516765 0.529684,0 1.089512,0.08182 0.559828,0.07752 1.158413,0.236851 z m 70.822552,-8.614433 h 4.474318 v 1.253154 h -2.816365 v 1.197171 h 2.648417 v 1.253153 h -2.648417 v 1.472778 h 2.911105 v 1.253154 h -4.569058 z m -7.587826,0 h 1.666565 l 1.705322,4.745619 1.701016,-4.745619 h 1.666565 l -2.381422,6.42941 h -1.976624 z m -2.523532,0 h 1.657952 v 6.42941 H 78.93562 Z m -6.028916,0 h 4.474318 v 1.253154 h -2.816365 v 1.197171 h 2.648417 v 1.253153 h -2.648417 v 2.725932 h -1.657953 z m -7.497389,2.850817 q 0.52107,0 0.745001,-0.193787 0.228238,-0.193786 0.228238,-0.637342 0,-0.43925 -0.228238,-0.62873 -0.223931,-0.189481 -0.745001,-0.189481 h -0.697632 v 1.64934 z m -0.697632,1.145494 v 2.433099 H 63.05373 v -6.42941 h 2.532146 q 1.270379,0 1.860351,0.426331 0.594279,0.42633 0.594279,1.347894 0,0.637342 -0.310058,1.046447 -0.305753,0.409105 -0.92587,0.602892 0.340203,0.07752 0.607198,0.353122 0.271302,0.271302 0.546909,0.826823 l 0.900031,1.825901 H 67.093105 L 66.309346,71.31215 q -0.236851,-0.482314 -0.482314,-0.658875 -0.241156,-0.176561 -0.645955,-0.176561 z m -8.823751,-3.996311 h 1.657953 v 3.854201 q 0,0.796678 0.258382,1.141188 0.262688,0.340203 0.852661,0.340203 0.594279,0 0.852661,-0.340203 0.262689,-0.34451 0.262689,-1.141188 v -3.854201 h 1.657952 v 3.854201 q 0,1.365119 -0.684713,2.032606 -0.684713,0.667488 -2.088589,0.667488 -1.39957,0 -2.084283,-0.667488 -0.684713,-0.667487 -0.684713,-2.032606 z m -4.55614,1.085205 q -0.757921,0 -1.175639,0.559828 -0.417717,0.559828 -0.417717,1.576132 0,1.011997 0.417717,1.571825 0.417718,0.559828 1.175639,0.559828 0.762228,0 1.179946,-0.559828 0.417717,-0.559828 0.417717,-1.571825 0,-1.016304 -0.417717,-1.576132 -0.417718,-0.559828 -1.179946,-0.559828 z m 0,-1.201477 q 1.550293,0 2.428793,0.887112 0.878499,0.887113 0.878499,2.450325 0,1.558905 -0.878499,2.446018 -0.8785,0.887112 -2.428793,0.887112 -1.545986,0 -2.428792,-0.887112 -0.878499,-0.887113 -0.878499,-2.446018 0,-1.563212 0.878499,-2.450325 0.882806,-0.887112 2.428792,-0.887112 z m -8.965861,0.116272 h 4.474318 v 1.253154 h -2.816366 v 1.197171 H 46.6723 v 1.253153 h -2.648417 v 2.725932 h -1.657952 z m -9.095053,0 h 4.474318 v 1.253154 h -2.816365 v 1.197171 h 2.648417 v 1.253153 h -2.648417 v 1.472778 h 2.911105 v 1.253154 h -4.569058 z m -7.389729,0 h 1.851739 l 2.338358,4.409723 v -4.409723 h 1.571825 v 6.42941 h -1.851739 l -2.338358,-4.409722 v 4.409722 h -1.571825 z m -4.556139,1.085205 q -0.757921,0 -1.175639,0.559828 -0.417718,0.559828 -0.417718,1.576132 0,1.011997 0.417718,1.571825 0.417718,0.559828 1.175639,0.559828 0.762227,0 1.179945,-0.559828 0.417718,-0.559828 0.417718,-1.571825 0,-1.016304 -0.417718,-1.576132 -0.417718,-0.559828 -1.179945,-0.559828 z m 0,-1.201477 q 1.550293,0 2.428792,0.887112 0.8785,0.887113 0.8785,2.450325 0,1.558905 -0.8785,2.446018 -0.878499,0.887112 -2.428792,0.887112 -1.545987,0 -2.428793,-0.887112 -0.878499,-0.887113 -0.878499,-2.446018 0,-1.563212 0.878499,-2.450325 0.882806,-0.887112 2.428793,-0.887112 z M 93.745226,58.06837 h 4.474318 v 1.253154 h -2.816365 v 1.19717 h 2.648417 v 1.253154 h -2.648417 v 1.472778 h 2.911105 v 1.253154 h -4.569058 z m -6.028923,0 h 4.474318 v 1.253154 h -2.816365 v 1.19717 h 2.648417 v 1.253154 h -2.648417 v 1.472778 h 2.911105 v 1.253154 h -4.569058 z m -4.43125,2.850817 q 0.52107,0 0.745002,-0.193787 0.228237,-0.193786 0.228237,-0.637342 0,-0.43925 -0.228237,-0.62873 -0.223932,-0.189481 -0.745002,-0.189481 h -0.697632 v 1.64934 z m -0.697632,1.145494 v 2.433099 h -1.657952 v -6.42941 h 2.532145 q 1.270379,0 1.860351,0.426331 0.594279,0.42633 0.594279,1.347893 0,0.637343 -0.310058,1.046448 -0.305752,0.409105 -0.92587,0.602892 0.340204,0.07751 0.607198,0.353122 0.271302,0.271302 0.546909,0.826823 l 0.900032,1.825901 h -1.765612 l -0.783759,-1.597663 q -0.23685,-0.482314 -0.482313,-0.658875 -0.241157,-0.176561 -0.645956,-0.176561 z M 73.539736,58.06837 h 1.657952 v 2.450324 h 2.446018 V 58.06837 h 1.657953 v 6.42941 h -1.657953 v -2.725932 h -2.446018 v 2.725932 h -1.657952 z m -6.778222,0 h 5.925565 v 1.253154 h -2.131653 v 5.176256 h -1.657953 v -5.176256 h -2.135959 z m -6.855741,1.085205 q -0.757921,0 -1.175639,0.559828 -0.417718,0.559828 -0.417718,1.576132 0,1.011996 0.417718,1.571824 0.417718,0.559828 1.175639,0.559828 0.762227,0 1.179945,-0.559828 0.417718,-0.559828 0.417718,-1.571824 0,-1.016304 -0.417718,-1.576132 Q 60.668,59.153575 59.905773,59.153575 Z m 0,-1.201477 q 1.550293,0 2.428792,0.887112 0.878499,0.887112 0.878499,2.450325 0,1.558905 -0.878499,2.446017 -0.878499,0.887113 -2.428792,0.887113 -1.545987,0 -2.428793,-0.887113 -0.878499,-0.887112 -0.878499,-2.446017 0,-1.563213 0.878499,-2.450325 0.882806,-0.887112 2.428793,-0.887112 z M 46.689525,58.06837 h 1.58905 l 1.111043,4.672411 1.102431,-4.672411 h 1.597663 l 1.10243,4.672411 1.111044,-4.672411 h 1.576131 l -1.515842,6.42941 h -1.912028 l -1.167026,-4.887729 -1.154107,4.887729 h -1.912028 z m -6.231317,0 h 5.925564 v 1.253154 h -2.131653 v 5.176256 h -1.657952 v -5.176256 h -2.135959 z m -9.077828,0 h 5.925565 v 1.253154 H 35.174292 V 64.49778 H 33.516339 V 59.321524 H 31.38038 Z m -1.115348,0.2024 v 1.360812 q -0.529684,-0.23685 -1.033529,-0.357428 -0.503845,-0.120579 -0.951708,-0.120579 -0.594279,0 -0.878499,0.163642 -0.28422,0.163642 -0.28422,0.508152 0,0.258382 0.18948,0.404799 0.193786,0.14211 0.697632,0.245463 l 0.706244,0.14211 q 1.072286,0.215318 1.524455,0.654568 0.452169,0.43925 0.452169,1.248847 0,1.063674 -0.633036,1.584744 -0.62873,0.516765 -1.924948,0.516765 -0.611504,0 -1.227315,-0.116272 -0.615811,-0.116272 -1.231622,-0.34451 v -1.39957 q 0.615811,0.327284 1.188558,0.495232 0.577054,0.163642 1.111044,0.163642 0.542602,0 0.831129,-0.180867 0.288527,-0.180868 0.288527,-0.516764 0,-0.301446 -0.198093,-0.465088 -0.193787,-0.163642 -0.779453,-0.292833 l -0.641649,-0.142111 q -0.964627,-0.206705 -1.412489,-0.658874 -0.443556,-0.452169 -0.443556,-1.218703 0,-0.96032 0.620117,-1.477084 0.620117,-0.516765 1.782837,-0.516765 0.529683,0 1.089511,0.08182 0.559828,0.07752 1.158414,0.236852 z m -7.394037,5.055677 h -2.592434 l -0.409105,1.171333 h -1.666565 l 2.381422,-6.42941 h 1.976624 l 2.381422,6.42941 h -1.666565 z m -2.179023,-1.192864 h 1.761306 L 21.574778,59.5756 Z M 13.319468,58.06837 h 2.75177 q 1.227315,0 1.881884,0.546909 0.658874,0.542603 0.658874,1.550293 0,1.011997 -0.658874,1.558906 -0.654569,0.542602 -1.881884,0.542602 H 14.97742 v 2.2307 h -1.657952 z m 1.657952,1.201477 v 1.795756 h 0.917257 q 0.482313,0 0.745002,-0.232544 0.262688,-0.23685 0.262688,-0.667487 0,-0.430637 -0.262688,-0.663181 -0.262689,-0.232544 -0.745002,-0.232544 z m 82.67799,-9.613514 h 1.657952 v 5.176256 h 2.911108 v 1.253154 h -4.56906 z m -5.615509,0 h 1.657952 v 5.176256 h 2.911106 v 1.253154 h -4.569058 z m -3.290062,0 h 1.657953 v 6.42941 h -1.657953 z m -6.778229,0 h 5.925564 v 1.253154 h -2.131653 v 5.176256 H 84.107569 V 50.909487 H 81.97161 Z m -4.181481,0.2024 v 1.360812 q -0.529684,-0.23685 -1.033529,-0.357428 -0.503845,-0.120579 -0.951708,-0.120579 -0.594279,0 -0.878499,0.163642 -0.284221,0.163643 -0.284221,0.508152 0,0.258382 0.189481,0.404799 0.193786,0.14211 0.697632,0.245463 l 0.706244,0.14211 q 1.072286,0.215319 1.524455,0.654568 0.452169,0.43925 0.452169,1.248847 0,1.063674 -0.633037,1.584744 -0.62873,0.516765 -1.924947,0.516765 -0.611504,0 -1.227315,-0.116272 -0.615811,-0.116272 -1.231622,-0.34451 v -1.39957 q 0.615811,0.327284 1.188558,0.495233 0.577054,0.163642 1.111044,0.163642 0.542602,0 0.831129,-0.180868 0.288527,-0.180867 0.288527,-0.516764 0,-0.301446 -0.198093,-0.465088 -0.193787,-0.163642 -0.779453,-0.292833 l -0.641649,-0.14211 q -0.964627,-0.206706 -1.412489,-0.658875 -0.443557,-0.452169 -0.443557,-1.218703 0,-0.96032 0.620118,-1.477084 0.620117,-0.516765 1.782837,-0.516765 0.529683,0 1.089511,0.08182 0.559828,0.07751 1.158414,0.236852 z m -10.503238,-0.2024 h 4.474318 v 1.253154 h -2.816365 v 1.197171 h 2.648417 v 1.253153 h -2.648417 v 1.472778 h 2.911105 v 1.253154 h -4.569058 z m -6.778225,0 h 5.925564 v 1.253154 h -2.131653 v 5.176256 h -1.657952 v -5.176256 h -2.135959 z m -6.399265,0 h 1.657952 v 3.854201 q 0,0.796678 0.258383,1.141188 0.262688,0.340203 0.852661,0.340203 0.594279,0 0.852661,-0.340203 0.262688,-0.34451 0.262688,-1.141188 v -3.854201 h 1.657953 v 3.854201 q 0,1.365119 -0.684713,2.032606 -0.684713,0.667488 -2.088589,0.667488 -1.39957,0 -2.084283,-0.667488 -0.684713,-0.667487 -0.684713,-2.032606 z m -7.389728,0 h 1.851739 l 2.338358,4.409723 v -4.409723 h 1.571825 v 6.42941 h -1.851739 l -2.338359,-4.409722 v 4.409722 h -1.571824 z m -3.290066,0 h 1.657952 v 6.42941 h -1.657952 z m -8.784996,0 h 2.110121 l 1.464166,3.44079 1.472778,-3.44079 h 2.105815 v 6.42941 h -1.567519 v -4.702556 l -1.481391,3.466628 h -1.050754 l -1.481391,-3.466628 v 4.702556 h -1.571825 z m -9.095053,0 h 4.474318 v 1.253154 H 27.20751 v 1.197171 h 2.648418 v 1.253153 H 27.20751 v 1.472778 h 2.911106 v 1.253154 h -4.569058 z m -7.587823,0 H 19.6283 l 1.705323,4.745619 1.701016,-4.745619 h 1.666565 l -2.381423,6.42941 h -1.976623 z m -2.523532,0 h 1.657953 v 6.42941 h -1.657953 z m -6.028917,0 h 4.474318 v 1.253154 h -2.816366 v 1.197171 h 2.648417 v 1.253153 h -2.648417 v 2.725932 H 9.409286 Z m 85.197215,-9.574756 h 1.812981 l 1.464166,2.290988 1.464165,-2.290988 h 1.817287 l -2.450323,3.720703 v 2.708706 H 97.056825 V 43.80228 Z m -5.882498,0 h 5.925565 v 1.253153 h -2.131653 v 5.176256 H 90.859963 V 41.33473 h -2.13596 z m -6.623198,0 h 1.851739 l 2.338358,4.409722 v -4.409722 h 1.571825 v 6.429409 H 86.010988 L 83.67263,42.101264 v 4.409722 h -1.571825 z m -6.028916,0 h 4.474318 v 1.253153 h -2.816365 v 1.197171 h 2.648417 v 1.253153 h -2.648417 v 1.472779 h 2.911105 v 1.253153 h -4.569058 z m -10.279308,0 h 1.589051 l 1.111043,4.672411 1.102431,-4.672411 h 1.597663 l 1.10243,4.672411 1.111044,-4.672411 h 1.576131 l -1.515842,6.429409 h -1.912028 l -1.167026,-4.887729 -1.154107,4.887729 h -1.912028 z m -6.231316,0 h 5.925564 v 1.253153 h -2.131653 v 5.176256 H 61.697224 V 41.33473 h -2.135959 z m -6.730853,2.850816 q 0.521071,0 0.745002,-0.193786 0.228238,-0.193787 0.228238,-0.637343 0,-0.43925 -0.228238,-0.62873 -0.223931,-0.18948 -0.745002,-0.18948 H 52.13278 v 1.649339 z m -0.697632,1.145495 v 2.433098 h -1.657952 v -6.429409 h 2.532145 q 1.270379,0 1.860352,0.42633 0.594279,0.426331 0.594279,1.347894 0,0.637343 -0.310059,1.046448 -0.305752,0.409105 -0.925869,0.602891 0.340203,0.07752 0.607198,0.353123 0.271301,0.271301 0.546909,0.826823 l 0.900031,1.8259 H 54.514203 L 53.730444,44.913323 Q 53.493593,44.43101 53.24813,44.254449 53.006973,44.077888 52.602175,44.077888 Z m -7.686871,-3.996311 h 4.474318 v 1.253153 h -2.816366 v 1.197171 h 2.648417 v 1.253153 h -2.648417 v 1.472779 h 2.911106 v 1.253153 h -4.569058 z m -6.778226,0 h 5.925565 v 1.253153 h -2.131653 v 5.176256 H 39.803642 V 41.33473 h -2.135959 z m -3.268534,2.850816 q 0.521071,0 0.745002,-0.193786 0.228238,-0.193787 0.228238,-0.637343 0,-0.43925 -0.228238,-0.62873 -0.223931,-0.18948 -0.745002,-0.18948 h -0.697632 v 1.649339 z m -0.697632,1.145495 v 2.433098 h -1.657952 v -6.429409 h 2.532145 q 1.270379,0 1.860352,0.42633 0.594279,0.426331 0.594279,1.347894 0,0.637343 -0.310059,1.046448 -0.305752,0.409105 -0.925869,0.602891 0.340203,0.07752 0.607198,0.353123 0.271301,0.271301 0.546909,0.826823 l 0.900031,1.8259 H 36.08294 L 35.299181,44.913323 Q 35.06233,44.43101 34.816867,44.254449 34.57571,44.077888 34.170912,44.077888 Z m -4.57767,1.261766 h -2.592435 l -0.409105,1.171332 h -1.666565 l 2.381423,-6.429409 h 1.976623 l 2.381423,6.429409 h -1.666565 z m -2.179023,-1.192865 h 1.761305 L 27.82763,41.588806 Z m -8.612739,-4.065212 h 1.657952 v 3.8542 q 0,0.796679 0.258383,1.141188 0.262688,0.340203 0.852661,0.340203 0.594279,0 0.852661,-0.340203 0.262688,-0.344509 0.262688,-1.141188 v -3.8542 h 1.657953 v 3.8542 q 0,1.36512 -0.684713,2.032607 -0.684713,0.667487 -2.088589,0.667487 -1.39957,0 -2.084283,-0.667487 -0.684713,-0.667487 -0.684713,-2.032607 z m -4.379578,6.545681 h -0.129191 q -1.58905,0 -2.471856,-0.878499 -0.882806,-0.878499 -0.882806,-2.446018 0,-1.563212 0.8785,-2.450324 0.882805,-0.887112 2.428792,-0.887112 1.563212,0 2.433099,0.878499 0.874193,0.878499 0.874193,2.458937 0,1.085205 -0.465088,1.868964 -0.460782,0.78376 -1.330668,1.179946 l 1.296217,1.44694 h -1.580438 z m -0.176561,-5.460476 q -0.757921,0 -1.175639,0.559828 -0.417718,0.559828 -0.417718,1.576131 0,1.033529 0.409105,1.584744 0.409106,0.546909 1.184252,0.546909 0.762227,0 1.179945,-0.559828 0.417718,-0.559828 0.417718,-1.571825 0,-1.016303 -0.417718,-1.576131 -0.417718,-0.559828 -1.179945,-0.559828 z m 72.181209,-9.497235 h 1.851737 l 2.338358,4.409723 v -4.409723 h 1.571827 v 6.429409 h -1.85174 l -2.338358,-4.40972 v 4.40972 h -1.571824 z m -6.028917,0 h 4.474318 v 1.253154 h -2.816365 v 1.19717 h 2.648416 v 1.253154 h -2.648416 v 1.47278 h 2.911105 v 1.253151 h -4.569058 z m -6.778225,0 h 5.925563 v 1.253154 h -2.131653 v 5.176255 H 75.28597 v -5.176255 h -2.135957 z m -8.328515,0 h 4.474316 v 1.253154 h -2.816365 v 1.19717 h 2.648418 v 1.253154 h -2.648418 v 2.725931 h -1.657951 z m -5.615508,0 h 1.657953 v 5.176258 h 2.911104 v 1.253151 H 59.20599 Z m -2.919717,5.258077 h -2.592435 l -0.409104,1.171332 h -1.666566 l 2.381422,-6.429409 h 1.976626 l 2.381421,6.429409 h -1.666565 z m -2.179024,-1.192863 h 1.761305 l -0.878499,-2.557984 z m -9.112276,-4.065214 h 1.657953 v 2.450324 h 2.446017 v -2.450324 h 1.657951 v 6.429409 h -1.657951 v -2.725931 h -2.446017 v 2.725931 h -1.657953 z m -4.948018,0.202401 v 1.360813 q -0.529683,-0.23685 -1.033529,-0.357429 -0.503846,-0.120578 -0.951709,-0.120578 -0.594278,0 -0.878498,0.163642 -0.284221,0.163642 -0.284221,0.508151 0,0.258381 0.189481,0.404799 0.193787,0.14211 0.697633,0.245462 l 0.706244,0.14211 q 1.072285,0.215318 1.524455,0.654569 0.452168,0.43925 0.452168,1.248846 0,1.063673 -0.633037,1.584743 -0.62873,0.516766 -1.924947,0.516766 -0.611502,0 -1.227315,-0.116271 -0.61581,-0.116274 -1.231622,-0.344511 v -1.39957 q 0.615812,0.327285 1.188559,0.495232 0.577053,0.163642 1.111043,0.163642 0.542602,0 0.83113,-0.180867 0.288526,-0.180866 0.288526,-0.516765 0,-0.301445 -0.198094,-0.465088 -0.193786,-0.163642 -0.779451,-0.292832 l -0.641649,-0.142111 q -0.964626,-0.206706 -1.412489,-0.658873 -0.443556,-0.45217 -0.443556,-1.218703 0,-0.960321 0.620118,-1.477084 0.620117,-0.516765 1.782836,-0.516765 0.529683,0 1.089509,0.08182 0.55983,0.07751 1.158415,0.23685 z m -7.764384,-0.202401 h 1.657952 v 6.429409 h -1.657952 z m -9.84436,0 h 5.925564 v 1.253154 h -2.131653 v 5.176255 H 24.57417 v -5.176255 h -2.135959 z m -2.523532,0 h 1.657952 v 6.429409 h -1.657952 z"
         style="font-style:normal;font-variant:normal;font-weight:bold;font-stretch:normal;font-size:8.81944466px;font-family:sans-serif;-inkscape-font-specification:'sans-serif, Bold';font-variant-ligatures:normal;font-variant-caps:normal;font-variant-numeric:normal;font-feature-settings:normal;text-align:start;writing-mode:lr-tb;text-anchor:start;stroke-width:0.26458332"
         id="path1127"
         inkscape:connector-curvature="0" />
    </g>
    <path
       style="color:#000000;font-style:normal;font-variant:normal;font-weight:normal;font-stretch:normal;font-size:medium;line-height:normal;font-family:sans-serif;font-variant-ligatures:normal;font-variant-position:normal;font-variant-caps:normal;font-variant-numeric:normal;font-variant-alternates:normal;font-feature-settings:normal;text-indent:0;text-align:start;text-decoration:none;text-decoration-line:none;text-decoration-style:solid;text-decoration-color:#000000;letter-spacing:normal;word-spacing:normal;text-transform:none;writing-mode:lr-tb;direction:ltr;text-orientation:mixed;dominant-baseline:auto;baseline-shift:baseline;text-anchor:start;white-space:normal;shape-padding:0;clip-rule:nonzero;display:inline;overflow:visible;visibility:visible;opacity:1;isolation:auto;mix-blend-mode:normal;color-interpolation:sRGB;color-interpolation-filters:linearRGB;solid-color:#000000;solid-opacity:1;vector-effect:none;fill:#000000;fill-opacity:1;fill-rule:nonzero;stroke:none;stroke-width:0.45681852;stroke-linecap:butt;stroke-linejoin:miter;stroke-miterlimit:4;stroke-dasharray:none;stroke-dashoffset:0;stroke-opacity:1;color-rendering:auto;image-rendering:auto;shape-rendering:auto;text-rendering:auto;enable-background:accumulate"
       d="m 13.947266,26.261719 c -4.2058651,0 -7.5996097,3.391792 -7.5996098,7.597656 v 62.449219 c 0,4.205856 3.3937447,7.597656 7.5996098,7.597656 H 97.6875 c 4.20586,0 7.59961,-3.3918 7.59961,-7.597656 V 33.859375 c 0,-4.205864 -3.39375,-7.597656 -7.59961,-7.597656 z m 0,0.455078 H 97.6875 c 3.96069,0 7.14258,3.18189 7.14258,7.142578 v 62.449219 c 0,3.960686 -3.18189,7.140626 -7.14258,7.140626 H 13.947266 c -3.9606893,0 -7.1425785,-3.17994 -7.1425785,-7.140626 V 33.859375 c 0,-3.960688 3.1818892,-7.142578 7.1425785,-7.142578 z"
       id="rect1848"
       inkscape:connector-curvature="0" />
  </g>
  <g
     id="g838"
     inkscape:groupmode="layer"
     inkscape:label="Drill" />
</svg>
