G04 #@! TF.GenerationSoftware,KiCad,Pcbnew,5.1.2*
G04 #@! TF.CreationDate,2019-05-06T18:14:36-05:00*
G04 #@! TF.ProjectId,STM32F030Minimal,53544d33-3246-4303-9330-4d696e696d61,rev?*
G04 #@! TF.SameCoordinates,Original*
G04 #@! TF.FileFunction,Paste,Top*
G04 #@! TF.FilePolarity,Positive*
%FSLAX46Y46*%
G04 Gerber Fmt 4.6, Leading zero omitted, Abs format (unit mm)*
G04 Created by KiCad (PCBNEW 5.1.2) date 2019-05-06 18:14:36*
%MOMM*%
%LPD*%
G04 APERTURE LIST*
%ADD10C,0.100000*%
%ADD11C,0.975000*%
%ADD12R,1.000000X2.800000*%
%ADD13R,1.450000X0.450000*%
%ADD14R,2.400000X2.000000*%
G04 APERTURE END LIST*
D10*
G36*
X150267642Y-67301174D02*
G01*
X150291303Y-67304684D01*
X150314507Y-67310496D01*
X150337029Y-67318554D01*
X150358653Y-67328782D01*
X150379170Y-67341079D01*
X150398383Y-67355329D01*
X150416107Y-67371393D01*
X150432171Y-67389117D01*
X150446421Y-67408330D01*
X150458718Y-67428847D01*
X150468946Y-67450471D01*
X150477004Y-67472993D01*
X150482816Y-67496197D01*
X150486326Y-67519858D01*
X150487500Y-67543750D01*
X150487500Y-68456250D01*
X150486326Y-68480142D01*
X150482816Y-68503803D01*
X150477004Y-68527007D01*
X150468946Y-68549529D01*
X150458718Y-68571153D01*
X150446421Y-68591670D01*
X150432171Y-68610883D01*
X150416107Y-68628607D01*
X150398383Y-68644671D01*
X150379170Y-68658921D01*
X150358653Y-68671218D01*
X150337029Y-68681446D01*
X150314507Y-68689504D01*
X150291303Y-68695316D01*
X150267642Y-68698826D01*
X150243750Y-68700000D01*
X149756250Y-68700000D01*
X149732358Y-68698826D01*
X149708697Y-68695316D01*
X149685493Y-68689504D01*
X149662971Y-68681446D01*
X149641347Y-68671218D01*
X149620830Y-68658921D01*
X149601617Y-68644671D01*
X149583893Y-68628607D01*
X149567829Y-68610883D01*
X149553579Y-68591670D01*
X149541282Y-68571153D01*
X149531054Y-68549529D01*
X149522996Y-68527007D01*
X149517184Y-68503803D01*
X149513674Y-68480142D01*
X149512500Y-68456250D01*
X149512500Y-67543750D01*
X149513674Y-67519858D01*
X149517184Y-67496197D01*
X149522996Y-67472993D01*
X149531054Y-67450471D01*
X149541282Y-67428847D01*
X149553579Y-67408330D01*
X149567829Y-67389117D01*
X149583893Y-67371393D01*
X149601617Y-67355329D01*
X149620830Y-67341079D01*
X149641347Y-67328782D01*
X149662971Y-67318554D01*
X149685493Y-67310496D01*
X149708697Y-67304684D01*
X149732358Y-67301174D01*
X149756250Y-67300000D01*
X150243750Y-67300000D01*
X150267642Y-67301174D01*
X150267642Y-67301174D01*
G37*
D11*
X150000000Y-68000000D03*
D10*
G36*
X152142642Y-67301174D02*
G01*
X152166303Y-67304684D01*
X152189507Y-67310496D01*
X152212029Y-67318554D01*
X152233653Y-67328782D01*
X152254170Y-67341079D01*
X152273383Y-67355329D01*
X152291107Y-67371393D01*
X152307171Y-67389117D01*
X152321421Y-67408330D01*
X152333718Y-67428847D01*
X152343946Y-67450471D01*
X152352004Y-67472993D01*
X152357816Y-67496197D01*
X152361326Y-67519858D01*
X152362500Y-67543750D01*
X152362500Y-68456250D01*
X152361326Y-68480142D01*
X152357816Y-68503803D01*
X152352004Y-68527007D01*
X152343946Y-68549529D01*
X152333718Y-68571153D01*
X152321421Y-68591670D01*
X152307171Y-68610883D01*
X152291107Y-68628607D01*
X152273383Y-68644671D01*
X152254170Y-68658921D01*
X152233653Y-68671218D01*
X152212029Y-68681446D01*
X152189507Y-68689504D01*
X152166303Y-68695316D01*
X152142642Y-68698826D01*
X152118750Y-68700000D01*
X151631250Y-68700000D01*
X151607358Y-68698826D01*
X151583697Y-68695316D01*
X151560493Y-68689504D01*
X151537971Y-68681446D01*
X151516347Y-68671218D01*
X151495830Y-68658921D01*
X151476617Y-68644671D01*
X151458893Y-68628607D01*
X151442829Y-68610883D01*
X151428579Y-68591670D01*
X151416282Y-68571153D01*
X151406054Y-68549529D01*
X151397996Y-68527007D01*
X151392184Y-68503803D01*
X151388674Y-68480142D01*
X151387500Y-68456250D01*
X151387500Y-67543750D01*
X151388674Y-67519858D01*
X151392184Y-67496197D01*
X151397996Y-67472993D01*
X151406054Y-67450471D01*
X151416282Y-67428847D01*
X151428579Y-67408330D01*
X151442829Y-67389117D01*
X151458893Y-67371393D01*
X151476617Y-67355329D01*
X151495830Y-67341079D01*
X151516347Y-67328782D01*
X151537971Y-67318554D01*
X151560493Y-67310496D01*
X151583697Y-67304684D01*
X151607358Y-67301174D01*
X151631250Y-67300000D01*
X152118750Y-67300000D01*
X152142642Y-67301174D01*
X152142642Y-67301174D01*
G37*
D11*
X151875000Y-68000000D03*
D10*
G36*
X152142642Y-69301174D02*
G01*
X152166303Y-69304684D01*
X152189507Y-69310496D01*
X152212029Y-69318554D01*
X152233653Y-69328782D01*
X152254170Y-69341079D01*
X152273383Y-69355329D01*
X152291107Y-69371393D01*
X152307171Y-69389117D01*
X152321421Y-69408330D01*
X152333718Y-69428847D01*
X152343946Y-69450471D01*
X152352004Y-69472993D01*
X152357816Y-69496197D01*
X152361326Y-69519858D01*
X152362500Y-69543750D01*
X152362500Y-70456250D01*
X152361326Y-70480142D01*
X152357816Y-70503803D01*
X152352004Y-70527007D01*
X152343946Y-70549529D01*
X152333718Y-70571153D01*
X152321421Y-70591670D01*
X152307171Y-70610883D01*
X152291107Y-70628607D01*
X152273383Y-70644671D01*
X152254170Y-70658921D01*
X152233653Y-70671218D01*
X152212029Y-70681446D01*
X152189507Y-70689504D01*
X152166303Y-70695316D01*
X152142642Y-70698826D01*
X152118750Y-70700000D01*
X151631250Y-70700000D01*
X151607358Y-70698826D01*
X151583697Y-70695316D01*
X151560493Y-70689504D01*
X151537971Y-70681446D01*
X151516347Y-70671218D01*
X151495830Y-70658921D01*
X151476617Y-70644671D01*
X151458893Y-70628607D01*
X151442829Y-70610883D01*
X151428579Y-70591670D01*
X151416282Y-70571153D01*
X151406054Y-70549529D01*
X151397996Y-70527007D01*
X151392184Y-70503803D01*
X151388674Y-70480142D01*
X151387500Y-70456250D01*
X151387500Y-69543750D01*
X151388674Y-69519858D01*
X151392184Y-69496197D01*
X151397996Y-69472993D01*
X151406054Y-69450471D01*
X151416282Y-69428847D01*
X151428579Y-69408330D01*
X151442829Y-69389117D01*
X151458893Y-69371393D01*
X151476617Y-69355329D01*
X151495830Y-69341079D01*
X151516347Y-69328782D01*
X151537971Y-69318554D01*
X151560493Y-69310496D01*
X151583697Y-69304684D01*
X151607358Y-69301174D01*
X151631250Y-69300000D01*
X152118750Y-69300000D01*
X152142642Y-69301174D01*
X152142642Y-69301174D01*
G37*
D11*
X151875000Y-70000000D03*
D10*
G36*
X150267642Y-69301174D02*
G01*
X150291303Y-69304684D01*
X150314507Y-69310496D01*
X150337029Y-69318554D01*
X150358653Y-69328782D01*
X150379170Y-69341079D01*
X150398383Y-69355329D01*
X150416107Y-69371393D01*
X150432171Y-69389117D01*
X150446421Y-69408330D01*
X150458718Y-69428847D01*
X150468946Y-69450471D01*
X150477004Y-69472993D01*
X150482816Y-69496197D01*
X150486326Y-69519858D01*
X150487500Y-69543750D01*
X150487500Y-70456250D01*
X150486326Y-70480142D01*
X150482816Y-70503803D01*
X150477004Y-70527007D01*
X150468946Y-70549529D01*
X150458718Y-70571153D01*
X150446421Y-70591670D01*
X150432171Y-70610883D01*
X150416107Y-70628607D01*
X150398383Y-70644671D01*
X150379170Y-70658921D01*
X150358653Y-70671218D01*
X150337029Y-70681446D01*
X150314507Y-70689504D01*
X150291303Y-70695316D01*
X150267642Y-70698826D01*
X150243750Y-70700000D01*
X149756250Y-70700000D01*
X149732358Y-70698826D01*
X149708697Y-70695316D01*
X149685493Y-70689504D01*
X149662971Y-70681446D01*
X149641347Y-70671218D01*
X149620830Y-70658921D01*
X149601617Y-70644671D01*
X149583893Y-70628607D01*
X149567829Y-70610883D01*
X149553579Y-70591670D01*
X149541282Y-70571153D01*
X149531054Y-70549529D01*
X149522996Y-70527007D01*
X149517184Y-70503803D01*
X149513674Y-70480142D01*
X149512500Y-70456250D01*
X149512500Y-69543750D01*
X149513674Y-69519858D01*
X149517184Y-69496197D01*
X149522996Y-69472993D01*
X149531054Y-69450471D01*
X149541282Y-69428847D01*
X149553579Y-69408330D01*
X149567829Y-69389117D01*
X149583893Y-69371393D01*
X149601617Y-69355329D01*
X149620830Y-69341079D01*
X149641347Y-69328782D01*
X149662971Y-69318554D01*
X149685493Y-69310496D01*
X149708697Y-69304684D01*
X149732358Y-69301174D01*
X149756250Y-69300000D01*
X150243750Y-69300000D01*
X150267642Y-69301174D01*
X150267642Y-69301174D01*
G37*
D11*
X150000000Y-70000000D03*
D10*
G36*
X160205142Y-63551174D02*
G01*
X160228803Y-63554684D01*
X160252007Y-63560496D01*
X160274529Y-63568554D01*
X160296153Y-63578782D01*
X160316670Y-63591079D01*
X160335883Y-63605329D01*
X160353607Y-63621393D01*
X160369671Y-63639117D01*
X160383921Y-63658330D01*
X160396218Y-63678847D01*
X160406446Y-63700471D01*
X160414504Y-63722993D01*
X160420316Y-63746197D01*
X160423826Y-63769858D01*
X160425000Y-63793750D01*
X160425000Y-64706250D01*
X160423826Y-64730142D01*
X160420316Y-64753803D01*
X160414504Y-64777007D01*
X160406446Y-64799529D01*
X160396218Y-64821153D01*
X160383921Y-64841670D01*
X160369671Y-64860883D01*
X160353607Y-64878607D01*
X160335883Y-64894671D01*
X160316670Y-64908921D01*
X160296153Y-64921218D01*
X160274529Y-64931446D01*
X160252007Y-64939504D01*
X160228803Y-64945316D01*
X160205142Y-64948826D01*
X160181250Y-64950000D01*
X159693750Y-64950000D01*
X159669858Y-64948826D01*
X159646197Y-64945316D01*
X159622993Y-64939504D01*
X159600471Y-64931446D01*
X159578847Y-64921218D01*
X159558330Y-64908921D01*
X159539117Y-64894671D01*
X159521393Y-64878607D01*
X159505329Y-64860883D01*
X159491079Y-64841670D01*
X159478782Y-64821153D01*
X159468554Y-64799529D01*
X159460496Y-64777007D01*
X159454684Y-64753803D01*
X159451174Y-64730142D01*
X159450000Y-64706250D01*
X159450000Y-63793750D01*
X159451174Y-63769858D01*
X159454684Y-63746197D01*
X159460496Y-63722993D01*
X159468554Y-63700471D01*
X159478782Y-63678847D01*
X159491079Y-63658330D01*
X159505329Y-63639117D01*
X159521393Y-63621393D01*
X159539117Y-63605329D01*
X159558330Y-63591079D01*
X159578847Y-63578782D01*
X159600471Y-63568554D01*
X159622993Y-63560496D01*
X159646197Y-63554684D01*
X159669858Y-63551174D01*
X159693750Y-63550000D01*
X160181250Y-63550000D01*
X160205142Y-63551174D01*
X160205142Y-63551174D01*
G37*
D11*
X159937500Y-64250000D03*
D10*
G36*
X158330142Y-63551174D02*
G01*
X158353803Y-63554684D01*
X158377007Y-63560496D01*
X158399529Y-63568554D01*
X158421153Y-63578782D01*
X158441670Y-63591079D01*
X158460883Y-63605329D01*
X158478607Y-63621393D01*
X158494671Y-63639117D01*
X158508921Y-63658330D01*
X158521218Y-63678847D01*
X158531446Y-63700471D01*
X158539504Y-63722993D01*
X158545316Y-63746197D01*
X158548826Y-63769858D01*
X158550000Y-63793750D01*
X158550000Y-64706250D01*
X158548826Y-64730142D01*
X158545316Y-64753803D01*
X158539504Y-64777007D01*
X158531446Y-64799529D01*
X158521218Y-64821153D01*
X158508921Y-64841670D01*
X158494671Y-64860883D01*
X158478607Y-64878607D01*
X158460883Y-64894671D01*
X158441670Y-64908921D01*
X158421153Y-64921218D01*
X158399529Y-64931446D01*
X158377007Y-64939504D01*
X158353803Y-64945316D01*
X158330142Y-64948826D01*
X158306250Y-64950000D01*
X157818750Y-64950000D01*
X157794858Y-64948826D01*
X157771197Y-64945316D01*
X157747993Y-64939504D01*
X157725471Y-64931446D01*
X157703847Y-64921218D01*
X157683330Y-64908921D01*
X157664117Y-64894671D01*
X157646393Y-64878607D01*
X157630329Y-64860883D01*
X157616079Y-64841670D01*
X157603782Y-64821153D01*
X157593554Y-64799529D01*
X157585496Y-64777007D01*
X157579684Y-64753803D01*
X157576174Y-64730142D01*
X157575000Y-64706250D01*
X157575000Y-63793750D01*
X157576174Y-63769858D01*
X157579684Y-63746197D01*
X157585496Y-63722993D01*
X157593554Y-63700471D01*
X157603782Y-63678847D01*
X157616079Y-63658330D01*
X157630329Y-63639117D01*
X157646393Y-63621393D01*
X157664117Y-63605329D01*
X157683330Y-63591079D01*
X157703847Y-63578782D01*
X157725471Y-63568554D01*
X157747993Y-63560496D01*
X157771197Y-63554684D01*
X157794858Y-63551174D01*
X157818750Y-63550000D01*
X158306250Y-63550000D01*
X158330142Y-63551174D01*
X158330142Y-63551174D01*
G37*
D11*
X158062500Y-64250000D03*
D10*
G36*
X169767642Y-69051174D02*
G01*
X169791303Y-69054684D01*
X169814507Y-69060496D01*
X169837029Y-69068554D01*
X169858653Y-69078782D01*
X169879170Y-69091079D01*
X169898383Y-69105329D01*
X169916107Y-69121393D01*
X169932171Y-69139117D01*
X169946421Y-69158330D01*
X169958718Y-69178847D01*
X169968946Y-69200471D01*
X169977004Y-69222993D01*
X169982816Y-69246197D01*
X169986326Y-69269858D01*
X169987500Y-69293750D01*
X169987500Y-70206250D01*
X169986326Y-70230142D01*
X169982816Y-70253803D01*
X169977004Y-70277007D01*
X169968946Y-70299529D01*
X169958718Y-70321153D01*
X169946421Y-70341670D01*
X169932171Y-70360883D01*
X169916107Y-70378607D01*
X169898383Y-70394671D01*
X169879170Y-70408921D01*
X169858653Y-70421218D01*
X169837029Y-70431446D01*
X169814507Y-70439504D01*
X169791303Y-70445316D01*
X169767642Y-70448826D01*
X169743750Y-70450000D01*
X169256250Y-70450000D01*
X169232358Y-70448826D01*
X169208697Y-70445316D01*
X169185493Y-70439504D01*
X169162971Y-70431446D01*
X169141347Y-70421218D01*
X169120830Y-70408921D01*
X169101617Y-70394671D01*
X169083893Y-70378607D01*
X169067829Y-70360883D01*
X169053579Y-70341670D01*
X169041282Y-70321153D01*
X169031054Y-70299529D01*
X169022996Y-70277007D01*
X169017184Y-70253803D01*
X169013674Y-70230142D01*
X169012500Y-70206250D01*
X169012500Y-69293750D01*
X169013674Y-69269858D01*
X169017184Y-69246197D01*
X169022996Y-69222993D01*
X169031054Y-69200471D01*
X169041282Y-69178847D01*
X169053579Y-69158330D01*
X169067829Y-69139117D01*
X169083893Y-69121393D01*
X169101617Y-69105329D01*
X169120830Y-69091079D01*
X169141347Y-69078782D01*
X169162971Y-69068554D01*
X169185493Y-69060496D01*
X169208697Y-69054684D01*
X169232358Y-69051174D01*
X169256250Y-69050000D01*
X169743750Y-69050000D01*
X169767642Y-69051174D01*
X169767642Y-69051174D01*
G37*
D11*
X169500000Y-69750000D03*
D10*
G36*
X167892642Y-69051174D02*
G01*
X167916303Y-69054684D01*
X167939507Y-69060496D01*
X167962029Y-69068554D01*
X167983653Y-69078782D01*
X168004170Y-69091079D01*
X168023383Y-69105329D01*
X168041107Y-69121393D01*
X168057171Y-69139117D01*
X168071421Y-69158330D01*
X168083718Y-69178847D01*
X168093946Y-69200471D01*
X168102004Y-69222993D01*
X168107816Y-69246197D01*
X168111326Y-69269858D01*
X168112500Y-69293750D01*
X168112500Y-70206250D01*
X168111326Y-70230142D01*
X168107816Y-70253803D01*
X168102004Y-70277007D01*
X168093946Y-70299529D01*
X168083718Y-70321153D01*
X168071421Y-70341670D01*
X168057171Y-70360883D01*
X168041107Y-70378607D01*
X168023383Y-70394671D01*
X168004170Y-70408921D01*
X167983653Y-70421218D01*
X167962029Y-70431446D01*
X167939507Y-70439504D01*
X167916303Y-70445316D01*
X167892642Y-70448826D01*
X167868750Y-70450000D01*
X167381250Y-70450000D01*
X167357358Y-70448826D01*
X167333697Y-70445316D01*
X167310493Y-70439504D01*
X167287971Y-70431446D01*
X167266347Y-70421218D01*
X167245830Y-70408921D01*
X167226617Y-70394671D01*
X167208893Y-70378607D01*
X167192829Y-70360883D01*
X167178579Y-70341670D01*
X167166282Y-70321153D01*
X167156054Y-70299529D01*
X167147996Y-70277007D01*
X167142184Y-70253803D01*
X167138674Y-70230142D01*
X167137500Y-70206250D01*
X167137500Y-69293750D01*
X167138674Y-69269858D01*
X167142184Y-69246197D01*
X167147996Y-69222993D01*
X167156054Y-69200471D01*
X167166282Y-69178847D01*
X167178579Y-69158330D01*
X167192829Y-69139117D01*
X167208893Y-69121393D01*
X167226617Y-69105329D01*
X167245830Y-69091079D01*
X167266347Y-69078782D01*
X167287971Y-69068554D01*
X167310493Y-69060496D01*
X167333697Y-69054684D01*
X167357358Y-69051174D01*
X167381250Y-69050000D01*
X167868750Y-69050000D01*
X167892642Y-69051174D01*
X167892642Y-69051174D01*
G37*
D11*
X167625000Y-69750000D03*
D10*
G36*
X167892642Y-66301174D02*
G01*
X167916303Y-66304684D01*
X167939507Y-66310496D01*
X167962029Y-66318554D01*
X167983653Y-66328782D01*
X168004170Y-66341079D01*
X168023383Y-66355329D01*
X168041107Y-66371393D01*
X168057171Y-66389117D01*
X168071421Y-66408330D01*
X168083718Y-66428847D01*
X168093946Y-66450471D01*
X168102004Y-66472993D01*
X168107816Y-66496197D01*
X168111326Y-66519858D01*
X168112500Y-66543750D01*
X168112500Y-67456250D01*
X168111326Y-67480142D01*
X168107816Y-67503803D01*
X168102004Y-67527007D01*
X168093946Y-67549529D01*
X168083718Y-67571153D01*
X168071421Y-67591670D01*
X168057171Y-67610883D01*
X168041107Y-67628607D01*
X168023383Y-67644671D01*
X168004170Y-67658921D01*
X167983653Y-67671218D01*
X167962029Y-67681446D01*
X167939507Y-67689504D01*
X167916303Y-67695316D01*
X167892642Y-67698826D01*
X167868750Y-67700000D01*
X167381250Y-67700000D01*
X167357358Y-67698826D01*
X167333697Y-67695316D01*
X167310493Y-67689504D01*
X167287971Y-67681446D01*
X167266347Y-67671218D01*
X167245830Y-67658921D01*
X167226617Y-67644671D01*
X167208893Y-67628607D01*
X167192829Y-67610883D01*
X167178579Y-67591670D01*
X167166282Y-67571153D01*
X167156054Y-67549529D01*
X167147996Y-67527007D01*
X167142184Y-67503803D01*
X167138674Y-67480142D01*
X167137500Y-67456250D01*
X167137500Y-66543750D01*
X167138674Y-66519858D01*
X167142184Y-66496197D01*
X167147996Y-66472993D01*
X167156054Y-66450471D01*
X167166282Y-66428847D01*
X167178579Y-66408330D01*
X167192829Y-66389117D01*
X167208893Y-66371393D01*
X167226617Y-66355329D01*
X167245830Y-66341079D01*
X167266347Y-66328782D01*
X167287971Y-66318554D01*
X167310493Y-66310496D01*
X167333697Y-66304684D01*
X167357358Y-66301174D01*
X167381250Y-66300000D01*
X167868750Y-66300000D01*
X167892642Y-66301174D01*
X167892642Y-66301174D01*
G37*
D11*
X167625000Y-67000000D03*
D10*
G36*
X169767642Y-66301174D02*
G01*
X169791303Y-66304684D01*
X169814507Y-66310496D01*
X169837029Y-66318554D01*
X169858653Y-66328782D01*
X169879170Y-66341079D01*
X169898383Y-66355329D01*
X169916107Y-66371393D01*
X169932171Y-66389117D01*
X169946421Y-66408330D01*
X169958718Y-66428847D01*
X169968946Y-66450471D01*
X169977004Y-66472993D01*
X169982816Y-66496197D01*
X169986326Y-66519858D01*
X169987500Y-66543750D01*
X169987500Y-67456250D01*
X169986326Y-67480142D01*
X169982816Y-67503803D01*
X169977004Y-67527007D01*
X169968946Y-67549529D01*
X169958718Y-67571153D01*
X169946421Y-67591670D01*
X169932171Y-67610883D01*
X169916107Y-67628607D01*
X169898383Y-67644671D01*
X169879170Y-67658921D01*
X169858653Y-67671218D01*
X169837029Y-67681446D01*
X169814507Y-67689504D01*
X169791303Y-67695316D01*
X169767642Y-67698826D01*
X169743750Y-67700000D01*
X169256250Y-67700000D01*
X169232358Y-67698826D01*
X169208697Y-67695316D01*
X169185493Y-67689504D01*
X169162971Y-67681446D01*
X169141347Y-67671218D01*
X169120830Y-67658921D01*
X169101617Y-67644671D01*
X169083893Y-67628607D01*
X169067829Y-67610883D01*
X169053579Y-67591670D01*
X169041282Y-67571153D01*
X169031054Y-67549529D01*
X169022996Y-67527007D01*
X169017184Y-67503803D01*
X169013674Y-67480142D01*
X169012500Y-67456250D01*
X169012500Y-66543750D01*
X169013674Y-66519858D01*
X169017184Y-66496197D01*
X169022996Y-66472993D01*
X169031054Y-66450471D01*
X169041282Y-66428847D01*
X169053579Y-66408330D01*
X169067829Y-66389117D01*
X169083893Y-66371393D01*
X169101617Y-66355329D01*
X169120830Y-66341079D01*
X169141347Y-66328782D01*
X169162971Y-66318554D01*
X169185493Y-66310496D01*
X169208697Y-66304684D01*
X169232358Y-66301174D01*
X169256250Y-66300000D01*
X169743750Y-66300000D01*
X169767642Y-66301174D01*
X169767642Y-66301174D01*
G37*
D11*
X169500000Y-67000000D03*
D10*
G36*
X154642642Y-72801174D02*
G01*
X154666303Y-72804684D01*
X154689507Y-72810496D01*
X154712029Y-72818554D01*
X154733653Y-72828782D01*
X154754170Y-72841079D01*
X154773383Y-72855329D01*
X154791107Y-72871393D01*
X154807171Y-72889117D01*
X154821421Y-72908330D01*
X154833718Y-72928847D01*
X154843946Y-72950471D01*
X154852004Y-72972993D01*
X154857816Y-72996197D01*
X154861326Y-73019858D01*
X154862500Y-73043750D01*
X154862500Y-73956250D01*
X154861326Y-73980142D01*
X154857816Y-74003803D01*
X154852004Y-74027007D01*
X154843946Y-74049529D01*
X154833718Y-74071153D01*
X154821421Y-74091670D01*
X154807171Y-74110883D01*
X154791107Y-74128607D01*
X154773383Y-74144671D01*
X154754170Y-74158921D01*
X154733653Y-74171218D01*
X154712029Y-74181446D01*
X154689507Y-74189504D01*
X154666303Y-74195316D01*
X154642642Y-74198826D01*
X154618750Y-74200000D01*
X154131250Y-74200000D01*
X154107358Y-74198826D01*
X154083697Y-74195316D01*
X154060493Y-74189504D01*
X154037971Y-74181446D01*
X154016347Y-74171218D01*
X153995830Y-74158921D01*
X153976617Y-74144671D01*
X153958893Y-74128607D01*
X153942829Y-74110883D01*
X153928579Y-74091670D01*
X153916282Y-74071153D01*
X153906054Y-74049529D01*
X153897996Y-74027007D01*
X153892184Y-74003803D01*
X153888674Y-73980142D01*
X153887500Y-73956250D01*
X153887500Y-73043750D01*
X153888674Y-73019858D01*
X153892184Y-72996197D01*
X153897996Y-72972993D01*
X153906054Y-72950471D01*
X153916282Y-72928847D01*
X153928579Y-72908330D01*
X153942829Y-72889117D01*
X153958893Y-72871393D01*
X153976617Y-72855329D01*
X153995830Y-72841079D01*
X154016347Y-72828782D01*
X154037971Y-72818554D01*
X154060493Y-72810496D01*
X154083697Y-72804684D01*
X154107358Y-72801174D01*
X154131250Y-72800000D01*
X154618750Y-72800000D01*
X154642642Y-72801174D01*
X154642642Y-72801174D01*
G37*
D11*
X154375000Y-73500000D03*
D10*
G36*
X156517642Y-72801174D02*
G01*
X156541303Y-72804684D01*
X156564507Y-72810496D01*
X156587029Y-72818554D01*
X156608653Y-72828782D01*
X156629170Y-72841079D01*
X156648383Y-72855329D01*
X156666107Y-72871393D01*
X156682171Y-72889117D01*
X156696421Y-72908330D01*
X156708718Y-72928847D01*
X156718946Y-72950471D01*
X156727004Y-72972993D01*
X156732816Y-72996197D01*
X156736326Y-73019858D01*
X156737500Y-73043750D01*
X156737500Y-73956250D01*
X156736326Y-73980142D01*
X156732816Y-74003803D01*
X156727004Y-74027007D01*
X156718946Y-74049529D01*
X156708718Y-74071153D01*
X156696421Y-74091670D01*
X156682171Y-74110883D01*
X156666107Y-74128607D01*
X156648383Y-74144671D01*
X156629170Y-74158921D01*
X156608653Y-74171218D01*
X156587029Y-74181446D01*
X156564507Y-74189504D01*
X156541303Y-74195316D01*
X156517642Y-74198826D01*
X156493750Y-74200000D01*
X156006250Y-74200000D01*
X155982358Y-74198826D01*
X155958697Y-74195316D01*
X155935493Y-74189504D01*
X155912971Y-74181446D01*
X155891347Y-74171218D01*
X155870830Y-74158921D01*
X155851617Y-74144671D01*
X155833893Y-74128607D01*
X155817829Y-74110883D01*
X155803579Y-74091670D01*
X155791282Y-74071153D01*
X155781054Y-74049529D01*
X155772996Y-74027007D01*
X155767184Y-74003803D01*
X155763674Y-73980142D01*
X155762500Y-73956250D01*
X155762500Y-73043750D01*
X155763674Y-73019858D01*
X155767184Y-72996197D01*
X155772996Y-72972993D01*
X155781054Y-72950471D01*
X155791282Y-72928847D01*
X155803579Y-72908330D01*
X155817829Y-72889117D01*
X155833893Y-72871393D01*
X155851617Y-72855329D01*
X155870830Y-72841079D01*
X155891347Y-72828782D01*
X155912971Y-72818554D01*
X155935493Y-72810496D01*
X155958697Y-72804684D01*
X155982358Y-72801174D01*
X156006250Y-72800000D01*
X156493750Y-72800000D01*
X156517642Y-72801174D01*
X156517642Y-72801174D01*
G37*
D11*
X156250000Y-73500000D03*
D10*
G36*
X152892642Y-72801174D02*
G01*
X152916303Y-72804684D01*
X152939507Y-72810496D01*
X152962029Y-72818554D01*
X152983653Y-72828782D01*
X153004170Y-72841079D01*
X153023383Y-72855329D01*
X153041107Y-72871393D01*
X153057171Y-72889117D01*
X153071421Y-72908330D01*
X153083718Y-72928847D01*
X153093946Y-72950471D01*
X153102004Y-72972993D01*
X153107816Y-72996197D01*
X153111326Y-73019858D01*
X153112500Y-73043750D01*
X153112500Y-73956250D01*
X153111326Y-73980142D01*
X153107816Y-74003803D01*
X153102004Y-74027007D01*
X153093946Y-74049529D01*
X153083718Y-74071153D01*
X153071421Y-74091670D01*
X153057171Y-74110883D01*
X153041107Y-74128607D01*
X153023383Y-74144671D01*
X153004170Y-74158921D01*
X152983653Y-74171218D01*
X152962029Y-74181446D01*
X152939507Y-74189504D01*
X152916303Y-74195316D01*
X152892642Y-74198826D01*
X152868750Y-74200000D01*
X152381250Y-74200000D01*
X152357358Y-74198826D01*
X152333697Y-74195316D01*
X152310493Y-74189504D01*
X152287971Y-74181446D01*
X152266347Y-74171218D01*
X152245830Y-74158921D01*
X152226617Y-74144671D01*
X152208893Y-74128607D01*
X152192829Y-74110883D01*
X152178579Y-74091670D01*
X152166282Y-74071153D01*
X152156054Y-74049529D01*
X152147996Y-74027007D01*
X152142184Y-74003803D01*
X152138674Y-73980142D01*
X152137500Y-73956250D01*
X152137500Y-73043750D01*
X152138674Y-73019858D01*
X152142184Y-72996197D01*
X152147996Y-72972993D01*
X152156054Y-72950471D01*
X152166282Y-72928847D01*
X152178579Y-72908330D01*
X152192829Y-72889117D01*
X152208893Y-72871393D01*
X152226617Y-72855329D01*
X152245830Y-72841079D01*
X152266347Y-72828782D01*
X152287971Y-72818554D01*
X152310493Y-72810496D01*
X152333697Y-72804684D01*
X152357358Y-72801174D01*
X152381250Y-72800000D01*
X152868750Y-72800000D01*
X152892642Y-72801174D01*
X152892642Y-72801174D01*
G37*
D11*
X152625000Y-73500000D03*
D10*
G36*
X151017642Y-72801174D02*
G01*
X151041303Y-72804684D01*
X151064507Y-72810496D01*
X151087029Y-72818554D01*
X151108653Y-72828782D01*
X151129170Y-72841079D01*
X151148383Y-72855329D01*
X151166107Y-72871393D01*
X151182171Y-72889117D01*
X151196421Y-72908330D01*
X151208718Y-72928847D01*
X151218946Y-72950471D01*
X151227004Y-72972993D01*
X151232816Y-72996197D01*
X151236326Y-73019858D01*
X151237500Y-73043750D01*
X151237500Y-73956250D01*
X151236326Y-73980142D01*
X151232816Y-74003803D01*
X151227004Y-74027007D01*
X151218946Y-74049529D01*
X151208718Y-74071153D01*
X151196421Y-74091670D01*
X151182171Y-74110883D01*
X151166107Y-74128607D01*
X151148383Y-74144671D01*
X151129170Y-74158921D01*
X151108653Y-74171218D01*
X151087029Y-74181446D01*
X151064507Y-74189504D01*
X151041303Y-74195316D01*
X151017642Y-74198826D01*
X150993750Y-74200000D01*
X150506250Y-74200000D01*
X150482358Y-74198826D01*
X150458697Y-74195316D01*
X150435493Y-74189504D01*
X150412971Y-74181446D01*
X150391347Y-74171218D01*
X150370830Y-74158921D01*
X150351617Y-74144671D01*
X150333893Y-74128607D01*
X150317829Y-74110883D01*
X150303579Y-74091670D01*
X150291282Y-74071153D01*
X150281054Y-74049529D01*
X150272996Y-74027007D01*
X150267184Y-74003803D01*
X150263674Y-73980142D01*
X150262500Y-73956250D01*
X150262500Y-73043750D01*
X150263674Y-73019858D01*
X150267184Y-72996197D01*
X150272996Y-72972993D01*
X150281054Y-72950471D01*
X150291282Y-72928847D01*
X150303579Y-72908330D01*
X150317829Y-72889117D01*
X150333893Y-72871393D01*
X150351617Y-72855329D01*
X150370830Y-72841079D01*
X150391347Y-72828782D01*
X150412971Y-72818554D01*
X150435493Y-72810496D01*
X150458697Y-72804684D01*
X150482358Y-72801174D01*
X150506250Y-72800000D01*
X150993750Y-72800000D01*
X151017642Y-72801174D01*
X151017642Y-72801174D01*
G37*
D11*
X150750000Y-73500000D03*
D12*
X155750000Y-58200000D03*
X155750000Y-64000000D03*
X151750000Y-58200000D03*
X151750000Y-64000000D03*
D13*
X158875001Y-67900001D03*
X158875001Y-68550001D03*
X158875001Y-69200001D03*
X158875001Y-69850001D03*
X158875001Y-70500001D03*
X158875001Y-71150001D03*
X158875001Y-71800001D03*
X158875001Y-72450001D03*
X158875001Y-73100001D03*
X158875001Y-73750001D03*
X164775001Y-73750001D03*
X164775001Y-73100001D03*
X164775001Y-72450001D03*
X164775001Y-71800001D03*
X164775001Y-71150001D03*
X164775001Y-70500001D03*
X164775001Y-69850001D03*
X164775001Y-69200001D03*
X164775001Y-68550001D03*
X164775001Y-67900001D03*
D14*
X154750000Y-67550000D03*
X154750000Y-71250000D03*
M02*
