G04 #@! TF.GenerationSoftware,KiCad,Pcbnew,5.1.2*
G04 #@! TF.CreationDate,2019-05-06T18:14:36-05:00*
G04 #@! TF.ProjectId,STM32F030Minimal,53544d33-3246-4303-9330-4d696e696d61,rev?*
G04 #@! TF.SameCoordinates,Original*
G04 #@! TF.FileFunction,Copper,L1,Top*
G04 #@! TF.FilePolarity,Positive*
%FSLAX46Y46*%
G04 Gerber Fmt 4.6, Leading zero omitted, Abs format (unit mm)*
G04 Created by KiCad (PCBNEW 5.1.2) date 2019-05-06 18:14:36*
%MOMM*%
%LPD*%
G04 APERTURE LIST*
%ADD10C,0.010000*%
%ADD11C,0.100000*%
%ADD12C,0.975000*%
%ADD13R,1.700000X1.700000*%
%ADD14O,1.700000X1.700000*%
%ADD15R,1.000000X2.800000*%
%ADD16R,1.450000X0.450000*%
%ADD17R,2.400000X2.000000*%
%ADD18C,0.800000*%
%ADD19C,0.250000*%
%ADD20C,0.254000*%
G04 APERTURE END LIST*
D10*
G36*
X169619413Y-73579101D02*
G01*
X169802476Y-73671441D01*
X169938408Y-73805243D01*
X169945789Y-73816445D01*
X169984296Y-73886560D01*
X170005787Y-73961161D01*
X170012260Y-74061906D01*
X170005713Y-74210454D01*
X169994912Y-74349000D01*
X169981318Y-74557176D01*
X169970127Y-74815106D01*
X169962606Y-75087886D01*
X169960038Y-75309064D01*
X169960779Y-75541042D01*
X169965613Y-75705025D01*
X169976695Y-75817664D01*
X169996180Y-75895610D01*
X170026225Y-75955512D01*
X170047732Y-75986397D01*
X170133602Y-76071274D01*
X170247178Y-76111004D01*
X170320016Y-76119227D01*
X170567890Y-76100096D01*
X170795719Y-76002890D01*
X171009344Y-75824818D01*
X171064224Y-75763825D01*
X171168892Y-75650241D01*
X171259066Y-75568178D01*
X171316141Y-75534453D01*
X171318112Y-75534334D01*
X171373755Y-75567452D01*
X171447182Y-75651096D01*
X171479505Y-75698393D01*
X171626869Y-75889127D01*
X171776913Y-76003226D01*
X171924284Y-76039020D01*
X172063631Y-75994837D01*
X172157971Y-75910223D01*
X172238653Y-75801415D01*
X172308934Y-75673458D01*
X172376082Y-75509221D01*
X172447364Y-75291574D01*
X172505985Y-75089834D01*
X172565450Y-74879010D01*
X172627683Y-74659557D01*
X172681333Y-74471471D01*
X172692246Y-74433442D01*
X172771416Y-74158050D01*
X173199565Y-73994582D01*
X173417567Y-73915972D01*
X173565998Y-73873703D01*
X173651001Y-73866227D01*
X173672145Y-73875545D01*
X173702677Y-73934474D01*
X173669740Y-73994145D01*
X173567286Y-74059634D01*
X173389270Y-74136021D01*
X173339887Y-74154600D01*
X173180263Y-74216840D01*
X173049296Y-74273866D01*
X172969270Y-74315783D01*
X172958527Y-74323933D01*
X172930315Y-74380037D01*
X172886526Y-74501746D01*
X172832553Y-74672637D01*
X172773790Y-74876288D01*
X172757251Y-74936804D01*
X172646737Y-75318610D01*
X172540651Y-75623568D01*
X172434846Y-75859062D01*
X172325173Y-76032475D01*
X172207485Y-76151190D01*
X172077635Y-76222591D01*
X172026069Y-76238398D01*
X171852379Y-76241191D01*
X171668574Y-76174646D01*
X171496259Y-76047924D01*
X171442569Y-75990944D01*
X171291511Y-75814467D01*
X171121542Y-75991355D01*
X170937034Y-76157866D01*
X170753712Y-76260737D01*
X170540918Y-76314778D01*
X170426413Y-76327186D01*
X170268971Y-76333485D01*
X170159906Y-76317957D01*
X170064244Y-76273620D01*
X170022334Y-76246552D01*
X169894087Y-76118677D01*
X169802698Y-75931493D01*
X169747655Y-75681317D01*
X169728449Y-75364461D01*
X169744569Y-74977242D01*
X169789182Y-74563076D01*
X169817945Y-74311873D01*
X169825189Y-74128459D01*
X169807137Y-73997833D01*
X169760009Y-73904997D01*
X169680027Y-73834951D01*
X169593702Y-73787122D01*
X169448658Y-73742101D01*
X169310297Y-73760585D01*
X169162541Y-73847350D01*
X169046579Y-73949650D01*
X168951116Y-74035110D01*
X168888509Y-74065811D01*
X168836292Y-74051090D01*
X168823527Y-74042361D01*
X168776073Y-73997661D01*
X168782352Y-73948669D01*
X168820525Y-73889482D01*
X168929960Y-73776072D01*
X169082501Y-73669287D01*
X169247405Y-73586782D01*
X169393928Y-73546212D01*
X169420974Y-73544667D01*
X169619413Y-73579101D01*
X169619413Y-73579101D01*
G37*
X169619413Y-73579101D02*
X169802476Y-73671441D01*
X169938408Y-73805243D01*
X169945789Y-73816445D01*
X169984296Y-73886560D01*
X170005787Y-73961161D01*
X170012260Y-74061906D01*
X170005713Y-74210454D01*
X169994912Y-74349000D01*
X169981318Y-74557176D01*
X169970127Y-74815106D01*
X169962606Y-75087886D01*
X169960038Y-75309064D01*
X169960779Y-75541042D01*
X169965613Y-75705025D01*
X169976695Y-75817664D01*
X169996180Y-75895610D01*
X170026225Y-75955512D01*
X170047732Y-75986397D01*
X170133602Y-76071274D01*
X170247178Y-76111004D01*
X170320016Y-76119227D01*
X170567890Y-76100096D01*
X170795719Y-76002890D01*
X171009344Y-75824818D01*
X171064224Y-75763825D01*
X171168892Y-75650241D01*
X171259066Y-75568178D01*
X171316141Y-75534453D01*
X171318112Y-75534334D01*
X171373755Y-75567452D01*
X171447182Y-75651096D01*
X171479505Y-75698393D01*
X171626869Y-75889127D01*
X171776913Y-76003226D01*
X171924284Y-76039020D01*
X172063631Y-75994837D01*
X172157971Y-75910223D01*
X172238653Y-75801415D01*
X172308934Y-75673458D01*
X172376082Y-75509221D01*
X172447364Y-75291574D01*
X172505985Y-75089834D01*
X172565450Y-74879010D01*
X172627683Y-74659557D01*
X172681333Y-74471471D01*
X172692246Y-74433442D01*
X172771416Y-74158050D01*
X173199565Y-73994582D01*
X173417567Y-73915972D01*
X173565998Y-73873703D01*
X173651001Y-73866227D01*
X173672145Y-73875545D01*
X173702677Y-73934474D01*
X173669740Y-73994145D01*
X173567286Y-74059634D01*
X173389270Y-74136021D01*
X173339887Y-74154600D01*
X173180263Y-74216840D01*
X173049296Y-74273866D01*
X172969270Y-74315783D01*
X172958527Y-74323933D01*
X172930315Y-74380037D01*
X172886526Y-74501746D01*
X172832553Y-74672637D01*
X172773790Y-74876288D01*
X172757251Y-74936804D01*
X172646737Y-75318610D01*
X172540651Y-75623568D01*
X172434846Y-75859062D01*
X172325173Y-76032475D01*
X172207485Y-76151190D01*
X172077635Y-76222591D01*
X172026069Y-76238398D01*
X171852379Y-76241191D01*
X171668574Y-76174646D01*
X171496259Y-76047924D01*
X171442569Y-75990944D01*
X171291511Y-75814467D01*
X171121542Y-75991355D01*
X170937034Y-76157866D01*
X170753712Y-76260737D01*
X170540918Y-76314778D01*
X170426413Y-76327186D01*
X170268971Y-76333485D01*
X170159906Y-76317957D01*
X170064244Y-76273620D01*
X170022334Y-76246552D01*
X169894087Y-76118677D01*
X169802698Y-75931493D01*
X169747655Y-75681317D01*
X169728449Y-75364461D01*
X169744569Y-74977242D01*
X169789182Y-74563076D01*
X169817945Y-74311873D01*
X169825189Y-74128459D01*
X169807137Y-73997833D01*
X169760009Y-73904997D01*
X169680027Y-73834951D01*
X169593702Y-73787122D01*
X169448658Y-73742101D01*
X169310297Y-73760585D01*
X169162541Y-73847350D01*
X169046579Y-73949650D01*
X168951116Y-74035110D01*
X168888509Y-74065811D01*
X168836292Y-74051090D01*
X168823527Y-74042361D01*
X168776073Y-73997661D01*
X168782352Y-73948669D01*
X168820525Y-73889482D01*
X168929960Y-73776072D01*
X169082501Y-73669287D01*
X169247405Y-73586782D01*
X169393928Y-73546212D01*
X169420974Y-73544667D01*
X169619413Y-73579101D01*
D11*
G36*
X150267642Y-67301174D02*
G01*
X150291303Y-67304684D01*
X150314507Y-67310496D01*
X150337029Y-67318554D01*
X150358653Y-67328782D01*
X150379170Y-67341079D01*
X150398383Y-67355329D01*
X150416107Y-67371393D01*
X150432171Y-67389117D01*
X150446421Y-67408330D01*
X150458718Y-67428847D01*
X150468946Y-67450471D01*
X150477004Y-67472993D01*
X150482816Y-67496197D01*
X150486326Y-67519858D01*
X150487500Y-67543750D01*
X150487500Y-68456250D01*
X150486326Y-68480142D01*
X150482816Y-68503803D01*
X150477004Y-68527007D01*
X150468946Y-68549529D01*
X150458718Y-68571153D01*
X150446421Y-68591670D01*
X150432171Y-68610883D01*
X150416107Y-68628607D01*
X150398383Y-68644671D01*
X150379170Y-68658921D01*
X150358653Y-68671218D01*
X150337029Y-68681446D01*
X150314507Y-68689504D01*
X150291303Y-68695316D01*
X150267642Y-68698826D01*
X150243750Y-68700000D01*
X149756250Y-68700000D01*
X149732358Y-68698826D01*
X149708697Y-68695316D01*
X149685493Y-68689504D01*
X149662971Y-68681446D01*
X149641347Y-68671218D01*
X149620830Y-68658921D01*
X149601617Y-68644671D01*
X149583893Y-68628607D01*
X149567829Y-68610883D01*
X149553579Y-68591670D01*
X149541282Y-68571153D01*
X149531054Y-68549529D01*
X149522996Y-68527007D01*
X149517184Y-68503803D01*
X149513674Y-68480142D01*
X149512500Y-68456250D01*
X149512500Y-67543750D01*
X149513674Y-67519858D01*
X149517184Y-67496197D01*
X149522996Y-67472993D01*
X149531054Y-67450471D01*
X149541282Y-67428847D01*
X149553579Y-67408330D01*
X149567829Y-67389117D01*
X149583893Y-67371393D01*
X149601617Y-67355329D01*
X149620830Y-67341079D01*
X149641347Y-67328782D01*
X149662971Y-67318554D01*
X149685493Y-67310496D01*
X149708697Y-67304684D01*
X149732358Y-67301174D01*
X149756250Y-67300000D01*
X150243750Y-67300000D01*
X150267642Y-67301174D01*
X150267642Y-67301174D01*
G37*
D12*
X150000000Y-68000000D03*
D11*
G36*
X152142642Y-67301174D02*
G01*
X152166303Y-67304684D01*
X152189507Y-67310496D01*
X152212029Y-67318554D01*
X152233653Y-67328782D01*
X152254170Y-67341079D01*
X152273383Y-67355329D01*
X152291107Y-67371393D01*
X152307171Y-67389117D01*
X152321421Y-67408330D01*
X152333718Y-67428847D01*
X152343946Y-67450471D01*
X152352004Y-67472993D01*
X152357816Y-67496197D01*
X152361326Y-67519858D01*
X152362500Y-67543750D01*
X152362500Y-68456250D01*
X152361326Y-68480142D01*
X152357816Y-68503803D01*
X152352004Y-68527007D01*
X152343946Y-68549529D01*
X152333718Y-68571153D01*
X152321421Y-68591670D01*
X152307171Y-68610883D01*
X152291107Y-68628607D01*
X152273383Y-68644671D01*
X152254170Y-68658921D01*
X152233653Y-68671218D01*
X152212029Y-68681446D01*
X152189507Y-68689504D01*
X152166303Y-68695316D01*
X152142642Y-68698826D01*
X152118750Y-68700000D01*
X151631250Y-68700000D01*
X151607358Y-68698826D01*
X151583697Y-68695316D01*
X151560493Y-68689504D01*
X151537971Y-68681446D01*
X151516347Y-68671218D01*
X151495830Y-68658921D01*
X151476617Y-68644671D01*
X151458893Y-68628607D01*
X151442829Y-68610883D01*
X151428579Y-68591670D01*
X151416282Y-68571153D01*
X151406054Y-68549529D01*
X151397996Y-68527007D01*
X151392184Y-68503803D01*
X151388674Y-68480142D01*
X151387500Y-68456250D01*
X151387500Y-67543750D01*
X151388674Y-67519858D01*
X151392184Y-67496197D01*
X151397996Y-67472993D01*
X151406054Y-67450471D01*
X151416282Y-67428847D01*
X151428579Y-67408330D01*
X151442829Y-67389117D01*
X151458893Y-67371393D01*
X151476617Y-67355329D01*
X151495830Y-67341079D01*
X151516347Y-67328782D01*
X151537971Y-67318554D01*
X151560493Y-67310496D01*
X151583697Y-67304684D01*
X151607358Y-67301174D01*
X151631250Y-67300000D01*
X152118750Y-67300000D01*
X152142642Y-67301174D01*
X152142642Y-67301174D01*
G37*
D12*
X151875000Y-68000000D03*
D11*
G36*
X152142642Y-69301174D02*
G01*
X152166303Y-69304684D01*
X152189507Y-69310496D01*
X152212029Y-69318554D01*
X152233653Y-69328782D01*
X152254170Y-69341079D01*
X152273383Y-69355329D01*
X152291107Y-69371393D01*
X152307171Y-69389117D01*
X152321421Y-69408330D01*
X152333718Y-69428847D01*
X152343946Y-69450471D01*
X152352004Y-69472993D01*
X152357816Y-69496197D01*
X152361326Y-69519858D01*
X152362500Y-69543750D01*
X152362500Y-70456250D01*
X152361326Y-70480142D01*
X152357816Y-70503803D01*
X152352004Y-70527007D01*
X152343946Y-70549529D01*
X152333718Y-70571153D01*
X152321421Y-70591670D01*
X152307171Y-70610883D01*
X152291107Y-70628607D01*
X152273383Y-70644671D01*
X152254170Y-70658921D01*
X152233653Y-70671218D01*
X152212029Y-70681446D01*
X152189507Y-70689504D01*
X152166303Y-70695316D01*
X152142642Y-70698826D01*
X152118750Y-70700000D01*
X151631250Y-70700000D01*
X151607358Y-70698826D01*
X151583697Y-70695316D01*
X151560493Y-70689504D01*
X151537971Y-70681446D01*
X151516347Y-70671218D01*
X151495830Y-70658921D01*
X151476617Y-70644671D01*
X151458893Y-70628607D01*
X151442829Y-70610883D01*
X151428579Y-70591670D01*
X151416282Y-70571153D01*
X151406054Y-70549529D01*
X151397996Y-70527007D01*
X151392184Y-70503803D01*
X151388674Y-70480142D01*
X151387500Y-70456250D01*
X151387500Y-69543750D01*
X151388674Y-69519858D01*
X151392184Y-69496197D01*
X151397996Y-69472993D01*
X151406054Y-69450471D01*
X151416282Y-69428847D01*
X151428579Y-69408330D01*
X151442829Y-69389117D01*
X151458893Y-69371393D01*
X151476617Y-69355329D01*
X151495830Y-69341079D01*
X151516347Y-69328782D01*
X151537971Y-69318554D01*
X151560493Y-69310496D01*
X151583697Y-69304684D01*
X151607358Y-69301174D01*
X151631250Y-69300000D01*
X152118750Y-69300000D01*
X152142642Y-69301174D01*
X152142642Y-69301174D01*
G37*
D12*
X151875000Y-70000000D03*
D11*
G36*
X150267642Y-69301174D02*
G01*
X150291303Y-69304684D01*
X150314507Y-69310496D01*
X150337029Y-69318554D01*
X150358653Y-69328782D01*
X150379170Y-69341079D01*
X150398383Y-69355329D01*
X150416107Y-69371393D01*
X150432171Y-69389117D01*
X150446421Y-69408330D01*
X150458718Y-69428847D01*
X150468946Y-69450471D01*
X150477004Y-69472993D01*
X150482816Y-69496197D01*
X150486326Y-69519858D01*
X150487500Y-69543750D01*
X150487500Y-70456250D01*
X150486326Y-70480142D01*
X150482816Y-70503803D01*
X150477004Y-70527007D01*
X150468946Y-70549529D01*
X150458718Y-70571153D01*
X150446421Y-70591670D01*
X150432171Y-70610883D01*
X150416107Y-70628607D01*
X150398383Y-70644671D01*
X150379170Y-70658921D01*
X150358653Y-70671218D01*
X150337029Y-70681446D01*
X150314507Y-70689504D01*
X150291303Y-70695316D01*
X150267642Y-70698826D01*
X150243750Y-70700000D01*
X149756250Y-70700000D01*
X149732358Y-70698826D01*
X149708697Y-70695316D01*
X149685493Y-70689504D01*
X149662971Y-70681446D01*
X149641347Y-70671218D01*
X149620830Y-70658921D01*
X149601617Y-70644671D01*
X149583893Y-70628607D01*
X149567829Y-70610883D01*
X149553579Y-70591670D01*
X149541282Y-70571153D01*
X149531054Y-70549529D01*
X149522996Y-70527007D01*
X149517184Y-70503803D01*
X149513674Y-70480142D01*
X149512500Y-70456250D01*
X149512500Y-69543750D01*
X149513674Y-69519858D01*
X149517184Y-69496197D01*
X149522996Y-69472993D01*
X149531054Y-69450471D01*
X149541282Y-69428847D01*
X149553579Y-69408330D01*
X149567829Y-69389117D01*
X149583893Y-69371393D01*
X149601617Y-69355329D01*
X149620830Y-69341079D01*
X149641347Y-69328782D01*
X149662971Y-69318554D01*
X149685493Y-69310496D01*
X149708697Y-69304684D01*
X149732358Y-69301174D01*
X149756250Y-69300000D01*
X150243750Y-69300000D01*
X150267642Y-69301174D01*
X150267642Y-69301174D01*
G37*
D12*
X150000000Y-70000000D03*
D11*
G36*
X160205142Y-63551174D02*
G01*
X160228803Y-63554684D01*
X160252007Y-63560496D01*
X160274529Y-63568554D01*
X160296153Y-63578782D01*
X160316670Y-63591079D01*
X160335883Y-63605329D01*
X160353607Y-63621393D01*
X160369671Y-63639117D01*
X160383921Y-63658330D01*
X160396218Y-63678847D01*
X160406446Y-63700471D01*
X160414504Y-63722993D01*
X160420316Y-63746197D01*
X160423826Y-63769858D01*
X160425000Y-63793750D01*
X160425000Y-64706250D01*
X160423826Y-64730142D01*
X160420316Y-64753803D01*
X160414504Y-64777007D01*
X160406446Y-64799529D01*
X160396218Y-64821153D01*
X160383921Y-64841670D01*
X160369671Y-64860883D01*
X160353607Y-64878607D01*
X160335883Y-64894671D01*
X160316670Y-64908921D01*
X160296153Y-64921218D01*
X160274529Y-64931446D01*
X160252007Y-64939504D01*
X160228803Y-64945316D01*
X160205142Y-64948826D01*
X160181250Y-64950000D01*
X159693750Y-64950000D01*
X159669858Y-64948826D01*
X159646197Y-64945316D01*
X159622993Y-64939504D01*
X159600471Y-64931446D01*
X159578847Y-64921218D01*
X159558330Y-64908921D01*
X159539117Y-64894671D01*
X159521393Y-64878607D01*
X159505329Y-64860883D01*
X159491079Y-64841670D01*
X159478782Y-64821153D01*
X159468554Y-64799529D01*
X159460496Y-64777007D01*
X159454684Y-64753803D01*
X159451174Y-64730142D01*
X159450000Y-64706250D01*
X159450000Y-63793750D01*
X159451174Y-63769858D01*
X159454684Y-63746197D01*
X159460496Y-63722993D01*
X159468554Y-63700471D01*
X159478782Y-63678847D01*
X159491079Y-63658330D01*
X159505329Y-63639117D01*
X159521393Y-63621393D01*
X159539117Y-63605329D01*
X159558330Y-63591079D01*
X159578847Y-63578782D01*
X159600471Y-63568554D01*
X159622993Y-63560496D01*
X159646197Y-63554684D01*
X159669858Y-63551174D01*
X159693750Y-63550000D01*
X160181250Y-63550000D01*
X160205142Y-63551174D01*
X160205142Y-63551174D01*
G37*
D12*
X159937500Y-64250000D03*
D11*
G36*
X158330142Y-63551174D02*
G01*
X158353803Y-63554684D01*
X158377007Y-63560496D01*
X158399529Y-63568554D01*
X158421153Y-63578782D01*
X158441670Y-63591079D01*
X158460883Y-63605329D01*
X158478607Y-63621393D01*
X158494671Y-63639117D01*
X158508921Y-63658330D01*
X158521218Y-63678847D01*
X158531446Y-63700471D01*
X158539504Y-63722993D01*
X158545316Y-63746197D01*
X158548826Y-63769858D01*
X158550000Y-63793750D01*
X158550000Y-64706250D01*
X158548826Y-64730142D01*
X158545316Y-64753803D01*
X158539504Y-64777007D01*
X158531446Y-64799529D01*
X158521218Y-64821153D01*
X158508921Y-64841670D01*
X158494671Y-64860883D01*
X158478607Y-64878607D01*
X158460883Y-64894671D01*
X158441670Y-64908921D01*
X158421153Y-64921218D01*
X158399529Y-64931446D01*
X158377007Y-64939504D01*
X158353803Y-64945316D01*
X158330142Y-64948826D01*
X158306250Y-64950000D01*
X157818750Y-64950000D01*
X157794858Y-64948826D01*
X157771197Y-64945316D01*
X157747993Y-64939504D01*
X157725471Y-64931446D01*
X157703847Y-64921218D01*
X157683330Y-64908921D01*
X157664117Y-64894671D01*
X157646393Y-64878607D01*
X157630329Y-64860883D01*
X157616079Y-64841670D01*
X157603782Y-64821153D01*
X157593554Y-64799529D01*
X157585496Y-64777007D01*
X157579684Y-64753803D01*
X157576174Y-64730142D01*
X157575000Y-64706250D01*
X157575000Y-63793750D01*
X157576174Y-63769858D01*
X157579684Y-63746197D01*
X157585496Y-63722993D01*
X157593554Y-63700471D01*
X157603782Y-63678847D01*
X157616079Y-63658330D01*
X157630329Y-63639117D01*
X157646393Y-63621393D01*
X157664117Y-63605329D01*
X157683330Y-63591079D01*
X157703847Y-63578782D01*
X157725471Y-63568554D01*
X157747993Y-63560496D01*
X157771197Y-63554684D01*
X157794858Y-63551174D01*
X157818750Y-63550000D01*
X158306250Y-63550000D01*
X158330142Y-63551174D01*
X158330142Y-63551174D01*
G37*
D12*
X158062500Y-64250000D03*
D11*
G36*
X169767642Y-69051174D02*
G01*
X169791303Y-69054684D01*
X169814507Y-69060496D01*
X169837029Y-69068554D01*
X169858653Y-69078782D01*
X169879170Y-69091079D01*
X169898383Y-69105329D01*
X169916107Y-69121393D01*
X169932171Y-69139117D01*
X169946421Y-69158330D01*
X169958718Y-69178847D01*
X169968946Y-69200471D01*
X169977004Y-69222993D01*
X169982816Y-69246197D01*
X169986326Y-69269858D01*
X169987500Y-69293750D01*
X169987500Y-70206250D01*
X169986326Y-70230142D01*
X169982816Y-70253803D01*
X169977004Y-70277007D01*
X169968946Y-70299529D01*
X169958718Y-70321153D01*
X169946421Y-70341670D01*
X169932171Y-70360883D01*
X169916107Y-70378607D01*
X169898383Y-70394671D01*
X169879170Y-70408921D01*
X169858653Y-70421218D01*
X169837029Y-70431446D01*
X169814507Y-70439504D01*
X169791303Y-70445316D01*
X169767642Y-70448826D01*
X169743750Y-70450000D01*
X169256250Y-70450000D01*
X169232358Y-70448826D01*
X169208697Y-70445316D01*
X169185493Y-70439504D01*
X169162971Y-70431446D01*
X169141347Y-70421218D01*
X169120830Y-70408921D01*
X169101617Y-70394671D01*
X169083893Y-70378607D01*
X169067829Y-70360883D01*
X169053579Y-70341670D01*
X169041282Y-70321153D01*
X169031054Y-70299529D01*
X169022996Y-70277007D01*
X169017184Y-70253803D01*
X169013674Y-70230142D01*
X169012500Y-70206250D01*
X169012500Y-69293750D01*
X169013674Y-69269858D01*
X169017184Y-69246197D01*
X169022996Y-69222993D01*
X169031054Y-69200471D01*
X169041282Y-69178847D01*
X169053579Y-69158330D01*
X169067829Y-69139117D01*
X169083893Y-69121393D01*
X169101617Y-69105329D01*
X169120830Y-69091079D01*
X169141347Y-69078782D01*
X169162971Y-69068554D01*
X169185493Y-69060496D01*
X169208697Y-69054684D01*
X169232358Y-69051174D01*
X169256250Y-69050000D01*
X169743750Y-69050000D01*
X169767642Y-69051174D01*
X169767642Y-69051174D01*
G37*
D12*
X169500000Y-69750000D03*
D11*
G36*
X167892642Y-69051174D02*
G01*
X167916303Y-69054684D01*
X167939507Y-69060496D01*
X167962029Y-69068554D01*
X167983653Y-69078782D01*
X168004170Y-69091079D01*
X168023383Y-69105329D01*
X168041107Y-69121393D01*
X168057171Y-69139117D01*
X168071421Y-69158330D01*
X168083718Y-69178847D01*
X168093946Y-69200471D01*
X168102004Y-69222993D01*
X168107816Y-69246197D01*
X168111326Y-69269858D01*
X168112500Y-69293750D01*
X168112500Y-70206250D01*
X168111326Y-70230142D01*
X168107816Y-70253803D01*
X168102004Y-70277007D01*
X168093946Y-70299529D01*
X168083718Y-70321153D01*
X168071421Y-70341670D01*
X168057171Y-70360883D01*
X168041107Y-70378607D01*
X168023383Y-70394671D01*
X168004170Y-70408921D01*
X167983653Y-70421218D01*
X167962029Y-70431446D01*
X167939507Y-70439504D01*
X167916303Y-70445316D01*
X167892642Y-70448826D01*
X167868750Y-70450000D01*
X167381250Y-70450000D01*
X167357358Y-70448826D01*
X167333697Y-70445316D01*
X167310493Y-70439504D01*
X167287971Y-70431446D01*
X167266347Y-70421218D01*
X167245830Y-70408921D01*
X167226617Y-70394671D01*
X167208893Y-70378607D01*
X167192829Y-70360883D01*
X167178579Y-70341670D01*
X167166282Y-70321153D01*
X167156054Y-70299529D01*
X167147996Y-70277007D01*
X167142184Y-70253803D01*
X167138674Y-70230142D01*
X167137500Y-70206250D01*
X167137500Y-69293750D01*
X167138674Y-69269858D01*
X167142184Y-69246197D01*
X167147996Y-69222993D01*
X167156054Y-69200471D01*
X167166282Y-69178847D01*
X167178579Y-69158330D01*
X167192829Y-69139117D01*
X167208893Y-69121393D01*
X167226617Y-69105329D01*
X167245830Y-69091079D01*
X167266347Y-69078782D01*
X167287971Y-69068554D01*
X167310493Y-69060496D01*
X167333697Y-69054684D01*
X167357358Y-69051174D01*
X167381250Y-69050000D01*
X167868750Y-69050000D01*
X167892642Y-69051174D01*
X167892642Y-69051174D01*
G37*
D12*
X167625000Y-69750000D03*
D11*
G36*
X167892642Y-66301174D02*
G01*
X167916303Y-66304684D01*
X167939507Y-66310496D01*
X167962029Y-66318554D01*
X167983653Y-66328782D01*
X168004170Y-66341079D01*
X168023383Y-66355329D01*
X168041107Y-66371393D01*
X168057171Y-66389117D01*
X168071421Y-66408330D01*
X168083718Y-66428847D01*
X168093946Y-66450471D01*
X168102004Y-66472993D01*
X168107816Y-66496197D01*
X168111326Y-66519858D01*
X168112500Y-66543750D01*
X168112500Y-67456250D01*
X168111326Y-67480142D01*
X168107816Y-67503803D01*
X168102004Y-67527007D01*
X168093946Y-67549529D01*
X168083718Y-67571153D01*
X168071421Y-67591670D01*
X168057171Y-67610883D01*
X168041107Y-67628607D01*
X168023383Y-67644671D01*
X168004170Y-67658921D01*
X167983653Y-67671218D01*
X167962029Y-67681446D01*
X167939507Y-67689504D01*
X167916303Y-67695316D01*
X167892642Y-67698826D01*
X167868750Y-67700000D01*
X167381250Y-67700000D01*
X167357358Y-67698826D01*
X167333697Y-67695316D01*
X167310493Y-67689504D01*
X167287971Y-67681446D01*
X167266347Y-67671218D01*
X167245830Y-67658921D01*
X167226617Y-67644671D01*
X167208893Y-67628607D01*
X167192829Y-67610883D01*
X167178579Y-67591670D01*
X167166282Y-67571153D01*
X167156054Y-67549529D01*
X167147996Y-67527007D01*
X167142184Y-67503803D01*
X167138674Y-67480142D01*
X167137500Y-67456250D01*
X167137500Y-66543750D01*
X167138674Y-66519858D01*
X167142184Y-66496197D01*
X167147996Y-66472993D01*
X167156054Y-66450471D01*
X167166282Y-66428847D01*
X167178579Y-66408330D01*
X167192829Y-66389117D01*
X167208893Y-66371393D01*
X167226617Y-66355329D01*
X167245830Y-66341079D01*
X167266347Y-66328782D01*
X167287971Y-66318554D01*
X167310493Y-66310496D01*
X167333697Y-66304684D01*
X167357358Y-66301174D01*
X167381250Y-66300000D01*
X167868750Y-66300000D01*
X167892642Y-66301174D01*
X167892642Y-66301174D01*
G37*
D12*
X167625000Y-67000000D03*
D11*
G36*
X169767642Y-66301174D02*
G01*
X169791303Y-66304684D01*
X169814507Y-66310496D01*
X169837029Y-66318554D01*
X169858653Y-66328782D01*
X169879170Y-66341079D01*
X169898383Y-66355329D01*
X169916107Y-66371393D01*
X169932171Y-66389117D01*
X169946421Y-66408330D01*
X169958718Y-66428847D01*
X169968946Y-66450471D01*
X169977004Y-66472993D01*
X169982816Y-66496197D01*
X169986326Y-66519858D01*
X169987500Y-66543750D01*
X169987500Y-67456250D01*
X169986326Y-67480142D01*
X169982816Y-67503803D01*
X169977004Y-67527007D01*
X169968946Y-67549529D01*
X169958718Y-67571153D01*
X169946421Y-67591670D01*
X169932171Y-67610883D01*
X169916107Y-67628607D01*
X169898383Y-67644671D01*
X169879170Y-67658921D01*
X169858653Y-67671218D01*
X169837029Y-67681446D01*
X169814507Y-67689504D01*
X169791303Y-67695316D01*
X169767642Y-67698826D01*
X169743750Y-67700000D01*
X169256250Y-67700000D01*
X169232358Y-67698826D01*
X169208697Y-67695316D01*
X169185493Y-67689504D01*
X169162971Y-67681446D01*
X169141347Y-67671218D01*
X169120830Y-67658921D01*
X169101617Y-67644671D01*
X169083893Y-67628607D01*
X169067829Y-67610883D01*
X169053579Y-67591670D01*
X169041282Y-67571153D01*
X169031054Y-67549529D01*
X169022996Y-67527007D01*
X169017184Y-67503803D01*
X169013674Y-67480142D01*
X169012500Y-67456250D01*
X169012500Y-66543750D01*
X169013674Y-66519858D01*
X169017184Y-66496197D01*
X169022996Y-66472993D01*
X169031054Y-66450471D01*
X169041282Y-66428847D01*
X169053579Y-66408330D01*
X169067829Y-66389117D01*
X169083893Y-66371393D01*
X169101617Y-66355329D01*
X169120830Y-66341079D01*
X169141347Y-66328782D01*
X169162971Y-66318554D01*
X169185493Y-66310496D01*
X169208697Y-66304684D01*
X169232358Y-66301174D01*
X169256250Y-66300000D01*
X169743750Y-66300000D01*
X169767642Y-66301174D01*
X169767642Y-66301174D01*
G37*
D12*
X169500000Y-67000000D03*
D11*
G36*
X154642642Y-72801174D02*
G01*
X154666303Y-72804684D01*
X154689507Y-72810496D01*
X154712029Y-72818554D01*
X154733653Y-72828782D01*
X154754170Y-72841079D01*
X154773383Y-72855329D01*
X154791107Y-72871393D01*
X154807171Y-72889117D01*
X154821421Y-72908330D01*
X154833718Y-72928847D01*
X154843946Y-72950471D01*
X154852004Y-72972993D01*
X154857816Y-72996197D01*
X154861326Y-73019858D01*
X154862500Y-73043750D01*
X154862500Y-73956250D01*
X154861326Y-73980142D01*
X154857816Y-74003803D01*
X154852004Y-74027007D01*
X154843946Y-74049529D01*
X154833718Y-74071153D01*
X154821421Y-74091670D01*
X154807171Y-74110883D01*
X154791107Y-74128607D01*
X154773383Y-74144671D01*
X154754170Y-74158921D01*
X154733653Y-74171218D01*
X154712029Y-74181446D01*
X154689507Y-74189504D01*
X154666303Y-74195316D01*
X154642642Y-74198826D01*
X154618750Y-74200000D01*
X154131250Y-74200000D01*
X154107358Y-74198826D01*
X154083697Y-74195316D01*
X154060493Y-74189504D01*
X154037971Y-74181446D01*
X154016347Y-74171218D01*
X153995830Y-74158921D01*
X153976617Y-74144671D01*
X153958893Y-74128607D01*
X153942829Y-74110883D01*
X153928579Y-74091670D01*
X153916282Y-74071153D01*
X153906054Y-74049529D01*
X153897996Y-74027007D01*
X153892184Y-74003803D01*
X153888674Y-73980142D01*
X153887500Y-73956250D01*
X153887500Y-73043750D01*
X153888674Y-73019858D01*
X153892184Y-72996197D01*
X153897996Y-72972993D01*
X153906054Y-72950471D01*
X153916282Y-72928847D01*
X153928579Y-72908330D01*
X153942829Y-72889117D01*
X153958893Y-72871393D01*
X153976617Y-72855329D01*
X153995830Y-72841079D01*
X154016347Y-72828782D01*
X154037971Y-72818554D01*
X154060493Y-72810496D01*
X154083697Y-72804684D01*
X154107358Y-72801174D01*
X154131250Y-72800000D01*
X154618750Y-72800000D01*
X154642642Y-72801174D01*
X154642642Y-72801174D01*
G37*
D12*
X154375000Y-73500000D03*
D11*
G36*
X156517642Y-72801174D02*
G01*
X156541303Y-72804684D01*
X156564507Y-72810496D01*
X156587029Y-72818554D01*
X156608653Y-72828782D01*
X156629170Y-72841079D01*
X156648383Y-72855329D01*
X156666107Y-72871393D01*
X156682171Y-72889117D01*
X156696421Y-72908330D01*
X156708718Y-72928847D01*
X156718946Y-72950471D01*
X156727004Y-72972993D01*
X156732816Y-72996197D01*
X156736326Y-73019858D01*
X156737500Y-73043750D01*
X156737500Y-73956250D01*
X156736326Y-73980142D01*
X156732816Y-74003803D01*
X156727004Y-74027007D01*
X156718946Y-74049529D01*
X156708718Y-74071153D01*
X156696421Y-74091670D01*
X156682171Y-74110883D01*
X156666107Y-74128607D01*
X156648383Y-74144671D01*
X156629170Y-74158921D01*
X156608653Y-74171218D01*
X156587029Y-74181446D01*
X156564507Y-74189504D01*
X156541303Y-74195316D01*
X156517642Y-74198826D01*
X156493750Y-74200000D01*
X156006250Y-74200000D01*
X155982358Y-74198826D01*
X155958697Y-74195316D01*
X155935493Y-74189504D01*
X155912971Y-74181446D01*
X155891347Y-74171218D01*
X155870830Y-74158921D01*
X155851617Y-74144671D01*
X155833893Y-74128607D01*
X155817829Y-74110883D01*
X155803579Y-74091670D01*
X155791282Y-74071153D01*
X155781054Y-74049529D01*
X155772996Y-74027007D01*
X155767184Y-74003803D01*
X155763674Y-73980142D01*
X155762500Y-73956250D01*
X155762500Y-73043750D01*
X155763674Y-73019858D01*
X155767184Y-72996197D01*
X155772996Y-72972993D01*
X155781054Y-72950471D01*
X155791282Y-72928847D01*
X155803579Y-72908330D01*
X155817829Y-72889117D01*
X155833893Y-72871393D01*
X155851617Y-72855329D01*
X155870830Y-72841079D01*
X155891347Y-72828782D01*
X155912971Y-72818554D01*
X155935493Y-72810496D01*
X155958697Y-72804684D01*
X155982358Y-72801174D01*
X156006250Y-72800000D01*
X156493750Y-72800000D01*
X156517642Y-72801174D01*
X156517642Y-72801174D01*
G37*
D12*
X156250000Y-73500000D03*
D11*
G36*
X152892642Y-72801174D02*
G01*
X152916303Y-72804684D01*
X152939507Y-72810496D01*
X152962029Y-72818554D01*
X152983653Y-72828782D01*
X153004170Y-72841079D01*
X153023383Y-72855329D01*
X153041107Y-72871393D01*
X153057171Y-72889117D01*
X153071421Y-72908330D01*
X153083718Y-72928847D01*
X153093946Y-72950471D01*
X153102004Y-72972993D01*
X153107816Y-72996197D01*
X153111326Y-73019858D01*
X153112500Y-73043750D01*
X153112500Y-73956250D01*
X153111326Y-73980142D01*
X153107816Y-74003803D01*
X153102004Y-74027007D01*
X153093946Y-74049529D01*
X153083718Y-74071153D01*
X153071421Y-74091670D01*
X153057171Y-74110883D01*
X153041107Y-74128607D01*
X153023383Y-74144671D01*
X153004170Y-74158921D01*
X152983653Y-74171218D01*
X152962029Y-74181446D01*
X152939507Y-74189504D01*
X152916303Y-74195316D01*
X152892642Y-74198826D01*
X152868750Y-74200000D01*
X152381250Y-74200000D01*
X152357358Y-74198826D01*
X152333697Y-74195316D01*
X152310493Y-74189504D01*
X152287971Y-74181446D01*
X152266347Y-74171218D01*
X152245830Y-74158921D01*
X152226617Y-74144671D01*
X152208893Y-74128607D01*
X152192829Y-74110883D01*
X152178579Y-74091670D01*
X152166282Y-74071153D01*
X152156054Y-74049529D01*
X152147996Y-74027007D01*
X152142184Y-74003803D01*
X152138674Y-73980142D01*
X152137500Y-73956250D01*
X152137500Y-73043750D01*
X152138674Y-73019858D01*
X152142184Y-72996197D01*
X152147996Y-72972993D01*
X152156054Y-72950471D01*
X152166282Y-72928847D01*
X152178579Y-72908330D01*
X152192829Y-72889117D01*
X152208893Y-72871393D01*
X152226617Y-72855329D01*
X152245830Y-72841079D01*
X152266347Y-72828782D01*
X152287971Y-72818554D01*
X152310493Y-72810496D01*
X152333697Y-72804684D01*
X152357358Y-72801174D01*
X152381250Y-72800000D01*
X152868750Y-72800000D01*
X152892642Y-72801174D01*
X152892642Y-72801174D01*
G37*
D12*
X152625000Y-73500000D03*
D11*
G36*
X151017642Y-72801174D02*
G01*
X151041303Y-72804684D01*
X151064507Y-72810496D01*
X151087029Y-72818554D01*
X151108653Y-72828782D01*
X151129170Y-72841079D01*
X151148383Y-72855329D01*
X151166107Y-72871393D01*
X151182171Y-72889117D01*
X151196421Y-72908330D01*
X151208718Y-72928847D01*
X151218946Y-72950471D01*
X151227004Y-72972993D01*
X151232816Y-72996197D01*
X151236326Y-73019858D01*
X151237500Y-73043750D01*
X151237500Y-73956250D01*
X151236326Y-73980142D01*
X151232816Y-74003803D01*
X151227004Y-74027007D01*
X151218946Y-74049529D01*
X151208718Y-74071153D01*
X151196421Y-74091670D01*
X151182171Y-74110883D01*
X151166107Y-74128607D01*
X151148383Y-74144671D01*
X151129170Y-74158921D01*
X151108653Y-74171218D01*
X151087029Y-74181446D01*
X151064507Y-74189504D01*
X151041303Y-74195316D01*
X151017642Y-74198826D01*
X150993750Y-74200000D01*
X150506250Y-74200000D01*
X150482358Y-74198826D01*
X150458697Y-74195316D01*
X150435493Y-74189504D01*
X150412971Y-74181446D01*
X150391347Y-74171218D01*
X150370830Y-74158921D01*
X150351617Y-74144671D01*
X150333893Y-74128607D01*
X150317829Y-74110883D01*
X150303579Y-74091670D01*
X150291282Y-74071153D01*
X150281054Y-74049529D01*
X150272996Y-74027007D01*
X150267184Y-74003803D01*
X150263674Y-73980142D01*
X150262500Y-73956250D01*
X150262500Y-73043750D01*
X150263674Y-73019858D01*
X150267184Y-72996197D01*
X150272996Y-72972993D01*
X150281054Y-72950471D01*
X150291282Y-72928847D01*
X150303579Y-72908330D01*
X150317829Y-72889117D01*
X150333893Y-72871393D01*
X150351617Y-72855329D01*
X150370830Y-72841079D01*
X150391347Y-72828782D01*
X150412971Y-72818554D01*
X150435493Y-72810496D01*
X150458697Y-72804684D01*
X150482358Y-72801174D01*
X150506250Y-72800000D01*
X150993750Y-72800000D01*
X151017642Y-72801174D01*
X151017642Y-72801174D01*
G37*
D12*
X150750000Y-73500000D03*
D13*
X146750000Y-63830000D03*
D14*
X146750000Y-61290000D03*
X146750000Y-58750000D03*
D13*
X156020000Y-87870000D03*
D14*
X156020000Y-85330000D03*
X156020000Y-82790000D03*
X156020000Y-80250000D03*
X156020000Y-77710000D03*
D13*
X163230000Y-77750000D03*
D14*
X163230000Y-80290000D03*
X163230000Y-82830000D03*
X163230000Y-85370000D03*
X163230000Y-87910000D03*
X163230000Y-90450000D03*
X161090000Y-60500000D03*
X163630000Y-60500000D03*
X166170000Y-60500000D03*
X168710000Y-60500000D03*
D13*
X171250000Y-60500000D03*
D15*
X155750000Y-58200000D03*
X155750000Y-64000000D03*
X151750000Y-58200000D03*
X151750000Y-64000000D03*
D16*
X158875001Y-67900001D03*
X158875001Y-68550001D03*
X158875001Y-69200001D03*
X158875001Y-69850001D03*
X158875001Y-70500001D03*
X158875001Y-71150001D03*
X158875001Y-71800001D03*
X158875001Y-72450001D03*
X158875001Y-73100001D03*
X158875001Y-73750001D03*
X164775001Y-73750001D03*
X164775001Y-73100001D03*
X164775001Y-72450001D03*
X164775001Y-71800001D03*
X164775001Y-71150001D03*
X164775001Y-70500001D03*
X164775001Y-69850001D03*
X164775001Y-69200001D03*
X164775001Y-68550001D03*
X164775001Y-67900001D03*
D17*
X154750000Y-67550000D03*
X154750000Y-71250000D03*
D18*
X149250000Y-61000000D03*
X161750000Y-64500000D03*
X161750000Y-70500000D03*
X147000000Y-68000000D03*
X147000000Y-76000000D03*
X168000000Y-76500000D03*
X172500000Y-71750000D03*
X166500000Y-66000000D03*
X153000000Y-75000000D03*
X160262653Y-73262653D03*
X160250000Y-72250000D03*
X163000000Y-69750000D03*
D19*
X168099999Y-71150001D02*
X169500000Y-69750000D01*
X164775001Y-71150001D02*
X168099999Y-71150001D01*
X153573113Y-72943763D02*
X152629350Y-72000000D01*
X154375000Y-73500000D02*
X153818763Y-72943763D01*
X153818763Y-72943763D02*
X153573113Y-72943763D01*
X152629350Y-72000000D02*
X151750000Y-72000000D01*
X155750001Y-68550001D02*
X154750000Y-67550000D01*
X158875001Y-68550001D02*
X155750001Y-68550001D01*
X152325000Y-67550000D02*
X151875000Y-68000000D01*
X154750000Y-67550000D02*
X152325000Y-67550000D01*
X148349999Y-62139999D02*
X147500000Y-61290000D01*
X148675001Y-62465001D02*
X148349999Y-62139999D01*
X148675001Y-63410003D02*
X148675001Y-62465001D01*
X152814998Y-67550000D02*
X148675001Y-63410003D01*
X154750000Y-67550000D02*
X152814998Y-67550000D01*
X154750000Y-70000000D02*
X154750000Y-71250000D01*
X155549999Y-69200001D02*
X154750000Y-70000000D01*
X158875001Y-69200001D02*
X155549999Y-69200001D01*
X153125000Y-71250000D02*
X151875000Y-70000000D01*
X154750000Y-71250000D02*
X153125000Y-71250000D01*
X147850000Y-63830000D02*
X146750000Y-63830000D01*
X150812510Y-66792510D02*
X147850000Y-63830000D01*
X151875000Y-70000000D02*
X150812510Y-68937510D01*
X150812510Y-68937510D02*
X150812510Y-66792510D01*
X157812500Y-64500000D02*
X158062500Y-64250000D01*
X155750000Y-64500000D02*
X157812500Y-64500000D01*
X158618737Y-64806237D02*
X158062500Y-64250000D01*
X159925002Y-66112502D02*
X158618737Y-64806237D01*
X159925002Y-69775000D02*
X159925002Y-66112502D01*
X159850001Y-69850001D02*
X159925002Y-69775000D01*
X158875001Y-69850001D02*
X159850001Y-69850001D01*
X163445010Y-63224990D02*
X165320001Y-61349999D01*
X165320001Y-61349999D02*
X166170000Y-60500000D01*
X159087510Y-63224990D02*
X163445010Y-63224990D01*
X158062500Y-64250000D02*
X159087510Y-63224990D01*
X155750000Y-64500000D02*
X155750000Y-58700000D01*
X167625000Y-69750000D02*
X167625000Y-67000000D01*
X165750001Y-70500001D02*
X164775001Y-70500001D01*
X166287499Y-70500001D02*
X165750001Y-70500001D01*
X167037500Y-69750000D02*
X166287499Y-70500001D01*
X167625000Y-69750000D02*
X167037500Y-69750000D01*
X166625000Y-66000000D02*
X167625000Y-67000000D01*
X166500000Y-66000000D02*
X166625000Y-66000000D01*
X156806237Y-72943763D02*
X156250000Y-73500000D01*
X156806237Y-71683763D02*
X156806237Y-72943763D01*
X157989999Y-70500001D02*
X156806237Y-71683763D01*
X158875001Y-70500001D02*
X157989999Y-70500001D01*
X155693763Y-74056237D02*
X156250000Y-73500000D01*
X155224990Y-74525010D02*
X155693763Y-74056237D01*
X153650010Y-74525010D02*
X155224990Y-74525010D01*
X153399999Y-74600001D02*
X153399999Y-74350001D01*
X153399999Y-74350001D02*
X153437500Y-74312500D01*
X153000000Y-75000000D02*
X153399999Y-74600001D01*
X152625000Y-73500000D02*
X153437500Y-74312500D01*
X153437500Y-74312500D02*
X153650010Y-74525010D01*
X148702081Y-58750000D02*
X147500000Y-58750000D01*
X148985002Y-58750000D02*
X148702081Y-58750000D01*
X152575001Y-62339999D02*
X148985002Y-58750000D01*
X152575001Y-63310003D02*
X152575001Y-62339999D01*
X154989999Y-65725001D02*
X152575001Y-63310003D01*
X157175001Y-65725001D02*
X154989999Y-65725001D01*
X158875001Y-67425001D02*
X157175001Y-65725001D01*
X158875001Y-67900001D02*
X158875001Y-67425001D01*
X158156267Y-74093733D02*
X158499999Y-73750001D01*
X158499999Y-73750001D02*
X158875001Y-73750001D01*
X158156267Y-86833733D02*
X158156267Y-74093733D01*
X156020000Y-87870000D02*
X157120000Y-87870000D01*
X157120000Y-87870000D02*
X158156267Y-86833733D01*
X158875001Y-73100001D02*
X160100001Y-73100001D01*
X160100001Y-73100001D02*
X160262653Y-73262653D01*
X158875001Y-72450001D02*
X160049999Y-72450001D01*
X160049999Y-72450001D02*
X160250000Y-72250000D01*
X157706257Y-72180153D02*
X157706257Y-78563743D01*
X158086409Y-71800001D02*
X157706257Y-72180153D01*
X156869999Y-79400001D02*
X156020000Y-80250000D01*
X157706257Y-78563743D02*
X156869999Y-79400001D01*
X158875001Y-71800001D02*
X158086409Y-71800001D01*
X156869999Y-76860001D02*
X156020000Y-77710000D01*
X157256247Y-71993753D02*
X157256247Y-76473753D01*
X157256247Y-76473753D02*
X156869999Y-76860001D01*
X158099999Y-71150001D02*
X157256247Y-71993753D01*
X158875001Y-71150001D02*
X158099999Y-71150001D01*
X164275001Y-73750001D02*
X164775001Y-73750001D01*
X163230000Y-74795002D02*
X164275001Y-73750001D01*
X163230000Y-77750000D02*
X163230000Y-74795002D01*
X164649990Y-78870010D02*
X164649990Y-76850010D01*
X163230000Y-80290000D02*
X164649990Y-78870010D01*
X165750001Y-73100001D02*
X164775001Y-73100001D01*
X165825002Y-73175002D02*
X165750001Y-73100001D01*
X164649990Y-76850010D02*
X165825002Y-75674998D01*
X165825002Y-75674998D02*
X165825002Y-73175002D01*
X162054999Y-74195003D02*
X163800001Y-72450001D01*
X162054999Y-81654999D02*
X162054999Y-74195003D01*
X163800001Y-72450001D02*
X164775001Y-72450001D01*
X163230000Y-82830000D02*
X162054999Y-81654999D01*
X163800001Y-71800001D02*
X164775001Y-71800001D01*
X161604990Y-73995012D02*
X163800001Y-71800001D01*
X163230000Y-85370000D02*
X163230000Y-84569002D01*
X161604990Y-82943991D02*
X161604990Y-73995012D01*
X163230000Y-84569002D02*
X161604990Y-82943991D01*
X163250000Y-87830000D02*
X163250000Y-87250000D01*
X163725000Y-70015000D02*
X163790000Y-69950000D01*
X163725000Y-71238592D02*
X163725000Y-70015000D01*
X161154981Y-73808611D02*
X163725000Y-71238592D01*
X163230000Y-87910000D02*
X161154980Y-85834980D01*
X161154980Y-85834980D02*
X161154981Y-73808611D01*
X163800001Y-69850001D02*
X164775001Y-69850001D01*
X163790000Y-69860002D02*
X163800001Y-69850001D01*
X163790000Y-69950000D02*
X163790000Y-69860002D01*
X164775001Y-69200001D02*
X163549999Y-69200001D01*
X163549999Y-69200001D02*
X163000000Y-69750000D01*
X165774999Y-65651999D02*
X165774999Y-67024999D01*
X166151999Y-65274999D02*
X165774999Y-65651999D01*
X167575001Y-65274999D02*
X166151999Y-65274999D01*
X171250000Y-60500000D02*
X171250000Y-61600000D01*
X171250000Y-61600000D02*
X167575001Y-65274999D01*
X165774999Y-67024999D02*
X166250000Y-67500000D01*
X166250000Y-67500000D02*
X166250000Y-68250000D01*
X165949999Y-68550001D02*
X164775001Y-68550001D01*
X166250000Y-68250000D02*
X165949999Y-68550001D01*
X167463590Y-64750000D02*
X168731795Y-63481795D01*
X168710000Y-63460000D02*
X168710000Y-60500000D01*
X168731795Y-63481795D02*
X168710000Y-63460000D01*
X166040588Y-64750000D02*
X167463590Y-64750000D01*
X164775001Y-67900001D02*
X164775001Y-66015587D01*
X164775001Y-66015587D02*
X166040588Y-64750000D01*
D20*
G36*
X149608589Y-66663391D02*
G01*
X149512500Y-66661928D01*
X149388018Y-66674188D01*
X149268320Y-66710498D01*
X149158006Y-66769463D01*
X149061315Y-66848815D01*
X148981963Y-66945506D01*
X148922998Y-67055820D01*
X148886688Y-67175518D01*
X148874428Y-67300000D01*
X148877500Y-67714250D01*
X149036250Y-67873000D01*
X149873000Y-67873000D01*
X149873000Y-67853000D01*
X150052511Y-67853000D01*
X150052510Y-68900187D01*
X150048834Y-68937510D01*
X150052510Y-68974832D01*
X150052510Y-68974842D01*
X150063507Y-69086495D01*
X150102496Y-69215027D01*
X150106964Y-69229756D01*
X150127000Y-69267240D01*
X150127000Y-69873000D01*
X150147000Y-69873000D01*
X150147000Y-70127000D01*
X150127000Y-70127000D01*
X150127000Y-71176250D01*
X150285750Y-71335000D01*
X150487500Y-71338072D01*
X150611982Y-71325812D01*
X150731680Y-71289502D01*
X150841994Y-71230537D01*
X150938685Y-71151185D01*
X151002492Y-71073436D01*
X151007708Y-71079792D01*
X151141336Y-71189458D01*
X151293791Y-71270947D01*
X151459215Y-71321128D01*
X151631250Y-71338072D01*
X152118750Y-71338072D01*
X152136520Y-71336322D01*
X152561201Y-71761003D01*
X152584999Y-71790001D01*
X152613997Y-71813799D01*
X152700723Y-71884974D01*
X152801796Y-71938999D01*
X152832753Y-71955546D01*
X152911928Y-71979563D01*
X152911928Y-72166181D01*
X152868750Y-72161928D01*
X152381250Y-72161928D01*
X152209215Y-72178872D01*
X152043791Y-72229053D01*
X151891336Y-72310542D01*
X151757708Y-72420208D01*
X151752492Y-72426564D01*
X151688685Y-72348815D01*
X151591994Y-72269463D01*
X151481680Y-72210498D01*
X151361982Y-72174188D01*
X151237500Y-72161928D01*
X151035750Y-72165000D01*
X150877000Y-72323750D01*
X150877000Y-73373000D01*
X150897000Y-73373000D01*
X150897000Y-73627000D01*
X150877000Y-73627000D01*
X150877000Y-74676250D01*
X151035750Y-74835000D01*
X151237500Y-74838072D01*
X151361982Y-74825812D01*
X151481680Y-74789502D01*
X151591994Y-74730537D01*
X151688685Y-74651185D01*
X151752492Y-74573436D01*
X151757708Y-74579792D01*
X151891336Y-74689458D01*
X151995426Y-74745096D01*
X151965000Y-74898061D01*
X151965000Y-75101939D01*
X152004774Y-75301898D01*
X152082795Y-75490256D01*
X152196063Y-75659774D01*
X152340226Y-75803937D01*
X152509744Y-75917205D01*
X152698102Y-75995226D01*
X152898061Y-76035000D01*
X153101939Y-76035000D01*
X153301898Y-75995226D01*
X153490256Y-75917205D01*
X153659774Y-75803937D01*
X153803937Y-75659774D01*
X153917205Y-75490256D01*
X153995226Y-75301898D01*
X153998585Y-75285010D01*
X155187668Y-75285010D01*
X155224990Y-75288686D01*
X155262312Y-75285010D01*
X155262323Y-75285010D01*
X155373976Y-75274013D01*
X155517237Y-75230556D01*
X155649266Y-75159984D01*
X155764991Y-75065011D01*
X155788794Y-75036007D01*
X155988479Y-74836322D01*
X156006250Y-74838072D01*
X156493750Y-74838072D01*
X156496248Y-74837826D01*
X156496248Y-76158951D01*
X156385996Y-76269203D01*
X156311111Y-76246487D01*
X156092950Y-76225000D01*
X155947050Y-76225000D01*
X155728889Y-76246487D01*
X155448966Y-76331401D01*
X155190986Y-76469294D01*
X154964866Y-76654866D01*
X154779294Y-76880986D01*
X154641401Y-77138966D01*
X154556487Y-77418889D01*
X154536384Y-77623000D01*
X145800592Y-77623000D01*
X145763490Y-77578151D01*
X145709019Y-77477409D01*
X145675150Y-77367996D01*
X145660000Y-77223855D01*
X145660000Y-74200000D01*
X149624428Y-74200000D01*
X149636688Y-74324482D01*
X149672998Y-74444180D01*
X149731963Y-74554494D01*
X149811315Y-74651185D01*
X149908006Y-74730537D01*
X150018320Y-74789502D01*
X150138018Y-74825812D01*
X150262500Y-74838072D01*
X150464250Y-74835000D01*
X150623000Y-74676250D01*
X150623000Y-73627000D01*
X149786250Y-73627000D01*
X149627500Y-73785750D01*
X149624428Y-74200000D01*
X145660000Y-74200000D01*
X145660000Y-72800000D01*
X149624428Y-72800000D01*
X149627500Y-73214250D01*
X149786250Y-73373000D01*
X150623000Y-73373000D01*
X150623000Y-72323750D01*
X150464250Y-72165000D01*
X150262500Y-72161928D01*
X150138018Y-72174188D01*
X150018320Y-72210498D01*
X149908006Y-72269463D01*
X149811315Y-72348815D01*
X149731963Y-72445506D01*
X149672998Y-72555820D01*
X149636688Y-72675518D01*
X149624428Y-72800000D01*
X145660000Y-72800000D01*
X145660000Y-70700000D01*
X148874428Y-70700000D01*
X148886688Y-70824482D01*
X148922998Y-70944180D01*
X148981963Y-71054494D01*
X149061315Y-71151185D01*
X149158006Y-71230537D01*
X149268320Y-71289502D01*
X149388018Y-71325812D01*
X149512500Y-71338072D01*
X149714250Y-71335000D01*
X149873000Y-71176250D01*
X149873000Y-70127000D01*
X149036250Y-70127000D01*
X148877500Y-70285750D01*
X148874428Y-70700000D01*
X145660000Y-70700000D01*
X145660000Y-68700000D01*
X148874428Y-68700000D01*
X148886688Y-68824482D01*
X148922998Y-68944180D01*
X148952835Y-69000000D01*
X148922998Y-69055820D01*
X148886688Y-69175518D01*
X148874428Y-69300000D01*
X148877500Y-69714250D01*
X149036250Y-69873000D01*
X149873000Y-69873000D01*
X149873000Y-68127000D01*
X149036250Y-68127000D01*
X148877500Y-68285750D01*
X148874428Y-68700000D01*
X145660000Y-68700000D01*
X145660000Y-65270770D01*
X145775518Y-65305812D01*
X145900000Y-65318072D01*
X147600000Y-65318072D01*
X147724482Y-65305812D01*
X147844180Y-65269502D01*
X147954494Y-65210537D01*
X148051185Y-65131185D01*
X148062543Y-65117345D01*
X149608589Y-66663391D01*
X149608589Y-66663391D01*
G37*
X149608589Y-66663391D02*
X149512500Y-66661928D01*
X149388018Y-66674188D01*
X149268320Y-66710498D01*
X149158006Y-66769463D01*
X149061315Y-66848815D01*
X148981963Y-66945506D01*
X148922998Y-67055820D01*
X148886688Y-67175518D01*
X148874428Y-67300000D01*
X148877500Y-67714250D01*
X149036250Y-67873000D01*
X149873000Y-67873000D01*
X149873000Y-67853000D01*
X150052511Y-67853000D01*
X150052510Y-68900187D01*
X150048834Y-68937510D01*
X150052510Y-68974832D01*
X150052510Y-68974842D01*
X150063507Y-69086495D01*
X150102496Y-69215027D01*
X150106964Y-69229756D01*
X150127000Y-69267240D01*
X150127000Y-69873000D01*
X150147000Y-69873000D01*
X150147000Y-70127000D01*
X150127000Y-70127000D01*
X150127000Y-71176250D01*
X150285750Y-71335000D01*
X150487500Y-71338072D01*
X150611982Y-71325812D01*
X150731680Y-71289502D01*
X150841994Y-71230537D01*
X150938685Y-71151185D01*
X151002492Y-71073436D01*
X151007708Y-71079792D01*
X151141336Y-71189458D01*
X151293791Y-71270947D01*
X151459215Y-71321128D01*
X151631250Y-71338072D01*
X152118750Y-71338072D01*
X152136520Y-71336322D01*
X152561201Y-71761003D01*
X152584999Y-71790001D01*
X152613997Y-71813799D01*
X152700723Y-71884974D01*
X152801796Y-71938999D01*
X152832753Y-71955546D01*
X152911928Y-71979563D01*
X152911928Y-72166181D01*
X152868750Y-72161928D01*
X152381250Y-72161928D01*
X152209215Y-72178872D01*
X152043791Y-72229053D01*
X151891336Y-72310542D01*
X151757708Y-72420208D01*
X151752492Y-72426564D01*
X151688685Y-72348815D01*
X151591994Y-72269463D01*
X151481680Y-72210498D01*
X151361982Y-72174188D01*
X151237500Y-72161928D01*
X151035750Y-72165000D01*
X150877000Y-72323750D01*
X150877000Y-73373000D01*
X150897000Y-73373000D01*
X150897000Y-73627000D01*
X150877000Y-73627000D01*
X150877000Y-74676250D01*
X151035750Y-74835000D01*
X151237500Y-74838072D01*
X151361982Y-74825812D01*
X151481680Y-74789502D01*
X151591994Y-74730537D01*
X151688685Y-74651185D01*
X151752492Y-74573436D01*
X151757708Y-74579792D01*
X151891336Y-74689458D01*
X151995426Y-74745096D01*
X151965000Y-74898061D01*
X151965000Y-75101939D01*
X152004774Y-75301898D01*
X152082795Y-75490256D01*
X152196063Y-75659774D01*
X152340226Y-75803937D01*
X152509744Y-75917205D01*
X152698102Y-75995226D01*
X152898061Y-76035000D01*
X153101939Y-76035000D01*
X153301898Y-75995226D01*
X153490256Y-75917205D01*
X153659774Y-75803937D01*
X153803937Y-75659774D01*
X153917205Y-75490256D01*
X153995226Y-75301898D01*
X153998585Y-75285010D01*
X155187668Y-75285010D01*
X155224990Y-75288686D01*
X155262312Y-75285010D01*
X155262323Y-75285010D01*
X155373976Y-75274013D01*
X155517237Y-75230556D01*
X155649266Y-75159984D01*
X155764991Y-75065011D01*
X155788794Y-75036007D01*
X155988479Y-74836322D01*
X156006250Y-74838072D01*
X156493750Y-74838072D01*
X156496248Y-74837826D01*
X156496248Y-76158951D01*
X156385996Y-76269203D01*
X156311111Y-76246487D01*
X156092950Y-76225000D01*
X155947050Y-76225000D01*
X155728889Y-76246487D01*
X155448966Y-76331401D01*
X155190986Y-76469294D01*
X154964866Y-76654866D01*
X154779294Y-76880986D01*
X154641401Y-77138966D01*
X154556487Y-77418889D01*
X154536384Y-77623000D01*
X145800592Y-77623000D01*
X145763490Y-77578151D01*
X145709019Y-77477409D01*
X145675150Y-77367996D01*
X145660000Y-77223855D01*
X145660000Y-74200000D01*
X149624428Y-74200000D01*
X149636688Y-74324482D01*
X149672998Y-74444180D01*
X149731963Y-74554494D01*
X149811315Y-74651185D01*
X149908006Y-74730537D01*
X150018320Y-74789502D01*
X150138018Y-74825812D01*
X150262500Y-74838072D01*
X150464250Y-74835000D01*
X150623000Y-74676250D01*
X150623000Y-73627000D01*
X149786250Y-73627000D01*
X149627500Y-73785750D01*
X149624428Y-74200000D01*
X145660000Y-74200000D01*
X145660000Y-72800000D01*
X149624428Y-72800000D01*
X149627500Y-73214250D01*
X149786250Y-73373000D01*
X150623000Y-73373000D01*
X150623000Y-72323750D01*
X150464250Y-72165000D01*
X150262500Y-72161928D01*
X150138018Y-72174188D01*
X150018320Y-72210498D01*
X149908006Y-72269463D01*
X149811315Y-72348815D01*
X149731963Y-72445506D01*
X149672998Y-72555820D01*
X149636688Y-72675518D01*
X149624428Y-72800000D01*
X145660000Y-72800000D01*
X145660000Y-70700000D01*
X148874428Y-70700000D01*
X148886688Y-70824482D01*
X148922998Y-70944180D01*
X148981963Y-71054494D01*
X149061315Y-71151185D01*
X149158006Y-71230537D01*
X149268320Y-71289502D01*
X149388018Y-71325812D01*
X149512500Y-71338072D01*
X149714250Y-71335000D01*
X149873000Y-71176250D01*
X149873000Y-70127000D01*
X149036250Y-70127000D01*
X148877500Y-70285750D01*
X148874428Y-70700000D01*
X145660000Y-70700000D01*
X145660000Y-68700000D01*
X148874428Y-68700000D01*
X148886688Y-68824482D01*
X148922998Y-68944180D01*
X148952835Y-69000000D01*
X148922998Y-69055820D01*
X148886688Y-69175518D01*
X148874428Y-69300000D01*
X148877500Y-69714250D01*
X149036250Y-69873000D01*
X149873000Y-69873000D01*
X149873000Y-68127000D01*
X149036250Y-68127000D01*
X148877500Y-68285750D01*
X148874428Y-68700000D01*
X145660000Y-68700000D01*
X145660000Y-65270770D01*
X145775518Y-65305812D01*
X145900000Y-65318072D01*
X147600000Y-65318072D01*
X147724482Y-65305812D01*
X147844180Y-65269502D01*
X147954494Y-65210537D01*
X148051185Y-65131185D01*
X148062543Y-65117345D01*
X149608589Y-66663391D01*
G36*
X173113985Y-53674341D02*
G01*
X173223625Y-53707443D01*
X173324748Y-53761212D01*
X173413503Y-53833599D01*
X173486509Y-53921848D01*
X173540981Y-54022591D01*
X173574850Y-54132004D01*
X173590000Y-54276145D01*
X173590001Y-73229121D01*
X173509927Y-73236164D01*
X173454730Y-73246520D01*
X173399324Y-73255787D01*
X173390713Y-73258175D01*
X173242282Y-73300444D01*
X173225964Y-73306870D01*
X173208898Y-73310945D01*
X173200470Y-73313918D01*
X172982469Y-73392528D01*
X172981116Y-73393171D01*
X172979655Y-73393549D01*
X172971285Y-73396679D01*
X172543136Y-73560147D01*
X172505835Y-73578742D01*
X172467399Y-73594868D01*
X172450056Y-73606549D01*
X172431350Y-73615874D01*
X172398375Y-73641357D01*
X172363800Y-73664644D01*
X172349057Y-73679470D01*
X172332517Y-73692252D01*
X172305117Y-73723658D01*
X172275726Y-73753214D01*
X172264147Y-73770617D01*
X172250401Y-73786372D01*
X172229617Y-73822513D01*
X172206534Y-73857205D01*
X172198555Y-73876525D01*
X172188132Y-73894650D01*
X172174768Y-73934125D01*
X172158857Y-73972653D01*
X172156329Y-73981224D01*
X172077159Y-74256616D01*
X172077157Y-74256628D01*
X172077074Y-74256909D01*
X172066161Y-74294938D01*
X172066149Y-74295002D01*
X172065881Y-74295918D01*
X172012231Y-74484004D01*
X172012220Y-74484063D01*
X172011962Y-74484950D01*
X171949729Y-74704402D01*
X171949719Y-74704460D01*
X171949484Y-74705270D01*
X171890723Y-74913598D01*
X171835792Y-75102640D01*
X171829598Y-75121551D01*
X171808274Y-75097566D01*
X171784934Y-75079875D01*
X171763554Y-75059853D01*
X171735281Y-75042240D01*
X171708731Y-75022116D01*
X171701084Y-75017492D01*
X171645441Y-74984374D01*
X171613559Y-74969398D01*
X171598921Y-74960315D01*
X171575882Y-74951645D01*
X171534326Y-74931962D01*
X171533319Y-74931708D01*
X171532386Y-74931270D01*
X171501011Y-74923470D01*
X171482018Y-74916323D01*
X171453470Y-74911586D01*
X171413206Y-74901439D01*
X171412174Y-74901386D01*
X171411169Y-74901136D01*
X171382025Y-74899730D01*
X171358797Y-74895876D01*
X171325298Y-74896916D01*
X171288466Y-74895021D01*
X171286524Y-74895125D01*
X171286408Y-74895119D01*
X171286284Y-74895137D01*
X171279542Y-74895497D01*
X171277571Y-74895616D01*
X171255894Y-74899071D01*
X171233951Y-74899752D01*
X171195576Y-74908597D01*
X171162854Y-74913452D01*
X171160590Y-74914260D01*
X171154221Y-74915275D01*
X171133626Y-74922875D01*
X171112236Y-74927805D01*
X171075166Y-74944448D01*
X171050749Y-74953458D01*
X171045215Y-74955433D01*
X171044920Y-74955609D01*
X171037040Y-74958517D01*
X171018315Y-74969971D01*
X170998287Y-74978963D01*
X170990562Y-74983455D01*
X170933487Y-75017180D01*
X170884286Y-75053162D01*
X170834957Y-75088874D01*
X170832775Y-75090833D01*
X170832665Y-75090913D01*
X170832568Y-75091018D01*
X170828307Y-75094843D01*
X170738132Y-75176906D01*
X170722247Y-75194489D01*
X170704350Y-75210013D01*
X170698249Y-75216542D01*
X170600086Y-75323067D01*
X170600050Y-75311748D01*
X170602504Y-75100421D01*
X170609746Y-74837762D01*
X170620412Y-74591933D01*
X170633290Y-74394711D01*
X170643777Y-74260198D01*
X170643650Y-74253842D01*
X170644637Y-74247558D01*
X170645092Y-74238634D01*
X170651639Y-74090086D01*
X170650019Y-74059947D01*
X170651454Y-74029792D01*
X170650943Y-74020870D01*
X170644470Y-73920125D01*
X170644113Y-73917939D01*
X170644172Y-73915730D01*
X170634037Y-73856251D01*
X170624335Y-73796852D01*
X170623564Y-73794787D01*
X170623191Y-73792599D01*
X170620777Y-73783995D01*
X170599286Y-73709394D01*
X170597825Y-73705716D01*
X170597059Y-73701841D01*
X170574777Y-73647716D01*
X170553161Y-73593316D01*
X170551017Y-73589998D01*
X170549511Y-73586340D01*
X170545264Y-73578477D01*
X170506757Y-73508363D01*
X170494738Y-73490794D01*
X170485074Y-73471811D01*
X170480209Y-73464315D01*
X170472828Y-73453114D01*
X170472576Y-73452802D01*
X170472388Y-73452447D01*
X170447625Y-73421924D01*
X170436233Y-73405271D01*
X170425980Y-73395222D01*
X170394254Y-73356017D01*
X170393950Y-73355764D01*
X170393694Y-73355448D01*
X170387369Y-73349135D01*
X170251437Y-73215333D01*
X170226308Y-73195022D01*
X170203216Y-73172435D01*
X170177857Y-73155861D01*
X170154294Y-73136816D01*
X170125706Y-73121777D01*
X170098661Y-73104101D01*
X170090710Y-73100021D01*
X169907647Y-73007681D01*
X169881976Y-72997741D01*
X169857546Y-72985054D01*
X169823872Y-72975242D01*
X169791168Y-72962579D01*
X169764063Y-72957816D01*
X169737627Y-72950113D01*
X169728833Y-72948524D01*
X169530394Y-72914090D01*
X169524165Y-72913628D01*
X169518118Y-72912083D01*
X169461951Y-72909011D01*
X169405831Y-72904846D01*
X169399634Y-72905602D01*
X169393398Y-72905261D01*
X169384473Y-72905709D01*
X169357428Y-72907254D01*
X169356280Y-72907433D01*
X169355118Y-72907390D01*
X169294547Y-72917066D01*
X169234015Y-72926512D01*
X169232924Y-72926911D01*
X169231776Y-72927094D01*
X169223147Y-72929419D01*
X169076624Y-72969989D01*
X169023013Y-72990650D01*
X168969060Y-73010479D01*
X168961041Y-73014422D01*
X168796137Y-73096927D01*
X168760156Y-73119568D01*
X168722827Y-73139915D01*
X168715471Y-73144989D01*
X168562930Y-73251774D01*
X168519602Y-73288902D01*
X168475662Y-73325280D01*
X168469412Y-73331667D01*
X168359978Y-73445077D01*
X168324127Y-73490345D01*
X168287580Y-73535123D01*
X168282685Y-73542599D01*
X168244512Y-73601786D01*
X168238579Y-73613320D01*
X168230928Y-73623811D01*
X168210044Y-73668796D01*
X168187379Y-73712859D01*
X168183798Y-73725329D01*
X168178332Y-73737104D01*
X168166586Y-73785276D01*
X168152907Y-73832915D01*
X168151817Y-73845845D01*
X168148742Y-73858454D01*
X168147544Y-73867309D01*
X168141265Y-73916302D01*
X168139869Y-73963247D01*
X168136193Y-74010079D01*
X168138016Y-74025572D01*
X168137553Y-74041153D01*
X168145299Y-74087456D01*
X168150791Y-74134129D01*
X168155590Y-74148975D01*
X168158161Y-74164347D01*
X168174759Y-74208283D01*
X168189207Y-74252981D01*
X168196791Y-74266600D01*
X168202304Y-74281193D01*
X168227130Y-74321083D01*
X168249976Y-74362108D01*
X168260064Y-74373998D01*
X168268304Y-74387238D01*
X168300392Y-74421532D01*
X168330783Y-74457353D01*
X168337245Y-74463526D01*
X168384699Y-74508226D01*
X168420578Y-74535944D01*
X168423114Y-74538131D01*
X168434011Y-74548856D01*
X168440527Y-74553144D01*
X168454927Y-74565558D01*
X168462269Y-74570653D01*
X168475034Y-74579382D01*
X168481150Y-74582739D01*
X168483544Y-74584589D01*
X168494114Y-74589856D01*
X168507458Y-74597182D01*
X168538357Y-74617512D01*
X168562077Y-74627165D01*
X168584526Y-74639489D01*
X168619782Y-74650649D01*
X168654049Y-74664595D01*
X168662633Y-74667079D01*
X168714849Y-74681800D01*
X168755883Y-74689142D01*
X168796367Y-74699144D01*
X168817242Y-74700120D01*
X168837803Y-74703799D01*
X168879479Y-74703031D01*
X168921137Y-74704979D01*
X168941804Y-74701882D01*
X168962688Y-74701497D01*
X169003428Y-74692647D01*
X169044664Y-74686468D01*
X169064330Y-74679418D01*
X169084747Y-74674983D01*
X169122990Y-74658390D01*
X169135704Y-74653832D01*
X169108250Y-74908699D01*
X169108091Y-74925289D01*
X169105556Y-74941696D01*
X169105123Y-74950622D01*
X169089003Y-75337841D01*
X169090588Y-75366045D01*
X169089143Y-75394260D01*
X169089621Y-75403183D01*
X169108828Y-75720040D01*
X169115989Y-75764903D01*
X169120745Y-75810098D01*
X169122605Y-75818839D01*
X169177648Y-76069015D01*
X169180447Y-76077624D01*
X169181772Y-76086573D01*
X169199733Y-76136950D01*
X169216264Y-76187802D01*
X169220677Y-76195696D01*
X169223718Y-76204225D01*
X169227583Y-76212282D01*
X169318972Y-76399466D01*
X169339647Y-76433043D01*
X169357845Y-76468025D01*
X169372322Y-76486107D01*
X169384464Y-76505825D01*
X169411257Y-76534736D01*
X169435912Y-76565529D01*
X169442196Y-76571882D01*
X169570444Y-76699757D01*
X169570705Y-76699971D01*
X169570919Y-76700230D01*
X169618935Y-76739471D01*
X169667078Y-76778899D01*
X169667376Y-76779058D01*
X169667635Y-76779270D01*
X169675108Y-76784171D01*
X169717017Y-76811239D01*
X169752720Y-76829632D01*
X169787038Y-76850471D01*
X169795120Y-76854285D01*
X169890782Y-76898622D01*
X169915925Y-76907411D01*
X169939933Y-76918966D01*
X169974756Y-76927974D01*
X170008692Y-76939836D01*
X170035057Y-76943573D01*
X170060858Y-76950247D01*
X170069696Y-76951567D01*
X170178762Y-76967096D01*
X170232235Y-76969433D01*
X170285625Y-76973269D01*
X170294556Y-76972973D01*
X170451998Y-76966674D01*
X170469149Y-76964297D01*
X170486470Y-76964362D01*
X170495361Y-76963461D01*
X170609866Y-76951053D01*
X170649582Y-76942767D01*
X170689775Y-76937226D01*
X170698451Y-76935087D01*
X170911245Y-76881046D01*
X170927304Y-76875249D01*
X170944021Y-76871787D01*
X170985935Y-76854083D01*
X171028730Y-76838634D01*
X171043354Y-76829830D01*
X171059083Y-76823186D01*
X171066906Y-76818867D01*
X171250229Y-76715996D01*
X171253757Y-76713535D01*
X171257662Y-76711758D01*
X171288541Y-76689599D01*
X171289406Y-76690235D01*
X171310704Y-76702896D01*
X171330352Y-76717974D01*
X171364254Y-76734731D01*
X171396772Y-76754063D01*
X171420119Y-76762345D01*
X171442325Y-76773321D01*
X171450706Y-76776421D01*
X171634511Y-76842966D01*
X171682216Y-76855128D01*
X171729398Y-76869264D01*
X171742649Y-76870535D01*
X171755546Y-76873823D01*
X171804698Y-76876487D01*
X171853733Y-76881190D01*
X171862669Y-76881108D01*
X172036359Y-76878315D01*
X172059264Y-76875697D01*
X172082320Y-76875921D01*
X172121180Y-76868619D01*
X172160457Y-76864129D01*
X172182414Y-76857113D01*
X172205077Y-76852854D01*
X172213639Y-76850295D01*
X172265205Y-76834488D01*
X172321585Y-76810970D01*
X172378148Y-76787651D01*
X172380373Y-76786447D01*
X172380484Y-76786401D01*
X172380590Y-76786330D01*
X172386008Y-76783399D01*
X172515858Y-76711998D01*
X172536367Y-76697952D01*
X172558382Y-76686419D01*
X172587775Y-76662746D01*
X172618913Y-76641421D01*
X172636296Y-76623667D01*
X172655660Y-76608071D01*
X172661995Y-76601768D01*
X172779683Y-76483053D01*
X172781243Y-76481138D01*
X172783132Y-76479547D01*
X172820674Y-76432706D01*
X172858545Y-76386190D01*
X172859702Y-76384010D01*
X172861247Y-76382082D01*
X172866076Y-76374563D01*
X172975749Y-76201150D01*
X172994114Y-76164651D01*
X173014912Y-76129476D01*
X173018631Y-76121350D01*
X173124436Y-75885856D01*
X173131949Y-75863523D01*
X173142126Y-75842265D01*
X173145121Y-75833845D01*
X173251206Y-75528888D01*
X173254149Y-75516707D01*
X173258958Y-75505121D01*
X173261502Y-75496554D01*
X173372016Y-75114748D01*
X173372075Y-75114431D01*
X173372194Y-75114132D01*
X173374610Y-75105528D01*
X173389954Y-75049385D01*
X173445253Y-74857740D01*
X173465889Y-74792401D01*
X173568814Y-74752268D01*
X173590001Y-74744297D01*
X173590001Y-77217712D01*
X173575659Y-77363985D01*
X173542557Y-77473625D01*
X173488788Y-77574748D01*
X173449435Y-77623000D01*
X165409990Y-77623000D01*
X165409990Y-77164811D01*
X166336006Y-76238796D01*
X166365003Y-76214999D01*
X166402609Y-76169176D01*
X166459976Y-76099275D01*
X166530548Y-75967245D01*
X166534377Y-75954623D01*
X166574005Y-75823984D01*
X166585002Y-75712331D01*
X166585002Y-75712321D01*
X166588678Y-75674998D01*
X166585002Y-75637675D01*
X166585002Y-73212324D01*
X166588678Y-73175001D01*
X166585002Y-73137679D01*
X166585002Y-73137669D01*
X166574005Y-73026016D01*
X166530548Y-72882755D01*
X166459976Y-72750726D01*
X166365003Y-72635001D01*
X166336003Y-72611201D01*
X166313803Y-72589001D01*
X166290002Y-72560000D01*
X166174277Y-72465027D01*
X166138073Y-72445675D01*
X166138073Y-72225001D01*
X166128224Y-72125001D01*
X166138073Y-72025001D01*
X166138073Y-71575001D01*
X166127906Y-71471774D01*
X166135001Y-71406751D01*
X166102754Y-71374504D01*
X166089503Y-71330821D01*
X166060736Y-71277003D01*
X166135001Y-71277003D01*
X166135001Y-71260001D01*
X166250177Y-71260001D01*
X166287499Y-71263677D01*
X166324821Y-71260001D01*
X166324832Y-71260001D01*
X166436485Y-71249004D01*
X166579746Y-71205547D01*
X166711775Y-71134975D01*
X166827500Y-71040002D01*
X166851302Y-71010999D01*
X166911868Y-70950433D01*
X167043791Y-71020947D01*
X167209215Y-71071128D01*
X167381250Y-71088072D01*
X167868750Y-71088072D01*
X168040785Y-71071128D01*
X168206209Y-71020947D01*
X168358664Y-70939458D01*
X168492292Y-70829792D01*
X168497508Y-70823436D01*
X168561315Y-70901185D01*
X168658006Y-70980537D01*
X168768320Y-71039502D01*
X168888018Y-71075812D01*
X169012500Y-71088072D01*
X169214250Y-71085000D01*
X169373000Y-70926250D01*
X169373000Y-69877000D01*
X169627000Y-69877000D01*
X169627000Y-70926250D01*
X169785750Y-71085000D01*
X169987500Y-71088072D01*
X170111982Y-71075812D01*
X170231680Y-71039502D01*
X170341994Y-70980537D01*
X170438685Y-70901185D01*
X170518037Y-70804494D01*
X170577002Y-70694180D01*
X170613312Y-70574482D01*
X170625572Y-70450000D01*
X170622500Y-70035750D01*
X170463750Y-69877000D01*
X169627000Y-69877000D01*
X169373000Y-69877000D01*
X169353000Y-69877000D01*
X169353000Y-69623000D01*
X169373000Y-69623000D01*
X169373000Y-68573750D01*
X169627000Y-68573750D01*
X169627000Y-69623000D01*
X170463750Y-69623000D01*
X170622500Y-69464250D01*
X170625572Y-69050000D01*
X170613312Y-68925518D01*
X170577002Y-68805820D01*
X170518037Y-68695506D01*
X170438685Y-68598815D01*
X170341994Y-68519463D01*
X170231680Y-68460498D01*
X170111982Y-68424188D01*
X169987500Y-68411928D01*
X169785750Y-68415000D01*
X169627000Y-68573750D01*
X169373000Y-68573750D01*
X169214250Y-68415000D01*
X169012500Y-68411928D01*
X168888018Y-68424188D01*
X168768320Y-68460498D01*
X168658006Y-68519463D01*
X168561315Y-68598815D01*
X168497508Y-68676564D01*
X168492292Y-68670208D01*
X168385000Y-68582155D01*
X168385000Y-68167845D01*
X168492292Y-68079792D01*
X168497508Y-68073436D01*
X168561315Y-68151185D01*
X168658006Y-68230537D01*
X168768320Y-68289502D01*
X168888018Y-68325812D01*
X169012500Y-68338072D01*
X169214250Y-68335000D01*
X169373000Y-68176250D01*
X169373000Y-67127000D01*
X169627000Y-67127000D01*
X169627000Y-68176250D01*
X169785750Y-68335000D01*
X169987500Y-68338072D01*
X170111982Y-68325812D01*
X170231680Y-68289502D01*
X170341994Y-68230537D01*
X170438685Y-68151185D01*
X170518037Y-68054494D01*
X170577002Y-67944180D01*
X170613312Y-67824482D01*
X170625572Y-67700000D01*
X170622500Y-67285750D01*
X170463750Y-67127000D01*
X169627000Y-67127000D01*
X169373000Y-67127000D01*
X169353000Y-67127000D01*
X169353000Y-66873000D01*
X169373000Y-66873000D01*
X169373000Y-65823750D01*
X169627000Y-65823750D01*
X169627000Y-66873000D01*
X170463750Y-66873000D01*
X170622500Y-66714250D01*
X170625572Y-66300000D01*
X170613312Y-66175518D01*
X170577002Y-66055820D01*
X170518037Y-65945506D01*
X170438685Y-65848815D01*
X170341994Y-65769463D01*
X170231680Y-65710498D01*
X170111982Y-65674188D01*
X169987500Y-65661928D01*
X169785750Y-65665000D01*
X169627000Y-65823750D01*
X169373000Y-65823750D01*
X169214250Y-65665000D01*
X169012500Y-65661928D01*
X168888018Y-65674188D01*
X168768320Y-65710498D01*
X168658006Y-65769463D01*
X168561315Y-65848815D01*
X168497508Y-65926564D01*
X168492292Y-65920208D01*
X168358664Y-65810542D01*
X168206209Y-65729053D01*
X168198183Y-65726618D01*
X171761008Y-62163795D01*
X171790001Y-62140001D01*
X171813795Y-62111008D01*
X171813799Y-62111004D01*
X171884973Y-62024277D01*
X171884974Y-62024276D01*
X171904326Y-61988072D01*
X172100000Y-61988072D01*
X172224482Y-61975812D01*
X172344180Y-61939502D01*
X172454494Y-61880537D01*
X172551185Y-61801185D01*
X172630537Y-61704494D01*
X172689502Y-61594180D01*
X172725812Y-61474482D01*
X172738072Y-61350000D01*
X172738072Y-59650000D01*
X172725812Y-59525518D01*
X172689502Y-59405820D01*
X172630537Y-59295506D01*
X172551185Y-59198815D01*
X172454494Y-59119463D01*
X172344180Y-59060498D01*
X172224482Y-59024188D01*
X172100000Y-59011928D01*
X170400000Y-59011928D01*
X170275518Y-59024188D01*
X170155820Y-59060498D01*
X170045506Y-59119463D01*
X169948815Y-59198815D01*
X169869463Y-59295506D01*
X169810498Y-59405820D01*
X169789607Y-59474687D01*
X169765134Y-59444866D01*
X169539014Y-59259294D01*
X169281034Y-59121401D01*
X169001111Y-59036487D01*
X168782950Y-59015000D01*
X168637050Y-59015000D01*
X168418889Y-59036487D01*
X168138966Y-59121401D01*
X167880986Y-59259294D01*
X167654866Y-59444866D01*
X167469294Y-59670986D01*
X167440000Y-59725791D01*
X167410706Y-59670986D01*
X167225134Y-59444866D01*
X166999014Y-59259294D01*
X166741034Y-59121401D01*
X166461111Y-59036487D01*
X166242950Y-59015000D01*
X166097050Y-59015000D01*
X165878889Y-59036487D01*
X165598966Y-59121401D01*
X165340986Y-59259294D01*
X165114866Y-59444866D01*
X164929294Y-59670986D01*
X164894799Y-59735523D01*
X164825178Y-59618645D01*
X164630269Y-59402412D01*
X164396920Y-59228359D01*
X164134099Y-59103175D01*
X163986890Y-59058524D01*
X163757000Y-59179845D01*
X163757000Y-60373000D01*
X163777000Y-60373000D01*
X163777000Y-60627000D01*
X163757000Y-60627000D01*
X163757000Y-60647000D01*
X163503000Y-60647000D01*
X163503000Y-60627000D01*
X163483000Y-60627000D01*
X163483000Y-60373000D01*
X163503000Y-60373000D01*
X163503000Y-59179845D01*
X163273110Y-59058524D01*
X163125901Y-59103175D01*
X162863080Y-59228359D01*
X162629731Y-59402412D01*
X162434822Y-59618645D01*
X162365201Y-59735523D01*
X162330706Y-59670986D01*
X162145134Y-59444866D01*
X161919014Y-59259294D01*
X161661034Y-59121401D01*
X161381111Y-59036487D01*
X161162950Y-59015000D01*
X161017050Y-59015000D01*
X160798889Y-59036487D01*
X160518966Y-59121401D01*
X160260986Y-59259294D01*
X160034866Y-59444866D01*
X159849294Y-59670986D01*
X159711401Y-59928966D01*
X159626487Y-60208889D01*
X159597815Y-60500000D01*
X159626487Y-60791111D01*
X159711401Y-61071034D01*
X159849294Y-61329014D01*
X160034866Y-61555134D01*
X160260986Y-61740706D01*
X160518966Y-61878599D01*
X160798889Y-61963513D01*
X161017050Y-61985000D01*
X161162950Y-61985000D01*
X161381111Y-61963513D01*
X161661034Y-61878599D01*
X161919014Y-61740706D01*
X162145134Y-61555134D01*
X162330706Y-61329014D01*
X162365201Y-61264477D01*
X162434822Y-61381355D01*
X162629731Y-61597588D01*
X162863080Y-61771641D01*
X163125901Y-61896825D01*
X163273110Y-61941476D01*
X163502998Y-61820156D01*
X163502998Y-61985000D01*
X163610199Y-61985000D01*
X163130209Y-62464990D01*
X159124832Y-62464990D01*
X159087509Y-62461314D01*
X159050186Y-62464990D01*
X159050177Y-62464990D01*
X158938524Y-62475987D01*
X158795263Y-62519444D01*
X158663233Y-62590016D01*
X158579593Y-62658658D01*
X158547509Y-62684989D01*
X158523711Y-62713987D01*
X158324020Y-62913678D01*
X158306250Y-62911928D01*
X157818750Y-62911928D01*
X157646715Y-62928872D01*
X157481291Y-62979053D01*
X157328836Y-63060542D01*
X157195208Y-63170208D01*
X157085542Y-63303836D01*
X157004053Y-63456291D01*
X156953872Y-63621715D01*
X156942222Y-63740000D01*
X156888072Y-63740000D01*
X156888072Y-62600000D01*
X156875812Y-62475518D01*
X156839502Y-62355820D01*
X156780537Y-62245506D01*
X156701185Y-62148815D01*
X156604494Y-62069463D01*
X156510000Y-62018954D01*
X156510000Y-60181046D01*
X156604494Y-60130537D01*
X156701185Y-60051185D01*
X156780537Y-59954494D01*
X156839502Y-59844180D01*
X156875812Y-59724482D01*
X156888072Y-59600000D01*
X156888072Y-56800000D01*
X156875812Y-56675518D01*
X156839502Y-56555820D01*
X156780537Y-56445506D01*
X156701185Y-56348815D01*
X156604494Y-56269463D01*
X156494180Y-56210498D01*
X156374482Y-56174188D01*
X156250000Y-56161928D01*
X155250000Y-56161928D01*
X155125518Y-56174188D01*
X155005820Y-56210498D01*
X154895506Y-56269463D01*
X154798815Y-56348815D01*
X154719463Y-56445506D01*
X154660498Y-56555820D01*
X154624188Y-56675518D01*
X154611928Y-56800000D01*
X154611928Y-59600000D01*
X154624188Y-59724482D01*
X154660498Y-59844180D01*
X154719463Y-59954494D01*
X154798815Y-60051185D01*
X154895506Y-60130537D01*
X154990001Y-60181046D01*
X154990000Y-62018954D01*
X154895506Y-62069463D01*
X154798815Y-62148815D01*
X154719463Y-62245506D01*
X154660498Y-62355820D01*
X154624188Y-62475518D01*
X154611928Y-62600000D01*
X154611928Y-64272128D01*
X153335001Y-62995202D01*
X153335001Y-62377321D01*
X153338677Y-62339998D01*
X153335001Y-62302675D01*
X153335001Y-62302666D01*
X153324004Y-62191013D01*
X153280547Y-62047752D01*
X153209975Y-61915723D01*
X153115002Y-61799998D01*
X153086004Y-61776200D01*
X151504527Y-60194723D01*
X151623000Y-60076250D01*
X151623000Y-58327000D01*
X151877000Y-58327000D01*
X151877000Y-60076250D01*
X152035750Y-60235000D01*
X152250000Y-60238072D01*
X152374482Y-60225812D01*
X152494180Y-60189502D01*
X152604494Y-60130537D01*
X152701185Y-60051185D01*
X152780537Y-59954494D01*
X152839502Y-59844180D01*
X152875812Y-59724482D01*
X152888072Y-59600000D01*
X152885000Y-58485750D01*
X152726250Y-58327000D01*
X151877000Y-58327000D01*
X151623000Y-58327000D01*
X150773750Y-58327000D01*
X150615000Y-58485750D01*
X150612747Y-59302944D01*
X149548806Y-58239003D01*
X149525003Y-58209999D01*
X149409278Y-58115026D01*
X149277249Y-58044454D01*
X149133988Y-58000997D01*
X149022335Y-57990000D01*
X149022324Y-57990000D01*
X148985002Y-57986324D01*
X148947680Y-57990000D01*
X148027595Y-57990000D01*
X147990706Y-57920986D01*
X147805134Y-57694866D01*
X147579014Y-57509294D01*
X147321034Y-57371401D01*
X147041111Y-57286487D01*
X146822950Y-57265000D01*
X146677050Y-57265000D01*
X146458889Y-57286487D01*
X146178966Y-57371401D01*
X145920986Y-57509294D01*
X145694866Y-57694866D01*
X145660000Y-57737350D01*
X145660000Y-56800000D01*
X150611928Y-56800000D01*
X150615000Y-57914250D01*
X150773750Y-58073000D01*
X151623000Y-58073000D01*
X151623000Y-56323750D01*
X151877000Y-56323750D01*
X151877000Y-58073000D01*
X152726250Y-58073000D01*
X152885000Y-57914250D01*
X152888072Y-56800000D01*
X152875812Y-56675518D01*
X152839502Y-56555820D01*
X152780537Y-56445506D01*
X152701185Y-56348815D01*
X152604494Y-56269463D01*
X152494180Y-56210498D01*
X152374482Y-56174188D01*
X152250000Y-56161928D01*
X152035750Y-56165000D01*
X151877000Y-56323750D01*
X151623000Y-56323750D01*
X151464250Y-56165000D01*
X151250000Y-56161928D01*
X151125518Y-56174188D01*
X151005820Y-56210498D01*
X150895506Y-56269463D01*
X150798815Y-56348815D01*
X150719463Y-56445506D01*
X150660498Y-56555820D01*
X150624188Y-56675518D01*
X150611928Y-56800000D01*
X145660000Y-56800000D01*
X145660000Y-54282279D01*
X145674341Y-54136015D01*
X145707443Y-54026375D01*
X145761212Y-53925252D01*
X145833599Y-53836497D01*
X145921848Y-53763491D01*
X146022591Y-53709019D01*
X146132004Y-53675150D01*
X146276145Y-53660000D01*
X172967721Y-53660000D01*
X173113985Y-53674341D01*
X173113985Y-53674341D01*
G37*
X173113985Y-53674341D02*
X173223625Y-53707443D01*
X173324748Y-53761212D01*
X173413503Y-53833599D01*
X173486509Y-53921848D01*
X173540981Y-54022591D01*
X173574850Y-54132004D01*
X173590000Y-54276145D01*
X173590001Y-73229121D01*
X173509927Y-73236164D01*
X173454730Y-73246520D01*
X173399324Y-73255787D01*
X173390713Y-73258175D01*
X173242282Y-73300444D01*
X173225964Y-73306870D01*
X173208898Y-73310945D01*
X173200470Y-73313918D01*
X172982469Y-73392528D01*
X172981116Y-73393171D01*
X172979655Y-73393549D01*
X172971285Y-73396679D01*
X172543136Y-73560147D01*
X172505835Y-73578742D01*
X172467399Y-73594868D01*
X172450056Y-73606549D01*
X172431350Y-73615874D01*
X172398375Y-73641357D01*
X172363800Y-73664644D01*
X172349057Y-73679470D01*
X172332517Y-73692252D01*
X172305117Y-73723658D01*
X172275726Y-73753214D01*
X172264147Y-73770617D01*
X172250401Y-73786372D01*
X172229617Y-73822513D01*
X172206534Y-73857205D01*
X172198555Y-73876525D01*
X172188132Y-73894650D01*
X172174768Y-73934125D01*
X172158857Y-73972653D01*
X172156329Y-73981224D01*
X172077159Y-74256616D01*
X172077157Y-74256628D01*
X172077074Y-74256909D01*
X172066161Y-74294938D01*
X172066149Y-74295002D01*
X172065881Y-74295918D01*
X172012231Y-74484004D01*
X172012220Y-74484063D01*
X172011962Y-74484950D01*
X171949729Y-74704402D01*
X171949719Y-74704460D01*
X171949484Y-74705270D01*
X171890723Y-74913598D01*
X171835792Y-75102640D01*
X171829598Y-75121551D01*
X171808274Y-75097566D01*
X171784934Y-75079875D01*
X171763554Y-75059853D01*
X171735281Y-75042240D01*
X171708731Y-75022116D01*
X171701084Y-75017492D01*
X171645441Y-74984374D01*
X171613559Y-74969398D01*
X171598921Y-74960315D01*
X171575882Y-74951645D01*
X171534326Y-74931962D01*
X171533319Y-74931708D01*
X171532386Y-74931270D01*
X171501011Y-74923470D01*
X171482018Y-74916323D01*
X171453470Y-74911586D01*
X171413206Y-74901439D01*
X171412174Y-74901386D01*
X171411169Y-74901136D01*
X171382025Y-74899730D01*
X171358797Y-74895876D01*
X171325298Y-74896916D01*
X171288466Y-74895021D01*
X171286524Y-74895125D01*
X171286408Y-74895119D01*
X171286284Y-74895137D01*
X171279542Y-74895497D01*
X171277571Y-74895616D01*
X171255894Y-74899071D01*
X171233951Y-74899752D01*
X171195576Y-74908597D01*
X171162854Y-74913452D01*
X171160590Y-74914260D01*
X171154221Y-74915275D01*
X171133626Y-74922875D01*
X171112236Y-74927805D01*
X171075166Y-74944448D01*
X171050749Y-74953458D01*
X171045215Y-74955433D01*
X171044920Y-74955609D01*
X171037040Y-74958517D01*
X171018315Y-74969971D01*
X170998287Y-74978963D01*
X170990562Y-74983455D01*
X170933487Y-75017180D01*
X170884286Y-75053162D01*
X170834957Y-75088874D01*
X170832775Y-75090833D01*
X170832665Y-75090913D01*
X170832568Y-75091018D01*
X170828307Y-75094843D01*
X170738132Y-75176906D01*
X170722247Y-75194489D01*
X170704350Y-75210013D01*
X170698249Y-75216542D01*
X170600086Y-75323067D01*
X170600050Y-75311748D01*
X170602504Y-75100421D01*
X170609746Y-74837762D01*
X170620412Y-74591933D01*
X170633290Y-74394711D01*
X170643777Y-74260198D01*
X170643650Y-74253842D01*
X170644637Y-74247558D01*
X170645092Y-74238634D01*
X170651639Y-74090086D01*
X170650019Y-74059947D01*
X170651454Y-74029792D01*
X170650943Y-74020870D01*
X170644470Y-73920125D01*
X170644113Y-73917939D01*
X170644172Y-73915730D01*
X170634037Y-73856251D01*
X170624335Y-73796852D01*
X170623564Y-73794787D01*
X170623191Y-73792599D01*
X170620777Y-73783995D01*
X170599286Y-73709394D01*
X170597825Y-73705716D01*
X170597059Y-73701841D01*
X170574777Y-73647716D01*
X170553161Y-73593316D01*
X170551017Y-73589998D01*
X170549511Y-73586340D01*
X170545264Y-73578477D01*
X170506757Y-73508363D01*
X170494738Y-73490794D01*
X170485074Y-73471811D01*
X170480209Y-73464315D01*
X170472828Y-73453114D01*
X170472576Y-73452802D01*
X170472388Y-73452447D01*
X170447625Y-73421924D01*
X170436233Y-73405271D01*
X170425980Y-73395222D01*
X170394254Y-73356017D01*
X170393950Y-73355764D01*
X170393694Y-73355448D01*
X170387369Y-73349135D01*
X170251437Y-73215333D01*
X170226308Y-73195022D01*
X170203216Y-73172435D01*
X170177857Y-73155861D01*
X170154294Y-73136816D01*
X170125706Y-73121777D01*
X170098661Y-73104101D01*
X170090710Y-73100021D01*
X169907647Y-73007681D01*
X169881976Y-72997741D01*
X169857546Y-72985054D01*
X169823872Y-72975242D01*
X169791168Y-72962579D01*
X169764063Y-72957816D01*
X169737627Y-72950113D01*
X169728833Y-72948524D01*
X169530394Y-72914090D01*
X169524165Y-72913628D01*
X169518118Y-72912083D01*
X169461951Y-72909011D01*
X169405831Y-72904846D01*
X169399634Y-72905602D01*
X169393398Y-72905261D01*
X169384473Y-72905709D01*
X169357428Y-72907254D01*
X169356280Y-72907433D01*
X169355118Y-72907390D01*
X169294547Y-72917066D01*
X169234015Y-72926512D01*
X169232924Y-72926911D01*
X169231776Y-72927094D01*
X169223147Y-72929419D01*
X169076624Y-72969989D01*
X169023013Y-72990650D01*
X168969060Y-73010479D01*
X168961041Y-73014422D01*
X168796137Y-73096927D01*
X168760156Y-73119568D01*
X168722827Y-73139915D01*
X168715471Y-73144989D01*
X168562930Y-73251774D01*
X168519602Y-73288902D01*
X168475662Y-73325280D01*
X168469412Y-73331667D01*
X168359978Y-73445077D01*
X168324127Y-73490345D01*
X168287580Y-73535123D01*
X168282685Y-73542599D01*
X168244512Y-73601786D01*
X168238579Y-73613320D01*
X168230928Y-73623811D01*
X168210044Y-73668796D01*
X168187379Y-73712859D01*
X168183798Y-73725329D01*
X168178332Y-73737104D01*
X168166586Y-73785276D01*
X168152907Y-73832915D01*
X168151817Y-73845845D01*
X168148742Y-73858454D01*
X168147544Y-73867309D01*
X168141265Y-73916302D01*
X168139869Y-73963247D01*
X168136193Y-74010079D01*
X168138016Y-74025572D01*
X168137553Y-74041153D01*
X168145299Y-74087456D01*
X168150791Y-74134129D01*
X168155590Y-74148975D01*
X168158161Y-74164347D01*
X168174759Y-74208283D01*
X168189207Y-74252981D01*
X168196791Y-74266600D01*
X168202304Y-74281193D01*
X168227130Y-74321083D01*
X168249976Y-74362108D01*
X168260064Y-74373998D01*
X168268304Y-74387238D01*
X168300392Y-74421532D01*
X168330783Y-74457353D01*
X168337245Y-74463526D01*
X168384699Y-74508226D01*
X168420578Y-74535944D01*
X168423114Y-74538131D01*
X168434011Y-74548856D01*
X168440527Y-74553144D01*
X168454927Y-74565558D01*
X168462269Y-74570653D01*
X168475034Y-74579382D01*
X168481150Y-74582739D01*
X168483544Y-74584589D01*
X168494114Y-74589856D01*
X168507458Y-74597182D01*
X168538357Y-74617512D01*
X168562077Y-74627165D01*
X168584526Y-74639489D01*
X168619782Y-74650649D01*
X168654049Y-74664595D01*
X168662633Y-74667079D01*
X168714849Y-74681800D01*
X168755883Y-74689142D01*
X168796367Y-74699144D01*
X168817242Y-74700120D01*
X168837803Y-74703799D01*
X168879479Y-74703031D01*
X168921137Y-74704979D01*
X168941804Y-74701882D01*
X168962688Y-74701497D01*
X169003428Y-74692647D01*
X169044664Y-74686468D01*
X169064330Y-74679418D01*
X169084747Y-74674983D01*
X169122990Y-74658390D01*
X169135704Y-74653832D01*
X169108250Y-74908699D01*
X169108091Y-74925289D01*
X169105556Y-74941696D01*
X169105123Y-74950622D01*
X169089003Y-75337841D01*
X169090588Y-75366045D01*
X169089143Y-75394260D01*
X169089621Y-75403183D01*
X169108828Y-75720040D01*
X169115989Y-75764903D01*
X169120745Y-75810098D01*
X169122605Y-75818839D01*
X169177648Y-76069015D01*
X169180447Y-76077624D01*
X169181772Y-76086573D01*
X169199733Y-76136950D01*
X169216264Y-76187802D01*
X169220677Y-76195696D01*
X169223718Y-76204225D01*
X169227583Y-76212282D01*
X169318972Y-76399466D01*
X169339647Y-76433043D01*
X169357845Y-76468025D01*
X169372322Y-76486107D01*
X169384464Y-76505825D01*
X169411257Y-76534736D01*
X169435912Y-76565529D01*
X169442196Y-76571882D01*
X169570444Y-76699757D01*
X169570705Y-76699971D01*
X169570919Y-76700230D01*
X169618935Y-76739471D01*
X169667078Y-76778899D01*
X169667376Y-76779058D01*
X169667635Y-76779270D01*
X169675108Y-76784171D01*
X169717017Y-76811239D01*
X169752720Y-76829632D01*
X169787038Y-76850471D01*
X169795120Y-76854285D01*
X169890782Y-76898622D01*
X169915925Y-76907411D01*
X169939933Y-76918966D01*
X169974756Y-76927974D01*
X170008692Y-76939836D01*
X170035057Y-76943573D01*
X170060858Y-76950247D01*
X170069696Y-76951567D01*
X170178762Y-76967096D01*
X170232235Y-76969433D01*
X170285625Y-76973269D01*
X170294556Y-76972973D01*
X170451998Y-76966674D01*
X170469149Y-76964297D01*
X170486470Y-76964362D01*
X170495361Y-76963461D01*
X170609866Y-76951053D01*
X170649582Y-76942767D01*
X170689775Y-76937226D01*
X170698451Y-76935087D01*
X170911245Y-76881046D01*
X170927304Y-76875249D01*
X170944021Y-76871787D01*
X170985935Y-76854083D01*
X171028730Y-76838634D01*
X171043354Y-76829830D01*
X171059083Y-76823186D01*
X171066906Y-76818867D01*
X171250229Y-76715996D01*
X171253757Y-76713535D01*
X171257662Y-76711758D01*
X171288541Y-76689599D01*
X171289406Y-76690235D01*
X171310704Y-76702896D01*
X171330352Y-76717974D01*
X171364254Y-76734731D01*
X171396772Y-76754063D01*
X171420119Y-76762345D01*
X171442325Y-76773321D01*
X171450706Y-76776421D01*
X171634511Y-76842966D01*
X171682216Y-76855128D01*
X171729398Y-76869264D01*
X171742649Y-76870535D01*
X171755546Y-76873823D01*
X171804698Y-76876487D01*
X171853733Y-76881190D01*
X171862669Y-76881108D01*
X172036359Y-76878315D01*
X172059264Y-76875697D01*
X172082320Y-76875921D01*
X172121180Y-76868619D01*
X172160457Y-76864129D01*
X172182414Y-76857113D01*
X172205077Y-76852854D01*
X172213639Y-76850295D01*
X172265205Y-76834488D01*
X172321585Y-76810970D01*
X172378148Y-76787651D01*
X172380373Y-76786447D01*
X172380484Y-76786401D01*
X172380590Y-76786330D01*
X172386008Y-76783399D01*
X172515858Y-76711998D01*
X172536367Y-76697952D01*
X172558382Y-76686419D01*
X172587775Y-76662746D01*
X172618913Y-76641421D01*
X172636296Y-76623667D01*
X172655660Y-76608071D01*
X172661995Y-76601768D01*
X172779683Y-76483053D01*
X172781243Y-76481138D01*
X172783132Y-76479547D01*
X172820674Y-76432706D01*
X172858545Y-76386190D01*
X172859702Y-76384010D01*
X172861247Y-76382082D01*
X172866076Y-76374563D01*
X172975749Y-76201150D01*
X172994114Y-76164651D01*
X173014912Y-76129476D01*
X173018631Y-76121350D01*
X173124436Y-75885856D01*
X173131949Y-75863523D01*
X173142126Y-75842265D01*
X173145121Y-75833845D01*
X173251206Y-75528888D01*
X173254149Y-75516707D01*
X173258958Y-75505121D01*
X173261502Y-75496554D01*
X173372016Y-75114748D01*
X173372075Y-75114431D01*
X173372194Y-75114132D01*
X173374610Y-75105528D01*
X173389954Y-75049385D01*
X173445253Y-74857740D01*
X173465889Y-74792401D01*
X173568814Y-74752268D01*
X173590001Y-74744297D01*
X173590001Y-77217712D01*
X173575659Y-77363985D01*
X173542557Y-77473625D01*
X173488788Y-77574748D01*
X173449435Y-77623000D01*
X165409990Y-77623000D01*
X165409990Y-77164811D01*
X166336006Y-76238796D01*
X166365003Y-76214999D01*
X166402609Y-76169176D01*
X166459976Y-76099275D01*
X166530548Y-75967245D01*
X166534377Y-75954623D01*
X166574005Y-75823984D01*
X166585002Y-75712331D01*
X166585002Y-75712321D01*
X166588678Y-75674998D01*
X166585002Y-75637675D01*
X166585002Y-73212324D01*
X166588678Y-73175001D01*
X166585002Y-73137679D01*
X166585002Y-73137669D01*
X166574005Y-73026016D01*
X166530548Y-72882755D01*
X166459976Y-72750726D01*
X166365003Y-72635001D01*
X166336003Y-72611201D01*
X166313803Y-72589001D01*
X166290002Y-72560000D01*
X166174277Y-72465027D01*
X166138073Y-72445675D01*
X166138073Y-72225001D01*
X166128224Y-72125001D01*
X166138073Y-72025001D01*
X166138073Y-71575001D01*
X166127906Y-71471774D01*
X166135001Y-71406751D01*
X166102754Y-71374504D01*
X166089503Y-71330821D01*
X166060736Y-71277003D01*
X166135001Y-71277003D01*
X166135001Y-71260001D01*
X166250177Y-71260001D01*
X166287499Y-71263677D01*
X166324821Y-71260001D01*
X166324832Y-71260001D01*
X166436485Y-71249004D01*
X166579746Y-71205547D01*
X166711775Y-71134975D01*
X166827500Y-71040002D01*
X166851302Y-71010999D01*
X166911868Y-70950433D01*
X167043791Y-71020947D01*
X167209215Y-71071128D01*
X167381250Y-71088072D01*
X167868750Y-71088072D01*
X168040785Y-71071128D01*
X168206209Y-71020947D01*
X168358664Y-70939458D01*
X168492292Y-70829792D01*
X168497508Y-70823436D01*
X168561315Y-70901185D01*
X168658006Y-70980537D01*
X168768320Y-71039502D01*
X168888018Y-71075812D01*
X169012500Y-71088072D01*
X169214250Y-71085000D01*
X169373000Y-70926250D01*
X169373000Y-69877000D01*
X169627000Y-69877000D01*
X169627000Y-70926250D01*
X169785750Y-71085000D01*
X169987500Y-71088072D01*
X170111982Y-71075812D01*
X170231680Y-71039502D01*
X170341994Y-70980537D01*
X170438685Y-70901185D01*
X170518037Y-70804494D01*
X170577002Y-70694180D01*
X170613312Y-70574482D01*
X170625572Y-70450000D01*
X170622500Y-70035750D01*
X170463750Y-69877000D01*
X169627000Y-69877000D01*
X169373000Y-69877000D01*
X169353000Y-69877000D01*
X169353000Y-69623000D01*
X169373000Y-69623000D01*
X169373000Y-68573750D01*
X169627000Y-68573750D01*
X169627000Y-69623000D01*
X170463750Y-69623000D01*
X170622500Y-69464250D01*
X170625572Y-69050000D01*
X170613312Y-68925518D01*
X170577002Y-68805820D01*
X170518037Y-68695506D01*
X170438685Y-68598815D01*
X170341994Y-68519463D01*
X170231680Y-68460498D01*
X170111982Y-68424188D01*
X169987500Y-68411928D01*
X169785750Y-68415000D01*
X169627000Y-68573750D01*
X169373000Y-68573750D01*
X169214250Y-68415000D01*
X169012500Y-68411928D01*
X168888018Y-68424188D01*
X168768320Y-68460498D01*
X168658006Y-68519463D01*
X168561315Y-68598815D01*
X168497508Y-68676564D01*
X168492292Y-68670208D01*
X168385000Y-68582155D01*
X168385000Y-68167845D01*
X168492292Y-68079792D01*
X168497508Y-68073436D01*
X168561315Y-68151185D01*
X168658006Y-68230537D01*
X168768320Y-68289502D01*
X168888018Y-68325812D01*
X169012500Y-68338072D01*
X169214250Y-68335000D01*
X169373000Y-68176250D01*
X169373000Y-67127000D01*
X169627000Y-67127000D01*
X169627000Y-68176250D01*
X169785750Y-68335000D01*
X169987500Y-68338072D01*
X170111982Y-68325812D01*
X170231680Y-68289502D01*
X170341994Y-68230537D01*
X170438685Y-68151185D01*
X170518037Y-68054494D01*
X170577002Y-67944180D01*
X170613312Y-67824482D01*
X170625572Y-67700000D01*
X170622500Y-67285750D01*
X170463750Y-67127000D01*
X169627000Y-67127000D01*
X169373000Y-67127000D01*
X169353000Y-67127000D01*
X169353000Y-66873000D01*
X169373000Y-66873000D01*
X169373000Y-65823750D01*
X169627000Y-65823750D01*
X169627000Y-66873000D01*
X170463750Y-66873000D01*
X170622500Y-66714250D01*
X170625572Y-66300000D01*
X170613312Y-66175518D01*
X170577002Y-66055820D01*
X170518037Y-65945506D01*
X170438685Y-65848815D01*
X170341994Y-65769463D01*
X170231680Y-65710498D01*
X170111982Y-65674188D01*
X169987500Y-65661928D01*
X169785750Y-65665000D01*
X169627000Y-65823750D01*
X169373000Y-65823750D01*
X169214250Y-65665000D01*
X169012500Y-65661928D01*
X168888018Y-65674188D01*
X168768320Y-65710498D01*
X168658006Y-65769463D01*
X168561315Y-65848815D01*
X168497508Y-65926564D01*
X168492292Y-65920208D01*
X168358664Y-65810542D01*
X168206209Y-65729053D01*
X168198183Y-65726618D01*
X171761008Y-62163795D01*
X171790001Y-62140001D01*
X171813795Y-62111008D01*
X171813799Y-62111004D01*
X171884973Y-62024277D01*
X171884974Y-62024276D01*
X171904326Y-61988072D01*
X172100000Y-61988072D01*
X172224482Y-61975812D01*
X172344180Y-61939502D01*
X172454494Y-61880537D01*
X172551185Y-61801185D01*
X172630537Y-61704494D01*
X172689502Y-61594180D01*
X172725812Y-61474482D01*
X172738072Y-61350000D01*
X172738072Y-59650000D01*
X172725812Y-59525518D01*
X172689502Y-59405820D01*
X172630537Y-59295506D01*
X172551185Y-59198815D01*
X172454494Y-59119463D01*
X172344180Y-59060498D01*
X172224482Y-59024188D01*
X172100000Y-59011928D01*
X170400000Y-59011928D01*
X170275518Y-59024188D01*
X170155820Y-59060498D01*
X170045506Y-59119463D01*
X169948815Y-59198815D01*
X169869463Y-59295506D01*
X169810498Y-59405820D01*
X169789607Y-59474687D01*
X169765134Y-59444866D01*
X169539014Y-59259294D01*
X169281034Y-59121401D01*
X169001111Y-59036487D01*
X168782950Y-59015000D01*
X168637050Y-59015000D01*
X168418889Y-59036487D01*
X168138966Y-59121401D01*
X167880986Y-59259294D01*
X167654866Y-59444866D01*
X167469294Y-59670986D01*
X167440000Y-59725791D01*
X167410706Y-59670986D01*
X167225134Y-59444866D01*
X166999014Y-59259294D01*
X166741034Y-59121401D01*
X166461111Y-59036487D01*
X166242950Y-59015000D01*
X166097050Y-59015000D01*
X165878889Y-59036487D01*
X165598966Y-59121401D01*
X165340986Y-59259294D01*
X165114866Y-59444866D01*
X164929294Y-59670986D01*
X164894799Y-59735523D01*
X164825178Y-59618645D01*
X164630269Y-59402412D01*
X164396920Y-59228359D01*
X164134099Y-59103175D01*
X163986890Y-59058524D01*
X163757000Y-59179845D01*
X163757000Y-60373000D01*
X163777000Y-60373000D01*
X163777000Y-60627000D01*
X163757000Y-60627000D01*
X163757000Y-60647000D01*
X163503000Y-60647000D01*
X163503000Y-60627000D01*
X163483000Y-60627000D01*
X163483000Y-60373000D01*
X163503000Y-60373000D01*
X163503000Y-59179845D01*
X163273110Y-59058524D01*
X163125901Y-59103175D01*
X162863080Y-59228359D01*
X162629731Y-59402412D01*
X162434822Y-59618645D01*
X162365201Y-59735523D01*
X162330706Y-59670986D01*
X162145134Y-59444866D01*
X161919014Y-59259294D01*
X161661034Y-59121401D01*
X161381111Y-59036487D01*
X161162950Y-59015000D01*
X161017050Y-59015000D01*
X160798889Y-59036487D01*
X160518966Y-59121401D01*
X160260986Y-59259294D01*
X160034866Y-59444866D01*
X159849294Y-59670986D01*
X159711401Y-59928966D01*
X159626487Y-60208889D01*
X159597815Y-60500000D01*
X159626487Y-60791111D01*
X159711401Y-61071034D01*
X159849294Y-61329014D01*
X160034866Y-61555134D01*
X160260986Y-61740706D01*
X160518966Y-61878599D01*
X160798889Y-61963513D01*
X161017050Y-61985000D01*
X161162950Y-61985000D01*
X161381111Y-61963513D01*
X161661034Y-61878599D01*
X161919014Y-61740706D01*
X162145134Y-61555134D01*
X162330706Y-61329014D01*
X162365201Y-61264477D01*
X162434822Y-61381355D01*
X162629731Y-61597588D01*
X162863080Y-61771641D01*
X163125901Y-61896825D01*
X163273110Y-61941476D01*
X163502998Y-61820156D01*
X163502998Y-61985000D01*
X163610199Y-61985000D01*
X163130209Y-62464990D01*
X159124832Y-62464990D01*
X159087509Y-62461314D01*
X159050186Y-62464990D01*
X159050177Y-62464990D01*
X158938524Y-62475987D01*
X158795263Y-62519444D01*
X158663233Y-62590016D01*
X158579593Y-62658658D01*
X158547509Y-62684989D01*
X158523711Y-62713987D01*
X158324020Y-62913678D01*
X158306250Y-62911928D01*
X157818750Y-62911928D01*
X157646715Y-62928872D01*
X157481291Y-62979053D01*
X157328836Y-63060542D01*
X157195208Y-63170208D01*
X157085542Y-63303836D01*
X157004053Y-63456291D01*
X156953872Y-63621715D01*
X156942222Y-63740000D01*
X156888072Y-63740000D01*
X156888072Y-62600000D01*
X156875812Y-62475518D01*
X156839502Y-62355820D01*
X156780537Y-62245506D01*
X156701185Y-62148815D01*
X156604494Y-62069463D01*
X156510000Y-62018954D01*
X156510000Y-60181046D01*
X156604494Y-60130537D01*
X156701185Y-60051185D01*
X156780537Y-59954494D01*
X156839502Y-59844180D01*
X156875812Y-59724482D01*
X156888072Y-59600000D01*
X156888072Y-56800000D01*
X156875812Y-56675518D01*
X156839502Y-56555820D01*
X156780537Y-56445506D01*
X156701185Y-56348815D01*
X156604494Y-56269463D01*
X156494180Y-56210498D01*
X156374482Y-56174188D01*
X156250000Y-56161928D01*
X155250000Y-56161928D01*
X155125518Y-56174188D01*
X155005820Y-56210498D01*
X154895506Y-56269463D01*
X154798815Y-56348815D01*
X154719463Y-56445506D01*
X154660498Y-56555820D01*
X154624188Y-56675518D01*
X154611928Y-56800000D01*
X154611928Y-59600000D01*
X154624188Y-59724482D01*
X154660498Y-59844180D01*
X154719463Y-59954494D01*
X154798815Y-60051185D01*
X154895506Y-60130537D01*
X154990001Y-60181046D01*
X154990000Y-62018954D01*
X154895506Y-62069463D01*
X154798815Y-62148815D01*
X154719463Y-62245506D01*
X154660498Y-62355820D01*
X154624188Y-62475518D01*
X154611928Y-62600000D01*
X154611928Y-64272128D01*
X153335001Y-62995202D01*
X153335001Y-62377321D01*
X153338677Y-62339998D01*
X153335001Y-62302675D01*
X153335001Y-62302666D01*
X153324004Y-62191013D01*
X153280547Y-62047752D01*
X153209975Y-61915723D01*
X153115002Y-61799998D01*
X153086004Y-61776200D01*
X151504527Y-60194723D01*
X151623000Y-60076250D01*
X151623000Y-58327000D01*
X151877000Y-58327000D01*
X151877000Y-60076250D01*
X152035750Y-60235000D01*
X152250000Y-60238072D01*
X152374482Y-60225812D01*
X152494180Y-60189502D01*
X152604494Y-60130537D01*
X152701185Y-60051185D01*
X152780537Y-59954494D01*
X152839502Y-59844180D01*
X152875812Y-59724482D01*
X152888072Y-59600000D01*
X152885000Y-58485750D01*
X152726250Y-58327000D01*
X151877000Y-58327000D01*
X151623000Y-58327000D01*
X150773750Y-58327000D01*
X150615000Y-58485750D01*
X150612747Y-59302944D01*
X149548806Y-58239003D01*
X149525003Y-58209999D01*
X149409278Y-58115026D01*
X149277249Y-58044454D01*
X149133988Y-58000997D01*
X149022335Y-57990000D01*
X149022324Y-57990000D01*
X148985002Y-57986324D01*
X148947680Y-57990000D01*
X148027595Y-57990000D01*
X147990706Y-57920986D01*
X147805134Y-57694866D01*
X147579014Y-57509294D01*
X147321034Y-57371401D01*
X147041111Y-57286487D01*
X146822950Y-57265000D01*
X146677050Y-57265000D01*
X146458889Y-57286487D01*
X146178966Y-57371401D01*
X145920986Y-57509294D01*
X145694866Y-57694866D01*
X145660000Y-57737350D01*
X145660000Y-56800000D01*
X150611928Y-56800000D01*
X150615000Y-57914250D01*
X150773750Y-58073000D01*
X151623000Y-58073000D01*
X151623000Y-56323750D01*
X151877000Y-56323750D01*
X151877000Y-58073000D01*
X152726250Y-58073000D01*
X152885000Y-57914250D01*
X152888072Y-56800000D01*
X152875812Y-56675518D01*
X152839502Y-56555820D01*
X152780537Y-56445506D01*
X152701185Y-56348815D01*
X152604494Y-56269463D01*
X152494180Y-56210498D01*
X152374482Y-56174188D01*
X152250000Y-56161928D01*
X152035750Y-56165000D01*
X151877000Y-56323750D01*
X151623000Y-56323750D01*
X151464250Y-56165000D01*
X151250000Y-56161928D01*
X151125518Y-56174188D01*
X151005820Y-56210498D01*
X150895506Y-56269463D01*
X150798815Y-56348815D01*
X150719463Y-56445506D01*
X150660498Y-56555820D01*
X150624188Y-56675518D01*
X150611928Y-56800000D01*
X145660000Y-56800000D01*
X145660000Y-54282279D01*
X145674341Y-54136015D01*
X145707443Y-54026375D01*
X145761212Y-53925252D01*
X145833599Y-53836497D01*
X145921848Y-53763491D01*
X146022591Y-53709019D01*
X146132004Y-53675150D01*
X146276145Y-53660000D01*
X172967721Y-53660000D01*
X173113985Y-53674341D01*
G36*
X154502000Y-73373000D02*
G01*
X154522000Y-73373000D01*
X154522000Y-73627000D01*
X154502000Y-73627000D01*
X154502000Y-73647000D01*
X154248000Y-73647000D01*
X154248000Y-73627000D01*
X154228000Y-73627000D01*
X154228000Y-73373000D01*
X154248000Y-73373000D01*
X154248000Y-73353000D01*
X154502000Y-73353000D01*
X154502000Y-73373000D01*
X154502000Y-73373000D01*
G37*
X154502000Y-73373000D02*
X154522000Y-73373000D01*
X154522000Y-73627000D01*
X154502000Y-73627000D01*
X154502000Y-73647000D01*
X154248000Y-73647000D01*
X154248000Y-73627000D01*
X154228000Y-73627000D01*
X154228000Y-73373000D01*
X154248000Y-73373000D01*
X154248000Y-73353000D01*
X154502000Y-73353000D01*
X154502000Y-73373000D01*
G36*
X167469294Y-61329014D02*
G01*
X167654866Y-61555134D01*
X167880986Y-61740706D01*
X167950001Y-61777595D01*
X167950000Y-63188788D01*
X167148789Y-63990000D01*
X166077910Y-63990000D01*
X166040587Y-63986324D01*
X166003264Y-63990000D01*
X166003255Y-63990000D01*
X165891602Y-64000997D01*
X165748341Y-64044454D01*
X165616312Y-64115026D01*
X165500587Y-64209999D01*
X165476789Y-64238997D01*
X164263999Y-65451788D01*
X164235001Y-65475586D01*
X164211203Y-65504584D01*
X164211202Y-65504585D01*
X164140027Y-65591311D01*
X164069455Y-65723341D01*
X164055465Y-65769463D01*
X164025999Y-65866601D01*
X164021727Y-65909973D01*
X164011325Y-66015587D01*
X164015002Y-66052919D01*
X164015001Y-67040376D01*
X163925519Y-67049189D01*
X163805821Y-67085499D01*
X163695507Y-67144464D01*
X163598816Y-67223816D01*
X163519464Y-67320507D01*
X163460499Y-67430821D01*
X163424189Y-67550519D01*
X163411929Y-67675001D01*
X163411929Y-68125001D01*
X163421778Y-68225001D01*
X163411929Y-68325001D01*
X163411929Y-68449923D01*
X163401013Y-68450998D01*
X163257752Y-68494455D01*
X163125722Y-68565027D01*
X163084552Y-68598815D01*
X163009998Y-68660000D01*
X162986199Y-68688999D01*
X162960198Y-68715000D01*
X162898061Y-68715000D01*
X162698102Y-68754774D01*
X162509744Y-68832795D01*
X162340226Y-68946063D01*
X162196063Y-69090226D01*
X162082795Y-69259744D01*
X162004774Y-69448102D01*
X161965000Y-69648061D01*
X161965000Y-69851939D01*
X162004774Y-70051898D01*
X162082795Y-70240256D01*
X162196063Y-70409774D01*
X162340226Y-70553937D01*
X162509744Y-70667205D01*
X162698102Y-70745226D01*
X162898061Y-70785000D01*
X162965000Y-70785000D01*
X162965000Y-70923790D01*
X161180407Y-72708384D01*
X161245226Y-72551898D01*
X161285000Y-72351939D01*
X161285000Y-72148061D01*
X161245226Y-71948102D01*
X161167205Y-71759744D01*
X161053937Y-71590226D01*
X160909774Y-71446063D01*
X160740256Y-71332795D01*
X160551898Y-71254774D01*
X160351939Y-71215000D01*
X160238073Y-71215000D01*
X160238073Y-70925001D01*
X160228224Y-70825001D01*
X160238073Y-70725001D01*
X160238073Y-70504327D01*
X160274277Y-70484975D01*
X160390002Y-70390002D01*
X160413803Y-70361001D01*
X160436004Y-70338800D01*
X160465003Y-70315001D01*
X160559976Y-70199276D01*
X160630548Y-70067247D01*
X160674005Y-69923986D01*
X160685002Y-69812333D01*
X160685002Y-69812323D01*
X160688678Y-69775001D01*
X160685002Y-69737678D01*
X160685002Y-66149827D01*
X160688678Y-66112502D01*
X160685002Y-66075177D01*
X160685002Y-66075169D01*
X160674005Y-65963516D01*
X160630548Y-65820255D01*
X160559976Y-65688226D01*
X160473835Y-65583262D01*
X160549482Y-65575812D01*
X160669180Y-65539502D01*
X160779494Y-65480537D01*
X160876185Y-65401185D01*
X160955537Y-65304494D01*
X161014502Y-65194180D01*
X161050812Y-65074482D01*
X161063072Y-64950000D01*
X161060000Y-64535750D01*
X160901250Y-64377000D01*
X160064500Y-64377000D01*
X160064500Y-64397000D01*
X159810500Y-64397000D01*
X159810500Y-64377000D01*
X159790500Y-64377000D01*
X159790500Y-64123000D01*
X159810500Y-64123000D01*
X159810500Y-64103000D01*
X160064500Y-64103000D01*
X160064500Y-64123000D01*
X160901250Y-64123000D01*
X161039260Y-63984990D01*
X163407688Y-63984990D01*
X163445010Y-63988666D01*
X163482332Y-63984990D01*
X163482343Y-63984990D01*
X163593996Y-63973993D01*
X163737257Y-63930536D01*
X163869286Y-63859964D01*
X163985011Y-63764991D01*
X164008814Y-63735987D01*
X165804005Y-61940797D01*
X165878889Y-61963513D01*
X166097050Y-61985000D01*
X166242950Y-61985000D01*
X166461111Y-61963513D01*
X166741034Y-61878599D01*
X166999014Y-61740706D01*
X167225134Y-61555134D01*
X167410706Y-61329014D01*
X167440000Y-61274209D01*
X167469294Y-61329014D01*
X167469294Y-61329014D01*
G37*
X167469294Y-61329014D02*
X167654866Y-61555134D01*
X167880986Y-61740706D01*
X167950001Y-61777595D01*
X167950000Y-63188788D01*
X167148789Y-63990000D01*
X166077910Y-63990000D01*
X166040587Y-63986324D01*
X166003264Y-63990000D01*
X166003255Y-63990000D01*
X165891602Y-64000997D01*
X165748341Y-64044454D01*
X165616312Y-64115026D01*
X165500587Y-64209999D01*
X165476789Y-64238997D01*
X164263999Y-65451788D01*
X164235001Y-65475586D01*
X164211203Y-65504584D01*
X164211202Y-65504585D01*
X164140027Y-65591311D01*
X164069455Y-65723341D01*
X164055465Y-65769463D01*
X164025999Y-65866601D01*
X164021727Y-65909973D01*
X164011325Y-66015587D01*
X164015002Y-66052919D01*
X164015001Y-67040376D01*
X163925519Y-67049189D01*
X163805821Y-67085499D01*
X163695507Y-67144464D01*
X163598816Y-67223816D01*
X163519464Y-67320507D01*
X163460499Y-67430821D01*
X163424189Y-67550519D01*
X163411929Y-67675001D01*
X163411929Y-68125001D01*
X163421778Y-68225001D01*
X163411929Y-68325001D01*
X163411929Y-68449923D01*
X163401013Y-68450998D01*
X163257752Y-68494455D01*
X163125722Y-68565027D01*
X163084552Y-68598815D01*
X163009998Y-68660000D01*
X162986199Y-68688999D01*
X162960198Y-68715000D01*
X162898061Y-68715000D01*
X162698102Y-68754774D01*
X162509744Y-68832795D01*
X162340226Y-68946063D01*
X162196063Y-69090226D01*
X162082795Y-69259744D01*
X162004774Y-69448102D01*
X161965000Y-69648061D01*
X161965000Y-69851939D01*
X162004774Y-70051898D01*
X162082795Y-70240256D01*
X162196063Y-70409774D01*
X162340226Y-70553937D01*
X162509744Y-70667205D01*
X162698102Y-70745226D01*
X162898061Y-70785000D01*
X162965000Y-70785000D01*
X162965000Y-70923790D01*
X161180407Y-72708384D01*
X161245226Y-72551898D01*
X161285000Y-72351939D01*
X161285000Y-72148061D01*
X161245226Y-71948102D01*
X161167205Y-71759744D01*
X161053937Y-71590226D01*
X160909774Y-71446063D01*
X160740256Y-71332795D01*
X160551898Y-71254774D01*
X160351939Y-71215000D01*
X160238073Y-71215000D01*
X160238073Y-70925001D01*
X160228224Y-70825001D01*
X160238073Y-70725001D01*
X160238073Y-70504327D01*
X160274277Y-70484975D01*
X160390002Y-70390002D01*
X160413803Y-70361001D01*
X160436004Y-70338800D01*
X160465003Y-70315001D01*
X160559976Y-70199276D01*
X160630548Y-70067247D01*
X160674005Y-69923986D01*
X160685002Y-69812333D01*
X160685002Y-69812323D01*
X160688678Y-69775001D01*
X160685002Y-69737678D01*
X160685002Y-66149827D01*
X160688678Y-66112502D01*
X160685002Y-66075177D01*
X160685002Y-66075169D01*
X160674005Y-65963516D01*
X160630548Y-65820255D01*
X160559976Y-65688226D01*
X160473835Y-65583262D01*
X160549482Y-65575812D01*
X160669180Y-65539502D01*
X160779494Y-65480537D01*
X160876185Y-65401185D01*
X160955537Y-65304494D01*
X161014502Y-65194180D01*
X161050812Y-65074482D01*
X161063072Y-64950000D01*
X161060000Y-64535750D01*
X160901250Y-64377000D01*
X160064500Y-64377000D01*
X160064500Y-64397000D01*
X159810500Y-64397000D01*
X159810500Y-64377000D01*
X159790500Y-64377000D01*
X159790500Y-64123000D01*
X159810500Y-64123000D01*
X159810500Y-64103000D01*
X160064500Y-64103000D01*
X160064500Y-64123000D01*
X160901250Y-64123000D01*
X161039260Y-63984990D01*
X163407688Y-63984990D01*
X163445010Y-63988666D01*
X163482332Y-63984990D01*
X163482343Y-63984990D01*
X163593996Y-63973993D01*
X163737257Y-63930536D01*
X163869286Y-63859964D01*
X163985011Y-63764991D01*
X164008814Y-63735987D01*
X165804005Y-61940797D01*
X165878889Y-61963513D01*
X166097050Y-61985000D01*
X166242950Y-61985000D01*
X166461111Y-61963513D01*
X166741034Y-61878599D01*
X166999014Y-61740706D01*
X167225134Y-61555134D01*
X167410706Y-61329014D01*
X167440000Y-61274209D01*
X167469294Y-61329014D01*
G36*
X151133593Y-61973393D02*
G01*
X151125518Y-61974188D01*
X151005820Y-62010498D01*
X150895506Y-62069463D01*
X150798815Y-62148815D01*
X150719463Y-62245506D01*
X150660498Y-62355820D01*
X150624188Y-62475518D01*
X150611928Y-62600000D01*
X150615000Y-63714250D01*
X150773750Y-63873000D01*
X151623000Y-63873000D01*
X151623000Y-63853000D01*
X151877000Y-63853000D01*
X151877000Y-63873000D01*
X151897000Y-63873000D01*
X151897000Y-64127000D01*
X151877000Y-64127000D01*
X151877000Y-64147000D01*
X151623000Y-64147000D01*
X151623000Y-64127000D01*
X150773750Y-64127000D01*
X150620275Y-64280475D01*
X149435001Y-63095202D01*
X149435001Y-62502323D01*
X149438677Y-62465000D01*
X149435001Y-62427677D01*
X149435001Y-62427668D01*
X149424004Y-62316015D01*
X149380547Y-62172754D01*
X149309975Y-62040725D01*
X149215002Y-61925000D01*
X149185998Y-61901197D01*
X148913803Y-61629002D01*
X148913798Y-61628996D01*
X148182955Y-60898154D01*
X148128599Y-60718966D01*
X147990706Y-60460986D01*
X147805134Y-60234866D01*
X147579014Y-60049294D01*
X147524209Y-60020000D01*
X147579014Y-59990706D01*
X147805134Y-59805134D01*
X147990706Y-59579014D01*
X148027595Y-59510000D01*
X148670201Y-59510000D01*
X151133593Y-61973393D01*
X151133593Y-61973393D01*
G37*
X151133593Y-61973393D02*
X151125518Y-61974188D01*
X151005820Y-62010498D01*
X150895506Y-62069463D01*
X150798815Y-62148815D01*
X150719463Y-62245506D01*
X150660498Y-62355820D01*
X150624188Y-62475518D01*
X150611928Y-62600000D01*
X150615000Y-63714250D01*
X150773750Y-63873000D01*
X151623000Y-63873000D01*
X151623000Y-63853000D01*
X151877000Y-63853000D01*
X151877000Y-63873000D01*
X151897000Y-63873000D01*
X151897000Y-64127000D01*
X151877000Y-64127000D01*
X151877000Y-64147000D01*
X151623000Y-64147000D01*
X151623000Y-64127000D01*
X150773750Y-64127000D01*
X150620275Y-64280475D01*
X149435001Y-63095202D01*
X149435001Y-62502323D01*
X149438677Y-62465000D01*
X149435001Y-62427677D01*
X149435001Y-62427668D01*
X149424004Y-62316015D01*
X149380547Y-62172754D01*
X149309975Y-62040725D01*
X149215002Y-61925000D01*
X149185998Y-61901197D01*
X148913803Y-61629002D01*
X148913798Y-61628996D01*
X148182955Y-60898154D01*
X148128599Y-60718966D01*
X147990706Y-60460986D01*
X147805134Y-60234866D01*
X147579014Y-60049294D01*
X147524209Y-60020000D01*
X147579014Y-59990706D01*
X147805134Y-59805134D01*
X147990706Y-59579014D01*
X148027595Y-59510000D01*
X148670201Y-59510000D01*
X151133593Y-61973393D01*
M02*
