G04 #@! TF.GenerationSoftware,KiCad,Pcbnew,5.1.2*
G04 #@! TF.CreationDate,2019-05-06T18:14:36-05:00*
G04 #@! TF.ProjectId,STM32F030Minimal,53544d33-3246-4303-9330-4d696e696d61,rev?*
G04 #@! TF.SameCoordinates,Original*
G04 #@! TF.FileFunction,Legend,Top*
G04 #@! TF.FilePolarity,Positive*
%FSLAX46Y46*%
G04 Gerber Fmt 4.6, Leading zero omitted, Abs format (unit mm)*
G04 Created by KiCad (PCBNEW 5.1.2) date 2019-05-06 18:14:36*
%MOMM*%
%LPD*%
G04 APERTURE LIST*
%ADD10C,0.150000*%
%ADD11C,0.125000*%
%ADD12C,0.120000*%
G04 APERTURE END LIST*
D10*
X148433333Y-64066666D02*
X148433333Y-63366666D01*
X148700000Y-63366666D01*
X148766666Y-63400000D01*
X148800000Y-63433333D01*
X148833333Y-63500000D01*
X148833333Y-63600000D01*
X148800000Y-63666666D01*
X148766666Y-63700000D01*
X148700000Y-63733333D01*
X148433333Y-63733333D01*
X149366666Y-63700000D02*
X149133333Y-63700000D01*
X149133333Y-64066666D02*
X149133333Y-63366666D01*
X149466666Y-63366666D01*
X150100000Y-64066666D02*
X149700000Y-64066666D01*
X149900000Y-64066666D02*
X149900000Y-63366666D01*
X149833333Y-63466666D01*
X149766666Y-63533333D01*
X149700000Y-63566666D01*
X148433333Y-61566666D02*
X148433333Y-60866666D01*
X148700000Y-60866666D01*
X148766666Y-60900000D01*
X148800000Y-60933333D01*
X148833333Y-61000000D01*
X148833333Y-61100000D01*
X148800000Y-61166666D01*
X148766666Y-61200000D01*
X148700000Y-61233333D01*
X148433333Y-61233333D01*
X149366666Y-61200000D02*
X149133333Y-61200000D01*
X149133333Y-61566666D02*
X149133333Y-60866666D01*
X149466666Y-60866666D01*
X149866666Y-60866666D02*
X149933333Y-60866666D01*
X150000000Y-60900000D01*
X150033333Y-60933333D01*
X150066666Y-61000000D01*
X150100000Y-61133333D01*
X150100000Y-61300000D01*
X150066666Y-61433333D01*
X150033333Y-61500000D01*
X150000000Y-61533333D01*
X149933333Y-61566666D01*
X149866666Y-61566666D01*
X149800000Y-61533333D01*
X149766666Y-61500000D01*
X149733333Y-61433333D01*
X149700000Y-61300000D01*
X149700000Y-61133333D01*
X149733333Y-61000000D01*
X149766666Y-60933333D01*
X149800000Y-60900000D01*
X149866666Y-60866666D01*
X148700000Y-59283333D02*
X148733333Y-59183333D01*
X148766666Y-59150000D01*
X148833333Y-59116666D01*
X148933333Y-59116666D01*
X149000000Y-59150000D01*
X149033333Y-59183333D01*
X149066666Y-59250000D01*
X149066666Y-59516666D01*
X148366666Y-59516666D01*
X148366666Y-59283333D01*
X148400000Y-59216666D01*
X148433333Y-59183333D01*
X148500000Y-59150000D01*
X148566666Y-59150000D01*
X148633333Y-59183333D01*
X148666666Y-59216666D01*
X148700000Y-59283333D01*
X148700000Y-59516666D01*
X148366666Y-58683333D02*
X148366666Y-58550000D01*
X148400000Y-58483333D01*
X148466666Y-58416666D01*
X148600000Y-58383333D01*
X148833333Y-58383333D01*
X148966666Y-58416666D01*
X149033333Y-58483333D01*
X149066666Y-58550000D01*
X149066666Y-58683333D01*
X149033333Y-58750000D01*
X148966666Y-58816666D01*
X148833333Y-58850000D01*
X148600000Y-58850000D01*
X148466666Y-58816666D01*
X148400000Y-58750000D01*
X148366666Y-58683333D01*
X148366666Y-57950000D02*
X148366666Y-57816666D01*
X148400000Y-57750000D01*
X148466666Y-57683333D01*
X148600000Y-57650000D01*
X148833333Y-57650000D01*
X148966666Y-57683333D01*
X149033333Y-57750000D01*
X149066666Y-57816666D01*
X149066666Y-57950000D01*
X149033333Y-58016666D01*
X148966666Y-58083333D01*
X148833333Y-58116666D01*
X148600000Y-58116666D01*
X148466666Y-58083333D01*
X148400000Y-58016666D01*
X148366666Y-57950000D01*
X148366666Y-57450000D02*
X148366666Y-57050000D01*
X149066666Y-57250000D02*
X148366666Y-57250000D01*
X148366666Y-56683333D02*
X148366666Y-56616666D01*
X148400000Y-56550000D01*
X148433333Y-56516666D01*
X148500000Y-56483333D01*
X148633333Y-56450000D01*
X148800000Y-56450000D01*
X148933333Y-56483333D01*
X149000000Y-56516666D01*
X149033333Y-56550000D01*
X149066666Y-56616666D01*
X149066666Y-56683333D01*
X149033333Y-56750000D01*
X149000000Y-56783333D01*
X148933333Y-56816666D01*
X148800000Y-56850000D01*
X148633333Y-56850000D01*
X148500000Y-56816666D01*
X148433333Y-56783333D01*
X148400000Y-56750000D01*
X148366666Y-56683333D01*
D11*
X170440476Y-58823809D02*
X170511904Y-58861904D01*
X170630952Y-58861904D01*
X170678571Y-58823809D01*
X170702380Y-58785714D01*
X170726190Y-58709523D01*
X170726190Y-58633333D01*
X170702380Y-58557142D01*
X170678571Y-58519047D01*
X170630952Y-58480952D01*
X170535714Y-58442857D01*
X170488095Y-58404761D01*
X170464285Y-58366666D01*
X170440476Y-58290476D01*
X170440476Y-58214285D01*
X170464285Y-58138095D01*
X170488095Y-58100000D01*
X170535714Y-58061904D01*
X170654761Y-58061904D01*
X170726190Y-58100000D01*
X170892857Y-58061904D02*
X171011904Y-58861904D01*
X171107142Y-58290476D01*
X171202380Y-58861904D01*
X171321428Y-58061904D01*
X171511904Y-58861904D02*
X171511904Y-58061904D01*
X171630952Y-58061904D01*
X171702380Y-58100000D01*
X171750000Y-58176190D01*
X171773809Y-58252380D01*
X171797619Y-58404761D01*
X171797619Y-58519047D01*
X171773809Y-58671428D01*
X171750000Y-58747619D01*
X171702380Y-58823809D01*
X171630952Y-58861904D01*
X171511904Y-58861904D01*
X172011904Y-58861904D02*
X172011904Y-58061904D01*
X172345238Y-58061904D02*
X172440476Y-58061904D01*
X172488095Y-58100000D01*
X172535714Y-58176190D01*
X172559523Y-58328571D01*
X172559523Y-58595238D01*
X172535714Y-58747619D01*
X172488095Y-58823809D01*
X172440476Y-58861904D01*
X172345238Y-58861904D01*
X172297619Y-58823809D01*
X172250000Y-58747619D01*
X172226190Y-58595238D01*
X172226190Y-58328571D01*
X172250000Y-58176190D01*
X172297619Y-58100000D01*
X172345238Y-58061904D01*
X167619047Y-58823809D02*
X167690476Y-58861904D01*
X167809523Y-58861904D01*
X167857142Y-58823809D01*
X167880952Y-58785714D01*
X167904761Y-58709523D01*
X167904761Y-58633333D01*
X167880952Y-58557142D01*
X167857142Y-58519047D01*
X167809523Y-58480952D01*
X167714285Y-58442857D01*
X167666666Y-58404761D01*
X167642857Y-58366666D01*
X167619047Y-58290476D01*
X167619047Y-58214285D01*
X167642857Y-58138095D01*
X167666666Y-58100000D01*
X167714285Y-58061904D01*
X167833333Y-58061904D01*
X167904761Y-58100000D01*
X168071428Y-58061904D02*
X168190476Y-58861904D01*
X168285714Y-58290476D01*
X168380952Y-58861904D01*
X168500000Y-58061904D01*
X168976190Y-58785714D02*
X168952380Y-58823809D01*
X168880952Y-58861904D01*
X168833333Y-58861904D01*
X168761904Y-58823809D01*
X168714285Y-58747619D01*
X168690476Y-58671428D01*
X168666666Y-58519047D01*
X168666666Y-58404761D01*
X168690476Y-58252380D01*
X168714285Y-58176190D01*
X168761904Y-58100000D01*
X168833333Y-58061904D01*
X168880952Y-58061904D01*
X168952380Y-58100000D01*
X168976190Y-58138095D01*
X169428571Y-58861904D02*
X169190476Y-58861904D01*
X169190476Y-58061904D01*
X169595238Y-58861904D02*
X169595238Y-58061904D01*
X169880952Y-58861904D02*
X169666666Y-58404761D01*
X169880952Y-58061904D02*
X169595238Y-58519047D01*
D10*
X165811904Y-58861904D02*
X165545238Y-58480952D01*
X165354761Y-58861904D02*
X165354761Y-58061904D01*
X165659523Y-58061904D01*
X165735714Y-58100000D01*
X165773809Y-58138095D01*
X165811904Y-58214285D01*
X165811904Y-58328571D01*
X165773809Y-58404761D01*
X165735714Y-58442857D01*
X165659523Y-58480952D01*
X165354761Y-58480952D01*
X166116666Y-58823809D02*
X166230952Y-58861904D01*
X166421428Y-58861904D01*
X166497619Y-58823809D01*
X166535714Y-58785714D01*
X166573809Y-58709523D01*
X166573809Y-58633333D01*
X166535714Y-58557142D01*
X166497619Y-58519047D01*
X166421428Y-58480952D01*
X166269047Y-58442857D01*
X166192857Y-58404761D01*
X166154761Y-58366666D01*
X166116666Y-58290476D01*
X166116666Y-58214285D01*
X166154761Y-58138095D01*
X166192857Y-58100000D01*
X166269047Y-58061904D01*
X166459523Y-58061904D01*
X166573809Y-58100000D01*
X166802380Y-58061904D02*
X167259523Y-58061904D01*
X167030952Y-58861904D02*
X167030952Y-58061904D01*
X162471428Y-58061904D02*
X162738095Y-58861904D01*
X163004761Y-58061904D01*
X163233333Y-58823809D02*
X163347619Y-58861904D01*
X163538095Y-58861904D01*
X163614285Y-58823809D01*
X163652380Y-58785714D01*
X163690476Y-58709523D01*
X163690476Y-58633333D01*
X163652380Y-58557142D01*
X163614285Y-58519047D01*
X163538095Y-58480952D01*
X163385714Y-58442857D01*
X163309523Y-58404761D01*
X163271428Y-58366666D01*
X163233333Y-58290476D01*
X163233333Y-58214285D01*
X163271428Y-58138095D01*
X163309523Y-58100000D01*
X163385714Y-58061904D01*
X163576190Y-58061904D01*
X163690476Y-58100000D01*
X163995238Y-58823809D02*
X164109523Y-58861904D01*
X164300000Y-58861904D01*
X164376190Y-58823809D01*
X164414285Y-58785714D01*
X164452380Y-58709523D01*
X164452380Y-58633333D01*
X164414285Y-58557142D01*
X164376190Y-58519047D01*
X164300000Y-58480952D01*
X164147619Y-58442857D01*
X164071428Y-58404761D01*
X164033333Y-58366666D01*
X163995238Y-58290476D01*
X163995238Y-58214285D01*
X164033333Y-58138095D01*
X164071428Y-58100000D01*
X164147619Y-58061904D01*
X164338095Y-58061904D01*
X164452380Y-58100000D01*
X159933333Y-58061904D02*
X160200000Y-58861904D01*
X160466666Y-58061904D01*
X161190476Y-58785714D02*
X161152380Y-58823809D01*
X161038095Y-58861904D01*
X160961904Y-58861904D01*
X160847619Y-58823809D01*
X160771428Y-58747619D01*
X160733333Y-58671428D01*
X160695238Y-58519047D01*
X160695238Y-58404761D01*
X160733333Y-58252380D01*
X160771428Y-58176190D01*
X160847619Y-58100000D01*
X160961904Y-58061904D01*
X161038095Y-58061904D01*
X161152380Y-58100000D01*
X161190476Y-58138095D01*
X161990476Y-58785714D02*
X161952380Y-58823809D01*
X161838095Y-58861904D01*
X161761904Y-58861904D01*
X161647619Y-58823809D01*
X161571428Y-58747619D01*
X161533333Y-58671428D01*
X161495238Y-58519047D01*
X161495238Y-58404761D01*
X161533333Y-58252380D01*
X161571428Y-58176190D01*
X161647619Y-58100000D01*
X161761904Y-58061904D01*
X161838095Y-58061904D01*
X161952380Y-58100000D01*
X161990476Y-58138095D01*
X145892857Y-55235714D02*
X146064285Y-55292857D01*
X146350000Y-55292857D01*
X146464285Y-55235714D01*
X146521428Y-55178571D01*
X146578571Y-55064285D01*
X146578571Y-54950000D01*
X146521428Y-54835714D01*
X146464285Y-54778571D01*
X146350000Y-54721428D01*
X146121428Y-54664285D01*
X146007142Y-54607142D01*
X145950000Y-54550000D01*
X145892857Y-54435714D01*
X145892857Y-54321428D01*
X145950000Y-54207142D01*
X146007142Y-54150000D01*
X146121428Y-54092857D01*
X146407142Y-54092857D01*
X146578571Y-54150000D01*
X146921428Y-54092857D02*
X147607142Y-54092857D01*
X147264285Y-55292857D02*
X147264285Y-54092857D01*
X148007142Y-55292857D02*
X148007142Y-54092857D01*
X148407142Y-54950000D01*
X148807142Y-54092857D01*
X148807142Y-55292857D01*
X149264285Y-54092857D02*
X150007142Y-54092857D01*
X149607142Y-54550000D01*
X149778571Y-54550000D01*
X149892857Y-54607142D01*
X149950000Y-54664285D01*
X150007142Y-54778571D01*
X150007142Y-55064285D01*
X149950000Y-55178571D01*
X149892857Y-55235714D01*
X149778571Y-55292857D01*
X149435714Y-55292857D01*
X149321428Y-55235714D01*
X149264285Y-55178571D01*
X150464285Y-54207142D02*
X150521428Y-54150000D01*
X150635714Y-54092857D01*
X150921428Y-54092857D01*
X151035714Y-54150000D01*
X151092857Y-54207142D01*
X151150000Y-54321428D01*
X151150000Y-54435714D01*
X151092857Y-54607142D01*
X150407142Y-55292857D01*
X151150000Y-55292857D01*
X152064285Y-54664285D02*
X151664285Y-54664285D01*
X151664285Y-55292857D02*
X151664285Y-54092857D01*
X152235714Y-54092857D01*
X152921428Y-54092857D02*
X153035714Y-54092857D01*
X153150000Y-54150000D01*
X153207142Y-54207142D01*
X153264285Y-54321428D01*
X153321428Y-54550000D01*
X153321428Y-54835714D01*
X153264285Y-55064285D01*
X153207142Y-55178571D01*
X153150000Y-55235714D01*
X153035714Y-55292857D01*
X152921428Y-55292857D01*
X152807142Y-55235714D01*
X152750000Y-55178571D01*
X152692857Y-55064285D01*
X152635714Y-54835714D01*
X152635714Y-54550000D01*
X152692857Y-54321428D01*
X152750000Y-54207142D01*
X152807142Y-54150000D01*
X152921428Y-54092857D01*
X153721428Y-54092857D02*
X154464285Y-54092857D01*
X154064285Y-54550000D01*
X154235714Y-54550000D01*
X154350000Y-54607142D01*
X154407142Y-54664285D01*
X154464285Y-54778571D01*
X154464285Y-55064285D01*
X154407142Y-55178571D01*
X154350000Y-55235714D01*
X154235714Y-55292857D01*
X153892857Y-55292857D01*
X153778571Y-55235714D01*
X153721428Y-55178571D01*
X155207142Y-54092857D02*
X155321428Y-54092857D01*
X155435714Y-54150000D01*
X155492857Y-54207142D01*
X155550000Y-54321428D01*
X155607142Y-54550000D01*
X155607142Y-54835714D01*
X155550000Y-55064285D01*
X155492857Y-55178571D01*
X155435714Y-55235714D01*
X155321428Y-55292857D01*
X155207142Y-55292857D01*
X155092857Y-55235714D01*
X155035714Y-55178571D01*
X154978571Y-55064285D01*
X154921428Y-54835714D01*
X154921428Y-54550000D01*
X154978571Y-54321428D01*
X155035714Y-54207142D01*
X155092857Y-54150000D01*
X155207142Y-54092857D01*
X157035714Y-55292857D02*
X157035714Y-54092857D01*
X157435714Y-54950000D01*
X157835714Y-54092857D01*
X157835714Y-55292857D01*
X158407142Y-55292857D02*
X158407142Y-54492857D01*
X158407142Y-54092857D02*
X158350000Y-54150000D01*
X158407142Y-54207142D01*
X158464285Y-54150000D01*
X158407142Y-54092857D01*
X158407142Y-54207142D01*
X158978571Y-54492857D02*
X158978571Y-55292857D01*
X158978571Y-54607142D02*
X159035714Y-54550000D01*
X159150000Y-54492857D01*
X159321428Y-54492857D01*
X159435714Y-54550000D01*
X159492857Y-54664285D01*
X159492857Y-55292857D01*
X160064285Y-55292857D02*
X160064285Y-54492857D01*
X160064285Y-54092857D02*
X160007142Y-54150000D01*
X160064285Y-54207142D01*
X160121428Y-54150000D01*
X160064285Y-54092857D01*
X160064285Y-54207142D01*
X160635714Y-55292857D02*
X160635714Y-54492857D01*
X160635714Y-54607142D02*
X160692857Y-54550000D01*
X160807142Y-54492857D01*
X160978571Y-54492857D01*
X161092857Y-54550000D01*
X161150000Y-54664285D01*
X161150000Y-55292857D01*
X161150000Y-54664285D02*
X161207142Y-54550000D01*
X161321428Y-54492857D01*
X161492857Y-54492857D01*
X161607142Y-54550000D01*
X161664285Y-54664285D01*
X161664285Y-55292857D01*
X162750000Y-55292857D02*
X162750000Y-54664285D01*
X162692857Y-54550000D01*
X162578571Y-54492857D01*
X162350000Y-54492857D01*
X162235714Y-54550000D01*
X162750000Y-55235714D02*
X162635714Y-55292857D01*
X162350000Y-55292857D01*
X162235714Y-55235714D01*
X162178571Y-55121428D01*
X162178571Y-55007142D01*
X162235714Y-54892857D01*
X162350000Y-54835714D01*
X162635714Y-54835714D01*
X162750000Y-54778571D01*
X163492857Y-55292857D02*
X163378571Y-55235714D01*
X163321428Y-55121428D01*
X163321428Y-54092857D01*
X164864285Y-55292857D02*
X164864285Y-54092857D01*
X165150000Y-54092857D01*
X165321428Y-54150000D01*
X165435714Y-54264285D01*
X165492857Y-54378571D01*
X165550000Y-54607142D01*
X165550000Y-54778571D01*
X165492857Y-55007142D01*
X165435714Y-55121428D01*
X165321428Y-55235714D01*
X165150000Y-55292857D01*
X164864285Y-55292857D01*
X166521428Y-55235714D02*
X166407142Y-55292857D01*
X166178571Y-55292857D01*
X166064285Y-55235714D01*
X166007142Y-55121428D01*
X166007142Y-54664285D01*
X166064285Y-54550000D01*
X166178571Y-54492857D01*
X166407142Y-54492857D01*
X166521428Y-54550000D01*
X166578571Y-54664285D01*
X166578571Y-54778571D01*
X166007142Y-54892857D01*
X166978571Y-54492857D02*
X167264285Y-55292857D01*
X167550000Y-54492857D01*
X169321428Y-54664285D02*
X169492857Y-54721428D01*
X169549999Y-54778571D01*
X169607142Y-54892857D01*
X169607142Y-55064285D01*
X169549999Y-55178571D01*
X169492857Y-55235714D01*
X169378571Y-55292857D01*
X168921428Y-55292857D01*
X168921428Y-54092857D01*
X169321428Y-54092857D01*
X169435714Y-54150000D01*
X169492857Y-54207142D01*
X169549999Y-54321428D01*
X169549999Y-54435714D01*
X169492857Y-54550000D01*
X169435714Y-54607142D01*
X169321428Y-54664285D01*
X168921428Y-54664285D01*
X170292857Y-55292857D02*
X170178571Y-55235714D01*
X170121428Y-55178571D01*
X170064285Y-55064285D01*
X170064285Y-54721428D01*
X170121428Y-54607142D01*
X170178571Y-54550000D01*
X170292857Y-54492857D01*
X170464285Y-54492857D01*
X170578571Y-54550000D01*
X170635714Y-54607142D01*
X170692857Y-54721428D01*
X170692857Y-55064285D01*
X170635714Y-55178571D01*
X170578571Y-55235714D01*
X170464285Y-55292857D01*
X170292857Y-55292857D01*
X171721428Y-55292857D02*
X171721428Y-54664285D01*
X171664285Y-54550000D01*
X171550000Y-54492857D01*
X171321428Y-54492857D01*
X171207142Y-54550000D01*
X171721428Y-55235714D02*
X171607142Y-55292857D01*
X171321428Y-55292857D01*
X171207142Y-55235714D01*
X171150000Y-55121428D01*
X171150000Y-55007142D01*
X171207142Y-54892857D01*
X171321428Y-54835714D01*
X171607142Y-54835714D01*
X171721428Y-54778571D01*
X172292857Y-55292857D02*
X172292857Y-54492857D01*
X172292857Y-54721428D02*
X172350000Y-54607142D01*
X172407142Y-54550000D01*
X172521428Y-54492857D01*
X172635714Y-54492857D01*
X173550000Y-55292857D02*
X173550000Y-54092857D01*
X173550000Y-55235714D02*
X173435714Y-55292857D01*
X173207142Y-55292857D01*
X173092857Y-55235714D01*
X173035714Y-55178571D01*
X172978571Y-55064285D01*
X172978571Y-54721428D01*
X173035714Y-54607142D01*
X173092857Y-54550000D01*
X173207142Y-54492857D01*
X173435714Y-54492857D01*
X173550000Y-54550000D01*
D12*
X151196078Y-67290000D02*
X150678922Y-67290000D01*
X151196078Y-68710000D02*
X150678922Y-68710000D01*
X151196078Y-70710000D02*
X150678922Y-70710000D01*
X151196078Y-69290000D02*
X150678922Y-69290000D01*
X159258578Y-64960000D02*
X158741422Y-64960000D01*
X159258578Y-63540000D02*
X158741422Y-63540000D01*
X168303922Y-70460000D02*
X168821078Y-70460000D01*
X168303922Y-69040000D02*
X168821078Y-69040000D01*
X168303922Y-66290000D02*
X168821078Y-66290000D01*
X168303922Y-67710000D02*
X168821078Y-67710000D01*
X155571078Y-72790000D02*
X155053922Y-72790000D01*
X155571078Y-74210000D02*
X155053922Y-74210000D01*
X151946078Y-74210000D02*
X151428922Y-74210000D01*
X151946078Y-72790000D02*
X151428922Y-72790000D01*
X148080000Y-57420000D02*
X145420000Y-57420000D01*
X148080000Y-62560000D02*
X148080000Y-57420000D01*
X145420000Y-62560000D02*
X145420000Y-57420000D01*
X148080000Y-62560000D02*
X145420000Y-62560000D01*
X148080000Y-63830000D02*
X148080000Y-65160000D01*
X148080000Y-65160000D02*
X146750000Y-65160000D01*
X157350000Y-76380000D02*
X154690000Y-76380000D01*
X157350000Y-86600000D02*
X157350000Y-76380000D01*
X154690000Y-86600000D02*
X154690000Y-76380000D01*
X157350000Y-86600000D02*
X154690000Y-86600000D01*
X157350000Y-87870000D02*
X157350000Y-89200000D01*
X157350000Y-89200000D02*
X156020000Y-89200000D01*
X161900000Y-91780000D02*
X164560000Y-91780000D01*
X161900000Y-79020000D02*
X161900000Y-91780000D01*
X164560000Y-79020000D02*
X164560000Y-91780000D01*
X161900000Y-79020000D02*
X164560000Y-79020000D01*
X161900000Y-77750000D02*
X161900000Y-76420000D01*
X161900000Y-76420000D02*
X163230000Y-76420000D01*
X172580000Y-59170000D02*
X172580000Y-60500000D01*
X171250000Y-59170000D02*
X172580000Y-59170000D01*
X169980000Y-59170000D02*
X169980000Y-61830000D01*
X169980000Y-61830000D02*
X159760000Y-61830000D01*
X169980000Y-59170000D02*
X159760000Y-59170000D01*
X159760000Y-59170000D02*
X159760000Y-61830000D01*
X150950000Y-57890000D02*
X150540000Y-57890000D01*
X150540000Y-57890000D02*
X150540000Y-64310000D01*
X150540000Y-64310000D02*
X150820000Y-64310000D01*
X152550000Y-64310000D02*
X154950000Y-64310000D01*
X156550000Y-64310000D02*
X156960000Y-64310000D01*
X156960000Y-64310000D02*
X156960000Y-57890000D01*
X156960000Y-57890000D02*
X156550000Y-57890000D01*
X154950000Y-57890000D02*
X152550000Y-57890000D01*
D10*
X159600001Y-74275001D02*
X164050001Y-74275001D01*
X158075001Y-67375001D02*
X164050001Y-67375001D01*
D12*
X156550000Y-72100000D02*
X156550000Y-66350000D01*
X156550000Y-66350000D02*
X152950000Y-66350000D01*
X152950000Y-66350000D02*
X152950000Y-72100000D01*
D10*
X148083333Y-68357142D02*
X148035714Y-68404761D01*
X147892857Y-68452380D01*
X147797619Y-68452380D01*
X147654761Y-68404761D01*
X147559523Y-68309523D01*
X147511904Y-68214285D01*
X147464285Y-68023809D01*
X147464285Y-67880952D01*
X147511904Y-67690476D01*
X147559523Y-67595238D01*
X147654761Y-67500000D01*
X147797619Y-67452380D01*
X147892857Y-67452380D01*
X148035714Y-67500000D01*
X148083333Y-67547619D01*
X149035714Y-68452380D02*
X148464285Y-68452380D01*
X148750000Y-68452380D02*
X148750000Y-67452380D01*
X148654761Y-67595238D01*
X148559523Y-67690476D01*
X148464285Y-67738095D01*
X148083333Y-70357142D02*
X148035714Y-70404761D01*
X147892857Y-70452380D01*
X147797619Y-70452380D01*
X147654761Y-70404761D01*
X147559523Y-70309523D01*
X147511904Y-70214285D01*
X147464285Y-70023809D01*
X147464285Y-69880952D01*
X147511904Y-69690476D01*
X147559523Y-69595238D01*
X147654761Y-69500000D01*
X147797619Y-69452380D01*
X147892857Y-69452380D01*
X148035714Y-69500000D01*
X148083333Y-69547619D01*
X148464285Y-69547619D02*
X148511904Y-69500000D01*
X148607142Y-69452380D01*
X148845238Y-69452380D01*
X148940476Y-69500000D01*
X148988095Y-69547619D01*
X149035714Y-69642857D01*
X149035714Y-69738095D01*
X148988095Y-69880952D01*
X148416666Y-70452380D01*
X149035714Y-70452380D01*
X158833333Y-66257142D02*
X158785714Y-66304761D01*
X158642857Y-66352380D01*
X158547619Y-66352380D01*
X158404761Y-66304761D01*
X158309523Y-66209523D01*
X158261904Y-66114285D01*
X158214285Y-65923809D01*
X158214285Y-65780952D01*
X158261904Y-65590476D01*
X158309523Y-65495238D01*
X158404761Y-65400000D01*
X158547619Y-65352380D01*
X158642857Y-65352380D01*
X158785714Y-65400000D01*
X158833333Y-65447619D01*
X159166666Y-65352380D02*
X159785714Y-65352380D01*
X159452380Y-65733333D01*
X159595238Y-65733333D01*
X159690476Y-65780952D01*
X159738095Y-65828571D01*
X159785714Y-65923809D01*
X159785714Y-66161904D01*
X159738095Y-66257142D01*
X159690476Y-66304761D01*
X159595238Y-66352380D01*
X159309523Y-66352380D01*
X159214285Y-66304761D01*
X159166666Y-66257142D01*
X168333333Y-68857142D02*
X168285714Y-68904761D01*
X168142857Y-68952380D01*
X168047619Y-68952380D01*
X167904761Y-68904761D01*
X167809523Y-68809523D01*
X167761904Y-68714285D01*
X167714285Y-68523809D01*
X167714285Y-68380952D01*
X167761904Y-68190476D01*
X167809523Y-68095238D01*
X167904761Y-68000000D01*
X168047619Y-67952380D01*
X168142857Y-67952380D01*
X168285714Y-68000000D01*
X168333333Y-68047619D01*
X169190476Y-68285714D02*
X169190476Y-68952380D01*
X168952380Y-67904761D02*
X168714285Y-68619047D01*
X169333333Y-68619047D01*
X168395833Y-65707142D02*
X168348214Y-65754761D01*
X168205357Y-65802380D01*
X168110119Y-65802380D01*
X167967261Y-65754761D01*
X167872023Y-65659523D01*
X167824404Y-65564285D01*
X167776785Y-65373809D01*
X167776785Y-65230952D01*
X167824404Y-65040476D01*
X167872023Y-64945238D01*
X167967261Y-64850000D01*
X168110119Y-64802380D01*
X168205357Y-64802380D01*
X168348214Y-64850000D01*
X168395833Y-64897619D01*
X169300595Y-64802380D02*
X168824404Y-64802380D01*
X168776785Y-65278571D01*
X168824404Y-65230952D01*
X168919642Y-65183333D01*
X169157738Y-65183333D01*
X169252976Y-65230952D01*
X169300595Y-65278571D01*
X169348214Y-65373809D01*
X169348214Y-65611904D01*
X169300595Y-65707142D01*
X169252976Y-65754761D01*
X169157738Y-65802380D01*
X168919642Y-65802380D01*
X168824404Y-65754761D01*
X168776785Y-65707142D01*
X155145833Y-75357142D02*
X155098214Y-75404761D01*
X154955357Y-75452380D01*
X154860119Y-75452380D01*
X154717261Y-75404761D01*
X154622023Y-75309523D01*
X154574404Y-75214285D01*
X154526785Y-75023809D01*
X154526785Y-74880952D01*
X154574404Y-74690476D01*
X154622023Y-74595238D01*
X154717261Y-74500000D01*
X154860119Y-74452380D01*
X154955357Y-74452380D01*
X155098214Y-74500000D01*
X155145833Y-74547619D01*
X156002976Y-74452380D02*
X155812500Y-74452380D01*
X155717261Y-74500000D01*
X155669642Y-74547619D01*
X155574404Y-74690476D01*
X155526785Y-74880952D01*
X155526785Y-75261904D01*
X155574404Y-75357142D01*
X155622023Y-75404761D01*
X155717261Y-75452380D01*
X155907738Y-75452380D01*
X156002976Y-75404761D01*
X156050595Y-75357142D01*
X156098214Y-75261904D01*
X156098214Y-75023809D01*
X156050595Y-74928571D01*
X156002976Y-74880952D01*
X155907738Y-74833333D01*
X155717261Y-74833333D01*
X155622023Y-74880952D01*
X155574404Y-74928571D01*
X155526785Y-75023809D01*
X151520833Y-75507142D02*
X151473214Y-75554761D01*
X151330357Y-75602380D01*
X151235119Y-75602380D01*
X151092261Y-75554761D01*
X150997023Y-75459523D01*
X150949404Y-75364285D01*
X150901785Y-75173809D01*
X150901785Y-75030952D01*
X150949404Y-74840476D01*
X150997023Y-74745238D01*
X151092261Y-74650000D01*
X151235119Y-74602380D01*
X151330357Y-74602380D01*
X151473214Y-74650000D01*
X151520833Y-74697619D01*
X151854166Y-74602380D02*
X152520833Y-74602380D01*
X152092261Y-75602380D01*
X147666666Y-65452380D02*
X147666666Y-66166666D01*
X147619047Y-66309523D01*
X147523809Y-66404761D01*
X147380952Y-66452380D01*
X147285714Y-66452380D01*
X148666666Y-66452380D02*
X148095238Y-66452380D01*
X148380952Y-66452380D02*
X148380952Y-65452380D01*
X148285714Y-65595238D01*
X148190476Y-65690476D01*
X148095238Y-65738095D01*
X155686666Y-89652380D02*
X155686666Y-90366666D01*
X155639047Y-90509523D01*
X155543809Y-90604761D01*
X155400952Y-90652380D01*
X155305714Y-90652380D01*
X156115238Y-89747619D02*
X156162857Y-89700000D01*
X156258095Y-89652380D01*
X156496190Y-89652380D01*
X156591428Y-89700000D01*
X156639047Y-89747619D01*
X156686666Y-89842857D01*
X156686666Y-89938095D01*
X156639047Y-90080952D01*
X156067619Y-90652380D01*
X156686666Y-90652380D01*
X155329523Y-75832380D02*
X154853333Y-75832380D01*
X154853333Y-74832380D01*
X156043809Y-75784761D02*
X155948571Y-75832380D01*
X155758095Y-75832380D01*
X155662857Y-75784761D01*
X155615238Y-75689523D01*
X155615238Y-75308571D01*
X155662857Y-75213333D01*
X155758095Y-75165714D01*
X155948571Y-75165714D01*
X156043809Y-75213333D01*
X156091428Y-75308571D01*
X156091428Y-75403809D01*
X155615238Y-75499047D01*
X156377142Y-75165714D02*
X156758095Y-75165714D01*
X156520000Y-75832380D02*
X156520000Y-74975238D01*
X156567619Y-74880000D01*
X156662857Y-74832380D01*
X156758095Y-74832380D01*
X156948571Y-75165714D02*
X157329523Y-75165714D01*
X157091428Y-74832380D02*
X157091428Y-75689523D01*
X157139047Y-75784761D01*
X157234285Y-75832380D01*
X157329523Y-75832380D01*
X162896666Y-74872380D02*
X162896666Y-75586666D01*
X162849047Y-75729523D01*
X162753809Y-75824761D01*
X162610952Y-75872380D01*
X162515714Y-75872380D01*
X163277619Y-74872380D02*
X163896666Y-74872380D01*
X163563333Y-75253333D01*
X163706190Y-75253333D01*
X163801428Y-75300952D01*
X163849047Y-75348571D01*
X163896666Y-75443809D01*
X163896666Y-75681904D01*
X163849047Y-75777142D01*
X163801428Y-75824761D01*
X163706190Y-75872380D01*
X163420476Y-75872380D01*
X163325238Y-75824761D01*
X163277619Y-75777142D01*
X162110952Y-93232380D02*
X161777619Y-92756190D01*
X161539523Y-93232380D02*
X161539523Y-92232380D01*
X161920476Y-92232380D01*
X162015714Y-92280000D01*
X162063333Y-92327619D01*
X162110952Y-92422857D01*
X162110952Y-92565714D01*
X162063333Y-92660952D01*
X162015714Y-92708571D01*
X161920476Y-92756190D01*
X161539523Y-92756190D01*
X162539523Y-93232380D02*
X162539523Y-92565714D01*
X162539523Y-92232380D02*
X162491904Y-92280000D01*
X162539523Y-92327619D01*
X162587142Y-92280000D01*
X162539523Y-92232380D01*
X162539523Y-92327619D01*
X163444285Y-92565714D02*
X163444285Y-93375238D01*
X163396666Y-93470476D01*
X163349047Y-93518095D01*
X163253809Y-93565714D01*
X163110952Y-93565714D01*
X163015714Y-93518095D01*
X163444285Y-93184761D02*
X163349047Y-93232380D01*
X163158571Y-93232380D01*
X163063333Y-93184761D01*
X163015714Y-93137142D01*
X162968095Y-93041904D01*
X162968095Y-92756190D01*
X163015714Y-92660952D01*
X163063333Y-92613333D01*
X163158571Y-92565714D01*
X163349047Y-92565714D01*
X163444285Y-92613333D01*
X163920476Y-93232380D02*
X163920476Y-92232380D01*
X164349047Y-93232380D02*
X164349047Y-92708571D01*
X164301428Y-92613333D01*
X164206190Y-92565714D01*
X164063333Y-92565714D01*
X163968095Y-92613333D01*
X163920476Y-92660952D01*
X164682380Y-92565714D02*
X165063333Y-92565714D01*
X164825238Y-92232380D02*
X164825238Y-93089523D01*
X164872857Y-93184761D01*
X164968095Y-93232380D01*
X165063333Y-93232380D01*
X173032380Y-60833333D02*
X173746666Y-60833333D01*
X173889523Y-60880952D01*
X173984761Y-60976190D01*
X174032380Y-61119047D01*
X174032380Y-61214285D01*
X173365714Y-59928571D02*
X174032380Y-59928571D01*
X172984761Y-60166666D02*
X173699047Y-60404761D01*
X173699047Y-59785714D01*
X159202380Y-61976190D02*
X158202380Y-61976190D01*
X158202380Y-61595238D01*
X158250000Y-61500000D01*
X158297619Y-61452380D01*
X158392857Y-61404761D01*
X158535714Y-61404761D01*
X158630952Y-61452380D01*
X158678571Y-61500000D01*
X158726190Y-61595238D01*
X158726190Y-61976190D01*
X159202380Y-60976190D02*
X158535714Y-60976190D01*
X158726190Y-60976190D02*
X158630952Y-60928571D01*
X158583333Y-60880952D01*
X158535714Y-60785714D01*
X158535714Y-60690476D01*
X159202380Y-60214285D02*
X159154761Y-60309523D01*
X159107142Y-60357142D01*
X159011904Y-60404761D01*
X158726190Y-60404761D01*
X158630952Y-60357142D01*
X158583333Y-60309523D01*
X158535714Y-60214285D01*
X158535714Y-60071428D01*
X158583333Y-59976190D01*
X158630952Y-59928571D01*
X158726190Y-59880952D01*
X159011904Y-59880952D01*
X159107142Y-59928571D01*
X159154761Y-59976190D01*
X159202380Y-60071428D01*
X159202380Y-60214285D01*
X158535714Y-59023809D02*
X159345238Y-59023809D01*
X159440476Y-59071428D01*
X159488095Y-59119047D01*
X159535714Y-59214285D01*
X159535714Y-59357142D01*
X159488095Y-59452380D01*
X159154761Y-59023809D02*
X159202380Y-59119047D01*
X159202380Y-59309523D01*
X159154761Y-59404761D01*
X159107142Y-59452380D01*
X159011904Y-59500000D01*
X158726190Y-59500000D01*
X158630952Y-59452380D01*
X158583333Y-59404761D01*
X158535714Y-59309523D01*
X158535714Y-59119047D01*
X158583333Y-59023809D01*
X151511904Y-56452380D02*
X151178571Y-55976190D01*
X150940476Y-56452380D02*
X150940476Y-55452380D01*
X151321428Y-55452380D01*
X151416666Y-55500000D01*
X151464285Y-55547619D01*
X151511904Y-55642857D01*
X151511904Y-55785714D01*
X151464285Y-55880952D01*
X151416666Y-55928571D01*
X151321428Y-55976190D01*
X150940476Y-55976190D01*
X152321428Y-56404761D02*
X152226190Y-56452380D01*
X152035714Y-56452380D01*
X151940476Y-56404761D01*
X151892857Y-56309523D01*
X151892857Y-55928571D01*
X151940476Y-55833333D01*
X152035714Y-55785714D01*
X152226190Y-55785714D01*
X152321428Y-55833333D01*
X152369047Y-55928571D01*
X152369047Y-56023809D01*
X151892857Y-56119047D01*
X152750000Y-56404761D02*
X152845238Y-56452380D01*
X153035714Y-56452380D01*
X153130952Y-56404761D01*
X153178571Y-56309523D01*
X153178571Y-56261904D01*
X153130952Y-56166666D01*
X153035714Y-56119047D01*
X152892857Y-56119047D01*
X152797619Y-56071428D01*
X152750000Y-55976190D01*
X152750000Y-55928571D01*
X152797619Y-55833333D01*
X152892857Y-55785714D01*
X153035714Y-55785714D01*
X153130952Y-55833333D01*
X153988095Y-56404761D02*
X153892857Y-56452380D01*
X153702380Y-56452380D01*
X153607142Y-56404761D01*
X153559523Y-56309523D01*
X153559523Y-55928571D01*
X153607142Y-55833333D01*
X153702380Y-55785714D01*
X153892857Y-55785714D01*
X153988095Y-55833333D01*
X154035714Y-55928571D01*
X154035714Y-56023809D01*
X153559523Y-56119047D01*
X154321428Y-55785714D02*
X154702380Y-55785714D01*
X154464285Y-55452380D02*
X154464285Y-56309523D01*
X154511904Y-56404761D01*
X154607142Y-56452380D01*
X154702380Y-56452380D01*
X161063096Y-65977381D02*
X161063096Y-66786905D01*
X161110715Y-66882143D01*
X161158334Y-66929762D01*
X161253572Y-66977381D01*
X161444048Y-66977381D01*
X161539286Y-66929762D01*
X161586905Y-66882143D01*
X161634524Y-66786905D01*
X161634524Y-65977381D01*
X162634524Y-66977381D02*
X162063096Y-66977381D01*
X162348810Y-66977381D02*
X162348810Y-65977381D01*
X162253572Y-66120239D01*
X162158334Y-66215477D01*
X162063096Y-66263096D01*
X157526190Y-69876190D02*
X158002380Y-69876190D01*
X157002380Y-70209523D02*
X157526190Y-69876190D01*
X157002380Y-69542857D01*
X158002380Y-68685714D02*
X158002380Y-69257142D01*
X158002380Y-68971428D02*
X157002380Y-68971428D01*
X157145238Y-69066666D01*
X157240476Y-69161904D01*
X157288095Y-69257142D01*
M02*
