G04 #@! TF.GenerationSoftware,KiCad,Pcbnew,5.1.2*
G04 #@! TF.CreationDate,2019-05-06T11:57:56-05:00*
G04 #@! TF.ProjectId,STM32L011Minimal,53544d33-324c-4303-9131-4d696e696d61,rev?*
G04 #@! TF.SameCoordinates,Original*
G04 #@! TF.FileFunction,Soldermask,Top*
G04 #@! TF.FilePolarity,Negative*
%FSLAX46Y46*%
G04 Gerber Fmt 4.6, Leading zero omitted, Abs format (unit mm)*
G04 Created by KiCad (PCBNEW 5.1.2) date 2019-05-06 11:57:56*
%MOMM*%
%LPD*%
G04 APERTURE LIST*
%ADD10C,0.100000*%
G04 APERTURE END LIST*
D10*
G36*
X163461000Y-88531000D02*
G01*
X161659000Y-88531000D01*
X161659000Y-86729000D01*
X163461000Y-86729000D01*
X163461000Y-88531000D01*
X163461000Y-88531000D01*
G37*
G36*
X157590442Y-86735518D02*
G01*
X157656627Y-86742037D01*
X157826466Y-86793557D01*
X157982991Y-86877222D01*
X158018729Y-86906552D01*
X158120186Y-86989814D01*
X158203448Y-87091271D01*
X158232778Y-87127009D01*
X158316443Y-87283534D01*
X158367963Y-87453373D01*
X158385359Y-87630000D01*
X158367963Y-87806627D01*
X158316443Y-87976466D01*
X158232778Y-88132991D01*
X158203448Y-88168729D01*
X158120186Y-88270186D01*
X158018729Y-88353448D01*
X157982991Y-88382778D01*
X157826466Y-88466443D01*
X157656627Y-88517963D01*
X157590442Y-88524482D01*
X157524260Y-88531000D01*
X157435740Y-88531000D01*
X157369558Y-88524482D01*
X157303373Y-88517963D01*
X157133534Y-88466443D01*
X156977009Y-88382778D01*
X156941271Y-88353448D01*
X156839814Y-88270186D01*
X156756552Y-88168729D01*
X156727222Y-88132991D01*
X156643557Y-87976466D01*
X156592037Y-87806627D01*
X156574641Y-87630000D01*
X156592037Y-87453373D01*
X156643557Y-87283534D01*
X156727222Y-87127009D01*
X156756552Y-87091271D01*
X156839814Y-86989814D01*
X156941271Y-86906552D01*
X156977009Y-86877222D01*
X157133534Y-86793557D01*
X157303373Y-86742037D01*
X157369558Y-86735518D01*
X157435740Y-86729000D01*
X157524260Y-86729000D01*
X157590442Y-86735518D01*
X157590442Y-86735518D01*
G37*
G36*
X155050442Y-86735518D02*
G01*
X155116627Y-86742037D01*
X155286466Y-86793557D01*
X155442991Y-86877222D01*
X155478729Y-86906552D01*
X155580186Y-86989814D01*
X155663448Y-87091271D01*
X155692778Y-87127009D01*
X155776443Y-87283534D01*
X155827963Y-87453373D01*
X155845359Y-87630000D01*
X155827963Y-87806627D01*
X155776443Y-87976466D01*
X155692778Y-88132991D01*
X155663448Y-88168729D01*
X155580186Y-88270186D01*
X155478729Y-88353448D01*
X155442991Y-88382778D01*
X155286466Y-88466443D01*
X155116627Y-88517963D01*
X155050442Y-88524482D01*
X154984260Y-88531000D01*
X154895740Y-88531000D01*
X154829558Y-88524482D01*
X154763373Y-88517963D01*
X154593534Y-88466443D01*
X154437009Y-88382778D01*
X154401271Y-88353448D01*
X154299814Y-88270186D01*
X154216552Y-88168729D01*
X154187222Y-88132991D01*
X154103557Y-87976466D01*
X154052037Y-87806627D01*
X154034641Y-87630000D01*
X154052037Y-87453373D01*
X154103557Y-87283534D01*
X154187222Y-87127009D01*
X154216552Y-87091271D01*
X154299814Y-86989814D01*
X154401271Y-86906552D01*
X154437009Y-86877222D01*
X154593534Y-86793557D01*
X154763373Y-86742037D01*
X154829558Y-86735518D01*
X154895740Y-86729000D01*
X154984260Y-86729000D01*
X155050442Y-86735518D01*
X155050442Y-86735518D01*
G37*
G36*
X152510442Y-86735518D02*
G01*
X152576627Y-86742037D01*
X152746466Y-86793557D01*
X152902991Y-86877222D01*
X152938729Y-86906552D01*
X153040186Y-86989814D01*
X153123448Y-87091271D01*
X153152778Y-87127009D01*
X153236443Y-87283534D01*
X153287963Y-87453373D01*
X153305359Y-87630000D01*
X153287963Y-87806627D01*
X153236443Y-87976466D01*
X153152778Y-88132991D01*
X153123448Y-88168729D01*
X153040186Y-88270186D01*
X152938729Y-88353448D01*
X152902991Y-88382778D01*
X152746466Y-88466443D01*
X152576627Y-88517963D01*
X152510442Y-88524482D01*
X152444260Y-88531000D01*
X152355740Y-88531000D01*
X152289558Y-88524482D01*
X152223373Y-88517963D01*
X152053534Y-88466443D01*
X151897009Y-88382778D01*
X151861271Y-88353448D01*
X151759814Y-88270186D01*
X151676552Y-88168729D01*
X151647222Y-88132991D01*
X151563557Y-87976466D01*
X151512037Y-87806627D01*
X151494641Y-87630000D01*
X151512037Y-87453373D01*
X151563557Y-87283534D01*
X151647222Y-87127009D01*
X151676552Y-87091271D01*
X151759814Y-86989814D01*
X151861271Y-86906552D01*
X151897009Y-86877222D01*
X152053534Y-86793557D01*
X152223373Y-86742037D01*
X152289558Y-86735518D01*
X152355740Y-86729000D01*
X152444260Y-86729000D01*
X152510442Y-86735518D01*
X152510442Y-86735518D01*
G37*
G36*
X149970442Y-86735518D02*
G01*
X150036627Y-86742037D01*
X150206466Y-86793557D01*
X150362991Y-86877222D01*
X150398729Y-86906552D01*
X150500186Y-86989814D01*
X150583448Y-87091271D01*
X150612778Y-87127009D01*
X150696443Y-87283534D01*
X150747963Y-87453373D01*
X150765359Y-87630000D01*
X150747963Y-87806627D01*
X150696443Y-87976466D01*
X150612778Y-88132991D01*
X150583448Y-88168729D01*
X150500186Y-88270186D01*
X150398729Y-88353448D01*
X150362991Y-88382778D01*
X150206466Y-88466443D01*
X150036627Y-88517963D01*
X149970442Y-88524482D01*
X149904260Y-88531000D01*
X149815740Y-88531000D01*
X149749558Y-88524482D01*
X149683373Y-88517963D01*
X149513534Y-88466443D01*
X149357009Y-88382778D01*
X149321271Y-88353448D01*
X149219814Y-88270186D01*
X149136552Y-88168729D01*
X149107222Y-88132991D01*
X149023557Y-87976466D01*
X148972037Y-87806627D01*
X148954641Y-87630000D01*
X148972037Y-87453373D01*
X149023557Y-87283534D01*
X149107222Y-87127009D01*
X149136552Y-87091271D01*
X149219814Y-86989814D01*
X149321271Y-86906552D01*
X149357009Y-86877222D01*
X149513534Y-86793557D01*
X149683373Y-86742037D01*
X149749558Y-86735518D01*
X149815740Y-86729000D01*
X149904260Y-86729000D01*
X149970442Y-86735518D01*
X149970442Y-86735518D01*
G37*
G36*
X160130442Y-86735518D02*
G01*
X160196627Y-86742037D01*
X160366466Y-86793557D01*
X160522991Y-86877222D01*
X160558729Y-86906552D01*
X160660186Y-86989814D01*
X160743448Y-87091271D01*
X160772778Y-87127009D01*
X160856443Y-87283534D01*
X160907963Y-87453373D01*
X160925359Y-87630000D01*
X160907963Y-87806627D01*
X160856443Y-87976466D01*
X160772778Y-88132991D01*
X160743448Y-88168729D01*
X160660186Y-88270186D01*
X160558729Y-88353448D01*
X160522991Y-88382778D01*
X160366466Y-88466443D01*
X160196627Y-88517963D01*
X160130442Y-88524482D01*
X160064260Y-88531000D01*
X159975740Y-88531000D01*
X159909558Y-88524482D01*
X159843373Y-88517963D01*
X159673534Y-88466443D01*
X159517009Y-88382778D01*
X159481271Y-88353448D01*
X159379814Y-88270186D01*
X159296552Y-88168729D01*
X159267222Y-88132991D01*
X159183557Y-87976466D01*
X159132037Y-87806627D01*
X159114641Y-87630000D01*
X159132037Y-87453373D01*
X159183557Y-87283534D01*
X159267222Y-87127009D01*
X159296552Y-87091271D01*
X159379814Y-86989814D01*
X159481271Y-86906552D01*
X159517009Y-86877222D01*
X159673534Y-86793557D01*
X159843373Y-86742037D01*
X159909558Y-86735518D01*
X159975740Y-86729000D01*
X160064260Y-86729000D01*
X160130442Y-86735518D01*
X160130442Y-86735518D01*
G37*
G36*
X168221968Y-84753565D02*
G01*
X168260638Y-84765296D01*
X168296277Y-84784346D01*
X168327517Y-84809983D01*
X168353154Y-84841223D01*
X168372204Y-84876862D01*
X168383935Y-84915532D01*
X168388500Y-84961888D01*
X168388500Y-86038112D01*
X168383935Y-86084468D01*
X168372204Y-86123138D01*
X168353154Y-86158777D01*
X168327517Y-86190017D01*
X168296277Y-86215654D01*
X168260638Y-86234704D01*
X168221968Y-86246435D01*
X168175612Y-86251000D01*
X167524388Y-86251000D01*
X167478032Y-86246435D01*
X167439362Y-86234704D01*
X167403723Y-86215654D01*
X167372483Y-86190017D01*
X167346846Y-86158777D01*
X167327796Y-86123138D01*
X167316065Y-86084468D01*
X167311500Y-86038112D01*
X167311500Y-84961888D01*
X167316065Y-84915532D01*
X167327796Y-84876862D01*
X167346846Y-84841223D01*
X167372483Y-84809983D01*
X167403723Y-84784346D01*
X167439362Y-84765296D01*
X167478032Y-84753565D01*
X167524388Y-84749000D01*
X168175612Y-84749000D01*
X168221968Y-84753565D01*
X168221968Y-84753565D01*
G37*
G36*
X170096968Y-84753565D02*
G01*
X170135638Y-84765296D01*
X170171277Y-84784346D01*
X170202517Y-84809983D01*
X170228154Y-84841223D01*
X170247204Y-84876862D01*
X170258935Y-84915532D01*
X170263500Y-84961888D01*
X170263500Y-86038112D01*
X170258935Y-86084468D01*
X170247204Y-86123138D01*
X170228154Y-86158777D01*
X170202517Y-86190017D01*
X170171277Y-86215654D01*
X170135638Y-86234704D01*
X170096968Y-86246435D01*
X170050612Y-86251000D01*
X169399388Y-86251000D01*
X169353032Y-86246435D01*
X169314362Y-86234704D01*
X169278723Y-86215654D01*
X169247483Y-86190017D01*
X169221846Y-86158777D01*
X169202796Y-86123138D01*
X169191065Y-86084468D01*
X169186500Y-86038112D01*
X169186500Y-84961888D01*
X169191065Y-84915532D01*
X169202796Y-84876862D01*
X169221846Y-84841223D01*
X169247483Y-84809983D01*
X169278723Y-84784346D01*
X169314362Y-84765296D01*
X169353032Y-84753565D01*
X169399388Y-84749000D01*
X170050612Y-84749000D01*
X170096968Y-84753565D01*
X170096968Y-84753565D01*
G37*
G36*
X174100443Y-82925519D02*
G01*
X174166627Y-82932037D01*
X174336466Y-82983557D01*
X174492991Y-83067222D01*
X174518445Y-83088112D01*
X174630186Y-83179814D01*
X174700632Y-83265654D01*
X174742778Y-83317009D01*
X174826443Y-83473534D01*
X174877963Y-83643373D01*
X174895359Y-83820000D01*
X174877963Y-83996627D01*
X174826443Y-84166466D01*
X174742778Y-84322991D01*
X174713448Y-84358729D01*
X174630186Y-84460186D01*
X174528729Y-84543448D01*
X174492991Y-84572778D01*
X174336466Y-84656443D01*
X174166627Y-84707963D01*
X174100443Y-84714481D01*
X174034260Y-84721000D01*
X173945740Y-84721000D01*
X173879557Y-84714481D01*
X173813373Y-84707963D01*
X173643534Y-84656443D01*
X173487009Y-84572778D01*
X173451271Y-84543448D01*
X173349814Y-84460186D01*
X173266552Y-84358729D01*
X173237222Y-84322991D01*
X173153557Y-84166466D01*
X173102037Y-83996627D01*
X173084641Y-83820000D01*
X173102037Y-83643373D01*
X173153557Y-83473534D01*
X173237222Y-83317009D01*
X173279368Y-83265654D01*
X173349814Y-83179814D01*
X173461555Y-83088112D01*
X173487009Y-83067222D01*
X173643534Y-82983557D01*
X173813373Y-82932037D01*
X173879557Y-82925519D01*
X173945740Y-82919000D01*
X174034260Y-82919000D01*
X174100443Y-82925519D01*
X174100443Y-82925519D01*
G37*
G36*
X165581001Y-83791001D02*
G01*
X164029001Y-83791001D01*
X164029001Y-79339001D01*
X165581001Y-79339001D01*
X165581001Y-83791001D01*
X165581001Y-83791001D01*
G37*
G36*
X159681001Y-83791001D02*
G01*
X158129001Y-83791001D01*
X158129001Y-79339001D01*
X159681001Y-79339001D01*
X159681001Y-83791001D01*
X159681001Y-83791001D01*
G37*
G36*
X153436968Y-81803565D02*
G01*
X153475638Y-81815296D01*
X153511277Y-81834346D01*
X153542517Y-81859983D01*
X153568154Y-81891223D01*
X153587204Y-81926862D01*
X153598935Y-81965532D01*
X153603500Y-82011888D01*
X153603500Y-83088112D01*
X153598935Y-83134468D01*
X153587204Y-83173138D01*
X153568154Y-83208777D01*
X153542517Y-83240017D01*
X153511277Y-83265654D01*
X153475638Y-83284704D01*
X153436968Y-83296435D01*
X153390612Y-83301000D01*
X152739388Y-83301000D01*
X152693032Y-83296435D01*
X152654362Y-83284704D01*
X152618723Y-83265654D01*
X152587483Y-83240017D01*
X152561846Y-83208777D01*
X152542796Y-83173138D01*
X152531065Y-83134468D01*
X152526500Y-83088112D01*
X152526500Y-82011888D01*
X152531065Y-81965532D01*
X152542796Y-81926862D01*
X152561846Y-81891223D01*
X152587483Y-81859983D01*
X152618723Y-81834346D01*
X152654362Y-81815296D01*
X152693032Y-81803565D01*
X152739388Y-81799000D01*
X153390612Y-81799000D01*
X153436968Y-81803565D01*
X153436968Y-81803565D01*
G37*
G36*
X155311968Y-81803565D02*
G01*
X155350638Y-81815296D01*
X155386277Y-81834346D01*
X155417517Y-81859983D01*
X155443154Y-81891223D01*
X155462204Y-81926862D01*
X155473935Y-81965532D01*
X155478500Y-82011888D01*
X155478500Y-83088112D01*
X155473935Y-83134468D01*
X155462204Y-83173138D01*
X155443154Y-83208777D01*
X155417517Y-83240017D01*
X155386277Y-83265654D01*
X155350638Y-83284704D01*
X155311968Y-83296435D01*
X155265612Y-83301000D01*
X154614388Y-83301000D01*
X154568032Y-83296435D01*
X154529362Y-83284704D01*
X154493723Y-83265654D01*
X154462483Y-83240017D01*
X154436846Y-83208777D01*
X154417796Y-83173138D01*
X154406065Y-83134468D01*
X154401500Y-83088112D01*
X154401500Y-82011888D01*
X154406065Y-81965532D01*
X154417796Y-81926862D01*
X154436846Y-81891223D01*
X154462483Y-81859983D01*
X154493723Y-81834346D01*
X154529362Y-81815296D01*
X154568032Y-81803565D01*
X154614388Y-81799000D01*
X155265612Y-81799000D01*
X155311968Y-81803565D01*
X155311968Y-81803565D01*
G37*
G36*
X170096968Y-81503565D02*
G01*
X170135638Y-81515296D01*
X170171277Y-81534346D01*
X170202517Y-81559983D01*
X170228154Y-81591223D01*
X170247204Y-81626862D01*
X170258935Y-81665532D01*
X170263500Y-81711888D01*
X170263500Y-82788112D01*
X170258935Y-82834468D01*
X170247204Y-82873138D01*
X170228154Y-82908777D01*
X170202517Y-82940017D01*
X170171277Y-82965654D01*
X170135638Y-82984704D01*
X170096968Y-82996435D01*
X170050612Y-83001000D01*
X169399388Y-83001000D01*
X169353032Y-82996435D01*
X169314362Y-82984704D01*
X169278723Y-82965654D01*
X169247483Y-82940017D01*
X169221846Y-82908777D01*
X169202796Y-82873138D01*
X169191065Y-82834468D01*
X169186500Y-82788112D01*
X169186500Y-81711888D01*
X169191065Y-81665532D01*
X169202796Y-81626862D01*
X169221846Y-81591223D01*
X169247483Y-81559983D01*
X169278723Y-81534346D01*
X169314362Y-81515296D01*
X169353032Y-81503565D01*
X169399388Y-81499000D01*
X170050612Y-81499000D01*
X170096968Y-81503565D01*
X170096968Y-81503565D01*
G37*
G36*
X168221968Y-81503565D02*
G01*
X168260638Y-81515296D01*
X168296277Y-81534346D01*
X168327517Y-81559983D01*
X168353154Y-81591223D01*
X168372204Y-81626862D01*
X168383935Y-81665532D01*
X168388500Y-81711888D01*
X168388500Y-82788112D01*
X168383935Y-82834468D01*
X168372204Y-82873138D01*
X168353154Y-82908777D01*
X168327517Y-82940017D01*
X168296277Y-82965654D01*
X168260638Y-82984704D01*
X168221968Y-82996435D01*
X168175612Y-83001000D01*
X167524388Y-83001000D01*
X167478032Y-82996435D01*
X167439362Y-82984704D01*
X167403723Y-82965654D01*
X167372483Y-82940017D01*
X167346846Y-82908777D01*
X167327796Y-82873138D01*
X167316065Y-82834468D01*
X167311500Y-82788112D01*
X167311500Y-81711888D01*
X167316065Y-81665532D01*
X167327796Y-81626862D01*
X167346846Y-81591223D01*
X167372483Y-81559983D01*
X167403723Y-81534346D01*
X167439362Y-81515296D01*
X167478032Y-81503565D01*
X167524388Y-81499000D01*
X168175612Y-81499000D01*
X168221968Y-81503565D01*
X168221968Y-81503565D01*
G37*
G36*
X174100442Y-80385518D02*
G01*
X174166627Y-80392037D01*
X174336466Y-80443557D01*
X174492991Y-80527222D01*
X174528729Y-80556552D01*
X174630186Y-80639814D01*
X174713448Y-80741271D01*
X174742778Y-80777009D01*
X174826443Y-80933534D01*
X174877963Y-81103373D01*
X174895359Y-81280000D01*
X174877963Y-81456627D01*
X174826443Y-81626466D01*
X174742778Y-81782991D01*
X174725893Y-81803565D01*
X174630186Y-81920186D01*
X174528729Y-82003448D01*
X174492991Y-82032778D01*
X174336466Y-82116443D01*
X174166627Y-82167963D01*
X174100443Y-82174481D01*
X174034260Y-82181000D01*
X173945740Y-82181000D01*
X173879557Y-82174481D01*
X173813373Y-82167963D01*
X173643534Y-82116443D01*
X173487009Y-82032778D01*
X173451271Y-82003448D01*
X173349814Y-81920186D01*
X173254107Y-81803565D01*
X173237222Y-81782991D01*
X173153557Y-81626466D01*
X173102037Y-81456627D01*
X173084641Y-81280000D01*
X173102037Y-81103373D01*
X173153557Y-80933534D01*
X173237222Y-80777009D01*
X173266552Y-80741271D01*
X173349814Y-80639814D01*
X173451271Y-80556552D01*
X173487009Y-80527222D01*
X173643534Y-80443557D01*
X173813373Y-80392037D01*
X173879558Y-80385518D01*
X173945740Y-80379000D01*
X174034260Y-80379000D01*
X174100442Y-80385518D01*
X174100442Y-80385518D01*
G37*
G36*
X154221000Y-80191000D02*
G01*
X153119000Y-80191000D01*
X153119000Y-77289000D01*
X154221000Y-77289000D01*
X154221000Y-80191000D01*
X154221000Y-80191000D01*
G37*
G36*
X150221000Y-80191000D02*
G01*
X149119000Y-80191000D01*
X149119000Y-77289000D01*
X150221000Y-77289000D01*
X150221000Y-80191000D01*
X150221000Y-80191000D01*
G37*
G36*
X174891000Y-79641000D02*
G01*
X173089000Y-79641000D01*
X173089000Y-77839000D01*
X174891000Y-77839000D01*
X174891000Y-79641000D01*
X174891000Y-79641000D01*
G37*
G36*
X158860442Y-72765518D02*
G01*
X158926627Y-72772037D01*
X159096466Y-72823557D01*
X159252991Y-72907222D01*
X159288729Y-72936552D01*
X159390186Y-73019814D01*
X159473448Y-73121271D01*
X159502778Y-73157009D01*
X159586443Y-73313534D01*
X159637963Y-73483373D01*
X159655359Y-73660000D01*
X159637963Y-73836627D01*
X159586443Y-74006466D01*
X159502778Y-74162991D01*
X159473448Y-74198729D01*
X159390186Y-74300186D01*
X159288729Y-74383448D01*
X159252991Y-74412778D01*
X159096466Y-74496443D01*
X158926627Y-74547963D01*
X158860442Y-74554482D01*
X158794260Y-74561000D01*
X158705740Y-74561000D01*
X158639558Y-74554482D01*
X158573373Y-74547963D01*
X158403534Y-74496443D01*
X158247009Y-74412778D01*
X158211271Y-74383448D01*
X158109814Y-74300186D01*
X158026552Y-74198729D01*
X157997222Y-74162991D01*
X157913557Y-74006466D01*
X157862037Y-73836627D01*
X157844641Y-73660000D01*
X157862037Y-73483373D01*
X157913557Y-73313534D01*
X157997222Y-73157009D01*
X158026552Y-73121271D01*
X158109814Y-73019814D01*
X158211271Y-72936552D01*
X158247009Y-72907222D01*
X158403534Y-72823557D01*
X158573373Y-72772037D01*
X158639558Y-72765518D01*
X158705740Y-72759000D01*
X158794260Y-72759000D01*
X158860442Y-72765518D01*
X158860442Y-72765518D01*
G37*
G36*
X161400442Y-72765518D02*
G01*
X161466627Y-72772037D01*
X161636466Y-72823557D01*
X161792991Y-72907222D01*
X161828729Y-72936552D01*
X161930186Y-73019814D01*
X162013448Y-73121271D01*
X162042778Y-73157009D01*
X162126443Y-73313534D01*
X162177963Y-73483373D01*
X162195359Y-73660000D01*
X162177963Y-73836627D01*
X162126443Y-74006466D01*
X162042778Y-74162991D01*
X162013448Y-74198729D01*
X161930186Y-74300186D01*
X161828729Y-74383448D01*
X161792991Y-74412778D01*
X161636466Y-74496443D01*
X161466627Y-74547963D01*
X161400442Y-74554482D01*
X161334260Y-74561000D01*
X161245740Y-74561000D01*
X161179558Y-74554482D01*
X161113373Y-74547963D01*
X160943534Y-74496443D01*
X160787009Y-74412778D01*
X160751271Y-74383448D01*
X160649814Y-74300186D01*
X160566552Y-74198729D01*
X160537222Y-74162991D01*
X160453557Y-74006466D01*
X160402037Y-73836627D01*
X160384641Y-73660000D01*
X160402037Y-73483373D01*
X160453557Y-73313534D01*
X160537222Y-73157009D01*
X160566552Y-73121271D01*
X160649814Y-73019814D01*
X160751271Y-72936552D01*
X160787009Y-72907222D01*
X160943534Y-72823557D01*
X161113373Y-72772037D01*
X161179558Y-72765518D01*
X161245740Y-72759000D01*
X161334260Y-72759000D01*
X161400442Y-72765518D01*
X161400442Y-72765518D01*
G37*
G36*
X163940442Y-72765518D02*
G01*
X164006627Y-72772037D01*
X164176466Y-72823557D01*
X164332991Y-72907222D01*
X164368729Y-72936552D01*
X164470186Y-73019814D01*
X164553448Y-73121271D01*
X164582778Y-73157009D01*
X164666443Y-73313534D01*
X164717963Y-73483373D01*
X164735359Y-73660000D01*
X164717963Y-73836627D01*
X164666443Y-74006466D01*
X164582778Y-74162991D01*
X164553448Y-74198729D01*
X164470186Y-74300186D01*
X164368729Y-74383448D01*
X164332991Y-74412778D01*
X164176466Y-74496443D01*
X164006627Y-74547963D01*
X163940442Y-74554482D01*
X163874260Y-74561000D01*
X163785740Y-74561000D01*
X163719558Y-74554482D01*
X163653373Y-74547963D01*
X163483534Y-74496443D01*
X163327009Y-74412778D01*
X163291271Y-74383448D01*
X163189814Y-74300186D01*
X163106552Y-74198729D01*
X163077222Y-74162991D01*
X162993557Y-74006466D01*
X162942037Y-73836627D01*
X162924641Y-73660000D01*
X162942037Y-73483373D01*
X162993557Y-73313534D01*
X163077222Y-73157009D01*
X163106552Y-73121271D01*
X163189814Y-73019814D01*
X163291271Y-72936552D01*
X163327009Y-72907222D01*
X163483534Y-72823557D01*
X163653373Y-72772037D01*
X163719558Y-72765518D01*
X163785740Y-72759000D01*
X163874260Y-72759000D01*
X163940442Y-72765518D01*
X163940442Y-72765518D01*
G37*
G36*
X166480442Y-72765518D02*
G01*
X166546627Y-72772037D01*
X166716466Y-72823557D01*
X166872991Y-72907222D01*
X166908729Y-72936552D01*
X167010186Y-73019814D01*
X167093448Y-73121271D01*
X167122778Y-73157009D01*
X167206443Y-73313534D01*
X167257963Y-73483373D01*
X167275359Y-73660000D01*
X167257963Y-73836627D01*
X167206443Y-74006466D01*
X167122778Y-74162991D01*
X167093448Y-74198729D01*
X167010186Y-74300186D01*
X166908729Y-74383448D01*
X166872991Y-74412778D01*
X166716466Y-74496443D01*
X166546627Y-74547963D01*
X166480442Y-74554482D01*
X166414260Y-74561000D01*
X166325740Y-74561000D01*
X166259558Y-74554482D01*
X166193373Y-74547963D01*
X166023534Y-74496443D01*
X165867009Y-74412778D01*
X165831271Y-74383448D01*
X165729814Y-74300186D01*
X165646552Y-74198729D01*
X165617222Y-74162991D01*
X165533557Y-74006466D01*
X165482037Y-73836627D01*
X165464641Y-73660000D01*
X165482037Y-73483373D01*
X165533557Y-73313534D01*
X165617222Y-73157009D01*
X165646552Y-73121271D01*
X165729814Y-73019814D01*
X165831271Y-72936552D01*
X165867009Y-72907222D01*
X166023534Y-72823557D01*
X166193373Y-72772037D01*
X166259558Y-72765518D01*
X166325740Y-72759000D01*
X166414260Y-72759000D01*
X166480442Y-72765518D01*
X166480442Y-72765518D01*
G37*
G36*
X169811000Y-74561000D02*
G01*
X168009000Y-74561000D01*
X168009000Y-72759000D01*
X169811000Y-72759000D01*
X169811000Y-74561000D01*
X169811000Y-74561000D01*
G37*
G36*
X150221000Y-74391000D02*
G01*
X149119000Y-74391000D01*
X149119000Y-71489000D01*
X150221000Y-71489000D01*
X150221000Y-74391000D01*
X150221000Y-74391000D01*
G37*
G36*
X154221000Y-74391000D02*
G01*
X153119000Y-74391000D01*
X153119000Y-71489000D01*
X154221000Y-71489000D01*
X154221000Y-74391000D01*
X154221000Y-74391000D01*
G37*
M02*
