M48
; DRILL file {KiCad 5.1.2} date Mon 06 May 2019 11:55:22 AM CDT
; FORMAT={-:-/ absolute / inch / decimal}
; #@! TF.CreationDate,2019-05-06T11:55:22-05:00
; #@! TF.GenerationSoftware,Kicad,Pcbnew,5.1.2
; #@! TF.FileFunction,Plated,1,2,PTH
FMAT,2
INCH
T1C0.0157
T2C0.0394
%
G90
G05
T1
X5.8268Y-2.8937
X5.8268Y-3.5236
X5.9744Y-2.8839
X6.1511Y-3.1786
X6.1909Y-3.1791
X6.3Y-3.3
X6.3Y-3.35
X6.3189Y-3.2185
X6.5354Y-3.2894
X6.5728Y-3.4331
X6.9488Y-2.8937
X6.9488Y-3.5236
T2
X5.9Y-3.45
X6.0Y-3.45
X6.1Y-3.45
X6.2Y-3.45
X6.3Y-3.45
X6.4Y-3.45
X6.25Y-2.9
X6.35Y-2.9
X6.45Y-2.9
X6.55Y-2.9
X6.65Y-2.9
X6.85Y-3.1
X6.85Y-3.2
X6.85Y-3.3
T0
M30
