G04 #@! TF.GenerationSoftware,KiCad,Pcbnew,5.1.2*
G04 #@! TF.CreationDate,2019-05-06T11:57:56-05:00*
G04 #@! TF.ProjectId,STM32L011Minimal,53544d33-324c-4303-9131-4d696e696d61,rev?*
G04 #@! TF.SameCoordinates,Original*
G04 #@! TF.FileFunction,Copper,L1,Top*
G04 #@! TF.FilePolarity,Positive*
%FSLAX46Y46*%
G04 Gerber Fmt 4.6, Leading zero omitted, Abs format (unit mm)*
G04 Created by KiCad (PCBNEW 5.1.2) date 2019-05-06 11:57:56*
%MOMM*%
%LPD*%
G04 APERTURE LIST*
%ADD10C,0.010000*%
%ADD11C,0.100000*%
%ADD12C,0.975000*%
%ADD13R,1.700000X1.700000*%
%ADD14O,1.700000X1.700000*%
%ADD15R,1.000000X2.800000*%
%ADD16R,1.450000X0.450000*%
%ADD17C,0.800000*%
%ADD18C,0.250000*%
%ADD19C,0.254000*%
G04 APERTURE END LIST*
D10*
G36*
X172869413Y-86079101D02*
G01*
X173052476Y-86171441D01*
X173188408Y-86305243D01*
X173195789Y-86316445D01*
X173234296Y-86386560D01*
X173255787Y-86461161D01*
X173262260Y-86561906D01*
X173255713Y-86710454D01*
X173244912Y-86849000D01*
X173231318Y-87057176D01*
X173220127Y-87315106D01*
X173212606Y-87587886D01*
X173210038Y-87809064D01*
X173210779Y-88041042D01*
X173215613Y-88205025D01*
X173226695Y-88317664D01*
X173246180Y-88395610D01*
X173276225Y-88455512D01*
X173297732Y-88486397D01*
X173383602Y-88571274D01*
X173497178Y-88611004D01*
X173570016Y-88619227D01*
X173817890Y-88600096D01*
X174045719Y-88502890D01*
X174259344Y-88324818D01*
X174314224Y-88263825D01*
X174418892Y-88150241D01*
X174509066Y-88068178D01*
X174566141Y-88034453D01*
X174568112Y-88034334D01*
X174623755Y-88067452D01*
X174697182Y-88151096D01*
X174729505Y-88198393D01*
X174876869Y-88389127D01*
X175026913Y-88503226D01*
X175174284Y-88539020D01*
X175313631Y-88494837D01*
X175407971Y-88410223D01*
X175488653Y-88301415D01*
X175558934Y-88173458D01*
X175626082Y-88009221D01*
X175697364Y-87791574D01*
X175755985Y-87589834D01*
X175815450Y-87379010D01*
X175877683Y-87159557D01*
X175931333Y-86971471D01*
X175942246Y-86933442D01*
X176021416Y-86658050D01*
X176449565Y-86494582D01*
X176667567Y-86415972D01*
X176815998Y-86373703D01*
X176901001Y-86366227D01*
X176922145Y-86375545D01*
X176952677Y-86434474D01*
X176919740Y-86494145D01*
X176817286Y-86559634D01*
X176639270Y-86636021D01*
X176589887Y-86654600D01*
X176430263Y-86716840D01*
X176299296Y-86773866D01*
X176219270Y-86815783D01*
X176208527Y-86823933D01*
X176180315Y-86880037D01*
X176136526Y-87001746D01*
X176082553Y-87172637D01*
X176023790Y-87376288D01*
X176007251Y-87436804D01*
X175896737Y-87818610D01*
X175790651Y-88123568D01*
X175684846Y-88359062D01*
X175575173Y-88532475D01*
X175457485Y-88651190D01*
X175327635Y-88722591D01*
X175276069Y-88738398D01*
X175102379Y-88741191D01*
X174918574Y-88674646D01*
X174746259Y-88547924D01*
X174692569Y-88490944D01*
X174541511Y-88314467D01*
X174371542Y-88491355D01*
X174187034Y-88657866D01*
X174003712Y-88760737D01*
X173790918Y-88814778D01*
X173676413Y-88827186D01*
X173518971Y-88833485D01*
X173409906Y-88817957D01*
X173314244Y-88773620D01*
X173272334Y-88746552D01*
X173144087Y-88618677D01*
X173052698Y-88431493D01*
X172997655Y-88181317D01*
X172978449Y-87864461D01*
X172994569Y-87477242D01*
X173039182Y-87063076D01*
X173067945Y-86811873D01*
X173075189Y-86628459D01*
X173057137Y-86497833D01*
X173010009Y-86404997D01*
X172930027Y-86334951D01*
X172843702Y-86287122D01*
X172698658Y-86242101D01*
X172560297Y-86260585D01*
X172412541Y-86347350D01*
X172296579Y-86449650D01*
X172201116Y-86535110D01*
X172138509Y-86565811D01*
X172086292Y-86551090D01*
X172073527Y-86542361D01*
X172026073Y-86497661D01*
X172032352Y-86448669D01*
X172070525Y-86389482D01*
X172179960Y-86276072D01*
X172332501Y-86169287D01*
X172497405Y-86086782D01*
X172643928Y-86046212D01*
X172670974Y-86044667D01*
X172869413Y-86079101D01*
X172869413Y-86079101D01*
G37*
X172869413Y-86079101D02*
X173052476Y-86171441D01*
X173188408Y-86305243D01*
X173195789Y-86316445D01*
X173234296Y-86386560D01*
X173255787Y-86461161D01*
X173262260Y-86561906D01*
X173255713Y-86710454D01*
X173244912Y-86849000D01*
X173231318Y-87057176D01*
X173220127Y-87315106D01*
X173212606Y-87587886D01*
X173210038Y-87809064D01*
X173210779Y-88041042D01*
X173215613Y-88205025D01*
X173226695Y-88317664D01*
X173246180Y-88395610D01*
X173276225Y-88455512D01*
X173297732Y-88486397D01*
X173383602Y-88571274D01*
X173497178Y-88611004D01*
X173570016Y-88619227D01*
X173817890Y-88600096D01*
X174045719Y-88502890D01*
X174259344Y-88324818D01*
X174314224Y-88263825D01*
X174418892Y-88150241D01*
X174509066Y-88068178D01*
X174566141Y-88034453D01*
X174568112Y-88034334D01*
X174623755Y-88067452D01*
X174697182Y-88151096D01*
X174729505Y-88198393D01*
X174876869Y-88389127D01*
X175026913Y-88503226D01*
X175174284Y-88539020D01*
X175313631Y-88494837D01*
X175407971Y-88410223D01*
X175488653Y-88301415D01*
X175558934Y-88173458D01*
X175626082Y-88009221D01*
X175697364Y-87791574D01*
X175755985Y-87589834D01*
X175815450Y-87379010D01*
X175877683Y-87159557D01*
X175931333Y-86971471D01*
X175942246Y-86933442D01*
X176021416Y-86658050D01*
X176449565Y-86494582D01*
X176667567Y-86415972D01*
X176815998Y-86373703D01*
X176901001Y-86366227D01*
X176922145Y-86375545D01*
X176952677Y-86434474D01*
X176919740Y-86494145D01*
X176817286Y-86559634D01*
X176639270Y-86636021D01*
X176589887Y-86654600D01*
X176430263Y-86716840D01*
X176299296Y-86773866D01*
X176219270Y-86815783D01*
X176208527Y-86823933D01*
X176180315Y-86880037D01*
X176136526Y-87001746D01*
X176082553Y-87172637D01*
X176023790Y-87376288D01*
X176007251Y-87436804D01*
X175896737Y-87818610D01*
X175790651Y-88123568D01*
X175684846Y-88359062D01*
X175575173Y-88532475D01*
X175457485Y-88651190D01*
X175327635Y-88722591D01*
X175276069Y-88738398D01*
X175102379Y-88741191D01*
X174918574Y-88674646D01*
X174746259Y-88547924D01*
X174692569Y-88490944D01*
X174541511Y-88314467D01*
X174371542Y-88491355D01*
X174187034Y-88657866D01*
X174003712Y-88760737D01*
X173790918Y-88814778D01*
X173676413Y-88827186D01*
X173518971Y-88833485D01*
X173409906Y-88817957D01*
X173314244Y-88773620D01*
X173272334Y-88746552D01*
X173144087Y-88618677D01*
X173052698Y-88431493D01*
X172997655Y-88181317D01*
X172978449Y-87864461D01*
X172994569Y-87477242D01*
X173039182Y-87063076D01*
X173067945Y-86811873D01*
X173075189Y-86628459D01*
X173057137Y-86497833D01*
X173010009Y-86404997D01*
X172930027Y-86334951D01*
X172843702Y-86287122D01*
X172698658Y-86242101D01*
X172560297Y-86260585D01*
X172412541Y-86347350D01*
X172296579Y-86449650D01*
X172201116Y-86535110D01*
X172138509Y-86565811D01*
X172086292Y-86551090D01*
X172073527Y-86542361D01*
X172026073Y-86497661D01*
X172032352Y-86448669D01*
X172070525Y-86389482D01*
X172179960Y-86276072D01*
X172332501Y-86169287D01*
X172497405Y-86086782D01*
X172643928Y-86046212D01*
X172670974Y-86044667D01*
X172869413Y-86079101D01*
D11*
G36*
X153332642Y-81851174D02*
G01*
X153356303Y-81854684D01*
X153379507Y-81860496D01*
X153402029Y-81868554D01*
X153423653Y-81878782D01*
X153444170Y-81891079D01*
X153463383Y-81905329D01*
X153481107Y-81921393D01*
X153497171Y-81939117D01*
X153511421Y-81958330D01*
X153523718Y-81978847D01*
X153533946Y-82000471D01*
X153542004Y-82022993D01*
X153547816Y-82046197D01*
X153551326Y-82069858D01*
X153552500Y-82093750D01*
X153552500Y-83006250D01*
X153551326Y-83030142D01*
X153547816Y-83053803D01*
X153542004Y-83077007D01*
X153533946Y-83099529D01*
X153523718Y-83121153D01*
X153511421Y-83141670D01*
X153497171Y-83160883D01*
X153481107Y-83178607D01*
X153463383Y-83194671D01*
X153444170Y-83208921D01*
X153423653Y-83221218D01*
X153402029Y-83231446D01*
X153379507Y-83239504D01*
X153356303Y-83245316D01*
X153332642Y-83248826D01*
X153308750Y-83250000D01*
X152821250Y-83250000D01*
X152797358Y-83248826D01*
X152773697Y-83245316D01*
X152750493Y-83239504D01*
X152727971Y-83231446D01*
X152706347Y-83221218D01*
X152685830Y-83208921D01*
X152666617Y-83194671D01*
X152648893Y-83178607D01*
X152632829Y-83160883D01*
X152618579Y-83141670D01*
X152606282Y-83121153D01*
X152596054Y-83099529D01*
X152587996Y-83077007D01*
X152582184Y-83053803D01*
X152578674Y-83030142D01*
X152577500Y-83006250D01*
X152577500Y-82093750D01*
X152578674Y-82069858D01*
X152582184Y-82046197D01*
X152587996Y-82022993D01*
X152596054Y-82000471D01*
X152606282Y-81978847D01*
X152618579Y-81958330D01*
X152632829Y-81939117D01*
X152648893Y-81921393D01*
X152666617Y-81905329D01*
X152685830Y-81891079D01*
X152706347Y-81878782D01*
X152727971Y-81868554D01*
X152750493Y-81860496D01*
X152773697Y-81854684D01*
X152797358Y-81851174D01*
X152821250Y-81850000D01*
X153308750Y-81850000D01*
X153332642Y-81851174D01*
X153332642Y-81851174D01*
G37*
D12*
X153065000Y-82550000D03*
D11*
G36*
X155207642Y-81851174D02*
G01*
X155231303Y-81854684D01*
X155254507Y-81860496D01*
X155277029Y-81868554D01*
X155298653Y-81878782D01*
X155319170Y-81891079D01*
X155338383Y-81905329D01*
X155356107Y-81921393D01*
X155372171Y-81939117D01*
X155386421Y-81958330D01*
X155398718Y-81978847D01*
X155408946Y-82000471D01*
X155417004Y-82022993D01*
X155422816Y-82046197D01*
X155426326Y-82069858D01*
X155427500Y-82093750D01*
X155427500Y-83006250D01*
X155426326Y-83030142D01*
X155422816Y-83053803D01*
X155417004Y-83077007D01*
X155408946Y-83099529D01*
X155398718Y-83121153D01*
X155386421Y-83141670D01*
X155372171Y-83160883D01*
X155356107Y-83178607D01*
X155338383Y-83194671D01*
X155319170Y-83208921D01*
X155298653Y-83221218D01*
X155277029Y-83231446D01*
X155254507Y-83239504D01*
X155231303Y-83245316D01*
X155207642Y-83248826D01*
X155183750Y-83250000D01*
X154696250Y-83250000D01*
X154672358Y-83248826D01*
X154648697Y-83245316D01*
X154625493Y-83239504D01*
X154602971Y-83231446D01*
X154581347Y-83221218D01*
X154560830Y-83208921D01*
X154541617Y-83194671D01*
X154523893Y-83178607D01*
X154507829Y-83160883D01*
X154493579Y-83141670D01*
X154481282Y-83121153D01*
X154471054Y-83099529D01*
X154462996Y-83077007D01*
X154457184Y-83053803D01*
X154453674Y-83030142D01*
X154452500Y-83006250D01*
X154452500Y-82093750D01*
X154453674Y-82069858D01*
X154457184Y-82046197D01*
X154462996Y-82022993D01*
X154471054Y-82000471D01*
X154481282Y-81978847D01*
X154493579Y-81958330D01*
X154507829Y-81939117D01*
X154523893Y-81921393D01*
X154541617Y-81905329D01*
X154560830Y-81891079D01*
X154581347Y-81878782D01*
X154602971Y-81868554D01*
X154625493Y-81860496D01*
X154648697Y-81854684D01*
X154672358Y-81851174D01*
X154696250Y-81850000D01*
X155183750Y-81850000D01*
X155207642Y-81851174D01*
X155207642Y-81851174D01*
G37*
D12*
X154940000Y-82550000D03*
D11*
G36*
X168117642Y-81551174D02*
G01*
X168141303Y-81554684D01*
X168164507Y-81560496D01*
X168187029Y-81568554D01*
X168208653Y-81578782D01*
X168229170Y-81591079D01*
X168248383Y-81605329D01*
X168266107Y-81621393D01*
X168282171Y-81639117D01*
X168296421Y-81658330D01*
X168308718Y-81678847D01*
X168318946Y-81700471D01*
X168327004Y-81722993D01*
X168332816Y-81746197D01*
X168336326Y-81769858D01*
X168337500Y-81793750D01*
X168337500Y-82706250D01*
X168336326Y-82730142D01*
X168332816Y-82753803D01*
X168327004Y-82777007D01*
X168318946Y-82799529D01*
X168308718Y-82821153D01*
X168296421Y-82841670D01*
X168282171Y-82860883D01*
X168266107Y-82878607D01*
X168248383Y-82894671D01*
X168229170Y-82908921D01*
X168208653Y-82921218D01*
X168187029Y-82931446D01*
X168164507Y-82939504D01*
X168141303Y-82945316D01*
X168117642Y-82948826D01*
X168093750Y-82950000D01*
X167606250Y-82950000D01*
X167582358Y-82948826D01*
X167558697Y-82945316D01*
X167535493Y-82939504D01*
X167512971Y-82931446D01*
X167491347Y-82921218D01*
X167470830Y-82908921D01*
X167451617Y-82894671D01*
X167433893Y-82878607D01*
X167417829Y-82860883D01*
X167403579Y-82841670D01*
X167391282Y-82821153D01*
X167381054Y-82799529D01*
X167372996Y-82777007D01*
X167367184Y-82753803D01*
X167363674Y-82730142D01*
X167362500Y-82706250D01*
X167362500Y-81793750D01*
X167363674Y-81769858D01*
X167367184Y-81746197D01*
X167372996Y-81722993D01*
X167381054Y-81700471D01*
X167391282Y-81678847D01*
X167403579Y-81658330D01*
X167417829Y-81639117D01*
X167433893Y-81621393D01*
X167451617Y-81605329D01*
X167470830Y-81591079D01*
X167491347Y-81578782D01*
X167512971Y-81568554D01*
X167535493Y-81560496D01*
X167558697Y-81554684D01*
X167582358Y-81551174D01*
X167606250Y-81550000D01*
X168093750Y-81550000D01*
X168117642Y-81551174D01*
X168117642Y-81551174D01*
G37*
D12*
X167850000Y-82250000D03*
D11*
G36*
X169992642Y-81551174D02*
G01*
X170016303Y-81554684D01*
X170039507Y-81560496D01*
X170062029Y-81568554D01*
X170083653Y-81578782D01*
X170104170Y-81591079D01*
X170123383Y-81605329D01*
X170141107Y-81621393D01*
X170157171Y-81639117D01*
X170171421Y-81658330D01*
X170183718Y-81678847D01*
X170193946Y-81700471D01*
X170202004Y-81722993D01*
X170207816Y-81746197D01*
X170211326Y-81769858D01*
X170212500Y-81793750D01*
X170212500Y-82706250D01*
X170211326Y-82730142D01*
X170207816Y-82753803D01*
X170202004Y-82777007D01*
X170193946Y-82799529D01*
X170183718Y-82821153D01*
X170171421Y-82841670D01*
X170157171Y-82860883D01*
X170141107Y-82878607D01*
X170123383Y-82894671D01*
X170104170Y-82908921D01*
X170083653Y-82921218D01*
X170062029Y-82931446D01*
X170039507Y-82939504D01*
X170016303Y-82945316D01*
X169992642Y-82948826D01*
X169968750Y-82950000D01*
X169481250Y-82950000D01*
X169457358Y-82948826D01*
X169433697Y-82945316D01*
X169410493Y-82939504D01*
X169387971Y-82931446D01*
X169366347Y-82921218D01*
X169345830Y-82908921D01*
X169326617Y-82894671D01*
X169308893Y-82878607D01*
X169292829Y-82860883D01*
X169278579Y-82841670D01*
X169266282Y-82821153D01*
X169256054Y-82799529D01*
X169247996Y-82777007D01*
X169242184Y-82753803D01*
X169238674Y-82730142D01*
X169237500Y-82706250D01*
X169237500Y-81793750D01*
X169238674Y-81769858D01*
X169242184Y-81746197D01*
X169247996Y-81722993D01*
X169256054Y-81700471D01*
X169266282Y-81678847D01*
X169278579Y-81658330D01*
X169292829Y-81639117D01*
X169308893Y-81621393D01*
X169326617Y-81605329D01*
X169345830Y-81591079D01*
X169366347Y-81578782D01*
X169387971Y-81568554D01*
X169410493Y-81560496D01*
X169433697Y-81554684D01*
X169457358Y-81551174D01*
X169481250Y-81550000D01*
X169968750Y-81550000D01*
X169992642Y-81551174D01*
X169992642Y-81551174D01*
G37*
D12*
X169725000Y-82250000D03*
D11*
G36*
X169992642Y-84801174D02*
G01*
X170016303Y-84804684D01*
X170039507Y-84810496D01*
X170062029Y-84818554D01*
X170083653Y-84828782D01*
X170104170Y-84841079D01*
X170123383Y-84855329D01*
X170141107Y-84871393D01*
X170157171Y-84889117D01*
X170171421Y-84908330D01*
X170183718Y-84928847D01*
X170193946Y-84950471D01*
X170202004Y-84972993D01*
X170207816Y-84996197D01*
X170211326Y-85019858D01*
X170212500Y-85043750D01*
X170212500Y-85956250D01*
X170211326Y-85980142D01*
X170207816Y-86003803D01*
X170202004Y-86027007D01*
X170193946Y-86049529D01*
X170183718Y-86071153D01*
X170171421Y-86091670D01*
X170157171Y-86110883D01*
X170141107Y-86128607D01*
X170123383Y-86144671D01*
X170104170Y-86158921D01*
X170083653Y-86171218D01*
X170062029Y-86181446D01*
X170039507Y-86189504D01*
X170016303Y-86195316D01*
X169992642Y-86198826D01*
X169968750Y-86200000D01*
X169481250Y-86200000D01*
X169457358Y-86198826D01*
X169433697Y-86195316D01*
X169410493Y-86189504D01*
X169387971Y-86181446D01*
X169366347Y-86171218D01*
X169345830Y-86158921D01*
X169326617Y-86144671D01*
X169308893Y-86128607D01*
X169292829Y-86110883D01*
X169278579Y-86091670D01*
X169266282Y-86071153D01*
X169256054Y-86049529D01*
X169247996Y-86027007D01*
X169242184Y-86003803D01*
X169238674Y-85980142D01*
X169237500Y-85956250D01*
X169237500Y-85043750D01*
X169238674Y-85019858D01*
X169242184Y-84996197D01*
X169247996Y-84972993D01*
X169256054Y-84950471D01*
X169266282Y-84928847D01*
X169278579Y-84908330D01*
X169292829Y-84889117D01*
X169308893Y-84871393D01*
X169326617Y-84855329D01*
X169345830Y-84841079D01*
X169366347Y-84828782D01*
X169387971Y-84818554D01*
X169410493Y-84810496D01*
X169433697Y-84804684D01*
X169457358Y-84801174D01*
X169481250Y-84800000D01*
X169968750Y-84800000D01*
X169992642Y-84801174D01*
X169992642Y-84801174D01*
G37*
D12*
X169725000Y-85500000D03*
D11*
G36*
X168117642Y-84801174D02*
G01*
X168141303Y-84804684D01*
X168164507Y-84810496D01*
X168187029Y-84818554D01*
X168208653Y-84828782D01*
X168229170Y-84841079D01*
X168248383Y-84855329D01*
X168266107Y-84871393D01*
X168282171Y-84889117D01*
X168296421Y-84908330D01*
X168308718Y-84928847D01*
X168318946Y-84950471D01*
X168327004Y-84972993D01*
X168332816Y-84996197D01*
X168336326Y-85019858D01*
X168337500Y-85043750D01*
X168337500Y-85956250D01*
X168336326Y-85980142D01*
X168332816Y-86003803D01*
X168327004Y-86027007D01*
X168318946Y-86049529D01*
X168308718Y-86071153D01*
X168296421Y-86091670D01*
X168282171Y-86110883D01*
X168266107Y-86128607D01*
X168248383Y-86144671D01*
X168229170Y-86158921D01*
X168208653Y-86171218D01*
X168187029Y-86181446D01*
X168164507Y-86189504D01*
X168141303Y-86195316D01*
X168117642Y-86198826D01*
X168093750Y-86200000D01*
X167606250Y-86200000D01*
X167582358Y-86198826D01*
X167558697Y-86195316D01*
X167535493Y-86189504D01*
X167512971Y-86181446D01*
X167491347Y-86171218D01*
X167470830Y-86158921D01*
X167451617Y-86144671D01*
X167433893Y-86128607D01*
X167417829Y-86110883D01*
X167403579Y-86091670D01*
X167391282Y-86071153D01*
X167381054Y-86049529D01*
X167372996Y-86027007D01*
X167367184Y-86003803D01*
X167363674Y-85980142D01*
X167362500Y-85956250D01*
X167362500Y-85043750D01*
X167363674Y-85019858D01*
X167367184Y-84996197D01*
X167372996Y-84972993D01*
X167381054Y-84950471D01*
X167391282Y-84928847D01*
X167403579Y-84908330D01*
X167417829Y-84889117D01*
X167433893Y-84871393D01*
X167451617Y-84855329D01*
X167470830Y-84841079D01*
X167491347Y-84828782D01*
X167512971Y-84818554D01*
X167535493Y-84810496D01*
X167558697Y-84804684D01*
X167582358Y-84801174D01*
X167606250Y-84800000D01*
X168093750Y-84800000D01*
X168117642Y-84801174D01*
X168117642Y-84801174D01*
G37*
D12*
X167850000Y-85500000D03*
D13*
X173990000Y-78740000D03*
D14*
X173990000Y-81280000D03*
X173990000Y-83820000D03*
D13*
X162560000Y-87630000D03*
D14*
X160020000Y-87630000D03*
X157480000Y-87630000D03*
X154940000Y-87630000D03*
X152400000Y-87630000D03*
X149860000Y-87630000D03*
D13*
X168910000Y-73660000D03*
D14*
X166370000Y-73660000D03*
X163830000Y-73660000D03*
X161290000Y-73660000D03*
X158750000Y-73660000D03*
D15*
X153670000Y-72940000D03*
X153670000Y-78740000D03*
X149670000Y-72940000D03*
X149670000Y-78740000D03*
D16*
X158905001Y-79615001D03*
X158905001Y-80265001D03*
X158905001Y-80915001D03*
X158905001Y-81565001D03*
X158905001Y-82215001D03*
X158905001Y-82865001D03*
X158905001Y-83515001D03*
X164805001Y-83515001D03*
X164805001Y-82865001D03*
X164805001Y-82215001D03*
X164805001Y-81565001D03*
X164805001Y-80915001D03*
X164805001Y-80265001D03*
X164805001Y-79615001D03*
D17*
X176500000Y-73500000D03*
X176500000Y-89500000D03*
X148000000Y-89500000D03*
X148000000Y-73500000D03*
X151750000Y-73250000D03*
X166950000Y-87200000D03*
X166000000Y-83550000D03*
X160020000Y-83820000D03*
X160020000Y-85090000D03*
X160500000Y-81750000D03*
X157250000Y-80750000D03*
X156237347Y-80737347D03*
D18*
X160114999Y-73095999D02*
X160725999Y-72484999D01*
X160500000Y-75500000D02*
X160114999Y-75114999D01*
X160114999Y-75114999D02*
X160114999Y-73095999D01*
X160686401Y-75950009D02*
X160313599Y-75950009D01*
X160950009Y-75686401D02*
X160686401Y-75950009D01*
X160950009Y-75202072D02*
X160950009Y-75686401D01*
X161290000Y-73660000D02*
X161290000Y-74862081D01*
X161290000Y-74862081D02*
X160950009Y-75202072D01*
X160313599Y-75950009D02*
X160181795Y-75818205D01*
X164805001Y-82865001D02*
X163115001Y-82865001D01*
X167299999Y-87925001D02*
X169168763Y-86056237D01*
X169168763Y-86056237D02*
X169725000Y-85500000D01*
X166601999Y-87925001D02*
X167299999Y-87925001D01*
X166224999Y-87548001D02*
X166601999Y-87925001D01*
X166224999Y-86851999D02*
X166224999Y-87548001D01*
X166348001Y-82824999D02*
X166725001Y-83201999D01*
X165405003Y-82824999D02*
X166348001Y-82824999D01*
X165365001Y-82865001D02*
X165405003Y-82824999D01*
X166725001Y-86351997D02*
X166224999Y-86851999D01*
X166725001Y-83201999D02*
X166725001Y-86351997D01*
X164805001Y-82865001D02*
X165365001Y-82865001D01*
X167589999Y-82865001D02*
X167905000Y-82550000D01*
X155924999Y-81565001D02*
X154940000Y-82550000D01*
X158905001Y-81565001D02*
X155924999Y-81565001D01*
X151130000Y-78740000D02*
X149670000Y-78740000D01*
X154940000Y-82550000D02*
X151130000Y-78740000D01*
X155512346Y-80389346D02*
X158151692Y-77750000D01*
X155512346Y-81085348D02*
X155512346Y-80389346D01*
X158905001Y-81565001D02*
X155991999Y-81565001D01*
X155991999Y-81565001D02*
X155512346Y-81085348D01*
X159740000Y-77750000D02*
X163830000Y-73660000D01*
X158151692Y-77750000D02*
X159740000Y-77750000D01*
X149670000Y-78740000D02*
X149670000Y-72940000D01*
X167850000Y-85500000D02*
X167850000Y-82250000D01*
X167815001Y-82215001D02*
X167850000Y-82250000D01*
X164805001Y-82215001D02*
X167815001Y-82215001D01*
X167850000Y-86450000D02*
X167850000Y-85500000D01*
X166950000Y-87200000D02*
X167100000Y-87200000D01*
X167100000Y-87200000D02*
X167850000Y-86450000D01*
X167044239Y-80915001D02*
X167979249Y-79979991D01*
X164805001Y-80915001D02*
X167044239Y-80915001D01*
X171760000Y-78740000D02*
X173990000Y-78740000D01*
X170520009Y-79979991D02*
X171760000Y-78740000D01*
X167979249Y-79979991D02*
X170520009Y-79979991D01*
X173140001Y-80430001D02*
X173990000Y-81280000D01*
X168165649Y-80430001D02*
X173140001Y-80430001D01*
X164805001Y-81565001D02*
X167030649Y-81565001D01*
X167030649Y-81565001D02*
X168165649Y-80430001D01*
X164805001Y-83515001D02*
X165965001Y-83515001D01*
X165965001Y-83515001D02*
X166000000Y-83550000D01*
X158905001Y-83515001D02*
X159715001Y-83515001D01*
X159715001Y-83515001D02*
X160020000Y-83820000D01*
X158944998Y-85090000D02*
X160020000Y-85090000D01*
X157855000Y-84000002D02*
X158944998Y-85090000D01*
X157855000Y-82940002D02*
X157855000Y-84000002D01*
X158905001Y-82865001D02*
X157930001Y-82865001D01*
X157930001Y-82865001D02*
X157855000Y-82940002D01*
X157480000Y-86427919D02*
X157480000Y-87630000D01*
X157404990Y-86352909D02*
X157480000Y-86427919D01*
X157404990Y-82740012D02*
X157404990Y-86352909D01*
X157930001Y-82215001D02*
X157404990Y-82740012D01*
X158905001Y-82215001D02*
X157930001Y-82215001D01*
X158905001Y-80915001D02*
X159665001Y-80915001D01*
X159665001Y-80915001D02*
X160500000Y-81750000D01*
X158905001Y-80265001D02*
X157734999Y-80265001D01*
X157734999Y-80265001D02*
X157250000Y-80750000D01*
X158905001Y-79615001D02*
X157359693Y-79615001D01*
X157359693Y-79615001D02*
X156237347Y-80737347D01*
X164805001Y-77764999D02*
X168910000Y-73660000D01*
X164805001Y-79615001D02*
X164805001Y-77764999D01*
X163755000Y-76275000D02*
X165520001Y-74509999D01*
X165520001Y-74509999D02*
X166370000Y-73660000D01*
X163755000Y-80190000D02*
X163755000Y-76275000D01*
X163830001Y-80265001D02*
X163755000Y-80190000D01*
X164805001Y-80265001D02*
X163830001Y-80265001D01*
D19*
G36*
X148531928Y-74340000D02*
G01*
X148544188Y-74464482D01*
X148580498Y-74584180D01*
X148639463Y-74694494D01*
X148718815Y-74791185D01*
X148815506Y-74870537D01*
X148910001Y-74921046D01*
X148910000Y-76758954D01*
X148815506Y-76809463D01*
X148718815Y-76888815D01*
X148639463Y-76985506D01*
X148580498Y-77095820D01*
X148544188Y-77215518D01*
X148531928Y-77340000D01*
X148531928Y-80140000D01*
X148544188Y-80264482D01*
X148580498Y-80384180D01*
X148639463Y-80494494D01*
X148718815Y-80591185D01*
X148815506Y-80670537D01*
X148925820Y-80729502D01*
X149045518Y-80765812D01*
X149170000Y-80778072D01*
X150170000Y-80778072D01*
X150294482Y-80765812D01*
X150414180Y-80729502D01*
X150524494Y-80670537D01*
X150621185Y-80591185D01*
X150700537Y-80494494D01*
X150759502Y-80384180D01*
X150795812Y-80264482D01*
X150808072Y-80140000D01*
X150808072Y-79500000D01*
X150815199Y-79500000D01*
X152531643Y-81216444D01*
X152453018Y-81224188D01*
X152333320Y-81260498D01*
X152223006Y-81319463D01*
X152126315Y-81398815D01*
X152046963Y-81495506D01*
X151987998Y-81605820D01*
X151951688Y-81725518D01*
X151939428Y-81850000D01*
X151942500Y-82264250D01*
X152101250Y-82423000D01*
X152938000Y-82423000D01*
X152938000Y-82403000D01*
X153192000Y-82403000D01*
X153192000Y-82423000D01*
X153212000Y-82423000D01*
X153212000Y-82677000D01*
X153192000Y-82677000D01*
X153192000Y-83726250D01*
X153350750Y-83885000D01*
X153552500Y-83888072D01*
X153676982Y-83875812D01*
X153796680Y-83839502D01*
X153906994Y-83780537D01*
X154003685Y-83701185D01*
X154067492Y-83623436D01*
X154072708Y-83629792D01*
X154206336Y-83739458D01*
X154358791Y-83820947D01*
X154524215Y-83871128D01*
X154696250Y-83888072D01*
X155183750Y-83888072D01*
X155355785Y-83871128D01*
X155521209Y-83820947D01*
X155673664Y-83739458D01*
X155807292Y-83629792D01*
X155916958Y-83496164D01*
X155998447Y-83343709D01*
X156048628Y-83178285D01*
X156065572Y-83006250D01*
X156065572Y-82499230D01*
X156239801Y-82325001D01*
X156765064Y-82325001D01*
X156725518Y-82398985D01*
X156699444Y-82447766D01*
X156655987Y-82591027D01*
X156644990Y-82702680D01*
X156644990Y-82702690D01*
X156641314Y-82740012D01*
X156644990Y-82777335D01*
X156644991Y-86315577D01*
X156641314Y-86352909D01*
X156644991Y-86390242D01*
X156645353Y-86393917D01*
X156424866Y-86574866D01*
X156239294Y-86800986D01*
X156210000Y-86855791D01*
X156180706Y-86800986D01*
X155995134Y-86574866D01*
X155769014Y-86389294D01*
X155511034Y-86251401D01*
X155231111Y-86166487D01*
X155012950Y-86145000D01*
X154867050Y-86145000D01*
X154648889Y-86166487D01*
X154368966Y-86251401D01*
X154110986Y-86389294D01*
X153884866Y-86574866D01*
X153699294Y-86800986D01*
X153670000Y-86855791D01*
X153640706Y-86800986D01*
X153455134Y-86574866D01*
X153229014Y-86389294D01*
X152971034Y-86251401D01*
X152691111Y-86166487D01*
X152472950Y-86145000D01*
X152327050Y-86145000D01*
X152108889Y-86166487D01*
X151828966Y-86251401D01*
X151570986Y-86389294D01*
X151344866Y-86574866D01*
X151159294Y-86800986D01*
X151130000Y-86855791D01*
X151100706Y-86800986D01*
X150915134Y-86574866D01*
X150689014Y-86389294D01*
X150431034Y-86251401D01*
X150151111Y-86166487D01*
X149932950Y-86145000D01*
X149787050Y-86145000D01*
X149568889Y-86166487D01*
X149288966Y-86251401D01*
X149030986Y-86389294D01*
X148804866Y-86574866D01*
X148619294Y-86800986D01*
X148481401Y-87058966D01*
X148396487Y-87338889D01*
X148367815Y-87630000D01*
X148396487Y-87921111D01*
X148481401Y-88201034D01*
X148619294Y-88459014D01*
X148804866Y-88685134D01*
X149030986Y-88870706D01*
X149288966Y-89008599D01*
X149568889Y-89093513D01*
X149787050Y-89115000D01*
X149932950Y-89115000D01*
X150151111Y-89093513D01*
X150431034Y-89008599D01*
X150689014Y-88870706D01*
X150915134Y-88685134D01*
X151100706Y-88459014D01*
X151130000Y-88404209D01*
X151159294Y-88459014D01*
X151344866Y-88685134D01*
X151570986Y-88870706D01*
X151828966Y-89008599D01*
X152108889Y-89093513D01*
X152327050Y-89115000D01*
X152472950Y-89115000D01*
X152691111Y-89093513D01*
X152971034Y-89008599D01*
X153229014Y-88870706D01*
X153455134Y-88685134D01*
X153640706Y-88459014D01*
X153670000Y-88404209D01*
X153699294Y-88459014D01*
X153884866Y-88685134D01*
X154110986Y-88870706D01*
X154368966Y-89008599D01*
X154648889Y-89093513D01*
X154867050Y-89115000D01*
X155012950Y-89115000D01*
X155231111Y-89093513D01*
X155511034Y-89008599D01*
X155769014Y-88870706D01*
X155995134Y-88685134D01*
X156180706Y-88459014D01*
X156210000Y-88404209D01*
X156239294Y-88459014D01*
X156424866Y-88685134D01*
X156650986Y-88870706D01*
X156908966Y-89008599D01*
X157188889Y-89093513D01*
X157407050Y-89115000D01*
X157552950Y-89115000D01*
X157771111Y-89093513D01*
X158051034Y-89008599D01*
X158309014Y-88870706D01*
X158535134Y-88685134D01*
X158720706Y-88459014D01*
X158750000Y-88404209D01*
X158779294Y-88459014D01*
X158964866Y-88685134D01*
X159190986Y-88870706D01*
X159448966Y-89008599D01*
X159728889Y-89093513D01*
X159947050Y-89115000D01*
X160092950Y-89115000D01*
X160311111Y-89093513D01*
X160591034Y-89008599D01*
X160849014Y-88870706D01*
X161075134Y-88685134D01*
X161099607Y-88655313D01*
X161120498Y-88724180D01*
X161179463Y-88834494D01*
X161258815Y-88931185D01*
X161355506Y-89010537D01*
X161465820Y-89069502D01*
X161585518Y-89105812D01*
X161710000Y-89118072D01*
X163410000Y-89118072D01*
X163534482Y-89105812D01*
X163654180Y-89069502D01*
X163764494Y-89010537D01*
X163861185Y-88931185D01*
X163940537Y-88834494D01*
X163999502Y-88724180D01*
X164035812Y-88604482D01*
X164048072Y-88480000D01*
X164048072Y-86780000D01*
X164035812Y-86655518D01*
X163999502Y-86535820D01*
X163940537Y-86425506D01*
X163861185Y-86328815D01*
X163764494Y-86249463D01*
X163654180Y-86190498D01*
X163534482Y-86154188D01*
X163410000Y-86141928D01*
X161710000Y-86141928D01*
X161585518Y-86154188D01*
X161465820Y-86190498D01*
X161355506Y-86249463D01*
X161258815Y-86328815D01*
X161179463Y-86425506D01*
X161120498Y-86535820D01*
X161099607Y-86604687D01*
X161075134Y-86574866D01*
X160849014Y-86389294D01*
X160591034Y-86251401D01*
X160311111Y-86166487D01*
X160092950Y-86145000D01*
X159947050Y-86145000D01*
X159728889Y-86166487D01*
X159448966Y-86251401D01*
X159190986Y-86389294D01*
X158964866Y-86574866D01*
X158779294Y-86800986D01*
X158750000Y-86855791D01*
X158720706Y-86800986D01*
X158535134Y-86574866D01*
X158309014Y-86389294D01*
X158236031Y-86350284D01*
X158229003Y-86278933D01*
X158185546Y-86135672D01*
X158164990Y-86097215D01*
X158164990Y-85384794D01*
X158381199Y-85601003D01*
X158404997Y-85630001D01*
X158433995Y-85653799D01*
X158520721Y-85724974D01*
X158631618Y-85784250D01*
X158652751Y-85795546D01*
X158796012Y-85839003D01*
X158907665Y-85850000D01*
X158907675Y-85850000D01*
X158944998Y-85853676D01*
X158982321Y-85850000D01*
X159316289Y-85850000D01*
X159360226Y-85893937D01*
X159529744Y-86007205D01*
X159718102Y-86085226D01*
X159918061Y-86125000D01*
X160121939Y-86125000D01*
X160321898Y-86085226D01*
X160510256Y-86007205D01*
X160679774Y-85893937D01*
X160823937Y-85749774D01*
X160937205Y-85580256D01*
X161015226Y-85391898D01*
X161055000Y-85191939D01*
X161055000Y-84988061D01*
X161015226Y-84788102D01*
X160937205Y-84599744D01*
X160840490Y-84455000D01*
X160937205Y-84310256D01*
X161015226Y-84121898D01*
X161055000Y-83921939D01*
X161055000Y-83718061D01*
X161015226Y-83518102D01*
X160937205Y-83329744D01*
X160823937Y-83160226D01*
X160679774Y-83016063D01*
X160510256Y-82902795D01*
X160321898Y-82824774D01*
X160268073Y-82814068D01*
X160268073Y-82759144D01*
X160398061Y-82785000D01*
X160601939Y-82785000D01*
X160801898Y-82745226D01*
X160990256Y-82667205D01*
X161159774Y-82553937D01*
X161303937Y-82409774D01*
X161417205Y-82240256D01*
X161495226Y-82051898D01*
X161535000Y-81851939D01*
X161535000Y-81648061D01*
X161495226Y-81448102D01*
X161417205Y-81259744D01*
X161303937Y-81090226D01*
X161159774Y-80946063D01*
X160990256Y-80832795D01*
X160801898Y-80754774D01*
X160601939Y-80715000D01*
X160539801Y-80715000D01*
X160268073Y-80443272D01*
X160268073Y-80040001D01*
X160258224Y-79940001D01*
X160268073Y-79840001D01*
X160268073Y-79390001D01*
X160255813Y-79265519D01*
X160219503Y-79145821D01*
X160160538Y-79035507D01*
X160081186Y-78938816D01*
X159984495Y-78859464D01*
X159874181Y-78800499D01*
X159754483Y-78764189D01*
X159630001Y-78751929D01*
X158224565Y-78751929D01*
X158466494Y-78510000D01*
X159702678Y-78510000D01*
X159740000Y-78513676D01*
X159777322Y-78510000D01*
X159777333Y-78510000D01*
X159888986Y-78499003D01*
X160032247Y-78455546D01*
X160164276Y-78384974D01*
X160280001Y-78290001D01*
X160303804Y-78260997D01*
X163464005Y-75100797D01*
X163538889Y-75123513D01*
X163757050Y-75145000D01*
X163810199Y-75145000D01*
X163243998Y-75711201D01*
X163215000Y-75734999D01*
X163191202Y-75763997D01*
X163191201Y-75763998D01*
X163120026Y-75850724D01*
X163049454Y-75982754D01*
X163005998Y-76126015D01*
X162991324Y-76275000D01*
X162995001Y-76312332D01*
X162995000Y-80152677D01*
X162991324Y-80190000D01*
X162995000Y-80227322D01*
X162995000Y-80227332D01*
X163005997Y-80338985D01*
X163038405Y-80445821D01*
X163049454Y-80482246D01*
X163120026Y-80614276D01*
X163126984Y-80622754D01*
X163214999Y-80730001D01*
X163244000Y-80753802D01*
X163266200Y-80776002D01*
X163290000Y-80805002D01*
X163405725Y-80899975D01*
X163441929Y-80919327D01*
X163441929Y-81140001D01*
X163451778Y-81240001D01*
X163441929Y-81340001D01*
X163441929Y-81790001D01*
X163451778Y-81890001D01*
X163441929Y-81990001D01*
X163441929Y-82440001D01*
X163452096Y-82543228D01*
X163445001Y-82608251D01*
X163477248Y-82640498D01*
X163490499Y-82684181D01*
X163549464Y-82794495D01*
X163607327Y-82865001D01*
X163549464Y-82935507D01*
X163490499Y-83045821D01*
X163477248Y-83089504D01*
X163445001Y-83121751D01*
X163452096Y-83186774D01*
X163441929Y-83290001D01*
X163441929Y-83740001D01*
X163454189Y-83864483D01*
X163490499Y-83984181D01*
X163549464Y-84094495D01*
X163628816Y-84191186D01*
X163725507Y-84270538D01*
X163835821Y-84329503D01*
X163955519Y-84365813D01*
X164080001Y-84378073D01*
X165376348Y-84378073D01*
X165509744Y-84467205D01*
X165698102Y-84545226D01*
X165898061Y-84585000D01*
X166101939Y-84585000D01*
X166301898Y-84545226D01*
X166490256Y-84467205D01*
X166659774Y-84353937D01*
X166803937Y-84209774D01*
X166917205Y-84040256D01*
X166995226Y-83851898D01*
X167035000Y-83651939D01*
X167035000Y-83448061D01*
X167018897Y-83367105D01*
X167049998Y-83405002D01*
X167090001Y-83437831D01*
X167090000Y-84332155D01*
X166982708Y-84420208D01*
X166873042Y-84553836D01*
X166791553Y-84706291D01*
X166741372Y-84871715D01*
X166724428Y-85043750D01*
X166724428Y-85956250D01*
X166741372Y-86128285D01*
X166757947Y-86182925D01*
X166648102Y-86204774D01*
X166459744Y-86282795D01*
X166290226Y-86396063D01*
X166146063Y-86540226D01*
X166032795Y-86709744D01*
X165954774Y-86898102D01*
X165915000Y-87098061D01*
X165915000Y-87301939D01*
X165954774Y-87501898D01*
X166032795Y-87690256D01*
X166146063Y-87859774D01*
X166290226Y-88003937D01*
X166459744Y-88117205D01*
X166648102Y-88195226D01*
X166848061Y-88235000D01*
X167051939Y-88235000D01*
X167251898Y-88195226D01*
X167440256Y-88117205D01*
X167609774Y-88003937D01*
X167753937Y-87859774D01*
X167867205Y-87690256D01*
X167945226Y-87501898D01*
X167963184Y-87411618D01*
X168361004Y-87013798D01*
X168390001Y-86990001D01*
X168484974Y-86874276D01*
X168555546Y-86742247D01*
X168569217Y-86697180D01*
X168583664Y-86689458D01*
X168717292Y-86579792D01*
X168722508Y-86573436D01*
X168786315Y-86651185D01*
X168883006Y-86730537D01*
X168993320Y-86789502D01*
X169113018Y-86825812D01*
X169237500Y-86838072D01*
X169439250Y-86835000D01*
X169598000Y-86676250D01*
X169598000Y-85627000D01*
X169852000Y-85627000D01*
X169852000Y-86676250D01*
X170010750Y-86835000D01*
X170212500Y-86838072D01*
X170336982Y-86825812D01*
X170456680Y-86789502D01*
X170566994Y-86730537D01*
X170663685Y-86651185D01*
X170743037Y-86554494D01*
X170766777Y-86510079D01*
X171386193Y-86510079D01*
X171388016Y-86525572D01*
X171387553Y-86541153D01*
X171395299Y-86587456D01*
X171400791Y-86634129D01*
X171405590Y-86648975D01*
X171408161Y-86664347D01*
X171424759Y-86708283D01*
X171439207Y-86752981D01*
X171446791Y-86766600D01*
X171452304Y-86781193D01*
X171477130Y-86821083D01*
X171499976Y-86862108D01*
X171510064Y-86873998D01*
X171518304Y-86887238D01*
X171550392Y-86921532D01*
X171580783Y-86957353D01*
X171587245Y-86963526D01*
X171634699Y-87008226D01*
X171670578Y-87035944D01*
X171673114Y-87038131D01*
X171684011Y-87048856D01*
X171690527Y-87053144D01*
X171704927Y-87065558D01*
X171712269Y-87070653D01*
X171725034Y-87079382D01*
X171731150Y-87082739D01*
X171733544Y-87084589D01*
X171744114Y-87089856D01*
X171757458Y-87097182D01*
X171788357Y-87117512D01*
X171812077Y-87127165D01*
X171834526Y-87139489D01*
X171869782Y-87150649D01*
X171904049Y-87164595D01*
X171912633Y-87167079D01*
X171964849Y-87181800D01*
X172005883Y-87189142D01*
X172046367Y-87199144D01*
X172067242Y-87200120D01*
X172087803Y-87203799D01*
X172129479Y-87203031D01*
X172171137Y-87204979D01*
X172191804Y-87201882D01*
X172212688Y-87201497D01*
X172253428Y-87192647D01*
X172294664Y-87186468D01*
X172314330Y-87179418D01*
X172334747Y-87174983D01*
X172372990Y-87158390D01*
X172385704Y-87153832D01*
X172358250Y-87408699D01*
X172358091Y-87425289D01*
X172355556Y-87441696D01*
X172355123Y-87450622D01*
X172339003Y-87837841D01*
X172340588Y-87866045D01*
X172339143Y-87894260D01*
X172339621Y-87903183D01*
X172358828Y-88220040D01*
X172365989Y-88264903D01*
X172370745Y-88310098D01*
X172372605Y-88318839D01*
X172427648Y-88569015D01*
X172430447Y-88577624D01*
X172431772Y-88586573D01*
X172449733Y-88636950D01*
X172466264Y-88687802D01*
X172470677Y-88695696D01*
X172473718Y-88704225D01*
X172477583Y-88712282D01*
X172568972Y-88899466D01*
X172589647Y-88933043D01*
X172607845Y-88968025D01*
X172622322Y-88986107D01*
X172634464Y-89005825D01*
X172661257Y-89034736D01*
X172685912Y-89065529D01*
X172692196Y-89071882D01*
X172820444Y-89199757D01*
X172820705Y-89199971D01*
X172820919Y-89200230D01*
X172868935Y-89239471D01*
X172917078Y-89278899D01*
X172917376Y-89279058D01*
X172917635Y-89279270D01*
X172925108Y-89284171D01*
X172967017Y-89311239D01*
X173002720Y-89329632D01*
X173037038Y-89350471D01*
X173045120Y-89354285D01*
X173140782Y-89398622D01*
X173165925Y-89407411D01*
X173189933Y-89418966D01*
X173224756Y-89427974D01*
X173258692Y-89439836D01*
X173285057Y-89443573D01*
X173310858Y-89450247D01*
X173319696Y-89451567D01*
X173428762Y-89467096D01*
X173482235Y-89469433D01*
X173535625Y-89473269D01*
X173544556Y-89472973D01*
X173701998Y-89466674D01*
X173719149Y-89464297D01*
X173736470Y-89464362D01*
X173745361Y-89463461D01*
X173859866Y-89451053D01*
X173899582Y-89442767D01*
X173939775Y-89437226D01*
X173948451Y-89435087D01*
X174161245Y-89381046D01*
X174177304Y-89375249D01*
X174194021Y-89371787D01*
X174235935Y-89354083D01*
X174278730Y-89338634D01*
X174293354Y-89329830D01*
X174309083Y-89323186D01*
X174316906Y-89318867D01*
X174500229Y-89215996D01*
X174503757Y-89213535D01*
X174507662Y-89211758D01*
X174538541Y-89189599D01*
X174539406Y-89190235D01*
X174560704Y-89202896D01*
X174580352Y-89217974D01*
X174614254Y-89234731D01*
X174646772Y-89254063D01*
X174670119Y-89262345D01*
X174692325Y-89273321D01*
X174700706Y-89276421D01*
X174884511Y-89342966D01*
X174932216Y-89355128D01*
X174979398Y-89369264D01*
X174992649Y-89370535D01*
X175005546Y-89373823D01*
X175054698Y-89376487D01*
X175103733Y-89381190D01*
X175112669Y-89381108D01*
X175286359Y-89378315D01*
X175309264Y-89375697D01*
X175332320Y-89375921D01*
X175371180Y-89368619D01*
X175410457Y-89364129D01*
X175432414Y-89357113D01*
X175455077Y-89352854D01*
X175463639Y-89350295D01*
X175515205Y-89334488D01*
X175571585Y-89310970D01*
X175628148Y-89287651D01*
X175630373Y-89286447D01*
X175630484Y-89286401D01*
X175630590Y-89286330D01*
X175636008Y-89283399D01*
X175765858Y-89211998D01*
X175786367Y-89197952D01*
X175808382Y-89186419D01*
X175837775Y-89162746D01*
X175868913Y-89141421D01*
X175886296Y-89123667D01*
X175905660Y-89108071D01*
X175911995Y-89101768D01*
X176029683Y-88983053D01*
X176031243Y-88981138D01*
X176033132Y-88979547D01*
X176070674Y-88932706D01*
X176108545Y-88886190D01*
X176109702Y-88884010D01*
X176111247Y-88882082D01*
X176116076Y-88874563D01*
X176225749Y-88701150D01*
X176244114Y-88664651D01*
X176264912Y-88629476D01*
X176268631Y-88621350D01*
X176374436Y-88385856D01*
X176381949Y-88363523D01*
X176392126Y-88342265D01*
X176395121Y-88333845D01*
X176501206Y-88028888D01*
X176504149Y-88016707D01*
X176508958Y-88005121D01*
X176511502Y-87996554D01*
X176622016Y-87614748D01*
X176622075Y-87614431D01*
X176622194Y-87614132D01*
X176624610Y-87605528D01*
X176639954Y-87549385D01*
X176695253Y-87357740D01*
X176715889Y-87292401D01*
X176818814Y-87252268D01*
X176864631Y-87235031D01*
X176873712Y-87230559D01*
X176883406Y-87227628D01*
X176891642Y-87224161D01*
X177069658Y-87147774D01*
X177111524Y-87124735D01*
X177154413Y-87103643D01*
X177161976Y-87098883D01*
X177264430Y-87033394D01*
X177287787Y-87015022D01*
X177312903Y-86999143D01*
X177336758Y-86976503D01*
X177362605Y-86956173D01*
X177381948Y-86933616D01*
X177403503Y-86913159D01*
X177422505Y-86886319D01*
X177443913Y-86861354D01*
X177458506Y-86835469D01*
X177475677Y-86811216D01*
X177480050Y-86803423D01*
X177512987Y-86743752D01*
X177536535Y-86689067D01*
X177560623Y-86634482D01*
X177561253Y-86631666D01*
X177562388Y-86629030D01*
X177574866Y-86570816D01*
X177587892Y-86512588D01*
X177587963Y-86509712D01*
X177588566Y-86506898D01*
X177589500Y-86447289D01*
X177590967Y-86387720D01*
X177590478Y-86384885D01*
X177590523Y-86382007D01*
X177579857Y-86323331D01*
X177569729Y-86264633D01*
X177568699Y-86261948D01*
X177568184Y-86259115D01*
X177546333Y-86203649D01*
X177524989Y-86148015D01*
X177522455Y-86143038D01*
X177522401Y-86142902D01*
X177522325Y-86142784D01*
X177520934Y-86140052D01*
X177490402Y-86081123D01*
X177476918Y-86060352D01*
X177465975Y-86038129D01*
X177442986Y-86008079D01*
X177422392Y-85976355D01*
X177405132Y-85958600D01*
X177390080Y-85938925D01*
X177361688Y-85913910D01*
X177335328Y-85886793D01*
X177314950Y-85872729D01*
X177296361Y-85856351D01*
X177263656Y-85837329D01*
X177232527Y-85815846D01*
X177209802Y-85806007D01*
X177188389Y-85793553D01*
X177180237Y-85789893D01*
X177159093Y-85780575D01*
X177129312Y-85770794D01*
X177100617Y-85758153D01*
X177070113Y-85751349D01*
X177040424Y-85741598D01*
X177009305Y-85737787D01*
X176978706Y-85730962D01*
X176947461Y-85730213D01*
X176916445Y-85726414D01*
X176885183Y-85728719D01*
X176853836Y-85727967D01*
X176844929Y-85728688D01*
X176759927Y-85736164D01*
X176704730Y-85746520D01*
X176649324Y-85755787D01*
X176640713Y-85758175D01*
X176492282Y-85800444D01*
X176475964Y-85806870D01*
X176458898Y-85810945D01*
X176450470Y-85813918D01*
X176232469Y-85892528D01*
X176231116Y-85893171D01*
X176229655Y-85893549D01*
X176221285Y-85896679D01*
X175793136Y-86060147D01*
X175755835Y-86078742D01*
X175717399Y-86094868D01*
X175700056Y-86106549D01*
X175681350Y-86115874D01*
X175648375Y-86141357D01*
X175613800Y-86164644D01*
X175599057Y-86179470D01*
X175582517Y-86192252D01*
X175555117Y-86223658D01*
X175525726Y-86253214D01*
X175514147Y-86270617D01*
X175500401Y-86286372D01*
X175479617Y-86322513D01*
X175456534Y-86357205D01*
X175448555Y-86376525D01*
X175438132Y-86394650D01*
X175424768Y-86434125D01*
X175408857Y-86472653D01*
X175406329Y-86481224D01*
X175327159Y-86756616D01*
X175327157Y-86756628D01*
X175327074Y-86756909D01*
X175316161Y-86794938D01*
X175316149Y-86795002D01*
X175315881Y-86795918D01*
X175262231Y-86984004D01*
X175262220Y-86984063D01*
X175261962Y-86984950D01*
X175199729Y-87204402D01*
X175199719Y-87204460D01*
X175199484Y-87205270D01*
X175140723Y-87413598D01*
X175085792Y-87602640D01*
X175079598Y-87621551D01*
X175058274Y-87597566D01*
X175034934Y-87579875D01*
X175013554Y-87559853D01*
X174985281Y-87542240D01*
X174958731Y-87522116D01*
X174951084Y-87517492D01*
X174895441Y-87484374D01*
X174863559Y-87469398D01*
X174848921Y-87460315D01*
X174825882Y-87451645D01*
X174784326Y-87431962D01*
X174783319Y-87431708D01*
X174782386Y-87431270D01*
X174751011Y-87423470D01*
X174732018Y-87416323D01*
X174703470Y-87411586D01*
X174663206Y-87401439D01*
X174662174Y-87401386D01*
X174661169Y-87401136D01*
X174632025Y-87399730D01*
X174608797Y-87395876D01*
X174575298Y-87396916D01*
X174538466Y-87395021D01*
X174536524Y-87395125D01*
X174536408Y-87395119D01*
X174536284Y-87395137D01*
X174529542Y-87395497D01*
X174527571Y-87395616D01*
X174505894Y-87399071D01*
X174483951Y-87399752D01*
X174445576Y-87408597D01*
X174412854Y-87413452D01*
X174410590Y-87414260D01*
X174404221Y-87415275D01*
X174383626Y-87422875D01*
X174362236Y-87427805D01*
X174325166Y-87444448D01*
X174300749Y-87453458D01*
X174295215Y-87455433D01*
X174294920Y-87455609D01*
X174287040Y-87458517D01*
X174268315Y-87469971D01*
X174248287Y-87478963D01*
X174240562Y-87483455D01*
X174183487Y-87517180D01*
X174134286Y-87553162D01*
X174084957Y-87588874D01*
X174082775Y-87590833D01*
X174082665Y-87590913D01*
X174082568Y-87591018D01*
X174078307Y-87594843D01*
X173988132Y-87676906D01*
X173972247Y-87694489D01*
X173954350Y-87710013D01*
X173948249Y-87716542D01*
X173850086Y-87823067D01*
X173850050Y-87811748D01*
X173852504Y-87600421D01*
X173859746Y-87337762D01*
X173870412Y-87091933D01*
X173883290Y-86894711D01*
X173893777Y-86760198D01*
X173893650Y-86753842D01*
X173894637Y-86747558D01*
X173895092Y-86738634D01*
X173901639Y-86590086D01*
X173900019Y-86559947D01*
X173901454Y-86529792D01*
X173900943Y-86520870D01*
X173894470Y-86420125D01*
X173894113Y-86417939D01*
X173894172Y-86415730D01*
X173884037Y-86356251D01*
X173874335Y-86296852D01*
X173873564Y-86294787D01*
X173873191Y-86292599D01*
X173870777Y-86283995D01*
X173849286Y-86209394D01*
X173847825Y-86205716D01*
X173847059Y-86201841D01*
X173824777Y-86147716D01*
X173803161Y-86093316D01*
X173801017Y-86089998D01*
X173799511Y-86086340D01*
X173795264Y-86078477D01*
X173756757Y-86008363D01*
X173744738Y-85990794D01*
X173735074Y-85971811D01*
X173730209Y-85964315D01*
X173722828Y-85953114D01*
X173722576Y-85952802D01*
X173722388Y-85952447D01*
X173697625Y-85921924D01*
X173686233Y-85905271D01*
X173675980Y-85895222D01*
X173644254Y-85856017D01*
X173643950Y-85855764D01*
X173643694Y-85855448D01*
X173637369Y-85849135D01*
X173501437Y-85715333D01*
X173476308Y-85695022D01*
X173453216Y-85672435D01*
X173427857Y-85655861D01*
X173404294Y-85636816D01*
X173375706Y-85621777D01*
X173348661Y-85604101D01*
X173340710Y-85600021D01*
X173157647Y-85507681D01*
X173131976Y-85497741D01*
X173107546Y-85485054D01*
X173073872Y-85475242D01*
X173041168Y-85462579D01*
X173014063Y-85457816D01*
X172987627Y-85450113D01*
X172978833Y-85448524D01*
X172780394Y-85414090D01*
X172774165Y-85413628D01*
X172768118Y-85412083D01*
X172711951Y-85409011D01*
X172655831Y-85404846D01*
X172649634Y-85405602D01*
X172643398Y-85405261D01*
X172634473Y-85405709D01*
X172607428Y-85407254D01*
X172606280Y-85407433D01*
X172605118Y-85407390D01*
X172544547Y-85417066D01*
X172484015Y-85426512D01*
X172482924Y-85426911D01*
X172481776Y-85427094D01*
X172473147Y-85429419D01*
X172326624Y-85469989D01*
X172273013Y-85490650D01*
X172219060Y-85510479D01*
X172211041Y-85514422D01*
X172046137Y-85596927D01*
X172010156Y-85619568D01*
X171972827Y-85639915D01*
X171965471Y-85644989D01*
X171812930Y-85751774D01*
X171769602Y-85788902D01*
X171725662Y-85825280D01*
X171719412Y-85831667D01*
X171609978Y-85945077D01*
X171574127Y-85990345D01*
X171537580Y-86035123D01*
X171532685Y-86042599D01*
X171494512Y-86101786D01*
X171488579Y-86113320D01*
X171480928Y-86123811D01*
X171460044Y-86168796D01*
X171437379Y-86212859D01*
X171433798Y-86225329D01*
X171428332Y-86237104D01*
X171416586Y-86285276D01*
X171402907Y-86332915D01*
X171401817Y-86345845D01*
X171398742Y-86358454D01*
X171397544Y-86367309D01*
X171391265Y-86416302D01*
X171389869Y-86463247D01*
X171386193Y-86510079D01*
X170766777Y-86510079D01*
X170802002Y-86444180D01*
X170838312Y-86324482D01*
X170850572Y-86200000D01*
X170847500Y-85785750D01*
X170688750Y-85627000D01*
X169852000Y-85627000D01*
X169598000Y-85627000D01*
X169578000Y-85627000D01*
X169578000Y-85373000D01*
X169598000Y-85373000D01*
X169598000Y-84323750D01*
X169852000Y-84323750D01*
X169852000Y-85373000D01*
X170688750Y-85373000D01*
X170847500Y-85214250D01*
X170850572Y-84800000D01*
X170838312Y-84675518D01*
X170802002Y-84555820D01*
X170743037Y-84445506D01*
X170663685Y-84348815D01*
X170566994Y-84269463D01*
X170456680Y-84210498D01*
X170336982Y-84174188D01*
X170212500Y-84161928D01*
X170010750Y-84165000D01*
X169852000Y-84323750D01*
X169598000Y-84323750D01*
X169439250Y-84165000D01*
X169237500Y-84161928D01*
X169113018Y-84174188D01*
X168993320Y-84210498D01*
X168883006Y-84269463D01*
X168786315Y-84348815D01*
X168722508Y-84426564D01*
X168717292Y-84420208D01*
X168610000Y-84332155D01*
X168610000Y-83417845D01*
X168717292Y-83329792D01*
X168722508Y-83323436D01*
X168786315Y-83401185D01*
X168883006Y-83480537D01*
X168993320Y-83539502D01*
X169113018Y-83575812D01*
X169237500Y-83588072D01*
X169439250Y-83585000D01*
X169598000Y-83426250D01*
X169598000Y-82377000D01*
X169852000Y-82377000D01*
X169852000Y-83426250D01*
X170010750Y-83585000D01*
X170212500Y-83588072D01*
X170336982Y-83575812D01*
X170456680Y-83539502D01*
X170566994Y-83480537D01*
X170663685Y-83401185D01*
X170743037Y-83304494D01*
X170802002Y-83194180D01*
X170838312Y-83074482D01*
X170850572Y-82950000D01*
X170847500Y-82535750D01*
X170688750Y-82377000D01*
X169852000Y-82377000D01*
X169598000Y-82377000D01*
X169578000Y-82377000D01*
X169578000Y-82123000D01*
X169598000Y-82123000D01*
X169598000Y-82103000D01*
X169852000Y-82103000D01*
X169852000Y-82123000D01*
X170688750Y-82123000D01*
X170847500Y-81964250D01*
X170850572Y-81550000D01*
X170838312Y-81425518D01*
X170802002Y-81305820D01*
X170743037Y-81195506D01*
X170738519Y-81190001D01*
X172506679Y-81190001D01*
X172497815Y-81280000D01*
X172526487Y-81571111D01*
X172611401Y-81851034D01*
X172749294Y-82109014D01*
X172934866Y-82335134D01*
X173160986Y-82520706D01*
X173215791Y-82550000D01*
X173160986Y-82579294D01*
X172934866Y-82764866D01*
X172749294Y-82990986D01*
X172611401Y-83248966D01*
X172526487Y-83528889D01*
X172497815Y-83820000D01*
X172526487Y-84111111D01*
X172611401Y-84391034D01*
X172749294Y-84649014D01*
X172934866Y-84875134D01*
X173160986Y-85060706D01*
X173418966Y-85198599D01*
X173698889Y-85283513D01*
X173917050Y-85305000D01*
X174062950Y-85305000D01*
X174281111Y-85283513D01*
X174561034Y-85198599D01*
X174819014Y-85060706D01*
X175045134Y-84875134D01*
X175230706Y-84649014D01*
X175368599Y-84391034D01*
X175453513Y-84111111D01*
X175482185Y-83820000D01*
X175453513Y-83528889D01*
X175368599Y-83248966D01*
X175230706Y-82990986D01*
X175045134Y-82764866D01*
X174819014Y-82579294D01*
X174764209Y-82550000D01*
X174819014Y-82520706D01*
X175045134Y-82335134D01*
X175230706Y-82109014D01*
X175368599Y-81851034D01*
X175453513Y-81571111D01*
X175482185Y-81280000D01*
X175453513Y-80988889D01*
X175368599Y-80708966D01*
X175230706Y-80450986D01*
X175045134Y-80224866D01*
X175015313Y-80200393D01*
X175084180Y-80179502D01*
X175194494Y-80120537D01*
X175291185Y-80041185D01*
X175370537Y-79944494D01*
X175429502Y-79834180D01*
X175465812Y-79714482D01*
X175478072Y-79590000D01*
X175478072Y-77890000D01*
X175465812Y-77765518D01*
X175429502Y-77645820D01*
X175370537Y-77535506D01*
X175291185Y-77438815D01*
X175194494Y-77359463D01*
X175084180Y-77300498D01*
X174964482Y-77264188D01*
X174840000Y-77251928D01*
X173140000Y-77251928D01*
X173015518Y-77264188D01*
X172895820Y-77300498D01*
X172785506Y-77359463D01*
X172688815Y-77438815D01*
X172609463Y-77535506D01*
X172550498Y-77645820D01*
X172514188Y-77765518D01*
X172501928Y-77890000D01*
X172501928Y-77980000D01*
X171797322Y-77980000D01*
X171759999Y-77976324D01*
X171722676Y-77980000D01*
X171722667Y-77980000D01*
X171611014Y-77990997D01*
X171467753Y-78034454D01*
X171335723Y-78105026D01*
X171252083Y-78173668D01*
X171219999Y-78199999D01*
X171196201Y-78228997D01*
X170205208Y-79219991D01*
X168016572Y-79219991D01*
X167979249Y-79216315D01*
X167941926Y-79219991D01*
X167941916Y-79219991D01*
X167830263Y-79230988D01*
X167687002Y-79274445D01*
X167554973Y-79345017D01*
X167439248Y-79439990D01*
X167415450Y-79468988D01*
X166729438Y-80155001D01*
X166168073Y-80155001D01*
X166168073Y-80040001D01*
X166158224Y-79940001D01*
X166168073Y-79840001D01*
X166168073Y-79390001D01*
X166155813Y-79265519D01*
X166119503Y-79145821D01*
X166060538Y-79035507D01*
X165981186Y-78938816D01*
X165884495Y-78859464D01*
X165774181Y-78800499D01*
X165654483Y-78764189D01*
X165565001Y-78755376D01*
X165565001Y-78079800D01*
X168496730Y-75148072D01*
X169760000Y-75148072D01*
X169884482Y-75135812D01*
X170004180Y-75099502D01*
X170114494Y-75040537D01*
X170211185Y-74961185D01*
X170290537Y-74864494D01*
X170349502Y-74754180D01*
X170385812Y-74634482D01*
X170398072Y-74510000D01*
X170398072Y-72810000D01*
X170385812Y-72685518D01*
X170349502Y-72565820D01*
X170290537Y-72455506D01*
X170211185Y-72358815D01*
X170114494Y-72279463D01*
X170004180Y-72220498D01*
X169884482Y-72184188D01*
X169760000Y-72171928D01*
X168060000Y-72171928D01*
X167935518Y-72184188D01*
X167815820Y-72220498D01*
X167705506Y-72279463D01*
X167608815Y-72358815D01*
X167529463Y-72455506D01*
X167470498Y-72565820D01*
X167449607Y-72634687D01*
X167425134Y-72604866D01*
X167199014Y-72419294D01*
X166941034Y-72281401D01*
X166661111Y-72196487D01*
X166442950Y-72175000D01*
X166297050Y-72175000D01*
X166078889Y-72196487D01*
X165798966Y-72281401D01*
X165540986Y-72419294D01*
X165314866Y-72604866D01*
X165129294Y-72830986D01*
X165100000Y-72885791D01*
X165070706Y-72830986D01*
X164885134Y-72604866D01*
X164659014Y-72419294D01*
X164401034Y-72281401D01*
X164121111Y-72196487D01*
X163902950Y-72175000D01*
X163757050Y-72175000D01*
X163538889Y-72196487D01*
X163258966Y-72281401D01*
X163000986Y-72419294D01*
X162774866Y-72604866D01*
X162589294Y-72830986D01*
X162554799Y-72895523D01*
X162485178Y-72778645D01*
X162290269Y-72562412D01*
X162056920Y-72388359D01*
X161794099Y-72263175D01*
X161646890Y-72218524D01*
X161467999Y-72312931D01*
X161431544Y-72192753D01*
X161360972Y-72060724D01*
X161265999Y-71944999D01*
X161150274Y-71850026D01*
X161018245Y-71779454D01*
X160874984Y-71735997D01*
X160725998Y-71721323D01*
X160577012Y-71735997D01*
X160433752Y-71779454D01*
X160301722Y-71850026D01*
X160214995Y-71921200D01*
X159654749Y-72481448D01*
X159579014Y-72419294D01*
X159321034Y-72281401D01*
X159041111Y-72196487D01*
X158822950Y-72175000D01*
X158677050Y-72175000D01*
X158458889Y-72196487D01*
X158178966Y-72281401D01*
X157920986Y-72419294D01*
X157694866Y-72604866D01*
X157509294Y-72830986D01*
X157371401Y-73088966D01*
X157286487Y-73368889D01*
X157257815Y-73660000D01*
X157286487Y-73951111D01*
X157371401Y-74231034D01*
X157509294Y-74489014D01*
X157694866Y-74715134D01*
X157920986Y-74900706D01*
X158178966Y-75038599D01*
X158458889Y-75123513D01*
X158677050Y-75145000D01*
X158822950Y-75145000D01*
X159041111Y-75123513D01*
X159321034Y-75038599D01*
X159354999Y-75020444D01*
X159354999Y-75077676D01*
X159351323Y-75114999D01*
X159354999Y-75152321D01*
X159354999Y-75152331D01*
X159365996Y-75263984D01*
X159392396Y-75351014D01*
X159409453Y-75407245D01*
X159480025Y-75539275D01*
X159504793Y-75569454D01*
X159574998Y-75655000D01*
X159604002Y-75678803D01*
X159988998Y-76063799D01*
X160075725Y-76134974D01*
X160207753Y-76205546D01*
X160209210Y-76205988D01*
X159425199Y-76990000D01*
X158189015Y-76990000D01*
X158151692Y-76986324D01*
X158114369Y-76990000D01*
X158114359Y-76990000D01*
X158002706Y-77000997D01*
X157878493Y-77038676D01*
X157859445Y-77044454D01*
X157727415Y-77115026D01*
X157643775Y-77183668D01*
X157611691Y-77209999D01*
X157587893Y-77238997D01*
X155001344Y-79825547D01*
X154972346Y-79849345D01*
X154948548Y-79878343D01*
X154948547Y-79878344D01*
X154877372Y-79965070D01*
X154807948Y-80094953D01*
X154805000Y-79025750D01*
X154646250Y-78867000D01*
X153797000Y-78867000D01*
X153797000Y-78887000D01*
X153543000Y-78887000D01*
X153543000Y-78867000D01*
X152693750Y-78867000D01*
X152535000Y-79025750D01*
X152534878Y-79070077D01*
X151693804Y-78229003D01*
X151670001Y-78199999D01*
X151554276Y-78105026D01*
X151422247Y-78034454D01*
X151278986Y-77990997D01*
X151167333Y-77980000D01*
X151167322Y-77980000D01*
X151130000Y-77976324D01*
X151092678Y-77980000D01*
X150808072Y-77980000D01*
X150808072Y-77340000D01*
X152531928Y-77340000D01*
X152535000Y-78454250D01*
X152693750Y-78613000D01*
X153543000Y-78613000D01*
X153543000Y-76863750D01*
X153797000Y-76863750D01*
X153797000Y-78613000D01*
X154646250Y-78613000D01*
X154805000Y-78454250D01*
X154808072Y-77340000D01*
X154795812Y-77215518D01*
X154759502Y-77095820D01*
X154700537Y-76985506D01*
X154621185Y-76888815D01*
X154524494Y-76809463D01*
X154414180Y-76750498D01*
X154294482Y-76714188D01*
X154170000Y-76701928D01*
X153955750Y-76705000D01*
X153797000Y-76863750D01*
X153543000Y-76863750D01*
X153384250Y-76705000D01*
X153170000Y-76701928D01*
X153045518Y-76714188D01*
X152925820Y-76750498D01*
X152815506Y-76809463D01*
X152718815Y-76888815D01*
X152639463Y-76985506D01*
X152580498Y-77095820D01*
X152544188Y-77215518D01*
X152531928Y-77340000D01*
X150808072Y-77340000D01*
X150795812Y-77215518D01*
X150759502Y-77095820D01*
X150700537Y-76985506D01*
X150621185Y-76888815D01*
X150524494Y-76809463D01*
X150430000Y-76758954D01*
X150430000Y-74921046D01*
X150524494Y-74870537D01*
X150621185Y-74791185D01*
X150700537Y-74694494D01*
X150759502Y-74584180D01*
X150795812Y-74464482D01*
X150808072Y-74340000D01*
X152531928Y-74340000D01*
X152544188Y-74464482D01*
X152580498Y-74584180D01*
X152639463Y-74694494D01*
X152718815Y-74791185D01*
X152815506Y-74870537D01*
X152925820Y-74929502D01*
X153045518Y-74965812D01*
X153170000Y-74978072D01*
X153384250Y-74975000D01*
X153543000Y-74816250D01*
X153543000Y-73067000D01*
X153797000Y-73067000D01*
X153797000Y-74816250D01*
X153955750Y-74975000D01*
X154170000Y-74978072D01*
X154294482Y-74965812D01*
X154414180Y-74929502D01*
X154524494Y-74870537D01*
X154621185Y-74791185D01*
X154700537Y-74694494D01*
X154759502Y-74584180D01*
X154795812Y-74464482D01*
X154808072Y-74340000D01*
X154805000Y-73225750D01*
X154646250Y-73067000D01*
X153797000Y-73067000D01*
X153543000Y-73067000D01*
X152693750Y-73067000D01*
X152535000Y-73225750D01*
X152531928Y-74340000D01*
X150808072Y-74340000D01*
X150808072Y-71660000D01*
X152532259Y-71660000D01*
X152535000Y-72654250D01*
X152693750Y-72813000D01*
X153543000Y-72813000D01*
X153543000Y-72793000D01*
X153797000Y-72793000D01*
X153797000Y-72813000D01*
X154646250Y-72813000D01*
X154805000Y-72654250D01*
X154807741Y-71660000D01*
X177967721Y-71660000D01*
X178065424Y-71669580D01*
X178128356Y-71688580D01*
X178186405Y-71719445D01*
X178237343Y-71760989D01*
X178279248Y-71811644D01*
X178310515Y-71869471D01*
X178329956Y-71932272D01*
X178340001Y-72027845D01*
X178340000Y-90717721D01*
X178330420Y-90815424D01*
X178311420Y-90878357D01*
X178280554Y-90936406D01*
X178239011Y-90987343D01*
X178188356Y-91029248D01*
X178130529Y-91060515D01*
X178067728Y-91079956D01*
X177972165Y-91090000D01*
X147532279Y-91090000D01*
X147434576Y-91080420D01*
X147371643Y-91061420D01*
X147313594Y-91030554D01*
X147262657Y-90989011D01*
X147220752Y-90938356D01*
X147189485Y-90880529D01*
X147170044Y-90817728D01*
X147160000Y-90722165D01*
X147160000Y-83250000D01*
X151939428Y-83250000D01*
X151951688Y-83374482D01*
X151987998Y-83494180D01*
X152046963Y-83604494D01*
X152126315Y-83701185D01*
X152223006Y-83780537D01*
X152333320Y-83839502D01*
X152453018Y-83875812D01*
X152577500Y-83888072D01*
X152779250Y-83885000D01*
X152938000Y-83726250D01*
X152938000Y-82677000D01*
X152101250Y-82677000D01*
X151942500Y-82835750D01*
X151939428Y-83250000D01*
X147160000Y-83250000D01*
X147160000Y-72032279D01*
X147169580Y-71934576D01*
X147188580Y-71871644D01*
X147219445Y-71813595D01*
X147260989Y-71762657D01*
X147311644Y-71720752D01*
X147369471Y-71689485D01*
X147432272Y-71670044D01*
X147527835Y-71660000D01*
X148531928Y-71660000D01*
X148531928Y-74340000D01*
X148531928Y-74340000D01*
G37*
X148531928Y-74340000D02*
X148544188Y-74464482D01*
X148580498Y-74584180D01*
X148639463Y-74694494D01*
X148718815Y-74791185D01*
X148815506Y-74870537D01*
X148910001Y-74921046D01*
X148910000Y-76758954D01*
X148815506Y-76809463D01*
X148718815Y-76888815D01*
X148639463Y-76985506D01*
X148580498Y-77095820D01*
X148544188Y-77215518D01*
X148531928Y-77340000D01*
X148531928Y-80140000D01*
X148544188Y-80264482D01*
X148580498Y-80384180D01*
X148639463Y-80494494D01*
X148718815Y-80591185D01*
X148815506Y-80670537D01*
X148925820Y-80729502D01*
X149045518Y-80765812D01*
X149170000Y-80778072D01*
X150170000Y-80778072D01*
X150294482Y-80765812D01*
X150414180Y-80729502D01*
X150524494Y-80670537D01*
X150621185Y-80591185D01*
X150700537Y-80494494D01*
X150759502Y-80384180D01*
X150795812Y-80264482D01*
X150808072Y-80140000D01*
X150808072Y-79500000D01*
X150815199Y-79500000D01*
X152531643Y-81216444D01*
X152453018Y-81224188D01*
X152333320Y-81260498D01*
X152223006Y-81319463D01*
X152126315Y-81398815D01*
X152046963Y-81495506D01*
X151987998Y-81605820D01*
X151951688Y-81725518D01*
X151939428Y-81850000D01*
X151942500Y-82264250D01*
X152101250Y-82423000D01*
X152938000Y-82423000D01*
X152938000Y-82403000D01*
X153192000Y-82403000D01*
X153192000Y-82423000D01*
X153212000Y-82423000D01*
X153212000Y-82677000D01*
X153192000Y-82677000D01*
X153192000Y-83726250D01*
X153350750Y-83885000D01*
X153552500Y-83888072D01*
X153676982Y-83875812D01*
X153796680Y-83839502D01*
X153906994Y-83780537D01*
X154003685Y-83701185D01*
X154067492Y-83623436D01*
X154072708Y-83629792D01*
X154206336Y-83739458D01*
X154358791Y-83820947D01*
X154524215Y-83871128D01*
X154696250Y-83888072D01*
X155183750Y-83888072D01*
X155355785Y-83871128D01*
X155521209Y-83820947D01*
X155673664Y-83739458D01*
X155807292Y-83629792D01*
X155916958Y-83496164D01*
X155998447Y-83343709D01*
X156048628Y-83178285D01*
X156065572Y-83006250D01*
X156065572Y-82499230D01*
X156239801Y-82325001D01*
X156765064Y-82325001D01*
X156725518Y-82398985D01*
X156699444Y-82447766D01*
X156655987Y-82591027D01*
X156644990Y-82702680D01*
X156644990Y-82702690D01*
X156641314Y-82740012D01*
X156644990Y-82777335D01*
X156644991Y-86315577D01*
X156641314Y-86352909D01*
X156644991Y-86390242D01*
X156645353Y-86393917D01*
X156424866Y-86574866D01*
X156239294Y-86800986D01*
X156210000Y-86855791D01*
X156180706Y-86800986D01*
X155995134Y-86574866D01*
X155769014Y-86389294D01*
X155511034Y-86251401D01*
X155231111Y-86166487D01*
X155012950Y-86145000D01*
X154867050Y-86145000D01*
X154648889Y-86166487D01*
X154368966Y-86251401D01*
X154110986Y-86389294D01*
X153884866Y-86574866D01*
X153699294Y-86800986D01*
X153670000Y-86855791D01*
X153640706Y-86800986D01*
X153455134Y-86574866D01*
X153229014Y-86389294D01*
X152971034Y-86251401D01*
X152691111Y-86166487D01*
X152472950Y-86145000D01*
X152327050Y-86145000D01*
X152108889Y-86166487D01*
X151828966Y-86251401D01*
X151570986Y-86389294D01*
X151344866Y-86574866D01*
X151159294Y-86800986D01*
X151130000Y-86855791D01*
X151100706Y-86800986D01*
X150915134Y-86574866D01*
X150689014Y-86389294D01*
X150431034Y-86251401D01*
X150151111Y-86166487D01*
X149932950Y-86145000D01*
X149787050Y-86145000D01*
X149568889Y-86166487D01*
X149288966Y-86251401D01*
X149030986Y-86389294D01*
X148804866Y-86574866D01*
X148619294Y-86800986D01*
X148481401Y-87058966D01*
X148396487Y-87338889D01*
X148367815Y-87630000D01*
X148396487Y-87921111D01*
X148481401Y-88201034D01*
X148619294Y-88459014D01*
X148804866Y-88685134D01*
X149030986Y-88870706D01*
X149288966Y-89008599D01*
X149568889Y-89093513D01*
X149787050Y-89115000D01*
X149932950Y-89115000D01*
X150151111Y-89093513D01*
X150431034Y-89008599D01*
X150689014Y-88870706D01*
X150915134Y-88685134D01*
X151100706Y-88459014D01*
X151130000Y-88404209D01*
X151159294Y-88459014D01*
X151344866Y-88685134D01*
X151570986Y-88870706D01*
X151828966Y-89008599D01*
X152108889Y-89093513D01*
X152327050Y-89115000D01*
X152472950Y-89115000D01*
X152691111Y-89093513D01*
X152971034Y-89008599D01*
X153229014Y-88870706D01*
X153455134Y-88685134D01*
X153640706Y-88459014D01*
X153670000Y-88404209D01*
X153699294Y-88459014D01*
X153884866Y-88685134D01*
X154110986Y-88870706D01*
X154368966Y-89008599D01*
X154648889Y-89093513D01*
X154867050Y-89115000D01*
X155012950Y-89115000D01*
X155231111Y-89093513D01*
X155511034Y-89008599D01*
X155769014Y-88870706D01*
X155995134Y-88685134D01*
X156180706Y-88459014D01*
X156210000Y-88404209D01*
X156239294Y-88459014D01*
X156424866Y-88685134D01*
X156650986Y-88870706D01*
X156908966Y-89008599D01*
X157188889Y-89093513D01*
X157407050Y-89115000D01*
X157552950Y-89115000D01*
X157771111Y-89093513D01*
X158051034Y-89008599D01*
X158309014Y-88870706D01*
X158535134Y-88685134D01*
X158720706Y-88459014D01*
X158750000Y-88404209D01*
X158779294Y-88459014D01*
X158964866Y-88685134D01*
X159190986Y-88870706D01*
X159448966Y-89008599D01*
X159728889Y-89093513D01*
X159947050Y-89115000D01*
X160092950Y-89115000D01*
X160311111Y-89093513D01*
X160591034Y-89008599D01*
X160849014Y-88870706D01*
X161075134Y-88685134D01*
X161099607Y-88655313D01*
X161120498Y-88724180D01*
X161179463Y-88834494D01*
X161258815Y-88931185D01*
X161355506Y-89010537D01*
X161465820Y-89069502D01*
X161585518Y-89105812D01*
X161710000Y-89118072D01*
X163410000Y-89118072D01*
X163534482Y-89105812D01*
X163654180Y-89069502D01*
X163764494Y-89010537D01*
X163861185Y-88931185D01*
X163940537Y-88834494D01*
X163999502Y-88724180D01*
X164035812Y-88604482D01*
X164048072Y-88480000D01*
X164048072Y-86780000D01*
X164035812Y-86655518D01*
X163999502Y-86535820D01*
X163940537Y-86425506D01*
X163861185Y-86328815D01*
X163764494Y-86249463D01*
X163654180Y-86190498D01*
X163534482Y-86154188D01*
X163410000Y-86141928D01*
X161710000Y-86141928D01*
X161585518Y-86154188D01*
X161465820Y-86190498D01*
X161355506Y-86249463D01*
X161258815Y-86328815D01*
X161179463Y-86425506D01*
X161120498Y-86535820D01*
X161099607Y-86604687D01*
X161075134Y-86574866D01*
X160849014Y-86389294D01*
X160591034Y-86251401D01*
X160311111Y-86166487D01*
X160092950Y-86145000D01*
X159947050Y-86145000D01*
X159728889Y-86166487D01*
X159448966Y-86251401D01*
X159190986Y-86389294D01*
X158964866Y-86574866D01*
X158779294Y-86800986D01*
X158750000Y-86855791D01*
X158720706Y-86800986D01*
X158535134Y-86574866D01*
X158309014Y-86389294D01*
X158236031Y-86350284D01*
X158229003Y-86278933D01*
X158185546Y-86135672D01*
X158164990Y-86097215D01*
X158164990Y-85384794D01*
X158381199Y-85601003D01*
X158404997Y-85630001D01*
X158433995Y-85653799D01*
X158520721Y-85724974D01*
X158631618Y-85784250D01*
X158652751Y-85795546D01*
X158796012Y-85839003D01*
X158907665Y-85850000D01*
X158907675Y-85850000D01*
X158944998Y-85853676D01*
X158982321Y-85850000D01*
X159316289Y-85850000D01*
X159360226Y-85893937D01*
X159529744Y-86007205D01*
X159718102Y-86085226D01*
X159918061Y-86125000D01*
X160121939Y-86125000D01*
X160321898Y-86085226D01*
X160510256Y-86007205D01*
X160679774Y-85893937D01*
X160823937Y-85749774D01*
X160937205Y-85580256D01*
X161015226Y-85391898D01*
X161055000Y-85191939D01*
X161055000Y-84988061D01*
X161015226Y-84788102D01*
X160937205Y-84599744D01*
X160840490Y-84455000D01*
X160937205Y-84310256D01*
X161015226Y-84121898D01*
X161055000Y-83921939D01*
X161055000Y-83718061D01*
X161015226Y-83518102D01*
X160937205Y-83329744D01*
X160823937Y-83160226D01*
X160679774Y-83016063D01*
X160510256Y-82902795D01*
X160321898Y-82824774D01*
X160268073Y-82814068D01*
X160268073Y-82759144D01*
X160398061Y-82785000D01*
X160601939Y-82785000D01*
X160801898Y-82745226D01*
X160990256Y-82667205D01*
X161159774Y-82553937D01*
X161303937Y-82409774D01*
X161417205Y-82240256D01*
X161495226Y-82051898D01*
X161535000Y-81851939D01*
X161535000Y-81648061D01*
X161495226Y-81448102D01*
X161417205Y-81259744D01*
X161303937Y-81090226D01*
X161159774Y-80946063D01*
X160990256Y-80832795D01*
X160801898Y-80754774D01*
X160601939Y-80715000D01*
X160539801Y-80715000D01*
X160268073Y-80443272D01*
X160268073Y-80040001D01*
X160258224Y-79940001D01*
X160268073Y-79840001D01*
X160268073Y-79390001D01*
X160255813Y-79265519D01*
X160219503Y-79145821D01*
X160160538Y-79035507D01*
X160081186Y-78938816D01*
X159984495Y-78859464D01*
X159874181Y-78800499D01*
X159754483Y-78764189D01*
X159630001Y-78751929D01*
X158224565Y-78751929D01*
X158466494Y-78510000D01*
X159702678Y-78510000D01*
X159740000Y-78513676D01*
X159777322Y-78510000D01*
X159777333Y-78510000D01*
X159888986Y-78499003D01*
X160032247Y-78455546D01*
X160164276Y-78384974D01*
X160280001Y-78290001D01*
X160303804Y-78260997D01*
X163464005Y-75100797D01*
X163538889Y-75123513D01*
X163757050Y-75145000D01*
X163810199Y-75145000D01*
X163243998Y-75711201D01*
X163215000Y-75734999D01*
X163191202Y-75763997D01*
X163191201Y-75763998D01*
X163120026Y-75850724D01*
X163049454Y-75982754D01*
X163005998Y-76126015D01*
X162991324Y-76275000D01*
X162995001Y-76312332D01*
X162995000Y-80152677D01*
X162991324Y-80190000D01*
X162995000Y-80227322D01*
X162995000Y-80227332D01*
X163005997Y-80338985D01*
X163038405Y-80445821D01*
X163049454Y-80482246D01*
X163120026Y-80614276D01*
X163126984Y-80622754D01*
X163214999Y-80730001D01*
X163244000Y-80753802D01*
X163266200Y-80776002D01*
X163290000Y-80805002D01*
X163405725Y-80899975D01*
X163441929Y-80919327D01*
X163441929Y-81140001D01*
X163451778Y-81240001D01*
X163441929Y-81340001D01*
X163441929Y-81790001D01*
X163451778Y-81890001D01*
X163441929Y-81990001D01*
X163441929Y-82440001D01*
X163452096Y-82543228D01*
X163445001Y-82608251D01*
X163477248Y-82640498D01*
X163490499Y-82684181D01*
X163549464Y-82794495D01*
X163607327Y-82865001D01*
X163549464Y-82935507D01*
X163490499Y-83045821D01*
X163477248Y-83089504D01*
X163445001Y-83121751D01*
X163452096Y-83186774D01*
X163441929Y-83290001D01*
X163441929Y-83740001D01*
X163454189Y-83864483D01*
X163490499Y-83984181D01*
X163549464Y-84094495D01*
X163628816Y-84191186D01*
X163725507Y-84270538D01*
X163835821Y-84329503D01*
X163955519Y-84365813D01*
X164080001Y-84378073D01*
X165376348Y-84378073D01*
X165509744Y-84467205D01*
X165698102Y-84545226D01*
X165898061Y-84585000D01*
X166101939Y-84585000D01*
X166301898Y-84545226D01*
X166490256Y-84467205D01*
X166659774Y-84353937D01*
X166803937Y-84209774D01*
X166917205Y-84040256D01*
X166995226Y-83851898D01*
X167035000Y-83651939D01*
X167035000Y-83448061D01*
X167018897Y-83367105D01*
X167049998Y-83405002D01*
X167090001Y-83437831D01*
X167090000Y-84332155D01*
X166982708Y-84420208D01*
X166873042Y-84553836D01*
X166791553Y-84706291D01*
X166741372Y-84871715D01*
X166724428Y-85043750D01*
X166724428Y-85956250D01*
X166741372Y-86128285D01*
X166757947Y-86182925D01*
X166648102Y-86204774D01*
X166459744Y-86282795D01*
X166290226Y-86396063D01*
X166146063Y-86540226D01*
X166032795Y-86709744D01*
X165954774Y-86898102D01*
X165915000Y-87098061D01*
X165915000Y-87301939D01*
X165954774Y-87501898D01*
X166032795Y-87690256D01*
X166146063Y-87859774D01*
X166290226Y-88003937D01*
X166459744Y-88117205D01*
X166648102Y-88195226D01*
X166848061Y-88235000D01*
X167051939Y-88235000D01*
X167251898Y-88195226D01*
X167440256Y-88117205D01*
X167609774Y-88003937D01*
X167753937Y-87859774D01*
X167867205Y-87690256D01*
X167945226Y-87501898D01*
X167963184Y-87411618D01*
X168361004Y-87013798D01*
X168390001Y-86990001D01*
X168484974Y-86874276D01*
X168555546Y-86742247D01*
X168569217Y-86697180D01*
X168583664Y-86689458D01*
X168717292Y-86579792D01*
X168722508Y-86573436D01*
X168786315Y-86651185D01*
X168883006Y-86730537D01*
X168993320Y-86789502D01*
X169113018Y-86825812D01*
X169237500Y-86838072D01*
X169439250Y-86835000D01*
X169598000Y-86676250D01*
X169598000Y-85627000D01*
X169852000Y-85627000D01*
X169852000Y-86676250D01*
X170010750Y-86835000D01*
X170212500Y-86838072D01*
X170336982Y-86825812D01*
X170456680Y-86789502D01*
X170566994Y-86730537D01*
X170663685Y-86651185D01*
X170743037Y-86554494D01*
X170766777Y-86510079D01*
X171386193Y-86510079D01*
X171388016Y-86525572D01*
X171387553Y-86541153D01*
X171395299Y-86587456D01*
X171400791Y-86634129D01*
X171405590Y-86648975D01*
X171408161Y-86664347D01*
X171424759Y-86708283D01*
X171439207Y-86752981D01*
X171446791Y-86766600D01*
X171452304Y-86781193D01*
X171477130Y-86821083D01*
X171499976Y-86862108D01*
X171510064Y-86873998D01*
X171518304Y-86887238D01*
X171550392Y-86921532D01*
X171580783Y-86957353D01*
X171587245Y-86963526D01*
X171634699Y-87008226D01*
X171670578Y-87035944D01*
X171673114Y-87038131D01*
X171684011Y-87048856D01*
X171690527Y-87053144D01*
X171704927Y-87065558D01*
X171712269Y-87070653D01*
X171725034Y-87079382D01*
X171731150Y-87082739D01*
X171733544Y-87084589D01*
X171744114Y-87089856D01*
X171757458Y-87097182D01*
X171788357Y-87117512D01*
X171812077Y-87127165D01*
X171834526Y-87139489D01*
X171869782Y-87150649D01*
X171904049Y-87164595D01*
X171912633Y-87167079D01*
X171964849Y-87181800D01*
X172005883Y-87189142D01*
X172046367Y-87199144D01*
X172067242Y-87200120D01*
X172087803Y-87203799D01*
X172129479Y-87203031D01*
X172171137Y-87204979D01*
X172191804Y-87201882D01*
X172212688Y-87201497D01*
X172253428Y-87192647D01*
X172294664Y-87186468D01*
X172314330Y-87179418D01*
X172334747Y-87174983D01*
X172372990Y-87158390D01*
X172385704Y-87153832D01*
X172358250Y-87408699D01*
X172358091Y-87425289D01*
X172355556Y-87441696D01*
X172355123Y-87450622D01*
X172339003Y-87837841D01*
X172340588Y-87866045D01*
X172339143Y-87894260D01*
X172339621Y-87903183D01*
X172358828Y-88220040D01*
X172365989Y-88264903D01*
X172370745Y-88310098D01*
X172372605Y-88318839D01*
X172427648Y-88569015D01*
X172430447Y-88577624D01*
X172431772Y-88586573D01*
X172449733Y-88636950D01*
X172466264Y-88687802D01*
X172470677Y-88695696D01*
X172473718Y-88704225D01*
X172477583Y-88712282D01*
X172568972Y-88899466D01*
X172589647Y-88933043D01*
X172607845Y-88968025D01*
X172622322Y-88986107D01*
X172634464Y-89005825D01*
X172661257Y-89034736D01*
X172685912Y-89065529D01*
X172692196Y-89071882D01*
X172820444Y-89199757D01*
X172820705Y-89199971D01*
X172820919Y-89200230D01*
X172868935Y-89239471D01*
X172917078Y-89278899D01*
X172917376Y-89279058D01*
X172917635Y-89279270D01*
X172925108Y-89284171D01*
X172967017Y-89311239D01*
X173002720Y-89329632D01*
X173037038Y-89350471D01*
X173045120Y-89354285D01*
X173140782Y-89398622D01*
X173165925Y-89407411D01*
X173189933Y-89418966D01*
X173224756Y-89427974D01*
X173258692Y-89439836D01*
X173285057Y-89443573D01*
X173310858Y-89450247D01*
X173319696Y-89451567D01*
X173428762Y-89467096D01*
X173482235Y-89469433D01*
X173535625Y-89473269D01*
X173544556Y-89472973D01*
X173701998Y-89466674D01*
X173719149Y-89464297D01*
X173736470Y-89464362D01*
X173745361Y-89463461D01*
X173859866Y-89451053D01*
X173899582Y-89442767D01*
X173939775Y-89437226D01*
X173948451Y-89435087D01*
X174161245Y-89381046D01*
X174177304Y-89375249D01*
X174194021Y-89371787D01*
X174235935Y-89354083D01*
X174278730Y-89338634D01*
X174293354Y-89329830D01*
X174309083Y-89323186D01*
X174316906Y-89318867D01*
X174500229Y-89215996D01*
X174503757Y-89213535D01*
X174507662Y-89211758D01*
X174538541Y-89189599D01*
X174539406Y-89190235D01*
X174560704Y-89202896D01*
X174580352Y-89217974D01*
X174614254Y-89234731D01*
X174646772Y-89254063D01*
X174670119Y-89262345D01*
X174692325Y-89273321D01*
X174700706Y-89276421D01*
X174884511Y-89342966D01*
X174932216Y-89355128D01*
X174979398Y-89369264D01*
X174992649Y-89370535D01*
X175005546Y-89373823D01*
X175054698Y-89376487D01*
X175103733Y-89381190D01*
X175112669Y-89381108D01*
X175286359Y-89378315D01*
X175309264Y-89375697D01*
X175332320Y-89375921D01*
X175371180Y-89368619D01*
X175410457Y-89364129D01*
X175432414Y-89357113D01*
X175455077Y-89352854D01*
X175463639Y-89350295D01*
X175515205Y-89334488D01*
X175571585Y-89310970D01*
X175628148Y-89287651D01*
X175630373Y-89286447D01*
X175630484Y-89286401D01*
X175630590Y-89286330D01*
X175636008Y-89283399D01*
X175765858Y-89211998D01*
X175786367Y-89197952D01*
X175808382Y-89186419D01*
X175837775Y-89162746D01*
X175868913Y-89141421D01*
X175886296Y-89123667D01*
X175905660Y-89108071D01*
X175911995Y-89101768D01*
X176029683Y-88983053D01*
X176031243Y-88981138D01*
X176033132Y-88979547D01*
X176070674Y-88932706D01*
X176108545Y-88886190D01*
X176109702Y-88884010D01*
X176111247Y-88882082D01*
X176116076Y-88874563D01*
X176225749Y-88701150D01*
X176244114Y-88664651D01*
X176264912Y-88629476D01*
X176268631Y-88621350D01*
X176374436Y-88385856D01*
X176381949Y-88363523D01*
X176392126Y-88342265D01*
X176395121Y-88333845D01*
X176501206Y-88028888D01*
X176504149Y-88016707D01*
X176508958Y-88005121D01*
X176511502Y-87996554D01*
X176622016Y-87614748D01*
X176622075Y-87614431D01*
X176622194Y-87614132D01*
X176624610Y-87605528D01*
X176639954Y-87549385D01*
X176695253Y-87357740D01*
X176715889Y-87292401D01*
X176818814Y-87252268D01*
X176864631Y-87235031D01*
X176873712Y-87230559D01*
X176883406Y-87227628D01*
X176891642Y-87224161D01*
X177069658Y-87147774D01*
X177111524Y-87124735D01*
X177154413Y-87103643D01*
X177161976Y-87098883D01*
X177264430Y-87033394D01*
X177287787Y-87015022D01*
X177312903Y-86999143D01*
X177336758Y-86976503D01*
X177362605Y-86956173D01*
X177381948Y-86933616D01*
X177403503Y-86913159D01*
X177422505Y-86886319D01*
X177443913Y-86861354D01*
X177458506Y-86835469D01*
X177475677Y-86811216D01*
X177480050Y-86803423D01*
X177512987Y-86743752D01*
X177536535Y-86689067D01*
X177560623Y-86634482D01*
X177561253Y-86631666D01*
X177562388Y-86629030D01*
X177574866Y-86570816D01*
X177587892Y-86512588D01*
X177587963Y-86509712D01*
X177588566Y-86506898D01*
X177589500Y-86447289D01*
X177590967Y-86387720D01*
X177590478Y-86384885D01*
X177590523Y-86382007D01*
X177579857Y-86323331D01*
X177569729Y-86264633D01*
X177568699Y-86261948D01*
X177568184Y-86259115D01*
X177546333Y-86203649D01*
X177524989Y-86148015D01*
X177522455Y-86143038D01*
X177522401Y-86142902D01*
X177522325Y-86142784D01*
X177520934Y-86140052D01*
X177490402Y-86081123D01*
X177476918Y-86060352D01*
X177465975Y-86038129D01*
X177442986Y-86008079D01*
X177422392Y-85976355D01*
X177405132Y-85958600D01*
X177390080Y-85938925D01*
X177361688Y-85913910D01*
X177335328Y-85886793D01*
X177314950Y-85872729D01*
X177296361Y-85856351D01*
X177263656Y-85837329D01*
X177232527Y-85815846D01*
X177209802Y-85806007D01*
X177188389Y-85793553D01*
X177180237Y-85789893D01*
X177159093Y-85780575D01*
X177129312Y-85770794D01*
X177100617Y-85758153D01*
X177070113Y-85751349D01*
X177040424Y-85741598D01*
X177009305Y-85737787D01*
X176978706Y-85730962D01*
X176947461Y-85730213D01*
X176916445Y-85726414D01*
X176885183Y-85728719D01*
X176853836Y-85727967D01*
X176844929Y-85728688D01*
X176759927Y-85736164D01*
X176704730Y-85746520D01*
X176649324Y-85755787D01*
X176640713Y-85758175D01*
X176492282Y-85800444D01*
X176475964Y-85806870D01*
X176458898Y-85810945D01*
X176450470Y-85813918D01*
X176232469Y-85892528D01*
X176231116Y-85893171D01*
X176229655Y-85893549D01*
X176221285Y-85896679D01*
X175793136Y-86060147D01*
X175755835Y-86078742D01*
X175717399Y-86094868D01*
X175700056Y-86106549D01*
X175681350Y-86115874D01*
X175648375Y-86141357D01*
X175613800Y-86164644D01*
X175599057Y-86179470D01*
X175582517Y-86192252D01*
X175555117Y-86223658D01*
X175525726Y-86253214D01*
X175514147Y-86270617D01*
X175500401Y-86286372D01*
X175479617Y-86322513D01*
X175456534Y-86357205D01*
X175448555Y-86376525D01*
X175438132Y-86394650D01*
X175424768Y-86434125D01*
X175408857Y-86472653D01*
X175406329Y-86481224D01*
X175327159Y-86756616D01*
X175327157Y-86756628D01*
X175327074Y-86756909D01*
X175316161Y-86794938D01*
X175316149Y-86795002D01*
X175315881Y-86795918D01*
X175262231Y-86984004D01*
X175262220Y-86984063D01*
X175261962Y-86984950D01*
X175199729Y-87204402D01*
X175199719Y-87204460D01*
X175199484Y-87205270D01*
X175140723Y-87413598D01*
X175085792Y-87602640D01*
X175079598Y-87621551D01*
X175058274Y-87597566D01*
X175034934Y-87579875D01*
X175013554Y-87559853D01*
X174985281Y-87542240D01*
X174958731Y-87522116D01*
X174951084Y-87517492D01*
X174895441Y-87484374D01*
X174863559Y-87469398D01*
X174848921Y-87460315D01*
X174825882Y-87451645D01*
X174784326Y-87431962D01*
X174783319Y-87431708D01*
X174782386Y-87431270D01*
X174751011Y-87423470D01*
X174732018Y-87416323D01*
X174703470Y-87411586D01*
X174663206Y-87401439D01*
X174662174Y-87401386D01*
X174661169Y-87401136D01*
X174632025Y-87399730D01*
X174608797Y-87395876D01*
X174575298Y-87396916D01*
X174538466Y-87395021D01*
X174536524Y-87395125D01*
X174536408Y-87395119D01*
X174536284Y-87395137D01*
X174529542Y-87395497D01*
X174527571Y-87395616D01*
X174505894Y-87399071D01*
X174483951Y-87399752D01*
X174445576Y-87408597D01*
X174412854Y-87413452D01*
X174410590Y-87414260D01*
X174404221Y-87415275D01*
X174383626Y-87422875D01*
X174362236Y-87427805D01*
X174325166Y-87444448D01*
X174300749Y-87453458D01*
X174295215Y-87455433D01*
X174294920Y-87455609D01*
X174287040Y-87458517D01*
X174268315Y-87469971D01*
X174248287Y-87478963D01*
X174240562Y-87483455D01*
X174183487Y-87517180D01*
X174134286Y-87553162D01*
X174084957Y-87588874D01*
X174082775Y-87590833D01*
X174082665Y-87590913D01*
X174082568Y-87591018D01*
X174078307Y-87594843D01*
X173988132Y-87676906D01*
X173972247Y-87694489D01*
X173954350Y-87710013D01*
X173948249Y-87716542D01*
X173850086Y-87823067D01*
X173850050Y-87811748D01*
X173852504Y-87600421D01*
X173859746Y-87337762D01*
X173870412Y-87091933D01*
X173883290Y-86894711D01*
X173893777Y-86760198D01*
X173893650Y-86753842D01*
X173894637Y-86747558D01*
X173895092Y-86738634D01*
X173901639Y-86590086D01*
X173900019Y-86559947D01*
X173901454Y-86529792D01*
X173900943Y-86520870D01*
X173894470Y-86420125D01*
X173894113Y-86417939D01*
X173894172Y-86415730D01*
X173884037Y-86356251D01*
X173874335Y-86296852D01*
X173873564Y-86294787D01*
X173873191Y-86292599D01*
X173870777Y-86283995D01*
X173849286Y-86209394D01*
X173847825Y-86205716D01*
X173847059Y-86201841D01*
X173824777Y-86147716D01*
X173803161Y-86093316D01*
X173801017Y-86089998D01*
X173799511Y-86086340D01*
X173795264Y-86078477D01*
X173756757Y-86008363D01*
X173744738Y-85990794D01*
X173735074Y-85971811D01*
X173730209Y-85964315D01*
X173722828Y-85953114D01*
X173722576Y-85952802D01*
X173722388Y-85952447D01*
X173697625Y-85921924D01*
X173686233Y-85905271D01*
X173675980Y-85895222D01*
X173644254Y-85856017D01*
X173643950Y-85855764D01*
X173643694Y-85855448D01*
X173637369Y-85849135D01*
X173501437Y-85715333D01*
X173476308Y-85695022D01*
X173453216Y-85672435D01*
X173427857Y-85655861D01*
X173404294Y-85636816D01*
X173375706Y-85621777D01*
X173348661Y-85604101D01*
X173340710Y-85600021D01*
X173157647Y-85507681D01*
X173131976Y-85497741D01*
X173107546Y-85485054D01*
X173073872Y-85475242D01*
X173041168Y-85462579D01*
X173014063Y-85457816D01*
X172987627Y-85450113D01*
X172978833Y-85448524D01*
X172780394Y-85414090D01*
X172774165Y-85413628D01*
X172768118Y-85412083D01*
X172711951Y-85409011D01*
X172655831Y-85404846D01*
X172649634Y-85405602D01*
X172643398Y-85405261D01*
X172634473Y-85405709D01*
X172607428Y-85407254D01*
X172606280Y-85407433D01*
X172605118Y-85407390D01*
X172544547Y-85417066D01*
X172484015Y-85426512D01*
X172482924Y-85426911D01*
X172481776Y-85427094D01*
X172473147Y-85429419D01*
X172326624Y-85469989D01*
X172273013Y-85490650D01*
X172219060Y-85510479D01*
X172211041Y-85514422D01*
X172046137Y-85596927D01*
X172010156Y-85619568D01*
X171972827Y-85639915D01*
X171965471Y-85644989D01*
X171812930Y-85751774D01*
X171769602Y-85788902D01*
X171725662Y-85825280D01*
X171719412Y-85831667D01*
X171609978Y-85945077D01*
X171574127Y-85990345D01*
X171537580Y-86035123D01*
X171532685Y-86042599D01*
X171494512Y-86101786D01*
X171488579Y-86113320D01*
X171480928Y-86123811D01*
X171460044Y-86168796D01*
X171437379Y-86212859D01*
X171433798Y-86225329D01*
X171428332Y-86237104D01*
X171416586Y-86285276D01*
X171402907Y-86332915D01*
X171401817Y-86345845D01*
X171398742Y-86358454D01*
X171397544Y-86367309D01*
X171391265Y-86416302D01*
X171389869Y-86463247D01*
X171386193Y-86510079D01*
X170766777Y-86510079D01*
X170802002Y-86444180D01*
X170838312Y-86324482D01*
X170850572Y-86200000D01*
X170847500Y-85785750D01*
X170688750Y-85627000D01*
X169852000Y-85627000D01*
X169598000Y-85627000D01*
X169578000Y-85627000D01*
X169578000Y-85373000D01*
X169598000Y-85373000D01*
X169598000Y-84323750D01*
X169852000Y-84323750D01*
X169852000Y-85373000D01*
X170688750Y-85373000D01*
X170847500Y-85214250D01*
X170850572Y-84800000D01*
X170838312Y-84675518D01*
X170802002Y-84555820D01*
X170743037Y-84445506D01*
X170663685Y-84348815D01*
X170566994Y-84269463D01*
X170456680Y-84210498D01*
X170336982Y-84174188D01*
X170212500Y-84161928D01*
X170010750Y-84165000D01*
X169852000Y-84323750D01*
X169598000Y-84323750D01*
X169439250Y-84165000D01*
X169237500Y-84161928D01*
X169113018Y-84174188D01*
X168993320Y-84210498D01*
X168883006Y-84269463D01*
X168786315Y-84348815D01*
X168722508Y-84426564D01*
X168717292Y-84420208D01*
X168610000Y-84332155D01*
X168610000Y-83417845D01*
X168717292Y-83329792D01*
X168722508Y-83323436D01*
X168786315Y-83401185D01*
X168883006Y-83480537D01*
X168993320Y-83539502D01*
X169113018Y-83575812D01*
X169237500Y-83588072D01*
X169439250Y-83585000D01*
X169598000Y-83426250D01*
X169598000Y-82377000D01*
X169852000Y-82377000D01*
X169852000Y-83426250D01*
X170010750Y-83585000D01*
X170212500Y-83588072D01*
X170336982Y-83575812D01*
X170456680Y-83539502D01*
X170566994Y-83480537D01*
X170663685Y-83401185D01*
X170743037Y-83304494D01*
X170802002Y-83194180D01*
X170838312Y-83074482D01*
X170850572Y-82950000D01*
X170847500Y-82535750D01*
X170688750Y-82377000D01*
X169852000Y-82377000D01*
X169598000Y-82377000D01*
X169578000Y-82377000D01*
X169578000Y-82123000D01*
X169598000Y-82123000D01*
X169598000Y-82103000D01*
X169852000Y-82103000D01*
X169852000Y-82123000D01*
X170688750Y-82123000D01*
X170847500Y-81964250D01*
X170850572Y-81550000D01*
X170838312Y-81425518D01*
X170802002Y-81305820D01*
X170743037Y-81195506D01*
X170738519Y-81190001D01*
X172506679Y-81190001D01*
X172497815Y-81280000D01*
X172526487Y-81571111D01*
X172611401Y-81851034D01*
X172749294Y-82109014D01*
X172934866Y-82335134D01*
X173160986Y-82520706D01*
X173215791Y-82550000D01*
X173160986Y-82579294D01*
X172934866Y-82764866D01*
X172749294Y-82990986D01*
X172611401Y-83248966D01*
X172526487Y-83528889D01*
X172497815Y-83820000D01*
X172526487Y-84111111D01*
X172611401Y-84391034D01*
X172749294Y-84649014D01*
X172934866Y-84875134D01*
X173160986Y-85060706D01*
X173418966Y-85198599D01*
X173698889Y-85283513D01*
X173917050Y-85305000D01*
X174062950Y-85305000D01*
X174281111Y-85283513D01*
X174561034Y-85198599D01*
X174819014Y-85060706D01*
X175045134Y-84875134D01*
X175230706Y-84649014D01*
X175368599Y-84391034D01*
X175453513Y-84111111D01*
X175482185Y-83820000D01*
X175453513Y-83528889D01*
X175368599Y-83248966D01*
X175230706Y-82990986D01*
X175045134Y-82764866D01*
X174819014Y-82579294D01*
X174764209Y-82550000D01*
X174819014Y-82520706D01*
X175045134Y-82335134D01*
X175230706Y-82109014D01*
X175368599Y-81851034D01*
X175453513Y-81571111D01*
X175482185Y-81280000D01*
X175453513Y-80988889D01*
X175368599Y-80708966D01*
X175230706Y-80450986D01*
X175045134Y-80224866D01*
X175015313Y-80200393D01*
X175084180Y-80179502D01*
X175194494Y-80120537D01*
X175291185Y-80041185D01*
X175370537Y-79944494D01*
X175429502Y-79834180D01*
X175465812Y-79714482D01*
X175478072Y-79590000D01*
X175478072Y-77890000D01*
X175465812Y-77765518D01*
X175429502Y-77645820D01*
X175370537Y-77535506D01*
X175291185Y-77438815D01*
X175194494Y-77359463D01*
X175084180Y-77300498D01*
X174964482Y-77264188D01*
X174840000Y-77251928D01*
X173140000Y-77251928D01*
X173015518Y-77264188D01*
X172895820Y-77300498D01*
X172785506Y-77359463D01*
X172688815Y-77438815D01*
X172609463Y-77535506D01*
X172550498Y-77645820D01*
X172514188Y-77765518D01*
X172501928Y-77890000D01*
X172501928Y-77980000D01*
X171797322Y-77980000D01*
X171759999Y-77976324D01*
X171722676Y-77980000D01*
X171722667Y-77980000D01*
X171611014Y-77990997D01*
X171467753Y-78034454D01*
X171335723Y-78105026D01*
X171252083Y-78173668D01*
X171219999Y-78199999D01*
X171196201Y-78228997D01*
X170205208Y-79219991D01*
X168016572Y-79219991D01*
X167979249Y-79216315D01*
X167941926Y-79219991D01*
X167941916Y-79219991D01*
X167830263Y-79230988D01*
X167687002Y-79274445D01*
X167554973Y-79345017D01*
X167439248Y-79439990D01*
X167415450Y-79468988D01*
X166729438Y-80155001D01*
X166168073Y-80155001D01*
X166168073Y-80040001D01*
X166158224Y-79940001D01*
X166168073Y-79840001D01*
X166168073Y-79390001D01*
X166155813Y-79265519D01*
X166119503Y-79145821D01*
X166060538Y-79035507D01*
X165981186Y-78938816D01*
X165884495Y-78859464D01*
X165774181Y-78800499D01*
X165654483Y-78764189D01*
X165565001Y-78755376D01*
X165565001Y-78079800D01*
X168496730Y-75148072D01*
X169760000Y-75148072D01*
X169884482Y-75135812D01*
X170004180Y-75099502D01*
X170114494Y-75040537D01*
X170211185Y-74961185D01*
X170290537Y-74864494D01*
X170349502Y-74754180D01*
X170385812Y-74634482D01*
X170398072Y-74510000D01*
X170398072Y-72810000D01*
X170385812Y-72685518D01*
X170349502Y-72565820D01*
X170290537Y-72455506D01*
X170211185Y-72358815D01*
X170114494Y-72279463D01*
X170004180Y-72220498D01*
X169884482Y-72184188D01*
X169760000Y-72171928D01*
X168060000Y-72171928D01*
X167935518Y-72184188D01*
X167815820Y-72220498D01*
X167705506Y-72279463D01*
X167608815Y-72358815D01*
X167529463Y-72455506D01*
X167470498Y-72565820D01*
X167449607Y-72634687D01*
X167425134Y-72604866D01*
X167199014Y-72419294D01*
X166941034Y-72281401D01*
X166661111Y-72196487D01*
X166442950Y-72175000D01*
X166297050Y-72175000D01*
X166078889Y-72196487D01*
X165798966Y-72281401D01*
X165540986Y-72419294D01*
X165314866Y-72604866D01*
X165129294Y-72830986D01*
X165100000Y-72885791D01*
X165070706Y-72830986D01*
X164885134Y-72604866D01*
X164659014Y-72419294D01*
X164401034Y-72281401D01*
X164121111Y-72196487D01*
X163902950Y-72175000D01*
X163757050Y-72175000D01*
X163538889Y-72196487D01*
X163258966Y-72281401D01*
X163000986Y-72419294D01*
X162774866Y-72604866D01*
X162589294Y-72830986D01*
X162554799Y-72895523D01*
X162485178Y-72778645D01*
X162290269Y-72562412D01*
X162056920Y-72388359D01*
X161794099Y-72263175D01*
X161646890Y-72218524D01*
X161467999Y-72312931D01*
X161431544Y-72192753D01*
X161360972Y-72060724D01*
X161265999Y-71944999D01*
X161150274Y-71850026D01*
X161018245Y-71779454D01*
X160874984Y-71735997D01*
X160725998Y-71721323D01*
X160577012Y-71735997D01*
X160433752Y-71779454D01*
X160301722Y-71850026D01*
X160214995Y-71921200D01*
X159654749Y-72481448D01*
X159579014Y-72419294D01*
X159321034Y-72281401D01*
X159041111Y-72196487D01*
X158822950Y-72175000D01*
X158677050Y-72175000D01*
X158458889Y-72196487D01*
X158178966Y-72281401D01*
X157920986Y-72419294D01*
X157694866Y-72604866D01*
X157509294Y-72830986D01*
X157371401Y-73088966D01*
X157286487Y-73368889D01*
X157257815Y-73660000D01*
X157286487Y-73951111D01*
X157371401Y-74231034D01*
X157509294Y-74489014D01*
X157694866Y-74715134D01*
X157920986Y-74900706D01*
X158178966Y-75038599D01*
X158458889Y-75123513D01*
X158677050Y-75145000D01*
X158822950Y-75145000D01*
X159041111Y-75123513D01*
X159321034Y-75038599D01*
X159354999Y-75020444D01*
X159354999Y-75077676D01*
X159351323Y-75114999D01*
X159354999Y-75152321D01*
X159354999Y-75152331D01*
X159365996Y-75263984D01*
X159392396Y-75351014D01*
X159409453Y-75407245D01*
X159480025Y-75539275D01*
X159504793Y-75569454D01*
X159574998Y-75655000D01*
X159604002Y-75678803D01*
X159988998Y-76063799D01*
X160075725Y-76134974D01*
X160207753Y-76205546D01*
X160209210Y-76205988D01*
X159425199Y-76990000D01*
X158189015Y-76990000D01*
X158151692Y-76986324D01*
X158114369Y-76990000D01*
X158114359Y-76990000D01*
X158002706Y-77000997D01*
X157878493Y-77038676D01*
X157859445Y-77044454D01*
X157727415Y-77115026D01*
X157643775Y-77183668D01*
X157611691Y-77209999D01*
X157587893Y-77238997D01*
X155001344Y-79825547D01*
X154972346Y-79849345D01*
X154948548Y-79878343D01*
X154948547Y-79878344D01*
X154877372Y-79965070D01*
X154807948Y-80094953D01*
X154805000Y-79025750D01*
X154646250Y-78867000D01*
X153797000Y-78867000D01*
X153797000Y-78887000D01*
X153543000Y-78887000D01*
X153543000Y-78867000D01*
X152693750Y-78867000D01*
X152535000Y-79025750D01*
X152534878Y-79070077D01*
X151693804Y-78229003D01*
X151670001Y-78199999D01*
X151554276Y-78105026D01*
X151422247Y-78034454D01*
X151278986Y-77990997D01*
X151167333Y-77980000D01*
X151167322Y-77980000D01*
X151130000Y-77976324D01*
X151092678Y-77980000D01*
X150808072Y-77980000D01*
X150808072Y-77340000D01*
X152531928Y-77340000D01*
X152535000Y-78454250D01*
X152693750Y-78613000D01*
X153543000Y-78613000D01*
X153543000Y-76863750D01*
X153797000Y-76863750D01*
X153797000Y-78613000D01*
X154646250Y-78613000D01*
X154805000Y-78454250D01*
X154808072Y-77340000D01*
X154795812Y-77215518D01*
X154759502Y-77095820D01*
X154700537Y-76985506D01*
X154621185Y-76888815D01*
X154524494Y-76809463D01*
X154414180Y-76750498D01*
X154294482Y-76714188D01*
X154170000Y-76701928D01*
X153955750Y-76705000D01*
X153797000Y-76863750D01*
X153543000Y-76863750D01*
X153384250Y-76705000D01*
X153170000Y-76701928D01*
X153045518Y-76714188D01*
X152925820Y-76750498D01*
X152815506Y-76809463D01*
X152718815Y-76888815D01*
X152639463Y-76985506D01*
X152580498Y-77095820D01*
X152544188Y-77215518D01*
X152531928Y-77340000D01*
X150808072Y-77340000D01*
X150795812Y-77215518D01*
X150759502Y-77095820D01*
X150700537Y-76985506D01*
X150621185Y-76888815D01*
X150524494Y-76809463D01*
X150430000Y-76758954D01*
X150430000Y-74921046D01*
X150524494Y-74870537D01*
X150621185Y-74791185D01*
X150700537Y-74694494D01*
X150759502Y-74584180D01*
X150795812Y-74464482D01*
X150808072Y-74340000D01*
X152531928Y-74340000D01*
X152544188Y-74464482D01*
X152580498Y-74584180D01*
X152639463Y-74694494D01*
X152718815Y-74791185D01*
X152815506Y-74870537D01*
X152925820Y-74929502D01*
X153045518Y-74965812D01*
X153170000Y-74978072D01*
X153384250Y-74975000D01*
X153543000Y-74816250D01*
X153543000Y-73067000D01*
X153797000Y-73067000D01*
X153797000Y-74816250D01*
X153955750Y-74975000D01*
X154170000Y-74978072D01*
X154294482Y-74965812D01*
X154414180Y-74929502D01*
X154524494Y-74870537D01*
X154621185Y-74791185D01*
X154700537Y-74694494D01*
X154759502Y-74584180D01*
X154795812Y-74464482D01*
X154808072Y-74340000D01*
X154805000Y-73225750D01*
X154646250Y-73067000D01*
X153797000Y-73067000D01*
X153543000Y-73067000D01*
X152693750Y-73067000D01*
X152535000Y-73225750D01*
X152531928Y-74340000D01*
X150808072Y-74340000D01*
X150808072Y-71660000D01*
X152532259Y-71660000D01*
X152535000Y-72654250D01*
X152693750Y-72813000D01*
X153543000Y-72813000D01*
X153543000Y-72793000D01*
X153797000Y-72793000D01*
X153797000Y-72813000D01*
X154646250Y-72813000D01*
X154805000Y-72654250D01*
X154807741Y-71660000D01*
X177967721Y-71660000D01*
X178065424Y-71669580D01*
X178128356Y-71688580D01*
X178186405Y-71719445D01*
X178237343Y-71760989D01*
X178279248Y-71811644D01*
X178310515Y-71869471D01*
X178329956Y-71932272D01*
X178340001Y-72027845D01*
X178340000Y-90717721D01*
X178330420Y-90815424D01*
X178311420Y-90878357D01*
X178280554Y-90936406D01*
X178239011Y-90987343D01*
X178188356Y-91029248D01*
X178130529Y-91060515D01*
X178067728Y-91079956D01*
X177972165Y-91090000D01*
X147532279Y-91090000D01*
X147434576Y-91080420D01*
X147371643Y-91061420D01*
X147313594Y-91030554D01*
X147262657Y-90989011D01*
X147220752Y-90938356D01*
X147189485Y-90880529D01*
X147170044Y-90817728D01*
X147160000Y-90722165D01*
X147160000Y-83250000D01*
X151939428Y-83250000D01*
X151951688Y-83374482D01*
X151987998Y-83494180D01*
X152046963Y-83604494D01*
X152126315Y-83701185D01*
X152223006Y-83780537D01*
X152333320Y-83839502D01*
X152453018Y-83875812D01*
X152577500Y-83888072D01*
X152779250Y-83885000D01*
X152938000Y-83726250D01*
X152938000Y-82677000D01*
X152101250Y-82677000D01*
X151942500Y-82835750D01*
X151939428Y-83250000D01*
X147160000Y-83250000D01*
X147160000Y-72032279D01*
X147169580Y-71934576D01*
X147188580Y-71871644D01*
X147219445Y-71813595D01*
X147260989Y-71762657D01*
X147311644Y-71720752D01*
X147369471Y-71689485D01*
X147432272Y-71670044D01*
X147527835Y-71660000D01*
X148531928Y-71660000D01*
X148531928Y-74340000D01*
G36*
X161205988Y-75209210D02*
G01*
X161205546Y-75207753D01*
X161172003Y-75145000D01*
X161270198Y-75145000D01*
X161205988Y-75209210D01*
X161205988Y-75209210D01*
G37*
X161205988Y-75209210D02*
X161205546Y-75207753D01*
X161172003Y-75145000D01*
X161270198Y-75145000D01*
X161205988Y-75209210D01*
G36*
X161162998Y-75128153D02*
G01*
X161134974Y-75075725D01*
X161088715Y-75019358D01*
X161162998Y-74980156D01*
X161162998Y-75128153D01*
X161162998Y-75128153D01*
G37*
X161162998Y-75128153D02*
X161134974Y-75075725D01*
X161088715Y-75019358D01*
X161162998Y-74980156D01*
X161162998Y-75128153D01*
G36*
X161428810Y-74986388D02*
G01*
X161417002Y-74998196D01*
X161417002Y-74980156D01*
X161428810Y-74986388D01*
X161428810Y-74986388D01*
G37*
X161428810Y-74986388D02*
X161417002Y-74998196D01*
X161417002Y-74980156D01*
X161428810Y-74986388D01*
G36*
X161417000Y-73533000D02*
G01*
X161437000Y-73533000D01*
X161437000Y-73787000D01*
X161417000Y-73787000D01*
X161417000Y-73807000D01*
X161163000Y-73807000D01*
X161163000Y-73787000D01*
X161143000Y-73787000D01*
X161143000Y-73533000D01*
X161163000Y-73533000D01*
X161163000Y-73513000D01*
X161417000Y-73513000D01*
X161417000Y-73533000D01*
X161417000Y-73533000D01*
G37*
X161417000Y-73533000D02*
X161437000Y-73533000D01*
X161437000Y-73787000D01*
X161417000Y-73787000D01*
X161417000Y-73807000D01*
X161163000Y-73807000D01*
X161163000Y-73787000D01*
X161143000Y-73787000D01*
X161143000Y-73533000D01*
X161163000Y-73533000D01*
X161163000Y-73513000D01*
X161417000Y-73513000D01*
X161417000Y-73533000D01*
M02*
