G04 #@! TF.GenerationSoftware,KiCad,Pcbnew,5.1.2*
G04 #@! TF.CreationDate,2019-05-22T13:27:26-05:00*
G04 #@! TF.ProjectId,SM16106,534d3136-3130-4362-9e6b-696361645f70,rev?*
G04 #@! TF.SameCoordinates,Original*
G04 #@! TF.FileFunction,Soldermask,Bot*
G04 #@! TF.FilePolarity,Negative*
%FSLAX46Y46*%
G04 Gerber Fmt 4.6, Leading zero omitted, Abs format (unit mm)*
G04 Created by KiCad (PCBNEW 5.1.2) date 2019-05-22 13:27:26*
%MOMM*%
%LPD*%
G04 APERTURE LIST*
%ADD10C,0.100000*%
G04 APERTURE END LIST*
D10*
G36*
X147991000Y-66501000D02*
G01*
X146189000Y-66501000D01*
X146189000Y-64699000D01*
X147991000Y-64699000D01*
X147991000Y-66501000D01*
X147991000Y-66501000D01*
G37*
G36*
X196970442Y-64705518D02*
G01*
X197036627Y-64712037D01*
X197206466Y-64763557D01*
X197362991Y-64847222D01*
X197398729Y-64876552D01*
X197500186Y-64959814D01*
X197583448Y-65061271D01*
X197612778Y-65097009D01*
X197696443Y-65253534D01*
X197747963Y-65423373D01*
X197765359Y-65600000D01*
X197747963Y-65776627D01*
X197696443Y-65946466D01*
X197612778Y-66102991D01*
X197583448Y-66138729D01*
X197500186Y-66240186D01*
X197398729Y-66323448D01*
X197362991Y-66352778D01*
X197206466Y-66436443D01*
X197036627Y-66487963D01*
X196970442Y-66494482D01*
X196904260Y-66501000D01*
X196815740Y-66501000D01*
X196749558Y-66494482D01*
X196683373Y-66487963D01*
X196513534Y-66436443D01*
X196357009Y-66352778D01*
X196321271Y-66323448D01*
X196219814Y-66240186D01*
X196136552Y-66138729D01*
X196107222Y-66102991D01*
X196023557Y-65946466D01*
X195972037Y-65776627D01*
X195954641Y-65600000D01*
X195972037Y-65423373D01*
X196023557Y-65253534D01*
X196107222Y-65097009D01*
X196136552Y-65061271D01*
X196219814Y-64959814D01*
X196321271Y-64876552D01*
X196357009Y-64847222D01*
X196513534Y-64763557D01*
X196683373Y-64712037D01*
X196749558Y-64705518D01*
X196815740Y-64699000D01*
X196904260Y-64699000D01*
X196970442Y-64705518D01*
X196970442Y-64705518D01*
G37*
G36*
X194430442Y-64705518D02*
G01*
X194496627Y-64712037D01*
X194666466Y-64763557D01*
X194822991Y-64847222D01*
X194858729Y-64876552D01*
X194960186Y-64959814D01*
X195043448Y-65061271D01*
X195072778Y-65097009D01*
X195156443Y-65253534D01*
X195207963Y-65423373D01*
X195225359Y-65600000D01*
X195207963Y-65776627D01*
X195156443Y-65946466D01*
X195072778Y-66102991D01*
X195043448Y-66138729D01*
X194960186Y-66240186D01*
X194858729Y-66323448D01*
X194822991Y-66352778D01*
X194666466Y-66436443D01*
X194496627Y-66487963D01*
X194430442Y-66494482D01*
X194364260Y-66501000D01*
X194275740Y-66501000D01*
X194209558Y-66494482D01*
X194143373Y-66487963D01*
X193973534Y-66436443D01*
X193817009Y-66352778D01*
X193781271Y-66323448D01*
X193679814Y-66240186D01*
X193596552Y-66138729D01*
X193567222Y-66102991D01*
X193483557Y-65946466D01*
X193432037Y-65776627D01*
X193414641Y-65600000D01*
X193432037Y-65423373D01*
X193483557Y-65253534D01*
X193567222Y-65097009D01*
X193596552Y-65061271D01*
X193679814Y-64959814D01*
X193781271Y-64876552D01*
X193817009Y-64847222D01*
X193973534Y-64763557D01*
X194143373Y-64712037D01*
X194209558Y-64705518D01*
X194275740Y-64699000D01*
X194364260Y-64699000D01*
X194430442Y-64705518D01*
X194430442Y-64705518D01*
G37*
G36*
X191890442Y-64705518D02*
G01*
X191956627Y-64712037D01*
X192126466Y-64763557D01*
X192282991Y-64847222D01*
X192318729Y-64876552D01*
X192420186Y-64959814D01*
X192503448Y-65061271D01*
X192532778Y-65097009D01*
X192616443Y-65253534D01*
X192667963Y-65423373D01*
X192685359Y-65600000D01*
X192667963Y-65776627D01*
X192616443Y-65946466D01*
X192532778Y-66102991D01*
X192503448Y-66138729D01*
X192420186Y-66240186D01*
X192318729Y-66323448D01*
X192282991Y-66352778D01*
X192126466Y-66436443D01*
X191956627Y-66487963D01*
X191890442Y-66494482D01*
X191824260Y-66501000D01*
X191735740Y-66501000D01*
X191669558Y-66494482D01*
X191603373Y-66487963D01*
X191433534Y-66436443D01*
X191277009Y-66352778D01*
X191241271Y-66323448D01*
X191139814Y-66240186D01*
X191056552Y-66138729D01*
X191027222Y-66102991D01*
X190943557Y-65946466D01*
X190892037Y-65776627D01*
X190874641Y-65600000D01*
X190892037Y-65423373D01*
X190943557Y-65253534D01*
X191027222Y-65097009D01*
X191056552Y-65061271D01*
X191139814Y-64959814D01*
X191241271Y-64876552D01*
X191277009Y-64847222D01*
X191433534Y-64763557D01*
X191603373Y-64712037D01*
X191669558Y-64705518D01*
X191735740Y-64699000D01*
X191824260Y-64699000D01*
X191890442Y-64705518D01*
X191890442Y-64705518D01*
G37*
G36*
X189350442Y-64705518D02*
G01*
X189416627Y-64712037D01*
X189586466Y-64763557D01*
X189742991Y-64847222D01*
X189778729Y-64876552D01*
X189880186Y-64959814D01*
X189963448Y-65061271D01*
X189992778Y-65097009D01*
X190076443Y-65253534D01*
X190127963Y-65423373D01*
X190145359Y-65600000D01*
X190127963Y-65776627D01*
X190076443Y-65946466D01*
X189992778Y-66102991D01*
X189963448Y-66138729D01*
X189880186Y-66240186D01*
X189778729Y-66323448D01*
X189742991Y-66352778D01*
X189586466Y-66436443D01*
X189416627Y-66487963D01*
X189350442Y-66494482D01*
X189284260Y-66501000D01*
X189195740Y-66501000D01*
X189129558Y-66494482D01*
X189063373Y-66487963D01*
X188893534Y-66436443D01*
X188737009Y-66352778D01*
X188701271Y-66323448D01*
X188599814Y-66240186D01*
X188516552Y-66138729D01*
X188487222Y-66102991D01*
X188403557Y-65946466D01*
X188352037Y-65776627D01*
X188334641Y-65600000D01*
X188352037Y-65423373D01*
X188403557Y-65253534D01*
X188487222Y-65097009D01*
X188516552Y-65061271D01*
X188599814Y-64959814D01*
X188701271Y-64876552D01*
X188737009Y-64847222D01*
X188893534Y-64763557D01*
X189063373Y-64712037D01*
X189129558Y-64705518D01*
X189195740Y-64699000D01*
X189284260Y-64699000D01*
X189350442Y-64705518D01*
X189350442Y-64705518D01*
G37*
G36*
X186810442Y-64705518D02*
G01*
X186876627Y-64712037D01*
X187046466Y-64763557D01*
X187202991Y-64847222D01*
X187238729Y-64876552D01*
X187340186Y-64959814D01*
X187423448Y-65061271D01*
X187452778Y-65097009D01*
X187536443Y-65253534D01*
X187587963Y-65423373D01*
X187605359Y-65600000D01*
X187587963Y-65776627D01*
X187536443Y-65946466D01*
X187452778Y-66102991D01*
X187423448Y-66138729D01*
X187340186Y-66240186D01*
X187238729Y-66323448D01*
X187202991Y-66352778D01*
X187046466Y-66436443D01*
X186876627Y-66487963D01*
X186810442Y-66494482D01*
X186744260Y-66501000D01*
X186655740Y-66501000D01*
X186589558Y-66494482D01*
X186523373Y-66487963D01*
X186353534Y-66436443D01*
X186197009Y-66352778D01*
X186161271Y-66323448D01*
X186059814Y-66240186D01*
X185976552Y-66138729D01*
X185947222Y-66102991D01*
X185863557Y-65946466D01*
X185812037Y-65776627D01*
X185794641Y-65600000D01*
X185812037Y-65423373D01*
X185863557Y-65253534D01*
X185947222Y-65097009D01*
X185976552Y-65061271D01*
X186059814Y-64959814D01*
X186161271Y-64876552D01*
X186197009Y-64847222D01*
X186353534Y-64763557D01*
X186523373Y-64712037D01*
X186589558Y-64705518D01*
X186655740Y-64699000D01*
X186744260Y-64699000D01*
X186810442Y-64705518D01*
X186810442Y-64705518D01*
G37*
G36*
X184270442Y-64705518D02*
G01*
X184336627Y-64712037D01*
X184506466Y-64763557D01*
X184662991Y-64847222D01*
X184698729Y-64876552D01*
X184800186Y-64959814D01*
X184883448Y-65061271D01*
X184912778Y-65097009D01*
X184996443Y-65253534D01*
X185047963Y-65423373D01*
X185065359Y-65600000D01*
X185047963Y-65776627D01*
X184996443Y-65946466D01*
X184912778Y-66102991D01*
X184883448Y-66138729D01*
X184800186Y-66240186D01*
X184698729Y-66323448D01*
X184662991Y-66352778D01*
X184506466Y-66436443D01*
X184336627Y-66487963D01*
X184270442Y-66494482D01*
X184204260Y-66501000D01*
X184115740Y-66501000D01*
X184049558Y-66494482D01*
X183983373Y-66487963D01*
X183813534Y-66436443D01*
X183657009Y-66352778D01*
X183621271Y-66323448D01*
X183519814Y-66240186D01*
X183436552Y-66138729D01*
X183407222Y-66102991D01*
X183323557Y-65946466D01*
X183272037Y-65776627D01*
X183254641Y-65600000D01*
X183272037Y-65423373D01*
X183323557Y-65253534D01*
X183407222Y-65097009D01*
X183436552Y-65061271D01*
X183519814Y-64959814D01*
X183621271Y-64876552D01*
X183657009Y-64847222D01*
X183813534Y-64763557D01*
X183983373Y-64712037D01*
X184049558Y-64705518D01*
X184115740Y-64699000D01*
X184204260Y-64699000D01*
X184270442Y-64705518D01*
X184270442Y-64705518D01*
G37*
G36*
X181730442Y-64705518D02*
G01*
X181796627Y-64712037D01*
X181966466Y-64763557D01*
X182122991Y-64847222D01*
X182158729Y-64876552D01*
X182260186Y-64959814D01*
X182343448Y-65061271D01*
X182372778Y-65097009D01*
X182456443Y-65253534D01*
X182507963Y-65423373D01*
X182525359Y-65600000D01*
X182507963Y-65776627D01*
X182456443Y-65946466D01*
X182372778Y-66102991D01*
X182343448Y-66138729D01*
X182260186Y-66240186D01*
X182158729Y-66323448D01*
X182122991Y-66352778D01*
X181966466Y-66436443D01*
X181796627Y-66487963D01*
X181730442Y-66494482D01*
X181664260Y-66501000D01*
X181575740Y-66501000D01*
X181509558Y-66494482D01*
X181443373Y-66487963D01*
X181273534Y-66436443D01*
X181117009Y-66352778D01*
X181081271Y-66323448D01*
X180979814Y-66240186D01*
X180896552Y-66138729D01*
X180867222Y-66102991D01*
X180783557Y-65946466D01*
X180732037Y-65776627D01*
X180714641Y-65600000D01*
X180732037Y-65423373D01*
X180783557Y-65253534D01*
X180867222Y-65097009D01*
X180896552Y-65061271D01*
X180979814Y-64959814D01*
X181081271Y-64876552D01*
X181117009Y-64847222D01*
X181273534Y-64763557D01*
X181443373Y-64712037D01*
X181509558Y-64705518D01*
X181575740Y-64699000D01*
X181664260Y-64699000D01*
X181730442Y-64705518D01*
X181730442Y-64705518D01*
G37*
G36*
X179190442Y-64705518D02*
G01*
X179256627Y-64712037D01*
X179426466Y-64763557D01*
X179582991Y-64847222D01*
X179618729Y-64876552D01*
X179720186Y-64959814D01*
X179803448Y-65061271D01*
X179832778Y-65097009D01*
X179916443Y-65253534D01*
X179967963Y-65423373D01*
X179985359Y-65600000D01*
X179967963Y-65776627D01*
X179916443Y-65946466D01*
X179832778Y-66102991D01*
X179803448Y-66138729D01*
X179720186Y-66240186D01*
X179618729Y-66323448D01*
X179582991Y-66352778D01*
X179426466Y-66436443D01*
X179256627Y-66487963D01*
X179190442Y-66494482D01*
X179124260Y-66501000D01*
X179035740Y-66501000D01*
X178969558Y-66494482D01*
X178903373Y-66487963D01*
X178733534Y-66436443D01*
X178577009Y-66352778D01*
X178541271Y-66323448D01*
X178439814Y-66240186D01*
X178356552Y-66138729D01*
X178327222Y-66102991D01*
X178243557Y-65946466D01*
X178192037Y-65776627D01*
X178174641Y-65600000D01*
X178192037Y-65423373D01*
X178243557Y-65253534D01*
X178327222Y-65097009D01*
X178356552Y-65061271D01*
X178439814Y-64959814D01*
X178541271Y-64876552D01*
X178577009Y-64847222D01*
X178733534Y-64763557D01*
X178903373Y-64712037D01*
X178969558Y-64705518D01*
X179035740Y-64699000D01*
X179124260Y-64699000D01*
X179190442Y-64705518D01*
X179190442Y-64705518D01*
G37*
G36*
X176650442Y-64705518D02*
G01*
X176716627Y-64712037D01*
X176886466Y-64763557D01*
X177042991Y-64847222D01*
X177078729Y-64876552D01*
X177180186Y-64959814D01*
X177263448Y-65061271D01*
X177292778Y-65097009D01*
X177376443Y-65253534D01*
X177427963Y-65423373D01*
X177445359Y-65600000D01*
X177427963Y-65776627D01*
X177376443Y-65946466D01*
X177292778Y-66102991D01*
X177263448Y-66138729D01*
X177180186Y-66240186D01*
X177078729Y-66323448D01*
X177042991Y-66352778D01*
X176886466Y-66436443D01*
X176716627Y-66487963D01*
X176650442Y-66494482D01*
X176584260Y-66501000D01*
X176495740Y-66501000D01*
X176429558Y-66494482D01*
X176363373Y-66487963D01*
X176193534Y-66436443D01*
X176037009Y-66352778D01*
X176001271Y-66323448D01*
X175899814Y-66240186D01*
X175816552Y-66138729D01*
X175787222Y-66102991D01*
X175703557Y-65946466D01*
X175652037Y-65776627D01*
X175634641Y-65600000D01*
X175652037Y-65423373D01*
X175703557Y-65253534D01*
X175787222Y-65097009D01*
X175816552Y-65061271D01*
X175899814Y-64959814D01*
X176001271Y-64876552D01*
X176037009Y-64847222D01*
X176193534Y-64763557D01*
X176363373Y-64712037D01*
X176429558Y-64705518D01*
X176495740Y-64699000D01*
X176584260Y-64699000D01*
X176650442Y-64705518D01*
X176650442Y-64705518D01*
G37*
G36*
X174110442Y-64705518D02*
G01*
X174176627Y-64712037D01*
X174346466Y-64763557D01*
X174502991Y-64847222D01*
X174538729Y-64876552D01*
X174640186Y-64959814D01*
X174723448Y-65061271D01*
X174752778Y-65097009D01*
X174836443Y-65253534D01*
X174887963Y-65423373D01*
X174905359Y-65600000D01*
X174887963Y-65776627D01*
X174836443Y-65946466D01*
X174752778Y-66102991D01*
X174723448Y-66138729D01*
X174640186Y-66240186D01*
X174538729Y-66323448D01*
X174502991Y-66352778D01*
X174346466Y-66436443D01*
X174176627Y-66487963D01*
X174110442Y-66494482D01*
X174044260Y-66501000D01*
X173955740Y-66501000D01*
X173889558Y-66494482D01*
X173823373Y-66487963D01*
X173653534Y-66436443D01*
X173497009Y-66352778D01*
X173461271Y-66323448D01*
X173359814Y-66240186D01*
X173276552Y-66138729D01*
X173247222Y-66102991D01*
X173163557Y-65946466D01*
X173112037Y-65776627D01*
X173094641Y-65600000D01*
X173112037Y-65423373D01*
X173163557Y-65253534D01*
X173247222Y-65097009D01*
X173276552Y-65061271D01*
X173359814Y-64959814D01*
X173461271Y-64876552D01*
X173497009Y-64847222D01*
X173653534Y-64763557D01*
X173823373Y-64712037D01*
X173889558Y-64705518D01*
X173955740Y-64699000D01*
X174044260Y-64699000D01*
X174110442Y-64705518D01*
X174110442Y-64705518D01*
G37*
G36*
X171570442Y-64705518D02*
G01*
X171636627Y-64712037D01*
X171806466Y-64763557D01*
X171962991Y-64847222D01*
X171998729Y-64876552D01*
X172100186Y-64959814D01*
X172183448Y-65061271D01*
X172212778Y-65097009D01*
X172296443Y-65253534D01*
X172347963Y-65423373D01*
X172365359Y-65600000D01*
X172347963Y-65776627D01*
X172296443Y-65946466D01*
X172212778Y-66102991D01*
X172183448Y-66138729D01*
X172100186Y-66240186D01*
X171998729Y-66323448D01*
X171962991Y-66352778D01*
X171806466Y-66436443D01*
X171636627Y-66487963D01*
X171570442Y-66494482D01*
X171504260Y-66501000D01*
X171415740Y-66501000D01*
X171349558Y-66494482D01*
X171283373Y-66487963D01*
X171113534Y-66436443D01*
X170957009Y-66352778D01*
X170921271Y-66323448D01*
X170819814Y-66240186D01*
X170736552Y-66138729D01*
X170707222Y-66102991D01*
X170623557Y-65946466D01*
X170572037Y-65776627D01*
X170554641Y-65600000D01*
X170572037Y-65423373D01*
X170623557Y-65253534D01*
X170707222Y-65097009D01*
X170736552Y-65061271D01*
X170819814Y-64959814D01*
X170921271Y-64876552D01*
X170957009Y-64847222D01*
X171113534Y-64763557D01*
X171283373Y-64712037D01*
X171349558Y-64705518D01*
X171415740Y-64699000D01*
X171504260Y-64699000D01*
X171570442Y-64705518D01*
X171570442Y-64705518D01*
G37*
G36*
X169030442Y-64705518D02*
G01*
X169096627Y-64712037D01*
X169266466Y-64763557D01*
X169422991Y-64847222D01*
X169458729Y-64876552D01*
X169560186Y-64959814D01*
X169643448Y-65061271D01*
X169672778Y-65097009D01*
X169756443Y-65253534D01*
X169807963Y-65423373D01*
X169825359Y-65600000D01*
X169807963Y-65776627D01*
X169756443Y-65946466D01*
X169672778Y-66102991D01*
X169643448Y-66138729D01*
X169560186Y-66240186D01*
X169458729Y-66323448D01*
X169422991Y-66352778D01*
X169266466Y-66436443D01*
X169096627Y-66487963D01*
X169030442Y-66494482D01*
X168964260Y-66501000D01*
X168875740Y-66501000D01*
X168809558Y-66494482D01*
X168743373Y-66487963D01*
X168573534Y-66436443D01*
X168417009Y-66352778D01*
X168381271Y-66323448D01*
X168279814Y-66240186D01*
X168196552Y-66138729D01*
X168167222Y-66102991D01*
X168083557Y-65946466D01*
X168032037Y-65776627D01*
X168014641Y-65600000D01*
X168032037Y-65423373D01*
X168083557Y-65253534D01*
X168167222Y-65097009D01*
X168196552Y-65061271D01*
X168279814Y-64959814D01*
X168381271Y-64876552D01*
X168417009Y-64847222D01*
X168573534Y-64763557D01*
X168743373Y-64712037D01*
X168809558Y-64705518D01*
X168875740Y-64699000D01*
X168964260Y-64699000D01*
X169030442Y-64705518D01*
X169030442Y-64705518D01*
G37*
G36*
X166490442Y-64705518D02*
G01*
X166556627Y-64712037D01*
X166726466Y-64763557D01*
X166882991Y-64847222D01*
X166918729Y-64876552D01*
X167020186Y-64959814D01*
X167103448Y-65061271D01*
X167132778Y-65097009D01*
X167216443Y-65253534D01*
X167267963Y-65423373D01*
X167285359Y-65600000D01*
X167267963Y-65776627D01*
X167216443Y-65946466D01*
X167132778Y-66102991D01*
X167103448Y-66138729D01*
X167020186Y-66240186D01*
X166918729Y-66323448D01*
X166882991Y-66352778D01*
X166726466Y-66436443D01*
X166556627Y-66487963D01*
X166490442Y-66494482D01*
X166424260Y-66501000D01*
X166335740Y-66501000D01*
X166269558Y-66494482D01*
X166203373Y-66487963D01*
X166033534Y-66436443D01*
X165877009Y-66352778D01*
X165841271Y-66323448D01*
X165739814Y-66240186D01*
X165656552Y-66138729D01*
X165627222Y-66102991D01*
X165543557Y-65946466D01*
X165492037Y-65776627D01*
X165474641Y-65600000D01*
X165492037Y-65423373D01*
X165543557Y-65253534D01*
X165627222Y-65097009D01*
X165656552Y-65061271D01*
X165739814Y-64959814D01*
X165841271Y-64876552D01*
X165877009Y-64847222D01*
X166033534Y-64763557D01*
X166203373Y-64712037D01*
X166269558Y-64705518D01*
X166335740Y-64699000D01*
X166424260Y-64699000D01*
X166490442Y-64705518D01*
X166490442Y-64705518D01*
G37*
G36*
X163950442Y-64705518D02*
G01*
X164016627Y-64712037D01*
X164186466Y-64763557D01*
X164342991Y-64847222D01*
X164378729Y-64876552D01*
X164480186Y-64959814D01*
X164563448Y-65061271D01*
X164592778Y-65097009D01*
X164676443Y-65253534D01*
X164727963Y-65423373D01*
X164745359Y-65600000D01*
X164727963Y-65776627D01*
X164676443Y-65946466D01*
X164592778Y-66102991D01*
X164563448Y-66138729D01*
X164480186Y-66240186D01*
X164378729Y-66323448D01*
X164342991Y-66352778D01*
X164186466Y-66436443D01*
X164016627Y-66487963D01*
X163950442Y-66494482D01*
X163884260Y-66501000D01*
X163795740Y-66501000D01*
X163729558Y-66494482D01*
X163663373Y-66487963D01*
X163493534Y-66436443D01*
X163337009Y-66352778D01*
X163301271Y-66323448D01*
X163199814Y-66240186D01*
X163116552Y-66138729D01*
X163087222Y-66102991D01*
X163003557Y-65946466D01*
X162952037Y-65776627D01*
X162934641Y-65600000D01*
X162952037Y-65423373D01*
X163003557Y-65253534D01*
X163087222Y-65097009D01*
X163116552Y-65061271D01*
X163199814Y-64959814D01*
X163301271Y-64876552D01*
X163337009Y-64847222D01*
X163493534Y-64763557D01*
X163663373Y-64712037D01*
X163729558Y-64705518D01*
X163795740Y-64699000D01*
X163884260Y-64699000D01*
X163950442Y-64705518D01*
X163950442Y-64705518D01*
G37*
G36*
X161410442Y-64705518D02*
G01*
X161476627Y-64712037D01*
X161646466Y-64763557D01*
X161802991Y-64847222D01*
X161838729Y-64876552D01*
X161940186Y-64959814D01*
X162023448Y-65061271D01*
X162052778Y-65097009D01*
X162136443Y-65253534D01*
X162187963Y-65423373D01*
X162205359Y-65600000D01*
X162187963Y-65776627D01*
X162136443Y-65946466D01*
X162052778Y-66102991D01*
X162023448Y-66138729D01*
X161940186Y-66240186D01*
X161838729Y-66323448D01*
X161802991Y-66352778D01*
X161646466Y-66436443D01*
X161476627Y-66487963D01*
X161410442Y-66494482D01*
X161344260Y-66501000D01*
X161255740Y-66501000D01*
X161189558Y-66494482D01*
X161123373Y-66487963D01*
X160953534Y-66436443D01*
X160797009Y-66352778D01*
X160761271Y-66323448D01*
X160659814Y-66240186D01*
X160576552Y-66138729D01*
X160547222Y-66102991D01*
X160463557Y-65946466D01*
X160412037Y-65776627D01*
X160394641Y-65600000D01*
X160412037Y-65423373D01*
X160463557Y-65253534D01*
X160547222Y-65097009D01*
X160576552Y-65061271D01*
X160659814Y-64959814D01*
X160761271Y-64876552D01*
X160797009Y-64847222D01*
X160953534Y-64763557D01*
X161123373Y-64712037D01*
X161189558Y-64705518D01*
X161255740Y-64699000D01*
X161344260Y-64699000D01*
X161410442Y-64705518D01*
X161410442Y-64705518D01*
G37*
G36*
X158870442Y-64705518D02*
G01*
X158936627Y-64712037D01*
X159106466Y-64763557D01*
X159262991Y-64847222D01*
X159298729Y-64876552D01*
X159400186Y-64959814D01*
X159483448Y-65061271D01*
X159512778Y-65097009D01*
X159596443Y-65253534D01*
X159647963Y-65423373D01*
X159665359Y-65600000D01*
X159647963Y-65776627D01*
X159596443Y-65946466D01*
X159512778Y-66102991D01*
X159483448Y-66138729D01*
X159400186Y-66240186D01*
X159298729Y-66323448D01*
X159262991Y-66352778D01*
X159106466Y-66436443D01*
X158936627Y-66487963D01*
X158870442Y-66494482D01*
X158804260Y-66501000D01*
X158715740Y-66501000D01*
X158649558Y-66494482D01*
X158583373Y-66487963D01*
X158413534Y-66436443D01*
X158257009Y-66352778D01*
X158221271Y-66323448D01*
X158119814Y-66240186D01*
X158036552Y-66138729D01*
X158007222Y-66102991D01*
X157923557Y-65946466D01*
X157872037Y-65776627D01*
X157854641Y-65600000D01*
X157872037Y-65423373D01*
X157923557Y-65253534D01*
X158007222Y-65097009D01*
X158036552Y-65061271D01*
X158119814Y-64959814D01*
X158221271Y-64876552D01*
X158257009Y-64847222D01*
X158413534Y-64763557D01*
X158583373Y-64712037D01*
X158649558Y-64705518D01*
X158715740Y-64699000D01*
X158804260Y-64699000D01*
X158870442Y-64705518D01*
X158870442Y-64705518D01*
G37*
G36*
X156330442Y-64705518D02*
G01*
X156396627Y-64712037D01*
X156566466Y-64763557D01*
X156722991Y-64847222D01*
X156758729Y-64876552D01*
X156860186Y-64959814D01*
X156943448Y-65061271D01*
X156972778Y-65097009D01*
X157056443Y-65253534D01*
X157107963Y-65423373D01*
X157125359Y-65600000D01*
X157107963Y-65776627D01*
X157056443Y-65946466D01*
X156972778Y-66102991D01*
X156943448Y-66138729D01*
X156860186Y-66240186D01*
X156758729Y-66323448D01*
X156722991Y-66352778D01*
X156566466Y-66436443D01*
X156396627Y-66487963D01*
X156330442Y-66494482D01*
X156264260Y-66501000D01*
X156175740Y-66501000D01*
X156109558Y-66494482D01*
X156043373Y-66487963D01*
X155873534Y-66436443D01*
X155717009Y-66352778D01*
X155681271Y-66323448D01*
X155579814Y-66240186D01*
X155496552Y-66138729D01*
X155467222Y-66102991D01*
X155383557Y-65946466D01*
X155332037Y-65776627D01*
X155314641Y-65600000D01*
X155332037Y-65423373D01*
X155383557Y-65253534D01*
X155467222Y-65097009D01*
X155496552Y-65061271D01*
X155579814Y-64959814D01*
X155681271Y-64876552D01*
X155717009Y-64847222D01*
X155873534Y-64763557D01*
X156043373Y-64712037D01*
X156109558Y-64705518D01*
X156175740Y-64699000D01*
X156264260Y-64699000D01*
X156330442Y-64705518D01*
X156330442Y-64705518D01*
G37*
G36*
X154581000Y-66501000D02*
G01*
X152779000Y-66501000D01*
X152779000Y-64699000D01*
X154581000Y-64699000D01*
X154581000Y-66501000D01*
X154581000Y-66501000D01*
G37*
G36*
X119260442Y-64705518D02*
G01*
X119326627Y-64712037D01*
X119496466Y-64763557D01*
X119652991Y-64847222D01*
X119688729Y-64876552D01*
X119790186Y-64959814D01*
X119873448Y-65061271D01*
X119902778Y-65097009D01*
X119986443Y-65253534D01*
X120037963Y-65423373D01*
X120055359Y-65600000D01*
X120037963Y-65776627D01*
X119986443Y-65946466D01*
X119902778Y-66102991D01*
X119873448Y-66138729D01*
X119790186Y-66240186D01*
X119688729Y-66323448D01*
X119652991Y-66352778D01*
X119496466Y-66436443D01*
X119326627Y-66487963D01*
X119260442Y-66494482D01*
X119194260Y-66501000D01*
X119105740Y-66501000D01*
X119039558Y-66494482D01*
X118973373Y-66487963D01*
X118803534Y-66436443D01*
X118647009Y-66352778D01*
X118611271Y-66323448D01*
X118509814Y-66240186D01*
X118426552Y-66138729D01*
X118397222Y-66102991D01*
X118313557Y-65946466D01*
X118262037Y-65776627D01*
X118244641Y-65600000D01*
X118262037Y-65423373D01*
X118313557Y-65253534D01*
X118397222Y-65097009D01*
X118426552Y-65061271D01*
X118509814Y-64959814D01*
X118611271Y-64876552D01*
X118647009Y-64847222D01*
X118803534Y-64763557D01*
X118973373Y-64712037D01*
X119039558Y-64705518D01*
X119105740Y-64699000D01*
X119194260Y-64699000D01*
X119260442Y-64705518D01*
X119260442Y-64705518D01*
G37*
G36*
X121800442Y-64705518D02*
G01*
X121866627Y-64712037D01*
X122036466Y-64763557D01*
X122192991Y-64847222D01*
X122228729Y-64876552D01*
X122330186Y-64959814D01*
X122413448Y-65061271D01*
X122442778Y-65097009D01*
X122526443Y-65253534D01*
X122577963Y-65423373D01*
X122595359Y-65600000D01*
X122577963Y-65776627D01*
X122526443Y-65946466D01*
X122442778Y-66102991D01*
X122413448Y-66138729D01*
X122330186Y-66240186D01*
X122228729Y-66323448D01*
X122192991Y-66352778D01*
X122036466Y-66436443D01*
X121866627Y-66487963D01*
X121800442Y-66494482D01*
X121734260Y-66501000D01*
X121645740Y-66501000D01*
X121579558Y-66494482D01*
X121513373Y-66487963D01*
X121343534Y-66436443D01*
X121187009Y-66352778D01*
X121151271Y-66323448D01*
X121049814Y-66240186D01*
X120966552Y-66138729D01*
X120937222Y-66102991D01*
X120853557Y-65946466D01*
X120802037Y-65776627D01*
X120784641Y-65600000D01*
X120802037Y-65423373D01*
X120853557Y-65253534D01*
X120937222Y-65097009D01*
X120966552Y-65061271D01*
X121049814Y-64959814D01*
X121151271Y-64876552D01*
X121187009Y-64847222D01*
X121343534Y-64763557D01*
X121513373Y-64712037D01*
X121579558Y-64705518D01*
X121645740Y-64699000D01*
X121734260Y-64699000D01*
X121800442Y-64705518D01*
X121800442Y-64705518D01*
G37*
G36*
X124340442Y-64705518D02*
G01*
X124406627Y-64712037D01*
X124576466Y-64763557D01*
X124732991Y-64847222D01*
X124768729Y-64876552D01*
X124870186Y-64959814D01*
X124953448Y-65061271D01*
X124982778Y-65097009D01*
X125066443Y-65253534D01*
X125117963Y-65423373D01*
X125135359Y-65600000D01*
X125117963Y-65776627D01*
X125066443Y-65946466D01*
X124982778Y-66102991D01*
X124953448Y-66138729D01*
X124870186Y-66240186D01*
X124768729Y-66323448D01*
X124732991Y-66352778D01*
X124576466Y-66436443D01*
X124406627Y-66487963D01*
X124340442Y-66494482D01*
X124274260Y-66501000D01*
X124185740Y-66501000D01*
X124119558Y-66494482D01*
X124053373Y-66487963D01*
X123883534Y-66436443D01*
X123727009Y-66352778D01*
X123691271Y-66323448D01*
X123589814Y-66240186D01*
X123506552Y-66138729D01*
X123477222Y-66102991D01*
X123393557Y-65946466D01*
X123342037Y-65776627D01*
X123324641Y-65600000D01*
X123342037Y-65423373D01*
X123393557Y-65253534D01*
X123477222Y-65097009D01*
X123506552Y-65061271D01*
X123589814Y-64959814D01*
X123691271Y-64876552D01*
X123727009Y-64847222D01*
X123883534Y-64763557D01*
X124053373Y-64712037D01*
X124119558Y-64705518D01*
X124185740Y-64699000D01*
X124274260Y-64699000D01*
X124340442Y-64705518D01*
X124340442Y-64705518D01*
G37*
G36*
X126880442Y-64705518D02*
G01*
X126946627Y-64712037D01*
X127116466Y-64763557D01*
X127272991Y-64847222D01*
X127308729Y-64876552D01*
X127410186Y-64959814D01*
X127493448Y-65061271D01*
X127522778Y-65097009D01*
X127606443Y-65253534D01*
X127657963Y-65423373D01*
X127675359Y-65600000D01*
X127657963Y-65776627D01*
X127606443Y-65946466D01*
X127522778Y-66102991D01*
X127493448Y-66138729D01*
X127410186Y-66240186D01*
X127308729Y-66323448D01*
X127272991Y-66352778D01*
X127116466Y-66436443D01*
X126946627Y-66487963D01*
X126880442Y-66494482D01*
X126814260Y-66501000D01*
X126725740Y-66501000D01*
X126659558Y-66494482D01*
X126593373Y-66487963D01*
X126423534Y-66436443D01*
X126267009Y-66352778D01*
X126231271Y-66323448D01*
X126129814Y-66240186D01*
X126046552Y-66138729D01*
X126017222Y-66102991D01*
X125933557Y-65946466D01*
X125882037Y-65776627D01*
X125864641Y-65600000D01*
X125882037Y-65423373D01*
X125933557Y-65253534D01*
X126017222Y-65097009D01*
X126046552Y-65061271D01*
X126129814Y-64959814D01*
X126231271Y-64876552D01*
X126267009Y-64847222D01*
X126423534Y-64763557D01*
X126593373Y-64712037D01*
X126659558Y-64705518D01*
X126725740Y-64699000D01*
X126814260Y-64699000D01*
X126880442Y-64705518D01*
X126880442Y-64705518D01*
G37*
G36*
X129420442Y-64705518D02*
G01*
X129486627Y-64712037D01*
X129656466Y-64763557D01*
X129812991Y-64847222D01*
X129848729Y-64876552D01*
X129950186Y-64959814D01*
X130033448Y-65061271D01*
X130062778Y-65097009D01*
X130146443Y-65253534D01*
X130197963Y-65423373D01*
X130215359Y-65600000D01*
X130197963Y-65776627D01*
X130146443Y-65946466D01*
X130062778Y-66102991D01*
X130033448Y-66138729D01*
X129950186Y-66240186D01*
X129848729Y-66323448D01*
X129812991Y-66352778D01*
X129656466Y-66436443D01*
X129486627Y-66487963D01*
X129420442Y-66494482D01*
X129354260Y-66501000D01*
X129265740Y-66501000D01*
X129199558Y-66494482D01*
X129133373Y-66487963D01*
X128963534Y-66436443D01*
X128807009Y-66352778D01*
X128771271Y-66323448D01*
X128669814Y-66240186D01*
X128586552Y-66138729D01*
X128557222Y-66102991D01*
X128473557Y-65946466D01*
X128422037Y-65776627D01*
X128404641Y-65600000D01*
X128422037Y-65423373D01*
X128473557Y-65253534D01*
X128557222Y-65097009D01*
X128586552Y-65061271D01*
X128669814Y-64959814D01*
X128771271Y-64876552D01*
X128807009Y-64847222D01*
X128963534Y-64763557D01*
X129133373Y-64712037D01*
X129199558Y-64705518D01*
X129265740Y-64699000D01*
X129354260Y-64699000D01*
X129420442Y-64705518D01*
X129420442Y-64705518D01*
G37*
G36*
X131960442Y-64705518D02*
G01*
X132026627Y-64712037D01*
X132196466Y-64763557D01*
X132352991Y-64847222D01*
X132388729Y-64876552D01*
X132490186Y-64959814D01*
X132573448Y-65061271D01*
X132602778Y-65097009D01*
X132686443Y-65253534D01*
X132737963Y-65423373D01*
X132755359Y-65600000D01*
X132737963Y-65776627D01*
X132686443Y-65946466D01*
X132602778Y-66102991D01*
X132573448Y-66138729D01*
X132490186Y-66240186D01*
X132388729Y-66323448D01*
X132352991Y-66352778D01*
X132196466Y-66436443D01*
X132026627Y-66487963D01*
X131960442Y-66494482D01*
X131894260Y-66501000D01*
X131805740Y-66501000D01*
X131739558Y-66494482D01*
X131673373Y-66487963D01*
X131503534Y-66436443D01*
X131347009Y-66352778D01*
X131311271Y-66323448D01*
X131209814Y-66240186D01*
X131126552Y-66138729D01*
X131097222Y-66102991D01*
X131013557Y-65946466D01*
X130962037Y-65776627D01*
X130944641Y-65600000D01*
X130962037Y-65423373D01*
X131013557Y-65253534D01*
X131097222Y-65097009D01*
X131126552Y-65061271D01*
X131209814Y-64959814D01*
X131311271Y-64876552D01*
X131347009Y-64847222D01*
X131503534Y-64763557D01*
X131673373Y-64712037D01*
X131739558Y-64705518D01*
X131805740Y-64699000D01*
X131894260Y-64699000D01*
X131960442Y-64705518D01*
X131960442Y-64705518D01*
G37*
G36*
X134500442Y-64705518D02*
G01*
X134566627Y-64712037D01*
X134736466Y-64763557D01*
X134892991Y-64847222D01*
X134928729Y-64876552D01*
X135030186Y-64959814D01*
X135113448Y-65061271D01*
X135142778Y-65097009D01*
X135226443Y-65253534D01*
X135277963Y-65423373D01*
X135295359Y-65600000D01*
X135277963Y-65776627D01*
X135226443Y-65946466D01*
X135142778Y-66102991D01*
X135113448Y-66138729D01*
X135030186Y-66240186D01*
X134928729Y-66323448D01*
X134892991Y-66352778D01*
X134736466Y-66436443D01*
X134566627Y-66487963D01*
X134500442Y-66494482D01*
X134434260Y-66501000D01*
X134345740Y-66501000D01*
X134279558Y-66494482D01*
X134213373Y-66487963D01*
X134043534Y-66436443D01*
X133887009Y-66352778D01*
X133851271Y-66323448D01*
X133749814Y-66240186D01*
X133666552Y-66138729D01*
X133637222Y-66102991D01*
X133553557Y-65946466D01*
X133502037Y-65776627D01*
X133484641Y-65600000D01*
X133502037Y-65423373D01*
X133553557Y-65253534D01*
X133637222Y-65097009D01*
X133666552Y-65061271D01*
X133749814Y-64959814D01*
X133851271Y-64876552D01*
X133887009Y-64847222D01*
X134043534Y-64763557D01*
X134213373Y-64712037D01*
X134279558Y-64705518D01*
X134345740Y-64699000D01*
X134434260Y-64699000D01*
X134500442Y-64705518D01*
X134500442Y-64705518D01*
G37*
G36*
X137040442Y-64705518D02*
G01*
X137106627Y-64712037D01*
X137276466Y-64763557D01*
X137432991Y-64847222D01*
X137468729Y-64876552D01*
X137570186Y-64959814D01*
X137653448Y-65061271D01*
X137682778Y-65097009D01*
X137766443Y-65253534D01*
X137817963Y-65423373D01*
X137835359Y-65600000D01*
X137817963Y-65776627D01*
X137766443Y-65946466D01*
X137682778Y-66102991D01*
X137653448Y-66138729D01*
X137570186Y-66240186D01*
X137468729Y-66323448D01*
X137432991Y-66352778D01*
X137276466Y-66436443D01*
X137106627Y-66487963D01*
X137040442Y-66494482D01*
X136974260Y-66501000D01*
X136885740Y-66501000D01*
X136819558Y-66494482D01*
X136753373Y-66487963D01*
X136583534Y-66436443D01*
X136427009Y-66352778D01*
X136391271Y-66323448D01*
X136289814Y-66240186D01*
X136206552Y-66138729D01*
X136177222Y-66102991D01*
X136093557Y-65946466D01*
X136042037Y-65776627D01*
X136024641Y-65600000D01*
X136042037Y-65423373D01*
X136093557Y-65253534D01*
X136177222Y-65097009D01*
X136206552Y-65061271D01*
X136289814Y-64959814D01*
X136391271Y-64876552D01*
X136427009Y-64847222D01*
X136583534Y-64763557D01*
X136753373Y-64712037D01*
X136819558Y-64705518D01*
X136885740Y-64699000D01*
X136974260Y-64699000D01*
X137040442Y-64705518D01*
X137040442Y-64705518D01*
G37*
G36*
X139580442Y-64705518D02*
G01*
X139646627Y-64712037D01*
X139816466Y-64763557D01*
X139972991Y-64847222D01*
X140008729Y-64876552D01*
X140110186Y-64959814D01*
X140193448Y-65061271D01*
X140222778Y-65097009D01*
X140306443Y-65253534D01*
X140357963Y-65423373D01*
X140375359Y-65600000D01*
X140357963Y-65776627D01*
X140306443Y-65946466D01*
X140222778Y-66102991D01*
X140193448Y-66138729D01*
X140110186Y-66240186D01*
X140008729Y-66323448D01*
X139972991Y-66352778D01*
X139816466Y-66436443D01*
X139646627Y-66487963D01*
X139580442Y-66494482D01*
X139514260Y-66501000D01*
X139425740Y-66501000D01*
X139359558Y-66494482D01*
X139293373Y-66487963D01*
X139123534Y-66436443D01*
X138967009Y-66352778D01*
X138931271Y-66323448D01*
X138829814Y-66240186D01*
X138746552Y-66138729D01*
X138717222Y-66102991D01*
X138633557Y-65946466D01*
X138582037Y-65776627D01*
X138564641Y-65600000D01*
X138582037Y-65423373D01*
X138633557Y-65253534D01*
X138717222Y-65097009D01*
X138746552Y-65061271D01*
X138829814Y-64959814D01*
X138931271Y-64876552D01*
X138967009Y-64847222D01*
X139123534Y-64763557D01*
X139293373Y-64712037D01*
X139359558Y-64705518D01*
X139425740Y-64699000D01*
X139514260Y-64699000D01*
X139580442Y-64705518D01*
X139580442Y-64705518D01*
G37*
G36*
X142120442Y-64705518D02*
G01*
X142186627Y-64712037D01*
X142356466Y-64763557D01*
X142512991Y-64847222D01*
X142548729Y-64876552D01*
X142650186Y-64959814D01*
X142733448Y-65061271D01*
X142762778Y-65097009D01*
X142846443Y-65253534D01*
X142897963Y-65423373D01*
X142915359Y-65600000D01*
X142897963Y-65776627D01*
X142846443Y-65946466D01*
X142762778Y-66102991D01*
X142733448Y-66138729D01*
X142650186Y-66240186D01*
X142548729Y-66323448D01*
X142512991Y-66352778D01*
X142356466Y-66436443D01*
X142186627Y-66487963D01*
X142120442Y-66494482D01*
X142054260Y-66501000D01*
X141965740Y-66501000D01*
X141899558Y-66494482D01*
X141833373Y-66487963D01*
X141663534Y-66436443D01*
X141507009Y-66352778D01*
X141471271Y-66323448D01*
X141369814Y-66240186D01*
X141286552Y-66138729D01*
X141257222Y-66102991D01*
X141173557Y-65946466D01*
X141122037Y-65776627D01*
X141104641Y-65600000D01*
X141122037Y-65423373D01*
X141173557Y-65253534D01*
X141257222Y-65097009D01*
X141286552Y-65061271D01*
X141369814Y-64959814D01*
X141471271Y-64876552D01*
X141507009Y-64847222D01*
X141663534Y-64763557D01*
X141833373Y-64712037D01*
X141899558Y-64705518D01*
X141965740Y-64699000D01*
X142054260Y-64699000D01*
X142120442Y-64705518D01*
X142120442Y-64705518D01*
G37*
G36*
X144660442Y-64705518D02*
G01*
X144726627Y-64712037D01*
X144896466Y-64763557D01*
X145052991Y-64847222D01*
X145088729Y-64876552D01*
X145190186Y-64959814D01*
X145273448Y-65061271D01*
X145302778Y-65097009D01*
X145386443Y-65253534D01*
X145437963Y-65423373D01*
X145455359Y-65600000D01*
X145437963Y-65776627D01*
X145386443Y-65946466D01*
X145302778Y-66102991D01*
X145273448Y-66138729D01*
X145190186Y-66240186D01*
X145088729Y-66323448D01*
X145052991Y-66352778D01*
X144896466Y-66436443D01*
X144726627Y-66487963D01*
X144660442Y-66494482D01*
X144594260Y-66501000D01*
X144505740Y-66501000D01*
X144439558Y-66494482D01*
X144373373Y-66487963D01*
X144203534Y-66436443D01*
X144047009Y-66352778D01*
X144011271Y-66323448D01*
X143909814Y-66240186D01*
X143826552Y-66138729D01*
X143797222Y-66102991D01*
X143713557Y-65946466D01*
X143662037Y-65776627D01*
X143644641Y-65600000D01*
X143662037Y-65423373D01*
X143713557Y-65253534D01*
X143797222Y-65097009D01*
X143826552Y-65061271D01*
X143909814Y-64959814D01*
X144011271Y-64876552D01*
X144047009Y-64847222D01*
X144203534Y-64763557D01*
X144373373Y-64712037D01*
X144439558Y-64705518D01*
X144505740Y-64699000D01*
X144594260Y-64699000D01*
X144660442Y-64705518D01*
X144660442Y-64705518D01*
G37*
M02*
