G04 #@! TF.GenerationSoftware,KiCad,Pcbnew,5.1.2*
G04 #@! TF.CreationDate,2019-05-22T13:27:26-05:00*
G04 #@! TF.ProjectId,SM16106,534d3136-3130-4362-9e6b-696361645f70,rev?*
G04 #@! TF.SameCoordinates,Original*
G04 #@! TF.FileFunction,Copper,L2,Bot*
G04 #@! TF.FilePolarity,Positive*
%FSLAX46Y46*%
G04 Gerber Fmt 4.6, Leading zero omitted, Abs format (unit mm)*
G04 Created by KiCad (PCBNEW 5.1.2) date 2019-05-22 13:27:26*
%MOMM*%
%LPD*%
G04 APERTURE LIST*
%ADD10R,1.700000X1.700000*%
%ADD11O,1.700000X1.700000*%
%ADD12C,0.800000*%
%ADD13C,0.250000*%
%ADD14C,0.254000*%
G04 APERTURE END LIST*
D10*
X147090000Y-65600000D03*
D11*
X144550000Y-65600000D03*
X142010000Y-65600000D03*
X139470000Y-65600000D03*
X136930000Y-65600000D03*
X134390000Y-65600000D03*
X131850000Y-65600000D03*
X129310000Y-65600000D03*
X126770000Y-65600000D03*
X124230000Y-65600000D03*
X121690000Y-65600000D03*
X119150000Y-65600000D03*
D10*
X153680000Y-65600000D03*
D11*
X156220000Y-65600000D03*
X158760000Y-65600000D03*
X161300000Y-65600000D03*
X163840000Y-65600000D03*
X166380000Y-65600000D03*
X168920000Y-65600000D03*
X171460000Y-65600000D03*
X174000000Y-65600000D03*
X176540000Y-65600000D03*
X179080000Y-65600000D03*
X181620000Y-65600000D03*
X184160000Y-65600000D03*
X186700000Y-65600000D03*
X189240000Y-65600000D03*
X191780000Y-65600000D03*
X194320000Y-65600000D03*
X196860000Y-65600000D03*
D12*
X150150000Y-73900000D03*
X150150000Y-80600000D03*
X158450000Y-81200000D03*
X135300000Y-69550000D03*
X130400000Y-69900000D03*
X148200000Y-69150000D03*
X149400000Y-71250000D03*
X130050000Y-81550000D03*
X163500000Y-77800000D03*
X168250000Y-80100000D03*
X165063084Y-83336916D03*
X193113084Y-83336916D03*
X189113084Y-83336916D03*
X185013084Y-83336916D03*
X181213084Y-83336916D03*
X177013084Y-83336916D03*
X173013084Y-83336916D03*
X169013084Y-83336916D03*
X165250000Y-86800000D03*
X168900000Y-86800000D03*
X173050000Y-86800000D03*
X177000000Y-86800000D03*
X181000000Y-86800000D03*
X185050000Y-86800000D03*
X189100000Y-86800000D03*
X193100000Y-86800000D03*
X165021917Y-90321917D03*
X193150000Y-90350000D03*
X189150000Y-90350000D03*
X185050000Y-90350000D03*
X181050000Y-90350000D03*
X177050000Y-90350000D03*
X173100000Y-90350000D03*
X168850000Y-90350000D03*
X165300000Y-93850000D03*
X193150000Y-93850000D03*
X189150000Y-93850000D03*
X185050000Y-93850000D03*
X181000000Y-93850000D03*
X177050000Y-93850000D03*
X173100000Y-93850000D03*
X168900000Y-93850000D03*
X165400000Y-97500000D03*
X193200000Y-97500000D03*
X189150000Y-97500000D03*
X185100000Y-97500000D03*
X180950000Y-97500000D03*
X177050000Y-97500000D03*
X173050000Y-97500000D03*
X168900000Y-97500000D03*
X165600000Y-100900000D03*
X193250000Y-100900000D03*
X189150000Y-100900000D03*
X185050000Y-100900000D03*
X180950000Y-100900000D03*
X168950000Y-100900000D03*
X173050000Y-100900000D03*
X177000000Y-100900000D03*
X165300000Y-104550000D03*
X168950000Y-104550000D03*
X173050000Y-104550000D03*
X177050000Y-104550000D03*
X181000000Y-104550000D03*
X185000000Y-104550000D03*
X189200000Y-104550000D03*
X193250000Y-104550000D03*
X165250000Y-108000000D03*
X169000000Y-108000000D03*
X173000000Y-108000000D03*
X176950000Y-108000000D03*
X181000000Y-108000000D03*
X185000000Y-108000000D03*
X189250000Y-108000000D03*
X193250000Y-108000000D03*
X168600000Y-77000000D03*
X169350000Y-73850000D03*
X168400000Y-72550000D03*
X172150000Y-72100000D03*
X156800000Y-70000000D03*
X159250000Y-76310609D03*
X159368297Y-77303589D03*
X133100000Y-85550000D03*
D13*
X153680000Y-65600000D02*
X153680000Y-70370000D01*
X153680000Y-70370000D02*
X150150000Y-73900000D01*
X150150000Y-80600000D02*
X157850000Y-80600000D01*
X157850000Y-80600000D02*
X158450000Y-81200000D01*
X176540000Y-71810000D02*
X176540000Y-65600000D01*
X168250000Y-80100000D02*
X176540000Y-71810000D01*
X165063084Y-83336916D02*
X169013084Y-83336916D01*
X189113084Y-83336916D02*
X193113084Y-83336916D01*
X185013084Y-83336916D02*
X189113084Y-83336916D01*
X181213084Y-83336916D02*
X185013084Y-83336916D01*
X177013084Y-83336916D02*
X181213084Y-83336916D01*
X173013084Y-83336916D02*
X177013084Y-83336916D01*
X169013084Y-83336916D02*
X173013084Y-83336916D01*
X179080000Y-81270000D02*
X179080000Y-65600000D01*
X177013084Y-83336916D02*
X179080000Y-81270000D01*
X165250000Y-86800000D02*
X168900000Y-86800000D01*
X168900000Y-86800000D02*
X173050000Y-86800000D01*
X173050000Y-86800000D02*
X177000000Y-86800000D01*
X177000000Y-86800000D02*
X181000000Y-86800000D01*
X181000000Y-86800000D02*
X185050000Y-86800000D01*
X185050000Y-86800000D02*
X189100000Y-86800000D01*
X189100000Y-86800000D02*
X193100000Y-86800000D01*
X181620000Y-69670000D02*
X181620000Y-65600000D01*
X194450000Y-82500000D02*
X181620000Y-69670000D01*
X193100000Y-86800000D02*
X194450000Y-85450000D01*
X194450000Y-85450000D02*
X194450000Y-82500000D01*
X165587602Y-90321917D02*
X165615685Y-90350000D01*
X165021917Y-90321917D02*
X165587602Y-90321917D01*
X165615685Y-90350000D02*
X168850000Y-90350000D01*
X189150000Y-90350000D02*
X193150000Y-90350000D01*
X185050000Y-90350000D02*
X189150000Y-90350000D01*
X181050000Y-90350000D02*
X185050000Y-90350000D01*
X177050000Y-90350000D02*
X181050000Y-90350000D01*
X173100000Y-90350000D02*
X177050000Y-90350000D01*
X168850000Y-90350000D02*
X173100000Y-90350000D01*
X184160000Y-71510000D02*
X184160000Y-65600000D01*
X194900009Y-82250009D02*
X184160000Y-71510000D01*
X193150000Y-90350000D02*
X194900009Y-88599991D01*
X194900009Y-88599991D02*
X194900009Y-82250009D01*
X165300000Y-93850000D02*
X165865685Y-93850000D01*
X165865685Y-93850000D02*
X168900000Y-93850000D01*
X189150000Y-93850000D02*
X193150000Y-93850000D01*
X185050000Y-93850000D02*
X189150000Y-93850000D01*
X181000000Y-93850000D02*
X185050000Y-93850000D01*
X177050000Y-93850000D02*
X181000000Y-93850000D01*
X173100000Y-93850000D02*
X177050000Y-93850000D01*
X168900000Y-93850000D02*
X173100000Y-93850000D01*
X195350018Y-91649982D02*
X195350018Y-82063608D01*
X193150000Y-93850000D02*
X195350018Y-91649982D01*
X186700000Y-73413590D02*
X186700000Y-65600000D01*
X195350018Y-82063608D02*
X186700000Y-73413590D01*
X165400000Y-97500000D02*
X168900000Y-97500000D01*
X189150000Y-97500000D02*
X193200000Y-97500000D01*
X185100000Y-97500000D02*
X189150000Y-97500000D01*
X180950000Y-97500000D02*
X185100000Y-97500000D01*
X177050000Y-97500000D02*
X180950000Y-97500000D01*
X173050000Y-97500000D02*
X177050000Y-97500000D01*
X168900000Y-97500000D02*
X173050000Y-97500000D01*
X195800028Y-94899972D02*
X195800027Y-81877207D01*
X193200000Y-97500000D02*
X195800028Y-94899972D01*
X189240000Y-75317180D02*
X189240000Y-65600000D01*
X195800027Y-81877207D02*
X189240000Y-75317180D01*
X165600000Y-100900000D02*
X168950000Y-100900000D01*
X189150000Y-100900000D02*
X193250000Y-100900000D01*
X185050000Y-100900000D02*
X189150000Y-100900000D01*
X180950000Y-100900000D02*
X185050000Y-100900000D01*
X168950000Y-100900000D02*
X173050000Y-100900000D01*
X173050000Y-100900000D02*
X177000000Y-100900000D01*
X177000000Y-100900000D02*
X180950000Y-100900000D01*
X196250036Y-97899964D02*
X196250036Y-81690806D01*
X193250000Y-100900000D02*
X196250036Y-97899964D01*
X191780000Y-77220770D02*
X191780000Y-65600000D01*
X196250036Y-81690806D02*
X191780000Y-77220770D01*
X165300000Y-104550000D02*
X168950000Y-104550000D01*
X168950000Y-104550000D02*
X173050000Y-104550000D01*
X173050000Y-104550000D02*
X177050000Y-104550000D01*
X177050000Y-104550000D02*
X181000000Y-104550000D01*
X181000000Y-104550000D02*
X185000000Y-104550000D01*
X185000000Y-104550000D02*
X189200000Y-104550000D01*
X189200000Y-104550000D02*
X193250000Y-104550000D01*
X196700046Y-101099954D02*
X196700045Y-81504405D01*
X193250000Y-104550000D02*
X196700046Y-101099954D01*
X194320000Y-79124360D02*
X194320000Y-65600000D01*
X196700045Y-81504405D02*
X194320000Y-79124360D01*
X165250000Y-108000000D02*
X169000000Y-108000000D01*
X169000000Y-108000000D02*
X173000000Y-108000000D01*
X173000000Y-108000000D02*
X176950000Y-108000000D01*
X176950000Y-108000000D02*
X181000000Y-108000000D01*
X181000000Y-108000000D02*
X185000000Y-108000000D01*
X185000000Y-108000000D02*
X189250000Y-108000000D01*
X189250000Y-108000000D02*
X193250000Y-108000000D01*
X196860000Y-66802081D02*
X196860000Y-65600000D01*
X197150055Y-67092136D02*
X196860000Y-66802081D01*
X197150055Y-104099945D02*
X197150055Y-67092136D01*
X193250000Y-108000000D02*
X197150055Y-104099945D01*
X174000000Y-71600000D02*
X174000000Y-65600000D01*
X168600000Y-77000000D02*
X174000000Y-71600000D01*
X171460000Y-71740000D02*
X171460000Y-65600000D01*
X169350000Y-73850000D02*
X171460000Y-71740000D01*
X168920000Y-72030000D02*
X168920000Y-65600000D01*
X168400000Y-72550000D02*
X168920000Y-72030000D01*
X167229999Y-64750001D02*
X166380000Y-65600000D01*
X167555001Y-64424999D02*
X167229999Y-64750001D01*
X172635001Y-65035999D02*
X172024001Y-64424999D01*
X172024001Y-64424999D02*
X167555001Y-64424999D01*
X172635001Y-71614999D02*
X172635001Y-65035999D01*
X172150000Y-72100000D02*
X172635001Y-71614999D01*
X161200000Y-65600000D02*
X161300000Y-65600000D01*
X156800000Y-70000000D02*
X161200000Y-65600000D01*
X150180609Y-76310609D02*
X139470000Y-65600000D01*
X159250000Y-76310609D02*
X150180609Y-76310609D01*
X148633589Y-77303589D02*
X136930000Y-65600000D01*
X159368297Y-77303589D02*
X148633589Y-77303589D01*
X131850000Y-84300000D02*
X131850000Y-65600000D01*
X133100000Y-85550000D02*
X131850000Y-84300000D01*
D14*
G36*
X198845999Y-62867675D02*
G01*
X198890250Y-62881035D01*
X198931063Y-62902736D01*
X198966883Y-62931949D01*
X198996347Y-62967566D01*
X199018328Y-63008220D01*
X199031997Y-63052377D01*
X199040000Y-63128518D01*
X199040001Y-109467714D01*
X199036134Y-109507152D01*
X199034055Y-109514038D01*
X199030680Y-109520386D01*
X199026140Y-109525953D01*
X199020600Y-109530536D01*
X199014271Y-109533958D01*
X199007408Y-109536082D01*
X198970133Y-109540000D01*
X116460000Y-109540000D01*
X116460000Y-65600000D01*
X117657815Y-65600000D01*
X117686487Y-65891111D01*
X117771401Y-66171034D01*
X117909294Y-66429014D01*
X118094866Y-66655134D01*
X118320986Y-66840706D01*
X118578966Y-66978599D01*
X118858889Y-67063513D01*
X119077050Y-67085000D01*
X119222950Y-67085000D01*
X119441111Y-67063513D01*
X119721034Y-66978599D01*
X119979014Y-66840706D01*
X120205134Y-66655134D01*
X120390706Y-66429014D01*
X120425201Y-66364477D01*
X120494822Y-66481355D01*
X120689731Y-66697588D01*
X120923080Y-66871641D01*
X121185901Y-66996825D01*
X121333110Y-67041476D01*
X121563000Y-66920155D01*
X121563000Y-65727000D01*
X121543000Y-65727000D01*
X121543000Y-65473000D01*
X121563000Y-65473000D01*
X121563000Y-64279845D01*
X121817000Y-64279845D01*
X121817000Y-65473000D01*
X121837000Y-65473000D01*
X121837000Y-65727000D01*
X121817000Y-65727000D01*
X121817000Y-66920155D01*
X122046890Y-67041476D01*
X122194099Y-66996825D01*
X122456920Y-66871641D01*
X122690269Y-66697588D01*
X122885178Y-66481355D01*
X122954799Y-66364477D01*
X122989294Y-66429014D01*
X123174866Y-66655134D01*
X123400986Y-66840706D01*
X123658966Y-66978599D01*
X123938889Y-67063513D01*
X124157050Y-67085000D01*
X124302950Y-67085000D01*
X124521111Y-67063513D01*
X124801034Y-66978599D01*
X125059014Y-66840706D01*
X125285134Y-66655134D01*
X125470706Y-66429014D01*
X125500000Y-66374209D01*
X125529294Y-66429014D01*
X125714866Y-66655134D01*
X125940986Y-66840706D01*
X126198966Y-66978599D01*
X126478889Y-67063513D01*
X126697050Y-67085000D01*
X126842950Y-67085000D01*
X127061111Y-67063513D01*
X127341034Y-66978599D01*
X127599014Y-66840706D01*
X127825134Y-66655134D01*
X128010706Y-66429014D01*
X128040000Y-66374209D01*
X128069294Y-66429014D01*
X128254866Y-66655134D01*
X128480986Y-66840706D01*
X128738966Y-66978599D01*
X129018889Y-67063513D01*
X129237050Y-67085000D01*
X129382950Y-67085000D01*
X129601111Y-67063513D01*
X129881034Y-66978599D01*
X130139014Y-66840706D01*
X130365134Y-66655134D01*
X130550706Y-66429014D01*
X130580000Y-66374209D01*
X130609294Y-66429014D01*
X130794866Y-66655134D01*
X131020986Y-66840706D01*
X131090001Y-66877595D01*
X131090000Y-84262678D01*
X131086324Y-84300000D01*
X131090000Y-84337322D01*
X131090000Y-84337332D01*
X131100997Y-84448985D01*
X131133087Y-84554774D01*
X131144454Y-84592246D01*
X131215026Y-84724276D01*
X131254871Y-84772826D01*
X131309999Y-84840001D01*
X131339003Y-84863804D01*
X132065000Y-85589802D01*
X132065000Y-85651939D01*
X132104774Y-85851898D01*
X132182795Y-86040256D01*
X132296063Y-86209774D01*
X132440226Y-86353937D01*
X132609744Y-86467205D01*
X132798102Y-86545226D01*
X132998061Y-86585000D01*
X133201939Y-86585000D01*
X133401898Y-86545226D01*
X133590256Y-86467205D01*
X133759774Y-86353937D01*
X133903937Y-86209774D01*
X134017205Y-86040256D01*
X134095226Y-85851898D01*
X134135000Y-85651939D01*
X134135000Y-85448061D01*
X134095226Y-85248102D01*
X134017205Y-85059744D01*
X133903937Y-84890226D01*
X133759774Y-84746063D01*
X133590256Y-84632795D01*
X133401898Y-84554774D01*
X133201939Y-84515000D01*
X133139802Y-84515000D01*
X132610000Y-83985199D01*
X132610000Y-80498061D01*
X149115000Y-80498061D01*
X149115000Y-80701939D01*
X149154774Y-80901898D01*
X149232795Y-81090256D01*
X149346063Y-81259774D01*
X149490226Y-81403937D01*
X149659744Y-81517205D01*
X149848102Y-81595226D01*
X150048061Y-81635000D01*
X150251939Y-81635000D01*
X150451898Y-81595226D01*
X150640256Y-81517205D01*
X150809774Y-81403937D01*
X150853711Y-81360000D01*
X157426549Y-81360000D01*
X157454774Y-81501898D01*
X157532795Y-81690256D01*
X157646063Y-81859774D01*
X157790226Y-82003937D01*
X157959744Y-82117205D01*
X158148102Y-82195226D01*
X158348061Y-82235000D01*
X158551939Y-82235000D01*
X158751898Y-82195226D01*
X158940256Y-82117205D01*
X159109774Y-82003937D01*
X159253937Y-81859774D01*
X159367205Y-81690256D01*
X159445226Y-81501898D01*
X159485000Y-81301939D01*
X159485000Y-81098061D01*
X159445226Y-80898102D01*
X159367205Y-80709744D01*
X159253937Y-80540226D01*
X159109774Y-80396063D01*
X158940256Y-80282795D01*
X158751898Y-80204774D01*
X158551939Y-80165000D01*
X158489801Y-80165000D01*
X158413803Y-80089002D01*
X158390001Y-80059999D01*
X158274276Y-79965026D01*
X158142247Y-79894454D01*
X157998986Y-79850997D01*
X157887333Y-79840000D01*
X157887322Y-79840000D01*
X157850000Y-79836324D01*
X157812678Y-79840000D01*
X150853711Y-79840000D01*
X150809774Y-79796063D01*
X150640256Y-79682795D01*
X150451898Y-79604774D01*
X150251939Y-79565000D01*
X150048061Y-79565000D01*
X149848102Y-79604774D01*
X149659744Y-79682795D01*
X149490226Y-79796063D01*
X149346063Y-79940226D01*
X149232795Y-80109744D01*
X149154774Y-80298102D01*
X149115000Y-80498061D01*
X132610000Y-80498061D01*
X132610000Y-66877595D01*
X132679014Y-66840706D01*
X132905134Y-66655134D01*
X133090706Y-66429014D01*
X133120000Y-66374209D01*
X133149294Y-66429014D01*
X133334866Y-66655134D01*
X133560986Y-66840706D01*
X133818966Y-66978599D01*
X134098889Y-67063513D01*
X134317050Y-67085000D01*
X134462950Y-67085000D01*
X134681111Y-67063513D01*
X134961034Y-66978599D01*
X135219014Y-66840706D01*
X135445134Y-66655134D01*
X135630706Y-66429014D01*
X135660000Y-66374209D01*
X135689294Y-66429014D01*
X135874866Y-66655134D01*
X136100986Y-66840706D01*
X136358966Y-66978599D01*
X136638889Y-67063513D01*
X136857050Y-67085000D01*
X137002950Y-67085000D01*
X137221111Y-67063513D01*
X137295996Y-67040797D01*
X148069790Y-77814592D01*
X148093588Y-77843590D01*
X148209313Y-77938563D01*
X148341342Y-78009135D01*
X148484603Y-78052592D01*
X148596256Y-78063589D01*
X148596265Y-78063589D01*
X148633588Y-78067265D01*
X148670911Y-78063589D01*
X158664586Y-78063589D01*
X158708523Y-78107526D01*
X158878041Y-78220794D01*
X159066399Y-78298815D01*
X159266358Y-78338589D01*
X159470236Y-78338589D01*
X159670195Y-78298815D01*
X159858553Y-78220794D01*
X160028071Y-78107526D01*
X160172234Y-77963363D01*
X160285502Y-77793845D01*
X160363523Y-77605487D01*
X160403297Y-77405528D01*
X160403297Y-77201650D01*
X160363523Y-77001691D01*
X160285502Y-76813333D01*
X160209287Y-76699270D01*
X160245226Y-76612507D01*
X160285000Y-76412548D01*
X160285000Y-76208670D01*
X160245226Y-76008711D01*
X160167205Y-75820353D01*
X160053937Y-75650835D01*
X159909774Y-75506672D01*
X159740256Y-75393404D01*
X159551898Y-75315383D01*
X159351939Y-75275609D01*
X159148061Y-75275609D01*
X158948102Y-75315383D01*
X158759744Y-75393404D01*
X158590226Y-75506672D01*
X158546289Y-75550609D01*
X150495411Y-75550609D01*
X149834319Y-74889517D01*
X149848102Y-74895226D01*
X150048061Y-74935000D01*
X150251939Y-74935000D01*
X150451898Y-74895226D01*
X150640256Y-74817205D01*
X150809774Y-74703937D01*
X150953937Y-74559774D01*
X151067205Y-74390256D01*
X151145226Y-74201898D01*
X151185000Y-74001939D01*
X151185000Y-73939801D01*
X154191003Y-70933799D01*
X154220001Y-70910001D01*
X154268157Y-70851323D01*
X154314974Y-70794277D01*
X154385546Y-70662247D01*
X154415409Y-70563799D01*
X154429003Y-70518986D01*
X154440000Y-70407333D01*
X154440000Y-70407323D01*
X154443676Y-70370000D01*
X154440000Y-70332677D01*
X154440000Y-69898061D01*
X155765000Y-69898061D01*
X155765000Y-70101939D01*
X155804774Y-70301898D01*
X155882795Y-70490256D01*
X155996063Y-70659774D01*
X156140226Y-70803937D01*
X156309744Y-70917205D01*
X156498102Y-70995226D01*
X156698061Y-71035000D01*
X156901939Y-71035000D01*
X157101898Y-70995226D01*
X157290256Y-70917205D01*
X157459774Y-70803937D01*
X157603937Y-70659774D01*
X157717205Y-70490256D01*
X157795226Y-70301898D01*
X157835000Y-70101939D01*
X157835000Y-70039801D01*
X160857279Y-67017523D01*
X161008889Y-67063513D01*
X161227050Y-67085000D01*
X161372950Y-67085000D01*
X161591111Y-67063513D01*
X161871034Y-66978599D01*
X162129014Y-66840706D01*
X162355134Y-66655134D01*
X162540706Y-66429014D01*
X162570000Y-66374209D01*
X162599294Y-66429014D01*
X162784866Y-66655134D01*
X163010986Y-66840706D01*
X163268966Y-66978599D01*
X163548889Y-67063513D01*
X163767050Y-67085000D01*
X163912950Y-67085000D01*
X164131111Y-67063513D01*
X164411034Y-66978599D01*
X164669014Y-66840706D01*
X164895134Y-66655134D01*
X165080706Y-66429014D01*
X165110000Y-66374209D01*
X165139294Y-66429014D01*
X165324866Y-66655134D01*
X165550986Y-66840706D01*
X165808966Y-66978599D01*
X166088889Y-67063513D01*
X166307050Y-67085000D01*
X166452950Y-67085000D01*
X166671111Y-67063513D01*
X166951034Y-66978599D01*
X167209014Y-66840706D01*
X167435134Y-66655134D01*
X167620706Y-66429014D01*
X167650000Y-66374209D01*
X167679294Y-66429014D01*
X167864866Y-66655134D01*
X168090986Y-66840706D01*
X168160001Y-66877595D01*
X168160000Y-71542462D01*
X168098102Y-71554774D01*
X167909744Y-71632795D01*
X167740226Y-71746063D01*
X167596063Y-71890226D01*
X167482795Y-72059744D01*
X167404774Y-72248102D01*
X167365000Y-72448061D01*
X167365000Y-72651939D01*
X167404774Y-72851898D01*
X167482795Y-73040256D01*
X167596063Y-73209774D01*
X167740226Y-73353937D01*
X167909744Y-73467205D01*
X168098102Y-73545226D01*
X168298061Y-73585000D01*
X168347435Y-73585000D01*
X168315000Y-73748061D01*
X168315000Y-73951939D01*
X168354774Y-74151898D01*
X168432795Y-74340256D01*
X168546063Y-74509774D01*
X168690226Y-74653937D01*
X168859744Y-74767205D01*
X169048102Y-74845226D01*
X169248061Y-74885000D01*
X169451939Y-74885000D01*
X169651898Y-74845226D01*
X169699825Y-74825374D01*
X168560199Y-75965000D01*
X168498061Y-75965000D01*
X168298102Y-76004774D01*
X168109744Y-76082795D01*
X167940226Y-76196063D01*
X167796063Y-76340226D01*
X167682795Y-76509744D01*
X167604774Y-76698102D01*
X167565000Y-76898061D01*
X167565000Y-77101939D01*
X167604774Y-77301898D01*
X167682795Y-77490256D01*
X167796063Y-77659774D01*
X167940226Y-77803937D01*
X168109744Y-77917205D01*
X168298102Y-77995226D01*
X168498061Y-78035000D01*
X168701939Y-78035000D01*
X168901898Y-77995226D01*
X169090256Y-77917205D01*
X169259774Y-77803937D01*
X169403937Y-77659774D01*
X169517205Y-77490256D01*
X169595226Y-77301898D01*
X169635000Y-77101939D01*
X169635000Y-77039801D01*
X174511004Y-72163798D01*
X174540001Y-72140001D01*
X174634974Y-72024276D01*
X174705546Y-71892247D01*
X174749003Y-71748986D01*
X174760000Y-71637333D01*
X174760000Y-71637324D01*
X174763676Y-71600001D01*
X174760000Y-71562678D01*
X174760000Y-66877595D01*
X174829014Y-66840706D01*
X175055134Y-66655134D01*
X175240706Y-66429014D01*
X175270000Y-66374209D01*
X175299294Y-66429014D01*
X175484866Y-66655134D01*
X175710986Y-66840706D01*
X175780001Y-66877595D01*
X175780000Y-71495197D01*
X168210199Y-79065000D01*
X168148061Y-79065000D01*
X167948102Y-79104774D01*
X167759744Y-79182795D01*
X167590226Y-79296063D01*
X167446063Y-79440226D01*
X167332795Y-79609744D01*
X167254774Y-79798102D01*
X167215000Y-79998061D01*
X167215000Y-80201939D01*
X167254774Y-80401898D01*
X167332795Y-80590256D01*
X167446063Y-80759774D01*
X167590226Y-80903937D01*
X167759744Y-81017205D01*
X167948102Y-81095226D01*
X168148061Y-81135000D01*
X168351939Y-81135000D01*
X168551898Y-81095226D01*
X168740256Y-81017205D01*
X168909774Y-80903937D01*
X169053937Y-80759774D01*
X169167205Y-80590256D01*
X169245226Y-80401898D01*
X169285000Y-80201939D01*
X169285000Y-80139801D01*
X177051009Y-72373794D01*
X177080001Y-72350001D01*
X177103795Y-72321008D01*
X177103799Y-72321004D01*
X177174973Y-72234277D01*
X177174974Y-72234276D01*
X177245546Y-72102247D01*
X177289003Y-71958986D01*
X177300000Y-71847333D01*
X177300000Y-71847324D01*
X177303676Y-71810001D01*
X177300000Y-71772678D01*
X177300000Y-66877595D01*
X177369014Y-66840706D01*
X177595134Y-66655134D01*
X177780706Y-66429014D01*
X177810000Y-66374209D01*
X177839294Y-66429014D01*
X178024866Y-66655134D01*
X178250986Y-66840706D01*
X178320001Y-66877595D01*
X178320000Y-80955198D01*
X176973283Y-82301916D01*
X176911145Y-82301916D01*
X176711186Y-82341690D01*
X176522828Y-82419711D01*
X176353310Y-82532979D01*
X176309373Y-82576916D01*
X173716795Y-82576916D01*
X173672858Y-82532979D01*
X173503340Y-82419711D01*
X173314982Y-82341690D01*
X173115023Y-82301916D01*
X172911145Y-82301916D01*
X172711186Y-82341690D01*
X172522828Y-82419711D01*
X172353310Y-82532979D01*
X172309373Y-82576916D01*
X169716795Y-82576916D01*
X169672858Y-82532979D01*
X169503340Y-82419711D01*
X169314982Y-82341690D01*
X169115023Y-82301916D01*
X168911145Y-82301916D01*
X168711186Y-82341690D01*
X168522828Y-82419711D01*
X168353310Y-82532979D01*
X168309373Y-82576916D01*
X165766795Y-82576916D01*
X165722858Y-82532979D01*
X165553340Y-82419711D01*
X165364982Y-82341690D01*
X165165023Y-82301916D01*
X164961145Y-82301916D01*
X164761186Y-82341690D01*
X164572828Y-82419711D01*
X164403310Y-82532979D01*
X164259147Y-82677142D01*
X164145879Y-82846660D01*
X164067858Y-83035018D01*
X164028084Y-83234977D01*
X164028084Y-83438855D01*
X164067858Y-83638814D01*
X164145879Y-83827172D01*
X164259147Y-83996690D01*
X164403310Y-84140853D01*
X164572828Y-84254121D01*
X164761186Y-84332142D01*
X164961145Y-84371916D01*
X165165023Y-84371916D01*
X165364982Y-84332142D01*
X165553340Y-84254121D01*
X165722858Y-84140853D01*
X165766795Y-84096916D01*
X168309373Y-84096916D01*
X168353310Y-84140853D01*
X168522828Y-84254121D01*
X168711186Y-84332142D01*
X168911145Y-84371916D01*
X169115023Y-84371916D01*
X169314982Y-84332142D01*
X169503340Y-84254121D01*
X169672858Y-84140853D01*
X169716795Y-84096916D01*
X172309373Y-84096916D01*
X172353310Y-84140853D01*
X172522828Y-84254121D01*
X172711186Y-84332142D01*
X172911145Y-84371916D01*
X173115023Y-84371916D01*
X173314982Y-84332142D01*
X173503340Y-84254121D01*
X173672858Y-84140853D01*
X173716795Y-84096916D01*
X176309373Y-84096916D01*
X176353310Y-84140853D01*
X176522828Y-84254121D01*
X176711186Y-84332142D01*
X176911145Y-84371916D01*
X177115023Y-84371916D01*
X177314982Y-84332142D01*
X177503340Y-84254121D01*
X177672858Y-84140853D01*
X177716795Y-84096916D01*
X180509373Y-84096916D01*
X180553310Y-84140853D01*
X180722828Y-84254121D01*
X180911186Y-84332142D01*
X181111145Y-84371916D01*
X181315023Y-84371916D01*
X181514982Y-84332142D01*
X181703340Y-84254121D01*
X181872858Y-84140853D01*
X181916795Y-84096916D01*
X184309373Y-84096916D01*
X184353310Y-84140853D01*
X184522828Y-84254121D01*
X184711186Y-84332142D01*
X184911145Y-84371916D01*
X185115023Y-84371916D01*
X185314982Y-84332142D01*
X185503340Y-84254121D01*
X185672858Y-84140853D01*
X185716795Y-84096916D01*
X188409373Y-84096916D01*
X188453310Y-84140853D01*
X188622828Y-84254121D01*
X188811186Y-84332142D01*
X189011145Y-84371916D01*
X189215023Y-84371916D01*
X189414982Y-84332142D01*
X189603340Y-84254121D01*
X189772858Y-84140853D01*
X189816795Y-84096916D01*
X192409373Y-84096916D01*
X192453310Y-84140853D01*
X192622828Y-84254121D01*
X192811186Y-84332142D01*
X193011145Y-84371916D01*
X193215023Y-84371916D01*
X193414982Y-84332142D01*
X193603340Y-84254121D01*
X193690000Y-84196217D01*
X193690000Y-85135198D01*
X193060199Y-85765000D01*
X192998061Y-85765000D01*
X192798102Y-85804774D01*
X192609744Y-85882795D01*
X192440226Y-85996063D01*
X192396289Y-86040000D01*
X189803711Y-86040000D01*
X189759774Y-85996063D01*
X189590256Y-85882795D01*
X189401898Y-85804774D01*
X189201939Y-85765000D01*
X188998061Y-85765000D01*
X188798102Y-85804774D01*
X188609744Y-85882795D01*
X188440226Y-85996063D01*
X188396289Y-86040000D01*
X185753711Y-86040000D01*
X185709774Y-85996063D01*
X185540256Y-85882795D01*
X185351898Y-85804774D01*
X185151939Y-85765000D01*
X184948061Y-85765000D01*
X184748102Y-85804774D01*
X184559744Y-85882795D01*
X184390226Y-85996063D01*
X184346289Y-86040000D01*
X181703711Y-86040000D01*
X181659774Y-85996063D01*
X181490256Y-85882795D01*
X181301898Y-85804774D01*
X181101939Y-85765000D01*
X180898061Y-85765000D01*
X180698102Y-85804774D01*
X180509744Y-85882795D01*
X180340226Y-85996063D01*
X180296289Y-86040000D01*
X177703711Y-86040000D01*
X177659774Y-85996063D01*
X177490256Y-85882795D01*
X177301898Y-85804774D01*
X177101939Y-85765000D01*
X176898061Y-85765000D01*
X176698102Y-85804774D01*
X176509744Y-85882795D01*
X176340226Y-85996063D01*
X176296289Y-86040000D01*
X173753711Y-86040000D01*
X173709774Y-85996063D01*
X173540256Y-85882795D01*
X173351898Y-85804774D01*
X173151939Y-85765000D01*
X172948061Y-85765000D01*
X172748102Y-85804774D01*
X172559744Y-85882795D01*
X172390226Y-85996063D01*
X172346289Y-86040000D01*
X169603711Y-86040000D01*
X169559774Y-85996063D01*
X169390256Y-85882795D01*
X169201898Y-85804774D01*
X169001939Y-85765000D01*
X168798061Y-85765000D01*
X168598102Y-85804774D01*
X168409744Y-85882795D01*
X168240226Y-85996063D01*
X168196289Y-86040000D01*
X165953711Y-86040000D01*
X165909774Y-85996063D01*
X165740256Y-85882795D01*
X165551898Y-85804774D01*
X165351939Y-85765000D01*
X165148061Y-85765000D01*
X164948102Y-85804774D01*
X164759744Y-85882795D01*
X164590226Y-85996063D01*
X164446063Y-86140226D01*
X164332795Y-86309744D01*
X164254774Y-86498102D01*
X164215000Y-86698061D01*
X164215000Y-86901939D01*
X164254774Y-87101898D01*
X164332795Y-87290256D01*
X164446063Y-87459774D01*
X164590226Y-87603937D01*
X164759744Y-87717205D01*
X164948102Y-87795226D01*
X165148061Y-87835000D01*
X165351939Y-87835000D01*
X165551898Y-87795226D01*
X165740256Y-87717205D01*
X165909774Y-87603937D01*
X165953711Y-87560000D01*
X168196289Y-87560000D01*
X168240226Y-87603937D01*
X168409744Y-87717205D01*
X168598102Y-87795226D01*
X168798061Y-87835000D01*
X169001939Y-87835000D01*
X169201898Y-87795226D01*
X169390256Y-87717205D01*
X169559774Y-87603937D01*
X169603711Y-87560000D01*
X172346289Y-87560000D01*
X172390226Y-87603937D01*
X172559744Y-87717205D01*
X172748102Y-87795226D01*
X172948061Y-87835000D01*
X173151939Y-87835000D01*
X173351898Y-87795226D01*
X173540256Y-87717205D01*
X173709774Y-87603937D01*
X173753711Y-87560000D01*
X176296289Y-87560000D01*
X176340226Y-87603937D01*
X176509744Y-87717205D01*
X176698102Y-87795226D01*
X176898061Y-87835000D01*
X177101939Y-87835000D01*
X177301898Y-87795226D01*
X177490256Y-87717205D01*
X177659774Y-87603937D01*
X177703711Y-87560000D01*
X180296289Y-87560000D01*
X180340226Y-87603937D01*
X180509744Y-87717205D01*
X180698102Y-87795226D01*
X180898061Y-87835000D01*
X181101939Y-87835000D01*
X181301898Y-87795226D01*
X181490256Y-87717205D01*
X181659774Y-87603937D01*
X181703711Y-87560000D01*
X184346289Y-87560000D01*
X184390226Y-87603937D01*
X184559744Y-87717205D01*
X184748102Y-87795226D01*
X184948061Y-87835000D01*
X185151939Y-87835000D01*
X185351898Y-87795226D01*
X185540256Y-87717205D01*
X185709774Y-87603937D01*
X185753711Y-87560000D01*
X188396289Y-87560000D01*
X188440226Y-87603937D01*
X188609744Y-87717205D01*
X188798102Y-87795226D01*
X188998061Y-87835000D01*
X189201939Y-87835000D01*
X189401898Y-87795226D01*
X189590256Y-87717205D01*
X189759774Y-87603937D01*
X189803711Y-87560000D01*
X192396289Y-87560000D01*
X192440226Y-87603937D01*
X192609744Y-87717205D01*
X192798102Y-87795226D01*
X192998061Y-87835000D01*
X193201939Y-87835000D01*
X193401898Y-87795226D01*
X193590256Y-87717205D01*
X193759774Y-87603937D01*
X193903937Y-87459774D01*
X194017205Y-87290256D01*
X194095226Y-87101898D01*
X194135000Y-86901939D01*
X194135000Y-86839801D01*
X194140009Y-86834792D01*
X194140009Y-88285188D01*
X193110198Y-89315000D01*
X193048061Y-89315000D01*
X192848102Y-89354774D01*
X192659744Y-89432795D01*
X192490226Y-89546063D01*
X192446289Y-89590000D01*
X189853711Y-89590000D01*
X189809774Y-89546063D01*
X189640256Y-89432795D01*
X189451898Y-89354774D01*
X189251939Y-89315000D01*
X189048061Y-89315000D01*
X188848102Y-89354774D01*
X188659744Y-89432795D01*
X188490226Y-89546063D01*
X188446289Y-89590000D01*
X185753711Y-89590000D01*
X185709774Y-89546063D01*
X185540256Y-89432795D01*
X185351898Y-89354774D01*
X185151939Y-89315000D01*
X184948061Y-89315000D01*
X184748102Y-89354774D01*
X184559744Y-89432795D01*
X184390226Y-89546063D01*
X184346289Y-89590000D01*
X181753711Y-89590000D01*
X181709774Y-89546063D01*
X181540256Y-89432795D01*
X181351898Y-89354774D01*
X181151939Y-89315000D01*
X180948061Y-89315000D01*
X180748102Y-89354774D01*
X180559744Y-89432795D01*
X180390226Y-89546063D01*
X180346289Y-89590000D01*
X177753711Y-89590000D01*
X177709774Y-89546063D01*
X177540256Y-89432795D01*
X177351898Y-89354774D01*
X177151939Y-89315000D01*
X176948061Y-89315000D01*
X176748102Y-89354774D01*
X176559744Y-89432795D01*
X176390226Y-89546063D01*
X176346289Y-89590000D01*
X173803711Y-89590000D01*
X173759774Y-89546063D01*
X173590256Y-89432795D01*
X173401898Y-89354774D01*
X173201939Y-89315000D01*
X172998061Y-89315000D01*
X172798102Y-89354774D01*
X172609744Y-89432795D01*
X172440226Y-89546063D01*
X172396289Y-89590000D01*
X169553711Y-89590000D01*
X169509774Y-89546063D01*
X169340256Y-89432795D01*
X169151898Y-89354774D01*
X168951939Y-89315000D01*
X168748061Y-89315000D01*
X168548102Y-89354774D01*
X168359744Y-89432795D01*
X168190226Y-89546063D01*
X168146289Y-89590000D01*
X165792914Y-89590000D01*
X165736641Y-89572930D01*
X165681691Y-89517980D01*
X165512173Y-89404712D01*
X165323815Y-89326691D01*
X165123856Y-89286917D01*
X164919978Y-89286917D01*
X164720019Y-89326691D01*
X164531661Y-89404712D01*
X164362143Y-89517980D01*
X164217980Y-89662143D01*
X164104712Y-89831661D01*
X164026691Y-90020019D01*
X163986917Y-90219978D01*
X163986917Y-90423856D01*
X164026691Y-90623815D01*
X164104712Y-90812173D01*
X164217980Y-90981691D01*
X164362143Y-91125854D01*
X164531661Y-91239122D01*
X164720019Y-91317143D01*
X164919978Y-91356917D01*
X165123856Y-91356917D01*
X165323815Y-91317143D01*
X165512173Y-91239122D01*
X165681691Y-91125854D01*
X165697545Y-91110000D01*
X168146289Y-91110000D01*
X168190226Y-91153937D01*
X168359744Y-91267205D01*
X168548102Y-91345226D01*
X168748061Y-91385000D01*
X168951939Y-91385000D01*
X169151898Y-91345226D01*
X169340256Y-91267205D01*
X169509774Y-91153937D01*
X169553711Y-91110000D01*
X172396289Y-91110000D01*
X172440226Y-91153937D01*
X172609744Y-91267205D01*
X172798102Y-91345226D01*
X172998061Y-91385000D01*
X173201939Y-91385000D01*
X173401898Y-91345226D01*
X173590256Y-91267205D01*
X173759774Y-91153937D01*
X173803711Y-91110000D01*
X176346289Y-91110000D01*
X176390226Y-91153937D01*
X176559744Y-91267205D01*
X176748102Y-91345226D01*
X176948061Y-91385000D01*
X177151939Y-91385000D01*
X177351898Y-91345226D01*
X177540256Y-91267205D01*
X177709774Y-91153937D01*
X177753711Y-91110000D01*
X180346289Y-91110000D01*
X180390226Y-91153937D01*
X180559744Y-91267205D01*
X180748102Y-91345226D01*
X180948061Y-91385000D01*
X181151939Y-91385000D01*
X181351898Y-91345226D01*
X181540256Y-91267205D01*
X181709774Y-91153937D01*
X181753711Y-91110000D01*
X184346289Y-91110000D01*
X184390226Y-91153937D01*
X184559744Y-91267205D01*
X184748102Y-91345226D01*
X184948061Y-91385000D01*
X185151939Y-91385000D01*
X185351898Y-91345226D01*
X185540256Y-91267205D01*
X185709774Y-91153937D01*
X185753711Y-91110000D01*
X188446289Y-91110000D01*
X188490226Y-91153937D01*
X188659744Y-91267205D01*
X188848102Y-91345226D01*
X189048061Y-91385000D01*
X189251939Y-91385000D01*
X189451898Y-91345226D01*
X189640256Y-91267205D01*
X189809774Y-91153937D01*
X189853711Y-91110000D01*
X192446289Y-91110000D01*
X192490226Y-91153937D01*
X192659744Y-91267205D01*
X192848102Y-91345226D01*
X193048061Y-91385000D01*
X193251939Y-91385000D01*
X193451898Y-91345226D01*
X193640256Y-91267205D01*
X193809774Y-91153937D01*
X193953937Y-91009774D01*
X194067205Y-90840256D01*
X194145226Y-90651898D01*
X194185000Y-90451939D01*
X194185000Y-90389802D01*
X194590018Y-89984784D01*
X194590018Y-91335180D01*
X193110199Y-92815000D01*
X193048061Y-92815000D01*
X192848102Y-92854774D01*
X192659744Y-92932795D01*
X192490226Y-93046063D01*
X192446289Y-93090000D01*
X189853711Y-93090000D01*
X189809774Y-93046063D01*
X189640256Y-92932795D01*
X189451898Y-92854774D01*
X189251939Y-92815000D01*
X189048061Y-92815000D01*
X188848102Y-92854774D01*
X188659744Y-92932795D01*
X188490226Y-93046063D01*
X188446289Y-93090000D01*
X185753711Y-93090000D01*
X185709774Y-93046063D01*
X185540256Y-92932795D01*
X185351898Y-92854774D01*
X185151939Y-92815000D01*
X184948061Y-92815000D01*
X184748102Y-92854774D01*
X184559744Y-92932795D01*
X184390226Y-93046063D01*
X184346289Y-93090000D01*
X181703711Y-93090000D01*
X181659774Y-93046063D01*
X181490256Y-92932795D01*
X181301898Y-92854774D01*
X181101939Y-92815000D01*
X180898061Y-92815000D01*
X180698102Y-92854774D01*
X180509744Y-92932795D01*
X180340226Y-93046063D01*
X180296289Y-93090000D01*
X177753711Y-93090000D01*
X177709774Y-93046063D01*
X177540256Y-92932795D01*
X177351898Y-92854774D01*
X177151939Y-92815000D01*
X176948061Y-92815000D01*
X176748102Y-92854774D01*
X176559744Y-92932795D01*
X176390226Y-93046063D01*
X176346289Y-93090000D01*
X173803711Y-93090000D01*
X173759774Y-93046063D01*
X173590256Y-92932795D01*
X173401898Y-92854774D01*
X173201939Y-92815000D01*
X172998061Y-92815000D01*
X172798102Y-92854774D01*
X172609744Y-92932795D01*
X172440226Y-93046063D01*
X172396289Y-93090000D01*
X169603711Y-93090000D01*
X169559774Y-93046063D01*
X169390256Y-92932795D01*
X169201898Y-92854774D01*
X169001939Y-92815000D01*
X168798061Y-92815000D01*
X168598102Y-92854774D01*
X168409744Y-92932795D01*
X168240226Y-93046063D01*
X168196289Y-93090000D01*
X166003711Y-93090000D01*
X165959774Y-93046063D01*
X165790256Y-92932795D01*
X165601898Y-92854774D01*
X165401939Y-92815000D01*
X165198061Y-92815000D01*
X164998102Y-92854774D01*
X164809744Y-92932795D01*
X164640226Y-93046063D01*
X164496063Y-93190226D01*
X164382795Y-93359744D01*
X164304774Y-93548102D01*
X164265000Y-93748061D01*
X164265000Y-93951939D01*
X164304774Y-94151898D01*
X164382795Y-94340256D01*
X164496063Y-94509774D01*
X164640226Y-94653937D01*
X164809744Y-94767205D01*
X164998102Y-94845226D01*
X165198061Y-94885000D01*
X165401939Y-94885000D01*
X165601898Y-94845226D01*
X165790256Y-94767205D01*
X165959774Y-94653937D01*
X166003711Y-94610000D01*
X168196289Y-94610000D01*
X168240226Y-94653937D01*
X168409744Y-94767205D01*
X168598102Y-94845226D01*
X168798061Y-94885000D01*
X169001939Y-94885000D01*
X169201898Y-94845226D01*
X169390256Y-94767205D01*
X169559774Y-94653937D01*
X169603711Y-94610000D01*
X172396289Y-94610000D01*
X172440226Y-94653937D01*
X172609744Y-94767205D01*
X172798102Y-94845226D01*
X172998061Y-94885000D01*
X173201939Y-94885000D01*
X173401898Y-94845226D01*
X173590256Y-94767205D01*
X173759774Y-94653937D01*
X173803711Y-94610000D01*
X176346289Y-94610000D01*
X176390226Y-94653937D01*
X176559744Y-94767205D01*
X176748102Y-94845226D01*
X176948061Y-94885000D01*
X177151939Y-94885000D01*
X177351898Y-94845226D01*
X177540256Y-94767205D01*
X177709774Y-94653937D01*
X177753711Y-94610000D01*
X180296289Y-94610000D01*
X180340226Y-94653937D01*
X180509744Y-94767205D01*
X180698102Y-94845226D01*
X180898061Y-94885000D01*
X181101939Y-94885000D01*
X181301898Y-94845226D01*
X181490256Y-94767205D01*
X181659774Y-94653937D01*
X181703711Y-94610000D01*
X184346289Y-94610000D01*
X184390226Y-94653937D01*
X184559744Y-94767205D01*
X184748102Y-94845226D01*
X184948061Y-94885000D01*
X185151939Y-94885000D01*
X185351898Y-94845226D01*
X185540256Y-94767205D01*
X185709774Y-94653937D01*
X185753711Y-94610000D01*
X188446289Y-94610000D01*
X188490226Y-94653937D01*
X188659744Y-94767205D01*
X188848102Y-94845226D01*
X189048061Y-94885000D01*
X189251939Y-94885000D01*
X189451898Y-94845226D01*
X189640256Y-94767205D01*
X189809774Y-94653937D01*
X189853711Y-94610000D01*
X192446289Y-94610000D01*
X192490226Y-94653937D01*
X192659744Y-94767205D01*
X192848102Y-94845226D01*
X193048061Y-94885000D01*
X193251939Y-94885000D01*
X193451898Y-94845226D01*
X193640256Y-94767205D01*
X193809774Y-94653937D01*
X193953937Y-94509774D01*
X194067205Y-94340256D01*
X194145226Y-94151898D01*
X194185000Y-93951939D01*
X194185000Y-93889801D01*
X195040029Y-93034773D01*
X195040029Y-94585169D01*
X193160199Y-96465000D01*
X193098061Y-96465000D01*
X192898102Y-96504774D01*
X192709744Y-96582795D01*
X192540226Y-96696063D01*
X192496289Y-96740000D01*
X189853711Y-96740000D01*
X189809774Y-96696063D01*
X189640256Y-96582795D01*
X189451898Y-96504774D01*
X189251939Y-96465000D01*
X189048061Y-96465000D01*
X188848102Y-96504774D01*
X188659744Y-96582795D01*
X188490226Y-96696063D01*
X188446289Y-96740000D01*
X185803711Y-96740000D01*
X185759774Y-96696063D01*
X185590256Y-96582795D01*
X185401898Y-96504774D01*
X185201939Y-96465000D01*
X184998061Y-96465000D01*
X184798102Y-96504774D01*
X184609744Y-96582795D01*
X184440226Y-96696063D01*
X184396289Y-96740000D01*
X181653711Y-96740000D01*
X181609774Y-96696063D01*
X181440256Y-96582795D01*
X181251898Y-96504774D01*
X181051939Y-96465000D01*
X180848061Y-96465000D01*
X180648102Y-96504774D01*
X180459744Y-96582795D01*
X180290226Y-96696063D01*
X180246289Y-96740000D01*
X177753711Y-96740000D01*
X177709774Y-96696063D01*
X177540256Y-96582795D01*
X177351898Y-96504774D01*
X177151939Y-96465000D01*
X176948061Y-96465000D01*
X176748102Y-96504774D01*
X176559744Y-96582795D01*
X176390226Y-96696063D01*
X176346289Y-96740000D01*
X173753711Y-96740000D01*
X173709774Y-96696063D01*
X173540256Y-96582795D01*
X173351898Y-96504774D01*
X173151939Y-96465000D01*
X172948061Y-96465000D01*
X172748102Y-96504774D01*
X172559744Y-96582795D01*
X172390226Y-96696063D01*
X172346289Y-96740000D01*
X169603711Y-96740000D01*
X169559774Y-96696063D01*
X169390256Y-96582795D01*
X169201898Y-96504774D01*
X169001939Y-96465000D01*
X168798061Y-96465000D01*
X168598102Y-96504774D01*
X168409744Y-96582795D01*
X168240226Y-96696063D01*
X168196289Y-96740000D01*
X166103711Y-96740000D01*
X166059774Y-96696063D01*
X165890256Y-96582795D01*
X165701898Y-96504774D01*
X165501939Y-96465000D01*
X165298061Y-96465000D01*
X165098102Y-96504774D01*
X164909744Y-96582795D01*
X164740226Y-96696063D01*
X164596063Y-96840226D01*
X164482795Y-97009744D01*
X164404774Y-97198102D01*
X164365000Y-97398061D01*
X164365000Y-97601939D01*
X164404774Y-97801898D01*
X164482795Y-97990256D01*
X164596063Y-98159774D01*
X164740226Y-98303937D01*
X164909744Y-98417205D01*
X165098102Y-98495226D01*
X165298061Y-98535000D01*
X165501939Y-98535000D01*
X165701898Y-98495226D01*
X165890256Y-98417205D01*
X166059774Y-98303937D01*
X166103711Y-98260000D01*
X168196289Y-98260000D01*
X168240226Y-98303937D01*
X168409744Y-98417205D01*
X168598102Y-98495226D01*
X168798061Y-98535000D01*
X169001939Y-98535000D01*
X169201898Y-98495226D01*
X169390256Y-98417205D01*
X169559774Y-98303937D01*
X169603711Y-98260000D01*
X172346289Y-98260000D01*
X172390226Y-98303937D01*
X172559744Y-98417205D01*
X172748102Y-98495226D01*
X172948061Y-98535000D01*
X173151939Y-98535000D01*
X173351898Y-98495226D01*
X173540256Y-98417205D01*
X173709774Y-98303937D01*
X173753711Y-98260000D01*
X176346289Y-98260000D01*
X176390226Y-98303937D01*
X176559744Y-98417205D01*
X176748102Y-98495226D01*
X176948061Y-98535000D01*
X177151939Y-98535000D01*
X177351898Y-98495226D01*
X177540256Y-98417205D01*
X177709774Y-98303937D01*
X177753711Y-98260000D01*
X180246289Y-98260000D01*
X180290226Y-98303937D01*
X180459744Y-98417205D01*
X180648102Y-98495226D01*
X180848061Y-98535000D01*
X181051939Y-98535000D01*
X181251898Y-98495226D01*
X181440256Y-98417205D01*
X181609774Y-98303937D01*
X181653711Y-98260000D01*
X184396289Y-98260000D01*
X184440226Y-98303937D01*
X184609744Y-98417205D01*
X184798102Y-98495226D01*
X184998061Y-98535000D01*
X185201939Y-98535000D01*
X185401898Y-98495226D01*
X185590256Y-98417205D01*
X185759774Y-98303937D01*
X185803711Y-98260000D01*
X188446289Y-98260000D01*
X188490226Y-98303937D01*
X188659744Y-98417205D01*
X188848102Y-98495226D01*
X189048061Y-98535000D01*
X189251939Y-98535000D01*
X189451898Y-98495226D01*
X189640256Y-98417205D01*
X189809774Y-98303937D01*
X189853711Y-98260000D01*
X192496289Y-98260000D01*
X192540226Y-98303937D01*
X192709744Y-98417205D01*
X192898102Y-98495226D01*
X193098061Y-98535000D01*
X193301939Y-98535000D01*
X193501898Y-98495226D01*
X193690256Y-98417205D01*
X193859774Y-98303937D01*
X194003937Y-98159774D01*
X194117205Y-97990256D01*
X194195226Y-97801898D01*
X194235000Y-97601939D01*
X194235000Y-97539801D01*
X195490036Y-96284766D01*
X195490036Y-97585162D01*
X193210199Y-99865000D01*
X193148061Y-99865000D01*
X192948102Y-99904774D01*
X192759744Y-99982795D01*
X192590226Y-100096063D01*
X192546289Y-100140000D01*
X189853711Y-100140000D01*
X189809774Y-100096063D01*
X189640256Y-99982795D01*
X189451898Y-99904774D01*
X189251939Y-99865000D01*
X189048061Y-99865000D01*
X188848102Y-99904774D01*
X188659744Y-99982795D01*
X188490226Y-100096063D01*
X188446289Y-100140000D01*
X185753711Y-100140000D01*
X185709774Y-100096063D01*
X185540256Y-99982795D01*
X185351898Y-99904774D01*
X185151939Y-99865000D01*
X184948061Y-99865000D01*
X184748102Y-99904774D01*
X184559744Y-99982795D01*
X184390226Y-100096063D01*
X184346289Y-100140000D01*
X181653711Y-100140000D01*
X181609774Y-100096063D01*
X181440256Y-99982795D01*
X181251898Y-99904774D01*
X181051939Y-99865000D01*
X180848061Y-99865000D01*
X180648102Y-99904774D01*
X180459744Y-99982795D01*
X180290226Y-100096063D01*
X180246289Y-100140000D01*
X177703711Y-100140000D01*
X177659774Y-100096063D01*
X177490256Y-99982795D01*
X177301898Y-99904774D01*
X177101939Y-99865000D01*
X176898061Y-99865000D01*
X176698102Y-99904774D01*
X176509744Y-99982795D01*
X176340226Y-100096063D01*
X176296289Y-100140000D01*
X173753711Y-100140000D01*
X173709774Y-100096063D01*
X173540256Y-99982795D01*
X173351898Y-99904774D01*
X173151939Y-99865000D01*
X172948061Y-99865000D01*
X172748102Y-99904774D01*
X172559744Y-99982795D01*
X172390226Y-100096063D01*
X172346289Y-100140000D01*
X169653711Y-100140000D01*
X169609774Y-100096063D01*
X169440256Y-99982795D01*
X169251898Y-99904774D01*
X169051939Y-99865000D01*
X168848061Y-99865000D01*
X168648102Y-99904774D01*
X168459744Y-99982795D01*
X168290226Y-100096063D01*
X168246289Y-100140000D01*
X166303711Y-100140000D01*
X166259774Y-100096063D01*
X166090256Y-99982795D01*
X165901898Y-99904774D01*
X165701939Y-99865000D01*
X165498061Y-99865000D01*
X165298102Y-99904774D01*
X165109744Y-99982795D01*
X164940226Y-100096063D01*
X164796063Y-100240226D01*
X164682795Y-100409744D01*
X164604774Y-100598102D01*
X164565000Y-100798061D01*
X164565000Y-101001939D01*
X164604774Y-101201898D01*
X164682795Y-101390256D01*
X164796063Y-101559774D01*
X164940226Y-101703937D01*
X165109744Y-101817205D01*
X165298102Y-101895226D01*
X165498061Y-101935000D01*
X165701939Y-101935000D01*
X165901898Y-101895226D01*
X166090256Y-101817205D01*
X166259774Y-101703937D01*
X166303711Y-101660000D01*
X168246289Y-101660000D01*
X168290226Y-101703937D01*
X168459744Y-101817205D01*
X168648102Y-101895226D01*
X168848061Y-101935000D01*
X169051939Y-101935000D01*
X169251898Y-101895226D01*
X169440256Y-101817205D01*
X169609774Y-101703937D01*
X169653711Y-101660000D01*
X172346289Y-101660000D01*
X172390226Y-101703937D01*
X172559744Y-101817205D01*
X172748102Y-101895226D01*
X172948061Y-101935000D01*
X173151939Y-101935000D01*
X173351898Y-101895226D01*
X173540256Y-101817205D01*
X173709774Y-101703937D01*
X173753711Y-101660000D01*
X176296289Y-101660000D01*
X176340226Y-101703937D01*
X176509744Y-101817205D01*
X176698102Y-101895226D01*
X176898061Y-101935000D01*
X177101939Y-101935000D01*
X177301898Y-101895226D01*
X177490256Y-101817205D01*
X177659774Y-101703937D01*
X177703711Y-101660000D01*
X180246289Y-101660000D01*
X180290226Y-101703937D01*
X180459744Y-101817205D01*
X180648102Y-101895226D01*
X180848061Y-101935000D01*
X181051939Y-101935000D01*
X181251898Y-101895226D01*
X181440256Y-101817205D01*
X181609774Y-101703937D01*
X181653711Y-101660000D01*
X184346289Y-101660000D01*
X184390226Y-101703937D01*
X184559744Y-101817205D01*
X184748102Y-101895226D01*
X184948061Y-101935000D01*
X185151939Y-101935000D01*
X185351898Y-101895226D01*
X185540256Y-101817205D01*
X185709774Y-101703937D01*
X185753711Y-101660000D01*
X188446289Y-101660000D01*
X188490226Y-101703937D01*
X188659744Y-101817205D01*
X188848102Y-101895226D01*
X189048061Y-101935000D01*
X189251939Y-101935000D01*
X189451898Y-101895226D01*
X189640256Y-101817205D01*
X189809774Y-101703937D01*
X189853711Y-101660000D01*
X192546289Y-101660000D01*
X192590226Y-101703937D01*
X192759744Y-101817205D01*
X192948102Y-101895226D01*
X193148061Y-101935000D01*
X193351939Y-101935000D01*
X193551898Y-101895226D01*
X193740256Y-101817205D01*
X193909774Y-101703937D01*
X194053937Y-101559774D01*
X194167205Y-101390256D01*
X194245226Y-101201898D01*
X194285000Y-101001939D01*
X194285000Y-100939801D01*
X195940047Y-99284755D01*
X195940047Y-100785151D01*
X193210199Y-103515000D01*
X193148061Y-103515000D01*
X192948102Y-103554774D01*
X192759744Y-103632795D01*
X192590226Y-103746063D01*
X192546289Y-103790000D01*
X189903711Y-103790000D01*
X189859774Y-103746063D01*
X189690256Y-103632795D01*
X189501898Y-103554774D01*
X189301939Y-103515000D01*
X189098061Y-103515000D01*
X188898102Y-103554774D01*
X188709744Y-103632795D01*
X188540226Y-103746063D01*
X188496289Y-103790000D01*
X185703711Y-103790000D01*
X185659774Y-103746063D01*
X185490256Y-103632795D01*
X185301898Y-103554774D01*
X185101939Y-103515000D01*
X184898061Y-103515000D01*
X184698102Y-103554774D01*
X184509744Y-103632795D01*
X184340226Y-103746063D01*
X184296289Y-103790000D01*
X181703711Y-103790000D01*
X181659774Y-103746063D01*
X181490256Y-103632795D01*
X181301898Y-103554774D01*
X181101939Y-103515000D01*
X180898061Y-103515000D01*
X180698102Y-103554774D01*
X180509744Y-103632795D01*
X180340226Y-103746063D01*
X180296289Y-103790000D01*
X177753711Y-103790000D01*
X177709774Y-103746063D01*
X177540256Y-103632795D01*
X177351898Y-103554774D01*
X177151939Y-103515000D01*
X176948061Y-103515000D01*
X176748102Y-103554774D01*
X176559744Y-103632795D01*
X176390226Y-103746063D01*
X176346289Y-103790000D01*
X173753711Y-103790000D01*
X173709774Y-103746063D01*
X173540256Y-103632795D01*
X173351898Y-103554774D01*
X173151939Y-103515000D01*
X172948061Y-103515000D01*
X172748102Y-103554774D01*
X172559744Y-103632795D01*
X172390226Y-103746063D01*
X172346289Y-103790000D01*
X169653711Y-103790000D01*
X169609774Y-103746063D01*
X169440256Y-103632795D01*
X169251898Y-103554774D01*
X169051939Y-103515000D01*
X168848061Y-103515000D01*
X168648102Y-103554774D01*
X168459744Y-103632795D01*
X168290226Y-103746063D01*
X168246289Y-103790000D01*
X166003711Y-103790000D01*
X165959774Y-103746063D01*
X165790256Y-103632795D01*
X165601898Y-103554774D01*
X165401939Y-103515000D01*
X165198061Y-103515000D01*
X164998102Y-103554774D01*
X164809744Y-103632795D01*
X164640226Y-103746063D01*
X164496063Y-103890226D01*
X164382795Y-104059744D01*
X164304774Y-104248102D01*
X164265000Y-104448061D01*
X164265000Y-104651939D01*
X164304774Y-104851898D01*
X164382795Y-105040256D01*
X164496063Y-105209774D01*
X164640226Y-105353937D01*
X164809744Y-105467205D01*
X164998102Y-105545226D01*
X165198061Y-105585000D01*
X165401939Y-105585000D01*
X165601898Y-105545226D01*
X165790256Y-105467205D01*
X165959774Y-105353937D01*
X166003711Y-105310000D01*
X168246289Y-105310000D01*
X168290226Y-105353937D01*
X168459744Y-105467205D01*
X168648102Y-105545226D01*
X168848061Y-105585000D01*
X169051939Y-105585000D01*
X169251898Y-105545226D01*
X169440256Y-105467205D01*
X169609774Y-105353937D01*
X169653711Y-105310000D01*
X172346289Y-105310000D01*
X172390226Y-105353937D01*
X172559744Y-105467205D01*
X172748102Y-105545226D01*
X172948061Y-105585000D01*
X173151939Y-105585000D01*
X173351898Y-105545226D01*
X173540256Y-105467205D01*
X173709774Y-105353937D01*
X173753711Y-105310000D01*
X176346289Y-105310000D01*
X176390226Y-105353937D01*
X176559744Y-105467205D01*
X176748102Y-105545226D01*
X176948061Y-105585000D01*
X177151939Y-105585000D01*
X177351898Y-105545226D01*
X177540256Y-105467205D01*
X177709774Y-105353937D01*
X177753711Y-105310000D01*
X180296289Y-105310000D01*
X180340226Y-105353937D01*
X180509744Y-105467205D01*
X180698102Y-105545226D01*
X180898061Y-105585000D01*
X181101939Y-105585000D01*
X181301898Y-105545226D01*
X181490256Y-105467205D01*
X181659774Y-105353937D01*
X181703711Y-105310000D01*
X184296289Y-105310000D01*
X184340226Y-105353937D01*
X184509744Y-105467205D01*
X184698102Y-105545226D01*
X184898061Y-105585000D01*
X185101939Y-105585000D01*
X185301898Y-105545226D01*
X185490256Y-105467205D01*
X185659774Y-105353937D01*
X185703711Y-105310000D01*
X188496289Y-105310000D01*
X188540226Y-105353937D01*
X188709744Y-105467205D01*
X188898102Y-105545226D01*
X189098061Y-105585000D01*
X189301939Y-105585000D01*
X189501898Y-105545226D01*
X189690256Y-105467205D01*
X189859774Y-105353937D01*
X189903711Y-105310000D01*
X192546289Y-105310000D01*
X192590226Y-105353937D01*
X192759744Y-105467205D01*
X192948102Y-105545226D01*
X193148061Y-105585000D01*
X193351939Y-105585000D01*
X193551898Y-105545226D01*
X193740256Y-105467205D01*
X193909774Y-105353937D01*
X194053937Y-105209774D01*
X194167205Y-105040256D01*
X194245226Y-104851898D01*
X194285000Y-104651939D01*
X194285000Y-104589801D01*
X196390055Y-102484747D01*
X196390055Y-103785143D01*
X193210199Y-106965000D01*
X193148061Y-106965000D01*
X192948102Y-107004774D01*
X192759744Y-107082795D01*
X192590226Y-107196063D01*
X192546289Y-107240000D01*
X189953711Y-107240000D01*
X189909774Y-107196063D01*
X189740256Y-107082795D01*
X189551898Y-107004774D01*
X189351939Y-106965000D01*
X189148061Y-106965000D01*
X188948102Y-107004774D01*
X188759744Y-107082795D01*
X188590226Y-107196063D01*
X188546289Y-107240000D01*
X185703711Y-107240000D01*
X185659774Y-107196063D01*
X185490256Y-107082795D01*
X185301898Y-107004774D01*
X185101939Y-106965000D01*
X184898061Y-106965000D01*
X184698102Y-107004774D01*
X184509744Y-107082795D01*
X184340226Y-107196063D01*
X184296289Y-107240000D01*
X181703711Y-107240000D01*
X181659774Y-107196063D01*
X181490256Y-107082795D01*
X181301898Y-107004774D01*
X181101939Y-106965000D01*
X180898061Y-106965000D01*
X180698102Y-107004774D01*
X180509744Y-107082795D01*
X180340226Y-107196063D01*
X180296289Y-107240000D01*
X177653711Y-107240000D01*
X177609774Y-107196063D01*
X177440256Y-107082795D01*
X177251898Y-107004774D01*
X177051939Y-106965000D01*
X176848061Y-106965000D01*
X176648102Y-107004774D01*
X176459744Y-107082795D01*
X176290226Y-107196063D01*
X176246289Y-107240000D01*
X173703711Y-107240000D01*
X173659774Y-107196063D01*
X173490256Y-107082795D01*
X173301898Y-107004774D01*
X173101939Y-106965000D01*
X172898061Y-106965000D01*
X172698102Y-107004774D01*
X172509744Y-107082795D01*
X172340226Y-107196063D01*
X172296289Y-107240000D01*
X169703711Y-107240000D01*
X169659774Y-107196063D01*
X169490256Y-107082795D01*
X169301898Y-107004774D01*
X169101939Y-106965000D01*
X168898061Y-106965000D01*
X168698102Y-107004774D01*
X168509744Y-107082795D01*
X168340226Y-107196063D01*
X168296289Y-107240000D01*
X165953711Y-107240000D01*
X165909774Y-107196063D01*
X165740256Y-107082795D01*
X165551898Y-107004774D01*
X165351939Y-106965000D01*
X165148061Y-106965000D01*
X164948102Y-107004774D01*
X164759744Y-107082795D01*
X164590226Y-107196063D01*
X164446063Y-107340226D01*
X164332795Y-107509744D01*
X164254774Y-107698102D01*
X164215000Y-107898061D01*
X164215000Y-108101939D01*
X164254774Y-108301898D01*
X164332795Y-108490256D01*
X164446063Y-108659774D01*
X164590226Y-108803937D01*
X164759744Y-108917205D01*
X164948102Y-108995226D01*
X165148061Y-109035000D01*
X165351939Y-109035000D01*
X165551898Y-108995226D01*
X165740256Y-108917205D01*
X165909774Y-108803937D01*
X165953711Y-108760000D01*
X168296289Y-108760000D01*
X168340226Y-108803937D01*
X168509744Y-108917205D01*
X168698102Y-108995226D01*
X168898061Y-109035000D01*
X169101939Y-109035000D01*
X169301898Y-108995226D01*
X169490256Y-108917205D01*
X169659774Y-108803937D01*
X169703711Y-108760000D01*
X172296289Y-108760000D01*
X172340226Y-108803937D01*
X172509744Y-108917205D01*
X172698102Y-108995226D01*
X172898061Y-109035000D01*
X173101939Y-109035000D01*
X173301898Y-108995226D01*
X173490256Y-108917205D01*
X173659774Y-108803937D01*
X173703711Y-108760000D01*
X176246289Y-108760000D01*
X176290226Y-108803937D01*
X176459744Y-108917205D01*
X176648102Y-108995226D01*
X176848061Y-109035000D01*
X177051939Y-109035000D01*
X177251898Y-108995226D01*
X177440256Y-108917205D01*
X177609774Y-108803937D01*
X177653711Y-108760000D01*
X180296289Y-108760000D01*
X180340226Y-108803937D01*
X180509744Y-108917205D01*
X180698102Y-108995226D01*
X180898061Y-109035000D01*
X181101939Y-109035000D01*
X181301898Y-108995226D01*
X181490256Y-108917205D01*
X181659774Y-108803937D01*
X181703711Y-108760000D01*
X184296289Y-108760000D01*
X184340226Y-108803937D01*
X184509744Y-108917205D01*
X184698102Y-108995226D01*
X184898061Y-109035000D01*
X185101939Y-109035000D01*
X185301898Y-108995226D01*
X185490256Y-108917205D01*
X185659774Y-108803937D01*
X185703711Y-108760000D01*
X188546289Y-108760000D01*
X188590226Y-108803937D01*
X188759744Y-108917205D01*
X188948102Y-108995226D01*
X189148061Y-109035000D01*
X189351939Y-109035000D01*
X189551898Y-108995226D01*
X189740256Y-108917205D01*
X189909774Y-108803937D01*
X189953711Y-108760000D01*
X192546289Y-108760000D01*
X192590226Y-108803937D01*
X192759744Y-108917205D01*
X192948102Y-108995226D01*
X193148061Y-109035000D01*
X193351939Y-109035000D01*
X193551898Y-108995226D01*
X193740256Y-108917205D01*
X193909774Y-108803937D01*
X194053937Y-108659774D01*
X194167205Y-108490256D01*
X194245226Y-108301898D01*
X194285000Y-108101939D01*
X194285000Y-108039801D01*
X197661059Y-104663743D01*
X197690056Y-104639946D01*
X197785029Y-104524221D01*
X197855601Y-104392192D01*
X197899058Y-104248931D01*
X197910055Y-104137278D01*
X197910055Y-104137270D01*
X197913731Y-104099945D01*
X197910055Y-104062620D01*
X197910055Y-67129461D01*
X197913731Y-67092136D01*
X197910055Y-67054811D01*
X197910055Y-67054803D01*
X197899058Y-66943150D01*
X197855601Y-66799889D01*
X197819972Y-66733232D01*
X197915134Y-66655134D01*
X198100706Y-66429014D01*
X198238599Y-66171034D01*
X198323513Y-65891111D01*
X198352185Y-65600000D01*
X198323513Y-65308889D01*
X198238599Y-65028966D01*
X198100706Y-64770986D01*
X197915134Y-64544866D01*
X197689014Y-64359294D01*
X197431034Y-64221401D01*
X197151111Y-64136487D01*
X196932950Y-64115000D01*
X196787050Y-64115000D01*
X196568889Y-64136487D01*
X196288966Y-64221401D01*
X196030986Y-64359294D01*
X195804866Y-64544866D01*
X195619294Y-64770986D01*
X195590000Y-64825791D01*
X195560706Y-64770986D01*
X195375134Y-64544866D01*
X195149014Y-64359294D01*
X194891034Y-64221401D01*
X194611111Y-64136487D01*
X194392950Y-64115000D01*
X194247050Y-64115000D01*
X194028889Y-64136487D01*
X193748966Y-64221401D01*
X193490986Y-64359294D01*
X193264866Y-64544866D01*
X193079294Y-64770986D01*
X193050000Y-64825791D01*
X193020706Y-64770986D01*
X192835134Y-64544866D01*
X192609014Y-64359294D01*
X192351034Y-64221401D01*
X192071111Y-64136487D01*
X191852950Y-64115000D01*
X191707050Y-64115000D01*
X191488889Y-64136487D01*
X191208966Y-64221401D01*
X190950986Y-64359294D01*
X190724866Y-64544866D01*
X190539294Y-64770986D01*
X190510000Y-64825791D01*
X190480706Y-64770986D01*
X190295134Y-64544866D01*
X190069014Y-64359294D01*
X189811034Y-64221401D01*
X189531111Y-64136487D01*
X189312950Y-64115000D01*
X189167050Y-64115000D01*
X188948889Y-64136487D01*
X188668966Y-64221401D01*
X188410986Y-64359294D01*
X188184866Y-64544866D01*
X187999294Y-64770986D01*
X187970000Y-64825791D01*
X187940706Y-64770986D01*
X187755134Y-64544866D01*
X187529014Y-64359294D01*
X187271034Y-64221401D01*
X186991111Y-64136487D01*
X186772950Y-64115000D01*
X186627050Y-64115000D01*
X186408889Y-64136487D01*
X186128966Y-64221401D01*
X185870986Y-64359294D01*
X185644866Y-64544866D01*
X185459294Y-64770986D01*
X185430000Y-64825791D01*
X185400706Y-64770986D01*
X185215134Y-64544866D01*
X184989014Y-64359294D01*
X184731034Y-64221401D01*
X184451111Y-64136487D01*
X184232950Y-64115000D01*
X184087050Y-64115000D01*
X183868889Y-64136487D01*
X183588966Y-64221401D01*
X183330986Y-64359294D01*
X183104866Y-64544866D01*
X182919294Y-64770986D01*
X182890000Y-64825791D01*
X182860706Y-64770986D01*
X182675134Y-64544866D01*
X182449014Y-64359294D01*
X182191034Y-64221401D01*
X181911111Y-64136487D01*
X181692950Y-64115000D01*
X181547050Y-64115000D01*
X181328889Y-64136487D01*
X181048966Y-64221401D01*
X180790986Y-64359294D01*
X180564866Y-64544866D01*
X180379294Y-64770986D01*
X180350000Y-64825791D01*
X180320706Y-64770986D01*
X180135134Y-64544866D01*
X179909014Y-64359294D01*
X179651034Y-64221401D01*
X179371111Y-64136487D01*
X179152950Y-64115000D01*
X179007050Y-64115000D01*
X178788889Y-64136487D01*
X178508966Y-64221401D01*
X178250986Y-64359294D01*
X178024866Y-64544866D01*
X177839294Y-64770986D01*
X177810000Y-64825791D01*
X177780706Y-64770986D01*
X177595134Y-64544866D01*
X177369014Y-64359294D01*
X177111034Y-64221401D01*
X176831111Y-64136487D01*
X176612950Y-64115000D01*
X176467050Y-64115000D01*
X176248889Y-64136487D01*
X175968966Y-64221401D01*
X175710986Y-64359294D01*
X175484866Y-64544866D01*
X175299294Y-64770986D01*
X175270000Y-64825791D01*
X175240706Y-64770986D01*
X175055134Y-64544866D01*
X174829014Y-64359294D01*
X174571034Y-64221401D01*
X174291111Y-64136487D01*
X174072950Y-64115000D01*
X173927050Y-64115000D01*
X173708889Y-64136487D01*
X173428966Y-64221401D01*
X173170986Y-64359294D01*
X173095252Y-64421447D01*
X172587804Y-63914001D01*
X172564002Y-63884998D01*
X172448277Y-63790025D01*
X172316248Y-63719453D01*
X172172987Y-63675996D01*
X172061334Y-63664999D01*
X172061323Y-63664999D01*
X172024001Y-63661323D01*
X171986679Y-63664999D01*
X167592323Y-63664999D01*
X167555000Y-63661323D01*
X167517677Y-63664999D01*
X167517668Y-63664999D01*
X167406015Y-63675996D01*
X167262754Y-63719453D01*
X167130725Y-63790025D01*
X167015000Y-63884998D01*
X166991197Y-63914002D01*
X166745996Y-64159203D01*
X166671111Y-64136487D01*
X166452950Y-64115000D01*
X166307050Y-64115000D01*
X166088889Y-64136487D01*
X165808966Y-64221401D01*
X165550986Y-64359294D01*
X165324866Y-64544866D01*
X165139294Y-64770986D01*
X165110000Y-64825791D01*
X165080706Y-64770986D01*
X164895134Y-64544866D01*
X164669014Y-64359294D01*
X164411034Y-64221401D01*
X164131111Y-64136487D01*
X163912950Y-64115000D01*
X163767050Y-64115000D01*
X163548889Y-64136487D01*
X163268966Y-64221401D01*
X163010986Y-64359294D01*
X162784866Y-64544866D01*
X162599294Y-64770986D01*
X162570000Y-64825791D01*
X162540706Y-64770986D01*
X162355134Y-64544866D01*
X162129014Y-64359294D01*
X161871034Y-64221401D01*
X161591111Y-64136487D01*
X161372950Y-64115000D01*
X161227050Y-64115000D01*
X161008889Y-64136487D01*
X160728966Y-64221401D01*
X160470986Y-64359294D01*
X160244866Y-64544866D01*
X160059294Y-64770986D01*
X160030000Y-64825791D01*
X160000706Y-64770986D01*
X159815134Y-64544866D01*
X159589014Y-64359294D01*
X159331034Y-64221401D01*
X159051111Y-64136487D01*
X158832950Y-64115000D01*
X158687050Y-64115000D01*
X158468889Y-64136487D01*
X158188966Y-64221401D01*
X157930986Y-64359294D01*
X157704866Y-64544866D01*
X157519294Y-64770986D01*
X157484799Y-64835523D01*
X157415178Y-64718645D01*
X157220269Y-64502412D01*
X156986920Y-64328359D01*
X156724099Y-64203175D01*
X156576890Y-64158524D01*
X156347000Y-64279845D01*
X156347000Y-65473000D01*
X156367000Y-65473000D01*
X156367000Y-65727000D01*
X156347000Y-65727000D01*
X156347000Y-66920155D01*
X156576890Y-67041476D01*
X156724099Y-66996825D01*
X156986920Y-66871641D01*
X157220269Y-66697588D01*
X157415178Y-66481355D01*
X157484799Y-66364477D01*
X157519294Y-66429014D01*
X157704866Y-66655134D01*
X157930986Y-66840706D01*
X158188966Y-66978599D01*
X158468889Y-67063513D01*
X158644399Y-67080799D01*
X156760199Y-68965000D01*
X156698061Y-68965000D01*
X156498102Y-69004774D01*
X156309744Y-69082795D01*
X156140226Y-69196063D01*
X155996063Y-69340226D01*
X155882795Y-69509744D01*
X155804774Y-69698102D01*
X155765000Y-69898061D01*
X154440000Y-69898061D01*
X154440000Y-67088072D01*
X154530000Y-67088072D01*
X154654482Y-67075812D01*
X154774180Y-67039502D01*
X154884494Y-66980537D01*
X154981185Y-66901185D01*
X155060537Y-66804494D01*
X155119502Y-66694180D01*
X155143966Y-66613534D01*
X155219731Y-66697588D01*
X155453080Y-66871641D01*
X155715901Y-66996825D01*
X155863110Y-67041476D01*
X156093000Y-66920155D01*
X156093000Y-65727000D01*
X156073000Y-65727000D01*
X156073000Y-65473000D01*
X156093000Y-65473000D01*
X156093000Y-64279845D01*
X155863110Y-64158524D01*
X155715901Y-64203175D01*
X155453080Y-64328359D01*
X155219731Y-64502412D01*
X155143966Y-64586466D01*
X155119502Y-64505820D01*
X155060537Y-64395506D01*
X154981185Y-64298815D01*
X154884494Y-64219463D01*
X154774180Y-64160498D01*
X154654482Y-64124188D01*
X154530000Y-64111928D01*
X152830000Y-64111928D01*
X152705518Y-64124188D01*
X152585820Y-64160498D01*
X152475506Y-64219463D01*
X152378815Y-64298815D01*
X152299463Y-64395506D01*
X152240498Y-64505820D01*
X152204188Y-64625518D01*
X152191928Y-64750000D01*
X152191928Y-66450000D01*
X152204188Y-66574482D01*
X152240498Y-66694180D01*
X152299463Y-66804494D01*
X152378815Y-66901185D01*
X152475506Y-66980537D01*
X152585820Y-67039502D01*
X152705518Y-67075812D01*
X152830000Y-67088072D01*
X152920000Y-67088072D01*
X152920001Y-70055197D01*
X150110199Y-72865000D01*
X150048061Y-72865000D01*
X149848102Y-72904774D01*
X149659744Y-72982795D01*
X149490226Y-73096063D01*
X149346063Y-73240226D01*
X149232795Y-73409744D01*
X149154774Y-73598102D01*
X149115000Y-73798061D01*
X149115000Y-74001939D01*
X149154774Y-74201898D01*
X149160483Y-74215682D01*
X142029801Y-67085000D01*
X142082950Y-67085000D01*
X142301111Y-67063513D01*
X142581034Y-66978599D01*
X142839014Y-66840706D01*
X143065134Y-66655134D01*
X143250706Y-66429014D01*
X143280000Y-66374209D01*
X143309294Y-66429014D01*
X143494866Y-66655134D01*
X143720986Y-66840706D01*
X143978966Y-66978599D01*
X144258889Y-67063513D01*
X144477050Y-67085000D01*
X144622950Y-67085000D01*
X144841111Y-67063513D01*
X145121034Y-66978599D01*
X145379014Y-66840706D01*
X145605134Y-66655134D01*
X145629607Y-66625313D01*
X145650498Y-66694180D01*
X145709463Y-66804494D01*
X145788815Y-66901185D01*
X145885506Y-66980537D01*
X145995820Y-67039502D01*
X146115518Y-67075812D01*
X146240000Y-67088072D01*
X147940000Y-67088072D01*
X148064482Y-67075812D01*
X148184180Y-67039502D01*
X148294494Y-66980537D01*
X148391185Y-66901185D01*
X148470537Y-66804494D01*
X148529502Y-66694180D01*
X148565812Y-66574482D01*
X148578072Y-66450000D01*
X148578072Y-64750000D01*
X148565812Y-64625518D01*
X148529502Y-64505820D01*
X148470537Y-64395506D01*
X148391185Y-64298815D01*
X148294494Y-64219463D01*
X148184180Y-64160498D01*
X148064482Y-64124188D01*
X147940000Y-64111928D01*
X146240000Y-64111928D01*
X146115518Y-64124188D01*
X145995820Y-64160498D01*
X145885506Y-64219463D01*
X145788815Y-64298815D01*
X145709463Y-64395506D01*
X145650498Y-64505820D01*
X145629607Y-64574687D01*
X145605134Y-64544866D01*
X145379014Y-64359294D01*
X145121034Y-64221401D01*
X144841111Y-64136487D01*
X144622950Y-64115000D01*
X144477050Y-64115000D01*
X144258889Y-64136487D01*
X143978966Y-64221401D01*
X143720986Y-64359294D01*
X143494866Y-64544866D01*
X143309294Y-64770986D01*
X143280000Y-64825791D01*
X143250706Y-64770986D01*
X143065134Y-64544866D01*
X142839014Y-64359294D01*
X142581034Y-64221401D01*
X142301111Y-64136487D01*
X142082950Y-64115000D01*
X141937050Y-64115000D01*
X141718889Y-64136487D01*
X141438966Y-64221401D01*
X141180986Y-64359294D01*
X140954866Y-64544866D01*
X140769294Y-64770986D01*
X140740000Y-64825791D01*
X140710706Y-64770986D01*
X140525134Y-64544866D01*
X140299014Y-64359294D01*
X140041034Y-64221401D01*
X139761111Y-64136487D01*
X139542950Y-64115000D01*
X139397050Y-64115000D01*
X139178889Y-64136487D01*
X138898966Y-64221401D01*
X138640986Y-64359294D01*
X138414866Y-64544866D01*
X138229294Y-64770986D01*
X138200000Y-64825791D01*
X138170706Y-64770986D01*
X137985134Y-64544866D01*
X137759014Y-64359294D01*
X137501034Y-64221401D01*
X137221111Y-64136487D01*
X137002950Y-64115000D01*
X136857050Y-64115000D01*
X136638889Y-64136487D01*
X136358966Y-64221401D01*
X136100986Y-64359294D01*
X135874866Y-64544866D01*
X135689294Y-64770986D01*
X135660000Y-64825791D01*
X135630706Y-64770986D01*
X135445134Y-64544866D01*
X135219014Y-64359294D01*
X134961034Y-64221401D01*
X134681111Y-64136487D01*
X134462950Y-64115000D01*
X134317050Y-64115000D01*
X134098889Y-64136487D01*
X133818966Y-64221401D01*
X133560986Y-64359294D01*
X133334866Y-64544866D01*
X133149294Y-64770986D01*
X133120000Y-64825791D01*
X133090706Y-64770986D01*
X132905134Y-64544866D01*
X132679014Y-64359294D01*
X132421034Y-64221401D01*
X132141111Y-64136487D01*
X131922950Y-64115000D01*
X131777050Y-64115000D01*
X131558889Y-64136487D01*
X131278966Y-64221401D01*
X131020986Y-64359294D01*
X130794866Y-64544866D01*
X130609294Y-64770986D01*
X130580000Y-64825791D01*
X130550706Y-64770986D01*
X130365134Y-64544866D01*
X130139014Y-64359294D01*
X129881034Y-64221401D01*
X129601111Y-64136487D01*
X129382950Y-64115000D01*
X129237050Y-64115000D01*
X129018889Y-64136487D01*
X128738966Y-64221401D01*
X128480986Y-64359294D01*
X128254866Y-64544866D01*
X128069294Y-64770986D01*
X128040000Y-64825791D01*
X128010706Y-64770986D01*
X127825134Y-64544866D01*
X127599014Y-64359294D01*
X127341034Y-64221401D01*
X127061111Y-64136487D01*
X126842950Y-64115000D01*
X126697050Y-64115000D01*
X126478889Y-64136487D01*
X126198966Y-64221401D01*
X125940986Y-64359294D01*
X125714866Y-64544866D01*
X125529294Y-64770986D01*
X125500000Y-64825791D01*
X125470706Y-64770986D01*
X125285134Y-64544866D01*
X125059014Y-64359294D01*
X124801034Y-64221401D01*
X124521111Y-64136487D01*
X124302950Y-64115000D01*
X124157050Y-64115000D01*
X123938889Y-64136487D01*
X123658966Y-64221401D01*
X123400986Y-64359294D01*
X123174866Y-64544866D01*
X122989294Y-64770986D01*
X122954799Y-64835523D01*
X122885178Y-64718645D01*
X122690269Y-64502412D01*
X122456920Y-64328359D01*
X122194099Y-64203175D01*
X122046890Y-64158524D01*
X121817000Y-64279845D01*
X121563000Y-64279845D01*
X121333110Y-64158524D01*
X121185901Y-64203175D01*
X120923080Y-64328359D01*
X120689731Y-64502412D01*
X120494822Y-64718645D01*
X120425201Y-64835523D01*
X120390706Y-64770986D01*
X120205134Y-64544866D01*
X119979014Y-64359294D01*
X119721034Y-64221401D01*
X119441111Y-64136487D01*
X119222950Y-64115000D01*
X119077050Y-64115000D01*
X118858889Y-64136487D01*
X118578966Y-64221401D01*
X118320986Y-64359294D01*
X118094866Y-64544866D01*
X117909294Y-64770986D01*
X117771401Y-65028966D01*
X117686487Y-65308889D01*
X117657815Y-65600000D01*
X116460000Y-65600000D01*
X116460000Y-62932276D01*
X116463866Y-62892848D01*
X116465944Y-62885964D01*
X116469321Y-62879613D01*
X116473860Y-62874048D01*
X116479400Y-62869464D01*
X116485729Y-62866042D01*
X116492592Y-62863918D01*
X116529867Y-62860000D01*
X198767724Y-62860000D01*
X198845999Y-62867675D01*
X198845999Y-62867675D01*
G37*
X198845999Y-62867675D02*
X198890250Y-62881035D01*
X198931063Y-62902736D01*
X198966883Y-62931949D01*
X198996347Y-62967566D01*
X199018328Y-63008220D01*
X199031997Y-63052377D01*
X199040000Y-63128518D01*
X199040001Y-109467714D01*
X199036134Y-109507152D01*
X199034055Y-109514038D01*
X199030680Y-109520386D01*
X199026140Y-109525953D01*
X199020600Y-109530536D01*
X199014271Y-109533958D01*
X199007408Y-109536082D01*
X198970133Y-109540000D01*
X116460000Y-109540000D01*
X116460000Y-65600000D01*
X117657815Y-65600000D01*
X117686487Y-65891111D01*
X117771401Y-66171034D01*
X117909294Y-66429014D01*
X118094866Y-66655134D01*
X118320986Y-66840706D01*
X118578966Y-66978599D01*
X118858889Y-67063513D01*
X119077050Y-67085000D01*
X119222950Y-67085000D01*
X119441111Y-67063513D01*
X119721034Y-66978599D01*
X119979014Y-66840706D01*
X120205134Y-66655134D01*
X120390706Y-66429014D01*
X120425201Y-66364477D01*
X120494822Y-66481355D01*
X120689731Y-66697588D01*
X120923080Y-66871641D01*
X121185901Y-66996825D01*
X121333110Y-67041476D01*
X121563000Y-66920155D01*
X121563000Y-65727000D01*
X121543000Y-65727000D01*
X121543000Y-65473000D01*
X121563000Y-65473000D01*
X121563000Y-64279845D01*
X121817000Y-64279845D01*
X121817000Y-65473000D01*
X121837000Y-65473000D01*
X121837000Y-65727000D01*
X121817000Y-65727000D01*
X121817000Y-66920155D01*
X122046890Y-67041476D01*
X122194099Y-66996825D01*
X122456920Y-66871641D01*
X122690269Y-66697588D01*
X122885178Y-66481355D01*
X122954799Y-66364477D01*
X122989294Y-66429014D01*
X123174866Y-66655134D01*
X123400986Y-66840706D01*
X123658966Y-66978599D01*
X123938889Y-67063513D01*
X124157050Y-67085000D01*
X124302950Y-67085000D01*
X124521111Y-67063513D01*
X124801034Y-66978599D01*
X125059014Y-66840706D01*
X125285134Y-66655134D01*
X125470706Y-66429014D01*
X125500000Y-66374209D01*
X125529294Y-66429014D01*
X125714866Y-66655134D01*
X125940986Y-66840706D01*
X126198966Y-66978599D01*
X126478889Y-67063513D01*
X126697050Y-67085000D01*
X126842950Y-67085000D01*
X127061111Y-67063513D01*
X127341034Y-66978599D01*
X127599014Y-66840706D01*
X127825134Y-66655134D01*
X128010706Y-66429014D01*
X128040000Y-66374209D01*
X128069294Y-66429014D01*
X128254866Y-66655134D01*
X128480986Y-66840706D01*
X128738966Y-66978599D01*
X129018889Y-67063513D01*
X129237050Y-67085000D01*
X129382950Y-67085000D01*
X129601111Y-67063513D01*
X129881034Y-66978599D01*
X130139014Y-66840706D01*
X130365134Y-66655134D01*
X130550706Y-66429014D01*
X130580000Y-66374209D01*
X130609294Y-66429014D01*
X130794866Y-66655134D01*
X131020986Y-66840706D01*
X131090001Y-66877595D01*
X131090000Y-84262678D01*
X131086324Y-84300000D01*
X131090000Y-84337322D01*
X131090000Y-84337332D01*
X131100997Y-84448985D01*
X131133087Y-84554774D01*
X131144454Y-84592246D01*
X131215026Y-84724276D01*
X131254871Y-84772826D01*
X131309999Y-84840001D01*
X131339003Y-84863804D01*
X132065000Y-85589802D01*
X132065000Y-85651939D01*
X132104774Y-85851898D01*
X132182795Y-86040256D01*
X132296063Y-86209774D01*
X132440226Y-86353937D01*
X132609744Y-86467205D01*
X132798102Y-86545226D01*
X132998061Y-86585000D01*
X133201939Y-86585000D01*
X133401898Y-86545226D01*
X133590256Y-86467205D01*
X133759774Y-86353937D01*
X133903937Y-86209774D01*
X134017205Y-86040256D01*
X134095226Y-85851898D01*
X134135000Y-85651939D01*
X134135000Y-85448061D01*
X134095226Y-85248102D01*
X134017205Y-85059744D01*
X133903937Y-84890226D01*
X133759774Y-84746063D01*
X133590256Y-84632795D01*
X133401898Y-84554774D01*
X133201939Y-84515000D01*
X133139802Y-84515000D01*
X132610000Y-83985199D01*
X132610000Y-80498061D01*
X149115000Y-80498061D01*
X149115000Y-80701939D01*
X149154774Y-80901898D01*
X149232795Y-81090256D01*
X149346063Y-81259774D01*
X149490226Y-81403937D01*
X149659744Y-81517205D01*
X149848102Y-81595226D01*
X150048061Y-81635000D01*
X150251939Y-81635000D01*
X150451898Y-81595226D01*
X150640256Y-81517205D01*
X150809774Y-81403937D01*
X150853711Y-81360000D01*
X157426549Y-81360000D01*
X157454774Y-81501898D01*
X157532795Y-81690256D01*
X157646063Y-81859774D01*
X157790226Y-82003937D01*
X157959744Y-82117205D01*
X158148102Y-82195226D01*
X158348061Y-82235000D01*
X158551939Y-82235000D01*
X158751898Y-82195226D01*
X158940256Y-82117205D01*
X159109774Y-82003937D01*
X159253937Y-81859774D01*
X159367205Y-81690256D01*
X159445226Y-81501898D01*
X159485000Y-81301939D01*
X159485000Y-81098061D01*
X159445226Y-80898102D01*
X159367205Y-80709744D01*
X159253937Y-80540226D01*
X159109774Y-80396063D01*
X158940256Y-80282795D01*
X158751898Y-80204774D01*
X158551939Y-80165000D01*
X158489801Y-80165000D01*
X158413803Y-80089002D01*
X158390001Y-80059999D01*
X158274276Y-79965026D01*
X158142247Y-79894454D01*
X157998986Y-79850997D01*
X157887333Y-79840000D01*
X157887322Y-79840000D01*
X157850000Y-79836324D01*
X157812678Y-79840000D01*
X150853711Y-79840000D01*
X150809774Y-79796063D01*
X150640256Y-79682795D01*
X150451898Y-79604774D01*
X150251939Y-79565000D01*
X150048061Y-79565000D01*
X149848102Y-79604774D01*
X149659744Y-79682795D01*
X149490226Y-79796063D01*
X149346063Y-79940226D01*
X149232795Y-80109744D01*
X149154774Y-80298102D01*
X149115000Y-80498061D01*
X132610000Y-80498061D01*
X132610000Y-66877595D01*
X132679014Y-66840706D01*
X132905134Y-66655134D01*
X133090706Y-66429014D01*
X133120000Y-66374209D01*
X133149294Y-66429014D01*
X133334866Y-66655134D01*
X133560986Y-66840706D01*
X133818966Y-66978599D01*
X134098889Y-67063513D01*
X134317050Y-67085000D01*
X134462950Y-67085000D01*
X134681111Y-67063513D01*
X134961034Y-66978599D01*
X135219014Y-66840706D01*
X135445134Y-66655134D01*
X135630706Y-66429014D01*
X135660000Y-66374209D01*
X135689294Y-66429014D01*
X135874866Y-66655134D01*
X136100986Y-66840706D01*
X136358966Y-66978599D01*
X136638889Y-67063513D01*
X136857050Y-67085000D01*
X137002950Y-67085000D01*
X137221111Y-67063513D01*
X137295996Y-67040797D01*
X148069790Y-77814592D01*
X148093588Y-77843590D01*
X148209313Y-77938563D01*
X148341342Y-78009135D01*
X148484603Y-78052592D01*
X148596256Y-78063589D01*
X148596265Y-78063589D01*
X148633588Y-78067265D01*
X148670911Y-78063589D01*
X158664586Y-78063589D01*
X158708523Y-78107526D01*
X158878041Y-78220794D01*
X159066399Y-78298815D01*
X159266358Y-78338589D01*
X159470236Y-78338589D01*
X159670195Y-78298815D01*
X159858553Y-78220794D01*
X160028071Y-78107526D01*
X160172234Y-77963363D01*
X160285502Y-77793845D01*
X160363523Y-77605487D01*
X160403297Y-77405528D01*
X160403297Y-77201650D01*
X160363523Y-77001691D01*
X160285502Y-76813333D01*
X160209287Y-76699270D01*
X160245226Y-76612507D01*
X160285000Y-76412548D01*
X160285000Y-76208670D01*
X160245226Y-76008711D01*
X160167205Y-75820353D01*
X160053937Y-75650835D01*
X159909774Y-75506672D01*
X159740256Y-75393404D01*
X159551898Y-75315383D01*
X159351939Y-75275609D01*
X159148061Y-75275609D01*
X158948102Y-75315383D01*
X158759744Y-75393404D01*
X158590226Y-75506672D01*
X158546289Y-75550609D01*
X150495411Y-75550609D01*
X149834319Y-74889517D01*
X149848102Y-74895226D01*
X150048061Y-74935000D01*
X150251939Y-74935000D01*
X150451898Y-74895226D01*
X150640256Y-74817205D01*
X150809774Y-74703937D01*
X150953937Y-74559774D01*
X151067205Y-74390256D01*
X151145226Y-74201898D01*
X151185000Y-74001939D01*
X151185000Y-73939801D01*
X154191003Y-70933799D01*
X154220001Y-70910001D01*
X154268157Y-70851323D01*
X154314974Y-70794277D01*
X154385546Y-70662247D01*
X154415409Y-70563799D01*
X154429003Y-70518986D01*
X154440000Y-70407333D01*
X154440000Y-70407323D01*
X154443676Y-70370000D01*
X154440000Y-70332677D01*
X154440000Y-69898061D01*
X155765000Y-69898061D01*
X155765000Y-70101939D01*
X155804774Y-70301898D01*
X155882795Y-70490256D01*
X155996063Y-70659774D01*
X156140226Y-70803937D01*
X156309744Y-70917205D01*
X156498102Y-70995226D01*
X156698061Y-71035000D01*
X156901939Y-71035000D01*
X157101898Y-70995226D01*
X157290256Y-70917205D01*
X157459774Y-70803937D01*
X157603937Y-70659774D01*
X157717205Y-70490256D01*
X157795226Y-70301898D01*
X157835000Y-70101939D01*
X157835000Y-70039801D01*
X160857279Y-67017523D01*
X161008889Y-67063513D01*
X161227050Y-67085000D01*
X161372950Y-67085000D01*
X161591111Y-67063513D01*
X161871034Y-66978599D01*
X162129014Y-66840706D01*
X162355134Y-66655134D01*
X162540706Y-66429014D01*
X162570000Y-66374209D01*
X162599294Y-66429014D01*
X162784866Y-66655134D01*
X163010986Y-66840706D01*
X163268966Y-66978599D01*
X163548889Y-67063513D01*
X163767050Y-67085000D01*
X163912950Y-67085000D01*
X164131111Y-67063513D01*
X164411034Y-66978599D01*
X164669014Y-66840706D01*
X164895134Y-66655134D01*
X165080706Y-66429014D01*
X165110000Y-66374209D01*
X165139294Y-66429014D01*
X165324866Y-66655134D01*
X165550986Y-66840706D01*
X165808966Y-66978599D01*
X166088889Y-67063513D01*
X166307050Y-67085000D01*
X166452950Y-67085000D01*
X166671111Y-67063513D01*
X166951034Y-66978599D01*
X167209014Y-66840706D01*
X167435134Y-66655134D01*
X167620706Y-66429014D01*
X167650000Y-66374209D01*
X167679294Y-66429014D01*
X167864866Y-66655134D01*
X168090986Y-66840706D01*
X168160001Y-66877595D01*
X168160000Y-71542462D01*
X168098102Y-71554774D01*
X167909744Y-71632795D01*
X167740226Y-71746063D01*
X167596063Y-71890226D01*
X167482795Y-72059744D01*
X167404774Y-72248102D01*
X167365000Y-72448061D01*
X167365000Y-72651939D01*
X167404774Y-72851898D01*
X167482795Y-73040256D01*
X167596063Y-73209774D01*
X167740226Y-73353937D01*
X167909744Y-73467205D01*
X168098102Y-73545226D01*
X168298061Y-73585000D01*
X168347435Y-73585000D01*
X168315000Y-73748061D01*
X168315000Y-73951939D01*
X168354774Y-74151898D01*
X168432795Y-74340256D01*
X168546063Y-74509774D01*
X168690226Y-74653937D01*
X168859744Y-74767205D01*
X169048102Y-74845226D01*
X169248061Y-74885000D01*
X169451939Y-74885000D01*
X169651898Y-74845226D01*
X169699825Y-74825374D01*
X168560199Y-75965000D01*
X168498061Y-75965000D01*
X168298102Y-76004774D01*
X168109744Y-76082795D01*
X167940226Y-76196063D01*
X167796063Y-76340226D01*
X167682795Y-76509744D01*
X167604774Y-76698102D01*
X167565000Y-76898061D01*
X167565000Y-77101939D01*
X167604774Y-77301898D01*
X167682795Y-77490256D01*
X167796063Y-77659774D01*
X167940226Y-77803937D01*
X168109744Y-77917205D01*
X168298102Y-77995226D01*
X168498061Y-78035000D01*
X168701939Y-78035000D01*
X168901898Y-77995226D01*
X169090256Y-77917205D01*
X169259774Y-77803937D01*
X169403937Y-77659774D01*
X169517205Y-77490256D01*
X169595226Y-77301898D01*
X169635000Y-77101939D01*
X169635000Y-77039801D01*
X174511004Y-72163798D01*
X174540001Y-72140001D01*
X174634974Y-72024276D01*
X174705546Y-71892247D01*
X174749003Y-71748986D01*
X174760000Y-71637333D01*
X174760000Y-71637324D01*
X174763676Y-71600001D01*
X174760000Y-71562678D01*
X174760000Y-66877595D01*
X174829014Y-66840706D01*
X175055134Y-66655134D01*
X175240706Y-66429014D01*
X175270000Y-66374209D01*
X175299294Y-66429014D01*
X175484866Y-66655134D01*
X175710986Y-66840706D01*
X175780001Y-66877595D01*
X175780000Y-71495197D01*
X168210199Y-79065000D01*
X168148061Y-79065000D01*
X167948102Y-79104774D01*
X167759744Y-79182795D01*
X167590226Y-79296063D01*
X167446063Y-79440226D01*
X167332795Y-79609744D01*
X167254774Y-79798102D01*
X167215000Y-79998061D01*
X167215000Y-80201939D01*
X167254774Y-80401898D01*
X167332795Y-80590256D01*
X167446063Y-80759774D01*
X167590226Y-80903937D01*
X167759744Y-81017205D01*
X167948102Y-81095226D01*
X168148061Y-81135000D01*
X168351939Y-81135000D01*
X168551898Y-81095226D01*
X168740256Y-81017205D01*
X168909774Y-80903937D01*
X169053937Y-80759774D01*
X169167205Y-80590256D01*
X169245226Y-80401898D01*
X169285000Y-80201939D01*
X169285000Y-80139801D01*
X177051009Y-72373794D01*
X177080001Y-72350001D01*
X177103795Y-72321008D01*
X177103799Y-72321004D01*
X177174973Y-72234277D01*
X177174974Y-72234276D01*
X177245546Y-72102247D01*
X177289003Y-71958986D01*
X177300000Y-71847333D01*
X177300000Y-71847324D01*
X177303676Y-71810001D01*
X177300000Y-71772678D01*
X177300000Y-66877595D01*
X177369014Y-66840706D01*
X177595134Y-66655134D01*
X177780706Y-66429014D01*
X177810000Y-66374209D01*
X177839294Y-66429014D01*
X178024866Y-66655134D01*
X178250986Y-66840706D01*
X178320001Y-66877595D01*
X178320000Y-80955198D01*
X176973283Y-82301916D01*
X176911145Y-82301916D01*
X176711186Y-82341690D01*
X176522828Y-82419711D01*
X176353310Y-82532979D01*
X176309373Y-82576916D01*
X173716795Y-82576916D01*
X173672858Y-82532979D01*
X173503340Y-82419711D01*
X173314982Y-82341690D01*
X173115023Y-82301916D01*
X172911145Y-82301916D01*
X172711186Y-82341690D01*
X172522828Y-82419711D01*
X172353310Y-82532979D01*
X172309373Y-82576916D01*
X169716795Y-82576916D01*
X169672858Y-82532979D01*
X169503340Y-82419711D01*
X169314982Y-82341690D01*
X169115023Y-82301916D01*
X168911145Y-82301916D01*
X168711186Y-82341690D01*
X168522828Y-82419711D01*
X168353310Y-82532979D01*
X168309373Y-82576916D01*
X165766795Y-82576916D01*
X165722858Y-82532979D01*
X165553340Y-82419711D01*
X165364982Y-82341690D01*
X165165023Y-82301916D01*
X164961145Y-82301916D01*
X164761186Y-82341690D01*
X164572828Y-82419711D01*
X164403310Y-82532979D01*
X164259147Y-82677142D01*
X164145879Y-82846660D01*
X164067858Y-83035018D01*
X164028084Y-83234977D01*
X164028084Y-83438855D01*
X164067858Y-83638814D01*
X164145879Y-83827172D01*
X164259147Y-83996690D01*
X164403310Y-84140853D01*
X164572828Y-84254121D01*
X164761186Y-84332142D01*
X164961145Y-84371916D01*
X165165023Y-84371916D01*
X165364982Y-84332142D01*
X165553340Y-84254121D01*
X165722858Y-84140853D01*
X165766795Y-84096916D01*
X168309373Y-84096916D01*
X168353310Y-84140853D01*
X168522828Y-84254121D01*
X168711186Y-84332142D01*
X168911145Y-84371916D01*
X169115023Y-84371916D01*
X169314982Y-84332142D01*
X169503340Y-84254121D01*
X169672858Y-84140853D01*
X169716795Y-84096916D01*
X172309373Y-84096916D01*
X172353310Y-84140853D01*
X172522828Y-84254121D01*
X172711186Y-84332142D01*
X172911145Y-84371916D01*
X173115023Y-84371916D01*
X173314982Y-84332142D01*
X173503340Y-84254121D01*
X173672858Y-84140853D01*
X173716795Y-84096916D01*
X176309373Y-84096916D01*
X176353310Y-84140853D01*
X176522828Y-84254121D01*
X176711186Y-84332142D01*
X176911145Y-84371916D01*
X177115023Y-84371916D01*
X177314982Y-84332142D01*
X177503340Y-84254121D01*
X177672858Y-84140853D01*
X177716795Y-84096916D01*
X180509373Y-84096916D01*
X180553310Y-84140853D01*
X180722828Y-84254121D01*
X180911186Y-84332142D01*
X181111145Y-84371916D01*
X181315023Y-84371916D01*
X181514982Y-84332142D01*
X181703340Y-84254121D01*
X181872858Y-84140853D01*
X181916795Y-84096916D01*
X184309373Y-84096916D01*
X184353310Y-84140853D01*
X184522828Y-84254121D01*
X184711186Y-84332142D01*
X184911145Y-84371916D01*
X185115023Y-84371916D01*
X185314982Y-84332142D01*
X185503340Y-84254121D01*
X185672858Y-84140853D01*
X185716795Y-84096916D01*
X188409373Y-84096916D01*
X188453310Y-84140853D01*
X188622828Y-84254121D01*
X188811186Y-84332142D01*
X189011145Y-84371916D01*
X189215023Y-84371916D01*
X189414982Y-84332142D01*
X189603340Y-84254121D01*
X189772858Y-84140853D01*
X189816795Y-84096916D01*
X192409373Y-84096916D01*
X192453310Y-84140853D01*
X192622828Y-84254121D01*
X192811186Y-84332142D01*
X193011145Y-84371916D01*
X193215023Y-84371916D01*
X193414982Y-84332142D01*
X193603340Y-84254121D01*
X193690000Y-84196217D01*
X193690000Y-85135198D01*
X193060199Y-85765000D01*
X192998061Y-85765000D01*
X192798102Y-85804774D01*
X192609744Y-85882795D01*
X192440226Y-85996063D01*
X192396289Y-86040000D01*
X189803711Y-86040000D01*
X189759774Y-85996063D01*
X189590256Y-85882795D01*
X189401898Y-85804774D01*
X189201939Y-85765000D01*
X188998061Y-85765000D01*
X188798102Y-85804774D01*
X188609744Y-85882795D01*
X188440226Y-85996063D01*
X188396289Y-86040000D01*
X185753711Y-86040000D01*
X185709774Y-85996063D01*
X185540256Y-85882795D01*
X185351898Y-85804774D01*
X185151939Y-85765000D01*
X184948061Y-85765000D01*
X184748102Y-85804774D01*
X184559744Y-85882795D01*
X184390226Y-85996063D01*
X184346289Y-86040000D01*
X181703711Y-86040000D01*
X181659774Y-85996063D01*
X181490256Y-85882795D01*
X181301898Y-85804774D01*
X181101939Y-85765000D01*
X180898061Y-85765000D01*
X180698102Y-85804774D01*
X180509744Y-85882795D01*
X180340226Y-85996063D01*
X180296289Y-86040000D01*
X177703711Y-86040000D01*
X177659774Y-85996063D01*
X177490256Y-85882795D01*
X177301898Y-85804774D01*
X177101939Y-85765000D01*
X176898061Y-85765000D01*
X176698102Y-85804774D01*
X176509744Y-85882795D01*
X176340226Y-85996063D01*
X176296289Y-86040000D01*
X173753711Y-86040000D01*
X173709774Y-85996063D01*
X173540256Y-85882795D01*
X173351898Y-85804774D01*
X173151939Y-85765000D01*
X172948061Y-85765000D01*
X172748102Y-85804774D01*
X172559744Y-85882795D01*
X172390226Y-85996063D01*
X172346289Y-86040000D01*
X169603711Y-86040000D01*
X169559774Y-85996063D01*
X169390256Y-85882795D01*
X169201898Y-85804774D01*
X169001939Y-85765000D01*
X168798061Y-85765000D01*
X168598102Y-85804774D01*
X168409744Y-85882795D01*
X168240226Y-85996063D01*
X168196289Y-86040000D01*
X165953711Y-86040000D01*
X165909774Y-85996063D01*
X165740256Y-85882795D01*
X165551898Y-85804774D01*
X165351939Y-85765000D01*
X165148061Y-85765000D01*
X164948102Y-85804774D01*
X164759744Y-85882795D01*
X164590226Y-85996063D01*
X164446063Y-86140226D01*
X164332795Y-86309744D01*
X164254774Y-86498102D01*
X164215000Y-86698061D01*
X164215000Y-86901939D01*
X164254774Y-87101898D01*
X164332795Y-87290256D01*
X164446063Y-87459774D01*
X164590226Y-87603937D01*
X164759744Y-87717205D01*
X164948102Y-87795226D01*
X165148061Y-87835000D01*
X165351939Y-87835000D01*
X165551898Y-87795226D01*
X165740256Y-87717205D01*
X165909774Y-87603937D01*
X165953711Y-87560000D01*
X168196289Y-87560000D01*
X168240226Y-87603937D01*
X168409744Y-87717205D01*
X168598102Y-87795226D01*
X168798061Y-87835000D01*
X169001939Y-87835000D01*
X169201898Y-87795226D01*
X169390256Y-87717205D01*
X169559774Y-87603937D01*
X169603711Y-87560000D01*
X172346289Y-87560000D01*
X172390226Y-87603937D01*
X172559744Y-87717205D01*
X172748102Y-87795226D01*
X172948061Y-87835000D01*
X173151939Y-87835000D01*
X173351898Y-87795226D01*
X173540256Y-87717205D01*
X173709774Y-87603937D01*
X173753711Y-87560000D01*
X176296289Y-87560000D01*
X176340226Y-87603937D01*
X176509744Y-87717205D01*
X176698102Y-87795226D01*
X176898061Y-87835000D01*
X177101939Y-87835000D01*
X177301898Y-87795226D01*
X177490256Y-87717205D01*
X177659774Y-87603937D01*
X177703711Y-87560000D01*
X180296289Y-87560000D01*
X180340226Y-87603937D01*
X180509744Y-87717205D01*
X180698102Y-87795226D01*
X180898061Y-87835000D01*
X181101939Y-87835000D01*
X181301898Y-87795226D01*
X181490256Y-87717205D01*
X181659774Y-87603937D01*
X181703711Y-87560000D01*
X184346289Y-87560000D01*
X184390226Y-87603937D01*
X184559744Y-87717205D01*
X184748102Y-87795226D01*
X184948061Y-87835000D01*
X185151939Y-87835000D01*
X185351898Y-87795226D01*
X185540256Y-87717205D01*
X185709774Y-87603937D01*
X185753711Y-87560000D01*
X188396289Y-87560000D01*
X188440226Y-87603937D01*
X188609744Y-87717205D01*
X188798102Y-87795226D01*
X188998061Y-87835000D01*
X189201939Y-87835000D01*
X189401898Y-87795226D01*
X189590256Y-87717205D01*
X189759774Y-87603937D01*
X189803711Y-87560000D01*
X192396289Y-87560000D01*
X192440226Y-87603937D01*
X192609744Y-87717205D01*
X192798102Y-87795226D01*
X192998061Y-87835000D01*
X193201939Y-87835000D01*
X193401898Y-87795226D01*
X193590256Y-87717205D01*
X193759774Y-87603937D01*
X193903937Y-87459774D01*
X194017205Y-87290256D01*
X194095226Y-87101898D01*
X194135000Y-86901939D01*
X194135000Y-86839801D01*
X194140009Y-86834792D01*
X194140009Y-88285188D01*
X193110198Y-89315000D01*
X193048061Y-89315000D01*
X192848102Y-89354774D01*
X192659744Y-89432795D01*
X192490226Y-89546063D01*
X192446289Y-89590000D01*
X189853711Y-89590000D01*
X189809774Y-89546063D01*
X189640256Y-89432795D01*
X189451898Y-89354774D01*
X189251939Y-89315000D01*
X189048061Y-89315000D01*
X188848102Y-89354774D01*
X188659744Y-89432795D01*
X188490226Y-89546063D01*
X188446289Y-89590000D01*
X185753711Y-89590000D01*
X185709774Y-89546063D01*
X185540256Y-89432795D01*
X185351898Y-89354774D01*
X185151939Y-89315000D01*
X184948061Y-89315000D01*
X184748102Y-89354774D01*
X184559744Y-89432795D01*
X184390226Y-89546063D01*
X184346289Y-89590000D01*
X181753711Y-89590000D01*
X181709774Y-89546063D01*
X181540256Y-89432795D01*
X181351898Y-89354774D01*
X181151939Y-89315000D01*
X180948061Y-89315000D01*
X180748102Y-89354774D01*
X180559744Y-89432795D01*
X180390226Y-89546063D01*
X180346289Y-89590000D01*
X177753711Y-89590000D01*
X177709774Y-89546063D01*
X177540256Y-89432795D01*
X177351898Y-89354774D01*
X177151939Y-89315000D01*
X176948061Y-89315000D01*
X176748102Y-89354774D01*
X176559744Y-89432795D01*
X176390226Y-89546063D01*
X176346289Y-89590000D01*
X173803711Y-89590000D01*
X173759774Y-89546063D01*
X173590256Y-89432795D01*
X173401898Y-89354774D01*
X173201939Y-89315000D01*
X172998061Y-89315000D01*
X172798102Y-89354774D01*
X172609744Y-89432795D01*
X172440226Y-89546063D01*
X172396289Y-89590000D01*
X169553711Y-89590000D01*
X169509774Y-89546063D01*
X169340256Y-89432795D01*
X169151898Y-89354774D01*
X168951939Y-89315000D01*
X168748061Y-89315000D01*
X168548102Y-89354774D01*
X168359744Y-89432795D01*
X168190226Y-89546063D01*
X168146289Y-89590000D01*
X165792914Y-89590000D01*
X165736641Y-89572930D01*
X165681691Y-89517980D01*
X165512173Y-89404712D01*
X165323815Y-89326691D01*
X165123856Y-89286917D01*
X164919978Y-89286917D01*
X164720019Y-89326691D01*
X164531661Y-89404712D01*
X164362143Y-89517980D01*
X164217980Y-89662143D01*
X164104712Y-89831661D01*
X164026691Y-90020019D01*
X163986917Y-90219978D01*
X163986917Y-90423856D01*
X164026691Y-90623815D01*
X164104712Y-90812173D01*
X164217980Y-90981691D01*
X164362143Y-91125854D01*
X164531661Y-91239122D01*
X164720019Y-91317143D01*
X164919978Y-91356917D01*
X165123856Y-91356917D01*
X165323815Y-91317143D01*
X165512173Y-91239122D01*
X165681691Y-91125854D01*
X165697545Y-91110000D01*
X168146289Y-91110000D01*
X168190226Y-91153937D01*
X168359744Y-91267205D01*
X168548102Y-91345226D01*
X168748061Y-91385000D01*
X168951939Y-91385000D01*
X169151898Y-91345226D01*
X169340256Y-91267205D01*
X169509774Y-91153937D01*
X169553711Y-91110000D01*
X172396289Y-91110000D01*
X172440226Y-91153937D01*
X172609744Y-91267205D01*
X172798102Y-91345226D01*
X172998061Y-91385000D01*
X173201939Y-91385000D01*
X173401898Y-91345226D01*
X173590256Y-91267205D01*
X173759774Y-91153937D01*
X173803711Y-91110000D01*
X176346289Y-91110000D01*
X176390226Y-91153937D01*
X176559744Y-91267205D01*
X176748102Y-91345226D01*
X176948061Y-91385000D01*
X177151939Y-91385000D01*
X177351898Y-91345226D01*
X177540256Y-91267205D01*
X177709774Y-91153937D01*
X177753711Y-91110000D01*
X180346289Y-91110000D01*
X180390226Y-91153937D01*
X180559744Y-91267205D01*
X180748102Y-91345226D01*
X180948061Y-91385000D01*
X181151939Y-91385000D01*
X181351898Y-91345226D01*
X181540256Y-91267205D01*
X181709774Y-91153937D01*
X181753711Y-91110000D01*
X184346289Y-91110000D01*
X184390226Y-91153937D01*
X184559744Y-91267205D01*
X184748102Y-91345226D01*
X184948061Y-91385000D01*
X185151939Y-91385000D01*
X185351898Y-91345226D01*
X185540256Y-91267205D01*
X185709774Y-91153937D01*
X185753711Y-91110000D01*
X188446289Y-91110000D01*
X188490226Y-91153937D01*
X188659744Y-91267205D01*
X188848102Y-91345226D01*
X189048061Y-91385000D01*
X189251939Y-91385000D01*
X189451898Y-91345226D01*
X189640256Y-91267205D01*
X189809774Y-91153937D01*
X189853711Y-91110000D01*
X192446289Y-91110000D01*
X192490226Y-91153937D01*
X192659744Y-91267205D01*
X192848102Y-91345226D01*
X193048061Y-91385000D01*
X193251939Y-91385000D01*
X193451898Y-91345226D01*
X193640256Y-91267205D01*
X193809774Y-91153937D01*
X193953937Y-91009774D01*
X194067205Y-90840256D01*
X194145226Y-90651898D01*
X194185000Y-90451939D01*
X194185000Y-90389802D01*
X194590018Y-89984784D01*
X194590018Y-91335180D01*
X193110199Y-92815000D01*
X193048061Y-92815000D01*
X192848102Y-92854774D01*
X192659744Y-92932795D01*
X192490226Y-93046063D01*
X192446289Y-93090000D01*
X189853711Y-93090000D01*
X189809774Y-93046063D01*
X189640256Y-92932795D01*
X189451898Y-92854774D01*
X189251939Y-92815000D01*
X189048061Y-92815000D01*
X188848102Y-92854774D01*
X188659744Y-92932795D01*
X188490226Y-93046063D01*
X188446289Y-93090000D01*
X185753711Y-93090000D01*
X185709774Y-93046063D01*
X185540256Y-92932795D01*
X185351898Y-92854774D01*
X185151939Y-92815000D01*
X184948061Y-92815000D01*
X184748102Y-92854774D01*
X184559744Y-92932795D01*
X184390226Y-93046063D01*
X184346289Y-93090000D01*
X181703711Y-93090000D01*
X181659774Y-93046063D01*
X181490256Y-92932795D01*
X181301898Y-92854774D01*
X181101939Y-92815000D01*
X180898061Y-92815000D01*
X180698102Y-92854774D01*
X180509744Y-92932795D01*
X180340226Y-93046063D01*
X180296289Y-93090000D01*
X177753711Y-93090000D01*
X177709774Y-93046063D01*
X177540256Y-92932795D01*
X177351898Y-92854774D01*
X177151939Y-92815000D01*
X176948061Y-92815000D01*
X176748102Y-92854774D01*
X176559744Y-92932795D01*
X176390226Y-93046063D01*
X176346289Y-93090000D01*
X173803711Y-93090000D01*
X173759774Y-93046063D01*
X173590256Y-92932795D01*
X173401898Y-92854774D01*
X173201939Y-92815000D01*
X172998061Y-92815000D01*
X172798102Y-92854774D01*
X172609744Y-92932795D01*
X172440226Y-93046063D01*
X172396289Y-93090000D01*
X169603711Y-93090000D01*
X169559774Y-93046063D01*
X169390256Y-92932795D01*
X169201898Y-92854774D01*
X169001939Y-92815000D01*
X168798061Y-92815000D01*
X168598102Y-92854774D01*
X168409744Y-92932795D01*
X168240226Y-93046063D01*
X168196289Y-93090000D01*
X166003711Y-93090000D01*
X165959774Y-93046063D01*
X165790256Y-92932795D01*
X165601898Y-92854774D01*
X165401939Y-92815000D01*
X165198061Y-92815000D01*
X164998102Y-92854774D01*
X164809744Y-92932795D01*
X164640226Y-93046063D01*
X164496063Y-93190226D01*
X164382795Y-93359744D01*
X164304774Y-93548102D01*
X164265000Y-93748061D01*
X164265000Y-93951939D01*
X164304774Y-94151898D01*
X164382795Y-94340256D01*
X164496063Y-94509774D01*
X164640226Y-94653937D01*
X164809744Y-94767205D01*
X164998102Y-94845226D01*
X165198061Y-94885000D01*
X165401939Y-94885000D01*
X165601898Y-94845226D01*
X165790256Y-94767205D01*
X165959774Y-94653937D01*
X166003711Y-94610000D01*
X168196289Y-94610000D01*
X168240226Y-94653937D01*
X168409744Y-94767205D01*
X168598102Y-94845226D01*
X168798061Y-94885000D01*
X169001939Y-94885000D01*
X169201898Y-94845226D01*
X169390256Y-94767205D01*
X169559774Y-94653937D01*
X169603711Y-94610000D01*
X172396289Y-94610000D01*
X172440226Y-94653937D01*
X172609744Y-94767205D01*
X172798102Y-94845226D01*
X172998061Y-94885000D01*
X173201939Y-94885000D01*
X173401898Y-94845226D01*
X173590256Y-94767205D01*
X173759774Y-94653937D01*
X173803711Y-94610000D01*
X176346289Y-94610000D01*
X176390226Y-94653937D01*
X176559744Y-94767205D01*
X176748102Y-94845226D01*
X176948061Y-94885000D01*
X177151939Y-94885000D01*
X177351898Y-94845226D01*
X177540256Y-94767205D01*
X177709774Y-94653937D01*
X177753711Y-94610000D01*
X180296289Y-94610000D01*
X180340226Y-94653937D01*
X180509744Y-94767205D01*
X180698102Y-94845226D01*
X180898061Y-94885000D01*
X181101939Y-94885000D01*
X181301898Y-94845226D01*
X181490256Y-94767205D01*
X181659774Y-94653937D01*
X181703711Y-94610000D01*
X184346289Y-94610000D01*
X184390226Y-94653937D01*
X184559744Y-94767205D01*
X184748102Y-94845226D01*
X184948061Y-94885000D01*
X185151939Y-94885000D01*
X185351898Y-94845226D01*
X185540256Y-94767205D01*
X185709774Y-94653937D01*
X185753711Y-94610000D01*
X188446289Y-94610000D01*
X188490226Y-94653937D01*
X188659744Y-94767205D01*
X188848102Y-94845226D01*
X189048061Y-94885000D01*
X189251939Y-94885000D01*
X189451898Y-94845226D01*
X189640256Y-94767205D01*
X189809774Y-94653937D01*
X189853711Y-94610000D01*
X192446289Y-94610000D01*
X192490226Y-94653937D01*
X192659744Y-94767205D01*
X192848102Y-94845226D01*
X193048061Y-94885000D01*
X193251939Y-94885000D01*
X193451898Y-94845226D01*
X193640256Y-94767205D01*
X193809774Y-94653937D01*
X193953937Y-94509774D01*
X194067205Y-94340256D01*
X194145226Y-94151898D01*
X194185000Y-93951939D01*
X194185000Y-93889801D01*
X195040029Y-93034773D01*
X195040029Y-94585169D01*
X193160199Y-96465000D01*
X193098061Y-96465000D01*
X192898102Y-96504774D01*
X192709744Y-96582795D01*
X192540226Y-96696063D01*
X192496289Y-96740000D01*
X189853711Y-96740000D01*
X189809774Y-96696063D01*
X189640256Y-96582795D01*
X189451898Y-96504774D01*
X189251939Y-96465000D01*
X189048061Y-96465000D01*
X188848102Y-96504774D01*
X188659744Y-96582795D01*
X188490226Y-96696063D01*
X188446289Y-96740000D01*
X185803711Y-96740000D01*
X185759774Y-96696063D01*
X185590256Y-96582795D01*
X185401898Y-96504774D01*
X185201939Y-96465000D01*
X184998061Y-96465000D01*
X184798102Y-96504774D01*
X184609744Y-96582795D01*
X184440226Y-96696063D01*
X184396289Y-96740000D01*
X181653711Y-96740000D01*
X181609774Y-96696063D01*
X181440256Y-96582795D01*
X181251898Y-96504774D01*
X181051939Y-96465000D01*
X180848061Y-96465000D01*
X180648102Y-96504774D01*
X180459744Y-96582795D01*
X180290226Y-96696063D01*
X180246289Y-96740000D01*
X177753711Y-96740000D01*
X177709774Y-96696063D01*
X177540256Y-96582795D01*
X177351898Y-96504774D01*
X177151939Y-96465000D01*
X176948061Y-96465000D01*
X176748102Y-96504774D01*
X176559744Y-96582795D01*
X176390226Y-96696063D01*
X176346289Y-96740000D01*
X173753711Y-96740000D01*
X173709774Y-96696063D01*
X173540256Y-96582795D01*
X173351898Y-96504774D01*
X173151939Y-96465000D01*
X172948061Y-96465000D01*
X172748102Y-96504774D01*
X172559744Y-96582795D01*
X172390226Y-96696063D01*
X172346289Y-96740000D01*
X169603711Y-96740000D01*
X169559774Y-96696063D01*
X169390256Y-96582795D01*
X169201898Y-96504774D01*
X169001939Y-96465000D01*
X168798061Y-96465000D01*
X168598102Y-96504774D01*
X168409744Y-96582795D01*
X168240226Y-96696063D01*
X168196289Y-96740000D01*
X166103711Y-96740000D01*
X166059774Y-96696063D01*
X165890256Y-96582795D01*
X165701898Y-96504774D01*
X165501939Y-96465000D01*
X165298061Y-96465000D01*
X165098102Y-96504774D01*
X164909744Y-96582795D01*
X164740226Y-96696063D01*
X164596063Y-96840226D01*
X164482795Y-97009744D01*
X164404774Y-97198102D01*
X164365000Y-97398061D01*
X164365000Y-97601939D01*
X164404774Y-97801898D01*
X164482795Y-97990256D01*
X164596063Y-98159774D01*
X164740226Y-98303937D01*
X164909744Y-98417205D01*
X165098102Y-98495226D01*
X165298061Y-98535000D01*
X165501939Y-98535000D01*
X165701898Y-98495226D01*
X165890256Y-98417205D01*
X166059774Y-98303937D01*
X166103711Y-98260000D01*
X168196289Y-98260000D01*
X168240226Y-98303937D01*
X168409744Y-98417205D01*
X168598102Y-98495226D01*
X168798061Y-98535000D01*
X169001939Y-98535000D01*
X169201898Y-98495226D01*
X169390256Y-98417205D01*
X169559774Y-98303937D01*
X169603711Y-98260000D01*
X172346289Y-98260000D01*
X172390226Y-98303937D01*
X172559744Y-98417205D01*
X172748102Y-98495226D01*
X172948061Y-98535000D01*
X173151939Y-98535000D01*
X173351898Y-98495226D01*
X173540256Y-98417205D01*
X173709774Y-98303937D01*
X173753711Y-98260000D01*
X176346289Y-98260000D01*
X176390226Y-98303937D01*
X176559744Y-98417205D01*
X176748102Y-98495226D01*
X176948061Y-98535000D01*
X177151939Y-98535000D01*
X177351898Y-98495226D01*
X177540256Y-98417205D01*
X177709774Y-98303937D01*
X177753711Y-98260000D01*
X180246289Y-98260000D01*
X180290226Y-98303937D01*
X180459744Y-98417205D01*
X180648102Y-98495226D01*
X180848061Y-98535000D01*
X181051939Y-98535000D01*
X181251898Y-98495226D01*
X181440256Y-98417205D01*
X181609774Y-98303937D01*
X181653711Y-98260000D01*
X184396289Y-98260000D01*
X184440226Y-98303937D01*
X184609744Y-98417205D01*
X184798102Y-98495226D01*
X184998061Y-98535000D01*
X185201939Y-98535000D01*
X185401898Y-98495226D01*
X185590256Y-98417205D01*
X185759774Y-98303937D01*
X185803711Y-98260000D01*
X188446289Y-98260000D01*
X188490226Y-98303937D01*
X188659744Y-98417205D01*
X188848102Y-98495226D01*
X189048061Y-98535000D01*
X189251939Y-98535000D01*
X189451898Y-98495226D01*
X189640256Y-98417205D01*
X189809774Y-98303937D01*
X189853711Y-98260000D01*
X192496289Y-98260000D01*
X192540226Y-98303937D01*
X192709744Y-98417205D01*
X192898102Y-98495226D01*
X193098061Y-98535000D01*
X193301939Y-98535000D01*
X193501898Y-98495226D01*
X193690256Y-98417205D01*
X193859774Y-98303937D01*
X194003937Y-98159774D01*
X194117205Y-97990256D01*
X194195226Y-97801898D01*
X194235000Y-97601939D01*
X194235000Y-97539801D01*
X195490036Y-96284766D01*
X195490036Y-97585162D01*
X193210199Y-99865000D01*
X193148061Y-99865000D01*
X192948102Y-99904774D01*
X192759744Y-99982795D01*
X192590226Y-100096063D01*
X192546289Y-100140000D01*
X189853711Y-100140000D01*
X189809774Y-100096063D01*
X189640256Y-99982795D01*
X189451898Y-99904774D01*
X189251939Y-99865000D01*
X189048061Y-99865000D01*
X188848102Y-99904774D01*
X188659744Y-99982795D01*
X188490226Y-100096063D01*
X188446289Y-100140000D01*
X185753711Y-100140000D01*
X185709774Y-100096063D01*
X185540256Y-99982795D01*
X185351898Y-99904774D01*
X185151939Y-99865000D01*
X184948061Y-99865000D01*
X184748102Y-99904774D01*
X184559744Y-99982795D01*
X184390226Y-100096063D01*
X184346289Y-100140000D01*
X181653711Y-100140000D01*
X181609774Y-100096063D01*
X181440256Y-99982795D01*
X181251898Y-99904774D01*
X181051939Y-99865000D01*
X180848061Y-99865000D01*
X180648102Y-99904774D01*
X180459744Y-99982795D01*
X180290226Y-100096063D01*
X180246289Y-100140000D01*
X177703711Y-100140000D01*
X177659774Y-100096063D01*
X177490256Y-99982795D01*
X177301898Y-99904774D01*
X177101939Y-99865000D01*
X176898061Y-99865000D01*
X176698102Y-99904774D01*
X176509744Y-99982795D01*
X176340226Y-100096063D01*
X176296289Y-100140000D01*
X173753711Y-100140000D01*
X173709774Y-100096063D01*
X173540256Y-99982795D01*
X173351898Y-99904774D01*
X173151939Y-99865000D01*
X172948061Y-99865000D01*
X172748102Y-99904774D01*
X172559744Y-99982795D01*
X172390226Y-100096063D01*
X172346289Y-100140000D01*
X169653711Y-100140000D01*
X169609774Y-100096063D01*
X169440256Y-99982795D01*
X169251898Y-99904774D01*
X169051939Y-99865000D01*
X168848061Y-99865000D01*
X168648102Y-99904774D01*
X168459744Y-99982795D01*
X168290226Y-100096063D01*
X168246289Y-100140000D01*
X166303711Y-100140000D01*
X166259774Y-100096063D01*
X166090256Y-99982795D01*
X165901898Y-99904774D01*
X165701939Y-99865000D01*
X165498061Y-99865000D01*
X165298102Y-99904774D01*
X165109744Y-99982795D01*
X164940226Y-100096063D01*
X164796063Y-100240226D01*
X164682795Y-100409744D01*
X164604774Y-100598102D01*
X164565000Y-100798061D01*
X164565000Y-101001939D01*
X164604774Y-101201898D01*
X164682795Y-101390256D01*
X164796063Y-101559774D01*
X164940226Y-101703937D01*
X165109744Y-101817205D01*
X165298102Y-101895226D01*
X165498061Y-101935000D01*
X165701939Y-101935000D01*
X165901898Y-101895226D01*
X166090256Y-101817205D01*
X166259774Y-101703937D01*
X166303711Y-101660000D01*
X168246289Y-101660000D01*
X168290226Y-101703937D01*
X168459744Y-101817205D01*
X168648102Y-101895226D01*
X168848061Y-101935000D01*
X169051939Y-101935000D01*
X169251898Y-101895226D01*
X169440256Y-101817205D01*
X169609774Y-101703937D01*
X169653711Y-101660000D01*
X172346289Y-101660000D01*
X172390226Y-101703937D01*
X172559744Y-101817205D01*
X172748102Y-101895226D01*
X172948061Y-101935000D01*
X173151939Y-101935000D01*
X173351898Y-101895226D01*
X173540256Y-101817205D01*
X173709774Y-101703937D01*
X173753711Y-101660000D01*
X176296289Y-101660000D01*
X176340226Y-101703937D01*
X176509744Y-101817205D01*
X176698102Y-101895226D01*
X176898061Y-101935000D01*
X177101939Y-101935000D01*
X177301898Y-101895226D01*
X177490256Y-101817205D01*
X177659774Y-101703937D01*
X177703711Y-101660000D01*
X180246289Y-101660000D01*
X180290226Y-101703937D01*
X180459744Y-101817205D01*
X180648102Y-101895226D01*
X180848061Y-101935000D01*
X181051939Y-101935000D01*
X181251898Y-101895226D01*
X181440256Y-101817205D01*
X181609774Y-101703937D01*
X181653711Y-101660000D01*
X184346289Y-101660000D01*
X184390226Y-101703937D01*
X184559744Y-101817205D01*
X184748102Y-101895226D01*
X184948061Y-101935000D01*
X185151939Y-101935000D01*
X185351898Y-101895226D01*
X185540256Y-101817205D01*
X185709774Y-101703937D01*
X185753711Y-101660000D01*
X188446289Y-101660000D01*
X188490226Y-101703937D01*
X188659744Y-101817205D01*
X188848102Y-101895226D01*
X189048061Y-101935000D01*
X189251939Y-101935000D01*
X189451898Y-101895226D01*
X189640256Y-101817205D01*
X189809774Y-101703937D01*
X189853711Y-101660000D01*
X192546289Y-101660000D01*
X192590226Y-101703937D01*
X192759744Y-101817205D01*
X192948102Y-101895226D01*
X193148061Y-101935000D01*
X193351939Y-101935000D01*
X193551898Y-101895226D01*
X193740256Y-101817205D01*
X193909774Y-101703937D01*
X194053937Y-101559774D01*
X194167205Y-101390256D01*
X194245226Y-101201898D01*
X194285000Y-101001939D01*
X194285000Y-100939801D01*
X195940047Y-99284755D01*
X195940047Y-100785151D01*
X193210199Y-103515000D01*
X193148061Y-103515000D01*
X192948102Y-103554774D01*
X192759744Y-103632795D01*
X192590226Y-103746063D01*
X192546289Y-103790000D01*
X189903711Y-103790000D01*
X189859774Y-103746063D01*
X189690256Y-103632795D01*
X189501898Y-103554774D01*
X189301939Y-103515000D01*
X189098061Y-103515000D01*
X188898102Y-103554774D01*
X188709744Y-103632795D01*
X188540226Y-103746063D01*
X188496289Y-103790000D01*
X185703711Y-103790000D01*
X185659774Y-103746063D01*
X185490256Y-103632795D01*
X185301898Y-103554774D01*
X185101939Y-103515000D01*
X184898061Y-103515000D01*
X184698102Y-103554774D01*
X184509744Y-103632795D01*
X184340226Y-103746063D01*
X184296289Y-103790000D01*
X181703711Y-103790000D01*
X181659774Y-103746063D01*
X181490256Y-103632795D01*
X181301898Y-103554774D01*
X181101939Y-103515000D01*
X180898061Y-103515000D01*
X180698102Y-103554774D01*
X180509744Y-103632795D01*
X180340226Y-103746063D01*
X180296289Y-103790000D01*
X177753711Y-103790000D01*
X177709774Y-103746063D01*
X177540256Y-103632795D01*
X177351898Y-103554774D01*
X177151939Y-103515000D01*
X176948061Y-103515000D01*
X176748102Y-103554774D01*
X176559744Y-103632795D01*
X176390226Y-103746063D01*
X176346289Y-103790000D01*
X173753711Y-103790000D01*
X173709774Y-103746063D01*
X173540256Y-103632795D01*
X173351898Y-103554774D01*
X173151939Y-103515000D01*
X172948061Y-103515000D01*
X172748102Y-103554774D01*
X172559744Y-103632795D01*
X172390226Y-103746063D01*
X172346289Y-103790000D01*
X169653711Y-103790000D01*
X169609774Y-103746063D01*
X169440256Y-103632795D01*
X169251898Y-103554774D01*
X169051939Y-103515000D01*
X168848061Y-103515000D01*
X168648102Y-103554774D01*
X168459744Y-103632795D01*
X168290226Y-103746063D01*
X168246289Y-103790000D01*
X166003711Y-103790000D01*
X165959774Y-103746063D01*
X165790256Y-103632795D01*
X165601898Y-103554774D01*
X165401939Y-103515000D01*
X165198061Y-103515000D01*
X164998102Y-103554774D01*
X164809744Y-103632795D01*
X164640226Y-103746063D01*
X164496063Y-103890226D01*
X164382795Y-104059744D01*
X164304774Y-104248102D01*
X164265000Y-104448061D01*
X164265000Y-104651939D01*
X164304774Y-104851898D01*
X164382795Y-105040256D01*
X164496063Y-105209774D01*
X164640226Y-105353937D01*
X164809744Y-105467205D01*
X164998102Y-105545226D01*
X165198061Y-105585000D01*
X165401939Y-105585000D01*
X165601898Y-105545226D01*
X165790256Y-105467205D01*
X165959774Y-105353937D01*
X166003711Y-105310000D01*
X168246289Y-105310000D01*
X168290226Y-105353937D01*
X168459744Y-105467205D01*
X168648102Y-105545226D01*
X168848061Y-105585000D01*
X169051939Y-105585000D01*
X169251898Y-105545226D01*
X169440256Y-105467205D01*
X169609774Y-105353937D01*
X169653711Y-105310000D01*
X172346289Y-105310000D01*
X172390226Y-105353937D01*
X172559744Y-105467205D01*
X172748102Y-105545226D01*
X172948061Y-105585000D01*
X173151939Y-105585000D01*
X173351898Y-105545226D01*
X173540256Y-105467205D01*
X173709774Y-105353937D01*
X173753711Y-105310000D01*
X176346289Y-105310000D01*
X176390226Y-105353937D01*
X176559744Y-105467205D01*
X176748102Y-105545226D01*
X176948061Y-105585000D01*
X177151939Y-105585000D01*
X177351898Y-105545226D01*
X177540256Y-105467205D01*
X177709774Y-105353937D01*
X177753711Y-105310000D01*
X180296289Y-105310000D01*
X180340226Y-105353937D01*
X180509744Y-105467205D01*
X180698102Y-105545226D01*
X180898061Y-105585000D01*
X181101939Y-105585000D01*
X181301898Y-105545226D01*
X181490256Y-105467205D01*
X181659774Y-105353937D01*
X181703711Y-105310000D01*
X184296289Y-105310000D01*
X184340226Y-105353937D01*
X184509744Y-105467205D01*
X184698102Y-105545226D01*
X184898061Y-105585000D01*
X185101939Y-105585000D01*
X185301898Y-105545226D01*
X185490256Y-105467205D01*
X185659774Y-105353937D01*
X185703711Y-105310000D01*
X188496289Y-105310000D01*
X188540226Y-105353937D01*
X188709744Y-105467205D01*
X188898102Y-105545226D01*
X189098061Y-105585000D01*
X189301939Y-105585000D01*
X189501898Y-105545226D01*
X189690256Y-105467205D01*
X189859774Y-105353937D01*
X189903711Y-105310000D01*
X192546289Y-105310000D01*
X192590226Y-105353937D01*
X192759744Y-105467205D01*
X192948102Y-105545226D01*
X193148061Y-105585000D01*
X193351939Y-105585000D01*
X193551898Y-105545226D01*
X193740256Y-105467205D01*
X193909774Y-105353937D01*
X194053937Y-105209774D01*
X194167205Y-105040256D01*
X194245226Y-104851898D01*
X194285000Y-104651939D01*
X194285000Y-104589801D01*
X196390055Y-102484747D01*
X196390055Y-103785143D01*
X193210199Y-106965000D01*
X193148061Y-106965000D01*
X192948102Y-107004774D01*
X192759744Y-107082795D01*
X192590226Y-107196063D01*
X192546289Y-107240000D01*
X189953711Y-107240000D01*
X189909774Y-107196063D01*
X189740256Y-107082795D01*
X189551898Y-107004774D01*
X189351939Y-106965000D01*
X189148061Y-106965000D01*
X188948102Y-107004774D01*
X188759744Y-107082795D01*
X188590226Y-107196063D01*
X188546289Y-107240000D01*
X185703711Y-107240000D01*
X185659774Y-107196063D01*
X185490256Y-107082795D01*
X185301898Y-107004774D01*
X185101939Y-106965000D01*
X184898061Y-106965000D01*
X184698102Y-107004774D01*
X184509744Y-107082795D01*
X184340226Y-107196063D01*
X184296289Y-107240000D01*
X181703711Y-107240000D01*
X181659774Y-107196063D01*
X181490256Y-107082795D01*
X181301898Y-107004774D01*
X181101939Y-106965000D01*
X180898061Y-106965000D01*
X180698102Y-107004774D01*
X180509744Y-107082795D01*
X180340226Y-107196063D01*
X180296289Y-107240000D01*
X177653711Y-107240000D01*
X177609774Y-107196063D01*
X177440256Y-107082795D01*
X177251898Y-107004774D01*
X177051939Y-106965000D01*
X176848061Y-106965000D01*
X176648102Y-107004774D01*
X176459744Y-107082795D01*
X176290226Y-107196063D01*
X176246289Y-107240000D01*
X173703711Y-107240000D01*
X173659774Y-107196063D01*
X173490256Y-107082795D01*
X173301898Y-107004774D01*
X173101939Y-106965000D01*
X172898061Y-106965000D01*
X172698102Y-107004774D01*
X172509744Y-107082795D01*
X172340226Y-107196063D01*
X172296289Y-107240000D01*
X169703711Y-107240000D01*
X169659774Y-107196063D01*
X169490256Y-107082795D01*
X169301898Y-107004774D01*
X169101939Y-106965000D01*
X168898061Y-106965000D01*
X168698102Y-107004774D01*
X168509744Y-107082795D01*
X168340226Y-107196063D01*
X168296289Y-107240000D01*
X165953711Y-107240000D01*
X165909774Y-107196063D01*
X165740256Y-107082795D01*
X165551898Y-107004774D01*
X165351939Y-106965000D01*
X165148061Y-106965000D01*
X164948102Y-107004774D01*
X164759744Y-107082795D01*
X164590226Y-107196063D01*
X164446063Y-107340226D01*
X164332795Y-107509744D01*
X164254774Y-107698102D01*
X164215000Y-107898061D01*
X164215000Y-108101939D01*
X164254774Y-108301898D01*
X164332795Y-108490256D01*
X164446063Y-108659774D01*
X164590226Y-108803937D01*
X164759744Y-108917205D01*
X164948102Y-108995226D01*
X165148061Y-109035000D01*
X165351939Y-109035000D01*
X165551898Y-108995226D01*
X165740256Y-108917205D01*
X165909774Y-108803937D01*
X165953711Y-108760000D01*
X168296289Y-108760000D01*
X168340226Y-108803937D01*
X168509744Y-108917205D01*
X168698102Y-108995226D01*
X168898061Y-109035000D01*
X169101939Y-109035000D01*
X169301898Y-108995226D01*
X169490256Y-108917205D01*
X169659774Y-108803937D01*
X169703711Y-108760000D01*
X172296289Y-108760000D01*
X172340226Y-108803937D01*
X172509744Y-108917205D01*
X172698102Y-108995226D01*
X172898061Y-109035000D01*
X173101939Y-109035000D01*
X173301898Y-108995226D01*
X173490256Y-108917205D01*
X173659774Y-108803937D01*
X173703711Y-108760000D01*
X176246289Y-108760000D01*
X176290226Y-108803937D01*
X176459744Y-108917205D01*
X176648102Y-108995226D01*
X176848061Y-109035000D01*
X177051939Y-109035000D01*
X177251898Y-108995226D01*
X177440256Y-108917205D01*
X177609774Y-108803937D01*
X177653711Y-108760000D01*
X180296289Y-108760000D01*
X180340226Y-108803937D01*
X180509744Y-108917205D01*
X180698102Y-108995226D01*
X180898061Y-109035000D01*
X181101939Y-109035000D01*
X181301898Y-108995226D01*
X181490256Y-108917205D01*
X181659774Y-108803937D01*
X181703711Y-108760000D01*
X184296289Y-108760000D01*
X184340226Y-108803937D01*
X184509744Y-108917205D01*
X184698102Y-108995226D01*
X184898061Y-109035000D01*
X185101939Y-109035000D01*
X185301898Y-108995226D01*
X185490256Y-108917205D01*
X185659774Y-108803937D01*
X185703711Y-108760000D01*
X188546289Y-108760000D01*
X188590226Y-108803937D01*
X188759744Y-108917205D01*
X188948102Y-108995226D01*
X189148061Y-109035000D01*
X189351939Y-109035000D01*
X189551898Y-108995226D01*
X189740256Y-108917205D01*
X189909774Y-108803937D01*
X189953711Y-108760000D01*
X192546289Y-108760000D01*
X192590226Y-108803937D01*
X192759744Y-108917205D01*
X192948102Y-108995226D01*
X193148061Y-109035000D01*
X193351939Y-109035000D01*
X193551898Y-108995226D01*
X193740256Y-108917205D01*
X193909774Y-108803937D01*
X194053937Y-108659774D01*
X194167205Y-108490256D01*
X194245226Y-108301898D01*
X194285000Y-108101939D01*
X194285000Y-108039801D01*
X197661059Y-104663743D01*
X197690056Y-104639946D01*
X197785029Y-104524221D01*
X197855601Y-104392192D01*
X197899058Y-104248931D01*
X197910055Y-104137278D01*
X197910055Y-104137270D01*
X197913731Y-104099945D01*
X197910055Y-104062620D01*
X197910055Y-67129461D01*
X197913731Y-67092136D01*
X197910055Y-67054811D01*
X197910055Y-67054803D01*
X197899058Y-66943150D01*
X197855601Y-66799889D01*
X197819972Y-66733232D01*
X197915134Y-66655134D01*
X198100706Y-66429014D01*
X198238599Y-66171034D01*
X198323513Y-65891111D01*
X198352185Y-65600000D01*
X198323513Y-65308889D01*
X198238599Y-65028966D01*
X198100706Y-64770986D01*
X197915134Y-64544866D01*
X197689014Y-64359294D01*
X197431034Y-64221401D01*
X197151111Y-64136487D01*
X196932950Y-64115000D01*
X196787050Y-64115000D01*
X196568889Y-64136487D01*
X196288966Y-64221401D01*
X196030986Y-64359294D01*
X195804866Y-64544866D01*
X195619294Y-64770986D01*
X195590000Y-64825791D01*
X195560706Y-64770986D01*
X195375134Y-64544866D01*
X195149014Y-64359294D01*
X194891034Y-64221401D01*
X194611111Y-64136487D01*
X194392950Y-64115000D01*
X194247050Y-64115000D01*
X194028889Y-64136487D01*
X193748966Y-64221401D01*
X193490986Y-64359294D01*
X193264866Y-64544866D01*
X193079294Y-64770986D01*
X193050000Y-64825791D01*
X193020706Y-64770986D01*
X192835134Y-64544866D01*
X192609014Y-64359294D01*
X192351034Y-64221401D01*
X192071111Y-64136487D01*
X191852950Y-64115000D01*
X191707050Y-64115000D01*
X191488889Y-64136487D01*
X191208966Y-64221401D01*
X190950986Y-64359294D01*
X190724866Y-64544866D01*
X190539294Y-64770986D01*
X190510000Y-64825791D01*
X190480706Y-64770986D01*
X190295134Y-64544866D01*
X190069014Y-64359294D01*
X189811034Y-64221401D01*
X189531111Y-64136487D01*
X189312950Y-64115000D01*
X189167050Y-64115000D01*
X188948889Y-64136487D01*
X188668966Y-64221401D01*
X188410986Y-64359294D01*
X188184866Y-64544866D01*
X187999294Y-64770986D01*
X187970000Y-64825791D01*
X187940706Y-64770986D01*
X187755134Y-64544866D01*
X187529014Y-64359294D01*
X187271034Y-64221401D01*
X186991111Y-64136487D01*
X186772950Y-64115000D01*
X186627050Y-64115000D01*
X186408889Y-64136487D01*
X186128966Y-64221401D01*
X185870986Y-64359294D01*
X185644866Y-64544866D01*
X185459294Y-64770986D01*
X185430000Y-64825791D01*
X185400706Y-64770986D01*
X185215134Y-64544866D01*
X184989014Y-64359294D01*
X184731034Y-64221401D01*
X184451111Y-64136487D01*
X184232950Y-64115000D01*
X184087050Y-64115000D01*
X183868889Y-64136487D01*
X183588966Y-64221401D01*
X183330986Y-64359294D01*
X183104866Y-64544866D01*
X182919294Y-64770986D01*
X182890000Y-64825791D01*
X182860706Y-64770986D01*
X182675134Y-64544866D01*
X182449014Y-64359294D01*
X182191034Y-64221401D01*
X181911111Y-64136487D01*
X181692950Y-64115000D01*
X181547050Y-64115000D01*
X181328889Y-64136487D01*
X181048966Y-64221401D01*
X180790986Y-64359294D01*
X180564866Y-64544866D01*
X180379294Y-64770986D01*
X180350000Y-64825791D01*
X180320706Y-64770986D01*
X180135134Y-64544866D01*
X179909014Y-64359294D01*
X179651034Y-64221401D01*
X179371111Y-64136487D01*
X179152950Y-64115000D01*
X179007050Y-64115000D01*
X178788889Y-64136487D01*
X178508966Y-64221401D01*
X178250986Y-64359294D01*
X178024866Y-64544866D01*
X177839294Y-64770986D01*
X177810000Y-64825791D01*
X177780706Y-64770986D01*
X177595134Y-64544866D01*
X177369014Y-64359294D01*
X177111034Y-64221401D01*
X176831111Y-64136487D01*
X176612950Y-64115000D01*
X176467050Y-64115000D01*
X176248889Y-64136487D01*
X175968966Y-64221401D01*
X175710986Y-64359294D01*
X175484866Y-64544866D01*
X175299294Y-64770986D01*
X175270000Y-64825791D01*
X175240706Y-64770986D01*
X175055134Y-64544866D01*
X174829014Y-64359294D01*
X174571034Y-64221401D01*
X174291111Y-64136487D01*
X174072950Y-64115000D01*
X173927050Y-64115000D01*
X173708889Y-64136487D01*
X173428966Y-64221401D01*
X173170986Y-64359294D01*
X173095252Y-64421447D01*
X172587804Y-63914001D01*
X172564002Y-63884998D01*
X172448277Y-63790025D01*
X172316248Y-63719453D01*
X172172987Y-63675996D01*
X172061334Y-63664999D01*
X172061323Y-63664999D01*
X172024001Y-63661323D01*
X171986679Y-63664999D01*
X167592323Y-63664999D01*
X167555000Y-63661323D01*
X167517677Y-63664999D01*
X167517668Y-63664999D01*
X167406015Y-63675996D01*
X167262754Y-63719453D01*
X167130725Y-63790025D01*
X167015000Y-63884998D01*
X166991197Y-63914002D01*
X166745996Y-64159203D01*
X166671111Y-64136487D01*
X166452950Y-64115000D01*
X166307050Y-64115000D01*
X166088889Y-64136487D01*
X165808966Y-64221401D01*
X165550986Y-64359294D01*
X165324866Y-64544866D01*
X165139294Y-64770986D01*
X165110000Y-64825791D01*
X165080706Y-64770986D01*
X164895134Y-64544866D01*
X164669014Y-64359294D01*
X164411034Y-64221401D01*
X164131111Y-64136487D01*
X163912950Y-64115000D01*
X163767050Y-64115000D01*
X163548889Y-64136487D01*
X163268966Y-64221401D01*
X163010986Y-64359294D01*
X162784866Y-64544866D01*
X162599294Y-64770986D01*
X162570000Y-64825791D01*
X162540706Y-64770986D01*
X162355134Y-64544866D01*
X162129014Y-64359294D01*
X161871034Y-64221401D01*
X161591111Y-64136487D01*
X161372950Y-64115000D01*
X161227050Y-64115000D01*
X161008889Y-64136487D01*
X160728966Y-64221401D01*
X160470986Y-64359294D01*
X160244866Y-64544866D01*
X160059294Y-64770986D01*
X160030000Y-64825791D01*
X160000706Y-64770986D01*
X159815134Y-64544866D01*
X159589014Y-64359294D01*
X159331034Y-64221401D01*
X159051111Y-64136487D01*
X158832950Y-64115000D01*
X158687050Y-64115000D01*
X158468889Y-64136487D01*
X158188966Y-64221401D01*
X157930986Y-64359294D01*
X157704866Y-64544866D01*
X157519294Y-64770986D01*
X157484799Y-64835523D01*
X157415178Y-64718645D01*
X157220269Y-64502412D01*
X156986920Y-64328359D01*
X156724099Y-64203175D01*
X156576890Y-64158524D01*
X156347000Y-64279845D01*
X156347000Y-65473000D01*
X156367000Y-65473000D01*
X156367000Y-65727000D01*
X156347000Y-65727000D01*
X156347000Y-66920155D01*
X156576890Y-67041476D01*
X156724099Y-66996825D01*
X156986920Y-66871641D01*
X157220269Y-66697588D01*
X157415178Y-66481355D01*
X157484799Y-66364477D01*
X157519294Y-66429014D01*
X157704866Y-66655134D01*
X157930986Y-66840706D01*
X158188966Y-66978599D01*
X158468889Y-67063513D01*
X158644399Y-67080799D01*
X156760199Y-68965000D01*
X156698061Y-68965000D01*
X156498102Y-69004774D01*
X156309744Y-69082795D01*
X156140226Y-69196063D01*
X155996063Y-69340226D01*
X155882795Y-69509744D01*
X155804774Y-69698102D01*
X155765000Y-69898061D01*
X154440000Y-69898061D01*
X154440000Y-67088072D01*
X154530000Y-67088072D01*
X154654482Y-67075812D01*
X154774180Y-67039502D01*
X154884494Y-66980537D01*
X154981185Y-66901185D01*
X155060537Y-66804494D01*
X155119502Y-66694180D01*
X155143966Y-66613534D01*
X155219731Y-66697588D01*
X155453080Y-66871641D01*
X155715901Y-66996825D01*
X155863110Y-67041476D01*
X156093000Y-66920155D01*
X156093000Y-65727000D01*
X156073000Y-65727000D01*
X156073000Y-65473000D01*
X156093000Y-65473000D01*
X156093000Y-64279845D01*
X155863110Y-64158524D01*
X155715901Y-64203175D01*
X155453080Y-64328359D01*
X155219731Y-64502412D01*
X155143966Y-64586466D01*
X155119502Y-64505820D01*
X155060537Y-64395506D01*
X154981185Y-64298815D01*
X154884494Y-64219463D01*
X154774180Y-64160498D01*
X154654482Y-64124188D01*
X154530000Y-64111928D01*
X152830000Y-64111928D01*
X152705518Y-64124188D01*
X152585820Y-64160498D01*
X152475506Y-64219463D01*
X152378815Y-64298815D01*
X152299463Y-64395506D01*
X152240498Y-64505820D01*
X152204188Y-64625518D01*
X152191928Y-64750000D01*
X152191928Y-66450000D01*
X152204188Y-66574482D01*
X152240498Y-66694180D01*
X152299463Y-66804494D01*
X152378815Y-66901185D01*
X152475506Y-66980537D01*
X152585820Y-67039502D01*
X152705518Y-67075812D01*
X152830000Y-67088072D01*
X152920000Y-67088072D01*
X152920001Y-70055197D01*
X150110199Y-72865000D01*
X150048061Y-72865000D01*
X149848102Y-72904774D01*
X149659744Y-72982795D01*
X149490226Y-73096063D01*
X149346063Y-73240226D01*
X149232795Y-73409744D01*
X149154774Y-73598102D01*
X149115000Y-73798061D01*
X149115000Y-74001939D01*
X149154774Y-74201898D01*
X149160483Y-74215682D01*
X142029801Y-67085000D01*
X142082950Y-67085000D01*
X142301111Y-67063513D01*
X142581034Y-66978599D01*
X142839014Y-66840706D01*
X143065134Y-66655134D01*
X143250706Y-66429014D01*
X143280000Y-66374209D01*
X143309294Y-66429014D01*
X143494866Y-66655134D01*
X143720986Y-66840706D01*
X143978966Y-66978599D01*
X144258889Y-67063513D01*
X144477050Y-67085000D01*
X144622950Y-67085000D01*
X144841111Y-67063513D01*
X145121034Y-66978599D01*
X145379014Y-66840706D01*
X145605134Y-66655134D01*
X145629607Y-66625313D01*
X145650498Y-66694180D01*
X145709463Y-66804494D01*
X145788815Y-66901185D01*
X145885506Y-66980537D01*
X145995820Y-67039502D01*
X146115518Y-67075812D01*
X146240000Y-67088072D01*
X147940000Y-67088072D01*
X148064482Y-67075812D01*
X148184180Y-67039502D01*
X148294494Y-66980537D01*
X148391185Y-66901185D01*
X148470537Y-66804494D01*
X148529502Y-66694180D01*
X148565812Y-66574482D01*
X148578072Y-66450000D01*
X148578072Y-64750000D01*
X148565812Y-64625518D01*
X148529502Y-64505820D01*
X148470537Y-64395506D01*
X148391185Y-64298815D01*
X148294494Y-64219463D01*
X148184180Y-64160498D01*
X148064482Y-64124188D01*
X147940000Y-64111928D01*
X146240000Y-64111928D01*
X146115518Y-64124188D01*
X145995820Y-64160498D01*
X145885506Y-64219463D01*
X145788815Y-64298815D01*
X145709463Y-64395506D01*
X145650498Y-64505820D01*
X145629607Y-64574687D01*
X145605134Y-64544866D01*
X145379014Y-64359294D01*
X145121034Y-64221401D01*
X144841111Y-64136487D01*
X144622950Y-64115000D01*
X144477050Y-64115000D01*
X144258889Y-64136487D01*
X143978966Y-64221401D01*
X143720986Y-64359294D01*
X143494866Y-64544866D01*
X143309294Y-64770986D01*
X143280000Y-64825791D01*
X143250706Y-64770986D01*
X143065134Y-64544866D01*
X142839014Y-64359294D01*
X142581034Y-64221401D01*
X142301111Y-64136487D01*
X142082950Y-64115000D01*
X141937050Y-64115000D01*
X141718889Y-64136487D01*
X141438966Y-64221401D01*
X141180986Y-64359294D01*
X140954866Y-64544866D01*
X140769294Y-64770986D01*
X140740000Y-64825791D01*
X140710706Y-64770986D01*
X140525134Y-64544866D01*
X140299014Y-64359294D01*
X140041034Y-64221401D01*
X139761111Y-64136487D01*
X139542950Y-64115000D01*
X139397050Y-64115000D01*
X139178889Y-64136487D01*
X138898966Y-64221401D01*
X138640986Y-64359294D01*
X138414866Y-64544866D01*
X138229294Y-64770986D01*
X138200000Y-64825791D01*
X138170706Y-64770986D01*
X137985134Y-64544866D01*
X137759014Y-64359294D01*
X137501034Y-64221401D01*
X137221111Y-64136487D01*
X137002950Y-64115000D01*
X136857050Y-64115000D01*
X136638889Y-64136487D01*
X136358966Y-64221401D01*
X136100986Y-64359294D01*
X135874866Y-64544866D01*
X135689294Y-64770986D01*
X135660000Y-64825791D01*
X135630706Y-64770986D01*
X135445134Y-64544866D01*
X135219014Y-64359294D01*
X134961034Y-64221401D01*
X134681111Y-64136487D01*
X134462950Y-64115000D01*
X134317050Y-64115000D01*
X134098889Y-64136487D01*
X133818966Y-64221401D01*
X133560986Y-64359294D01*
X133334866Y-64544866D01*
X133149294Y-64770986D01*
X133120000Y-64825791D01*
X133090706Y-64770986D01*
X132905134Y-64544866D01*
X132679014Y-64359294D01*
X132421034Y-64221401D01*
X132141111Y-64136487D01*
X131922950Y-64115000D01*
X131777050Y-64115000D01*
X131558889Y-64136487D01*
X131278966Y-64221401D01*
X131020986Y-64359294D01*
X130794866Y-64544866D01*
X130609294Y-64770986D01*
X130580000Y-64825791D01*
X130550706Y-64770986D01*
X130365134Y-64544866D01*
X130139014Y-64359294D01*
X129881034Y-64221401D01*
X129601111Y-64136487D01*
X129382950Y-64115000D01*
X129237050Y-64115000D01*
X129018889Y-64136487D01*
X128738966Y-64221401D01*
X128480986Y-64359294D01*
X128254866Y-64544866D01*
X128069294Y-64770986D01*
X128040000Y-64825791D01*
X128010706Y-64770986D01*
X127825134Y-64544866D01*
X127599014Y-64359294D01*
X127341034Y-64221401D01*
X127061111Y-64136487D01*
X126842950Y-64115000D01*
X126697050Y-64115000D01*
X126478889Y-64136487D01*
X126198966Y-64221401D01*
X125940986Y-64359294D01*
X125714866Y-64544866D01*
X125529294Y-64770986D01*
X125500000Y-64825791D01*
X125470706Y-64770986D01*
X125285134Y-64544866D01*
X125059014Y-64359294D01*
X124801034Y-64221401D01*
X124521111Y-64136487D01*
X124302950Y-64115000D01*
X124157050Y-64115000D01*
X123938889Y-64136487D01*
X123658966Y-64221401D01*
X123400986Y-64359294D01*
X123174866Y-64544866D01*
X122989294Y-64770986D01*
X122954799Y-64835523D01*
X122885178Y-64718645D01*
X122690269Y-64502412D01*
X122456920Y-64328359D01*
X122194099Y-64203175D01*
X122046890Y-64158524D01*
X121817000Y-64279845D01*
X121563000Y-64279845D01*
X121333110Y-64158524D01*
X121185901Y-64203175D01*
X120923080Y-64328359D01*
X120689731Y-64502412D01*
X120494822Y-64718645D01*
X120425201Y-64835523D01*
X120390706Y-64770986D01*
X120205134Y-64544866D01*
X119979014Y-64359294D01*
X119721034Y-64221401D01*
X119441111Y-64136487D01*
X119222950Y-64115000D01*
X119077050Y-64115000D01*
X118858889Y-64136487D01*
X118578966Y-64221401D01*
X118320986Y-64359294D01*
X118094866Y-64544866D01*
X117909294Y-64770986D01*
X117771401Y-65028966D01*
X117686487Y-65308889D01*
X117657815Y-65600000D01*
X116460000Y-65600000D01*
X116460000Y-62932276D01*
X116463866Y-62892848D01*
X116465944Y-62885964D01*
X116469321Y-62879613D01*
X116473860Y-62874048D01*
X116479400Y-62869464D01*
X116485729Y-62866042D01*
X116492592Y-62863918D01*
X116529867Y-62860000D01*
X198767724Y-62860000D01*
X198845999Y-62867675D01*
M02*
